<svg width="20" height="20" viewBox="0 0 20 20" fill="none" xmlns="http://www.w3.org/2000/svg">
<path d="M10 8.75C10.8035 8.75 11.5889 8.51174 12.257 8.06535C12.9251 7.61895 13.4458 6.98448 13.7533 6.24215C14.0607 5.49983 14.1412 4.683 13.9844 3.89495C13.8277 3.1069 13.4408 2.38303 12.8726 1.81488C12.3045 1.24673 11.5806 0.859814 10.7926 0.703062C10.0045 0.546309 9.18767 0.62676 8.44535 0.934241C7.70302 1.24172 7.06855 1.76242 6.62215 2.4305C6.17576 3.09857 5.9375 3.88402 5.9375 4.6875C5.9375 5.76494 6.36551 6.79826 7.12738 7.56012C7.88925 8.32199 8.92256 8.75 10 8.75ZM12.5 9.6875H7.5C6.09104 9.6875 4.73978 10.2472 3.7435 11.2435C2.74721 12.2398 2.1875 13.591 2.1875 15V19.0625C2.1875 19.1454 2.22042 19.2249 2.27903 19.2835C2.33763 19.3421 2.41712 19.375 2.5 19.375H17.5C17.5829 19.375 17.6624 19.3421 17.721 19.2835C17.7796 19.2249 17.8125 19.1454 17.8125 19.0625V15C17.8125 13.591 17.2528 12.2398 16.2565 11.2435C15.2602 10.2472 13.909 9.6875 12.5 9.6875ZM6.25 16.5625H5C4.91712 16.5625 4.83763 16.5296 4.77903 16.471C4.72042 16.4124 4.6875 16.3329 4.6875 16.25C4.6875 16.1671 4.72042 16.0876 4.77903 16.029C4.83763 15.9704 4.91712 15.9375 5 15.9375H6.25C6.33288 15.9375 6.41237 15.9704 6.47097 16.029C6.52958 16.0876 6.5625 16.1671 6.5625 16.25C6.5625 16.3329 6.52958 16.4124 6.47097 16.471C6.41237 16.5296 6.33288 16.5625 6.25 16.5625ZM7.5 15.3125H5C4.91712 15.3125 4.83763 15.2796 4.77903 15.221C4.72042 15.1624 4.6875 15.0829 4.6875 15C4.6875 14.9171 4.72042 14.8376 4.77903 14.779C4.83763 14.7204 4.91712 14.6875 5 14.6875H7.5C7.58288 14.6875 7.66237 14.7204 7.72097 14.779C7.77958 14.8376 7.8125 14.9171 7.8125 15C7.8125 15.0829 7.77958 15.1624 7.72097 15.221C7.66237 15.2796 7.58288 15.3125 7.5 15.3125Z" fill="#263238"/>
</svg>
