<svg width="48" height="48" viewBox="0 0 48 48" fill="none" xmlns="http://www.w3.org/2000/svg">
<g id="add user">
<path id="Add User" d="M13.4414 14.4C13.4414 12.6912 13.9481 11.0207 14.8975 9.59989C15.8469 8.17905 17.1963 7.07164 18.775 6.41769C20.3538 5.76375 22.091 5.59265 23.767 5.92603C25.443 6.25941 26.9825 7.08228 28.1908 8.29061C29.3991 9.49894 30.222 11.0384 30.5554 12.7144C30.8888 14.3904 30.7177 16.1276 30.0637 17.7064C29.4098 19.2852 28.3024 20.6345 26.8815 21.5839C25.4607 22.5333 23.7902 23.04 22.0814 23.04C19.791 23.0365 17.5955 22.125 15.9759 20.5055C14.3564 18.8859 13.445 16.6904 13.4414 14.4ZM33.6014 36.48H30.7214V33.6C30.7214 33.3454 30.6203 33.1012 30.4402 32.9212C30.2602 32.7412 30.016 32.64 29.7614 32.64C29.5068 32.64 29.2626 32.7412 29.0826 32.9212C28.9025 33.1012 28.8014 33.3454 28.8014 33.6V36.48H25.9214C25.6668 36.48 25.4226 36.5812 25.2426 36.7612C25.0625 36.9412 24.9614 37.1854 24.9614 37.44C24.9614 37.6946 25.0625 37.9388 25.2426 38.1188C25.4226 38.2989 25.6668 38.4 25.9214 38.4H28.8014V41.28C28.8014 41.5346 28.9025 41.7788 29.0826 41.9588C29.2626 42.1389 29.5068 42.24 29.7614 42.24C30.016 42.24 30.2602 42.1389 30.4402 41.9588C30.6203 41.7788 30.7214 41.5346 30.7214 41.28V38.4H33.6014C33.856 38.4 34.1002 38.2989 34.2802 38.1188C34.4603 37.9388 34.5614 37.6946 34.5614 37.44C34.5614 37.1854 34.4603 36.9412 34.2802 36.7612C34.1002 36.5812 33.856 36.48 33.6014 36.48ZM26.8814 40.32H25.9214C25.1576 40.32 24.425 40.0166 23.8849 39.4765C23.3448 38.9364 23.0414 38.2038 23.0414 37.44C23.0414 36.6762 23.3448 35.9437 23.8849 35.4035C24.425 34.8634 25.1576 34.56 25.9214 34.56H26.8814V33.6C26.8814 32.8362 27.1848 32.1037 27.7249 31.5635C28.265 31.0234 28.9976 30.72 29.7614 30.72C30.0705 30.7198 30.3767 30.7784 30.6638 30.8928C30.4712 29.2601 29.6868 27.7547 28.4591 26.6614C27.2313 25.5681 25.6454 24.9628 24.0014 24.96H20.1614C18.3792 24.96 16.6699 25.668 15.4096 26.9283C14.1494 28.1885 13.4414 29.8978 13.4414 31.68V41.28C13.4414 41.5346 13.5425 41.7788 13.7226 41.9588C13.9026 42.1389 14.1468 42.24 14.4014 42.24H27.0542C26.938 41.9334 26.8794 41.6079 26.8814 41.28V40.32Z" fill="#2B3344"/>
</g>
</svg>
