<svg width="24" height="24" viewBox="0 0 24 24" fill="none" xmlns="http://www.w3.org/2000/svg">
<g id="Advice" clip-path="url(#clip0_572_6096)">
<path id="Vector" d="M15.6008 9H21.1496C22.3095 9 23.25 9.9405 23.25 11.1007C23.25 11.2001 23.2429 11.2995 23.229 11.3977L22.7651 14.6437C22.6129 15.7087 21.7009 16.5 20.625 16.5H19.125L17.625 18V16.5H16.125C15.0491 16.5 14.1371 15.7087 13.9849 14.6437L13.521 11.3977C13.5071 11.2995 13.5 11.2001 13.5 11.1007C13.5 9.9405 14.4405 9 15.6008 9Z" fill="#3C82C2"/>
<path id="Vector_2" d="M21.75 13.875C21.75 14.7034 21.0784 15.375 20.25 15.375H14.2286C14.1071 15.153 14.0224 14.907 13.9849 14.6437L13.521 11.3977C13.5071 11.2995 13.5 11.2001 13.5 11.1007C13.5 9.9405 14.4405 9 15.6008 9H21.1496C21.3585 9 21.5599 9.0315 21.7504 9.08813L21.75 13.875Z" fill="#56A0D9"/>
<path id="Vector_3" d="M19.875 11.25H15V12H19.875V11.25Z" fill="white"/>
<path id="Vector_4" d="M21.75 13.5H15V14.25H21.75V13.5Z" fill="white"/>
<path id="Vector_5" d="M14.865 17.2894C15.1657 16.3999 15.7391 15.6139 16.5262 15.0604C18.5509 13.6372 19.875 11.2879 19.875 8.625C19.875 4.27575 16.3492 0.75 12 0.75C7.65075 0.75 4.125 4.27575 4.125 8.625C4.125 11.2879 5.44913 13.6372 7.47375 15.0604C8.26088 15.6139 8.83425 16.3999 9.135 17.2894" fill="#F9CB66"/>
<path id="Vector_6" d="M12 0.75C9.49463 0.75 7.2675 1.92375 5.82525 3.747C5.21925 4.86262 4.875 6.141 4.875 7.5C4.875 11.8492 8.40075 15.375 12.75 15.375C15.2423 15.375 17.4604 14.214 18.9034 12.4069C19.521 11.2849 19.875 9.9975 19.875 8.625C19.875 4.27575 16.3492 0.75 12 0.75Z" fill="#FFD992"/>
<path id="Vector_7" d="M15.375 19.5C15.375 19.0856 15.0394 18.75 14.625 18.75C15.0394 18.75 15.375 18.4144 15.375 18C15.375 17.5856 15.0394 17.25 14.625 17.25H9.375C8.96062 17.25 8.625 17.5856 8.625 18C8.625 18.4144 8.96062 18.75 9.375 18.75C8.96062 18.75 8.625 19.0856 8.625 19.5C8.625 19.9144 8.96062 20.25 9.375 20.25C8.96062 20.25 8.625 20.5856 8.625 21C8.625 21.4144 8.96062 21.75 9.375 21.75H14.625C15.0394 21.75 15.375 21.4144 15.375 21C15.375 20.5856 15.0394 20.25 14.625 20.25C15.0394 20.25 15.375 19.9144 15.375 19.5Z" fill="#777777"/>
<path id="Vector_8" d="M15.375 21C15.375 20.5856 15.0394 20.25 14.625 20.25C15.0394 20.25 15.375 19.9144 15.375 19.5C15.375 19.0856 15.0394 18.75 14.625 18.75C15.0394 18.75 15.375 18.4144 15.375 18C15.375 17.5856 15.0394 17.25 14.625 17.25H11.25C10.8356 17.25 10.5 17.5856 10.5 18C10.5 18.4144 10.8356 18.75 11.25 18.75C10.8356 18.75 10.5 19.0856 10.5 19.5C10.5 19.9144 10.8356 20.25 11.25 20.25C10.8356 20.25 10.5 20.5856 10.5 21C10.5 21.4144 10.8356 21.75 11.25 21.75H14.625C15.0394 21.75 15.375 21.4144 15.375 21Z" fill="#959595"/>
<path id="Vector_9" d="M9.37513 21.75C9.59563 22.6316 10.3876 23.25 11.2963 23.25H12.704C13.6126 23.25 14.4046 22.6316 14.6251 21.75M14.6251 18.75C14.9019 18.75 15.1411 18.5981 15.2713 18.375H8.729C8.85875 18.5981 9.098 18.75 9.37513 18.75C9.09838 18.75 8.85913 18.9019 8.729 19.125H15.2709C15.1411 18.9019 14.9019 18.75 14.6251 18.75ZM9.37513 20.25C9.09838 20.25 8.85913 20.4019 8.729 20.625H15.2709C15.1411 20.4019 14.9019 20.25 14.6248 20.25C14.9015 20.25 15.1408 20.0981 15.2709 19.875H8.729C8.85913 20.0981 9.09838 20.25 9.37513 20.25Z" fill="#C8C8C8"/>
<path id="Vector_10" d="M14.6251 18.75C14.9019 18.75 15.1411 18.5981 15.2713 18.375H10.604C10.7338 18.5981 10.973 18.75 11.2501 18.75C10.9734 18.75 10.7341 18.9019 10.604 19.125H15.2709C15.1411 18.9019 14.9019 18.75 14.6251 18.75ZM14.6251 20.25C14.9019 20.25 15.1411 20.0981 15.2713 19.875H10.604C10.7338 20.0981 10.973 20.25 11.2501 20.25C10.9734 20.25 10.7341 20.4019 10.604 20.625H15.2709C15.1411 20.4019 14.9019 20.25 14.6251 20.25Z" fill="#DCDCDC"/>
<path id="Vector_11" d="M9.375 21.75C9.5955 22.6316 10.3875 23.25 11.2961 23.25H12.7039C13.6125 23.25 14.4045 22.6316 14.625 21.75" fill="#C8C8C8"/>
<path id="Vector_12" d="M12.75 23.2463C13.6388 23.2253 14.4083 22.6166 14.625 21.75H10.875C11.0917 22.6163 11.8613 23.2253 12.75 23.2463Z" fill="#DCDCDC"/>
<path id="Vector_13" d="M8.625 12.75C9.03921 12.75 9.375 12.4142 9.375 12C9.375 11.5858 9.03921 11.25 8.625 11.25C8.21079 11.25 7.875 11.5858 7.875 12C7.875 12.4142 8.21079 12.75 8.625 12.75Z" fill="white"/>
<path id="Vector_14" d="M12 12.75C12.4142 12.75 12.75 12.4142 12.75 12C12.75 11.5858 12.4142 11.25 12 11.25C11.5858 11.25 11.25 11.5858 11.25 12C11.25 12.4142 11.5858 12.75 12 12.75Z" fill="white"/>
<path id="Vector_15" d="M15.375 12.75C15.7892 12.75 16.125 12.4142 16.125 12C16.125 11.5858 15.7892 11.25 15.375 11.25C14.9608 11.25 14.625 11.5858 14.625 12C14.625 12.4142 14.9608 12.75 15.375 12.75Z" fill="white"/>
<path id="Vector_16" d="M8.39925 1.5H2.85075C1.6905 1.5 0.75 2.4405 0.75 3.60075C0.75 3.70012 0.757125 3.7995 0.771 3.89775L1.23487 7.14375C1.38713 8.20875 2.29912 9 3.375 9H4.875L6.375 10.5V9H7.875C8.95088 9 9.86287 8.20875 10.0151 7.14375L10.479 3.89775C10.4929 3.7995 10.5 3.70012 10.5 3.60075C10.5 2.4405 9.5595 1.5 8.39925 1.5Z" fill="#6AC4E8"/>
<path id="Vector_17" d="M2.25 6.375C2.25 7.20337 2.92162 7.875 3.75 7.875H9.77137C9.89287 7.653 9.97763 7.407 10.0151 7.14375L10.479 3.89775C10.4929 3.7995 10.5 3.70012 10.5 3.60075C10.5 2.4405 9.5595 1.5 8.39925 1.5H2.85075C2.64188 1.5 2.4405 1.5315 2.25 1.58813V6.375Z" fill="#8EDFF8"/>
<path id="Vector_18" d="M9 3.75H4.125V4.5H9V3.75Z" fill="white"/>
<path id="Vector_19" d="M9 6H2.25V6.75H9V6Z" fill="white"/>
<path id="Vector_20" d="M21.1493 8.625H20.25C20.25 4.07588 16.5491 0.375 12 0.375C10.7936 0.375 9.633 0.631125 8.54775 1.1325C8.49825 1.1295 8.4495 1.125 8.39925 1.125H2.85075C1.48575 1.125 0.375 2.23575 0.375 3.60075C0.375 3.71775 0.382875 3.83475 0.399375 3.951L0.86325 7.197C1.04063 8.43862 2.12025 9.375 3.375 9.375H3.786C4.00275 11.7885 5.253 13.9575 7.25775 15.3671C7.88925 15.8108 8.37337 16.4156 8.67225 17.1281C8.41687 17.3347 8.25 17.6467 8.25 18C8.25 18.288 8.35875 18.5509 8.53725 18.75C8.35875 18.9491 8.25 19.212 8.25 19.5C8.25 19.788 8.35875 20.0509 8.53725 20.25C8.35875 20.4491 8.25 20.712 8.25 21C8.25 21.5231 8.61038 21.96 9.09488 22.0853C9.4335 23.0014 10.3012 23.625 11.2961 23.625H12.7039C13.6987 23.625 14.5665 23.0014 14.9051 22.0853C15.3896 21.96 15.75 21.5231 15.75 21C15.75 20.712 15.6413 20.4491 15.4628 20.25C15.6413 20.0509 15.75 19.788 15.75 19.5C15.75 19.212 15.6413 18.9491 15.4628 18.75C15.6413 18.5509 15.75 18.288 15.75 18C15.75 17.6467 15.5831 17.3347 15.3274 17.1285C15.3758 17.0134 15.4286 16.9009 15.4867 16.7914C15.6941 16.845 15.9075 16.875 16.125 16.875H17.25V18C17.25 18.1515 17.3411 18.2887 17.4814 18.3465C17.5279 18.366 17.5766 18.375 17.625 18.375C17.7225 18.375 17.8185 18.3368 17.8901 18.2651L19.2803 16.875H20.625C21.8797 16.875 22.9594 15.9386 23.1364 14.6966L23.6003 11.4503C23.6171 11.3348 23.625 11.2177 23.625 11.1007C23.625 9.73575 22.5142 8.625 21.1493 8.625ZM1.60612 7.0905L1.14225 3.84488C1.131 3.76425 1.125 3.6825 1.125 3.60075C1.125 2.649 1.899 1.875 2.85075 1.875H8.39962C9.351 1.875 10.125 2.649 10.125 3.60075C10.125 3.6825 10.1194 3.76388 10.1074 3.84488L9.64388 7.0905C9.51937 7.96538 8.7585 8.625 7.875 8.625H6.375C6.16762 8.625 6 8.79263 6 9V9.59475L5.14012 8.73487C5.07 8.66437 4.97475 8.625 4.875 8.625H3.375C2.4915 8.625 1.73063 7.96538 1.60612 7.0905ZM7.68937 14.7536C5.88525 13.485 4.752 11.5414 4.53788 9.375H4.71938L6.1095 10.7651C6.1815 10.8368 6.2775 10.875 6.375 10.875C6.42338 10.875 6.47212 10.866 6.51862 10.8465C6.65887 10.7887 6.75 10.6515 6.75 10.5V9.375H7.875C9.12975 9.375 10.2094 8.43863 10.3864 7.19662L10.8495 3.95175C10.8667 3.83663 10.875 3.7185 10.875 3.60075C10.875 2.70788 10.398 1.926 9.687 1.49062C10.4291 1.24912 11.2035 1.125 12 1.125C16.1355 1.125 19.5 4.4895 19.5 8.625C19.5 11.0588 18.3075 13.35 16.3106 14.7536C15.552 15.2869 14.9741 16.0166 14.622 16.875H9.378C9.02588 16.0166 8.448 15.2869 7.68937 14.7536ZM12.7039 22.875H11.2961C10.7325 22.875 10.2274 22.5821 9.93975 22.125H14.0606C13.7726 22.5821 13.2675 22.875 12.7039 22.875ZM14.625 21.375H9.375C9.168 21.375 9 21.207 9 21C9 20.793 9.168 20.625 9.375 20.625H14.625C14.832 20.625 15 20.793 15 21C15 21.207 14.832 21.375 14.625 21.375ZM14.625 19.875H9.375C9.168 19.875 9 19.707 9 19.5C9 19.293 9.168 19.125 9.375 19.125H14.625C14.832 19.125 15 19.293 15 19.5C15 19.707 14.832 19.875 14.625 19.875ZM14.625 18.375H9.375C9.168 18.375 9 18.207 9 18C9 17.793 9.168 17.625 9.375 17.625H14.625C14.832 17.625 15 17.793 15 18C15 18.207 14.832 18.375 14.625 18.375ZM22.8577 11.3445L22.3939 14.5905C22.2694 15.4654 21.5085 16.125 20.625 16.125H19.125C19.0252 16.125 18.93 16.1644 18.8599 16.2349L18 17.0947V16.5C18 16.2926 17.8324 16.125 17.625 16.125H16.125C16.0642 16.125 16.0054 16.1137 15.9454 16.1077C16.1756 15.8287 16.4411 15.579 16.7423 15.3671C17.2114 15.0371 17.6374 14.6606 18.0214 14.25H21.75V13.5H18.6442C18.9889 13.0309 19.2851 12.5291 19.5236 12H21.75V11.25H19.815C20.0186 10.6466 20.1529 10.0181 20.2121 9.375H21.1496C22.101 9.375 22.875 10.149 22.875 11.1007C22.875 11.1825 22.869 11.2643 22.8577 11.3445Z" fill="black"/>
<path id="Vector_21" d="M9.75 12C9.75 11.3798 9.24525 10.875 8.625 10.875C8.00475 10.875 7.5 11.3798 7.5 12C7.5 12.6202 8.00475 13.125 8.625 13.125C9.24525 13.125 9.75 12.6202 9.75 12ZM8.25 12C8.25 11.793 8.418 11.625 8.625 11.625C8.832 11.625 9 11.793 9 12C9 12.207 8.832 12.375 8.625 12.375C8.418 12.375 8.25 12.207 8.25 12ZM12 13.125C12.6203 13.125 13.125 12.6202 13.125 12C13.125 11.3798 12.6203 10.875 12 10.875C11.3798 10.875 10.875 11.3798 10.875 12C10.875 12.6202 11.3798 13.125 12 13.125ZM12 11.625C12.207 11.625 12.375 11.793 12.375 12C12.375 12.207 12.207 12.375 12 12.375C11.793 12.375 11.625 12.207 11.625 12C11.625 11.793 11.793 11.625 12 11.625ZM15.375 13.125C15.9952 13.125 16.5 12.6202 16.5 12C16.5 11.3798 15.9952 10.875 15.375 10.875C14.7547 10.875 14.25 11.3798 14.25 12C14.25 12.6202 14.7547 13.125 15.375 13.125ZM15.375 11.625C15.582 11.625 15.75 11.793 15.75 12C15.75 12.207 15.582 12.375 15.375 12.375C15.168 12.375 15 12.207 15 12C15 11.793 15.168 11.625 15.375 11.625Z" fill="black"/>
<path id="Vector_22" d="M9 3.75H4.125V4.5H9V3.75Z" fill="black"/>
<path id="Vector_23" d="M9 6H2.25V6.75H9V6Z" fill="black"/>
</g>
<defs>
<clipPath id="clip0_572_6096">
<rect width="24" height="24" fill="white"/>
</clipPath>
</defs>
</svg>
