<svg width="48" height="52" viewBox="0 0 48 52" fill="none" xmlns="http://www.w3.org/2000/svg">
<g id="Group 24">
<path id="Vector" d="M15.1145 16.578L14.5857 15.2843L12.8374 15.9734L13.3662 17.2671L13.1914 17.3361L13.3584 17.7446L15.4564 16.9176L15.2894 16.5091L15.1145 16.578Z" fill="#BF2635"/>
<path id="Vector_2" d="M15.3239 1.3953C13.3197 0.56456 10.9834 1.80171 8.91116 3.88349C5.94828 3.78642 3.38932 4.47885 2.52626 6.43977C1.66319 8.40069 2.60235 10.7976 4.72321 12.8078C5.86036 13.9012 7.34717 14.8568 9.05805 15.566C10.7689 16.2751 12.5433 16.643 14.1086 16.6981C15.2357 15.5818 16.2237 14.125 16.9604 12.4511C17.6972 10.7771 18.0846 9.0432 18.1502 7.5152C18.3371 4.59538 17.3141 2.19199 15.3239 1.3953Z" fill="#FE3F45"/>
<path id="Vector_3" d="M15.3232 1.39528C14.8832 1.21293 14.4501 1.14648 13.9609 1.14165C16.1745 2.08748 17.2949 4.72918 17.1494 7.94893C17.0834 9.67472 16.6467 11.5862 15.8047 13.4993C15.2785 14.6949 14.6616 15.7682 13.9541 16.7191C14.003 16.7394 14.0729 16.7118 14.1218 16.7321C15.2489 15.6158 16.2368 14.1591 16.9736 12.4851C17.7104 10.8112 18.0978 9.07723 18.1634 7.54923C18.3364 4.59536 17.3134 2.19198 15.3232 1.39528Z" fill="#BF2635"/>
<path id="Vector_4" d="M5.94075 7.93993C5.52688 8.8146 4.69447 9.2613 4.05901 8.9979C3.42354 8.73449 3.23655 7.78042 3.65043 6.90574C4.0643 6.03107 4.8967 5.58437 5.53217 5.84777C6.18156 6.14522 6.36854 7.0993 5.94075 7.93993Z" fill="#C62E31"/>
<g id="Group">
<path id="Vector_5" d="M18.9098 24.1739C18.8049 24.2153 18.7211 24.2088 18.6094 24.1342L17.2625 23.1235C16.2017 22.3162 15.8898 20.8579 16.5977 19.7093C17.1093 18.8751 16.9644 17.8254 16.2458 17.1599L16.183 17.1056C15.7017 16.6233 14.9681 16.5172 14.3387 16.7653L13.1498 17.2339C13.01 17.289 12.8284 17.242 12.7588 17.0718C12.6892 16.9016 12.7524 16.7581 12.9272 16.6892L14.151 16.2068C14.9902 15.876 15.9543 16.0494 16.6101 16.6606L16.6729 16.7149C17.5449 17.557 17.7173 18.8726 17.1004 19.9459C16.5328 20.8417 16.7683 22.0138 17.6407 22.6582L18.9876 23.6689C19.1132 23.7775 19.1339 23.9275 19.0219 24.0507C18.9798 24.1464 18.9448 24.1601 18.9098 24.1739Z" fill="#EBEBEB"/>
</g>
<path id="Vector_6" d="M45.6844 27.2923C44.6219 31.2753 40.4345 33.689 37.7402 34.8602C37.0754 35.1478 36.3257 35.1879 35.6326 34.9729C34.9396 34.758 34.3514 34.3029 33.979 33.6937C32.4947 31.2726 30.54 27.0577 31.7973 23.0982C32.3675 21.3024 33.6458 19.8011 35.351 18.9245C37.0563 18.0479 39.0487 17.8679 40.8901 18.424C44.7256 19.5824 46.695 23.5038 45.6844 27.2923Z" fill="#97D729"/>
<path id="Vector_7" d="M45.6846 27.2924C46.3487 24.8006 45.7244 22.252 44.1289 20.4694C44.4744 21.7604 44.473 23.1164 44.1249 24.4067C43.0624 28.3896 38.8751 30.8033 36.1807 31.9745C35.5716 32.2383 34.8893 32.2947 34.2433 32.1348C33.5974 31.9749 33.0252 31.6079 32.6189 31.0927C33.0107 31.9891 33.4652 32.8582 33.9792 33.6937C34.3516 34.303 34.9399 34.758 35.6329 34.973C36.3259 35.1879 37.0756 35.1478 37.7404 34.8603C40.434 33.6889 44.6221 31.2753 45.6846 27.2924Z" fill="#8BC727"/>
<path id="Vector_8" d="M30.3502 50.3232C30.2752 50.3006 30.2056 50.2634 30.1456 50.2139C30.0258 50.1154 29.9509 49.9746 29.9374 49.8224C29.9238 49.6701 29.9727 49.5189 30.0733 49.4017C31.1234 48.1742 31.7301 46.9159 31.8653 45.6584C31.9089 45.1551 31.9064 44.649 31.8577 44.1461C31.8021 43.3413 31.7446 42.5086 32.1442 41.4895C32.4917 40.6028 33.0897 39.8111 33.9225 39.1354C33.9815 39.0824 34.0509 39.0417 34.1266 39.0158C34.2022 38.9898 34.2825 38.9791 34.3625 38.9844C34.4425 38.9896 34.5206 39.0107 34.592 39.0462C34.6634 39.0818 34.7266 39.1312 34.7778 39.1914C34.829 39.2516 34.8672 39.3213 34.8899 39.3963C34.9126 39.4713 34.9195 39.55 34.91 39.6276C34.9006 39.7053 34.875 39.7803 34.835 39.848C34.7949 39.9157 34.7411 39.9748 34.6768 40.0216C34.0021 40.5688 33.5213 41.202 33.2467 41.9006C32.9404 42.683 32.985 43.3251 33.0362 44.0682C33.0896 44.637 33.091 45.2093 33.0404 45.7783C32.8799 47.2688 32.1829 48.7389 30.9769 50.1455C30.902 50.2319 30.8025 50.2949 30.691 50.3265C30.5796 50.3581 30.461 50.357 30.3502 50.3232Z" fill="#E8EDF2"/>
<path id="Vector_9" d="M31.2067 27.6561C31.1316 27.6335 31.062 27.5963 31.002 27.5468C30.8822 27.4483 30.8074 27.3075 30.7938 27.1553C30.7803 27.003 30.8292 26.8518 30.9298 26.7346C31.9798 25.5071 32.5865 24.2488 32.7217 22.9913C32.7654 22.488 32.7629 21.9819 32.7141 21.479C32.6585 20.6742 32.6011 19.8415 33.0006 18.8224C33.3482 17.9357 33.9462 17.144 34.7789 16.4683C34.8379 16.4153 34.9074 16.3746 34.983 16.3487C35.0586 16.3227 35.1389 16.312 35.2189 16.3172C35.2989 16.3225 35.377 16.3435 35.4484 16.3791C35.5198 16.4147 35.583 16.4641 35.6343 16.5243C35.6855 16.5845 35.7236 16.6542 35.7463 16.7292C35.7691 16.8041 35.7759 16.8829 35.7665 16.9605C35.757 17.0382 35.7315 17.1132 35.6914 17.1809C35.6513 17.2486 35.5975 17.3077 35.5333 17.3545C34.8586 17.9017 34.3778 18.5348 34.1031 19.2335C33.7969 20.0159 33.8414 20.658 33.8927 21.4011C33.9461 21.9699 33.9475 22.5422 33.8969 23.1112C33.7364 24.6017 33.0393 26.0718 31.8334 27.4784C31.7584 27.5648 31.659 27.6278 31.5475 27.6594C31.436 27.691 31.3175 27.6899 31.2067 27.6561Z" fill="#E8EDF2"/>
<path id="Vector_10" d="M35.7899 40.0286L32.6555 39.0819C32.5262 39.043 32.4104 38.9703 32.3204 38.8717C32.2304 38.7732 32.1697 38.6526 32.1449 38.5229C32.1201 38.3932 32.1321 38.2594 32.1795 38.1358C32.227 38.0123 32.3082 37.9037 32.4143 37.8219L35.5371 35.4158L36.719 39.122C36.7592 39.248 36.7632 39.3823 36.7308 39.5104C36.6984 39.6384 36.6307 39.7555 36.5351 39.8488C36.4394 39.9421 36.3195 40.0082 36.1881 40.0399C36.0568 40.0715 35.9191 40.0676 35.7899 40.0286Z" fill="#97D729"/>
<path id="Vector_11" d="M36.7189 39.1219L35.537 35.4157L34.7175 36.0472L35.5893 38.7807C35.6294 38.9067 35.6335 39.041 35.6011 39.1691C35.5686 39.2972 35.501 39.4142 35.4053 39.5075C35.3097 39.6009 35.1897 39.6669 35.0584 39.6986C34.9271 39.7303 34.7894 39.7264 34.6601 39.6873L35.7898 40.0285C35.919 40.0676 36.0567 40.0715 36.188 40.0398C36.3194 40.0081 36.4393 39.942 36.535 39.8487C36.6306 39.7554 36.6983 39.6384 36.7307 39.5103C36.7631 39.3822 36.7591 39.2479 36.7189 39.1219Z" fill="#8BC727"/>
<path id="Vector_12" d="M36.7073 34.9505L34.5226 34.2907C33.9557 34.1195 33.3538 34.4289 33.1782 34.9818C33.0027 35.5347 33.3199 36.1217 33.8868 36.2929L36.0716 36.9527C36.6385 37.1239 37.2403 36.8145 37.4159 36.2616C37.5915 35.7088 37.2742 35.1218 36.7073 34.9505Z" fill="#97D729"/>
<path id="Vector_13" d="M36.7072 34.9505L36.5995 34.918C36.4955 35.1573 36.3041 35.3504 36.0624 35.4599C35.8207 35.5694 35.5459 35.5874 35.2914 35.5106L33.2151 34.8835C33.2046 34.9165 33.1888 34.948 33.1781 34.9818C33.0937 35.2475 33.1211 35.535 33.254 35.7811C33.387 36.0271 33.6148 36.2116 33.8872 36.2938L36.0712 36.9534C36.2072 36.9985 36.3512 37.0165 36.4944 37.0064C36.6377 36.9963 36.7775 36.9583 36.9055 36.8947C37.0335 36.831 37.1471 36.743 37.2396 36.6358C37.3322 36.5287 37.4017 36.4045 37.4442 36.2706C37.4867 36.1368 37.5013 35.996 37.4871 35.8566C37.4729 35.7171 37.4301 35.5819 37.3614 35.4589C37.2927 35.3358 37.1994 35.2274 37.0871 35.1401C36.9747 35.0528 36.8455 34.9884 36.7072 34.9505Z" fill="#8BC727"/>
<path id="Vector_14" d="M15.9704 22.2655C17.3099 26.1681 15.153 30.42 13.5513 32.8359C13.1554 33.4308 12.5497 33.8636 11.8488 34.0525C11.1478 34.2414 10.4002 34.1734 9.74721 33.8613C7.14824 32.6232 3.15257 30.1324 1.98929 26.1456C1.4617 24.3375 1.69222 22.399 2.63013 20.7566C3.56805 19.1142 5.13654 17.9025 6.99055 17.3879C10.8509 16.3165 14.6962 18.5533 15.9704 22.2655Z" fill="#FED402"/>
<path id="Vector_15" d="M15.9706 22.2655C15.1326 19.8233 13.1845 18.0209 10.8476 17.3776C11.8602 18.2749 12.6182 19.4117 13.0485 20.6783C14.388 24.5809 12.2311 28.8328 10.6294 31.2487C10.267 31.794 9.72704 32.2047 9.09642 32.4146C8.46581 32.6246 7.78112 32.6217 7.15241 32.4063C7.98206 32.949 8.84914 33.4351 9.74746 33.8613C10.4005 34.1734 11.1481 34.2415 11.849 34.0525C12.55 33.8636 13.1556 33.4308 13.5516 32.8359C15.1525 30.4203 17.3102 26.1682 15.9706 22.2655Z" fill="#FAC600"/>
<path id="Vector_16" d="M16.0164 49.726C15.945 49.7458 15.8703 49.7522 15.7964 49.7447C15.7192 49.7373 15.6442 49.7152 15.5757 49.6796C15.5072 49.644 15.4466 49.5955 15.3973 49.537C15.348 49.4785 15.3111 49.4111 15.2885 49.3387C15.266 49.2663 15.2583 49.1902 15.2659 49.1149C15.4239 47.5522 15.2247 46.1645 14.6627 44.9911C14.4548 44.5673 14.212 44.1607 13.9366 43.7752C13.5714 43.2371 13.1937 42.6816 12.9107 41.8072C12.548 40.6904 12.4783 39.4826 12.6982 38.2193C12.71 38.1435 12.7371 38.0708 12.778 38.0054C12.8189 37.9399 12.8728 37.8831 12.9365 37.8382C13.0002 37.7933 13.0724 37.7613 13.1489 37.7439C13.2254 37.7265 13.3048 37.7242 13.3822 37.7371C13.4597 37.75 13.5337 37.7778 13.6 37.8189C13.6664 37.86 13.7236 37.9136 13.7684 37.9765C13.8133 38.0394 13.8448 38.1105 13.8612 38.1854C13.8776 38.2604 13.8784 38.3377 13.8638 38.413C13.6742 39.4937 13.7325 40.5167 14.0394 41.4588C14.2733 42.1789 14.5744 42.6238 14.9237 43.1383C15.2325 43.5719 15.5046 44.0292 15.7375 44.5057C16.3856 45.8703 16.6233 47.4575 16.4447 49.2274C16.4329 49.3429 16.3858 49.4522 16.3094 49.5411C16.233 49.63 16.1309 49.6945 16.0164 49.726Z" fill="#EBEBEB"/>
<path id="Vector_17" d="M14.727 37.9152L11.5703 38.7913C11.4402 38.8274 11.3024 38.8282 11.1719 38.7936C11.0414 38.759 10.923 38.6902 10.8296 38.5948C10.7362 38.4993 10.6713 38.3808 10.6419 38.252C10.6125 38.1233 10.6198 37.9891 10.6629 37.864L11.9321 34.1854L14.9972 36.6611C15.1013 36.7453 15.1798 36.8556 15.2244 36.9801C15.2689 37.1046 15.2778 37.2386 15.25 37.3676C15.2222 37.4967 15.1588 37.6159 15.0666 37.7124C14.9745 37.8089 14.857 37.879 14.727 37.9152Z" fill="#FED402"/>
<path id="Vector_18" d="M12.6517 33.1727L10.452 33.7832C9.88118 33.9416 9.55013 34.5214 9.71257 35.078C9.875 35.6347 10.4694 35.9576 11.0402 35.7992L13.24 35.1887C13.8108 35.0303 14.1418 34.4505 13.9794 33.8939C13.817 33.3372 13.2225 33.0143 12.6517 33.1727Z" fill="#FED402"/>
<path id="Vector_19" d="M14.9973 36.6612L11.9974 34.4088L11.5992 35.1509L13.8599 36.9768C13.964 37.061 14.0425 37.1713 14.0871 37.2958C14.1316 37.4203 14.1405 37.5543 14.1127 37.6834C14.0849 37.8124 14.0215 37.9316 13.9293 38.0281C13.8372 38.1246 13.7197 38.1947 13.5897 38.2309L14.7271 37.9153C14.8572 37.8791 14.9746 37.809 15.0667 37.7125C15.1589 37.616 15.2223 37.4968 15.2501 37.3677C15.2779 37.2386 15.2691 37.1046 15.2245 36.9801C15.1799 36.8556 15.1014 36.7453 14.9973 36.6612Z" fill="#FAC600"/>
<path id="Vector_20" d="M12.6517 33.1727L12.5433 33.2028C12.5899 33.4586 12.5375 33.7221 12.3963 33.9424C12.2551 34.1626 12.0351 34.324 11.7789 34.3951L9.68831 34.9752C9.69802 35.0085 9.70264 35.044 9.71257 35.078C9.79079 35.3454 9.97466 35.5715 10.2238 35.7067C10.4728 35.8419 10.7668 35.875 11.041 35.799L13.24 35.1887C13.5141 35.1126 13.746 34.9334 13.8846 34.6906C14.0233 34.4478 14.0574 34.1612 13.9794 33.8939C13.9014 33.6265 13.7177 33.4004 13.4687 33.2651C13.2197 33.1299 12.9259 33.0967 12.6517 33.1727Z" fill="#FAC600"/>
<path id="Vector_21" d="M24.3139 52C24.267 52.0001 24.2208 51.9765 24.1794 51.9312C24.1379 51.8859 24.1024 51.8202 24.076 51.7399C24.0496 51.6596 24.033 51.5672 24.0278 51.4706C24.0226 51.374 24.0288 51.2763 24.046 51.1858C24.3881 49.3941 24.4999 47.6896 24.3786 46.1216C24.3382 45.6369 24.2841 45.1576 24.2167 44.6861C24.1018 43.8362 23.987 42.957 24.0012 41.7033C24.0171 40.562 24.1339 39.4364 24.3456 38.3824C24.3593 38.3083 24.38 38.2405 24.4065 38.1833C24.433 38.126 24.4648 38.0802 24.4999 38.0488C24.5351 38.0173 24.5729 38.0007 24.6112 38C24.6495 37.9993 24.6874 38.0145 24.7228 38.0447C24.7582 38.0748 24.7904 38.1194 24.8174 38.1757C24.8443 38.232 24.8656 38.2989 24.8799 38.3726C24.8943 38.4462 24.9013 38.525 24.9007 38.6043C24.9001 38.6837 24.8919 38.762 24.8765 38.8347C24.6911 39.7548 24.5885 40.7375 24.5738 41.7342C24.5604 42.8102 24.6614 43.5672 24.7689 44.3679C24.8422 44.8823 24.9011 45.4051 24.9454 45.9335C25.0832 47.7158 24.9599 49.6298 24.5795 51.6239C24.5584 51.7344 24.5218 51.8293 24.4745 51.8963C24.4271 51.9634 24.3712 51.9995 24.3139 52Z" fill="#E8EDF2"/>
<path id="Vector_22" d="M26.2229 39H22.7785C22.6367 38.9999 22.4975 38.9583 22.3761 38.8797C22.2547 38.8011 22.1557 38.6884 22.0896 38.5539C22.0236 38.4193 21.993 38.268 22.0013 38.1162C22.0096 37.9644 22.0564 37.8179 22.1367 37.6925L24.5 34L26.8633 37.6925C26.9435 37.8178 26.9903 37.9641 26.9986 38.1158C27.007 38.2675 26.9766 38.4187 26.9107 38.5532C26.8448 38.6877 26.746 38.8004 26.6248 38.8791C26.5036 38.9579 26.3646 38.9997 26.2229 39Z" fill="#26A6FE"/>
<path id="Vector_23" d="M26.8681 37.697L24.5231 34L24 34.8239L25.8219 37.691C25.9015 37.8165 25.948 37.9631 25.9562 38.1151C25.9644 38.2671 25.9342 38.4186 25.8686 38.5533C25.8031 38.688 25.7048 38.8009 25.5843 38.8796C25.4638 38.9583 25.3258 38.9999 25.1851 39H26.2313C26.3712 38.9992 26.5082 38.9573 26.6278 38.8789C26.7474 38.8005 26.845 38.6885 26.9104 38.5547C26.9758 38.421 27.0063 38.2706 26.9989 38.1196C26.9915 37.9685 26.9463 37.8225 26.8681 37.697Z" fill="#0593FC"/>
<path id="Vector_24" d="M32.9899 21.1824C33.2289 25.9286 29.184 29.9838 26.4392 32.1732C25.7614 32.7119 24.8901 33.006 23.9901 32.9999C23.09 32.9938 22.2237 32.6878 21.5549 32.1399C18.89 29.9641 15 25.9672 15 21.1824C14.9999 20.1078 15.2325 19.0437 15.6846 18.0509C16.1366 17.058 16.7992 16.1559 17.6346 15.3961C18.47 14.6363 19.4617 14.0336 20.5532 13.6224C21.6446 13.2113 22.8144 12.9998 23.9958 13C28.9633 13 32.7634 16.6681 32.9899 21.1824Z" fill="#26A6FE"/>
<path id="Vector_25" d="M32.9896 20.9763C32.844 18.0589 31.2312 15.4899 28.7811 14C29.7964 15.386 30.3737 16.9994 30.4498 18.664C30.6927 23.4929 26.5807 27.6189 23.7902 29.8464C23.1309 30.3709 22.2903 30.6682 21.4149 30.6863C20.5395 30.7045 19.6849 30.4425 19 29.9459C19.7389 30.7152 20.5286 31.4429 21.3646 32.1248C22.0445 32.6823 22.9253 32.9937 23.8403 32.9999C24.7553 33.0062 25.6411 32.7069 26.3301 32.1588C29.1214 29.9312 33.2335 25.8052 32.9896 20.9763Z" fill="#0593FC"/>
<path id="Vector_26" d="M25.031 33H22.969C22.4339 33 22 33.6716 22 34.5C22 35.3284 22.4339 36 22.969 36H25.031C25.5661 36 26 35.3284 26 34.5C26 33.6716 25.5661 33 25.031 33Z" fill="#26A6FE"/>
<path id="Vector_27" d="M25.0921 33C25.0921 33.0309 25.0951 33.0619 25.0951 33.0937C25.0951 33.4916 24.9932 33.8731 24.8117 34.1544C24.6302 34.4357 24.384 34.5937 24.1273 34.5937H22.0605C22.0405 34.5937 22.0206 34.5937 22 34.5891C22.0147 34.9713 22.1231 35.3303 22.303 35.5926C22.4829 35.8549 22.7208 36.0007 22.9678 36H25.0322C25.2889 36 25.535 35.842 25.7165 35.5607C25.898 35.2794 26 34.8978 26 34.5C26.0005 34.1177 25.9068 33.7496 25.738 33.4708C25.5693 33.1921 25.3382 33.0237 25.0921 33Z" fill="#0593FC"/>
<path id="Vector_28" d="M33 16H35L34 13L33 16Z" fill="#C12944"/>
<path id="Vector_29" d="M34 3.22194C32.3962 1.59269 29.8009 1.59269 28.2029 3.22194C26.599 4.8512 26.599 7.48764 28.2029 9.11097L34 15L39.7971 9.11097C41.401 7.48171 41.401 4.84528 39.7971 3.22194C38.1991 1.59861 35.6038 1.59861 34 3.22194Z" fill="#B858C8"/>
<path id="Vector_30" d="M39.8472 3.8986C39.4392 3.49116 38.9641 3.18977 38.4555 3C38.9809 4.39535 38.6847 6.0307 37.5557 7.15814L32 12.7116L34.2916 15L39.8472 9.45209C41.3843 7.91721 41.3843 5.43349 39.8472 3.8986Z" fill="#784C9E"/>
</g>
</svg>
