<svg width="144" height="144" viewBox="0 0 144 144" fill="none" xmlns="http://www.w3.org/2000/svg">
<path d="M141.001 17.4291L110.602 44.885C109.238 41.3536 107.076 38.117 104.253 35.3807C101.43 32.6445 98.0077 30.4683 94.2037 28.9906L124.003 2.07669C124.252 1.84726 124.391 1.53814 124.39 1.21658C124.388 0.895023 124.246 0.58705 123.994 0.359672C123.742 0.132294 123.401 0.00391014 123.045 0.00245393C122.689 0.000997717 122.347 0.126587 122.093 0.351897L91.4177 28.0571C85.1516 26.2773 78.4096 26.4204 72.243 28.4641C66.0764 30.5077 60.832 34.3372 57.3277 39.355C53.8235 44.3729 52.2563 50.2971 52.8707 56.2038C53.4852 62.1104 56.2466 67.6673 60.7244 72.0079C65.2022 76.3484 71.1445 79.2286 77.6246 80.1992C84.1048 81.1697 90.7584 80.1761 96.5478 77.3733C102.337 74.5705 106.937 70.116 109.629 64.7047C112.322 59.2934 112.956 53.2294 111.432 47.4585C111.587 47.3996 111.728 47.3151 111.848 47.2092L142.911 19.1538C143.16 18.9244 143.299 18.6153 143.298 18.2937C143.296 17.9722 143.154 17.6642 142.902 17.4368C142.65 17.2095 142.309 17.0811 141.953 17.0796C141.597 17.0782 141.255 17.2037 141.001 17.4291ZM109.542 53.6656C109.537 55.4776 109.307 57.2834 108.857 59.0493C108.075 58.8958 107.299 58.6759 106.493 58.4411C102.986 57.4191 99.0115 56.2618 92.3655 60.2351C90.3451 61.4225 88.612 62.9673 87.2709 64.7763C84.3486 63.5509 81.5154 62.1591 78.7884 60.6094C83.4014 56.8867 96.9441 45.0892 100.405 35.4238C103.274 37.7044 105.573 40.5107 107.148 43.6559C108.724 46.8012 109.54 50.2134 109.542 53.6656ZM105.029 67.1389C99.9162 67.5236 94.7698 67.0048 89.8771 65.6115C90.98 64.2961 92.3281 63.1642 93.8611 62.2667C99.421 58.9426 102.452 59.8271 105.664 60.7634C106.458 60.9945 107.274 61.2233 108.128 61.3997C107.379 63.4275 106.337 65.3572 105.029 67.1389ZM69.8449 52.5461C72.015 51.6273 74.0591 50.483 75.9358 49.1366C81.5431 45.1698 81.6124 39.8213 81.6737 35.1024C81.5862 33.1451 81.796 31.1862 82.2971 29.2803C82.3759 29.2797 82.452 29.2696 82.531 29.2696C88.1225 29.2694 93.5744 30.8468 98.125 33.7813C95.3679 43.7 80.012 56.5601 76.6862 59.14C74.2686 57.0615 71.9844 54.86 69.8449 52.5461ZM79.4597 29.4392C79.0855 31.2975 78.9222 33.1855 78.9726 35.0738C78.9158 39.4479 78.8572 43.9709 74.27 47.2164C72.4385 48.5351 70.4283 49.6375 68.2881 50.4969C65.4475 46.4219 63.5643 41.8633 62.7552 37.1038C67.1283 32.8256 73.0553 30.1061 79.4597 29.4392ZM65.6872 51.3438C62.3875 52.2152 58.8459 51.9359 55.7634 50.5612C56.3222 46.6044 57.954 42.8333 60.5139 39.5828C61.4882 43.7395 63.2375 47.7165 65.6872 51.3438ZM55.5481 53.1605C57.5103 53.895 59.6136 54.2729 61.7377 54.2725C63.6002 54.2565 65.449 53.9834 67.22 53.4625C69.3842 55.8979 71.7214 58.2037 74.2169 60.3651C70.9594 61.6804 67.5295 62.6152 64.0102 63.147C62.1098 63.4302 60.1899 63.593 58.2644 63.6342C58.2043 63.6354 58.1444 63.6401 58.085 63.6485L57.9531 63.6669C57.943 63.6684 57.9381 63.6793 57.9285 63.6816C56.3435 60.5364 55.5222 57.1212 55.5197 53.6656C55.5197 53.4951 55.5442 53.3301 55.5481 53.1605ZM59.2825 66.0237C65.2614 65.8059 71.1253 64.47 76.5033 62.1005C79.5444 63.9023 82.7133 65.5217 85.9894 66.9483C84.5344 70.4598 84.5491 74.3303 86.0309 77.8327C80.7774 78.4924 75.4254 77.7209 70.6601 75.6171C65.8949 73.5134 61.9333 70.173 59.2825 66.0237ZM88.7207 77.3897C87.3216 74.3274 87.2492 70.9017 88.5179 67.7933C92.7952 69.0697 97.2718 69.7174 101.777 69.7117C102.132 69.7117 102.492 69.6962 102.85 69.6881C99.1452 73.524 94.2048 76.217 88.7207 77.3897ZM141.001 36.9458L117.555 58.1219C117.429 58.2351 117.33 58.3696 117.262 58.5175C117.194 58.6655 117.159 58.8241 117.159 58.9843C117.159 59.1445 117.194 59.3031 117.262 59.4511C117.33 59.5991 117.429 59.7335 117.555 59.8467C117.856 59.9646 118.181 60.0254 118.51 60.0254C118.838 60.0254 119.163 59.9646 119.464 59.8467L142.911 38.6706C143.16 38.4412 143.299 38.132 143.298 37.8105C143.296 37.4889 143.154 37.181 142.902 36.9536C142.65 36.7262 142.309 36.5978 141.953 36.5964C141.597 36.5949 141.255 36.7205 141.001 36.9458ZM93.3355 84.1605H6.89934C5.3924 84.1559 3.92734 84.6082 2.73884 85.4449C1.55034 86.2817 0.707178 87.4545 0.344407 88.7756C-0.0183643 90.0966 0.120251 91.4893 0.738051 92.7307C1.35585 93.9721 2.41708 94.9904 3.75176 95.6223C3.79732 95.733 3.86088 95.837 3.94036 95.9308C3.99181 95.985 9.10193 101.532 12.6498 114.808C14.0621 120.209 15.0224 125.698 15.5224 131.229C15.5224 131.229 16.0718 139.268 16.0968 142.718C16.0991 143.041 16.2424 143.349 16.4954 143.576C16.7485 143.803 17.0907 143.931 17.4474 143.931H17.456C17.8142 143.928 18.1568 143.798 18.4084 143.568C18.6601 143.338 18.8002 143.026 18.798 142.703C18.7799 140.243 18.6717 137.77 18.5219 135.303L22.715 138.941L19.3981 141.835C19.1408 142.06 18.9932 142.368 18.9875 142.691C18.9818 143.015 19.1186 143.327 19.3677 143.559C19.6671 143.682 19.991 143.747 20.3195 143.752C20.6479 143.757 20.974 143.7 21.2775 143.587L24.6643 140.633L28.0719 143.589C28.3756 143.702 28.7018 143.757 29.0302 143.752C29.3586 143.746 29.6822 143.68 29.981 143.557C30.104 143.441 30.2007 143.305 30.2655 143.156C30.3303 143.007 30.3619 142.848 30.3585 142.688C30.3552 142.527 30.3169 142.37 30.2459 142.223C30.1749 142.076 30.0725 141.943 29.9447 141.832L26.608 138.937L33.3049 133.095L39.7484 138.718L36.1858 141.834C35.9284 142.059 35.7805 142.367 35.7746 142.691C35.7686 143.014 35.9052 143.326 36.1542 143.559C36.4534 143.681 36.7773 143.747 37.1058 143.752C37.4342 143.757 37.7603 143.701 38.0639 143.588L41.6922 140.414L45.3305 143.589C45.6343 143.701 45.9605 143.757 46.2889 143.752C46.6174 143.746 46.9411 143.68 47.2403 143.558C47.4889 143.325 47.625 143.012 47.6185 142.689C47.6121 142.365 47.4637 142.058 47.206 141.833L43.6337 138.716L50.1346 133.029L56.632 138.71L53.0547 141.834C52.7973 142.059 52.6493 142.367 52.6434 142.69C52.6375 143.014 52.774 143.326 53.023 143.559C53.3223 143.681 53.6461 143.747 53.9746 143.752C54.3031 143.757 54.6292 143.701 54.9328 143.587L58.5739 140.408L62.2111 143.587C62.5147 143.701 62.8408 143.757 63.1693 143.752C63.4978 143.747 63.8216 143.681 64.1209 143.559C64.3699 143.326 64.5064 143.014 64.5005 142.69C64.4946 142.367 64.3466 142.059 64.0893 141.834L60.5168 138.711L66.9715 133.074L73.6641 138.905L70.2915 141.831C70.1635 141.942 70.0609 142.074 69.9897 142.221C69.9185 142.368 69.8799 142.526 69.8763 142.686C69.8727 142.846 69.9041 143.005 69.9686 143.154C70.0332 143.304 70.1297 143.44 70.2525 143.555C70.5512 143.679 70.8747 143.746 71.2031 143.752C71.5314 143.758 71.8577 143.703 72.1617 143.59L75.6091 140.599L79.0398 143.588C79.3435 143.701 79.6696 143.757 79.9981 143.752C80.3265 143.747 80.6504 143.681 80.9495 143.558C81.1984 143.326 81.3347 143.013 81.3285 142.69C81.3223 142.366 81.1742 142.058 80.9166 141.833L77.5585 138.908L81.7126 135.303C81.5632 137.766 81.455 140.24 81.4369 142.703C81.4346 143.027 81.5748 143.338 81.8264 143.568C82.0781 143.798 82.4208 143.928 82.779 143.931H82.7875C83.1442 143.931 83.4865 143.803 83.7395 143.576C83.9925 143.349 84.1358 143.041 84.1381 142.718C84.1631 139.268 84.6729 131.609 84.7145 131.237C85.2014 125.702 86.1611 120.209 87.5851 114.808C91.133 101.532 96.243 95.985 96.2945 95.9308C96.3748 95.8368 96.439 95.7325 96.4851 95.6213C97.8194 94.9891 98.8801 93.9707 99.4975 92.7293C100.115 91.488 100.253 90.0954 99.8902 88.7746C99.5272 87.4538 98.684 86.2812 97.4956 85.4446C96.3072 84.608 94.8423 84.1559 93.3355 84.1605ZM7.56382 96.3585H8.18931L23.023 109.327L16.472 115.015L15.1759 113.884C13.6762 107.716 11.1072 101.802 7.56382 96.3585ZM83.9233 118.538C83.2375 121.71 82.7057 125.052 82.3069 128.508L77.2506 124.097L83.769 118.404L83.9233 118.538ZM75.3066 122.401L68.7875 116.714L75.2806 111.034L81.8204 116.712L75.3066 122.401ZM17.9243 128.495C17.52 125.042 16.9873 121.707 16.306 118.543L16.4672 118.403L22.9794 124.085L17.9243 128.495ZM18.4159 116.711L24.9652 111.025L31.4508 116.695L24.9235 122.389L18.4159 116.711ZM56.548 109.428L50.139 115.019L43.6953 109.405L50.1084 103.81L56.548 109.428ZM52.0525 102.114L58.5144 96.4772L64.9697 102.082L58.4922 107.732L52.0525 102.114ZM41.7502 107.71L35.2778 102.071L41.7117 96.4852L48.1645 102.114L41.7502 107.71ZM39.8061 109.406L33.3949 114.999L26.9138 109.333L33.3291 103.763L39.8061 109.406ZM33.3925 118.393L39.8248 124.016L33.3052 129.703L26.8668 124.085L33.3925 118.393ZM35.3365 116.697L41.7511 111.101L48.1949 116.715L41.7689 122.32L35.3365 116.697ZM50.1402 118.41L56.5657 124.008L50.1341 129.634L43.7108 124.018L50.1402 118.41ZM52.0843 116.714L58.4921 111.124L64.9021 116.716L58.5073 122.31L52.0843 116.714ZM66.8461 118.412L73.3636 124.098L66.9693 129.682L60.4525 124.004L66.8461 118.412ZM66.8436 115.018L60.4362 109.428L66.9184 103.774L73.3321 109.342L66.8436 115.018ZM68.8624 102.078L75.4192 96.3585H88.1762L75.2735 107.644L68.8624 102.078ZM66.9136 100.386L62.2745 96.3585H71.5309L66.9136 100.386ZM50.1085 100.419L45.4546 96.3585H54.7625L50.1085 100.419ZM33.3323 100.376L28.7208 96.3585H37.9598L33.3323 100.376ZM24.8299 96.3585L31.3835 102.068L24.9716 107.635L12.073 96.3585H24.8299ZM24.6587 137.246L18.2773 131.709L18.266 131.588L24.9227 125.781L31.361 131.399L24.6587 137.246ZM41.6899 137.02L35.2491 131.399L41.7669 125.714L48.1927 131.332L41.6899 137.02ZM58.575 137.013L52.0759 131.331L58.511 125.703L65.0263 131.379L58.575 137.013ZM68.9146 131.377L75.3076 125.794L81.9682 131.604L81.9584 131.708L75.6135 137.213L68.9146 131.377ZM85.0588 113.884L83.7636 115.015L77.2222 109.336L92.059 96.3585H92.671C89.1275 101.802 86.5584 107.717 85.0588 113.884ZM93.3355 93.9189H6.89934C5.82477 93.9189 4.7942 93.5333 4.03436 92.8471C3.27452 92.1608 2.84765 91.23 2.84765 90.2595C2.84765 89.2889 3.27452 88.3582 4.03436 87.6719C4.7942 86.9856 5.82477 86.6001 6.89934 86.6001H93.3355C94.4101 86.6001 95.4407 86.9856 96.2005 87.6719C96.9603 88.3582 97.3872 89.2889 97.3872 90.2595C97.3872 91.23 96.9603 92.1608 96.2005 92.8471C95.4407 93.5333 94.4101 93.9189 93.3355 93.9189Z" fill="#1B3D6F"/>
</svg>
