<svg width="51" height="81" viewBox="0 0 51 81" fill="none" xmlns="http://www.w3.org/2000/svg">
<g id="freepik--Character--inject-775">
<g id="Group">
<g id="Group_2">
<g id="Group_3">
<path id="Vector" d="M8.28374 7.2121C8.24196 6.41376 8.20505 5.61071 8.31302 4.81766C8.42099 4.02465 8.68167 3.23513 9.18722 2.5855C9.26387 2.48703 9.85839 1.84657 9.98131 1.88978C10.0691 1.92065 9.63395 2.54811 9.65824 2.63175C9.88996 3.43019 9.76316 4.2886 9.45838 5.06594C9.15362 5.84326 8.76257 6.51313 8.28374 7.2121Z" fill="#263238"/>
<path id="Vector_2" d="M16.0794 5.77035C16.5597 3.95613 15.4461 2.10673 13.5213 1.51989L13.33 1.46162C11.2276 0.943717 9.57555 2.29904 9.07165 4.24906L7.28906 10.6746L8.65804 14.1647L11.7968 12.3995C11.9641 11.8565 12.0163 11.6933 12.0208 11.6944C12.0208 11.6944 14.1056 12.015 14.7864 10.1965C15.1152 9.31811 15.6325 7.45834 16.0794 5.77035Z" fill="#FFBF9D"/>
<path id="Vector_3" d="M12.024 11.6944C12.024 11.6944 10.7501 11.381 9.69531 10.2046C9.69531 10.2046 9.82292 11.7667 11.8602 12.2054L12.024 11.6944Z" fill="#FF9A6C"/>
<path id="Vector_4" d="M14.8241 7.22902C14.78 7.36837 14.6154 7.44875 14.4566 7.40889C14.2981 7.36911 14.2051 7.22415 14.2493 7.08484C14.2935 6.9455 14.458 6.86492 14.6166 6.90468C14.7753 6.94454 14.8683 7.08973 14.8241 7.22902Z" fill="#263238"/>
<path id="Vector_5" d="M15.3686 6.44803C15.3213 6.47133 15.1594 6.25974 14.8544 6.16759C14.5513 6.0715 14.2759 6.14771 14.2552 6.10328C14.2444 6.08314 14.3022 6.03263 14.423 5.997C14.5422 5.96125 14.7284 5.9478 14.9179 6.00644C15.1073 6.06533 15.2438 6.17827 15.3119 6.27213C15.3818 6.36689 15.3914 6.43805 15.3686 6.44803Z" fill="#263238"/>
<path id="Vector_6" d="M12.0898 6.50878C12.0456 6.6481 11.881 6.72848 11.7222 6.68862C11.5637 6.64889 11.4707 6.50391 11.5149 6.36456C11.5591 6.22527 11.7237 6.14471 11.8823 6.18447C12.0411 6.22427 12.134 6.36953 12.0898 6.50878Z" fill="#263238"/>
<path id="Vector_7" d="M12.4079 5.66917C12.3605 5.69244 12.1982 5.48083 11.8935 5.38873C11.5905 5.29274 11.3149 5.36887 11.2942 5.32441C11.2835 5.30427 11.341 5.25373 11.4622 5.21822C11.5813 5.18239 11.7675 5.16905 11.957 5.22758C12.1464 5.28645 12.2829 5.39949 12.3511 5.49325C12.4207 5.58799 12.4305 5.65921 12.4079 5.66917Z" fill="#263238"/>
<path id="Vector_8" d="M12.6759 8.09235C12.6802 8.07596 12.8804 8.10352 13.2002 8.16097C13.2807 8.1773 13.3594 8.18555 13.3901 8.14057C13.427 8.09444 13.4222 8.00725 13.4145 7.91237C13.4037 7.71667 13.3924 7.51157 13.3806 7.29662C13.3402 6.42237 13.3385 5.71315 13.3767 5.71192C13.415 5.71078 13.4787 6.41839 13.519 7.29261C13.527 7.50765 13.5349 7.71264 13.5421 7.90868C13.5422 7.99909 13.5597 8.10688 13.4814 8.20221C13.4412 8.24936 13.3701 8.27082 13.3159 8.26795C13.2609 8.26677 13.2169 8.25421 13.1776 8.24461C12.8633 8.16574 12.6714 8.10864 12.6759 8.09235Z" fill="#263238"/>
<path id="Vector_9" d="M12.6 5.04536C12.536 5.10582 12.2995 4.95505 11.9798 4.85543C11.6627 4.74919 11.3721 4.72955 11.3672 4.64689C11.3662 4.60786 11.4448 4.55942 11.58 4.53447C11.7143 4.50917 11.9045 4.51373 12.0955 4.57529C12.2863 4.63719 12.435 4.74212 12.5193 4.83804C12.6045 4.93429 12.6293 5.0162 12.6 5.04536Z" fill="#263238"/>
<path id="Vector_10" d="M15.7517 5.39018C15.6662 5.43575 15.4396 5.29706 15.1409 5.20711C14.8453 5.10908 14.5728 5.08982 14.5372 5.00588C14.5227 4.966 14.5846 4.9134 14.7162 4.88488C14.846 4.85611 15.0457 4.85972 15.25 4.92426C15.4542 4.98899 15.6128 5.09874 15.6947 5.19454C15.7781 5.29101 15.7904 5.36704 15.7517 5.39018Z" fill="#263238"/>
<path id="Vector_11" d="M8.74821 5.65042C8.71923 5.62665 7.51941 4.86404 7.1141 6.12557C6.70876 7.38711 8.16744 7.50171 8.18146 7.46618C8.19544 7.43067 8.74821 5.65042 8.74821 5.65042Z" fill="#FFBF9D"/>
<path id="Vector_12" d="M7.91785 6.87435C7.91316 6.86868 7.88904 6.88319 7.84325 6.88926C7.79865 6.89511 7.7273 6.88812 7.66383 6.844C7.53485 6.75568 7.48102 6.51085 7.5474 6.28165C7.5808 6.16593 7.64207 6.06367 7.71528 5.98524C7.78677 5.90436 7.87227 5.85755 7.94897 5.86545C8.02642 5.86978 8.06511 5.924 8.07044 5.9641C8.07744 6.00436 8.06064 6.02716 8.06725 6.03133C8.07001 6.03552 8.10343 6.0182 8.10913 5.96308C8.11151 5.93645 8.10503 5.90232 8.0806 5.86936C8.0557 5.83575 8.01141 5.81002 7.95902 5.80129C7.85125 5.7792 7.72741 5.84279 7.64692 5.92889C7.56049 6.01388 7.48871 6.12799 7.45122 6.25799C7.37834 6.51458 7.44314 6.79099 7.62425 6.89764C7.71313 6.94709 7.80212 6.94222 7.8532 6.92375C7.90562 6.90413 7.9219 6.87794 7.91785 6.87435Z" fill="#FF9A6C"/>
<path id="Vector_13" d="M15.8439 3.44084C16.1012 3.38652 15.6404 2.54772 15.1652 2.1754C14.447 1.6128 13.2526 1.06789 12.4298 1.06594C11.4391 1.0636 10.5473 1.28266 9.84843 1.92949C9.14959 2.57625 8.69839 3.42563 8.45243 4.30958C8.3774 4.57928 8.32084 4.86613 8.40566 5.1333C8.51049 5.46354 8.82374 5.73675 8.68768 6.11818C8.63795 6.25759 8.63738 6.41149 8.71027 6.5419C8.88499 6.85442 9.26423 6.70419 9.47768 6.50952C9.93354 6.09376 10.1511 5.51119 10.354 4.95067C10.4983 4.55226 10.6442 4.14488 10.6412 3.72489C10.6396 3.49637 10.5936 3.26869 10.6057 3.04043C10.6178 2.81213 10.7003 2.57124 10.8993 2.43466C10.9317 2.41246 10.9816 2.38687 11.0432 2.36012C11.5296 2.14877 12.1032 2.19841 12.5413 2.4858C13.2363 2.94174 14.4398 3.66636 14.8598 3.51565C15.4642 3.29879 15.6533 3.10333 15.6533 3.10333L15.8439 3.44084Z" fill="#263238"/>
<path id="Vector_14" d="M11.6561 8.01327C11.7042 8.02297 11.6161 8.31397 11.8234 8.59035C12.0301 8.86728 12.3766 8.9217 12.3667 8.96302C12.3655 8.9824 12.2745 9.0001 12.1313 8.96691C11.9906 8.93523 11.7997 8.84135 11.6728 8.6723C11.5465 8.503 11.5272 8.31576 11.5528 8.19364C11.5778 8.06892 11.635 8.00596 11.6561 8.01327Z" fill="#263238"/>
</g>
<path id="Vector_15" d="M7.23438 2.25204C7.23438 2.25204 9.02437 -0.928687 13.1787 0.279883C17.333 1.48845 17.45 4.89716 17.45 4.89716L7.23438 2.25204Z" fill="#90CAF9"/>
<path id="Vector_16" d="M8.29753 4.7379L7.23438 2.25195L17.4504 4.8959C17.4504 4.8959 16.9088 5.50005 16.0933 5.76093L16.1967 5.19741C16.1967 5.19741 10.9163 3.6151 9.33353 3.98154L8.6239 4.11652L8.29753 4.7379Z" fill="#455A64"/>
<path id="Vector_17" d="M9.48597 3.39795C9.48597 3.39795 8.56392 5.85793 8.3962 7.85497C8.22204 9.92858 10.5059 10.8691 10.5059 10.8691C10.5059 10.8691 8.65236 9.20074 9.18953 7.18018C9.6761 5.34996 10.2575 3.59699 10.2575 3.59699L9.48597 3.39795Z" fill="#455A64"/>
<g id="Group_4" opacity="0.3">
<path id="Vector_18" d="M14.2129 3.00347C14.0868 3.04136 13.7238 2.13808 12.8296 1.33481C11.9553 0.515587 10.9863 0.149792 11.0329 0.0339555C11.0516 -0.0164274 11.3252 0.00826374 11.7331 0.159053C12.1387 0.309263 12.6722 0.600123 13.1492 1.04113C13.3863 1.26169 13.5855 1.49542 13.7454 1.71996C13.8988 1.94876 14.0215 2.16311 14.0962 2.35428C14.2527 2.73429 14.268 2.9885 14.2129 3.00347Z" fill="black"/>
</g>
<g id="Group_5" opacity="0.3">
<path id="Vector_19" d="M15.8635 2.87312C15.7411 2.93424 15.1862 1.99072 14.0413 1.26919C13.4796 0.900181 12.9142 0.630122 12.5087 0.421923C12.1007 0.217178 11.8493 0.0761511 11.8726 0.0210573C11.8945 -0.0308027 12.1867 0.0131316 12.6373 0.152822C13.0846 0.296046 13.6991 0.534247 14.3033 0.930583C14.6043 1.12844 14.8693 1.34704 15.0881 1.5643C15.3027 1.78551 15.4752 2.0007 15.5964 2.19395C15.8411 2.57982 15.9143 2.8496 15.8635 2.87312Z" fill="black"/>
</g>
</g>
<g id="Group_6">
<path id="Vector_20" d="M22.1737 50.3788C22.1737 50.3788 20.7533 40.1982 20.6785 39.1653C20.6037 38.1325 19.7814 36.9619 19.7814 36.9619L15.9688 41.5692C15.9688 41.5692 16.4173 45.7067 17.0153 47.015C17.6134 48.3233 19.2581 51.0087 19.0712 52.2481C18.8843 53.4875 20.9775 53.5564 20.9775 53.5564L22.9212 52.317L22.1737 50.3788Z" fill="#263238"/>
<path id="Vector_21" d="M10.5872 29.5254L19.7824 36.9619L15.9697 41.5692L11.858 36.9619L8.79297 29.5254H10.5872Z" fill="#455A64"/>
<g id="Group_7">
<path id="Vector_22" d="M28.0828 52.7568C28.0828 52.7568 27.0016 53.6738 25.8674 54.0848C24.7332 54.4958 22.9368 54.8749 22.2795 55.0208C21.6221 55.1667 20.0038 56.1403 19.5846 55.6406C19.1653 55.1409 18.9609 52.6858 18.9609 52.6858C18.9609 52.6858 19.7714 53.0748 20.3584 52.7809C20.9454 52.4869 21.9541 51.6699 21.9541 51.6699C21.9541 51.6699 22.0712 50.7197 22.4002 50.535C22.7293 50.3503 23.0975 51.3019 23.0975 51.3019C23.0975 51.3019 24.5171 52.0005 25.2189 51.9716C25.9207 51.9426 26.0296 52.0956 26.7103 51.8055C27.3909 51.5154 27.8348 51.5958 27.8348 51.5958C27.8348 51.5958 28.415 51.962 28.3552 52.2161C28.2954 52.4701 28.0828 52.7568 28.0828 52.7568Z" fill="#263238"/>
<path id="Vector_23" d="M28.3577 52.2018C28.3277 52.4701 28.089 52.7642 28.089 52.7642C28.089 52.7642 27.0079 53.6812 25.8737 54.0922C24.7395 54.5032 22.9431 54.8823 22.2857 55.0282C21.6283 55.1741 20.01 56.1477 19.5908 55.648C19.4744 55.5121 19.4003 55.3523 19.3672 55.1692C19.3672 55.1692 21.3426 54.8093 22.1773 54.4127C23.012 54.016 25.0975 53.7439 26.0447 53.3043C26.992 52.8647 27.9483 52.1644 27.9483 52.1644L28.1774 51.8672C28.2831 51.9778 28.3778 52.0445 28.3577 52.2018Z" fill="#E0E0E0"/>
<path id="Vector_24" d="M24.9254 51.9164C24.9083 51.9231 24.9752 52.0686 24.9633 52.2563C24.9549 52.4443 24.8725 52.5829 24.8889 52.5911C24.9004 52.6014 25.0155 52.4642 25.0254 52.2592C25.0377 52.0543 24.9381 51.9073 24.9254 51.9164Z" fill="white"/>
<path id="Vector_25" d="M24.1371 51.7181C24.119 51.7231 24.1863 51.9029 24.1505 52.1266C24.1189 52.3509 24.0011 52.507 24.0171 52.5164C24.0271 52.5278 24.1773 52.3759 24.2122 52.1344C24.2499 51.8935 24.1502 51.7096 24.1371 51.7181Z" fill="white"/>
<path id="Vector_26" d="M23.5182 51.4683C23.5 51.4676 23.4834 51.6202 23.4248 51.7989C23.3678 51.9781 23.2911 52.1142 23.3068 52.1228C23.32 52.1313 23.4245 52.0028 23.4844 51.8152C23.5456 51.628 23.5344 51.4678 23.5182 51.4683Z" fill="white"/>
<path id="Vector_27" d="M20.8438 54.1294C20.8465 54.1366 20.9413 54.1144 21.0909 54.0682C21.2404 54.0221 21.4444 53.951 21.6647 53.8615C21.885 53.7719 22.0795 53.681 22.2173 53.6102C22.3551 53.5395 22.4368 53.4901 22.4328 53.4833C22.4242 53.4687 22.0779 53.6315 21.6396 53.8091C21.2019 53.9877 20.8379 54.1136 20.8438 54.1294Z" fill="white"/>
</g>
</g>
<g id="Group_8">
<g id="Group_9">
<path id="Vector_28" d="M25.9598 38.5646L22.467 37.5867C22.4838 37.5317 22.4959 37.4747 22.4964 37.4143L22.521 34.256C22.5214 34.2258 22.5193 34.1962 22.5153 34.1671C22.4911 33.9915 22.3905 33.8393 22.2483 33.7383C22.1683 33.6605 22.0696 33.5887 21.9533 33.5284L17.8587 31.4069C17.8197 31.3865 17.7799 31.3684 17.74 31.3521C17.3161 31.1789 16.8518 31.2231 16.6613 31.4685C16.4526 31.7371 16.6503 32.145 17.1029 32.3795L21.1976 34.5011C21.2 34.5023 21.2024 34.503 21.2047 34.5042L21.1834 37.2298C20.9467 37.1763 20.7036 37.3004 20.6315 37.5178C20.5573 37.7428 20.6951 37.9805 20.9392 38.0489L25.6908 39.3792C25.8699 39.4294 26.0564 39.3745 26.1725 39.2531C26.2148 39.2088 26.2477 39.1558 26.2675 39.0958C26.3417 38.8707 26.2039 38.633 25.9598 38.5646Z" fill="#E0E0E0"/>
<path id="Vector_29" d="M25.9609 38.5644C25.9609 38.5644 26.0122 38.5688 26.0945 38.6163C26.173 38.6626 26.2877 38.7696 26.3026 38.9478C26.3096 39.0345 26.2868 39.1361 26.2204 39.226C26.1546 39.3153 26.042 39.3905 25.9034 39.4121C25.8345 39.423 25.7602 39.4198 25.6878 39.4007C25.6191 39.382 25.548 39.3627 25.4747 39.3427C25.328 39.3026 25.1723 39.26 25.0079 39.2151C24.3481 39.0335 23.5501 38.8137 22.636 38.5621C22.1781 38.4353 21.6912 38.3006 21.1782 38.1585C21.114 38.1407 21.0495 38.1229 20.9845 38.1048C20.9225 38.0887 20.8445 38.0665 20.7843 38.0253C20.6602 37.946 20.575 37.8126 20.567 37.6693C20.5558 37.5264 20.6224 37.3792 20.7442 37.2841C20.8652 37.1886 21.0378 37.1497 21.1962 37.1857L21.1356 37.2292C21.1407 36.3877 21.1462 35.4681 21.1521 34.5037L21.1796 34.5472C19.9047 33.8877 18.5179 33.1703 17.0785 32.4257C16.9228 32.3436 16.7799 32.2369 16.6738 32.1004C16.5703 31.9657 16.4963 31.7938 16.533 31.6174C16.5675 31.4395 16.7257 31.304 16.8952 31.2483C17.0665 31.1893 17.2484 31.1864 17.42 31.2104C17.5922 31.2355 17.7564 31.2939 17.9045 31.371C18.0483 31.4456 18.1914 31.5199 18.3336 31.5936C18.6179 31.7412 18.8989 31.8871 19.1762 32.0311C19.7307 32.3192 20.2705 32.5997 20.793 32.8712C21.0541 33.007 21.3109 33.1405 21.563 33.2717C21.689 33.3372 21.8138 33.4022 21.9375 33.4666C22.0641 33.529 22.1862 33.6097 22.2851 33.7069L22.2795 33.7022C22.454 33.8262 22.5627 34.0207 22.5676 34.2171C22.5712 34.4055 22.5654 34.5825 22.5647 34.7609C22.5609 35.1155 22.5572 35.4576 22.5536 35.7864C22.5498 36.1149 22.5462 36.4301 22.5428 36.731C22.541 36.8814 22.5392 37.0281 22.5375 37.1713C22.5303 37.3115 22.5507 37.4569 22.5029 37.5955L22.4787 37.5547C23.5719 37.8675 24.4418 38.1165 25.0453 38.2892C25.3383 38.3752 25.5663 38.4421 25.7275 38.4894C25.8005 38.5118 25.8582 38.5295 25.9026 38.5432C25.9417 38.5558 25.9614 38.5629 25.9609 38.5644C25.9604 38.5659 25.9397 38.5618 25.8996 38.5522C25.8545 38.5407 25.7958 38.5259 25.7217 38.5071C25.5591 38.4638 25.3293 38.4025 25.0339 38.3237C24.4281 38.1579 23.5549 37.9188 22.4577 37.6184L22.4225 37.6087L22.4334 37.5774C22.4759 37.4543 22.4557 37.3151 22.4614 37.1708C22.4619 37.0276 22.4624 36.8808 22.463 36.7304C22.4642 36.4295 22.4655 36.1143 22.4669 35.7857C22.4685 35.4569 22.4701 35.1148 22.4718 34.7601C22.4715 34.5839 22.4762 34.3997 22.472 34.2212C22.4672 34.0498 22.3715 33.8813 22.2195 33.774L22.2165 33.7719L22.2138 33.7692C22.1214 33.6798 22.0123 33.6075 21.8884 33.5469C21.7645 33.4829 21.6394 33.4184 21.5131 33.3533C21.2606 33.2229 21.0033 33.0901 20.7417 32.9551C20.2185 32.6848 19.6779 32.4055 19.1226 32.1186C18.845 31.9751 18.5637 31.8296 18.2791 31.6824C18.1368 31.6088 17.9937 31.5348 17.8498 31.4603C17.7104 31.3881 17.5605 31.3352 17.4024 31.3122C17.2457 31.2902 17.0811 31.2943 16.9353 31.3449C16.7903 31.3937 16.6702 31.5006 16.6435 31.6373C16.6143 31.7736 16.6731 31.9203 16.7656 32.04C16.8597 32.1612 16.99 32.2592 17.1338 32.3351C18.5722 33.0812 19.9581 33.8 21.2321 34.4608L21.2599 34.4752L21.2596 34.5044C21.2504 35.4688 21.2416 36.3884 21.2336 37.2299L21.233 37.2873L21.1729 37.2734C21.0447 37.2438 20.905 37.2747 20.8063 37.3517C20.7074 37.4282 20.6524 37.5477 20.6609 37.6641C20.6666 37.7808 20.736 37.8905 20.837 37.9558C20.9349 38.0187 21.0798 38.0379 21.2043 38.0793C21.7164 38.2243 22.2023 38.3619 22.6594 38.4913C23.5709 38.7507 24.3667 38.9773 25.0246 39.1645C25.1883 39.2114 25.3434 39.2559 25.4895 39.2978C25.6374 39.3365 25.7698 39.3956 25.8963 39.3718C26.0226 39.3542 26.1273 39.2873 26.1897 39.2062C26.2528 39.1246 26.2767 39.0306 26.2724 38.9493C26.2634 38.7822 26.1591 38.6765 26.0857 38.628C26.009 38.5782 25.9591 38.5684 25.9609 38.5644Z" fill="#263238"/>
</g>
<g id="Group_10">
<g id="Group_11">
<path id="Vector_30" d="M17.6642 66.4436C15.5839 68.5788 13.9444 70.2614 13.8945 70.3126C13.9439 70.261 15.5658 68.5639 17.6237 66.4105C18.6568 65.3368 19.5923 64.3646 20.2698 63.6605C20.6128 63.3123 20.8904 63.0305 21.0825 62.8355C21.1803 62.7399 21.2563 62.6656 21.3081 62.6149C21.3606 62.5653 21.3896 62.5403 21.3924 62.5426C21.3952 62.5449 21.3717 62.5743 21.3243 62.6282C21.2758 62.6815 21.2046 62.7597 21.1129 62.8604C20.9252 63.059 20.6539 63.346 20.3188 63.7006C19.6391 64.4029 18.7007 65.3727 17.6642 66.4436Z" fill="#E0E0E0"/>
<path id="Vector_31" d="M18.7824 67.7225C16.0699 69.1326 13.9326 70.2438 13.8672 70.2778C13.9322 70.2432 16.0578 69.1131 18.7554 67.6789C20.1069 66.9658 21.3308 66.3201 22.2171 65.8525C22.663 65.6237 23.0239 65.4385 23.2737 65.3104C23.3996 65.2486 23.4974 65.2006 23.5641 65.1679C23.6311 65.1364 23.6672 65.1214 23.6691 65.1244C23.671 65.1275 23.6386 65.1485 23.575 65.1856C23.5106 65.2218 23.416 65.275 23.2942 65.3435C23.0474 65.4764 22.6908 65.6685 22.2501 65.9058C21.3623 66.3709 20.1363 67.0132 18.7824 67.7225Z" fill="#E0E0E0"/>
<path id="Vector_32" d="M19.3923 69.2622C16.3324 69.7983 13.9198 70.221 13.8477 70.2336C13.9197 70.2203 16.3278 69.7767 19.3821 69.214C20.9105 68.9373 22.2944 68.6866 23.2966 68.5051C23.7986 68.4198 24.2049 68.3507 24.486 68.303C24.6267 68.2815 24.7361 68.2648 24.8106 68.2534C24.885 68.2432 24.9244 68.2395 24.9252 68.2429C24.9259 68.2463 24.8878 68.2565 24.8147 68.2728C24.741 68.2881 24.6329 68.3105 24.4937 68.3393C24.2137 68.3924 23.809 68.4691 23.309 68.5638C22.3062 68.7426 20.9215 68.9895 19.3923 69.2622Z" fill="#E0E0E0"/>
<path id="Vector_33" d="M19.436 70.901C16.3499 70.5132 13.9177 70.2075 13.8438 70.1982C13.9178 70.2069 16.3531 70.491 19.4431 70.8515C20.9877 71.0365 22.3863 71.204 23.3992 71.3253C23.9046 71.3915 24.3136 71.445 24.5967 71.482C24.7375 71.5029 24.8469 71.5192 24.9215 71.5303C24.9956 71.5425 25.0342 71.5506 25.0337 71.554C25.0332 71.5575 24.9936 71.5561 24.9186 71.5502C24.8435 71.5432 24.7332 71.5328 24.5913 71.5195C24.3075 71.4878 23.8974 71.4421 23.3906 71.3856C22.3781 71.2615 20.98 71.0902 19.436 70.901Z" fill="#E0E0E0"/>
<path id="Vector_34" d="M18.9149 72.4679C16.1272 71.1885 13.9301 70.1801 13.8633 70.1494C13.9305 70.1795 16.1379 71.1684 18.9389 72.4232C20.3373 73.0549 21.6037 73.6269 22.5207 74.0412C22.9763 74.2532 23.3451 74.4248 23.6002 74.5436C23.7263 74.605 23.8243 74.6528 23.891 74.6853C23.9569 74.7188 23.9907 74.7379 23.989 74.741C23.9874 74.7442 23.9503 74.7312 23.8813 74.7035C23.8126 74.6746 23.7118 74.6322 23.582 74.5776C23.3243 74.4638 22.9517 74.2992 22.4914 74.096C21.5758 73.6791 20.3113 73.1036 18.9149 72.4679Z" fill="#E0E0E0"/>
<path id="Vector_35" d="M17.8705 73.7985C15.6699 71.7683 13.9356 70.1684 13.8828 70.1196C13.9361 70.1679 15.687 71.7524 17.9087 73.7631C19.0161 74.772 20.0188 75.6856 20.745 76.3472C21.1037 76.6817 21.3939 76.9525 21.5948 77.1399C21.6931 77.2351 21.7695 77.309 21.8216 77.3594C21.8725 77.4105 21.8979 77.4385 21.8953 77.4409C21.8926 77.4434 21.862 77.4202 21.8062 77.3737C21.7511 77.3262 21.6702 77.2564 21.566 77.1666C21.361 76.9831 21.0647 76.7179 20.6986 76.3902C19.9746 75.7267 18.9747 74.8104 17.8705 73.7985Z" fill="#E0E0E0"/>
<path id="Vector_36" d="M16.4248 74.7538C15.0479 72.1805 13.9627 70.1525 13.9297 70.0908C13.9634 70.1523 15.0696 72.1705 16.4733 74.7315C17.1707 76.0143 17.8022 77.1759 18.2595 78.0171C18.4826 78.44 18.6632 78.7823 18.7881 79.0191C18.8481 79.1384 18.8946 79.231 18.9263 79.2941C18.9568 79.3575 18.9711 79.3916 18.9677 79.3931C18.9643 79.3947 18.9434 79.3637 18.9067 79.3031C18.871 79.2418 18.8187 79.1519 18.7513 79.036L18.2002 78.0444C17.7457 77.2019 17.118 76.0385 16.4248 74.7538Z" fill="#E0E0E0"/>
<path id="Vector_37" d="M14.7237 75.2299C14.3114 72.3863 13.9863 70.144 13.9766 70.0771C13.9869 70.144 14.335 72.3832 14.7763 75.2232C14.992 76.6441 15.1873 77.9306 15.3287 78.8624C15.3935 79.3287 15.446 79.7062 15.4823 79.9673L15.5181 80.2686C15.525 80.3376 15.5269 80.3741 15.5232 80.3745C15.5195 80.375 15.5105 80.3394 15.4969 80.2713C15.4844 80.2027 15.4661 80.102 15.4425 79.9724C15.4005 79.712 15.3397 79.3356 15.2647 78.8705C15.1261 77.9384 14.9349 76.6513 14.7237 75.2299Z" fill="#E0E0E0"/>
<path id="Vector_38" d="M12.9453 75.1826C13.5367 72.3659 14.0028 70.1461 14.0169 70.0786C14.0034 70.1463 13.5605 72.3701 12.9985 75.1918C12.7124 76.6021 12.4533 77.879 12.2657 78.8038C12.166 79.2649 12.0853 79.6381 12.0295 79.8964C11.999 80.0247 11.9753 80.1245 11.9592 80.1924C11.9419 80.2599 11.9309 80.295 11.9272 80.2943C11.9235 80.2937 11.9272 80.2573 11.9377 80.1887C11.9495 80.12 11.9668 80.0191 11.9892 79.8894C12.0392 79.6301 12.1115 79.2554 12.2008 78.7925C12.3914 77.8683 12.6546 76.592 12.9453 75.1826Z" fill="#E0E0E0"/>
<path id="Vector_39" d="M11.2755 74.6136C12.8179 72.1211 14.034 70.156 14.0704 70.0972C14.0346 70.1563 12.8387 72.1319 11.3219 74.6377C10.559 75.8884 9.86816 77.021 9.36788 77.8412C9.11269 78.2484 8.90613 78.578 8.7632 78.806C8.6896 78.9186 8.63243 79.0061 8.59348 79.0656C8.55359 79.1244 8.53102 79.1544 8.52775 79.1527C8.5245 79.1511 8.54071 79.1177 8.57467 79.0559C8.60985 78.9943 8.66149 78.904 8.72796 78.7877C8.8658 78.5571 9.06501 78.2237 9.31112 77.8118C9.81404 76.993 10.5085 75.8623 11.2755 74.6136Z" fill="#E0E0E0"/>
<path id="Vector_40" d="M9.88901 73.5811C12.211 71.669 14.0409 70.1621 14.0966 70.1162C14.0414 70.1626 12.2273 71.6856 9.92531 73.6182C8.77068 74.5811 7.72516 75.453 6.968 76.0845C6.58559 76.3959 6.27606 76.6479 6.06188 76.8223C5.95326 76.9075 5.86886 76.9737 5.81137 77.0188C5.75324 77.0628 5.72145 77.0847 5.71891 77.0821C5.71638 77.0795 5.74321 77.0526 5.7967 77.0038C5.85125 76.9557 5.93133 76.8851 6.0344 76.7943C6.24462 76.6158 6.5484 76.3579 6.92374 76.0393C7.68292 75.4099 8.73128 74.5409 9.88901 73.5811Z" fill="#E0E0E0"/>
<path id="Vector_41" d="M8.93627 72.1971C11.8023 71.0738 14.0613 70.1884 14.1297 70.1616C14.0616 70.189 11.8119 71.0942 8.95762 72.2427C7.52824 72.8127 6.23391 73.3288 5.29658 73.7026C4.82579 73.8843 4.44473 74.0313 4.18106 74.1331L3.87529 74.2449C3.8049 74.2694 3.76717 74.2807 3.76567 74.2775C3.76418 74.2743 3.79898 74.2568 3.86664 74.2265C3.93508 74.1971 4.03554 74.154 4.16485 74.0985C4.42618 73.9917 4.80386 73.8375 5.27049 73.6468C6.20903 73.2757 7.50503 72.7631 8.93627 72.1971Z" fill="#E0E0E0"/>
<path id="Vector_42" d="M8.51162 70.6039C11.6169 70.3814 14.0642 70.206 14.1387 70.2007C14.0643 70.2067 11.6189 70.4037 8.51606 70.6536C6.96393 70.7738 5.55849 70.8827 4.54067 70.9615C4.03154 70.9954 3.61947 71.0228 3.33432 71.0418C3.19187 71.0488 3.08119 71.0543 3.00579 71.058C2.93059 71.0605 2.89093 71.0601 2.89063 71.0567C2.8903 71.0532 2.92936 71.0468 3.004 71.0379C3.07905 71.0302 3.18918 71.0188 3.33096 71.0042C3.61561 70.9799 4.02699 70.9446 4.53523 70.901C5.55331 70.825 6.9591 70.7199 8.51162 70.6039Z" fill="#E0E0E0"/>
<path id="Vector_43" d="M8.66056 68.9701C11.681 69.6704 14.0615 70.2223 14.1339 70.2391C14.0613 70.2229 11.6752 69.6921 8.64757 69.0186C7.13472 68.6772 5.76481 68.368 4.77274 68.1441C4.27844 68.0268 3.87835 67.9319 3.6015 67.8662C3.46406 67.831 3.35726 67.8037 3.2845 67.7851C3.21234 67.7654 3.17489 67.7534 3.1758 67.75C3.17671 67.7466 3.21593 67.752 3.28977 67.7655C3.36356 67.7802 3.47191 67.8017 3.61134 67.8295C3.88962 67.8899 4.29175 67.9771 4.78858 68.085C5.77992 68.3116 7.1488 68.6245 8.66056 68.9701Z" fill="#E0E0E0"/>
<path id="Vector_44" d="M9.37279 67.4664C11.9885 69.024 14.0507 70.252 14.1126 70.2888C14.0503 70.2525 11.9756 69.0426 9.34399 67.5079C8.03069 66.7365 6.84151 66.038 5.98032 65.5322C5.55318 65.2748 5.20744 65.0664 4.96825 64.9222C4.85033 64.8483 4.75872 64.7908 4.69632 64.7517C4.63484 64.7117 4.60354 64.6893 4.60556 64.6864C4.60758 64.6834 4.64279 64.7002 4.70796 64.7349C4.77272 64.7707 4.86775 64.8232 4.99007 64.8908C5.23245 65.0304 5.58272 65.2322 6.01549 65.4815C6.87506 65.9897 8.06199 66.6915 9.37279 67.4664Z" fill="#E0E0E0"/>
<path id="Vector_45" d="M10.5673 66.2495C12.511 68.4913 14.0427 70.2579 14.0893 70.3117C14.0421 70.2583 12.4921 68.5053 10.5252 66.2809C9.54553 65.1655 8.65846 64.1555 8.01605 63.4241C7.69976 63.0551 7.44375 62.7564 7.2666 62.5497C7.18032 62.4451 7.11329 62.3638 7.0676 62.3084C7.02311 62.2525 7.00122 62.222 7.00417 62.2199C7.00712 62.2177 7.03479 62.2438 7.08468 62.2957C7.13379 62.3486 7.20585 62.4261 7.29859 62.526C7.48035 62.7292 7.74304 63.0229 8.06758 63.3858C8.70761 64.119 9.59136 65.1314 10.5673 66.2495Z" fill="#E0E0E0"/>
<path id="Vector_46" d="M12.1201 65.4491C13.1782 68.1474 14.0122 70.2744 14.0373 70.3386C14.0115 70.2746 13.1556 68.1551 12.0697 65.4662C11.5314 64.1199 11.044 62.9008 10.6911 62.018C10.5204 61.575 10.3822 61.2163 10.2866 60.9682L10.1823 60.6808C10.1596 60.6147 10.1495 60.5794 10.153 60.5782C10.1566 60.577 10.1736 60.61 10.2027 60.6739C10.2307 60.7385 10.2718 60.8332 10.3248 60.9553C10.4259 61.2016 10.5721 61.5575 10.7527 61.9972C11.1028 62.881 11.5862 64.1014 12.1201 65.4491Z" fill="#E0E0E0"/>
<path id="Vector_47" d="M13.8689 65.149C13.9389 68.0171 13.9941 70.2774 13.9957 70.3462C13.9933 70.2774 13.9146 68.0177 13.8148 65.1503C13.77 63.7163 13.7295 62.4177 13.7001 61.4773C13.6915 61.0072 13.6845 60.6268 13.6797 60.3635C13.6799 60.2321 13.6801 60.13 13.6803 60.0605C13.6817 59.9911 13.6843 59.9547 13.688 59.9546C13.6918 59.9545 13.6966 59.9908 13.7021 60.0599C13.7063 60.1294 13.7125 60.2313 13.7206 60.3625C13.7313 60.6256 13.7468 61.0059 13.7661 61.4757C13.7924 62.4161 13.8288 63.7148 13.8689 65.149Z" fill="#E0E0E0"/>
<path id="Vector_48" d="M15.6336 65.3773C14.7062 68.116 13.9754 70.2744 13.9531 70.3401C13.9747 70.2742 14.683 68.1095 15.5819 65.3627C16.0362 63.9904 16.4477 62.7479 16.7456 61.848C16.9003 61.4 17.0256 61.0373 17.1122 60.7864C17.158 60.6619 17.1936 60.5653 17.2178 60.4994C17.2432 60.4341 17.2583 60.4004 17.2619 60.4014C17.2655 60.4024 17.2575 60.4382 17.2388 60.5053C17.2187 60.5724 17.1894 60.6708 17.1515 60.7975C17.0706 61.05 16.9535 61.415 16.809 61.8659C16.508 62.7649 16.0925 64.0063 15.6336 65.3773Z" fill="#E0E0E0"/>
<path id="Vector_49" d="M17.2206 66.1146C15.3872 68.4339 13.942 70.262 13.8984 70.3172C13.9415 70.2616 15.3677 68.4209 17.1771 66.0857C18.0861 64.9207 18.9092 63.8657 19.5052 63.1018C19.8079 62.7232 20.053 62.4168 20.2225 62.2048C20.3092 62.1005 20.3766 62.0194 20.4225 61.9642C20.4692 61.9099 20.4953 61.8824 20.4983 61.8844C20.5014 61.8864 20.4813 61.9179 20.4401 61.9759C20.3977 62.0335 20.3355 62.118 20.2554 62.2267C20.0907 62.4419 19.8525 62.7528 19.5583 63.137C18.9598 63.8994 18.1333 64.9521 17.2206 66.1146Z" fill="#E0E0E0"/>
</g>
<path id="Vector_50" d="M5.60444 63.4125C1.51332 67.6936 1.96476 74.2188 6.61273 77.9869C11.2607 81.7551 18.3451 81.3393 22.4362 77.0582C26.5273 72.7771 26.0758 66.252 21.4279 62.4838C16.7799 58.7157 9.69552 59.1315 5.60444 63.4125ZM21.186 76.0447C17.7027 79.6898 11.6706 80.0438 7.71311 76.8354C3.75558 73.627 3.37122 68.0712 6.85459 64.426C10.338 60.7809 16.37 60.4269 20.3275 63.6353C24.285 66.8437 24.6694 72.3996 21.186 76.0447Z" fill="#263238"/>
<path id="Vector_51" d="M14.0564 79.2147C11.7756 79.2149 9.48648 78.4815 7.64393 76.9877C5.69626 75.4087 4.53276 73.2256 4.36779 70.8406C4.2028 68.4555 5.05604 66.1541 6.77036 64.3601C8.48477 62.5661 10.855 61.4945 13.4444 61.3425C16.033 61.1918 18.5326 61.9766 20.4803 63.5556C22.428 65.1346 23.5916 67.3177 23.7565 69.7027C23.9215 72.0878 23.0683 74.3892 21.354 76.183C19.4367 78.1893 16.7526 79.2147 14.0564 79.2147ZM14.0754 61.5236C13.8704 61.5236 13.6646 61.5296 13.4582 61.5417C10.9265 61.6903 8.60923 62.738 6.93312 64.4919C5.25701 66.2459 4.42271 68.4961 4.58408 70.8279C4.74534 73.1598 5.88294 75.2941 7.7872 76.838C11.7184 80.0246 17.7313 79.672 21.1912 76.0512C22.8673 74.2974 23.7016 72.0472 23.5402 69.7154C23.379 67.3836 22.2414 65.2492 20.337 63.7053C18.5881 62.2874 16.3847 61.5236 14.0754 61.5236Z" fill="#E0E0E0"/>
</g>
<g id="Group_12">
<g id="Group_13">
<path id="Vector_52" d="M43.4299 39.4837C41.3495 41.6188 39.7101 43.3015 39.6602 43.3527C39.7095 43.301 41.3314 41.604 43.3893 39.4505C44.4224 38.3769 45.3579 37.4046 46.0354 36.7006C46.3784 36.3524 46.656 36.0706 46.8481 35.8756C46.9459 35.7799 47.0219 35.7056 47.0737 35.655C47.1262 35.6053 47.1552 35.5804 47.158 35.5827C47.1608 35.585 47.1373 35.6144 47.0899 35.6682C47.0414 35.7215 46.9702 35.7998 46.8785 35.9004C46.6908 36.099 46.4195 36.3861 46.0844 36.7407C45.4048 37.443 44.4663 38.4127 43.4299 39.4837Z" fill="#E0E0E0"/>
<path id="Vector_53" d="M44.548 40.7625C41.8356 42.1726 39.6982 43.2838 39.6328 43.3178C39.6979 43.2832 41.8235 42.1531 44.521 40.719C45.8726 40.0059 47.0964 39.3601 47.9827 38.8925C48.4286 38.6637 48.7896 38.4785 49.0393 38.3504C49.1652 38.2886 49.2631 38.2406 49.3297 38.208C49.3967 38.1764 49.4329 38.1614 49.4348 38.1645C49.4367 38.1675 49.4042 38.1885 49.3407 38.2256C49.2762 38.2619 49.1816 38.3151 49.0598 38.3835C48.813 38.5164 48.4564 38.7085 48.0158 38.9458C47.1279 39.411 45.9019 40.0532 44.548 40.7625Z" fill="#E0E0E0"/>
<path id="Vector_54" d="M45.1579 42.3022C42.098 42.8383 39.6854 43.261 39.6133 43.2737C39.6853 43.2604 42.0934 42.8168 45.1477 42.2541C46.6761 41.9773 48.06 41.7267 49.0622 41.5452C49.5642 41.4598 49.9705 41.3908 50.2516 41.343C50.3924 41.3215 50.5017 41.3048 50.5762 41.2935C50.6506 41.2833 50.6901 41.2796 50.6908 41.283C50.6915 41.2863 50.6534 41.2965 50.5803 41.3129C50.5066 41.3281 50.3985 41.3505 50.2593 41.3794C49.9793 41.4324 49.5746 41.5091 49.0746 41.6038C48.0719 41.7826 46.6871 42.0295 45.1579 42.3022Z" fill="#E0E0E0"/>
<path id="Vector_55" d="M45.2016 43.941C42.1155 43.5532 39.6834 43.2476 39.6094 43.2383C39.6835 43.2469 42.1187 43.531 45.2087 43.8915C46.7533 44.0765 48.152 44.244 49.1648 44.3654C49.6702 44.4315 50.0793 44.485 50.3623 44.5221C50.5031 44.543 50.6126 44.5592 50.6871 44.5703C50.7612 44.5825 50.7999 44.5906 50.7994 44.594C50.7989 44.5975 50.7592 44.5961 50.6843 44.5903C50.6091 44.5832 50.4989 44.5728 50.357 44.5595C50.0731 44.5278 49.663 44.4821 49.1562 44.4257C48.1437 44.3016 46.7456 44.1302 45.2016 43.941Z" fill="#E0E0E0"/>
<path id="Vector_56" d="M44.6805 45.508C41.8928 44.2285 39.6958 43.2201 39.6289 43.1895C39.6961 43.2196 41.9035 44.2084 44.7045 45.4632C46.103 46.0949 47.3693 46.667 48.2863 47.0812C48.7419 47.2933 49.1107 47.4649 49.3658 47.5836C49.4919 47.6451 49.5899 47.6928 49.6566 47.7254C49.7226 47.7588 49.7563 47.7779 49.7547 47.7811C49.753 47.7842 49.7159 47.7712 49.6469 47.7435C49.5782 47.7146 49.4774 47.6722 49.3476 47.6177C49.0899 47.5038 48.7173 47.3393 48.2571 47.136C47.3414 46.7192 46.0769 46.1436 44.6805 45.508Z" fill="#E0E0E0"/>
<path id="Vector_57" d="M43.6362 46.8386C41.4355 44.8084 39.7012 43.2084 39.6484 43.1597C39.7018 43.2079 41.4526 44.7925 43.6743 46.8031C44.7817 47.812 45.7845 48.7256 46.5106 49.3872C46.8693 49.7218 47.1596 49.9925 47.3604 50.1799C47.4587 50.2751 47.5351 50.3491 47.5872 50.3995C47.6381 50.4505 47.6636 50.4785 47.6609 50.481C47.6582 50.4834 47.6276 50.4602 47.5718 50.4137C47.5167 50.3662 47.4358 50.2964 47.3316 50.2066C47.1266 50.0231 46.8303 49.7579 46.4643 49.4303C45.7402 48.7667 44.7403 47.8504 43.6362 46.8386Z" fill="#E0E0E0"/>
<path id="Vector_58" d="M42.1904 47.7938C40.8135 45.2205 39.7283 43.1926 39.6953 43.1309C39.729 43.1923 40.8352 45.2106 42.2389 47.7715C42.9363 49.0544 43.5678 50.216 44.0252 51.0572C44.2482 51.48 44.4288 51.8223 44.5538 52.0591C44.6137 52.1784 44.6603 52.271 44.692 52.3341C44.7224 52.3975 44.7367 52.4316 44.7333 52.4332C44.7299 52.4347 44.709 52.4037 44.6723 52.3432C44.6367 52.2819 44.5843 52.1919 44.5169 52.0761C44.3867 51.8417 44.1984 51.5029 43.9658 51.0844C43.5113 50.2419 42.8836 49.0786 42.1904 47.7938Z" fill="#E0E0E0"/>
<path id="Vector_59" d="M40.4893 48.27C40.077 45.4263 39.7519 43.1841 39.7422 43.1172C39.7526 43.184 40.1006 45.4233 40.5419 48.2633C40.7576 49.6841 40.9529 50.9707 41.0943 51.9024C41.1592 52.3687 41.2116 52.7462 41.2479 53.0074C41.2635 53.138 41.2755 53.2395 41.2837 53.3086C41.2907 53.3776 41.2925 53.4141 41.2888 53.4146C41.2851 53.415 41.2761 53.3795 41.2625 53.3113C41.25 53.2427 41.2317 53.142 41.2082 53.0124C41.1661 52.752 41.1053 52.3756 41.0303 51.9105C40.8918 50.9785 40.7005 49.6914 40.4893 48.27Z" fill="#E0E0E0"/>
<path id="Vector_60" d="M38.7109 48.2226C39.3023 45.406 39.7684 43.1862 39.7826 43.1187C39.7691 43.1863 39.3262 45.4101 38.7642 48.2319C38.478 49.6421 38.219 50.9191 38.0313 51.8439C37.9316 52.305 37.8509 52.6782 37.7951 52.9364C37.7646 53.0648 37.7409 53.1645 37.7248 53.2325C37.7075 53.2999 37.6965 53.335 37.6928 53.3344C37.6891 53.3337 37.6928 53.2973 37.7033 53.2287C37.7151 53.16 37.7324 53.0592 37.7548 52.9294C37.8048 52.6702 37.8771 52.2955 37.9664 51.8326C38.157 50.9083 38.4202 49.6321 38.7109 48.2226Z" fill="#E0E0E0"/>
<path id="Vector_61" d="M37.0411 47.6536C38.5835 45.1611 39.7997 43.196 39.836 43.1372C39.8002 43.1963 38.6043 45.1719 37.0875 47.6777C36.3246 48.9285 35.6338 50.0611 35.1335 50.8813C34.8783 51.2885 34.6717 51.618 34.5288 51.8461C34.4552 51.9586 34.398 52.0461 34.3591 52.1057C34.3192 52.1644 34.2966 52.1945 34.2934 52.1928C34.2901 52.1911 34.3063 52.1578 34.3403 52.0959C34.3755 52.0344 34.4271 51.944 34.4936 51.8278C34.6314 51.5971 34.8306 51.2637 35.0767 50.8518C35.5797 50.033 36.2742 48.9023 37.0411 47.6536Z" fill="#E0E0E0"/>
<path id="Vector_62" d="M35.6546 46.6212C37.9766 44.709 39.8065 43.2021 39.8622 43.1562C39.807 43.2026 37.9929 44.7256 35.6909 46.6582C34.5363 47.6211 33.4908 48.493 32.7336 49.1245C32.3512 49.4359 32.0417 49.688 31.8275 49.8624C31.7189 49.9475 31.6345 50.0137 31.577 50.0588C31.5189 50.1028 31.4871 50.1247 31.4845 50.1221C31.482 50.1195 31.5088 50.0926 31.5623 50.0438C31.6169 49.9958 31.697 49.9252 31.8 49.8343C32.0102 49.6559 32.314 49.398 32.6893 49.0793C33.4485 48.45 34.4969 47.5809 35.6546 46.6212Z" fill="#E0E0E0"/>
<path id="Vector_63" d="M34.7019 45.2371C37.5679 44.1138 39.8269 43.2285 39.8953 43.2017C39.8272 43.2291 37.5775 44.1343 34.7232 45.2827C33.2938 45.8527 31.9995 46.3689 31.0622 46.7427C30.5914 46.9243 30.2104 47.0714 29.9467 47.1731L29.6409 47.285C29.5705 47.3095 29.5328 47.3208 29.5313 47.3176C29.5298 47.3144 29.5646 47.2969 29.6323 47.2665C29.7007 47.2371 29.8012 47.194 29.9305 47.1385C30.1918 47.0318 30.5695 46.8775 31.0361 46.6869C31.9747 46.3157 33.2707 45.8032 34.7019 45.2371Z" fill="#E0E0E0"/>
<path id="Vector_64" d="M34.2773 43.6439C37.3826 43.4214 39.8299 43.2461 39.9043 43.2407C39.8299 43.2467 37.3846 43.4437 34.2817 43.6936C32.7296 43.8139 31.3241 43.9227 30.3063 44.0016C29.7972 44.0355 29.3851 44.0629 29.1 44.0818C28.9575 44.0889 28.8468 44.0943 28.7714 44.098C28.6962 44.1006 28.6566 44.1002 28.6563 44.0967C28.6559 44.0932 28.695 44.0869 28.7696 44.078C28.8447 44.0703 28.9548 44.0589 29.0966 44.0443C29.3813 44.0199 29.7926 43.9846 30.3009 43.9411C31.3189 43.865 32.7247 43.7599 34.2773 43.6439Z" fill="#E0E0E0"/>
<path id="Vector_65" d="M34.4262 42.0102C37.4466 42.7104 39.8271 43.2623 39.8995 43.2791C39.8269 43.2629 37.4408 42.7321 34.4132 42.0586C32.9003 41.7172 31.5304 41.408 30.5384 41.1842C30.0441 41.0669 29.644 40.9719 29.3671 40.9062C29.2297 40.8711 29.1229 40.8437 29.0501 40.8251C28.978 40.8055 28.9405 40.7934 28.9414 40.7901C28.9423 40.7867 28.9816 40.792 29.0554 40.8055C29.1292 40.8202 29.2375 40.8418 29.377 40.8695C29.6552 40.9299 30.0574 41.0172 30.5542 41.125C31.5455 41.3516 32.9144 41.6646 34.4262 42.0102Z" fill="#E0E0E0"/>
<path id="Vector_66" d="M35.1384 40.5065C37.7542 42.0641 39.8163 43.292 39.8782 43.3289C39.8159 43.2925 37.7413 42.0826 35.1096 40.548C33.7963 39.7766 32.6071 39.0781 31.7459 38.5722C31.3188 38.3148 30.9731 38.1064 30.7339 37.9623C30.616 37.8883 30.5243 37.8308 30.4619 37.7917C30.4004 37.7517 30.3692 37.7293 30.3712 37.7264C30.3732 37.7235 30.4084 37.7403 30.4736 37.7749C30.5383 37.8107 30.6334 37.8632 30.7557 37.9308C30.9981 38.0705 31.3483 38.2723 31.7811 38.5216C32.6407 39.0298 33.8276 39.7315 35.1384 40.5065Z" fill="#E0E0E0"/>
<path id="Vector_67" d="M36.333 39.2896C38.2766 41.5313 39.8083 43.298 39.855 43.3518C39.8078 43.2984 38.2577 41.5454 36.2908 39.3209C35.3111 38.2055 34.4241 37.1956 33.7817 36.4641C33.4654 36.0951 33.2094 35.7965 33.0322 35.5898C32.9459 35.4851 32.8789 35.4038 32.8332 35.3485C32.7887 35.2926 32.7668 35.2621 32.7698 35.2599C32.7727 35.2577 32.8004 35.2839 32.8503 35.3358C32.8994 35.3886 32.9715 35.4662 33.0642 35.566C33.246 35.7693 33.5087 36.063 33.8332 36.4258C34.4732 37.1591 35.357 38.1715 36.333 39.2896Z" fill="#E0E0E0"/>
<path id="Vector_68" d="M37.8858 38.4892C38.9438 41.1875 39.7778 43.3144 39.803 43.3786C39.7771 43.3146 38.9212 41.1951 37.8353 38.5062C37.2971 37.1599 36.8097 35.9409 36.4567 35.0581C36.286 34.615 36.1478 34.2563 36.0522 34.0082C36.007 33.8836 35.9719 33.7868 35.9479 33.7208C35.9253 33.6547 35.9151 33.6194 35.9187 33.6182C35.9222 33.617 35.9392 33.65 35.9683 33.7139L36.0904 33.9953C36.1916 34.2416 36.3378 34.5975 36.5183 35.0373C36.8684 35.921 37.3519 37.1414 37.8858 38.4892Z" fill="#E0E0E0"/>
<path id="Vector_69" d="M39.6346 38.189C39.7045 41.0571 39.7597 43.3175 39.7614 43.3862C39.759 43.3174 39.6803 41.0577 39.5804 38.1904C39.5357 36.7563 39.4951 35.4578 39.4658 34.5174C39.4571 34.0473 39.4501 33.6668 39.4453 33.4035C39.4456 33.2721 39.4457 33.17 39.4459 33.1005C39.4473 33.0312 39.4499 32.9947 39.4537 32.9946C39.4574 32.9945 39.4622 33.0308 39.4677 33.0999C39.4719 33.1694 39.4782 33.2713 39.4862 33.4025C39.4969 33.6656 39.5125 34.0459 39.5317 34.5157C39.558 35.4562 39.5944 36.7548 39.6346 38.189Z" fill="#E0E0E0"/>
<path id="Vector_70" d="M41.3993 38.4174C40.4719 41.1561 39.741 43.3145 39.7188 43.3801C39.7403 43.3142 40.4486 41.1495 41.3475 38.4027C41.8019 37.0305 42.2133 35.7879 42.5113 34.888C42.666 34.44 42.7912 34.0774 42.8778 33.8264C42.9236 33.702 42.9592 33.6053 42.9834 33.5394C43.0088 33.4742 43.0239 33.4404 43.0275 33.4414C43.0311 33.4424 43.0231 33.4782 43.0044 33.5454C42.9844 33.6124 42.955 33.7108 42.9171 33.8375C42.8362 34.0901 42.7192 34.455 42.5746 34.9059C42.2737 35.805 41.8581 37.0464 41.3993 38.4174Z" fill="#E0E0E0"/>
<path id="Vector_71" d="M42.9863 39.1547C41.1529 41.4739 39.7076 43.3021 39.6641 43.3572C39.7071 43.3017 41.1334 41.4609 42.9427 39.1258C43.8517 37.9607 44.6748 36.9058 45.2708 36.1418C45.5736 35.7633 45.8186 35.4569 45.9881 35.2449C46.0749 35.1405 46.1422 35.0595 46.1881 35.0043C46.2349 34.9499 46.2609 34.9224 46.264 34.9244C46.267 34.9265 46.2469 34.9579 46.2057 35.0159C46.1633 35.0735 46.1011 35.158 46.0211 35.2667C45.8563 35.4819 45.6181 35.7929 45.3239 36.1771C44.7254 36.9394 43.899 37.9921 42.9863 39.1547Z" fill="#E0E0E0"/>
</g>
<path id="Vector_72" d="M31.3701 36.4526C27.279 40.7336 27.7304 47.2588 32.3784 51.027C37.0263 54.7951 44.1107 54.3793 48.2018 50.0983C52.2929 45.8172 51.8415 39.292 47.1935 35.5239C42.5456 31.7557 35.4612 32.1715 31.3701 36.4526ZM46.9517 49.0847C43.4683 52.7299 37.4363 53.0839 33.4787 49.8755C29.5212 46.6671 29.1369 41.1112 32.6202 37.4661C36.1036 33.821 42.1356 33.4669 46.0931 36.6753C50.0507 39.8838 50.435 45.4396 46.9517 49.0847Z" fill="#263238"/>
<path id="Vector_73" d="M39.7428 52.2254C37.3809 52.2254 35.1273 51.4443 33.3383 49.994C29.3177 46.7344 28.9258 41.0696 32.4647 37.3663C36.004 33.6628 42.1539 33.3018 46.1747 36.5616C50.1953 39.8214 50.5872 45.4861 47.0481 49.1893C45.3338 50.9833 42.9636 52.055 40.3742 52.2069C40.1632 52.2193 39.9524 52.2254 39.7428 52.2254ZM39.7623 34.5341C37.1259 34.5341 34.5021 35.5365 32.6275 37.4981C29.1675 41.1189 29.5506 46.6572 33.4816 49.8443C35.3856 51.3878 37.8281 52.1578 40.3604 52.0076C42.8921 51.8591 45.2094 50.8113 46.8856 49.0575C50.3453 45.4371 49.9618 39.8986 46.0316 36.7113C44.2303 35.2513 41.9918 34.5341 39.7623 34.5341Z" fill="#E0E0E0"/>
<path id="Vector_74" d="M49.1868 43.3046C49.1868 43.3046 49.1803 43.257 49.1733 43.164C49.1667 43.0677 49.1574 42.9304 49.1451 42.7515C49.1393 42.6606 49.1328 42.5592 49.1257 42.4477C49.1131 42.3364 49.0874 42.2159 49.0662 42.0847C49.0437 41.9535 49.0194 41.8125 48.9935 41.6617C48.9739 41.5097 48.9128 41.3554 48.8704 41.1879C48.7046 40.5165 48.3638 39.7231 47.8262 38.882C47.2841 38.0446 46.5019 37.1695 45.4364 36.4267C45.3026 36.3349 45.1672 36.242 45.0302 36.148C44.8876 36.0619 44.7372 35.9829 44.5886 35.8986C44.437 35.8192 44.2933 35.7226 44.1306 35.6547C43.9697 35.5836 43.8072 35.5118 43.6431 35.4393C43.5608 35.4033 43.4782 35.3672 43.3951 35.331C43.3087 35.302 43.2219 35.2729 43.1346 35.2436C42.9602 35.1851 42.784 35.1259 42.6063 35.0663C42.4268 35.0116 42.2389 34.9764 42.0531 34.9299C41.8654 34.8907 41.6808 34.8298 41.485 34.8114C41.0969 34.7607 40.7047 34.6869 40.2982 34.6849C40.0958 34.6785 39.8918 34.6602 39.6864 34.6632C39.4809 34.673 39.2738 34.6828 39.0653 34.6927C38.9612 34.6994 38.856 34.6987 38.7518 34.7114C38.6478 34.7261 38.5435 34.7409 38.4388 34.7557C38.23 34.7876 38.0176 34.8102 37.8076 34.8502C37.3934 34.954 36.9644 35.0313 36.5565 35.1883C36.1356 35.3124 35.7398 35.5039 35.333 35.6835C35.1349 35.7825 34.9449 35.8978 34.7488 36.0049C34.6528 36.0615 34.5503 36.1098 34.4589 36.1736L34.1827 36.3641C33.8014 36.6052 33.4679 36.9067 33.1186 37.1971C32.9605 37.3575 32.8015 37.5188 32.6419 37.6808L32.5219 37.8024L32.4142 37.9337L32.1995 38.1984L31.9838 38.4642L31.7949 38.7484L31.6064 39.0345L31.5117 39.178L31.4316 39.3291C31.3258 39.5314 31.2197 39.7345 31.1131 39.9383C31.0286 40.1508 30.9438 40.364 30.8586 40.5781C30.5528 41.4452 30.3881 42.3661 30.3746 43.3033C30.388 44.2408 30.5522 45.1621 30.858 46.0296C30.9431 46.2437 31.0279 46.457 31.1124 46.6695C31.219 46.8735 31.3252 47.0766 31.4309 47.2789L31.511 47.4301L31.6057 47.5737L31.7943 47.8598L31.9831 48.1442L32.1989 48.4101L32.4136 48.6748L32.5213 48.8062L32.6412 48.9279C32.801 49.0899 32.9599 49.2512 33.1181 49.4117C33.4674 49.7022 33.8009 50.0037 34.1823 50.2449L34.4586 50.4354C34.5499 50.4993 34.6525 50.5475 34.7485 50.6042C34.9446 50.7114 35.1346 50.8266 35.3328 50.9256C35.7396 51.1054 36.1355 51.2969 36.5565 51.421C36.9644 51.5779 37.3935 51.6553 37.8077 51.7591C38.0178 51.7991 38.2302 51.8217 38.4391 51.8536C38.5438 51.8684 38.6481 51.8832 38.7521 51.8979C38.8563 51.9105 38.9615 51.9099 39.0656 51.9166C39.2742 51.9265 39.4813 51.9363 39.6868 51.9461C39.8923 51.949 40.0962 51.9308 40.2986 51.9244C40.7052 51.9223 41.0974 51.8485 41.4855 51.7978C41.6813 51.7794 41.866 51.7184 42.0537 51.6792C42.2395 51.6327 42.4274 51.5975 42.6068 51.5428C42.7846 51.4831 42.9608 51.424 43.1352 51.3654C43.2225 51.3362 43.3093 51.3071 43.3957 51.2781L43.6437 51.1698C43.8078 51.0972 43.9704 51.0254 44.1312 50.9543C44.2939 50.8863 44.4376 50.7898 44.5892 50.7103C44.7378 50.626 44.8882 50.5471 45.0308 50.4609C45.1677 50.3669 45.3032 50.274 45.437 50.1822C46.5024 49.4393 47.2845 48.5642 47.8265 47.7267C48.364 46.8857 48.7048 46.0924 48.8705 45.4211C48.9128 45.2535 48.974 45.0993 48.9935 44.9473C49.0194 44.7966 49.0437 44.6555 49.0662 44.5243C49.0874 44.3932 49.1131 44.2727 49.1257 44.1614C49.1328 44.0499 49.1393 43.9486 49.1451 43.8577C49.1574 43.6788 49.1667 43.5415 49.1733 43.4453C49.1803 43.3523 49.1868 43.3046 49.1868 43.3046C49.1868 43.3046 49.1881 43.3523 49.1849 43.4454C49.1809 43.542 49.1752 43.6796 49.1678 43.859C49.1636 43.9503 49.1589 44.052 49.1538 44.1639C49.1429 44.2757 49.1189 44.3968 49.0995 44.5287C49.0784 44.6606 49.0558 44.8024 49.0316 44.954C49.0137 45.1069 48.954 45.2622 48.9131 45.4309C48.7531 46.1069 48.4167 46.9069 47.8807 47.7565C47.3402 48.6024 46.5567 49.4877 45.4853 50.2406C45.3507 50.3337 45.2145 50.4278 45.0768 50.5231C44.9333 50.6106 44.782 50.6906 44.6324 50.7762C44.4797 50.8569 44.3349 50.9546 44.1711 51.0238C44.009 51.096 43.8452 51.169 43.6798 51.2427C43.5969 51.2792 43.5136 51.3159 43.4299 51.3527C43.3428 51.3822 43.2552 51.4119 43.1673 51.4417C42.9913 51.5013 42.8136 51.5615 42.6343 51.6222C42.4533 51.6779 42.2638 51.714 42.0762 51.7614C41.8868 51.8015 41.7003 51.8633 41.5027 51.8825C41.1109 51.9348 40.7148 52.01 40.3042 52.0131C40.0998 52.0201 39.8937 52.0387 39.6861 52.0363C39.4784 52.0268 39.2692 52.0173 39.0584 52.0077C38.9532 52.0012 38.8469 52.0019 38.7415 51.9894C38.6365 51.9747 38.531 51.96 38.4251 51.9452C38.214 51.9135 37.9992 51.8909 37.7868 51.8508C37.3678 51.7468 36.9339 51.6689 36.521 51.511C36.0952 51.386 35.6944 51.1931 35.2827 51.0117C35.0822 50.9119 34.8898 50.7957 34.6913 50.6874C34.5941 50.6303 34.4904 50.5815 34.3979 50.517L34.1182 50.3247C33.7322 50.081 33.3943 49.7766 33.0408 49.4828C32.8806 49.3206 32.7196 49.1576 32.5579 48.9939L32.4364 48.8709L32.3273 48.7381L32.1098 48.4704L31.8913 48.2014L31.7 47.9139L31.5089 47.6244L31.4131 47.4792L31.332 47.3263C31.2248 47.1216 31.1173 46.9161 31.0093 46.7098C30.9237 46.4947 30.8377 46.2788 30.7514 46.0622C30.4415 45.1845 30.2751 44.2519 30.2617 43.3033C30.2752 42.355 30.4421 41.4228 30.7521 40.5454C30.8384 40.3289 30.9244 40.1131 31.01 39.8981C31.118 39.6918 31.2255 39.4864 31.3326 39.2817L31.4139 39.1289L31.5096 38.9837L31.7006 38.6943L31.892 38.4069L32.1104 38.1381L32.3279 37.8705L32.4371 37.7377L32.5585 37.6147C32.7202 37.451 32.8811 37.2881 33.0413 37.1259C33.3948 36.8323 33.7326 36.5279 34.1186 36.2843L34.3982 36.0921C34.4908 36.0276 34.5944 35.9788 34.6916 35.9217C34.8901 35.8135 35.0824 35.6973 35.2829 35.5975C35.6946 35.416 36.0953 35.2233 36.521 35.0983C36.9338 34.9404 37.3677 34.8624 37.7866 34.7585C37.999 34.7184 38.2137 34.6958 38.4249 34.6641C38.5307 34.6493 38.6362 34.6346 38.7412 34.6199C38.8465 34.6073 38.9529 34.6081 39.0581 34.6015C39.2688 34.5919 39.4781 34.5824 39.6857 34.573C39.8933 34.5705 40.0993 34.5892 40.3037 34.5961C40.7143 34.5993 41.1104 34.6744 41.5022 34.7267C41.6998 34.7459 41.8862 34.8076 42.0757 34.8477C42.2632 34.8951 42.4527 34.9313 42.6337 34.9869C42.813 35.0476 42.9907 35.1078 43.1667 35.1673C43.2546 35.1971 43.3421 35.2268 43.4292 35.2563C43.513 35.2932 43.5963 35.3298 43.6792 35.3663C43.8446 35.44 44.0084 35.5129 44.1705 35.5852C44.3343 35.6542 44.4791 35.7521 44.6318 35.8327C44.7814 35.9183 44.9327 35.9984 45.0762 36.0858C45.214 36.181 45.3502 36.2752 45.4848 36.3682C46.5562 37.1211 47.3398 38.0064 47.8803 38.8523C48.4165 39.7018 48.7529 40.502 48.913 41.178C48.9539 41.3467 49.0136 41.502 49.0316 41.655C49.0558 41.8066 49.0784 41.9485 49.0994 42.0804C49.1189 42.2123 49.1429 42.3334 49.1538 42.4452C49.1589 42.5572 49.1636 42.6589 49.1678 42.7502C49.1752 42.9296 49.1809 43.0672 49.1849 43.1638C49.1881 43.257 49.1868 43.3046 49.1868 43.3046Z" fill="#263238"/>
</g>
<g id="Group_14">
<g id="Group_15">
<path id="Vector_75" d="M39.3979 43.7982L22.3867 38.5959L22.7764 37.519L39.7875 42.7214L39.3979 43.7982Z" fill="#455A64"/>
<path id="Vector_76" d="M22.7833 59.1812L14.1652 70.5997L13.293 69.7977L21.5088 58.7502L25.0678 39.3811L26.296 39.2896L22.7833 59.1812Z" fill="#455A64"/>
<path id="Vector_77" d="M16.871 58.2893L15.4648 58.1113L22.9087 38.5957L24.1053 38.9746L16.871 58.2893Z" fill="#455A64"/>
<path id="Vector_78" d="M14.3068 70.0324L13.3906 70.1447L15.4661 58.0454L16.8708 58.2896L14.3068 70.0324Z" fill="#455A64"/>
<g id="Group_16">
<path id="Vector_79" d="M14.6199 69.2776C15.1042 69.6702 15.1512 70.3502 14.7249 70.7963C14.2986 71.2424 13.5604 71.2857 13.0761 70.893C12.5918 70.5004 12.5447 69.8205 12.971 69.3744C13.3973 68.9283 14.1355 68.885 14.6199 69.2776Z" fill="#E0E0E0"/>
<path id="Vector_80" d="M14.619 69.2775C14.6119 69.2857 14.5351 69.2203 14.3707 69.1472C14.2091 69.0756 13.9416 69.0048 13.6249 69.0674C13.3135 69.1237 12.9603 69.3438 12.8089 69.7101C12.6506 70.0667 12.7411 70.5582 13.1124 70.8538C13.4779 71.1557 14.0189 71.1761 14.3828 70.9861C14.7582 70.8013 14.9503 70.4506 14.9714 70.159C14.9987 69.8617 14.8883 69.6263 14.7909 69.4878C14.6913 69.3469 14.6111 69.2851 14.619 69.2775C14.6216 69.2748 14.6425 69.2887 14.6804 69.318C14.7189 69.3466 14.7707 69.395 14.827 69.4648C14.9393 69.6013 15.0694 69.8451 15.051 70.1641C15.039 70.4768 14.8407 70.8629 14.4328 71.0701C14.2336 71.1734 13.9881 71.228 13.7389 71.2066C13.4891 71.1897 13.2385 71.092 13.0378 70.9318C12.84 70.7688 12.7031 70.5523 12.6531 70.3263C12.5985 70.1014 12.6261 69.8702 12.7121 69.6751C12.8834 69.2763 13.274 69.046 13.6092 68.9954C13.9505 68.9381 14.2295 69.0259 14.3908 69.1112C14.4732 69.1537 14.5319 69.195 14.5676 69.2265C14.604 69.2574 14.6216 69.2748 14.619 69.2775Z" fill="#263238"/>
</g>
<path id="Vector_81" d="M23.1737 57.2957C23.9532 57.9277 24.0289 59.0221 23.3428 59.7401C22.6566 60.4582 21.4684 60.5279 20.6888 59.8959C19.9093 59.2639 19.8335 58.1695 20.5197 57.4514C21.2059 56.7334 22.3941 56.6637 23.1737 57.2957Z" fill="#263238"/>
</g>
<g id="Group_17">
<path id="Vector_82" d="M15.4745 62.1793C15.4218 61.9446 15.5241 61.6934 15.7541 61.5522L21.117 58.2587C21.4194 58.0729 21.828 58.1481 22.0296 58.4267C22.2317 58.7053 22.1496 59.0816 21.8471 59.2672L16.4842 62.5608C16.1818 62.7466 15.7732 62.6714 15.5717 62.3928C15.5232 62.326 15.4911 62.2534 15.4745 62.1793Z" fill="#263238"/>
<path id="Vector_83" d="M15.4766 62.1794C15.4819 62.178 15.4912 62.2336 15.5437 62.3246C15.5971 62.4115 15.7027 62.5434 15.9033 62.6063C16.0013 62.6385 16.12 62.6499 16.2435 62.6269C16.3696 62.6063 16.4813 62.5327 16.6084 62.451L17.4686 61.9134C18.1106 61.5153 18.8704 61.0442 19.7131 60.5216C20.1365 60.2604 20.5806 59.9865 21.0407 59.7026C21.2711 59.5608 21.5055 59.4165 21.7434 59.2701C21.8678 59.2002 21.9622 59.1234 22.0225 59.01C22.0831 58.901 22.0995 58.772 22.0734 58.6511C22.0213 58.4057 21.7756 58.2151 21.5108 58.2097C21.3793 58.2031 21.2502 58.2392 21.1417 58.3065C21.0244 58.3784 20.908 58.4497 20.7926 58.5204C20.3311 58.8026 19.8858 59.0749 19.4611 59.3345C18.6132 59.8502 17.8488 60.3151 17.203 60.7079C16.5632 61.0998 16.0286 61.4064 15.684 61.6313C15.5287 61.7633 15.4856 61.9218 15.476 62.0216C15.466 62.1242 15.4829 62.1786 15.4766 62.1794C15.4766 62.1794 15.4506 62.127 15.4533 62.0203C15.456 61.9169 15.4927 61.7481 15.6538 61.6019C16.0026 61.3581 16.522 61.0483 17.1587 60.6467C17.8007 60.2486 18.5606 59.7775 19.4035 59.2548C19.8269 58.9936 20.271 58.7196 20.7313 58.4357C20.8465 58.3647 20.9627 58.2932 21.0798 58.221C21.2046 58.1428 21.3607 58.0985 21.5159 58.1064C21.8297 58.1126 22.1224 58.3383 22.1839 58.6301C22.2152 58.774 22.1952 58.9268 22.1234 59.0563C22.0578 59.1872 21.9255 59.2907 21.8057 59.3561C21.5675 59.5021 21.3328 59.646 21.1021 59.7874C20.6406 60.0695 20.1954 60.3417 19.7708 60.6013C18.9231 61.1169 18.1587 61.5818 17.5129 61.9746C17.192 62.1682 16.9009 62.3439 16.6434 62.4993C16.5193 62.5761 16.3913 62.6565 16.2539 62.6755C16.1191 62.6975 15.9918 62.6817 15.8883 62.6443C15.6763 62.5707 15.5719 62.4268 15.5234 62.3341C15.4758 62.2367 15.4766 62.1794 15.4766 62.1794Z" fill="#455A64"/>
</g>
<path id="Vector_84" d="M14.6767 61.0439C14.6257 60.8163 14.7307 60.5738 14.9581 60.4452C15.2483 60.2813 15.6277 60.365 15.8057 60.6322L17.328 62.9181C17.5056 63.1847 17.4149 63.5347 17.1249 63.6988C16.8348 63.8627 16.4553 63.779 16.2773 63.5118L14.755 61.2258C14.7167 61.1682 14.6908 61.1066 14.6767 61.0439Z" fill="#263238"/>
<g id="Group_18">
<path id="Vector_85" d="M40.4245 42.2673C40.9089 42.66 40.9559 43.3399 40.5296 43.786C40.1033 44.2321 39.3651 44.2754 38.8808 43.8828C38.3964 43.4902 38.3494 42.8102 38.7757 42.3641C39.202 41.918 39.9402 41.8747 40.4245 42.2673Z" fill="#E0E0E0"/>
<path id="Vector_86" d="M40.4237 42.2672C40.4166 42.2754 40.3397 42.21 40.1754 42.1369C40.0138 42.0654 39.7463 41.9945 39.4296 42.0572C39.1182 42.1135 38.7649 42.3335 38.6136 42.6999C38.4552 43.0565 38.5458 43.548 38.9171 43.8436C39.2826 44.1455 39.8236 44.1658 40.1875 43.9758C40.5629 43.7911 40.755 43.4403 40.7761 43.1487C40.8033 42.8514 40.693 42.616 40.5955 42.4775C40.496 42.3366 40.4157 42.2748 40.4237 42.2672C40.4263 42.2645 40.4472 42.2784 40.4851 42.3077C40.5236 42.3363 40.5754 42.3847 40.6317 42.4546C40.744 42.5911 40.874 42.8348 40.8557 43.1539C40.8437 43.4666 40.6453 43.8527 40.2375 44.0598C40.0383 44.1632 39.7928 44.2177 39.5436 44.1964C39.2938 44.1794 39.0432 44.0817 38.8425 43.9216C38.6447 43.7585 38.5077 43.5421 38.4578 43.3161C38.4032 43.0911 38.4308 42.86 38.5168 42.6649C38.6881 42.266 39.0787 42.0357 39.4139 41.9851C39.7552 41.9278 40.0342 42.0157 40.1955 42.1009C40.2779 42.1435 40.3366 42.1847 40.3723 42.2162C40.4087 42.2472 40.4263 42.2645 40.4237 42.2672Z" fill="#263238"/>
</g>
</g>
<path id="Vector_87" d="M38.1138 43.331C38.1041 43.3583 34.5736 42.3204 30.2292 41.0132C25.8833 39.7054 22.3692 38.6235 22.3789 38.5962C22.3886 38.569 25.9184 39.6066 30.2643 40.9144C34.6087 42.2216 38.1235 43.3038 38.1138 43.331Z" fill="#263238"/>
<path id="Vector_88" d="M23.5384 70.3031C23.5384 70.3031 23.5319 70.2553 23.5248 70.1619C23.5182 70.0653 23.5088 69.9275 23.4965 69.7478C23.4907 69.6565 23.4842 69.5548 23.4771 69.4428C23.4644 69.3311 23.4386 69.2101 23.4173 69.0784C23.3947 68.9467 23.3703 68.8051 23.3443 68.6538C23.3247 68.5011 23.2633 68.3463 23.2208 68.178C23.0543 67.504 22.7122 66.7075 22.1724 65.8631C21.6283 65.0223 20.843 64.1438 19.7733 63.3981C19.6389 63.3059 19.503 63.2126 19.3655 63.1183C19.2223 63.0318 19.0714 62.9525 18.9222 62.8679C18.7699 62.7881 18.6257 62.6911 18.4623 62.6229C18.3009 62.5516 18.1377 62.4795 17.9729 62.4067C17.8903 62.3706 17.8073 62.3344 17.7239 62.298C17.6372 62.2689 17.55 62.2396 17.4624 62.2103C17.2873 62.1515 17.1105 62.0921 16.932 62.0322C16.7518 61.9774 16.5632 61.942 16.3767 61.8953C16.1882 61.8559 16.0028 61.7948 15.8063 61.7763C15.4166 61.7254 15.0229 61.6514 14.6147 61.6493C14.4116 61.6429 14.2069 61.6246 14.0006 61.6275C13.7943 61.6373 13.5864 61.6472 13.377 61.6572C13.2725 61.6639 13.1668 61.6632 13.0623 61.676C12.9579 61.6907 12.8532 61.7056 12.7481 61.7204C12.5384 61.7525 12.3252 61.7751 12.1144 61.8152C11.6985 61.9194 11.2678 61.9971 10.8583 62.1547C10.4357 62.2793 10.0384 62.4715 9.62993 62.6519C9.43104 62.7513 9.24034 62.867 9.04345 62.9746C8.94707 63.0314 8.84417 63.0798 8.75239 63.1439L8.47514 63.3352C8.09228 63.5772 7.75748 63.8799 7.40685 64.1714C7.24805 64.3325 7.0885 64.4944 6.92819 64.657L6.8078 64.7791L6.69964 64.911L6.48408 65.1767L6.26751 65.4436L6.0779 65.7289L5.88857 66.0161L5.79361 66.1602L5.71311 66.3119C5.60696 66.515 5.50038 66.7189 5.39338 66.9235C5.30854 67.1368 5.22337 67.3509 5.13787 67.5658C4.83086 68.4363 4.6655 69.3609 4.65193 70.3018C4.66539 71.243 4.83027 72.168 5.13724 73.0388C5.22269 73.2538 5.30784 73.468 5.39267 73.6814C5.49969 73.8861 5.60629 74.09 5.71249 74.2932L5.79287 74.445L5.88788 74.5891L6.07725 74.8763L6.26682 75.1618L6.48343 75.4288L6.69903 75.6946L6.80715 75.8265L6.92759 75.9486C7.08792 76.1113 7.24751 76.2732 7.40635 76.4343C7.75696 76.726 8.09184 77.0287 8.47475 77.2708L8.75207 77.4621C8.84383 77.5263 8.94677 77.5747 9.04315 77.6316C9.24008 77.7392 9.43082 77.8549 9.62973 77.9543C10.0382 78.1347 10.4357 78.327 10.8583 78.4516C11.2679 78.6091 11.6987 78.6869 12.1145 78.7911C12.3254 78.8312 12.5387 78.8539 12.7484 78.8859C12.8535 78.9007 12.9582 78.9156 13.0626 78.9304C13.1672 78.943 13.2729 78.9424 13.3774 78.9491C13.5868 78.9591 13.7946 78.969 14.0009 78.9788C14.2073 78.9816 14.412 78.9634 14.6152 78.9569C15.0234 78.9549 15.4172 78.8807 15.8068 78.8299C16.0034 78.8114 16.1888 78.7501 16.3772 78.7108C16.5638 78.6641 16.7524 78.6288 16.9326 78.5739C17.111 78.5139 17.2879 78.4546 17.463 78.3958C17.5506 78.3664 17.6378 78.3372 17.7246 78.3081C17.8079 78.2716 17.8909 78.2354 17.9735 78.1993C18.1383 78.1265 18.3015 78.0544 18.4629 77.983C18.6262 77.9148 18.7705 77.8178 18.9228 77.7381C19.072 77.6534 19.2229 77.5742 19.3661 77.4876C19.5036 77.3933 19.6395 77.3 19.7738 77.2078C20.8435 76.462 21.6287 75.5835 22.1728 74.7427C22.7124 73.8983 23.0545 73.1019 23.2209 72.4279C23.2634 72.2597 23.3248 72.1049 23.3444 71.9522C23.3704 71.8009 23.3947 71.6593 23.4174 71.5277C23.4386 71.396 23.4644 71.275 23.4771 71.1633C23.4842 71.0513 23.4907 70.9496 23.4965 70.8584C23.5088 70.6787 23.5182 70.5409 23.5248 70.4443C23.5319 70.351 23.5384 70.3031 23.5384 70.3031C23.5384 70.3031 23.5396 70.351 23.5364 70.4445C23.5324 70.5414 23.5267 70.6796 23.5192 70.8597C23.515 70.9513 23.5103 71.0534 23.5052 71.1658C23.4943 71.278 23.4701 71.3996 23.4506 71.532C23.4295 71.6644 23.4068 71.8068 23.3825 71.959C23.3645 72.1125 23.3046 72.2684 23.2635 72.4378C23.1028 73.1164 22.7651 73.9196 22.227 74.7724C21.6844 75.6217 20.8978 76.5104 19.8222 77.2663C19.6871 77.3597 19.5504 77.4542 19.4121 77.5498C19.268 77.6377 19.1161 77.718 18.9659 77.804C18.8126 77.885 18.6673 77.9831 18.5028 78.0526C18.3401 78.125 18.1757 78.1983 18.0096 78.2723C17.9264 78.3089 17.8428 78.3457 17.7587 78.3827C17.6713 78.4124 17.5834 78.4421 17.4951 78.4721C17.3184 78.5319 17.1401 78.5923 16.96 78.6532C16.7783 78.7092 16.588 78.7454 16.3998 78.793C16.2096 78.8332 16.0224 78.8953 15.824 78.9146C15.4307 78.9671 15.033 79.0425 14.6208 79.0457C14.4156 79.0527 14.2087 79.0714 14.0003 79.0689C13.7918 79.0595 13.5818 79.0499 13.3702 79.0403C13.2646 79.0337 13.1578 79.0344 13.052 79.0219C12.9465 79.0071 12.8407 78.9924 12.7344 78.9775C12.5224 78.9456 12.3068 78.923 12.0935 78.8827C11.6729 78.7784 11.2373 78.7001 10.8228 78.5416C10.3953 78.4161 9.99302 78.2225 9.57971 78.0404C9.3784 77.9401 9.18528 77.8234 8.98598 77.7148C8.88843 77.6574 8.78429 77.6085 8.69139 77.5437L8.41062 77.3506C8.02312 77.106 7.68384 76.8004 7.32902 76.5055C7.16817 76.3427 7.00656 76.179 6.84417 76.0146L6.72229 75.8911L6.61273 75.7578L6.39434 75.4891L6.17506 75.2191L5.98294 74.9304L5.79116 74.6398L5.69497 74.4941L5.61349 74.3406C5.50593 74.135 5.39796 73.9287 5.28957 73.7216C5.2036 73.5057 5.1173 73.289 5.03068 73.0715C4.71957 72.1903 4.5525 71.2541 4.53906 70.3018C4.55261 69.3498 4.72016 68.414 5.03135 67.5332C5.11797 67.3157 5.20429 67.0991 5.29031 66.8833C5.39867 66.6762 5.5066 66.4699 5.61412 66.2645L5.69573 66.1111L5.79187 65.9653L5.98361 65.6748L6.17577 65.3863L6.39499 65.1164L6.61334 64.8477L6.72293 64.7145L6.8448 64.591C7.00715 64.4267 7.16873 64.2631 7.32954 64.1003C7.68436 63.8055 8.02355 63.4999 8.41099 63.2554L8.69171 63.0624C8.78464 62.9977 8.88871 62.9487 8.98628 62.8913C9.18553 62.7827 9.37861 62.666 9.5799 62.5658C9.99315 62.3837 10.3954 62.1901 10.8228 62.0647C11.2372 61.9062 11.6728 61.8279 12.0933 61.7236C12.3065 61.6833 12.5222 61.6607 12.7341 61.6288C12.8404 61.6139 12.9462 61.5992 13.0517 61.5845C13.1574 61.5718 13.2642 61.5726 13.3698 61.566C13.5814 61.5564 13.7914 61.5468 13.9999 61.5373C14.2083 61.5348 14.4151 61.5536 14.6203 61.5606C15.0325 61.5637 15.4302 61.6391 15.8235 61.6916C16.0218 61.7109 16.209 61.7728 16.3992 61.8131C16.5874 61.8607 16.7777 61.897 16.9594 61.9529C17.1395 62.0138 17.3178 62.0742 17.4945 62.134L17.7581 62.2233C17.8421 62.2603 17.9258 62.2971 18.009 62.3337C18.1751 62.4077 18.3395 62.4809 18.5022 62.5534C18.6667 62.6228 18.812 62.721 18.9653 62.802C19.1155 62.8879 19.2674 62.9683 19.4115 63.0561C19.5498 63.1517 19.6865 63.2462 19.8216 63.3396C20.8973 64.0954 21.684 64.9841 22.2266 65.8333C22.7649 66.6862 23.1026 67.4895 23.2634 68.1682C23.3045 68.3375 23.3644 68.4935 23.3824 68.647C23.4067 68.7992 23.4294 68.9417 23.4506 69.0741C23.4701 69.2065 23.4942 69.3281 23.5052 69.4403C23.5103 69.5527 23.515 69.6548 23.5192 69.7465C23.5267 69.9266 23.5324 70.0648 23.5364 70.1618C23.5396 70.2553 23.5384 70.3031 23.5384 70.3031Z" fill="#263238"/>
</g>
<g id="Group_19">
<path id="Vector_89" d="M4.70672 11.3243C4.70672 11.3243 2.26868 13.4095 2.051 15.4546C1.8333 17.4997 1.39795 22.9934 1.22379 23.4345C1.04965 23.8756 -0.0822903 26.7627 0.00476723 27.2039L0.178927 27.7653L2.94791e-07 29.6552H11.0195L11.8032 26.5623C11.8032 26.5623 11.9624 21.3334 12.093 20.5314C12.2236 19.7294 11.8543 16.0055 11.6801 14.5619C11.506 13.1183 8.15064 11.1238 7.62594 10.9634C7.10123 10.803 5.13965 10.9184 4.70672 11.3243Z" fill="#90CAF9"/>
<path id="Vector_90" d="M16.2211 28.8799L14.9503 27.8777L13.4492 29.5877L14.9655 30.5251L16.2211 28.8799Z" fill="#FFBF9D"/>
<path id="Vector_91" d="M14.7852 29.823L16.3824 30.7926C16.3824 30.7926 17.281 30.4031 17.5982 30.9143C17.9154 31.4256 17.4661 31.7907 17.4661 31.7907C17.4661 31.7907 16.7789 31.6933 16.6996 31.7907C16.6203 31.8881 16.5674 32.2046 16.9903 32.3019C17.4132 32.3993 18.1004 32.3019 18.1004 32.3019C18.1004 32.3019 19.1576 32.0342 19.2369 31.8151C19.3162 31.596 20.0299 31.4201 20.0827 31.2159C20.1356 31.0117 20.0827 30.6222 20.0827 30.6222C20.0827 30.6222 19.5277 29.5997 19.3955 29.4536C19.2633 29.3076 16.1445 28.8694 16.1445 28.8694L14.7852 29.823Z" fill="#FFBF9D"/>
<path id="Vector_92" d="M14.6133 29.9802C14.6133 29.9802 15.3418 31.1223 15.5588 31.4221C15.7758 31.7219 16.686 32.0645 16.8741 32.2644C17.0622 32.4642 17.5272 33.0924 17.8062 33.0353C18.0852 32.9782 18.2851 32.5676 18.0999 32.3018C17.9147 32.036 17.0312 31.6505 17.0002 31.365C16.9692 31.0795 16.9227 30.5798 16.9227 30.4941C16.9227 30.4085 14.9987 29.6726 14.9987 29.6726L14.6133 29.9802Z" fill="#FFBF9D"/>
<path id="Vector_93" d="M17.2149 31.9745C17.6248 31.9745 17.9571 31.6684 17.9571 31.2908C17.9571 30.9133 17.6248 30.6072 17.2149 30.6072C16.805 30.6072 16.4727 30.9133 16.4727 31.2908C16.4727 31.6684 16.805 31.9745 17.2149 31.9745Z" fill="#263238"/>
<g id="Group_20" opacity="0.3">
<path id="Vector_94" d="M4.40249 15.5754C4.40249 15.5754 3.84454 24.0946 4.92005 25.6796C5.99553 27.2646 11.1091 29.2964 11.1091 29.2964L11.7357 27.0664L4.40249 15.5754Z" fill="black"/>
</g>
<g id="Group_21">
<path id="Vector_95" d="M4.40234 15.3024C4.40234 15.3024 4.88206 23.5652 5.40978 24.714C5.93748 25.8629 14.2891 30.9036 14.2891 30.9036L16.4945 28.5189L15.3564 27.4359C13.7891 25.7804 10.4695 22.2526 10.5429 22.1512C10.6388 22.0187 10.3211 15.2019 9.51794 13.8763C8.71474 12.5507 4.88206 12.0326 4.40234 15.3024Z" fill="#90CAF9"/>
<path id="Vector_96" d="M4.4029 15.3023C4.4029 15.3023 4.40636 15.2625 4.41882 15.1845C4.43085 15.1065 4.44817 14.9898 4.49006 14.8408C4.5712 14.5469 4.71508 14.0934 5.13061 13.6413C5.33886 13.4189 5.62209 13.2099 5.97479 13.0578C6.32766 12.9078 6.74944 12.8189 7.20339 12.8211C7.65608 12.8238 8.14483 12.9069 8.61129 13.1121C8.84309 13.2151 9.07212 13.3463 9.26772 13.5244C9.46652 13.6986 9.61788 13.9319 9.70398 14.1825C9.88479 14.6821 9.98977 15.2224 10.0872 15.7848C10.1816 16.348 10.2588 16.9363 10.3252 17.5465C10.4563 18.7671 10.5583 20.0742 10.6054 21.4533C10.6096 21.6259 10.6142 21.7992 10.6112 21.9753C10.6103 22.0194 10.6092 22.0636 10.6047 22.1101C10.6069 22.1192 10.583 22.2084 10.5954 22.1525C10.6008 22.1645 10.613 22.1839 10.6249 22.2009C10.6744 22.2715 10.7322 22.3418 10.7897 22.4114C11.0222 22.6895 11.2696 22.9643 11.5194 23.2415C12.0204 23.7952 12.5393 24.3553 13.0693 24.9241C13.6015 25.4912 14.1431 26.0684 14.6927 26.6541C14.9711 26.943 15.2401 27.2477 15.5329 27.5287C15.8291 27.8105 16.1272 28.0942 16.4271 28.3795L16.5356 28.4827L16.5712 28.5167L16.538 28.5526C15.7825 29.3693 15.0402 30.1716 14.3322 30.9369L14.3001 30.9717L14.259 30.9466C11.7281 29.3998 9.36943 27.9078 7.32809 26.4485C6.82094 26.08 6.33303 25.7138 5.89146 25.323C5.78219 25.224 5.67645 25.123 5.57749 25.0165C5.52901 24.9624 5.48356 24.9054 5.43913 24.8481C5.40049 24.785 5.35888 24.7227 5.34319 24.6549C5.29692 24.5225 5.25442 24.3908 5.23123 24.2588C5.20375 24.1271 5.17062 23.9971 5.15213 23.8669C4.97715 22.828 4.88458 21.8582 4.79813 20.9761C4.6339 19.2111 4.5419 17.7921 4.4799 16.8152C4.45235 16.3296 4.43094 15.9524 4.4162 15.6925C4.41074 15.5672 4.40654 15.4708 4.4035 15.4015C4.40131 15.3357 4.4029 15.3023 4.4029 15.3023C4.4029 15.3023 4.4084 15.3359 4.41401 15.4009L4.43696 15.6914C4.45621 15.951 4.48417 16.3278 4.52014 16.8129C4.59463 17.7888 4.69807 19.207 4.87206 20.97C4.96332 21.8507 5.06061 22.8204 5.23882 23.8536C5.25778 23.9835 5.29103 24.1112 5.31864 24.2414C5.34235 24.3734 5.38409 24.4994 5.4283 24.6255C5.46269 24.7557 5.55649 24.8547 5.64816 24.9618C5.74454 25.0648 5.84868 25.1637 5.95686 25.2611C6.39469 25.6463 6.88242 26.0106 7.38905 26.3767C9.42957 27.828 11.7907 29.3167 14.3203 30.8605L14.2472 30.8702C14.9549 30.1047 15.6969 29.3021 16.4521 28.4852L16.4545 28.555L16.3458 28.4516C16.0454 28.1658 15.7468 27.8815 15.4501 27.5992C15.153 27.3136 14.8873 27.012 14.6079 26.7219C14.0586 26.1357 13.5173 25.558 12.9854 24.9904C12.4558 24.4209 11.9373 23.8601 11.4365 23.305C11.1866 23.0269 10.9397 22.7518 10.7054 22.4706C10.6471 22.3997 10.5895 22.3296 10.5357 22.2528C10.5223 22.2328 10.5093 22.2148 10.4965 22.1862C10.4954 22.1719 10.4848 22.1783 10.4939 22.1361C10.5151 22.1219 10.5083 22.1329 10.4987 22.122L10.498 22.1192C10.4974 22.1172 10.4996 22.1131 10.5 22.1001C10.504 22.0595 10.5052 22.0164 10.5062 21.9733C10.5095 21.8007 10.5053 21.6274 10.5014 21.4557C10.4574 20.0803 10.3589 18.7735 10.232 17.555C10.1678 16.9457 10.0929 16.3585 10.0011 15.7969C9.90655 15.2367 9.80365 14.6973 9.62856 14.2065C9.47222 13.7043 9.03006 13.3693 8.58012 13.1717C8.12608 12.969 7.6468 12.8845 7.203 12.8792C6.7578 12.8744 6.34399 12.9586 5.99715 13.1028C5.65052 13.2492 5.37089 13.4514 5.16363 13.6679C4.75 14.1082 4.59966 14.5552 4.5121 14.846C4.46683 14.9935 4.44607 15.1084 4.43029 15.1856C4.4141 15.2628 4.4029 15.3023 4.4029 15.3023Z" fill="#263238"/>
</g>
<path id="Vector_97" d="M11.1595 12.3159C10.9043 11.8963 10.507 11.5679 10.1107 11.2548C9.20818 10.5418 8.2621 9.85893 7.18956 9.38612C6.66695 9.15575 6.09376 8.97412 5.5178 9.03214C4.77011 9.10748 4.1404 9.57047 3.60444 10.0565C3.35996 10.2782 3.11954 10.5165 2.99263 10.8101C2.8657 11.1037 2.87411 11.4664 3.09668 11.7069C3.33681 11.9664 3.75502 12.0187 4.121 11.9674C4.48696 11.9162 4.83502 11.7815 5.20188 11.736L11.2729 13.6976C11.5075 13.268 11.4148 12.7354 11.1595 12.3159Z" fill="#90CAF9"/>
<path id="Vector_98" d="M11.345 13.7861C11.3364 13.7922 11.2584 13.701 11.0989 13.552C10.942 13.4009 10.7036 13.1918 10.3947 12.9487C10.086 12.7056 9.70746 12.4273 9.2679 12.1436C8.82706 11.8643 8.33036 11.5623 7.763 11.3445C7.20214 11.1049 6.59616 11.1309 6.07115 11.1918C5.54295 11.2613 5.08413 11.4091 4.72478 11.5765C4.36509 11.7452 4.10664 11.9353 3.94447 12.0797C3.78015 12.2227 3.70051 12.3136 3.69175 12.3069C3.68867 12.3047 3.70627 12.2805 3.74283 12.2364C3.78119 12.1938 3.83037 12.124 3.91352 12.051C4.0685 11.8956 4.32471 11.6923 4.68755 11.5114C5.05 11.3319 5.5166 11.1733 6.05594 11.097C6.32535 11.0599 6.61207 11.0411 6.90948 11.0542C7.20704 11.0583 7.51851 11.1358 7.806 11.2484C8.38835 11.4722 8.88619 11.7793 9.32798 12.0654C9.76777 12.3557 10.1435 12.6417 10.4474 12.8935C10.7515 13.1453 10.9831 13.3639 11.1313 13.5247C11.2077 13.6032 11.2606 13.6693 11.2958 13.7144C11.3311 13.7594 11.3481 13.7839 11.345 13.7861Z" fill="#263238"/>
</g>
<g id="Group_22">
<path id="Vector_99" d="M11.3395 43.1854C11.3395 43.1854 9.76953 46.6016 9.76953 49.287C9.76953 51.9724 10.5545 57.8941 10.5545 57.8941L12.1618 59.7532L15.0026 58.3761C15.0026 58.3761 13.6569 56.7924 13.8812 54.1758C14.1055 51.5593 16.6706 44.17 16.4977 43.1854C16.3249 42.2009 15.7129 41.0039 15.7129 41.0039L11.3395 43.1854Z" fill="#263238"/>
<path id="Vector_100" d="M0.0234375 29.5254C0.0234375 29.5254 0.0950852 31.4939 0.998798 33.353C1.90249 35.2121 7.43818 45.8227 7.43818 45.8227L16.4986 42.5393L10.3117 29.5254H0.0234375Z" fill="#455A64"/>
<g id="Group_23">
<path id="Vector_101" d="M19.0182 60.4105C19.0182 60.4105 17.6525 60.9107 16.4338 60.921C15.215 60.9312 13.3903 60.6934 12.7197 60.6132C12.0491 60.5329 10.1598 60.909 9.96235 60.3043C9.76488 59.6996 10.5273 57.3395 10.5273 57.3395C10.5273 57.3395 11.1331 57.9698 11.7954 57.8886C12.4577 57.8075 13.7169 57.3768 13.7169 57.3768C13.7169 57.3768 14.1951 56.5279 14.5742 56.4639C14.9532 56.3998 14.9275 57.4097 14.9275 57.4097C14.9275 57.4097 15.9821 58.5297 16.6487 58.7339C17.3153 58.938 17.3576 59.1167 18.1059 59.07C18.8541 59.0233 19.2374 59.2446 19.2374 59.2446C19.2374 59.2446 19.6371 59.7778 19.4826 59.9953C19.3281 60.2128 19.0182 60.4105 19.0182 60.4105Z" fill="#263238"/>
<path id="Vector_102" d="M19.4916 59.9827C19.3594 60.2235 19.0223 60.4194 19.0223 60.4194C19.0223 60.4194 17.6566 60.9197 16.4378 60.9299C15.2191 60.9401 13.3943 60.7024 12.7237 60.6221C12.0531 60.5418 10.1638 60.9179 9.96634 60.3132C9.91045 60.148 9.90323 59.9743 9.94345 59.7924C9.94345 59.7924 11.9279 60.107 12.8614 60.0116C13.7949 59.9161 15.8482 60.3489 16.9035 60.2504C17.9588 60.1519 19.1238 59.813 19.1238 59.813L19.4531 59.6108C19.5088 59.749 19.5714 59.8425 19.4916 59.9827Z" fill="#E0E0E0"/>
<path id="Vector_103" d="M16.3946 58.5855C16.3759 58.5861 16.382 58.7441 16.2979 58.9154C16.2171 59.0882 16.0863 59.1905 16.0984 59.2035C16.1053 59.217 16.2659 59.1267 16.3548 58.9385C16.4458 58.7513 16.4099 58.5812 16.3946 58.5855Z" fill="white"/>
<path id="Vector_104" d="M15.7351 58.1407C15.7162 58.1394 15.7093 58.3294 15.589 58.5266C15.4724 58.7257 15.3017 58.8327 15.313 58.8467C15.318 58.8607 15.5172 58.7682 15.6435 58.5542C15.7723 58.3416 15.7505 58.1371 15.7351 58.1407Z" fill="white"/>
<path id="Vector_105" d="M15.257 57.7029C15.2403 57.6962 15.1655 57.8333 15.0414 57.9809C14.9186 58.1294 14.7941 58.2313 14.8054 58.2444C14.8145 58.2567 14.9619 58.1712 15.0907 58.0158C15.2205 57.8611 15.2722 57.7078 15.257 57.7029Z" fill="white"/>
<path id="Vector_106" d="M11.7305 59.3085C11.7302 59.3162 11.8273 59.3267 11.9849 59.3328C12.1425 59.339 12.3606 59.3398 12.6011 59.3288C12.8416 59.3177 13.0586 59.2968 13.2147 59.2762C13.3709 59.2556 13.4663 59.2362 13.4652 59.2286C13.4628 59.2122 13.0763 59.2501 12.598 59.2716C12.1199 59.2942 11.7311 59.2919 11.7305 59.3085Z" fill="white"/>
</g>
<path id="Vector_107" d="M10.7427 30.4585C10.7462 30.457 10.7694 30.4941 10.8104 30.5662C10.8557 30.6487 10.9134 30.7539 10.9847 30.8837C11.1337 31.1605 11.3455 31.5628 11.6022 32.0619C12.1167 33.0598 12.8115 34.4452 13.56 35.9832C14.3082 37.5218 14.9683 38.9217 15.4343 39.9396C15.6679 40.4483 15.8529 40.8616 15.9779 41.1482L16.1191 41.4794C16.1503 41.5555 16.1649 41.5962 16.1613 41.5975C16.1577 41.599 16.1361 41.561 16.0982 41.4875C16.0564 41.4035 16.0032 41.2963 15.9375 41.1641C15.7955 40.8696 15.6 40.4643 15.3611 39.9688C14.8685 38.9488 14.198 37.5603 13.457 36.0257C12.7071 34.4954 12.0283 33.1103 11.5298 32.0929C11.2873 31.5988 11.089 31.1946 10.945 30.901C10.8815 30.7678 10.8301 30.6598 10.7898 30.5752C10.7555 30.5002 10.7391 30.4601 10.7427 30.4585Z" fill="#263238"/>
</g>
</g>
</g>
</svg>
