<svg width="22" height="22" viewBox="0 0 22 22" fill="none" xmlns="http://www.w3.org/2000/svg">
<g id="Book">
<g id="Book-notebook">
<path id="Vector" d="M20.9688 5.15625H1.03125V18.9062H20.9688V5.15625Z" fill="#007579"/>
<path id="Vector_2" d="M11 18.9062C11 18.5416 10.8551 18.1918 10.5973 17.934C10.3394 17.6761 9.98967 17.5312 9.625 17.5312H2.40625V3.78125H6.1875V16.1562H8.25C8.97935 16.1562 9.67882 16.446 10.1945 16.9617C10.7103 17.4774 11 18.1769 11 18.9062Z" fill="#4058A6"/>
<path id="Vector_3" d="M19.5938 3.78125V17.5312H12.375C12.0103 17.5312 11.6606 17.6761 11.4027 17.934C11.1449 18.1918 11 18.5416 11 18.9062V5.15625C11 4.79158 11.1449 4.44184 11.4027 4.18398C11.6606 3.92612 12.0103 3.78125 12.375 3.78125H19.5938Z" fill="white"/>
<path id="Vector_4" d="M11 5.15625V18.9062C11 18.1769 10.7103 17.4774 10.1945 16.9617C9.67882 16.446 8.97935 16.1562 8.25 16.1562H6.1875V2.40625H8.25C8.97935 2.40625 9.67882 2.69598 10.1945 3.21171C10.7103 3.72743 11 4.4269 11 5.15625Z" fill="#FEC632"/>
<path id="Vector_5" d="M5.84375 17.5312V20.2812L4.8125 19.25L3.78125 20.2812V17.5312H5.84375Z" fill="#006DF0"/>
<path id="Vector_6" d="M18.2188 17.5312H16.1562V20.2812H18.2188V17.5312Z" fill="#46F8FF"/>
<path id="Vector_7" d="M18.2188 3.78125V8.9375L16.5 7.5625L14.7812 8.9375V3.78125H18.2188Z" fill="#F3AF3E"/>
<path id="Vector_8" d="M18.2188 17.5312H16.1562V17.875H18.2188V17.5312Z" fill="#00D7DF"/>
<path id="Vector_9" d="M5.84375 17.5312H3.78125V17.875H5.84375V17.5312Z" fill="#005ECE"/>
</g>
</g>
</svg>
