<svg width="106" height="88" viewBox="0 0 106 88" fill="none" xmlns="http://www.w3.org/2000/svg">
<path d="M74.0087 26.0531C57.1518 9.07362 39.7349 55.1807 22.8725 38.2013C24.1792 30.9231 25.485 23.6448 26.7899 16.3666C43.6523 33.3459 61.0806 -12.7557 77.9233 4.2184C76.6203 11.4985 75.3154 18.7767 74.0087 26.0531Z" fill="#407BFF"/>
<path d="M28.3572 21.2883C27.5662 20.6673 26.8733 19.9278 26.3024 19.0953C26.4993 18.0027 26.5949 17.4565 26.7918 16.3667C27.3626 17.1992 28.0555 17.9387 28.8465 18.5597C28.6497 19.6523 28.5512 20.1958 28.3572 21.2883Z" fill="#407BFF"/>
<path d="M32.9241 23.1201C32.1153 23.0944 31.3179 22.9182 30.572 22.6002C30.7661 21.5077 30.8645 20.9614 31.0613 19.8688C31.8068 20.188 32.6044 20.3643 33.4134 20.3886C33.2194 21.4812 33.121 22.0275 32.9241 23.1201Z" fill="#407BFF"/>
<path d="M37.9828 22.2006C37.1519 22.5461 36.2861 22.7986 35.401 22.9535C35.595 21.8638 35.6935 21.3175 35.8903 20.2249C36.7755 20.069 37.6412 19.8155 38.472 19.4691C38.278 20.5616 38.1796 21.1079 37.9828 22.2006Z" fill="#407BFF"/>
<path d="M43.4001 19.313C42.5142 19.9055 41.5995 20.4528 40.6595 20.9526C40.8535 19.8629 40.9519 19.3166 41.1488 18.224C42.2312 17.6311 42.7816 17.306 43.8895 16.5843C43.6983 17.6768 43.597 18.2232 43.4001 19.313Z" fill="#407BFF"/>
<path d="M49.024 15.2501C47.8856 16.1291 47.3205 16.5599 46.195 17.3817C46.389 16.2891 46.4874 15.7428 46.6843 14.6502C47.8098 13.8313 48.375 13.4004 49.5133 12.5214C49.3165 13.6141 49.218 14.1575 49.024 15.2501Z" fill="#407BFF"/>
<path d="M54.7175 10.7923C53.582 11.6712 53.0117 12.125 51.8708 13.0211C52.0677 11.9285 52.1662 11.385 52.3602 10.2925C53.5009 9.39348 54.0713 8.94256 55.2068 8.06363C55.0128 9.15618 54.9142 9.6911 54.7175 10.7923Z" fill="#407BFF"/>
<path d="M60.3518 6.72625C59.2411 7.44794 58.6865 7.84154 57.5581 8.66048C57.7521 7.56793 57.8506 7.02162 58.0474 5.92901C59.1729 5.11012 59.7332 4.71641 60.8411 3.99763C60.633 5.09048 60.5374 5.63672 60.3518 6.72625Z" fill="#407BFF"/>
<path d="M65.7539 3.84464C64.8338 4.19215 63.9404 4.60829 63.081 5.08963C63.2779 3.99702 63.3764 3.45356 63.5704 2.361C64.4297 1.87879 65.3231 1.4617 66.2432 1.11317C66.0464 2.20578 65.948 2.75209 65.7539 3.84464Z" fill="#407BFF"/>
<path d="M70.8156 2.92507C69.986 2.85413 69.1505 2.90935 68.337 3.0889C68.5338 1.99629 68.6323 1.45283 68.8263 0.360275C69.6397 0.179867 70.4751 0.123687 71.3049 0.193601C71.1081 1.28621 71.0125 1.83246 70.8156 2.92507Z" fill="#407BFF"/>
<path d="M75.3825 4.75405C74.7309 4.18501 73.9815 3.74218 73.1716 3.44765C73.3657 2.3551 73.4641 1.80879 73.6609 0.71618C74.4714 1.01067 75.221 1.45457 75.8718 2.02543C75.6778 3.11798 75.5794 3.66429 75.3825 4.75405Z" fill="#407BFF"/>
<path d="M30.0845 25.3204C29.2729 25.0267 28.5222 24.5827 27.8708 24.0112C28.0648 22.9187 28.1633 22.3752 28.3601 21.2826C29.0116 21.8541 29.7622 22.298 30.5739 22.5918C30.3771 23.6872 30.2787 24.2335 30.0845 25.3204Z" fill="#407BFF"/>
<path d="M34.9123 25.6821C34.0991 25.864 33.2635 25.9202 32.4337 25.8488C32.6306 24.7562 32.729 24.2098 32.9231 23.1201C33.7528 23.1916 34.5885 23.1354 35.4016 22.9535C35.2048 24.0461 35.1148 24.5922 34.9123 25.6821Z" fill="#407BFF"/>
<path d="M40.1641 23.6814C39.3042 24.1616 38.4108 24.5777 37.4912 24.9264C37.688 23.8338 37.7865 23.2875 37.9805 22.1978C38.9007 21.8493 39.7941 21.4322 40.6534 20.95C40.4622 22.0453 40.3638 22.5916 40.1641 23.6814Z" fill="#407BFF"/>
<path d="M45.7151 20.1099C44.5895 20.9288 44.0293 21.3225 42.9214 22.0442C43.1182 20.9515 43.2167 20.4052 43.4107 19.3127C44.5214 18.5938 45.0761 18.2002 46.2072 17.3812L45.7151 20.1099Z" fill="#407BFF"/>
<path d="M51.3835 15.7498C50.2428 16.6488 49.6725 17.1025 48.5369 17.9786C48.7309 16.8889 48.8294 16.3426 49.0262 15.25C50.1617 14.3711 50.7321 13.9201 51.8729 13.0212C51.676 14.1138 51.5804 14.66 51.3835 15.7498Z" fill="#407BFF"/>
<path d="M57.0776 11.3919C55.9492 12.2108 55.3841 12.6445 54.2458 13.5235C54.4426 12.4309 54.541 11.8846 54.7351 10.792C55.8734 9.91304 56.4414 9.48212 57.5669 8.66323C57.356 9.7533 57.2575 10.2996 57.0776 11.3919Z" fill="#407BFF"/>
<path d="M62.5955 7.81832C61.5131 8.4112 60.9626 8.73632 59.8548 9.45795C60.0516 8.36534 60.1473 7.82194 60.3441 6.72933C61.4548 6.00764 62.0107 5.67385 63.0848 5.0897C62.8908 6.18226 62.7924 6.72856 62.5955 7.81832Z" fill="#407BFF"/>
<path d="M67.846 5.81758C66.9612 5.97519 66.0956 6.22859 65.2642 6.5734C65.4583 5.48085 65.5567 4.93454 65.7536 3.84477C66.5845 3.49872 67.4502 3.24529 68.3353 3.08895C68.1413 4.18151 68.0429 4.72781 67.846 5.81758Z" fill="#407BFF"/>
<path d="M72.6828 6.17919C71.9358 5.86161 71.1376 5.68543 70.3278 5.6594C70.5219 4.56685 70.6203 4.02054 70.8172 2.93078C71.6269 2.95681 72.4251 3.13298 73.1721 3.45056C72.9723 4.53754 72.8767 5.08379 72.6828 6.17919Z" fill="#407BFF"/>
<path d="M76.9471 9.67862C76.3769 8.84559 75.6839 8.106 74.8924 7.48562C75.0892 6.393 75.1876 5.8467 75.3816 4.75414C76.1732 5.37562 76.8662 6.11615 77.4364 6.94999C77.2424 8.0397 77.1439 8.586 76.9471 9.67862Z" fill="#407BFF"/>
<path d="M27.3806 26.7455C26.5884 26.1258 25.8954 25.3861 25.3259 24.5525C25.52 23.4628 25.6184 22.9165 25.8152 21.8238C26.3854 22.6569 27.0784 23.3965 27.87 24.0168C27.6731 25.1095 27.5748 25.6586 27.3806 26.7455Z" fill="#407BFF"/>
<path d="M31.9464 28.5774C31.1367 28.5514 30.3385 28.3752 29.5915 28.0576L30.0837 25.3289C30.8296 25.6469 31.6269 25.8231 32.4358 25.8488C32.2417 26.9413 32.1433 27.4876 31.9464 28.5774Z" fill="#407BFF"/>
<path d="M37.0061 27.6578C36.1748 28.0026 35.3092 28.256 34.4244 28.4136C34.6184 27.3211 34.7168 26.7748 34.9137 25.6821C35.7987 25.5269 36.6645 25.2744 37.4955 24.9292C37.3014 26.0217 37.203 26.5652 37.0061 27.6578Z" fill="#407BFF"/>
<path d="M42.4216 24.7732C41.311 25.4948 40.7551 25.8286 39.6809 26.4128C39.875 25.3202 39.9734 24.7739 40.1703 23.6842C41.2527 23.0913 41.8031 22.7662 42.911 22.0445C42.7141 23.1343 42.6185 23.6805 42.4216 24.7732Z" fill="#407BFF"/>
<path d="M48.0444 20.71C46.9061 21.589 46.3409 22.0199 45.2126 22.8388C45.4094 21.7462 45.5079 21.2027 45.7019 20.1102C46.8303 19.2912 47.3954 18.8575 48.5337 17.9785C48.3369 19.0712 48.2385 19.6175 48.0444 20.71Z" fill="#407BFF"/>
<path d="M53.7409 16.2525C52.6054 17.1314 52.035 17.5823 50.8943 18.4813C51.0911 17.3887 51.1867 16.8424 51.3836 15.7498C52.5244 14.8537 53.0947 14.3999 54.2303 13.5238C54.0474 14.6133 53.9378 15.1598 53.7409 16.2525Z" fill="#407BFF"/>
<path d="M59.3635 12.1866C58.2528 12.9083 57.6982 13.3019 56.5698 14.1208C56.7639 13.0311 56.8623 12.4848 57.0592 11.3922C58.1819 10.5734 58.7365 10.1798 59.8472 9.45807C59.656 10.5506 59.5604 11.0968 59.3635 12.1866Z" fill="#407BFF"/>
<path d="M64.7754 9.30199C63.8552 9.65053 62.9618 10.0676 62.1025 10.5498C62.2994 9.45722 62.3978 8.91091 62.5918 7.81836C63.4517 7.33819 64.3451 6.92209 65.2647 6.57337C65.0679 7.66599 64.9694 8.21229 64.7754 9.30199Z" fill="#407BFF"/>
<path d="M69.8351 8.38226C69.0054 8.31083 68.1697 8.36702 67.3566 8.54893C67.5534 7.45632 67.6518 6.91001 67.8458 5.81746C68.6593 5.63792 69.4948 5.58269 70.3245 5.65364C70.1276 6.74625 70.0292 7.29256 69.8351 8.38226Z" fill="#407BFF"/>
<path d="M74.4048 10.2142C73.7534 9.64268 73.0028 9.19874 72.1911 8.90501L72.6973 6.17603C73.5078 6.47052 74.2574 6.91442 74.9082 7.48527C74.7001 8.57528 74.6017 9.12158 74.4048 10.2142Z" fill="#407BFF"/>
<path d="M29.0993 30.7862C28.2894 30.4905 27.5401 30.0467 26.8884 29.4769C27.0825 28.3844 27.1809 27.8381 27.3777 26.7455C28.0286 27.3163 28.7781 27.7602 29.5886 28.0547C29.3946 29.1473 29.3102 29.6933 29.0993 30.7862Z" fill="#407BFF"/>
<path d="M33.9338 31.1422C33.1204 31.3226 32.285 31.3788 31.4552 31.3088C31.652 30.2162 31.7505 29.6699 31.9445 28.5774C32.7741 28.6483 33.6096 28.5931 34.4231 28.4135C34.2263 29.5062 34.1278 30.0496 33.9338 31.1422Z" fill="#407BFF"/>
<path d="M39.1875 29.1414C38.3287 29.6239 37.4352 30.04 36.5146 30.3863C36.7115 29.2966 36.8099 28.7503 37.0039 27.6577C37.9241 27.3102 38.8175 26.8941 39.6768 26.4127C39.48 27.5053 39.3815 28.0488 39.1875 29.1414Z" fill="#407BFF"/>
<path d="M44.7229 25.5789C43.5974 26.4006 43.0371 26.7915 41.9292 27.5131C42.1261 26.4234 42.2217 25.8771 42.4185 24.7845C43.5292 24.0628 44.0839 23.6692 45.2122 22.8503C45.018 23.9314 44.9195 24.4778 44.7229 25.5789Z" fill="#407BFF"/>
<path d="M50.403 21.2099C49.2623 22.1088 48.6919 22.5598 47.5564 23.4387C47.7504 22.3461 47.8488 21.7998 48.0457 20.7101C49.1813 19.8311 49.7516 19.3774 50.8924 18.4812C50.6955 19.571 50.5999 20.1172 50.403 21.2099Z" fill="#407BFF"/>
<path d="M56.0796 16.8523C54.9512 17.6713 54.3861 18.1022 53.2477 18.9811C53.4446 17.8885 53.5431 17.3451 53.7371 16.2525C54.8754 15.3735 55.4405 14.9398 56.5689 14.1209C56.372 15.2135 56.2736 15.7598 56.0796 16.8523Z" fill="#407BFF"/>
<path d="M61.6169 13.2784C60.5345 13.8713 59.9841 14.1964 58.8762 14.918C59.0703 13.8255 59.1687 13.2792 59.3655 12.1866C60.4762 11.4677 61.0321 11.1311 62.1063 10.5498C61.9122 11.6395 61.8138 12.1858 61.6169 13.2784Z" fill="#407BFF"/>
<path d="M66.8675 11.2777C65.9823 11.4336 65.1165 11.687 64.2857 12.0335C64.4798 10.9409 64.5782 10.3946 64.775 9.30201C65.606 8.95677 66.4717 8.70429 67.3568 8.54904C67.1655 9.63868 67.0643 10.1851 66.8675 11.2777Z" fill="#407BFF"/>
<path d="M71.7112 11.6334C70.9653 11.3154 70.168 11.1392 69.3591 11.1135C69.5532 10.0238 69.6516 9.47749 69.8484 8.38488C70.6573 8.41057 71.4546 8.58678 72.2005 8.90473C71.9953 9.99752 71.8968 10.5438 71.7112 11.6334Z" fill="#407BFF"/>
<path d="M75.9685 15.1357C75.3977 14.3032 74.7048 13.5637 73.9138 12.9427C74.1107 11.853 74.2091 11.3067 74.4031 10.2141C75.1941 10.8351 75.887 11.5746 76.4579 12.4071C76.2528 13.5113 76.1654 14.046 75.9685 15.1357Z" fill="#407BFF"/>
<path d="M26.4002 32.2056C25.6091 31.5845 24.9163 30.845 24.3454 30.0126C24.5394 28.92 24.6379 28.3737 24.8348 27.2839C25.4056 28.1164 26.0985 28.8559 26.8895 29.4769C26.6926 30.5667 26.5942 31.113 26.4002 32.2056Z" fill="#407BFF"/>
<path d="M30.966 34.0375C30.1562 34.0114 29.358 33.8353 28.611 33.5177C28.8079 32.4251 28.9063 31.8788 29.1004 30.7891C29.8478 31.1054 30.6457 31.2815 31.4553 31.3088C31.2584 32.3986 31.1628 32.9449 30.966 34.0375Z" fill="#407BFF"/>
<path d="M36.0277 33.1178C35.1967 33.463 34.3309 33.7155 33.4459 33.8708C33.64 32.7811 33.7384 32.2348 33.9352 31.1421C34.8203 30.9858 35.686 30.7324 36.517 30.3863C36.3229 31.4789 36.2246 32.028 36.0277 33.1178Z" fill="#407BFF"/>
<path d="M41.4412 30.2333C40.3305 30.9521 39.7747 31.2888 38.7005 31.8701C38.8946 30.7804 38.993 30.2341 39.1898 29.1414C40.2722 28.5486 40.8226 28.2234 41.9305 27.5018C41.7337 28.5944 41.6381 29.1407 41.4412 30.2333Z" fill="#407BFF"/>
<path d="M47.0639 26.1674C45.9255 27.0464 45.3576 27.4801 44.2321 28.299C44.4289 27.2064 44.5274 26.6601 44.7214 25.5675C45.8469 24.7487 46.4149 24.3177 47.5532 23.4387C47.3564 24.5314 47.2579 25.0748 47.0639 26.1674Z" fill="#407BFF"/>
<path d="M52.7605 21.704C51.6249 22.5829 51.0546 23.0367 49.9138 23.9328C50.1079 22.8431 50.2063 22.2968 50.4031 21.2042C51.5439 20.3052 52.1143 19.8543 53.2498 18.9754C53.0559 20.0736 52.9575 20.6199 52.7605 21.704Z" fill="#407BFF"/>
<path d="M58.3839 17.6466C57.2732 18.3683 56.7186 18.7619 55.5874 19.5809L56.0796 16.8522C57.205 16.0305 57.7654 15.6396 58.8732 14.918C58.6763 16.0077 58.5864 16.5539 58.3839 17.6466Z" fill="#407BFF"/>
<path d="M63.7968 14.7621C62.8767 15.1096 61.9833 15.5257 61.124 16.0071C61.3208 14.9145 61.4193 14.371 61.6133 13.2784C62.472 12.7959 63.3656 12.3798 64.2862 12.0335C64.0893 13.1232 63.9909 13.6695 63.7968 14.7621Z" fill="#407BFF"/>
<path d="M68.8567 13.8424C68.027 13.7713 67.1915 13.8266 66.378 14.0062C66.5749 12.9164 66.6705 12.3702 66.8674 11.2776C67.6807 11.0971 68.5162 11.0409 69.3459 11.1109C69.1491 12.2035 69.0507 12.7498 68.8567 13.8424Z" fill="#407BFF"/>
<path d="M73.4264 15.6742C72.7746 15.1033 72.024 14.6594 71.2127 14.365C71.4095 13.2724 71.5079 12.7261 71.7019 11.6335C72.5131 11.9284 73.2636 12.3722 73.9157 12.9427C73.7329 14.035 73.6232 14.5816 73.4264 15.6742Z" fill="#407BFF"/>
<path d="M28.1197 36.2435C27.3086 35.9484 26.5582 35.5046 25.906 34.9343L26.3981 32.2056C27.0489 32.7765 27.7985 33.2204 28.609 33.5149C28.4149 34.6046 28.3165 35.1509 28.1197 36.2435Z" fill="#407BFF"/>
<path d="M32.9553 36.6023C32.1418 36.7818 31.3063 36.8371 30.4767 36.7661C30.6735 35.6735 30.7691 35.1273 30.966 34.0375C31.7958 34.1088 32.6314 34.0526 33.4446 33.8708C33.2478 34.9634 33.1494 35.5126 32.9553 36.6023Z" fill="#407BFF"/>
<path d="M38.2062 34.6015C37.3475 35.0822 36.4551 35.4983 35.5361 35.8465C35.733 34.7538 35.8286 34.2076 36.0255 33.1178C36.9456 32.7693 37.839 32.3522 38.6983 31.87L38.2062 34.6015Z" fill="#407BFF"/>
<path d="M43.7424 31.0276C42.6169 31.8465 42.0566 32.2402 40.9487 32.9619C41.1428 31.8693 41.2412 31.323 41.4381 30.2333C42.5487 29.5116 43.1034 29.118 44.2318 28.299C44.0377 29.3887 43.9477 29.9349 43.7424 31.0276Z" fill="#407BFF"/>
<path d="M49.4235 26.67C48.2827 27.5662 47.7124 28.0199 46.574 28.8961L47.0661 26.1674C48.2017 25.2885 48.772 24.8376 49.9128 23.9386C49.7159 25.0312 49.6175 25.5775 49.4235 26.67Z" fill="#407BFF"/>
<path d="M55.0982 22.3095C53.9727 23.1284 53.4048 23.5622 52.2692 24.4411C52.4661 23.3485 52.5645 22.8022 52.7585 21.7096C53.8969 20.8306 54.462 20.3998 55.5875 19.5809C55.3935 20.6734 55.3063 21.2167 55.0982 22.3095Z" fill="#407BFF"/>
<path d="M60.6384 18.7357C59.556 19.3286 59.0056 19.6537 57.8977 20.3753C58.0918 19.2856 58.1902 18.7393 58.3871 17.6467C59.4977 16.925 60.0536 16.5912 61.1278 16.0071C60.9309 17.0997 60.8353 17.6459 60.6384 18.7357Z" fill="#407BFF"/>
<path d="M65.8899 16.7377C65.0038 16.8926 64.1371 17.1451 63.3053 17.4908L63.7974 14.7621C64.6287 14.4169 65.4942 14.1635 66.3791 14.0063C66.1823 15.0989 66.0867 15.6451 65.8899 16.7377Z" fill="#407BFF"/>
<path d="M70.721 17.0937C69.9751 16.7757 69.1778 16.5995 68.3689 16.5738C68.5629 15.4813 68.6613 14.935 68.8582 13.8452C69.6671 13.8709 70.4644 14.0471 71.2103 14.3651C71.0162 15.4548 70.9178 16.0011 70.721 17.0937Z" fill="#407BFF"/>
<path d="M74.99 20.5958C74.4198 19.7628 73.7268 19.0232 72.9353 18.4028C73.1321 17.3102 73.2277 16.764 73.4246 15.6742C74.2168 16.2939 74.9099 17.0336 75.4794 17.8672C75.2794 18.9456 75.1843 19.5175 74.99 20.5958Z" fill="#407BFF"/>
<path d="M25.4188 37.6714C24.6282 37.0508 23.9362 36.3112 23.3669 35.4784C23.561 34.3887 23.6594 33.8424 23.8562 32.7497C24.4262 33.5821 25.1182 34.3216 25.9082 34.9428C25.714 36.0268 25.6156 36.5731 25.4188 37.6714Z" fill="#407BFF"/>
<path d="M29.9894 39.4947C29.1796 39.4687 28.3815 39.2925 27.6345 38.975C27.8314 37.8852 27.9298 37.3389 28.1238 36.2463C28.8708 36.5639 29.669 36.7401 30.4787 36.7661C30.2818 37.853 30.1863 38.405 29.9894 39.4947Z" fill="#407BFF"/>
<path d="M35.048 38.5751C34.2162 38.9216 33.3496 39.175 32.4635 39.331L32.9556 36.6023C33.8404 36.4447 34.706 36.1913 35.5373 35.8465C35.3405 36.9391 35.2449 37.4853 35.048 38.5751Z" fill="#407BFF"/>
<path d="M40.4615 35.6905C39.3509 36.4121 38.795 36.7459 37.718 37.3301C37.9149 36.2375 38.0133 35.6912 38.2074 34.6015C39.2926 34.0086 39.843 33.6835 40.9509 32.9618C40.754 34.0544 40.6696 34.5976 40.4615 35.6905Z" fill="#407BFF"/>
<path d="M46.0865 31.6276C44.951 32.5065 44.383 32.9374 43.2575 33.7563C43.4544 32.6665 43.5528 32.1202 43.7468 31.0277C44.8724 30.2088 45.4403 29.775 46.5758 28.8961C46.3818 29.9886 46.2834 30.5349 46.0865 31.6276Z" fill="#407BFF"/>
<path d="M51.7741 27.1699C50.6386 28.0489 50.0654 28.4998 48.9275 29.3988C49.1215 28.3062 49.2199 27.7599 49.4168 26.6701C50.5576 25.7712 51.1279 25.3174 52.2635 24.4413C52.075 25.5309 51.9794 26.0771 51.7741 27.1699Z" fill="#407BFF"/>
<path d="M57.4054 23.1067C56.2947 23.8256 55.7401 24.2192 54.6089 25.0382C54.8058 23.9484 54.9042 23.4021 55.0982 22.3095C56.2266 21.4906 56.7841 21.0969 57.8947 20.3753C57.6979 21.4679 57.5995 22.0142 57.4054 23.1067Z" fill="#407BFF"/>
<path d="M62.8155 20.2193C61.8963 20.5678 61.0038 20.9849 60.1455 21.4671C60.3423 20.3745 60.4379 19.8282 60.6348 18.7356C61.4937 18.2555 62.3861 17.8394 63.3049 17.4907C63.1108 18.5832 63.0124 19.1295 62.8155 20.2193Z" fill="#407BFF"/>
<path d="M67.8753 19.2997C67.0465 19.2283 66.2117 19.2844 65.3995 19.4663C65.5964 18.3737 65.692 17.8274 65.8889 16.7377C66.702 16.5557 67.5377 16.4995 68.3674 16.571L67.8753 19.2997Z" fill="#407BFF"/>
<path d="M72.4478 21.1316C71.796 20.5606 71.0454 20.1168 70.2341 19.8224C70.431 18.7326 70.5294 18.1863 70.7234 17.0937C71.5348 17.3881 72.2853 17.832 72.9371 18.4029C72.7403 19.4955 72.6446 20.0389 72.4478 21.1316Z" fill="#407BFF"/>
<path d="M27.1412 41.7035C26.3307 41.4073 25.5804 40.9636 24.9275 40.3943C25.1243 39.3017 25.2228 38.7554 25.4168 37.6628C26.069 38.2332 26.8194 38.677 27.6305 38.972C27.4365 40.0646 27.3381 40.6109 27.1412 41.7035Z" fill="#407BFF"/>
<path d="M31.9759 42.0596C31.1635 42.2401 30.329 42.2962 29.5001 42.2262C29.6941 41.1337 29.7926 40.5873 29.9894 39.4947C30.8181 39.5657 31.6527 39.5105 32.4652 39.331C32.2712 40.4235 32.1727 40.967 31.9759 42.0596Z" fill="#407BFF"/>
<path d="M37.2257 40.0588C36.3681 40.5417 35.4755 40.9579 34.5556 41.3037C34.7525 40.2139 34.8481 39.6677 35.0449 38.5751C35.9644 38.228 36.8569 37.8119 37.715 37.3301C37.521 38.4227 37.4225 38.9662 37.2257 40.0588Z" fill="#407BFF"/>
<path d="M42.764 36.4876C41.6384 37.3065 41.0781 37.7002 39.9702 38.419C40.1643 37.3293 40.2627 36.783 40.4596 35.6904C41.5702 34.9687 42.1249 34.5751 43.2532 33.7562C43.0564 34.8488 42.9608 35.395 42.764 36.4876Z" fill="#407BFF"/>
<path d="M48.443 32.1273C47.3022 33.0263 46.7319 33.4772 45.5935 34.3562C45.7903 33.2636 45.8888 32.7173 46.0828 31.6275C47.2212 30.7486 47.7915 30.2948 48.9323 29.3987C48.7439 30.4911 48.637 31.0347 48.443 32.1273Z" fill="#407BFF"/>
<path d="M54.1217 27.7696C52.9962 28.5885 52.4282 29.0194 51.2927 29.8984C51.4895 28.8058 51.5852 28.2624 51.782 27.1698C52.9175 26.2908 53.4855 25.8599 54.611 25.0382C54.417 26.1307 54.3185 26.677 54.1217 27.7696Z" fill="#407BFF"/>
<path d="M59.6579 24.1958C58.5727 24.7887 58.0251 25.1138 56.9173 25.8354C57.1113 24.7428 57.2097 24.1965 57.4066 23.1068C58.2925 22.5142 59.2072 21.967 60.1473 21.4671C59.9504 22.5569 59.8492 23.1033 59.6579 24.1958Z" fill="#407BFF"/>
<path d="M64.9093 22.195C64.0232 22.3509 63.1566 22.6044 62.3248 22.9508C62.5216 21.8582 62.62 21.3119 62.8141 20.2194C63.6459 19.8737 64.5126 19.6212 65.3987 19.4663C65.2018 20.5561 65.1034 21.1024 64.9093 22.195Z" fill="#407BFF"/>
<path d="M69.7414 22.5537C68.9951 22.2342 68.1965 22.0579 67.3865 22.034C67.5833 20.9413 67.6817 20.395 67.8758 19.3025C68.6856 19.3278 69.4839 19.504 70.2307 19.8223C70.0367 20.9148 69.9439 21.461 69.7414 22.5537Z" fill="#407BFF"/>
<path d="M74.0128 26.0531C73.4436 25.222 72.7538 24.4826 71.9665 23.86C72.1634 22.7702 72.259 22.224 72.4559 21.1313C73.2469 21.7524 73.9397 22.4918 74.5106 23.3243C74.3053 24.4171 74.2067 24.952 74.0128 26.0531Z" fill="#407BFF"/>
<g opacity="0.7">
<path d="M28.3631 21.2881C27.572 20.6671 26.8792 19.9276 26.3083 19.0951C26.5051 18.0025 26.6008 17.4562 26.7976 16.3664C27.3685 17.1989 28.0614 17.9384 28.8524 18.5594C28.6556 19.6521 28.5571 20.1955 28.3631 21.2881Z" fill="white"/>
<path d="M32.93 23.12C32.1211 23.0943 31.3238 22.9181 30.5779 22.6001C30.7719 21.5076 30.8703 20.9613 31.0672 19.8686C31.8127 20.1879 32.6102 20.3642 33.4193 20.3885C33.2253 21.481 33.1268 22.0273 32.93 23.12Z" fill="white"/>
<path d="M37.9906 22.2003C37.1597 22.5459 36.2939 22.7984 35.4088 22.9533C35.6029 21.8636 35.7013 21.3173 35.8981 20.2247C36.7833 20.0687 37.649 19.8153 38.4798 19.4688C38.2858 20.5614 38.1874 21.1077 37.9906 22.2003Z" fill="white"/>
<path d="M43.4021 19.3128C42.5162 19.9054 41.6015 20.4526 40.6614 20.9525C40.8555 19.8628 40.9539 19.3165 41.1507 18.2238C42.2331 17.631 42.7836 17.3058 43.8914 16.5842C43.7002 17.6767 43.599 18.2231 43.4021 19.3128Z" fill="white"/>
<path d="M49.0298 15.2498C47.8915 16.1288 47.3263 16.5597 46.2009 17.3814C46.3949 16.2889 46.4933 15.7425 46.6901 14.6499C47.8157 13.8311 48.3808 13.4002 49.5192 12.5212C49.3223 13.6138 49.2239 14.1573 49.0298 15.2498Z" fill="white"/>
<path d="M54.7214 10.7923C53.5859 11.6712 53.0156 12.125 51.8747 13.0211C52.0716 11.9285 52.1701 11.385 52.3641 10.2925C53.5048 9.39348 54.0752 8.94256 55.2107 8.06363C55.0167 9.15618 54.9181 9.6911 54.7214 10.7923Z" fill="white"/>
<path d="M60.3616 6.726C59.2509 7.44769 58.6962 7.84129 57.5679 8.66024C57.7619 7.56768 57.8603 7.02138 58.0572 5.92876C59.1827 5.10988 59.743 4.71617 60.8509 3.99738C60.6428 5.09023 60.5472 5.63648 60.3616 6.726Z" fill="white"/>
<path d="M65.7618 3.84452C64.8416 4.19203 63.9482 4.60817 63.0889 5.08951C63.2857 3.99689 63.3842 3.45343 63.5782 2.36088C64.4375 1.87867 65.3309 1.46158 66.251 1.11305C66.0542 2.20566 65.9558 2.75196 65.7618 3.84452Z" fill="white"/>
<path d="M70.8215 2.92483C69.9918 2.85389 69.1564 2.90911 68.3429 3.08865C68.5397 1.99604 68.6382 1.45258 68.8322 0.360031C69.6456 0.179623 70.481 0.123443 71.3108 0.193357C71.1139 1.28597 71.0183 1.83222 70.8215 2.92483Z" fill="white"/>
<path d="M75.3864 4.75393C74.7348 4.18489 73.9854 3.74206 73.1756 3.44753C73.3696 2.35498 73.468 1.80867 73.6648 0.716058C74.4753 1.01055 75.2249 1.45445 75.8757 2.02531C75.6817 3.11786 75.5833 3.66417 75.3864 4.75393Z" fill="white"/>
<path d="M30.0865 25.3202C29.2748 25.0264 28.5242 24.5825 27.8728 24.011C28.0668 22.9184 28.1653 22.375 28.3621 21.2823C29.0135 21.8539 29.7642 22.2978 30.5758 22.5915C30.379 23.687 30.2806 24.2333 30.0865 25.3202Z" fill="white"/>
<path d="M34.9201 25.682C34.107 25.8639 33.2713 25.9201 32.4415 25.8486C32.6384 24.756 32.7368 24.2097 32.9309 23.12C33.7606 23.1915 34.5963 23.1353 35.4094 22.9533C35.2126 24.046 35.1226 24.5921 34.9201 25.682Z" fill="white"/>
<path d="M40.166 23.6812C39.3061 24.1614 38.4128 24.5775 37.4932 24.9262C37.69 23.8336 37.7884 23.2873 37.9825 22.1976C38.9027 21.849 39.796 21.4319 40.6553 20.9497C40.4642 22.0451 40.3658 22.5914 40.166 23.6812Z" fill="white"/>
<path d="M45.7209 20.1098C44.5954 20.9287 44.0351 21.3224 42.9273 22.044C43.1241 20.9514 43.2225 20.4051 43.4165 19.3126C44.5273 18.5937 45.0819 18.2001 46.2131 17.3811L45.7209 20.1098Z" fill="white"/>
<path d="M51.3835 15.7497C50.2428 16.6486 49.6725 17.1024 48.5369 17.9785C48.7309 16.8888 48.8294 16.3425 49.0262 15.2499C50.1617 14.3709 50.7321 13.92 51.8729 13.021C51.676 14.1136 51.5804 14.6599 51.3835 15.7497Z" fill="white"/>
<path d="M57.0776 11.3916C55.9492 12.2106 55.3841 12.6443 54.2458 13.5233C54.4426 12.4306 54.541 11.8843 54.7351 10.7918C55.8734 9.9128 56.4414 9.48187 57.5669 8.66299C57.356 9.75305 57.2575 10.2994 57.0776 11.3916Z" fill="white"/>
<path d="M62.5974 7.81808C61.515 8.41095 60.9646 8.73608 59.8567 9.45771C60.0536 8.3651 60.1492 7.8217 60.3461 6.72908C61.4567 6.00739 62.0126 5.67361 63.0868 5.08946C62.8927 6.18201 62.7943 6.72832 62.5974 7.81808Z" fill="white"/>
<path d="M67.8518 5.81733C66.967 5.97495 66.1015 6.22834 65.2701 6.57315C65.4641 5.4806 65.5625 4.93429 65.7594 3.84453C66.5904 3.49847 67.4561 3.24504 68.3412 3.08871C68.1472 4.18126 68.0487 4.72757 67.8518 5.81733Z" fill="white"/>
<path d="M72.6867 6.17894C71.9397 5.86136 71.1415 5.68519 70.3317 5.65916C70.5258 4.5666 70.6242 4.0203 70.8211 2.93054C71.6308 2.95656 72.429 3.13274 73.176 3.45032C72.9762 4.5373 72.8806 5.08354 72.6867 6.17894Z" fill="white"/>
<path d="M76.9549 9.67837C76.3847 8.84535 75.6917 8.10576 74.9002 7.48537C75.097 6.39276 75.1954 5.84645 75.3894 4.7539C76.1811 5.37538 76.874 6.1159 77.4443 6.94975C77.2502 8.03945 77.1518 8.58576 76.9549 9.67837Z" fill="white"/>
<path d="M27.3845 26.7453C26.5923 26.1257 25.8993 25.386 25.3298 24.5523C25.5239 23.4626 25.6223 22.9163 25.8191 21.8237C26.3893 22.6567 27.0823 23.3963 27.8739 24.0167C27.677 25.1093 27.5787 25.6585 27.3845 26.7453Z" fill="white"/>
<path d="M31.9503 28.5771C31.1406 28.5511 30.3424 28.3749 29.5954 28.0574L30.0876 25.3287C30.8335 25.6466 31.6308 25.8228 32.4397 25.8485C32.2457 26.9411 32.1472 27.4874 31.9503 28.5771Z" fill="white"/>
<path d="M37.012 27.6575C36.1806 28.0024 35.3151 28.2558 34.4303 28.4134C34.6243 27.3208 34.7227 26.7745 34.9195 25.6819C35.8046 25.5266 36.6703 25.2742 37.5013 24.9289C37.3073 26.0215 37.2088 26.5649 37.012 27.6575Z" fill="white"/>
<path d="M42.4236 24.7729C41.3129 25.4946 40.757 25.8284 39.6829 26.4125C39.8769 25.32 39.9753 24.7737 40.1722 23.6839C41.2546 23.091 41.8051 22.7659 42.9129 22.0443C42.716 23.1341 42.6204 23.6803 42.4236 24.7729Z" fill="white"/>
<path d="M48.0503 20.7099C46.9119 21.5889 46.3468 22.0197 45.2184 22.8387C45.4153 21.7461 45.5138 21.2026 45.7078 20.1101C46.8361 19.2911 47.4012 18.8574 48.5396 17.9784C48.3427 19.071 48.2443 19.6173 48.0503 20.7099Z" fill="white"/>
<path d="M53.7429 16.2522C52.6073 17.1311 52.037 17.5821 50.8962 18.4811C51.0931 17.3884 51.1887 16.8422 51.3855 15.7496C52.5263 14.8534 53.0966 14.3997 54.2322 13.5236C54.0494 14.6131 53.9397 15.1596 53.7429 16.2522Z" fill="white"/>
<path d="M59.3694 12.1865C58.2587 12.9081 57.704 13.3017 56.5757 14.1207C56.7698 13.031 56.8682 12.4847 57.065 11.3921C58.1878 10.5732 58.7424 10.1796 59.8531 9.45795C59.6619 10.5504 59.5663 11.0967 59.3694 12.1865Z" fill="white"/>
<path d="M64.7832 9.30175C63.863 9.65028 62.9696 10.0674 62.1103 10.5496C62.3072 9.45697 62.4056 8.91067 62.5996 7.81811C63.4595 7.33794 64.3529 6.92185 65.2725 6.57313C65.0757 7.66574 64.9773 8.21205 64.7832 9.30175Z" fill="white"/>
<path d="M69.8429 8.38214C69.0132 8.31071 68.1775 8.3669 67.3644 8.54881C67.5612 7.4562 67.6596 6.90989 67.8537 5.81734C68.6672 5.63779 69.5026 5.58257 70.3323 5.65351C70.1354 6.74613 70.037 7.29243 69.8429 8.38214Z" fill="white"/>
<path d="M74.4068 10.214C73.7554 9.64243 73.0047 9.1985 72.1931 8.90476L72.6993 6.17578C73.5098 6.47027 74.2594 6.91417 74.9102 7.48503C74.702 8.57503 74.6036 9.12134 74.4068 10.214Z" fill="white"/>
<path d="M29.1052 30.7861C28.2953 30.4903 27.5459 30.0466 26.8943 29.4768C27.0883 28.3843 27.1867 27.838 27.3836 26.7454C28.0344 27.3162 28.784 27.7601 29.5945 28.0546C29.4005 29.1472 29.3161 29.6932 29.1052 30.7861Z" fill="white"/>
<path d="M33.9396 31.1421C33.1263 31.3225 32.2908 31.3786 31.4611 31.3087C31.6579 30.2161 31.7563 29.6698 31.9503 28.5773C32.78 28.6482 33.6155 28.593 34.429 28.4134C34.2321 29.506 34.1337 30.0495 33.9396 31.1421Z" fill="white"/>
<path d="M39.1914 29.1412C38.3326 29.6237 37.4391 30.0399 36.5185 30.3862C36.7154 29.2964 36.8138 28.7501 37.0078 27.6576C37.928 27.3101 38.8214 26.8939 39.6807 26.4126C39.4839 27.5052 39.3854 28.0487 39.1914 29.1412Z" fill="white"/>
<path d="M44.7287 25.5788C43.6033 26.4005 43.0429 26.7914 41.9351 27.513C42.132 26.4233 42.2276 25.877 42.4244 24.7844C43.5351 24.0627 44.0897 23.6691 45.2181 22.8502C45.0238 23.9313 44.9254 24.4776 44.7287 25.5788Z" fill="white"/>
<path d="M50.405 21.2097C49.2642 22.1087 48.6939 22.5596 47.5583 23.4386C47.7524 22.346 47.8508 21.7997 48.0477 20.7099C49.1832 19.831 49.7535 19.3773 50.8943 18.4811C50.6974 19.5709 50.6018 20.1171 50.405 21.2097Z" fill="white"/>
<path d="M56.0874 16.852C54.959 17.6709 54.3939 18.1018 53.2555 18.9808C53.4524 17.8882 53.5509 17.3447 53.7449 16.2522C54.8833 15.3732 55.4483 14.9395 56.5767 14.1205C56.3798 15.2131 56.2814 15.7594 56.0874 16.852Z" fill="white"/>
<path d="M61.6189 13.2782C60.5365 13.871 59.9861 14.1962 58.8782 14.9178C59.0722 13.8252 59.1706 13.2789 59.3675 12.1863C60.4782 11.4675 61.034 11.1308 62.1082 10.5495C61.9141 11.6392 61.8157 12.1856 61.6189 13.2782Z" fill="white"/>
<path d="M66.8753 11.2774C65.9901 11.4334 65.1243 11.6868 64.2935 12.0332C64.4876 10.9407 64.586 10.3944 64.7828 9.30176C65.6138 8.95653 66.4796 8.70405 67.3646 8.54879C67.1733 9.63844 67.0721 10.1848 66.8753 11.2774Z" fill="white"/>
<path d="M71.7171 11.6331C70.9712 11.3152 70.1738 11.139 69.3649 11.1133C69.559 10.0236 69.6575 9.47725 69.8543 8.38464C70.6632 8.41032 71.4605 8.58654 72.2064 8.90448C72.0011 9.99727 71.9027 10.5436 71.7171 11.6331Z" fill="white"/>
<path d="M75.9763 15.1356C75.4055 14.3031 74.7126 13.5636 73.9216 12.9426C74.1185 11.8528 74.2169 11.3065 74.4109 10.214C75.2019 10.835 75.8948 11.5745 76.4657 12.407C76.2606 13.5112 76.1732 14.0458 75.9763 15.1356Z" fill="white"/>
<path d="M26.4041 32.2054C25.6131 31.5844 24.9202 30.8449 24.3493 30.0124C24.5433 28.9199 24.6418 28.3736 24.8387 27.2838C25.4095 28.1163 26.1024 28.8558 26.8934 29.4768C26.6965 30.5666 26.5981 31.1129 26.4041 32.2054Z" fill="white"/>
<path d="M30.9699 34.0373C30.1601 34.0113 29.3619 33.8351 28.6149 33.5176C28.8118 32.4249 28.9102 31.8786 29.1043 30.7889C29.8517 31.1052 30.6496 31.2814 31.4592 31.3087C31.2623 32.3985 31.1667 32.9447 30.9699 34.0373Z" fill="white"/>
<path d="M36.0316 33.1177C35.2006 33.4629 34.3349 33.7154 33.4498 33.8706C33.6439 32.7809 33.7423 32.2346 33.9391 31.142C34.8242 30.9857 35.6899 30.7323 36.5209 30.3862C36.3268 31.4787 36.2285 32.0279 36.0316 33.1177Z" fill="white"/>
<path d="M41.4432 30.233C40.3324 30.9519 39.7766 31.2885 38.7024 31.8698C38.8965 30.7801 38.9949 30.2338 39.1918 29.1412C40.2741 28.5483 40.8246 28.2232 41.9324 27.5016C41.7356 28.5942 41.64 29.1404 41.4432 30.233Z" fill="white"/>
<path d="M47.0717 26.1671C45.9334 27.0461 45.3655 27.4799 44.2399 28.2988C44.4368 27.2062 44.5352 26.6599 44.7292 25.5673C45.8547 24.7484 46.4227 24.3175 47.5611 23.4385C47.3642 24.5311 47.2657 25.0746 47.0717 26.1671Z" fill="white"/>
<path d="M52.7624 21.7039C51.6269 22.5828 51.0566 23.0366 49.9158 23.9327C50.1098 22.843 50.2083 22.2967 50.4051 21.2041C51.5459 20.3051 52.1162 19.8542 53.2518 18.9753C53.0579 20.0735 52.9594 20.6198 52.7624 21.7039Z" fill="white"/>
<path d="M58.3898 17.6465C57.2791 18.3682 56.7244 18.7618 55.5933 19.5808L56.0854 16.8521C57.2109 16.0304 57.7712 15.6395 58.8791 14.9179C58.6822 16.0076 58.5922 16.5537 58.3898 17.6465Z" fill="white"/>
<path d="M63.8047 14.7618C62.8845 15.1094 61.9911 15.5255 61.1318 16.0068C61.3286 14.9142 61.4271 14.3708 61.6211 13.2782C62.4799 12.7957 63.3734 12.3795 64.294 12.0332C64.0971 13.123 63.9987 13.6693 63.8047 14.7618Z" fill="white"/>
<path d="M68.8645 13.8422C68.0348 13.7712 67.1993 13.8264 66.3858 14.0061C66.5827 12.9163 66.6783 12.3701 66.8752 11.2774C67.6885 11.097 68.524 11.0408 69.3538 11.1108C69.1569 12.2034 69.0585 12.7497 68.8645 13.8422Z" fill="white"/>
<path d="M73.4264 15.6741C72.7746 15.1032 72.024 14.6593 71.2127 14.3649C71.4095 13.2723 71.5079 12.726 71.7019 11.6334C72.5131 11.9282 73.2636 12.3721 73.9157 12.9426C73.7329 14.0349 73.6232 14.5815 73.4264 15.6741Z" fill="white"/>
<path d="M28.1275 36.2433C27.3164 35.9482 26.566 35.5044 25.9138 34.9341L26.4059 32.2054C27.0568 32.7762 27.8064 33.2201 28.6168 33.5146C28.4227 34.6043 28.3243 35.1506 28.1275 36.2433Z" fill="white"/>
<path d="M32.9612 36.6021C32.1477 36.7816 31.3122 36.8368 30.4825 36.7659C30.6794 35.6733 30.775 35.127 30.9719 34.0373C31.8017 34.1086 32.6373 34.0524 33.4505 33.8706C33.2536 34.9632 33.1553 35.5123 32.9612 36.6021Z" fill="white"/>
<path d="M38.216 34.6013C37.3573 35.0819 36.4648 35.498 35.5459 35.8462C35.7427 34.7536 35.8383 34.2074 36.0352 33.1176C36.9554 32.7691 37.8488 32.352 38.7081 31.8698L38.216 34.6013Z" fill="white"/>
<path d="M43.7522 31.0274C42.6266 31.8463 42.0664 32.24 40.9585 32.9616C41.1525 31.8691 41.2509 31.3228 41.4478 30.233C42.5585 29.5113 43.1132 29.1177 44.2415 28.2988C44.0474 29.3885 43.9575 29.9346 43.7522 31.0274Z" fill="white"/>
<path d="M49.4294 26.6698C48.2885 27.5659 47.7182 28.0197 46.5798 28.8958L47.072 26.1672C48.2075 25.2882 48.7779 24.8373 49.9186 23.9383C49.7218 25.0309 49.6234 25.5772 49.4294 26.6698Z" fill="white"/>
<path d="M55.1021 22.3094C53.9766 23.1283 53.4087 23.5621 52.2731 24.441C52.47 23.3484 52.5684 22.8021 52.7624 21.7095C53.9008 20.8305 54.4659 20.3997 55.5914 19.5808C55.3974 20.6733 55.3102 21.2165 55.1021 22.3094Z" fill="white"/>
<path d="M60.6384 18.7354C59.556 19.3283 59.0056 19.6534 57.8977 20.3751C58.0918 19.2854 58.1902 18.7391 58.3871 17.6464C59.4977 16.9248 60.0536 16.591 61.1278 16.0068C60.9309 17.0994 60.8353 17.6457 60.6384 18.7354Z" fill="white"/>
<path d="M65.8977 16.7375C65.0116 16.8924 64.1449 17.1449 63.3131 17.4905L63.8052 14.7618C64.6365 14.4167 65.5021 14.1633 66.387 14.006C66.1901 15.0986 66.0945 15.6449 65.8977 16.7375Z" fill="white"/>
<path d="M70.7268 17.0936C69.9809 16.7756 69.1836 16.5994 68.3747 16.5737C68.5687 15.4812 68.6672 14.9349 68.8641 13.8451C69.673 13.8708 70.4703 14.047 71.2162 14.3649C71.0221 15.4546 70.9237 16.0009 70.7268 17.0936Z" fill="white"/>
<path d="M74.9978 20.5957C74.4276 19.7627 73.7347 19.0231 72.9431 18.4027C73.1399 17.3101 73.2355 16.7638 73.4324 15.6741C74.2246 16.2937 74.9177 17.0334 75.4872 17.8671C75.2872 18.9455 75.1921 19.5174 74.9978 20.5957Z" fill="white"/>
<path d="M25.4227 37.6712C24.6321 37.0506 23.9401 36.311 23.3708 35.4781C23.5649 34.3884 23.6633 33.8421 23.8601 32.7495C24.4301 33.5818 25.1221 34.3213 25.9121 34.9426C25.7179 36.0266 25.6195 36.5729 25.4227 37.6712Z" fill="white"/>
<path d="M29.9933 39.4946C29.1835 39.4686 28.3854 39.2924 27.6384 38.9748C27.8353 37.8851 27.9337 37.3388 28.1277 36.2462C28.8747 36.5638 29.6729 36.74 30.4826 36.766C30.2857 37.8529 30.1902 38.4049 29.9933 39.4946Z" fill="white"/>
<path d="M35.0539 38.5748C34.2221 38.9213 33.3554 39.1748 32.4693 39.3307L32.9615 36.602C33.8463 36.4444 34.7118 36.191 35.5432 35.8462C35.3464 36.9388 35.2508 37.4851 35.0539 38.5748Z" fill="white"/>
<path d="M40.4655 35.6903C39.3548 36.412 38.7989 36.7458 37.722 37.33C37.9188 36.2374 38.0172 35.6911 38.2113 34.6014C39.2965 34.0085 39.8469 33.6833 40.9548 32.9617C40.758 34.0543 40.6735 34.5975 40.4655 35.6903Z" fill="white"/>
<path d="M46.0904 31.6273C44.9549 32.5062 44.3869 32.9372 43.2614 33.756C43.4583 32.6663 43.5567 32.12 43.7507 31.0274C44.8763 30.2085 45.4442 29.7748 46.5797 28.8958C46.3857 29.9884 46.2873 30.5347 46.0904 31.6273Z" fill="white"/>
<path d="M51.7761 27.1697C50.6405 28.0486 50.0674 28.4996 48.9294 29.3985C49.1235 28.306 49.2219 27.7597 49.4188 26.6699C50.5595 25.7709 51.1298 25.3172 52.2654 24.4411C52.077 25.5307 51.9814 26.0769 51.7761 27.1697Z" fill="white"/>
<path d="M57.4094 23.1066C56.2986 23.8254 55.744 24.219 54.6128 25.038C54.8097 23.9483 54.9081 23.402 55.1021 22.3094C56.2305 21.4905 56.788 21.0968 57.8986 20.3751C57.7018 21.4677 57.6034 22.014 57.4094 23.1066Z" fill="white"/>
<path d="M62.8233 20.2192C61.9041 20.5677 61.0116 20.9848 60.1533 21.4669C60.3501 20.3743 60.4458 19.8281 60.6426 18.7355C61.5016 18.2554 62.394 17.8393 63.3127 17.4905C63.1187 18.5831 63.0202 19.1294 62.8233 20.2192Z" fill="white"/>
<path d="M67.8831 19.2996C67.0543 19.2281 66.2195 19.2843 65.4073 19.4662C65.6042 18.3736 65.6998 17.8273 65.8967 16.7376C66.7098 16.5556 67.5455 16.4994 68.3753 16.5709L67.8831 19.2996Z" fill="white"/>
<path d="M72.4478 21.1313C71.796 20.5604 71.0454 20.1165 70.2341 19.8221C70.431 18.7324 70.5294 18.1861 70.7234 17.0935C71.5348 17.3879 72.2853 17.8318 72.9371 18.4027C72.7403 19.4953 72.6446 20.0387 72.4478 21.1313Z" fill="white"/>
<path d="M27.149 41.7034C26.3385 41.4072 25.5883 40.9635 24.9353 40.3942C25.1322 39.3016 25.2306 38.7553 25.4246 37.6627C26.0768 38.2331 26.8273 38.6769 27.6383 38.9719C27.4443 40.0645 27.3459 40.6108 27.149 41.7034Z" fill="white"/>
<path d="M31.9798 42.0594C31.1674 42.2398 30.3329 42.296 29.504 42.226C29.6981 41.1334 29.7965 40.5871 29.9933 39.4945C30.822 39.5655 31.6566 39.5103 32.4691 39.3307C32.2751 40.4233 32.1766 40.9667 31.9798 42.0594Z" fill="white"/>
<path d="M37.2354 40.0587C36.3779 40.5416 35.4853 40.9578 34.5654 41.3036C34.7623 40.2138 34.8579 39.6676 35.0547 38.575C35.9741 38.2279 36.8666 37.8118 37.7248 37.33C37.5308 38.4226 37.4323 38.966 37.2354 40.0587Z" fill="white"/>
<path d="M42.7737 36.4875C41.6482 37.3064 41.0879 37.7001 39.98 38.4189C40.1741 37.3292 40.2725 36.7829 40.4693 35.6903C41.58 34.9686 42.1347 34.575 43.263 33.756C43.0662 34.8487 42.9706 35.3949 42.7737 36.4875Z" fill="white"/>
<path d="M48.4508 32.127C47.31 33.026 46.7397 33.4769 45.6013 34.3559C45.7981 33.2633 45.8966 32.717 46.0906 31.6273C47.229 30.7483 47.7993 30.2945 48.9401 29.3984C48.7517 30.4908 48.6448 31.0345 48.4508 32.127Z" fill="white"/>
<path d="M54.1236 27.7695C52.9981 28.5884 52.4302 29.0193 51.2946 29.8983C51.4914 28.8056 51.5871 28.2622 51.784 27.1696C52.9195 26.2907 53.4874 25.8598 54.6129 25.038C54.4189 26.1306 54.3205 26.6769 54.1236 27.7695Z" fill="white"/>
<path d="M59.6579 24.1955C58.5727 24.7885 58.0251 25.1135 56.9173 25.8352C57.1113 24.7426 57.2097 24.1963 57.4066 23.1065C58.2925 22.514 59.2072 21.9667 60.1473 21.4669C59.9504 22.5567 59.8492 23.103 59.6579 24.1955Z" fill="white"/>
<path d="M64.9171 22.1947C64.031 22.3506 63.1644 22.6041 62.3326 22.9506C62.5294 21.858 62.6279 21.3117 62.8219 20.2191C63.6537 19.8735 64.5204 19.621 65.4065 19.4661C65.2096 20.5559 65.1112 21.1022 64.9171 22.1947Z" fill="white"/>
<path d="M69.7512 22.5536C69.0048 22.234 68.2063 22.0578 67.3963 22.0338C67.5931 20.9412 67.6915 20.3949 67.8855 19.3024C68.6954 19.3277 69.4937 19.5039 70.2405 19.8221C70.0464 20.9147 69.9536 21.4609 69.7512 22.5536Z" fill="white"/>
<path d="M74.0167 26.053C73.4475 25.2218 72.7577 24.4824 71.9704 23.8598C72.1673 22.7701 72.2629 22.2238 72.4598 21.1312C73.2508 21.7522 73.9436 22.4917 74.5145 23.3242C74.3092 24.417 74.2106 24.9519 74.0167 26.053Z" fill="white"/>
</g>
<path d="M69.2204 53.8187C69.184 53.812 69.1493 53.7981 69.1183 53.7778C69.0872 53.7575 69.0604 53.7312 69.0394 53.7005C69.0184 53.6697 69.0035 53.635 68.9958 53.5984C68.988 53.5619 68.9874 53.5241 68.994 53.4873L77.7895 4.44355C77.7962 4.40673 77.8099 4.37161 77.8299 4.34016C77.8499 4.30872 77.8759 4.28158 77.9063 4.26029C77.9367 4.23901 77.9709 4.22399 78.0071 4.21611C78.0432 4.20822 78.0805 4.20763 78.1169 4.21434C78.1532 4.22105 78.1879 4.23494 78.219 4.25522C78.25 4.27551 78.2768 4.30179 78.2978 4.33256C78.3189 4.36334 78.3337 4.39801 78.3415 4.43459C78.3493 4.47116 78.3499 4.50894 78.3432 4.54575L69.5477 53.5895C69.5411 53.6263 69.5274 53.6614 69.5073 53.6929C69.4873 53.7243 69.4613 53.7515 69.4309 53.7727C69.4005 53.794 69.3663 53.809 69.3302 53.8169C69.2941 53.8248 69.2567 53.8254 69.2204 53.8187Z" fill="#407BFF"/>
<path d="M33.1836 51.4132L34.5647 51.3838C35.8586 51.3563 37.0615 52.2311 37.6676 53.64L42.5204 64.9625L33.4686 65.155L33.1836 51.4132Z" fill="#407BFF"/>
<path opacity="0.3" d="M33.1836 51.4132L34.5647 51.3838C35.8586 51.3563 37.0615 52.2311 37.6676 53.64L42.5204 64.9625L33.4686 65.155L33.1836 51.4132Z" fill="black"/>
<path d="M56.722 53.7226L52.8906 53.1223L52.6905 54.4314L56.5219 55.0317L56.722 53.7226Z" fill="#263238"/>
<path d="M58.832 53.8603L53.9023 53.0879L53.645 54.7714L58.5747 55.5438L58.832 53.8603Z" fill="#263238"/>
<path d="M52.0187 58.3126C51.884 58.2911 51.7632 58.2164 51.6828 58.1049C51.6024 57.9934 51.569 57.8541 51.5899 57.7176L52.8807 49.2648C52.9019 49.1284 52.9756 49.0061 53.0858 48.9247C53.196 48.8433 53.3335 48.8095 53.4683 48.8307C53.5352 48.8409 53.5994 48.8645 53.6572 48.9C53.715 48.9355 53.7653 48.9823 53.8052 49.0376C53.845 49.0929 53.8737 49.1557 53.8895 49.2223C53.9053 49.2889 53.9078 49.358 53.8971 49.4256L52.6061 57.8698C52.5966 57.9381 52.5738 58.0038 52.5391 58.0631C52.5044 58.1224 52.4583 58.1742 52.4037 58.2154C52.3491 58.2565 52.2869 58.2863 52.2208 58.303C52.1547 58.3197 52.086 58.3229 52.0187 58.3126Z" fill="#263238"/>
<path d="M42.4465 47.2584C42.0247 48.3558 41.933 48.8194 43.5484 49.6426C43.5484 49.6426 44.2001 51.2101 42.1116 53.0923C38.1826 50.3522 38.4959 48.7671 38.4959 48.7671C39.8081 47.9927 40.0411 45.6627 40.106 44.0401L42.4465 47.2584Z" fill="#FFB573"/>
<path opacity="0.2" d="M42.1832 48.1445C42.2308 47.8393 42.3193 47.5422 42.4463 47.2613L41.1571 45.4794C40.9514 45.7313 40.8037 46.0265 40.7247 46.3434C40.6923 47.0877 41.553 47.8786 42.1832 48.1445Z" fill="black"/>
<path d="M39.1254 41.7701C39.0968 41.233 39.2053 40.6974 39.4403 40.215C39.6754 39.7325 40.0291 39.3195 40.4675 39.0157C40.9059 38.7118 41.4142 38.5273 41.9435 38.48C42.4727 38.4326 43.005 38.5241 43.4893 38.7454C45.6902 39.7101 45.9078 43.1446 45.365 45.199C44.7622 47.477 41.9832 48.0804 40.3019 46.2555C39.1877 45.0426 39.2013 44.0707 39.1254 41.7673L39.1254 41.7701Z" fill="#FFB573"/>
<path d="M43.2379 42.1128C43.3561 42.1103 43.4548 42.2592 43.4477 42.4588C43.4406 42.6584 43.3396 42.8087 43.2185 42.8028C43.0973 42.7968 43.007 42.6449 43.0115 42.4567C43.016 42.2686 43.1198 42.1153 43.2379 42.1128Z" fill="#2E353A"/>
<path d="M45.3286 42.1853C45.4468 42.1828 45.5398 42.329 45.5355 42.5257C45.5311 42.7224 45.4274 42.8784 45.3091 42.8724C45.1908 42.8664 45.0948 42.7145 45.0992 42.5235C45.1037 42.3326 45.2104 42.1821 45.3286 42.1853Z" fill="#2E353A"/>
<path d="M44.1332 44.1881C44.2447 44.2196 44.3616 44.2262 44.4758 44.2075C44.5901 44.1888 44.699 44.1454 44.7951 44.08C44.5301 43.7017 44.3179 43.2882 44.1645 42.8512L44.1332 44.1881Z" fill="#ED893E"/>
<path d="M42.9522 44.2246C42.9486 44.2185 42.9461 44.2118 42.9451 44.2047C42.944 44.1977 42.9443 44.1905 42.946 44.1836C42.9477 44.1767 42.9507 44.1701 42.9549 44.1644C42.9591 44.1587 42.9643 44.1538 42.9704 44.1502C42.9827 44.1434 42.997 44.1415 43.0106 44.1449C43.0243 44.1483 43.0361 44.1568 43.0439 44.1685C43.1791 44.3568 43.3561 44.5102 43.5607 44.6162C43.7653 44.7222 43.9917 44.778 44.2216 44.7789C44.2363 44.7793 44.2504 44.7852 44.261 44.7955C44.2716 44.8058 44.278 44.8198 44.279 44.8347C44.2773 44.8495 44.27 44.8632 44.2588 44.8729C44.2475 44.8827 44.233 44.8878 44.2182 44.8872C44.1237 44.8839 44.0295 44.8745 43.9362 44.859C43.5384 44.7874 43.1846 44.5593 42.9522 44.2246Z" fill="#2E353A"/>
<path d="M41.8727 42.0081C41.8601 42.0015 41.8489 41.9924 41.8398 41.9814C41.8307 41.9705 41.8238 41.9577 41.8196 41.944C41.8154 41.9303 41.8139 41.9159 41.8153 41.9017C41.8166 41.8874 41.8207 41.8735 41.8274 41.8609C41.9468 41.6823 42.1031 41.532 42.2854 41.4204C42.4677 41.3088 42.6717 41.2385 42.8834 41.2144C42.9098 41.2155 42.9349 41.2262 42.9541 41.2446C42.9734 41.263 42.9854 41.2878 42.988 41.3144C42.9906 41.3411 42.9836 41.3678 42.9683 41.3896C42.953 41.4115 42.9305 41.427 42.9048 41.4333C42.7291 41.455 42.5597 41.5134 42.4076 41.6049C42.2554 41.6965 42.1237 41.8191 42.0209 41.965C42.0095 41.9853 41.992 42.0014 41.971 42.0111C41.95 42.0207 41.9265 42.0234 41.9038 42.0188C41.8927 42.0183 41.8818 42.0145 41.8727 42.0081Z" fill="#2E353A"/>
<path d="M45.3911 41.5342C45.2906 41.4409 45.1698 41.3729 45.0385 41.3356C44.9072 41.2983 44.769 41.2928 44.6353 41.3195C44.6082 41.327 44.5793 41.3235 44.5548 41.3096C44.5302 41.2957 44.5121 41.2727 44.5043 41.2454C44.5007 41.2321 44.4997 41.2183 44.5014 41.2047C44.5032 41.1911 44.5076 41.178 44.5145 41.1662C44.5213 41.1544 44.5304 41.1441 44.5413 41.1358C44.5521 41.1276 44.5645 41.1217 44.5776 41.1184C44.7501 41.0773 44.93 41.0799 45.1013 41.1259C45.2726 41.172 45.43 41.2601 45.5596 41.3825C45.5816 41.4008 45.5957 41.427 45.5989 41.4557C45.6021 41.4843 45.5942 41.5131 45.5768 41.536C45.5634 41.5504 45.5468 41.5615 45.5284 41.5683C45.5099 41.5751 45.4902 41.5775 45.4707 41.5753C45.4399 41.5727 45.4113 41.5579 45.3911 41.5342Z" fill="#2E353A"/>
<path d="M45.0759 56.2319C45.364 54.2484 43.6279 49.7806 43.6279 49.7806C43.6279 49.7806 41.1771 47.6245 39.3141 47.2111C37.451 46.7977 35.0247 50.975 35.9606 54.0409C36.8966 57.1068 35.8775 65.3657 35.8775 65.3657L45.2176 65.3694C44.4054 62.979 44.7907 58.2182 45.0759 56.2319Z" fill="#407BFF"/>
<path opacity="0.5" d="M45.0759 56.2319C45.364 54.2484 43.6279 49.7806 43.6279 49.7806C43.6279 49.7806 41.1771 47.6245 39.3141 47.2111C37.451 46.7977 35.0247 50.975 35.9606 54.0409C36.8966 57.1068 35.8775 65.3657 35.8775 65.3657L45.2176 65.3694C44.4054 62.979 44.7907 58.2182 45.0759 56.2319Z" fill="white"/>
<path d="M44.7519 55.498C47.3088 55.9878 50.5181 54.5548 50.5181 54.5548L50.7026 52.1888C50.7026 52.1888 50.7022 52.1689 50.702 52.1603C50.7214 52.0382 50.7876 51.9288 50.8862 51.8558C50.9847 51.7827 51.1078 51.752 51.2286 51.7702L51.6999 51.8342C51.8294 51.8536 51.9472 51.9212 52.0302 52.0238L53.015 53.2394C53.0868 53.3237 53.1273 53.4307 53.1296 53.5419C53.1319 53.6531 53.0959 53.7617 53.0277 53.8489L51.5344 55.6615C48.0009 58.016 43.9284 58.265 43.9284 58.265L44.7519 55.498Z" fill="#FFB573"/>
<path d="M43.4838 58.8244C41.9424 58.8572 38.9342 56.5534 36.8854 52.7476C35.6643 50.4514 36.2022 49.3886 37.0646 49.0397C38.1667 48.586 39.8279 49.0351 41.2414 51.7859C42.7848 54.836 43.1932 55.1208 44.3457 55.3328C45.5971 55.5626 47.9324 55.5415 49.3986 54.7296L50.2292 56.923C50.2292 56.923 44.8676 58.7893 43.4838 58.8244Z" fill="#407BFF"/>
<path opacity="0.7" d="M43.4838 58.8244C41.9424 58.8572 38.9342 56.5534 36.8854 52.7476C35.6643 50.4514 36.2022 49.3886 37.0646 49.0397C38.1667 48.586 39.8279 49.0351 41.2414 51.7859C42.7848 54.836 43.1932 55.1208 44.3457 55.3328C45.5971 55.5626 47.9324 55.5415 49.3986 54.7296L50.2292 56.923C50.2292 56.923 44.8676 58.7893 43.4838 58.8244Z" fill="white"/>
<path d="M38.7657 43.1739C38.7694 43.0765 38.792 42.9808 38.8324 42.8922C38.8727 42.8037 38.9299 42.7241 39.0007 42.658C39.0715 42.5919 39.1545 42.5406 39.2449 42.5071C39.3353 42.4735 39.4314 42.4584 39.5276 42.4625C40.0912 42.5018 40.4076 43.2359 40.4572 43.7277C40.5052 44.2795 40.1375 44.7318 39.6281 44.4577C39.2441 44.2563 38.9545 43.909 38.8229 43.4918C38.7813 43.3913 38.7618 43.2828 38.7657 43.1739Z" fill="#FFB573"/>
<path d="M39.0581 47.3305C39.0581 47.3305 38.8053 46.1278 39.2778 46.2545C39.7504 46.3812 43.779 48.0849 43.9236 48.5462C44.0682 49.0076 43.7601 48.9401 43.6256 49.7806C43.4911 50.6212 39.0581 47.3305 39.0581 47.3305Z" fill="#407BFF"/>
<path opacity="0.7" d="M39.0581 47.3305C39.0581 47.3305 38.8053 46.1278 39.2778 46.2545C39.7504 46.3812 43.779 48.0849 43.9236 48.5462C44.0682 49.0076 43.7601 48.9401 43.6256 49.7806C43.4911 50.6212 39.0581 47.3305 39.0581 47.3305Z" fill="white"/>
<path d="M50.3082 54.5707L50.5203 54.4836L50.7203 51.915C50.7203 51.915 50.7199 51.8951 50.7196 51.8837C50.7402 51.7503 50.8121 51.6307 50.9197 51.551C51.0272 51.4712 51.1616 51.4379 51.2933 51.4583L51.8042 51.5301C51.9462 51.5496 52.0756 51.6233 52.1658 51.7361L53.2402 53.061C53.318 53.1523 53.362 53.2682 53.3645 53.3888C53.367 53.5094 53.3279 53.6271 53.2539 53.7217L51.6064 55.6999C51.4288 55.8177 51.2511 55.9326 51.0704 56.039C51.0405 56.0574 51.0072 56.0694 50.9726 56.0743C50.938 56.0791 50.9028 56.0768 50.8691 56.0674C50.8355 56.0579 50.804 56.0416 50.7768 56.0194C50.7496 55.9973 50.7272 55.9697 50.7109 55.9384L50.1727 54.9554C50.153 54.9219 50.1408 54.8844 50.137 54.8455C50.1333 54.8067 50.1381 54.7675 50.151 54.7308C50.164 54.694 50.1848 54.6606 50.2119 54.6329C50.2391 54.6053 50.272 54.584 50.3082 54.5707Z" fill="#407BFF"/>
<path opacity="0.4" d="M50.3082 54.5707L50.5203 54.4836L50.7203 51.915C50.7203 51.915 50.7199 51.8951 50.7196 51.8837C50.7402 51.7503 50.8121 51.6307 50.9197 51.551C51.0272 51.4712 51.1616 51.4379 51.2933 51.4583L51.8042 51.5301C51.9462 51.5496 52.0756 51.6233 52.1658 51.7361L53.2402 53.061C53.318 53.1523 53.362 53.2682 53.3645 53.3888C53.367 53.5094 53.3279 53.6271 53.2539 53.7217L51.6064 55.6999C51.4288 55.8177 51.2511 55.9326 51.0704 56.039C51.0405 56.0574 51.0072 56.0694 50.9726 56.0743C50.938 56.0791 50.9028 56.0768 50.8691 56.0674C50.8355 56.0579 50.804 56.0416 50.7768 56.0194C50.7496 55.9973 50.7272 55.9697 50.7109 55.9384L50.1727 54.9554C50.153 54.9219 50.1408 54.8844 50.137 54.8455C50.1333 54.8067 50.1381 54.7675 50.151 54.7308C50.164 54.694 50.1848 54.6606 50.2119 54.6329C50.2391 54.6053 50.272 54.584 50.3082 54.5707Z" fill="black"/>
<path d="M42.1744 41.7566C42.082 41.851 41.98 41.9353 41.8701 42.0081C41.4375 42.1111 40.9953 42.1673 40.5509 42.1757L40.5687 43.0301C41.0029 42.9623 41.4412 42.9253 41.8806 42.9196C42.0317 42.9504 42.1803 42.993 42.325 43.0469L42.1744 41.7566Z" fill="#263238"/>
<path d="M44.0274 41.7799L44.4155 41.7716L44.5273 42.4132L43.9704 42.425L44.0274 41.7799Z" fill="#263238"/>
<path d="M43.5678 43.3282L42.6283 43.3482C42.5125 43.3512 42.3996 43.3118 42.3101 43.2373C42.2207 43.1628 42.1608 43.0581 42.1415 42.9425L41.9671 41.9974C41.9545 41.9276 41.9571 41.8558 41.9746 41.787C41.9921 41.7183 42.0242 41.6542 42.0686 41.5992C42.1133 41.5447 42.169 41.5006 42.232 41.4698C42.2949 41.439 42.3636 41.4222 42.4335 41.4205L43.6656 41.3943C43.7355 41.3926 43.805 41.4063 43.8693 41.4345C43.9335 41.4626 43.9909 41.5045 44.0376 41.5573C44.0841 41.6105 44.1189 41.6731 44.1397 41.7409C44.1606 41.8088 44.1669 41.8803 44.1583 41.9508L44.0289 42.9024C44.0146 43.0173 43.9603 43.1232 43.8758 43.2013C43.7913 43.2793 43.6821 43.3243 43.5678 43.3282ZM42.4479 41.7051C42.4186 41.7057 42.3897 41.7127 42.3633 41.7256C42.3369 41.7384 42.3135 41.7568 42.2947 41.7796C42.2756 41.8028 42.2619 41.83 42.2547 41.8593C42.2475 41.8885 42.247 41.9191 42.2531 41.9486L42.4191 42.8939C42.428 42.9418 42.4532 42.985 42.4904 43.016C42.5275 43.0469 42.5743 43.0637 42.6224 43.0634L43.5619 43.0434C43.6103 43.0428 43.6569 43.0245 43.693 42.9917C43.7291 42.959 43.7522 42.9141 43.758 42.8654L43.8874 41.9138C43.8912 41.8839 43.8885 41.8535 43.8797 41.8247C43.8708 41.7959 43.856 41.7693 43.8361 41.7468C43.8164 41.7249 43.7922 41.7075 43.7653 41.6957C43.7383 41.684 43.7092 41.6783 43.6799 41.6789L42.4479 41.7051Z" fill="black"/>
<path d="M45.6508 43.2839L44.9673 43.2984C44.8515 43.3014 44.7386 43.2621 44.6491 43.1875C44.5597 43.113 44.4998 43.0084 44.4805 42.8927L44.3117 41.9475C44.3003 41.8774 44.3036 41.8057 44.3216 41.737C44.3396 41.6684 44.3718 41.6044 44.4161 41.5492C44.4604 41.4944 44.516 41.4499 44.579 41.4191C44.6421 41.3882 44.711 41.3716 44.781 41.3705L45.7571 41.3498C45.827 41.3485 45.8963 41.3624 45.9605 41.3905C46.0247 41.4186 46.0822 41.4603 46.1291 41.5128C46.1757 41.5658 46.2104 41.6285 46.2308 41.6965C46.2511 41.7644 46.2567 41.836 46.247 41.9064L46.1204 42.8579C46.1059 42.9742 46.0504 43.0813 45.9641 43.1596C45.8779 43.2378 45.7666 43.282 45.6508 43.2839ZM44.7728 41.6556C44.7434 41.6557 44.7144 41.6624 44.6879 41.6753C44.6614 41.6882 44.638 41.7069 44.6196 41.7301C44.6007 41.7534 44.587 41.7806 44.5793 41.8098C44.5717 41.8389 44.5703 41.8694 44.5753 41.8992L44.744 42.8444C44.7518 42.8928 44.7768 42.9367 44.8142 42.9679C44.8516 42.999 44.8989 43.0154 44.9473 43.0139L45.6449 42.999C45.6932 42.9979 45.7395 42.9794 45.7754 42.9467C45.8114 42.9141 45.8347 42.8695 45.841 42.8211L45.9676 41.8696C45.9726 41.8398 45.9708 41.8093 45.9624 41.7804C45.954 41.7514 45.9392 41.7248 45.9191 41.7025C45.8994 41.6805 45.8753 41.6631 45.8483 41.6514C45.8214 41.6397 45.7923 41.634 45.763 41.6346L44.7728 41.6556Z" fill="black"/>
<g opacity="0.6">
<path d="M43.5678 43.3282L42.6283 43.3482C42.5125 43.3512 42.3996 43.3118 42.3101 43.2373C42.2207 43.1628 42.1608 43.0581 42.1415 42.9425L41.9671 41.9974C41.9545 41.9276 41.9571 41.8558 41.9746 41.787C41.9921 41.7183 42.0242 41.6542 42.0686 41.5992C42.1133 41.5447 42.169 41.5006 42.232 41.4698C42.2949 41.439 42.3636 41.4222 42.4335 41.4205L43.6656 41.3943C43.7355 41.3926 43.805 41.4063 43.8693 41.4345C43.9335 41.4626 43.9909 41.5045 44.0376 41.5573C44.0841 41.6105 44.1189 41.6731 44.1397 41.7409C44.1606 41.8088 44.1669 41.8803 44.1583 41.9508L44.0289 42.9024C44.0146 43.0173 43.9603 43.1232 43.8758 43.2013C43.7913 43.2793 43.6821 43.3243 43.5678 43.3282ZM42.4479 41.7051C42.4186 41.7057 42.3897 41.7127 42.3633 41.7256C42.3369 41.7384 42.3135 41.7568 42.2947 41.7796C42.2756 41.8028 42.2619 41.83 42.2547 41.8593C42.2475 41.8885 42.247 41.9191 42.2531 41.9486L42.4191 42.8939C42.428 42.9418 42.4532 42.985 42.4904 43.016C42.5275 43.0469 42.5743 43.0637 42.6224 43.0634L43.5619 43.0434C43.6103 43.0428 43.6569 43.0245 43.693 42.9917C43.7291 42.959 43.7522 42.9141 43.758 42.8654L43.8874 41.9138C43.8912 41.8839 43.8885 41.8535 43.8797 41.8247C43.8708 41.7959 43.856 41.7693 43.8361 41.7468C43.8164 41.7249 43.7922 41.7075 43.7653 41.6957C43.7383 41.684 43.7092 41.6783 43.6799 41.6789L42.4479 41.7051Z" fill="white"/>
<path d="M45.6528 43.2839L44.9693 43.2984C44.8535 43.3014 44.7405 43.2621 44.6511 43.1875C44.5617 43.113 44.5018 43.0084 44.4825 42.8927L44.3137 41.9475C44.3022 41.8774 44.3056 41.8057 44.3236 41.737C44.3416 41.6684 44.3737 41.6044 44.418 41.5492C44.4623 41.4944 44.5179 41.4499 44.581 41.4191C44.644 41.3882 44.7129 41.3716 44.7829 41.3705L45.759 41.3498C45.8289 41.3485 45.8983 41.3624 45.9625 41.3905C46.0266 41.4186 46.0841 41.4603 46.131 41.5128C46.1777 41.5658 46.2124 41.6285 46.2327 41.6965C46.2531 41.7644 46.2586 41.836 46.2489 41.9064L46.1223 42.8579C46.1078 42.9742 46.0523 43.0813 45.9661 43.1596C45.8798 43.2378 45.7686 43.282 45.6528 43.2839ZM44.7748 41.6556C44.7454 41.6557 44.7163 41.6624 44.6898 41.6753C44.6633 41.6882 44.64 41.7069 44.6216 41.7301C44.6026 41.7534 44.5889 41.7806 44.5813 41.8098C44.5736 41.8389 44.5722 41.8694 44.5772 41.8992L44.746 42.8444C44.7538 42.8928 44.7787 42.9367 44.8161 42.9679C44.8535 42.999 44.9009 43.0154 44.9493 43.0139L45.6469 42.999C45.6952 42.9979 45.7414 42.9794 45.7774 42.9467C45.8134 42.9141 45.8366 42.8695 45.843 42.8211L45.9696 41.8696C45.9745 41.8398 45.9727 41.8093 45.9643 41.7804C45.9559 41.7514 45.9411 41.7248 45.9211 41.7025C45.9014 41.6805 45.8772 41.6631 45.8503 41.6514C45.8233 41.6397 45.7942 41.634 45.7649 41.6346L44.7748 41.6556Z" fill="white"/>
</g>
<path d="M41.1086 40.5855C41.1086 40.5855 40.4868 44.1176 41.8457 45.8638C41.8728 45.8973 41.8908 45.9373 41.8981 45.98C41.9054 46.0227 41.9016 46.0666 41.8872 46.1074C41.8727 46.1481 41.848 46.1844 41.8156 46.2127C41.7832 46.2409 41.7441 46.2602 41.7021 46.2686L41.2002 46.359C41.1563 46.3671 41.1111 46.363 41.0692 46.3474C41.0273 46.3318 40.9903 46.3051 40.962 46.2701C40.7914 46.0486 40.3853 45.5985 39.9394 45.6764C39.8907 45.6855 39.8405 45.6798 39.795 45.6599C39.7495 45.6401 39.7108 45.6071 39.6839 45.565C39.3458 45.0023 38.2671 43.0592 38.4552 41.5451L41.1086 40.5855Z" fill="#263238"/>
<path d="M38.4215 42.5173C38.4215 42.5173 41.6587 40.5281 47.0281 41.2117L45.9333 40.6651C45.9333 40.6651 45.3726 36.4231 41.0799 37.315C37.4458 38.0761 38.4215 42.5173 38.4215 42.5173Z" fill="#407BFF"/>
<path opacity="0.2" d="M38.4215 42.5173C38.4215 42.5173 41.6587 40.5281 47.0281 41.2117L45.9333 40.6651C45.9333 40.6651 45.3726 36.4231 41.0799 37.315C37.4458 38.0761 38.4215 42.5173 38.4215 42.5173Z" fill="black"/>
<path d="M40.3531 41.7127C42.5188 41.0721 44.7937 40.9014 47.029 41.2118L45.9342 40.6652C45.9342 40.6652 42.2867 40.2356 40.3531 41.7127Z" fill="#407BFF"/>
<path d="M39.7704 42.9901L39.461 42.9967L38.4545 43.1805L38.4729 44.0663L39.1788 44.9944L39.4882 44.9878L40.4164 44.8313L40.4552 43.7164L39.7704 42.9901Z" fill="black"/>
<path d="M38.4545 43.1805L39.461 42.9967L40.1458 43.723L40.107 44.8379L39.1788 44.9944L38.4729 44.0663L38.4545 43.1805Z" fill="#263238"/>
<path opacity="0.2" d="M38.4545 43.1805L39.461 42.9967L40.1458 43.723L40.107 44.8379L39.1788 44.9944L38.4729 44.0663L38.4545 43.1805Z" fill="white"/>
<path d="M41.42 46.8785C41.3692 46.8752 41.321 46.8547 41.2831 46.8204C41.2451 46.7861 41.2196 46.7399 41.2106 46.6892L41.1758 46.5048C41.1656 46.4439 41.1793 46.3813 41.214 46.3306C41.2487 46.2798 41.3017 46.2447 41.3615 46.233L41.8268 46.1433C41.8567 46.138 41.8873 46.1387 41.9169 46.1455C41.9465 46.1522 41.9745 46.1647 41.9993 46.1824C42.0248 46.1991 42.0468 46.221 42.0637 46.2466C42.0807 46.2722 42.0924 46.301 42.0981 46.3313L42.13 46.5158C42.1361 46.5458 42.1361 46.5768 42.1299 46.6068C42.1238 46.6369 42.1116 46.6653 42.0942 46.6904C42.0773 46.7156 42.0556 46.7372 42.0303 46.7539C42.005 46.7706 41.9768 46.782 41.9471 46.7875L41.479 46.8773C41.4595 46.8805 41.4396 46.8809 41.42 46.8785ZM41.8751 46.299L41.8582 46.2993L41.3901 46.3891C41.3819 46.3906 41.3742 46.3938 41.3673 46.3985C41.3603 46.4031 41.3544 46.4091 41.3498 46.4161C41.3452 46.4231 41.3421 46.431 41.3406 46.4393C41.3391 46.4475 41.3392 46.456 41.341 46.4642L41.3758 46.6487C41.3789 46.6648 41.3881 46.679 41.4014 46.6883C41.4148 46.6976 41.4312 46.7013 41.4472 46.6984L41.9153 46.6087C41.932 46.6055 41.9468 46.596 41.9569 46.5822C41.962 46.5674 41.9617 46.5512 41.956 46.5366L41.9212 46.3521C41.9201 46.3436 41.9172 46.3354 41.9126 46.3282C41.9081 46.3209 41.9021 46.3147 41.895 46.31C41.8885 46.3085 41.8817 46.3087 41.8753 46.3104L41.8751 46.299Z" fill="#263238"/>
<g opacity="0.5">
<path d="M41.42 46.8785C41.3692 46.8752 41.321 46.8547 41.2831 46.8204C41.2451 46.7861 41.2196 46.7399 41.2106 46.6892L41.1758 46.5048C41.1656 46.4439 41.1793 46.3813 41.214 46.3306C41.2487 46.2798 41.3017 46.2447 41.3615 46.233L41.8268 46.1433C41.8567 46.138 41.8873 46.1387 41.9169 46.1455C41.9465 46.1522 41.9745 46.1647 41.9993 46.1824C42.0248 46.1991 42.0468 46.221 42.0637 46.2466C42.0807 46.2722 42.0924 46.301 42.0981 46.3313L42.13 46.5158C42.1361 46.5458 42.1361 46.5768 42.1299 46.6068C42.1238 46.6369 42.1116 46.6653 42.0942 46.6904C42.0773 46.7156 42.0556 46.7372 42.0303 46.7539C42.005 46.7706 41.9768 46.782 41.9471 46.7875L41.479 46.8773C41.4595 46.8805 41.4396 46.8809 41.42 46.8785ZM41.8751 46.299L41.8582 46.2993L41.3901 46.3891C41.3819 46.3906 41.3742 46.3938 41.3673 46.3985C41.3603 46.4031 41.3544 46.4091 41.3498 46.4161C41.3452 46.4231 41.3421 46.431 41.3406 46.4393C41.3391 46.4475 41.3392 46.456 41.341 46.4642L41.3758 46.6487C41.3789 46.6648 41.3881 46.679 41.4014 46.6883C41.4148 46.6976 41.4312 46.7013 41.4472 46.6984L41.9153 46.6087C41.932 46.6055 41.9468 46.596 41.9569 46.5822C41.962 46.5674 41.9617 46.5512 41.956 46.5366L41.9212 46.3521C41.9201 46.3436 41.9172 46.3354 41.9126 46.3282C41.9081 46.3209 41.9021 46.3147 41.895 46.31C41.8885 46.3085 41.8817 46.3087 41.8753 46.3104L41.8751 46.299Z" fill="white"/>
</g>
<path d="M40.7973 40.005C40.7834 40.2905 40.6693 40.5616 40.4755 40.7695C40.2817 40.9774 40.0209 41.1083 39.7402 41.1387C39.2057 41.15 38.8157 40.6597 38.8733 40.0459C38.8865 39.7594 39.0008 39.4873 39.1952 39.2787C39.3896 39.0702 39.6514 38.9391 39.9331 38.9093C40.4423 38.8985 40.8323 39.3888 40.7973 40.005Z" fill="#407BFF"/>
<path opacity="0.9" d="M40.7973 40.005C40.7834 40.2905 40.6693 40.5616 40.4755 40.7695C40.2817 40.9774 40.0209 41.1083 39.7402 41.1387C39.2057 41.15 38.8157 40.6597 38.8733 40.0459C38.8865 39.7594 39.0008 39.4873 39.1952 39.2787C39.3896 39.0702 39.6514 38.9391 39.9331 38.9093C40.4423 38.8985 40.8323 39.3888 40.7973 40.005Z" fill="white"/>
<path d="M40.2048 40.3425L40.0276 40.3462L39.9458 40.6101L39.687 40.6156L39.7716 40.3517L39.1865 40.3641L39.2472 40.1691L40.0099 39.3579L40.2743 39.3523L39.5613 40.1197L39.8426 40.1137L39.9165 39.8785L40.1528 39.8734L40.0789 40.1087L40.2561 40.1049L40.2048 40.3425Z" fill="#263238"/>
<path d="M9.4087 74.8411L22.4857 74.5631L22.536 76.9896L9.45902 77.2676C9.24488 77.2722 9.03761 77.191 8.88223 77.0417C8.72686 76.8925 8.63594 76.6871 8.62922 76.4704L8.61309 75.6929C8.60934 75.5839 8.62702 75.4752 8.6651 75.3731C8.70319 75.2711 8.76092 75.1778 8.83495 75.0985C8.90897 75.0193 8.99781 74.9557 9.09631 74.9115C9.1948 74.8673 9.30099 74.8434 9.4087 74.8411Z" fill="#263238"/>
<path opacity="0.5" d="M9.4087 74.8411L22.4857 74.5631L22.536 76.9896L9.45902 77.2676C9.24488 77.2722 9.03761 77.191 8.88223 77.0417C8.72686 76.8925 8.63594 76.6871 8.62922 76.4704L8.61309 75.6929C8.60934 75.5839 8.62702 75.4752 8.6651 75.3731C8.70319 75.2711 8.76092 75.1778 8.83495 75.0985C8.90897 75.0193 8.99781 74.9557 9.09631 74.9115C9.1948 74.8673 9.30099 74.8434 9.4087 74.8411Z" fill="white"/>
<path opacity="0.2" d="M8.62976 75.6525L22.5028 75.3575L22.4863 74.5629L9.12803 74.847C8.77924 74.8544 8.65957 75.1903 8.62976 75.6525Z" fill="black"/>
<path d="M8.97177 74.8817C8.66196 75.0051 8.61012 75.4906 8.62217 76.0716C8.63422 76.6526 8.70615 77.1354 9.02085 77.2484C9.32779 77.1222 9.37963 76.6367 9.36758 76.0557C9.35553 75.4747 9.2836 74.9919 8.97177 74.8817Z" fill="#263238"/>
<path d="M102.986 62.6595C91.8223 59.2669 74.3204 53.1113 57.0693 51.1759L53.5957 60.0825C52.9195 61.8065 51.429 62.9408 49.7638 62.9763L40.3605 63.1762C38.4168 63.2175 36.673 61.7701 36.1335 59.6418L33.9104 51.0928C16.1406 52.6445 2.96407 58.1617 0.750442 68.6599C0.307295 70.7664 1.44609 72.8934 3.27362 73.4928C10.357 75.8125 33.4145 80.0976 101.636 74.6438C102.631 74.5657 103.443 73.7135 103.594 72.5877L104.571 65.4209C104.728 64.1696 104.048 62.9845 102.986 62.6595Z" fill="#407BFF"/>
<path opacity="0.3" d="M33.0666 70.2009C15.6269 70.5717 6.68809 71.5966 2.31555 72.9803C2.60854 73.196 2.93294 73.364 3.27705 73.4785C10.3604 75.7982 33.4179 80.0833 101.639 74.6295C102.058 74.5828 102.454 74.4139 102.779 74.1434C103.104 73.8729 103.344 73.5125 103.471 73.106C96.1309 70.7633 59.3893 69.6412 33.0666 70.2009Z" fill="black"/>
<path d="M102.775 72.6193C102.563 72.5902 102.372 72.4772 102.243 72.3052C102.114 72.1332 102.057 71.9163 102.086 71.7023L102.835 66.1473C102.864 65.9332 102.975 65.7395 103.145 65.6087C103.315 65.4779 103.529 65.4208 103.741 65.4499C103.801 65.458 103.859 65.4781 103.912 65.509C103.964 65.5399 104.01 65.5811 104.047 65.6301C104.084 65.6791 104.111 65.735 104.126 65.7945C104.142 65.8541 104.145 65.9162 104.137 65.9772L103.296 72.2179C103.279 72.3409 103.215 72.4521 103.117 72.5273C103.019 72.6025 102.896 72.6356 102.775 72.6193Z" fill="#263238"/>
<g opacity="0.4">
<path d="M3.07227 67.2457C3.02578 67.2253 2.98379 67.1957 2.94878 67.1586C2.91377 67.1215 2.88644 67.0777 2.8684 67.0298C2.85036 66.9819 2.84198 66.9308 2.84374 66.8795C2.84551 66.8282 2.85739 66.7778 2.87868 66.7313C5.01236 62.147 9.59198 58.5364 16.5041 55.9932C16.5512 55.9757 16.6013 55.9678 16.6514 55.97C16.7016 55.9721 16.7508 55.9843 16.7963 56.0059C16.8417 56.0275 16.8825 56.0579 16.9163 56.0955C16.95 56.1331 16.9761 56.1772 16.9929 56.225C17.0261 56.321 17.0203 56.4264 16.9768 56.5181C16.9334 56.6098 16.8558 56.6804 16.7611 56.7143C10.0585 59.1847 5.62782 62.6496 3.56917 67.0528C3.52783 67.1445 3.4526 67.216 3.35967 67.2521C3.26674 67.2882 3.16354 67.2859 3.07227 67.2457Z" fill="#263238"/>
<path d="M4.73699 67.8942C4.69154 67.8715 4.65103 67.8398 4.61784 67.801C4.58466 67.7623 4.55948 67.7172 4.54378 67.6684C4.52809 67.6196 4.52219 67.5681 4.52644 67.517C4.53069 67.4658 4.54501 67.4161 4.56854 67.3706C6.73518 63.29 10.9081 60.0129 17.0297 57.6204C17.0768 57.6023 17.127 57.5937 17.1774 57.5953C17.2278 57.5968 17.2773 57.6084 17.3233 57.6294C17.3692 57.6504 17.4106 57.6804 17.4451 57.7176C17.4795 57.7548 17.5064 57.7986 17.5241 57.8464C17.5415 57.8933 17.5497 57.9433 17.548 57.9935C17.5464 58.0436 17.535 58.093 17.5145 58.1386C17.494 58.1843 17.4649 58.2255 17.4287 58.2597C17.3925 58.294 17.3499 58.3207 17.3035 58.3383C11.3689 60.6613 7.31736 63.8161 5.2485 67.7266C5.22581 67.7716 5.19458 67.8117 5.15658 67.8445C5.11859 67.8773 5.07458 67.9022 5.02707 67.9178C4.97956 67.9333 4.92948 67.9393 4.87971 67.9352C4.82993 67.9312 4.78144 67.9172 4.73699 67.8942Z" fill="#263238"/>
<path d="M6.39958 68.5398C6.35603 68.5139 6.31796 68.4796 6.28758 68.4387C6.2572 68.3979 6.2351 68.3513 6.22256 68.3018C6.21002 68.2523 6.20729 68.2007 6.21453 68.1501C6.22176 68.0995 6.23882 68.0509 6.26471 68.007C8.44169 64.4247 12.2275 61.4835 17.5421 59.2507C17.5886 59.2313 17.6385 59.2214 17.6888 59.2216C17.7391 59.2217 17.7889 59.2319 17.8353 59.2516C17.8817 59.2712 17.9238 59.2999 17.9592 59.3361C17.9947 59.3723 18.0227 59.4151 18.0418 59.4623C18.0785 59.5564 18.0772 59.6614 18.038 59.7545C17.9989 59.8476 17.9251 59.9213 17.8326 59.9597C12.6715 62.1294 9.00165 64.9656 6.91455 68.4035C6.86298 68.4894 6.78041 68.5517 6.68431 68.5771C6.58821 68.6026 6.48611 68.5892 6.39958 68.5398Z" fill="#263238"/>
</g>
<path d="M58.107 52.9802L56.5006 46.8969C56.4689 46.7766 56.4733 46.6494 56.5133 46.5316C56.5533 46.4138 56.627 46.3108 56.7251 46.2356C56.8232 46.1605 56.9412 46.1166 57.064 46.1096C57.1869 46.1027 57.3089 46.1329 57.4147 46.1965L58.0531 46.5819C58.1206 46.622 58.18 46.6749 58.2279 46.7377L61.6219 51.2244C61.6772 51.2985 61.7157 51.384 61.7345 51.4748C61.7533 51.5657 61.752 51.6597 61.7308 51.75C61.7095 51.8403 61.6688 51.9247 61.6115 51.9972C61.5543 52.0697 61.4819 52.1285 61.3995 52.1694L58.9788 53.3606C58.8979 53.4013 58.8092 53.4237 58.7189 53.4262C58.6285 53.4288 58.5387 53.4113 58.4558 53.3751C58.3728 53.3389 58.2986 53.2848 58.2383 53.2166C58.1781 53.1484 58.1333 53.0677 58.107 52.9802Z" fill="#407BFF"/>
<path opacity="0.6" d="M58.107 52.9802L56.5006 46.8969C56.4689 46.7766 56.4733 46.6494 56.5133 46.5316C56.5533 46.4138 56.627 46.3108 56.7251 46.2356C56.8232 46.1605 56.9412 46.1166 57.064 46.1096C57.1869 46.1027 57.3089 46.1329 57.4147 46.1965L58.0531 46.5819C58.1206 46.622 58.18 46.6749 58.2279 46.7377L61.6219 51.2244C61.6772 51.2985 61.7157 51.384 61.7345 51.4748C61.7533 51.5657 61.752 51.6597 61.7308 51.75C61.7095 51.8403 61.6688 51.9247 61.6115 51.9972C61.5543 52.0697 61.4819 52.1285 61.3995 52.1694L58.9788 53.3606C58.8979 53.4013 58.8092 53.4237 58.7189 53.4262C58.6285 53.4288 58.5387 53.4113 58.4558 53.3751C58.3728 53.3389 58.2986 53.2848 58.2383 53.2166C58.1781 53.1484 58.1333 53.0677 58.107 52.9802Z" fill="white"/>
<path d="M37.7617 67.9301L43.1061 67.8164C45.2917 67.7699 47.0682 68.0798 47.0771 68.507C47.0859 68.9342 45.3238 69.3164 43.1382 69.3629L37.7938 69.4765L37.7617 67.9301Z" fill="#263238"/>
<path d="M37.8535 72.4298L43.1979 72.3162C45.3835 72.2697 47.16 72.5795 47.1689 73.0067C47.1777 73.4339 45.4156 73.8162 43.23 73.8626L37.8856 73.9763L37.8535 72.4298Z" fill="#263238"/>
<g opacity="0.5">
<path d="M37.7617 67.9301L43.1061 67.8164C45.2917 67.7699 47.0682 68.0798 47.0771 68.507C47.0859 68.9342 45.3238 69.3164 43.1382 69.3629L37.7938 69.4765L37.7617 67.9301Z" fill="white"/>
<path d="M37.8555 72.4301L43.1999 72.3164C45.3855 72.2699 47.162 72.5798 47.1708 73.007C47.1797 73.4342 45.4176 73.8164 43.232 73.8629L37.8875 73.9765L37.8555 72.4301Z" fill="white"/>
</g>
<path d="M70.8335 68.6254C71.7126 64.4654 69.0945 60.3715 64.986 59.4815C60.8774 58.5914 56.8341 61.2422 55.955 65.4022C55.0759 69.5621 57.694 73.656 61.8025 74.5461C65.9111 75.4361 69.9544 72.7853 70.8335 68.6254Z" fill="#407BFF"/>
<path opacity="0.9" d="M70.8335 68.6254C71.7126 64.4654 69.0945 60.3715 64.986 59.4815C60.8774 58.5914 56.8341 61.2422 55.955 65.4022C55.0759 69.5621 57.694 73.656 61.8025 74.5461C65.9111 75.4361 69.9544 72.7853 70.8335 68.6254Z" fill="white"/>
<path d="M66.68 69.2041L65.2876 69.2337L64.8443 71.061L62.9175 71.1019L63.3608 69.2747L58.759 69.3725L59.0854 68.015L64.4539 62.4131L66.5297 62.369L61.5239 67.6811L63.8192 67.6323L64.2131 66.0027L66.0809 65.9629L65.6869 67.5926L67.0793 67.563L66.68 69.2041Z" fill="#263238"/>
<path opacity="0.2" d="M88.6643 68.2666C88.7285 71.3624 87.441 74.1422 85.7848 74.4737C84.1285 74.8053 63.5935 76.4044 63.5293 73.3086C63.4651 70.2128 83.9043 63.5896 85.5522 63.2582C87.2 62.9268 88.6 65.1679 88.6643 68.2666Z" fill="black"/>
<path d="M100.406 71.0451C100.795 65.1112 96.3592 59.9816 90.4986 59.5878C84.638 59.1939 79.5717 63.6851 79.1828 69.619C78.7938 75.5529 83.2295 80.6825 89.0901 81.0763C94.9507 81.4702 100.017 76.979 100.406 71.0451Z" fill="#263238"/>
<path opacity="0.5" d="M96.8817 70.8084C97.1415 66.8446 94.1785 63.4181 90.2637 63.155C86.3488 62.8919 82.9646 65.892 82.7048 69.8558C82.445 73.8196 85.408 77.2461 89.3228 77.5092C93.2376 77.7722 96.6218 74.7722 96.8817 70.8084Z" fill="white"/>
<path opacity="0.5" d="M95.9021 70.7424C96.1259 67.328 93.5737 64.3764 90.2015 64.1498C86.8293 63.9232 83.9142 66.5074 83.6904 69.9218C83.4666 73.3361 86.0188 76.2877 89.391 76.5143C92.7632 76.7409 95.6783 74.1567 95.9021 70.7424Z" fill="white"/>
<g opacity="0.5">
<path d="M85.7483 73.9188C84.9136 72.9507 84.4432 71.7152 84.4201 70.4303C84.3971 69.1453 84.8228 67.8934 85.6223 66.8952C85.6959 66.8076 85.7873 66.7371 85.8903 66.6885C85.9933 66.64 86.1054 66.6146 86.219 66.6141C86.3326 66.6136 86.445 66.638 86.5484 66.6855C86.6518 66.7331 86.7439 66.8027 86.8182 66.8897L87.1068 67.2369C87.2283 67.3794 87.2969 67.5603 87.3008 67.7485C87.3047 67.9367 87.2437 68.1203 87.1282 68.2679C86.8019 68.7002 86.583 69.2057 86.4899 69.7416C86.3969 70.2776 86.4324 70.8283 86.5935 71.3475C86.7546 71.8666 87.0366 72.3389 87.4156 72.7247C87.7947 73.1104 88.2598 73.3982 88.7717 73.5639C88.9456 73.6186 89.0954 73.7324 89.196 73.886C89.2966 74.0395 89.3418 74.2236 89.3239 74.407L89.2715 74.864C89.2595 74.982 89.2219 75.0958 89.1612 75.1972C89.1005 75.2986 89.0183 75.3851 88.9206 75.4505C88.8228 75.5158 88.712 75.5583 88.596 75.575C88.48 75.5916 88.3619 75.582 88.25 75.5467C87.2814 75.2535 86.4142 74.6892 85.7483 73.9188Z" fill="white"/>
</g>
<g opacity="0.5">
<path d="M91.2152 74.6773L91.0738 74.2387C91.0178 74.0593 91.0251 73.8658 91.0944 73.6913C91.1636 73.5168 91.2906 73.372 91.4536 73.2818C91.6132 73.1842 91.8015 73.1461 91.9859 73.1739C92.1704 73.2017 92.3395 73.2937 92.4642 73.4341L92.7528 73.7813C92.8281 73.8672 92.8842 73.9686 92.9171 74.0785C92.9501 74.1885 92.9591 74.3043 92.9435 74.4181C92.9279 74.5319 92.8882 74.641 92.827 74.7377C92.7658 74.8345 92.6846 74.9167 92.5891 74.9786L92.3111 75.1469C92.2098 75.1972 92.099 75.2249 91.9862 75.228C91.8734 75.2312 91.7612 75.2098 91.6573 75.1653C91.5534 75.1208 91.4601 75.0541 91.3839 74.9699C91.3076 74.8858 91.25 74.786 91.2152 74.6773Z" fill="white"/>
</g>
<g opacity="0.5">
<path d="M93.7254 71.3842C93.5473 71.3335 93.3921 71.2218 93.2863 71.0682C93.1805 70.9146 93.1306 70.7285 93.1451 70.5418C93.1919 69.7913 92.9911 69.0463 92.5743 68.4239C92.1574 67.8015 91.5482 67.3369 90.8422 67.1032C90.6692 67.0475 90.5203 66.9335 90.4203 66.78C90.3203 66.6266 90.2753 66.4431 90.2929 66.2601L90.3481 65.8031C90.3624 65.6865 90.4017 65.5746 90.4634 65.4751C90.525 65.3756 90.6074 65.2911 90.7048 65.2273C90.8023 65.1636 90.9123 65.1223 91.0272 65.1062C91.1421 65.0902 91.259 65.0999 91.3698 65.1346C92.5443 65.4983 93.5606 66.2578 94.2499 67.287C94.9393 68.3161 95.2603 69.5531 95.1596 70.7924C95.1511 70.9098 95.1172 71.0238 95.0604 71.1264C95.0036 71.2291 94.9253 71.3178 94.8309 71.3864C94.7365 71.455 94.6283 71.5018 94.5141 71.5234C94.3999 71.545 94.2824 71.541 94.1699 71.5116L93.7254 71.3842Z" fill="white"/>
</g>
<path d="M90.9486 71.6684C90.6873 71.9 90.3641 72.048 90.0198 72.0936C89.6755 72.1392 89.3255 72.0804 89.0142 71.9246C88.7029 71.7688 88.4442 71.5231 88.2709 71.2184C88.0975 70.9138 88.0173 70.5639 88.0403 70.2131C88.0634 69.8623 88.1886 69.5263 88.4003 69.2476C88.6119 68.9689 88.9005 68.7599 89.2294 68.6472C89.5583 68.5346 89.9129 68.5232 90.2482 68.6145C90.5835 68.7059 90.8845 68.8958 91.1132 69.1604C91.4198 69.5151 91.5747 69.9786 91.5438 70.4489C91.5129 70.9193 91.2988 71.3579 90.9486 71.6684Z" fill="#263238"/>
<path opacity="0.5" d="M90.9486 71.6684C90.6873 71.9 90.3641 72.048 90.0198 72.0936C89.6755 72.1392 89.3255 72.0804 89.0142 71.9246C88.7029 71.7688 88.4442 71.5231 88.2709 71.2184C88.0975 70.9138 88.0173 70.5639 88.0403 70.2131C88.0634 69.8623 88.1886 69.5263 88.4003 69.2476C88.6119 68.9689 88.9005 68.7599 89.2294 68.6472C89.5583 68.5346 89.9129 68.5232 90.2482 68.6145C90.5835 68.7059 90.8845 68.8958 91.1132 69.1604C91.4198 69.5151 91.5747 69.9786 91.5438 70.4489C91.5129 70.9193 91.2988 71.3579 90.9486 71.6684Z" fill="white"/>
<path d="M78.1724 69.5495C78.3773 66.4288 79.7981 63.5183 82.1222 61.4582C84.4464 59.398 87.4836 58.357 90.5658 58.5641C90.5331 59.0877 90.3211 59.5834 89.9665 59.9659C89.6118 60.3484 89.1366 60.5937 88.6225 60.6598C86.7101 60.9016 84.9133 61.7185 83.4641 63.0048C82.015 64.2912 80.9801 65.988 80.4931 67.8761C80.3607 68.3858 80.0559 68.8323 79.6319 69.1381C79.2079 69.4438 78.6915 69.5894 78.1724 69.5495Z" fill="#407BFF"/>
<g opacity="0.4">
<path d="M78.1724 69.5495C78.3773 66.4288 79.7981 63.5183 82.1222 61.4582C84.4464 59.398 87.4836 58.357 90.5658 58.5641C90.5331 59.0877 90.3211 59.5834 89.9665 59.9659C89.6118 60.3484 89.1366 60.5937 88.6225 60.6598C86.7101 60.9016 84.9133 61.7185 83.4641 63.0048C82.015 64.2912 80.9801 65.988 80.4931 67.8761C80.3607 68.3858 80.0559 68.8323 79.6319 69.1381C79.2079 69.4438 78.6915 69.5894 78.1724 69.5495Z" fill="white"/>
</g>
<path d="M32.4323 45.2232L31.9626 45.2332C31.6208 45.2404 31.3496 45.5269 31.3567 45.8729L31.4761 51.6259C31.4832 51.972 31.7661 52.2466 32.1079 52.2393L32.5776 52.2293C32.9194 52.2221 33.1906 51.9357 33.1835 51.5896L33.0641 45.8366C33.057 45.4906 32.7741 45.2159 32.4323 45.2232Z" fill="#263238"/>
<path opacity="0.4" d="M32.4323 45.2232L31.9626 45.2332C31.6208 45.2404 31.3496 45.5269 31.3567 45.8729L31.4761 51.6259C31.4832 51.972 31.7661 52.2466 32.1079 52.2393L32.5776 52.2293C32.9194 52.2221 33.1906 51.9357 33.1835 51.5896L33.0641 45.8366C33.057 45.4906 32.7741 45.2159 32.4323 45.2232Z" fill="white"/>
<path d="M57.3884 56.3433C57.5761 56.3479 57.7628 56.3139 57.9372 56.2434C58.1116 56.1728 58.2701 56.0673 58.4031 55.933C58.536 55.7988 58.6408 55.6387 58.7109 55.4623C58.7811 55.286 58.8153 55.097 58.8113 54.9069C58.8074 54.7168 58.7654 54.5295 58.688 54.3563C58.6106 54.1831 58.4993 54.0276 58.3609 53.8991C58.2224 53.7706 58.0597 53.6719 57.8826 53.6088C57.7054 53.5458 57.5175 53.5198 57.3301 53.5323L57.3884 56.3433Z" fill="#263238"/>
<path d="M59.2775 55.9841L58.5026 55.2569L58.4902 54.6616L59.7179 55.3763C59.7739 55.4088 59.8205 55.4554 59.8533 55.5117C59.886 55.568 59.9038 55.6319 59.9047 55.6972C59.9062 55.7714 59.8862 55.8444 59.847 55.9072C59.8079 55.97 59.7514 56.0197 59.6846 56.0503C59.6178 56.0808 59.5436 56.0908 59.4712 56.0791C59.3988 56.0673 59.3315 56.0343 59.2775 55.9841Z" fill="#263238"/>
<path d="M57.4041 57.0383C57.234 57.0419 57.0694 56.977 56.9466 56.8577C56.8238 56.7385 56.7528 56.5748 56.7493 56.4026L56.6892 53.509C56.6857 53.3368 56.7498 53.1701 56.8676 53.0458C56.9853 52.9215 57.147 52.8496 57.3171 52.846C57.4858 52.8446 57.6482 52.9106 57.7692 53.0296C57.8901 53.1487 57.9599 53.3111 57.9635 53.4819L58.0235 56.3755C58.027 56.5462 57.964 56.7115 57.8481 56.8356C57.7322 56.9596 57.5726 57.0325 57.4041 57.0383Z" fill="#263238"/>
<path opacity="0.5" d="M57.4041 57.0383C57.234 57.0419 57.0694 56.977 56.9466 56.8577C56.8238 56.7385 56.7528 56.5748 56.7493 56.4026L56.6892 53.509C56.6857 53.3368 56.7498 53.1701 56.8676 53.0458C56.9853 52.9215 57.147 52.8496 57.3171 52.846C57.4858 52.8446 57.6482 52.9106 57.7692 53.0296C57.8901 53.1487 57.9599 53.3111 57.9635 53.4819L58.0235 56.3755C58.027 56.5462 57.964 56.7115 57.8481 56.8356C57.7322 56.9596 57.5726 57.0325 57.4041 57.0383Z" fill="white"/>
<path d="M29.8124 52.1685L25.158 42.8136L17.3945 42.9786L19.8789 54.2175C19.9568 54.4719 20.1271 54.6869 20.3555 54.8191C20.5839 54.9512 20.8534 54.9906 21.1094 54.9293L29.0618 53.4296C29.7179 53.3103 30.0879 52.6983 29.8124 52.1685ZM24.9918 44.7062L27.4174 49.5839C27.5201 49.7868 27.237 49.9724 27.0454 49.8283L23.5587 47.2497C23.522 47.2242 23.4951 47.1864 23.4829 47.143C23.4707 47.0995 23.4739 47.0531 23.4919 47.0118L24.5529 44.7098C24.5748 44.6706 24.6065 44.6379 24.6449 44.615C24.6832 44.5921 24.7268 44.5799 24.7713 44.5795C24.8158 44.5791 24.8597 44.5906 24.8984 44.6129C24.9371 44.6351 24.9693 44.6673 24.9918 44.7062ZM22.7812 46.6651L19.4431 44.1945C19.2773 44.0698 19.3736 43.8284 19.593 43.8237L24.1189 43.7275C24.154 43.7237 24.1895 43.7289 24.2222 43.7426C24.2548 43.7564 24.2835 43.7782 24.3057 43.8061C24.3278 43.834 24.3427 43.867 24.3489 43.9023C24.3552 43.9375 24.3526 43.9737 24.3414 44.0077L23.1564 46.5744C23.1397 46.609 23.1156 46.6393 23.0858 46.6632C23.0561 46.6871 23.0215 46.704 22.9845 46.7127C22.9475 46.7214 22.909 46.7217 22.8719 46.7135C22.8348 46.7053 22.8 46.6888 22.7699 46.6653L22.7812 46.6651ZM19.2267 44.6179L22.6877 47.1799C22.7254 47.2047 22.753 47.2424 22.7653 47.2862C22.7775 47.3299 22.7738 47.3767 22.7546 47.4178L20.802 51.6449C20.7796 51.6884 20.745 51.7242 20.7025 51.748C20.6601 51.7717 20.6118 51.7824 20.5634 51.7785C20.5151 51.7747 20.469 51.7566 20.4307 51.7265C20.3925 51.6963 20.3638 51.6555 20.3482 51.609L18.8398 44.8199C18.7964 44.6271 19.0554 44.499 19.2267 44.6179ZM28.8663 52.5505L20.9138 54.0474L20.8853 54.0309L20.6899 53.1575C20.6806 53.117 20.6857 53.0745 20.7043 53.0375L23.1042 47.8577C23.1217 47.8257 23.1457 47.7979 23.1746 47.776C23.2036 47.7542 23.2368 47.7389 23.2721 47.7311C23.3074 47.7233 23.3439 47.7233 23.3792 47.731C23.4145 47.7387 23.4478 47.7539 23.4768 47.7757L28.2467 51.3043C28.273 51.3246 28.2946 51.3504 28.3102 51.3799L28.8828 52.5331L28.8663 52.5505Z" fill="#263238"/>
<path opacity="0.5" d="M29.8124 52.1685L25.158 42.8136L17.3945 42.9786L19.8789 54.2175C19.9568 54.4719 20.1271 54.6869 20.3555 54.8191C20.5839 54.9512 20.8534 54.9906 21.1094 54.9293L29.0618 53.4296C29.7179 53.3103 30.0879 52.6983 29.8124 52.1685ZM24.9918 44.7062L27.4174 49.5839C27.5201 49.7868 27.237 49.9724 27.0454 49.8283L23.5587 47.2497C23.522 47.2242 23.4951 47.1864 23.4829 47.143C23.4707 47.0995 23.4739 47.0531 23.4919 47.0118L24.5529 44.7098C24.5748 44.6706 24.6065 44.6379 24.6449 44.615C24.6832 44.5921 24.7268 44.5799 24.7713 44.5795C24.8158 44.5791 24.8597 44.5906 24.8984 44.6129C24.9371 44.6351 24.9693 44.6673 24.9918 44.7062ZM22.7812 46.6651L19.4431 44.1945C19.2773 44.0698 19.3736 43.8284 19.593 43.8237L24.1189 43.7275C24.154 43.7237 24.1895 43.7289 24.2222 43.7426C24.2548 43.7564 24.2835 43.7782 24.3057 43.8061C24.3278 43.834 24.3427 43.867 24.3489 43.9023C24.3552 43.9375 24.3526 43.9737 24.3414 44.0077L23.1564 46.5744C23.1397 46.609 23.1156 46.6393 23.0858 46.6632C23.0561 46.6871 23.0215 46.704 22.9845 46.7127C22.9475 46.7214 22.909 46.7217 22.8719 46.7135C22.8348 46.7053 22.8 46.6888 22.7699 46.6653L22.7812 46.6651ZM19.2267 44.6179L22.6877 47.1799C22.7254 47.2047 22.753 47.2424 22.7653 47.2862C22.7775 47.3299 22.7738 47.3767 22.7546 47.4178L20.802 51.6449C20.7796 51.6884 20.745 51.7242 20.7025 51.748C20.6601 51.7717 20.6118 51.7824 20.5634 51.7785C20.5151 51.7747 20.469 51.7566 20.4307 51.7265C20.3925 51.6963 20.3638 51.6555 20.3482 51.609L18.8398 44.8199C18.7964 44.6271 19.0554 44.499 19.2267 44.6179ZM28.8663 52.5505L20.9138 54.0474L20.8853 54.0309L20.6899 53.1575C20.6806 53.117 20.6857 53.0745 20.7043 53.0375L23.1042 47.8577C23.1217 47.8257 23.1457 47.7979 23.1746 47.776C23.2036 47.7542 23.2368 47.7389 23.2721 47.7311C23.3074 47.7233 23.3439 47.7233 23.3792 47.731C23.4145 47.7387 23.4478 47.7539 23.4768 47.7757L28.2467 51.3043C28.273 51.3246 28.2946 51.3504 28.3102 51.3799L28.8828 52.5331L28.8663 52.5505Z" fill="white"/>
<path opacity="0.2" d="M17.3949 42.9786L17.7859 44.734L18.8395 44.7914C18.8424 44.7473 18.8572 44.7048 18.8822 44.6686C18.9072 44.6324 18.9415 44.6038 18.9815 44.5859C19.0214 44.568 19.0654 44.5616 19.1087 44.5672C19.152 44.5728 19.1929 44.5904 19.2271 44.6179L19.4958 44.8173L20.3409 44.8621L19.4292 44.1862C19.2634 44.0615 19.3597 43.8201 19.5791 43.8155L24.105 43.7192C24.1401 43.7154 24.1757 43.7207 24.2083 43.7344C24.2409 43.7481 24.2697 43.7699 24.2918 43.7978C24.314 43.8257 24.3288 43.8588 24.3351 43.894C24.3413 43.9292 24.3387 43.9655 24.3275 43.9994L23.8561 45.0181L24.3913 45.0438L24.5502 44.6985C24.5716 44.659 24.6029 44.6258 24.6409 44.6025C24.679 44.5791 24.7225 44.5663 24.767 44.5654C24.8114 44.5644 24.8554 44.5754 24.8944 44.5971C24.9334 44.6188 24.966 44.6506 24.989 44.6891L25.1799 45.0754C25.6221 45.0917 25.9995 45.1064 26.3064 45.1142L25.1524 42.7966L17.3949 42.9786Z" fill="black"/>
<path d="M27.4277 42.7654C27.5861 43.4857 27.0525 44.0812 26.2312 44.0987C25.4098 44.1161 10.68 43.3979 10.5188 42.6804C10.3576 41.963 24.8467 41.521 25.6539 41.5038C26.4612 41.4867 27.2693 42.0479 27.4277 42.7654Z" fill="#407BFF"/>
<path opacity="0.2" d="M26.8795 43.2557C26.106 43.2721 17.4374 43.0804 10.6152 42.7695C11.9015 43.4574 25.4453 44.1153 26.2301 44.0986C26.877 44.0849 27.3476 43.7102 27.4356 43.2011C27.2518 43.2329 27.0659 43.2511 26.8795 43.2557Z" fill="black"/>
<path d="M49.7774 63.2608L40.3684 63.4609C38.301 63.5049 36.4483 61.9629 35.8641 59.713L33.7197 51.433C33.7013 51.3601 33.7121 51.2828 33.7498 51.2179C33.7874 51.153 33.8489 51.1059 33.9208 51.0868C33.9566 51.0771 33.994 51.0747 34.0307 51.0797C34.0675 51.0847 34.1029 51.0971 34.135 51.116C34.167 51.1349 34.195 51.16 34.2174 51.1899C34.2398 51.2199 34.2562 51.254 34.2655 51.2903L36.4069 59.5618C36.9265 61.5453 38.5481 62.9355 40.3568 62.897L49.7657 62.6969C51.3072 62.6642 52.7119 61.6 53.3424 59.9824L56.7146 51.3401C56.728 51.3052 56.7481 51.2732 56.7738 51.2462C56.7995 51.2191 56.8301 51.1975 56.8641 51.1825C56.898 51.1675 56.9345 51.1594 56.9716 51.1587C57.0086 51.158 57.0454 51.1647 57.0799 51.1785C57.1491 51.2065 57.2045 51.2612 57.2339 51.3306C57.2633 51.3999 57.2643 51.4783 57.2367 51.5484L53.8646 60.1936C53.1511 62.0181 51.5467 63.2232 49.7774 63.2608Z" fill="#263238"/>
<path d="M36.649 77.371C39.7638 72.3292 38.2522 65.6854 33.2726 62.5316C28.2931 59.3778 21.7313 60.9084 18.6165 65.9502C15.5016 70.992 17.0133 77.6359 21.9928 80.7897C26.9724 83.9434 33.5342 82.4129 36.649 77.371Z" fill="#263238"/>
<path opacity="0.5" d="M30.3658 78.2902C33.9897 76.7679 35.7087 72.5593 34.2051 68.8901C32.7016 65.2208 28.545 63.4804 24.9211 65.0027C21.2971 66.5251 19.5782 70.7337 21.0818 74.4029C22.5853 78.0721 26.7419 79.8126 30.3658 78.2902Z" fill="white"/>
<path opacity="0.5" d="M31.9724 76.0226C34.3582 73.5991 34.3519 69.6761 31.9583 67.2604C29.5647 64.8447 25.6902 64.8511 23.3043 67.2746C20.9185 69.6982 20.9248 73.6211 23.3184 76.0368C25.712 78.4525 29.5865 78.4462 31.9724 76.0226Z" fill="white"/>
<g opacity="0.5">
<path d="M23.5901 75.2405C22.7554 74.2724 22.285 73.0369 22.2619 71.7519C22.2389 70.467 22.6646 69.215 23.4641 68.2168C23.5377 68.1292 23.6291 68.0587 23.7321 68.0102C23.8351 67.9617 23.9472 67.9363 24.0608 67.9358C24.1744 67.9353 24.2868 67.9596 24.3902 68.0072C24.4936 68.0547 24.5857 68.1244 24.66 68.2114L24.9486 68.5585C25.0696 68.7013 25.1378 68.8821 25.1417 69.0702C25.1456 69.2582 25.0849 69.4418 24.97 69.5895C24.6429 70.0213 24.4232 70.5264 24.3294 71.0622C24.2357 71.598 24.2705 72.1488 24.4311 72.6681C24.5917 73.1874 24.8733 73.66 25.2522 74.0459C25.631 74.4319 26.096 74.7199 26.6079 74.8857C26.7817 74.9404 26.9316 75.0541 27.0322 75.2077C27.1328 75.3613 27.1779 75.5454 27.1601 75.7288L27.1076 76.1858C27.0957 76.3037 27.058 76.4175 26.9973 76.519C26.9367 76.6204 26.8545 76.7069 26.7567 76.7722C26.659 76.8376 26.5481 76.8801 26.4322 76.8967C26.3162 76.9134 26.198 76.9038 26.0862 76.8685C25.1196 76.5742 24.2544 76.01 23.5901 75.2405Z" fill="white"/>
</g>
<g opacity="0.5">
<path d="M29.0578 75.9989L28.9136 75.5603C28.8577 75.381 28.8649 75.1875 28.9342 75.013C29.0035 74.8385 29.1304 74.6937 29.2934 74.6034C29.4531 74.5059 29.6413 74.4677 29.8258 74.4955C30.0102 74.5233 30.1793 74.6153 30.304 74.7557L30.5926 75.1029C30.668 75.1888 30.7241 75.2902 30.757 75.4002C30.7899 75.5101 30.7989 75.626 30.7834 75.7398C30.7678 75.8536 30.728 75.9626 30.6669 76.0594C30.6057 76.1562 30.5245 76.2383 30.4289 76.3003C30.3344 76.3592 30.2343 76.4155 30.1369 76.4689C30.0365 76.5171 29.9271 76.5432 29.8159 76.5453C29.7048 76.5474 29.5945 76.5254 29.4924 76.481C29.3903 76.4365 29.2987 76.3705 29.2238 76.2874C29.1488 76.2042 29.0923 76.1059 29.0578 75.9989Z" fill="white"/>
</g>
<g opacity="0.5">
<path d="M31.567 72.7059C31.3889 72.6552 31.2337 72.5435 31.1279 72.3899C31.022 72.2363 30.9721 72.0502 30.9867 71.8635C31.0335 71.113 30.8327 70.368 30.4158 69.7456C29.999 69.1232 29.3897 68.6586 28.6838 68.4249C28.5107 68.3696 28.3618 68.2555 28.2622 68.1019C28.1626 67.9483 28.1185 67.7645 28.1372 67.5818L28.1897 67.1248C28.204 67.0082 28.2433 66.8963 28.3049 66.7968C28.3666 66.6973 28.449 66.6128 28.5464 66.549C28.6438 66.4853 28.7538 66.444 28.8687 66.4279C28.9836 66.4119 29.1006 66.4216 29.2114 66.4563C30.3859 66.82 31.4021 67.5795 32.0915 68.6087C32.7808 69.6378 33.1018 70.8748 33.0011 72.1141C32.9926 72.2315 32.9588 72.3455 32.902 72.4481C32.8452 72.5508 32.7668 72.6395 32.6724 72.7081C32.578 72.7767 32.4699 72.8235 32.3557 72.8451C32.2414 72.8667 32.1239 72.8627 32.0114 72.8333L31.567 72.7059Z" fill="white"/>
</g>
<path d="M28.7904 72.9901C28.5291 73.2217 28.2059 73.3696 27.8616 73.4152C27.5173 73.4608 27.1673 73.402 26.856 73.2463C26.5447 73.0905 26.286 72.8447 26.1127 72.5401C25.9393 72.2354 25.8591 71.8856 25.8821 71.5348C25.9052 71.184 26.0304 70.848 26.2421 70.5692C26.4537 70.2905 26.7423 70.0816 27.0712 69.9689C27.4001 69.8562 27.7547 69.8448 28.09 69.9362C28.4253 70.0275 28.7263 70.2175 28.955 70.4821C29.2616 70.8368 29.4165 71.3003 29.3856 71.7706C29.3547 72.2409 29.1406 72.6796 28.7904 72.9901Z" fill="#263238"/>
<path opacity="0.5" d="M28.7904 72.9901C28.5291 73.2217 28.2059 73.3696 27.8616 73.4152C27.5173 73.4608 27.1673 73.402 26.856 73.2463C26.5447 73.0905 26.286 72.8447 26.1127 72.5401C25.9393 72.2354 25.8591 71.8856 25.8821 71.5348C25.9052 71.184 26.0304 70.848 26.2421 70.5692C26.4537 70.2905 26.7423 70.0816 27.0712 69.9689C27.4001 69.8562 27.7547 69.8448 28.09 69.9362C28.4253 70.0275 28.7263 70.2175 28.955 70.4821C29.2616 70.8368 29.4165 71.3003 29.3856 71.7706C29.3547 72.2409 29.1406 72.6796 28.7904 72.9901Z" fill="white"/>
<path d="M35.516 63.3305C35.1316 63.7331 34.6217 63.9891 34.0725 64.0553C33.5232 64.1215 32.9682 63.9938 32.5012 63.6937C30.9826 62.7439 29.2252 62.2588 27.4406 62.2967C25.656 62.3346 23.9203 62.8941 22.4424 63.9076C21.9883 64.2273 21.4391 64.3785 20.8876 64.3357C20.3361 64.2929 19.816 64.0588 19.4152 63.6728L18.9529 63.2239C21.161 60.8931 24.193 59.5457 27.3822 59.4779C30.5713 59.4101 33.6565 60.6274 35.9594 62.8623L35.516 63.3305Z" fill="#407BFF"/>
<g opacity="0.4">
<path d="M35.516 63.3304C35.1316 63.733 34.6217 63.989 34.0725 64.0552C33.5232 64.1214 32.9682 63.9937 32.5012 63.6936C30.9826 62.7438 29.2252 62.2586 27.4406 62.2966C25.656 62.3345 23.9203 62.894 22.4424 63.9075C21.9883 64.2271 21.4391 64.3783 20.8876 64.3356C20.3361 64.2928 19.816 64.0587 19.4152 63.6727L18.9529 63.2238C21.161 60.893 24.193 59.5456 27.3822 59.4778C30.5713 59.41 33.6565 60.6273 35.9594 62.8622L35.516 63.3304Z" fill="white"/>
</g>
</svg>
