<svg width="75" height="58" viewBox="0 0 75 58" fill="none" xmlns="http://www.w3.org/2000/svg">
<path d="M30.268 32.8453C30.0445 32.8453 29.8211 32.7594 29.6578 32.5789C29.3398 32.2437 29.357 31.7195 29.6922 31.4016L53.1617 9.35859L53.3078 2.92187L46.8969 2.68125L44.525 4.90703L45.6594 10.1836C45.6594 10.2008 45.6766 10.2781 45.6766 10.3039C45.7195 10.5875 45.6078 10.8625 45.393 11.0516C45.1781 11.2406 44.8859 11.3008 44.6109 11.2234L39.4375 9.69375L37.1258 11.868L37.4094 14.4031C37.4351 14.6609 37.3406 14.9187 37.1516 15.0992L33.757 18.2789C33.568 18.4508 33.3101 18.5367 33.0609 18.4937L30.4828 18.0984L23.4016 24.7414C23.0664 25.0594 22.5422 25.0422 22.2242 24.707C21.9062 24.3719 21.9234 23.8477 22.2586 23.5297L29.632 16.6031C29.8211 16.4312 30.0789 16.3453 30.3281 16.3883L32.9062 16.7836L35.6992 14.1625L35.4156 11.6273C35.3898 11.3695 35.4844 11.1117 35.6734 10.9312L38.6383 8.14687C38.8531 7.94921 39.1625 7.87187 39.4461 7.95781L43.7258 9.22968L42.7719 4.8125C42.7117 4.5289 42.8062 4.22812 43.0125 4.03047L45.9773 1.24609C46.1406 1.0914 46.3555 0.996872 46.5789 1.02265L54.1586 1.30625C54.6141 1.32343 54.975 1.70156 54.9664 2.15703L54.7945 9.7625C54.7859 9.98593 54.6914 10.2008 54.5281 10.3469L30.8351 32.6219C30.6805 32.7766 30.4742 32.8453 30.268 32.8453Z" fill="#DFBA41"/>
<path d="M28.6273 29.8719C28.4039 29.8719 28.1805 29.786 28.0172 29.6055C27.6992 29.2703 27.7164 28.7461 28.0516 28.4281L53.532 4.50314C53.8672 4.18517 54.3914 4.20236 54.7094 4.53752C55.0273 4.87267 55.0101 5.39689 54.675 5.71486L29.1945 29.6485C29.0312 29.7945 28.8336 29.8719 28.6273 29.8719Z" fill="#DFBA41"/>
<path d="M16.1389 53.9945C11.842 53.9945 7.54512 52.2929 4.37402 48.9156C1.42636 45.7789 -0.129104 41.6711 0.00839589 37.3656C0.145896 33.0601 1.94199 29.064 5.0873 26.1164C8.22402 23.1687 12.3232 21.6218 16.6373 21.7507C20.9428 21.8882 24.9389 23.6843 27.8951 26.8296C30.8428 29.9664 32.3982 34.0742 32.2607 38.3796C32.1232 42.6851 30.3271 46.6812 27.1818 49.6289C24.0709 52.5507 20.1006 53.9945 16.1389 53.9945ZM16.1217 23.4093C12.4264 23.4093 8.92871 24.7929 6.23027 27.3281C3.41152 29.975 1.7959 33.5586 1.67558 37.4171C1.55527 41.2843 2.94746 44.9625 5.58574 47.7812C11.0428 53.5906 20.2209 53.8828 26.0303 48.4171C31.8396 42.9515 32.1318 33.782 26.6662 27.9726C24.0193 25.1539 20.4357 23.5382 16.5771 23.4179C16.4311 23.4093 16.2764 23.4093 16.1217 23.4093Z" fill="#DFBA41"/>
<path d="M16.1309 44.1203C14.4638 44.1203 12.8052 43.4586 11.5763 42.1523C9.22157 39.643 9.34188 35.6812 11.8513 33.3266C14.3606 30.9633 18.3223 31.0922 20.6856 33.6016C23.0403 36.1109 22.92 40.0726 20.4106 42.4273C19.2075 43.5531 17.6692 44.1203 16.1309 44.1203ZM16.1309 33.2922C15.0052 33.2922 13.8794 33.7047 12.9942 34.5297C11.1552 36.257 11.0606 39.1617 12.7966 41.0008C14.5239 42.8398 17.4286 42.9344 19.2677 41.1984C21.1067 39.4711 21.2013 36.5664 19.4653 34.7273C18.5716 33.782 17.3513 33.2922 16.1309 33.2922Z" fill="#DFBA41"/>
<path d="M57 42.25C58.2426 42.25 59.25 41.2426 59.25 40C59.25 38.7574 58.2426 37.75 57 37.75C55.7574 37.75 54.75 38.7574 54.75 40C54.75 41.2426 55.7574 42.25 57 42.25Z" fill="#1B3D6F"/>
<path d="M71.8335 37.48L70.6485 33.7C70.5205 33.2631 70.3059 32.8565 70.0174 32.5044C69.7289 32.1523 69.3724 31.8618 68.9693 31.6505C68.5661 31.4391 68.1245 31.3111 67.6708 31.274C67.2171 31.237 66.7606 31.2918 66.3285 31.435L65.8185 31.6C65.4189 31.7321 64.9934 31.7656 64.5781 31.6977C64.1628 31.6298 63.7701 31.4625 63.4335 31.21L63.2685 31.09C62.9399 30.8386 62.6751 30.5134 62.4953 30.1408C62.3156 29.7683 62.2259 29.3586 62.2335 28.945V28.525C62.2408 27.583 61.8739 26.6767 61.2135 26.005C60.8993 25.6877 60.5256 25.4355 60.1137 25.2631C59.7019 25.0906 59.26 25.0012 58.8135 25H54.9885C54.0707 25.0119 53.1948 25.3858 52.5515 26.0404C51.9081 26.695 51.5494 27.5772 51.5535 28.495V28.855C51.552 29.2904 51.4529 29.7199 51.2634 30.1119C51.0739 30.504 50.7988 30.8484 50.4585 31.12L50.2635 31.27C49.8875 31.5544 49.4477 31.7427 48.9824 31.8185C48.5171 31.8944 48.0403 31.8554 47.5935 31.705C47.1831 31.563 46.7482 31.5057 46.315 31.5367C45.8819 31.5676 45.4595 31.6861 45.0735 31.885C44.6715 32.0845 44.315 32.3645 44.026 32.7078C43.7369 33.051 43.5216 33.45 43.3935 33.88L42.1635 37.78C41.8782 38.6593 41.9514 39.6156 42.367 40.4413C42.7827 41.267 43.5073 41.8954 44.3835 42.19H44.6235C45.0277 42.3415 45.3904 42.5861 45.6823 42.9041C45.9742 43.222 46.187 43.6044 46.3035 44.02L46.3935 44.26C46.5607 44.7192 46.6166 45.2115 46.5566 45.6965C46.4967 46.1815 46.3225 46.6454 46.0485 47.05C45.4938 47.8054 45.2598 48.7492 45.3975 49.6762C45.5351 50.6032 46.0332 51.4384 46.7835 52L49.8885 54.355C50.4764 54.7825 51.1866 55.0087 51.9135 55C52.108 55.0191 52.3039 55.0191 52.4985 55C52.9486 54.9129 53.3763 54.7349 53.7554 54.477C54.1345 54.2191 54.4571 53.8867 54.7035 53.5L55.0485 53.005C55.2905 52.6579 55.6107 52.3725 55.9833 52.1718C56.3559 51.9712 56.7704 51.861 57.1935 51.85C57.6368 51.8391 58.0757 51.9407 58.4691 52.1453C58.8626 52.3499 59.1978 52.6508 59.4435 53.02L59.6235 53.275C59.8792 53.6556 60.2102 53.9799 60.596 54.2277C60.9817 54.4756 61.4142 54.6419 61.8666 54.7164C62.3191 54.7909 62.782 54.772 63.2269 54.6608C63.6718 54.5496 64.0892 54.3486 64.4535 54.07L67.4985 51.79C68.2184 51.2308 68.6972 50.4175 68.8367 49.5166C68.9761 48.6157 68.7657 47.6957 68.2485 46.945L67.8585 46.375C67.6239 46.0126 67.4704 45.6039 67.4082 45.1768C67.3461 44.7497 67.3769 44.3142 67.4985 43.9C67.6224 43.4567 67.8524 43.0502 68.1686 42.7156C68.4849 42.3811 68.8778 42.1286 69.3135 41.98L69.6135 41.875C70.4815 41.5738 71.1985 40.9468 71.6127 40.1267C72.027 39.3065 72.1062 38.3574 71.8335 37.48ZM56.9985 45.25C55.9601 45.25 54.9451 44.9421 54.0817 44.3652C53.2184 43.7883 52.5455 42.9684 52.1481 42.0091C51.7507 41.0498 51.6468 39.9942 51.8493 38.9758C52.0519 37.9574 52.5519 37.0219 53.2862 36.2877C54.0204 35.5535 54.9558 35.0534 55.9742 34.8509C56.9926 34.6483 58.0482 34.7523 59.0076 35.1496C59.9669 35.547 60.7868 36.2199 61.3637 37.0833C61.9406 37.9466 62.2485 38.9616 62.2485 40C62.2485 41.3924 61.6953 42.7277 60.7108 43.7123C59.7262 44.6969 58.3909 45.25 56.9985 45.25Z" fill="#1B3D6F"/>
</svg>
