<svg width="105" height="108" viewBox="0 0 105 108" fill="none" xmlns="http://www.w3.org/2000/svg">
<g id="Labyrinth">
<path id="Vector" d="M101.818 90.9108C100.94 90.9108 100.227 91.6435 100.227 92.5471V103.091H59.6808V92.5471C59.6808 92.4616 59.6458 92.3879 59.6334 92.3058V81.5663C59.6334 80.6627 58.921 79.93 58.0425 79.93C57.164 79.93 56.4516 80.6627 56.4516 81.5663V90.9106H36.0766C35.1981 90.9106 34.4857 91.6434 34.4857 92.547C34.4857 93.4506 35.1981 94.1833 36.0766 94.1833H56.499V103.091H27.1332V92.3531C27.1332 91.4495 26.4208 90.7167 25.5423 90.7167H16.1731V50.1616H56.3576V59.2151C56.3576 60.1187 57.07 60.8514 57.9485 60.8514H79.2059C80.0844 60.8514 80.7968 60.1187 80.7968 59.2151V50.1616H89.9771C90.8556 50.1616 91.568 49.4288 91.568 48.5252V14.6746C91.568 13.771 90.8556 13.0382 89.9771 13.0382H57.9485C57.07 13.0382 56.3576 13.771 56.3576 14.6746C56.3576 15.5782 57.07 16.3109 57.9485 16.3109H67.128V26.0772C67.128 26.9808 67.8404 27.7136 68.7189 27.7136H78.3708V35.6166H59.6334V25.9638C59.6334 25.0602 58.921 24.3275 58.0425 24.3275C57.164 24.3275 56.4516 25.0602 56.4516 25.9638V35.6166H47.3668C46.4883 35.6166 45.7759 36.3494 45.7759 37.253C45.7759 38.1566 46.4883 38.8893 47.3668 38.8893H67.1282V48.817C67.1282 49.7206 67.8406 50.4533 68.7191 50.4533C69.5976 50.4533 70.31 49.7206 70.31 48.817V38.8893H79.9619C80.8404 38.8893 81.5528 38.1566 81.5528 37.253V26.0771C81.5528 25.1735 80.8404 24.4407 79.9619 24.4407H70.31V16.3109H88.3864V46.8888H79.206C78.3275 46.8888 77.6151 47.6216 77.6151 48.5252V57.5787H59.5394V48.5252C59.5394 47.6216 58.827 46.8888 57.9485 46.8888H27.0858V38.8892H36.8799C37.7584 38.8892 38.4708 38.1564 38.4708 37.2528C38.4708 36.3492 37.7584 35.6164 36.8799 35.6164H27.0858V16.9269H36.8799C37.7584 16.9269 38.4708 16.1941 38.4708 15.2905C38.4708 14.3869 37.7584 13.6541 36.8799 13.6541H14.1098C13.2313 13.6541 12.5189 14.3869 12.5189 15.2905C12.5189 16.1941 13.2313 16.9269 14.1098 16.9269H23.904V35.6164H14.5822C13.7037 35.6164 12.9913 36.3492 12.9913 37.2528C12.9913 38.1564 13.7037 38.8892 14.5822 38.8892H23.904V46.8888H14.5822C13.7037 46.8888 12.9913 47.6216 12.9913 48.5252V92.3531C12.9913 93.2567 13.7037 93.9894 14.5822 93.9894H23.9514V103.091H4.77264V26.6604C4.77264 25.7568 4.06023 25.0241 3.18173 25.0241C2.30323 25.0241 1.59082 25.7568 1.59082 26.6604V104.727C1.59082 105.631 2.30323 106.364 3.18173 106.364H101.818C102.697 106.364 103.409 105.631 103.409 104.727V92.5471C103.409 91.6435 102.697 90.9108 101.818 90.9108Z" fill="white"/>
<path id="Vector_2" d="M101.818 1.63635H3.18173C2.30323 1.63635 1.59082 2.36912 1.59082 3.27272V14.6746C1.59082 15.5782 2.30323 16.3109 3.18173 16.3109C4.06023 16.3109 4.77264 15.5782 4.77264 14.6746V4.90908H45.7758V24.4407H36.0292C35.1507 24.4407 34.4383 25.1735 34.4383 26.0771C34.4383 26.9807 35.1507 27.7134 36.0292 27.7134H47.3668C48.2453 27.7134 48.9578 26.9807 48.9578 26.0771V4.90908H100.227V80.0268H79.3007C78.4222 80.0268 77.7098 80.7596 77.7098 81.6632V90.911H70.3098V72.3188H89.9771C90.8556 72.3188 91.568 71.586 91.568 70.6824V59.7009C91.568 58.7973 90.8556 58.0646 89.9771 58.0646C89.0986 58.0646 88.3862 58.7973 88.3862 59.7009V69.046H35.9344C35.0559 69.046 34.3435 69.7788 34.3435 70.6824C34.3435 71.586 35.0559 72.3188 35.9344 72.3188H45.7758V80.0267H26.9436V61.3373H47.3667C48.2452 61.3373 48.9576 60.6045 48.9576 59.7009C48.9576 58.7973 48.2452 58.0646 47.3667 58.0646H25.3526C24.4741 58.0646 23.7617 58.7973 23.7617 59.7009V81.6632C23.7617 82.5668 24.4741 83.2996 25.3526 83.2996H47.3667C48.2452 83.2996 48.9576 82.5668 48.9576 81.6632V72.3189H67.128V92.5473C67.128 93.4509 67.8404 94.1837 68.7189 94.1837H79.3007C80.1792 94.1837 80.8916 93.4509 80.8916 92.5473V83.2996H101.818C102.697 83.2996 103.409 82.5668 103.409 81.6632V3.27272C103.409 2.36912 102.697 1.63635 101.818 1.63635Z" fill="white"/>
</g>
</svg>
