<svg width="28" height="35" viewBox="0 0 28 35" fill="none" xmlns="http://www.w3.org/2000/svg">
<g id="Group 409">
<path id="Vector" d="M18.6647 24.2677V30.6105L13.999 33.0558L9.33203 30.6105V24.2677H9.46552L10.4056 24.8335L10.6664 24.9904L11.5987 25.5516C12.2648 25.9187 12.9985 26.1019 13.7982 26.1019H14.1313C14.932 26.1019 15.6655 25.9187 16.3318 25.5516L17.4202 24.9161L18.5323 24.2678H18.6647V24.2677Z" fill="#FCD2B1"/>
<path id="Vector_2" d="M21.3332 16.3194C21.336 15.4355 21.1482 14.5597 20.7807 13.7425C20.4132 12.9254 19.8731 12.1829 19.1916 11.5578C18.5101 10.9328 17.7005 10.4374 16.8095 10.1004C15.9186 9.76327 14.9637 9.59107 13.9999 9.59366C13.0361 9.59108 12.0813 9.7633 11.1903 10.1004C10.2993 10.4375 9.48981 10.9328 8.80831 11.5579C8.12681 12.1829 7.58678 12.9254 7.21926 13.7426C6.85175 14.5597 6.66401 15.4355 6.66684 16.3194H6V17.5423C6 18.2148 6.60004 18.7653 7.33326 18.7653V21.0277C7.33326 22.3115 8.06659 23.4733 9.20019 24.1457L11.6668 25.552C12.3334 25.9192 13.0667 26.1026 13.8667 26.1026H14.2001C15.0002 26.1026 15.7334 25.9192 16.4002 25.552L18.8669 24.1457C20.067 23.4733 20.7336 22.3115 20.7336 21.0277V18.7653C21.4669 18.7653 22.0666 18.2149 22.0666 17.5423V16.3194H21.3332Z" fill="#FFE3CA"/>
<path id="Vector_3" d="M18.6672 29.9C18.094 30.7342 17.0353 31.4522 15.1067 31.5865C11.9601 31.8049 10.1759 30.7451 9.3345 29.4051C8.83445 28.609 8.66734 27.7151 8.74451 26.9309L9.3345 26.8565L11.0793 26.6381H17.3861L18.6671 26.8421L19.2564 26.9364C19.2565 26.9363 19.5837 28.5654 18.6672 29.9Z" fill="#FCD2B1"/>
<g id="Clip path group">
<mask id="mask0_1415_844" style="mask-type:luminance" maskUnits="userSpaceOnUse" x="8" y="26" width="12" height="8">
<g id="b">
<path id="Vector_4" d="M9.3345 29.4049C8.83445 28.6088 8.66734 27.7149 8.74451 26.9307C8.78105 27.4466 8.99056 27.9334 9.3345 28.3659C10.2135 29.4684 11.973 30.2209 14.0014 30.2209C16.0289 30.2209 17.7885 29.4684 18.6671 28.365C19.0102 27.9343 19.2188 27.4503 19.2564 26.9362C19.2564 26.9362 19.5836 28.5654 18.6671 29.8999V30.6107L14.0014 33.056L9.3345 30.6107V29.4049Z" fill="white"/>
</g>
</mask>
<g mask="url(#mask0_1415_844)">
<path id="Vector_5" d="M8.66797 26.9307H19.5843V29.0654H8.66797V26.9307ZM8.66797 29.0654H19.5843V29.2004H8.66797V29.0654Z" fill="#4D4D4D"/>
</g>
</g>
<g id="Clip path group_2">
<mask id="mask1_1415_844" style="mask-type:luminance" maskUnits="userSpaceOnUse" x="8" y="26" width="12" height="8">
<g id="b_2">
<path id="Vector_6" d="M9.3345 29.4049C8.83445 28.6088 8.66734 27.7149 8.74451 26.9307C8.78105 27.4466 8.99056 27.9334 9.3345 28.3659C10.2135 29.4684 11.973 30.2209 14.0014 30.2209C16.0289 30.2209 17.7885 29.4684 18.6671 28.365C19.0102 27.9343 19.2188 27.4503 19.2564 26.9362C19.2564 26.9362 19.5836 28.5654 18.6671 29.8999V30.6107L14.0014 33.056L9.3345 30.6107V29.4049Z" fill="white"/>
</g>
</mask>
<g mask="url(#mask1_1415_844)">
<path id="Vector_7" d="M8.66797 29.2007H19.5843V29.3357H8.66797V29.2007Z" fill="#4C4C4C"/>
</g>
</g>
<g id="Clip path group_3">
<mask id="mask2_1415_844" style="mask-type:luminance" maskUnits="userSpaceOnUse" x="8" y="26" width="12" height="8">
<g id="b_3">
<path id="Vector_8" d="M9.3345 29.4049C8.83445 28.6088 8.66734 27.7149 8.74451 26.9307C8.78105 27.4466 8.99056 27.9334 9.3345 28.3659C10.2135 29.4684 11.973 30.2209 14.0014 30.2209C16.0289 30.2209 17.7885 29.4684 18.6671 28.365C19.0102 27.9343 19.2188 27.4503 19.2564 26.9362C19.2564 26.9362 19.5836 28.5654 18.6671 29.8999V30.6107L14.0014 33.056L9.3345 30.6107V29.4049Z" fill="white"/>
</g>
</mask>
<g mask="url(#mask2_1415_844)">
<path id="Vector_9" d="M8.66797 29.3356H19.5843V29.4702H8.66797V29.3356Z" fill="#4B4B4B"/>
</g>
</g>
<g id="Clip path group_4">
<mask id="mask3_1415_844" style="mask-type:luminance" maskUnits="userSpaceOnUse" x="8" y="26" width="12" height="8">
<g id="b_4">
<path id="Vector_10" d="M9.3345 29.4049C8.83445 28.6088 8.66734 27.7149 8.74451 26.9307C8.78105 27.4466 8.99056 27.9334 9.3345 28.3659C10.2135 29.4684 11.973 30.2209 14.0014 30.2209C16.0289 30.2209 17.7885 29.4684 18.6671 28.365C19.0102 27.9343 19.2188 27.4503 19.2564 26.9362C19.2564 26.9362 19.5836 28.5654 18.6671 29.8999V30.6107L14.0014 33.056L9.3345 30.6107V29.4049Z" fill="white"/>
</g>
</mask>
<g mask="url(#mask3_1415_844)">
<path id="Vector_11" d="M8.66797 29.4701H19.5843V29.6051H8.66797V29.4701Z" fill="#4A4A4A"/>
</g>
</g>
<g id="Clip path group_5">
<mask id="mask4_1415_844" style="mask-type:luminance" maskUnits="userSpaceOnUse" x="8" y="26" width="12" height="8">
<g id="b_5">
<path id="Vector_12" d="M9.3345 29.4049C8.83445 28.6088 8.66734 27.7149 8.74451 26.9307C8.78105 27.4466 8.99056 27.9334 9.3345 28.3659C10.2135 29.4684 11.973 30.2209 14.0014 30.2209C16.0289 30.2209 17.7885 29.4684 18.6671 28.365C19.0102 27.9343 19.2188 27.4503 19.2564 26.9362C19.2564 26.9362 19.5836 28.5654 18.6671 29.8999V30.6107L14.0014 33.056L9.3345 30.6107V29.4049Z" fill="white"/>
</g>
</mask>
<g mask="url(#mask4_1415_844)">
<path id="Vector_13" d="M8.66797 29.6053H19.5843V29.7404H8.66797V29.6053Z" fill="#494949"/>
</g>
</g>
<g id="Clip path group_6">
<mask id="mask5_1415_844" style="mask-type:luminance" maskUnits="userSpaceOnUse" x="8" y="26" width="12" height="8">
<g id="b_6">
<path id="Vector_14" d="M9.3345 29.4049C8.83445 28.6088 8.66734 27.7149 8.74451 26.9307C8.78105 27.4466 8.99056 27.9334 9.3345 28.3659C10.2135 29.4684 11.973 30.2209 14.0014 30.2209C16.0289 30.2209 17.7885 29.4684 18.6671 28.365C19.0102 27.9343 19.2188 27.4503 19.2564 26.9362C19.2564 26.9362 19.5836 28.5654 18.6671 29.8999V30.6107L14.0014 33.056L9.3345 30.6107V29.4049Z" fill="white"/>
</g>
</mask>
<g mask="url(#mask5_1415_844)">
<path id="Vector_15" d="M8.66797 29.7402H19.5843V29.8753H8.66797V29.7402Z" fill="#484848"/>
</g>
</g>
<g id="Clip path group_7">
<mask id="mask6_1415_844" style="mask-type:luminance" maskUnits="userSpaceOnUse" x="8" y="26" width="12" height="8">
<g id="b_7">
<path id="Vector_16" d="M9.3345 29.4049C8.83445 28.6088 8.66734 27.7149 8.74451 26.9307C8.78105 27.4466 8.99056 27.9334 9.3345 28.3659C10.2135 29.4684 11.973 30.2209 14.0014 30.2209C16.0289 30.2209 17.7885 29.4684 18.6671 28.365C19.0102 27.9343 19.2188 27.4503 19.2564 26.9362C19.2564 26.9362 19.5836 28.5654 18.6671 29.8999V30.6107L14.0014 33.056L9.3345 30.6107V29.4049Z" fill="white"/>
</g>
</mask>
<g mask="url(#mask6_1415_844)">
<path id="Vector_17" d="M8.66797 29.8751H19.5843V30.0101H8.66797V29.8751Z" fill="#474747"/>
</g>
</g>
<g id="Clip path group_8">
<mask id="mask7_1415_844" style="mask-type:luminance" maskUnits="userSpaceOnUse" x="8" y="26" width="12" height="8">
<g id="b_8">
<path id="Vector_18" d="M9.3345 29.4049C8.83445 28.6088 8.66734 27.7149 8.74451 26.9307C8.78105 27.4466 8.99056 27.9334 9.3345 28.3659C10.2135 29.4684 11.973 30.2209 14.0014 30.2209C16.0289 30.2209 17.7885 29.4684 18.6671 28.365C19.0102 27.9343 19.2188 27.4503 19.2564 26.9362C19.2564 26.9362 19.5836 28.5654 18.6671 29.8999V30.6107L14.0014 33.056L9.3345 30.6107V29.4049Z" fill="white"/>
</g>
</mask>
<g mask="url(#mask7_1415_844)">
<path id="Vector_19" d="M8.66797 30.0105H19.5843V30.1451H8.66797V30.0105Z" fill="#464646"/>
</g>
</g>
<g id="Clip path group_9">
<mask id="mask8_1415_844" style="mask-type:luminance" maskUnits="userSpaceOnUse" x="8" y="26" width="12" height="8">
<g id="b_9">
<path id="Vector_20" d="M9.3345 29.4049C8.83445 28.6088 8.66734 27.7149 8.74451 26.9307C8.78105 27.4466 8.99056 27.9334 9.3345 28.3659C10.2135 29.4684 11.973 30.2209 14.0014 30.2209C16.0289 30.2209 17.7885 29.4684 18.6671 28.365C19.0102 27.9343 19.2188 27.4503 19.2564 26.9362C19.2564 26.9362 19.5836 28.5654 18.6671 29.8999V30.6107L14.0014 33.056L9.3345 30.6107V29.4049Z" fill="white"/>
</g>
</mask>
<g mask="url(#mask8_1415_844)">
<path id="Vector_21" d="M8.66797 30.145H19.5843V30.28H8.66797V30.145Z" fill="#454545"/>
</g>
</g>
<g id="Clip path group_10">
<mask id="mask9_1415_844" style="mask-type:luminance" maskUnits="userSpaceOnUse" x="8" y="26" width="12" height="8">
<g id="b_10">
<path id="Vector_22" d="M9.3345 29.4049C8.83445 28.6088 8.66734 27.7149 8.74451 26.9307C8.78105 27.4466 8.99056 27.9334 9.3345 28.3659C10.2135 29.4684 11.973 30.2209 14.0014 30.2209C16.0289 30.2209 17.7885 29.4684 18.6671 28.365C19.0102 27.9343 19.2188 27.4503 19.2564 26.9362C19.2564 26.9362 19.5836 28.5654 18.6671 29.8999V30.6107L14.0014 33.056L9.3345 30.6107V29.4049Z" fill="white"/>
</g>
</mask>
<g mask="url(#mask9_1415_844)">
<path id="Vector_23" d="M8.66797 30.2803H19.5843V30.4153H8.66797V30.2803Z" fill="#444444"/>
</g>
</g>
<g id="Clip path group_11">
<mask id="mask10_1415_844" style="mask-type:luminance" maskUnits="userSpaceOnUse" x="8" y="26" width="12" height="8">
<g id="b_11">
<path id="Vector_24" d="M9.3345 29.4049C8.83445 28.6088 8.66734 27.7149 8.74451 26.9307C8.78105 27.4466 8.99056 27.9334 9.3345 28.3659C10.2135 29.4684 11.973 30.2209 14.0014 30.2209C16.0289 30.2209 17.7885 29.4684 18.6671 28.365C19.0102 27.9343 19.2188 27.4503 19.2564 26.9362C19.2564 26.9362 19.5836 28.5654 18.6671 29.8999V30.6107L14.0014 33.056L9.3345 30.6107V29.4049Z" fill="white"/>
</g>
</mask>
<g mask="url(#mask10_1415_844)">
<path id="Vector_25" d="M8.66797 30.4152H19.5843V30.5502H8.66797V30.4152Z" fill="#434343"/>
</g>
</g>
<g id="Clip path group_12">
<mask id="mask11_1415_844" style="mask-type:luminance" maskUnits="userSpaceOnUse" x="8" y="26" width="12" height="8">
<g id="b_12">
<path id="Vector_26" d="M9.3345 29.4049C8.83445 28.6088 8.66734 27.7149 8.74451 26.9307C8.78105 27.4466 8.99056 27.9334 9.3345 28.3659C10.2135 29.4684 11.973 30.2209 14.0014 30.2209C16.0289 30.2209 17.7885 29.4684 18.6671 28.365C19.0102 27.9343 19.2188 27.4503 19.2564 26.9362C19.2564 26.9362 19.5836 28.5654 18.6671 29.8999V30.6107L14.0014 33.056L9.3345 30.6107V29.4049Z" fill="white"/>
</g>
</mask>
<g mask="url(#mask11_1415_844)">
<path id="Vector_27" d="M8.66797 30.55H19.5843V30.6847H8.66797V30.55Z" fill="#424242"/>
</g>
</g>
<g id="Clip path group_13">
<mask id="mask12_1415_844" style="mask-type:luminance" maskUnits="userSpaceOnUse" x="8" y="26" width="12" height="8">
<g id="b_13">
<path id="Vector_28" d="M9.3345 29.4049C8.83445 28.6088 8.66734 27.7149 8.74451 26.9307C8.78105 27.4466 8.99056 27.9334 9.3345 28.3659C10.2135 29.4684 11.973 30.2209 14.0014 30.2209C16.0289 30.2209 17.7885 29.4684 18.6671 28.365C19.0102 27.9343 19.2188 27.4503 19.2564 26.9362C19.2564 26.9362 19.5836 28.5654 18.6671 29.8999V30.6107L14.0014 33.056L9.3345 30.6107V29.4049Z" fill="white"/>
</g>
</mask>
<g mask="url(#mask12_1415_844)">
<path id="Vector_29" d="M8.66797 30.6849H19.5843V30.82H8.66797V30.6849Z" fill="#414141"/>
</g>
</g>
<g id="Clip path group_14">
<mask id="mask13_1415_844" style="mask-type:luminance" maskUnits="userSpaceOnUse" x="8" y="26" width="12" height="8">
<g id="b_14">
<path id="Vector_30" d="M9.3345 29.4049C8.83445 28.6088 8.66734 27.7149 8.74451 26.9307C8.78105 27.4466 8.99056 27.9334 9.3345 28.3659C10.2135 29.4684 11.973 30.2209 14.0014 30.2209C16.0289 30.2209 17.7885 29.4684 18.6671 28.365C19.0102 27.9343 19.2188 27.4503 19.2564 26.9362C19.2564 26.9362 19.5836 28.5654 18.6671 29.8999V30.6107L14.0014 33.056L9.3345 30.6107V29.4049Z" fill="white"/>
</g>
</mask>
<g mask="url(#mask13_1415_844)">
<path id="Vector_31" d="M8.66797 30.8199H19.5843V30.955H8.66797V30.8199Z" fill="#3F3F3F"/>
</g>
</g>
<g id="Clip path group_15">
<mask id="mask14_1415_844" style="mask-type:luminance" maskUnits="userSpaceOnUse" x="8" y="26" width="12" height="8">
<g id="b_15">
<path id="Vector_32" d="M9.3345 29.4049C8.83445 28.6088 8.66734 27.7149 8.74451 26.9307C8.78105 27.4466 8.99056 27.9334 9.3345 28.3659C10.2135 29.4684 11.973 30.2209 14.0014 30.2209C16.0289 30.2209 17.7885 29.4684 18.6671 28.365C19.0102 27.9343 19.2188 27.4503 19.2564 26.9362C19.2564 26.9362 19.5836 28.5654 18.6671 29.8999V30.6107L14.0014 33.056L9.3345 30.6107V29.4049Z" fill="white"/>
</g>
</mask>
<g mask="url(#mask14_1415_844)">
<path id="Vector_33" d="M8.66797 30.9548H19.5843V31.0898H8.66797V30.9548Z" fill="#3E3E3E"/>
</g>
</g>
<g id="Clip path group_16">
<mask id="mask15_1415_844" style="mask-type:luminance" maskUnits="userSpaceOnUse" x="8" y="26" width="12" height="8">
<g id="b_16">
<path id="Vector_34" d="M9.3345 29.4049C8.83445 28.6088 8.66734 27.7149 8.74451 26.9307C8.78105 27.4466 8.99056 27.9334 9.3345 28.3659C10.2135 29.4684 11.973 30.2209 14.0014 30.2209C16.0289 30.2209 17.7885 29.4684 18.6671 28.365C19.0102 27.9343 19.2188 27.4503 19.2564 26.9362C19.2564 26.9362 19.5836 28.5654 18.6671 29.8999V30.6107L14.0014 33.056L9.3345 30.6107V29.4049Z" fill="white"/>
</g>
</mask>
<g mask="url(#mask15_1415_844)">
<path id="Vector_35" d="M8.66797 31.0901H19.5843V31.2247H8.66797V31.0901Z" fill="#3D3D3D"/>
</g>
</g>
<g id="Clip path group_17">
<mask id="mask16_1415_844" style="mask-type:luminance" maskUnits="userSpaceOnUse" x="8" y="26" width="12" height="8">
<g id="b_17">
<path id="Vector_36" d="M9.3345 29.4049C8.83445 28.6088 8.66734 27.7149 8.74451 26.9307C8.78105 27.4466 8.99056 27.9334 9.3345 28.3659C10.2135 29.4684 11.973 30.2209 14.0014 30.2209C16.0289 30.2209 17.7885 29.4684 18.6671 28.365C19.0102 27.9343 19.2188 27.4503 19.2564 26.9362C19.2564 26.9362 19.5836 28.5654 18.6671 29.8999V30.6107L14.0014 33.056L9.3345 30.6107V29.4049Z" fill="white"/>
</g>
</mask>
<g mask="url(#mask16_1415_844)">
<path id="Vector_37" d="M8.66797 31.2246H19.5843V31.3596H8.66797V31.2246Z" fill="#3C3C3C"/>
</g>
</g>
<g id="Clip path group_18">
<mask id="mask17_1415_844" style="mask-type:luminance" maskUnits="userSpaceOnUse" x="8" y="26" width="12" height="8">
<g id="b_18">
<path id="Vector_38" d="M9.3345 29.4049C8.83445 28.6088 8.66734 27.7149 8.74451 26.9307C8.78105 27.4466 8.99056 27.9334 9.3345 28.3659C10.2135 29.4684 11.973 30.2209 14.0014 30.2209C16.0289 30.2209 17.7885 29.4684 18.6671 28.365C19.0102 27.9343 19.2188 27.4503 19.2564 26.9362C19.2564 26.9362 19.5836 28.5654 18.6671 29.8999V30.6107L14.0014 33.056L9.3345 30.6107V29.4049Z" fill="white"/>
</g>
</mask>
<g mask="url(#mask17_1415_844)">
<path id="Vector_39" d="M8.66797 31.3599H19.5843V31.4949H8.66797V31.3599Z" fill="#3B3B3B"/>
</g>
</g>
<g id="Clip path group_19">
<mask id="mask18_1415_844" style="mask-type:luminance" maskUnits="userSpaceOnUse" x="8" y="26" width="12" height="8">
<g id="b_19">
<path id="Vector_40" d="M9.3345 29.4049C8.83445 28.6088 8.66734 27.7149 8.74451 26.9307C8.78105 27.4466 8.99056 27.9334 9.3345 28.3659C10.2135 29.4684 11.973 30.2209 14.0014 30.2209C16.0289 30.2209 17.7885 29.4684 18.6671 28.365C19.0102 27.9343 19.2188 27.4503 19.2564 26.9362C19.2564 26.9362 19.5836 28.5654 18.6671 29.8999V30.6107L14.0014 33.056L9.3345 30.6107V29.4049Z" fill="white"/>
</g>
</mask>
<g mask="url(#mask18_1415_844)">
<path id="Vector_41" d="M8.66797 31.4948H19.5843V31.6298H8.66797V31.4948Z" fill="#3A3A3A"/>
</g>
</g>
<g id="Clip path group_20">
<mask id="mask19_1415_844" style="mask-type:luminance" maskUnits="userSpaceOnUse" x="8" y="26" width="12" height="8">
<g id="b_20">
<path id="Vector_42" d="M9.3345 29.4049C8.83445 28.6088 8.66734 27.7149 8.74451 26.9307C8.78105 27.4466 8.99056 27.9334 9.3345 28.3659C10.2135 29.4684 11.973 30.2209 14.0014 30.2209C16.0289 30.2209 17.7885 29.4684 18.6671 28.365C19.0102 27.9343 19.2188 27.4503 19.2564 26.9362C19.2564 26.9362 19.5836 28.5654 18.6671 29.8999V30.6107L14.0014 33.056L9.3345 30.6107V29.4049Z" fill="white"/>
</g>
</mask>
<g mask="url(#mask19_1415_844)">
<path id="Vector_43" d="M8.66797 31.6296H19.5843V31.7643H8.66797V31.6296Z" fill="#393939"/>
</g>
</g>
<g id="Clip path group_21">
<mask id="mask20_1415_844" style="mask-type:luminance" maskUnits="userSpaceOnUse" x="8" y="26" width="12" height="8">
<g id="b_21">
<path id="Vector_44" d="M9.3345 29.4049C8.83445 28.6088 8.66734 27.7149 8.74451 26.9307C8.78105 27.4466 8.99056 27.9334 9.3345 28.3659C10.2135 29.4684 11.973 30.2209 14.0014 30.2209C16.0289 30.2209 17.7885 29.4684 18.6671 28.365C19.0102 27.9343 19.2188 27.4503 19.2564 26.9362C19.2564 26.9362 19.5836 28.5654 18.6671 29.8999V30.6107L14.0014 33.056L9.3345 30.6107V29.4049Z" fill="white"/>
</g>
</mask>
<g mask="url(#mask20_1415_844)">
<path id="Vector_45" d="M8.66797 31.7646H19.5843V31.8997H8.66797V31.7646Z" fill="#383838"/>
</g>
</g>
<g id="Clip path group_22">
<mask id="mask21_1415_844" style="mask-type:luminance" maskUnits="userSpaceOnUse" x="8" y="26" width="12" height="8">
<g id="b_22">
<path id="Vector_46" d="M9.3345 29.4049C8.83445 28.6088 8.66734 27.7149 8.74451 26.9307C8.78105 27.4466 8.99056 27.9334 9.3345 28.3659C10.2135 29.4684 11.973 30.2209 14.0014 30.2209C16.0289 30.2209 17.7885 29.4684 18.6671 28.365C19.0102 27.9343 19.2188 27.4503 19.2564 26.9362C19.2564 26.9362 19.5836 28.5654 18.6671 29.8999V30.6107L14.0014 33.056L9.3345 30.6107V29.4049Z" fill="white"/>
</g>
</mask>
<g mask="url(#mask21_1415_844)">
<path id="Vector_47" d="M8.66797 31.8995H19.5843V32.0346H8.66797V31.8995Z" fill="#373737"/>
</g>
</g>
<g id="Clip path group_23">
<mask id="mask22_1415_844" style="mask-type:luminance" maskUnits="userSpaceOnUse" x="8" y="26" width="12" height="8">
<g id="b_23">
<path id="Vector_48" d="M9.3345 29.4049C8.83445 28.6088 8.66734 27.7149 8.74451 26.9307C8.78105 27.4466 8.99056 27.9334 9.3345 28.3659C10.2135 29.4684 11.973 30.2209 14.0014 30.2209C16.0289 30.2209 17.7885 29.4684 18.6671 28.365C19.0102 27.9343 19.2188 27.4503 19.2564 26.9362C19.2564 26.9362 19.5836 28.5654 18.6671 29.8999V30.6107L14.0014 33.056L9.3345 30.6107V29.4049Z" fill="white"/>
</g>
</mask>
<g mask="url(#mask22_1415_844)">
<path id="Vector_49" d="M8.66797 32.0344H19.5843V32.1694H8.66797V32.0344Z" fill="#363636"/>
</g>
</g>
<g id="Clip path group_24">
<mask id="mask23_1415_844" style="mask-type:luminance" maskUnits="userSpaceOnUse" x="8" y="26" width="12" height="8">
<g id="b_24">
<path id="Vector_50" d="M9.3345 29.4049C8.83445 28.6088 8.66734 27.7149 8.74451 26.9307C8.78105 27.4466 8.99056 27.9334 9.3345 28.3659C10.2135 29.4684 11.973 30.2209 14.0014 30.2209C16.0289 30.2209 17.7885 29.4684 18.6671 28.365C19.0102 27.9343 19.2188 27.4503 19.2564 26.9362C19.2564 26.9362 19.5836 28.5654 18.6671 29.8999V30.6107L14.0014 33.056L9.3345 30.6107V29.4049Z" fill="white"/>
</g>
</mask>
<g mask="url(#mask23_1415_844)">
<path id="Vector_51" d="M8.66797 32.1693H19.5843V32.3043H8.66797V32.1693Z" fill="#353535"/>
</g>
</g>
<g id="Clip path group_25">
<mask id="mask24_1415_844" style="mask-type:luminance" maskUnits="userSpaceOnUse" x="8" y="26" width="12" height="8">
<g id="b_25">
<path id="Vector_52" d="M9.3345 29.4049C8.83445 28.6088 8.66734 27.7149 8.74451 26.9307C8.78105 27.4466 8.99056 27.9334 9.3345 28.3659C10.2135 29.4684 11.973 30.2209 14.0014 30.2209C16.0289 30.2209 17.7885 29.4684 18.6671 28.365C19.0102 27.9343 19.2188 27.4503 19.2564 26.9362C19.2564 26.9362 19.5836 28.5654 18.6671 29.8999V30.6107L14.0014 33.056L9.3345 30.6107V29.4049Z" fill="white"/>
</g>
</mask>
<g mask="url(#mask24_1415_844)">
<path id="Vector_53" d="M8.66797 32.3042H19.5843V32.4388H8.66797V32.3042Z" fill="#343434"/>
</g>
</g>
<g id="Clip path group_26">
<mask id="mask25_1415_844" style="mask-type:luminance" maskUnits="userSpaceOnUse" x="8" y="26" width="12" height="8">
<g id="b_26">
<path id="Vector_54" d="M9.3345 29.4049C8.83445 28.6088 8.66734 27.7149 8.74451 26.9307C8.78105 27.4466 8.99056 27.9334 9.3345 28.3659C10.2135 29.4684 11.973 30.2209 14.0014 30.2209C16.0289 30.2209 17.7885 29.4684 18.6671 28.365C19.0102 27.9343 19.2188 27.4503 19.2564 26.9362C19.2564 26.9362 19.5836 28.5654 18.6671 29.8999V30.6107L14.0014 33.056L9.3345 30.6107V29.4049Z" fill="white"/>
</g>
</mask>
<g mask="url(#mask25_1415_844)">
<path id="Vector_55" d="M8.66797 32.4391H19.5843V32.5741H8.66797V32.4391ZM8.66797 32.5741H19.5843V33.0562H8.66797V32.5741Z" fill="#333333"/>
</g>
</g>
<path id="Vector_56" d="M28 33.4937C21.7329 35.1448 6.26636 35.1448 0 33.4937L0.400377 30.7413C0.533766 29.8246 1.26636 29.0305 2.26678 28.724L6.74966 27.4828C6.37399 28.0331 6.16731 28.6351 6.16731 29.2653C6.16731 31.89 9.75479 34.0187 14.1792 34.0187C18.6051 34.0187 22.1913 31.89 22.1913 29.2653C22.1913 28.6932 22.0213 28.1446 21.7089 27.6369L25.7332 28.7856C26.7327 29.0912 27.4661 29.8255 27.5996 30.8029L28 33.4937Z" fill="#0B4870"/>
<path id="Vector_57" d="M17.0234 10.5189L17.4879 13.5305C19.6089 13.9195 19.9144 16.9722 19.9584 17.8442C19.967 18.0023 20.0211 18.1554 20.1153 18.288L20.9244 19.4395C20.9244 19.4395 20.6474 17.536 21.9157 16.2575C21.9157 16.2575 22.3509 8.7009 17.0234 10.5189Z" fill="#0E538C"/>
<path id="Vector_58" d="M8.78354 10.1643C5.46933 12.4087 6.08884 16.2578 6.08884 16.2578C7.08005 17.167 7.08005 19.4395 7.08005 19.4395L8.07125 18.5306C8.07125 18.5306 7.68878 15.9044 9.55801 14.8942C11.2926 13.957 12.8103 14.44 14.3591 14.44C18.5097 14.44 19.6712 13.0049 19.4699 11.2578C19.3658 10.3539 17.8586 8.47099 14.0185 8.53081C14.0185 8.53081 10.2839 8.73986 8.78354 10.1643Z" fill="#0E538C"/>
<path id="Vector_59" d="M21.2278 5.47963C21.2276 5.42809 21.2156 5.37718 21.1925 5.33019C21.1694 5.2832 21.1358 5.2412 21.0939 5.20691C21.0517 5.17277 21.0022 5.14715 20.9486 5.13172C20.8949 5.11628 20.8384 5.11137 20.7825 5.11731L7.24633 6.57905C7.14942 6.58956 7.06009 6.6323 6.99525 6.69919C6.93041 6.76607 6.89457 6.85244 6.89453 6.94194V10.2309C6.89453 11.6732 11.4029 12.0582 14.0666 12.0582C16.7304 12.0582 21.2386 11.6732 21.2386 10.2309V10.2302L21.2278 5.47963Z" fill="#0B4870"/>
<path id="Vector_60" d="M21.2268 6.57715H14.0547V12.0587L14.0656 12.0588C16.6597 12.0588 21.0013 11.6933 21.2268 10.3422V6.57715Z" fill="#0B4870"/>
<path id="Vector_61" d="M25.9435 3.46207L15.7468 0.255602C14.6635 -0.0852007 13.4706 -0.0852007 12.3873 0.255602L2.191 3.46207C1.70037 3.61619 1.38281 4.02325 1.38281 4.49907C1.38281 4.97479 1.70037 5.38176 2.191 5.53598L12.3873 8.74235C12.928 8.91187 13.4956 8.99821 14.067 8.99788C14.6364 8.99788 15.2052 8.9128 15.747 8.74235L25.9436 5.53598C26.4343 5.38186 26.7515 4.97479 26.7515 4.49907C26.7513 4.02325 26.4342 3.61619 25.9435 3.46207Z" fill="#F9A74E"/>
<path id="Vector_62" d="M21.6252 12.424C21.5729 12.424 21.5211 12.4146 21.4727 12.3962C21.4244 12.3778 21.3804 12.3509 21.3434 12.317C21.3065 12.2831 21.2771 12.2428 21.2571 12.1984C21.2371 12.1541 21.2268 12.1066 21.2268 12.0586V7.28362C21.2268 7.20741 21.2008 7.13312 21.1525 7.07111C21.1042 7.0091 21.036 6.96247 20.9574 6.93773L13.9255 4.72659C13.8255 4.69513 13.7433 4.62857 13.6968 4.54152C13.6504 4.45448 13.6435 4.35408 13.6777 4.26239C13.6947 4.21696 13.7212 4.17503 13.7558 4.13901C13.7904 4.103 13.8325 4.0736 13.8795 4.0525C13.9265 4.03141 13.9776 4.01903 14.0299 4.01607C14.0821 4.01312 14.1345 4.01965 14.184 4.03529L21.2159 6.24652C21.4516 6.32063 21.6561 6.46042 21.801 6.64637C21.9458 6.83231 22.0237 7.05511 22.0237 7.28362V12.0586C22.0237 12.1066 22.0134 12.1541 21.9933 12.1985C21.9733 12.2428 21.944 12.2831 21.907 12.317C21.8699 12.3509 21.826 12.3778 21.7777 12.3962C21.7293 12.4146 21.6775 12.424 21.6252 12.424Z" fill="#2A94F4"/>
<path id="Vector_63" d="M22.0274 14.9823H21.2306C21.1783 14.9823 21.1265 14.9729 21.0781 14.9545C21.0297 14.9362 20.9858 14.9092 20.9488 14.8753C20.9118 14.8414 20.8824 14.8011 20.8624 14.7567C20.8423 14.7124 20.832 14.6648 20.832 14.6168V12.4242C20.832 12.2304 20.916 12.0445 21.0654 11.9074C21.2149 11.7704 21.4176 11.6934 21.6289 11.6934C21.8403 11.6934 22.0429 11.7704 22.1924 11.9074C22.3418 12.0445 22.4258 12.2304 22.4258 12.4242V14.6168C22.4258 14.7137 22.3838 14.8067 22.3091 14.8752C22.2344 14.9438 22.1331 14.9823 22.0274 14.9823Z" fill="#FFBE55"/>
<path id="Vector_64" d="M21.7539 9.42317C21.7566 9.42154 21.7601 9.4201 21.7628 9.41856L21.7606 8.41833C21.7601 8.424 21.7551 8.43043 21.754 8.4361V9.42317H21.7539Z" fill="#5C546A"/>
<path id="Vector_65" d="M14.0665 5.1153C14.9468 5.1153 15.6604 4.78808 15.6604 4.38443C15.6604 3.98078 14.9468 3.65356 14.0665 3.65356C13.1863 3.65356 12.4727 3.98078 12.4727 4.38443C12.4727 4.78808 13.1863 5.1153 14.0665 5.1153Z" fill="#D3D3D3"/>
<path id="Vector_66" d="M19.2957 27.4871C19.2957 27.4871 19.6229 29.1163 18.7065 30.4508V31.1616L14.0408 33.6069L9.37383 31.1616V29.9558C8.87377 29.1597 8.70667 28.2658 8.78383 27.4815L8.09375 27.6728C8.22208 27.4248 8.36941 27.1854 8.53465 26.9565C9.71002 28.5957 11.7336 29.6773 14.0319 29.6773C16.3302 29.6773 18.3536 28.5957 19.529 26.9565C19.6958 27.188 19.8445 27.4301 19.9739 27.681L19.2957 27.4871Z" fill="#0B4870"/>
<path id="Vector_67" d="M22.1921 29.2652C22.1921 30.6215 21.2342 31.8455 19.6981 32.7113C18.2617 33.5219 16.3193 34.0187 14.18 34.0187C11.7345 34.0187 9.54489 33.3686 8.07489 32.3433C6.8857 31.5137 6.16797 30.4385 6.16797 29.2652C6.16797 28.6351 6.37465 28.0331 6.75032 27.4827L8.05416 27.122L8.74424 26.9307C8.66708 27.7149 8.83408 28.6088 9.33424 29.4049V30.6107L14.0012 33.056L18.6669 30.6107V29.8999C19.5833 28.5654 19.2561 26.9362 19.2561 26.9362L19.9343 27.1302L21.7097 27.6369C22.022 28.1446 22.1921 28.6932 22.1921 29.2652Z" fill="#FFBE55"/>
</g>
</svg>
