<svg width="260" height="132" viewBox="0 0 260 132" fill="none" xmlns="http://www.w3.org/2000/svg">
<path d="M98.7555 109.15H82.4401C78.0137 109.15 74.3817 105.241 74.3817 100.478V45.4543C74.3817 40.6909 78.0137 36.7825 82.4401 36.7825H98.7555C103.182 36.7825 106.814 40.6909 106.814 45.4543V100.478C106.814 105.241 103.182 109.15 98.7555 109.15Z" fill="#FFBE55"/>
<path d="M105.282 45.4543H75.9142V81.699L105.282 50.3094V45.4543Z" fill="white"/>
<path d="M75.9142 81.6989V100.539H105.282V50.3093L75.9142 81.6989Z" fill="white"/>
<path d="M92.7781 105.617C93.2758 104.324 92.7052 102.841 91.5035 102.305C90.3018 101.77 88.9242 102.384 88.4264 103.677C87.9287 104.97 88.4993 106.453 89.701 106.988C90.9026 107.524 92.2803 106.91 92.7781 105.617Z" fill="#F0EDE6"/>
<path d="M93.166 41.6986H88.0018C87.8883 41.6986 87.7748 41.607 87.7748 41.4544C87.7748 41.3322 87.8599 41.2101 88.0018 41.2101H93.166C93.2795 41.2101 93.393 41.3017 93.393 41.4544C93.393 41.607 93.3078 41.6986 93.166 41.6986ZM90.896 39.1337C90.896 38.9505 90.7541 38.7979 90.5839 38.7979C90.4136 38.7979 90.2717 38.9505 90.2717 39.1337C90.2717 39.3169 90.4136 39.4696 90.5839 39.4696C90.7825 39.4391 90.896 39.3169 90.896 39.1337Z" fill="#F0EDE6"/>
<path d="M85.5049 42.0649C85.8183 42.0649 86.0724 41.7915 86.0724 41.4542C86.0724 41.1169 85.8183 40.8435 85.5049 40.8435C85.1915 40.8435 84.9374 41.1169 84.9374 41.4542C84.9374 41.7915 85.1915 42.0649 85.5049 42.0649Z" fill="#F0EDE6"/>
<path d="M180.082 72.3671H163.766C159.34 72.3671 155.708 68.4587 155.708 63.6953V8.67184C155.708 3.90843 159.34 0 163.766 0H180.082C184.508 0 188.14 3.90843 188.14 8.67184V63.6953C188.14 68.4587 184.508 72.3671 180.082 72.3671Z" fill="#FFBE55"/>
<path d="M186.608 8.67188H157.24V44.9165L186.608 13.5269V8.67188Z" fill="white"/>
<path d="M157.24 44.9165V63.7564H186.608V13.5269L157.24 44.9165Z" fill="white"/>
<path d="M174.104 68.8343C174.602 67.5412 174.031 66.0587 172.829 65.523C171.628 64.9874 170.25 65.6015 169.752 66.8946C169.255 68.1878 169.825 69.6703 171.027 70.2059C172.229 70.7416 173.606 70.1275 174.104 68.8343Z" fill="#F0EDE6"/>
<path d="M174.492 4.91617H169.328C169.214 4.91617 169.101 4.82456 169.101 4.67189C169.101 4.54975 169.186 4.42762 169.328 4.42762H174.492C174.605 4.42762 174.719 4.51922 174.719 4.67189C174.719 4.82456 174.634 4.91617 174.492 4.91617ZM172.222 2.35126C172.222 2.16806 172.08 2.01538 171.91 2.01538C171.74 2.01538 171.598 2.16806 171.598 2.35126C171.598 2.53447 171.74 2.68714 171.91 2.68714C172.108 2.6566 172.222 2.53447 172.222 2.35126Z" fill="#F0EDE6"/>
<path d="M166.831 5.28242C167.144 5.28242 167.398 5.009 167.398 4.67173C167.398 4.33445 167.144 4.06104 166.831 4.06104C166.518 4.06104 166.263 4.33445 166.263 4.67173C166.263 5.009 166.518 5.28242 166.831 5.28242Z" fill="#F0EDE6"/>
<mask id="mask0_800_481" style="mask-type:luminance" maskUnits="userSpaceOnUse" x="47" y="0" width="161" height="129">
<path d="M47.3883 0.969971H207.28V128.513H47.3883V0.969971Z" fill="white"/>
</mask>
<g mask="url(#mask0_800_481)">
<g opacity="0.5">
<path d="M96.9871 43.7796C96.9303 43.7796 96.9019 43.7796 96.8452 43.7491C91.5959 40.0849 91.8512 36.6345 91.8796 36.3292C91.8796 34.8024 93.0714 33.5811 94.5468 33.5811C95.6251 33.5811 96.5614 34.2528 96.9587 35.1994C97.3843 34.2528 98.3207 33.5811 99.3705 33.5811C100.846 33.5811 102.038 34.833 102.038 36.3597V36.3902C102.095 37.062 102.038 40.2987 97.0722 43.7796H96.9871ZM94.5752 34.0696C93.3835 34.0696 92.3904 35.0773 92.3904 36.3292V36.3597C92.3904 36.3902 92.0215 39.6574 96.9871 43.1995C101.612 39.9017 101.641 36.9399 101.584 36.3597V36.2986C101.584 35.0467 100.591 34.0391 99.3989 34.0391C98.2072 34.0391 97.2141 35.0467 97.2141 36.2986C97.2141 36.4513 97.1006 36.5429 96.9871 36.5429C96.8452 36.5429 96.7601 36.4208 96.7601 36.2986C96.7601 35.0773 95.767 34.0696 94.5752 34.0696ZM163.696 59.566C160.915 59.566 158.645 57.1233 158.645 54.1309C158.645 51.1385 160.915 48.6957 163.696 48.6957C166.477 48.6957 168.747 51.1385 168.747 54.1309C168.747 57.1233 166.477 59.566 163.696 59.566ZM163.696 49.1843C161.171 49.1843 159.128 51.3828 159.128 54.1003C159.128 56.8179 161.171 59.0164 163.696 59.0164C166.221 59.0164 168.264 56.8179 168.264 54.1003C168.264 51.3828 166.221 49.1843 163.696 49.1843Z" fill="#FFBE55"/>
<path d="M163.696 54.3751H161C160.858 54.3751 160.773 54.253 160.773 54.1308C160.773 54.0087 160.887 53.8865 161 53.8865H163.469V50.5277C163.469 50.375 163.582 50.2834 163.696 50.2834C163.809 50.2834 163.923 50.4056 163.923 50.5277V54.1308C163.923 54.253 163.809 54.3751 163.696 54.3751ZM169.257 74.589H156.659C156.517 74.589 156.432 74.4669 156.432 74.3448V64.9095C156.432 64.7569 156.545 64.6653 156.659 64.6653H169.257C169.399 64.6653 169.484 64.7874 169.484 64.9095V74.3448C169.513 74.4669 169.399 74.589 169.257 74.589ZM156.914 74.0699H169.03V65.1538H156.914V74.0699Z" fill="#FFBE55"/>
<path d="M162.958 70.5583C162.561 70.5583 162.164 70.4057 161.851 70.1003L156.517 65.0621C156.404 64.9705 156.404 64.8178 156.489 64.6957C156.574 64.5735 156.716 64.5735 156.829 64.6652L162.164 69.6728C162.618 70.1003 163.299 70.1003 163.753 69.6728L169.087 64.6652C169.201 64.5735 169.342 64.5735 169.428 64.6957C169.513 64.8178 169.513 64.9705 169.399 65.0621L164.065 70.0698C163.753 70.4057 163.355 70.5583 162.958 70.5583Z" fill="#FFBE55"/>
<path d="M169.257 74.589C169.201 74.589 169.144 74.5584 169.087 74.5279L164.121 69.8866C164.008 69.795 164.008 69.6423 164.093 69.5202C164.178 69.3981 164.32 69.3981 164.434 69.4897L169.399 74.1309C169.513 74.2225 169.513 74.3752 169.428 74.4974C169.399 74.5584 169.342 74.589 169.257 74.589ZM156.659 74.589C156.602 74.589 156.517 74.5584 156.489 74.4974C156.404 74.3752 156.404 74.2225 156.517 74.1309L161.483 69.4897C161.596 69.3981 161.738 69.3981 161.823 69.5202C161.908 69.6423 161.908 69.795 161.795 69.8866L156.829 74.5279C156.772 74.5584 156.716 74.589 156.659 74.589ZM164.831 91.0777C164.774 91.0777 164.746 91.0471 164.689 91.0166L161.511 88.5433L158.333 91.0166C158.248 91.0777 158.134 91.0777 158.049 91.0166C157.964 90.9555 157.936 90.8334 157.964 90.7418L159.184 86.7112L156.006 84.2379C155.921 84.1768 155.893 84.0547 155.921 83.9631C155.95 83.8715 156.035 83.7799 156.148 83.7799H160.064L161.284 79.7493C161.312 79.6577 161.397 79.5661 161.511 79.5661C161.624 79.5661 161.71 79.6272 161.738 79.7493L162.958 83.7799H166.874C166.987 83.7799 167.072 83.841 167.101 83.9631C167.129 84.0852 167.101 84.1768 167.016 84.2379L163.838 86.7112L165.058 90.7418C165.086 90.8334 165.058 90.9555 164.973 91.0166C164.916 91.0471 164.888 91.0777 164.831 91.0777ZM161.511 87.9631C161.568 87.9631 161.596 87.9937 161.653 88.0242L164.377 90.1616L163.327 86.7112C163.299 86.6196 163.327 86.4975 163.412 86.4364L166.136 84.299H162.788C162.674 84.299 162.589 84.2379 162.561 84.1158L161.511 80.6653L160.461 84.1158C160.433 84.2074 160.348 84.299 160.234 84.299H156.886L159.61 86.4364C159.695 86.4975 159.723 86.6196 159.695 86.7112L158.645 90.1616L161.369 88.0242C161.426 87.9631 161.454 87.9631 161.511 87.9631ZM85.325 69.0011H73.4928C72.7551 69.0011 72.1592 68.3599 72.1592 67.566V60.5736C72.1592 59.7796 72.7551 59.1384 73.4928 59.1384H85.325C86.0628 59.1384 86.6586 59.7796 86.6586 60.5736V67.566C86.6586 68.3599 86.0628 69.0011 85.325 69.0011ZM73.4928 59.688C73.0388 59.688 72.6416 60.085 72.6416 60.6041V67.5965C72.6416 68.0851 73.0104 68.5126 73.4928 68.5126H85.325C85.779 68.5126 86.1763 68.1156 86.1763 67.5965V60.6041C86.1763 60.1155 85.8074 59.688 85.325 59.688H73.4928Z" fill="#FFBE55"/>
<path d="M79.3949 67.566C77.6073 67.566 76.1602 66.0087 76.1602 64.085C76.1602 62.1614 77.6073 60.6041 79.3949 60.6041C81.1825 60.6041 82.6296 62.1614 82.6296 64.085C82.6296 66.0087 81.1825 67.566 79.3949 67.566ZM79.3949 61.1232C77.891 61.1232 76.6425 62.4362 76.6425 64.085C76.6425 65.7034 77.8627 67.0469 79.3949 67.0469C80.9271 67.0469 82.1472 65.7339 82.1472 64.085C82.1472 62.4667 80.9271 61.1232 79.3949 61.1232ZM82.9133 59.6881H76.1886C76.1034 59.6881 76.0183 59.627 75.9615 59.5354C75.9332 59.4438 75.9332 59.3216 76.0183 59.2606L77.5222 57.5812C77.5789 57.5201 77.6357 57.4896 77.6924 57.4896H81.4662C81.523 57.4896 81.6081 57.5201 81.6365 57.5812L83.0836 59.2606C83.1403 59.3216 83.1687 59.4438 83.1403 59.5354C83.0836 59.627 82.9985 59.6881 82.9133 59.6881ZM76.756 59.169H82.3458L81.3527 58.0086H77.7775L76.756 59.169ZM75.3941 59.6881H73.8902C73.7483 59.6881 73.6632 59.5659 73.6632 59.4438V58.2224C73.6632 58.0697 73.7767 57.9781 73.8902 57.9781H75.3941C75.5359 57.9781 75.6211 58.1003 75.6211 58.2224V59.4438C75.6211 59.5659 75.5359 59.6881 75.3941 59.6881ZM74.1456 59.169H75.1671V58.4361H74.1456V59.169ZM182.026 139.933C181.969 139.933 181.913 139.903 181.884 139.872L179.529 137.826H177.486C177.344 137.826 177.259 137.704 177.259 137.582V134.376C177.259 134.315 177.287 134.254 177.316 134.193C177.373 134.132 177.429 134.132 177.486 134.132H179.671L181.884 132.086C181.969 132.025 182.054 131.994 182.14 132.055C182.225 132.086 182.281 132.177 182.281 132.299V139.719C182.281 139.811 182.225 139.903 182.14 139.964C182.111 139.903 182.083 139.933 182.026 139.933ZM177.713 137.307H179.614C179.671 137.307 179.728 137.338 179.756 137.368L181.799 139.139V132.819L179.926 134.559C179.87 134.59 179.841 134.62 179.756 134.62H177.713V137.307ZM184.211 138.376C184.154 138.376 184.097 138.345 184.069 138.315C183.956 138.223 183.956 138.071 184.041 137.948C185.488 135.994 184.097 134.04 184.041 133.948C183.956 133.826 183.984 133.674 184.069 133.582C184.154 133.49 184.324 133.521 184.41 133.612C184.438 133.643 186.084 135.964 184.41 138.254C184.353 138.345 184.268 138.376 184.211 138.376ZM186.112 139.383C186.055 139.383 186.027 139.353 185.97 139.322C185.857 139.231 185.828 139.078 185.913 138.956C187.928 135.994 185.999 133.063 185.913 132.941C185.828 132.819 185.857 132.666 185.97 132.574C186.084 132.483 186.226 132.513 186.311 132.635C186.339 132.666 188.524 135.994 186.311 139.261C186.254 139.322 186.197 139.383 186.112 139.383ZM187.814 140.971C187.758 140.971 187.729 140.941 187.673 140.91C187.559 140.819 187.531 140.666 187.616 140.544C190.624 135.994 187.644 131.383 187.616 131.322C187.531 131.2 187.559 131.048 187.673 130.956C187.786 130.864 187.928 130.895 188.013 131.017C188.041 131.078 191.219 135.994 188.013 140.849C187.985 140.941 187.9 140.971 187.814 140.971ZM106.691 33.0618C106.663 33.0618 106.635 33.0618 106.606 33.0313C106.521 33.0008 106.464 32.9092 106.464 32.787V28.5122L104.45 30.4664C104.365 30.558 104.194 30.558 104.109 30.4359C104.024 30.3443 104.024 30.161 104.138 30.0694L106.493 27.7793V27.5656L104.138 25.2144C104.052 25.1228 104.024 24.9396 104.138 24.848C104.223 24.7564 104.393 24.7259 104.478 24.848L106.493 26.8633V23.0465C106.493 22.9549 106.549 22.8633 106.635 22.8022C106.72 22.7717 106.833 22.7717 106.89 22.8633L109.302 25.3366C109.359 25.3976 109.387 25.4587 109.387 25.5198C109.387 25.5809 109.359 25.6725 109.302 25.703L107.287 27.6572L109.302 29.6725C109.387 29.7641 109.415 29.9168 109.302 30.0389L106.89 32.9092C106.833 33.0313 106.776 33.0618 106.691 33.0618ZM106.947 28.1152V32.1458L108.791 29.9778L106.947 28.1152ZM106.947 23.7182V27.3824L108.791 25.6114L106.947 23.7182ZM127.972 38.0085C127.916 38.0085 127.859 37.9779 127.802 37.9474L125.958 35.9626C125.873 35.871 125.873 35.6878 125.958 35.5962C126.497 35.0161 127.206 34.7107 127.972 34.7107C128.738 34.7107 129.448 35.0161 129.987 35.5962C130.072 35.6878 130.072 35.871 129.987 35.9626L128.143 37.9474C128.086 38.0085 128.029 38.0085 127.972 38.0085ZM126.468 35.7794L127.972 37.3978L129.476 35.7794C129.051 35.413 128.54 35.1993 127.972 35.1993C127.405 35.1993 126.894 35.413 126.468 35.7794Z" fill="#FFBE55"/>
<path d="M131.037 34.7108C130.98 34.7108 130.923 34.6803 130.866 34.6498C130.1 33.8253 129.05 33.3368 127.944 33.3368C126.837 33.3368 125.816 33.7948 125.021 34.6498C124.936 34.7414 124.766 34.7414 124.681 34.6498L123.461 33.3368C123.375 33.2452 123.375 33.062 123.461 32.9703C124.652 31.6879 126.241 30.9856 127.944 30.9856C129.646 30.9856 131.235 31.6879 132.427 32.9703C132.512 33.062 132.512 33.2452 132.427 33.3368L131.207 34.6498C131.178 34.6803 131.122 34.7108 131.037 34.7108ZM127.972 32.8177C129.107 32.8177 130.214 33.2757 131.037 34.1001L131.916 33.1536C130.838 32.0848 129.419 31.4742 127.944 31.4742C126.468 31.4742 125.05 32.0543 123.971 33.1536L124.851 34.1001C125.731 33.2757 126.837 32.8177 127.972 32.8177Z" fill="#FFBE55"/>
<path d="M133.42 32.1765C133.363 32.1765 133.307 32.146 133.25 32.1154C131.831 30.5887 129.959 29.7643 127.972 29.7643C125.986 29.7643 124.113 30.5887 122.695 32.1154C122.609 32.207 122.439 32.207 122.354 32.1154L121.134 30.8024C121.077 30.7414 121.077 30.6803 121.077 30.6192C121.077 30.5582 121.106 30.4971 121.134 30.436C122.95 28.4818 125.39 27.3826 127.972 27.3826C130.554 27.3826 132.995 28.4818 134.811 30.436C134.896 30.5276 134.896 30.7108 134.811 30.8024L133.59 32.1154C133.534 32.146 133.477 32.1765 133.42 32.1765ZM121.645 30.5887L122.524 31.5353C124 30.0391 125.929 29.2146 127.972 29.2146C130.015 29.2146 131.916 30.0391 133.42 31.5353L134.3 30.5887C132.569 28.8177 130.356 27.8711 127.972 27.8711C125.589 27.8711 123.347 28.8177 121.645 30.5887ZM97.6398 109.612H88.3897C87.6803 109.612 87.1128 109.002 87.1128 108.238V93.7954C87.1128 93.0321 87.6803 92.4214 88.3897 92.4214H97.6398C98.3492 92.4214 98.9167 93.0321 98.9167 93.7954V108.238C98.9167 109.002 98.3492 109.612 97.6398 109.612ZM88.3897 92.9099C87.9357 92.9099 87.5952 93.3069 87.5952 93.7649V108.208C87.5952 108.696 87.964 109.063 88.3897 109.063H97.6398C98.0938 109.063 98.4343 108.666 98.4343 108.208V93.7649C98.4343 93.2763 98.0654 92.9099 97.6398 92.9099H88.3897Z" fill="#FFBE55"/>
<path d="M97.2141 97.1236H88.7868C88.6449 97.1236 88.5598 97.0014 88.5598 96.8793V94.7724C88.5598 94.6197 88.6733 94.5281 88.7868 94.5281H97.2141C97.356 94.5281 97.4411 94.6503 97.4411 94.7724V96.8793C97.4695 97.0014 97.356 97.1236 97.2141 97.1236ZM89.0422 96.6045H96.9871V95.0167H89.0422V96.6045ZM91 101.093H88.8152C88.6733 101.093 88.5882 100.971 88.5882 100.849V98.4976C88.5882 98.345 88.7017 98.2534 88.8152 98.2534H91C91.1419 98.2534 91.227 98.3755 91.227 98.4976V100.849C91.227 101.001 91.1419 101.093 91 101.093ZM89.0422 100.574H90.7447V98.7419H89.0422V100.574ZM94.1212 101.093H91.908C91.7661 101.093 91.681 100.971 91.681 100.849V98.4976C91.681 98.345 91.7945 98.2534 91.908 98.2534H94.0929C94.2347 98.2534 94.3199 98.3755 94.3199 98.4976V100.849C94.3482 101.001 94.2347 101.093 94.1212 101.093ZM92.1634 100.574H93.8659V98.7419H92.1634V100.574ZM91 104.482H88.8152C88.6733 104.482 88.5882 104.36 88.5882 104.238V101.887C88.5882 101.734 88.7017 101.643 88.8152 101.643H91C91.1419 101.643 91.227 101.765 91.227 101.887V104.238C91.227 104.36 91.1419 104.482 91 104.482ZM89.0422 103.963H90.7447V102.131H89.0422V103.963ZM94.1212 104.482H91.908C91.7661 104.482 91.681 104.36 91.681 104.238V101.887C91.681 101.734 91.7945 101.643 91.908 101.643H94.0929C94.2347 101.643 94.3199 101.765 94.3199 101.887V104.238C94.3482 104.36 94.2347 104.482 94.1212 104.482ZM92.1634 103.963H93.8659V102.131H92.1634V103.963ZM91 107.933H88.8152C88.6733 107.933 88.5882 107.811 88.5882 107.689V105.337C88.5882 105.185 88.7017 105.093 88.8152 105.093H91C91.1419 105.093 91.227 105.215 91.227 105.337V107.689C91.227 107.811 91.1419 107.933 91 107.933ZM89.0422 107.414H90.7447V105.582H89.0422V107.414ZM94.1212 107.933H91.908C91.7661 107.933 91.681 107.811 91.681 107.689V105.337C91.681 105.185 91.7945 105.093 91.908 105.093H94.0929C94.2347 105.093 94.3199 105.215 94.3199 105.337V107.689C94.3482 107.811 94.2347 107.933 94.1212 107.933ZM92.1634 107.414H93.8659V105.582H92.1634V107.414ZM97.2141 101.093H95.0292C94.8874 101.093 94.8022 100.971 94.8022 100.849V98.4976C94.8022 98.345 94.9157 98.2534 95.0292 98.2534H97.2141C97.356 98.2534 97.4411 98.3755 97.4411 98.4976V100.849C97.4695 101.001 97.356 101.093 97.2141 101.093ZM95.2846 100.574H96.9871V98.7419H95.2846V100.574ZM97.2708 107.933H95.0009C94.859 107.933 94.7739 107.811 94.7739 107.689V101.887C94.7739 101.734 94.8874 101.643 95.0009 101.643H97.2708C97.4127 101.643 97.4978 101.765 97.4978 101.887V107.689C97.4978 107.811 97.3843 107.933 97.2708 107.933ZM95.2279 107.414H97.0155V102.131H95.2279V107.414ZM97.7248 70.1615H97.6965C97.5546 70.1309 97.4695 70.0088 97.4978 69.8867C97.4978 69.8561 97.7816 67.2912 96.7317 65.9782C96.3345 65.4897 95.767 65.2454 95.0576 65.2454C94.2915 65.2454 93.6673 65.5202 93.2416 66.0393C92.1634 67.3523 92.4755 69.8561 92.4755 69.8867C92.5039 70.0393 92.3904 70.1615 92.2769 70.192C92.135 70.2225 92.0215 70.1004 91.9931 69.9783C91.9931 69.8561 91.6526 67.2301 92.8728 65.7339C93.4119 65.0927 94.1212 64.7568 95.0576 64.7568C95.9089 64.7568 96.5898 65.0622 97.1006 65.6729C98.3207 67.1385 98.0086 69.8561 97.9802 69.9783C97.9235 70.0699 97.8383 70.1615 97.7248 70.1615Z" fill="#FFBE55"/>
<path d="M99.3705 76.7875H90.6027C90.4609 76.7875 90.3757 76.6653 90.3757 76.5432V69.4286C90.3757 69.2759 90.4892 69.1843 90.6027 69.1843H99.3705C99.5124 69.1843 99.5975 69.3065 99.5975 69.4286V76.5432C99.5975 76.6653 99.484 76.7875 99.3705 76.7875ZM90.8297 76.2684H99.1151V69.6423H90.8297V76.2684Z" fill="#FFBE55"/>
<path d="M94.9724 75.3523C94.6319 75.3523 94.3482 75.0469 94.3482 74.6805V73.0316C93.9793 72.7874 93.7523 72.3599 93.7523 71.9019C93.7523 71.169 94.2914 70.5889 94.9724 70.5889C95.6534 70.5889 96.1925 71.169 96.1925 71.9019C96.1925 72.3599 95.9655 72.7874 95.5967 73.0316V74.6805C95.5967 75.0469 95.3129 75.3523 94.9724 75.3523ZM94.9724 71.0774C94.5468 71.0774 94.2063 71.4438 94.2063 71.8713C94.2063 72.2072 94.4049 72.5126 94.6887 72.6347C94.8022 72.6958 94.8589 72.8484 94.8306 72.9706V74.6805C94.8306 74.7721 94.8873 74.8332 94.9724 74.8332C95.0576 74.8332 95.1143 74.7721 95.1143 74.6805V72.9706C95.0576 72.8484 95.1427 72.6958 95.2562 72.6347C95.5399 72.5126 95.7385 72.2072 95.7385 71.8713C95.7102 71.4438 95.3697 71.0774 94.9724 71.0774ZM177.685 89.9784C173.996 89.9784 170.988 86.7417 170.988 82.7722C170.988 78.8027 173.996 75.566 177.685 75.566C181.373 75.566 184.381 78.8027 184.381 82.7722C184.381 86.7417 181.373 89.9784 177.685 89.9784ZM177.685 76.0851C174.251 76.0851 171.471 79.0775 171.471 82.7722C171.471 86.4669 174.251 89.4593 177.685 89.4593C181.118 89.4593 183.899 86.4669 183.899 82.7722C183.899 79.0775 181.09 76.0851 177.685 76.0851Z" fill="#FFBE55"/>
<path d="M177.685 77.5814C177.543 77.5814 177.458 77.4593 177.458 77.3371V76.7265C177.458 76.5738 177.571 76.4822 177.685 76.4822C177.798 76.4822 177.912 76.6043 177.912 76.7265V77.3371C177.912 77.4898 177.827 77.5814 177.685 77.5814ZM176.805 77.673C176.692 77.673 176.578 77.5814 176.578 77.4593L176.493 76.8486C176.465 76.6959 176.55 76.5738 176.692 76.5432C176.833 76.5127 176.947 76.6043 176.975 76.757L177.06 77.3677C177.089 77.5203 177.004 77.6425 176.862 77.673H176.805ZM175.954 77.9173C175.869 77.9173 175.755 77.8562 175.727 77.7341L175.528 77.1539C175.472 77.0318 175.557 76.8791 175.67 76.8181C175.784 76.757 175.925 76.8486 175.982 76.9707L176.181 77.5509C176.238 77.673 176.152 77.8257 176.039 77.8868C176.011 77.9173 175.982 77.9173 175.954 77.9173ZM175.159 78.3448C175.074 78.3448 174.989 78.2837 174.961 78.2226L174.677 77.7036C174.62 77.5814 174.649 77.4287 174.762 77.3371C174.876 77.2761 175.018 77.3066 175.103 77.4287L175.386 77.9478C175.443 78.07 175.415 78.2227 175.301 78.3143C175.245 78.3143 175.216 78.3448 175.159 78.3448ZM174.45 78.8639C174.393 78.8639 174.308 78.8333 174.28 78.7723L173.911 78.3143C173.826 78.1921 173.826 78.0394 173.939 77.9478C174.053 77.8562 174.195 77.8562 174.28 77.9784L174.649 78.4364C174.734 78.5585 174.734 78.7112 174.62 78.8028C174.564 78.8639 174.507 78.8639 174.45 78.8639ZM173.826 79.5356C173.769 79.5356 173.712 79.5051 173.684 79.4746L173.258 79.0776C173.145 78.986 173.145 78.8333 173.23 78.7112C173.315 78.5891 173.457 78.5891 173.57 78.6807L173.996 79.0776C174.11 79.1692 174.11 79.3219 174.024 79.444C173.968 79.5051 173.911 79.5356 173.826 79.5356ZM173.343 80.3295C173.315 80.3295 173.258 80.3295 173.23 80.299L172.748 79.9937C172.634 79.9326 172.606 79.7494 172.662 79.6272C172.719 79.5051 172.889 79.4746 173.003 79.5356L173.485 79.841C173.599 79.9021 173.627 80.0853 173.57 80.2074C173.485 80.2685 173.429 80.3295 173.343 80.3295ZM172.975 81.1845C172.946 81.1845 172.918 81.1845 172.889 81.154L172.35 80.9402C172.237 80.8792 172.152 80.757 172.208 80.6044C172.265 80.4822 172.379 80.3906 172.521 80.4517L173.06 80.6654C173.173 80.7265 173.258 80.8486 173.202 81.0013C173.145 81.1234 173.06 81.1845 172.975 81.1845ZM172.748 82.1005H172.719L172.152 82.0089C172.01 81.9784 171.925 81.8563 171.953 81.7036C171.981 81.5509 172.095 81.4593 172.237 81.4898L172.804 81.5814C172.946 81.612 173.031 81.7341 173.003 81.8868C172.946 82.0089 172.861 82.1005 172.748 82.1005ZM172.662 83.0471H172.095C171.953 83.0471 171.868 82.925 171.868 82.8028C171.868 82.6807 171.981 82.5586 172.095 82.5586H172.662C172.804 82.5586 172.889 82.6807 172.889 82.8028C172.889 82.925 172.804 83.0471 172.662 83.0471ZM172.18 84.0853C172.067 84.0853 171.953 83.9937 171.953 83.8715C171.925 83.7189 172.01 83.5967 172.152 83.5662L172.719 83.4746C172.861 83.4441 172.975 83.5357 173.003 83.6883C173.031 83.841 172.946 83.9632 172.804 83.9937L172.237 84.0853H172.18ZM172.435 85.0929C172.35 85.0929 172.237 85.0319 172.208 84.9097C172.152 84.7876 172.237 84.6349 172.35 84.5739L172.889 84.3601C173.003 84.299 173.145 84.3906 173.202 84.5128C173.258 84.6349 173.173 84.7876 173.06 84.8487L172.521 85.0624C172.492 85.0929 172.464 85.0929 172.435 85.0929ZM172.861 86.0395C172.776 86.0395 172.691 85.9784 172.662 85.9174C172.606 85.7952 172.634 85.6426 172.748 85.551L173.23 85.2456C173.343 85.1845 173.485 85.2151 173.57 85.3372C173.627 85.4594 173.599 85.612 173.485 85.7036L173.003 86.009C172.946 86.0395 172.918 86.0395 172.861 86.0395ZM173.429 86.8945C173.372 86.8945 173.287 86.864 173.258 86.8029C173.173 86.6807 173.173 86.5281 173.287 86.4365L173.712 86.0395C173.826 85.9479 173.968 85.9479 174.053 86.07C174.138 86.1922 174.138 86.3449 174.024 86.4365L173.599 86.8334C173.542 86.8639 173.485 86.8945 173.429 86.8945ZM174.11 87.6273C174.053 87.6273 173.996 87.5968 173.968 87.5663C173.854 87.4746 173.854 87.322 173.939 87.1998L174.308 86.7418C174.393 86.6197 174.535 86.6197 174.649 86.7113C174.762 86.8029 174.762 86.9555 174.677 87.0777L174.308 87.5357C174.251 87.5968 174.195 87.6273 174.11 87.6273ZM174.932 88.238C174.904 88.238 174.847 88.238 174.819 88.2075C174.705 88.1464 174.677 87.9632 174.734 87.8411L175.018 87.322C175.074 87.1998 175.245 87.1693 175.358 87.2304C175.471 87.2914 175.5 87.4746 175.443 87.5968L175.159 88.1159C175.074 88.1769 175.018 88.238 174.932 88.238ZM175.812 88.6655C175.784 88.6655 175.755 88.6655 175.727 88.635C175.613 88.5739 175.528 88.4517 175.585 88.2991L175.784 87.7189C175.84 87.5968 175.954 87.5052 176.096 87.5663C176.209 87.6273 176.294 87.7495 176.238 87.9021L176.039 88.4823C176.011 88.6044 175.897 88.6655 175.812 88.6655ZM176.748 88.9403H176.72C176.578 88.9098 176.493 88.7876 176.521 88.635L176.606 88.0243C176.635 87.8716 176.748 87.78 176.89 87.8105C177.032 87.8411 177.117 87.9632 177.089 88.1159L177.004 88.7266C176.975 88.8487 176.862 88.9403 176.748 88.9403ZM177.713 89.0319C177.571 89.0319 177.486 88.9098 177.486 88.7876V88.1769C177.486 88.0243 177.6 87.9327 177.713 87.9327C177.855 87.9327 177.94 88.0548 177.94 88.1769V88.7876C177.968 88.9098 177.855 89.0319 177.713 89.0319ZM178.706 88.9403C178.593 88.9403 178.479 88.8487 178.479 88.7266L178.394 88.1159C178.366 87.9632 178.451 87.8411 178.593 87.8105C178.735 87.78 178.848 87.8716 178.876 88.0243L178.962 88.635C178.99 88.7876 178.905 88.9098 178.763 88.9403H178.706ZM179.643 88.6655C179.557 88.6655 179.444 88.6044 179.416 88.4823L179.217 87.9021C179.16 87.78 179.245 87.6273 179.359 87.5663C179.472 87.5052 179.614 87.5968 179.671 87.7189L179.87 88.2991C179.926 88.4212 179.841 88.5739 179.728 88.635C179.699 88.6655 179.671 88.6655 179.643 88.6655ZM180.522 88.2075C180.437 88.2075 180.352 88.1464 180.324 88.0853L180.04 87.5663C179.983 87.4441 180.011 87.2914 180.125 87.1998C180.238 87.1388 180.38 87.1693 180.465 87.2914L180.749 87.8105C180.806 87.9327 180.778 88.0853 180.664 88.1769C180.607 88.2075 180.551 88.2075 180.522 88.2075ZM181.317 87.5968C181.26 87.5968 181.175 87.5662 181.146 87.5052L180.778 87.0472C180.692 86.925 180.692 86.7723 180.806 86.6807C180.919 86.5891 181.061 86.5891 181.146 86.7113L181.515 87.1693C181.6 87.2914 181.6 87.4441 181.487 87.5357C181.43 87.5968 181.373 87.5968 181.317 87.5968ZM181.998 86.864C181.941 86.864 181.884 86.8334 181.856 86.8029L181.43 86.4059C181.317 86.3143 181.317 86.1617 181.402 86.0395C181.487 85.9174 181.629 85.9174 181.742 86.009L182.168 86.4059C182.281 86.4975 182.281 86.6502 182.196 86.7723C182.14 86.8334 182.083 86.864 181.998 86.864ZM182.565 86.009C182.537 86.009 182.48 86.009 182.452 85.9784L181.969 85.6731C181.856 85.612 181.827 85.4288 181.884 85.3067C181.941 85.1845 182.111 85.154 182.225 85.2151L182.707 85.5204C182.821 85.5815 182.849 85.7647 182.792 85.8868C182.735 85.9479 182.65 86.009 182.565 86.009ZM182.962 85.0319C182.934 85.0319 182.906 85.0319 182.877 85.0013L182.338 84.7876C182.225 84.7265 182.14 84.6044 182.196 84.4517C182.253 84.3296 182.367 84.238 182.508 84.299L183.048 84.5128C183.161 84.5739 183.246 84.696 183.189 84.8487C183.161 84.9708 183.076 85.0319 182.962 85.0319ZM183.218 84.0242H183.189L182.622 83.9326C182.48 83.9021 182.395 83.7799 182.423 83.6273C182.452 83.4746 182.565 83.383 182.707 83.4135L183.275 83.5051C183.416 83.5357 183.502 83.6578 183.473 83.8105C183.445 83.9326 183.331 84.0242 183.218 84.0242ZM183.303 82.9861H182.735C182.594 82.9861 182.508 82.8639 182.508 82.7418C182.508 82.6196 182.622 82.4975 182.735 82.4975H183.303C183.445 82.4975 183.53 82.6196 183.53 82.7418C183.53 82.8639 183.445 82.9861 183.303 82.9861ZM182.65 82.0395C182.537 82.0395 182.423 81.9479 182.423 81.8257C182.395 81.6731 182.48 81.5509 182.622 81.5204L183.189 81.4288C183.331 81.3982 183.445 81.4898 183.473 81.6425C183.502 81.7952 183.416 81.9173 183.275 81.9479L182.707 82.0395H182.65ZM182.423 81.1234C182.338 81.1234 182.225 81.0624 182.196 80.9402C182.14 80.8181 182.225 80.6654 182.338 80.6044L182.877 80.3906C182.991 80.3295 183.133 80.4211 183.189 80.5433C183.246 80.6654 183.161 80.8181 183.048 80.8792L182.508 81.0929C182.48 81.1234 182.452 81.1234 182.423 81.1234ZM182.054 80.2685C181.969 80.2685 181.884 80.2074 181.856 80.1463C181.799 80.0242 181.827 79.8715 181.941 79.7799L182.423 79.4746C182.537 79.4135 182.679 79.444 182.764 79.5662C182.821 79.6883 182.792 79.841 182.679 79.9326L182.196 80.2379C182.14 80.2685 182.083 80.2685 182.054 80.2685ZM181.544 79.5051C181.487 79.5051 181.402 79.4746 181.373 79.4135C181.288 79.2914 181.288 79.1387 181.402 79.0471L181.827 78.6501C181.941 78.5585 182.083 78.5585 182.168 78.6807C182.253 78.8028 182.253 78.9555 182.14 79.0471L181.714 79.444C181.657 79.4746 181.6 79.5051 181.544 79.5051ZM180.919 78.8333C180.863 78.8333 180.806 78.8028 180.778 78.7723C180.664 78.6807 180.664 78.528 180.749 78.4059L181.118 77.9478C181.203 77.8257 181.345 77.8257 181.459 77.9173C181.572 78.0089 181.572 78.1616 181.487 78.2837L181.118 78.7417C181.061 78.8028 180.976 78.8333 180.919 78.8333ZM180.21 78.3143C180.182 78.3143 180.125 78.3142 180.097 78.2837C179.983 78.2226 179.955 78.0394 180.011 77.9173L180.295 77.3982C180.352 77.2761 180.522 77.2455 180.636 77.3066C180.749 77.3677 180.778 77.5509 180.721 77.673L180.437 78.1921C180.352 78.2532 180.295 78.3143 180.21 78.3143ZM179.416 77.9173C179.387 77.9173 179.359 77.9173 179.33 77.8868C179.217 77.8257 179.132 77.7036 179.189 77.5509L179.387 76.9707C179.444 76.8486 179.557 76.757 179.699 76.8181C179.813 76.8791 179.898 77.0013 179.841 77.1539L179.643 77.7341C179.586 77.8562 179.501 77.9173 179.416 77.9173ZM178.564 77.673H178.536C178.394 77.6425 178.309 77.5203 178.337 77.3677L178.422 76.757C178.451 76.6043 178.564 76.5127 178.706 76.5432C178.848 76.5738 178.933 76.6959 178.905 76.8486L178.82 77.4593C178.763 77.5814 178.678 77.673 178.564 77.673Z" fill="#FFBE55"/>
<path d="M173.599 86.925C173.542 86.925 173.457 86.8944 173.428 86.8334C173.343 86.7418 173.343 86.6196 173.428 86.4975L176.748 81.6119C176.777 81.5814 176.805 81.5509 176.833 81.5509L181.686 78.8333C181.771 78.7722 181.913 78.8028 181.969 78.8944C182.054 78.986 182.054 79.1081 181.969 79.1997L178.791 83.9936L178.706 84.0852L173.712 86.8944C173.655 86.925 173.627 86.925 173.599 86.925ZM177.089 81.9784L174.393 85.9173L178.422 83.6272L180.976 79.7493L177.089 81.9784Z" fill="#FFBE55"/>
<path d="M178.592 84.0853C178.536 84.0853 178.451 84.0547 178.422 83.9937L176.748 81.9173C176.663 81.7952 176.663 81.6425 176.776 81.5509C176.89 81.4593 177.032 81.4593 177.117 81.5814L178.791 83.6578C178.876 83.7799 178.876 83.9326 178.763 84.0242C178.706 84.0853 178.649 84.0853 178.592 84.0853ZM172.208 148.178H172.123C168.86 147.048 165.285 148.178 165.256 148.178C165.171 148.208 165.114 148.177 165.058 148.147C165.001 148.086 164.973 148.025 164.973 147.933V136.605C164.973 136.483 165.029 136.391 165.143 136.361C165.285 136.3 168.888 135.17 172.293 136.361C172.378 136.391 172.463 136.483 172.463 136.605V147.933C172.463 148.025 172.435 148.086 172.378 148.147C172.322 148.147 172.265 148.178 172.208 148.178ZM165.427 136.788V147.567C166.363 147.323 169.2 146.712 171.981 147.567V136.788C169.172 135.872 166.164 136.574 165.427 136.788Z" fill="#FFBE55"/>
<path d="M158.163 148.177C158.106 148.177 158.049 148.147 158.021 148.116C157.964 148.055 157.936 147.994 157.936 147.903V136.574C157.936 136.452 157.992 136.361 158.106 136.33C161.511 135.139 165.114 136.269 165.256 136.33C165.37 136.361 165.427 136.452 165.427 136.574V147.903C165.427 147.994 165.398 148.055 165.341 148.116C165.285 148.177 165.2 148.177 165.143 148.147C165.114 148.147 161.511 147.017 158.276 148.147C158.219 148.147 158.191 148.177 158.163 148.177ZM161.511 147.109C163.072 147.109 164.377 147.414 164.973 147.567V136.788C164.235 136.574 161.227 135.872 158.418 136.788V147.567C159.468 147.231 160.546 147.109 161.511 147.109ZM75.2236 51.1384C72.7833 51.1384 70.7971 49.0009 70.7971 46.375C70.7971 43.749 72.7833 41.6116 75.2236 41.6116C77.6638 41.6116 79.65 43.749 79.65 46.375C79.65 49.0009 77.6638 51.1384 75.2236 51.1384ZM75.2236 42.1612C73.0387 42.1612 71.2795 44.0543 71.2795 46.4055C71.2795 48.7567 73.0387 50.6498 75.2236 50.6498C77.4084 50.6498 79.1676 48.7567 79.1676 46.4055C79.1676 44.0543 77.4084 42.1612 75.2236 42.1612Z" fill="#FFBE55"/>
<path d="M75.2236 48.6041C75.0817 48.6041 74.9966 48.4819 74.9966 48.3598V44.3598C74.9966 44.2071 75.1101 44.1155 75.2236 44.1155C75.3371 44.1155 75.4506 44.2376 75.4506 44.3598V48.3598C75.479 48.4819 75.3655 48.6041 75.2236 48.6041Z" fill="#FFBE55"/>
<path d="M77.0679 46.5887H73.3508C73.209 46.5887 73.1238 46.4665 73.1238 46.3444C73.1238 46.1917 73.2373 46.1001 73.3508 46.1001H77.0679C77.2098 46.1001 77.2949 46.2222 77.2949 46.3444C77.3233 46.4971 77.2098 46.5887 77.0679 46.5887ZM74.6561 140.299C72.2158 140.299 70.2296 138.162 70.2296 135.536C70.2296 132.91 72.2158 130.773 74.6561 130.773C77.0963 130.773 79.0825 132.91 79.0825 135.536C79.0541 138.162 77.0963 140.299 74.6561 140.299ZM74.6561 131.322C72.4712 131.322 70.712 133.215 70.712 135.567C70.712 137.918 72.4712 139.811 74.6561 139.811C76.8409 139.811 78.6001 137.918 78.6001 135.567C78.5718 133.215 76.8125 131.322 74.6561 131.322Z" fill="#FFBE55"/>
<path d="M76.5005 135.75H72.7834C72.6415 135.75 72.5564 135.628 72.5564 135.506C72.5564 135.384 72.6699 135.261 72.7834 135.261H76.5005C76.6424 135.261 76.7275 135.384 76.7275 135.506C76.7275 135.628 76.6424 135.75 76.5005 135.75ZM141.28 37.5199C141.138 37.5199 141.053 37.3978 141.053 37.2757V28.2985C141.053 28.1458 141.166 28.0542 141.28 28.0542C141.393 28.0542 141.507 28.1763 141.507 28.2985V37.2757C141.507 37.3978 141.393 37.5199 141.28 37.5199Z" fill="#FFBE55"/>
<path d="M138.982 31.0161C138.925 31.0161 138.868 30.9856 138.811 30.955C138.726 30.8634 138.726 30.6802 138.811 30.5886L141.081 28.1459C141.166 28.0542 141.337 28.0542 141.422 28.1459C141.507 28.2375 141.507 28.4207 141.422 28.5123L139.152 30.955C139.123 30.9856 139.067 31.0161 138.982 31.0161Z" fill="#FFBE55"/>
<path d="M143.55 31.0161C143.493 31.0161 143.436 30.9855 143.38 30.955L141.11 28.5122C141.024 28.4206 141.024 28.2374 141.11 28.1458C141.195 28.0542 141.365 28.0542 141.45 28.1458L143.72 30.5886C143.805 30.6802 143.805 30.8634 143.72 30.955C143.663 30.9855 143.607 31.0161 143.55 31.0161ZM145.706 37.5199C145.564 37.5199 145.479 37.3978 145.479 37.2757V28.2985C145.479 28.1458 145.593 28.0542 145.706 28.0542C145.848 28.0542 145.933 28.1763 145.933 28.2985V37.2757C145.933 37.3978 145.848 37.5199 145.706 37.5199Z" fill="#FFBE55"/>
<path d="M145.706 37.52C145.65 37.52 145.593 37.4895 145.536 37.4589C145.451 37.3673 145.451 37.1841 145.536 37.0925L147.806 34.6498C147.891 34.5582 148.061 34.5582 148.146 34.6498C148.232 34.7414 148.232 34.9246 148.146 35.0162L145.877 37.4589C145.82 37.4895 145.763 37.52 145.706 37.52Z" fill="#FFBE55"/>
<path d="M145.707 37.5201C145.65 37.5201 145.593 37.4895 145.536 37.459L143.266 35.0162C143.181 34.9246 143.181 34.7414 143.266 34.6498C143.351 34.5582 143.522 34.5582 143.607 34.6498L145.877 37.0926C145.962 37.1842 145.962 37.3674 145.877 37.459C145.82 37.4895 145.763 37.5201 145.707 37.5201ZM178.224 67.1692C175.699 67.1692 173.656 64.9707 173.656 62.2531C173.656 60.1768 174.876 58.3447 176.663 57.6119C176.748 57.5813 176.862 57.6119 176.947 57.7035C177.004 57.7951 177.004 57.9172 176.975 58.0088C176.55 58.7111 176.323 59.5356 176.323 60.3905C176.323 62.8333 178.167 64.8181 180.437 64.8181C180.919 64.8181 181.373 64.7264 181.827 64.5432C181.913 64.5127 182.026 64.5432 182.083 64.6348C182.14 64.7264 182.14 64.8486 182.111 64.9402C181.232 66.3142 179.785 67.1692 178.224 67.1692ZM176.209 58.4058C174.961 59.1691 174.138 60.6348 174.138 62.2226C174.138 64.6654 175.982 66.6501 178.252 66.6501C179.416 66.6501 180.522 66.131 181.288 65.215C181.005 65.2761 180.721 65.3066 180.437 65.3066C177.912 65.3066 175.869 63.1081 175.869 60.3905C175.812 59.6882 175.954 59.047 176.209 58.4058ZM80.3029 91.9328C80.2178 91.9328 80.1327 91.9023 80.0476 91.8717C79.8489 91.7496 79.7922 91.5053 79.8489 91.2916L81.6365 85.4289H76.8128V86.1007C76.8128 86.3755 76.6993 86.6198 76.5007 86.803C76.3021 86.9862 76.0467 87.0473 75.8197 87.0167C75.4225 86.9557 75.1104 86.5282 75.1104 86.0702V81.5816C75.1104 81.3067 75.2239 81.0625 75.4225 80.8793C75.6211 80.6961 75.8765 80.635 76.1035 80.6655C76.5007 80.7266 76.8128 81.1541 76.8128 81.6121V82.2533H81.6365L79.8489 76.4517C79.7922 76.2075 79.8489 75.9937 80.0476 75.841C80.2462 75.7189 80.4732 75.7494 80.6434 75.9327L86.3467 82.2533H90.0922C90.8015 82.2533 91.4258 82.7724 91.5677 83.5053C91.6528 83.9633 91.5393 84.4518 91.2839 84.8488C91.0002 85.2152 90.5745 85.4289 90.1489 85.4289H86.3467L80.615 91.7801C80.5299 91.8717 80.4164 91.9328 80.3029 91.9328ZM76.5858 84.9098H81.977C82.0621 84.9098 82.1189 84.9404 82.1757 85.032C82.2324 85.0931 82.2324 85.1847 82.204 85.2763L80.3313 91.3832L86.0914 85.0014C86.1481 84.9404 86.2049 84.9098 86.2616 84.9098H90.1489C90.461 84.9098 90.7164 84.7572 90.915 84.5129C91.1137 84.2686 91.1704 83.9327 91.1137 83.6274C91.0285 83.1388 90.6029 82.8029 90.0922 82.8029H86.2332C86.1765 82.8029 86.1197 82.7724 86.063 82.7113L80.2745 76.3296L82.1757 82.4671C82.204 82.5587 82.1756 82.6197 82.1473 82.7113C82.0905 82.7724 82.0338 82.8335 81.9486 82.8335H76.5858C76.444 82.8335 76.3588 82.7114 76.3588 82.5892V81.6732C76.3588 81.4594 76.217 81.2762 76.0467 81.2457C75.9332 81.2152 75.8197 81.2457 75.7346 81.3373C75.6495 81.3984 75.5927 81.5205 75.5927 81.6426V86.1312C75.5927 86.345 75.7346 86.5282 75.9048 86.5587C76.0183 86.5893 76.1318 86.5587 76.217 86.4671C76.3021 86.406 76.3588 86.2839 76.3588 86.1618V85.2152C76.3305 85.0014 76.444 84.9098 76.5858 84.9098ZM115.289 38.3445C113.586 38.3445 112.224 36.8483 112.224 35.0468C112.224 33.2147 113.615 31.749 115.289 31.749C115.431 31.749 115.516 31.8712 115.516 31.9933C115.516 32.146 115.402 32.2376 115.289 32.2376C113.87 32.2376 112.707 33.4895 112.707 35.0162C112.707 36.543 113.87 37.7949 115.289 37.7949C116.708 37.7949 117.871 36.543 117.871 35.0162C117.871 34.8636 117.984 34.772 118.098 34.772C118.24 34.772 118.325 34.8941 118.325 35.0162C118.353 36.8483 116.991 38.3445 115.289 38.3445Z" fill="#FFBE55"/>
<path d="M115.289 30.8022V33.6725L117.417 32.2374L115.289 30.8022ZM100.704 182.956C100.562 182.956 100.477 182.834 100.477 182.712C100.477 182.559 100.591 182.468 100.704 182.468C102.123 182.468 103.286 181.216 103.286 179.689C103.286 178.162 102.123 176.911 100.704 176.911C99.2855 176.911 98.1221 178.162 98.1221 179.689C98.1221 179.842 98.0086 179.933 97.8951 179.933C97.7532 179.933 97.6681 179.811 97.6681 179.689C97.6681 177.857 99.0585 176.391 100.733 176.391C102.407 176.391 103.797 177.888 103.797 179.689C103.769 181.46 102.407 182.956 100.704 182.956Z" fill="#FFBE55"/>
<path d="M96.7886 179.628H99.4558L98.1222 181.918L96.7886 179.628ZM174.564 48.604C174.507 48.604 174.422 48.5735 174.393 48.5124L171.783 45.5505C171.698 45.4589 171.698 45.2757 171.783 45.1841C171.868 45.0925 172.038 45.0925 172.123 45.1841L174.535 47.9017L178.621 41.3367C178.706 41.2146 178.848 41.1841 178.962 41.2757C179.075 41.3673 179.103 41.5199 179.018 41.6421L174.762 48.4819C174.734 48.5429 174.649 48.604 174.564 48.604ZM160.064 130.467C160.007 130.467 159.979 130.467 159.951 130.437C158.163 129.246 157.085 127.2 157.085 124.941C157.085 121.399 159.78 118.498 163.072 118.498C166.363 118.498 169.059 121.399 169.059 124.941C169.059 127.2 167.981 129.246 166.193 130.437C166.08 130.498 165.938 130.467 165.853 130.345C165.796 130.223 165.824 130.07 165.938 129.979C167.583 128.88 168.576 127.017 168.576 124.941C168.576 121.673 166.108 119.017 163.072 119.017C160.036 119.017 157.567 121.673 157.567 124.941C157.567 127.017 158.56 128.88 160.206 129.979C160.319 130.04 160.348 130.223 160.291 130.345C160.234 130.406 160.149 130.467 160.064 130.467Z" fill="#FFBE55"/>
<path d="M165.512 129.49C165.427 129.49 165.342 129.46 165.313 129.368C165.257 129.246 165.285 129.093 165.399 129.002C166.732 128.116 167.527 126.59 167.527 124.941C167.527 122.315 165.54 120.147 163.072 120.147C160.632 120.147 158.617 122.284 158.617 124.941C158.617 126.62 159.411 128.147 160.745 129.002C160.859 129.063 160.887 129.246 160.83 129.368C160.773 129.49 160.603 129.521 160.49 129.46C159.014 128.483 158.135 126.803 158.135 124.941C158.135 122.009 160.348 119.658 163.043 119.658C165.739 119.658 167.952 122.04 167.952 124.941C167.952 126.803 167.073 128.483 165.597 129.46C165.597 129.49 165.54 129.49 165.512 129.49Z" fill="#FFBE55"/>
<path d="M164.944 128.513C164.859 128.513 164.774 128.483 164.746 128.391C164.689 128.269 164.717 128.116 164.831 128.025C165.852 127.353 166.448 126.192 166.448 124.91C166.448 122.895 164.944 121.276 163.072 121.276C161.199 121.276 159.695 122.895 159.695 124.91C159.695 126.192 160.291 127.353 161.312 128.025C161.426 128.086 161.454 128.269 161.397 128.391C161.341 128.513 161.17 128.544 161.057 128.483C159.894 127.719 159.213 126.406 159.213 124.941C159.213 122.65 160.943 120.788 163.072 120.788C165.2 120.788 166.931 122.65 166.931 124.941C166.931 126.406 166.25 127.719 165.086 128.483C165.058 128.513 165.001 128.513 164.944 128.513Z" fill="#FFBE55"/>
<path d="M164.944 128.513C164.859 128.513 164.774 128.483 164.746 128.391C164.689 128.269 164.717 128.116 164.831 128.025C165.852 127.353 166.448 126.192 166.448 124.91C166.448 122.895 164.944 121.276 163.072 121.276C161.199 121.276 159.695 122.895 159.695 124.91C159.695 126.192 160.291 127.353 161.312 128.025C161.426 128.086 161.454 128.269 161.397 128.391C161.341 128.513 161.17 128.544 161.057 128.483C159.894 127.719 159.213 126.406 159.213 124.941C159.213 122.65 160.943 120.788 163.072 120.788C165.2 120.788 166.931 122.65 166.931 124.941C166.931 126.406 166.25 127.719 165.086 128.483C165.058 128.513 165.001 128.513 164.944 128.513Z" fill="#FFBE55"/>
<path d="M164.405 127.536C164.32 127.536 164.235 127.506 164.207 127.414C164.15 127.292 164.178 127.139 164.292 127.048C165.001 126.59 165.398 125.796 165.398 124.91C165.398 123.536 164.349 122.406 163.072 122.406C161.795 122.406 160.745 123.536 160.745 124.91C160.745 125.765 161.171 126.559 161.852 127.048C161.965 127.109 161.993 127.292 161.937 127.414C161.88 127.536 161.71 127.567 161.596 127.506C160.745 126.956 160.263 125.979 160.263 124.941C160.263 123.292 161.511 121.918 163.072 121.918C164.604 121.918 165.881 123.261 165.881 124.941C165.881 125.979 165.37 126.956 164.547 127.506C164.49 127.536 164.434 127.536 164.405 127.536Z" fill="#FFBE55"/>
<path d="M163.838 126.59C163.753 126.59 163.668 126.559 163.639 126.467C163.582 126.345 163.611 126.193 163.724 126.101C164.093 125.857 164.32 125.429 164.32 124.941C164.32 124.177 163.753 123.567 163.043 123.567C162.334 123.567 161.766 124.177 161.766 124.941C161.766 125.399 161.993 125.857 162.362 126.101C162.476 126.162 162.504 126.345 162.447 126.467C162.391 126.59 162.22 126.62 162.107 126.559C161.596 126.223 161.284 125.612 161.284 124.971C161.284 123.933 162.079 123.109 163.015 123.109C163.98 123.109 164.746 123.964 164.746 124.971C164.746 125.612 164.434 126.223 163.923 126.559C163.951 126.559 163.895 126.59 163.838 126.59Z" fill="#FFBE55"/>
<path d="M163.838 126.59C163.753 126.59 163.668 126.559 163.639 126.467C163.582 126.345 163.611 126.193 163.724 126.101C164.093 125.857 164.32 125.429 164.32 124.941C164.32 124.177 163.753 123.567 163.043 123.567C162.334 123.567 161.766 124.177 161.766 124.941C161.766 125.399 161.993 125.857 162.362 126.101C162.476 126.162 162.504 126.345 162.447 126.467C162.391 126.59 162.22 126.62 162.107 126.559C161.596 126.223 161.284 125.612 161.284 124.971C161.284 123.933 162.079 123.109 163.015 123.109C163.98 123.109 164.746 123.964 164.746 124.971C164.746 125.612 164.434 126.223 163.923 126.559C163.951 126.559 163.895 126.59 163.838 126.59Z" fill="#FFBE55"/>
<path d="M163.668 124.91C163.668 124.544 163.412 124.269 163.072 124.269C162.731 124.269 162.476 124.544 162.476 124.91C162.476 125.276 162.731 125.551 163.072 125.551C163.412 125.582 163.668 125.276 163.668 124.91ZM156.177 45.123C156.063 45.123 155.978 45.0314 155.95 44.9398C155.921 44.8177 155.978 44.6956 156.092 44.6345C156.489 44.4818 157.028 43.6574 157.34 43.0467C154.815 41.7337 153.254 39.3215 153.254 36.726C153.254 32.6954 156.971 29.3977 161.54 29.3977C166.108 29.3977 169.825 32.6954 169.825 36.726C169.825 40.7566 166.108 44.0543 161.54 44.0543C160.859 44.0543 160.149 43.9627 159.497 43.8101C158.248 44.8177 156.319 45.123 156.234 45.123H156.177ZM161.511 29.8863C157.227 29.8863 153.708 32.9397 153.708 36.6955C153.708 39.1688 155.269 41.4589 157.766 42.6803C157.822 42.7108 157.879 42.7719 157.908 42.8329C157.936 42.894 157.936 42.9856 157.908 43.0467C157.851 43.1688 157.51 43.8406 157.085 44.4207C157.737 44.2375 158.645 43.9017 159.27 43.352C159.326 43.291 159.411 43.291 159.468 43.291C160.149 43.4436 160.83 43.5352 161.54 43.5352C165.824 43.5352 169.343 40.4818 169.343 36.726C169.314 32.9397 165.796 29.8863 161.511 29.8863ZM93.5823 146.284C93.5539 146.284 93.4971 146.284 93.4688 146.254C93.3836 146.193 93.3553 146.101 93.3553 146.01C93.3836 145.674 93.3836 145.368 93.412 145.124V144.849C93.412 144.758 93.4404 144.697 93.4971 144.635C94.2349 143.872 94.6321 142.864 94.6321 141.796C94.6321 139.628 92.9864 137.857 90.9718 137.857C88.9572 137.857 87.3115 139.628 87.3115 141.796C87.3115 142.895 87.7087 143.903 88.4464 144.635C88.5032 144.697 88.5316 144.758 88.5316 144.849V145.124C88.5316 145.368 88.5599 145.674 88.5883 146.01C88.5883 146.101 88.5599 146.193 88.4748 146.254C88.3897 146.315 88.3046 146.315 88.2194 146.254C86.8291 145.246 86.0062 143.597 86.0062 141.796C86.0062 138.834 88.2478 136.422 91.0002 136.422C93.7525 136.422 95.9941 138.834 95.9941 141.796C95.9941 143.567 95.1712 145.246 93.7809 146.254C93.6674 146.254 93.639 146.284 93.5823 146.284ZM93.866 144.91V145.124C93.866 145.246 93.866 145.338 93.8376 145.46C94.8307 144.544 95.4266 143.2 95.4266 141.765C95.4266 139.109 93.412 136.91 90.915 136.91C88.4181 136.91 86.4035 139.078 86.4035 141.765C86.4035 143.2 86.9993 144.544 87.9925 145.46C87.9925 145.338 87.9925 145.216 87.9641 145.124V144.91C87.198 144.055 86.744 142.956 86.744 141.765C86.744 139.322 88.5883 137.307 90.8867 137.307C93.185 137.307 95.0294 139.292 95.0294 141.765C95.0861 142.956 94.6605 144.086 93.866 144.91Z" fill="#FFBE55"/>
<path d="M90.9432 143.292C89.8933 143.292 89.0137 142.376 89.0137 141.216C89.0137 140.086 89.8649 139.139 90.9432 139.139C91.993 139.139 92.8726 140.055 92.8726 141.216C92.8726 142.376 91.993 143.292 90.9432 143.292ZM90.9432 139.689C90.1487 139.689 89.4961 140.391 89.4961 141.246C89.4961 142.101 90.1487 142.803 90.9432 142.803C91.7377 142.803 92.3903 142.101 92.3903 141.246C92.3903 140.391 91.7377 139.689 90.9432 139.689ZM90.9432 151.17C89.8366 151.17 89.4961 150.223 89.4677 149.704C89.4677 149.613 89.0704 146.681 89.0137 145.063C88.9853 144.544 89.1272 144.147 89.4393 143.872C89.95 143.414 90.7445 143.506 90.9432 143.536C91.1418 143.506 91.9363 143.414 92.447 143.872C92.7308 144.147 92.8726 144.544 92.8726 145.063C92.8159 146.681 92.447 149.613 92.4186 149.735C92.3903 150.223 92.0498 151.17 90.9432 151.17ZM90.5459 144.025C90.2905 144.025 89.9784 144.055 89.7514 144.269C89.5812 144.452 89.4961 144.697 89.4961 145.063C89.5528 146.651 89.95 149.643 89.95 149.674C89.95 149.796 90.0352 150.651 90.9432 150.651C91.8512 150.651 91.9363 149.796 91.9363 149.674C91.9363 149.613 92.3335 146.62 92.3903 145.032C92.3903 144.666 92.3335 144.422 92.1349 144.239C91.7376 143.872 90.9999 144.025 90.9999 144.025H90.9148C90.8864 144.055 90.7445 144.025 90.5459 144.025ZM158.815 113.551C157.964 113.551 156.716 113.124 156.46 111.475C156.091 109.032 158.759 108.574 159.638 108.421C159.865 108.391 160.035 108.177 160.035 107.902C160.092 105.795 160.035 99.4442 160.007 98.0396C160.007 97.7648 160.177 97.5205 160.433 97.4595L169.399 95.3526C169.541 95.322 169.683 95.3526 169.796 95.4747C169.91 95.5663 169.967 95.719 169.967 95.8717V109.368C169.967 109.399 169.825 111.719 167.555 111.75C166.76 111.841 165.2 111.566 164.916 109.704C164.575 107.292 167.158 106.834 167.98 106.681C168.264 106.62 168.463 106.376 168.463 106.07V100.024L161.426 101.582V111.17C161.426 111.2 161.284 113.521 159.014 113.551H158.815ZM169.513 95.8717L160.546 97.948C160.518 97.948 160.489 97.9786 160.489 98.0091C160.518 99.4137 160.575 105.795 160.518 107.902C160.518 108.391 160.177 108.818 159.695 108.91C157.567 109.276 156.716 110.04 156.914 111.353C157.198 113.185 158.957 112.971 159.042 112.971H159.071C160.887 112.971 161 111.17 161 111.108V101.307C161 101.185 161.085 101.093 161.199 101.063L168.69 99.3832C168.746 99.3526 168.832 99.3831 168.888 99.4442C168.945 99.5053 168.973 99.5664 168.973 99.658V106.009C168.973 106.559 168.605 107.047 168.094 107.139C166.079 107.505 165.228 108.269 165.427 109.582C165.71 111.444 167.47 111.2 167.555 111.2H167.583C169.399 111.2 169.513 109.399 169.513 109.337V95.8717ZM96.0506 56.8789H95.9655C89.496 55.8102 84.1616 47.688 83.736 44.6956C83.3388 41.8864 85.4385 41.0314 86.0911 40.8177C86.3181 40.7566 86.5451 40.8482 86.6586 41.0314L89.1272 44.6651C89.2407 44.8483 89.2691 45.0926 89.1556 45.2758L88.1341 47.23V47.291C89.5244 49.7949 92.0498 51.7796 92.5321 52.1461H92.5889L94.5467 51.2911C94.717 51.23 94.8872 51.23 95.0291 51.3216L98.4908 53.5812C98.6894 53.7033 98.7746 53.9171 98.7462 54.1613C98.4057 56.6041 96.3344 56.8484 96.079 56.8789H96.0506ZM86.2046 41.3063C85.4668 41.52 83.8495 42.2834 84.19 44.604C84.5872 47.5048 89.7514 55.3217 96.0222 56.3598C96.3627 56.3293 97.9801 56.1156 98.2638 54.1003C98.2638 54.0697 98.2638 54.0697 98.2354 54.0392L94.7737 51.7796H94.717L92.7591 52.6346C92.5889 52.6957 92.3903 52.6957 92.2484 52.5735C91.539 52.0239 89.0988 50.1002 87.7085 47.5659C87.6233 47.3826 87.595 47.1689 87.7085 46.9857L88.7299 45.0315V44.9704L86.2613 41.3368C86.233 41.3368 86.233 41.3063 86.2046 41.3063ZM131.888 20.9702C129.561 20.9702 127.66 18.9244 127.66 16.4205C127.66 13.9167 129.561 11.8708 131.888 11.8708C134.215 11.8708 136.116 13.9167 136.116 16.4205C136.116 18.9244 134.215 20.9702 131.888 20.9702ZM131.888 12.3899C129.816 12.3899 128.142 14.1915 128.142 16.4205C128.142 18.6495 129.816 20.4511 131.888 20.4511C133.959 20.4511 135.633 18.6495 135.633 16.4205C135.633 14.1915 133.959 12.3899 131.888 12.3899Z" fill="#FFBE55"/>
<path d="M139.407 24.2069H132.086C130.724 24.2069 129.589 23.016 129.589 21.5198C129.589 20.2374 130.469 19.1076 131.632 18.8939C131.604 18.7412 131.604 18.558 131.604 18.4053C131.604 15.9625 133.448 13.9778 135.718 13.9778C137.336 13.9778 138.783 14.9854 139.464 16.5732C141.393 16.6038 142.954 18.2832 142.954 20.3901C142.954 22.4969 141.365 24.2069 139.407 24.2069ZM135.718 14.4969C133.732 14.4969 132.086 16.2373 132.086 18.4053C132.086 18.619 132.115 18.8328 132.143 19.0771C132.143 19.1381 132.143 19.2297 132.086 19.2908C132.058 19.3519 131.973 19.3824 131.916 19.3824C130.866 19.474 130.072 20.4206 130.072 21.5504C130.072 22.7412 130.98 23.7183 132.086 23.7183H139.407C141.081 23.7183 142.471 22.2527 142.471 20.4206C142.471 18.619 141.109 17.1228 139.407 17.1228H139.293C139.18 17.1228 139.095 17.0618 139.067 16.9702C138.527 15.474 137.194 14.4969 135.718 14.4969ZM159.411 167.109H156.772C156.63 167.109 156.545 166.987 156.545 166.865C156.545 166.834 156.517 164.117 154.474 162.559C153.14 161.521 152.601 158.834 153.254 156.636C153.651 155.353 154.786 153.185 158.106 153.185C161.426 153.185 162.561 155.353 162.958 156.636C163.611 158.804 163.043 161.521 161.738 162.559C159.695 164.147 159.667 166.834 159.667 166.865C159.667 166.987 159.553 167.109 159.411 167.109ZM156.999 166.59H159.184C159.241 165.827 159.553 163.567 161.426 162.132C162.447 161.338 163.128 158.956 162.476 156.788C162.135 155.628 161.085 153.674 158.078 153.674C155.07 153.674 154.02 155.628 153.679 156.788C153.027 158.956 153.708 161.338 154.729 162.132C156.63 163.567 156.943 165.827 156.999 166.59Z" fill="#FFBE55"/>
<path d="M158.106 166.071C157.964 166.071 157.879 165.949 157.879 165.826V160.147C157.879 159.994 157.992 159.903 158.106 159.903C158.248 159.903 158.333 160.025 158.333 160.147V165.826C158.333 165.949 158.248 166.071 158.106 166.071ZM159.468 168.086H156.659C156.517 168.086 156.432 167.964 156.432 167.842C156.432 167.689 156.545 167.597 156.659 167.597H159.468C159.61 167.597 159.695 167.72 159.695 167.842C159.695 167.994 159.61 168.086 159.468 168.086ZM159.127 169.216H156.999C156.858 169.216 156.772 169.094 156.772 168.971C156.772 168.819 156.886 168.727 156.999 168.727H159.127C159.269 168.727 159.354 168.849 159.354 168.971C159.354 169.094 159.269 169.216 159.127 169.216ZM158.673 170.284H157.453C157.311 170.284 157.226 170.162 157.226 170.04C157.226 169.918 157.34 169.796 157.453 169.796H158.702C158.844 169.796 158.929 169.918 158.929 170.04C158.929 170.162 158.815 170.284 158.673 170.284ZM186.112 55.6574C184.863 55.6574 183.842 54.5582 183.842 53.2146V47.2909C183.842 45.9474 184.863 44.8481 186.112 44.8481C187.36 44.8481 188.382 45.9474 188.382 47.2909V53.2146C188.382 54.5582 187.36 55.6574 186.112 55.6574ZM186.112 45.3672C185.119 45.3672 184.324 46.2222 184.324 47.2909V53.2146C184.324 54.2834 185.119 55.1383 186.112 55.1383C187.105 55.1383 187.899 54.2834 187.899 53.2146V47.2909C187.899 46.2222 187.077 45.3672 186.112 45.3672Z" fill="#FFBE55"/>
<path d="M186.112 56.7567C184.296 56.7567 182.821 55.1689 182.821 53.2147V50.375C182.821 50.2223 182.934 50.1307 183.048 50.1307C183.189 50.1307 183.275 50.2528 183.275 50.375V53.2147C183.275 54.8941 184.523 56.2376 186.084 56.2376C187.644 56.2376 188.893 54.8941 188.893 53.2147V50.2528C188.893 50.1001 189.006 50.0085 189.12 50.0085C189.262 50.0085 189.347 50.1307 189.347 50.2528V53.2147C189.403 55.1689 187.928 56.7567 186.112 56.7567Z" fill="#FFBE55"/>
<path d="M186.112 58.9859C185.97 58.9859 185.885 58.8638 185.885 58.7416V56.4821C185.885 56.3294 185.999 56.2378 186.112 56.2378C186.254 56.2378 186.339 56.3599 186.339 56.4821V58.7416C186.339 58.8943 186.226 58.9859 186.112 58.9859Z" fill="#FFBE55"/>
<path d="M187.928 58.9859H184.296C184.154 58.9859 184.069 58.8637 184.069 58.7416C184.069 58.5889 184.182 58.4973 184.296 58.4973H187.928C188.07 58.4973 188.155 58.6194 188.155 58.7416C188.155 58.8943 188.07 58.9859 187.928 58.9859ZM107.798 159.536H104.591C104.45 159.536 104.364 159.414 104.364 159.292V155.842C104.364 155.75 104.421 155.628 104.506 155.597C104.591 155.567 104.705 155.567 104.762 155.659L107.968 159.109C108.025 159.17 108.053 159.292 108.025 159.384C107.968 159.475 107.883 159.536 107.798 159.536ZM104.818 159.017H107.202L104.818 156.452V159.017Z" fill="#FFBE55"/>
<path d="M90.0921 164.636C90.0354 164.636 89.9786 164.605 89.9219 164.575L88.5031 163.201L87.056 164.575C86.9709 164.636 86.8574 164.666 86.7723 164.605C86.6871 164.544 86.6304 164.422 86.6872 164.3L88.3045 158.773C88.3329 158.651 88.418 158.59 88.5315 158.59C88.645 158.59 88.7301 158.651 88.7585 158.773L90.3191 164.3C90.3475 164.422 90.3191 164.544 90.2056 164.605C90.1772 164.605 90.1489 164.636 90.0921 164.636ZM88.5315 159.72L87.3965 163.598L88.3613 162.682C88.4464 162.59 88.5883 162.59 88.6734 162.682L89.6097 163.567L88.5315 159.72ZM181.487 104.299C181.345 104.299 181.26 104.177 181.26 104.055V97.6732C181.26 97.5206 181.373 97.429 181.487 97.429C181.6 97.429 181.714 97.5511 181.714 97.6732V104.055C181.714 104.177 181.6 104.299 181.487 104.299Z" fill="#FFBE55"/>
<path d="M182.253 102.07C182.253 101.612 181.912 101.246 181.487 101.246C181.061 101.246 180.721 101.612 180.721 102.07C180.721 102.528 181.061 102.895 181.487 102.895C181.912 102.895 182.253 102.498 182.253 102.07Z" fill="#FFBE55"/>
<path d="M181.487 103.139C180.919 103.139 180.465 102.65 180.465 102.04C180.465 101.429 180.919 100.94 181.487 100.94C182.054 100.94 182.508 101.429 182.508 102.04C182.48 102.65 182.026 103.139 181.487 103.139ZM181.487 101.49C181.203 101.49 180.948 101.734 180.948 102.07C180.948 102.376 181.175 102.65 181.487 102.65C181.77 102.65 182.026 102.406 182.026 102.07C181.997 101.734 181.77 101.49 181.487 101.49Z" fill="#FFBE55"/>
<path d="M181.487 108.177C178.365 108.177 175.812 105.429 175.812 102.07C175.812 98.7115 178.365 95.9634 181.487 95.9634C184.608 95.9634 187.162 98.7115 187.162 102.07C187.162 105.429 184.608 108.177 181.487 108.177ZM181.487 96.4519C178.621 96.4519 176.294 98.9558 176.294 102.04C176.294 105.124 178.621 107.628 181.487 107.628C184.353 107.628 186.679 105.124 186.679 102.04C186.679 98.9558 184.353 96.4519 181.487 96.4519Z" fill="#FFBE55"/>
<path d="M182.083 96.2991C181.941 96.2991 181.856 96.1769 181.856 96.0548V95.4136C181.856 95.2304 181.714 95.0777 181.544 95.0777C181.373 95.0777 181.232 95.2304 181.232 95.4136V96.0548C181.232 96.2075 181.118 96.2991 181.005 96.2991C180.891 96.2991 180.778 96.1769 180.778 96.0548V95.4136C180.778 94.925 181.146 94.5586 181.572 94.5586C182.026 94.5586 182.367 94.9556 182.367 95.4136V96.0548C182.31 96.1769 182.225 96.2991 182.083 96.2991ZM186.453 97.8258C186.311 97.8258 186.197 97.7647 186.084 97.6731L185.573 97.1235C185.374 96.9098 185.374 96.5739 185.573 96.3601L185.772 96.1464C185.97 95.9327 186.282 95.9327 186.481 96.1464L186.992 96.696C187.19 96.9098 187.19 97.2456 186.992 97.4594L186.793 97.6731C186.708 97.7647 186.566 97.8258 186.453 97.8258ZM186.424 97.2762H186.481L186.68 97.0624V97.0014L186.169 96.4517H186.112L185.913 96.6655V96.7266L186.424 97.2762Z" fill="#FFBE55"/>
<path d="M185.318 98.1619C185.261 98.1619 185.204 98.1314 185.147 98.1008C185.062 98.0092 185.062 97.826 185.147 97.7344L185.828 97.0016C185.913 96.91 186.084 96.91 186.169 97.0016C186.254 97.0932 186.254 97.2764 186.169 97.368L185.488 98.1008C185.459 98.1619 185.374 98.1619 185.318 98.1619ZM141.649 178.987H138.471C138.329 178.987 138.244 178.865 138.244 178.743V176.056C138.244 175.903 138.358 175.812 138.471 175.812H141.649C141.791 175.812 141.876 175.934 141.876 176.056V178.743C141.904 178.865 141.791 178.987 141.649 178.987ZM138.726 178.468H141.422V176.3H138.726V178.468ZM145.536 178.987H142.358C142.216 178.987 142.131 178.865 142.131 178.743V172.666C142.131 172.514 142.245 172.422 142.358 172.422H145.536C145.678 172.422 145.763 172.544 145.763 172.666V178.743C145.792 178.865 145.678 178.987 145.536 178.987ZM142.585 178.468H145.281V172.911H142.585V178.468ZM149.424 178.987H146.246C146.104 178.987 146.019 178.865 146.019 178.743V165.735C146.019 165.582 146.132 165.491 146.246 165.491H149.424C149.566 165.491 149.651 165.613 149.651 165.735V178.743C149.651 178.865 149.566 178.987 149.424 178.987ZM146.473 178.468H149.168V165.979H146.473V178.468ZM153.311 178.987H150.133C149.991 178.987 149.906 178.865 149.906 178.743V169.674C149.906 169.521 150.02 169.43 150.133 169.43H153.311C153.453 169.43 153.538 169.552 153.538 169.674V178.743C153.538 178.865 153.424 178.987 153.311 178.987ZM150.36 178.468H153.056V169.918H150.36V178.468ZM153.311 179.964H138.471C138.301 179.964 138.159 179.812 138.159 179.628C138.159 179.445 138.301 179.292 138.471 179.292H153.311C153.481 179.292 153.623 179.445 153.623 179.628C153.595 179.812 153.481 179.964 153.311 179.964ZM118.864 169.124C115.743 169.124 113.189 166.376 113.189 163.017C113.189 159.659 115.743 156.911 118.864 156.911C121.985 156.911 124.539 159.659 124.539 163.017C124.539 166.376 121.985 169.124 118.864 169.124ZM118.864 157.43C115.998 157.43 113.672 159.933 113.672 163.017C113.672 166.101 115.998 168.605 118.864 168.605C121.73 168.605 124.057 166.101 124.057 163.017C124.057 159.933 121.73 157.43 118.864 157.43Z" fill="#FFBE55"/>
<path d="M73.124 147.78H71.7053C71.1945 147.78 70.7973 147.322 70.7973 146.803C70.7973 146.254 71.2229 145.826 71.7053 145.826H73.124C73.6348 145.826 74.032 146.284 74.032 146.803C74.0604 147.322 73.6348 147.78 73.124 147.78ZM71.7053 146.315C71.4499 146.315 71.2797 146.529 71.2797 146.773C71.2797 147.048 71.4783 147.231 71.7053 147.231H73.124C73.3794 147.231 73.5496 147.017 73.5496 146.773C73.5496 146.498 73.351 146.315 73.124 146.315H71.7053ZM73.2092 124.879H65.8034C64.8386 124.879 64.0725 124.055 64.0725 123.017V116.574C64.0725 115.536 64.8386 114.711 65.8034 114.711H73.2092C74.1739 114.711 74.94 115.536 74.94 116.574V123.017C74.94 124.055 74.1455 124.879 73.2092 124.879ZM65.775 115.231C65.094 115.231 64.5265 115.841 64.5265 116.574V123.017C64.5265 123.75 65.094 124.36 65.775 124.36H73.1808C73.8618 124.36 74.4293 123.75 74.4293 123.017V116.574C74.4293 115.841 73.8618 115.231 73.1808 115.231H65.775Z" fill="#FFBE55"/>
<path d="M78.7704 124.025C78.742 124.025 78.7136 124.025 78.6569 123.994L74.571 121.918C74.4858 121.887 74.4291 121.796 74.4291 121.674V118.07C74.4291 117.979 74.4858 117.887 74.571 117.857L78.6569 115.536C78.742 115.506 78.8272 115.506 78.8839 115.536C78.969 115.597 78.9974 115.658 78.9974 115.75V123.75C78.9974 123.842 78.969 123.933 78.8839 123.964C78.8555 123.994 78.8272 124.025 78.7704 124.025ZM74.9398 121.521L78.5434 123.353V116.177L74.9398 118.223V121.521Z" fill="#FFBE55"/>
<path d="M78.0045 123.628C77.8626 123.628 77.7775 123.505 77.7775 123.383V116.208C77.7775 116.055 77.891 115.963 78.0045 115.963C78.118 115.963 78.2315 116.086 78.2315 116.208V123.383C78.2598 123.505 78.1463 123.628 78.0045 123.628ZM124.057 183.934H109.869C109.727 183.934 109.642 183.811 109.642 183.689V180.391C109.642 180.239 109.756 180.147 109.869 180.147C110.323 180.147 110.692 179.75 110.692 179.262C110.692 178.773 110.323 178.376 109.869 178.376C109.727 178.376 109.642 178.254 109.642 178.132V174.834C109.642 174.682 109.756 174.59 109.869 174.59H124.057C124.198 174.59 124.284 174.712 124.284 174.834V178.132C124.284 178.285 124.17 178.376 124.057 178.376C123.603 178.376 123.234 178.773 123.234 179.262C123.234 179.75 123.603 180.147 124.057 180.147C124.198 180.147 124.284 180.269 124.284 180.391V183.689C124.284 183.842 124.198 183.934 124.057 183.934ZM110.125 183.414H123.83V180.605C123.234 180.483 122.751 179.903 122.751 179.231C122.751 178.529 123.205 177.979 123.83 177.857V175.048H110.125V177.857C110.72 177.979 111.203 178.559 111.203 179.231C111.203 179.933 110.749 180.483 110.125 180.605V183.414Z" fill="#FFBE55"/>
<path d="M131.547 161.43C131.519 161.43 131.491 161.43 131.462 161.399C131.377 161.369 131.32 161.277 131.32 161.155V159.017C131.207 158.987 131.122 158.895 131.122 158.773V158.132C131.122 157.979 131.235 157.888 131.349 157.888H133.08C133.222 157.888 133.307 158.01 133.307 158.132V158.773C133.307 158.895 133.222 159.017 133.108 159.017V159.75C133.108 159.811 133.08 159.872 133.051 159.933L131.746 161.369C131.661 161.399 131.604 161.43 131.547 161.43ZM131.576 158.529C131.689 158.559 131.774 158.651 131.774 158.773V160.544L132.597 159.628V158.773C132.597 158.651 132.682 158.529 132.796 158.529V158.407H131.547V158.529H131.576ZM136.655 169.308H133.846C133.704 169.308 133.619 169.185 133.619 169.063V164.575C133.619 164.422 133.732 164.33 133.846 164.33H136.655C136.797 164.33 136.882 164.453 136.882 164.575V169.063C136.882 169.185 136.768 169.308 136.655 169.308ZM134.073 168.788H136.428V164.819H134.073V168.788ZM135.548 163.842H134.952C134.612 163.842 134.328 163.537 134.328 163.17V162.529C134.328 162.162 134.612 161.857 134.952 161.857H135.548C135.889 161.857 136.173 162.162 136.173 162.529V163.17C136.144 163.537 135.889 163.842 135.548 163.842ZM134.924 162.376C134.839 162.376 134.782 162.437 134.782 162.529V163.17C134.782 163.262 134.839 163.323 134.924 163.323H135.52C135.605 163.323 135.662 163.262 135.662 163.17V162.529C135.662 162.437 135.605 162.376 135.52 162.376H134.924ZM187.673 38.3445C187.616 38.3445 187.531 38.3139 187.502 38.2529L184.949 35.1994C184.863 35.1078 184.863 34.9246 184.977 34.833C185.062 34.7414 185.232 34.7414 185.317 34.8635L187.446 37.3979V30.7719C187.446 30.6192 187.559 30.5276 187.673 30.5276C187.814 30.5276 187.9 30.6497 187.9 30.7719V38.0696C187.9 38.1613 187.843 38.2834 187.758 38.3139C187.729 38.3445 187.701 38.3445 187.673 38.3445Z" fill="#FFBE55"/>
<path d="M187.672 38.3443C187.616 38.3443 187.559 38.3138 187.502 38.2833C187.389 38.1916 187.389 38.039 187.474 37.9168L189.886 34.9244C189.971 34.8023 190.113 34.8023 190.226 34.8939C190.34 34.9855 190.34 35.1382 190.254 35.2603L187.843 38.2527C187.786 38.3138 187.729 38.3443 187.672 38.3443ZM132.115 187.72C131.973 187.72 131.888 187.598 131.888 187.476V178.895C131.888 178.804 131.945 178.682 132.03 178.651C132.115 178.62 132.228 178.651 132.285 178.712L135.293 182.285C135.378 182.376 135.378 182.559 135.264 182.651C135.179 182.743 135.009 182.743 134.924 182.621L132.342 179.537V187.445C132.342 187.598 132.257 187.72 132.115 187.72Z" fill="#FFBE55"/>
<path d="M129.277 182.651C129.221 182.651 129.164 182.621 129.107 182.59C128.993 182.499 128.994 182.346 129.079 182.224L131.916 178.712C132.001 178.59 132.143 178.59 132.257 178.682C132.37 178.773 132.37 178.926 132.285 179.048L129.447 182.56C129.419 182.621 129.362 182.651 129.277 182.651ZM192.95 92.3908C192.893 92.3908 192.808 92.3603 192.78 92.2992C192.695 92.2076 192.695 92.0244 192.808 91.9328L195.702 89.0931H188.268C188.126 89.0931 188.041 88.9709 188.041 88.8488C188.041 88.7266 188.155 88.6045 188.268 88.6045H196.327C196.412 88.6045 196.525 88.6656 196.554 88.7572C196.582 88.8488 196.554 88.9709 196.497 89.032L193.12 92.2992C193.064 92.3603 193.007 92.3908 192.95 92.3908Z" fill="#FFBE55"/>
<path d="M196.327 89.0929C196.27 89.0929 196.213 89.0624 196.156 89.0318L192.865 85.9479C192.751 85.8562 192.751 85.7036 192.837 85.5814C192.922 85.4593 193.064 85.4593 193.177 85.5509L196.469 88.6349C196.582 88.7265 196.582 88.8792 196.497 89.0013C196.44 89.0624 196.383 89.0929 196.327 89.0929ZM78.657 108.208H73.0104C71.9038 108.208 71.0242 107.261 71.0242 106.07V99.9938C71.0242 98.8029 71.9038 97.8564 73.0104 97.8564H78.657C79.7636 97.8564 80.6432 98.8029 80.6432 99.9938V106.07C80.6432 107.261 79.7636 108.208 78.657 108.208ZM73.0104 98.3754C72.1875 98.3754 71.5065 99.1083 71.5065 99.9938V106.07C71.5065 106.956 72.1875 107.689 73.0104 107.689H78.657C79.4798 107.689 80.1608 106.956 80.1608 106.07V99.9938C80.1608 99.1083 79.4798 98.3754 78.657 98.3754H73.0104Z" fill="#FFBE55"/>
<path d="M79.8487 100.36C78.9691 100.36 78.2313 99.5664 78.2313 98.6199C78.2313 97.6733 78.9691 96.8794 79.8487 96.8794C80.7283 96.8794 81.466 97.6733 81.466 98.6199C81.466 99.597 80.7567 100.36 79.8487 100.36ZM79.8487 97.3985C79.2244 97.3985 78.7137 97.9481 78.7137 98.6199C78.7137 99.2916 79.2244 99.8413 79.8487 99.8413C80.4729 99.8413 80.9837 99.2916 80.9837 98.6199C80.9837 97.9481 80.4729 97.3985 79.8487 97.3985ZM173.343 174.193H173.286L164.434 172.056C164.292 172.025 164.235 171.872 164.263 171.75C164.292 171.598 164.434 171.537 164.547 171.567L173.4 173.705C173.542 173.735 173.599 173.888 173.57 174.01C173.542 174.132 173.457 174.193 173.343 174.193Z" fill="#FFBE55"/>
<path d="M171.527 159.536C170.194 159.536 169.116 158.376 169.116 156.941C169.116 155.506 170.194 154.345 171.527 154.345C172.861 154.345 173.939 155.506 173.939 156.941C173.939 158.376 172.833 159.536 171.527 159.536ZM171.527 154.895C170.478 154.895 169.598 155.811 169.598 156.971C169.598 158.101 170.449 159.048 171.527 159.048C172.577 159.048 173.457 158.132 173.457 156.971C173.429 155.811 172.577 154.895 171.527 154.895ZM86.0062 31.9931H83.7363C83.5944 31.9931 83.5092 31.871 83.5092 31.7489C83.5092 31.6267 83.6228 31.5046 83.7363 31.5046H85.7508V26.0389H76.5858V31.4741H78.6572C78.7991 31.4741 78.8842 31.5962 78.8842 31.7183C78.8842 31.8405 78.7707 31.9626 78.6572 31.9626H76.3588C76.217 31.9626 76.1318 31.8405 76.1318 31.7183V25.7335C76.1318 25.5809 76.2453 25.4893 76.3588 25.4893H86.0346C86.1765 25.4893 86.2616 25.6114 86.2616 25.7335V31.7183C86.2616 31.871 86.1481 31.9931 86.0062 31.9931Z" fill="#FFBE55"/>
<path d="M84.8143 34.6498H77.6072C77.522 34.6498 77.4369 34.5887 77.3802 34.4971C77.3234 34.4055 77.3518 34.2834 77.4085 34.2223L80.9837 29.8253C81.0405 29.7643 81.0972 29.7337 81.154 29.7337C81.2107 29.7337 81.2959 29.7643 81.3242 29.8253L84.9562 34.2223C85.0129 34.2834 85.0413 34.4055 84.9846 34.4971C84.9846 34.5887 84.8995 34.6498 84.8143 34.6498ZM78.1463 34.1307H84.2752L81.1824 30.3749L78.1463 34.1307ZM65.6614 43.1079C65.5196 43.1079 65.4344 42.9857 65.4344 42.8636V27.6574C65.4344 27.5047 65.5479 27.4131 65.6614 27.4131C65.8033 27.4131 65.8884 27.5352 65.8884 27.6574V42.8636C65.9168 42.9857 65.8033 43.1079 65.6614 43.1079ZM64.9521 38.7109C64.8102 38.7109 64.7251 38.5888 64.7251 38.4666V32.0543C64.7251 31.9017 64.8386 31.8101 64.9521 31.8101C65.0939 31.8101 65.1791 31.9322 65.1791 32.0543V38.4666C65.1791 38.6193 65.0656 38.7109 64.9521 38.7109ZM64.2143 37.3063C64.0724 37.3063 63.9873 37.1842 63.9873 37.062V33.4895C63.9873 33.3368 64.1008 33.2452 64.2143 33.2452C64.3278 33.2452 64.4413 33.3673 64.4413 33.4895V37.062C64.4697 37.1842 64.3562 37.3063 64.2143 37.3063ZM63.5049 36.146C63.3631 36.146 63.278 36.0239 63.278 35.9017V34.6498C63.278 34.4971 63.3914 34.4055 63.5049 34.4055C63.6468 34.4055 63.732 34.5277 63.732 34.6498V35.9017C63.732 36.0239 63.6468 36.146 63.5049 36.146ZM66.3708 40.543C66.2289 40.543 66.1438 40.4208 66.1438 40.2987V30.2528C66.1438 30.1001 66.2573 30.0085 66.3708 30.0085C66.5127 30.0085 66.5978 30.1307 66.5978 30.2528V40.2987C66.6262 40.4208 66.5127 40.543 66.3708 40.543ZM67.1085 38.4666C66.9667 38.4666 66.8815 38.3445 66.8815 38.2223V32.3292C66.8815 32.1765 66.995 32.0849 67.1085 32.0849C67.222 32.0849 67.3355 32.207 67.3355 32.3292V38.1918C67.3355 38.3445 67.2504 38.4666 67.1085 38.4666ZM67.8179 36.3903C67.676 36.3903 67.5909 36.2681 67.5909 36.146V34.375C67.5909 34.2223 67.7044 34.1307 67.8179 34.1307C67.9598 34.1307 68.0449 34.2528 68.0449 34.375V36.146C68.0733 36.2681 67.9598 36.3903 67.8179 36.3903ZM68.5556 37.4284C68.4138 37.4284 68.3286 37.3063 68.3286 37.1842V33.3673C68.3286 33.2147 68.4421 33.1231 68.5556 33.1231C68.6975 33.1231 68.7826 33.2452 68.7826 33.3673V37.1842C68.7826 37.3063 68.6691 37.4284 68.5556 37.4284ZM69.265 36.9094C69.1231 36.9094 69.038 36.7872 69.038 36.6651V33.8559C69.038 33.7032 69.1515 33.6116 69.265 33.6116C69.3785 33.6116 69.492 33.7338 69.492 33.8559V36.6651C69.492 36.7872 69.4069 36.9094 69.265 36.9094ZM69.9744 36.146C69.8325 36.146 69.7474 36.0239 69.7474 35.9017V34.6498C69.7474 34.4971 69.8609 34.4055 69.9744 34.4055C70.1163 34.4055 70.2014 34.5277 70.2014 34.6498V35.9017C70.2297 36.0239 70.1163 36.146 69.9744 36.146ZM97.2708 125.277H85.9777C85.0981 125.277 84.4171 124.513 84.4171 123.597V118.284C84.4171 117.338 85.1264 116.605 85.9777 116.605H97.2708C98.1504 116.605 98.8314 117.368 98.8314 118.284V123.597C98.8598 124.513 98.1504 125.277 97.2708 125.277ZM86.0061 117.093C85.4102 117.093 84.8994 117.612 84.8994 118.284V123.597C84.8994 124.238 85.3818 124.788 86.0061 124.788H97.2992C97.8951 124.788 98.4058 124.269 98.4058 123.597V118.284C98.4058 117.643 97.9234 117.093 97.2992 117.093H86.0061Z" fill="#FFBE55"/>
<path d="M96.0791 117.093H87.1978C87.0559 117.093 86.9708 116.971 86.9708 116.849V115.75C86.9708 115.597 87.0843 115.505 87.1978 115.505H96.0791C96.221 115.505 96.3061 115.628 96.3061 115.75V116.818C96.3345 116.971 96.221 117.093 96.0791 117.093ZM87.4532 116.574H95.8521V116.024H87.4532V116.574ZM96.0791 129.368H87.1978C87.0559 129.368 86.9708 129.246 86.9708 129.124V120.941C86.9708 120.788 87.0843 120.696 87.1978 120.696H96.0791C96.221 120.696 96.3061 120.818 96.3061 120.941V129.124C96.3345 129.276 96.221 129.368 96.0791 129.368ZM87.4532 128.849H95.8521V121.185H87.4532V128.849ZM177.94 123.475C177.855 123.475 177.798 123.444 177.713 123.414C177.571 123.322 177.514 123.17 177.514 123.017V117.521C177.514 117.368 177.6 117.215 177.713 117.124C177.855 117.032 177.997 117.032 178.139 117.124L182.764 119.872C182.906 119.963 182.991 120.116 182.991 120.269C182.991 120.452 182.906 120.605 182.764 120.666L178.139 123.414C178.082 123.475 178.025 123.475 177.94 123.475ZM177.997 117.612V122.925L182.48 120.269L177.997 117.612Z" fill="#FFBE55"/>
<path d="M183.019 126.559H176.72C175.216 126.559 174.024 125.246 174.024 123.658V116.879C174.024 115.261 175.244 113.979 176.72 113.979H183.019C184.523 113.979 185.715 115.292 185.715 116.879V123.658C185.743 125.276 184.523 126.559 183.019 126.559ZM176.72 114.498C175.5 114.498 174.507 115.566 174.507 116.879V123.658C174.507 124.971 175.5 126.04 176.72 126.04H183.019C184.239 126.04 185.232 124.971 185.232 123.658V116.879C185.232 115.566 184.239 114.498 183.019 114.498H176.72ZM194.908 74.0087H188.098C186.821 74.0087 185.771 72.879 185.771 71.5049C185.771 70.2835 186.594 69.2759 187.672 69.0316C187.644 68.8789 187.644 68.7262 187.644 68.6041C187.644 66.3445 189.375 64.4819 191.475 64.4819C192.978 64.4819 194.34 65.4285 194.965 66.8942C196.781 66.9247 198.228 68.5125 198.228 70.4362C198.199 72.4209 196.724 74.0087 194.908 74.0087ZM191.475 65.001C189.63 65.001 188.126 66.6193 188.126 68.6041C188.126 68.7873 188.155 69.0011 188.183 69.2148C188.183 69.2759 188.183 69.3675 188.126 69.4285C188.098 69.4896 188.013 69.5201 187.956 69.5201C186.991 69.6117 186.254 70.4667 186.254 71.5049C186.254 72.6041 187.077 73.4896 188.098 73.4896H194.908C196.469 73.4896 197.745 72.1156 197.745 70.4362C197.745 68.7568 196.469 67.3827 194.908 67.3827H194.794C194.709 67.3827 194.596 67.3216 194.567 67.23C194.057 65.8865 192.837 65.001 191.475 65.001Z" fill="#FFBE55"/>
<path d="M194.596 74.8944C194.482 74.7723 194.34 74.7723 194.227 74.8944L192.212 77.0624V70.528C192.212 70.3753 192.099 70.2532 191.957 70.2532C191.815 70.2532 191.702 70.3753 191.702 70.528V77.0624L189.687 74.8944C189.574 74.7723 189.432 74.7723 189.318 74.8944C189.205 75.0166 189.205 75.1693 189.318 75.2914L191.787 77.9479C191.815 77.9784 191.844 78.009 191.872 78.009C191.9 78.009 191.929 78.0395 191.985 78.0395C192.014 78.0395 192.042 78.0395 192.099 78.009C192.127 78.009 192.156 77.9784 192.184 77.9479L194.653 75.2914C194.681 75.1998 194.681 75.0166 194.596 74.8944ZM66.7112 82.2228H59.9013C58.6245 82.2228 57.5746 81.093 57.5746 79.7189C57.5746 78.4975 58.3975 77.4899 59.4757 77.2456C59.4473 77.0929 59.4473 76.9403 59.4473 76.8181C59.4473 74.5586 61.1782 72.6959 63.2779 72.6959C64.7818 72.6959 66.1437 73.6425 66.768 75.1082C68.584 75.1387 70.0311 76.7265 70.0311 78.6502C70.0311 80.6044 68.5272 82.2228 66.7112 82.2228ZM63.2779 73.1845C61.4335 73.1845 59.9297 74.8028 59.9297 76.7876C59.9297 76.9708 59.9581 77.1845 59.9864 77.3983C59.9864 77.4594 59.9864 77.5509 59.9297 77.612C59.9013 77.6731 59.8162 77.7036 59.7594 77.7036C58.7947 77.7952 58.057 78.6502 58.057 79.6884C58.057 80.7876 58.8798 81.6731 59.9013 81.6731H66.7112C68.2718 81.6731 69.5487 80.2991 69.5487 78.6197C69.5487 76.9403 68.2718 75.5662 66.7112 75.5662H66.5977C66.5126 75.5662 66.3991 75.5051 66.3707 75.4135C65.86 74.07 64.6399 73.1845 63.2779 73.1845Z" fill="#FFBE55"/>
<path d="M61.0932 80.8182C61.2067 80.9403 61.3486 80.9403 61.4621 80.8182L63.4767 78.6502V85.1846C63.4767 85.3373 63.5902 85.4594 63.7321 85.4594C63.874 85.4594 63.9875 85.3373 63.9875 85.1846V78.6502L66.0021 80.8182C66.1156 80.9403 66.2574 80.9403 66.3709 80.8182C66.4844 80.696 66.4844 80.5434 66.3709 80.4212L63.9023 77.7647C63.874 77.7342 63.8456 77.7036 63.8172 77.7036C63.7888 77.7036 63.7605 77.6731 63.7037 77.6731C63.6753 77.6731 63.647 77.6731 63.5902 77.7036C63.5618 77.7036 63.5335 77.7342 63.5051 77.7647L61.0365 80.4212C61.0081 80.5434 61.0081 80.696 61.0932 80.8182ZM191.503 164.361V174.682H184.041V164.361H191.503ZM191.986 163.842H183.558V175.201H191.986V163.842Z" fill="#FFBE55"/>
<path d="M189.971 166.01V176.33H182.508V166.01H189.971ZM190.453 165.491H182.026V176.849H190.453V165.491ZM64.8669 106.04L59.7594 105.154L54.652 106.04V92.7571H64.8669V106.04ZM59.731 104.635L64.3561 105.429V93.2762H55.0776V105.429L59.731 104.635Z" fill="#FFBE55"/>
<path d="M61.5754 102.253C61.5186 102.253 61.4902 102.223 61.4335 102.192L59.731 100.879L58.0285 102.192C57.9434 102.253 57.8299 102.253 57.7448 102.192C57.6597 102.131 57.6313 102.009 57.6597 101.918L58.3123 99.7801L56.6098 98.4672C56.5247 98.4061 56.4963 98.2839 56.5247 98.1923C56.5531 98.1007 56.6382 98.0091 56.7517 98.0091H58.8514L59.504 95.8717C59.5324 95.7801 59.6175 95.6885 59.731 95.6885C59.8445 95.6885 59.9296 95.7496 59.958 95.8717L60.6106 98.0091H62.7104C62.8239 98.0091 62.909 98.0702 62.9374 98.1923C62.9657 98.2839 62.9374 98.4061 62.8522 98.4672L61.1498 99.7801L61.8024 101.918C61.8307 102.009 61.8024 102.131 61.7172 102.192C61.6889 102.253 61.6321 102.253 61.5754 102.253ZM59.731 100.33C59.7878 100.33 59.8161 100.36 59.8729 100.391L61.1214 101.368L60.639 99.8107C60.6106 99.7191 60.639 99.5969 60.7241 99.5359L61.9726 98.5588H60.4404C60.3269 98.5588 60.2418 98.4977 60.2134 98.3755L59.731 96.8183L59.277 98.345C59.2486 98.4366 59.1635 98.5282 59.05 98.5282H57.5178L58.7663 99.5053C58.8514 99.5664 58.8798 99.6885 58.8514 99.7801L58.369 101.337L59.6175 100.36C59.6459 100.33 59.7026 100.33 59.731 100.33ZM66.6261 62.8943H58.5677V54.6194H63.2495V55.1385H59.0217V62.3752H66.1721V59.3217H66.6261V62.8943Z" fill="#FFBE55"/>
<path d="M63.1362 59.5049C63.0227 59.5049 62.9092 59.4133 62.9092 59.2912C62.9092 59.2607 62.7389 58.1614 63.4767 57.2148C64.1577 56.3599 65.321 55.9324 66.9668 55.9324C67.1086 55.9324 67.1938 56.0545 67.1938 56.1766C67.1938 56.2988 67.0803 56.4209 66.9668 56.4209C65.4629 56.4209 64.4131 56.7873 63.8456 57.5202C63.2497 58.2835 63.3632 59.169 63.3632 59.169C63.3916 59.3217 63.3064 59.4439 63.1646 59.4744C63.1646 59.5049 63.1362 59.5049 63.1362 59.5049Z" fill="#FFBE55"/>
<path d="M65.8883 57.9783C65.8315 57.9783 65.7464 57.9478 65.7181 57.8867C65.6329 57.7645 65.6329 57.6119 65.7464 57.5203L67.2219 56.1767L65.7181 54.65C65.6329 54.5584 65.6046 54.3752 65.7181 54.2836C65.8032 54.192 65.9734 54.1615 66.0585 54.2836L67.761 56.0241C67.8178 56.0851 67.8462 56.1462 67.8462 56.2073C67.8462 56.2683 67.8178 56.36 67.761 56.3905L66.0585 57.9172C66.0018 57.9783 65.945 57.9783 65.8883 57.9783ZM56.3828 150.529C55.9004 150.529 55.5032 150.101 55.5032 149.582C55.5032 149.063 55.9004 148.636 56.3828 148.636C56.8652 148.636 57.2624 149.063 57.2624 149.582C57.2624 150.101 56.8652 150.529 56.3828 150.529ZM56.3828 149.155C56.1558 149.155 55.9855 149.338 55.9855 149.582C55.9855 149.827 56.1558 150.01 56.3828 150.01C56.6098 150.01 56.78 149.827 56.78 149.582C56.78 149.338 56.6098 149.155 56.3828 149.155ZM58.5393 150.529C58.0569 150.529 57.6596 150.101 57.6596 149.582C57.6596 149.063 58.0569 148.636 58.5393 148.636C59.0216 148.636 59.4189 149.063 59.4189 149.582C59.4189 150.101 59.0216 150.529 58.5393 150.529ZM58.5393 149.155C58.3123 149.155 58.142 149.338 58.142 149.582C58.142 149.827 58.3123 150.01 58.5393 150.01C58.7663 150.01 58.9365 149.827 58.9365 149.582C58.9365 149.338 58.7663 149.155 58.5393 149.155ZM60.6957 150.529C60.2134 150.529 59.8161 150.101 59.8161 149.582C59.8161 149.063 60.2134 148.636 60.6957 148.636C61.1781 148.636 61.5754 149.063 61.5754 149.582C61.5754 150.101 61.1781 150.529 60.6957 150.529ZM60.6957 149.155C60.4687 149.155 60.2985 149.338 60.2985 149.582C60.2985 149.827 60.4687 150.01 60.6957 150.01C60.9227 150.01 61.093 149.827 61.093 149.582C61.093 149.338 60.9227 149.155 60.6957 149.155ZM153.14 26.8024C153.112 26.8024 153.112 26.8024 153.14 26.8024C152.999 26.8024 152.913 26.7108 152.913 26.5887L152.091 22.2222L148.033 21.0008C147.919 20.9703 147.863 20.8787 147.863 20.7566C147.863 20.6344 147.919 20.5428 148.033 20.5123L156.574 17.3672C156.659 17.3367 156.772 17.3672 156.829 17.4283C156.886 17.4893 156.914 17.6115 156.886 17.7031L153.396 26.6192C153.311 26.7413 153.226 26.8024 153.14 26.8024ZM148.884 20.7566L152.318 21.7947C152.403 21.8253 152.459 21.8863 152.488 21.9779L153.197 25.6726L156.176 18.0695L148.884 20.7566Z" fill="#FFBE55"/>
<path d="M152.261 22.2831C152.204 22.2831 152.147 22.2526 152.091 22.1915C152.006 22.0999 152.006 21.9167 152.091 21.8251L156.432 17.4281C156.517 17.3365 156.687 17.3365 156.773 17.4281C156.858 17.5197 156.858 17.7029 156.773 17.7945L152.431 22.1915C152.403 22.2526 152.346 22.2831 152.261 22.2831ZM95.8805 26.4969C94.0078 26.4969 92.3053 25.2144 91.6527 23.3213C91.596 23.1991 91.6811 23.0465 91.7946 22.9854C91.9081 22.9243 92.05 23.0159 92.1067 23.1381C92.6742 24.848 94.2064 25.9778 95.8805 25.9778C98.0938 25.9778 99.9097 24.0236 99.9097 21.6419C99.9097 21.5197 99.9097 21.367 99.8814 21.2449C99.8814 21.0922 99.9665 20.9701 100.108 20.9701C100.25 20.9701 100.364 21.0617 100.364 21.2144C100.364 21.367 100.392 21.5197 100.392 21.6724C100.364 24.3289 98.3491 26.4969 95.8805 26.4969Z" fill="#FFBE55"/>
<path d="M101.527 22.1609C101.47 22.1609 101.413 22.1304 101.385 22.0999L100.137 20.9701L98.9449 22.0999C98.8597 22.1915 98.6895 22.1915 98.6044 22.0693C98.5193 21.9472 98.5193 21.7945 98.6328 21.7029L99.9664 20.4205C100.051 20.3289 100.193 20.3289 100.278 20.4205L101.669 21.7029C101.782 21.7945 101.782 21.9472 101.697 22.0693C101.669 22.1304 101.584 22.1609 101.527 22.1609ZM91.6242 21.9167C91.4823 21.9167 91.3972 21.7945 91.3972 21.6724C91.3972 19.0159 93.4118 16.8174 95.9088 16.8174C97.6396 16.8174 99.2002 17.8556 99.938 19.535C99.9947 19.6571 99.938 19.8098 99.8245 19.8708C99.711 19.9319 99.5691 19.8708 99.5124 19.7487C98.8314 18.2525 97.441 17.3365 95.9088 17.3365C93.6956 17.3365 91.8796 19.2907 91.8796 21.6724C91.8512 21.7945 91.7377 21.9167 91.6242 21.9167Z" fill="#FFBE55"/>
<path d="M91.6527 22.3749C91.5959 22.3749 91.5392 22.3443 91.5108 22.3138L90.1204 21.0313C90.0069 20.9397 90.0069 20.7871 90.092 20.6649C90.1772 20.5428 90.319 20.5428 90.4325 20.6344L91.681 21.7642L92.8728 20.6344C92.9863 20.5428 93.1281 20.5428 93.2133 20.6649C93.2984 20.7871 93.2984 20.9397 93.1849 21.0313L91.8513 22.3138C91.7661 22.3443 91.7094 22.3749 91.6527 22.3749ZM176.096 28.3902C174.876 28.3902 173.854 27.3215 173.854 25.978C173.854 24.665 174.847 23.5657 176.096 23.5657C177.316 23.5657 178.337 24.6344 178.337 25.978C178.309 27.3215 177.316 28.3902 176.096 28.3902ZM176.096 24.1153C175.131 24.1153 174.336 24.9703 174.336 26.0085C174.336 27.0467 175.131 27.9016 176.096 27.9016C177.06 27.9016 177.855 27.0467 177.855 26.0085C177.827 24.9703 177.06 24.1153 176.096 24.1153Z" fill="#FFBE55"/>
<path d="M176.096 34.4666C175.869 34.4666 175.67 34.3139 175.613 34.0696C175.415 33.3368 175.074 32.2986 174.393 31.4436C173.599 30.436 172.946 29.3673 172.549 28.665C172.407 28.4207 172.265 28.1764 172.123 27.9016C171.868 27.2909 171.754 26.6497 171.754 26.0085C171.754 23.4436 173.712 21.3367 176.096 21.3367C178.479 21.3367 180.437 23.4436 180.437 26.0085C180.437 26.6497 180.324 27.2909 180.068 27.9016L179.841 27.7795L180.04 27.9016C179.926 28.1764 179.784 28.4207 179.614 28.6955C179.217 29.3978 178.593 30.436 177.798 31.4436C177.117 32.2986 176.748 33.3368 176.578 34.0696C176.493 34.3139 176.323 34.4666 176.096 34.4666ZM172.577 27.6879C172.691 27.9322 172.804 28.1764 172.946 28.3902C173.343 29.0925 173.968 30.1307 174.762 31.1078C175.5 32.0238 175.897 33.1536 176.096 33.9475L176.351 34.0086L176.124 33.9475C176.323 33.1841 176.72 32.0543 177.458 31.1078C178.252 30.1001 178.876 29.0925 179.245 28.3902C179.416 28.1459 179.529 27.9016 179.643 27.6574C179.87 27.1077 179.983 26.5581 179.983 25.9779C179.983 23.6878 178.252 21.8252 176.124 21.8252C173.996 21.8252 172.265 23.6878 172.265 25.9779C172.237 26.5886 172.35 27.1383 172.577 27.6879ZM116.055 21.2145C111.799 21.2145 110.096 17.4893 110.068 17.4588L110.011 17.3366L110.068 17.2145C110.096 17.184 111.714 13.4587 115.97 13.4587C120.226 13.4587 121.928 17.184 121.957 17.2145L122.014 17.3366L121.957 17.4588C121.928 17.4893 120.311 21.2145 116.055 21.2145ZM110.55 17.3366C110.862 17.9473 112.451 20.6955 116.055 20.6955C119.602 20.6955 121.191 17.9168 121.474 17.3366C121.162 16.726 119.573 13.9778 115.97 13.9778C112.423 13.9778 110.862 16.7565 110.55 17.3366Z" fill="#FFBE55"/>
<path d="M116.027 18.8022C115.289 18.8022 114.665 18.1304 114.665 17.3365C114.665 16.5426 115.289 15.8708 116.027 15.8708C116.764 15.8708 117.389 16.5426 117.389 17.3365C117.389 18.161 116.764 18.8022 116.027 18.8022ZM116.027 16.3899C115.544 16.3899 115.147 16.8174 115.147 17.3365C115.147 17.8556 115.544 18.2831 116.027 18.2831C116.509 18.2831 116.906 17.8556 116.906 17.3365C116.906 16.8174 116.509 16.3899 116.027 16.3899Z" fill="#FFBE55"/>
<path d="M116.026 19.8404C114.75 19.8404 113.7 18.7107 113.7 17.3366C113.7 15.9625 114.75 14.8328 116.026 14.8328C117.303 14.8328 118.353 15.9625 118.353 17.3366C118.325 18.7107 117.303 19.8404 116.026 19.8404ZM116.026 15.3519C115.005 15.3519 114.182 16.2374 114.182 17.3366C114.182 18.4359 115.005 19.3214 116.026 19.3214C117.048 19.3214 117.871 18.4359 117.871 17.3366C117.871 16.2374 117.02 15.3519 116.026 15.3519ZM61.4336 137.796C60.7242 137.796 59.9297 137.704 59.0217 137.399C56.1843 136.452 54.4818 137.368 54.4534 137.368C54.3683 137.399 54.2832 137.399 54.2264 137.368C54.1413 137.307 54.1129 137.246 54.1129 137.155V130.559C54.1129 130.467 54.1697 130.376 54.2548 130.345C54.3399 130.315 56.1275 129.338 59.1636 130.315C62.0011 131.261 63.9306 130.132 63.9589 130.132C64.0441 130.101 64.1292 130.101 64.1859 130.132C64.271 130.193 64.2994 130.254 64.2994 130.345V136.941C64.2994 137.032 64.2427 137.124 64.1859 137.155C64.1292 137.216 63.1077 137.796 61.4336 137.796ZM56.5248 136.452C57.2625 136.452 58.1421 136.574 59.1636 136.91C61.6038 137.704 63.3631 137.002 63.8454 136.788V130.773C63.1361 131.078 61.3768 131.597 59.0217 130.834C56.6099 130.04 55.0493 130.559 54.5953 130.742V136.758C54.9642 136.635 55.6168 136.452 56.5248 136.452Z" fill="#FFBE55"/>
<path d="M54.3399 143.17C54.198 143.17 54.1129 143.048 54.1129 142.926V135.231C54.1129 135.078 54.2264 134.987 54.3399 134.987C54.4534 134.987 54.5669 135.109 54.5669 135.231V142.926C54.5953 143.048 54.4818 143.17 54.3399 143.17ZM193.035 116.33C190.964 116.33 189.261 114.528 189.261 112.269C189.261 110.04 190.936 108.208 193.035 108.208C195.107 108.208 196.809 110.009 196.809 112.269C196.781 114.498 195.107 116.33 193.035 116.33ZM193.035 108.757C191.219 108.757 189.744 110.345 189.744 112.299C189.744 114.254 191.219 115.841 193.035 115.841C194.851 115.841 196.327 114.254 196.327 112.299C196.298 110.345 194.823 108.757 193.035 108.757Z" fill="#FFBE55"/>
<path d="M198.426 118.467C198.341 118.467 198.256 118.437 198.171 118.345L195.248 115.2C195.106 115.047 195.106 114.803 195.248 114.65C195.39 114.498 195.617 114.498 195.759 114.65L198.682 117.795C198.824 117.948 198.824 118.192 198.682 118.345C198.625 118.437 198.511 118.467 198.426 118.467ZM90.2904 182.254H76.8692C76.7273 182.254 76.6422 182.132 76.6422 182.01V175.72C76.6422 175.567 76.7557 175.475 76.8692 175.475H81.3808C81.5226 175.475 81.6078 175.598 81.6078 175.72C81.6078 176.88 82.4874 177.796 83.5373 177.796C84.6155 177.796 85.4667 176.849 85.4667 175.72C85.4667 175.567 85.5802 175.475 85.6937 175.475H90.2053C90.3472 175.475 90.4323 175.598 90.4323 175.72V182.01C90.5174 182.162 90.4039 182.254 90.2904 182.254ZM77.0962 181.766H90.035V175.994H85.9775C85.864 177.307 84.8141 178.346 83.5656 178.346C82.3171 178.346 81.2673 177.307 81.1538 175.994H77.0962V181.766Z" fill="#FFBE55"/>
</g>
</g>
<path d="M257.957 131.964H8.37349C7.26688 131.964 6.35889 130.987 6.35889 129.796V127.292C6.35889 126.101 7.26688 125.124 8.37349 125.124H257.985C259.092 125.124 260 126.101 260 127.292V129.796C260 130.987 259.092 131.964 257.957 131.964Z" fill="#D3D3D3"/>
<path opacity="0.4" d="M228.277 101.032C228.277 101.032 218.062 115.383 228.277 120.391C238.492 125.399 241.017 113.46 240.847 108.269C240.677 103.078 260.142 93.4289 248.281 78.6501C236.42 63.9019 219.708 92.8793 228.277 101.032Z" fill="#2A94F4"/>
<path opacity="0.4" d="M213.125 106.773C213.125 106.773 210.855 117.185 217.466 117.216C224.106 117.246 222.772 110.162 221.524 107.414C220.275 104.666 228.589 94.4061 218.885 89.5206C209.181 84.635 206.684 104.605 213.125 106.773Z" fill="#2A94F4"/>
<path d="M216.047 97.1237L218.97 125.735M219.651 103.597L217.126 107.75L213.749 104.666M239.882 86.406L225.326 127.078M242.691 93.6122L236.364 96.2381L233.725 90.2228M239.513 102.131L233.186 104.757L230.575 98.742" stroke="#4D4D4D" stroke-miterlimit="10"/>
<path opacity="0.4" d="M23.8375 101.032C23.8375 101.032 34.0523 115.383 23.8375 120.391C13.6226 125.399 11.0972 113.46 11.2675 108.269C11.4377 103.078 -8.0273 93.4289 3.83331 78.6501C15.6939 63.9019 32.435 92.8793 23.8375 101.032Z" fill="#2A94F4"/>
<path opacity="0.4" d="M38.9898 106.773C38.9898 106.773 41.2597 117.185 34.6484 117.216C28.0088 117.246 29.3424 110.162 30.5908 107.414C31.8677 104.666 23.5256 94.4061 33.2297 89.5206C42.9338 84.635 45.4308 104.605 38.9898 106.773Z" fill="#2A94F4"/>
<path d="M36.067 97.1237L33.1444 125.735M32.4634 103.597L34.9888 107.75L38.3654 104.666M12.2323 86.406L26.7885 127.078M9.42322 93.6122L15.7508 96.2381L18.3896 90.2228M12.6012 102.131L18.9287 104.757L21.5676 98.742" stroke="#4D4D4D" stroke-miterlimit="10"/>
<path d="M121.213 81.0798L126.111 78.8061L121.785 74.9827L121.213 81.0798ZM142.938 47.8365L138.04 50.1102L142.366 53.9336L142.938 47.8365ZM124.049 77.6441L140.851 51.9345L140.102 51.2723L123.3 76.9818L124.049 77.6441Z" fill="black"/>
<path d="M122.811 98.7686L127.71 96.4948L123.384 92.6714L122.811 98.7686ZM144.537 65.5252L139.639 67.7989L143.965 71.6223L144.537 65.5252ZM125.648 95.3328L142.45 69.6232L141.701 68.961L124.898 94.6705L125.648 95.3328Z" fill="black"/>
</svg>
