<svg width="16" height="14" viewBox="0 0 16 14" fill="none" xmlns="http://www.w3.org/2000/svg">
<path d="M14.75 9.25H1.25C0.8 9.25 0.5 9.55 0.5 10C0.5 10.45 0.8 10.75 1.25 10.75H14.75C15.2 10.75 15.5 10.45 15.5 10C15.5 9.55 15.2 9.25 14.75 9.25ZM10.25 12.25H1.25C0.8 12.25 0.5 12.55 0.5 13C0.5 13.45 0.8 13.75 1.25 13.75H10.25C10.7 13.75 11 13.45 11 13C11 12.55 10.7 12.25 10.25 12.25ZM1.25 1.75H14.75C15.2 1.75 15.5 1.45 15.5 1C15.5 0.55 15.2 0.25 14.75 0.25H1.25C0.8 0.25 0.5 0.55 0.5 1C0.5 1.45 0.8 1.75 1.25 1.75ZM14.75 3.25H1.25C0.8 3.25 0.5 3.55 0.5 4C0.5 4.45 0.8 4.75 1.25 4.75H14.75C15.2 4.75 15.5 4.45 15.5 4C15.5 3.55 15.2 3.25 14.75 3.25ZM14.75 6.25H1.25C0.8 6.25 0.5 6.55 0.5 7C0.5 7.45 0.8 7.75 1.25 7.75H14.75C15.2 7.75 15.5 7.45 15.5 7C15.5 6.55 15.2 6.25 14.75 6.25Z" fill="#F9A144"/>
</svg>
