<svg width="165" height="87" viewBox="0 0 165 87" fill="none" xmlns="http://www.w3.org/2000/svg">
<g id="Group" filter="url(#filter0_d_294_175)">
<path id="Vector" fill-rule="evenodd" clip-rule="evenodd" d="M113.899 66.3481C118.594 72.931 126.316 77.1984 135.007 77.1247C149.161 77.0045 160.55 65.4205 160.429 51.2676C160.322 38.5457 150.948 28.0474 138.765 26.1529C136.186 25.7506 134.357 23.482 134.444 20.9369L134.374 13.421C134.313 6.13921 128.351 0.273028 121.065 0.334869L47.9475 0.955474C40.6615 1.01732 34.7996 6.98386 34.8614 14.2656L34.9235 21.5825C34.9474 24.4027 32.678 26.7106 29.8571 26.7345C15.7039 26.8546 4.31502 38.4432 4.43511 52.5916C4.55524 66.7445 16.1385 78.1336 30.2924 78.0135C39.2545 77.9374 47.1147 73.2617 51.6383 66.2431C52.6679 64.655 54.4337 63.8232 56.1972 63.91C56.2997 63.9046 109.25 63.4552 109.25 63.4552C111.294 63.4379 113.067 64.6232 113.899 66.3481Z" fill="#F3F3F3"/>
<path id="Vector_2" fill-rule="evenodd" clip-rule="evenodd" d="M159.88 46.1621C160.226 47.8109 160.415 49.5198 160.429 51.2676C160.55 65.4205 149.161 77.0045 135.007 77.1247C126.316 77.1984 118.595 72.931 113.899 66.3482C113.067 64.6243 111.294 63.4379 109.25 63.4552C109.25 63.4552 56.2996 63.9047 56.1972 63.9101C54.4337 63.8232 52.6678 64.655 51.6389 66.2431C47.1147 73.2617 39.2544 77.9374 30.293 78.0135C16.1391 78.1336 4.55518 66.7445 4.43505 52.5916C4.42022 50.8439 4.57948 49.1365 4.90268 47.4775C7.373 59.1634 17.8048 67.9003 30.2056 67.795C39.1677 67.7189 47.0279 63.0433 51.5515 56.0246C52.5811 54.4366 54.3469 53.6036 56.1105 53.6916C56.2129 53.6851 109.163 53.2356 109.163 53.2356C111.207 53.2183 112.98 54.4047 113.812 56.1297C118.507 62.7115 126.229 66.98 134.921 66.9062C147.327 66.8009 157.609 57.8894 159.88 46.1621ZM134.357 10.8146L134.359 11.0544L134.353 10.9526L134.352 10.835L134.357 10.8146Z" fill="black" fill-opacity="0.11"/>
<path id="Vector_3" d="M29.0098 45.5999C32.1224 45.5735 34.6243 43.0289 34.5979 39.9163C34.5715 36.8038 32.0268 34.302 28.9142 34.3284C25.8016 34.3548 23.2997 36.8994 23.3262 40.012C23.3526 43.1245 25.8973 45.6264 29.0098 45.5999Z" fill="#074B59"/>
<path id="Vector_4" d="M29.2091 69.1296C32.3217 69.1032 34.8235 66.5585 34.7971 63.446C34.7707 60.3334 32.226 57.8316 29.1134 57.858C26.0008 57.8845 23.499 60.4291 23.5254 63.5417C23.5518 66.6542 26.0965 69.156 29.2091 69.1296Z" fill="#074B59"/>
<path id="Vector_5" d="M22.9387 51.7799C22.9123 48.6674 20.3676 46.1655 17.255 46.192C14.1424 46.2184 11.6406 48.763 11.667 51.8756C11.6934 54.9881 14.2381 57.4899 17.3507 57.4635C20.4633 57.4371 22.9651 54.8925 22.9387 51.7799Z" fill="#074B59"/>
<path id="Vector_6" d="M46.4573 51.5802C46.4309 48.4676 43.8862 45.9658 40.7736 45.9923C37.661 46.0187 35.1591 48.5633 35.1856 51.6759C35.212 54.7884 37.7567 57.2902 40.8693 57.2638C43.9819 57.2374 46.4837 54.6928 46.4573 51.5802Z" fill="#074B59"/>
<path id="Vector_7" d="M135.741 44.6941C138.854 44.6676 141.356 42.123 141.329 39.0104C141.303 35.8979 138.758 33.3961 135.646 33.4225C132.533 33.4489 130.031 35.9936 130.058 39.1061C130.084 42.2187 132.629 44.7205 135.741 44.6941Z" fill="#8FC4FF"/>
<path id="Vector_8" d="M135.941 68.2237C139.053 68.1973 141.555 65.6527 141.529 62.5401C141.502 59.4276 138.957 56.9257 135.845 56.9522C132.732 56.9786 130.23 59.5232 130.257 62.6358C130.283 65.7483 132.828 68.2501 135.941 68.2237Z" fill="#074B59"/>
<path id="Vector_9" d="M129.67 50.8739C129.644 47.7613 127.099 45.2595 123.986 45.286C120.874 45.3124 118.372 47.857 118.398 50.9696C118.425 54.0821 120.97 56.5839 124.082 56.5575C127.195 56.5311 129.697 53.9865 129.67 50.8739Z" fill="#FF7171"/>
<path id="Vector_10" d="M153.19 50.6743C153.163 47.5618 150.619 45.06 147.506 45.0864C144.393 45.1128 141.892 47.6574 141.918 50.77C141.944 53.8825 144.489 56.3843 147.602 56.3579C150.714 56.3315 153.216 53.7869 153.19 50.6743Z" fill="#E6EE6D"/>
<path id="Vector_11" fill-rule="evenodd" clip-rule="evenodd" d="M51.4919 19.3444L112.807 18.824C115.627 18.8001 117.905 17.3971 117.89 15.6923C117.876 13.9864 115.575 12.6212 112.754 12.6452L51.4388 13.1656C48.6186 13.1896 46.3409 14.5936 46.3553 16.2984C46.3698 18.0043 48.671 19.3684 51.4913 19.3444L51.4919 19.3444ZM61.8026 30.087L102.679 29.7401C105.5 29.7161 107.78 28.6741 107.77 27.415C107.759 26.1559 105.461 25.1527 102.64 25.1767L61.7646 25.5236C58.9437 25.5476 56.6635 26.5896 56.6742 27.8487C56.6849 29.1077 58.9824 30.111 61.8033 30.087L61.8026 30.087Z" fill="#074B59"/>
<path id="Vector_12" fill-rule="evenodd" clip-rule="evenodd" d="M81.3982 0.667088L48.0265 0.950339C40.6731 1.01275 34.8411 6.97903 34.9029 14.2642L34.9651 21.5833C34.989 24.4001 32.7457 26.7157 29.9178 26.7397C15.7773 26.8597 4.33554 38.4397 4.45566 52.5915C4.57577 66.7433 16.2125 78.1387 30.3531 78.0187C39.2897 77.9428 47.1696 73.2601 51.6353 66.242C52.7533 64.6487 54.4428 63.8198 56.254 63.9062L81.9331 63.6883L81.3982 0.667088Z" fill="#FFF4F4" fill-opacity="0.34"/>
</g>
<defs>
<filter id="filter0_d_294_175" x="0.43457" y="0.334351" width="163.996" height="85.6853" filterUnits="userSpaceOnUse" color-interpolation-filters="sRGB">
<feFlood flood-opacity="0" result="BackgroundImageFix"/>
<feColorMatrix in="SourceAlpha" type="matrix" values="0 0 0 0 0 0 0 0 0 0 0 0 0 0 0 0 0 0 127 0" result="hardAlpha"/>
<feOffset dy="4"/>
<feGaussianBlur stdDeviation="2"/>
<feComposite in2="hardAlpha" operator="out"/>
<feColorMatrix type="matrix" values="0 0 0 0 0 0 0 0 0 0 0 0 0 0 0 0 0 0 0.25 0"/>
<feBlend mode="normal" in2="BackgroundImageFix" result="effect1_dropShadow_294_175"/>
<feBlend mode="normal" in="SourceGraphic" in2="effect1_dropShadow_294_175" result="shape"/>
</filter>
</defs>
</svg>
