<svg width="53" height="53" viewBox="0 0 53 53" fill="none" xmlns="http://www.w3.org/2000/svg">
<path d="M30.6365 51.7578H7.86304V14.4922H30.2224V26.5" fill="#F4F8F8"/>
<path d="M12.8401 31.8828V34.3672H10.3557L10.3474 31.8828H12.8401Z" fill="#DBE7F6"/>
<path d="M12.8401 31.8828V34.3672H10.3557L10.3474 31.8828H12.8401Z" fill="#B4CBEA"/>
<path d="M30.2307 26.0859V24.4297H45.137V51.7578H30.2307V39.3359" fill="#DBE7F6"/>
<path d="M30.2307 39.3359V51.7578H45.137V24.4297L30.2307 39.3359Z" fill="#B4CBEA"/>
<path d="M30.2224 14.4922L7.86304 36.8516V51.7578H30.6365L30.2224 26.5V14.4922Z" fill="#DBE7F6"/>
<path d="M12.8401 16.9766V19.4609H10.3557L10.3474 16.9766H12.8401Z" fill="#DBE7F6"/>
<path d="M17.8088 16.9766V19.4609H15.3244L15.3162 16.9766H17.8088Z" fill="#DBE7F6"/>
<path d="M22.7776 16.9766V19.4609H20.2932L20.2849 16.9766H22.7776Z" fill="#DBE7F6"/>
<path d="M27.7463 16.9766V19.4609H25.2619L25.2537 16.9766H27.7463Z" fill="#DBE7F6"/>
<path d="M12.8401 21.9453V24.4297H10.3557L10.3474 21.9453H12.8401Z" fill="#DBE7F6"/>
<path d="M17.8088 21.9453V24.4297H15.3244L15.3162 21.9453H17.8088Z" fill="#DBE7F6"/>
<path d="M22.7776 21.9453V24.4297H20.2932L20.2849 21.9453H22.7776Z" fill="#DBE7F6"/>
<path d="M20.2932 24.4297H22.7776V21.9453H22.7693L20.2932 24.4214V24.4297Z" fill="#B4CBEA"/>
<path d="M27.7463 21.9453V24.4297H25.2619L25.2537 21.9453H27.7463Z" fill="#B4CBEA"/>
<path d="M12.8401 26.9141V29.3984H10.3557L10.3474 26.9141H12.8401Z" fill="#DBE7F6"/>
<path d="M10.3557 34.3672H12.8401V31.8828H12.8318L10.3557 34.3589V34.3672Z" fill="#B4CBEA"/>
<path d="M17.8088 26.9141V29.3984H15.3244L15.3162 26.9141H17.8088Z" fill="#DBE7F6"/>
<path d="M15.3245 29.3984H17.8088V26.9141H17.8006L15.3245 29.3902V29.3984Z" fill="#B4CBEA"/>
<path d="M22.7776 26.9141V29.3984H20.2932L20.2849 26.9141H22.7776Z" fill="#B4CBEA"/>
<path d="M27.7463 26.9141V29.3984H25.2619L25.2537 26.9141H27.7463Z" fill="#B4CBEA"/>
<path d="M17.8088 31.8828V34.3672H15.3244L15.3162 31.8828H17.8088Z" fill="#B4CBEA"/>
<path d="M22.7776 31.8828V34.3672H20.2932L20.2849 31.8828H22.7776Z" fill="#B4CBEA"/>
<path d="M27.7463 31.8828V34.3672H25.2619L25.2537 31.8828H27.7463Z" fill="#B4CBEA"/>
<path d="M12.8401 36.8516V39.3359H10.3557L10.3474 36.8516H12.8401Z" fill="#B4CBEA"/>
<path d="M17.8088 36.8516V39.3359H15.3244L15.3162 36.8516H17.8088Z" fill="#B4CBEA"/>
<path d="M22.7776 36.8516V39.3359H20.2932L20.2849 36.8516H22.7776Z" fill="#B4CBEA"/>
<path d="M27.7463 36.8516V39.3359H25.2619L25.2537 36.8516H27.7463Z" fill="#B4CBEA"/>
<path d="M12.8401 41.8203V44.3047H10.3557L10.3474 41.8203H12.8401Z" fill="#B4CBEA"/>
<path d="M27.7463 41.8203V44.3047H25.2619L25.2537 41.8203H27.7463Z" fill="#B4CBEA"/>
<path d="M12.8401 46.7891V49.2734H10.3557L10.3474 46.7891H12.8401Z" fill="#B4CBEA"/>
<path d="M27.7463 46.7891V49.2734H25.2619L25.2537 46.7891H27.7463Z" fill="#B4CBEA"/>
<path d="M25.262 19.4609H27.7463V16.9766H27.7381L25.262 19.4527V19.4609Z" fill="#B4CBEA"/>
<path d="M42.6443 21.9453H32.7068V24.4297H42.6443V21.9453Z" fill="#DBE7F6"/>
<path d="M36.7249 24.4297H42.6443V21.9453H39.2092L36.7249 24.4297Z" fill="#B4CBEA"/>
<path d="M27.738 12.0078H10.3474V14.4922H27.738V12.0078Z" fill="#F4F8F8"/>
<path d="M19.032 14.4922H27.7381V12.0078H21.5164L19.032 14.4922Z" fill="#DBE7F6"/>
<path d="M45.1328 52.1719H30.2266C29.998 52.1719 29.8125 51.9864 29.8125 51.7578V24.4297C29.8125 24.2011 29.998 24.0156 30.2266 24.0156H45.1328C45.3614 24.0156 45.5469 24.2011 45.5469 24.4297V51.7578C45.5469 51.9864 45.3614 52.1719 45.1328 52.1719ZM30.6406 51.3438H44.7188V24.8438H30.6406V51.3438ZM27.7422 14.9062H10.3516C10.123 14.9062 9.9375 14.7208 9.9375 14.4922V12.0078C9.9375 11.7793 10.123 11.5938 10.3516 11.5938H27.7422C27.9708 11.5938 28.1562 11.7793 28.1562 12.0078V14.4922C28.1562 14.7208 27.9708 14.9062 27.7422 14.9062ZM10.7656 14.0781H27.3281V12.4219H10.7656V14.0781Z" fill="#4574BA"/>
<path d="M42.6484 24.8435H32.7109C32.4824 24.8435 32.2969 24.658 32.2969 24.4295V21.9451C32.2969 21.7165 32.4824 21.531 32.7109 21.531H42.6484C42.877 21.531 43.0625 21.7165 43.0625 21.9451V24.4295C43.0625 24.658 42.877 24.8435 42.6484 24.8435ZM33.125 24.0154H42.2344V22.3592H33.125V24.0154ZM21.9627 12.4217H16.994C16.7654 12.4217 16.5799 12.2362 16.5799 12.0076V8.25537C16.5799 8.02681 16.7654 7.84131 16.994 7.84131C17.2225 7.84131 17.408 8.02681 17.408 8.25537V11.5935H21.5486V8.25537C21.5486 8.02681 21.7341 7.84131 21.9627 7.84131C22.1913 7.84131 22.3768 8.02681 22.3768 8.25537V12.0076C22.3768 12.2362 22.1913 12.4217 21.9627 12.4217ZM12.8533 19.8748H10.369C10.1404 19.8748 9.9549 19.6893 9.9549 19.4607C9.9549 19.2322 10.1404 19.0467 10.369 19.0467H12.4393V16.9764C12.4393 16.7478 12.6248 16.5623 12.8533 16.5623C13.0819 16.5623 13.2674 16.7478 13.2674 16.9764V19.4607C13.2674 19.6893 13.0819 19.8748 12.8533 19.8748ZM17.8221 19.8748H15.3377C15.1091 19.8748 14.9236 19.6893 14.9236 19.4607C14.9236 19.2322 15.1091 19.0467 15.3377 19.0467H17.408V16.9764C17.408 16.7478 17.5935 16.5623 17.8221 16.5623C18.0506 16.5623 18.2361 16.7478 18.2361 16.9764V19.4607C18.2361 19.6893 18.0506 19.8748 17.8221 19.8748ZM22.7908 19.8748H20.3065C20.0779 19.8748 19.8924 19.6893 19.8924 19.4607C19.8924 19.2322 20.0779 19.0467 20.3065 19.0467H22.3768V16.9764C22.3768 16.7478 22.5623 16.5623 22.7908 16.5623C23.0194 16.5623 23.2049 16.7478 23.2049 16.9764V19.4607C23.2049 19.6893 23.0194 19.8748 22.7908 19.8748ZM34.3846 28.9842H32.7283C32.4998 28.9842 32.3143 28.7987 32.3143 28.5701C32.3143 28.3415 32.4998 28.156 32.7283 28.156H33.9705V26.9139C33.9705 26.6853 34.156 26.4998 34.3846 26.4998C34.6131 26.4998 34.7986 26.6853 34.7986 26.9139V28.5701C34.7986 28.7987 34.6131 28.9842 34.3846 28.9842ZM38.5252 28.9842H36.869C36.6404 28.9842 36.4549 28.7987 36.4549 28.5701C36.4549 28.3415 36.6404 28.156 36.869 28.156H38.1111V26.9139C38.1111 26.6853 38.2966 26.4998 38.5252 26.4998C38.7538 26.4998 38.9393 26.6853 38.9393 26.9139V28.5701C38.9393 28.7987 38.7538 28.9842 38.5252 28.9842ZM42.6658 28.9842H41.0096C40.781 28.9842 40.5955 28.7987 40.5955 28.5701C40.5955 28.3415 40.781 28.156 41.0096 28.156H42.2518V26.9139C42.2518 26.6853 42.4373 26.4998 42.6658 26.4998C42.8944 26.4998 43.0799 26.6853 43.0799 26.9139V28.5701C43.0799 28.7987 42.8944 28.9842 42.6658 28.9842ZM34.3846 33.1248H32.7283C32.4998 33.1248 32.3143 32.9393 32.3143 32.7107C32.3143 32.4822 32.4998 32.2967 32.7283 32.2967H33.9705V31.0545C33.9705 30.8259 34.156 30.6404 34.3846 30.6404C34.6131 30.6404 34.7986 30.8259 34.7986 31.0545V32.7107C34.7986 32.9393 34.6131 33.1248 34.3846 33.1248ZM38.5252 33.1248H36.869C36.6404 33.1248 36.4549 32.9393 36.4549 32.7107C36.4549 32.4822 36.6404 32.2967 36.869 32.2967H38.1111V31.0545C38.1111 30.8259 38.2966 30.6404 38.5252 30.6404C38.7538 30.6404 38.9393 30.8259 38.9393 31.0545V32.7107C38.9393 32.9393 38.7538 33.1248 38.5252 33.1248ZM42.6658 33.1248H41.0096C40.781 33.1248 40.5955 32.9393 40.5955 32.7107C40.5955 32.4822 40.781 32.2967 41.0096 32.2967H42.2518V31.0545C42.2518 30.8259 42.4373 30.6404 42.6658 30.6404C42.8944 30.6404 43.0799 30.8259 43.0799 31.0545V32.7107C43.0799 32.9393 42.8944 33.1248 42.6658 33.1248ZM34.3846 37.2654H32.7283C32.4998 37.2654 32.3143 37.0799 32.3143 36.8514C32.3143 36.6228 32.4998 36.4373 32.7283 36.4373H33.9705V35.1951C33.9705 34.9665 34.156 34.781 34.3846 34.781C34.6131 34.781 34.7986 34.9665 34.7986 35.1951V36.8514C34.7986 37.0799 34.6131 37.2654 34.3846 37.2654ZM38.5252 37.2654H36.869C36.6404 37.2654 36.4549 37.0799 36.4549 36.8514C36.4549 36.6228 36.6404 36.4373 36.869 36.4373H38.1111V35.1951C38.1111 34.9665 38.2966 34.781 38.5252 34.781C38.7538 34.781 38.9393 34.9665 38.9393 35.1951V36.8514C38.9393 37.0799 38.7538 37.2654 38.5252 37.2654ZM42.6658 37.2654H41.0096C40.781 37.2654 40.5955 37.0799 40.5955 36.8514C40.5955 36.6228 40.781 36.4373 41.0096 36.4373H42.2518V35.1951C42.2518 34.9665 42.4373 34.781 42.6658 34.781C42.8944 34.781 43.0799 34.9665 43.0799 35.1951V36.8514C43.0799 37.0799 42.8944 37.2654 42.6658 37.2654ZM34.3846 41.406H32.7283C32.4998 41.406 32.3143 41.2205 32.3143 40.992C32.3143 40.7634 32.4998 40.5779 32.7283 40.5779H33.9705V39.3357C33.9705 39.1072 34.156 38.9217 34.3846 38.9217C34.6131 38.9217 34.7986 39.1072 34.7986 39.3357V40.992C34.7986 41.2205 34.6131 41.406 34.3846 41.406ZM38.5252 41.406H36.869C36.6404 41.406 36.4549 41.2205 36.4549 40.992C36.4549 40.7634 36.6404 40.5779 36.869 40.5779H38.1111V39.3357C38.1111 39.1072 38.2966 38.9217 38.5252 38.9217C38.7538 38.9217 38.9393 39.1072 38.9393 39.3357V40.992C38.9393 41.2205 38.7538 41.406 38.5252 41.406ZM42.6658 41.406H41.0096C40.781 41.406 40.5955 41.2205 40.5955 40.992C40.5955 40.7634 40.781 40.5779 41.0096 40.5779H42.2518V39.3357C42.2518 39.1072 42.4373 38.9217 42.6658 38.9217C42.8944 38.9217 43.0799 39.1072 43.0799 39.3357V40.992C43.0799 41.2205 42.8944 41.406 42.6658 41.406ZM34.3846 45.5467H32.7283C32.4998 45.5467 32.3143 45.3612 32.3143 45.1326C32.3143 44.904 32.4998 44.7185 32.7283 44.7185H33.9705V43.4764C33.9705 43.2478 34.156 43.0623 34.3846 43.0623C34.6131 43.0623 34.7986 43.2478 34.7986 43.4764V45.1326C34.7986 45.3612 34.6131 45.5467 34.3846 45.5467ZM38.5252 45.5467H36.869C36.6404 45.5467 36.4549 45.3612 36.4549 45.1326C36.4549 44.904 36.6404 44.7185 36.869 44.7185H38.1111V43.4764C38.1111 43.2478 38.2966 43.0623 38.5252 43.0623C38.7538 43.0623 38.9393 43.2478 38.9393 43.4764V45.1326C38.9393 45.3612 38.7538 45.5467 38.5252 45.5467ZM42.6658 45.5467H41.0096C40.781 45.5467 40.5955 45.3612 40.5955 45.1326C40.5955 44.904 40.781 44.7185 41.0096 44.7185H42.2518V43.4764C42.2518 43.2478 42.4373 43.0623 42.6658 43.0623C42.8944 43.0623 43.0799 43.2478 43.0799 43.4764V45.1326C43.0799 45.3612 42.8944 45.5467 42.6658 45.5467ZM34.3846 49.6873H32.7283C32.4998 49.6873 32.3143 49.5018 32.3143 49.2732C32.3143 49.0447 32.4998 48.8592 32.7283 48.8592H33.9705V47.617C33.9705 47.3884 34.156 47.2029 34.3846 47.2029C34.6131 47.2029 34.7986 47.3884 34.7986 47.617V49.2732C34.7986 49.5018 34.6131 49.6873 34.3846 49.6873ZM38.5252 49.6873H36.869C36.6404 49.6873 36.4549 49.5018 36.4549 49.2732C36.4549 49.0447 36.6404 48.8592 36.869 48.8592H38.1111V47.617C38.1111 47.3884 38.2966 47.2029 38.5252 47.2029C38.7538 47.2029 38.9393 47.3884 38.9393 47.617V49.2732C38.9393 49.5018 38.7538 49.6873 38.5252 49.6873ZM42.6658 49.6873H41.0096C40.781 49.6873 40.5955 49.5018 40.5955 49.2732C40.5955 49.0447 40.781 48.8592 41.0096 48.8592H42.2518V47.617C42.2518 47.3884 42.4373 47.2029 42.6658 47.2029C42.8944 47.2029 43.0799 47.3884 43.0799 47.617V49.2732C43.0799 49.5018 42.8944 49.6873 42.6658 49.6873ZM27.7596 19.8748H25.2752C25.0466 19.8748 24.8611 19.6893 24.8611 19.4607C24.8611 19.2322 25.0466 19.0467 25.2752 19.0467H27.3455V16.9764C27.3455 16.7478 27.531 16.5623 27.7596 16.5623C27.9881 16.5623 28.1736 16.7478 28.1736 16.9764V19.4607C28.1736 19.6893 27.9881 19.8748 27.7596 19.8748ZM12.8533 24.8435H10.369C10.1404 24.8435 9.9549 24.658 9.9549 24.4295C9.9549 24.2009 10.1404 24.0154 10.369 24.0154H12.4393V21.9451C12.4393 21.7165 12.6248 21.531 12.8533 21.531C13.0819 21.531 13.2674 21.7165 13.2674 21.9451V24.4295C13.2674 24.658 13.0819 24.8435 12.8533 24.8435ZM17.8221 24.8435H15.3377C15.1091 24.8435 14.9236 24.658 14.9236 24.4295C14.9236 24.2009 15.1091 24.0154 15.3377 24.0154H17.408V21.9451C17.408 21.7165 17.5935 21.531 17.8221 21.531C18.0506 21.531 18.2361 21.7165 18.2361 21.9451V24.4295C18.2361 24.658 18.0506 24.8435 17.8221 24.8435ZM22.7908 24.8435H20.3065C20.0779 24.8435 19.8924 24.658 19.8924 24.4295C19.8924 24.2009 20.0779 24.0154 20.3065 24.0154H22.3768V21.9451C22.3768 21.7165 22.5623 21.531 22.7908 21.531C23.0194 21.531 23.2049 21.7165 23.2049 21.9451V24.4295C23.2049 24.658 23.0194 24.8435 22.7908 24.8435ZM27.7596 24.8435H25.2752C25.0466 24.8435 24.8611 24.658 24.8611 24.4295C24.8611 24.2009 25.0466 24.0154 25.2752 24.0154H27.3455V21.9451C27.3455 21.7165 27.531 21.531 27.7596 21.531C27.9881 21.531 28.1736 21.7165 28.1736 21.9451V24.4295C28.1736 24.658 27.9881 24.8435 27.7596 24.8435ZM12.8533 29.8123H10.369C10.1404 29.8123 9.9549 29.6268 9.9549 29.3982C9.9549 29.1697 10.1404 28.9842 10.369 28.9842H12.4393V26.9139C12.4393 26.6853 12.6248 26.4998 12.8533 26.4998C13.0819 26.4998 13.2674 26.6853 13.2674 26.9139V29.3982C13.2674 29.6268 13.0819 29.8123 12.8533 29.8123ZM17.8221 29.8123H15.3377C15.1091 29.8123 14.9236 29.6268 14.9236 29.3982C14.9236 29.1697 15.1091 28.9842 15.3377 28.9842H17.408V26.9139C17.408 26.6853 17.5935 26.4998 17.8221 26.4998C18.0506 26.4998 18.2361 26.6853 18.2361 26.9139V29.3982C18.2361 29.6268 18.0506 29.8123 17.8221 29.8123ZM22.7908 29.8123H20.3065C20.0779 29.8123 19.8924 29.6268 19.8924 29.3982C19.8924 29.1697 20.0779 28.9842 20.3065 28.9842H22.3768V26.9139C22.3768 26.6853 22.5623 26.4998 22.7908 26.4998C23.0194 26.4998 23.2049 26.6853 23.2049 26.9139V29.3982C23.2049 29.6268 23.0194 29.8123 22.7908 29.8123ZM27.7596 29.8123H25.2752C25.0466 29.8123 24.8611 29.6268 24.8611 29.3982C24.8611 29.1697 25.0466 28.9842 25.2752 28.9842H27.3455V26.9139C27.3455 26.6853 27.531 26.4998 27.7596 26.4998C27.9881 26.4998 28.1736 26.6853 28.1736 26.9139V29.3982C28.1736 29.6268 27.9881 29.8123 27.7596 29.8123ZM12.8533 34.781H10.369C10.1404 34.781 9.9549 34.5955 9.9549 34.367C9.9549 34.1384 10.1404 33.9529 10.369 33.9529H12.4393V31.8826C12.4393 31.654 12.6248 31.4685 12.8533 31.4685C13.0819 31.4685 13.2674 31.654 13.2674 31.8826V34.367C13.2674 34.5955 13.0819 34.781 12.8533 34.781ZM17.8221 34.781H15.3377C15.1091 34.781 14.9236 34.5955 14.9236 34.367C14.9236 34.1384 15.1091 33.9529 15.3377 33.9529H17.408V31.8826C17.408 31.654 17.5935 31.4685 17.8221 31.4685C18.0506 31.4685 18.2361 31.654 18.2361 31.8826V34.367C18.2361 34.5955 18.0506 34.781 17.8221 34.781ZM22.7908 34.781H20.3065C20.0779 34.781 19.8924 34.5955 19.8924 34.367C19.8924 34.1384 20.0779 33.9529 20.3065 33.9529H22.3768V31.8826C22.3768 31.654 22.5623 31.4685 22.7908 31.4685C23.0194 31.4685 23.2049 31.654 23.2049 31.8826V34.367C23.2049 34.5955 23.0194 34.781 22.7908 34.781ZM27.7596 34.781H25.2752C25.0466 34.781 24.8611 34.5955 24.8611 34.367C24.8611 34.1384 25.0466 33.9529 25.2752 33.9529H27.3455V31.8826C27.3455 31.654 27.531 31.4685 27.7596 31.4685C27.9881 31.4685 28.1736 31.654 28.1736 31.8826V34.367C28.1736 34.5955 27.9881 34.781 27.7596 34.781ZM12.8533 39.7498H10.369C10.1404 39.7498 9.9549 39.5643 9.9549 39.3357C9.9549 39.1072 10.1404 38.9217 10.369 38.9217H12.4393V36.8514C12.4393 36.6228 12.6248 36.4373 12.8533 36.4373C13.0819 36.4373 13.2674 36.6228 13.2674 36.8514V39.3357C13.2674 39.5643 13.0819 39.7498 12.8533 39.7498ZM17.8221 39.7498H15.3377C15.1091 39.7498 14.9236 39.5643 14.9236 39.3357C14.9236 39.1072 15.1091 38.9217 15.3377 38.9217H17.408V36.8514C17.408 36.6228 17.5935 36.4373 17.8221 36.4373C18.0506 36.4373 18.2361 36.6228 18.2361 36.8514V39.3357C18.2361 39.5643 18.0506 39.7498 17.8221 39.7498ZM22.7908 39.7498H20.3065C20.0779 39.7498 19.8924 39.5643 19.8924 39.3357C19.8924 39.1072 20.0779 38.9217 20.3065 38.9217H22.3768V36.8514C22.3768 36.6228 22.5623 36.4373 22.7908 36.4373C23.0194 36.4373 23.2049 36.6228 23.2049 36.8514V39.3357C23.2049 39.5643 23.0194 39.7498 22.7908 39.7498Z" fill="#4574BA"/>
<path d="M27.7596 39.75H25.2752C25.0466 39.75 24.8611 39.5645 24.8611 39.3359C24.8611 39.1074 25.0466 38.9219 25.2752 38.9219H27.3455V36.8516C27.3455 36.623 27.531 36.4375 27.7596 36.4375C27.9881 36.4375 28.1736 36.623 28.1736 36.8516V39.3359C28.1736 39.5645 27.9881 39.75 27.7596 39.75Z" fill="#4574BA"/>
<path d="M12.8533 44.7188H10.369C10.1404 44.7188 9.9549 44.5333 9.9549 44.3047C9.9549 44.0761 10.1404 43.8906 10.369 43.8906H12.4393V41.8203C12.4393 41.5918 12.6248 41.4062 12.8533 41.4062C13.0819 41.4062 13.2674 41.5918 13.2674 41.8203V44.3047C13.2674 44.5333 13.0819 44.7188 12.8533 44.7188Z" fill="#4574BA"/>
<path d="M27.7596 44.8877H25.2752C25.0466 44.8877 24.8611 44.7022 24.8611 44.4736C24.8611 44.2451 25.0466 44.0596 25.2752 44.0596H27.3455V41.9893C27.3455 41.7607 27.531 41.5752 27.7596 41.5752C27.9881 41.5752 28.1736 41.7607 28.1736 41.9893V44.4736C28.1736 44.7022 27.9881 44.8877 27.7596 44.8877Z" fill="#4574BA"/>
<path d="M12.8533 49.6875H10.369C10.1404 49.6875 9.9549 49.502 9.9549 49.2734C9.9549 49.0449 10.1404 48.8594 10.369 48.8594H12.4393V46.7891C12.4393 46.5605 12.6248 46.375 12.8533 46.375C13.0819 46.375 13.2674 46.5605 13.2674 46.7891V49.2734C13.2674 49.502 13.0819 49.6875 12.8533 49.6875Z" fill="#4574BA"/>
<path d="M27.7596 49.8564H25.2752C25.0466 49.8564 24.8611 49.6709 24.8611 49.4424C24.8611 49.2138 25.0466 49.0283 25.2752 49.0283H27.3455V46.958C27.3455 46.7294 27.531 46.5439 27.7596 46.5439C27.9881 46.5439 28.1736 46.7294 28.1736 46.958V49.4424C28.1736 49.6709 27.9881 49.8564 27.7596 49.8564Z" fill="#4574BA"/>
<path d="M22.7734 52.1719H15.3203C15.0918 52.1719 14.9062 51.9864 14.9062 51.7578V41.8203C14.9062 41.5918 15.0918 41.4062 15.3203 41.4062H22.7734C23.002 41.4062 23.1875 41.5918 23.1875 41.8203V51.7578C23.1875 51.9864 23.002 52.1719 22.7734 52.1719ZM15.7344 51.3438H22.3594V42.2344H15.7344V51.3438Z" fill="#4574BA"/>
<path d="M19.0643 52.1719C18.8357 52.1719 18.6502 51.9864 18.6502 51.7578V41.8203C18.6502 41.5918 18.8357 41.4062 19.0643 41.4062C19.2928 41.4062 19.4783 41.5918 19.4783 41.8203V51.7578C19.4783 51.9864 19.2928 52.1719 19.0643 52.1719Z" fill="#4574BA"/>
</svg>
