<svg width="179" height="136" viewBox="0 0 179 136" fill="none" xmlns="http://www.w3.org/2000/svg">
<g id="freepik--Puzzle--inject-48">
<g id="freepik--puzzle-pieces--inject-48">
<path id="Vector" opacity="0.2" d="M114.233 96.4178C104.018 103.888 95.509 109.858 91.0904 110.035C87.5935 110.165 86.1189 107.756 85.8936 105.665C85.8067 104.838 85.547 104.047 85.1368 103.361C84.7265 102.675 84.1781 102.114 83.5384 101.726C80.1695 99.4766 73.2984 100.362 68.286 103.722C63.2735 107.082 61.9218 111.623 65.2908 113.873C66.2533 114.505 68.0504 115.308 71.2095 115.432C74.3685 115.556 77.9525 116.578 77.7887 118.887C77.4815 122.76 69.8885 127.632 56.7967 135.391C54.2367 133.673 51.8661 132.049 49.7925 130.585C42.0562 125.187 36.9618 121.638 32.0261 121.94C27.7919 122.199 25.4111 125.14 24.6431 127.579C24.1007 129.174 23.0895 130.5 21.7861 131.323C18.3762 133.608 12.4012 133.33 8.47413 130.697C4.54709 128.063 4.12725 124.095 7.53717 121.839C8.49973 121.195 10.2559 120.345 13.1692 119.944C16.83 119.43 21.2485 117.841 21.6377 115.031C22.1497 111.688 15.7189 107.59 6.84085 101.915C4.64437 100.522 2.35573 99.0751 0.03125 97.5162L3.47189 95.1541C15.2018 87.1528 19.5231 83.6983 24.7045 83.5389C28.1708 83.4089 29.6607 85.8182 29.886 87.9086C29.9725 88.733 30.2304 89.5211 30.6378 90.2059C31.0452 90.8906 31.59 91.4517 32.2258 91.8414C35.6101 94.0912 42.4658 93.2114 47.4936 89.8514C52.5215 86.4914 53.8629 81.9445 50.4786 79.6947C49.516 79.051 47.7292 78.2656 44.5701 78.1239C41.4111 77.9822 37.8271 76.9783 38.0063 74.6695C38.2981 70.6186 45.6863 65.7056 57.5801 58.6077L60.14 60.326C70.9228 67.542 77.4559 71.8941 83.2927 71.5457C87.5116 71.2918 89.9077 68.351 90.6757 65.9063C91.2112 64.3115 92.2175 62.9857 93.5173 62.1625C96.9324 59.8832 102.923 60.1725 106.829 62.7885C110.736 65.4044 111.186 69.3962 107.777 71.6461C106.814 72.2897 105.058 73.14 102.145 73.5239C98.494 74.0435 94.0908 75.6497 93.676 78.4428C93.164 82.1571 100.097 87.0051 109.999 93.6129L114.233 96.4178Z" fill="black"/>
<path id="Vector_2" opacity="0.2" d="M155.948 70.0342C155.753 72.845 159.865 74.0378 163.443 74.1677C166.285 74.3153 167.872 75.0062 168.712 75.5495C171.676 77.5277 170.381 81.5904 165.824 84.6138C161.268 87.6372 155.195 88.4993 152.231 86.5211C151.669 86.1725 151.189 85.6716 150.832 85.0616C150.475 84.4516 150.253 83.7508 150.183 83.0194C149.947 80.6278 148.176 77.8938 143.941 78.0237C139.077 78.1831 132.99 83.1965 123.81 89.6744C121.193 91.5345 118.224 93.6249 115.059 95.7802L112.858 94.3217C102.51 87.4482 94.344 82.0155 94.8457 78.378C95.1785 76.0455 99.039 74.711 102.229 74.2445C105.419 73.778 107.441 72.8332 108.542 72.0891C112.443 69.5027 112.08 65.003 107.717 62.1332C103.355 59.2633 96.6429 58.9799 92.7414 61.5427C91.2711 62.4677 90.128 63.9573 89.5107 65.753C88.8553 67.8906 86.8381 70.4475 83.3411 70.6719C78.0009 71.0085 71.5958 66.7332 61.0077 59.6649L58.7344 58.1354C62.0368 56.1927 65.2163 54.3916 68.0425 52.8209C77.7245 47.3587 84.1193 43.7448 84.3549 40.5324C84.5494 37.7157 80.4432 36.5288 76.8592 36.3694C74.0176 36.2395 72.4304 35.5486 71.5958 35.0053C68.6262 33.0271 69.9216 28.9585 74.463 25.941C79.0045 22.9235 85.1075 22.0496 88.0771 24.0278C88.6378 24.378 89.1168 24.8793 89.4734 25.489C89.83 26.0987 90.0536 26.7987 90.1251 27.5295C90.3657 29.8915 92.1475 32.6551 96.3664 32.5311C101.108 32.3657 104.072 29.9092 112.515 23.2247C115.275 21.0398 118.147 18.79 121.219 16.4457C123.548 18.0046 125.827 19.4514 128.034 20.845C136.379 26.1595 142.969 30.3935 142.533 33.3932C142.216 35.708 138.356 37.0603 135.166 37.5268C131.976 37.9933 129.928 38.9381 128.843 39.6644C124.926 42.2685 125.305 46.7505 129.662 49.6558C134.019 52.5611 140.752 52.8091 144.668 50.2049C146.133 49.2767 147.27 47.7874 147.884 45.9946C148.383 44.5659 149.236 43.3379 150.335 42.4634C151.435 41.5888 152.733 41.1063 154.069 41.0757C158.472 40.8041 163.459 44.2763 170.965 49.5318C173.069 51.008 175.455 52.6615 178.056 54.3975C175.619 55.8443 173.253 57.2083 171.052 58.4957C160.238 64.7964 156.199 66.5679 155.948 70.0342Z" fill="black"/>
<path id="Vector_3" d="M84.3565 24.0986C84.551 21.2878 80.4397 20.1009 76.8608 19.9355C74.0192 19.8115 72.432 19.1206 71.5923 18.5715C71.1264 18.3155 70.731 17.9157 70.4499 17.4164C70.1689 16.9172 70.0132 16.338 70 15.7429V30.4111C70.0138 31.0052 70.1693 31.5835 70.4492 32.0824C70.7292 32.5814 71.1229 32.9817 71.5872 33.2396C71.915 33.4529 72.2575 33.6346 72.6112 33.7829C79.7024 29.7261 84.1568 26.7736 84.3565 24.0986Z" fill="#37474F"/>
<path id="Vector_4" d="M83.3438 54.2558V68.9299C86.8407 68.7055 88.8631 66.1486 89.5134 64.011V49.3428C88.8631 51.4804 86.8407 54.0314 83.3438 54.2558Z" fill="#455A64"/>
<path id="Vector_5" d="M61.0025 43.2546L58.7344 41.7252V56.3993L61.0025 57.9287C71.5907 65.0148 78.0009 69.2724 83.336 68.9358V54.2558C78.0009 54.5983 71.5907 50.323 61.0025 43.2546Z" fill="#263238"/>
<path id="Vector_6" d="M107.72 45.6935C103.373 42.7882 96.6451 42.5461 92.7437 45.1326C91.2728 46.0585 90.1283 47.5476 89.5078 49.3429V64.017C90.1283 62.2217 91.2728 60.7326 92.7437 59.8066C94.8582 58.4071 97.8073 57.8403 100.756 58.0765C101.268 57.9643 101.75 57.8757 102.226 57.8107C105.462 57.362 107.438 56.3935 108.539 55.6554C112.44 53.069 112.077 48.587 107.72 45.6935Z" fill="#37474F"/>
<path id="Vector_7" d="M128.856 23.2188C129.947 22.4925 131.954 21.53 135.184 21.0812C138.415 20.6324 142.235 19.2801 142.552 16.9476C142.571 16.8547 142.579 16.7595 142.578 16.6642V31.3619C142.586 31.4483 142.586 31.5353 142.578 31.6217C142.306 33.5999 139.46 34.8636 136.649 35.4836C134.217 35.3268 131.846 34.544 129.711 33.1925C125.323 30.299 124.95 25.8229 128.856 23.2188Z" fill="#37474F"/>
<path id="Vector_8" d="M112.856 77.8466C102.805 71.168 94.8128 65.8475 94.8281 62.2395V76.9195C94.8281 80.5334 102.815 85.848 112.856 92.5207L115.047 93.9851V79.3051L112.856 77.8466Z" fill="#263238"/>
<path id="Vector_9" d="M165.827 68.1386C161.286 71.1797 155.198 72.0301 152.228 70.0519L152.023 84.5901L152.228 84.7259C155.198 86.7041 161.286 85.8538 165.827 82.8186C168.735 80.8876 170.307 78.5315 170.297 76.5651V62.0092C170.256 63.9519 168.694 66.249 165.827 68.1386Z" fill="#455A64"/>
<path id="Vector_10" d="M150.163 66.5678C149.928 64.1703 148.161 61.4422 143.922 61.5721V76.2462C148.161 76.1163 149.928 78.8503 150.163 81.2419C150.229 81.9295 150.431 82.5905 150.753 83.174C151.075 83.7575 151.509 84.248 152.022 84.6077L152.227 70.0695C151.662 69.723 151.179 69.2231 150.819 68.6129C150.46 68.0028 150.235 67.3008 150.163 66.5678Z" fill="#37474F"/>
<path id="Vector_11" d="M123.797 73.1991C121.17 75.0651 118.211 77.1555 115.047 79.3049V93.9849C118.211 91.8296 121.191 89.7392 123.797 87.8791C132.977 81.3835 139.065 76.3878 143.924 76.2284V61.5543C139.065 61.7138 132.977 66.7272 123.797 73.1991Z" fill="#455A64"/>
<path id="Vector_12" d="M178.1 37.9519V52.626C175.663 54.0727 173.293 55.4368 171.091 56.7241C169.924 57.3973 168.838 58.0232 167.819 58.6019C166.414 58.0309 164.937 57.7258 163.447 57.6984C159.863 57.5508 155.767 56.3639 155.951 53.5649C156.202 50.1104 160.242 48.3389 171.091 42.0559C173.303 40.7627 175.663 39.4046 178.1 37.9519Z" fill="#455A64"/>
<path id="Vector_13" d="M155.948 53.5767C155.754 56.3875 159.865 57.5744 163.444 57.7102C166.285 57.8519 167.873 58.5428 168.712 59.092C171.677 61.0702 170.381 65.1329 165.825 68.1563C161.268 71.1797 155.195 72.0418 152.231 70.0636C151.669 69.715 151.189 69.2141 150.832 68.6041C150.476 67.9941 150.253 67.2933 150.183 66.5619C149.947 64.1704 148.176 61.4363 143.942 61.5662C139.078 61.7257 132.99 66.7391 123.81 73.2169C121.194 75.077 118.224 77.1674 115.06 79.3228L112.874 77.8583C102.526 70.9789 94.3596 65.5521 94.8614 61.9146C95.1942 59.5821 99.0546 58.2476 102.244 57.7811C105.434 57.3146 107.457 56.3698 108.557 55.6257C112.459 53.0393 112.095 48.5397 107.733 45.6639C103.371 42.7881 96.6585 42.5165 92.757 45.1029C91.2867 46.0279 90.1437 47.5176 89.5263 49.3132C88.871 51.4509 86.8537 54.0077 83.3567 54.2321C78.0166 54.5687 71.6114 50.2935 61.0233 43.2251L58.75 41.6957C62.0524 39.7529 65.2319 37.9519 68.0582 36.3811C77.7401 30.9189 84.135 27.305 84.3705 24.0868C84.565 21.276 80.4588 20.089 76.8748 19.9532C74.0332 19.8233 72.446 19.1324 71.6114 18.5833C68.6418 16.611 69.9372 12.5424 74.4786 9.52488C79.0201 6.50739 85.1231 5.63345 88.0927 7.61164C88.6534 7.96187 89.1325 8.46316 89.489 9.07284C89.8456 9.68253 90.0692 10.3826 90.1407 11.1133C90.3814 13.4754 92.1631 16.2389 96.382 16.109C101.123 15.9496 104.088 13.4931 112.53 6.80855C115.29 4.62368 118.162 2.37385 121.234 0.029541C123.564 1.58848 125.842 3.03522 128.049 4.42881C136.395 9.74337 142.984 13.9773 142.549 16.9771C142.232 19.2919 138.371 20.6441 135.181 21.1106C131.992 21.5771 129.944 22.5219 128.858 23.2483C124.941 25.8524 125.32 30.3343 129.677 33.2396C134.034 36.1449 140.767 36.3929 144.684 33.7888C146.149 32.8605 147.286 31.3713 147.899 29.5785C148.397 28.1446 149.25 26.9117 150.352 26.0337C151.454 25.1557 152.756 24.6716 154.095 24.6419C158.498 24.3702 163.485 27.8424 170.991 33.092C173.095 34.5742 175.481 36.2276 178.082 37.9637C175.645 39.4104 173.279 40.7745 171.078 42.0618C160.239 48.333 156.199 50.0986 155.948 53.5767Z" fill="#455A64"/>
<path id="Vector_14" d="M121.278 1.4054C123.326 2.75175 125.292 4.01544 127.222 5.23779L127.581 5.46219C131.794 8.1608 135.43 10.4815 138.025 12.5483C141.369 15.2115 141.609 16.3925 141.548 16.7881C141.374 18.0518 138.522 19.4277 135.066 19.9119C131.61 20.3961 129.526 21.4236 128.354 22.203C126.275 23.5789 125.133 25.5394 125.133 27.7125C125.133 30.1454 126.603 32.5251 129.173 34.2376C131.861 35.9181 134.876 36.7818 137.933 36.7472C140.462 36.8186 142.965 36.1438 145.204 34.7867C146.879 33.723 148.177 32.013 148.87 29.9564C149.433 28.1849 151.158 26.0118 154.148 25.8229C154.292 25.8229 154.435 25.8229 154.583 25.8229C158.598 25.8229 163.579 29.3009 170.455 34.0899C171.94 35.1351 173.824 36.452 175.944 37.8869L172.611 39.8297L170.614 41.0107C169.078 41.8905 167.716 42.6759 166.457 43.3727C158.265 48.0613 155.193 49.8151 154.911 53.4527C154.878 53.9311 154.931 54.4123 155.068 54.8658C155.204 55.3192 155.421 55.7348 155.705 56.0863C157.487 58.3952 161.675 58.8027 163.385 58.8735C166.006 59.0034 167.445 59.6117 168.187 60.0959C168.496 60.2518 168.761 60.5042 168.952 60.8246C169.143 61.1449 169.252 61.5204 169.268 61.9087C169.268 63.4736 167.732 65.5167 165.3 67.117C162.611 68.8965 159.577 69.8653 156.478 69.9337C155.178 70.003 153.884 69.6879 152.72 69.0184C152.296 68.7655 151.934 68.395 151.666 67.9404C151.398 67.4857 151.232 66.9613 151.184 66.4143C150.907 63.6212 148.916 60.3616 144.205 60.3616H143.893C139.536 60.5033 134.467 64.1526 127.447 69.2192C126.111 70.1758 124.729 71.1679 123.254 72.2071C120.182 74.4038 117.54 76.2403 115.037 77.9528L113.367 76.8367C108.355 73.5063 103.639 70.3411 100.373 67.7075C96.2359 64.3357 95.7649 62.7591 95.852 62.1272C96.0414 60.8399 98.8318 59.4935 102.349 58.9975C105.759 58.5192 107.879 57.4799 109.051 56.6945C111.125 55.3187 112.267 53.3641 112.267 51.191C112.267 48.7581 110.792 46.3843 108.232 44.6954C105.543 43.0127 102.526 42.1489 99.4667 42.1858C96.949 42.1139 94.457 42.7847 92.227 44.1345C90.5478 45.2029 89.2442 46.9132 88.5406 48.9707C87.9979 50.7422 86.2878 52.9094 83.2823 53.1043H82.7448C77.7886 53.1043 71.6651 49.012 61.5223 42.2389L60.8721 41.802C63.6062 40.2135 66.2225 38.7313 68.4907 37.4617C78.8382 31.6216 85.0897 28.0963 85.3867 24.199C85.418 23.7216 85.3637 23.2418 85.2272 22.7897C85.0907 22.3376 84.8748 21.9228 84.5931 21.5712C82.8216 19.2682 78.6283 18.8431 76.9131 18.7663C74.2968 18.6482 72.858 18.04 72.1208 17.5853C71.8111 17.4302 71.5452 17.1782 71.3534 16.8578C71.1616 16.5374 71.0514 16.1614 71.0353 15.7724C71.0353 14.2076 72.5713 12.1703 74.9879 10.5701C77.6823 8.79149 80.7212 7.82288 83.8251 7.75335C85.1243 7.68457 86.4174 7.99748 87.5831 8.66273C88.0054 8.91874 88.3665 9.29082 88.6344 9.74605C88.9023 10.2013 89.0688 10.7257 89.1192 11.2728C89.3956 14.06 91.3873 17.3196 96.0926 17.3196H96.4049C101.305 17.1542 104.32 14.7686 112.379 8.38519L113.101 7.79469C115.272 6.07631 118.129 3.82648 121.293 1.42903M121.257 0.0413308C118.185 2.40336 115.298 4.63548 112.553 6.82035C104.08 13.4813 101.11 15.9378 96.3742 16.0972H96.0926C92.0734 16.0972 90.3684 13.4222 90.1329 11.0956C90.0614 10.3648 89.8378 9.6648 89.4812 9.05512C89.1246 8.44543 88.6456 7.94414 88.0849 7.59392C86.7646 6.82771 85.2968 6.46191 83.8199 6.531C80.5383 6.59608 77.3234 7.61136 74.4708 9.48354C69.9294 12.501 68.634 16.5696 71.6036 18.5419C72.4382 19.0911 74.0254 19.782 76.867 19.9119C80.451 20.0713 84.547 21.2582 84.3627 24.0454C84.1271 27.2637 77.7067 30.8776 68.0503 36.3398C65.2241 37.9282 62.0446 39.7293 58.7422 41.6543L61.0155 43.1837C71.2145 49.9923 77.5326 54.2085 82.755 54.2085H83.3489C86.8459 53.9841 88.8631 51.4272 89.5185 49.2896C90.1359 47.4939 91.2789 46.0043 92.7492 45.0793C94.8252 43.8401 97.1404 43.2305 99.4769 43.3077C102.356 43.2717 105.195 44.0847 107.725 45.6698C112.087 48.5633 112.451 53.0452 108.55 55.6316C107.449 56.3757 105.478 57.3382 102.237 57.787C98.9956 58.2358 95.1863 59.5585 94.8535 61.9205C94.3415 65.5344 102.534 70.9612 112.866 77.8642L115.052 79.3287C118.216 77.1733 121.196 75.0829 123.802 73.2228C132.982 66.7272 139.07 61.7316 143.934 61.5721H144.221C148.25 61.5721 149.945 64.2353 150.175 66.5737C150.245 67.3051 150.468 68.0059 150.825 68.6159C151.181 69.2259 151.661 69.7268 152.223 70.0754C153.541 70.8447 155.007 71.2126 156.483 71.1442C159.76 71.0785 162.969 70.0631 165.817 68.1917C170.374 65.1683 171.669 61.1056 168.704 59.1274C167.865 58.5783 166.278 57.8874 163.436 57.7456C159.852 57.598 155.756 56.4111 155.94 53.6121C156.191 50.1576 160.231 48.392 171.085 42.109C173.287 40.8217 175.652 39.4577 178.089 38.0109C175.488 36.2748 173.103 34.6214 171.003 33.1392C163.759 28.0195 158.869 24.6418 154.583 24.6418H154.071C152.736 24.6724 151.438 25.155 150.338 26.0295C149.239 26.9041 148.386 28.132 147.887 29.5608C147.273 31.3536 146.136 32.8428 144.671 33.7711C142.588 35.0241 140.262 35.644 137.913 35.5721C135.034 35.6082 132.194 34.7951 129.664 33.2101C125.307 30.3048 124.928 25.8229 128.845 23.2187C129.931 22.4924 131.917 21.5299 135.168 21.0811C138.42 20.6323 142.219 19.28 142.536 16.9475C142.971 13.9478 136.392 9.73745 128.036 4.39927C125.835 3.00568 123.551 1.55894 121.222 0L121.257 0.0413308Z" fill="#37474F"/>
<path id="Vector_15" d="M114.233 79.937C104.018 87.4069 95.509 93.3769 91.0904 93.5541C87.5935 93.684 86.1189 91.2747 85.8936 89.1843C85.8076 88.3567 85.5482 87.5657 85.1379 86.8795C84.7275 86.1933 84.1786 85.6325 83.5384 85.2456C80.1695 82.9958 73.2984 83.8816 68.286 87.2416C63.2735 90.6015 61.9218 95.1425 65.2908 97.3924C66.2533 98.0183 68.0504 98.8214 71.2095 98.9513C74.3685 99.0812 77.9525 100.091 77.7887 102.406C77.4815 106.279 69.8885 111.145 56.7967 118.91C54.2367 117.192 51.8661 115.568 49.7925 114.104C42.0562 108.706 36.9618 105.158 32.0261 105.459C27.7919 105.718 25.4111 108.659 24.6431 111.098C24.1007 112.694 23.0895 114.019 21.7861 114.842C18.3762 117.127 12.4012 116.85 8.47413 114.216C4.54709 111.582 4.12725 107.614 7.53717 105.358C8.49973 104.715 10.2559 103.864 13.1692 103.463C16.83 102.949 21.2485 101.361 21.6377 98.5498C22.1497 95.2075 15.7189 91.1094 6.84085 85.4346C4.64437 84.041 2.35573 82.5943 0.03125 81.0353L3.47189 78.6733C15.2018 70.6719 19.5231 67.2175 24.7045 67.0521C28.1708 66.9281 29.6607 69.3374 29.886 71.4278C29.9725 72.2522 30.2304 73.0403 30.6378 73.725C31.0452 74.4098 31.59 74.9709 32.2258 75.3606C35.6101 77.6104 42.4658 76.7305 47.4936 73.3705C52.5215 70.0106 53.8629 65.4637 50.4786 63.2138C49.516 62.5702 47.7292 61.7848 44.5701 61.6431C41.4111 61.5014 37.8271 60.4975 38.0063 58.1886C38.2981 54.1377 45.6863 49.2247 57.5801 42.1268L60.14 43.8452C70.9228 51.0612 77.4559 55.4132 83.2927 55.0648C87.5116 54.8109 89.9077 51.8702 90.6757 49.4255C91.2112 47.8306 92.2175 46.5049 93.5173 45.6817C96.9324 43.4023 102.923 43.6917 106.829 46.3076C110.736 48.9236 111.186 52.9154 107.777 55.1947C106.814 55.8384 105.058 56.6887 102.145 57.0726C98.494 57.5863 94.0908 59.1984 93.676 61.9915C93.164 65.7058 100.097 70.5538 109.999 77.1616L114.233 79.937Z" fill="#FAFAFA"/>
<path id="Vector_16" d="M57.5232 43.4613L59.6122 44.8549C70.2208 51.941 76.6208 56.234 82.5856 56.234C82.8365 56.234 83.0976 56.234 83.3331 56.234C88.0589 55.9447 90.752 52.5965 91.6275 49.8152C92.0812 48.482 92.9278 47.3759 94.0186 46.6914C95.6502 45.7172 97.4711 45.2415 99.3075 45.3096C101.758 45.2807 104.174 45.9738 106.327 47.3233C108.068 48.5043 109.066 49.9333 109.071 51.3092C109.076 52.6851 108.093 53.5767 107.254 54.1672C106.414 54.7577 104.745 55.5372 102.001 55.8974C99.9526 56.1809 93.2966 57.4504 92.6413 61.8025C92.0013 66.2903 98.6163 70.9494 109.471 78.1831L112.236 80.0196C102.938 86.7927 95.0067 92.249 91.0438 92.4202H90.8083C88.1869 92.4202 87.0656 90.696 86.8966 89.0898C86.7931 88.0795 86.4792 87.1131 85.9818 86.273C85.4843 85.4329 84.818 84.7441 84.0397 84.2654C82.3571 83.2548 80.478 82.7588 78.5818 82.8245C74.7896 82.8912 71.0728 84.0568 67.7734 86.214C64.3635 88.4816 62.4077 91.3514 62.4077 94.0914C62.4077 95.8629 63.2474 97.3982 64.7885 98.4198C66.3296 99.4414 68.5107 100.026 71.168 100.132C73.728 100.25 75.9194 100.924 76.5952 101.803C76.6536 101.867 76.6995 101.944 76.7295 102.029C76.7596 102.115 76.7732 102.207 76.7693 102.299C76.5082 105.6 67.9987 110.933 56.8013 117.564C54.6202 116.105 52.439 114.611 50.2938 113.094C42.6752 107.779 37.6422 104.236 32.5939 104.236C32.3789 104.236 32.1638 104.236 31.9488 104.236C27.223 104.52 24.5299 107.868 23.6595 110.643C23.1969 111.979 22.3438 113.086 21.248 113.773C19.6153 114.75 17.7925 115.228 15.9539 115.161C13.5142 115.208 11.104 114.54 8.94976 113.218C7.21408 112.037 6.21568 110.614 6.21568 109.238C6.21568 107.862 7.19872 106.941 8.02304 106.392C8.84736 105.842 10.5216 105.028 13.2454 104.65C15.2934 104.36 22.0006 103.091 22.5997 98.7446C23.209 94.5756 17.2186 90.7491 7.29088 84.4012L6.9376 84.1768C5.33504 83.1611 3.6864 82.1159 2.01728 81.0176L2.76992 80.4979L3.94752 79.6889L7.99744 76.9135C16.5222 71.0439 20.4134 68.3689 24.6886 68.2331H24.919C27.5354 68.2331 28.6515 69.9574 28.8205 71.5577C28.9208 72.5676 29.2323 73.5342 29.7282 74.3746C30.2241 75.215 30.8895 75.9039 31.6672 76.3821C33.3646 77.389 35.2588 77.8731 37.1661 77.7875C40.9593 77.7233 44.677 76.5554 47.9744 74.3921C51.3843 72.1245 53.3402 69.2606 53.3402 66.5206C53.3402 64.7491 52.4902 63.2138 50.9594 62.1922C49.4285 61.1706 47.2781 60.586 44.5747 60.462C42.0147 60.3557 39.8438 59.6885 39.1629 58.7968C39.1016 58.7328 39.0548 58.6526 39.0262 58.5631C38.9977 58.4737 38.9884 58.3776 38.999 58.2831C39.255 54.74 47.8464 49.2542 57.5232 43.4732M57.5232 42.1268C45.6243 49.2129 38.2413 54.1377 37.9494 58.1886C37.7702 60.4975 41.3645 61.5131 44.5133 61.643C47.6621 61.773 49.4592 62.5701 50.4166 63.2138C53.8061 65.4636 52.4646 70.0282 47.4368 73.3705C44.3025 75.4251 40.7707 76.5378 37.1661 76.6065C35.4439 76.6866 33.7326 76.2577 32.1946 75.3605C31.5587 74.9708 31.014 74.4097 30.6066 73.725C30.1992 73.0403 29.9412 72.2522 29.8547 71.4277C29.6346 69.3905 28.2163 67.0521 24.9344 67.0521H24.6733C19.4918 67.2174 15.1706 70.6719 3.44064 78.6733L0 81.0353C2.32448 82.5942 4.608 84.041 6.8096 85.4346C15.6877 91.1093 22.0928 95.2074 21.6064 98.5497C21.2173 101.361 16.7987 102.949 13.1379 103.463C10.24 103.864 8.48384 104.715 7.50592 105.358C4.096 107.626 4.50048 111.612 8.44288 114.216C10.7476 115.67 13.3372 116.418 15.9642 116.389C17.9825 116.456 19.9819 115.923 21.7702 114.842C23.0736 114.019 24.0848 112.694 24.6272 111.098C25.3952 108.659 27.776 105.718 32.0102 105.459C32.2099 105.459 32.4045 105.459 32.6042 105.459C37.3555 105.459 42.3322 108.937 49.7766 114.121C51.8246 115.586 54.2054 117.21 56.7808 118.928C69.8778 111.163 77.4707 106.297 77.7728 102.423C77.9366 100.109 74.3424 99.1166 71.1936 98.969C68.0448 98.8213 66.2374 98.036 65.2749 97.41C61.9059 95.1602 63.2269 90.6015 68.2701 87.2592C71.4091 85.1973 74.9492 84.0841 78.5613 84.0232C80.2796 83.9433 81.9871 84.3701 83.5226 85.2633C84.1627 85.6502 84.7117 86.2109 85.122 86.8971C85.5323 87.5833 85.7917 88.3744 85.8778 89.202C86.0979 91.2392 87.5008 93.5776 90.8083 93.5776H91.0746C95.4931 93.4005 104.003 87.4305 114.217 79.9606L109.978 77.1498C100.076 70.542 93.1226 65.6939 93.6551 61.9796C94.0698 59.1865 98.473 57.5745 102.124 57.0607C105.047 56.6769 106.803 55.8266 107.756 55.1829C111.165 52.9035 110.751 48.9176 106.808 46.2958C104.507 44.8543 101.926 44.1087 99.3075 44.1286C97.2915 44.0622 95.2943 44.5928 93.5066 45.6698C92.2067 46.493 91.2005 47.8188 90.665 49.4137C89.897 51.8584 87.5008 54.7991 83.2819 55.053C83.0515 55.053 82.8211 55.053 82.5856 55.053C76.9229 55.053 70.487 50.76 60.1293 43.8334L57.5693 42.115L57.5232 42.1268Z" fill="#407BFF"/>
<path id="Vector_17" d="M6.81472 100.097C4.61312 98.7031 2.32448 97.2563 0 95.6974V81.0233C2.32448 82.5823 4.608 84.0231 6.81472 85.4226C15.6877 91.0973 22.0928 95.1896 21.6064 98.5318C21.2173 101.349 16.7987 102.937 13.1379 103.451C12.8205 103.492 12.5184 103.545 12.2317 103.598C10.5728 102.5 8.75008 101.337 6.81472 100.097Z" fill="#407BFF"/>
<path id="Vector_18" opacity="0.2" d="M6.81472 100.097C4.61312 98.7031 2.32448 97.2563 0 95.6974V81.0233C2.32448 82.5823 4.608 84.0231 6.81472 85.4226C15.6877 91.0973 22.0928 95.1896 21.6064 98.5318C21.2173 101.349 16.7987 102.937 13.1379 103.451C12.8205 103.492 12.5184 103.545 12.2317 103.598C10.5728 102.5 8.75008 101.337 6.81472 100.097Z" fill="black"/>
<path id="Vector_19" d="M41.7232 75.9393C39.5882 75.4551 37.8474 74.4749 37.9754 72.851V58.3363C37.9754 60.533 41.4723 61.5073 44.5443 61.6254C47.7085 61.7731 49.4903 62.5584 50.4528 63.2021C53.8372 65.4519 52.5008 70.0165 47.4679 73.3588C45.681 74.5334 43.7565 75.4045 41.7539 75.9452L41.7232 75.9393Z" fill="#407BFF"/>
<path id="Vector_20" opacity="0.1" d="M41.7232 75.9393C39.5882 75.4551 37.8474 74.4749 37.9754 72.851V58.3363C37.9754 60.533 41.4723 61.5073 44.5443 61.6254C47.7085 61.7731 49.4903 62.5584 50.4528 63.2021C53.8372 65.4519 52.5008 70.0165 47.4679 73.3588C45.681 74.5334 43.7565 75.4045 41.7539 75.9452L41.7232 75.9393Z" fill="black"/>
<path id="Vector_21" d="M8.4336 114.216C6.27808 112.787 5.1824 110.95 5.18752 109.208V123.847C5.18752 125.618 6.26271 127.437 8.42847 128.872C12.3709 131.512 18.3459 131.783 21.7405 129.504V114.842C18.3715 117.127 12.3965 116.849 8.4336 114.216Z" fill="#407BFF"/>
<path id="Vector_22" opacity="0.1" d="M8.4336 114.216C6.27808 112.787 5.1824 110.95 5.18752 109.208V123.847C5.18752 125.618 6.26271 127.437 8.42847 128.872C12.3709 131.512 18.3459 131.783 21.7405 129.504V114.842C18.3715 117.127 12.3965 116.849 8.4336 114.216Z" fill="black"/>
<path id="Vector_23" d="M21.7891 114.842V129.522C23.0883 128.694 24.0968 127.37 24.6409 125.778V111.098C24.0987 112.692 23.0897 114.016 21.7891 114.842Z" fill="#407BFF"/>
<path id="Vector_24" d="M21.7891 114.842V129.522C23.0883 128.694 24.0968 127.37 24.6409 125.778V111.098C24.0987 112.692 23.0897 114.016 21.7891 114.842Z" fill="#407BFF"/>
<path id="Vector_25" d="M49.7901 114.104C42.0589 108.706 36.9593 105.152 32.0237 105.459C27.7894 105.718 25.4086 108.659 24.6406 111.098V125.778C25.4086 123.333 27.7894 120.393 32.0237 120.133C36.9593 119.832 42.0589 123.381 49.7901 128.778C51.8381 130.242 54.2189 131.866 56.7942 133.584V118.91C54.2189 117.186 51.8637 115.58 49.7901 114.104Z" fill="#407BFF"/>
<path id="Vector_26" opacity="0.2" d="M49.7901 114.104C42.0589 108.706 36.9593 105.152 32.0237 105.459C27.7894 105.718 25.4086 108.659 24.6406 111.098V125.778C25.4086 123.333 27.7894 120.393 32.0237 120.133C36.9593 119.832 42.0589 123.381 49.7901 128.778C51.8381 130.242 54.2189 131.866 56.7942 133.584V118.91C54.2189 117.186 51.8637 115.58 49.7901 114.104Z" fill="black"/>
<path id="Vector_27" d="M56.7969 118.91V133.584C69.8938 125.825 77.4868 120.953 77.7889 117.08V102.406C77.4868 106.279 69.8785 111.145 56.7969 118.91Z" fill="#407BFF"/>
<path id="Vector_28" d="M93.6768 61.9561C94.0967 59.1571 98.4999 57.5509 102.145 57.0372C105.074 56.6533 106.83 55.803 107.777 55.1594C109.313 54.1201 110.086 52.7383 110.086 51.2856V65.9125C110.086 67.377 109.354 68.7883 107.788 69.8335C106.83 70.4771 105.074 71.3274 102.156 71.7113C96.6464 67.749 93.3031 64.572 93.6768 61.9561Z" fill="#407BFF"/>
<path id="Vector_29" opacity="0.2" d="M93.6768 61.9561C94.0967 59.1571 98.4999 57.5509 102.145 57.0372C105.074 56.6533 106.83 55.803 107.777 55.1594C109.313 54.1201 110.086 52.7383 110.086 51.2856V65.9125C110.086 67.377 109.354 68.7883 107.788 69.8335C106.83 70.4771 105.074 71.3274 102.156 71.7113C96.6464 67.749 93.3031 64.572 93.6768 61.9561Z" fill="black"/>
<path id="Vector_30" d="M83.5462 85.2456C80.1721 82.9957 73.3062 83.8815 68.2886 87.2415C63.271 90.6015 61.9244 95.1425 65.2934 97.3923C66.2559 98.0182 68.0531 98.8213 71.2121 98.9512C72.1627 98.9915 73.1093 99.1158 74.0435 99.3232C77.7094 98.3312 81.3599 98.467 83.5462 99.9138C84.185 100.3 84.7327 100.86 85.1421 101.546C85.5515 102.231 85.8103 103.02 85.8962 103.847V89.1842C85.8111 88.357 85.5527 87.5662 85.1432 86.88C84.7338 86.1937 84.1857 85.6328 83.5462 85.2456Z" fill="#407BFF"/>
<path id="Vector_31" opacity="0.2" d="M83.5462 85.2456C80.1721 82.9957 73.3062 83.8815 68.2886 87.2415C63.271 90.6015 61.9244 95.1425 65.2934 97.3923C66.2559 98.0182 68.0531 98.8213 71.2121 98.9512C72.1627 98.9915 73.1093 99.1158 74.0435 99.3232C77.7094 98.3312 81.3599 98.467 83.5462 99.9138C84.185 100.3 84.7327 100.86 85.1421 101.546C85.5515 102.231 85.8103 103.02 85.8962 103.847V89.1842C85.8111 88.357 85.5527 87.5662 85.1432 86.88C84.7338 86.1937 84.1857 85.6328 83.5462 85.2456Z" fill="black"/>
<path id="Vector_32" d="M91.0938 93.5538V108.228C95.5123 108.051 104.022 102.081 114.236 94.6108V79.9308C104.022 87.4066 95.5123 93.3766 91.0938 93.5538Z" fill="#407BFF"/>
<path id="Vector_33" d="M85.8984 89.1842V103.858C86.1237 105.949 87.5983 108.358 91.0952 108.228V93.554C87.5983 93.6839 86.1237 91.2746 85.8984 89.1842Z" fill="#407BFF"/>
<path id="Vector_34" opacity="0.1" d="M85.8984 89.1842V103.858C86.1237 105.949 87.5983 108.358 91.0952 108.228V93.554C87.5983 93.6839 86.1237 91.2746 85.8984 89.1842Z" fill="black"/>
<path id="Vector_35" d="M115.052 79.3051V93.9851L114.243 93.4419V79.9311L110.009 77.1203C102.8 72.3135 97.1577 68.4339 94.8281 65.2511V62.2395C94.8281 65.8475 102.805 71.168 112.856 77.8466L115.052 79.3051Z" fill="#263238"/>
<path id="Vector_36" d="M171.09 42.05C173.292 40.7627 175.657 39.3986 178.094 37.9519C175.494 36.2158 173.108 34.5624 171.003 33.0802C163.482 27.8306 158.495 24.3584 154.107 24.63C152.772 24.6606 151.474 25.1432 150.374 26.0177C149.274 26.8922 148.422 28.1202 147.922 29.5489C147.309 31.3418 146.172 32.831 144.707 33.7593C140.79 36.3634 134.062 36.1213 129.7 33.2101C125.338 30.2989 124.964 25.8228 128.881 23.2187C129.966 22.4924 131.953 21.5299 135.204 21.0811C138.455 20.6323 142.255 19.28 142.572 16.9475C143.007 13.9478 136.428 9.73745 128.072 4.39927C125.871 3.00568 123.587 1.55894 121.257 0C118.185 2.36203 115.298 4.59414 112.553 6.77901C104.08 13.4813 101.11 15.9378 96.3742 16.0972C92.1553 16.2271 90.3735 13.4813 90.1329 11.1015C90.0614 10.3707 89.8378 9.67071 89.4812 9.06103C89.1246 8.45134 88.6456 7.95004 88.0849 7.59982C85.1153 5.62162 79.0276 6.47786 74.4708 9.51306C69.914 12.5483 68.634 16.5991 71.6036 18.5714C72.4382 19.1206 74.0254 19.8115 76.867 19.9414C80.451 20.1008 84.547 21.2878 84.3627 24.075C84.1271 27.2932 77.7067 30.9071 68.0503 36.3693C65.2241 37.9578 62.0446 39.7588 58.7422 41.6838L61.0155 43.2133C71.6036 50.2994 78.0087 54.5569 83.3489 54.2203C86.8459 53.9959 88.8631 51.439 89.5185 49.3014C90.1359 47.5057 91.2789 46.0161 92.7492 45.0911C96.6507 42.5047 103.378 42.729 107.725 45.6521C112.072 48.5751 112.451 53.0275 108.55 55.6139C107.449 56.358 105.478 57.3205 102.237 57.7693C98.9956 58.218 95.1863 59.5408 94.8535 61.9028C94.3415 65.5167 102.534 70.9435 112.866 77.8465L115.052 79.3109C118.216 77.1556 121.196 75.0652 123.802 73.2051C132.982 66.7095 139.07 61.7138 143.934 61.5544C148.168 61.4245 149.94 64.1585 150.175 66.5501C150.245 67.2815 150.468 67.9823 150.825 68.5923C151.181 69.2023 151.661 69.7031 152.223 70.0518C155.188 72.03 161.275 71.1797 165.817 68.1445C170.358 65.1093 171.669 61.0584 168.704 59.0802C167.865 58.531 166.278 57.8401 163.436 57.6984C159.852 57.5508 155.756 56.3639 155.94 53.5649C156.196 50.0986 160.236 48.333 171.09 42.05Z" fill="#FAFAFA"/>
<path id="Vector_37" d="M121.278 1.4054C123.326 2.75175 125.292 4.01544 127.222 5.23779L127.581 5.46219C131.794 8.1608 135.43 10.4815 138.025 12.5483C141.369 15.2115 141.609 16.3925 141.548 16.7881C141.374 18.0518 138.522 19.4277 135.066 19.9119C131.61 20.3961 129.526 21.4236 128.354 22.203C126.275 23.5789 125.133 25.5394 125.133 27.7125C125.133 30.1454 126.603 32.5251 129.173 34.2376C131.861 35.9181 134.876 36.7818 137.933 36.7472C140.462 36.8186 142.965 36.1438 145.204 34.7867C146.879 33.723 148.177 32.013 148.87 29.9564C149.433 28.1849 151.158 26.0118 154.148 25.8229C154.292 25.8229 154.435 25.8229 154.583 25.8229C158.598 25.8229 163.579 29.3009 170.455 34.0899C171.94 35.1351 173.824 36.452 175.944 37.8869L172.616 39.8297L170.614 41.0107C169.078 41.8905 167.716 42.6759 166.457 43.3727C158.265 48.0613 155.193 49.8151 154.911 53.4527C154.878 53.9311 154.931 54.4123 155.068 54.8658C155.204 55.3192 155.421 55.7348 155.705 56.0863C157.487 58.3952 161.675 58.8027 163.385 58.8735C166.006 59.0034 167.445 59.6117 168.187 60.0959C168.496 60.2518 168.761 60.5042 168.952 60.8246C169.143 61.1449 169.252 61.5204 169.268 61.9087C169.268 63.4736 167.732 65.5167 165.3 67.117C162.611 68.8965 159.577 69.8653 156.478 69.9337C155.178 70.003 153.884 69.6879 152.72 69.0184C152.296 68.7655 151.934 68.395 151.666 67.9404C151.398 67.4857 151.232 66.9613 151.184 66.4143C150.907 63.6212 148.916 60.3616 144.21 60.3616H143.893C139.536 60.5033 134.467 64.1526 127.447 69.2192C126.111 70.1758 124.729 71.1679 123.254 72.2071C120.182 74.4097 117.54 76.2462 115.037 77.9528L113.367 76.8367C108.355 73.5063 103.639 70.3411 100.373 67.7075C96.2359 64.3357 95.7649 62.7591 95.852 62.1272C96.0414 60.8399 98.8318 59.4935 102.349 58.9975C105.759 58.5192 107.879 57.4799 109.051 56.6945C111.125 55.3187 112.267 53.3641 112.267 51.191C112.267 48.7581 110.792 46.3843 108.232 44.6954C105.543 43.0127 102.526 42.1489 99.4667 42.1858C96.949 42.1139 94.457 42.7847 92.227 44.1345C90.5478 45.2029 89.2442 46.9132 88.5406 48.9707C87.9979 50.7422 86.2878 52.9094 83.2823 53.1043C83.1031 53.1043 82.9239 53.1043 82.7396 53.1043C77.7886 53.1043 71.6651 49.012 61.5223 42.2389L60.8721 41.8079C63.6062 40.2135 66.2225 38.7313 68.4907 37.4617C78.8382 31.6216 85.0897 28.0963 85.3867 24.199C85.418 23.7216 85.3637 23.2418 85.2272 22.7897C85.0907 22.3376 84.8748 21.9228 84.5931 21.5712C82.8216 19.2741 78.6283 18.8431 76.9131 18.7663C74.2968 18.6482 72.858 18.04 72.1208 17.5853C71.8111 17.4302 71.5452 17.1782 71.3534 16.8578C71.1616 16.5374 71.0514 16.1614 71.0353 15.7724C71.0353 14.2076 72.5713 12.1703 74.9879 10.5701C77.6823 8.79149 80.7212 7.82288 83.8251 7.75335C85.1243 7.68457 86.4174 7.99748 87.5831 8.66273C88.0054 8.91874 88.3665 9.29082 88.6344 9.74605C88.9023 10.2013 89.0688 10.7257 89.1192 11.2728C89.3956 14.06 91.3873 17.3196 96.0926 17.3196H96.4049C101.305 17.1542 104.32 14.7686 112.379 8.38519L113.101 7.79469C115.272 6.07631 118.129 3.82648 121.293 1.42903M121.257 0.0413308C118.185 2.40336 115.298 4.63548 112.553 6.82035C104.08 13.4813 101.11 15.9378 96.3742 16.0972H96.0926C92.0734 16.0972 90.3684 13.4222 90.1329 11.0956C90.0614 10.3648 89.8378 9.6648 89.4812 9.05512C89.1246 8.44543 88.6456 7.94414 88.0849 7.59392C86.7646 6.82771 85.2968 6.46191 83.8199 6.531C80.5383 6.59608 77.3234 7.61136 74.4708 9.48354C69.9294 12.501 68.634 16.5696 71.6036 18.5419C72.4382 19.0911 74.0254 19.782 76.867 19.9119C80.451 20.0713 84.547 21.2582 84.3627 24.0454C84.1271 27.2637 77.7067 30.8776 68.0503 36.3398C65.2241 37.9282 62.0446 39.7293 58.7422 41.6543L61.0155 43.1837C71.2145 49.9923 77.5326 54.2085 82.7499 54.2085C82.9547 54.2085 83.1492 54.2085 83.3489 54.2085C86.8459 53.9841 88.8631 51.4272 89.5185 49.2896C90.1359 47.4939 91.2789 46.0043 92.7492 45.0793C94.8252 43.8401 97.1404 43.2305 99.4769 43.3077C102.356 43.2717 105.195 44.0847 107.725 45.6698C112.087 48.5633 112.451 53.0452 108.55 55.6316C107.449 56.3757 105.478 57.3382 102.237 57.787C98.9956 58.2358 95.1863 59.5585 94.8535 61.9205C94.3415 65.5344 102.534 70.9612 112.866 77.8642L115.052 79.3287C118.216 77.1733 121.196 75.0829 123.802 73.2228C132.982 66.7272 139.07 61.7316 143.934 61.5721H144.221C148.25 61.5721 149.945 64.2353 150.175 66.5737C150.245 67.3051 150.468 68.0059 150.825 68.6159C151.181 69.2259 151.661 69.7268 152.223 70.0754C153.541 70.8447 155.007 71.2126 156.483 71.1442C159.76 71.0785 162.969 70.0631 165.817 68.1917C170.374 65.1683 171.669 61.1056 168.704 59.1274C167.865 58.5783 166.278 57.8874 163.436 57.7456C159.852 57.598 155.756 56.4111 155.94 53.6121C156.191 50.1576 160.231 48.392 171.085 42.109C173.287 40.8217 175.652 39.4577 178.089 38.0109C175.488 36.2748 173.103 34.6214 170.998 33.1392C163.759 28.0255 158.864 24.6418 154.583 24.6418H154.071C152.736 24.6724 151.438 25.155 150.338 26.0295C149.239 26.9041 148.386 28.132 147.887 29.5608C147.273 31.3536 146.136 32.8428 144.671 33.7711C142.588 35.0241 140.262 35.644 137.913 35.5721C135.034 35.6082 132.194 34.7951 129.664 33.2101C125.307 30.3048 124.928 25.8229 128.845 23.2187C129.931 22.4924 131.917 21.5299 135.168 21.0811C138.42 20.6323 142.219 19.28 142.536 16.9475C142.971 13.9478 136.392 9.73745 128.036 4.39927C125.835 3.00568 123.551 1.55894 121.222 0L121.257 0.0413308Z" fill="#455A64"/>
</g>
</g>
</svg>
