<svg width="220" height="146" viewBox="0 0 220 146" fill="none" xmlns="http://www.w3.org/2000/svg">
<path d="M175.694 26.5239L176.008 27.6451L175.011 34.785L173.151 35.309L174.136 28.4868L171.677 29.1728L172.013 30.3924L170.501 30.8244L169.777 28.1914L175.694 26.5239Z" fill="#E0E0E0"/>
<path d="M183.27 29.9191C183.634 31.2467 182.991 32.6728 180.881 33.2667C179.889 33.5676 178.831 33.5676 177.839 33.2667L178.153 31.7485C178.888 32.02 179.689 32.0489 180.442 31.8311C181.295 31.5897 181.724 31.0784 181.558 30.4686C181.392 29.8588 180.909 29.6015 179.567 29.9795L177.686 30.513L176.908 26.1904L181.417 24.9199L181.79 26.3142L178.705 27.1813L178.981 28.6391L179.583 28.4676C181.768 27.8419 182.907 28.5947 183.27 29.9191Z" fill="#E0E0E0"/>
<path d="M183.133 26.5587C182.8 25.3391 183.252 24.3354 184.246 24.0559C185.24 23.7764 186.127 24.3735 186.472 25.6186C186.817 26.8636 186.344 27.8418 185.359 28.1213C184.375 28.4008 183.468 27.7783 183.133 26.5587ZM185.955 25.7678C185.688 24.796 185.077 24.3449 184.387 24.5387C183.697 24.7324 183.406 25.4471 183.672 26.4126C183.939 27.3781 184.541 27.8387 185.24 27.6417C185.939 27.4448 186.209 26.7429 185.942 25.7678H185.955ZM188.749 22.849L189.376 22.6743L186.385 31.5833L185.757 31.758L188.749 22.849ZM188.645 28.8137C188.313 27.5941 188.774 26.5905 189.755 26.311C190.737 26.0315 191.637 26.654 191.985 27.8736C192.333 29.0932 191.866 30.0969 190.872 30.3764C189.878 30.6559 188.968 30.0334 188.633 28.8137H188.645ZM191.468 28.0229C191.204 27.07 190.599 26.5968 189.9 26.7937C189.2 26.9906 188.915 27.6926 189.185 28.6644C189.454 29.6363 190.063 30.0873 190.753 29.8936C191.443 29.6999 191.706 28.9852 191.443 28.0229H191.468Z" fill="#E0E0E0"/>
<path d="M191.802 130.782L213.88 130.958L214.099 102.729L192.02 102.554L191.802 130.782Z" fill="#EBEBEB"/>
<path d="M205.459 103.566L205.067 130.897L201.58 130.871L202.327 103.541L205.459 103.566Z" fill="#FAFAFA"/>
<path d="M179.341 103.36L192.007 103.462L214.086 103.637L191.985 106.581L191.797 130.792L179.135 130.694L179.341 103.36Z" fill="#E0E0E0"/>
<path d="M186.237 103.414L185.732 130.745L181.975 130.716L182.59 103.386L186.237 103.414Z" fill="#FAFAFA"/>
<path d="M196.262 95.0957C196.262 95.1529 195.888 95.2228 195.208 95.2895C194.246 95.3843 193.28 95.4278 192.314 95.4197C190.854 95.426 189.401 95.2326 187.993 94.8448C187.774 94.7734 187.563 94.6775 187.365 94.559C187.133 94.4236 186.935 94.2342 186.788 94.0063C186.637 93.7616 186.557 93.4788 186.556 93.1901C186.557 92.9373 186.589 92.6855 186.65 92.4405C186.848 91.5231 187.122 90.6242 187.469 89.7535C187.661 89.2988 187.9 88.8665 188.184 88.464C188.466 88.0504 188.823 87.6939 189.234 87.4127C189.455 87.2619 189.702 87.1542 189.962 87.0951C190.226 87.0366 190.5 87.0366 190.765 87.0951C191.215 87.2258 191.632 87.4557 191.984 87.7685C193.126 88.7042 194.097 89.8337 194.857 91.1066C195.367 91.9548 195.759 92.8709 196.02 93.8285C196.193 94.5082 196.211 94.8957 196.164 94.9084C196.026 94.9496 195.716 93.4219 194.371 91.4146C193.581 90.2567 192.617 89.2311 191.514 88.3751C191.239 88.1417 190.918 87.9697 190.573 87.8701C190.414 87.8382 190.249 87.8398 190.09 87.8747C189.931 87.9097 189.781 87.9773 189.648 88.0734C189.326 88.3048 189.048 88.5931 188.827 88.9246C188.58 89.2808 188.37 89.6618 188.2 90.0616C187.874 90.8871 187.611 91.7365 187.412 92.6025C187.297 92.911 187.305 93.2526 187.434 93.5553C187.634 93.818 187.912 94.0076 188.228 94.0953C188.585 94.2128 188.948 94.3103 189.316 94.3875C189.676 94.47 190.034 94.5336 190.382 94.5876C191.075 94.6987 191.727 94.7623 192.329 94.8035C193.53 94.8861 194.524 94.902 195.192 94.9369C195.86 94.9719 196.258 95.0386 196.262 95.0957Z" fill="#E0E0E0"/>
<path d="M195.804 95.3024C195.804 95.2452 196.206 95.1245 196.949 94.953C197.692 94.7815 198.777 94.556 200.085 94.2352C201.623 93.8758 203.131 93.3937 204.594 92.7933C204.995 92.6396 205.376 92.4346 205.726 92.1834C205.875 92.0764 205.999 91.9376 206.09 91.7769C206.162 91.634 206.184 91.4705 206.152 91.3132C206.106 91.1036 206.033 90.9009 205.936 90.7097C205.833 90.4842 205.726 90.2555 205.622 90.0269C205.412 89.5724 205.171 89.1331 204.901 88.712C204.636 88.3031 204.32 87.9305 203.961 87.6035C203.635 87.29 203.254 87.0411 202.838 86.8698C202.467 86.7223 202.057 86.7044 201.675 86.819C201.288 86.9571 200.933 87.1732 200.63 87.4542C199.453 88.4981 198.436 89.7129 197.611 91.0591C197.054 91.9711 196.604 92.9452 196.269 93.9621C196.033 94.6894 195.939 95.1055 195.877 95.0959C195.814 95.0864 195.817 94.6544 195.961 93.8827C196.187 92.7907 196.574 91.7393 197.109 90.7637C197.903 89.3122 198.925 88.0013 200.135 86.8825C200.507 86.5184 200.95 86.2381 201.436 86.0599C201.982 85.8842 202.571 85.8988 203.108 86.1012C203.37 86.1969 203.621 86.3238 203.854 86.4792C204.082 86.6319 204.299 86.8007 204.503 86.9842C204.911 87.3582 205.269 87.7854 205.566 88.2546C205.855 88.7076 206.114 89.1798 206.341 89.668L206.654 90.3699C206.78 90.6271 206.871 90.9007 206.924 91.183C206.983 91.5152 206.929 91.8579 206.77 92.1549C206.624 92.4152 206.422 92.6397 206.181 92.8123C205.773 93.0986 205.33 93.3293 204.864 93.4983C203.349 94.0818 201.784 94.5199 200.188 94.8069C198.837 95.061 197.736 95.1912 196.977 95.2706C196.218 95.35 195.814 95.3564 195.804 95.3024Z" fill="#FAFAFA"/>
<path d="M175.323 103.319L207.777 103.578L207.849 94.2338L175.395 93.9756L175.323 103.319Z" fill="#E0E0E0"/>
<path d="M187.262 103.411L216.595 103.645L216.668 94.3007L187.334 94.0674L187.262 103.411Z" fill="#EBEBEB"/>
<path d="M207.66 94.2415L207.457 103.627L204.035 103.554L204.274 94.2129L207.66 94.2415Z" fill="#FAFAFA"/>
<path d="M183.355 94.0953L183.023 103.398L179.263 103.366L179.464 94.019L183.355 94.0953Z" fill="#FAFAFA"/>
<path d="M208.643 131.113L218.727 131.193L218.827 118.299L208.743 118.219L208.643 131.113Z" fill="#EBEBEB"/>
<path d="M214.879 118.688L214.7 131.17L213.104 131.161L213.446 118.675L214.879 118.688Z" fill="#FAFAFA"/>
<path d="M202.947 118.593L208.733 118.637L218.817 118.72L208.723 120.063L208.636 131.122L202.853 131.078L202.947 118.593Z" fill="#E0E0E0"/>
<path d="M206.096 118.618L205.867 131.103L204.148 131.088L204.43 118.605L206.096 118.618Z" fill="#FAFAFA"/>
<path d="M210.677 114.82C210.677 114.924 210.003 115.083 208.868 115.137C208.182 115.163 207.496 115.087 206.833 114.912C206.564 114.84 206.329 114.676 206.168 114.448C206.076 114.303 206.028 114.134 206.027 113.962C206.027 113.828 206.041 113.695 206.071 113.565C206.161 113.131 206.289 112.706 206.453 112.295C206.547 112.07 206.665 111.857 206.804 111.659C206.949 111.444 207.133 111.26 207.347 111.116C207.473 111.032 207.614 110.975 207.762 110.949C207.91 110.922 208.062 110.926 208.209 110.961C208.442 111.031 208.656 111.152 208.836 111.316C209.368 111.76 209.815 112.298 210.156 112.904C210.724 113.956 210.718 114.715 210.621 114.727C210.523 114.74 210.307 114.092 209.68 113.222C209.313 112.724 208.875 112.283 208.382 111.913C208.28 111.826 208.162 111.762 208.034 111.726C207.988 111.719 207.942 111.722 207.898 111.734C207.854 111.746 207.812 111.767 207.776 111.796C207.654 111.888 207.548 112.001 207.463 112.129C207.36 112.28 207.273 112.44 207.203 112.609C207.057 112.973 206.94 113.348 206.851 113.73C206.804 113.908 206.814 113.987 206.829 114.006C206.893 114.085 206.98 114.142 207.077 114.168C207.384 114.271 207.699 114.351 208.018 114.407C208.331 114.464 208.62 114.502 208.89 114.531C209.975 114.645 210.674 114.696 210.677 114.82Z" fill="#E0E0E0"/>
<path d="M210.467 114.927C210.448 114.807 211.204 114.61 212.392 114.292C213.079 114.107 213.753 113.875 214.409 113.597C214.574 113.53 214.731 113.444 214.876 113.339C214.918 113.308 214.953 113.268 214.979 113.222C214.979 113.196 214.979 113.196 214.979 113.149C214.918 112.967 214.843 112.791 214.754 112.622C214.66 112.424 214.556 112.232 214.44 112.047C214.33 111.877 214.201 111.721 214.054 111.583C213.926 111.46 213.778 111.361 213.615 111.291C213.49 111.237 213.351 111.228 213.22 111.265C213.07 111.317 212.933 111.399 212.816 111.507C212.286 111.964 211.822 112.493 211.436 113.079C210.774 114.089 210.636 114.864 210.495 114.845C210.445 114.845 210.411 114.632 210.451 114.267C210.524 113.75 210.684 113.249 210.925 112.787C211.277 112.093 211.745 111.467 212.308 110.935C212.497 110.747 212.723 110.603 212.973 110.513C213.266 110.414 213.583 110.42 213.872 110.529C214.01 110.576 214.141 110.641 214.261 110.722C214.372 110.797 214.476 110.88 214.575 110.97C214.776 111.158 214.952 111.371 215.099 111.605C215.236 111.82 215.358 112.044 215.465 112.275C215.516 112.387 215.563 112.495 215.613 112.593C215.677 112.729 215.724 112.873 215.751 113.022C215.783 113.221 215.75 113.425 215.657 113.603C215.574 113.749 215.46 113.874 215.324 113.971C215.123 114.108 214.903 114.215 214.672 114.289C213.966 114.551 213.236 114.74 212.493 114.851C211.267 115.026 210.486 115.016 210.467 114.927Z" fill="#FAFAFA"/>
<path d="M201.118 118.567L215.94 118.685L215.973 114.417L201.151 114.299L201.118 118.567Z" fill="#E0E0E0"/>
<path d="M206.568 118.612L219.967 118.718L220 114.45L206.602 114.343L206.568 118.612Z" fill="#EBEBEB"/>
<path d="M215.882 114.429L215.788 118.713L214.227 118.682L214.337 114.416L215.882 114.429Z" fill="#FAFAFA"/>
<path d="M204.779 114.359L204.628 118.609L202.91 118.596L203.004 114.324L204.779 114.359Z" fill="#FAFAFA"/>
<path d="M16.763 131.069L34.8494 131.213L35.0287 108.089L16.9423 107.945L16.763 131.069Z" fill="#EBEBEB"/>
<path d="M27.948 108.766L27.6281 131.157L24.7683 131.135L25.3829 108.747L27.948 108.766Z" fill="#FAFAFA"/>
<path d="M6.55241 108.598L16.9286 108.68L35.0155 108.823L16.9098 111.237L16.7561 131.072L6.38308 130.989L6.55241 108.598Z" fill="#E0E0E0"/>
<path d="M12.1998 108.642L11.789 131.031L8.70974 131.008L9.21146 108.62L12.1998 108.642Z" fill="#FAFAFA"/>
<path d="M20.4126 101.829C20.4126 101.943 20.099 102.061 19.5565 102.175C18.2134 102.432 16.8426 102.507 15.48 102.398C15.1665 102.369 14.8529 102.334 14.5393 102.277C14.1898 102.224 13.8442 102.147 13.5045 102.048C13.2913 101.982 13.0861 101.891 12.8931 101.778C12.6411 101.633 12.4263 101.429 12.2659 101.184C12.096 100.911 12.0038 100.596 11.9994 100.273C11.9976 100.027 12.0261 99.7814 12.084 99.5424C12.246 98.7611 12.4758 97.9958 12.7708 97.2556C12.9393 96.853 13.1495 96.4698 13.3979 96.1122C13.5306 95.9319 13.674 95.7601 13.8275 95.5976C13.9963 95.4181 14.187 95.2612 14.3951 95.1308C14.6258 94.9792 14.8819 94.8716 15.1508 94.8131C15.4341 94.7557 15.7263 94.7622 16.0068 94.8322C16.4404 94.9583 16.8402 95.1819 17.1765 95.4865C18.1353 96.293 18.9389 97.2717 19.5471 98.3736C19.9556 99.1062 20.2407 99.9026 20.3906 100.73C20.4815 101.315 20.4345 101.651 20.331 101.683C20.0896 101.743 19.7039 100.543 18.575 99.0151C17.9127 98.1337 17.1292 97.3529 16.2483 96.6966C16.0754 96.5491 15.8733 96.4408 15.6556 96.379C15.5846 96.369 15.5122 96.374 15.4432 96.3936C15.3741 96.4133 15.3098 96.4472 15.2543 96.4933C15.1577 96.5621 15.0683 96.6409 14.9877 96.7283C14.8999 96.8268 14.8027 96.9507 14.7149 97.0713C14.5351 97.3358 14.3817 97.6178 14.2571 97.913C14.0013 98.5629 13.7917 99.2306 13.63 99.9108C13.5968 100.02 13.5768 100.133 13.5704 100.247C13.5704 100.321 13.5704 100.327 13.5704 100.343C13.6753 100.47 13.8167 100.561 13.9749 100.603C14.2474 100.701 14.5248 100.783 14.8059 100.851C15.0912 100.924 15.3734 100.981 15.6462 101.035C16.195 101.137 16.7187 101.21 17.2141 101.267C18.1799 101.378 18.9827 101.445 19.5377 101.531C20.0927 101.616 20.4094 101.715 20.4126 101.829Z" fill="#E0E0E0"/>
<path d="M20.0394 101.995C19.9987 101.76 21.3533 101.378 23.4887 100.785C24.7152 100.446 25.9169 100.021 27.0854 99.5141C27.3754 99.3989 27.6494 99.2463 27.9007 99.0599C27.9695 99.0124 28.0264 98.9493 28.0669 98.8757C28.0669 98.8471 28.0669 98.8757 28.0669 98.7963C28.0317 98.6687 27.9834 98.5452 27.9227 98.4279L27.6624 97.8784C27.4963 97.5271 27.3088 97.1866 27.1011 96.8589C26.9098 96.5592 26.6823 96.285 26.4238 96.0426C26.3025 95.9267 26.1725 95.8205 26.035 95.725C25.9202 95.6431 25.7959 95.5759 25.6649 95.5249C25.458 95.4347 25.2271 95.4179 25.0096 95.4773C24.7505 95.5669 24.5125 95.7096 24.3103 95.8965C23.3646 96.707 22.5323 97.6441 21.8362 98.6819C20.6415 100.473 20.3718 101.858 20.1241 101.82C20.0175 101.82 19.9422 101.436 20.0112 100.775C20.1312 99.8405 20.4113 98.9344 20.839 98.0975C21.4661 96.8441 22.3044 95.7112 23.3163 94.7499C23.6638 94.4058 24.0796 94.1406 24.5361 93.9718C25.0807 93.7918 25.6691 93.8018 26.2074 94.0004C26.4581 94.0892 26.6971 94.2087 26.9192 94.3561C27.127 94.4918 27.3241 94.6437 27.5088 94.8103C27.87 95.1425 28.1863 95.5216 28.4495 95.9378C28.6976 96.3278 28.9197 96.7342 29.1143 97.1542L29.3777 97.7386C29.4973 97.9894 29.5827 98.2554 29.6317 98.5295C29.694 98.9051 29.6299 99.291 29.4498 99.6253C29.2942 99.8996 29.0799 100.135 28.8226 100.314C28.4544 100.57 28.0536 100.775 27.6311 100.921C26.3614 101.39 25.0466 101.722 23.7082 101.912C22.8227 102.05 21.9291 102.127 21.0334 102.144C20.4157 102.163 20.0551 102.109 20.0394 101.995Z" fill="#FAFAFA"/>
<path d="M3.26588 108.572L29.8499 108.784L29.9092 101.13L3.32523 100.918L3.26588 108.572Z" fill="#E0E0E0"/>
<path d="M13.0375 108.648L37.0691 108.839L37.1285 101.185L13.0969 100.994L13.0375 108.648Z" fill="#EBEBEB"/>
<path d="M29.7506 101.127L29.5844 108.817L26.781 108.756L26.9754 101.105L29.7506 101.127Z" fill="#FAFAFA"/>
<path d="M9.8387 101.007L9.56903 108.629L6.4866 108.604L6.65279 100.946L9.8387 101.007Z" fill="#FAFAFA"/>
<path d="M37.4838 13.1908L37.7974 14.4009L33.0154 15.6459L32.7708 14.6931L34.6209 11.7234C35.0442 11.0374 35.0599 10.6817 34.9815 10.3704C34.8529 9.86541 34.4359 9.66214 33.768 9.83683C33.5116 9.89194 33.2727 10.0104 33.0725 10.1816C32.8723 10.3528 32.7169 10.5715 32.6203 10.8182L31.366 10.399C31.6796 9.5478 32.4384 8.85223 33.561 8.55368C34.9721 8.18843 36.0978 8.67755 36.3832 9.82412C36.5431 10.4593 36.5149 11.0596 35.8376 12.1236L34.7369 13.8927L37.4838 13.1908Z" fill="#E0E0E0"/>
<path d="M37.5649 11.0434C37.0287 8.92495 37.8784 7.42582 39.4463 7.02246C41.0142 6.61909 42.4629 7.51476 42.9991 9.63004C43.5353 11.7453 42.6855 13.2444 41.1177 13.651C39.5498 14.0575 38.1011 13.1587 37.5649 11.0434ZM41.5159 10.0144C41.1459 8.55652 40.4874 8.08645 39.7536 8.27702C39.0199 8.46759 38.6781 9.20127 39.0481 10.6559C39.4181 12.1106 40.0766 12.5838 40.801 12.3964C41.5253 12.209 41.8859 11.469 41.5159 10.0144Z" fill="#E0E0E0"/>
<path d="M43.3505 7.92784C43.084 6.8829 43.4885 6.02218 44.3383 5.81573C45.188 5.60928 45.9406 6.13334 46.2197 7.18463C46.4988 8.23592 46.0723 9.09029 45.2319 9.29674C44.3916 9.50318 43.6139 8.9696 43.3505 7.92784ZM45.7556 7.29262C45.5424 6.4573 45.0281 6.06346 44.4417 6.21909C43.8554 6.37472 43.592 6.97501 43.8146 7.80715C44.0372 8.63928 44.5295 9.0363 45.1285 8.88067C45.7274 8.72504 45.9657 8.13428 45.7556 7.30215V7.29262ZM48.1827 4.85337L48.7158 4.7168L46.0127 12.26L45.4797 12.3998L48.1827 4.85337ZM47.9945 9.93514C47.7311 8.8902 48.1419 8.02947 48.9823 7.82303C49.8227 7.61658 50.5878 8.14064 50.8637 9.19193C51.1397 10.2432 50.7258 11.0976 49.876 11.3009C49.0262 11.5041 48.2611 10.9832 47.9945 9.94149V9.93514ZM50.3996 9.29991C50.1896 8.47413 49.6847 8.07076 49.0858 8.22639C48.4868 8.38202 48.236 8.97278 48.4586 9.81444C48.6813 10.6561 49.1861 11.0404 49.7725 10.888C50.3589 10.7355 50.6097 10.1384 50.4028 9.3158L50.3996 9.29991Z" fill="#E0E0E0"/>
<path d="M96.8838 33.2729C96.9089 34.5846 95.9431 35.8138 93.748 35.8392C92.7141 35.8774 91.6919 35.6056 90.8098 35.0579L91.4746 33.6699C92.1208 34.1158 92.888 34.3467 93.6696 34.3306C94.5571 34.3147 95.0995 33.9399 95.0901 33.3047C95.0901 32.7171 94.6449 32.3518 93.6383 32.3772H92.8261L92.8073 31.1894L94.3532 29.3536L91.0858 29.4108L91.0638 27.9656L96.4322 27.8735L96.4542 29.0392L94.764 31.0782C96.15 31.2783 96.865 32.1295 96.8838 33.2729Z" fill="#E0E0E0"/>
<path d="M97.6805 31.7516C97.6366 29.1726 99.0069 27.7084 100.888 27.6735C102.77 27.6385 104.2 29.071 104.244 31.6341C104.288 34.1972 102.92 35.6804 101.026 35.7122C99.1323 35.744 97.7244 34.3147 97.6805 31.7516ZM102.472 31.6658C102.441 29.9031 101.813 29.1789 100.926 29.1948C100.039 29.2107 99.4491 29.9539 99.4804 31.7357C99.5118 33.5175 100.136 34.2226 101.011 34.2067C101.886 34.1908 102.5 33.4318 102.472 31.6658Z" fill="#E0E0E0"/>
<path d="M105.125 29.7891C105.103 28.5187 105.79 27.6675 106.821 27.6485C107.853 27.6294 108.568 28.452 108.59 29.7288C108.612 31.0056 107.912 31.8504 106.893 31.8663C105.874 31.8822 105.147 31.0532 105.125 29.7891ZM108.041 29.7383C108.022 28.7283 107.542 28.1503 106.831 28.1503C106.119 28.1503 105.655 28.7855 105.674 29.7828C105.692 30.7801 106.16 31.3708 106.884 31.3708C107.608 31.3708 108.057 30.761 108.041 29.7383ZM111.468 27.623H112.114L107.009 35.4839H106.363L111.468 27.623ZM109.901 33.3686C109.882 32.0982 110.578 31.247 111.597 31.2311C112.616 31.2152 113.344 32.0442 113.366 33.3083C113.387 34.5724 112.701 35.4299 111.669 35.449C110.637 35.468 109.91 34.6359 109.888 33.3686H109.901ZM112.817 33.3178C112.801 32.3205 112.331 31.7297 111.606 31.7297C110.882 31.7297 110.434 32.3491 110.449 33.3591C110.465 34.3691 110.948 34.9471 111.66 34.9471C112.371 34.9471 112.823 34.3183 112.804 33.3178H112.817Z" fill="#E0E0E0"/>
<path d="M133.995 9.26806C133.845 10.259 132.995 11.0117 131.415 10.7672C130.667 10.6653 129.965 10.344 129.395 9.84293L130.051 8.92822C130.459 9.33117 130.982 9.59252 131.546 9.6746C132.189 9.77306 132.625 9.56344 132.694 9.10608C132.763 8.64872 132.518 8.33428 131.515 8.17866L130.101 7.9595L130.86 4.8501L134.234 5.37098L134.077 6.41274L131.769 6.05702L131.521 7.10513L131.973 7.17501C133.61 7.4291 134.146 8.27394 133.995 9.26806Z" fill="#F5F5F5"/>
<path d="M134.673 8.30902C134.952 6.45735 136.121 5.56487 137.495 5.76814C138.868 5.97141 139.709 7.1815 139.43 9.03317C139.15 10.8848 137.987 11.7741 136.607 11.5741C135.228 11.374 134.397 10.1575 134.673 8.30902ZM138.122 8.84261C138.313 7.57216 137.949 6.97188 137.31 6.87342C136.67 6.77496 136.156 7.2355 135.965 8.50911C135.773 9.78273 136.134 10.3767 136.767 10.4751C137.401 10.5736 137.937 10.1162 138.128 8.84578L138.122 8.84261Z" fill="#F5F5F5"/>
<path d="M140.264 7.82006C140.402 6.90852 141.001 6.37811 141.744 6.49245C142.487 6.60679 142.901 7.28647 142.763 8.20754C142.625 9.12861 142.02 9.64949 141.283 9.53515C140.546 9.42082 140.126 8.73478 140.264 7.82006ZM145.103 7.05144L145.57 7.12449L140.932 12.1427L140.465 12.0697L145.103 7.05144ZM142.384 8.1472C142.494 7.41669 142.218 6.93393 141.703 6.85452C141.189 6.77512 140.785 7.17213 140.675 7.88358C140.565 8.59503 140.832 9.09368 141.355 9.17626C141.879 9.25883 142.258 8.87453 142.368 8.1472H142.384ZM143.271 10.9866C143.409 10.0751 144.014 9.54468 144.751 9.65902C145.488 9.77336 145.908 10.4626 145.77 11.3741C145.633 12.2857 145.034 12.8161 144.29 12.7017C143.547 12.5874 143.118 11.9014 143.256 10.9866H143.271ZM145.375 11.3042C145.482 10.5833 145.219 10.091 144.695 10.0116C144.171 9.93217 143.776 10.3101 143.666 11.0375C143.557 11.7648 143.833 12.2539 144.347 12.3333C144.861 12.4127 145.25 12.022 145.36 11.3138L145.375 11.3042Z" fill="#F5F5F5"/>
<path d="M8.14529 36.2206L6.99761 41.1848L5.87502 40.9244L6.81574 36.8812L5.83425 36.6493L6.04748 35.7251L8.14529 36.2206Z" fill="#F5F5F5"/>
<path d="M8.42804 38.9075C8.80433 37.2686 9.91751 36.5508 11.1216 36.8367C12.3258 37.1225 13.0031 38.2659 12.6268 39.9016C12.2505 41.5373 11.1467 42.2583 9.93319 41.9725C8.71966 41.6866 8.04861 40.5464 8.42804 38.9075ZM11.4885 39.6317C11.7488 38.5041 11.4634 37.942 10.8959 37.8086C10.3283 37.6752 9.83598 38.05 9.57572 39.1775C9.31545 40.305 9.59767 40.8672 10.159 41.0006C10.7203 41.134 11.2251 40.7592 11.4885 39.6317Z" fill="#F5F5F5"/>
<path d="M17.8507 38.5234L18.2646 38.6219L13.768 42.7921L13.3572 42.6936L17.8507 38.5234ZM13.4607 38.8696C13.6488 38.0597 14.2227 37.6277 14.8812 37.7834C15.5397 37.939 15.8627 38.5774 15.6745 39.3937C15.4864 40.2099 14.9094 40.6323 14.2572 40.4799C13.6049 40.3274 13.2851 39.6763 13.4701 38.8696H13.4607ZM15.3233 39.3111C15.4738 38.6759 15.2606 38.2121 14.8059 38.1042C14.3512 37.9962 13.9593 38.3138 13.8119 38.9522C13.6645 39.5906 13.8683 40.0511 14.3324 40.1591C14.7965 40.2671 15.1853 39.9717 15.3327 39.3111H15.3233ZM15.9254 41.9218C16.1104 41.1119 16.6905 40.6832 17.3427 40.8356C17.995 40.9881 18.3242 41.6392 18.1392 42.4459C17.9542 43.2526 17.3772 43.6878 16.7187 43.5321C16.0602 43.3765 15.7466 42.7286 15.9348 41.9218H15.9254ZM17.7911 42.3633C17.9385 41.7281 17.7347 41.2644 17.2737 41.1564C16.8128 41.0484 16.4271 41.3597 16.2797 42.0044C16.1323 42.6492 16.3424 43.1033 16.7971 43.2113C17.2518 43.3193 17.65 43.0017 17.7911 42.3633Z" fill="#F5F5F5"/>
<path d="M37.829 87.5716C32.3697 81.915 23.8185 79.5361 16.2739 81.5815C22.7077 86.0204 30.2987 88.4226 38.083 88.4831" fill="#6AB2EA"/>
<path d="M30.5164 61.3498C31.4163 54.915 28.9485 47.6926 24.1916 43.0015C24.0348 49.3791 26.7002 56.5539 30.5164 61.3498Z" fill="#6AB2EA"/>
<path d="M34.3202 73.5018C30.881 66.8931 25.4087 61.6 18.7324 58.4248C20.7173 65.8315 26.9732 71.8915 34.3672 73.5716" fill="#6AB2EA"/>
<path d="M35.1066 75.8614C31.2716 75.9694 27.3864 75.8328 23.6769 74.8387C19.9673 73.8446 16.4145 71.9326 13.9561 68.9565C21.4625 68.9831 28.7948 71.2488 35.0376 75.4707" fill="#6AB2EA"/>
<path d="M33.1567 68.1247C35.104 60.7308 38.3182 55.6172 44.0534 51.4756C44.4927 55.1105 43.6365 58.7848 41.6388 61.8371C39.6411 64.8894 36.6332 67.1191 33.1567 68.1247Z" fill="#6AB2EA"/>
<path d="M47.6407 80.8732C47.655 78.7167 47.0395 76.6041 45.8718 74.8009C44.7041 72.9976 43.0361 71.5842 41.0776 70.7383C41.3912 74.5496 44.3576 78.9707 47.6407 80.8732Z" fill="#6AB2EA"/>
<path d="M49.4624 74.6386C49.8983 68.4643 54.2287 62.7505 60.0079 60.7305C58.694 66.908 55.1695 72.0501 49.4624 74.6386Z" fill="#6AB2EA"/>
<path d="M46.7124 85.7076C48.0639 83.7479 50.2715 82.5315 52.5574 81.9216C54.8434 81.3118 57.2297 81.2642 59.5909 81.2134C57.9818 82.9826 56.0133 84.3776 53.8209 85.3026C51.6286 86.2275 49.2644 86.6604 46.8911 86.5715" fill="#6AB2EA"/>
<path d="M43.9683 101.458C48.2737 100.113 52.9205 100.45 56.9924 102.404C61.0642 104.358 64.2657 107.786 65.9655 112.012C57.9756 110.481 50.0892 106.882 43.9683 101.458Z" fill="#6AB2EA"/>
<path d="M35.201 95.9819C36.5274 99.9552 36.2734 104.761 33.3196 108.185C32.7318 106.135 32.5957 103.98 32.9208 101.871C33.2459 99.7628 34.0243 97.7523 35.201 95.9819Z" fill="#6AB2EA"/>
<path d="M30.0208 93.7744C29.8056 96.3359 28.9423 98.7979 27.5142 100.923C26.0862 103.048 24.1415 104.765 21.8678 105.907C21.762 105.976 21.6434 106.022 21.5193 106.042C21.3952 106.062 21.2684 106.056 21.1466 106.025C20.786 105.879 20.7547 105.389 20.7986 104.989C21.3755 99.9075 25.1008 94.975 30.0208 93.7744Z" fill="#6AB2EA"/>
<path d="M26.6312 93.2569C25.5049 94.489 24.1407 95.4737 22.6233 96.15C21.1058 96.8262 19.4675 97.1796 17.8097 97.1882C16.1519 97.1969 14.51 96.8606 12.9858 96.2002C11.4616 95.5398 10.0875 94.5694 8.94873 93.349C14.568 92.7138 21.0558 92.3105 26.6312 93.2569Z" fill="#6AB2EA"/>
<path d="M25.7905 47.7432C25.8025 47.8006 25.8193 47.8569 25.8407 47.9115C25.8846 48.029 25.941 48.1878 26.0132 48.3911C26.1731 48.823 26.3989 49.4424 26.6905 50.2364C26.9821 51.0304 27.3427 52.015 27.7472 53.1584L28.3963 54.9847C28.619 55.6199 28.8541 56.325 29.0987 57.046C30.0959 59.9299 31.1997 63.3982 32.3944 67.2413C33.5891 71.0844 34.7995 75.3626 36.0099 79.8567C37.2203 84.3509 38.2645 88.6673 39.1645 92.6025C40.0644 96.5376 40.795 100.098 41.3375 103.103C41.4776 103.852 41.6103 104.566 41.7358 105.243C41.8518 105.92 41.9584 106.561 42.0493 107.149C42.2532 108.343 42.4256 109.372 42.5448 110.22C42.664 111.068 42.7706 111.71 42.8396 112.164C42.874 112.377 42.9023 112.545 42.9211 112.669C42.9279 112.727 42.9395 112.784 42.9556 112.841C42.9605 112.782 42.9605 112.724 42.9556 112.666C42.9399 112.542 42.9211 112.374 42.8929 112.158C42.8333 111.7 42.7486 111.046 42.6389 110.208C42.5291 109.369 42.3723 108.327 42.181 107.13C42.0838 106.53 41.9835 105.888 41.8675 105.208C41.7514 104.529 41.6197 103.817 41.4849 103.065C40.9581 100.054 40.2306 96.4932 39.3557 92.5485C38.4809 88.6037 37.4084 84.2906 36.22 79.7901C35.0316 75.2895 33.771 71.0304 32.5857 67.1714C31.4004 63.3124 30.2621 59.8664 29.2461 56.9856C28.9953 56.2657 28.7559 55.5807 28.528 54.9307L27.8633 53.1076C27.4462 51.9674 27.0856 50.9891 26.772 50.1951C26.4584 49.4011 26.2233 48.7945 26.0571 48.3657L25.8658 47.8924C25.844 47.841 25.8189 47.7912 25.7905 47.7432Z" fill="#263238"/>
<path d="M56.6746 64.0303C56.6389 64.0572 56.6063 64.0881 56.5774 64.1224L56.3077 64.4082C56.0725 64.6623 55.7339 65.0435 55.3106 65.5389C54.1045 66.949 52.998 68.4434 51.9992 70.0109C50.5118 72.3365 49.351 74.8602 48.5499 77.5097C47.6092 80.492 47.0447 83.8873 46.474 87.4318C45.3295 94.5304 43.9278 100.889 42.9118 105.488C42.4007 107.778 41.9711 109.633 41.6952 110.935C41.5572 111.57 41.4474 112.062 41.3816 112.415C41.3471 112.577 41.322 112.704 41.3001 112.803C41.2895 112.846 41.2832 112.891 41.2812 112.936C41.2994 112.894 41.3131 112.85 41.322 112.806C41.3471 112.71 41.3816 112.583 41.4224 112.425C41.5102 112.075 41.6293 111.583 41.7861 110.954C42.0997 109.658 42.5293 107.807 43.0686 105.523C44.1222 100.933 45.549 94.5749 46.6935 87.4667C47.2674 83.9222 47.8349 80.5397 48.7475 77.5668C49.5404 74.931 50.684 72.4168 52.1466 70.0935C53.1302 68.5241 54.2144 67.0217 55.3921 65.5961C55.806 65.0879 56.1353 64.7004 56.361 64.4368C56.4645 64.3129 56.5492 64.2145 56.6119 64.1351C56.6357 64.102 56.6567 64.0669 56.6746 64.0303Z" fill="#263238"/>
<path d="M24.9536 93.0122C25.0182 93.0351 25.0859 93.0479 25.1543 93.0503L25.7375 93.1138L26.1577 93.1583L26.6532 93.2313C27.0107 93.2853 27.4183 93.3393 27.8604 93.4378L28.5597 93.5807L29.306 93.7713C29.8266 93.8888 30.3628 94.0889 30.9366 94.2572C32.1635 94.6879 33.3538 95.219 34.4957 95.8453C35.6294 96.4878 36.6986 97.241 37.6879 98.0939C38.1163 98.4685 38.5245 98.866 38.9108 99.285C39.2559 99.643 39.5795 100.022 39.8797 100.419C40.1368 100.739 40.3765 101.073 40.5978 101.419C40.7775 101.677 40.9419 101.945 41.0901 102.223L41.388 102.734C41.4192 102.796 41.4582 102.854 41.5041 102.906C41.4876 102.838 41.4612 102.772 41.4257 102.712L41.1623 102.182C41.0277 101.898 40.8725 101.625 40.6982 101.365C40.4856 101.009 40.2532 100.666 40.002 100.336C39.7049 99.9301 39.3845 99.5419 39.0425 99.1738C38.6564 98.7456 38.2471 98.3395 37.8164 97.9574C36.8241 97.0865 35.746 96.3213 34.5992 95.6737C33.4463 95.0411 32.2419 94.5098 30.9993 94.0857C30.4192 93.9142 29.8767 93.7268 29.3499 93.6156L28.5942 93.4346L27.8887 93.3075C27.4403 93.2154 27.0295 93.1741 26.6689 93.1297L26.1671 93.0725L25.7438 93.0503L25.1574 93.0122C25.0898 93.0031 25.0213 93.0031 24.9536 93.0122Z" fill="#263238"/>
<path d="M23.3511 64.1641C23.4701 64.3098 23.6036 64.4428 23.7493 64.5611L24.9064 65.5774C25.891 66.4286 27.2582 67.5911 28.7759 68.8679C30.2936 70.1447 31.6796 71.2912 32.6862 72.1107L33.8872 73.0635C34.0281 73.1857 34.1815 73.2922 34.345 73.3811C34.224 73.2351 34.0884 73.102 33.9405 72.9841L32.7834 71.9677C31.7988 71.1166 30.4316 69.9541 28.9139 68.6773C27.3962 67.4005 26.0133 66.2571 25.0067 65.4377L23.8058 64.4848C23.6639 64.3644 23.5118 64.257 23.3511 64.1641Z" fill="#263238"/>
<path d="M21.9683 71.6976C21.9683 71.7547 24.9033 72.6885 28.5533 73.7843C32.2033 74.88 35.1917 75.7185 35.2074 75.6613C35.223 75.6042 32.2723 74.6672 28.6223 73.5746C24.9723 72.4821 21.9871 71.6404 21.9683 71.6976Z" fill="#263238"/>
<path d="M32.8682 68.6993C32.9865 68.5673 33.0915 68.4236 33.1817 68.2705L33.9594 67.0699C34.6179 66.0568 35.5555 64.6783 36.6655 63.2078C37.7756 61.7373 38.8418 60.4605 39.6288 59.5489C39.9988 59.117 40.3124 58.7549 40.5695 58.469C40.6868 58.3418 40.7918 58.2036 40.8831 58.0562C40.7393 58.1566 40.6087 58.275 40.4943 58.4087C40.256 58.6469 39.9173 58.9995 39.5065 59.4441C38.6912 60.3334 37.6 61.6039 36.4868 63.0776C35.3736 64.5513 34.4548 65.9519 33.8246 66.9842C33.511 67.5019 33.2633 67.937 33.1033 68.226C33.0068 68.3738 32.9279 68.5327 32.8682 68.6993Z" fill="#263238"/>
<path d="M43.1157 72.8789C43.3217 73.2781 43.5532 73.6632 43.8087 74.0318C44.2509 74.7338 44.8498 75.7088 45.4675 76.8109C46.0853 77.913 46.6089 78.9357 46.9821 79.6694C47.1649 80.0801 47.3744 80.478 47.6092 80.8605C47.487 80.422 47.3232 79.9965 47.1201 79.59C46.7845 78.8278 46.2797 77.7923 45.6588 76.6807C45.0379 75.5691 44.4045 74.6067 43.9404 73.9238C43.6992 73.5496 43.423 73.1997 43.1157 72.8789Z" fill="#263238"/>
<path d="M46.6401 85.9072C46.6558 85.9358 47.2171 85.6563 48.139 85.2371C49.0609 84.8178 50.334 84.2842 51.8016 83.7507C53.2691 83.2171 54.6018 82.8518 55.5801 82.6009C56.5585 82.35 57.17 82.2071 57.148 82.1753C57.0002 82.1717 56.8527 82.1877 56.709 82.2229C56.4268 82.2642 56.0254 82.3405 55.53 82.4484C54.2369 82.7352 52.9624 83.1022 51.7138 83.5474C50.4653 83.9889 49.2443 84.5065 48.0575 85.0973C47.6028 85.326 47.2422 85.5197 46.9945 85.6658C46.8673 85.7318 46.7484 85.8128 46.6401 85.9072Z" fill="#263238"/>
<path d="M43.8623 101.483C43.92 101.511 43.9812 101.531 44.0442 101.543L44.5773 101.68L46.5402 102.14C48.7043 102.6 50.8436 103.173 52.9497 103.855C55.0472 104.569 57.0552 105.528 58.9327 106.714C59.6476 107.174 60.2058 107.581 60.5821 107.876C60.7706 108.037 60.9685 108.185 61.1747 108.321C61.1747 108.321 61.134 108.267 61.043 108.178C60.9521 108.089 60.8173 107.962 60.6322 107.81C60.117 107.369 59.5767 106.96 59.0142 106.584C57.1473 105.356 55.1336 104.374 53.0218 103.662C50.9081 102.973 48.7538 102.419 46.5716 102.004L44.5929 101.588C44.3523 101.534 44.1081 101.499 43.8623 101.483Z" fill="#263238"/>
<path d="M33.8807 105.32C33.9372 105.32 34.2884 103.233 34.6647 100.638C35.041 98.0435 35.2918 95.9314 35.2354 95.9219C35.1789 95.9124 34.8277 98.0118 34.4514 100.607C34.0752 103.202 33.8212 105.314 33.8807 105.32Z" fill="#263238"/>
<path d="M23.4858 101.499C23.8234 101.144 24.1377 100.768 24.4266 100.371C24.9879 99.6631 25.7655 98.6881 26.6467 97.6272C27.5278 96.5664 28.34 95.6199 28.9326 94.9371C29.2718 94.584 29.5862 94.2072 29.8733 93.8096C29.7578 93.8806 29.6523 93.9671 29.5598 94.0668C29.3779 94.2447 29.1239 94.5051 28.8103 94.8354C28.1832 95.4929 27.3553 96.4235 26.4711 97.4875C25.5868 98.5515 24.8279 99.5424 24.2949 100.276C24.0283 100.645 23.8182 100.946 23.6677 101.156C23.5912 101.261 23.5299 101.376 23.4858 101.499Z" fill="#263238"/>
<path d="M50.9927 111.262V116.465H49.7071L45.1446 131.059H35.0193L30.5979 116.608L28.8857 116.465V111.262H50.9927Z" fill="#455A64"/>
<path d="M29.7417 116.607C29.7417 116.668 34.2101 116.719 39.7228 116.719C45.2354 116.719 49.707 116.668 49.707 116.607C49.707 116.547 45.2385 116.5 39.7228 116.5C34.207 116.5 29.7417 116.547 29.7417 116.607Z" fill="#263238"/>
<path d="M22.4604 83.1475C22.6715 83.2249 22.8887 83.2844 23.1095 83.3253L24.8844 83.7604C26.3833 84.1352 28.4403 84.7133 30.6698 85.4628C32.8993 86.2124 34.8811 87.0287 36.3142 87.648L37.9886 88.388C38.1907 88.4904 38.4004 88.5764 38.6158 88.6453C38.4305 88.5168 38.2342 88.4052 38.0294 88.3118C37.6468 88.1085 37.0887 87.8322 36.38 87.5051C32.7102 85.8091 28.8766 84.5031 24.9408 83.608C24.1882 83.4397 23.5736 83.3158 23.1472 83.2427C22.9213 83.1918 22.6916 83.1599 22.4604 83.1475Z" fill="#263238"/>
<path d="M33.103 124.713C33.103 124.773 36.2388 124.821 40.1051 124.821C43.9715 124.821 47.1104 124.773 47.1104 124.713C47.1104 124.653 43.9746 124.605 40.1051 124.605C36.2356 124.605 33.103 124.653 33.103 124.713Z" fill="#FAFAFA"/>
<path d="M32.708 123.503C32.708 123.563 36.0319 123.611 40.1303 123.611C44.2287 123.611 47.5557 123.563 47.5557 123.503C47.5557 123.443 44.2319 123.395 40.1303 123.395C36.0288 123.395 32.708 123.446 32.708 123.503Z" fill="#FAFAFA"/>
<path d="M219.046 131.059C219.046 131.104 170.677 131.142 111.026 131.142C51.3751 131.142 3 131.104 3 131.059C3 131.015 51.3563 130.977 111.026 130.977C170.696 130.977 219.046 131.012 219.046 131.059Z" fill="#263238"/>
<path d="M69.324 49.0968L66.4391 43.9451C68.2225 41.0125 68.8583 37.5103 68.2218 34.1269C67.5852 30.7435 65.7223 27.7236 62.9991 25.6608C60.2759 23.598 56.8894 22.6414 53.5053 22.9791C50.1212 23.3168 46.9842 24.9244 44.7108 27.4858C42.4374 30.0472 41.1921 33.3773 41.2197 36.8215C41.2472 40.2656 42.5457 43.5748 44.8597 46.0986C47.1738 48.6223 50.3362 50.1782 53.7252 50.4603C57.1143 50.7424 60.485 49.7303 63.1748 47.6231L69.324 49.0968Z" fill="white"/>
<path d="M69.3241 49.0966L63.1623 47.6674C63.157 47.6667 63.1519 47.6648 63.1474 47.6619C63.1429 47.6591 63.139 47.6553 63.136 47.6508C63.133 47.6462 63.1311 47.6411 63.1302 47.6358C63.1293 47.6305 63.1296 47.625 63.131 47.6197C63.131 47.6197 63.131 47.6197 63.131 47.6039L63.1874 47.661C62.325 48.3406 61.3861 48.9141 60.3903 49.3698C59.2088 49.9078 57.9576 50.2724 56.6745 50.4528C55.962 50.5534 55.2421 50.5895 54.5234 50.5608C54.1502 50.5418 53.7739 50.5322 53.3945 50.5005L52.2437 50.3226C48.8193 49.6423 45.7795 47.6662 43.7427 44.7962C42.6109 43.2079 41.8272 41.393 41.4442 39.473C41.0512 37.4427 41.1058 35.3496 41.6041 33.3432C42.1183 31.2467 43.118 29.3045 44.5203 27.677L45.0754 27.0418C45.2604 26.8321 45.4767 26.6606 45.6743 26.4701C45.8719 26.2795 46.0694 26.0858 46.3014 25.927L46.9537 25.4315C47.1686 25.2641 47.3949 25.1123 47.631 24.9773L48.3209 24.5549L49.0421 24.1992C49.2788 24.0779 49.5228 23.9718 49.7727 23.8815C51.7082 23.1042 53.7918 22.7785 55.8686 22.9287C57.8332 23.0631 59.7443 23.6346 61.4659 24.6025C64.5559 26.3535 66.863 29.2407 67.9098 32.6666C68.3323 34.121 68.5322 35.6324 68.5025 37.1481C68.4646 38.4632 68.2408 39.766 67.8377 41.0166C67.498 42.0562 67.0392 43.0518 66.4705 43.9831V43.9418L69.3209 49.1125L66.3953 43.9641C66.3923 43.9582 66.3907 43.9516 66.3907 43.945C66.3907 43.9384 66.3923 43.9318 66.3953 43.9259C66.9531 42.9972 67.4024 42.006 67.7342 40.9722C68.1305 39.7292 68.3481 38.4349 68.3802 37.1291C68.4039 35.6247 68.2019 34.1255 67.7813 32.6825C66.7299 29.2987 64.4385 26.4515 61.3781 24.7264C59.6749 23.7724 57.7854 23.2096 55.8435 23.078C53.7894 22.9337 51.7296 23.2593 49.8166 24.0308C49.57 24.1217 49.3292 24.2277 49.0954 24.3484L48.3836 24.6978L47.7 25.1171C47.4675 25.2507 47.2444 25.4004 47.0321 25.5649L46.3861 26.054C46.1666 26.2128 45.9816 26.4161 45.7778 26.5939C45.574 26.7718 45.367 26.9497 45.1883 27.1561L44.6395 27.7691C43.2525 29.3771 42.2636 31.2965 41.7546 33.3686C41.2616 35.3509 41.2059 37.4188 41.5916 39.4254C41.9694 41.3239 42.7423 43.1191 43.8587 44.6914C45.8711 47.5344 48.8753 49.4963 52.2625 50.1797L53.4008 50.3575C53.7771 50.3893 54.1502 50.3988 54.5171 50.4211C55.2315 50.4518 55.9472 50.4178 56.6557 50.3194C57.9334 50.1485 59.1805 49.7934 60.359 49.265C61.3502 48.8179 62.2859 48.2539 63.1467 47.5848C63.1505 47.5807 63.1551 47.5774 63.1602 47.5751C63.1653 47.5729 63.1709 47.5717 63.1764 47.5717C63.182 47.5717 63.1876 47.5729 63.1927 47.5751C63.1978 47.5774 63.2024 47.5807 63.2062 47.5848C63.211 47.5924 63.2135 47.6012 63.2135 47.6102C63.2135 47.6192 63.211 47.628 63.2062 47.6356L63.1843 47.5689L69.3241 49.0966Z" fill="#263238"/>
<path d="M50.8575 34.1086C50.6447 34.0069 50.415 33.9466 50.1802 33.9307C49.8362 33.8748 49.4837 33.9097 49.1568 34.0321C48.83 34.1545 48.5398 34.3603 48.3145 34.6294C49.7851 35.4933 51.7889 36.6399 53.2219 37.4689L55.0312 36.4208C53.7267 35.6934 52.0899 34.7787 50.8575 34.1086Z" fill="#6AB2EA"/>
<g opacity="0.3">
<path d="M50.8575 34.1086C50.6447 34.0069 50.415 33.9466 50.1802 33.9307C49.8362 33.8748 49.4837 33.9097 49.1568 34.0321C48.83 34.1545 48.5398 34.3603 48.3145 34.6294C49.7851 35.4933 51.7889 36.6399 53.2219 37.4689L55.0312 36.4208C53.7267 35.6934 52.0899 34.7787 50.8575 34.1086Z" fill="black"/>
</g>
<path d="M56.3984 39.3998L56.3326 39.3426C55.881 39.079 55.3919 38.5772 54.9466 38.5867C54.7741 38.5867 54.586 38.7423 54.1376 38.9964C53.3913 39.4252 52.1338 40.1716 51.3812 40.5845C50.7541 40.9434 49.9576 41.2197 49.227 40.9783C48.8542 40.8396 48.5114 40.6293 48.2173 40.359L56.3953 35.5567C56.3545 35.4328 56.3106 35.3153 56.2699 35.1946C56.1052 34.7087 56.1007 34.1817 56.257 33.6929C56.4134 33.2041 56.7222 32.78 57.137 32.4842C57.5518 32.1885 58.0502 32.0371 58.5572 32.0529C59.0643 32.0686 59.5525 32.2507 59.9487 32.5717C60.3448 32.8926 60.6273 33.3352 60.7538 33.8327C60.8803 34.3303 60.8439 34.856 60.65 35.3308C60.4562 35.8056 60.1155 36.2039 59.679 36.4657C59.2425 36.7275 58.7339 36.8388 58.2297 36.7827C58.0413 36.7703 57.8531 36.8087 57.6841 36.8938C57.3705 37.0463 57.082 37.24 56.7089 37.456C57.336 37.7419 57.7656 38.1992 58.5025 38.1294C59.5185 38.0341 60.4185 38.7805 60.7289 39.7746C60.8751 40.2496 60.8696 40.7593 60.7131 41.2309C60.5565 41.7025 60.257 42.1121 59.8572 42.4012C59.4548 42.6938 58.9712 42.8497 58.4759 42.8464C57.9806 42.8432 57.499 42.681 57.1004 42.3831C56.7018 42.0853 56.4067 41.6671 56.2575 41.1887C56.1082 40.7103 56.1126 40.1963 56.2699 39.7206C56.3075 39.6285 56.3608 39.5205 56.3984 39.3998ZM58.4868 35.5885C58.6368 35.5902 58.7855 35.5614 58.9242 35.5038C59.063 35.4462 59.1889 35.3609 59.2944 35.2531C59.4 35.1453 59.4831 35.0171 59.5389 34.8761C59.5946 34.7351 59.6218 34.5842 59.6188 34.4324C59.614 34.1329 59.4939 33.8473 59.2843 33.6361C59.0746 33.4249 58.7919 33.3049 58.4962 33.3017C58.1935 33.305 57.9041 33.4287 57.6906 33.6462C57.477 33.8637 57.3565 34.1574 57.3548 34.4641C57.3638 34.7627 57.4868 35.0461 57.6979 35.2547C57.9091 35.4632 58.1919 35.5806 58.4868 35.5821V35.5885ZM58.4868 41.6485C58.7826 41.6512 59.0677 41.5368 59.2815 41.3298C59.4952 41.1228 59.6208 40.8394 59.6314 40.54C59.6377 40.3881 59.6137 40.2365 59.5609 40.0942C59.508 39.9518 59.4273 39.8218 59.3237 39.7118C59.2201 39.6018 59.0956 39.5141 58.9577 39.4539C58.8199 39.3938 58.6714 39.3624 58.5213 39.3617C58.2255 39.3581 57.9398 39.471 57.7245 39.6766C57.5092 39.8822 57.3812 40.1644 57.3674 40.4638C57.3647 40.7673 57.4787 41.06 57.6853 41.28C57.8919 41.4999 58.1748 41.6298 58.4743 41.6421L58.4868 41.6485Z" fill="#6AB2EA"/>
<path d="M55.4451 37.4309C55.4168 37.4309 55.4294 37.2181 55.1973 37.0498C55.1335 37.005 55.0599 36.9767 54.9829 36.9672C54.9058 36.9578 54.8277 36.9676 54.7552 36.9958C54.6689 37.0306 54.5949 37.0908 54.5428 37.1686C54.4907 37.2465 54.4628 37.3384 54.4628 37.4325C54.4628 37.5266 54.4907 37.6185 54.5428 37.6963C54.5949 37.7742 54.6689 37.8344 54.7552 37.8692C54.8277 37.8973 54.9058 37.9071 54.9829 37.8977C55.0599 37.8883 55.1335 37.86 55.1973 37.8152C55.4294 37.6469 55.4168 37.4245 55.4451 37.4309C55.4733 37.4372 55.4701 37.4817 55.4451 37.5706C55.4264 37.7029 55.3592 37.8231 55.2569 37.9073C55.1796 37.9723 55.0871 38.0161 54.9882 38.0344C54.8894 38.0528 54.7875 38.0451 54.6925 38.0121C54.5733 37.9706 54.4699 37.8924 54.3967 37.7885C54.3235 37.6846 54.2842 37.5601 54.2842 37.4325C54.2842 37.3048 54.3235 37.1804 54.3967 37.0765C54.4699 36.9725 54.5733 36.8944 54.6925 36.8528C54.7875 36.8199 54.8894 36.8122 54.9882 36.8305C55.0871 36.8489 55.1796 36.8927 55.2569 36.9577C55.359 37.0407 55.4263 37.1599 55.4451 37.2911C55.4701 37.3801 55.4545 37.4309 55.4451 37.4309Z" fill="#263238"/>
<path d="M57.446 37.0273C57.393 37.0678 57.3374 37.105 57.2798 37.1385L56.8126 37.4244L55.2667 38.3454L53.6988 39.2474L53.2222 39.5142C53.1653 39.5501 53.1055 39.5809 53.0435 39.6063C53.0959 39.564 53.1515 39.5258 53.2097 39.492L53.6769 39.2062L55.2228 38.2883L56.7907 37.3862L57.2673 37.1163C57.3245 37.082 57.3843 37.0523 57.446 37.0273Z" fill="#263238"/>
<path d="M56.085 35.7568C56.0612 35.7767 56.0361 35.7947 56.0097 35.8108L55.784 35.9538L54.9499 36.4778C54.2474 36.9098 53.2722 37.5005 52.1779 38.1262L49.3839 39.7333L48.5216 40.197L48.2895 40.3241L48.208 40.3654C48.208 40.3654 48.2331 40.3463 48.2833 40.3145L48.509 40.1748L49.3494 39.6762L52.1371 38.0532C53.2283 37.4179 54.2067 36.8431 54.9185 36.4238L55.762 35.9315L55.9941 35.7981L56.085 35.7568Z" fill="#263238"/>
<path d="M107.888 53.0508L108.483 54.1529L109.571 54.7564L108.483 55.3598L107.888 56.4619L107.292 55.3598L106.204 54.7564L107.292 54.1529L107.888 53.0508Z" fill="#6AB2EA"/>
<path d="M111.864 37.9581L112.482 37.9168L112.98 37.542L113.021 38.1709L113.391 38.6759L112.77 38.7171L112.271 39.0888L112.231 38.4631L111.864 37.9581Z" fill="#6AB2EA"/>
<path d="M212.163 88.0772L212.781 88.0359L213.279 87.6611L213.32 88.29L213.69 88.795L213.069 88.8363L212.571 89.2079L212.53 88.5822L212.163 88.0772Z" fill="#6AB2EA"/>
<path d="M141.512 56.719L142.13 56.6778L142.632 56.3062L142.672 56.9318L143.039 57.4368L142.422 57.4781L141.92 57.8497L141.882 57.2241L141.512 56.719Z" fill="#6AB2EA"/>
<path d="M145.281 29.8812L145.899 29.8399L146.398 29.4683L146.438 30.094L146.805 30.599L146.187 30.6402L145.689 31.015L145.648 30.3862L145.281 29.8812Z" fill="#6AB2EA"/>
<path d="M126.294 46.5367L127.235 45.9873L127.734 45.0122L128.276 45.965L129.242 46.4732L128.301 47.0195L127.8 47.9977L127.257 47.0449L126.294 46.5367Z" fill="#6AB2EA"/>
<path d="M205.331 100.692L206.271 100.143L206.77 99.168L207.312 100.121L208.275 100.626L207.334 101.175L206.836 102.15L206.293 101.197L205.331 100.692Z" fill="#6AB2EA"/>
<path d="M200.605 83.2716L201.546 82.7221L202.047 81.7471L202.59 82.6999L203.553 83.2049L202.612 83.7544L202.11 84.7326L201.571 83.7766L200.605 83.2716Z" fill="#6AB2EA"/>
<g filter="url(#filter0_d_2002_10)">
<path d="M179.751 108.306C179.752 110.864 180.767 113.317 182.575 115.127C184.382 116.937 186.834 117.957 189.392 117.962V130.348H80V117.962C81.2845 117.987 82.5612 117.756 83.7553 117.282C84.9494 116.809 86.0371 116.101 86.9545 115.202C87.8719 114.303 88.6007 113.229 89.0983 112.045C89.5958 110.86 89.8521 109.588 89.8521 108.304C89.8521 107.019 89.5958 105.747 89.0983 104.563C88.6007 103.378 87.8719 102.305 86.9545 101.405C86.0371 100.506 84.9494 99.7987 83.7553 99.3248C82.5612 98.8509 81.2845 98.6199 80 98.6455V74.7168H189.392V98.6455C186.833 98.6505 184.381 99.6705 182.573 101.482C180.766 103.293 179.751 105.747 179.751 108.306Z" fill="#EFB814"/>
<path opacity="0.3" d="M189.392 117.962V130.348H80V117.962C82.5613 117.962 85.0178 116.945 86.8293 115.134C88.6408 113.323 89.659 110.867 89.6601 108.306H179.751C179.752 110.864 180.767 113.317 182.575 115.127C184.382 116.937 186.834 117.957 189.392 117.962Z" fill="white"/>
<g opacity="0.2">
<path d="M90.4236 108.684H89.66C89.5587 108.684 89.4616 108.643 89.39 108.572C89.3184 108.5 89.2782 108.403 89.2782 108.302C89.2782 108.2 89.3184 108.103 89.39 108.032C89.4616 107.96 89.5587 107.92 89.66 107.92H90.4236C90.5249 107.92 90.622 107.96 90.6936 108.032C90.7652 108.103 90.8054 108.2 90.8054 108.302C90.8054 108.403 90.7652 108.5 90.6936 108.572C90.622 108.643 90.5249 108.684 90.4236 108.684Z" fill="black"/>
<path d="M175.505 108.684H173.977C173.876 108.684 173.779 108.643 173.707 108.572C173.636 108.5 173.596 108.403 173.596 108.302C173.596 108.2 173.636 108.103 173.707 108.032C173.779 107.96 173.876 107.92 173.977 107.92H175.505C175.606 107.92 175.703 107.96 175.775 108.032C175.846 108.103 175.886 108.2 175.886 108.302C175.886 108.403 175.846 108.5 175.775 108.572C175.703 108.643 175.606 108.684 175.505 108.684ZM170.499 108.684H168.972C168.87 108.684 168.773 108.643 168.702 108.572C168.63 108.5 168.59 108.403 168.59 108.302C168.59 108.2 168.63 108.103 168.702 108.032C168.773 107.96 168.87 107.92 168.972 107.92H170.499C170.6 107.92 170.697 107.96 170.769 108.032C170.841 108.103 170.881 108.2 170.881 108.302C170.881 108.403 170.841 108.5 170.769 108.572C170.697 108.643 170.6 108.684 170.499 108.684ZM165.493 108.684H163.966C163.865 108.684 163.768 108.643 163.696 108.572C163.624 108.5 163.584 108.403 163.584 108.302C163.584 108.2 163.624 108.103 163.696 108.032C163.768 107.96 163.865 107.92 163.966 107.92H165.493C165.595 107.92 165.692 107.96 165.763 108.032C165.835 108.103 165.875 108.2 165.875 108.302C165.875 108.403 165.835 108.5 165.763 108.572C165.692 108.643 165.595 108.684 165.493 108.684ZM160.488 108.684H158.96C158.859 108.684 158.762 108.643 158.69 108.572C158.619 108.5 158.579 108.403 158.579 108.302C158.579 108.2 158.619 108.103 158.69 108.032C158.762 107.96 158.859 107.92 158.96 107.92H160.488C160.589 107.92 160.686 107.96 160.758 108.032C160.829 108.103 160.869 108.2 160.869 108.302C160.869 108.403 160.829 108.5 160.758 108.572C160.686 108.643 160.589 108.684 160.488 108.684ZM155.486 108.684H153.959C153.857 108.684 153.76 108.643 153.689 108.572C153.617 108.5 153.577 108.403 153.577 108.302C153.577 108.2 153.617 108.103 153.689 108.032C153.76 107.96 153.857 107.92 153.959 107.92H155.486C155.587 107.92 155.684 107.96 155.756 108.032C155.827 108.103 155.868 108.2 155.868 108.302C155.868 108.403 155.827 108.5 155.756 108.572C155.684 108.643 155.587 108.684 155.486 108.684ZM150.48 108.684H148.953C148.852 108.684 148.754 108.643 148.683 108.572C148.611 108.5 148.571 108.403 148.571 108.302C148.571 108.2 148.611 108.103 148.683 108.032C148.754 107.96 148.852 107.92 148.953 107.92H150.48C150.581 107.92 150.679 107.96 150.75 108.032C150.822 108.103 150.862 108.2 150.862 108.302C150.862 108.403 150.822 108.5 150.75 108.572C150.679 108.643 150.581 108.684 150.48 108.684ZM145.474 108.684H143.947C143.846 108.684 143.749 108.643 143.677 108.572C143.606 108.5 143.565 108.403 143.565 108.302C143.565 108.2 143.606 108.103 143.677 108.032C143.749 107.96 143.846 107.92 143.947 107.92H145.474C145.576 107.92 145.673 107.96 145.744 108.032C145.816 108.103 145.856 108.2 145.856 108.302C145.856 108.403 145.816 108.5 145.744 108.572C145.673 108.643 145.576 108.684 145.474 108.684ZM140.469 108.684H138.942C138.84 108.684 138.743 108.643 138.672 108.572C138.6 108.5 138.56 108.403 138.56 108.302C138.56 108.2 138.6 108.103 138.672 108.032C138.743 107.96 138.84 107.92 138.942 107.92H140.469C140.57 107.92 140.667 107.96 140.739 108.032C140.81 108.103 140.851 108.2 140.851 108.302C140.851 108.403 140.81 108.5 140.739 108.572C140.667 108.643 140.57 108.684 140.469 108.684ZM135.467 108.684H133.94C133.838 108.684 133.741 108.643 133.67 108.572C133.598 108.5 133.558 108.403 133.558 108.302C133.558 108.2 133.598 108.103 133.67 108.032C133.741 107.96 133.838 107.92 133.94 107.92H135.467C135.568 107.92 135.665 107.96 135.737 108.032C135.809 108.103 135.849 108.2 135.849 108.302C135.849 108.403 135.809 108.5 135.737 108.572C135.665 108.643 135.568 108.684 135.467 108.684ZM130.461 108.684H128.934C128.833 108.684 128.736 108.643 128.664 108.572C128.592 108.5 128.552 108.403 128.552 108.302C128.552 108.2 128.592 108.103 128.664 108.032C128.736 107.96 128.833 107.92 128.934 107.92H130.461C130.563 107.92 130.66 107.96 130.731 108.032C130.803 108.103 130.843 108.2 130.843 108.302C130.843 108.403 130.803 108.5 130.731 108.572C130.66 108.643 130.563 108.684 130.461 108.684ZM125.456 108.684H123.928C123.827 108.684 123.73 108.643 123.658 108.572C123.587 108.5 123.547 108.403 123.547 108.302C123.547 108.2 123.587 108.103 123.658 108.032C123.73 107.96 123.827 107.92 123.928 107.92H125.456C125.557 107.92 125.654 107.96 125.726 108.032C125.797 108.103 125.837 108.2 125.837 108.302C125.837 108.403 125.797 108.5 125.726 108.572C125.654 108.643 125.557 108.684 125.456 108.684ZM120.45 108.684H118.923C118.821 108.684 118.724 108.643 118.653 108.572C118.581 108.5 118.541 108.403 118.541 108.302C118.541 108.2 118.581 108.103 118.653 108.032C118.724 107.96 118.821 107.92 118.923 107.92H120.45C120.551 107.92 120.648 107.96 120.72 108.032C120.792 108.103 120.832 108.2 120.832 108.302C120.832 108.403 120.792 108.5 120.72 108.572C120.648 108.643 120.551 108.684 120.45 108.684ZM115.448 108.684H113.921C113.82 108.684 113.722 108.643 113.651 108.572C113.579 108.5 113.539 108.403 113.539 108.302C113.539 108.2 113.579 108.103 113.651 108.032C113.722 107.96 113.82 107.92 113.921 107.92H115.448C115.549 107.92 115.646 107.96 115.718 108.032C115.79 108.103 115.83 108.2 115.83 108.302C115.83 108.403 115.79 108.5 115.718 108.572C115.646 108.643 115.549 108.684 115.448 108.684ZM110.442 108.684H108.915C108.814 108.684 108.717 108.643 108.645 108.572C108.574 108.5 108.533 108.403 108.533 108.302C108.533 108.2 108.574 108.103 108.645 108.032C108.717 107.96 108.814 107.92 108.915 107.92H110.442C110.544 107.92 110.641 107.96 110.712 108.032C110.784 108.103 110.824 108.2 110.824 108.302C110.824 108.403 110.784 108.5 110.712 108.572C110.641 108.643 110.544 108.684 110.442 108.684ZM105.437 108.684H103.909C103.808 108.684 103.711 108.643 103.639 108.572C103.568 108.5 103.528 108.403 103.528 108.302C103.528 108.2 103.568 108.103 103.639 108.032C103.711 107.96 103.808 107.92 103.909 107.92H105.437C105.538 107.92 105.635 107.96 105.707 108.032C105.778 108.103 105.819 108.2 105.819 108.302C105.819 108.403 105.778 108.5 105.707 108.572C105.635 108.643 105.538 108.684 105.437 108.684ZM100.435 108.684H98.9076C98.8064 108.684 98.7093 108.643 98.6377 108.572C98.566 108.5 98.5258 108.403 98.5258 108.302C98.5258 108.2 98.566 108.103 98.6377 108.032C98.7093 107.96 98.8064 107.92 98.9076 107.92H100.435C100.536 107.92 100.633 107.96 100.705 108.032C100.777 108.103 100.817 108.2 100.817 108.302C100.817 108.403 100.777 108.5 100.705 108.572C100.633 108.643 100.536 108.684 100.435 108.684ZM95.4293 108.684H93.902C93.8007 108.684 93.7036 108.643 93.632 108.572C93.5604 108.5 93.5202 108.403 93.5202 108.302C93.5202 108.2 93.5604 108.103 93.632 108.032C93.7036 107.96 93.8007 107.92 93.902 107.92H95.4293C95.5305 107.92 95.6276 107.96 95.6992 108.032C95.7709 108.103 95.8111 108.2 95.8111 108.302C95.8111 108.403 95.7709 108.5 95.6992 108.572C95.6276 108.643 95.5305 108.684 95.4293 108.684Z" fill="black"/>
<path d="M179.751 108.684H178.987C178.886 108.684 178.789 108.643 178.717 108.572C178.645 108.5 178.605 108.403 178.605 108.302C178.605 108.2 178.645 108.103 178.717 108.032C178.789 107.96 178.886 107.92 178.987 107.92H179.751C179.852 107.92 179.949 107.96 180.021 108.032C180.092 108.103 180.132 108.2 180.132 108.302C180.132 108.403 180.092 108.5 180.021 108.572C179.949 108.643 179.852 108.684 179.751 108.684Z" fill="black"/>
</g>
</g>
<path d="M122.275 96.8934V96.8208C122.275 93.3844 124.631 90.5322 128.11 90.5322C131.588 90.5322 133.875 93.3768 133.875 96.7521V96.8208C133.875 100.23 131.554 103.113 128.041 103.113C124.597 103.113 122.275 100.265 122.275 96.8934ZM130.744 96.8934V96.8208C130.744 94.8544 129.622 93.2393 128.041 93.2393C126.388 93.2393 125.403 94.8544 125.403 96.7521V96.8208C125.403 98.8254 126.548 100.406 128.11 100.406C129.763 100.398 130.744 98.791 130.744 96.8934ZM126.319 113.312L142.447 91.2768C142.573 91.0756 142.75 90.9113 142.96 90.8007C143.17 90.69 143.405 90.6369 143.642 90.6468C143.825 90.6432 144.006 90.676 144.176 90.7432C144.346 90.8104 144.501 90.9107 144.631 91.0382C144.762 91.1658 144.866 91.318 144.938 91.4861C145.009 91.6542 145.046 91.8349 145.047 92.0175C145.04 92.3467 144.93 92.6656 144.734 92.9301L128.587 114.957C128.451 115.157 128.267 115.319 128.052 115.429C127.838 115.539 127.599 115.593 127.357 115.587C127.177 115.59 126.997 115.557 126.829 115.489C126.662 115.421 126.509 115.321 126.381 115.193C126.253 115.065 126.152 114.912 126.085 114.745C126.017 114.577 125.984 114.397 125.987 114.217C125.999 113.885 126.115 113.566 126.319 113.304V113.312ZM137.143 109.493V109.421C137.143 105.984 139.495 103.132 142.974 103.132C146.452 103.132 148.739 105.977 148.739 109.352V109.421C148.739 112.831 146.384 115.713 142.905 115.713C139.427 115.713 137.143 112.846 137.143 109.474V109.493ZM145.612 109.493V109.421C145.612 107.455 144.486 105.839 142.905 105.839C141.252 105.839 140.271 107.455 140.271 109.352V109.421C140.271 111.425 141.393 113.006 142.974 113.006C144.623 112.999 145.612 111.372 145.612 109.474V109.493Z" fill="white"/>
<path d="M141.523 53.7111C141.479 53.7111 140.601 47.5018 139.56 39.8283C138.519 32.1549 137.713 25.9297 137.76 25.9233C137.807 25.917 138.682 32.1326 139.723 39.8061C140.764 47.4796 141.57 53.7047 141.523 53.7111Z" fill="#263238"/>
<path d="M167.377 19.7168C167.372 19.7496 167.362 19.7816 167.349 19.8121L167.249 20.0884L166.85 21.146L165.358 25.0272C164.103 28.305 162.385 32.8405 160.56 37.8809C158.735 42.9214 157.151 47.5045 156.023 50.8299C155.461 52.4847 155.007 53.8282 154.69 54.7715C154.533 55.2256 154.411 55.5845 154.323 55.8418C154.282 55.9561 154.248 56.0451 154.223 56.1181C154.213 56.1501 154.201 56.181 154.185 56.2102C154.187 56.1765 154.195 56.1433 154.207 56.1118L154.292 55.8291C154.37 55.5718 154.483 55.1939 154.627 54.7492C154.922 53.8123 155.361 52.4593 155.913 50.7918C157.017 47.4569 158.585 42.8515 160.41 37.8238C162.235 32.796 163.962 28.251 165.248 24.9828C165.875 23.3503 166.421 22.029 166.794 21.1206L167.223 20.0757C167.271 19.9645 167.311 19.8756 167.339 19.8057L167.377 19.7168Z" fill="#263238"/>
<path d="M185.903 44.1605C185.931 44.1954 181.444 47.7558 175.869 52.1007C170.293 56.4456 165.772 59.9584 165.743 59.9203C165.715 59.8822 170.205 56.3249 175.778 51.98C181.35 47.6351 185.878 44.1224 185.903 44.1605Z" fill="#263238"/>
<path d="M130.639 54.87C130.601 54.8985 128.867 52.6467 126.763 49.8644C124.659 47.0821 122.978 44.7827 123 44.7604C123.022 44.7382 124.772 46.9837 126.876 49.766C128.98 52.5482 130.673 54.8414 130.639 54.87Z" fill="#263238"/>
<path d="M183.783 72.377C183.783 72.4214 181.021 71.6465 177.64 70.6492C174.26 69.6519 171.532 68.807 171.544 68.7626C171.557 68.7181 174.307 69.4931 177.687 70.4904C181.068 71.4877 183.799 72.3325 183.783 72.377Z" fill="#263238"/>
<path d="M63 69.7168C74.0457 69.7168 83 59.1955 83 46.2168C83 33.2381 74.0457 22.7168 63 22.7168C51.9543 22.7168 43 33.2381 43 46.2168C43 59.1955 51.9543 69.7168 63 69.7168Z" fill="#EB2938"/>
<path d="M20 63.7168C31.0457 63.7168 40 53.1955 40 40.2168C40 27.2381 31.0457 16.7168 20 16.7168C8.9543 16.7168 0 27.2381 0 40.2168C0 53.1955 8.9543 63.7168 20 63.7168Z" fill="#8CD7F8"/>
<path d="M71.9167 25.7168C74.3302 29.5429 75.7597 34.2435 75.7597 39.3267C75.7597 52.1897 66.6257 62.6112 55.3382 62.6112C51.9779 62.6112 48.8033 61.682 46 60.0423C49.713 65.9089 55.7466 69.7168 62.5785 69.7168C73.866 69.7168 83 59.2953 83 46.4323C83 37.3955 78.4887 29.5793 71.9167 25.7168Z" fill="#EB2938"/>
<path d="M28.9167 19.7168C31.3302 23.5429 32.7597 28.2435 32.7597 33.3267C32.7597 46.1897 23.6257 56.6112 12.3382 56.6112C8.97792 56.6112 5.80331 55.682 3 54.0423C6.713 59.9089 12.7466 63.7168 19.5785 63.7168C30.866 63.7168 40 53.2953 40 40.4323C40 31.3955 35.4887 23.5793 28.9167 19.7168Z" fill="#90CAF9"/>
<path d="M61.9463 20.7783C62.2537 18.319 63.4114 22.0515 63.4114 22.9759" stroke="#638E36" stroke-width="2" stroke-linecap="round"/>
<path d="M17.994 16.3832C17.994 12.0881 16.1085 4.35065 19.4591 1" stroke="#8CD7F8" stroke-width="2" stroke-linecap="round"/>
<path d="M63.5551 22.2503C62.5761 22.0327 62.4117 19.0904 62.3787 18.4132C62.3388 17.5949 62.3499 16.7587 62.3677 15.9395C62.4247 13.3161 63.832 11.2304 65.3362 9.18896" stroke="#638E36" stroke-linecap="round"/>
<path d="M17.8404 16.3134C17.8404 15.5787 18.2362 15.2566 18.2362 14.6312C18.2362 14.0483 17.3379 13.9574 17.0048 14.2904C16.5618 14.7335 16.9689 15.8157 17.3567 16.2034C17.6671 16.5139 18.8228 16.3134 19.2257 16.3134" stroke="#90CAF9" stroke-width="2" stroke-linecap="round"/>
<path d="M129.78 145.82C166.109 145.82 195.56 143.111 195.56 139.769C195.56 136.426 166.109 133.717 129.78 133.717C93.4507 133.717 64 136.426 64 139.769C64 143.111 93.4507 145.82 129.78 145.82Z" fill="#EBEBEB"/>
<g opacity="0.8" clip-path="url(#clip0_2002_10)">
<path d="M160.159 13.3L134.207 26.2163L143.115 44.1141L169.067 31.1978L160.159 13.3Z" fill="#007579"/>
<path d="M156.091 37.6559C155.855 37.1812 155.44 36.8198 154.937 36.6512C154.434 36.4826 153.885 36.5206 153.41 36.7569L144.014 41.4335L135.106 23.5356L140.028 21.086L148.045 37.194L150.73 35.8579C151.679 35.3854 152.777 35.3093 153.783 35.6465C154.788 35.9837 155.618 36.7065 156.091 37.6559Z" fill="#FF6243"/>
<path d="M157.479 12.4009L166.386 30.2987L156.99 34.9753C156.515 35.2115 156.154 35.6267 155.985 36.1294C155.817 36.6321 155.855 37.1812 156.091 37.6559L147.183 19.758C146.947 19.2834 146.909 18.7343 147.078 18.2316C147.246 17.7289 147.607 17.3137 148.082 17.0775L157.479 12.4009Z" fill="#FFA733"/>
<path d="M147.183 19.7582L156.091 37.656C155.618 36.7067 154.788 35.9839 153.783 35.6467C152.777 35.3095 151.679 35.3855 150.73 35.858L148.045 37.1942L139.137 19.2964L141.822 17.9602C142.771 17.4877 143.87 17.4117 144.875 17.7489C145.88 18.0861 146.711 18.8089 147.183 19.7582Z" fill="#FFDAAA"/>
<path d="M148.489 39.2068L150.27 42.7864L148.26 42.1121L147.585 44.1225L145.804 40.543L148.489 39.2068Z" fill="#006DF0"/>
<path d="M164.597 31.1897L161.912 32.5259L163.693 36.1054L166.378 34.7693L164.597 31.1897Z" fill="#46F8FF"/>
<path d="M155.689 13.2916L159.029 20.0033L155.901 19.327L154.555 22.2302L151.214 15.5186L155.689 13.2916Z" fill="#FFDA44"/>
<path d="M164.597 31.1897L161.912 32.5259L162.135 32.9733L164.819 31.6372L164.597 31.1897Z" fill="#00D7DF"/>
<path d="M148.489 39.2068L145.804 40.543L146.027 40.9904L148.711 39.6542L148.489 39.2068Z" fill="#005ECE"/>
</g>
<g opacity="0.6" clip-path="url(#clip1_2002_10)">
<mask id="mask0_2002_10" style="mask-type:luminance" maskUnits="userSpaceOnUse" x="199" y="46" width="21" height="22">
<path d="M200.36 46.5897L219.907 47.5298L218.967 67.0763L199.42 66.1362L200.36 46.5897Z" fill="white"/>
</mask>
<g mask="url(#mask0_2002_10)">
<path d="M218.21 61.3686C218.184 61.9143 217.942 62.4272 217.537 62.7945C217.133 63.1618 216.599 63.3534 216.053 63.3272L202.679 62.6839C202.134 62.6577 201.621 62.4157 201.254 62.0113C200.886 61.6069 200.695 61.0731 200.721 60.5274L201.208 50.4008C201.263 49.2645 204.343 47.2967 205.479 47.3514L216.088 47.8617C217.68 47.9382 218.796 49.1844 218.72 50.7594L218.21 61.3686Z" fill="#226699"/>
<path d="M217.082 63.3766C217.056 63.9223 216.814 64.4352 216.41 64.8025C216.005 65.1698 215.471 65.3614 214.926 65.3351L203.609 64.7909C203.064 64.7646 202.551 64.5227 202.183 64.1182C201.816 63.7138 201.624 63.1801 201.651 62.6344L202.244 50.2892C202.346 48.1704 202.333 48.2311 204.915 48.3553L215.717 48.8749C216.263 48.9011 216.776 49.1431 217.143 49.5475C217.511 49.9519 217.702 50.4857 217.676 51.0314L217.082 63.3766Z" fill="#CCD6DD"/>
<path d="M216.029 63.8416C216.009 64.2509 215.828 64.6356 215.524 64.9111C215.221 65.1865 214.821 65.3302 214.411 65.3106L202.066 64.7168C201.657 64.6971 201.272 64.5157 200.997 64.2123C200.721 63.909 200.578 63.5087 200.597 63.0994L201.191 50.7542C201.211 50.345 201.392 49.9603 201.695 49.6848C201.999 49.4093 202.399 49.2656 202.808 49.2853L215.154 49.8791C215.563 49.8988 215.947 50.0802 216.223 50.3835C216.498 50.6868 216.642 51.0872 216.622 51.4964L216.029 63.8416Z" fill="#E1E8ED"/>
<path d="M216.004 64.3562C215.978 64.9019 215.736 65.4148 215.331 65.7821C214.927 66.1494 214.393 66.341 213.847 66.3148L203.045 65.7952C202.5 65.769 201.987 65.5271 201.619 65.1226C201.252 64.7182 201.061 64.1844 201.087 63.6388L201.631 52.3223C201.657 51.7766 201.899 51.2637 202.304 50.8964C202.708 50.5291 203.242 50.3375 203.788 50.3638L214.59 50.8833C215.135 50.9095 215.648 51.1515 216.016 51.5559C216.383 51.9603 216.574 52.4941 216.548 53.0398L216.004 64.3562Z" fill="#3B88C3"/>
<path d="M214.975 64.3067C214.949 64.8524 214.707 65.3653 214.303 65.7326C213.898 66.0999 213.364 66.2916 212.819 66.2653L203.045 65.7952C202.5 65.769 201.987 65.5271 201.619 65.1226C201.252 64.7182 201.061 64.1844 201.087 63.6388L201.582 53.3511C201.608 52.8054 201.85 52.2925 202.254 51.9252C202.659 51.5579 203.192 51.3663 203.738 51.3925L213.684 51.8709C214.82 51.9255 215.533 52.7105 215.478 53.8468L214.975 64.3067Z" fill="#55ACEE"/>
<path d="M203.788 50.3636C202.92 50.3219 202.945 49.3321 203.341 48.9243C203.792 48.4609 204.465 48.3339 205.655 48.3911L206.458 48.4298L206.508 47.401L205.109 47.3337C203.068 47.2356 201.302 48.4396 201.231 49.9184L200.572 63.6139C200.546 64.1595 200.738 64.6933 201.105 65.0977C201.472 65.5022 201.985 65.7441 202.531 65.7703L203.56 65.8198L204.302 50.3883L203.788 50.3636Z" fill="#226699"/>
</g>
</g>
<defs>
<filter id="filter0_d_2002_10" x="76" y="74.7168" width="117.392" height="63.6313" filterUnits="userSpaceOnUse" color-interpolation-filters="sRGB">
<feFlood flood-opacity="0" result="BackgroundImageFix"/>
<feColorMatrix in="SourceAlpha" type="matrix" values="0 0 0 0 0 0 0 0 0 0 0 0 0 0 0 0 0 0 127 0" result="hardAlpha"/>
<feOffset dy="4"/>
<feGaussianBlur stdDeviation="2"/>
<feComposite in2="hardAlpha" operator="out"/>
<feColorMatrix type="matrix" values="0 0 0 0 0 0 0 0 0 0 0 0 0 0 0 0 0 0 0.25 0"/>
<feBlend mode="normal" in2="BackgroundImageFix" result="effect1_dropShadow_2002_10"/>
<feBlend mode="normal" in="SourceGraphic" in2="effect1_dropShadow_2002_10" result="shape"/>
</filter>
<clipPath id="clip0_2002_10">
<rect width="31.9872" height="31.9872" fill="white" transform="translate(129.524 20.1729) rotate(-26.4597)"/>
</clipPath>
<clipPath id="clip1_2002_10">
<rect width="19.5691" height="19.5691" fill="white" transform="translate(200.36 46.5898) rotate(2.7536)"/>
</clipPath>
</defs>
</svg>
