<svg width="79" height="73" viewBox="0 0 79 73" fill="none" xmlns="http://www.w3.org/2000/svg">
<g filter="url(#filter0_d_88_27422)">
<path d="M39.2408 25.1987C39.8271 25.1987 40.3025 24.7233 40.3025 24.1369C40.3025 23.5506 39.8271 23.0752 39.2408 23.0752C38.6544 23.0752 38.179 23.5506 38.179 24.1369C38.179 24.7233 38.6544 25.1987 39.2408 25.1987Z" fill="black"/>
<path d="M39.2408 46.9999C39.8271 46.9999 40.3025 46.5246 40.3025 45.9382C40.3025 45.3518 39.8271 44.8765 39.2408 44.8765C38.6544 44.8765 38.179 45.3518 38.179 45.9382C38.179 46.5246 38.6544 46.9999 39.2408 46.9999Z" fill="black"/>
<path d="M69.3758 35.6323C69.9622 35.6323 70.4376 35.1569 70.4376 34.5705C70.4376 33.9841 69.9622 33.5088 69.3758 33.5088C68.7894 33.5088 68.3141 33.9841 68.3141 34.5705C68.3141 35.1569 68.7894 35.6323 69.3758 35.6323Z" fill="black"/>
<path d="M9.10575 35.6323C9.69213 35.6323 10.1675 35.1569 10.1675 34.5705C10.1675 33.9841 9.69213 33.5088 9.10575 33.5088C8.51936 33.5088 8.04401 33.9841 8.04401 34.5705C8.04401 35.1569 8.51936 35.6323 9.10575 35.6323Z" fill="black"/>
<path d="M55.6355 32.6777C56.2219 32.6777 56.6972 32.2023 56.6972 31.6159C56.6972 31.0296 56.2219 30.5542 55.6355 30.5542C55.0491 30.5542 54.5737 31.0296 54.5737 31.6159C54.5737 32.2023 55.0491 32.6777 55.6355 32.6777Z" fill="black"/>
<path d="M22.846 32.6777C23.4324 32.6777 23.9078 32.2023 23.9078 31.6159C23.9078 31.0296 23.4324 30.5542 22.846 30.5542C22.2597 30.5542 21.7843 31.0296 21.7843 31.6159C21.7843 32.2023 22.2597 32.6777 22.846 32.6777Z" fill="black"/>
<path d="M69.8189 55.5645H8.66264C6.90349 55.5645 5.47742 56.9905 5.47742 58.7497C5.47742 60.5088 6.90349 61.9349 8.66264 61.9349H69.8189C71.5781 61.9349 73.0042 60.5088 73.0042 58.7497C73.0042 56.9905 71.5781 55.5645 69.8189 55.5645Z" fill="#FED030"/>
<path d="M69.8189 55.5645H67.6954C68.5402 55.5645 69.3504 55.9 69.9477 56.4974C70.5451 57.0947 70.8807 57.9049 70.8807 58.7497C70.8807 59.5945 70.5451 60.4046 69.9477 61.002C69.3504 61.5993 68.5402 61.9349 67.6954 61.9349H69.8189C70.6637 61.9349 71.4739 61.5993 72.0712 61.002C72.6686 60.4046 73.0041 59.5945 73.0041 58.7497C73.0041 57.9049 72.6686 57.0947 72.0712 56.4974C71.4739 55.9 70.6637 55.5645 69.8189 55.5645Z" fill="#F8BE32"/>
<path d="M9.40586 55.5642C8.52155 50.6472 7.63582 45.7306 6.74868 40.8145L4.06177 28.4544L13.6528 32.489L13.6245 32.54C13.2009 33.0331 12.9276 33.6374 12.8372 34.2812C12.7467 34.925 12.8429 35.5812 13.1142 36.1719C13.3855 36.7627 13.8206 37.2632 14.3679 37.6141C14.9152 37.965 15.5516 38.1515 16.2017 38.1515C16.8518 38.1515 17.4883 37.965 18.0355 37.6141C18.5828 37.2632 19.0179 36.7627 19.2892 36.1719C19.5606 35.5812 19.6567 34.925 19.5662 34.2812C19.4758 33.6374 19.2025 33.0331 18.7789 32.54L18.7492 32.489C19.3834 28.8366 20.0181 25.1838 20.6532 21.5305L27.1016 30.7903C26.8973 31.4117 26.8326 32.0705 26.9119 32.7198C27.195 34.9325 29.1231 36.0791 29.3496 36.2094C30.1925 36.6862 31.1528 36.9155 32.1202 36.8709C33.0876 36.8264 34.0228 36.5097 34.8183 35.9574C37.0451 34.3832 36.9602 31.6765 36.9418 31.3834C36.8342 29.192 35.3548 27.2171 33.1719 26.3309L39.204 10.5464H39.2776L45.3055 26.3309C43.1225 27.2171 41.6432 29.192 41.5356 31.3834C41.5214 31.6765 41.4365 34.3832 43.659 35.9574C44.4547 36.5095 45.3899 36.8259 46.3573 36.8702C47.3247 36.9146 48.285 36.685 49.1277 36.208C49.3542 36.0777 51.2824 34.9339 51.5655 32.7184C51.6448 32.0691 51.58 31.4103 51.3758 30.7888L57.8241 21.529C58.4583 25.1814 59.093 28.8343 59.7281 32.4876L59.6984 32.5386C59.2748 33.0317 59.0016 33.636 58.9111 34.2798C58.8206 34.9236 58.9168 35.5798 59.1881 36.1705C59.4594 36.7613 59.8945 37.2618 60.4418 37.6127C60.9891 37.9636 61.6255 38.1501 62.2756 38.1501C62.9257 38.1501 63.5622 37.9636 64.1094 37.6127C64.6567 37.2618 65.0918 36.7613 65.3631 36.1705C65.6345 35.5798 65.7306 34.9236 65.6401 34.2798C65.5497 33.636 65.2764 33.0317 64.8528 32.5386L64.8245 32.4876L74.4198 28.4544L71.7301 40.8216C70.8439 45.7386 69.9581 50.6552 69.0729 55.5713L9.40586 55.5642Z" fill="#FFE178"/>
<path d="M34.0708 26.7797C33.8695 26.4391 33.6348 26.1195 33.37 25.8255C33.3049 25.994 33.2412 26.1639 33.1761 26.3324C33.4853 26.4583 33.7845 26.6079 34.0708 26.7797ZM57.6089 30.3656L57.5791 30.4165C57.2171 30.8378 56.9638 31.3415 56.8416 31.8834C56.7193 32.4253 56.7318 32.9889 56.878 33.5248C57.0241 34.0608 57.2994 34.5527 57.6798 34.9575C58.0602 35.3624 58.5341 35.6678 59.0599 35.847C58.8699 35.2877 58.829 34.6885 58.9412 34.1086C59.0534 33.5287 59.3149 32.988 59.6998 32.54L59.7295 32.489C59.0944 28.8366 58.4606 25.1838 57.8283 21.5305C57.3611 22.2034 56.893 22.8753 56.424 23.5463L57.6089 30.3656ZM43.1819 24.2075C40.999 25.0937 39.5196 27.0685 39.412 29.2599C39.3979 29.553 39.3129 32.2597 41.5355 33.8339C41.7302 33.9712 41.9346 34.0942 42.1471 34.202C41.7148 33.3268 41.5034 32.3591 41.5313 31.3834C41.6389 29.192 43.1182 27.2171 45.3012 26.3309L39.2776 10.5464H39.2039L38.5839 12.1744L43.1819 24.2075Z" fill="#F8BE32"/>
<path d="M71.5743 29.6467C70.9194 32.6668 70.2644 35.6816 69.6094 38.6913L67.3713 51.1123C67.2533 51.7662 66.9092 52.3577 66.3991 52.7834C65.889 53.2092 65.2454 53.442 64.581 53.441H9.02362L9.40585 55.5645H69.0757L71.7329 40.8148L74.4226 28.4477L71.5743 29.6467ZM24.9781 28.6671C24.7738 29.2885 24.7091 29.9473 24.7884 30.5966C25.0715 32.8093 26.9996 33.956 27.2261 34.0862C27.2742 34.1131 27.3224 34.1372 27.3677 34.1627C27.1287 33.7134 26.9728 33.2247 26.9076 32.7201C26.8283 32.0708 26.8931 31.412 27.0973 30.7906L20.6532 21.5308L20.5244 22.2712L24.9781 28.6671ZM10.7111 33.0896C10.7964 33.7151 11.0544 34.3044 11.4559 34.7915C11.8575 35.2786 12.3869 35.6442 12.9846 35.8473C12.7946 35.288 12.7537 34.6888 12.8659 34.1089C12.9781 33.529 13.2396 32.9883 13.6245 32.5403L13.6528 32.4893L10.9277 31.3441C10.7035 31.8968 10.6288 32.4988 10.7111 33.0896Z" fill="#F8BE32"/>
<path d="M39.2408 50.4679C41.7818 50.4679 43.8416 48.408 43.8416 45.867C43.8416 43.326 41.7818 41.2661 39.2408 41.2661C36.6998 41.2661 34.6399 43.326 34.6399 45.867C34.6399 48.408 36.6998 50.4679 39.2408 50.4679Z" fill="#EB304A"/>
<path d="M39.2408 41.2661C38.8832 41.2663 38.5269 41.3081 38.179 41.3907C39.1863 41.63 40.0834 42.202 40.7254 43.0143C41.3673 43.8266 41.7165 44.8317 41.7165 45.867C41.7165 46.9023 41.3673 47.9074 40.7254 48.7197C40.0834 49.532 39.1863 50.104 38.179 50.3433C38.8109 50.4934 39.4674 50.508 40.1053 50.3862C40.7432 50.2644 41.3481 50.009 41.8802 49.6366C42.4123 49.2643 42.8596 48.7835 43.1926 48.2259C43.5255 47.6683 43.7367 47.0466 43.8121 46.4015C43.8876 45.7565 43.8256 45.1027 43.6303 44.4834C43.435 43.864 43.1108 43.293 42.679 42.8079C42.2471 42.3228 41.7175 41.9346 41.1249 41.6689C40.5323 41.4031 39.8902 41.2659 39.2408 41.2661Z" fill="#E4222E"/>
<path d="M63.4484 47.9906C64.6212 47.9906 65.5719 47.0399 65.5719 45.8671C65.5719 44.6944 64.6212 43.7437 63.4484 43.7437C62.2757 43.7437 61.325 44.6944 61.325 45.8671C61.325 47.0399 62.2757 47.9906 63.4484 47.9906Z" fill="#EB304A"/>
<path d="M63.4485 43.7437C63.2947 43.744 63.1413 43.7611 62.9912 43.7946C63.4625 43.8998 63.8838 44.1624 64.1858 44.5391C64.4877 44.9159 64.6523 45.3843 64.6523 45.8671C64.6523 46.35 64.4877 46.8184 64.1858 47.1952C63.8838 47.5719 63.4625 47.8345 62.9912 47.9397C63.2827 48.0047 63.5847 48.0075 63.8774 47.9479C64.1701 47.8883 64.4469 47.7676 64.6898 47.5937C64.9327 47.4198 65.1361 47.1966 65.2869 46.9388C65.4376 46.6809 65.5322 46.3941 65.5646 46.0972C65.597 45.8002 65.5663 45.4998 65.4746 45.2155C65.383 44.9312 65.2324 44.6695 65.0327 44.4474C64.833 44.2252 64.5886 44.0478 64.3156 43.9265C64.0427 43.8052 63.7472 43.7429 63.4485 43.7437Z" fill="#E4222E"/>
<path d="M15.0331 47.9906C16.2059 47.9906 17.1566 47.0399 17.1566 45.8671C17.1566 44.6944 16.2059 43.7437 15.0331 43.7437C13.8603 43.7437 12.9096 44.6944 12.9096 45.8671C12.9096 47.0399 13.8603 47.9906 15.0331 47.9906Z" fill="#EB304A"/>
<path d="M26.4999 50.6505L22.8461 45.867L26.4999 41.0835L30.1537 45.867L26.4999 50.6505Z" fill="#1CABE1"/>
<path d="M26.4999 41.0835L25.4381 42.4694L27.3747 45.0034C27.5632 45.2502 27.6654 45.5522 27.6654 45.8627C27.6654 46.1733 27.5632 46.4752 27.3747 46.7221L25.4381 49.2646L26.4999 50.6547L30.1537 45.867L26.4999 41.0835Z" fill="#199AD5"/>
<path d="M51.9816 50.6505L48.3278 45.867L51.9816 41.0835L55.6354 45.867L51.9816 50.6505Z" fill="#1CABE1"/>
<path d="M51.9817 41.0835L50.9199 42.4694L52.8565 45.0034C53.045 45.2502 53.1472 45.5522 53.1472 45.8627C53.1472 46.1733 53.045 46.4752 52.8565 46.7221L50.9199 49.2646L51.9817 50.6547L55.6355 45.867L51.9817 41.0835Z" fill="#199AD5"/>
<path d="M39.2408 25.1987C39.8271 25.1987 40.3025 24.7233 40.3025 24.1369C40.3025 23.5506 39.8271 23.0752 39.2408 23.0752C38.6544 23.0752 38.179 23.5506 38.179 24.1369C38.179 24.7233 38.6544 25.1987 39.2408 25.1987Z" fill="#EB304A"/>
<path d="M39.2408 46.9999C39.8271 46.9999 40.3025 46.5246 40.3025 45.9382C40.3025 45.3518 39.8271 44.8765 39.2408 44.8765C38.6544 44.8765 38.179 45.3518 38.179 45.9382C38.179 46.5246 38.6544 46.9999 39.2408 46.9999Z" fill="white"/>
<path d="M69.3758 35.6323C69.9622 35.6323 70.4376 35.1569 70.4376 34.5705C70.4376 33.9841 69.9622 33.5088 69.3758 33.5088C68.7894 33.5088 68.3141 33.9841 68.3141 34.5705C68.3141 35.1569 68.7894 35.6323 69.3758 35.6323Z" fill="#EB304A"/>
<path d="M9.10575 35.6323C9.69213 35.6323 10.1675 35.1569 10.1675 34.5705C10.1675 33.9841 9.69213 33.5088 9.10575 33.5088C8.51936 33.5088 8.04401 33.9841 8.04401 34.5705C8.04401 35.1569 8.51936 35.6323 9.10575 35.6323Z" fill="#EB304A"/>
<path d="M55.6355 32.6777C56.2219 32.6777 56.6972 32.2023 56.6972 31.6159C56.6972 31.0296 56.2219 30.5542 55.6355 30.5542C55.0491 30.5542 54.5737 31.0296 54.5737 31.6159C54.5737 32.2023 55.0491 32.6777 55.6355 32.6777Z" fill="#1CABE1"/>
<path d="M22.846 32.6777C23.4324 32.6777 23.9078 32.2023 23.9078 31.6159C23.9078 31.0296 23.4324 30.5542 22.846 30.5542C22.2597 30.5542 21.7843 31.0296 21.7843 31.6159C21.7843 32.2023 22.2597 32.6777 22.846 32.6777Z" fill="#1CABE1"/>
<path d="M15.0331 43.7437C14.8792 43.744 14.7259 43.7611 14.5758 43.7946C15.0471 43.8998 15.4684 44.1624 15.7704 44.5391C16.0723 44.9159 16.2369 45.3843 16.2369 45.8671C16.2369 46.35 16.0723 46.8184 15.7704 47.1952C15.4684 47.5719 15.0471 47.8345 14.5758 47.9397C14.8673 48.0047 15.1693 48.0075 15.462 47.9479C15.7547 47.8883 16.0315 47.7676 16.2744 47.5937C16.5173 47.4198 16.7207 47.1966 16.8715 46.9388C17.0222 46.6809 17.1168 46.3941 17.1492 46.0972C17.1816 45.8002 17.1509 45.4998 17.0592 45.2155C16.9676 44.9312 16.817 44.6695 16.6173 44.4474C16.4175 44.2252 16.1732 44.0478 15.9002 43.9265C15.6273 43.8052 15.3318 43.7429 15.0331 43.7437Z" fill="#E4222E"/>
</g>
<defs>
<filter id="filter0_d_88_27422" x="-1" y="0" width="80.4816" height="80.4814" filterUnits="userSpaceOnUse" color-interpolation-filters="sRGB">
<feFlood flood-opacity="0" result="BackgroundImageFix"/>
<feColorMatrix in="SourceAlpha" type="matrix" values="0 0 0 0 0 0 0 0 0 0 0 0 0 0 0 0 0 0 127 0" result="hardAlpha"/>
<feOffset dy="4"/>
<feGaussianBlur stdDeviation="2"/>
<feComposite in2="hardAlpha" operator="out"/>
<feColorMatrix type="matrix" values="0 0 0 0 0 0 0 0 0 0 0 0 0 0 0 0 0 0 0.25 0"/>
<feBlend mode="normal" in2="BackgroundImageFix" result="effect1_dropShadow_88_27422"/>
<feBlend mode="normal" in="SourceGraphic" in2="effect1_dropShadow_88_27422" result="shape"/>
</filter>
</defs>
</svg>
