<svg width="125" height="123" viewBox="0 0 125 123" fill="none" xmlns="http://www.w3.org/2000/svg">
<path d="M87.2953 34.2095C87.1453 33.7195 88.1353 33.3195 88.6753 33.1695C89.2153 33.0295 90.5553 33.1495 90.5853 33.5295C90.6153 33.8895 89.6453 34.3795 89.1052 34.5295C88.9052 34.5795 88.6253 34.6195 88.3353 34.6195C87.8653 34.6195 87.3853 34.5195 87.2953 34.2095ZM86.0753 31.0995C85.0553 32.5495 84.5453 34.3495 85.0153 36.0995C85.3153 37.2195 85.9753 38.0595 86.8153 38.5095C87.7353 38.9995 88.8952 38.9995 90.0552 38.3295C91.2952 37.6195 91.7752 36.7195 92.2452 35.4395C92.5452 36.0695 92.5652 36.8495 92.5252 37.5395C92.2952 41.6495 87.1553 43.1495 83.8153 43.5995C81.6553 43.8895 79.4653 43.9795 77.2853 43.8695C75.2653 43.7695 73.0553 43.2895 71.1053 44.0395C70.9053 44.1195 70.7153 44.2495 70.5853 44.4195C70.5253 44.4995 70.6052 44.6195 70.6952 44.5895C72.5752 44.1095 75.0053 44.5595 76.7053 45.3695C78.8253 46.3695 80.8953 47.4895 83.2953 47.4795C87.2653 47.4695 90.8953 45.0595 92.6553 41.5495C93.6053 39.6595 94.0353 37.4695 93.8453 35.3595C93.6653 33.3795 92.8553 30.7995 90.9053 29.8995C90.3553 29.6495 89.7653 29.5195 89.1853 29.5195C87.9853 29.5195 86.8153 30.0495 86.0753 31.0995Z" fill="white"/>
<path d="M97.4645 40.4109L96.1645 43.6509C96.1045 43.8109 96.1845 44.0009 96.3445 44.0609C97.2445 44.4109 98.3945 45.2909 99.3745 45.2909C100.644 45.2809 101.134 42.8009 101.484 41.9609C101.554 41.8009 101.474 41.6109 101.304 41.5509L97.8645 40.2309C97.8245 40.2209 97.7845 40.2109 97.7445 40.2109C97.6245 40.2209 97.5045 40.2909 97.4645 40.4109Z" fill="white"/>
<path d="M51.5146 61.9011C51.4346 61.1511 52.4946 61.0311 53.0146 61.0011C53.8246 60.9611 54.6646 61.0811 55.2646 61.6911C55.6346 62.0611 54.3146 62.4311 54.1246 62.4811C53.9646 62.5211 53.7146 62.5711 53.4146 62.6011C53.2646 62.6111 53.1046 62.6211 52.9446 62.6211C52.2746 62.6211 51.5746 62.4711 51.5146 61.9011ZM64.2946 58.0911C64.2146 57.3411 65.2746 57.2211 65.7946 57.1911C66.6046 57.1511 67.4446 57.2711 68.0446 57.8811C68.4146 58.2511 67.0946 58.6211 66.9046 58.6711C66.7446 58.7111 66.4946 58.7611 66.1946 58.7911C66.0446 58.8011 65.8846 58.8111 65.7246 58.8111C65.0446 58.8111 64.3546 58.6511 64.2946 58.0911ZM104.195 45.4211C103.745 45.5011 104.295 49.1311 103.555 51.4411C103.155 52.6711 100.655 55.9111 97.0646 55.9811C95.9146 56.0011 94.2046 55.4011 93.8546 54.1811C94.0246 53.9411 94.1346 53.7911 94.1346 53.7911C95.0946 52.4211 96.2146 51.9711 97.0146 52.2611C97.4846 52.4311 97.6546 52.8911 97.7846 52.8211C97.9946 52.7311 97.9146 52.1811 97.6346 51.5311C97.0046 50.0711 95.8046 47.5911 94.9046 46.6411C93.0346 44.6811 90.3846 45.8211 88.6046 47.0311C86.6246 48.3811 85.0346 50.1811 83.1846 51.6911C81.5946 52.9911 77.8246 56.2611 74.4446 53.6611C73.0946 52.6211 71.7946 50.9511 71.4546 50.3011C71.3146 50.0211 71.1546 50.2111 71.2046 50.4011C72.1346 53.9611 74.5846 57.8411 78.5146 58.4411C81.2646 58.8611 83.4946 57.1811 85.4746 55.4911C86.6046 54.5311 87.6546 53.4811 88.7746 52.5011C87.6246 54.1511 83.4246 61.0511 76.8246 62.7511C75.0746 63.0111 73.0646 62.9411 71.4846 62.0611C72.2446 58.5311 71.5646 54.1511 67.5946 53.3011C62.9946 52.3211 60.8746 57.4611 61.7546 61.2111C62.1846 63.0211 63.7746 64.1711 65.6046 63.5411C67.1946 62.9911 68.4446 61.5411 69.4146 60.2211C69.8346 59.6511 69.3746 62.3011 66.0846 65.6811C64.1746 67.6511 61.5546 68.9211 58.9346 69.1711C58.5546 69.2011 58.1746 69.2111 57.7846 69.1911C57.7846 69.1911 57.7646 69.1911 57.7446 69.1911C57.7146 69.1911 57.6746 69.1911 57.6746 69.1811C57.7046 69.1111 57.7746 69.0311 57.9046 68.7911C58.3246 67.8311 58.6746 66.8511 58.9146 65.9211C59.4246 63.9111 59.3446 61.4211 58.3246 59.5911C57.0946 57.3811 54.2846 56.4511 51.9746 57.5011C49.4846 58.6411 48.8146 61.3911 49.0046 63.9111C49.1146 65.4011 49.6846 67.0311 51.2646 67.4611C52.7446 67.8711 54.2646 66.9511 55.2546 65.9111C55.6546 65.4911 56.0046 65.0411 56.3546 64.5811C56.5046 64.3811 56.6546 64.1011 56.8546 63.9711C56.8646 64.0011 56.8546 64.0411 56.8546 64.0711C56.0246 67.5311 51.7446 70.5111 51.7446 70.5111C49.1746 72.2611 45.9546 73.8511 43.1046 72.4011C38.8346 70.2311 41.7746 61.7011 41.5646 61.5111C41.5646 61.5111 41.5246 61.4211 41.4646 61.5011C41.1946 61.7711 37.5646 68.4211 39.1346 73.4011C40.2046 76.7911 43.5546 78.8311 47.1046 78.2311C52.5746 77.2911 54.8946 73.2911 55.0546 73.4011C60.1846 77.1111 70.0446 68.9211 71.0546 64.1511C71.8346 65.0811 72.6946 65.9011 73.6846 66.5111C76.2646 68.1311 79.8346 67.9411 82.5046 66.6211C85.7246 65.0311 88.0846 62.0611 90.1646 59.2611C90.3546 59.0011 90.6546 58.5911 91.0146 58.1011V58.0911C91.3846 57.5711 91.8246 56.9711 92.2446 56.3811C92.4446 58.0811 93.1546 60.1411 95.6546 61.0311C97.1546 61.5711 98.8246 61.2211 100.195 60.5011C101.365 59.8911 104.315 57.8011 104.875 52.7511C105.305 48.9011 104.685 45.3711 104.205 45.3711C104.205 45.4211 104.195 45.4211 104.195 45.4211Z" fill="white"/>
<path d="M63.0347 46.5792C62.8647 47.3692 62.7547 48.1692 62.6247 48.9692C62.6247 48.9892 62.6147 49.0092 62.6047 49.0292C62.2147 48.6492 61.6147 48.4292 61.1447 48.2392C60.4047 47.9392 59.5847 47.8792 58.7847 47.9092C58.3847 47.9292 57.9347 47.9892 57.5547 47.8992V47.9092C58.2847 48.1792 58.9947 48.5392 59.6747 48.9192C59.7147 48.9392 59.7447 48.9592 59.7847 48.9792C59.6747 48.9292 59.4647 48.8792 59.1947 48.8292C58.8347 48.7592 58.4747 48.6992 58.1147 48.6292C58.2147 48.7392 58.2947 48.8492 58.3247 48.9992C58.3647 49.2092 58.3547 49.4192 58.3547 49.6292C58.3447 49.9492 58.3147 50.2692 58.2347 50.5792C58.2047 50.6892 58.1747 50.7992 58.1247 50.8992C58.0847 50.9992 58.0447 51.1092 58.0947 51.1992C58.1547 51.3092 58.3347 51.3292 58.4447 51.3692C58.5547 51.4092 58.6647 51.4492 58.7747 51.4892C58.9847 51.5692 59.1847 51.6492 59.3947 51.7392C59.9547 51.9792 60.4947 52.2592 61.0347 52.5392C61.2747 52.6592 61.6247 52.8692 61.9047 52.7792C62.2047 52.6792 62.3147 52.2592 62.3947 51.9992C62.4847 51.6992 62.5547 51.3892 62.6247 51.0792C62.6747 50.8692 62.7147 50.6692 62.7547 50.4592C62.8047 50.2292 62.8947 49.9792 62.9047 49.7392C62.9047 49.7192 62.9047 49.6892 62.9047 49.6592C66.6847 50.9892 66.3247 52.5792 67.2847 47.9792C67.2847 47.9092 67.2747 47.8492 67.2647 47.7192C67.1647 47.4692 65.5447 46.1992 64.1447 46.1992C63.7547 46.1992 63.3647 46.2992 63.0347 46.5792Z" fill="white"/>
<path d="M50.7847 51.3722C50.6147 52.1622 50.5047 52.9622 50.3747 53.7622C50.3747 53.7822 50.3647 53.8022 50.3547 53.8222C49.9647 53.4422 49.3647 53.2222 48.8947 53.0322C48.1547 52.7322 47.3347 52.6722 46.5347 52.7022C46.1347 52.7222 45.6847 52.7822 45.3047 52.6922V52.7022C46.0347 52.9722 46.7447 53.3322 47.4247 53.7122C47.4647 53.7322 47.4947 53.7522 47.5347 53.7722C47.4247 53.7222 47.2147 53.6722 46.9447 53.6222C46.5847 53.5522 46.2247 53.4922 45.8647 53.4222C45.9647 53.5322 46.0447 53.6422 46.0747 53.7922C46.1147 54.0022 46.1047 54.2122 46.1047 54.4222C46.0947 54.7422 46.0647 55.0622 45.9847 55.3722C45.9547 55.4822 45.9247 55.5922 45.8747 55.6922C45.8347 55.7922 45.7947 55.9022 45.8447 55.9922C45.9047 56.1022 46.0847 56.1222 46.1947 56.1622C46.3047 56.2022 46.4147 56.2422 46.5247 56.2822C46.7347 56.3622 46.9347 56.4422 47.1447 56.5322C47.7047 56.7722 48.2447 57.0522 48.7847 57.3322C49.0247 57.4522 49.3747 57.6622 49.6547 57.5722C49.9547 57.4722 50.0647 57.0522 50.1447 56.7922C50.2347 56.4922 50.3047 56.1822 50.3747 55.8722C50.4247 55.6622 50.4647 55.4622 50.5047 55.2522C50.5547 55.0222 50.6447 54.7722 50.6547 54.5322C50.6547 54.5122 50.6547 54.4822 50.6547 54.4522C54.4347 55.7822 54.0747 57.3722 55.0347 52.7722C55.0347 52.7022 55.0247 52.6422 55.0147 52.5122C54.9147 52.2622 53.2947 50.9922 51.8947 50.9922C51.5047 50.9922 51.1147 51.1022 50.7847 51.3722Z" fill="white"/>
<path d="M38.2054 61.2389C38.1954 61.2289 38.1954 61.1989 38.1954 61.1589C38.2654 59.8889 38.1454 58.6089 37.8254 57.3689C37.8154 57.3289 37.8154 57.2989 37.8154 57.2989C37.8254 57.2989 37.8354 57.3289 37.8454 57.3789C38.1654 58.6189 38.2854 59.9089 38.2154 61.1789C38.2154 61.2089 38.2054 61.2389 38.2054 61.2389ZM35.5354 51.9989C35.5154 51.9789 35.4854 51.9389 35.4654 51.9089C35.4554 51.8889 35.4554 51.8789 35.4754 51.8989C35.4954 51.9189 35.5354 51.9589 35.5454 51.9889C35.5554 52.0089 35.5554 52.0189 35.5554 52.0189C35.5454 52.0089 35.5454 52.0089 35.5354 51.9989ZM36.5054 39.9489C36.4854 39.9489 36.4854 39.9389 36.5054 39.9289C36.5254 39.9289 36.5454 39.9189 36.5654 39.9289C36.5854 39.9289 36.5854 39.9389 36.5654 39.9489C36.5554 39.9489 36.5354 39.9589 36.5154 39.9489C36.5154 39.9489 36.5154 39.9489 36.5054 39.9489ZM37.9654 39.3689L37.9754 39.3789C37.9854 39.4089 37.8954 39.4189 37.7854 39.4089C37.5754 39.4589 37.3654 39.5189 37.1554 39.5889H37.1654C37.1754 39.5989 37.1554 39.5989 37.1354 39.5989C37.1254 39.5989 37.1254 39.5989 37.1154 39.5989C36.8654 39.6889 36.6154 39.7889 36.3754 39.8989C36.8854 39.8489 37.4154 39.8889 37.9154 40.0289C37.9454 40.0389 37.9654 40.0389 37.9654 40.0489C37.9654 40.0589 37.9454 40.0589 37.9154 40.0489C37.7154 40.0089 37.5154 39.9489 37.3154 39.9289L37.0054 39.8989L36.8554 39.8889C36.8054 39.8889 36.7554 39.8889 36.7054 39.8989C36.7254 39.8989 36.7254 39.9089 36.7054 39.9189C36.6854 39.9189 36.6554 39.9289 36.6454 39.9189C36.6254 39.9189 36.6254 39.9089 36.6454 39.8989C36.5354 39.8989 36.4154 39.9089 36.3054 39.9289C36.2454 39.9589 36.1754 39.9889 36.1154 40.0289C36.2354 40.0189 36.3454 39.9989 36.4654 39.9989L36.6854 39.9689C36.7054 39.9689 36.7354 39.9689 36.7454 39.9789C36.7554 39.9889 36.7354 39.9889 36.7154 39.9989L36.6554 40.0089C36.7854 40.0089 36.8854 40.0289 36.8754 40.0689C36.8654 40.0989 36.7554 40.1389 36.6254 40.1389L36.3654 40.1489C36.2754 40.1489 36.1954 40.1789 36.1054 40.1889L35.8454 40.2289C35.8054 40.2389 35.7654 40.2489 35.7254 40.2589C35.6954 40.2789 35.6654 40.2989 35.6354 40.3189C36.0754 40.2189 36.5154 40.1989 36.9554 40.2289C36.9954 40.2289 37.0354 40.2489 37.0354 40.2589C37.0354 40.2689 36.9954 40.2789 36.9554 40.2789C36.8454 40.2689 36.7254 40.2789 36.6154 40.2889C36.5054 40.2989 36.3854 40.2989 36.2754 40.3189C36.0554 40.3689 35.8254 40.3989 35.6154 40.4789C35.4554 40.5189 35.2954 40.5889 35.1354 40.6589C34.9954 40.7689 34.8554 40.8789 34.7154 40.9989C34.7954 40.9489 34.8754 40.8989 34.9554 40.8489C35.0554 40.7889 35.1554 40.7489 35.2554 40.6989L35.4054 40.6189L35.5654 40.5589C35.6754 40.5189 35.7754 40.4789 35.8954 40.4489C36.0054 40.4289 36.1254 40.3989 36.2454 40.3789C36.2654 40.3789 36.2854 40.3789 36.2954 40.3789C36.2954 40.3889 36.2854 40.3889 36.2554 40.3989C36.1454 40.4189 36.0354 40.4489 35.9254 40.4689C35.8154 40.4989 35.7154 40.5389 35.6154 40.5789C35.4054 40.6489 35.2154 40.7689 35.0154 40.8589C34.8654 40.9589 34.7154 41.0389 34.5754 41.1389C34.5254 41.1889 34.4754 41.2389 34.4254 41.2889C34.9054 40.9489 35.4054 40.6789 35.9854 40.5489C36.0154 40.5389 36.0454 40.5389 36.0654 40.5489C36.0654 40.5489 36.0754 40.5389 36.0854 40.5389C36.1654 40.5089 36.2654 40.4789 36.3554 40.4589C36.3754 40.4489 36.3954 40.4589 36.4054 40.4589C36.4154 40.4689 36.4054 40.4689 36.3854 40.4789C36.2954 40.4989 36.2054 40.5289 36.1254 40.5589C36.1154 40.5689 36.0954 40.5689 36.0854 40.5689C36.0954 40.5789 36.0754 40.5889 36.0454 40.5989L35.9254 40.6289L35.8054 40.6789L35.5654 40.7689C35.4054 40.8289 35.2554 40.9189 35.0954 40.9889C34.9454 41.0789 34.7954 41.1689 34.6454 41.2589C34.5054 41.3689 34.3554 41.4589 34.2254 41.5789C34.2254 41.5889 34.2254 41.5989 34.2154 41.6189C34.1954 41.6689 34.1254 41.7389 34.0354 41.7989L33.9654 41.8389C33.9154 41.8789 33.8654 41.9189 33.8054 41.9689C33.5554 42.2789 33.3154 42.5989 33.0954 42.9389C33.7354 42.1289 34.4154 41.4389 35.2554 40.9989C35.2654 40.9889 35.2954 40.9789 35.3054 40.9789C35.3154 40.9789 35.3154 40.9889 35.3054 40.9989C34.7954 41.3389 34.4454 41.7389 33.9954 42.2389C33.4554 42.8389 33.0254 43.5189 32.6454 44.2789C32.1954 45.0389 31.9054 45.8189 31.6754 46.6989C31.4654 47.4989 31.3254 48.2889 31.2754 49.0589C31.2754 50.7989 31.7654 52.6789 33.1854 54.3689C35.9254 57.6289 38.0854 63.0889 37.4254 63.9989C37.6354 63.7089 37.8254 63.4189 37.9954 63.1089C38.0154 62.9889 38.0354 62.8689 38.0554 62.7489C38.1154 62.3589 38.1554 61.9589 38.1754 61.5689C38.1754 61.4889 38.1954 61.4189 38.2054 61.3989C38.2154 61.3889 38.2254 61.4489 38.2254 61.5289C38.2154 61.9889 38.1654 62.4589 38.0954 62.9189C38.1454 62.8289 38.1854 62.7489 38.2254 62.6589C38.2554 62.4589 38.2854 62.2589 38.3154 62.0589C38.3254 61.9289 38.3354 61.7989 38.3454 61.6789C38.3554 61.5489 38.3654 61.4289 38.3754 61.2989C38.4354 60.0189 38.3254 58.7889 37.9754 57.5289C37.6654 56.4489 37.2854 55.5889 36.6754 54.6689C35.8154 53.3789 34.7954 52.3189 33.7554 51.0089C33.6154 50.8389 33.5054 50.6589 33.5154 50.6189C33.5254 50.5789 33.6454 50.6889 33.7854 50.8589C34.9054 52.1889 36.0554 53.3789 36.9054 54.7589C37.3354 55.4489 37.6754 56.1689 37.9254 56.9489C38.1754 57.7389 38.3454 58.5589 38.4254 59.4089C38.4554 59.7689 38.4754 60.1289 38.4754 60.4889L38.4854 60.4789C38.5054 60.4789 38.5154 60.5089 38.5354 60.5689C38.5354 60.1589 38.5254 59.7489 38.4854 59.3389C38.3254 58.1989 38.0354 57.0689 37.5954 55.9589C37.2854 55.1889 36.9354 54.5189 36.5154 53.8489C35.9354 53.0389 35.2654 52.2689 34.5954 51.4789C34.5654 51.4489 34.5454 51.4089 34.5354 51.3989C34.5354 51.3789 34.5454 51.3989 34.5754 51.4289C35.0554 51.9589 35.5454 52.4989 36.0054 53.0589C35.9554 52.9589 35.9354 52.8889 35.9654 52.8789C35.9954 52.8689 36.0754 52.9189 36.1654 53.0189L35.8654 52.6189C35.8054 52.5389 35.7654 52.4689 35.7754 52.4589C35.7854 52.4489 35.8454 52.5089 35.9054 52.5889C36.3254 53.1289 36.7154 53.6689 37.0754 54.2389C37.5154 54.9089 37.8854 55.6289 38.1654 56.3789C38.1454 56.2689 38.1354 56.1789 38.1554 56.1389C38.1054 56.0189 38.0654 55.8989 38.0154 55.7889C37.5354 54.7489 36.8654 53.7889 36.1454 52.8789C35.4154 51.9589 34.6354 51.0689 33.9054 50.0989C33.8754 50.0589 33.8554 50.0289 33.8654 50.0189C33.8754 50.0189 33.8954 50.0389 33.9254 50.0689C34.3654 50.6489 34.8254 51.2089 35.2854 51.7589C35.2654 51.7289 35.2754 51.7289 35.2954 51.7489C35.3154 51.7689 35.3554 51.8089 35.3654 51.8389C35.3854 51.8689 35.3754 51.8689 35.3554 51.8489C36.2054 52.8789 37.0354 53.8989 37.6654 55.0389C37.1054 53.9689 36.3754 53.0089 35.6254 52.0489C35.5354 51.9489 35.4454 51.8489 35.3554 51.7589C35.3354 51.7289 35.3054 51.6889 35.2954 51.6789C35.2954 51.6689 35.3154 51.6889 35.3454 51.7089L35.4254 51.7889C35.2854 51.6089 35.1954 51.4489 35.2254 51.4289C35.2554 51.4189 35.3854 51.5289 35.5254 51.6889C34.3554 50.0689 31.6954 46.1989 33.4454 44.4089C34.6754 43.1489 36.1454 42.8489 37.3954 42.8489C37.5454 41.9289 37.8054 41.0089 38.1354 40.1889C38.2554 39.8889 38.3854 39.5989 38.5354 39.3189C38.3354 39.2989 38.1454 39.3289 37.9654 39.3689Z" fill="white"/>
<path d="M44.1645 50.2795C43.4645 50.1595 42.7745 49.9995 42.1045 49.7895C42.0845 49.7795 42.0645 49.7695 42.0745 49.7695C42.0745 49.7595 42.0945 49.7595 42.1245 49.7695C42.7945 49.9795 43.4845 50.1395 44.1745 50.2595C44.1945 50.2595 44.2145 50.2695 44.2145 50.2795C44.2145 50.2795 44.2045 50.2895 44.1845 50.2895C44.1745 50.2795 44.1645 50.2795 44.1645 50.2795ZM49.1745 46.4095C48.7745 45.6395 48.2545 44.9095 47.6545 44.2495C47.6345 44.2295 47.6245 44.2095 47.6345 44.2095C47.6445 44.2095 47.6645 44.2195 47.6845 44.2395C48.2845 44.9095 48.8145 45.6395 49.2145 46.4095C49.2245 46.4295 49.2345 46.4495 49.2245 46.4595C49.2045 46.4595 49.1945 46.4395 49.1745 46.4095ZM41.9245 44.8395C41.5245 44.5995 41.2845 44.4895 41.0245 44.1395C40.8645 43.8995 40.8045 43.6195 41.1645 43.5195C41.6845 43.3695 42.7545 43.9195 43.1545 44.2095C43.1545 44.2095 45.4445 45.5395 45.9845 46.6395C46.0045 46.6495 44.3945 46.3395 41.9245 44.8395ZM44.8445 41.1995C44.8245 41.1895 44.7945 41.1795 44.7745 41.1595C44.7545 41.1495 44.7645 41.1395 44.7845 41.1395C44.8045 41.1495 44.8345 41.1595 44.8545 41.1795C44.8645 41.1895 44.8745 41.1995 44.8645 41.1995C44.8545 41.1995 44.8545 41.1995 44.8445 41.1995ZM43.2645 40.1095L39.5645 43.0895C39.0745 42.9895 38.2945 42.8195 37.3945 42.8195C37.2745 43.5695 37.2145 44.3195 37.2545 45.0495C37.3645 46.8795 38.3945 48.1995 39.8045 49.0495C40.4945 49.3095 41.1945 49.5395 41.9045 49.7195C41.9445 49.7295 41.9845 49.7495 41.9945 49.7695C41.9945 49.7795 41.9645 49.7895 41.9145 49.7795C41.3745 49.6695 40.8445 49.5195 40.3145 49.3495C40.4245 49.4095 40.5445 49.4595 40.6645 49.5095C40.9745 49.6295 41.2845 49.7395 41.6045 49.8295L41.8145 49.8795C41.8845 49.8995 41.9445 49.9195 42.0145 49.9395C42.2545 49.9995 42.4845 50.0595 42.7245 50.1195C43.7645 50.3095 45.3745 50.4895 46.8445 50.4295H46.8545C46.9345 50.4295 47.0145 50.4195 47.1045 50.4195C47.1445 50.4195 47.1845 50.4095 47.2245 50.4095C48.4445 50.3195 49.5145 50.0595 49.9845 49.4595C50.1145 49.2995 50.1745 49.0695 50.1945 48.8095C50.1245 48.5995 50.0645 48.3795 49.9845 48.1695C49.7945 47.6095 49.5945 47.1295 49.3345 46.6495C49.3145 46.5995 49.2945 46.5495 49.2945 46.5395C49.3045 46.5295 49.3345 46.5495 49.3545 46.6095C49.4445 46.7795 49.5445 46.9495 49.6345 47.1295C49.7145 47.3095 49.7945 47.4795 49.8745 47.6695L50.0945 48.2595C50.1245 48.3595 50.1645 48.4595 50.1945 48.5495C50.1945 48.5195 50.1945 48.4995 50.1945 48.4695L50.1645 48.3395L50.0045 47.8295L49.9145 47.5695L49.8245 47.3295C49.7645 47.1695 49.7045 47.0095 49.6245 46.8595C49.5845 46.7795 49.5445 46.6995 49.5045 46.6195C49.4645 46.5395 49.4345 46.4595 49.3945 46.3795C48.9745 45.5995 48.4745 44.9095 47.8345 44.2495C47.2845 43.6895 46.7545 43.2495 46.1245 42.7995C45.2245 42.1795 44.3445 41.6995 43.3845 41.2495C43.2545 41.1995 43.1445 41.1195 43.1445 41.0795C43.1445 41.0395 43.2445 41.0595 43.3845 41.1095C43.9045 41.3195 44.4145 41.5595 44.9045 41.8395C45.4045 42.1095 45.8745 42.4195 46.3345 42.7595C47.2445 43.4395 48.0945 44.2495 48.7845 45.2095C48.9445 45.4095 49.0645 45.6295 49.2045 45.8395C49.2045 45.8295 49.2045 45.8295 49.2145 45.8295C49.2345 45.8195 49.2545 45.8295 49.2945 45.8595C49.1445 45.6195 49.0045 45.3695 48.8345 45.1395C48.3345 44.5095 47.7645 43.9395 47.1445 43.3395C46.7245 42.9195 46.3245 42.5695 45.9045 42.2095C45.3245 41.8195 44.7145 41.4795 44.0945 41.1695C44.0645 41.1595 44.0445 41.1395 44.0345 41.1295C44.0245 41.1195 44.0445 41.1195 44.0745 41.1295C44.5245 41.3095 44.9645 41.5395 45.4045 41.7895C45.3545 41.7295 45.3245 41.6795 45.3445 41.6595C45.3645 41.6395 45.4345 41.6495 45.5245 41.6795C45.4345 41.6095 45.3345 41.5595 45.2345 41.4895C45.1745 41.4495 45.1345 41.4095 45.1445 41.3995C45.1545 41.3895 45.2045 41.4095 45.2645 41.4395C45.6645 41.6895 46.0445 41.9595 46.4245 42.2495C46.6545 42.4095 46.8745 42.5895 47.0945 42.7695C47.3045 42.9595 47.5345 43.1295 47.7345 43.3295C47.6945 43.2595 47.6645 43.1995 47.6645 43.1595C47.6045 43.0995 47.5345 43.0395 47.4645 42.9795C46.2245 41.9495 44.8145 41.0795 43.3045 40.4195C43.2745 40.4095 43.2545 40.3895 43.2545 40.3795C43.2545 40.3695 43.2845 40.3795 43.3045 40.3895C43.7545 40.5995 44.2045 40.8095 44.6445 41.0495C44.6245 41.0395 44.6345 41.0295 44.6545 41.0295C44.6745 41.0395 44.7045 41.0495 44.7245 41.0695C44.7445 41.0895 44.7345 41.0895 44.7145 41.0895C45.5245 41.5395 46.2945 42.0395 47.0245 42.5895C46.3745 42.0495 45.6745 41.5595 44.9545 41.1195C44.8745 41.0795 44.7845 41.0395 44.7045 41.0095C44.6845 40.9995 44.6545 40.9795 44.6445 40.9695C44.6445 40.9595 44.6645 40.9595 44.6845 40.9795L44.7545 41.0095C44.6145 40.9295 44.5245 40.8395 44.5445 40.8095C44.5745 40.7795 44.7045 40.8295 44.8545 40.9095C45.0545 41.0095 45.2445 41.1295 45.4345 41.2495C45.6245 41.3595 45.8145 41.4895 45.9945 41.6195L46.1145 41.6995C46.1445 41.7095 46.1645 41.7295 46.1945 41.7395C46.1645 41.7195 46.1345 41.6895 46.1145 41.6695C45.5945 41.2895 45.0645 40.9395 44.5045 40.6195C44.4745 40.6095 44.4545 40.5895 44.4445 40.5795C44.0145 40.3695 43.6045 40.1595 43.1445 40.0195C43.1645 40.0695 43.2145 40.0895 43.2645 40.1095Z" fill="white"/>
<path d="M40.1142 30.0691C40.1442 30.3791 40.1441 30.6991 40.1341 30.9991C40.0541 32.6291 39.7141 34.1591 39.1841 35.6991C39.3341 35.1891 39.4942 34.6791 39.6142 34.1591C39.3942 34.8791 39.1242 35.5891 38.8342 36.2891C38.5942 36.8691 38.0142 37.6191 38.0042 38.2491C38.0242 38.2091 38.0441 38.1791 38.0641 38.1491C38.0241 38.2391 37.9941 38.3291 37.9941 38.4191C38.6741 37.3891 39.1841 36.1391 39.4841 34.9391C39.4541 35.0191 39.4141 35.1091 39.3841 35.1891C39.5541 34.7191 39.6541 34.2491 39.7841 33.7691C39.7241 34.0391 39.6641 34.3091 39.6041 34.5891C39.8741 33.7991 40.0241 33.0191 40.1441 32.1891C40.2641 33.2791 39.7942 34.3591 39.6142 35.4191C39.6342 35.3391 39.6741 35.2791 39.6941 35.2091C39.6041 35.6391 39.3941 36.0391 39.3141 36.4691C39.6041 35.8591 39.7042 35.1591 40.0042 34.5591C40.0642 34.9891 39.8641 35.5291 39.7941 35.9691C39.6941 36.5691 39.5041 37.1691 39.2741 37.7191C39.0541 38.2491 38.7741 38.7591 38.5241 39.2791C39.4641 39.1691 40.4941 39.2391 41.6041 39.5391C42.5541 35.8991 44.4341 32.2691 41.8741 28.7491C41.1541 27.7591 40.1441 27.0191 39.1541 26.2891C39.5841 27.4691 40.0042 28.7891 40.1142 30.0691Z" fill="white"/>
<path d="M38.5248 39.28C38.3848 39.57 38.2448 39.85 38.1248 40.15C37.8048 40.98 37.5448 41.89 37.3848 42.81C38.2848 42.81 39.0648 42.98 39.5548 43.08L43.2548 40.1C43.2048 40.08 43.1448 40.06 43.0948 40.03C43.0648 40.02 43.0248 40.01 42.9948 40C42.5248 39.87 42.0148 39.83 41.5648 39.67C41.5748 39.62 41.5948 39.57 41.6048 39.52C40.9948 39.36 40.4048 39.26 39.8448 39.23C39.3948 39.22 38.9548 39.23 38.5248 39.28Z" fill="white"/>
<path d="M41.9653 0.0999985C41.6753 0.0899985 41.3653 0.109999 41.0653 0.139999C40.7753 0.189999 40.4953 0.230001 40.2853 0.290001C40.1753 0.190001 40.1853 0.07 39.9553 0C39.8453 0.02 38.2353 0.409998 38.0853 0.419998C37.9353 0.429998 37.7453 0.430001 37.5653 0.450001C37.3853 0.470001 37.2053 0.499999 37.0753 0.529999C36.4653 0.669999 35.8853 0.969999 35.4053 1.37C34.9153 1.76 34.5253 2.23 34.1953 2.68C34.1953 2.68 34.3453 2.7 34.3953 2.71C34.3953 2.71 34.3353 2.79 34.2653 2.87C34.4753 2.81 34.5553 2.91 34.2653 3.22C34.3153 3.22 34.3653 3.22 34.4153 3.22C34.5253 3.21 34.6153 3.21 34.6053 3.26C34.5653 3.42 34.4453 3.64 34.3453 3.83C34.2453 4.02 34.1853 4.19 34.2053 4.24C34.3153 4.36 34.5053 4.35 34.7053 4.35C34.9053 4.35 35.1053 4.36 35.2553 4.45C35.3453 4.46 35.4453 4.55 35.5853 4.57C35.6653 4.51 35.7453 4.46 35.8353 4.4C35.8953 4.39 35.9553 4.41 36.0153 4.43C36.2753 4.25 36.5553 4.08 36.8453 3.93C37.0653 3.7 37.3053 3.51 37.5353 3.3C37.6253 3.2 37.5453 3.15 37.4653 3.1C37.4253 3.08 37.3853 3.05 37.4553 3.01C37.5253 2.97 37.6553 2.88 37.7253 2.84L37.6153 2.76C37.7253 2.7 37.8753 2.68 38.0153 2.65C38.1553 2.63 38.2853 2.62 38.3353 2.57C38.4453 2.47 39.9553 2.17 40.1853 2.09C40.3853 2 40.5753 1.94 40.7453 1.87C40.9253 1.82 41.0953 1.77 41.2653 1.72C41.4453 1.69 41.6353 1.67 41.8453 1.65C42.0553 1.64 42.2953 1.67 42.5653 1.7C42.8353 1.76 43.1353 1.79 43.4353 1.84C43.7353 1.9 44.0553 1.93 44.3553 2.02C44.6653 2.1 44.9753 2.18 45.2553 2.3C45.5353 2.42 45.8053 2.54 46.0153 2.71C46.2553 2.74 46.4753 2.8 46.6953 2.87C46.9053 2.95 47.0953 3.05 47.2953 3.16C47.7053 3.37 48.0953 3.66 48.6253 3.95C48.6253 3.95 48.7053 4 48.8153 4.1C48.9253 4.19 49.0853 4.32 49.2353 4.44C49.3853 4.57 49.5453 4.7 49.6653 4.8C49.7853 4.91 49.8753 4.99 49.8953 5.01C50.2153 5.39 50.4553 5.57 50.7253 5.74C50.9853 5.92 51.2753 6.11 51.6653 6.49C52.2153 6.98 52.2553 7.21 52.8153 7.55C52.9753 7.66 53.0853 7.97 53.1553 8.03C53.7553 8.52 53.8453 8.2 53.7253 8.64C53.7053 8.7 53.9853 8.78 54.2953 8.88C54.5953 8.99 54.9253 9.14 55.0153 9.27C55.2553 9.68 55.7953 10.05 56.2053 10.5C56.2653 10.6 56.3253 10.71 56.3153 10.75C56.4353 10.96 56.6753 11.11 56.8853 11.34C57.5153 12.03 57.8553 12.74 58.4153 13.36C58.7653 13.76 60.1253 15.04 61.5453 16.23C62.2453 16.83 62.9753 17.39 63.5553 17.82C64.1553 18.24 64.6153 18.53 64.7953 18.58C64.7353 18.52 64.6753 18.47 64.6253 18.41L64.0253 17.92C63.6853 17.69 63.3653 17.47 63.0453 17.19C62.6553 16.85 62.1953 16.48 61.8253 16.13C61.2353 15.55 60.7453 15.01 60.2153 14.48C61.4453 15.65 62.7053 16.81 64.0253 17.92C64.0953 17.97 64.1753 18.02 64.2453 18.08C63.0053 17.02 61.8353 15.9 60.6853 14.77C60.1053 14.21 59.5353 13.64 58.9653 13.07L57.2653 11.35C57.8553 11.86 59.0653 13.1 59.6553 13.64C61.2653 15.14 62.7853 16.66 64.5153 18.1C64.7153 18.26 64.9053 18.42 65.1053 18.58C65.3053 18.73 65.5053 18.88 65.7053 19.04C65.8553 19.12 66.0253 19.22 66.2053 19.31C66.3853 19.4 66.5853 19.49 66.7853 19.59C67.1853 19.8 67.6453 19.97 68.0953 20.15C67.7553 19.96 67.4353 19.8 67.1553 19.63C66.8753 19.45 66.6153 19.29 66.3853 19.13C65.8553 18.79 65.4253 18.49 65.1653 18.3C64.9153 18.1 64.8253 18.03 64.9653 18.13C65.0553 18.19 65.1453 18.26 65.2453 18.33C65.3453 18.4 65.4553 18.48 65.5753 18.56C65.8153 18.72 66.0753 18.92 66.3753 19.13C67.1853 19.63 68.5453 20.49 69.9553 20.79C71.0153 21.02 72.0453 20.95 73.0753 20.77C73.1253 20.76 73.1853 20.75 73.2153 20.72C73.2553 20.68 73.2253 20.65 73.1753 20.64C72.8753 20.56 72.5753 20.61 72.2753 20.63C71.8753 20.65 71.4753 20.67 71.0853 20.65C70.9653 20.64 70.8353 20.64 70.7053 20.63C70.5753 20.61 70.4453 20.59 70.3053 20.57C70.1653 20.54 70.0153 20.54 69.8753 20.5C69.7253 20.46 69.5753 20.42 69.4253 20.38C69.3453 20.36 69.2653 20.34 69.1853 20.32C69.1053 20.3 69.0253 20.26 68.9453 20.23C68.7853 20.17 68.6153 20.1 68.4553 20.03C68.2853 19.97 68.1253 19.87 67.9453 19.79C67.7753 19.7 67.5953 19.61 67.4253 19.52C67.0853 19.31 66.7253 19.09 66.3653 18.85C64.9353 17.87 63.4753 16.58 62.0453 15.18C60.6253 13.77 59.2253 12.26 57.9553 10.7C57.3253 9.94 56.6953 9.22 56.0753 8.55C55.9153 8.38 55.7653 8.22 55.6053 8.05C55.4553 7.88 55.2653 7.74 55.0953 7.58C54.7453 7.27 54.4053 6.97 54.0553 6.67C52.6453 5.51 51.1553 4.42 49.3453 3.25C49.1753 3.14 48.9953 3.04 48.8153 2.93C48.5653 2.79 48.3253 2.63 48.0653 2.5C47.8053 2.36 47.5453 2.22 47.2853 2.07C46.2953 1.57 45.2453 1.14 44.3753 0.869999C43.7153 0.689999 43.6153 0.470001 42.9353 0.380001C42.9553 0.290001 42.8653 0.209999 42.6853 0.139999C42.5153 0.0899994 42.2753 0.0600009 42.0053 0.0400009C41.9953 0.100001 41.9753 0.0999985 41.9653 0.0999985Z" fill="white"/>
<path d="M75.4041 21.0895C75.3841 21.1095 75.3741 21.1395 75.3741 21.1695C75.3541 21.5595 75.2641 21.7495 75.5741 21.9795C75.8641 22.1895 76.3141 22.2395 76.6341 22.4195C76.6741 22.4395 76.7041 22.4595 76.7441 22.4795C76.6341 22.4295 76.4241 22.3795 76.1541 22.3295C75.7941 22.2595 75.4341 22.2095 75.0741 22.1295C75.1741 22.2295 75.2541 22.3495 75.2941 22.4995C75.3341 22.7095 75.3241 22.9195 75.3241 23.1295C75.3241 23.4495 75.2941 23.7695 75.2141 24.0795C75.1841 24.1895 75.1541 24.2995 75.1041 24.3995C75.0641 24.4995 75.0241 24.6095 75.0741 24.6995C75.1441 24.8095 75.3141 24.8295 75.4241 24.8695C75.5341 24.9095 75.6441 24.9495 75.7641 24.9895C75.9741 25.0695 76.1741 25.1495 76.3841 25.2295C76.9441 25.4595 77.4841 25.7495 78.0341 26.0195C78.2741 26.1395 78.6241 26.3495 78.9041 26.2495C79.2041 26.1495 79.3141 25.7195 79.3941 25.4595C79.4841 25.1595 79.5541 24.8495 79.6141 24.5395C79.6541 24.3295 79.7041 24.1295 79.7441 23.9195C79.8141 23.5895 79.8541 23.1795 79.7441 22.8295C79.7141 22.7295 79.6641 22.6295 79.6041 22.5495C79.2841 22.1195 78.5941 21.9195 78.1041 21.7295C77.2841 21.3995 76.3741 21.1795 75.4941 21.0895C75.4841 21.0895 75.4841 21.0895 75.4741 21.0895C75.4441 21.0795 75.4241 21.0795 75.4041 21.0895Z" fill="white"/>
<path d="M78.5848 38.3798C78.5948 38.3798 78.5948 38.3798 78.5848 38.3798C78.5948 38.3798 78.5948 38.3798 78.5848 38.3798ZM78.7648 38.3598C78.7548 38.3698 78.7448 38.3698 78.7248 38.3798C78.7448 38.3698 78.7548 38.3598 78.7648 38.3598ZM26.9048 5.87984C27.0048 5.93984 27.1148 5.98984 27.2148 6.03984C27.0848 6.01984 26.9448 5.94984 26.8348 5.92984C27.0848 6.11984 27.4448 6.28984 27.7548 6.36984C27.7448 6.35984 27.7348 6.34984 27.7148 6.33984C27.8048 6.39984 27.9048 6.43984 28.0148 6.47984C27.9648 6.45984 27.9148 6.44984 27.8648 6.42984C28.2148 6.71984 28.6648 6.75984 29.0248 7.01984C28.5648 6.77984 28.0348 6.65984 27.5348 6.53984C27.5348 6.55984 27.5548 6.56984 27.5548 6.57984C27.4448 6.53984 27.3148 6.48984 27.2048 6.47984C27.3448 6.54984 27.4848 6.61984 27.6148 6.69984C27.3948 6.69984 27.1748 6.71984 26.9648 6.65984C26.9948 6.66984 27.0248 6.68984 27.0548 6.70984C27.0248 6.70984 26.9848 6.70984 26.9548 6.70984C26.9048 6.70984 26.8648 6.70984 26.8248 6.69984C26.8448 6.70984 26.8748 6.71984 26.8948 6.72984C26.3848 6.83984 25.6648 6.47984 25.1248 6.40984C25.2148 6.41984 25.3048 6.41984 25.3948 6.42984C25.1548 6.34984 24.4448 6.04984 24.2548 6.27984C24.3248 6.28984 24.4148 6.32984 24.4748 6.32984C24.3948 6.31984 24.2648 6.33984 24.2048 6.33984C24.3248 6.37984 24.4548 6.39984 24.5648 6.44984C24.4148 6.42984 24.2648 6.37984 24.1448 6.43984C24.2848 6.58984 24.6848 6.64984 24.9048 6.71984C24.8348 6.71984 24.7648 6.73984 24.7148 6.74984C24.8648 6.77984 25.0348 6.79984 25.1848 6.84984C25.2048 6.87984 25.1948 6.89984 25.1748 6.90984C25.1048 6.89984 25.0348 6.88984 24.9748 6.85984C25.0348 6.88984 25.0748 6.91984 25.1248 6.95984C24.8948 7.01984 24.6148 6.87984 24.3148 6.73984C23.9748 6.56984 23.6148 6.40984 23.3348 6.55984C23.5748 6.61984 23.8148 6.67984 24.0648 6.75984C23.7848 6.72984 23.4948 6.58984 23.2348 6.60984C23.3048 6.63984 23.3748 6.65984 23.4348 6.68984C23.3148 6.66984 23.2148 6.65984 23.1348 6.68984C23.3048 6.91984 23.9448 6.98984 24.2348 7.06984C24.5748 7.17984 24.9648 7.26984 25.2748 7.41984C25.1948 7.40984 25.0748 7.38984 24.9848 7.36984C25.0148 7.38984 25.0548 7.39984 25.0848 7.42984C24.8548 7.36984 24.5948 7.25984 24.3648 7.25984C24.6848 7.37984 25.1448 7.43984 25.4148 7.65984C25.3048 7.75984 25.1548 7.63984 25.0348 7.61984C25.1448 7.70984 25.2548 7.75984 25.3748 7.81984C25.2648 7.77984 25.1448 7.73984 25.0248 7.70984C25.2348 7.79984 25.5248 7.89984 25.7248 8.03984C25.3848 7.89984 25.0548 7.76984 24.6948 7.69984C25.4548 7.99984 26.1248 8.25984 26.7848 8.74984C26.7848 8.73984 26.7748 8.73984 26.7748 8.72984C26.8348 8.78984 26.9048 8.81984 26.9648 8.86984C26.7248 8.60984 26.4048 8.42984 26.1148 8.22984C26.7948 8.46984 27.2648 8.83984 27.8148 9.30984C27.7848 9.27984 27.7548 9.24984 27.7248 9.20984C27.8548 9.30984 27.9548 9.41984 28.0848 9.51984C28.0848 9.50984 28.0648 9.46984 28.0648 9.46984C28.6548 9.81984 29.0348 10.2198 29.5248 10.7098C30.0248 11.2098 30.5948 11.6798 31.0648 12.1998C30.9748 12.0998 30.8848 11.9898 30.7848 11.8798C31.6648 12.7298 32.3348 13.6598 32.9748 14.6798C33.6448 15.7398 34.4448 16.7298 35.1248 17.7898C35.4548 18.3198 35.9948 18.9498 36.1548 19.5498C35.7148 19.0798 35.4048 18.3798 35.0648 17.8298C34.6848 17.2398 34.2848 16.6498 33.8748 16.0798C34.3248 16.7798 34.7648 17.4698 35.1748 18.1898C35.3848 18.5498 35.5848 18.9098 35.8048 19.2598C35.9148 19.4598 36.3248 20.0498 36.2548 20.2298C36.2248 20.1998 36.1948 20.1698 36.1648 20.1498C36.1848 20.3098 36.3648 20.3798 36.4748 20.5098C36.5848 20.6598 36.6648 20.8898 36.7548 21.0698C36.9848 21.4998 37.1948 21.9398 37.4048 22.3698C37.8548 23.2598 38.2748 24.1698 38.6848 25.0798C39.4948 26.8898 40.2848 28.7098 40.9448 30.5698L45.2448 38.7498C45.1648 38.5298 45.0648 38.2998 45.0348 38.0598C45.2148 38.4398 45.2848 38.8198 45.5348 39.1698C45.5148 39.0898 45.5348 39.0198 45.5348 38.9598C45.8148 39.1398 45.8148 39.6098 46.0448 39.8398C45.9048 39.5098 45.6748 39.0898 45.6448 38.7398C45.8048 38.9498 45.9248 39.1498 46.0548 39.3798C46.0648 39.3898 46.0548 39.3998 46.0648 39.3998L46.0748 39.4098C46.3848 39.8498 46.6248 40.3798 46.9548 40.8198C47.0748 40.9698 47.1848 41.1098 47.3248 41.2298C46.8948 40.5998 46.3748 39.9598 46.0848 39.2598C46.8948 40.2598 47.4348 41.4398 48.4648 42.2498C47.9348 41.6098 47.3148 40.9898 46.8848 40.2698C47.3048 40.5798 47.7148 41.0998 48.0748 41.4798C48.4948 41.9198 48.9048 42.3598 49.3548 42.7698C50.2748 43.6098 51.3748 44.6898 52.5348 45.1598C54.5748 45.9898 56.7648 46.1698 58.8948 45.6098C62.0948 44.7598 63.9848 41.6998 65.9648 39.1398C65.9648 39.1398 67.5448 37.1798 69.3648 35.4698C69.3048 36.2098 69.3548 36.9898 69.5348 37.7298C69.8948 39.2898 70.7948 40.6898 72.3948 41.3098C73.9648 41.9298 75.7648 41.6298 77.2548 40.9298C78.2248 40.4698 79.1148 39.8198 79.8348 39.0198C80.1948 38.6098 80.5148 38.1898 80.7948 37.7398C80.3548 38.0698 79.9048 38.3698 79.4548 38.6398C78.8648 38.9898 78.2548 39.2798 77.6148 39.5598C77.4448 39.6398 77.2848 39.6898 77.2548 39.6798C77.2248 39.6598 77.3348 39.5898 77.5048 39.5098C78.1648 39.2098 78.8148 38.8698 79.4448 38.4998C79.9748 38.1898 80.4948 37.8298 80.9848 37.4298C81.0748 37.3598 81.1648 37.2898 81.2548 37.2098L81.3648 37.1198C81.4048 37.0898 81.4348 37.0598 81.4648 37.0298L81.6748 36.8398C81.7448 36.7798 81.8048 36.7098 81.8748 36.6398L81.9748 36.5398C82.0048 36.5098 82.0448 36.4698 82.0748 36.4398C82.1348 36.3698 82.2048 36.2998 82.2648 36.2298C82.2948 36.1898 82.3248 36.1598 82.3548 36.1198L82.4448 36.0098C82.5048 35.9398 82.5648 35.8598 82.6248 35.7898C82.6848 35.7098 82.7348 35.6398 82.7948 35.5598C82.9048 35.4098 83.0048 35.2398 83.1148 35.0798C83.1648 34.9998 83.2148 34.9198 83.2548 34.8298L83.3248 34.7098L83.3948 34.5798C83.4348 34.4998 83.4848 34.4098 83.5248 34.3298C83.5648 34.2398 83.6048 34.1598 83.6448 34.0698C83.6848 33.9798 83.7248 33.8998 83.7648 33.8098C83.8048 33.7198 83.8448 33.6298 83.8748 33.5398C83.9048 33.4598 83.9348 33.3798 83.9648 33.3098C83.9748 33.2698 83.9948 33.2298 84.0048 33.1898L84.0448 33.0698C84.0748 32.9898 84.0948 32.9098 84.1248 32.8398C84.1448 32.7598 84.1748 32.6798 84.1948 32.6098L84.1848 32.6198C84.1748 32.6198 84.1648 32.5798 84.1748 32.5298C84.1448 32.6198 84.1248 32.7098 84.0948 32.7998C84.0648 32.8898 84.0348 32.9698 84.0048 33.0598L83.9548 33.1898C83.9348 33.2298 83.9248 33.2798 83.9048 33.3198C83.8748 33.4098 83.8348 33.4898 83.8048 33.5798C83.6248 34.0698 83.4048 34.5398 83.1348 34.9998C82.8648 35.4598 82.5448 35.8998 82.1548 36.3098C81.8948 36.5898 81.6148 36.8298 81.3348 37.0598C81.2648 37.1098 81.1948 37.1598 81.1348 37.2098C81.1248 37.2298 81.1048 37.2598 81.0948 37.2798C81.1048 37.2598 81.1148 37.2398 81.1348 37.2098H81.1248C81.0548 37.2598 80.9848 37.3198 80.9148 37.3698L80.6948 37.5098L80.5848 37.5798L80.4748 37.6498C79.7548 38.1698 78.9848 38.5998 78.1948 38.9898C78.1648 39.0098 78.1348 39.0198 78.1148 39.0198C78.1248 39.0098 78.1348 38.9998 78.1448 38.9998C78.6848 38.7098 79.2248 38.3998 79.7548 38.0598C79.6648 38.0998 79.6048 38.1098 79.5948 38.0898C79.5848 38.0698 79.6448 37.9998 79.7348 37.9398L79.3648 38.1498C79.2948 38.1898 79.2348 38.2098 79.2148 38.2098C79.2148 38.1898 79.2748 38.1598 79.3448 38.1198C79.8548 37.8398 80.3348 37.5198 80.7948 37.1698C81.0148 36.9998 81.2248 36.8098 81.4248 36.6098C81.4448 36.5598 81.4748 36.5298 81.4848 36.4798C81.2748 36.6898 81.0548 36.8998 80.8148 37.0898C80.4348 37.4098 80.0248 37.6898 79.6048 37.9498C79.1848 38.2098 78.7448 38.4498 78.2948 38.6698C77.8448 38.8898 77.3848 39.0998 76.9148 39.2898C76.8848 39.2998 76.8548 39.3098 76.8448 39.3098C76.8448 39.2998 76.8648 39.2898 76.8948 39.2798C77.4548 39.0498 77.9948 38.7998 78.5248 38.5298L78.5348 38.5198C78.5548 38.4998 78.6048 38.4798 78.6148 38.4698C78.6448 38.4598 78.6448 38.4698 78.6248 38.4798C78.6748 38.4498 78.7148 38.4298 78.7648 38.3998C78.7848 38.3898 78.7948 38.3798 78.8048 38.3698C78.8248 38.3498 78.8248 38.3498 78.8048 38.3598C78.8248 38.3498 78.8348 38.3598 78.8048 38.3798C79.2448 38.1598 79.6648 37.9098 80.0748 37.6198C80.5348 37.3098 80.9648 36.9598 81.3648 36.5698C80.9948 36.9198 80.5848 37.2298 80.1648 37.5198C79.7348 37.7998 79.2948 38.0598 78.8448 38.2898C78.7448 38.3498 78.6548 38.3998 78.5548 38.4598C78.5248 38.4798 78.4948 38.4898 78.4748 38.4898C78.4748 38.4898 78.4948 38.4698 78.5048 38.4598C78.5248 38.4498 78.5548 38.4298 78.5748 38.4198C78.5348 38.4398 78.4948 38.4598 78.4648 38.4798C78.4248 38.4898 78.3848 38.5098 78.3548 38.5198C78.3048 38.5398 78.2648 38.5398 78.2548 38.5298C78.2648 38.4898 78.4048 38.4098 78.5748 38.3198C79.0448 38.0698 79.5048 37.8098 79.9548 37.5098L80.0948 37.4098C80.1348 37.3798 80.1848 37.3398 80.2248 37.3098L79.9648 37.4798C79.8848 37.5398 79.7948 37.5898 79.7048 37.6398L79.5748 37.7198L79.4448 37.7998L79.1748 37.9498C78.8148 38.1498 78.4448 38.3298 78.0748 38.4998C78.0148 38.5298 77.9448 38.5498 77.9448 38.5398C77.9448 38.5298 77.9948 38.4998 78.0548 38.4698C78.6948 38.1398 79.3248 37.7898 79.9148 37.3798L80.1348 37.2198C80.1648 37.1998 80.2048 37.1698 80.2448 37.1398L80.3448 37.0598L80.5548 36.8998L80.7648 36.6698C80.9048 36.5598 81.0348 36.4298 81.1648 36.3198C81.2248 36.2598 81.2948 36.1898 81.3548 36.1298L81.4448 36.0398L81.4948 35.9898L81.5448 35.9398C81.7048 35.7398 81.8548 35.5298 81.9848 35.3198C81.9848 35.3098 81.9948 35.3098 81.9948 35.2998C82.1048 35.1198 82.2048 34.9498 82.3048 34.7598C82.2748 34.8098 82.2348 34.8598 82.2048 34.9098C82.1748 34.9498 82.1548 34.9898 82.1248 35.0298C82.1048 35.0798 82.0748 35.1398 82.0448 35.1898C82.0748 35.1398 82.0948 35.0798 82.1248 35.0298C82.1048 35.0698 82.0748 35.1098 82.0448 35.1398C82.0148 35.1798 81.9948 35.2198 81.9648 35.2498C81.9348 35.2898 81.9048 35.3298 81.8748 35.3598C81.8248 35.4298 81.7648 35.4998 81.7048 35.5698C81.6448 35.6398 81.5848 35.7098 81.5248 35.7798C81.4148 35.9198 81.2848 36.0398 81.1648 36.1698C81.1048 36.2398 81.0348 36.2998 80.9748 36.3598L80.8848 36.4598L80.8448 36.4998L80.7948 36.5498C80.6648 36.6698 80.5348 36.7898 80.3948 36.8998C80.3248 36.9598 80.2548 37.0198 80.1848 37.0698C80.1048 37.1298 80.0448 37.1798 79.9648 37.2398L79.8648 37.3198C79.8248 37.3498 79.7848 37.3698 79.7448 37.3998C79.6648 37.4498 79.5948 37.4998 79.5148 37.5598C79.4348 37.6098 79.3548 37.6598 79.2748 37.7098C79.1948 37.7598 79.1148 37.8098 79.0248 37.8598C78.9948 37.8798 78.9648 37.8898 78.9648 37.8898C78.9548 37.8798 78.9748 37.8698 79.0048 37.8498C79.0448 37.8298 79.0848 37.7998 79.1248 37.7798C79.1648 37.7598 79.1948 37.7298 79.2448 37.7098C79.3148 37.6598 79.3948 37.6098 79.4748 37.5598C79.5448 37.5098 79.6148 37.4598 79.6948 37.4098C79.7648 37.3598 79.8348 37.3198 79.9048 37.2598C80.0448 37.1598 80.1948 37.0498 80.3248 36.9398C80.3948 36.8798 80.4648 36.8298 80.5348 36.7698C80.5948 36.7098 80.6648 36.6498 80.7348 36.5898C81.1748 36.1898 81.5648 35.7698 81.8748 35.3198C81.1948 36.1998 80.3648 36.9298 79.3948 37.5398C79.3548 37.5698 79.3048 37.5898 79.2848 37.5998C79.2848 37.5998 79.2748 37.6098 79.2548 37.6198C79.1948 37.6598 79.1348 37.6998 79.0648 37.7498C79.0048 37.7898 78.9348 37.8298 78.8648 37.8798C78.8448 37.8998 78.8048 37.9098 78.7948 37.9198C78.7748 37.9198 78.7948 37.8998 78.8148 37.8898C78.9548 37.8098 79.0748 37.7298 79.1848 37.6498C79.2048 37.6298 79.2348 37.6198 79.2548 37.6098C79.2448 37.6098 79.2648 37.5798 79.3048 37.5598C79.7548 37.2398 80.2148 36.9098 80.6448 36.5298C81.0648 36.1498 81.4648 35.7398 81.7948 35.2898C81.7948 35.2698 81.7948 35.2598 81.8048 35.2398C81.8348 35.1698 81.9148 35.0298 82.0148 34.9098C82.0448 34.8798 82.0648 34.8498 82.0848 34.8098C82.2348 34.6098 82.3648 34.3998 82.4948 34.1698C82.5148 34.1198 82.5348 34.0698 82.5548 34.0098C82.5348 34.0598 82.5148 34.1098 82.4948 34.1598C82.6148 33.9498 82.7248 33.7398 82.8248 33.5298C82.8548 33.4298 82.8948 33.3198 82.9448 33.2098C83.0748 32.8098 83.1748 32.3898 83.2548 31.9598C83.2448 31.9798 83.2348 31.9998 83.2248 31.9998C83.2048 31.9898 83.2148 31.8898 83.2448 31.7698C83.2548 31.7098 83.2648 31.6498 83.2748 31.5998C83.2548 31.6798 83.2448 31.7698 83.2148 31.8498C83.1948 31.9298 83.1748 32.0098 83.1548 32.0898C83.1448 32.1098 83.1448 32.1398 83.1348 32.1498C83.0848 32.3298 83.0348 32.5098 82.9748 32.6898C82.9348 32.8198 82.8848 32.9498 82.8448 33.0798C82.8248 33.1498 82.8048 33.2198 82.7848 33.2898C82.8048 33.2198 82.8248 33.1498 82.8448 33.0798C82.7548 33.3298 82.6548 33.5898 82.5348 33.8198C82.3648 34.1898 82.1748 34.5298 81.9648 34.8698C81.9148 34.9498 81.8548 35.0298 81.8048 35.1098C81.7848 35.1598 81.7548 35.1898 81.7248 35.2298L81.6348 35.3398L81.5448 35.4598C81.5148 35.4998 81.4848 35.5298 81.4548 35.5698C81.3848 35.6398 81.3348 35.7198 81.2648 35.7898C81.0048 36.0898 80.7248 36.3598 80.4248 36.6198C80.4048 36.6398 80.3748 36.6598 80.3448 36.6698C80.3248 36.6798 80.3248 36.6698 80.3448 36.6498C80.7048 36.3098 81.0148 35.9698 81.2948 35.5898C81.3648 35.4898 81.4348 35.4098 81.4948 35.2998C81.5348 35.2498 81.5648 35.2098 81.5948 35.1498C81.6148 35.1198 81.6248 35.0998 81.6448 35.0698C81.6648 35.0498 81.6748 35.0198 81.6848 34.9898C81.7148 34.9398 81.7448 34.8898 81.7848 34.8298C81.8148 34.7798 81.8548 34.7298 81.8848 34.6698C81.9148 34.6098 81.9548 34.5598 81.9848 34.4998C81.9948 34.4698 82.0148 34.4398 82.0348 34.4098C82.0448 34.3798 82.0648 34.3498 82.0848 34.3198L82.1948 34.0998C82.2248 34.0298 82.2648 33.9598 82.2948 33.8898L82.3448 33.7798C82.3648 33.7498 82.3748 33.7098 82.3948 33.6698L82.4848 33.4498C82.5148 33.3798 82.5448 33.2998 82.5648 33.2298L82.6048 33.1198C82.6148 33.0898 82.6248 33.0398 82.6448 32.9998L82.7148 32.7798C82.7348 32.6998 82.7548 32.6298 82.7748 32.5498L82.8048 32.4298C82.8248 32.3898 82.8248 32.3498 82.8348 32.3098C82.8548 32.2298 82.8648 32.1598 82.8848 32.0698L82.9348 31.8398C82.9448 31.7498 82.9648 31.6798 82.9748 31.5998C82.9848 31.5198 83.0048 31.4398 83.0048 31.3598C83.0148 31.2798 83.0248 31.1998 83.0348 31.1198C83.0548 30.9598 83.0648 30.7998 83.0748 30.6298C83.0948 30.2898 83.1148 29.9598 83.1048 29.6198C83.1048 29.4498 83.0848 29.2898 83.0748 29.1198C83.0648 29.0798 83.0648 29.0398 83.0648 28.9998L83.0548 28.8798L83.0348 28.7598C83.0248 28.7198 83.0248 28.6798 83.0148 28.6398C83.0048 28.5598 82.9848 28.4798 82.9748 28.3998C82.9548 28.3198 82.9448 28.2498 82.9248 28.1598C82.9148 28.0798 82.8848 27.9998 82.8648 27.9198C82.8448 27.8398 82.8248 27.7598 82.7948 27.6798C82.7748 27.6098 82.7548 27.5598 82.7348 27.4998C82.7348 27.4898 82.7348 27.4798 82.7248 27.4698C82.7248 27.4598 82.7148 27.4498 82.7148 27.4398C82.6848 27.3598 82.6548 27.2798 82.6348 27.1998C82.6248 27.1798 82.6248 27.1598 82.6148 27.1398C82.6348 27.2398 82.6448 27.3398 82.6648 27.4398C82.6448 27.3398 82.6348 27.2398 82.6148 27.1398C82.6148 27.1198 82.6048 27.0998 82.5948 27.0798C82.5848 27.0398 82.5648 26.9998 82.5448 26.9598C82.5348 26.9098 82.5148 26.8698 82.4948 26.8198C82.4948 26.8098 82.4848 26.8098 82.4848 26.7998V26.8098C82.4848 26.8098 82.4848 26.7998 82.4748 26.7998C82.4648 26.7698 82.4548 26.7498 82.4448 26.7198C82.3948 26.5898 82.3248 26.4698 82.2748 26.3398C82.2848 26.3798 82.2948 26.4198 82.3048 26.4598C82.2948 26.4198 82.2848 26.3798 82.2748 26.3398C82.1948 26.1598 82.1148 25.9898 82.0248 25.8098C82.0048 25.7698 81.9848 25.7298 81.9648 25.6898C81.9048 25.5798 81.8548 25.4698 81.7948 25.3598C81.7948 25.3498 81.7848 25.3398 81.7848 25.3398C81.7148 25.2198 81.6448 25.0998 81.5748 24.9798C81.8048 25.5798 82.0148 26.2098 82.1548 26.8398C82.1448 26.7898 82.1248 26.7498 82.1048 26.7098L82.0548 26.5698L82.0348 26.4898L82.0048 26.4098L81.9548 26.2498C81.9248 26.1398 81.8948 26.0398 81.8548 25.9298L81.7548 25.6098C81.7148 25.5098 81.6748 25.4098 81.6248 25.2998C81.5648 25.1498 81.4948 25.0398 81.4648 25.0298C81.4348 25.0398 81.4648 25.1598 81.5148 25.3098C81.5048 25.2898 81.4948 25.2598 81.4848 25.2398C81.4748 25.2198 81.4648 25.2098 81.4648 25.2098C81.4648 25.2198 81.4748 25.2498 81.4848 25.2798C81.5248 25.3598 81.5648 25.4498 81.6048 25.5298C81.6448 25.6298 81.6748 25.7298 81.7048 25.8298C81.7448 25.9298 81.7748 26.0298 81.8048 26.1298C81.8648 26.3298 81.9248 26.5298 81.9748 26.7398L82.0148 26.8898L82.0348 26.9698L82.0448 27.0498L82.1148 27.3598C82.1348 27.4698 82.1548 27.5598 82.1748 27.6698L82.2048 27.8298C82.2148 27.8798 82.2248 27.9298 82.2248 27.9898C82.2048 27.9198 82.1948 27.8498 82.1748 27.7898V27.8198C82.1848 27.8698 82.1948 27.9198 82.2048 27.9698C82.2248 28.0698 82.2348 28.1598 82.2548 28.2698C82.2648 28.3498 82.2848 28.4298 82.2948 28.5198C82.2848 28.5998 82.2748 28.6798 82.2748 28.7498C82.2748 28.7698 82.2748 28.7998 82.2648 28.8198C82.2148 28.3198 82.1348 27.8198 82.0248 27.3198C81.9348 26.8598 81.8048 26.4098 81.6648 25.9698C81.6348 25.9098 81.6248 25.8598 81.6048 25.8598C81.5848 25.8598 81.6048 25.9198 81.6248 25.9898L81.6748 26.1498L81.7248 26.3098C81.6848 26.2198 81.6448 26.1698 81.6248 26.1698C81.5948 26.1698 81.5948 26.2198 81.5948 26.2998C81.4248 25.8198 81.2348 25.3698 81.0048 24.9398C80.9948 24.9198 80.9848 24.9098 80.9848 24.9098C80.9848 24.9198 80.9948 24.9498 81.0048 24.9798C81.2948 25.6198 81.5348 26.2698 81.7248 26.9298C81.8248 27.4698 81.8848 27.9998 81.9348 28.5798C81.9848 29.1798 81.9948 29.7598 81.9748 30.3298C81.9548 30.3898 81.9348 30.4498 81.9248 30.4998C82.0048 29.5198 81.9348 28.5498 81.7348 27.6298C81.4948 26.5198 81.0748 25.4598 80.5448 24.4598C80.4748 24.3398 80.4048 24.2498 80.3848 24.2798C80.3748 24.3098 80.4148 24.4398 80.4848 24.5598C80.7248 25.0498 80.9348 25.5298 81.1148 25.9998C81.3048 26.4898 81.4648 26.9798 81.5848 27.5098C81.6148 27.5998 81.6248 27.6898 81.6448 27.7898C81.6548 27.8398 81.6748 27.8798 81.6748 27.9298C81.6848 27.9798 81.6948 28.0198 81.6948 28.0598C81.7148 28.1498 81.7348 28.2398 81.7448 28.3298C81.7648 28.4198 81.7748 28.5098 81.7848 28.6098C81.7948 28.6498 81.7948 28.6998 81.8048 28.7398L81.8248 28.8698C81.8248 28.9598 81.8348 29.0498 81.8448 29.1498C81.8548 29.3298 81.8648 29.5198 81.8748 29.7098C81.8748 30.0998 81.8548 30.4798 81.8148 30.8598C81.7548 31.0398 81.6948 31.2298 81.6248 31.3998C81.6548 31.2498 81.6748 31.0898 81.7048 30.9298C81.7648 30.4898 81.8048 30.0398 81.8148 29.5998C81.8148 29.5698 81.8148 29.5398 81.8048 29.5398C81.7948 29.5398 81.7948 29.5698 81.7948 29.5898C81.7948 30.0398 81.7548 30.4898 81.6848 30.9198C81.6548 31.1198 81.6248 31.3098 81.5848 31.4998C80.9448 33.0498 79.8748 34.3898 78.2948 35.3098C77.0648 36.0298 75.5048 36.4898 74.0748 36.2698C72.8548 36.0798 71.4448 35.3498 70.8848 34.1798C71.9148 33.3898 72.9348 32.8598 73.6648 32.9698C74.4748 33.0998 74.4748 33.7298 74.4048 34.3398C74.9648 34.0898 75.1648 33.0598 75.1448 32.4798C75.0448 32.9698 74.9448 33.7698 74.5848 34.1398C74.6348 33.8598 74.6948 33.5898 74.7448 33.3198C74.7648 33.1298 74.7748 32.9298 74.7948 32.7398C74.7648 32.9898 74.7148 33.2198 74.6248 33.4198C74.7248 31.7598 74.7948 29.8398 73.7948 28.3898C73.7448 28.3598 73.6948 28.3298 73.6548 28.2698C74.1948 29.4098 74.6948 30.7898 74.6148 32.0698C74.4248 31.5198 74.3448 30.8598 74.1648 30.2798C73.9748 29.6898 73.7448 29.1198 73.4248 28.5998C72.7948 27.5798 71.9548 26.7298 70.7648 26.4098C69.4948 26.0798 67.9648 26.6398 66.7948 27.0898C64.2848 28.0798 59.6348 31.2898 58.1348 31.6498C58.1448 31.6598 58.1648 31.6598 58.1748 31.6698C57.9748 31.7498 57.7148 31.7798 57.4448 31.7998C57.4948 31.7998 57.5448 31.7998 57.6048 31.8098C56.9548 31.9298 56.2648 31.8598 55.6148 31.8198C56.3148 31.9698 56.9948 31.8998 57.6848 31.8898C56.9748 32.0498 56.1348 32.0598 55.4248 31.9498C55.2448 31.9298 55.1248 31.9298 55.0148 31.9398C55.5548 32.0498 56.1048 32.0798 56.6548 32.0998C55.5248 32.4598 53.9848 32.1898 53.0548 31.5398C49.4848 29.0098 49.7348 25.7798 49.5148 25.7198C49.1248 25.6198 49.1748 28.2698 49.3448 29.6498C49.5848 31.5298 50.5348 33.4498 51.8448 34.8998L51.8748 34.9198L51.9748 34.9898L52.0848 35.0598L52.2948 35.2098L52.5148 35.3398C52.5448 35.3598 52.5848 35.3898 52.6248 35.4098L52.7348 35.4698C52.8048 35.5098 52.8848 35.5598 52.9548 35.5898C53.1048 35.6698 53.2548 35.7498 53.4048 35.8198C53.4748 35.8498 53.5248 35.8898 53.5348 35.8998C53.5348 35.9098 53.4948 35.9098 53.4248 35.8698C52.9448 35.6698 52.4848 35.4098 52.0448 35.1098C52.1048 35.1698 52.1548 35.2198 52.2148 35.2798C52.1548 35.2298 52.0948 35.1698 52.0448 35.1098C51.6548 34.8498 51.2848 34.5598 50.9348 34.2398C51.2348 34.5298 51.5548 34.8098 51.8948 35.0698C52.0148 35.1598 52.1448 35.2498 52.2748 35.3398C52.2748 35.3398 52.2748 35.3398 52.2848 35.3498C52.5048 35.4998 52.7348 35.6398 52.9748 35.7698C53.0248 35.7898 53.0748 35.8198 53.1248 35.8398L53.1948 35.8798L53.2748 35.9098C53.3748 35.9598 53.4648 36.0098 53.5648 36.0498C54.0648 36.2698 54.5748 36.4498 55.0948 36.5598C55.6248 36.6798 56.1548 36.7398 56.7048 36.7398C57.1748 36.7298 57.6148 36.6798 58.0448 36.5798L58.2048 36.5498C58.2548 36.5298 58.3148 36.5198 58.3648 36.5098C58.4748 36.4798 58.5748 36.4498 58.6848 36.4198C58.7948 36.3898 58.9048 36.3498 59.0048 36.3198C59.1148 36.2798 59.2248 36.2298 59.3348 36.1998C59.4148 36.1698 59.4948 36.1398 59.5648 36.0998C59.6448 36.0698 59.7248 36.0398 59.7948 36.0098C59.8748 35.9798 59.9448 35.9398 60.0248 35.8998C60.0948 35.8698 60.1648 35.8298 60.2448 35.7998C60.3848 35.7298 60.5348 35.6498 60.6848 35.5798C60.7548 35.5398 60.8248 35.5098 60.9048 35.4698L61.1248 35.3498C61.7048 35.0398 62.2848 34.7098 62.9148 34.3798C63.0748 34.2898 63.2448 34.2198 63.2748 34.2298C63.3048 34.2398 63.1948 34.3298 63.0248 34.4198C62.3848 34.7898 61.7648 35.1498 61.1348 35.4898C60.8148 35.6598 60.5048 35.8098 60.1848 35.9598L59.9448 36.0698L59.8248 36.1298L59.6948 36.1798L59.4548 36.2798L59.2148 36.3698L59.0848 36.4198L58.9648 36.4598L58.7148 36.5398L58.4448 36.5698L58.3248 36.5998L58.1948 36.6298C58.1148 36.6498 58.0248 36.6598 57.9348 36.6798C57.8548 36.6998 57.7648 36.7098 57.6848 36.7198L57.5548 36.7498C57.5148 36.7598 57.4648 36.7498 57.4248 36.7598C57.3448 36.7698 57.2548 36.7798 57.1648 36.7898C57.0748 36.7898 56.9848 36.7998 56.9048 36.7998H56.7748H56.6448C56.5548 36.7998 56.4748 36.7998 56.3748 36.7898C56.2848 36.7898 56.2048 36.7798 56.1148 36.7698C55.7648 36.7398 55.4048 36.6898 55.0548 36.6098C54.9048 36.5698 54.7548 36.5298 54.6048 36.4898C54.5648 36.4698 54.5248 36.4698 54.4948 36.4498L54.3848 36.4098C54.3148 36.3798 54.2348 36.3598 54.1648 36.3398V36.3498C54.1648 36.3598 54.1348 36.3698 54.0848 36.3598C54.1648 36.3898 54.2448 36.4198 54.3248 36.4398C54.4148 36.4698 54.4948 36.4998 54.5748 36.5298C54.6548 36.5498 54.7448 36.5798 54.8248 36.5998L54.8848 36.6198L54.9548 36.6298L55.0748 36.6598C55.8348 36.7998 56.6148 36.8398 57.4048 36.7598C57.4148 36.7598 57.4248 36.7598 57.4348 36.7498C57.6348 36.7298 57.8448 36.6998 58.0548 36.6698C58.1448 36.6498 58.2248 36.6398 58.3148 36.6198C58.4048 36.5998 58.4848 36.5798 58.5648 36.5598C58.6048 36.5498 58.6448 36.5398 58.6948 36.5298C58.7348 36.5198 58.7748 36.5098 58.8148 36.4998C58.8948 36.4798 58.9748 36.4598 59.0648 36.4398C59.1348 36.4198 59.1948 36.3998 59.2548 36.3798C59.2748 36.3798 59.2848 36.3698 59.3048 36.3698C59.3848 36.3398 59.4648 36.3198 59.5448 36.2898C59.7048 36.2398 59.8648 36.1898 60.0248 36.1298C60.2248 36.0498 60.4148 35.9498 60.6148 35.8598C60.8048 35.7698 61.0048 35.6698 61.1848 35.5698C61.5448 35.3798 61.9048 35.1798 62.2648 34.9798C64.1648 33.7098 66.1848 31.9098 67.7448 31.1698C68.0148 31.0398 68.2948 30.8998 68.5648 30.7798C68.5448 30.7898 68.5348 30.7998 68.5248 30.8198C68.8648 30.6898 69.4548 30.3998 69.8148 30.5298C69.4148 30.7698 68.8548 30.8298 68.4148 31.0298C67.8848 31.2698 67.4848 31.6398 67.0748 32.0498C67.5548 31.7498 68.0748 31.3698 68.6248 31.2098C68.0248 31.5998 67.3448 31.9098 66.7648 32.3698C66.8248 32.3498 66.8948 32.3598 66.9348 32.3498C66.9048 32.4198 66.8848 32.4798 66.8148 32.5398C66.9848 32.4198 67.1648 32.2698 67.3648 32.2098C67.3448 32.2298 67.3348 32.2398 67.3148 32.2598C67.3148 32.2598 67.3148 32.2598 67.3048 32.2598C67.1348 32.3798 66.9648 32.4998 66.7948 32.6298C66.6548 32.7398 66.5148 32.8498 66.3748 32.9598C66.5148 32.8498 66.6548 32.7398 66.7948 32.6298C66.5948 32.7698 66.3848 32.9198 66.1948 33.0798C65.9948 33.2098 65.8048 33.3598 65.6548 33.5398C65.6848 33.5098 65.7348 33.4798 65.7648 33.4498C65.6548 33.5598 65.5448 33.6598 65.4448 33.7698C66.2948 33.1098 67.1848 32.3198 68.1848 31.8798C68.1548 31.9098 68.1048 31.9398 68.0648 31.9698C68.1748 31.9098 68.3148 31.8498 68.4448 31.8598C68.3748 31.9298 68.2948 32.0098 68.2048 32.0698C68.4148 31.9798 68.6148 31.9098 68.8248 31.8798C68.4348 32.1798 67.9248 32.3798 67.5148 32.6498C67.0548 32.9698 66.6048 33.3198 66.1648 33.6698C65.2648 34.3898 64.4248 35.1598 63.5148 35.8498C64.2948 35.3898 64.9848 34.8198 65.6648 34.2198C66.2948 33.6598 66.9548 32.9698 67.7148 32.5898C67.6148 32.6698 67.5248 32.7498 67.4348 32.8298C67.5948 32.7198 67.7548 32.6298 67.9148 32.5798C66.9448 33.3098 66.0548 34.1398 65.1148 34.9098C64.7048 35.2398 64.3148 35.6298 63.8648 35.8898C63.3648 36.1998 62.8848 36.4098 62.4448 36.7998C63.0948 36.4998 63.7148 36.1098 64.2948 35.6898C64.9748 35.1998 65.5548 34.4698 66.2748 34.0598C65.4548 34.9698 64.5348 35.7798 63.5248 36.4798C62.8648 36.9298 62.3048 37.5298 61.6948 38.0398C61.4548 38.1098 61.3048 38.1098 61.3448 38.2198C61.2848 38.2698 61.2248 38.3298 61.1748 38.3898L61.1648 38.3998C61.0848 38.4598 61.0048 38.5198 60.9248 38.5898C60.8748 38.6198 60.8348 38.6398 60.7848 38.6598C60.8148 38.6498 60.8448 38.6398 60.8648 38.6298C60.6848 38.7898 60.5048 38.9598 60.3248 39.1398C60.5148 38.9198 60.7548 38.5998 60.9648 38.4498C60.5148 38.7098 60.1648 39.1498 59.8248 39.5498C59.8548 39.5298 59.8748 39.5098 59.9048 39.4898C59.8748 39.5098 59.8548 39.5298 59.8248 39.5498C59.5548 39.7498 59.2648 39.9298 58.9648 40.0898C58.4648 40.2498 57.9348 40.2898 57.4048 40.5098C57.5348 40.5098 57.6848 40.4998 57.8148 40.5098C57.4948 40.5698 57.1748 40.5998 56.8448 40.5898C56.8348 40.5898 56.8348 40.5898 56.8248 40.5898C56.4248 40.5498 56.0348 40.4698 55.7248 40.4298C55.8448 40.4598 55.9548 40.4798 56.0648 40.5098C55.8748 40.4798 55.6848 40.4498 55.4948 40.4098C56.5848 40.7698 57.6548 40.6298 58.7548 40.5698C58.7248 40.5798 58.6748 40.5998 58.6348 40.6098C58.7548 40.5998 58.8748 40.5898 58.9748 40.6298C58.9048 40.6798 58.8348 40.7198 58.7448 40.7598C58.9348 40.7498 59.1148 40.7398 59.3148 40.7498C58.9748 40.9098 58.5348 41.0098 58.0648 41.0398C58.0548 41.0498 58.0448 41.0398 58.0348 41.0398C57.2048 41.2198 56.3248 41.1498 55.4948 40.9198C55.3348 40.8798 55.1748 40.8298 55.0148 40.7698C55.1748 40.8198 55.3348 40.8798 55.4948 40.9098C56.0248 41.0298 56.5348 41.0398 57.0548 41.0298C56.7448 41.0098 56.4448 40.9798 56.1948 40.9498C55.0848 40.7998 54.1348 40.2398 53.1348 39.7998C53.6548 40.1798 54.2348 40.4998 54.8548 40.7198C54.4548 40.5898 54.0848 40.4198 53.7248 40.2398C54.4148 40.6698 55.1848 40.9698 55.9848 41.0998C56.3948 41.1698 56.8048 41.1798 57.2048 41.1798C57.5348 41.1798 57.9248 41.0798 58.2348 41.1198C56.9948 41.3598 55.7048 41.2798 54.5348 40.7698C53.4248 40.2998 52.5248 39.5798 51.4748 38.9998C52.1148 39.5498 52.8548 40.0198 53.6048 40.4298C54.3748 40.8498 55.1448 41.0098 55.9648 41.2798C54.6948 41.2498 53.4248 40.6098 52.3848 39.9398C51.4048 39.3198 50.6448 38.5198 49.7548 37.7998C47.9248 36.3198 46.3948 34.4598 45.0848 32.5198C43.8548 30.6798 42.8248 28.7198 41.9048 26.7198C40.9748 24.7098 40.1448 22.6498 39.3048 20.6098C38.4048 18.4198 37.4948 16.2298 36.3048 14.1798C36.1548 13.9198 36.0048 13.6598 35.8448 13.4098C35.9848 13.7398 36.1748 14.0898 36.2548 14.4498C35.9048 13.8098 35.7148 13.1498 35.2748 12.5498C35.2948 12.6098 35.2848 12.6698 35.2948 12.7198C35.1948 12.6398 35.1048 12.5398 35.0148 12.4298C35.1248 12.6598 35.2248 12.8898 35.2748 13.0998C34.9748 12.7198 34.7648 12.2198 34.5048 11.7998C34.3448 11.5698 34.1948 11.3298 34.0348 11.0998C34.2048 11.3598 34.3548 11.6198 34.4748 11.8798C33.9748 11.2798 33.5748 10.5998 33.0648 10.0098C32.5148 9.36984 32.1548 8.95984 31.5248 8.40984C32.2648 9.13984 32.7948 9.68984 33.4248 10.5398C32.6948 9.89984 32.3648 9.29985 31.6248 8.64985C31.0848 8.16985 30.3148 7.24984 29.5848 7.10984C29.5948 7.11984 29.6048 7.13984 29.6048 7.13984C29.2848 7.11984 28.9548 6.87984 28.6648 6.74984C28.2848 6.58984 27.9348 6.36984 27.5448 6.21984C27.6848 6.25984 27.8148 6.30984 27.9548 6.36984C27.7648 6.23984 27.2948 5.85984 26.9948 5.83984C26.9848 5.85984 26.9448 5.86984 26.9048 5.87984Z" fill="white"/>
<path d="M61.0938 35.0802C61.1037 35.0802 61.1137 35.0702 61.1237 35.0702C61.4437 34.8802 61.7838 34.6602 62.1138 34.4102C61.7838 34.6502 61.4437 34.8702 61.0938 35.0802Z" fill="white"/>
<mask id="mask0_1176_46386" style="mask-type:luminance" maskUnits="userSpaceOnUse" x="61" y="34" width="1" height="2">
<path d="M61.3658 35.3088C61.3741 35.3033 61.377 35.2894 61.3853 35.2839C61.5473 34.9489 61.7095 34.5778 61.8468 34.1872C61.704 34.5694 61.5418 34.9405 61.3658 35.3088Z" fill="white"/>
</mask>
<g mask="url(#mask0_1176_46386)">
<path d="M61.7929 33.9245L60.7754 34.5977L61.421 35.5734L62.4385 34.9002L61.7929 33.9245Z" fill="white"/>
</g>
<path d="M22.3741 33.6413C22.3741 33.6513 22.3841 33.6513 22.3841 33.6613C22.3741 33.6513 22.3741 33.6413 22.3741 33.6413ZM23.1741 9.09126C23.1141 9.12126 23.0641 9.40126 22.9641 9.71126C22.8641 10.0213 22.7241 10.3713 22.5741 10.5613C22.4941 10.6413 22.4641 10.3813 22.3641 10.2513C22.1941 10.8013 22.0441 10.7713 22.0141 10.5213C21.9841 10.5813 21.9641 10.6413 21.9441 10.6813C21.9241 10.7313 21.9041 10.7513 21.9041 10.7513C21.8841 10.7113 21.7941 10.5713 21.7941 10.5713C21.4941 11.1913 21.0341 11.7613 20.5541 12.2613C20.0741 12.7713 19.5541 13.1913 19.0841 13.6113C18.9841 13.7013 18.8441 13.8113 18.7041 13.9413C18.5541 14.0613 18.4041 14.1913 18.2741 14.2813C18.1541 14.3813 17.8141 14.4313 17.6741 14.4713C17.4941 14.6513 17.5641 14.7713 17.5141 14.9213C16.9841 15.0313 16.0541 15.1813 15.2241 15.4713C15.0141 15.5413 14.8241 15.6213 14.6441 15.7113C14.4641 15.8013 14.3241 15.9013 14.1941 15.9913C13.9541 16.1713 13.8541 16.3113 13.9341 16.3913C13.7041 16.5413 13.5241 16.6813 13.3741 16.8113C13.2241 16.9413 13.1241 17.0913 13.0141 17.2313C12.9641 17.3013 12.9041 17.3713 12.8541 17.4413C12.8041 17.5213 12.7541 17.6113 12.6941 17.7013C12.6341 17.7913 12.5741 17.8913 12.5141 17.9913C12.4541 18.1013 12.3941 18.2313 12.3241 18.3713C12.1441 18.7413 12.0441 19.1713 12.0041 19.6213C11.9941 19.8413 12.0041 20.0713 12.0141 20.2913C12.0541 20.5113 12.0741 20.7413 12.1341 20.9513C12.3541 21.8113 12.7641 22.6013 13.2041 23.3213C13.4541 23.7113 13.7041 24.0813 13.9541 24.4413C14.1841 24.8013 14.4141 25.1613 14.6441 25.5313C14.8141 25.8013 14.9841 26.0613 15.1441 26.3113C16.2341 28.0013 17.7141 29.3713 19.0241 30.8713C20.3041 32.3313 21.2741 34.0613 22.6841 35.4013C23.4341 36.1213 24.1941 36.8313 24.8941 37.6013C25.4241 38.1813 25.9241 38.7913 26.3541 39.4313C26.7841 40.0713 27.1341 40.7413 27.4241 41.4513C28.1041 43.0913 28.8041 45.1213 29.6741 46.8213L29.7641 46.9413C29.2341 45.3113 28.8541 43.6613 28.2841 42.0513C27.9941 41.2513 27.6841 40.4513 27.2541 39.6913C26.8341 38.9313 26.3341 38.2213 25.8041 37.5313C25.3441 36.9113 24.4341 35.9513 23.6341 35.0813C24.3941 35.8713 25.2041 36.6413 25.8841 37.4913C26.9641 38.8313 27.8941 40.3213 28.4241 41.9713C28.9141 43.5013 29.3841 45.0313 29.8241 46.5813C29.1541 43.8713 28.4541 41.1113 26.9841 38.7313C27.9541 40.0013 28.5241 41.5213 28.9641 43.0513C29.4041 44.5813 29.7141 46.1513 30.2341 47.6613C29.6641 44.7813 29.1841 41.8313 27.8241 39.2313C26.8641 37.3913 25.4741 35.7813 23.8141 34.5213C22.8041 33.7513 22.0041 32.7613 21.2941 31.7213C20.5541 30.6513 19.7841 29.6713 18.9641 28.6613C18.0241 27.5113 16.6741 26.8113 15.9141 25.4813C14.9741 23.8613 14.0041 23.0313 13.7341 21.6413C13.2841 20.9913 13.0341 20.0413 13.3341 19.2613C13.3741 19.1713 13.3941 19.0613 13.4541 18.9813L13.6141 18.7213C13.6741 18.6413 13.7541 18.5613 13.8141 18.4813L13.9141 18.3613L14.0341 18.2613C14.1141 18.1913 14.1941 18.1213 14.2741 18.0513C14.3641 17.9913 14.4541 17.9313 14.5441 17.8713C14.6341 17.8113 14.7141 17.7413 14.8041 17.6913C14.8941 17.6413 14.9841 17.5813 15.0741 17.5313C15.1641 17.4813 15.2441 17.4313 15.3341 17.3813C15.4241 17.3413 15.5041 17.3013 15.5841 17.2713C15.7541 17.2013 15.9241 17.1413 16.0841 17.1013C16.4041 17.0113 16.7041 16.9413 17.0141 16.8913C17.6241 16.7813 18.2341 16.7413 19.1041 16.4813C19.3441 16.3913 19.5441 16.2913 19.7241 16.2113C19.9041 16.1313 20.0541 16.0513 20.1941 16.0013C20.4941 15.9113 20.9741 15.3413 21.3741 15.0313L21.3641 15.2113C21.4941 15.1013 21.7641 14.8913 21.8941 14.7813C22.0241 14.6613 22.0241 14.7213 22.0241 14.7813C22.0241 14.9013 22.0241 15.0213 22.2841 14.8413C22.8441 14.3513 23.3541 13.7813 23.7841 13.1213C24.1141 12.4213 24.3541 11.7013 24.4841 10.9713C24.4441 10.9113 24.3941 10.8513 24.3841 10.7413L24.4241 10.4213L24.4441 10.1013C24.3441 9.95126 24.2041 9.97126 24.1341 9.87126C23.9641 9.84126 23.8241 9.60126 23.6741 9.41126C23.5541 9.25126 23.4341 9.12126 23.3041 9.11126C23.2441 9.07126 23.2041 9.07126 23.1741 9.09126Z" fill="white"/>
<path d="M53.78 103.061C53.78 103.621 53.33 104.071 52.77 104.071H47.14V102.071C47.14 98.7009 44.4 95.9609 41.03 95.9609H35.17V98.4709H41.03C43.01 98.4709 44.63 100.081 44.63 102.071V104.071H32.37V101.001C32.37 98.2209 30.11 95.9709 27.33 95.9709C24.4 95.9709 22.02 98.3509 22.02 101.271C22.02 102.281 22.3 103.241 22.82 104.071H19.11V101.001C19.11 98.2209 16.85 95.9709 14.07 95.9709C11.14 95.9709 8.76 98.3509 8.76 101.271C8.76 102.281 9.04 103.241 9.56 104.071H3.52C2.96 104.071 2.51 103.621 2.51 103.061V96.1009H0V103.061C0 105.001 1.58 106.581 3.52 106.581H14.07H18.84V105.651L19.77 106.581H27.32H32.1V105.651L33.03 106.581H44.62V107.131H46.84V105.651L47.77 106.581H52.76C54.7 106.581 56.28 105.001 56.28 103.061V98.4709H56.48V95.9609H53.77V103.061H53.78ZM16.6 104.061H14.07C13.32 104.061 12.62 103.771 12.09 103.241C11.56 102.711 11.27 102.011 11.27 101.261C11.27 99.7209 12.53 98.4609 14.07 98.4609C15.46 98.4609 16.59 99.5909 16.59 100.981V104.061H16.6ZM29.85 104.061H27.32C26.57 104.061 25.87 103.771 25.34 103.241C24.81 102.711 24.52 102.011 24.52 101.261C24.52 99.7209 25.78 98.4609 27.32 98.4609C28.71 98.4609 29.84 99.5909 29.84 100.981V104.061H29.85Z" fill="white"/>
<path d="M60.7395 97.5109C59.7395 98.5109 59.1895 99.8509 59.1895 101.271C59.1895 104.201 61.5695 106.571 64.4995 106.571C65.1195 106.571 65.7095 106.451 66.2595 106.251C65.4895 107.501 64.1995 108.401 62.6395 108.631L62.0695 108.721L62.4395 111.201L63.0095 111.111C66.7895 110.541 69.5295 107.351 69.5295 103.531V101.851H69.5095C69.5195 101.751 69.5295 101.651 69.5295 101.541V95.9609H64.4895C63.0695 95.9609 61.7395 96.5109 60.7395 97.5109ZM67.0195 101.541C67.0195 102.931 65.8895 104.061 64.4895 104.061C62.9495 104.061 61.6895 102.811 61.6895 101.261C61.6895 100.511 61.9795 99.8109 62.5095 99.2809C63.0395 98.7509 63.7395 98.4609 64.4895 98.4609H67.0195V101.541Z" fill="white"/>
<path d="M12.4192 91.7663L10.7363 93.4492L12.4192 95.1321L14.1021 93.4492L12.4192 91.7663Z" fill="white"/>
<path d="M15.8899 91.7702L14.207 93.4531L15.8899 95.136L17.5728 93.4531L15.8899 91.7702Z" fill="white"/>
<path d="M25.4485 91.7663L23.7656 93.4492L25.4485 95.1321L27.1314 93.4492L25.4485 91.7663Z" fill="white"/>
<path d="M28.927 91.7663L27.2441 93.4492L28.927 95.1321L30.6099 93.4492L28.927 91.7663Z" fill="white"/>
<path d="M54.7981 91.7663L53.1152 93.4492L54.7981 95.1321L56.481 93.4492L54.7981 91.7663Z" fill="white"/>
<path d="M121.42 95.9592V103.059C121.42 103.619 120.97 104.069 120.41 104.069H114.78V102.069C114.78 98.6992 112.04 95.9592 108.67 95.9592H102.81V98.4692H108.67C110.65 98.4692 112.27 100.079 112.27 102.069V104.069H95.4498C95.5198 103.799 95.5598 103.529 95.5598 103.239V103.059V96.0992V92.9492H93.0498V96.0992V103.059V103.239C93.0498 103.699 92.6798 104.069 92.2198 104.069H86.6598V100.999C86.6598 98.2192 84.3998 95.9692 81.6198 95.9692C78.6898 95.9692 76.3098 98.3492 76.3098 101.269C76.3098 101.449 76.3198 101.629 76.3398 101.809V102.939C76.3398 104.079 75.4098 105.019 74.2598 105.019V107.529C75.9198 107.529 77.3698 106.639 78.1798 105.319C79.1398 106.139 80.3398 106.589 81.6198 106.589H81.9598H86.1998V105.339L87.4498 106.589H92.2098C93.5698 106.589 94.7498 105.769 95.2598 104.589V106.589H112.26V107.139H114.48V106.589V105.659L115.41 106.589H120.4C122.34 106.589 123.92 105.009 123.92 103.069V98.4792H124.12V95.9692H121.42V95.9592ZM84.1598 104.059H81.9698H81.6298C80.8798 104.059 80.1798 103.769 79.6498 103.239C79.2098 102.799 78.9398 102.239 78.8598 101.629V101.259H78.8298C78.8298 99.7192 80.0898 98.4592 81.6298 98.4592C83.0198 98.4592 84.1498 99.5892 84.1498 100.979V104.059H84.1598Z" fill="white"/>
<path d="M122.439 91.7702L120.756 93.4531L122.439 95.136L124.122 93.4531L122.439 91.7702Z" fill="white"/>
<path d="M69.2495 117.94L69.0395 116.42C68.8995 115.38 68.0195 114.61 66.9695 114.61H64.7595L64.7795 119.08H62.0695C61.2095 119.08 60.7895 118.52 60.7895 117.4C60.7895 116.29 61.1995 115.74 62.0295 115.74H62.7895V114.59H61.9495C61.0895 114.59 60.4495 114.91 59.9995 115.56C59.6295 116.1 59.4395 116.74 59.4395 117.47C59.4395 118.37 59.6595 119.08 60.0895 119.6C60.5195 120.12 61.1695 120.38 62.0395 120.38H66.1295L66.1095 115.76H66.9095C67.2395 115.76 67.5195 116.01 67.5595 116.34L67.7895 118.1C67.9595 119.41 69.0695 120.39 70.3795 120.39H72.6195V119.1H70.5495C69.8895 119.07 69.3395 118.58 69.2495 117.94Z" fill="white"/>
<path d="M64.1103 120.898C63.8903 120.898 63.7103 120.978 63.5503 121.128C63.4003 121.278 63.3203 121.468 63.3203 121.688C63.3203 121.908 63.4003 122.098 63.5503 122.248C63.7003 122.408 63.8903 122.478 64.1103 122.478C64.3203 122.478 64.5003 122.398 64.6603 122.248C64.8103 122.098 64.8903 121.908 64.8903 121.688C64.8903 121.468 64.8103 121.288 64.6603 121.128C64.5003 120.968 64.3203 120.898 64.1103 120.898Z" fill="white"/>
<path d="M62.3288 120.898C62.1188 120.898 61.9388 120.978 61.7788 121.128C61.6288 121.278 61.5488 121.468 61.5488 121.688C61.5488 121.908 61.6288 122.098 61.7788 122.248C61.9288 122.408 62.1188 122.478 62.3288 122.478C62.5488 122.478 62.7288 122.398 62.8888 122.248C63.0388 122.098 63.1188 121.908 63.1188 121.688C63.1188 121.468 63.0388 121.288 62.8888 121.128C62.7288 120.968 62.5488 120.898 62.3288 120.898Z" fill="white"/>
<path d="M72.6699 119.071V115.421L73.9799 115.301V119.071H75.1099V120.361H72.4199V119.071H72.6699Z" fill="white"/>
<path d="M73.2295 114.828C73.0095 114.828 72.8295 114.748 72.6695 114.598C72.5195 114.438 72.4395 114.258 72.4395 114.048C72.4395 113.828 72.5195 113.638 72.6695 113.488C72.8195 113.338 73.0095 113.258 73.2295 113.258C73.4495 113.258 73.6295 113.338 73.7795 113.488C73.9295 113.648 73.9995 113.828 73.9995 114.048C73.9995 114.258 73.9195 114.448 73.7795 114.598C73.6395 114.748 73.4495 114.828 73.2295 114.828Z" fill="white"/>
<path d="M40.9302 119.039H32.9102V120.329H40.9302V119.039Z" fill="white"/>
<path d="M93.369 113.231L93.379 118.331C93.379 118.791 93.199 119.041 92.839 119.071H90.709V120.361H93.159C93.759 120.321 94.179 120.001 94.449 119.421C94.619 119.031 94.709 118.611 94.709 118.161V113.121L93.369 113.231Z" fill="white"/>
<path d="M96.1895 113.231V120.361H97.5195V113.121L96.1895 113.231Z" fill="white"/>
<path d="M115.89 119.07H111.58V120.36H115.89V119.07Z" fill="white"/>
<path d="M115.19 121.131C115.03 120.971 114.85 120.901 114.64 120.901C114.42 120.901 114.24 120.971 114.09 121.131C113.93 121.281 113.85 121.461 113.85 121.681C113.85 121.901 113.93 122.081 114.09 122.241C114.24 122.401 114.43 122.481 114.64 122.481C114.85 122.481 115.03 122.401 115.19 122.241C115.35 122.081 115.42 121.901 115.42 121.681C115.42 121.461 115.35 121.281 115.19 121.131ZM113.43 121.131C113.28 120.971 113.09 120.901 112.87 120.901C112.66 120.901 112.48 120.971 112.33 121.131C112.17 121.281 112.1 121.461 112.1 121.681C112.1 121.901 112.18 122.081 112.33 122.241C112.48 122.401 112.66 122.481 112.87 122.481C113.09 122.481 113.28 122.401 113.43 122.241C113.59 122.081 113.66 121.901 113.66 121.681C113.66 121.461 113.58 121.281 113.43 121.131ZM116.7 119.071V115.301L115.38 115.421V119.081H113.91V120.371H117.93V119.081H116.7V119.071Z" fill="white"/>
<path d="M121.1 113.129L119.76 113.249L119.8 118.329C119.8 118.789 119.62 119.039 119.26 119.069H115.35V120.359H119.58C120.18 120.319 120.6 119.999 120.86 119.419C121.03 119.029 121.12 118.609 121.12 118.159L121.1 113.129Z" fill="white"/>
<path d="M123.91 113.129L122.57 113.249L122.6 120.359H123.93L123.91 113.129Z" fill="white"/>
<path d="M17.5696 121.101C17.4096 120.951 17.2396 120.871 17.0196 120.871C16.8096 120.871 16.6196 120.951 16.4696 121.101C16.3096 121.251 16.2396 121.441 16.2396 121.651C16.2396 121.871 16.3096 122.061 16.4696 122.211C16.6196 122.371 16.8096 122.441 17.0196 122.441C17.2396 122.441 17.4096 122.371 17.5696 122.211C17.7296 122.051 17.7996 121.871 17.7996 121.651C17.7996 121.441 17.7196 121.251 17.5696 121.101ZM15.7996 121.101C15.6496 120.951 15.4596 120.871 15.2496 120.871C15.0396 120.871 14.8596 120.951 14.6996 121.101C14.5396 121.251 14.4696 121.441 14.4696 121.651C14.4696 121.871 14.5396 122.061 14.6996 122.211C14.8596 122.371 15.0396 122.441 15.2496 122.441C15.4696 122.441 15.6496 122.371 15.7996 122.211C15.9596 122.051 16.0296 121.871 16.0296 121.651C16.0296 121.441 15.9496 121.251 15.7996 121.101ZM22.3196 118.281C22.1196 117.831 21.9996 117.341 21.9296 116.861C21.7296 115.361 20.9096 114.591 19.4696 114.551H17.6996V119.051H14.9696C14.1196 119.051 13.6896 118.491 13.6896 117.371C13.6896 116.261 14.1096 115.711 14.9396 115.711H15.6896V114.551H14.8496C13.9996 114.551 13.3496 114.871 12.9096 115.521C12.5296 116.061 12.3496 116.701 12.3496 117.421C12.3496 118.331 12.5596 119.041 12.9996 119.551C13.4296 120.071 14.0796 120.331 14.9496 120.331H19.0396V115.671H19.3396C20.0896 115.671 20.5196 116.041 20.6496 116.781C20.7096 117.171 20.7896 117.551 20.9196 117.921L21.1096 118.471H22.4196L22.3196 118.281Z" fill="white"/>
<path d="M24.679 114.449L24.339 115.679C25.599 116.029 26.339 116.819 26.549 118.049C26.589 118.289 26.619 118.619 26.619 119.039H23.459V120.329H27.939V118.859C27.859 116.439 26.769 114.969 24.679 114.449Z" fill="white"/>
<path d="M52.5497 113.249L52.5597 118.299C52.5597 118.769 52.3797 119.009 52.0197 119.039H41.4297V120.329H52.3397C52.9397 120.289 53.3597 119.969 53.6297 119.389C53.7997 118.999 53.8897 118.579 53.8897 118.129V113.129L52.5497 113.249Z" fill="white"/>
<path d="M55.3496 113.249V120.329H56.6896V113.129L55.3496 113.249Z" fill="white"/>
<path d="M48.1205 115.379L46.7805 115.499V119.039H45.4805V115.379L44.1405 115.499V119.039H39.8105V120.329H48.8005V119.039H48.1205V115.379Z" fill="white"/>
<path d="M49.4297 115.499V119.039H50.7697V115.379L49.4297 115.499Z" fill="white"/>
<path d="M88.98 114.778C88.4 114.768 87.83 115.008 87.4 115.428C86.98 115.848 86.75 116.408 86.75 117.008V118.128C86.75 119.358 87.74 120.348 88.97 120.348H89.48C89.09 120.908 88.4 121.188 87.38 121.188V122.498C89.38 122.498 90.29 121.588 90.71 120.828C90.8 120.668 90.87 120.508 90.92 120.348C91.08 119.898 91.14 119.448 91.16 119.058C91.18 118.818 91.18 118.608 91.18 118.438V116.998C91.19 115.778 90.2 114.778 88.98 114.778ZM89.88 118.468C89.88 118.628 89.88 118.828 89.86 119.048H88.96C88.46 119.048 88.05 118.638 88.05 118.128V117.008C88.05 116.758 88.15 116.528 88.32 116.358C88.49 116.178 88.72 116.088 88.96 116.088C89.46 116.088 89.87 116.498 89.87 117.008V118.468H89.88Z" fill="white"/>
<path d="M40.7501 116.218C40.4301 115.598 39.7101 115.188 38.9201 115.188C38.1201 115.168 37.3801 115.588 37.0501 116.228L36.0801 118.138L37.1801 119.048L38.4701 120.108L38.9401 119.528L39.3501 120.048L39.8001 119.688L40.6001 119.048L41.7201 118.148L40.7501 116.218ZM38.2201 116.808C38.3001 116.648 38.5601 116.488 38.9101 116.488H38.9201C39.2601 116.488 39.5201 116.648 39.6001 116.808L40.0901 117.778L38.9001 118.738L37.7301 117.778L38.2201 116.808Z" fill="white"/>
<path d="M109.72 114.778C109.15 114.768 108.57 115.008 108.15 115.428C107.73 115.848 107.5 116.408 107.5 117.008V118.128C107.5 119.358 108.49 120.348 109.72 120.348H110.23C109.85 120.908 109.16 121.188 108.13 121.188V122.498C110.14 122.498 111.05 121.588 111.46 120.828C111.55 120.668 111.62 120.508 111.67 120.348C111.83 119.898 111.89 119.448 111.91 119.058C111.93 118.818 111.93 118.608 111.93 118.438V116.998C111.93 115.778 110.94 114.778 109.72 114.778ZM110.62 118.468C110.62 118.628 110.62 118.828 110.6 119.048H109.7C109.19 119.048 108.79 118.638 108.79 118.128V117.008C108.79 116.758 108.89 116.528 109.06 116.358C109.23 116.178 109.46 116.088 109.7 116.088C110.21 116.088 110.61 116.498 110.61 117.008V118.468H110.62Z" fill="white"/>
<path d="M31.4488 114.789C30.8588 114.789 30.2988 115.019 29.8788 115.439C29.4588 115.869 29.2188 116.419 29.2188 117.019V118.139C29.2188 119.369 30.2088 120.369 31.4388 120.369H31.9488C31.5688 120.929 30.8788 121.209 29.8488 121.209V122.519C31.8488 122.519 32.7688 121.609 33.1788 120.849C33.2688 120.679 33.3488 120.509 33.4088 120.329C33.5688 119.879 33.6288 119.419 33.6488 119.039C33.6588 118.819 33.6588 118.619 33.6588 118.459V117.019C33.6588 115.799 32.6688 114.799 31.4488 114.789ZM32.3488 118.479C32.3488 118.639 32.3488 118.839 32.3288 119.059H31.4388C30.9388 119.059 30.5288 118.649 30.5288 118.139V117.019C30.5288 116.769 30.6188 116.539 30.7988 116.369C30.9688 116.199 31.1988 116.099 31.4388 116.099C31.9388 116.109 32.3488 116.509 32.3488 117.019V118.479Z" fill="white"/>
<path d="M85.0895 115.769C84.6395 115.119 83.9995 114.799 83.1395 114.799H77.2595L77.2695 113.109L75.9195 113.229V119.069H74.9395V120.359H83.0195C83.8795 120.359 84.5195 120.099 84.9595 119.569C85.3795 119.059 85.6395 118.359 85.5995 117.479C85.5795 116.839 85.3895 116.209 85.0895 115.769ZM82.9895 119.069H77.2495L77.2695 116.139H83.0395C83.7795 116.139 84.1895 116.599 84.2695 117.479C84.2295 118.529 83.7995 119.069 82.9895 119.069Z" fill="white"/>
<path d="M104.1 115.051C102.62 115.051 101.52 116.421 101.52 117.861C101.52 118.051 101.52 118.171 101.53 118.211C101.16 118.271 100.81 118.461 100.51 118.791C100.12 119.181 99.9199 119.751 99.9199 120.481V122.361H101.24V120.521C101.24 119.861 101.46 119.531 101.88 119.511C101.94 119.631 102 119.741 102.07 119.841C102.56 120.551 103.23 120.901 104.09 120.901C104.95 120.901 105.62 120.541 106.09 119.821C106.19 119.661 106.27 119.511 106.34 119.341C107.12 117.621 106.26 115.051 104.1 115.051ZM104.09 119.741C103.13 119.741 102.86 118.651 102.86 117.861C102.86 117.131 103.24 116.191 104.09 116.191C104.94 116.191 105.32 117.141 105.32 117.861C105.32 118.631 105.05 119.741 104.09 119.741Z" fill="white"/>
<path d="M4.64977 115.948V118.258C4.64977 119.738 3.82976 120.508 2.26976 120.508C0.83976 120.508 0.109761 119.858 0.059761 118.668H1.17976C1.22976 119.188 1.57976 119.508 2.28976 119.508C3.10976 119.508 3.49976 119.078 3.49976 118.208V117.438C3.11976 117.848 2.61976 118.048 1.95976 118.048C0.709763 118.048 0.00976562 117.318 0.00976562 115.948C0.00976562 114.508 0.779763 113.738 2.31976 113.738C3.82976 113.738 4.64977 114.488 4.64977 115.948ZM3.49976 116.188V115.998C3.49976 115.158 3.09976 114.738 2.30976 114.738C1.53976 114.738 1.16976 115.158 1.16976 115.918C1.16976 116.648 1.52976 117.048 2.23976 117.048C2.83976 117.048 3.25976 116.758 3.49976 116.188Z" fill="white"/>
<path d="M10.1303 118.978H9.41031V120.388H8.26031V118.978H5.07031V117.928L8.16031 113.848H9.42031V117.998H10.1403V118.978H10.1303ZM8.26031 117.998V115.268L6.23032 117.998H8.26031Z" fill="white"/>
</svg>
