<svg width="46" height="47" viewBox="0 0 46 47" fill="none" xmlns="http://www.w3.org/2000/svg">
<path d="M23 45.5313C18.7353 45.5313 14.5665 44.2392 11.0205 41.8183C7.47459 39.3975 4.71087 35.9567 3.07886 31.931C1.44684 27.9053 1.01983 23.4756 1.85183 19.2019C2.68382 14.9283 4.73745 11.0027 7.75302 7.92156C10.7686 4.84044 14.6107 2.74216 18.7934 1.89208C22.9761 1.042 27.3116 1.4783 31.2516 3.14579C35.1917 4.81328 38.5593 7.63708 40.9286 11.2601C43.2979 14.8831 44.5625 19.1426 44.5625 23.5C44.5625 29.3431 42.2908 34.9468 38.247 39.0785C34.2032 43.2101 28.7187 45.5313 23 45.5313ZM23 2.93751C19.0197 2.93751 15.1287 4.14348 11.8192 6.40292C8.50962 8.66235 5.93015 11.8738 4.40693 15.6311C2.88372 19.3884 2.48518 23.5228 3.26171 27.5116C4.03823 31.5003 5.95495 35.1642 8.76949 38.0399C11.584 40.9156 15.1699 42.874 19.0738 43.6674C22.9777 44.4608 27.0242 44.0536 30.7015 42.4973C34.3789 40.941 37.522 38.3054 39.7333 34.9239C41.9447 31.5424 43.125 27.5669 43.125 23.5C43.125 18.0465 41.0047 12.8163 37.2305 8.96013C33.4564 5.10391 28.3375 2.93751 23 2.93751Z" fill="#8690FA"/>
<path d="M23 41.125C32.5269 41.125 40.25 33.234 40.25 23.5C40.25 13.766 32.5269 5.875 23 5.875C13.4731 5.875 5.75 13.766 5.75 23.5C5.75 33.234 13.4731 41.125 23 41.125Z" fill="#3F2975"/>
<path d="M29.3391 26.6578C29.2159 26.5281 29.0684 26.425 28.9054 26.3546C28.7425 26.2842 28.5673 26.2479 28.3904 26.2479C28.2135 26.2479 28.0383 26.2842 27.8754 26.3546C27.7124 26.425 27.5649 26.5281 27.4416 26.6578L24.351 29.8156V13.865C24.351 13.6837 24.3161 13.5042 24.2482 13.3367C24.1803 13.1692 24.0807 13.017 23.9552 12.8888C23.8298 12.7605 23.6808 12.6589 23.5169 12.5895C23.3529 12.5201 23.1772 12.4844 22.9998 12.4844C22.8223 12.4844 22.6466 12.5201 22.4827 12.5895C22.3187 12.6589 22.1698 12.7605 22.0443 12.8888C21.9188 13.017 21.8193 13.1692 21.7514 13.3367C21.6835 13.5042 21.6485 13.6837 21.6485 13.865V29.8156L18.5579 26.6578C18.4346 26.5281 18.2871 26.425 18.1242 26.3546C17.9612 26.2842 17.7861 26.2479 17.6091 26.2479C17.4322 26.2479 17.2571 26.2842 17.0941 26.3546C16.9311 26.425 16.7837 26.5281 16.6604 26.6578C16.5348 26.786 16.4351 26.9383 16.3671 27.1059C16.2992 27.2735 16.2642 27.4531 16.2642 27.6345C16.2642 27.816 16.2992 27.9956 16.3671 28.1632C16.4351 28.3308 16.5348 28.483 16.6604 28.6112L22.051 34.1044C22.1762 34.2282 22.3223 34.3277 22.4823 34.3981C22.8153 34.5294 23.1842 34.5294 23.5173 34.3981C23.6772 34.3277 23.8234 34.2282 23.9485 34.1044L29.3391 28.6112C29.4648 28.483 29.5644 28.3308 29.6324 28.1632C29.7004 27.9956 29.7354 27.816 29.7354 27.6345C29.7354 27.4531 29.7004 27.2735 29.6324 27.1059C29.5644 26.9383 29.4648 26.786 29.3391 26.6578Z" fill="#8690FA"/>
</svg>
