<svg width="228" height="222" viewBox="0 0 228 222" fill="none" xmlns="http://www.w3.org/2000/svg">
<path d="M78.6504 18.046C102.208 2.56269 135.312 5.71871 156.138 28.701C167.524 41.2711 172.149 58.5617 183.969 70.8621C197.275 84.7 213.179 98.1602 219.21 117.042C225.62 137.111 219.994 160.121 205.66 175.469C188.215 194.135 162.575 188.525 138.342 188.228C39.1088 186.987 -34.6464 120.927 59.2042 39.4908C67.0476 32.6392 70.8611 23.1442 78.6504 18.046Z" fill="#CCE9FF"/>
<path d="M166.605 75.7982H134.961C133.176 75.7982 131.715 74.3416 131.715 72.5613V52.0607C131.715 50.2804 133.176 48.8237 134.961 48.8237H166.605C168.39 48.8237 169.851 50.2804 169.851 52.0607V72.5613C169.851 74.3416 168.39 75.7982 166.605 75.7982Z" fill="white"/>
<path d="M129.984 52.6271V72.8849C129.984 75.6903 132.256 77.9561 135.069 77.9561H165.523C168.336 77.9561 170.608 75.6903 170.608 72.8849V52.6271C170.608 49.8218 168.336 47.5559 165.523 47.5559H135.069C132.256 47.5559 129.984 49.8218 129.984 52.6271ZM132.635 73.3975C132.608 73.2356 132.527 73.0738 132.527 72.9119V52.6541C132.527 52.3843 132.608 52.1416 132.689 51.9258L143.426 61.1241L132.635 73.3975ZM165.523 50.0915C165.685 50.0915 165.848 50.1455 166.01 50.1994L150.296 63.6327L134.582 50.1994C134.745 50.1724 134.88 50.0915 135.069 50.0915H165.523ZM157.166 61.0701L167.903 51.8718C167.984 52.1146 168.066 52.3574 168.066 52.6001V72.858C168.066 73.0468 168.011 73.1817 167.957 73.3435L157.166 61.0701ZM135.069 75.4205C134.799 75.4205 134.582 75.3396 134.339 75.2857L145.347 62.7425L149.458 66.2762C149.701 66.492 149.999 66.5729 150.296 66.5729C150.594 66.5729 150.891 66.465 151.135 66.2762L155.246 62.7425L166.253 75.2857C166.01 75.3666 165.794 75.4205 165.523 75.4205H135.069Z" fill="#FFBE55"/>
<path d="M182.021 133.793H158.221C156.436 133.793 154.975 132.337 154.975 130.557V115.613C154.975 113.832 156.436 112.376 158.221 112.376H182.021C183.806 112.376 185.267 113.832 185.267 115.613V130.557C185.267 132.337 183.806 133.793 182.021 133.793Z" fill="white"/>
<path d="M154.11 115.262V131.285C154.11 133.497 155.895 135.304 158.14 135.304H182.238C184.456 135.304 186.268 133.524 186.268 131.285V115.262C186.268 113.05 184.483 111.243 182.238 111.243H158.14C155.922 111.27 154.11 113.05 154.11 115.262ZM156.192 131.689C156.165 131.554 156.111 131.447 156.111 131.285V115.262C156.111 115.046 156.165 114.857 156.219 114.668L164.712 121.925L156.192 131.689ZM182.238 113.266C182.373 113.266 182.481 113.32 182.616 113.347L170.202 123.975L157.788 113.347C157.923 113.32 158.031 113.266 158.167 113.266H182.238ZM175.611 121.952L184.104 114.695C184.158 114.884 184.212 115.073 184.212 115.289V131.312C184.212 131.447 184.158 131.581 184.131 131.716L175.611 121.952ZM158.14 133.281C157.923 133.281 157.761 133.227 157.572 133.173L166.28 123.246L169.553 126.025C169.742 126.187 169.986 126.267 170.202 126.267C170.446 126.267 170.662 126.187 170.851 126.025L174.124 123.246L182.833 133.173C182.643 133.227 182.454 133.281 182.265 133.281H158.14Z" fill="#2A94F4"/>
<path d="M193.76 49.2015V60.0452C193.76 61.5558 194.977 62.7696 196.491 62.7696H212.8C214.315 62.7696 215.532 61.5558 215.532 60.0452V49.2015C215.532 47.6909 214.315 46.4771 212.8 46.4771H196.491C194.977 46.4771 193.76 47.6909 193.76 49.2015ZM195.193 60.315C195.166 60.234 195.139 60.1531 195.139 60.0452V49.2015C195.139 49.0666 195.166 48.9317 195.22 48.7969L200.981 53.7062L195.193 60.315ZM212.8 47.8527C212.881 47.8527 212.962 47.8797 213.044 47.9067L204.632 55.1089L196.221 47.9067C196.302 47.8797 196.383 47.8527 196.464 47.8527H212.8ZM208.337 53.7332L214.098 48.8238C214.125 48.9587 214.179 49.0666 214.179 49.2284V60.0722C214.179 60.1531 214.152 60.261 214.125 60.3419L208.337 53.7332ZM196.491 61.3939C196.356 61.3939 196.221 61.367 196.113 61.313L202.009 54.5964L204.226 56.4846C204.362 56.5925 204.524 56.6464 204.659 56.6464C204.821 56.6464 204.984 56.5925 205.092 56.4846L207.31 54.5964L213.206 61.313C213.071 61.34 212.962 61.3939 212.827 61.3939H196.491Z" fill="#CCE9FF"/>
<path d="M198.249 105.201H188.512C186.727 105.201 185.267 103.744 185.267 101.964V96.191C185.267 94.4107 186.727 92.9541 188.512 92.9541H198.249C200.034 92.9541 201.495 94.4107 201.495 96.191V101.964C201.495 103.744 200.034 105.201 198.249 105.201Z" fill="white"/>
<path d="M184.861 94.8423V103.258C184.861 104.418 185.808 105.362 186.971 105.362H199.628C200.791 105.362 201.738 104.418 201.738 103.258V94.8423C201.738 93.6824 200.791 92.7383 199.628 92.7383H186.971C185.808 92.7653 184.861 93.6824 184.861 94.8423ZM185.97 103.474C185.943 103.393 185.916 103.339 185.916 103.258V94.8423C185.916 94.7344 185.943 94.6265 185.97 94.5456L190.433 98.349L185.97 103.474ZM199.628 93.8173C199.709 93.8173 199.764 93.8442 199.818 93.8442L193.3 99.428L186.781 93.8442C186.835 93.8442 186.917 93.8173 186.971 93.8173H199.628ZM196.139 98.349L200.602 94.5456C200.629 94.6535 200.656 94.7344 200.656 94.8423V103.258C200.656 103.339 200.629 103.393 200.602 103.474L196.139 98.349ZM186.971 104.31C186.863 104.31 186.754 104.283 186.673 104.256L191.244 99.0503L192.948 100.507C193.056 100.588 193.164 100.642 193.3 100.642C193.435 100.642 193.543 100.588 193.651 100.507L195.355 99.0503L199.926 104.256C199.818 104.283 199.737 104.31 199.628 104.31H186.971Z" fill="#FFBE55"/>
<path d="M165.631 25.5179V34.2577C165.631 35.4715 166.605 36.4426 167.822 36.4426H180.94C182.157 36.4426 183.13 35.4715 183.13 34.2577V25.5179C183.13 24.3041 182.157 23.333 180.94 23.333H167.822C166.632 23.333 165.631 24.3041 165.631 25.5179ZM166.794 34.4735C166.767 34.3925 166.74 34.3386 166.74 34.2577V25.5179C166.74 25.41 166.767 25.3021 166.794 25.1942L171.419 29.1595L166.794 34.4735ZM180.967 24.439C181.048 24.439 181.102 24.4659 181.183 24.4929L174.421 30.2924L167.66 24.4929C167.741 24.4659 167.795 24.439 167.876 24.439H180.967ZM177.369 29.1595L181.994 25.1942C182.021 25.3021 182.048 25.41 182.048 25.5179V34.2577C182.048 34.3386 182.021 34.3925 181.994 34.4735L177.369 29.1595ZM167.822 35.3367C167.714 35.3367 167.606 35.3097 167.498 35.2827L172.231 29.8878L174.016 31.3984C174.124 31.4793 174.232 31.5333 174.367 31.5333C174.503 31.5333 174.611 31.4793 174.719 31.3984L176.504 29.8878L181.237 35.2827C181.129 35.3097 181.048 35.3367 180.912 35.3367H167.822Z" fill="#2A94F4"/>
<path d="M143.67 80.4649C144.118 80.4649 144.481 80.1026 144.481 79.6557C144.481 79.2087 144.118 78.8464 143.67 78.8464C143.222 78.8464 142.858 79.2087 142.858 79.6557C142.858 80.1026 143.222 80.4649 143.67 80.4649Z" fill="#6B6B6B"/>
<path d="M141.1 81.8406C141.549 81.8406 141.912 81.4783 141.912 81.0314C141.912 80.5845 141.549 80.2222 141.1 80.2222C140.652 80.2222 140.289 80.5845 140.289 81.0314C140.289 81.4783 140.652 81.8406 141.1 81.8406Z" fill="#6B6B6B"/>
<path d="M138.585 83.2972C139.033 83.2972 139.396 82.9349 139.396 82.4879C139.396 82.041 139.033 81.6787 138.585 81.6787C138.137 81.6787 137.774 82.041 137.774 82.4879C137.774 82.9349 138.137 83.2972 138.585 83.2972Z" fill="#6B6B6B"/>
<path d="M136.557 85.3743C137.005 85.3743 137.368 85.012 137.368 84.5651C137.368 84.1182 137.005 83.7559 136.557 83.7559C136.108 83.7559 135.745 84.1182 135.745 84.5651C135.745 85.012 136.108 85.3743 136.557 85.3743Z" fill="#6B6B6B"/>
<path d="M134.826 87.6942C135.274 87.6942 135.637 87.3318 135.637 86.8849C135.637 86.438 135.274 86.0757 134.826 86.0757C134.377 86.0757 134.014 86.438 134.014 86.8849C134.014 87.3318 134.377 87.6942 134.826 87.6942Z" fill="#6B6B6B"/>
<path d="M133.5 90.2835C133.948 90.2835 134.312 89.9212 134.312 89.4743C134.312 89.0273 133.948 88.665 133.5 88.665C133.052 88.665 132.689 89.0273 132.689 89.4743C132.689 89.9212 133.052 90.2835 133.5 90.2835Z" fill="#6B6B6B"/>
<path d="M132.662 93.0621C133.11 93.0621 133.473 92.6998 133.473 92.2528C133.473 91.8059 133.11 91.4436 132.662 91.4436C132.214 91.4436 131.851 91.8059 131.851 92.2528C131.851 92.6998 132.214 93.0621 132.662 93.0621Z" fill="#6B6B6B"/>
<path d="M148.132 104.526C148.581 104.526 148.944 104.164 148.944 103.717C148.944 103.27 148.581 102.908 148.132 102.908C147.684 102.908 147.321 103.27 147.321 103.717C147.321 104.164 147.684 104.526 148.132 104.526Z" fill="#6B6B6B"/>
<path d="M145.211 104.526C145.659 104.526 146.023 104.164 146.023 103.717C146.023 103.27 145.659 102.908 145.211 102.908C144.763 102.908 144.4 103.27 144.4 103.717C144.4 104.164 144.763 104.526 145.211 104.526Z" fill="#6B6B6B"/>
<path d="M142.29 104.526C142.739 104.526 143.102 104.164 143.102 103.717C143.102 103.27 142.739 102.908 142.29 102.908C141.842 102.908 141.479 103.27 141.479 103.717C141.479 104.164 141.842 104.526 142.29 104.526Z" fill="#6B6B6B"/>
<path d="M139.369 104.526C139.818 104.526 140.181 104.164 140.181 103.717C140.181 103.27 139.818 102.908 139.369 102.908C138.921 102.908 138.558 103.27 138.558 103.717C138.558 104.164 138.921 104.526 139.369 104.526Z" fill="#6B6B6B"/>
<path d="M136.448 104.526C136.896 104.526 137.26 104.164 137.26 103.717C137.26 103.27 136.896 102.908 136.448 102.908C136 102.908 135.637 103.27 135.637 103.717C135.637 104.164 136 104.526 136.448 104.526Z" fill="#6B6B6B"/>
<path d="M181.94 99.8326C182.388 99.8326 182.752 99.4703 182.752 99.0233C182.752 98.5764 182.388 98.2141 181.94 98.2141C181.492 98.2141 181.129 98.5764 181.129 99.0233C181.129 99.4703 181.492 99.8326 181.94 99.8326Z" fill="#6B6B6B"/>
<path d="M179.019 99.7515C179.467 99.7515 179.831 99.3892 179.831 98.9423C179.831 98.4954 179.467 98.1331 179.019 98.1331C178.571 98.1331 178.208 98.4954 178.208 98.9423C178.208 99.3892 178.571 99.7515 179.019 99.7515Z" fill="#6B6B6B"/>
<path d="M176.098 99.6707C176.546 99.6707 176.91 99.3084 176.91 98.8615C176.91 98.4146 176.546 98.0522 176.098 98.0522C175.65 98.0522 175.287 98.4146 175.287 98.8615C175.287 99.3084 175.65 99.6707 176.098 99.6707Z" fill="#6B6B6B"/>
<path d="M173.258 100.372C173.707 100.372 174.07 100.01 174.07 99.5629C174.07 99.116 173.707 98.7537 173.258 98.7537C172.81 98.7537 172.447 99.116 172.447 99.5629C172.447 100.01 172.81 100.372 173.258 100.372Z" fill="#6B6B6B"/>
<path d="M170.446 101.154C170.894 101.154 171.257 100.792 171.257 100.345C171.257 99.8982 170.894 99.5359 170.446 99.5359C169.998 99.5359 169.634 99.8982 169.634 100.345C169.634 100.792 169.998 101.154 170.446 101.154Z" fill="#6B6B6B"/>
<path d="M168.038 102.773C168.487 102.773 168.85 102.41 168.85 101.964C168.85 101.517 168.487 101.154 168.038 101.154C167.59 101.154 167.227 101.517 167.227 101.964C167.227 102.41 167.59 102.773 168.038 102.773Z" fill="#6B6B6B"/>
<path d="M165.848 104.661C166.296 104.661 166.659 104.299 166.659 103.852C166.659 103.405 166.296 103.042 165.848 103.042C165.4 103.042 165.036 103.405 165.036 103.852C165.036 104.299 165.4 104.661 165.848 104.661Z" fill="#6B6B6B"/>
<path d="M164.09 106.981C164.538 106.981 164.901 106.618 164.901 106.172C164.901 105.725 164.538 105.362 164.09 105.362C163.642 105.362 163.278 105.725 163.278 106.172C163.278 106.618 163.642 106.981 164.09 106.981Z" fill="#6B6B6B"/>
<path d="M162.846 109.597C163.294 109.597 163.657 109.235 163.657 108.788C163.657 108.341 163.294 107.979 162.846 107.979C162.397 107.979 162.034 108.341 162.034 108.788C162.034 109.235 162.397 109.597 162.846 109.597Z" fill="#6B6B6B"/>
<path d="M195.545 66.1146C195.993 66.1146 196.356 65.7523 196.356 65.3053C196.356 64.8584 195.993 64.4961 195.545 64.4961C195.096 64.4961 194.733 64.8584 194.733 65.3053C194.733 65.7523 195.096 66.1146 195.545 66.1146Z" fill="#6B6B6B"/>
<path d="M193.137 67.7869C193.585 67.7869 193.949 67.4246 193.949 66.9777C193.949 66.5308 193.585 66.1685 193.137 66.1685C192.689 66.1685 192.326 66.5308 192.326 66.9777C192.326 67.4246 192.689 67.7869 193.137 67.7869Z" fill="#6B6B6B"/>
<path d="M190.46 68.8929C190.908 68.8929 191.271 68.5306 191.271 68.0836C191.271 67.6367 190.908 67.2744 190.46 67.2744C190.012 67.2744 189.648 67.6367 189.648 68.0836C189.648 68.5306 190.012 68.8929 190.46 68.8929Z" fill="#6B6B6B"/>
<path d="M187.728 69.9449C188.176 69.9449 188.54 69.5826 188.54 69.1356C188.54 68.6887 188.176 68.3264 187.728 68.3264C187.28 68.3264 186.917 68.6887 186.917 69.1356C186.917 69.5826 187.28 69.9449 187.728 69.9449Z" fill="#6B6B6B"/>
<path d="M184.888 70.5652C185.336 70.5652 185.7 70.2029 185.7 69.756C185.7 69.3091 185.336 68.9468 184.888 68.9468C184.44 68.9468 184.077 69.3091 184.077 69.756C184.077 70.2029 184.44 70.5652 184.888 70.5652Z" fill="#6B6B6B"/>
<path d="M182.021 71.1317C182.469 71.1317 182.833 70.7693 182.833 70.3224C182.833 69.8755 182.469 69.5132 182.021 69.5132C181.573 69.5132 181.21 69.8755 181.21 70.3224C181.21 70.7693 181.573 71.1317 182.021 71.1317Z" fill="#6B6B6B"/>
<path d="M179.1 71.3746C179.549 71.3746 179.912 71.0123 179.912 70.5653C179.912 70.1184 179.549 69.7561 179.1 69.7561C178.652 69.7561 178.289 70.1184 178.289 70.5653C178.289 71.0123 178.652 71.3746 179.1 71.3746Z" fill="#6B6B6B"/>
<path d="M176.179 71.4825C176.627 71.4825 176.991 71.1202 176.991 70.6732C176.991 70.2263 176.627 69.864 176.179 69.864C175.731 69.864 175.368 70.2263 175.368 70.6732C175.368 71.1202 175.731 71.4825 176.179 71.4825Z" fill="#6B6B6B"/>
<path d="M173.258 71.4014C173.707 71.4014 174.07 71.0391 174.07 70.5922C174.07 70.1453 173.707 69.783 173.258 69.783C172.81 69.783 172.447 70.1453 172.447 70.5922C172.447 71.0391 172.81 71.4014 173.258 71.4014Z" fill="#6B6B6B"/>
<path d="M162.223 31.9647C162.672 31.9647 163.035 31.6024 163.035 31.1554C163.035 30.7085 162.672 30.3462 162.223 30.3462C161.775 30.3462 161.412 30.7085 161.412 31.1554C161.412 31.6024 161.775 31.9647 162.223 31.9647Z" fill="#6B6B6B"/>
<path d="M159.411 32.72C159.859 32.72 160.222 32.3577 160.222 31.9108C160.222 31.4639 159.859 31.1016 159.411 31.1016C158.963 31.1016 158.599 31.4639 158.599 31.9108C158.599 32.3577 158.963 32.72 159.411 32.72Z" fill="#6B6B6B"/>
<path d="M157.085 34.4195C157.533 34.4195 157.896 34.0572 157.896 33.6103C157.896 33.1633 157.533 32.801 157.085 32.801C156.637 32.801 156.273 33.1633 156.273 33.6103C156.273 34.0572 156.637 34.4195 157.085 34.4195Z" fill="#6B6B6B"/>
<path d="M155.354 36.6583C155.802 36.6583 156.165 36.296 156.165 35.849C156.165 35.4021 155.802 35.0398 155.354 35.0398C154.906 35.0398 154.542 35.4021 154.542 35.849C154.542 36.296 154.906 36.6583 155.354 36.6583Z" fill="#6B6B6B"/>
<path d="M154.326 39.3826C154.774 39.3826 155.137 39.0203 155.137 38.5734C155.137 38.1265 154.774 37.7642 154.326 37.7642C153.878 37.7642 153.515 38.1265 153.515 38.5734C153.515 39.0203 153.878 39.3826 154.326 39.3826Z" fill="#6B6B6B"/>
<path d="M154.001 42.2691C154.449 42.2691 154.813 41.9068 154.813 41.4599C154.813 41.0129 154.449 40.6506 154.001 40.6506C153.553 40.6506 153.19 41.0129 153.19 41.4599C153.19 41.9068 153.553 42.2691 154.001 42.2691Z" fill="#6B6B6B"/>
<path d="M154.218 45.1822C154.666 45.1822 155.029 44.8199 155.029 44.373C155.029 43.926 154.666 43.5637 154.218 43.5637C153.77 43.5637 153.406 43.926 153.406 44.373C153.406 44.8199 153.77 45.1822 154.218 45.1822Z" fill="#6B6B6B"/>
<path d="M107.049 189.361C107.265 189.28 107.455 189.226 107.671 189.145C107.671 189.145 107.59 188.983 107.455 188.66C105.237 184.074 86.7914 147.82 51.2255 140.861C50.9551 140.807 50.6576 140.753 50.3871 140.699C45.8704 139.89 41.1102 139.539 36.0796 139.782C36.0796 139.782 29.0206 139.917 20.3387 146.013C20.1494 146.148 19.9601 146.283 19.7437 146.417C15.849 149.25 11.6569 153.323 7.62696 159.095L7.38354 159.419C7.38354 159.419 7.43764 159.581 7.57287 159.878C8.817 162.737 16.0654 177.978 33.2127 187.985C33.4291 188.12 33.6725 188.255 33.8889 188.363C49.4405 197.237 72.8896 201.715 107.049 189.361Z" fill="#0B4870"/>
<path d="M107.59 189.523L107.671 189.145L107.752 188.767L107.455 188.686L7.62696 159.149L7.38354 159.473C7.38354 159.473 7.43764 159.635 7.57287 159.932L107.049 189.361L107.59 189.523Z" fill="white"/>
<path d="M33.9161 188.444L48.8186 171.773L48.3317 171.18L33.2399 188.066C33.4563 188.201 33.6727 188.309 33.9161 188.444ZM67.0478 177.141L67.8862 177.249L51.2257 140.888C50.9552 140.834 50.6577 140.78 50.3873 140.726L67.0478 177.141ZM29.6698 166.352L30.2648 165.974L20.3118 146.04C20.1225 146.175 19.9332 146.31 19.7168 146.444L29.6698 166.352Z" fill="white"/>
<path d="M105.643 187.769L105.967 188.012C105.967 188.012 106.021 187.904 106.157 187.742C107.888 185.018 121.14 162.845 112.837 141.454C112.783 141.292 112.702 141.103 112.648 140.942C111.566 138.244 110.132 135.574 108.293 132.957C108.293 132.957 105.832 129.235 99.6114 126.645C99.4762 126.591 99.341 126.537 99.1787 126.483C96.3388 125.35 92.7146 124.487 88.252 124.298H87.9815C87.9815 124.298 87.9274 124.379 87.7922 124.568C86.6833 126.187 80.9225 135.223 81.3552 147.82C81.3552 147.982 81.3552 148.144 81.3822 148.306C81.8961 159.608 87.4406 173.662 105.643 187.769Z" fill="#2A94F4"/>
<path d="M105.751 188.12L105.994 188.039L106.238 187.958L106.184 187.769L88.252 124.352H87.9816C87.9816 124.352 87.9275 124.433 87.7922 124.622L105.643 187.823L105.751 188.12Z" fill="white"/>
<path d="M81.3822 148.306L95.3922 150.652L95.5274 150.194L81.3281 147.82C81.3552 147.982 81.3552 148.144 81.3822 148.306ZM98.6918 162.224L98.9082 162.71L112.837 141.481C112.783 141.319 112.702 141.13 112.648 140.969L98.6918 162.224ZM91.8221 138.568L92.2278 138.757L99.5844 126.672C99.4491 126.618 99.3139 126.564 99.1516 126.51L91.8221 138.568Z" fill="white"/>
<path d="M105.859 189.226C106.048 189.253 106.238 189.253 106.4 189.28V188.875C106.4 184.883 105.562 153.026 81.0036 135.978C80.8143 135.843 80.625 135.709 80.4086 135.574C77.2712 133.47 73.7552 131.581 69.8335 130.044C69.8335 130.044 64.3972 127.724 55.5801 129.073C55.3908 129.1 55.1744 129.127 54.9851 129.154C50.9823 129.828 46.3033 131.258 41.1374 133.955C41.0292 134.009 40.9481 134.063 40.8399 134.117C40.8399 134.117 40.8399 134.252 40.8129 134.522C40.7047 136.949 40.6776 150.167 50.1168 163.088C50.252 163.249 50.3602 163.411 50.4954 163.6C59.0961 175.091 75.351 186.259 105.859 189.226Z" fill="#FFBE55"/>
<path d="M106.211 189.523L106.4 189.28L106.589 189.037L106.4 188.875L41.1373 133.955C41.0291 134.009 40.948 134.063 40.8398 134.117C40.8398 134.117 40.8398 134.252 40.8127 134.522L105.832 189.226L106.211 189.523Z" fill="white"/>
<path d="M50.4953 163.573L67.9131 156.911L67.7509 156.317L50.1167 163.061C50.2519 163.25 50.3601 163.411 50.4953 163.573ZM79.8676 166.918L80.4626 167.296L81.0306 135.951C80.8413 135.816 80.6519 135.682 80.4356 135.547L79.8676 166.918ZM55.3096 146.552L55.9046 146.498L55.58 129.046C55.3907 129.073 55.1744 129.1 54.985 129.127L55.3096 146.552Z" fill="white"/>
<path d="M124 190.336L122.888 197.836L119.131 199L120.123 190L124 190.336ZM106.869 190.336L105.757 197.836L102 199L102.992 190L106.869 190.336Z" fill="#DBA17B"/>
<path d="M110.674 95.4475L109.162 102.117L113.547 102.716L115.235 95.7314L110.674 95.4475Z" fill="#CC9271"/>
<path d="M124.022 89.1665C123.258 88.464 122.52 87.7068 121.803 86.9327C121.241 86.311 120.743 85.6389 120.245 84.9668C119.789 84.261 119.269 83.6057 118.741 83.0263C118.758 83.0474 118.753 83.0853 118.77 83.1065C118.292 82.5905 117.772 82.108 117.204 81.6971C115.725 80.7014 113.867 80.1429 112.142 80.7531C108.709 81.9945 107.413 87.152 109.252 92.3028C111.091 97.4536 115.373 100.634 118.806 99.393C121.254 98.5195 122.609 95.6563 122.527 92.2444C123.146 91.7192 123.749 91.173 124.229 90.5166C124.391 90.2852 124.536 90.0327 124.491 89.7584C124.404 89.5177 124.215 89.3231 124.022 89.1665Z" fill="#DBA17B"/>
<path d="M124.712 87.2223C125.805 86.8078 126.714 85.8441 126.886 84.7242C127.057 83.578 126.358 82.3339 125.235 82.0076C124.386 81.75 123.395 82.0279 122.622 81.6348C122.152 81.3885 121.837 80.9506 121.496 80.5666C119.624 78.4153 116.628 77.2627 113.772 77.5885C110.916 77.9143 108.252 79.6899 106.917 82.181C105.783 84.2932 105.584 86.7655 105.894 89.1116C106.204 91.4577 110.256 96.2767 111.048 98.4975C112.145 96.1484 110.012 91.253 111.111 88.9302C111.361 88.4168 111.61 87.8769 112.085 87.5665C112.56 87.256 113.318 87.2523 113.607 87.7178C113.809 88.0278 113.771 88.4268 113.784 88.7707C113.799 89.1411 113.87 89.5623 114.201 89.7081C114.559 89.8793 115.01 89.6493 115.325 89.3983C116.008 88.8676 116.605 88.2343 117.146 87.5503C117.481 87.113 117.811 86.5698 118.316 86.3377C118.874 86.077 119.371 86.3222 119.896 86.5927C120.614 86.9616 121.359 87.3029 122.176 87.4294C123.02 87.5547 123.912 87.5192 124.712 87.2223ZM123.062 135.49C124.38 142.063 125.838 153.532 127.156 160.104C129.083 169.752 124.771 184.472 123.345 194.201C122.014 194.095 120.836 193.745 119.506 193.639C119.286 177.245 117.697 156.4 115.965 140.092C118.327 140.29 120.7 135.293 123.062 135.49Z" fill="#0B4870"/>
<path d="M107.13 139.728C108.51 139.809 109.862 138.568 111.241 138.676C112.918 138.784 114.73 139.107 116.326 139.593C117.922 140.079 119.788 138.595 121.357 138.055C121.681 140.753 121.113 145.554 120.599 148.225C119.409 154.483 118.03 160.687 116.434 166.837C115.569 170.236 112.999 173.5 111.647 176.737C111.079 178.113 110.538 179.542 110.024 180.945C108.942 183.858 107.076 192.058 105.994 194.972C104.669 194.864 103.317 194.837 101.991 194.729C102.127 191.789 103.29 183.319 103.398 180.378C103.614 175.469 106.075 170.317 108.023 165.785C107.049 161.092 107.022 155.993 107.049 151.192C107.076 146.957 107.103 143.936 107.13 139.728Z" fill="#0E538C"/>
<path d="M125.819 121.601C126.306 121.682 126.874 121.655 127.253 121.331C127.442 121.169 127.577 120.927 127.712 120.738C128.172 120.198 128.957 119.929 129.633 120.09C131.039 120.441 131.715 122.221 133.122 122.518C133.338 122.572 133.554 122.572 133.771 122.653C133.987 122.734 134.177 122.869 134.204 123.085C134.258 123.354 134.068 123.57 133.879 123.786C133.636 124.056 133.365 124.325 133.122 124.595C133.014 124.703 132.878 124.838 132.743 124.892C132.446 125.027 132.067 124.892 131.824 125.081C131.607 125.242 131.553 125.566 131.31 125.728C130.958 125.944 130.471 125.62 130.066 125.782C129.849 125.863 129.714 126.052 129.552 126.16C129.254 126.348 128.848 126.321 128.497 126.214C128.145 126.079 127.848 125.863 127.55 125.701C127.145 125.485 126.712 125.323 126.279 125.189C125.089 124.892 123.818 124.973 122.574 125.081C122.52 124.11 122.493 123.138 122.438 122.167C122.438 122.006 122.438 121.817 122.52 121.655C122.682 121.358 123.115 121.358 123.466 121.439C123.899 121.547 124.115 121.52 124.521 121.439C124.927 121.358 125.414 121.547 125.819 121.601Z" fill="#DBA17B"/>
<path d="M129.011 125.323C128.876 125.108 128.93 124.811 129.146 124.676L136.935 119.551C137.152 119.416 137.449 119.47 137.584 119.686C137.72 119.901 137.666 120.198 137.449 120.333L129.66 125.458C129.443 125.593 129.146 125.539 129.011 125.323Z" fill="#0B4870"/>
<path d="M124.545 195.246C124.653 195.003 124.951 194.922 125.14 195.084C125.979 195.786 128.223 197.377 132.686 198.402C132.686 198.402 133.768 198.618 134.552 199.886H118V196.972C118 196.649 118.379 196.487 118.622 196.676L119.271 197.215C119.569 197.485 119.974 197.62 120.353 197.62L122.733 197.647C123.247 197.647 123.707 197.35 123.896 196.865L124.545 195.246Z" fill="#CCE9FF"/>
<path d="M134.552 200.699H118V199H134.552V200.699Z" fill="#0E538C"/>
<path d="M106.616 195.484C106.779 195.295 107.103 195.322 107.238 195.538C107.779 196.482 109.375 198.721 113.189 201.23C113.189 201.23 114.135 201.823 114.46 203.253L98.8811 197.669L99.8818 194.918C99.99 194.621 100.396 194.567 100.558 194.864L100.964 195.592C101.153 195.943 101.478 196.212 101.856 196.347L104.074 197.156C104.561 197.345 105.102 197.183 105.426 196.806L106.616 195.484Z" fill="#CCE9FF"/>
<path d="M113.852 204.861L98.2782 199.27L98.8553 197.671L114.429 203.262L113.852 204.861Z" fill="#0E538C"/>
<path d="M123.588 121.237C124.294 125.242 124.531 131.455 124.669 135.542C124.703 136.51 124.301 140.118 123.635 140.754C123.234 141.147 113.79 141.439 109.777 142.494C109.229 142.632 106.596 143.491 106.111 143.205C105.418 142.794 105.352 139.25 105.596 138.441C108.811 127.986 108.097 135.828 106.726 114.554C106.457 110.295 105.555 106.3 107.224 102.404C107.78 101.115 111.415 97.5325 111.415 97.5325C111.415 97.5325 112.407 98.9362 113.473 99.7839C114.359 100.481 115.49 101.683 116.267 101.968C119.826 103.231 122.737 116.415 123.588 121.237Z" fill="#2A94F4"/>
<path d="M117.976 149.088C118.327 149.843 118.49 150.679 118.571 151.489C118.679 152.918 118.517 154.348 118.111 155.697C117.516 155.562 117.029 155.022 116.948 154.402C117.219 154.834 116.975 155.481 116.488 155.616C116.001 155.751 115.461 155.292 115.488 154.78C115.352 155.211 114.866 155.535 114.433 155.454C113.973 155.373 113.621 154.941 113.648 154.483C113.838 154.618 113.784 154.941 113.621 155.076C113.432 155.211 113.162 155.184 112.972 155.076C112.783 154.968 112.648 154.753 112.567 154.537C112.431 154.159 112.377 153.755 112.35 153.35C112.215 151.624 112.107 149.87 111.972 148.144C111.945 147.901 111.945 147.658 112.053 147.443C112.269 147.038 112.837 146.984 113.324 147.011L115.19 147.092C115.596 147.119 116.029 147.092 116.407 147.227C117.083 147.55 117.651 148.441 117.976 149.088Z" fill="#DBA17B"/>
<path d="M113.769 108.809C113.068 112.389 112.363 115.996 111.635 119.573C111.231 121.559 110.85 123.577 110.878 125.595C110.896 127.285 111.189 128.957 111.485 130.603C112.563 136.573 113.641 142.543 114.746 148.517C112.781 148.116 110.789 147.711 108.823 147.31C108.067 140.975 106.486 129.63 106.351 128.604C105.079 121.438 105.286 114.035 106.949 106.965L113.769 108.809Z" fill="#2A94F4"/>
<path d="M101.964 73.1008C101.964 65.9526 94.0939 60.1531 84.3843 60.1531C74.6747 60.1531 66.8042 65.9526 66.8042 73.1008C66.8042 80.2491 74.6747 86.0486 84.3843 86.0486C86.2234 86.0486 88.0085 85.8328 89.6583 85.4551L96.0142 90.6342V82.8116C99.6654 80.4379 101.964 76.9582 101.964 73.1008Z" fill="#FFBE55"/>
<path d="M91.8221 60.5576C91.8221 54.7581 85.4392 50.0376 77.5417 50.0376C69.6442 50.0376 63.2612 54.7312 63.2612 60.5576C63.2612 66.3572 69.6442 71.0777 77.5417 71.0777C79.0292 71.0777 80.4897 70.9158 81.842 70.5922L86.9808 74.8002V68.4612C89.9559 66.492 91.8221 63.6867 91.8221 60.5576Z" fill="white"/>
<path d="M84.9253 56.7814H69.509C69.2926 56.7814 69.1033 56.5926 69.1033 56.3768C69.1033 56.161 69.2926 55.9722 69.509 55.9722H84.9253C85.1417 55.9722 85.331 56.161 85.331 56.3768C85.331 56.5926 85.1417 56.7814 84.9253 56.7814ZM84.9253 59.6946H69.509C69.2926 59.6946 69.1033 59.5058 69.1033 59.29C69.1033 59.0742 69.2926 58.8854 69.509 58.8854H84.9253C85.1417 58.8854 85.331 59.0742 85.331 59.29C85.331 59.5058 85.1417 59.6946 84.9253 59.6946ZM84.9253 62.6349H69.509C69.2926 62.6349 69.1033 62.446 69.1033 62.2302C69.1033 62.0145 69.2926 61.8256 69.509 61.8256H84.9253C85.1417 61.8256 85.331 62.0145 85.331 62.2302C85.331 62.446 85.1417 62.6349 84.9253 62.6349ZM84.9253 65.5481H69.509C69.2926 65.5481 69.1033 65.3593 69.1033 65.1435C69.1033 64.9277 69.2926 64.7389 69.509 64.7389H84.9253C85.1417 64.7389 85.331 64.9277 85.331 65.1435C85.331 65.3593 85.1417 65.5481 84.9253 65.5481Z" fill="#FFBE55"/>
</svg>
