<svg width="160" height="120" viewBox="0 0 160 120" fill="none" xmlns="http://www.w3.org/2000/svg">
<path d="M160 46.3729V39.3414C160 38.0005 159.548 36.7146 158.743 35.7665C157.939 34.8184 156.848 34.2857 155.71 34.2857H140.568C140.004 34.2857 139.446 34.1549 138.926 33.9009C138.405 33.6468 137.932 33.2744 137.534 32.8049C137.136 32.3355 136.82 31.7781 136.604 31.1648C136.389 30.5514 136.278 29.894 136.278 29.23V22.1985C136.278 21.5346 136.389 20.8772 136.604 20.2638C136.82 19.6504 137.136 19.0931 137.534 18.6236C137.932 18.1542 138.405 17.7818 138.926 17.5277C139.446 17.2736 140.004 17.1428 140.568 17.1428H141.046C142.184 17.1428 143.275 16.6102 144.079 15.6621C144.884 14.714 145.336 13.428 145.336 12.0872V5.05567C145.336 3.71482 144.884 2.42889 144.079 1.48077C143.275 0.532651 142.184 0 141.046 0H28.901C27.7632 0 26.672 0.532651 25.8675 1.48077C25.0629 2.42889 24.6109 3.71482 24.6109 5.05567V12.0872C24.6109 13.428 25.0629 14.714 25.8675 15.6621C26.672 16.6102 27.7632 17.1428 28.901 17.1428C30.0388 17.1428 31.1299 17.6755 31.9345 18.6236C32.739 19.5717 33.191 20.8577 33.191 22.1985V29.23C33.191 30.5709 32.739 31.8568 31.9345 32.8049C31.1299 33.7531 30.0388 34.2857 28.901 34.2857H12.311C11.1733 34.2857 10.0821 34.8184 9.27754 35.7665C8.473 36.7146 8.02102 38.0005 8.02102 39.3414V46.3729C8.02102 47.7137 8.473 48.9997 9.27754 49.9478C10.0821 50.8959 11.1733 51.4286 12.311 51.4286H18.8207C19.3841 51.4286 19.9419 51.5593 20.4624 51.8134C20.9829 52.0675 21.4558 52.4399 21.8542 52.9093C22.2526 53.3788 22.5686 53.9361 22.7842 54.5495C22.9998 55.1629 23.1107 55.8203 23.1107 56.4842V63.5158C23.1107 64.1797 22.9998 64.8371 22.7842 65.4505C22.5686 66.0639 22.2526 66.6212 21.8542 67.0907C21.4558 67.5601 20.9829 67.9325 20.4624 68.1866C19.9419 68.4407 19.3841 68.5714 18.8207 68.5714H18.8049C17.6672 68.5715 16.576 69.1041 15.7714 70.0522C14.9669 71.0003 14.5149 72.2863 14.5149 73.6271V80.6586C14.5149 81.3225 14.6259 81.9799 14.8415 82.5933C15.0571 83.2067 15.3731 83.764 15.7715 84.2335C16.1698 84.703 16.6427 85.0754 17.1632 85.3294C17.6837 85.5835 18.2416 85.7143 18.805 85.7143H19.7468C20.8846 85.7143 21.9757 86.2469 22.7803 87.195C23.5848 88.1432 24.0368 89.4291 24.0368 90.7699V97.8015C24.0368 99.1423 23.5848 100.428 22.7803 101.376C21.9757 102.325 20.8846 102.857 19.7468 102.857H4.29003C3.15224 102.857 2.06106 103.39 1.25652 104.338C0.451985 105.286 0 106.572 0 107.913V114.944C0 116.285 0.451985 117.571 1.25652 118.519C2.06106 119.467 3.15224 120 4.29003 120H143.349C144.487 120 145.578 119.467 146.382 118.519C147.187 117.571 147.639 116.285 147.639 114.944V107.913C147.639 106.572 147.187 105.286 146.382 104.338C145.578 103.39 144.487 102.857 143.349 102.857H139.629C138.491 102.857 137.4 102.325 136.596 101.376C135.791 100.428 135.339 99.1423 135.339 97.8015V90.7699C135.339 89.4291 135.791 88.1432 136.596 87.195C137.4 86.2469 138.491 85.7143 139.629 85.7143H148.4C148.963 85.7143 149.521 85.5835 150.042 85.3294C150.562 85.0754 151.035 84.703 151.433 84.2335C151.832 83.764 152.148 83.2067 152.363 82.5933C152.579 81.9799 152.69 81.3225 152.69 80.6586V73.6271C152.69 72.2863 152.238 71.0003 151.433 70.0522C150.629 69.1041 149.538 68.5714 148.4 68.5714H145.739C145.176 68.5714 144.618 68.4407 144.098 68.1866C143.577 67.9325 143.104 67.5601 142.706 67.0907C142.307 66.6212 141.991 66.0639 141.776 65.4505C141.56 64.8371 141.449 64.1797 141.449 63.5158V56.4842C141.449 55.8203 141.56 55.1629 141.776 54.5495C141.991 53.9361 142.307 53.3788 142.706 52.9093C143.104 52.4399 143.577 52.0675 144.098 51.8134C144.618 51.5593 145.176 51.4286 145.739 51.4286H155.71C156.848 51.4286 157.939 50.8959 158.743 49.9478C159.548 48.9997 160 47.7137 160 46.3729Z" fill="#DBE8EC"/>
<path d="M97.185 50.6449H44.7578V106.863H97.185V50.6449Z" fill="#409CB5"/>
<path d="M125.054 50.6449H97.1875V106.863H125.054V50.6449Z" fill="#3086A3"/>
<path d="M125.054 50.7839H97.1875L106.733 35.4409C106.824 35.294 106.943 35.1745 107.081 35.0922C107.219 35.0098 107.372 34.9669 107.526 34.9669H132.953C133.134 34.9669 133.313 35.0263 133.468 35.1385C133.623 35.2506 133.748 35.4112 133.83 35.6023C133.913 35.7934 133.948 36.0077 133.933 36.2212C133.918 36.4348 133.854 36.6393 133.746 36.8121L125.054 50.7839Z" fill="#25788E"/>
<path d="M44.8902 50.7839H72.7569L63.2118 35.4409C63.1205 35.294 63.001 35.1745 62.8631 35.0922C62.7252 35.0098 62.5728 34.9669 62.4183 34.9669H36.9918C36.81 34.9669 36.6317 35.0263 36.4768 35.1385C36.3218 35.2506 36.1963 35.4112 36.1141 35.6023C36.0319 35.7934 35.9962 36.0077 36.0111 36.2212C36.026 36.4348 36.0907 36.6393 36.1982 36.8121L44.8902 50.7839Z" fill="#3086A3"/>
<path d="M140.776 71.27L125.055 50.7834V73.187H140.031C140.22 73.187 140.404 73.1232 140.563 73.0033C140.721 72.8833 140.847 72.7122 140.926 72.5103C141.004 72.3084 141.032 72.0841 141.005 71.8643C140.979 71.6444 140.899 71.4381 140.776 71.27Z" fill="#25788E"/>
<path d="M90.7386 20.4928H54.3789V50.784H90.7386V20.4928Z" fill="#EE781D"/>
<path d="M71.4979 52.6537H61.4946C61.3015 52.6537 61.1118 52.5938 60.9446 52.48C60.7773 52.3662 60.6385 52.2025 60.5419 52.0054C60.4454 51.8084 60.3945 51.5848 60.3945 51.3572C60.3945 51.1297 60.4454 50.9061 60.5419 50.709L65.5435 40.4999L70.5452 30.2907C70.6417 30.0936 70.7806 29.9299 70.9478 29.8161C71.1151 29.7024 71.3048 29.6425 71.4979 29.6425C71.691 29.6425 71.8807 29.7024 72.0479 29.8161C72.2152 29.9299 72.354 30.0936 72.4506 30.2907L77.4522 40.4999L82.4538 50.709C82.5504 50.9061 82.6012 51.1297 82.6012 51.3572C82.6012 51.5848 82.5504 51.8084 82.4538 52.0054C82.3573 52.2025 82.2184 52.3662 82.0512 52.48C81.884 52.5938 81.6943 52.6537 81.5012 52.6537H71.4979Z" fill="#DBE8EC"/>
<path d="M72.046 36.0261C72.046 35.6679 71.7996 35.3776 71.4957 35.3776C71.1917 35.3776 70.9453 35.6679 70.9453 36.0261V45.6942C70.9453 46.0523 71.1917 46.3427 71.4957 46.3427C71.7996 46.3427 72.046 46.0523 72.046 45.6942V36.0261Z" fill="#409CB5"/>
<path d="M72.8051 49.0339C72.8768 48.1811 72.3482 47.4214 71.6245 47.3369C70.9008 47.2525 70.2561 47.8753 70.1844 48.7281C70.1128 49.5808 70.6413 50.3406 71.365 50.425C72.0887 50.5094 72.7335 49.8866 72.8051 49.0339Z" fill="#409CB5"/>
<path d="M80.2183 73.1879H30.3902C30.2018 73.1879 30.0173 73.1241 29.8587 73.0041C29.7001 72.8842 29.5741 72.7131 29.4956 72.5111C29.4171 72.3092 29.3895 72.085 29.416 71.8651C29.4425 71.6453 29.5221 71.439 29.6452 71.2708L44.6417 50.7843H97.0689L80.9634 72.7857C80.871 72.9119 80.7566 73.0132 80.6281 73.0826C80.4995 73.1519 80.3597 73.1879 80.2183 73.1879Z" fill="#47ACC4"/>
<path d="M128.965 91.8254C130.208 91.8254 130.208 92.5985 131.451 92.5985C132.693 92.5985 132.693 91.8254 133.936 91.8254C135.18 91.8254 135.18 92.5985 136.423 92.5985C137.666 92.5985 137.666 91.8254 138.91 91.8254" stroke="#B9D4DB" stroke-width="3" stroke-miterlimit="10" stroke-linecap="round"/>
<path d="M128.965 95.2028C130.208 95.2028 130.208 95.9758 131.451 95.9758C132.693 95.9758 132.693 95.2028 133.936 95.2028C135.18 95.2028 135.18 95.9758 136.423 95.9758C137.666 95.9758 137.666 95.2028 138.91 95.2028" stroke="#B9D4DB" stroke-width="3" stroke-miterlimit="10" stroke-linecap="round"/>
<path d="M128.965 98.5809C130.208 98.5809 130.208 99.354 131.451 99.354C132.693 99.354 132.693 98.5809 133.936 98.5809C135.18 98.5809 135.18 99.354 136.423 99.354C137.666 99.354 137.666 98.5809 138.91 98.5809" stroke="#B9D4DB" stroke-width="3" stroke-miterlimit="10" stroke-linecap="round"/>
<path d="M9.86719 73.9602C11.1102 73.9602 11.1102 74.7333 12.3532 74.7333C13.5958 74.7333 13.5958 73.9602 14.8384 73.9602C16.0819 73.9602 16.0819 74.7333 17.3253 74.7333C18.5688 74.7333 18.5688 73.9602 19.8123 73.9602" stroke="#B9D4DB" stroke-width="3" stroke-miterlimit="10" stroke-linecap="round"/>
<path d="M9.86719 77.3384C11.1102 77.3384 11.1102 78.1114 12.3532 78.1114C13.5958 78.1114 13.5958 77.3384 14.8384 77.3384C16.0819 77.3384 16.0819 78.1114 17.3253 78.1114C18.5688 78.1114 18.5688 77.3384 19.8123 77.3384" stroke="#B9D4DB" stroke-width="3" stroke-miterlimit="10" stroke-linecap="round"/>
<path d="M9.86719 80.7166C11.1102 80.7166 11.1102 81.4896 12.3532 81.4896C13.5958 81.4896 13.5958 80.7166 14.8384 80.7166C16.0819 80.7166 16.0819 81.4896 17.3253 81.4896C18.5688 81.4896 18.5688 80.7166 19.8123 80.7166" stroke="#B9D4DB" stroke-width="3" stroke-miterlimit="10" stroke-linecap="round"/>
<path d="M65.2109 7.64136C66.4539 7.64136 66.4539 8.41443 67.6969 8.41443C68.9395 8.41443 68.9396 7.64136 70.1822 7.64136C71.4256 7.64136 71.4256 8.41443 72.6691 8.41443C73.9125 8.41443 73.9125 7.64136 75.156 7.64136" stroke="#B9D4DB" stroke-width="3" stroke-miterlimit="10" stroke-linecap="round"/>
<path d="M65.2109 11.0194C66.4539 11.0194 66.4539 11.7925 67.6969 11.7925C68.9395 11.7925 68.9396 11.0194 70.1822 11.0194C71.4256 11.0194 71.4256 11.7925 72.6691 11.7925C73.9125 11.7925 73.9125 11.0194 75.156 11.0194" stroke="#B9D4DB" stroke-width="3" stroke-miterlimit="10" stroke-linecap="round"/>
<path d="M65.2109 14.3969C66.4539 14.3969 66.4539 15.1699 67.6969 15.1699C68.9395 15.1699 68.9396 14.3969 70.1822 14.3969C71.4256 14.3969 71.4256 15.1699 72.6691 15.1699C73.9125 15.1699 73.9125 14.3969 75.156 14.3969" stroke="#B9D4DB" stroke-width="3" stroke-miterlimit="10" stroke-linecap="round"/>
<path d="M33.6532 117.273C36.0009 117.273 37.904 115.03 37.904 112.263C37.904 109.497 36.0009 107.254 33.6532 107.254C31.3055 107.254 29.4023 109.497 29.4023 112.263C29.4023 115.03 31.3055 117.273 33.6532 117.273Z" fill="#B9D4DB"/>
<path d="M36.7393 101.647C37.9566 101.647 38.9434 100.484 38.9434 99.0493C38.9434 97.6147 37.9566 96.4518 36.7393 96.4518C35.522 96.4518 34.5352 97.6147 34.5352 99.0493C34.5352 100.484 35.522 101.647 36.7393 101.647Z" fill="#B9D4DB"/>
<path d="M45.4691 116.531C47.2081 116.531 48.6179 114.869 48.6179 112.82C48.6179 110.77 47.2081 109.109 45.4691 109.109C43.7301 109.109 42.3203 110.77 42.3203 112.82C42.3203 114.869 43.7301 116.531 45.4691 116.531Z" fill="#B9D4DB"/>
<path d="M29.4796 49.2237C32.2728 49.2237 34.5372 46.5552 34.5372 43.2634C34.5372 39.9716 32.2728 37.3031 29.4796 37.3031C26.6863 37.3031 24.4219 39.9716 24.4219 43.2634C24.4219 46.5552 26.6863 49.2237 29.4796 49.2237Z" fill="#B9D4DB"/>
<path d="M19.8141 42.1224C21.2691 42.1224 22.4486 40.7324 22.4486 39.0177C22.4486 37.3031 21.2691 35.9131 19.8141 35.9131C18.3592 35.9131 17.1797 37.3031 17.1797 39.0177C17.1797 40.7324 18.3592 42.1224 19.8141 42.1224Z" fill="#B9D4DB"/>
<path d="M22.2307 30.255C23.0701 30.255 23.7505 29.4532 23.7505 28.4642C23.7505 27.4751 23.0701 26.6733 22.2307 26.6733C21.3914 26.6733 20.7109 27.4751 20.7109 28.4642C20.7109 29.4532 21.3914 30.255 22.2307 30.255Z" fill="#B9D4DB"/>
<path d="M30.6429 34.0249C32.6548 34.0249 34.2858 32.1029 34.2858 29.7319C34.2858 27.3609 32.6548 25.4388 30.6429 25.4388C28.631 25.4388 27 27.3609 27 29.7319C27 32.1029 28.631 34.0249 30.6429 34.0249Z" fill="#B9D4DB"/>
<path d="M117.386 20.3174C120.179 20.3174 122.443 17.6488 122.443 14.3571C122.443 11.0653 120.179 8.39673 117.386 8.39673C114.593 8.39673 112.328 11.0653 112.328 14.3571C112.328 17.6488 114.593 20.3174 117.386 20.3174Z" fill="#B9D4DB"/>
<path d="M125.435 9.8588C126.89 9.8588 128.07 8.46881 128.07 6.75417C128.07 5.03953 126.89 3.64954 125.435 3.64954C123.98 3.64954 122.801 5.03953 122.801 6.75417C122.801 8.46881 123.98 9.8588 125.435 9.8588Z" fill="#B9D4DB"/>
<path d="M135.499 26.4773C136.758 26.4773 137.779 25.2742 137.779 23.7902C137.779 22.3062 136.758 21.1031 135.499 21.1031C134.24 21.1031 133.219 22.3062 133.219 23.7902C133.219 25.2742 134.24 26.4773 135.499 26.4773Z" fill="#B9D4DB"/>
<path d="M131.883 16.4042C132.722 16.4042 133.403 15.6024 133.403 14.6133C133.403 13.6243 132.722 12.8225 131.883 12.8225C131.044 12.8225 130.363 13.6243 130.363 14.6133C130.363 15.6024 131.044 16.4042 131.883 16.4042Z" fill="#B9D4DB"/>
<path d="M126.647 26.7686C128.659 26.7686 130.29 24.8465 130.29 22.4755C130.29 20.1046 128.659 18.1825 126.647 18.1825C124.635 18.1825 123.004 20.1046 123.004 22.4755C123.004 24.8465 124.635 26.7686 126.647 26.7686Z" fill="#B9D4DB"/>
</svg>
