<svg width="42" height="42" viewBox="0 0 42 42" fill="none" xmlns="http://www.w3.org/2000/svg">
<path d="M25.7646 6.09009V8.05884H16.2358V6.09009H25.7646Z" fill="#46B3E6"/>
<path d="M31.2375 7.82251V11.9963H30.8438V36.0938H11.1562V11.9963H10.7625V7.82251H7.875V37.4063H34.125V7.82251H31.2375Z" fill="#46B3E6"/>
<path d="M13.125 11.9963H28.875V34.1251H13.125V11.9963Z" fill="#46B3E6"/>
<path d="M14.2671 14.969H17.8699V18.5718H14.2671V14.969ZM14.2671 22.3518H17.8699V25.9546H14.2671V22.3518Z" fill="#F1F2F2"/>
<path d="M10.7627 7.82251H14.2671V9.55501H10.7627V7.82251ZM27.9696 7.82251H31.4739V9.55501H27.9696V7.82251Z" fill="#46B3E6"/>
<path d="M35.1094 5.85384C35.1094 5.30915 34.6697 4.86946 34.125 4.86946H28.7175V4.12134C28.7175 3.57665 28.2778 3.13696 27.7331 3.13696H14.2669C13.7222 3.13696 13.2825 3.57665 13.2825 4.12134V4.86946H7.875C7.33031 4.86946 6.89062 5.30915 6.89062 5.85384V39.3751C6.89062 39.9198 7.33031 40.3595 7.875 40.3595H34.125C34.6697 40.3595 35.1094 39.9198 35.1094 39.3751V24.1501C35.1094 23.6054 34.6697 23.1657 34.125 23.1657C33.5803 23.1657 33.1406 23.6054 33.1406 24.1501V38.3907H8.85938V6.83821H13.2825V8.57071H11.1562C10.6116 8.57071 10.1719 9.0104 10.1719 9.55509V36.0938C10.1719 36.6385 10.6116 37.0782 11.1562 37.0782H30.8438C31.3884 37.0782 31.8281 36.6385 31.8281 36.0938V33.4229C31.8281 32.8782 31.3884 32.4385 30.8438 32.4385C30.2991 32.4385 29.8594 32.8782 29.8594 33.4229V35.1095H12.1406V10.5395H13.4269L13.44 10.5526C13.4794 10.6182 13.5253 10.6773 13.5778 10.7298C13.5844 10.7363 13.5975 10.7429 13.6041 10.7495C13.65 10.7954 13.7025 10.8282 13.755 10.861C13.7747 10.8741 13.7944 10.8873 13.8206 10.8938C13.8666 10.9201 13.9191 10.9398 13.9716 10.9529L14.0372 10.9726C14.1094 10.9923 14.1881 11.0054 14.2669 11.0054H27.7331C27.8119 11.0054 27.8906 10.9923 27.9628 10.9726C27.9891 10.966 28.0087 10.9595 28.0284 10.9529C28.0809 10.9332 28.1269 10.9135 28.1794 10.8938C28.1991 10.8807 28.2253 10.8741 28.245 10.861C28.2975 10.8282 28.35 10.7888 28.3959 10.7495C28.4025 10.7429 28.4156 10.7363 28.4222 10.7232C28.4747 10.6707 28.5206 10.6116 28.56 10.5526C28.5666 10.546 28.5666 10.5395 28.5731 10.5395H29.8594V30.3451C29.8594 30.8898 30.2991 31.3295 30.8438 31.3295C31.3884 31.3295 31.8281 30.8898 31.8281 30.3451V9.55509C31.8281 9.0104 31.3884 8.57071 30.8438 8.57071H28.7175V6.83821H33.1406V12.2129C33.1406 12.7576 33.5803 13.1973 34.125 13.1973C34.6697 13.1973 35.1094 12.7576 35.1094 12.2129V5.85384ZM15.2513 9.04321V5.10571H26.7487V9.04321H15.2513Z" fill="#2E279D"/>
<path d="M34.125 17.5875C33.5803 17.5875 33.1406 18.0272 33.1406 18.5719V19.7728C33.1406 20.3175 33.5803 20.7572 34.125 20.7572C34.6697 20.7572 35.1094 20.3175 35.1094 19.7728V18.5719C35.1094 18.0272 34.6697 17.5875 34.125 17.5875ZM18.854 14.9691C18.854 14.4244 18.4144 13.9847 17.8697 13.9847H14.2669C13.7222 13.9847 13.2825 14.4244 13.2825 14.9691V18.5719C13.2825 19.1166 13.7222 19.5562 14.2669 19.5562H17.8697C18.4144 19.5562 18.854 19.1166 18.854 18.5719V14.9691ZM16.8853 17.5875H15.2512V15.9534H16.8853V17.5875ZM17.8697 21.3675H14.2669C13.7222 21.3675 13.2825 21.8072 13.2825 22.3519V25.9547C13.2825 26.4994 13.7222 26.9391 14.2669 26.9391H17.8697C18.4144 26.9391 18.854 26.4994 18.854 25.9547V22.3519C18.854 21.8072 18.4144 21.3675 17.8697 21.3675ZM16.8853 24.9703H15.2512V23.3363H16.8853V24.9703ZM21.3478 19.5562H22.0565C22.6012 19.5562 23.0409 19.1166 23.0409 18.5719C23.0409 18.0272 22.6012 17.5875 22.0565 17.5875H21.3478C20.8031 17.5875 20.3634 18.0272 20.3634 18.5719C20.3634 19.1166 20.8031 19.5562 21.3478 19.5562ZM27.7331 17.5875H24.9506C24.4059 17.5875 23.9662 18.0272 23.9662 18.5719C23.9662 19.1166 24.4059 19.5562 24.9506 19.5562H27.7331C28.2778 19.5562 28.7175 19.1166 28.7175 18.5719C28.7175 18.0272 28.2778 17.5875 27.7331 17.5875ZM21.3478 26.9391H27.7331C28.2778 26.9391 28.7175 26.4994 28.7175 25.9547C28.7175 25.41 28.2778 24.9703 27.7331 24.9703H21.3478C20.8031 24.9703 20.3634 25.41 20.3634 25.9547C20.3634 26.4994 20.8031 26.9391 21.3478 26.9391ZM4.04248 6.89062C3.49779 6.89062 3.05811 7.33031 3.05811 7.875V8.96438C3.05811 9.50906 3.49779 9.94875 4.04248 9.94875C4.58717 9.94875 5.02686 9.50906 5.02686 8.96438V7.875C5.02686 7.33031 4.58717 6.89062 4.04248 6.89062ZM4.04248 11.5237C3.49779 11.5237 3.05811 11.9634 3.05811 12.5081V28.6322C3.05811 29.1769 3.49779 29.6166 4.04248 29.6166C4.58717 29.6166 5.02686 29.1769 5.02686 28.6322V12.5081C5.02686 11.9634 4.58717 11.5237 4.04248 11.5237Z" fill="#2E279D"/>
</svg>
