<svg width="43" height="43" viewBox="0 0 43 43" fill="none" xmlns="http://www.w3.org/2000/svg">
<path d="M32.9219 6.38281H10.0781V36.6172H32.9219V6.38281Z" fill="#F5F7FF"/>
<path d="M32.9219 37.2891H10.0781C9.89993 37.2891 9.72904 37.2183 9.60304 37.0923C9.47704 36.9663 9.40625 36.7954 9.40625 36.6172V6.38281C9.40625 6.20462 9.47704 6.03373 9.60304 5.90773C9.72904 5.78172 9.89993 5.71094 10.0781 5.71094H32.9219C33.1001 5.71094 33.271 5.78172 33.397 5.90773C33.523 6.03373 33.5938 6.20462 33.5938 6.38281V36.6172C33.5938 36.7954 33.523 36.9663 33.397 37.0923C33.271 37.2183 33.1001 37.2891 32.9219 37.2891ZM10.75 35.9453H32.25V7.05469H10.75V35.9453Z" fill="#1B3D6F"/>
<path d="M30.2344 12.4297H13.4375C13.2593 12.4297 13.0884 12.3589 12.9624 12.2329C12.8364 12.1069 12.7656 11.936 12.7656 11.7578C12.7656 11.5796 12.8364 11.4087 12.9624 11.2827C13.0884 11.1567 13.2593 11.0859 13.4375 11.0859H30.2344C30.4126 11.0859 30.5835 11.1567 30.7095 11.2827C30.8355 11.4087 30.9062 11.5796 30.9062 11.7578C30.9062 11.936 30.8355 12.1069 30.7095 12.2329C30.5835 12.3589 30.4126 12.4297 30.2344 12.4297ZM30.2344 16.4609H13.4375C13.2593 16.4609 13.0884 16.3902 12.9624 16.2642C12.8364 16.1381 12.7656 15.9673 12.7656 15.7891C12.7656 15.6109 12.8364 15.44 12.9624 15.314C13.0884 15.188 13.2593 15.1172 13.4375 15.1172H30.2344C30.4126 15.1172 30.5835 15.188 30.7095 15.314C30.8355 15.44 30.9062 15.6109 30.9062 15.7891C30.9062 15.9673 30.8355 16.1381 30.7095 16.2642C30.5835 16.3902 30.4126 16.4609 30.2344 16.4609ZM26.875 20.4922H13.4375C13.2593 20.4922 13.0884 20.4214 12.9624 20.2954C12.8364 20.1694 12.7656 19.9985 12.7656 19.8203C12.7656 19.6421 12.8364 19.4712 12.9624 19.3452C13.0884 19.2192 13.2593 19.1484 13.4375 19.1484H26.875C27.0532 19.1484 27.2241 19.2192 27.3501 19.3452C27.4761 19.4712 27.5469 19.6421 27.5469 19.8203C27.5469 19.9985 27.4761 20.1694 27.3501 20.2954C27.2241 20.4214 27.0532 20.4922 26.875 20.4922ZM26.875 24.5234H13.4375C13.2593 24.5234 13.0884 24.4527 12.9624 24.3267C12.8364 24.2006 12.7656 24.0298 12.7656 23.8516C12.7656 23.6734 12.8364 23.5025 12.9624 23.3765C13.0884 23.2505 13.2593 23.1797 13.4375 23.1797H26.875C27.0532 23.1797 27.2241 23.2505 27.3501 23.3765C27.4761 23.5025 27.5469 23.6734 27.5469 23.8516C27.5469 24.0298 27.4761 24.2006 27.3501 24.3267C27.2241 24.4527 27.0532 24.5234 26.875 24.5234ZM23.5156 28.5547H13.4375C13.2593 28.5547 13.0884 28.4839 12.9624 28.3579C12.8364 28.2319 12.7656 28.061 12.7656 27.8828C12.7656 27.7046 12.8364 27.5337 12.9624 27.4077C13.0884 27.2817 13.2593 27.2109 13.4375 27.2109H23.5156C23.6938 27.2109 23.8647 27.2817 23.9907 27.4077C24.1167 27.5337 24.1875 27.7046 24.1875 27.8828C24.1875 28.061 24.1167 28.2319 23.9907 28.3579C23.8647 28.4839 23.6938 28.5547 23.5156 28.5547ZM23.5156 32.5859H13.4375C13.2593 32.5859 13.0884 32.5152 12.9624 32.3892C12.8364 32.2631 12.7656 32.0923 12.7656 31.9141C12.7656 31.7359 12.8364 31.565 12.9624 31.439C13.0884 31.313 13.2593 31.2422 13.4375 31.2422H23.5156C23.6938 31.2422 23.8647 31.313 23.9907 31.439C24.1167 31.565 24.1875 31.7359 24.1875 31.9141C24.1875 32.0923 24.1167 32.2631 23.9907 32.3892C23.8647 32.5152 23.6938 32.5859 23.5156 32.5859Z" fill="#F47827"/>
</svg>
