<svg width="25" height="24" viewBox="0 0 25 24" fill="none" xmlns="http://www.w3.org/2000/svg">
<path d="M17.6914 11.25C17.592 11.25 17.4966 11.2895 17.4262 11.3598C17.3559 11.4302 17.3164 11.5255 17.3164 11.625C17.3164 11.6742 17.3261 11.723 17.3449 11.7685C17.3638 11.814 17.3914 11.8554 17.4262 11.8902C17.4611 11.925 17.5024 11.9526 17.5479 11.9715C17.5934 11.9903 17.6422 12 17.6914 12H18.5659C18.6152 12 18.6639 11.9903 18.7094 11.9715C18.7549 11.9526 18.7963 11.925 18.8311 11.8902C18.8659 11.8554 18.8935 11.814 18.9124 11.7685C18.9312 11.723 18.9409 11.6742 18.9409 11.625C18.9409 11.5255 18.9014 11.4302 18.8311 11.3598C18.7607 11.2895 18.6654 11.25 18.5659 11.25H17.6914ZM16.1914 13.125C16.092 13.125 15.9966 13.1645 15.9262 13.2349C15.8559 13.3052 15.8164 13.4006 15.8164 13.5C15.8164 13.5995 15.8559 13.6949 15.9262 13.7652C15.9966 13.8355 16.092 13.875 16.1914 13.875H18.5659C18.6654 13.875 18.7607 13.8355 18.8311 13.7652C18.9014 13.6949 18.9409 13.5995 18.9409 13.5C18.9409 13.4006 18.9014 13.3052 18.8311 13.2349C18.7607 13.1645 18.6654 13.125 18.5659 13.125H16.1914ZM14.6914 15C14.592 15 14.4966 15.0395 14.4262 15.1099C14.3559 15.1802 14.3164 15.2756 14.3164 15.375C14.3164 15.4745 14.3559 15.5699 14.4262 15.6402C14.4966 15.7105 14.592 15.75 14.6914 15.75H18.5659C18.6654 15.75 18.7607 15.7105 18.8311 15.6402C18.9014 15.5699 18.9409 15.4745 18.9409 15.375C18.9409 15.2756 18.9014 15.1802 18.8311 15.1099C18.7607 15.0395 18.6654 15 18.5659 15H14.6914ZM14.6914 17.2501C14.592 17.2501 14.4966 17.2896 14.4262 17.3599C14.3559 17.4302 14.3164 17.5256 14.3164 17.6251C14.3164 17.7245 14.3559 17.8199 14.4262 17.8902C14.4966 17.9606 14.592 18.0001 14.6914 18.0001H18.5659C18.6654 18.0001 18.7607 17.9606 18.8311 17.8902C18.9014 17.8199 18.9409 17.7245 18.9409 17.6251C18.9409 17.5256 18.9014 17.4302 18.8311 17.3599C18.7607 17.2896 18.6654 17.2501 18.5659 17.2501H14.6914ZM14.6914 19.1251C14.592 19.1251 14.4966 19.1646 14.4262 19.2349C14.3559 19.3052 14.3164 19.4006 14.3164 19.5001C14.3164 19.5995 14.3559 19.6949 14.4262 19.7652C14.4966 19.8356 14.592 19.8751 14.6914 19.8751H18.5659C18.6654 19.8751 18.7607 19.8356 18.8311 19.7652C18.9014 19.6949 18.9409 19.5995 18.9409 19.5001C18.9409 19.4006 18.9014 19.3052 18.8311 19.2349C18.7607 19.1646 18.6654 19.1251 18.5659 19.1251H14.6914ZM14.6914 21.0001C14.592 21.0001 14.4966 21.0396 14.4262 21.1099C14.3559 21.1802 14.3164 21.2756 14.3164 21.3751C14.3164 21.4243 14.3261 21.4731 14.3449 21.5186C14.3638 21.5641 14.3914 21.6054 14.4262 21.6403C14.4611 21.6751 14.5024 21.7027 14.5479 21.7216C14.5934 21.7404 14.6422 21.7501 14.6914 21.7501H18.5659C18.6152 21.7501 18.6639 21.7404 18.7094 21.7216C18.7549 21.7027 18.7963 21.6751 18.8311 21.6403C18.8659 21.6054 18.8935 21.5641 18.9124 21.5186C18.9312 21.4731 18.9409 21.4243 18.9409 21.3751C18.9409 21.2756 18.9014 21.1802 18.8311 21.1099C18.7607 21.0396 18.6654 21.0001 18.5659 21.0001H14.6914Z" fill="#646E72"/>
<path d="M8.69141 17.2501C8.48429 17.2502 8.31644 17.418 8.31641 17.6251V21.3751C8.31644 21.5822 8.48429 21.7501 8.69141 21.7502H12.4414C12.6485 21.7501 12.8164 21.5822 12.8164 21.3751V17.6251C12.8164 17.418 12.6485 17.2502 12.4414 17.2501H8.69141ZM8.69141 5.25C8.59195 5.25001 8.49658 5.28952 8.42625 5.35985C8.35593 5.43017 8.31642 5.52555 8.31641 5.625V9.37504C8.31642 9.47449 8.35593 9.56987 8.42625 9.64019C8.49658 9.71052 8.59195 9.75003 8.69141 9.75004H11.665L12.8164 8.59793V5.625C12.8164 5.52555 12.7769 5.43017 12.7066 5.35985C12.6362 5.28952 12.5409 5.25001 12.4414 5.25H8.69141Z" fill="#26DE81"/>
<path d="M9.06628 13.1797C8.85381 13.582 8.6455 13.9866 8.43568 14.3903C8.20187 14.8402 8.44993 15.3053 8.6065 15.4619C8.76411 15.6195 9.2263 15.861 9.67806 15.6327C10.0819 15.425 10.4875 15.2175 10.8864 15.002C11.0254 14.8802 11.0549 14.6754 10.956 14.5193C10.6082 13.9841 10.0425 13.4225 9.56807 13.0962C9.40105 12.9866 9.18197 13.0307 9.06628 13.1797Z" fill="#4C5457"/>
<path d="M20.7171 1.16797C20.4283 1.16797 20.1397 1.27724 19.9216 1.49534L19.6477 1.76928C19.7688 1.85943 20.0979 2.19269 20.178 2.29957C20.4322 2.63921 20.4087 3.12937 20.1011 3.43706L18.1506 5.38751C17.8431 5.69512 17.3535 5.71777 17.0139 5.46367C16.8538 5.34026 16.566 5.04434 16.4829 4.93338L10.165 11.252L9.92628 11.4908C9.89816 11.5185 9.87472 11.5508 9.85668 11.586C9.59298 12.1059 9.32977 12.6261 9.06641 13.1461V13.1799C9.18633 13.0255 9.40469 12.9892 9.56812 13.0964C9.65898 13.1589 9.74444 13.2288 9.83107 13.297C10.1795 13.5715 10.4914 13.89 10.7576 14.2448C10.8254 14.3352 10.8945 14.4247 10.9561 14.5195C11.0549 14.6755 11.0254 14.8803 10.8865 15.0021H10.9225C11.4426 14.7388 11.9626 14.4754 12.4825 14.2118C12.5178 14.1938 12.5499 14.1703 12.5778 14.1422C15.91 10.8109 19.2416 7.47888 22.5731 4.14674C22.916 3.80384 22.9847 3.28841 22.7884 2.87088C22.4538 2.34719 21.9508 1.93361 21.5125 1.49534C21.3344 1.31718 21.034 1.16797 20.7171 1.16797Z" fill="#FA8231"/>
<path d="M22.2225 0.252409L21.1979 1.27706C21.3113 1.33046 21.4189 1.39998 21.5121 1.49313L22.5726 2.55371C22.6659 2.64701 22.7346 2.75512 22.788 2.86867L23.8134 1.84323C24.1502 1.50633 24.1502 0.948934 23.8134 0.612034L23.4537 0.252409C23.1185 -0.0828037 22.5605 -0.0854662 22.2225 0.252409ZM19.1046 1.59273C18.8881 1.59648 18.6734 1.67973 18.5099 1.84323L16.5594 3.79372C16.2518 4.10133 16.2283 4.59153 16.4825 4.93117C16.5596 5.03475 16.8893 5.36842 17.0136 5.46146C17.3532 5.71556 17.8427 5.69287 18.1503 5.38526L20.1007 3.43485C20.4084 3.12716 20.4319 2.637 20.1776 2.29736C20.1019 2.19555 19.7738 1.8618 19.6473 1.76707C19.4881 1.64775 19.2957 1.58936 19.1046 1.59273Z" fill="#4C5457"/>
<path d="M8.69141 11.25C8.48429 11.25 8.31644 11.4179 8.31641 11.625V15.375C8.31641 15.5821 8.48429 15.75 8.69141 15.75H12.4414C12.6485 15.75 12.8164 15.5821 12.8164 15.375V13.9014L12.5776 14.1402C12.5499 14.1683 12.5176 14.1917 12.4824 14.2098C11.1427 14.889 12.8557 14.0203 9.67799 15.6306C9.42686 15.7579 9.15513 15.7458 8.92286 15.6539C8.80439 15.6072 8.69317 15.5465 8.60643 15.4598C8.51973 15.3731 8.45902 15.2619 8.41237 15.1434C8.32087 14.9111 8.30853 14.6394 8.43562 14.3883C8.90969 13.4537 9.38261 12.5186 9.85649 11.584C9.87449 11.5487 9.89801 11.5166 9.92609 11.4888L10.1649 11.25H8.69141Z" fill="#26DE81"/>
<path d="M1.94141 0C0.910306 0 0.0664062 0.8439 0.0664062 1.875V19.1252C0.0664062 20.1562 0.910306 21.0002 1.94141 21.0002H3.06641V7.12504C3.06644 7.02559 3.10597 6.93023 3.17628 6.85991L6.92628 3.10991C6.99659 3.0396 7.09196 3.00008 7.19141 3.00004H17.3538L18.1909 2.16285V1.875C18.1909 0.8439 17.347 0 16.3159 0H1.94141Z" fill="#A2B1C3"/>
<path d="M7.19152 3C7.33158 3 7.54428 3.09803 7.56641 3.37481V5.62481C7.56641 6.65591 6.72251 7.49985 5.69141 7.49985H3.44141C3.23429 7.49985 3.06641 7.33196 3.06641 7.12481V22.125C3.06641 23.1561 3.91031 24 4.94141 24H19.3159C20.347 24 21.1909 23.1561 21.1909 22.125V5.52667C18.4002 8.31904 15.6081 11.11 12.8165 13.9014V15.3751C12.8165 15.5822 12.6486 15.75 12.4415 15.7501H8.69152C8.48441 15.7501 8.31652 15.5822 8.31652 15.3751V11.625C8.31656 11.4179 8.48441 11.2501 8.69152 11.25H10.1652L11.6652 9.75004H8.69152C8.48441 9.75 8.31656 9.58215 8.31652 9.37504V5.625C8.31656 5.41789 8.48441 5.25004 8.69152 5.25H12.4415C12.6486 5.25004 12.8165 5.41789 12.8165 5.625V8.59792L16.483 4.9314C16.2288 4.59176 16.2523 4.10156 16.5599 3.79395L17.3539 3H7.19152ZM17.6915 11.25H18.566C18.7731 11.25 18.941 11.4179 18.941 11.625C18.941 11.8321 18.7731 12.0001 18.566 12.0001H17.6915C17.4844 12.0001 17.3165 11.8321 17.3165 11.625C17.3165 11.4179 17.4844 11.25 17.6915 11.25ZM16.1915 13.1251H18.566C18.7731 13.1251 18.941 13.293 18.941 13.5001C18.941 13.7072 18.7731 13.8751 18.566 13.8751H16.1915C15.9844 13.8751 15.8165 13.7072 15.8165 13.5001C15.8165 13.293 15.9844 13.1251 16.1915 13.1251ZM14.6915 15.0001H18.566C18.7731 15.0001 18.941 15.168 18.941 15.3751C18.941 15.5822 18.7731 15.7501 18.566 15.7501H14.6915C14.4844 15.7501 14.3165 15.5822 14.3165 15.3751C14.3165 15.168 14.4844 15.0001 14.6915 15.0001ZM8.69152 17.2501H12.4415C12.6486 17.2501 12.8165 17.418 12.8165 17.6251V21.3751C12.8165 21.5822 12.6486 21.7501 12.4415 21.7501H8.69152C8.48441 21.7501 8.31656 21.5822 8.31652 21.3751V17.6251C8.31656 17.418 8.48441 17.2501 8.69152 17.2501ZM14.6915 17.2501H18.566C18.7731 17.2501 18.941 17.418 18.941 17.6251C18.941 17.8322 18.7731 18.0001 18.566 18.0001H14.6915C14.4844 18.0001 14.3165 17.8322 14.3165 17.6251C14.3165 17.418 14.4844 17.2501 14.6915 17.2501ZM14.6915 19.1251H18.566C18.7731 19.1251 18.941 19.293 18.941 19.5001C18.941 19.7072 18.7731 19.8751 18.566 19.8751H14.6915C14.4844 19.8751 14.3165 19.7072 14.3165 19.5001C14.3165 19.293 14.4844 19.1251 14.6915 19.1251ZM14.6915 21.0001H18.566C18.7731 21.0001 18.941 21.168 18.941 21.3751C18.941 21.5822 18.7731 21.7501 18.566 21.7501H14.6915C14.4844 21.7501 14.3165 21.5822 14.3165 21.3751C14.3165 21.168 14.4844 21.0001 14.6915 21.0001Z" fill="#DFE4EA"/>
<path d="M7.19238 3C7.01163 3 6.9214 3.12454 6.92733 3.10972L3.17733 6.85972C3.17733 6.85972 3.18108 6.85598 3.18295 6.85523C2.94359 7.08454 3.10282 7.50004 3.44238 7.50004H5.69238C6.72348 7.50004 7.56907 6.6561 7.56738 5.625C7.56363 3.34688 7.56363 4.5144 7.56363 3.34688C7.56363 3.30668 7.53625 3.1809 7.44738 3.10526C7.37883 3.03904 7.28767 3.00143 7.19238 3Z" fill="#C1CBD7"/>
</svg>
