<svg width="209" height="118" viewBox="0 0 209 118" fill="none" xmlns="http://www.w3.org/2000/svg">
<path d="M127.957 84.003C127.957 84.003 130.841 80.5799 130.661 73.5539C130.481 66.5279 126.873 60.5613 126.873 60.5613L124.375 64.524C124.375 64.524 125.994 58.5774 123.29 53.1705C120.587 47.7635 119.147 45.0601 119.147 45.0601C119.147 45.0601 118.423 47.7635 117.703 49.9273C116.984 52.0911 117.523 42.3616 115.904 37.4944C114.285 32.6271 107.049 25.0714 101.278 20.389C97.4551 17.3726 93.2822 14.8289 88.8497 12.8133C88.8497 12.8133 89.7491 17.3108 89.5692 18.5801C89.3894 19.8493 87.7653 18.4002 86.506 16.4163C85.2467 14.4324 82.5432 7.94609 82.5432 7.94609C77.7082 5.28007 72.5621 3.22228 67.2219 1.81956C59.1115 -0.179304 41.6314 1.27987 41.6314 1.27987C43.9637 3.52598 46.1346 5.93394 48.1277 8.48578C49.5282 10.421 51.0931 12.2317 52.8051 13.8977C52.8051 13.8977 46.9634 10.9644 43.7152 8.08102C40.4671 5.19765 35.22 1.045 30.9175 0.145509C26.6149 -0.753981 13.6972 2.72405 10.9938 4.88783C8.2903 7.0516 0 13.383 0 13.383C0 13.383 10.4541 32.1024 18.7444 34.8009C27.0347 37.4993 30.8175 36.9696 30.8175 36.9696L36.4044 34.8009L32.6115 38.024C32.6115 38.024 38.6081 39.848 49.3021 41.4671C59.996 43.0862 61.9949 42.7314 67.2219 44.3505C72.4489 45.9695 85.4266 43.9907 85.4266 43.9907L81.4588 46.4893C81.4588 46.4893 83.9574 48.8329 89.5692 50.452C93.2095 51.5601 96.7156 53.0685 100.023 54.9495L96.7802 55.8889C96.7802 55.8889 101.278 61.116 104.346 62.3853C107.414 63.6545 111.737 65.6284 111.737 65.6284L107.954 66.348C107.954 66.348 114.62 71.9348 116.949 74.9981C119.277 78.0614 124.534 84.7276 127.957 84.003Z" fill="#90CAF9"/>
<path d="M72.4491 13.6078C72.397 13.6082 72.3461 13.5919 72.3039 13.5613C72.2616 13.5308 72.2302 13.4875 72.2143 13.4379C70.0955 7.08148 64.9334 1.87443 64.8834 1.81946C64.8377 1.77276 64.812 1.70996 64.812 1.64456C64.812 1.57916 64.8377 1.51637 64.8834 1.46966C64.9067 1.44624 64.9343 1.42765 64.9647 1.41497C64.9952 1.40228 65.0278 1.39575 65.0608 1.39575C65.0938 1.39575 65.1265 1.40228 65.1569 1.41497C65.1874 1.42765 65.215 1.44624 65.2382 1.46966C65.2882 1.51963 70.5302 6.81163 72.684 13.278C72.695 13.3091 72.6998 13.3422 72.6979 13.3752C72.6961 13.4082 72.6877 13.4405 72.6733 13.4702C72.6589 13.5 72.6388 13.5266 72.614 13.5485C72.5892 13.5704 72.5604 13.5871 72.5291 13.5978L72.4491 13.6078Z" fill="#263238"/>
<path d="M76.2316 16.4913C76.1753 16.4914 76.1207 16.472 76.0771 16.4365C76.0334 16.401 76.0032 16.3516 75.9918 16.2964C74.7575 10.8445 72.2839 7.96617 72.2589 7.93618C72.2151 7.88582 72.1932 7.82015 72.1979 7.75361C72.2026 7.68707 72.2335 7.62512 72.2839 7.58138C72.3342 7.53765 72.3999 7.51571 72.4664 7.5204C72.533 7.52508 72.5949 7.55601 72.6387 7.60637C72.7436 7.7263 75.2172 10.6047 76.4765 16.1865C76.4839 16.2187 76.4848 16.252 76.4792 16.2845C76.4736 16.317 76.4617 16.3481 76.444 16.376C76.4264 16.4039 76.4034 16.428 76.3763 16.4469C76.3493 16.4658 76.3188 16.4793 76.2866 16.4863L76.2316 16.4913Z" fill="#263238"/>
<path d="M106.33 40.6426C106.27 40.6431 106.212 40.6214 106.167 40.5818C106.121 40.5422 106.092 40.4873 106.085 40.4277C104.311 27.4951 99.5088 20.9638 99.4638 20.8988C99.4441 20.8725 99.4298 20.8427 99.4216 20.8109C99.4135 20.7791 99.4117 20.746 99.4163 20.7135C99.421 20.6811 99.432 20.6498 99.4487 20.6216C99.4654 20.5933 99.4875 20.5687 99.5138 20.549C99.54 20.5293 99.5699 20.515 99.6017 20.5068C99.6334 20.4987 99.6665 20.4969 99.699 20.5015C99.7315 20.5062 99.7627 20.5172 99.791 20.5339C99.8192 20.5506 99.8439 20.5727 99.8636 20.599C99.9135 20.6639 104.786 27.2902 106.58 40.3578C106.588 40.4234 106.57 40.4896 106.53 40.5421C106.49 40.5946 106.43 40.6289 106.365 40.6376L106.33 40.6426Z" fill="#263238"/>
<path d="M100.023 29.1091C99.9629 29.1087 99.9046 29.0869 99.8589 29.0475C99.8131 29.0082 99.7828 28.9538 99.7734 28.8942C99.2647 25.904 98.3025 23.0089 96.92 20.3091C96.8882 20.2508 96.8808 20.1822 96.8996 20.1185C96.9183 20.0548 96.9616 20.0011 97.0199 19.9693C97.0782 19.9375 97.1468 19.9302 97.2105 19.9489C97.2743 19.9676 97.3279 20.0109 97.3597 20.0692C98.7693 22.8163 99.7533 25.7616 100.278 28.8043C100.283 28.8368 100.282 28.8699 100.274 28.9018C100.266 28.9338 100.252 28.9638 100.232 28.9903C100.213 29.0167 100.188 29.0391 100.16 29.056C100.132 29.073 100.101 29.0843 100.068 29.0891L100.023 29.1091Z" fill="#263238"/>
<path d="M106.689 56.3186C106.663 56.3231 106.636 56.3231 106.609 56.3186C105.149 55.9083 103.658 55.6109 102.152 55.4291C102.086 55.4205 102.025 55.3859 101.985 55.3329C101.944 55.28 101.926 55.213 101.934 55.1467C101.943 55.0805 101.978 55.0203 102.031 54.9796C102.084 54.9388 102.151 54.9207 102.217 54.9293C103.755 55.1172 105.277 55.423 106.769 55.8438C106.835 55.8544 106.895 55.8909 106.934 55.9453C106.974 55.9996 106.99 56.0674 106.979 56.1337C106.969 56.1999 106.932 56.2593 106.878 56.2986C106.823 56.338 106.756 56.3542 106.689 56.3435V56.3186Z" fill="#263238"/>
<path d="M24.6911 34.6959C24.6248 34.7019 24.5589 34.6813 24.5078 34.6386C24.4567 34.596 24.4247 34.5348 24.4187 34.4685C24.4128 34.4023 24.4334 34.3363 24.476 34.2853C24.5187 34.2342 24.5798 34.2021 24.6461 34.1962C24.7411 34.1962 34.4356 32.3572 41.8913 28.9841C41.9215 28.9682 41.9546 28.9587 41.9886 28.9561C42.0226 28.9534 42.0568 28.9578 42.0891 28.9689C42.1213 28.98 42.151 28.9976 42.1762 29.0206C42.2014 29.0435 42.2216 29.0714 42.2356 29.1025C42.2496 29.1336 42.2571 29.1673 42.2577 29.2014C42.2582 29.2355 42.2517 29.2693 42.2386 29.3009C42.2256 29.3324 42.2062 29.3609 42.1817 29.3846C42.1572 29.4083 42.1281 29.4268 42.0962 29.4389C34.6005 32.837 24.836 34.6659 24.7361 34.6859L24.6911 34.6959Z" fill="#263238"/>
<path d="M30.278 31.6328C30.2239 31.6328 30.1713 31.6152 30.1281 31.5828C30.0848 31.5504 30.0533 31.5048 30.0381 31.4529C30.0282 31.4214 30.0248 31.3882 30.028 31.3554C30.0313 31.3225 30.0411 31.2907 30.057 31.2617C30.0729 31.2328 30.0944 31.2074 30.1204 31.187C30.1463 31.1666 30.1761 31.1516 30.208 31.143C30.273 31.143 36.9492 29.1442 39.7026 27.735C39.7616 27.7045 39.8303 27.6987 39.8935 27.7188C39.9568 27.739 40.0095 27.7834 40.0399 27.8424C40.0704 27.9014 40.0762 27.9701 40.0561 28.0333C40.0359 28.0966 39.9915 28.1492 39.9325 28.1797C37.1291 29.6239 30.6128 31.5378 30.3379 31.6228L30.278 31.6328Z" fill="#263238"/>
<path d="M58.5717 24.4218C58.5178 24.421 58.4656 24.4032 58.4225 24.3709C58.3794 24.3386 58.3476 24.2934 58.3318 24.2419C56.7477 18.9599 54.0992 16.2465 54.0692 16.2465C54.0234 16.1998 53.9978 16.137 53.9978 16.0716C53.9978 16.0062 54.0234 15.9434 54.0692 15.8967C54.0925 15.8732 54.1201 15.8547 54.1505 15.842C54.181 15.8293 54.2136 15.8228 54.2466 15.8228C54.2796 15.8228 54.3123 15.8293 54.3427 15.842C54.3732 15.8547 54.4008 15.8732 54.424 15.8967C54.534 16.0066 57.1925 18.7051 58.8115 24.112C58.8207 24.1435 58.8236 24.1765 58.8201 24.2091C58.8165 24.2417 58.8065 24.2733 58.7908 24.3021C58.775 24.3309 58.7537 24.3563 58.7281 24.3768C58.7025 24.3973 58.6731 24.4126 58.6416 24.4218H58.5717Z" fill="#263238"/>
<path d="M137.127 117.284C137.057 117.284 136.989 117.262 136.932 117.221C136.876 117.179 136.834 117.121 136.812 117.054C134.729 110.798 124.155 79.1657 120.407 70.5805C116.369 61.3508 95.9456 43.251 83.9874 38.3038C78.7853 36.15 72.3839 34.521 63.499 32.2722C57.8921 30.8431 50.9111 29.0691 42.5608 26.7254C21.4028 20.8087 13.8271 16.9709 13.7372 16.9309C13.6823 16.902 13.6398 16.8541 13.6178 16.7962C13.5957 16.7382 13.5955 16.6742 13.6172 16.6161C13.6397 16.5584 13.6829 16.5111 13.7383 16.4834C13.7937 16.4557 13.8574 16.4496 13.9171 16.4662C14.3168 16.5761 53.9944 27.46 62.0848 28.8592C62.2047 28.8892 72.304 31.3578 77.9808 33.1367C78.047 33.156 78.103 33.2007 78.1362 33.2612C78.1695 33.3216 78.1774 33.3928 78.1582 33.4591C78.1389 33.5253 78.0942 33.5813 78.0337 33.6145C77.9733 33.6478 77.9021 33.6557 77.8358 33.6365C72.1691 31.8775 62.0848 29.3989 61.9848 29.3739C55.2636 28.2245 26.7698 20.5189 17.0503 17.8804C20.9831 19.4945 28.9835 22.4578 42.7157 26.3056C51.061 28.6443 58.0371 30.4183 63.6439 31.8475C72.5239 34.1062 78.9452 35.7353 84.1773 37.899C96.2204 42.8962 116.789 61.1309 120.861 70.4406C124.245 78.1712 133.159 104.591 136.423 114.356C135.548 110.168 134.069 103.557 132.425 98.1349C129.761 89.2699 125.264 76.832 124 73.5888C121.998 68.5615 119.245 63.8673 115.834 59.6667L113.051 56.6684C112.931 56.5385 100.773 43.6408 91.5181 38.5187C91.4606 38.4861 91.4181 38.4324 91.3994 38.369C91.3808 38.3056 91.3875 38.2374 91.4182 38.1789C91.4507 38.1213 91.5047 38.079 91.5684 38.0612C91.6321 38.0434 91.7003 38.0516 91.758 38.084C101.083 43.241 113.296 56.1937 113.416 56.3286L116.209 59.3269C119.66 63.571 122.444 68.3161 124.464 73.3989C125.729 76.6471 130.236 89.11 132.91 97.94C134.968 104.766 136.777 113.431 137.457 116.869C137.474 116.953 137.459 117.041 137.415 117.114C137.37 117.187 137.3 117.241 137.217 117.264L137.127 117.284Z" fill="#8F8F8F"/>
<path d="M89.3945 37.7542C89.3649 37.7612 89.3341 37.7612 89.3045 37.7542L80.5495 34.3611C80.5186 34.3493 80.4904 34.3315 80.4665 34.3088C80.4425 34.2861 80.4232 34.2589 80.4098 34.2287C80.3963 34.1986 80.3889 34.166 80.388 34.133C80.3871 34.1 80.3928 34.0672 80.4046 34.0363C80.4164 34.0055 80.4342 33.9772 80.4569 33.9533C80.4796 33.9293 80.5068 33.91 80.537 33.8966C80.5671 33.8831 80.5996 33.8757 80.6327 33.8748C80.6657 33.874 80.6985 33.8796 80.7294 33.8914L89.4844 37.2895C89.5154 37.3011 89.5438 37.3188 89.5679 37.3414C89.592 37.3641 89.6113 37.3914 89.6248 37.4216C89.6383 37.4518 89.6456 37.4844 89.6464 37.5175C89.6472 37.5506 89.6414 37.5835 89.6293 37.6143C89.6071 37.6571 89.5733 37.6929 89.5318 37.7176C89.4903 37.7423 89.4428 37.755 89.3945 37.7542Z" fill="#8F8F8F"/>
<path d="M77.9108 33.3766C72.174 31.5876 62.0447 29.104 62.0447 29.104C53.8444 27.7048 13.8521 16.7061 13.8521 16.7061C13.8521 16.7061 21.2479 20.5089 42.6457 26.5055C64.0436 32.5021 75.5271 34.5509 84.0823 38.0939C95.6057 42.8612 116.434 60.901 120.637 70.5006C124.374 79.0507 134.813 110.263 137.047 116.974C137.053 116.996 137.068 117.015 137.087 117.026C137.107 117.037 137.13 117.04 137.152 117.034C137.174 117.028 137.193 117.014 137.204 116.994C137.215 116.974 137.218 116.951 137.212 116.929C136.558 113.641 134.714 104.871 132.67 98.025C130.071 89.4248 125.634 77.0968 124.234 73.4989C122.228 68.4443 119.461 63.7258 116.029 59.5068L113.236 56.5085C113.236 56.5085 101.038 43.5159 91.638 38.3088" fill="white"/>
<path d="M202.97 91.412H195.751C194.91 88.5594 192.769 85.8361 189.282 83.6497C180.136 77.828 165.31 77.828 156.163 83.6497C152.703 85.8555 150.562 88.5788 149.695 91.412H142.528L152.813 101.949C153.818 103.015 154.95 103.953 156.183 104.744C165.329 110.565 180.155 110.565 189.302 104.744C190.547 103.953 191.691 103.015 192.711 101.949L202.97 91.412Z" fill="#90CAF9"/>
<path opacity="0.2" d="M202.97 91.412H195.751C194.91 88.5594 192.769 85.8361 189.282 83.6497C180.136 77.828 165.31 77.828 156.163 83.6497C152.703 85.8555 150.562 88.5788 149.695 91.412H142.528L152.813 101.949C153.818 103.015 154.95 103.953 156.183 104.744C165.329 110.565 180.155 110.565 189.302 104.744C190.547 103.953 191.691 103.015 192.711 101.949L202.97 91.412Z" fill="white"/>
<path d="M202.938 67.0191L192.756 56.4753H173.764C173.085 56.4753 172.413 56.4753 171.733 56.4753H152.813L142.56 67.0191C133.776 75.8293 135.393 87.6409 147.463 95.332C161.429 104.239 184.069 104.239 198.035 95.332C210.105 87.6409 211.722 75.8293 202.938 67.0191Z" fill="#90CAF9"/>
<path opacity="0.4" d="M202.938 67.0191L192.756 56.4753H173.764C173.085 56.4753 172.413 56.4753 171.733 56.4753H152.813L142.56 67.0191C133.776 75.8293 135.393 87.6409 147.463 95.332C161.429 104.239 184.069 104.239 198.035 95.332C210.105 87.6409 211.722 75.8293 202.938 67.0191Z" fill="white"/>
<path d="M205.344 79.2512C205.344 82.576 203.792 85.8944 200.855 88.857L194.994 94.8598L191.553 98.4952L190.531 99.4461C189.697 100.324 188.761 101.1 187.743 101.755C183.791 104.278 178.461 105.636 172.749 105.636C167.037 105.636 161.707 104.252 157.755 101.755C156.735 101.1 155.796 100.325 154.96 99.4461L154.055 98.4952L150.555 94.8598L144.643 88.857C141.706 85.8944 140.16 82.576 140.16 79.2512C140.16 75.9263 141.732 72.5562 144.688 69.5483L149.714 64.5158L150.652 63.539C151.745 62.4329 152.963 61.4582 154.281 60.6346C154.656 60.3888 155.038 60.1689 155.433 59.949H190.065C190.454 60.1689 190.835 60.3888 191.21 60.6346C192.549 61.4697 193.782 62.4621 194.885 63.5908L195.402 64.1277L200.803 69.6001C203.779 72.5562 205.344 75.9069 205.344 79.2512Z" fill="#37474F"/>
<path d="M154.288 84.1479C144.087 77.647 144.087 67.1032 154.288 60.6346C164.489 54.1661 181.016 54.1661 191.21 60.6346C201.405 67.1032 201.405 77.6729 191.21 84.1738C181.016 90.6747 164.482 90.6488 154.288 84.1479Z" fill="#455A64"/>
<path opacity="0.3" d="M202.938 67.0191L192.756 56.4753H173.764C173.085 56.4753 172.412 56.4753 171.733 56.4753H152.813L142.56 67.0191C135.16 74.4386 135.154 83.9862 142.56 91.4121L152.845 101.949C153.84 103.013 154.961 103.951 156.183 104.744C165.329 110.566 180.155 110.566 189.302 104.744C190.547 103.953 191.691 103.015 192.711 101.949L202.964 91.4121C210.344 83.9862 210.338 74.4386 202.938 67.0191Z" fill="#90CAF9"/>
<path opacity="0.1" d="M202.938 67.0191L192.756 56.4753H173.764C173.085 56.4753 172.412 56.4753 171.733 56.4753H152.813L142.56 67.0191C135.16 74.4386 135.154 83.9862 142.56 91.4121L152.845 101.949C153.84 103.013 154.961 103.951 156.183 104.744C165.329 110.566 180.155 110.566 189.302 104.744C190.547 103.953 191.691 103.015 192.711 101.949L202.964 91.4121C210.344 83.9862 210.338 74.4386 202.938 67.0191Z" fill="white"/>
<path opacity="0.4" d="M189.599 99.2002C169.644 103.528 151.241 94.3553 146.616 89.0898C138.769 80.1697 141.952 72.278 152.56 62.9245L150.93 58.3965L142.56 67.0191C133.776 75.8293 135.393 87.6409 147.463 95.332C158.887 102.622 176.061 103.838 189.599 99.2002Z" fill="white"/>
<path d="M194.529 58.5194C193.154 56.6156 191.37 55.0441 189.308 53.9202C180.162 48.6418 165.336 48.6418 156.189 53.9202C154.126 55.0423 152.342 56.6141 150.969 58.5194H149.333V63.2867C149.262 66.8121 151.532 70.3374 156.183 73.0413C165.329 78.3196 180.155 78.3196 189.302 73.0413C193.959 70.3504 196.23 66.8121 196.146 63.2867V58.5194H194.529Z" fill="#90CAF9"/>
<path opacity="0.4" d="M194.529 58.5194C193.154 56.6156 191.37 55.0441 189.308 53.9202C180.162 48.6418 165.336 48.6418 156.189 53.9202C154.126 55.0423 152.342 56.6141 150.969 58.5194H149.333V63.2867C149.262 66.8121 151.532 70.3374 156.183 73.0413C165.329 78.3196 180.155 78.3196 189.302 73.0413C193.959 70.3504 196.23 66.8121 196.146 63.2867V58.5194H194.529Z" fill="white"/>
<path opacity="0.1" d="M189.308 73.0412C189.904 72.699 190.48 72.3255 191.036 71.9222C186.414 74.0553 181.481 75.4333 176.423 76.0038C168.473 76.8059 159.113 73.3194 155.31 70.6414C151.506 67.9634 150.135 63.9723 150.135 61.9994V58.5193H149.333V63.2866C149.262 66.812 151.532 70.3374 156.183 73.0412C165.336 78.3196 180.162 78.3196 189.308 73.0412Z" fill="black"/>
<path d="M156.183 68.0799C147.036 62.8015 147.036 54.2371 156.183 48.9588C165.329 43.6804 180.155 43.6804 189.302 48.9588C198.448 54.2371 198.448 62.8015 189.302 68.0799C180.155 73.3582 165.336 73.3582 156.183 68.0799Z" fill="#90CAF9"/>
<path opacity="0.7" d="M156.183 68.0799C147.036 62.8015 147.036 54.2371 156.183 48.9588C165.329 43.6804 180.155 43.6804 189.302 48.9588C198.448 54.2371 198.448 62.8015 189.302 68.0799C180.155 73.3582 165.336 73.3582 156.183 68.0799Z" fill="white"/>
<path d="M160.433 65.6283C153.628 61.7019 153.628 55.3368 160.433 51.3974C167.238 47.4581 178.26 47.471 185.065 51.3974C191.87 55.3238 191.87 61.6954 185.065 65.6283C178.26 69.5612 167.231 69.5612 160.433 65.6283Z" fill="#90CAF9"/>
<path opacity="0.4" d="M160.426 65.6346C153.622 61.7017 153.622 55.3367 160.426 51.4038C167.231 47.4709 178.267 47.4774 185.072 51.4038C191.877 55.3302 191.877 61.7017 185.072 65.6346C178.267 69.5675 167.231 69.5611 160.426 65.6346Z" fill="white"/>
<path opacity="0.1" d="M178.946 53.6356C172.736 52.2837 165.439 53.034 160.42 55.9255C158.033 57.2968 156.5 58.998 155.788 60.7769C154.495 57.5426 156.034 53.9396 160.42 51.4104C158.24 52.8464 157.71 55.4145 159.288 55.1363C160.866 54.8582 169.017 50.162 178.946 53.6356Z" fill="black"/>
<path opacity="0.4" d="M185.072 55.9255C178.267 51.9926 167.231 51.9926 160.426 55.9255C158.027 57.3098 156.494 58.9981 155.782 60.7769C156.494 62.5558 158.027 64.2506 160.426 65.6348C167.231 69.5612 178.267 69.5612 185.072 65.6348C187.472 64.2506 189.005 62.5558 189.716 60.7769C189.005 58.9981 187.472 57.3098 185.072 55.9255Z" fill="#90CAF9"/>
<path opacity="0.4" d="M189.71 60.7768C189.011 62.5556 187.472 64.2504 185.072 65.6347C178.267 69.5611 167.231 69.5611 160.426 65.6347C158.027 64.2504 156.494 62.5556 155.782 60.7768C156.07 60.0652 156.463 59.4003 156.946 58.8039C166.255 54.7093 179.243 54.7093 188.545 58.8039C189.031 59.3988 189.424 60.064 189.71 60.7768Z" fill="#90CAF9"/>
<path opacity="0.1" d="M189.71 60.777C189.622 60.9986 189.52 61.2146 189.405 61.4238C188.378 59.6649 186.879 58.2286 185.078 57.2775C178.26 53.3381 167.238 53.3381 160.42 57.2775C158.619 58.2286 157.12 59.6649 156.092 61.4238C155.975 61.216 155.874 60.9998 155.788 60.777C156.5 58.9981 158.033 57.2969 160.42 55.9255C167.238 51.9991 178.26 51.9991 185.078 55.9255C187.465 57.2969 188.998 58.9981 189.71 60.777Z" fill="black"/>
<path d="M185.072 65.6347C181.862 67.4604 178.268 68.5062 174.58 68.6878C170.888 68.961 167.179 68.5105 163.661 67.3618C160.271 66.1133 156.694 64.024 155.446 60.3628C154.197 56.4816 157.289 52.9692 160.426 51.4038C157.367 53.1633 154.553 56.6628 155.769 60.2593C156.992 63.7135 160.491 65.7187 163.829 66.8831C167.276 68.0689 170.921 68.5677 174.56 68.3514C178.217 68.1994 181.799 67.2734 185.072 65.6347Z" fill="white"/>
<path d="M189.71 60.7768C189.011 62.5556 187.472 64.2504 185.072 65.6347C178.267 69.5611 167.231 69.5611 160.426 65.6347C158.027 64.2504 156.494 62.5556 155.782 60.7768C156.07 60.0652 156.463 59.4003 156.946 58.8039C166.255 54.7093 179.243 54.7093 188.545 58.8039C189.031 59.3988 189.424 60.064 189.71 60.7768Z" fill="#455A64"/>
</svg>
