<svg width="148" height="148" viewBox="0 0 148 148" fill="none" xmlns="http://www.w3.org/2000/svg">
<path d="M121.355 76.3009C121.39 75.5216 121.406 74.74 121.406 73.9584C121.406 49.7141 105.022 28.1848 81.5642 21.6057C80.9736 21.4398 80.473 21.0461 80.1727 20.5111C79.8724 19.9762 79.7969 19.3438 79.9628 18.7532C80.1287 18.1626 80.5224 17.6621 81.0574 17.3617C81.5923 17.0614 82.2246 16.9859 82.8153 17.1518C108.257 24.2905 126.031 47.6491 126.031 73.9584C126.031 75.1562 125.994 76.3541 125.923 77.5497C125.805 79.4806 124.963 77.7023 123.802 77.3323C122.701 76.9831 121.277 78.144 121.355 76.3009ZM17.2351 49.4505C16.8341 49.4504 16.4402 49.346 16.0918 49.1476C15.7433 48.9493 15.4525 48.6637 15.2477 48.3191C15.043 47.9744 14.9314 47.5824 14.9238 47.1815C14.9163 46.7807 15.0131 46.3848 15.2047 46.0326C25.6179 26.8851 45.4869 14.9896 67.0625 14.9896C69.1969 14.9896 71.3499 15.1076 73.4612 15.3388C74.0711 15.406 74.6294 15.7127 75.0132 16.1915C75.397 16.6702 75.5749 17.2819 75.5078 17.8918C75.4406 18.5018 75.1339 19.06 74.6551 19.4438C74.1763 19.8276 73.5647 20.0055 72.9548 19.9384C71.0122 19.7233 69.0281 19.6146 67.0625 19.6146C47.1842 19.6146 28.8692 30.5851 19.2677 48.2411C19.0694 48.6071 18.7757 48.9128 18.4179 49.1257C18.0601 49.3386 17.6514 49.4508 17.2351 49.4505ZM11.4769 86.0874C11.2094 86.0872 10.9503 85.9941 10.7436 85.8242C10.537 85.6543 10.3957 85.4179 10.3438 85.1555C9.61698 81.4674 9.25065 77.7174 9.25 73.9584C9.25 67.2799 10.4039 60.717 12.6748 54.4548C12.7794 54.1662 12.9943 53.931 13.2723 53.8009C13.5503 53.6708 13.8686 53.6564 14.1571 53.761C14.4457 53.8656 14.6809 54.0805 14.811 54.3585C14.9411 54.6365 14.9554 54.9547 14.8509 55.2433C12.6716 61.2421 11.5587 67.576 11.5625 73.9584C11.5625 77.5589 11.9163 81.1757 12.6147 84.7046C12.6483 84.8726 12.6441 85.0461 12.6024 85.2123C12.5608 85.3785 12.4826 85.5335 12.3738 85.6658C12.2649 85.7982 12.1279 85.9047 11.9728 85.9776C11.8177 86.0505 11.6483 86.088 11.4769 86.0874Z" fill="#90CAF9"/>
<path d="M36.6623 38.4823C36.4242 38.4827 36.1918 38.4097 35.9968 38.2731C35.8018 38.1365 35.6537 37.9431 35.5727 37.7192C35.4918 37.4953 35.4819 37.2518 35.5445 37.0221C35.607 36.7924 35.739 36.5876 35.9223 36.4357C42.1933 31.2205 49.716 27.731 57.7477 26.3116C64.1582 25.1667 70.7356 25.3503 77.0722 26.8511C83.4089 28.352 89.3699 31.138 94.5858 35.0366C94.8194 35.2245 94.9709 35.4957 95.0084 35.7931C95.0458 36.0904 94.9664 36.3907 94.7867 36.6307C94.6071 36.8706 94.3413 37.0314 94.0454 37.0791C93.7495 37.1269 93.4466 37.0579 93.2006 36.8866C88.2387 33.1788 82.5685 30.529 76.541 29.1014C70.5136 27.6738 64.2572 27.4987 58.1593 28.5871C50.5205 29.9375 43.3656 33.2555 37.4 38.214C37.1939 38.3885 36.9323 38.4836 36.6623 38.4823ZM110.868 78.063C110.649 73.7424 110.155 69.4401 109.388 65.1824C107.945 57.1176 104.27 49.6189 98.7807 43.5374C98.3695 43.0823 98.1559 42.4825 98.1869 41.8699C98.2179 41.2574 98.491 40.6822 98.946 40.271C99.4011 39.8598 100.001 39.6462 100.613 39.6772C101.226 39.7082 101.801 39.9812 102.212 40.4363C108.281 47.1586 112.343 55.4471 113.939 64.3615C114.663 68.3783 115.156 72.4552 115.412 76.5437C115.479 77.6028 114.434 77.4849 113.349 77.8294C112.163 78.211 110.914 78.9626 110.868 78.063ZM14.0646 96.3063C13.5792 96.3063 13.1062 96.1536 12.7124 95.8698C12.3187 95.586 12.0242 95.1855 11.8707 94.7251C11.7173 94.2647 11.7125 93.7676 11.8573 93.3043C12.002 92.841 12.2888 92.435 12.6771 92.1438L13.2159 91.7253C13.5859 91.4362 13.9559 91.1471 14.3513 90.8789C16.9483 89.1052 18.5 86.24 18.5 83.2083C18.5 82.6579 18.4514 82.1076 18.3543 81.5757C17.0991 74.6322 17.3742 67.4984 19.1603 60.6722C20.9465 53.8459 24.2006 47.4917 28.6958 42.0528C28.8891 41.8185 29.1266 41.6245 29.3948 41.4821C29.6631 41.3396 29.9568 41.2513 30.2591 41.2223C30.5615 41.1933 30.8666 41.2242 31.157 41.3131C31.4474 41.402 31.7175 41.5473 31.9518 41.7406C32.1861 41.9339 32.38 42.1714 32.5225 42.4397C32.6649 42.7079 32.7532 43.0016 32.7822 43.3039C32.8112 43.6063 32.7803 43.9114 32.6914 44.2018C32.6025 44.4922 32.4572 44.7623 32.264 44.9966C28.1973 49.9176 25.2531 55.6665 23.6367 61.8424C22.0203 68.0183 21.7707 74.4725 22.9053 80.7548C23.051 81.5572 23.125 82.3828 23.125 83.2083C23.125 87.7709 20.8194 92.0629 16.9552 94.6968C16.6476 94.9073 16.3609 95.1339 16.0741 95.3605L15.4475 95.8438C15.0312 96.156 14.5456 96.3063 14.0646 96.3063ZM95.2056 125.435C94.8167 125.435 94.434 125.338 94.093 125.151C93.752 124.964 93.4638 124.694 93.255 124.366C93.0462 124.038 92.9237 123.662 92.8988 123.274C92.874 122.886 92.9476 122.498 93.1128 122.146C97.1049 113.573 99.7597 104.438 100.985 95.0599C101.149 93.7926 104.678 101.264 104.432 102.469C102.914 109.934 100.521 117.194 97.303 124.098C97.1171 124.497 96.8209 124.835 96.4493 125.072C96.0777 125.309 95.6462 125.435 95.2056 125.435ZM18.13 104.814C17.6535 104.814 17.1886 104.667 16.7988 104.393C16.4091 104.119 16.1135 103.731 15.9525 103.283C15.7916 102.834 15.7731 102.347 15.8996 101.888C16.026 101.428 16.2914 101.019 16.6592 100.716C17.723 99.8421 18.6456 99.1438 19.5591 98.5217C21.1788 97.4195 22.618 96.0731 23.8256 94.5303C24.0125 94.2906 24.2448 94.0902 24.5093 93.9405C24.7738 93.7909 25.0652 93.6949 25.3669 93.6582C25.6685 93.6214 25.9745 93.6446 26.2672 93.7264C26.5599 93.8082 26.8335 93.9471 27.0724 94.1349C28.0783 94.9211 28.2564 96.3757 27.4678 97.3793C25.9673 99.2976 24.1786 100.972 22.1653 102.342C21.3675 102.885 20.5511 103.503 19.6007 104.289C19.186 104.629 18.6662 104.814 18.13 104.814Z" fill="#90CAF9"/>
<path d="M29.5561 88.8972C29.3824 88.8973 29.2108 88.8583 29.0542 88.7831C28.8976 88.7078 28.76 88.5982 28.6516 88.4625C28.5431 88.3267 28.4667 88.1683 28.4279 87.9989C28.3891 87.8295 28.389 87.6536 28.4276 87.4842C29.0031 84.9354 29.0597 82.2969 28.5941 79.7258C24.8664 59.0173 38.6812 39.1391 59.3874 35.4113C80.0981 31.6882 99.9717 45.5077 103.702 66.2023C104.71 71.7939 105.219 77.515 105.219 83.2061C105.219 83.9993 102.86 86.1615 102.876 85.5255C103.032 79.1888 102.545 72.8526 101.424 66.6139C97.9229 47.1704 79.2471 34.1903 59.7967 37.6868C40.3462 41.1903 27.3708 59.8637 30.8719 79.3141C31.3886 82.1907 31.3249 85.1414 30.6846 87.993C30.6273 88.2495 30.4843 88.4789 30.2791 88.6432C30.074 88.8076 29.819 88.8972 29.5561 88.8972Z" fill="#90CAF9"/>
<path d="M38.4106 76.2731C37.8122 76.2729 37.2372 76.0408 36.8064 75.6255C36.3756 75.2103 36.1225 74.6442 36.1004 74.0462C35.55 59.1999 46.1783 46.0164 60.821 43.3801C62.9069 43.0032 65.0298 42.8459 67.1341 42.913C68.4106 42.9546 69.4119 44.0207 69.3726 45.2972C69.3333 46.5737 68.2441 47.5704 66.9884 47.5357C65.1973 47.4779 63.4051 47.6104 61.6419 47.9311C49.2493 50.1627 40.2559 61.3159 40.7231 73.8728C40.745 74.4855 40.5231 75.0819 40.1062 75.5313C39.6892 75.9808 39.1111 76.2467 38.4984 76.2708L38.4106 76.2731ZM91.4408 108.068C91.2611 108.068 91.0838 108.027 90.923 107.946C90.7621 107.866 90.6222 107.75 90.5142 107.606C90.4062 107.462 90.3333 107.296 90.301 107.119C90.2688 106.942 90.2782 106.76 90.3285 106.588C92.5345 98.9904 93.6548 91.1194 93.6562 83.2083C93.6562 78.2133 93.2076 73.1836 92.3219 68.2557C91.5321 63.7856 89.6054 59.5939 86.7271 56.0838C83.8488 52.5738 80.1157 49.8633 75.887 48.2133C75.6015 48.1007 75.3724 47.8794 75.2501 47.5979C75.1278 47.3165 75.1223 46.9979 75.2348 46.7124C75.3474 46.4269 75.5687 46.1978 75.8502 46.0755C76.1316 45.9533 76.4501 45.9478 76.7356 46.0603C81.3316 47.8544 85.3888 50.8004 88.5172 54.6154C91.6457 58.4303 93.7403 62.9858 94.5997 67.8441C96.967 80.9556 96.2666 94.4373 92.5531 107.233C92.4831 107.474 92.3367 107.685 92.1362 107.836C91.9356 107.986 91.6916 108.068 91.4408 108.068ZM81.6358 131.026C81.2225 131.026 80.817 130.915 80.4612 130.704C80.1055 130.494 79.8127 130.192 79.6132 129.83C79.4137 129.468 79.3148 129.059 79.3269 128.646C79.3389 128.233 79.4615 127.831 79.6818 127.481C82.3156 123.297 84.5752 118.888 86.4343 114.307C86.6671 113.742 87.1137 113.293 87.6767 113.056C88.2396 112.82 88.8732 112.816 89.4393 113.045C90.0053 113.274 90.4578 113.717 90.6981 114.279C90.9383 114.84 90.9468 115.474 90.7216 116.041C88.7615 120.878 86.3764 125.532 83.5945 129.949C83.3857 130.279 83.0966 130.551 82.754 130.74C82.4115 130.928 82.0268 131.027 81.6358 131.026ZM23.451 111.277C23.2154 111.278 22.9854 111.206 22.7917 111.072C22.598 110.938 22.4499 110.748 22.3671 110.527C22.2844 110.307 22.271 110.066 22.3287 109.838C22.3865 109.609 22.5126 109.404 22.6902 109.249C23.6545 108.408 24.5471 107.712 25.4189 107.12C33.3948 101.683 38.1562 92.7451 38.1562 83.2083C38.1562 82.9017 38.278 82.6076 38.4949 82.3907C38.7117 82.1739 39.0058 82.0521 39.3124 82.0521C39.6191 82.0521 39.9132 82.1739 40.13 82.3907C40.3469 82.6076 40.4687 82.9017 40.4687 83.2083C40.4687 93.5105 35.328 103.165 26.7209 109.03C25.8456 109.633 25.0077 110.288 24.2118 110.993C24.0013 111.177 23.7308 111.278 23.451 111.277Z" fill="#90CAF9"/>
<path d="M84.3531 72.002C83.8113 72.0014 83.2869 71.8104 82.8714 71.4626C82.4559 71.1148 82.1758 70.6321 82.0799 70.0988C81.709 68.0045 80.926 66.0046 79.7764 64.2151C78.6268 62.4256 77.1335 60.8821 75.3829 59.6741C73.6408 58.4554 71.674 57.5946 69.5968 57.1417C67.5195 56.6888 65.3729 56.6527 63.2816 57.0355C62.079 57.2512 60.9045 57.6019 59.7805 58.0808C59.2162 58.3212 58.5796 58.3276 58.0106 58.0986C57.4416 57.8696 56.9869 57.424 56.7465 56.8598C56.5061 56.2955 56.4996 55.6589 56.7286 55.0899C56.9576 54.5209 57.4032 54.0662 57.9675 53.8258C59.4111 53.2121 60.9191 52.7622 62.463 52.4845C65.1522 51.9931 67.9122 52.0399 70.5832 52.6222C73.2542 53.2045 75.7832 54.3107 78.0238 55.8769C80.2744 57.4304 82.1944 59.415 83.6726 61.7157C85.1508 64.0164 86.1579 66.5876 86.6355 69.2802C86.6947 69.6136 86.68 69.956 86.5926 70.2831C86.5052 70.6103 86.3471 70.9143 86.1295 71.1738C85.9119 71.4332 85.6401 71.6419 85.3332 71.785C85.0263 71.9281 84.6917 72.0021 84.3531 72.002ZM69.0305 131.722C68.8133 131.722 68.6006 131.661 68.4167 131.546C68.2327 131.43 68.085 131.265 67.9904 131.07C67.8958 130.874 67.8582 130.656 67.8818 130.44C67.9054 130.224 67.9893 130.02 68.124 129.849C78.64 116.575 84.3761 100.144 84.4063 83.2084C84.4063 81.7168 84.36 80.2229 84.2722 78.7291C84.2631 78.5775 84.284 78.4256 84.3338 78.2821C84.3836 78.1386 84.4611 78.0064 84.5621 77.8929C84.6631 77.7795 84.7855 77.6871 84.9222 77.6211C85.059 77.555 85.2074 77.5166 85.359 77.5081C85.995 77.4387 86.543 77.9567 86.58 78.5949C86.6725 80.1328 86.7188 81.6729 86.7188 83.2084C86.6877 100.664 80.7757 117.6 69.937 131.283C69.8293 131.42 69.6916 131.531 69.5345 131.607C69.3774 131.684 69.205 131.723 69.0305 131.722ZM29.9377 117.891C29.6984 117.893 29.4646 117.82 29.2686 117.683C29.0726 117.546 28.9241 117.351 28.8436 117.126C28.763 116.9 28.7545 116.656 28.8192 116.425C28.8839 116.195 29.0186 115.99 29.2046 115.84C29.6602 115.468 30.1296 115.105 30.6268 114.762C33.6693 112.693 36.4003 110.198 38.7367 107.356C38.9314 107.118 39.2124 106.968 39.5177 106.939C39.823 106.909 40.1277 107.001 40.3647 107.196C40.6018 107.391 40.7518 107.672 40.7817 107.977C40.8116 108.282 40.719 108.587 40.5243 108.824C38.0492 111.838 35.1554 114.481 31.931 116.675C31.494 116.976 31.0754 117.299 30.673 117.63C30.4651 117.799 30.2055 117.891 29.9377 117.891ZM44.6313 102.596C44.2394 102.596 43.854 102.496 43.5113 102.306C43.1686 102.117 42.8797 101.843 42.6719 101.51C42.4641 101.178 42.3441 100.799 42.3231 100.407C42.3022 100.016 42.3811 99.6258 42.5523 99.2733C44.9772 94.2645 46.2411 88.7733 46.25 83.2084C46.25 81.0138 46.0535 78.81 45.665 76.6548C45.101 73.5647 45.2473 70.3869 46.0926 67.3617C46.938 64.3365 48.4603 61.5432 50.5443 59.1931C50.7426 58.9569 50.9861 58.7628 51.2605 58.6221C51.5349 58.4814 51.8347 58.397 52.1422 58.3739C52.4497 58.3508 52.7587 58.3894 53.051 58.4875C53.3434 58.5856 53.6132 58.7411 53.8445 58.945C54.0759 59.1489 54.2641 59.397 54.3981 59.6747C54.5322 59.9524 54.6093 60.2541 54.625 60.5621C54.6407 60.8701 54.5947 61.1781 54.4896 61.468C54.3845 61.7579 54.2225 62.0238 54.0131 62.2502C52.3915 64.0786 51.2069 66.2519 50.5491 68.6056C49.8912 70.9594 49.7773 73.4319 50.216 75.8361C50.653 78.2596 50.875 80.7409 50.875 83.2084C50.875 89.429 49.4344 95.6843 46.7125 101.292C46.5231 101.683 46.2275 102.013 45.8594 102.243C45.4913 102.474 45.0657 102.596 44.6313 102.596Z" fill="#90CAF9"/>
<path d="M75.2025 96.5145C75.0325 96.515 74.8646 96.478 74.7106 96.4061C74.5566 96.3343 74.4203 96.2294 74.3114 96.0989C74.2026 95.9684 74.1238 95.8156 74.0808 95.6512C74.0378 95.4868 74.0315 95.3149 74.0624 95.1478C75.5012 87.3441 75.5185 79.3447 74.1133 71.5349C73.7298 69.4242 72.5254 67.5515 70.7639 66.327C69.0024 65.1025 66.8274 64.6261 64.7153 65.0021C63.6683 65.1874 62.6686 65.5786 61.7738 66.153C60.8791 66.7273 60.1072 67.4735 59.5029 68.3483C58.8935 69.2195 58.4633 70.2031 58.237 71.242C58.0107 72.2809 57.993 73.3543 58.1848 74.4001C58.9639 78.7398 59.1637 83.1636 58.7791 87.5559C58.7486 87.8599 58.6004 88.1399 58.3662 88.336C58.132 88.5322 57.8303 88.629 57.5257 88.6058C57.3743 88.5927 57.2269 88.5499 57.0921 88.4798C56.9572 88.4097 56.8375 88.3136 56.7397 88.1972C56.642 88.0808 56.5682 87.9463 56.5225 87.8013C56.4768 87.6563 56.4602 87.5038 56.4735 87.3524C56.8391 83.1647 56.6486 78.9471 55.907 74.8094C55.4144 72.0737 56.0156 69.3126 57.602 67.0278C59.1884 64.7431 61.568 63.2168 64.3036 62.7243C67.0195 62.2398 69.8166 62.8518 72.082 64.4262C74.3473 66.0006 75.8961 68.4089 76.3888 71.1233C77.8431 79.2085 77.825 87.4899 76.3356 95.5687C76.287 95.8339 76.147 96.0737 75.94 96.2465C75.733 96.4192 75.4721 96.5141 75.2025 96.5145ZM57.3708 132.085C56.9169 132.085 56.4733 131.951 56.0951 131.7C55.7168 131.449 55.4208 131.093 55.2438 130.675C55.0668 130.257 55.0166 129.796 55.0996 129.35C55.1826 128.904 55.395 128.492 55.7104 128.166C62.3542 121.305 67.4718 112.996 70.5104 104.139C70.7278 103.583 71.1516 103.132 71.6933 102.881C72.235 102.63 72.8527 102.598 73.4174 102.792C73.9821 102.986 74.4501 103.39 74.7237 103.921C74.9973 104.451 75.0553 105.067 74.8856 105.64C71.6273 115.135 66.1467 124.038 59.0335 131.382C58.8178 131.605 58.5594 131.782 58.2737 131.903C57.988 132.024 57.6809 132.086 57.3708 132.085ZM37.7284 124.75C37.2395 124.752 36.7626 124.599 36.3663 124.312C35.97 124.026 35.6748 123.621 35.5232 123.157C35.3715 122.692 35.3712 122.191 35.5223 121.726C35.6734 121.261 35.9681 120.856 36.364 120.569C44.7376 114.469 50.9004 105.707 53.717 95.8924C53.8005 95.6005 53.9407 95.3278 54.1296 95.09C54.3185 94.8522 54.5524 94.6539 54.8179 94.5065C55.0835 94.3591 55.3754 94.2654 55.6771 94.2308C55.9789 94.1962 56.2844 94.2214 56.5764 94.3049C56.8684 94.3884 57.1411 94.5286 57.3789 94.7175C57.6167 94.9064 57.815 95.1403 57.9624 95.4058C58.1098 95.6714 58.2035 95.9633 58.2381 96.265C58.2727 96.5668 58.2475 96.8723 58.164 97.1643C55.0652 107.966 48.2896 117.605 39.0881 124.306C38.6937 124.595 38.2174 124.751 37.7284 124.75Z" fill="#90CAF9"/>
<path d="M46.9738 129.25C46.5022 129.25 46.0418 129.106 45.6543 128.838C45.2669 128.569 44.9709 128.188 44.8061 127.746C44.6413 127.304 44.6155 126.822 44.7322 126.365C44.8489 125.909 45.1026 125.498 45.4591 125.189C57.72 114.587 64.75 99.2849 64.75 83.2084C64.75 79.92 64.454 76.6108 63.8712 73.3779C63.7634 72.7742 63.8993 72.1524 64.2491 71.6487C64.5989 71.1451 65.1341 70.8006 65.7374 70.6908C66.0364 70.6361 66.3433 70.6411 66.6405 70.7054C66.9376 70.7697 67.2191 70.8921 67.4688 71.0655C67.7184 71.2389 67.9314 71.4599 68.0954 71.7159C68.2595 71.9718 68.3713 72.2577 68.4245 72.557C69.0562 76.0723 69.3743 79.6368 69.375 83.2084C69.375 100.626 61.7622 117.202 48.4861 128.684C48.0676 129.05 47.53 129.251 46.9738 129.25Z" fill="#90CAF9"/>
<path d="M116.203 101.593C115.899 101.593 115.599 101.533 115.318 101.417C115.037 101.301 114.783 101.13 114.568 100.915L108.787 95.134C108.572 94.9193 108.402 94.6644 108.286 94.3839C108.17 94.1033 108.11 93.8027 108.11 93.499C108.11 93.1954 108.17 92.8947 108.286 92.6142C108.402 92.3337 108.572 92.0788 108.787 91.8641C109.002 91.6494 109.257 91.4791 109.537 91.3629C109.818 91.2467 110.118 91.1869 110.422 91.1869C110.726 91.1869 111.026 91.2467 111.307 91.3629C111.587 91.4791 111.842 91.6494 112.057 91.8641L116.203 96.0104L126.131 86.0828C126.345 85.8681 126.6 85.6978 126.881 85.5816C127.161 85.4654 127.462 85.4056 127.766 85.4056C128.069 85.4056 128.37 85.4654 128.65 85.5816C128.931 85.6978 129.186 85.8681 129.401 86.0828C129.615 86.2976 129.786 86.5524 129.902 86.833C130.018 87.1135 130.078 87.4142 130.078 87.7178C130.078 88.0214 130.018 88.3221 129.902 88.6026C129.786 88.8831 129.615 89.138 129.401 89.3527L117.838 100.915C117.624 101.13 117.369 101.301 117.088 101.417C116.808 101.533 116.507 101.593 116.203 101.593Z" fill="#2C4355"/>
<path d="M119.094 111.999C108.893 111.999 100.594 103.699 100.594 93.499C100.594 83.2986 108.893 74.999 119.094 74.999C129.294 74.999 137.594 83.2986 137.594 93.499C137.594 103.699 129.294 111.999 119.094 111.999ZM119.094 77.3115C110.17 77.3115 102.906 84.5751 102.906 93.499C102.906 102.423 110.17 109.687 119.094 109.687C128.018 109.687 135.281 102.423 135.281 93.499C135.281 84.5751 128.018 77.3115 119.094 77.3115Z" fill="#2C4355"/>
</svg>
