<svg width="135" height="123" viewBox="0 0 135 123" fill="none" xmlns="http://www.w3.org/2000/svg">
<path d="M50 61.3705V84H43.5909V61.3705C43.5909 52.7549 37.0455 45.748 29 45.748C20.9545 45.748 14.4091 52.7549 14.4091 61.3705V84H8V61.3705C8 49.0333 17.4227 39 29 39C40.5773 39 50 49.0333 50 61.3705Z" fill="#C7C7C7"/>
<path d="M8 67L14 67.2626V84H8V67Z" fill="#A6A6A6"/>
<path d="M50 69.2669V84H43V69L50 69.2669Z" fill="#A6A6A6"/>
<path d="M58 71H0V123H58V71Z" fill="#EFB814"/>
<path opacity="0.1" d="M58 71H29V123H58V71Z" fill="black"/>
<path d="M31.405 99.5169L34 111H23.0144L25.6094 99.5169C24.5919 98.9295 23.8069 98.0475 23.3735 97.0046C22.9402 95.9617 22.8822 94.815 23.2084 93.7385C23.5345 92.662 24.227 91.7145 25.1807 91.0398C26.1344 90.3651 27.2973 90 28.4928 90C29.6883 90 30.8511 90.3651 31.8048 91.0398C32.7586 91.7145 33.451 92.662 33.7772 93.7385C34.1034 94.815 34.0454 95.9617 33.612 97.0046C33.1787 98.0475 32.3937 98.9295 31.3761 99.5169H31.405Z" fill="white"/>
<path d="M87.6631 60.6663C87.7675 61.8824 87.5089 63.1021 86.92 64.1711C86.3311 65.2402 85.4384 66.1106 84.3547 66.6722C83.271 67.2338 82.0452 67.4614 80.8321 67.3262C79.6191 67.1909 78.4735 66.699 77.5401 65.9125C76.6067 65.1261 75.9275 64.0805 75.5885 62.908C75.2495 61.7355 75.2658 60.4888 75.6355 59.3255C76.0051 58.1623 76.7114 57.1349 77.6651 56.3732C78.6188 55.6115 79.7769 55.1497 80.9931 55.0463C81.8003 54.9764 82.6133 55.0664 83.3856 55.3111C84.158 55.5558 84.8744 55.9505 85.494 56.4726C86.1136 56.9946 86.6241 57.6337 86.9963 58.3534C87.3685 59.073 87.5951 59.859 87.6631 60.6663Z" fill="white"/>
<path d="M87.663 60.6663C87.8028 62.3178 87.2993 63.9596 86.2578 65.2489C85.2163 66.5383 83.7171 67.3756 82.073 67.5863C81.2252 67.6747 80.3682 67.5933 79.5521 67.347C78.7361 67.1007 77.9772 66.6943 77.3199 66.1516C76.6625 65.6089 76.1198 64.9407 75.7235 64.186C75.3271 63.4313 75.0851 62.6052 75.0113 61.756C74.9376 60.9067 75.0338 60.0513 75.2942 59.2396C75.5546 58.4279 75.9741 57.6762 76.5281 57.0284C77.0821 56.3805 77.7596 55.8495 78.5211 55.4663C79.2825 55.083 80.1126 54.8553 80.963 54.7963C82.6216 54.7204 84.2453 55.289 85.4941 56.3832C86.743 57.4773 87.5202 59.0121 87.663 60.6663ZM87.663 60.6663C87.5967 59.8701 87.3696 59.0957 86.9955 58.3897C86.6214 57.6838 86.108 57.0611 85.4864 56.5591C84.8649 56.0572 84.148 55.6865 83.3791 55.4694C82.6102 55.2524 81.8053 55.1935 81.013 55.2963C79.5053 55.5103 78.1354 56.2895 77.1809 57.4761C76.2265 58.6627 75.7589 60.1678 75.873 61.6863C76.0056 63.2078 76.72 64.6194 77.8675 65.6273C79.015 66.6351 80.5072 67.1613 82.033 67.0963C82.8311 67.0616 83.6138 66.8655 84.3339 66.5198C85.0541 66.1741 85.6967 65.6861 86.2229 65.0851C86.7491 64.4841 87.148 63.7827 87.3955 63.0232C87.6431 62.2637 87.7341 61.4619 87.663 60.6663Z" fill="#263238"/>
<path d="M74.3631 72.0363C74.4198 72.7117 74.2751 73.3887 73.9473 73.9819C73.6195 74.5751 73.1233 75.0579 72.5214 75.3693C71.9195 75.6808 71.2388 75.8069 70.5652 75.7319C69.8917 75.6568 69.2554 75.3839 68.7368 74.9475C68.2183 74.5112 67.8405 73.931 67.6514 73.2802C67.4623 72.6294 67.4702 71.9371 67.6741 71.2908C67.8781 70.6445 68.2689 70.0731 68.7973 69.6487C69.3257 69.2243 69.968 68.966 70.6431 68.9063C71.5514 68.8287 72.4533 69.1147 73.1508 69.7016C73.8483 70.2885 74.2843 71.1282 74.3631 72.0363Z" fill="white"/>
<path d="M74.3631 72.0363C74.4483 72.973 74.1746 73.9072 73.5972 74.6498C73.0199 75.3924 72.182 75.888 71.2531 76.0363C70.5229 76.149 69.7757 76.0399 69.1082 75.7232C68.4407 75.4065 67.8836 74.8967 67.5091 74.2598C67.1347 73.623 66.96 72.8883 67.0077 72.1511C67.0554 71.4138 67.3234 70.7078 67.7769 70.1245C68.2304 69.5413 68.8485 69.1076 69.5513 68.8796C70.2541 68.6516 71.0091 68.6398 71.7186 68.8457C72.4282 69.0517 73.0595 69.4659 73.531 70.0347C74.0025 70.6036 74.2923 71.3008 74.3631 72.0363ZM74.3631 72.0363C74.3205 71.5902 74.1867 71.1576 73.9699 70.7654C73.7532 70.3732 73.4581 70.0297 73.1031 69.7563C72.6103 69.3872 72.0213 69.1685 71.4071 69.1268C70.7928 69.085 70.1796 69.2219 69.6414 69.5208C69.1032 69.8198 68.6631 70.2682 68.374 70.8117C68.085 71.3553 67.9594 71.9709 68.0125 72.5843C68.0655 73.1977 68.2949 73.7826 68.673 74.2685C69.0511 74.7544 69.5617 75.1204 70.1433 75.3226C70.7248 75.5247 71.3524 75.5542 71.9503 75.4076C72.5483 75.261 73.091 74.9445 73.5131 74.4963C73.8156 74.1662 74.0471 73.7776 74.1934 73.3545C74.3396 72.9313 74.3973 72.4827 74.3631 72.0363Z" fill="#263238"/>
<path d="M133.803 31.9763C134.188 35.1106 133.741 38.2909 132.508 41.1981C131.275 44.1052 129.299 46.6367 126.778 48.5385C124.257 50.4404 121.28 51.6455 118.146 52.0331C115.012 52.4206 111.831 51.9768 108.923 50.7463C107.509 52.5867 105.689 54.0766 103.606 55.1003C101.523 56.124 99.2319 56.654 96.9107 56.6491C94.5896 56.6443 92.3008 56.1048 90.2218 55.0724C88.1429 54.0401 86.3298 52.5426 84.9231 50.6963C84.2704 50.8963 83.601 51.0369 82.9231 51.1163C80.5688 51.4102 78.1799 51.0147 76.0459 49.9778C73.912 48.9409 72.1248 47.3071 70.901 45.2745C69.6772 43.242 69.0695 40.898 69.1515 38.5269C69.2336 36.1558 70.0018 33.8594 71.3631 31.9163C68.6756 28.5433 67.2885 24.3174 67.4542 20.0078C67.62 15.6983 69.3275 11.5914 72.2661 8.4348C75.2048 5.27815 79.1791 3.28152 83.4658 2.80828C87.7525 2.33504 92.0667 3.41666 95.6231 5.85628C97.2902 3.77285 99.4794 2.16806 101.968 1.20511C104.457 0.242156 107.156 -0.0446161 109.791 0.373948C112.426 0.792512 114.904 1.90148 116.972 3.5881C119.039 5.27471 120.623 7.47882 121.563 9.97628C122.193 9.76276 122.843 9.6153 123.503 9.53628C125.507 9.28989 127.538 9.6634 129.324 10.6065C131.109 11.5496 132.562 13.0171 133.488 14.8113C134.414 16.6055 134.768 18.6404 134.503 20.6419C134.237 22.6435 133.365 24.5156 132.003 26.0063C132.954 27.8732 133.563 29.895 133.803 31.9763Z" fill="white"/>
<path d="M133.803 31.9762C134.176 35.1094 133.732 38.2858 132.513 41.1962C131.893 42.6449 131.097 44.0118 130.143 45.2663C129.17 46.4998 128.044 47.6053 126.793 48.5562C124.267 50.4741 121.283 51.6981 118.138 52.1068C114.993 52.5155 111.795 52.0947 108.863 50.8862H109.033C107.603 52.7651 105.759 54.2892 103.644 55.3407C101.53 56.3921 99.2017 56.9425 96.8403 56.9493C94.4789 56.956 92.1477 56.419 90.0273 55.3797C87.9069 54.3404 86.0543 52.8268 84.613 50.9563L84.973 51.0763C83.7285 51.4522 82.4328 51.631 81.133 51.6063C79.8299 51.6044 78.536 51.3882 77.303 50.9663C74.8082 50.131 72.6346 48.541 71.083 46.4162C70.3286 45.3475 69.7325 44.1754 69.313 42.9363C68.9111 41.6915 68.6954 40.3941 68.673 39.0862C68.6485 36.4446 69.4491 33.8612 70.963 31.6962V32.2163C68.2328 28.757 66.8325 24.434 67.016 20.031C67.1994 15.6279 68.9545 11.4364 71.963 8.21625C74.9788 5.01193 79.0315 2.97851 83.403 2.47626C87.7647 2.00869 92.1496 3.11909 95.763 5.60625L95.323 5.67625C97.0361 3.56443 99.2797 1.94593 101.824 0.986517C104.368 0.0271053 107.122 -0.238727 109.803 0.216253C112.462 0.658376 114.957 1.79463 117.036 3.51014C119.115 5.22566 120.704 7.45963 121.643 9.98625L121.513 9.92625C123.611 9.24722 125.873 9.27532 127.953 10.0063C129.499 10.5545 130.885 11.4771 131.987 12.6917C133.09 13.9063 133.874 15.375 134.27 16.9667C134.666 18.5584 134.662 20.2234 134.258 21.813C133.853 23.4026 133.062 24.8673 131.953 26.0763C132.913 27.9182 133.54 29.9157 133.803 31.9762ZM133.803 31.9762C133.556 29.883 132.937 27.8509 131.973 25.9762C133.067 24.772 133.844 23.3152 134.236 21.7364C134.628 20.1577 134.622 18.5064 134.218 16.9306C133.815 15.3547 133.027 13.9036 131.925 12.7074C130.823 11.5111 129.441 10.607 127.903 10.0763C125.855 9.37148 123.631 9.37148 121.583 10.0763H121.483V9.97626C120.529 7.51459 118.942 5.34831 116.883 3.69626C114.836 2.03592 112.38 0.955046 109.773 0.566252C107.182 0.166115 104.532 0.461768 102.093 1.42293C99.6539 2.38408 97.5143 3.97621 95.893 6.03625L95.713 6.27625L95.453 6.09625C91.9583 3.76944 87.75 2.76143 83.5804 3.2524C79.4107 3.74338 75.5517 5.70134 72.693 8.77625C69.8664 11.8567 68.2222 15.8387 68.0519 20.0161C67.8817 24.1934 69.1965 28.296 71.763 31.5963L71.973 31.8662L71.773 32.1563C70.3588 34.1554 69.6069 36.5475 69.623 38.9963C69.6318 40.2147 69.8239 41.425 70.193 42.5862C70.5756 43.743 71.1247 44.8379 71.823 45.8362C73.2634 47.8262 75.2762 49.3297 77.593 50.1462C78.7497 50.5574 79.9657 50.7769 81.193 50.7963C82.4193 50.8417 83.645 50.6898 84.823 50.3463L85.043 50.2762L85.193 50.4663C86.5651 52.2797 88.3289 53.7599 90.353 54.7963C93.439 56.356 96.9713 56.7938 100.345 56.0349C103.718 55.2759 106.722 53.3673 108.843 50.6362L108.913 50.5463H109.013C111.896 51.793 115.059 52.2518 118.177 51.8758C121.296 51.4998 124.259 50.3025 126.763 48.4063C128.014 47.4634 129.143 46.3682 130.123 45.1462C131.077 43.9151 131.876 42.5718 132.503 41.1462C133.719 38.2526 134.167 35.0939 133.803 31.9762Z" fill="#263238"/>
<path d="M110.503 31.4863L109.933 34.2163C109.89 34.4926 109.79 34.757 109.639 34.9922C109.488 35.2275 109.289 35.4284 109.055 35.582C108.821 35.7356 108.558 35.8385 108.282 35.884C108.006 35.9295 107.724 35.9167 107.453 35.8463C107.182 35.7903 106.925 35.6815 106.697 35.5259C106.468 35.3704 106.272 35.1712 106.121 34.9398C105.969 34.7085 105.865 34.4495 105.814 34.1777C105.763 33.906 105.766 33.6268 105.823 33.3563L106.733 28.9863C106.733 28.9863 106.733 28.9863 106.793 28.9163C106.853 28.8463 106.793 28.9163 106.793 28.8163C106.922 28.279 107.252 27.8116 107.715 27.5103C108.179 27.2089 108.74 27.0965 109.283 27.1963C110.532 27.4615 111.836 27.2196 112.907 26.5238C113.977 25.8281 114.728 24.7354 114.993 23.4863C115.258 22.2371 115.016 20.9337 114.321 19.8629C113.625 18.7921 112.532 18.0415 111.283 17.7763C110.466 17.607 109.619 17.6545 108.826 17.9142C108.033 18.1738 107.322 18.6365 106.763 19.2563C106.584 19.48 106.361 19.6649 106.108 19.7996C105.854 19.9343 105.577 20.0159 105.291 20.0396C105.005 20.0633 104.717 20.0284 104.445 19.9372C104.174 19.846 103.923 19.7003 103.71 19.5091C103.496 19.3179 103.323 19.0851 103.203 18.825C103.082 18.5649 103.016 18.2829 103.007 17.9963C102.999 17.7096 103.05 17.4243 103.156 17.1578C103.261 16.8913 103.421 16.6492 103.623 16.4463C104.617 15.3356 105.872 14.4894 107.274 13.9836C108.677 13.4777 110.183 13.3281 111.657 13.5482C113.131 13.7683 114.528 14.3511 115.721 15.2444C116.915 16.1377 117.868 17.3134 118.494 18.666C119.121 20.0186 119.402 21.5056 119.312 22.9936C119.222 24.4816 118.763 25.9239 117.978 27.191C117.193 28.458 116.105 29.5102 114.813 30.2529C113.52 30.9957 112.063 31.4057 110.573 31.4463L110.503 31.4863ZM108.593 40.6863L108.433 41.4463C108.382 41.7196 108.277 41.9799 108.122 42.2113C107.968 42.4428 107.769 42.6406 107.536 42.7929C107.304 42.9452 107.042 43.0489 106.769 43.0975C106.495 43.1462 106.214 43.139 105.943 43.0763C105.399 42.9585 104.923 42.6313 104.618 42.1654C104.313 41.6994 104.203 41.1322 104.313 40.5863L104.473 39.8263C104.598 39.287 104.927 38.8174 105.392 38.5168C105.857 38.2163 106.42 38.1085 106.963 38.2163C107.506 38.3294 107.982 38.6526 108.287 39.1154C108.593 39.5781 108.702 40.1428 108.593 40.6863Z" fill="#EB2938"/>
<path d="M88.653 25.9363L88.363 23.2163C88.3132 22.9397 88.3222 22.6557 88.3894 22.3829C88.4567 22.11 88.5807 21.8544 88.7533 21.6327C88.926 21.4109 89.1434 21.2281 89.3915 21.096C89.6396 20.964 89.9127 20.8857 90.193 20.8663C90.7456 20.8012 91.3014 20.957 91.7396 21.2997C92.1779 21.6424 92.463 22.1444 92.533 22.6963L93.083 27.1263C93.083 27.1263 93.083 27.1263 93.083 27.2163C93.083 27.3063 93.083 27.2163 93.133 27.2963C93.1877 27.8468 93.028 28.3973 92.6872 28.8331C92.3463 29.269 91.8506 29.5566 91.303 29.6363C90.6579 29.6907 90.0304 29.8747 89.4581 30.1774C88.8858 30.4802 88.3805 30.8953 87.9725 31.398C87.5645 31.9007 87.2621 32.4806 87.0836 33.1029C86.9051 33.7252 86.854 34.3772 86.9335 35.0197C87.013 35.6623 87.2213 36.2821 87.5461 36.8422C87.8709 37.4023 88.3054 37.891 88.8236 38.2791C89.3418 38.6673 89.933 38.9468 90.5618 39.1009C91.1906 39.2551 91.8441 39.2807 92.483 39.1763C93.3107 39.0804 94.0983 38.7672 94.7658 38.2684C95.4332 37.7695 95.9567 37.1029 96.283 36.3363C96.3911 36.0769 96.5496 35.8416 96.7493 35.6441C96.9491 35.4465 97.1861 35.2907 97.4466 35.1855C97.7072 35.0804 97.986 35.0281 98.2669 35.0316C98.5478 35.0352 98.8253 35.0946 99.083 35.2063C99.3357 35.316 99.5641 35.4745 99.7553 35.6728C99.9464 35.8711 100.097 36.1052 100.197 36.3617C100.297 36.6182 100.346 36.892 100.34 37.1674C100.334 37.4427 100.274 37.7142 100.163 37.9663C99.5723 39.3302 98.6529 40.5265 97.487 41.4484C96.3211 42.3704 94.9451 42.9892 93.4817 43.2497C92.0184 43.5101 90.5133 43.4042 89.1009 42.9411C87.6885 42.4781 86.4128 41.6725 85.3877 40.5963C84.3626 39.52 83.6199 38.2066 83.2262 36.7734C82.8324 35.3402 82.7997 33.8317 83.131 32.3828C83.4623 30.9338 84.1473 29.5895 85.1249 28.4698C86.1024 27.3502 87.342 26.49 88.733 25.9663L88.653 25.9363ZM87.503 16.6163L87.403 15.8463C87.3547 15.5704 87.3649 15.2875 87.4329 15.0159C87.5009 14.7442 87.6251 14.4899 87.7976 14.2693C87.9702 14.0487 88.187 13.8668 88.4343 13.7354C88.6816 13.6039 88.9537 13.5259 89.233 13.5063C89.5071 13.4713 89.7853 13.4911 90.0516 13.5644C90.318 13.6376 90.5672 13.763 90.7848 13.9332C91.0024 14.1033 91.1841 14.315 91.3194 14.5558C91.4547 14.7966 91.5409 15.0619 91.573 15.3363L91.673 16.0963C91.733 16.6489 91.5755 17.2033 91.234 17.6419C90.8924 18.0805 90.3936 18.369 89.843 18.4463C89.5688 18.4826 89.2901 18.4638 89.0232 18.3911C88.7563 18.3184 88.5066 18.1931 88.2887 18.0227C88.0708 17.8523 87.8891 17.6401 87.7542 17.3986C87.6193 17.1571 87.5339 16.8912 87.503 16.6163Z" fill="#DFBA41"/>
</svg>
