<svg width="65" height="65" viewBox="0 0 65 65" fill="none" xmlns="http://www.w3.org/2000/svg">
<g id="Work From Home" clip-path="url(#clip0_1135_2059)">
<g id="Layer 2">
<g id="Layer 1">
<path id="Vector" d="M32.9582 5.79981C40.2517 7.89162 43.3011 3.40133 49.9931 4.91507C57.282 6.56373 61.3027 13.619 61.6849 14.3121C66.3747 22.8165 66.2049 32.9328 60.4305 38.0231C57.2259 40.8482 53.9854 40.8615 43.9245 45.5054C36.3128 49.0191 32.723 53.3177 31.1521 54.2615C23.1459 59.0717 13.981 56.0685 7.24449 50.1725C5.3696 48.5317 -3.65533 40.5461 1.64917 28.922C3.29181 25.3223 3.44767 26.9651 10.7248 16.9372C18.3894 6.37545 27.6918 4.2892 32.9582 5.79981Z" fill="#DAE0E0"/>
<path id="Vector_2" d="M49.2225 57.6837C50.5656 57.1962 51.8505 56.5441 53.0514 55.7406C53.1342 55.6848 54.3308 54.8623 55.0166 53.5818C55.16 53.3141 55.3063 52.9792 55.2199 52.6104C55.1647 52.4027 55.0563 52.2153 54.9068 52.0692C54.7572 51.9231 54.5724 51.824 54.3729 51.7828C54.0853 51.7322 53.8317 51.846 53.4919 51.9987C53.0813 52.183 52.975 52.3448 52.7126 52.3225C52.5287 52.3068 52.2856 52.2025 52.2042 51.9987C52.0453 51.6005 52.6015 51.0677 52.6448 51.0272C52.999 50.695 53.1838 50.8109 53.7968 50.4875C54.2172 50.2611 54.5959 49.9564 54.915 49.588C55.2594 49.2188 55.4547 49.0034 55.4232 48.7245C55.3954 48.579 55.3299 48.4447 55.2341 48.3367C55.1384 48.2286 55.0161 48.1511 54.8811 48.1128C54.5249 48.0121 54.3638 48.3139 53.9662 48.2207C53.7323 48.1659 53.4611 47.9847 53.4241 47.7529C53.3869 47.5208 53.5988 47.325 53.9324 46.9972C55.1294 45.8209 55.3078 45.4849 55.3893 45.3063C55.5037 45.0556 55.6902 44.6469 55.5588 44.1909C55.5079 44.0084 55.4168 43.8415 55.293 43.7038C55.1693 43.5662 55.0165 43.4617 54.8472 43.3992C54.1286 43.1805 53.1555 44.0218 52.7803 44.8746C52.4668 45.587 52.2721 46.1339 52.2721 46.1339C52.1875 46.3917 52.0484 46.6256 51.8655 46.8175C51.7716 46.9133 51.5583 47.1309 51.391 47.0694C51.2833 47.0296 51.2657 46.9003 51.1538 46.6016C50.9868 46.1555 50.9032 45.9325 50.7472 45.846C50.5108 45.7149 50.1435 45.8858 49.934 46.0979C49.6042 46.4317 49.5995 46.9343 49.5952 47.3932C49.5912 47.8125 49.6582 47.8141 49.7307 48.5804C49.7722 49.0107 49.7835 49.4437 49.7646 49.8757C49.7264 50.7191 49.5975 50.8386 49.5274 50.8833C49.3564 50.9922 49.1384 50.9088 48.8836 50.8113C48.53 50.6674 48.2157 50.4324 47.9688 50.1276C47.6199 49.7168 47.6749 49.56 47.4605 49.408C47.2746 49.2887 47.0533 49.2479 46.8405 49.2937C46.5813 49.335 46.3345 49.4388 46.119 49.5971C45.9034 49.7554 45.7249 49.964 45.597 50.2069C45.5472 50.2979 45.502 50.3916 45.4613 50.4875C44.9411 51.7162 45.3452 52.9515 45.5631 53.6178C46.3693 56.0833 48.5851 57.3473 49.2225 57.6835V57.6837Z" fill="#3CA05D"/>
<path id="Vector_3" d="M49.2227 57.6837C49.2227 57.6837 49.7622 50.7447 55.0202 43.4754L55.0199 43.4751C55.2784 43.6327 55.4711 43.8883 55.5594 44.1906C55.6902 44.6464 55.5037 45.0552 55.3898 45.3061C55.3081 45.4849 55.1292 45.8208 53.9329 46.9971C53.5987 47.325 53.387 47.5208 53.4246 47.7528C53.4613 47.9846 53.7324 48.1655 53.9667 48.2204C54.3639 48.3143 54.5249 48.0126 54.8816 48.1125C55.0166 48.151 55.1387 48.2286 55.2345 48.3366C55.3302 48.4446 55.3958 48.5788 55.4237 48.7242C55.4548 49.0031 55.26 49.219 54.9155 49.5877C54.5963 49.9559 54.2176 50.2605 53.7973 50.4871C53.1836 50.811 52.9992 50.6952 52.6453 51.0269C52.602 51.0679 52.0457 51.6007 52.2048 51.9984C52.2857 52.2024 52.5286 52.3073 52.7131 52.3222C52.9747 52.3452 53.0811 52.1833 53.4924 51.9984C53.8322 51.8465 54.0853 51.7326 54.3733 51.7826C54.5728 51.8238 54.7576 51.9229 54.9071 52.069C55.0567 52.2151 55.1652 52.4024 55.2204 52.6101C55.3062 52.9789 55.1601 53.3137 55.0171 53.5816C54.331 54.8618 53.1347 55.6844 53.0519 55.7405C51.8512 56.5442 50.5662 57.1962 49.2231 57.6834" fill="#4FBA75"/>
<path id="Vector_4" d="M49.6652 55.1324C49.3705 55.0007 49.0878 54.8404 48.8207 54.6537C48.5514 54.4679 48.2995 54.2552 48.0684 54.0184C47.8362 53.7792 47.6425 53.5014 47.4948 53.1958C47.4231 53.0418 47.3704 52.8785 47.338 52.7101C47.3085 52.5424 47.3028 52.3709 47.3208 52.2014C47.322 52.5375 47.4041 52.8677 47.5592 53.1607C47.7125 53.4523 47.9064 53.7175 48.1344 53.9474C48.3594 54.183 48.6025 54.3982 48.8614 54.5906C49.1198 54.7867 49.3881 54.9675 49.6652 55.1324ZM51.45 49.7504C51.2893 49.577 51.1431 49.3892 51.0129 49.1891C50.8796 48.9902 50.7622 48.7798 50.662 48.5601C50.5604 48.3398 50.483 48.1078 50.4312 47.8688C50.3798 47.6297 50.3714 47.3825 50.4066 47.1401C50.4076 47.3802 50.4395 47.6191 50.5014 47.85C50.566 48.0789 50.648 48.3019 50.7467 48.5167C50.8452 48.7326 50.9542 48.9431 51.073 49.1471C51.1916 49.3521 51.3173 49.5532 51.45 49.7505V49.7504Z" fill="#4FBA75"/>
<path id="Vector_5" d="M49.6602 55.0942C49.974 55.1462 50.2902 55.1799 50.6075 55.1952C50.9229 55.2135 51.2393 55.2038 51.5531 55.166C51.8662 55.1347 52.173 55.0533 52.4631 54.9244C52.7555 54.7957 53.0121 54.5897 53.2085 54.3261C53.1242 54.4713 53.0199 54.6024 52.8992 54.7151C52.7758 54.8263 52.6394 54.9201 52.4934 54.9943C52.1996 55.1377 51.8856 55.2292 51.564 55.2651C51.2445 55.2998 50.9226 55.302 50.6027 55.2715C50.2841 55.2432 49.9685 55.1839 49.6602 55.0942ZM51.386 49.6907C51.6052 49.6224 51.8209 49.5466 52.0333 49.4633C52.2455 49.3807 52.4535 49.2867 52.6566 49.1815C52.8592 49.0773 53.0533 48.9557 53.2372 48.8179C53.4203 48.6769 53.5843 48.5099 53.7247 48.3217C53.6114 48.5354 53.4611 48.7243 53.2816 48.8787C53.1018 49.0327 52.906 49.1643 52.698 49.271C52.4915 49.3782 52.2768 49.4668 52.0562 49.5358C51.8375 49.6079 51.6132 49.6597 51.386 49.6907Z" fill="#C0E2CC"/>
<path id="Vector_6" d="M49.2754 57.2166C49.3419 56.6296 49.4483 56.0483 49.5649 55.47C49.6904 54.8937 49.8275 54.3199 49.988 53.7532C50.0677 53.4697 50.1441 53.185 50.2374 52.9062C50.3293 52.6268 50.4098 52.3431 50.5112 52.0674L50.8053 51.2363L51.1262 50.4166C51.5679 49.3297 52.0687 48.2708 52.6258 47.2454C52.8945 46.7268 53.2025 46.2332 53.4996 45.7331C53.6453 45.4809 53.8139 45.2448 53.9732 45.0025L54.4563 44.2795C53.8321 45.2581 53.2227 46.2473 52.6889 47.2834C52.1428 48.3117 51.6499 49.3708 51.2125 50.4561C50.7693 51.5388 50.3835 52.6469 50.057 53.7754C49.8885 54.338 49.7442 54.9082 49.6094 55.481C49.4783 56.0547 49.357 56.6319 49.2754 57.2166Z" fill="#C0E2CC"/>
<path id="Vector_7" d="M46.6829 64.8485H52.9342L54.6093 57.7186H45.0078L46.6829 64.8485Z" fill="#601F24"/>
<path id="Vector_8" d="M44.8151 57.7625H54.8004C55.1145 57.7625 55.3691 57.4921 55.3691 57.1586C55.3691 56.825 55.1145 56.5547 54.8004 56.5547H44.8151C44.501 56.5547 44.2463 56.825 44.2463 57.1586C44.2463 57.4921 44.501 57.7625 44.8151 57.7625Z" fill="#7A3C43"/>
<path id="Vector_9" d="M28.7323 50.4945L32.8255 60.3129L30.4764 61.4089L26.3477 54.001L28.7323 50.4945Z" fill="#104F54"/>
<path id="Vector_10" d="M28.7323 50.4945L26.3477 54.001L27.233 55.5895C28.3282 53.5237 28.5763 51.4757 28.8228 50.7114L28.7323 50.4945Z" fill="#0A3E3F"/>
<path id="Vector_11" d="M23.6348 41.8778C23.6348 41.8778 26.941 45.7869 27.4867 45.5978C27.4867 45.5978 27.6569 46.253 32.0545 42.8094C32.0545 42.8094 32.5528 43.5758 33.2172 43.1096L34.4748 42.316C34.4748 42.316 35.163 43.3869 35.4357 43.1538C35.4357 43.1538 35.5188 42.4482 33.9942 40.8293C33.9942 40.8293 33.9648 40.5963 31.8765 41.579C30.5673 42.1797 29.1708 42.5377 27.7477 42.6372C27.7477 42.6372 26.693 41.7679 25.8501 39.9663L23.6348 41.8778Z" fill="#F6B98A"/>
<path id="Vector_12" d="M21.7324 47.8909C21.7324 47.8909 29.7924 46.4379 28.938 50.2173C28.938 50.2173 28.2342 53.8499 23.0019 61.409L20.9375 60.3886C20.9375 60.3886 23.9392 53.8626 24.1291 52.0231L21.8749 52.0735L21.7324 47.8909Z" fill="#104F54"/>
<path id="Vector_13" d="M11.8288 45.9485L9.55584 45.787C9.43699 45.7782 9.32446 45.7269 9.23674 45.6413C9.14902 45.5557 9.09131 45.4409 9.07311 45.3159L8.25065 39.7422C8.22924 39.5988 8.26109 39.4522 8.3395 39.3333C8.4179 39.2144 8.53672 39.1324 8.67093 39.1047L10.9564 38.6403C11.0264 38.6263 11.0983 38.6275 11.1677 38.6439C11.2372 38.6603 11.3028 38.6916 11.3605 38.7358C11.4183 38.78 11.4669 38.8362 11.5035 38.901C11.5401 38.9658 11.5639 39.0379 11.5735 39.1128L12.3833 45.3119C12.3943 45.3941 12.3879 45.4779 12.3646 45.5572C12.3413 45.6365 12.3016 45.7092 12.2485 45.7702C12.1954 45.8311 12.1302 45.8787 12.0576 45.9096C11.985 45.9404 11.9068 45.9537 11.8288 45.9485Z" fill="#4FBA75"/>
<path id="Vector_14" d="M11.1848 64.8296H10.4551L14.4395 54.1145H15.8712L11.1848 64.8296ZM20.6824 64.8405L16.0531 54.1145H17.4848L21.479 64.8405H20.6824ZM31.2236 46.4042H49.9811V47.8907H31.2236V46.4042ZM47.7032 64.8485H46.8897L45.1761 47.8909H47.7032V64.8485Z" fill="#874106"/>
<path id="Vector_15" d="M20.9366 60.3884C20.9366 60.3884 19.2047 63.9941 19.4737 64.3133L22.1366 64.3638L22.4513 63.4037L21.2964 63.051L22.1944 61.0103L20.9366 60.3884ZM30.6867 61.3105C30.6867 61.3105 31.719 63.8934 31.7824 64.2965H34.0686L33.8251 62.9669C33.8251 62.9669 33.0544 63.1988 32.0002 60.6975L30.6867 61.3105Z" fill="#F6B98A"/>
<path id="Vector_16" d="M24.0638 63.5759C23.5964 63.3794 23.0098 62.9259 22.7745 62.736C22.7411 62.7091 22.7025 62.6903 22.6615 62.6808C22.6205 62.6714 22.578 62.6717 22.5371 62.6815L22.4708 62.6973C22.4264 62.7078 22.3849 62.7293 22.3498 62.7601C22.3147 62.7908 22.287 62.83 22.269 62.8744C21.8141 63.9983 21.5729 64.1938 21.5319 64.2206H19.0867C19.0125 64.2206 18.9412 64.2519 18.8887 64.3077C18.8362 64.3635 18.8066 64.4391 18.8066 64.518C18.8066 64.5969 18.8362 64.6726 18.8887 64.7283C18.9412 64.7841 19.0125 64.8155 19.0867 64.8155L24.9299 64.7979C25.4994 64.5964 24.663 63.828 24.0638 63.5759ZM36.2906 63.5759C35.8239 63.3795 35.2383 62.9273 35.0023 62.7369C34.9685 62.7097 34.9296 62.6907 34.8882 62.6812C34.8468 62.6717 34.8039 62.672 34.7626 62.682L34.6991 62.697C34.6542 62.7076 34.6124 62.7293 34.5769 62.7604C34.5414 62.7914 34.5134 62.831 34.4951 62.8758C34.0408 63.9986 33.7997 64.1938 33.7587 64.2206H31.3136C31.2393 64.2206 31.1681 64.2519 31.1155 64.3077C31.063 64.3635 31.0335 64.4391 31.0335 64.518C31.0335 64.5969 31.063 64.6726 31.1155 64.7283C31.1681 64.7841 31.2393 64.8155 31.3136 64.8155H33.817C33.8481 64.8151 33.8789 64.8092 33.9082 64.7979H37.1567C37.7263 64.5964 36.8898 63.828 36.2906 63.5759Z" fill="#D4FCDF"/>
<path id="Vector_17" d="M23.2741 30.3159L21.0254 32.1289L21.6248 35.8089L22.8232 33.9317C22.8634 33.5787 22.9845 33.2415 23.176 32.9497C23.3674 32.6579 23.6234 32.4205 23.9214 32.2582L23.9415 32.2472L23.2741 30.3159Z" fill="#F6B98A"/>
<path id="Vector_18" d="M23.2734 30.3159C23.2734 30.3159 23.9022 29.875 23.8666 29.8624C23.8338 29.8508 22.8347 29.2833 23.8456 28.4751C23.9524 28.3843 24.0799 28.3249 24.2152 28.3029C24.3506 28.2809 24.4889 28.297 24.6166 28.3496C24.871 28.4656 25.0525 28.7348 24.6022 29.3585L26.0733 28.0861L29.6446 29.9127C29.6446 29.9127 28.7609 30.8867 28.438 31.7275C28.4193 31.7776 28.4049 31.8294 28.3951 31.8823L28.2899 32.4248C28.2779 32.4897 28.2514 32.5506 28.2127 32.6024C28.174 32.6543 28.1242 32.6956 28.0675 32.723C28.0107 32.7503 27.9487 32.7629 27.8864 32.7597C27.8242 32.7564 27.7636 32.7375 27.7097 32.7044C27.6674 32.677 27.628 32.6449 27.592 32.6088L27.4649 32.829C27.4395 32.8731 27.3987 32.9048 27.3514 32.9172C27.3041 32.9297 27.2541 32.9219 27.2122 32.8956L26.5882 32.5039L26.2301 33.1345C26.2171 33.1573 26.1994 33.1768 26.1783 33.1913C26.1572 33.2058 26.1333 33.215 26.1084 33.2182C26.0834 33.2215 26.0581 33.2186 26.0343 33.21C26.0106 33.2013 25.989 33.1869 25.9712 33.1681L25.8716 33.0623C25.8716 33.0623 25.0354 33.6242 23.9408 32.2472L23.2734 30.3159Z" fill="#F6B98A"/>
<path id="Vector_19" d="M29.0083 30.6523C28.7888 30.0654 28.149 29.9888 28.1426 29.988L28.1573 29.8373C28.1871 29.8406 28.8899 29.9251 29.141 30.5964L29.0083 30.6523Z" fill="#020202"/>
<path id="Vector_20" d="M28.366 30.9458C28.4676 30.759 28.4855 30.5682 28.4061 30.5195C28.3267 30.4708 28.18 30.5827 28.0784 30.7695C27.9769 30.9563 27.9589 31.1471 28.0383 31.1958C28.1178 31.2445 28.2645 31.1326 28.366 30.9458Z" fill="#020202"/>
<path id="Vector_21" d="M22.6033 30.8577C22.6033 30.8577 19.1465 26.7757 24.438 22.8198C24.438 22.8198 28.3294 20.7789 30.3227 24.8608C30.3227 24.8608 33.4311 25.2639 32.2209 28.3128C31.0107 31.3616 26.2413 29.6734 26.0752 28.0859C26.0752 28.0859 26.0277 28.9426 24.6041 29.3585L23.8684 29.8624L22.6033 30.8577Z" fill="#874106"/>
<path id="Vector_22" d="M24.6166 28.3496C24.4966 28.2971 24.3659 28.2785 24.2371 28.2956C24.1084 28.3126 23.9859 28.3647 23.8817 28.4468C22.8114 29.2701 23.8335 29.8507 23.8667 29.8623L24.6023 29.3584C25.0526 28.7348 24.8711 28.4656 24.6166 28.3496Z" fill="#F6B98A"/>
<path id="Vector_23" d="M21.091 32.042C21.091 32.042 20.7827 33.9317 22.8233 33.9317L26.1215 39.5507C26.1215 39.5507 25.1486 41.3145 23.2504 42.0451L22.4911 40.9113C22.4911 40.9113 20.1656 44.0105 21.7318 47.8909L13.6402 47.3491C13.6402 47.3491 12.5963 39.601 21.091 32.042Z" fill="#ED860A"/>
<path id="Vector_24" d="M22.3858 54.1146H9.49853C9.43792 54.1146 9.37791 54.1019 9.32192 54.0773C9.26593 54.0526 9.21506 54.0165 9.17221 53.971C9.12936 53.9255 9.09537 53.8715 9.07219 53.812C9.04901 53.7526 9.03709 53.6888 9.03711 53.6245V44.7301C9.03712 44.6579 9.05216 44.5866 9.08116 44.5213C9.11016 44.456 9.15239 44.3983 9.20485 44.3523C9.2573 44.3063 9.31867 44.2732 9.38457 44.2554C9.45047 44.2376 9.51927 44.2354 9.58604 44.2491L22.4733 46.8944C22.5786 46.916 22.6734 46.9758 22.7417 47.0635C22.8099 47.1513 22.8472 47.2616 22.8472 47.3754V53.6245C22.8472 53.7544 22.7986 53.8791 22.7121 53.9709C22.6256 54.0628 22.5082 54.1144 22.3858 54.1144V54.1146Z" fill="#4FBA75"/>
<path id="Vector_25" d="M34.3811 64.8485H33.502V47.8909H36.029L34.3811 64.8485Z" fill="#874106"/>
<path id="Vector_26" d="M55.6049 65H8.84195C8.80409 65 8.76779 64.984 8.74102 64.9556C8.71426 64.9272 8.69922 64.8887 8.69922 64.8485C8.69922 64.8083 8.71426 64.7697 8.74102 64.7413C8.76779 64.7129 8.80409 64.6969 8.84195 64.6969H55.6049C55.6427 64.6969 55.679 64.7129 55.7058 64.7413C55.7325 64.7697 55.7476 64.8083 55.7476 64.8485C55.7476 64.8887 55.7325 64.9272 55.7058 64.9556C55.679 64.984 55.6427 65 55.6049 65Z" fill="#139DA0"/>
<path id="Vector_27" d="M44.3792 19.177C44.3413 19.177 44.305 19.1611 44.2782 19.1326C44.2514 19.1042 44.2364 19.0657 44.2363 19.0255V3.48513C44.2363 3.44491 44.2514 3.40634 44.2782 3.37791C44.3049 3.34947 44.3413 3.3335 44.3791 3.3335C44.417 3.3335 44.4533 3.34947 44.4801 3.37791C44.5069 3.40634 44.5219 3.44491 44.5219 3.48513V19.0253C44.5219 19.0655 44.5068 19.104 44.4801 19.1325C44.4533 19.1609 44.417 19.177 44.3792 19.177Z" fill="#161616"/>
<path id="Vector_28" d="M44.3787 27.2251C45.2393 27.2251 45.937 26.4842 45.937 25.5703C45.937 24.6564 45.2393 23.9155 44.3787 23.9155C43.518 23.9155 42.8203 24.6564 42.8203 25.5703C42.8203 26.4842 43.518 27.2251 44.3787 27.2251Z" fill="#ED860A"/>
<path id="Vector_29" d="M44.4324 18.9125C45.8581 18.9125 47.2254 19.5139 48.2335 20.5844C49.2416 21.6549 49.8079 23.1068 49.808 24.6207V25.5703H39.0566V24.6207C39.0567 23.1067 39.6231 21.6548 40.6312 20.5844C41.6393 19.5139 43.0067 18.9125 44.4324 18.9125Z" fill="#139DA0"/>
<path id="Vector_30" d="M42.8712 46.4982H32.2232C32.12 46.4982 32.021 46.4547 31.948 46.3771C31.875 46.2996 31.834 46.1945 31.834 46.0849C31.834 45.9753 31.875 45.8701 31.948 45.7926C32.021 45.7151 32.12 45.6715 32.2232 45.6715H42.5989L45.4775 37.3002C45.514 37.1988 45.5866 37.1168 45.6795 37.0718C45.7725 37.0268 45.8785 37.0224 45.9745 37.0596C46.0705 37.0968 46.1488 37.1727 46.1926 37.2707C46.2364 37.3688 46.2421 37.4812 46.2085 37.5837L43.2367 46.2267C43.2093 46.3063 43.1596 46.375 43.0942 46.4236C43.0289 46.4721 42.951 46.4982 42.8712 46.4982Z" fill="#9F9E9F"/>
<path id="Vector_31" d="M46.2148 42.1423H49.2232V46.3378H46.2148V42.1423Z" fill="#63CECE"/>
<path id="Vector_32" d="M32.2227 45.448H42.1749V45.6478H32.2227V45.448Z" fill="#6D6D6D"/>
<path id="Vector_33" d="M49.5403 45.322H49.2227V45.1007H49.5403C49.6557 45.1022 49.7703 45.0794 49.8773 45.0335C49.9844 44.9876 50.0818 44.9197 50.164 44.8335C50.2461 44.7474 50.3113 44.6448 50.3558 44.5317C50.4003 44.4186 50.4233 44.2972 50.4233 44.1746C50.4233 44.052 50.4003 43.9306 50.3558 43.8175C50.3113 43.7044 50.2461 43.6018 50.164 43.5157C50.0818 43.4295 49.9844 43.3615 49.8773 43.3157C49.7703 43.2698 49.6557 43.247 49.5403 43.2485H49.2227V43.0272H49.5403C49.8248 43.0306 50.0965 43.1529 50.2966 43.3678C50.4966 43.5826 50.6088 43.8725 50.6088 44.1746C50.6088 44.4767 50.4966 44.7666 50.2966 44.9814C50.0965 45.1962 49.8248 45.3186 49.5403 45.322Z" fill="#63CECE"/>
<path id="Vector_34" d="M45.9684 41.7634H49.4627V42.1424H45.9684V41.7634ZM41.6603 27.2252C41.2655 27.7158 40.8405 28.1736 40.4082 28.6233C39.9729 29.0697 39.53 29.5079 39.0566 29.9127C39.4513 29.4218 39.8763 28.9641 40.3088 28.5145C40.7443 28.0684 41.1872 27.6302 41.6603 27.2252ZM43.4418 28.0859C43.388 28.6064 43.3074 29.1234 43.2006 29.6345C43.1001 30.1471 42.973 30.6534 42.82 31.1511C42.8735 30.6306 42.954 30.1137 43.0612 29.6026C43.162 29.0901 43.289 28.5837 43.4418 28.0859ZM45.2068 28.0859C45.4514 28.5034 45.673 28.9357 45.8704 29.3805C46.0737 29.8223 46.2524 30.2765 46.4056 30.7405C46.1606 30.3232 45.939 29.8909 45.7418 29.446C45.5388 29.004 45.3602 28.5498 45.2068 28.0859ZM46.7307 27.2252C47.1631 27.3519 47.588 27.5059 48.003 27.6866C48.4205 27.8609 48.8277 28.062 49.2222 28.2887C48.7897 28.1623 48.3648 28.0082 47.9498 27.8272C47.5325 27.6526 47.1254 27.4516 46.7307 27.2252Z" fill="#59C1BE"/>
<path id="Vector_35" d="M45.2975 2.20082H54.9949M50.1462 2.20082V4.81575M44.4291 4.81575H52.4379M46.5519 4.81575V6.96747M44.815 6.96747H51.666M46.5519 2.20082V0M52.2449 2.20082V0M52.4379 6.99209V4.79113M5.40749 23.4808H15.1049M10.2562 23.4808V26.0956M4.53906 26.0956H12.5479M6.66188 26.0956V28.2473M4.92503 28.2473H11.776M6.66188 23.4808V21.2798M12.3549 23.4808V21.2798M12.5479 28.2719V26.0711M50.1945 35.0461H59.8919M55.0432 35.0461V37.6609M49.326 37.6609H57.3349M51.4488 37.6609V39.8126M49.712 39.8126H56.5629M51.4488 35.0461V32.8452M57.1419 35.0461V32.8452M57.3349 39.8373V37.6364" stroke="#AFAFAF" stroke-miterlimit="10"/>
</g>
</g>
</g>
<defs>
<clipPath id="clip0_1135_2059">
<rect width="65" height="65" fill="white"/>
</clipPath>
</defs>
</svg>
