<svg width="47" height="46" viewBox="0 0 47 46" fill="none" xmlns="http://www.w3.org/2000/svg">
<path d="M42.0184 14.7198L37.1304 6.53182C36.7544 5.97982 36.0964 5.61182 35.4384 5.61182H2.53843C1.69243 5.61182 0.94043 6.34782 0.94043 7.17582V24.1958C0.94043 25.1158 1.69243 25.7598 2.53843 25.7598H35.4384C36.0964 25.7598 36.7544 25.3918 37.1304 24.8398L42.0184 16.6518C42.3944 16.0998 42.3944 15.3638 42.0184 14.7198ZM36.2844 17.5718C35.2504 17.5718 34.4044 16.7438 34.4044 15.7318C34.4044 14.7198 35.2504 13.8918 36.2844 13.8918C37.3184 13.8918 38.1644 14.7198 38.1644 15.7318C38.1644 16.7438 37.3184 17.5718 36.2844 17.5718Z" fill="#EC6E62"/>
<path d="M27.1657 40.3879C26.8837 40.3879 26.5077 40.3879 26.2257 40.2959C25.0037 40.1119 23.8757 39.5599 23.1237 38.6399C21.9017 37.1679 21.5257 34.7759 22.1837 32.6599C22.8417 30.9119 24.1577 29.3479 25.9437 28.5199C27.2597 27.8759 28.8577 27.5079 30.8317 27.5079H33.0877C33.9337 27.5079 34.6857 27.5999 35.4377 27.5079C37.4117 27.4159 39.2917 27.0479 41.1717 26.4039C42.0177 26.0359 43.0517 25.6679 43.6157 24.7479C44.3677 23.6439 44.4617 21.8959 43.8037 20.4239C43.2397 19.1359 42.2057 18.1239 40.7957 17.4799C39.4797 16.9279 37.9757 16.7439 36.5657 16.6519C36.0957 16.6519 35.6257 16.1919 35.7197 15.7319C35.7197 15.2719 36.1897 14.8119 36.6597 14.9039C38.2577 14.9959 39.9497 15.1799 41.5477 15.8239C43.3337 16.6519 44.7437 18.0319 45.4957 19.6879C46.3417 21.7119 46.2477 24.1039 45.1197 25.7599C44.2737 27.0479 42.8637 27.6919 41.8297 28.0599C39.7617 28.7959 37.6937 29.2559 35.5317 29.2559H32.9937C32.2417 29.2559 31.5837 29.1639 30.8317 29.2559C29.1397 29.2559 27.8237 29.5319 26.6957 30.0839C25.3797 30.7279 24.3457 31.9239 23.8757 33.2119C23.4057 34.6839 23.5937 36.4319 24.4397 37.4439C25.0037 38.1799 25.8497 38.3639 26.4137 38.4559C28.1997 38.7319 30.0797 37.8119 31.3017 36.1559C31.5837 35.7879 32.1477 35.6039 32.6177 35.8799C33.0877 36.1559 33.1817 36.7079 32.8997 37.1679C31.4897 39.1919 29.3277 40.3879 27.1657 40.3879Z" fill="#656766"/>
<path d="M7.3321 13.4321V15.1801H10.3401V16.1921H7.3321V18.8601H6.2041V12.3281H10.6221V13.3401H7.3321V13.4321ZM17.2961 14.5361C17.2961 15.6401 16.8261 16.2841 15.8861 16.5601L17.6721 18.9521H16.2621L14.6641 16.7441H13.1601V18.9521H12.0321V12.4201H14.4761C15.5101 12.4201 16.2621 12.6041 16.6381 12.8801C17.1081 13.2481 17.2961 13.8001 17.2961 14.5361ZM15.7921 15.4561C15.9801 15.2721 16.1681 14.9961 16.1681 14.5361C16.1681 14.0761 16.0741 13.8001 15.7921 13.6161C15.5101 13.4321 15.1341 13.3401 14.5701 13.3401H13.1601V15.6401H14.5701C15.1341 15.7321 15.6041 15.6401 15.7921 15.4561ZM23.5941 12.4201V13.4321H20.0221V15.1801H23.2181V16.1921H20.0221V17.9401H23.6881V18.9521H18.8941V12.4201H23.5941ZM29.8921 12.4201V13.4321H26.3201V15.1801H29.5161V16.1921H26.3201V17.9401H29.9861V18.9521H25.1921V12.4201H29.8921Z" fill="white"/>
</svg>
