<svg width="35" height="35" viewBox="0 0 35 35" fill="none" xmlns="http://www.w3.org/2000/svg">
<g id="Growth Level" clip-path="url(#clip0_241_1667)">
<path id="Vector" d="M33.9062 31.7188H31.7188V28.4375C31.7188 28.1474 31.6035 27.8692 31.3984 27.6641C31.1933 27.459 30.9151 27.3438 30.625 27.3438C30.3349 27.3438 30.0567 27.459 29.8516 27.6641C29.6465 27.8692 29.5312 28.1474 29.5312 28.4375V31.7188H22.9688V7.65625H29.5312V24.0625C29.5312 24.3526 29.6465 24.6308 29.8516 24.8359C30.0567 25.041 30.3349 25.1562 30.625 25.1562C30.9151 25.1562 31.1933 25.041 31.3984 24.8359C31.6035 24.6308 31.7188 24.3526 31.7188 24.0625V6.5625C31.7188 6.27242 31.6035 5.99422 31.3984 5.7891C31.1933 5.58398 30.9151 5.46875 30.625 5.46875H21.875C21.5849 5.46875 21.3067 5.58398 21.1016 5.7891C20.8965 5.99422 20.7812 6.27242 20.7812 6.5625V12.0312H13.125C12.8349 12.0312 12.5567 12.1465 12.3516 12.3516C12.1465 12.5567 12.0312 12.8349 12.0312 13.125V18.5938H4.375C4.08492 18.5938 3.80672 18.709 3.6016 18.9141C3.39648 19.1192 3.28125 19.3974 3.28125 19.6875V31.7188H1.09375C0.803669 31.7188 0.52547 31.834 0.320352 32.0391C0.115234 32.2442 0 32.5224 0 32.8125C0 33.1026 0.115234 33.3808 0.320352 33.5859C0.52547 33.791 0.803669 33.9062 1.09375 33.9062H33.9062C34.1963 33.9062 34.4745 33.791 34.6796 33.5859C34.8848 33.3808 35 33.1026 35 32.8125C35 32.5224 34.8848 32.2442 34.6796 32.0391C34.4745 31.834 34.1963 31.7188 33.9062 31.7188ZM5.46875 20.7812H12.0312V31.7188H5.46875V20.7812ZM14.2188 14.2188H20.7812V31.7188H14.2188V14.2188Z" fill="#38004D"/>
<path id="Vector_2" d="M8.75 16.4062H1.09375C0.803669 16.4062 0.52547 16.291 0.320352 16.0859C0.115234 15.8808 0 15.6026 0 15.3125C0 15.0224 0.115234 14.7442 0.320352 14.5391C0.52547 14.334 0.803669 14.2188 1.09375 14.2188H7.65625V8.75C7.65625 8.45992 7.77148 8.18172 7.9766 7.9766C8.18172 7.77148 8.45992 7.65625 8.75 7.65625H16.4062V2.1875C16.4062 1.89742 16.5215 1.61922 16.7266 1.4141C16.9317 1.20898 17.2099 1.09375 17.5 1.09375H30.625C30.9151 1.09375 31.1933 1.20898 31.3984 1.4141C31.6035 1.61922 31.7188 1.89742 31.7188 2.1875C31.7188 2.47758 31.6035 2.75578 31.3984 2.9609C31.1933 3.16602 30.9151 3.28125 30.625 3.28125H18.5938V8.75C18.5938 9.04008 18.4785 9.31828 18.2734 9.5234C18.0683 9.72852 17.7901 9.84375 17.5 9.84375H9.84375V15.3125C9.84375 15.6026 9.72852 15.8808 9.5234 16.0859C9.31828 16.291 9.04008 16.4062 8.75 16.4062Z" fill="#9F85EC"/>
</g>
<defs>
<clipPath id="clip0_241_1667">
<rect width="35" height="35" fill="white"/>
</clipPath>
</defs>
</svg>
