<svg width="58" height="107" viewBox="0 0 58 107" fill="none" xmlns="http://www.w3.org/2000/svg">
<g clip-path="url(#clip0_2410_54)">
<path d="M34.1615 104.69C32.5206 104.601 30.6708 102.735 30.6708 102.735L27.0011 102.262C27.0011 102.262 25.8673 105.697 27.0906 106.408C28.3138 107.118 35.6831 107.326 35.6831 106.408C35.6831 105.49 35.5638 104.749 34.1615 104.69Z" fill="#4B44BE"/>
<path d="M9.18931 104.572C7.75721 103.772 6.95166 101.255 6.95166 101.255L3.87861 99.2112C3.87861 99.2112 1.28293 101.788 2.08849 102.943C2.89404 104.098 9.33849 107.622 9.75618 106.793C10.1739 105.963 10.4126 105.282 9.18931 104.572Z" fill="#4B44BE"/>
<path d="M14.679 6.78188C14.679 6.78188 18.1996 -0.621943 23.8683 3.22804C29.537 7.07803 29.6564 12.1422 27.9558 14.5707C25.9568 17.4434 26.464 19.783 26.822 20.7011C26.9115 20.9676 27.1204 21.2045 27.359 21.323L36.9362 26.6537L40.7551 30.2372L49.9444 18.7465C49.9444 18.7465 51.4362 16.6734 54.1214 16.6734C56.8066 16.6734 58 17.5618 58 17.5618C58 17.5618 58.2983 18.7465 55.0165 19.6349L51.7346 20.5234L43.3806 35.331C43.3806 35.331 40.9043 36.3675 38.249 34.176C35.9218 32.251 33.7438 30.1779 31.7449 27.9272L31.4465 62.2809L32.4609 72.1132L32.0432 77.9178C32.073 78.4509 31.8344 84.1962 31.8045 84.7293L31.1481 93.6139L30.3426 102.617L27.001 102.202L26.4341 95.687L25.1214 72.2613L24.9722 51.0863L19.1842 64.354L19.393 72.0836L14.6193 86.7728C14.4105 87.3947 14.1718 87.987 13.8735 88.5497L7.04115 101.343L3.81892 99.3592L7.48868 90.1193C7.87654 89.3197 9.786 83.1893 10.0247 82.3305L12.4712 70.8397L23.0926 30.6518L17.7521 33.3468C17.7521 33.3468 13.8436 42.0241 13.2469 42.9125C12.6502 43.801 5.51954 52.7448 5.22119 53.9294C4.92283 55.114 3.78909 57.3944 2.29732 57.9867C0.805549 58.579 -1.87964 59.5563 1.99897 53.9294C5.04217 49.5167 6.98148 46.2294 7.69752 45.0448C7.87654 44.7191 8.05555 44.3933 8.20473 44.0379L12.2325 33.9687L18.6471 23.7514L19.5123 23.1295L21.3323 21.708C21.571 21.5303 21.6903 21.2341 21.6605 20.938C21.4516 19.5757 20.7356 18.3318 19.6317 17.5026C17.5432 15.8442 13.3066 12.7049 14.679 6.78188Z" fill="url(#paint0_linear_2410_54)"/>
<path d="M15.9321 51.6194L12.3519 70.8693L19.5124 72.3501L23.9877 56.3579L25.0617 72.3205H32.5504L33.2366 47.4733L15.9321 51.6194Z" fill="url(#paint1_linear_2410_54)"/>
<path d="M12.0833 34.1761C12.0833 34.1761 14.3807 25.943 19.0052 23.2184C19.4825 22.9519 20.3179 22.093 20.3776 22.5965C20.4671 23.4849 20.9743 25.558 23.0628 25.558C26.3447 25.558 27.2994 22.8334 27.2994 21.3526C27.2994 20.9084 29.1492 20.9973 30.7603 21.2638C32.2819 21.5007 33.8035 22.1523 34.8179 23.2776L37.8611 27.5126L35.0268 30.6222L34.1317 31.0961L33.2366 47.5029C33.2366 47.5029 26.643 50.5237 20.7058 51.3529C19.1245 51.5306 17.5134 51.6491 15.9321 51.6491L17.1255 34.7684L12.0833 34.1761Z" fill="url(#paint2_linear_2410_54)"/>
<path d="M16.7377 11.9942C17.7819 10.7504 18.9156 9.59537 20.1389 8.52922C21.8694 7.10768 22.7644 6.27846 22.7644 6.27846C22.7644 6.27846 25.1214 7.99614 26.0761 8.32191C27.0309 8.64768 28.463 9.23998 28.463 9.23998C28.463 9.23998 29.2685 6.57461 27.2696 6.24884C25.2706 5.92307 19.2737 3.76116 18.0206 4.70885C16.7675 5.65653 14.6492 8.38114 14.3508 9.68421C14.0525 10.9873 14.7984 12.6754 15.2757 13.0011C15.5443 13.1788 14.7984 11.6684 15.2161 11.3723C15.5144 11.1057 16.7377 11.9942 16.7377 11.9942Z" fill="url(#paint3_linear_2410_54)"/>
<path d="M14.3508 9.68418L33.0576 5.33073C33.0576 5.33073 33.4156 4.47189 32.7294 4.44228C32.0432 4.41266 27.7767 5.83419 27.7767 5.83419C27.7767 5.83419 25.9269 0.444213 19.9002 0.562674C19.9002 0.562674 20.1389 0.0295988 19.8107 -1.6483e-05C19.4825 -0.0296318 17.9311 0.384982 17.8117 0.503443C17.6924 0.621904 18.0504 0.977288 17.8714 1.12536C17.6924 1.27344 12.4413 3.76112 14.3508 9.68418Z" fill="#4B44BE"/>
<path opacity="0.07" d="M27.4187 15.1926C27.4187 15.1926 26.1955 16.703 25.2109 17.0288C24.2263 17.3545 24.7932 17.3842 25.2109 18.5984C25.4198 19.2499 25.7181 19.8422 26.106 20.4049C26.106 20.4049 26.643 15.6369 27.4187 15.1926Z" fill="black"/>
<path opacity="0.07" d="M17.8714 1.15497C17.8714 1.15497 18.7068 1.95458 18.1697 4.05727C17.6327 6.15995 17.4537 6.81149 17.9012 7.6111C18.3488 8.41071 18.0206 8.85494 18.0206 8.85494L14.3508 9.71379C14.3807 9.68417 12.0833 4.35342 17.8714 1.15497Z" fill="black"/>
<path opacity="0.07" d="M17.1255 34.7387C17.1255 34.7387 18.2891 33.0803 18.4084 31.5699C18.5278 30.0595 17.8714 34.561 18.6173 37.256C19.3632 39.951 18.4979 42.2906 20.0195 43.2383C21.5412 44.186 20.3477 47.4141 20.6759 48.806C20.8848 49.6352 21.4815 50.3164 22.287 50.6421C22.287 50.6421 22.0782 51.3825 19.4825 51.501C16.8868 51.6194 15.9321 51.6194 15.9321 51.6194L17.1255 34.7387Z" fill="black"/>
</g>
<defs>
<linearGradient id="paint0_linear_2410_54" x1="-0.00489913" y1="52.3676" x2="58.0071" y2="52.3676" gradientUnits="userSpaceOnUse">
<stop stop-color="#F87B58"/>
<stop offset="0.5" stop-color="#F8C548"/>
<stop offset="1" stop-color="#F89C51"/>
</linearGradient>
<linearGradient id="paint1_linear_2410_54" x1="12.3519" y1="59.9117" x2="33.2366" y2="59.9117" gradientUnits="userSpaceOnUse">
<stop stop-color="#4F68CA"/>
<stop offset="1" stop-color="#5ACEED"/>
</linearGradient>
<linearGradient id="paint2_linear_2410_54" x1="12.0833" y1="36.3454" x2="37.8611" y2="36.3454" gradientUnits="userSpaceOnUse">
<stop stop-color="#F9A74E"/>
<stop offset="1" stop-color="#F9A144"/>
</linearGradient>
<linearGradient id="paint3_linear_2410_54" x1="14.3011" y1="8.74304" x2="28.6421" y2="8.74304" gradientUnits="userSpaceOnUse">
<stop stop-color="#4F68CA"/>
<stop offset="1" stop-color="#5ACEED"/>
</linearGradient>
<clipPath id="clip0_2410_54">
<rect width="58" height="107" fill="white"/>
</clipPath>
</defs>
</svg>
