<svg width="104" height="104" viewBox="0 0 104 104" fill="none" xmlns="http://www.w3.org/2000/svg">
<g clip-path="url(#clip0_1135_3184)">
<path d="M81.1878 23.3438H71.8128C71.505 23.3438 71.2002 23.4044 70.9158 23.5222C70.6315 23.6399 70.3731 23.8126 70.1555 24.0302C69.7159 24.4698 69.469 25.0659 69.469 25.6875V30.7453C69.4619 31.2323 69.6016 31.7101 69.87 32.1164C70.1384 32.5228 70.523 32.8389 70.9737 33.0234C71.3986 33.1952 71.8659 33.2334 72.3131 33.1329C72.7603 33.0324 73.1662 32.798 73.4768 32.4609L75.4596 30.375H77.5409L79.5237 32.4609C79.8339 32.7986 80.2399 33.0334 80.6872 33.1339C81.1346 33.2344 81.602 33.1959 82.0268 33.0234C82.4775 32.8389 82.8621 32.5228 83.1305 32.1164C83.3989 31.7101 83.5386 31.2323 83.5315 30.7453V25.6875C83.5315 25.0659 83.2846 24.4698 82.845 24.0302C82.4055 23.5907 81.8094 23.3438 81.1878 23.3438ZM74.6253 27.5625H73.6878V28.5C73.6878 28.6243 73.6384 28.7435 73.5505 28.8315C73.4626 28.9194 73.3433 28.9688 73.219 28.9688C73.0947 28.9688 72.9755 28.9194 72.8876 28.8315C72.7996 28.7435 72.7503 28.6243 72.7503 28.5V27.5625H71.8128C71.6884 27.5625 71.5692 27.5131 71.4813 27.4252C71.3934 27.3373 71.344 27.2181 71.344 27.0938C71.344 26.9694 71.3934 26.8502 71.4813 26.7623C71.5692 26.6744 71.6884 26.625 71.8128 26.625H72.7503V25.6875C72.7503 25.5632 72.7996 25.444 72.8876 25.356C72.9755 25.2681 73.0947 25.2188 73.219 25.2188C73.3433 25.2188 73.4626 25.2681 73.5505 25.356C73.6384 25.444 73.6878 25.5632 73.6878 25.6875V26.625H74.6253C74.7496 26.625 74.8688 26.6744 74.9567 26.7623C75.0446 26.8502 75.094 26.9694 75.094 27.0938C75.094 27.2181 75.0446 27.3373 74.9567 27.4252C74.8688 27.5131 74.7496 27.5625 74.6253 27.5625ZM79.7815 28.9688C79.4107 28.9688 79.0482 28.8588 78.7398 28.6528C78.4315 28.4467 78.1912 28.1539 78.0492 27.8113C77.9073 27.4687 77.8702 27.0917 77.9425 26.728C78.0149 26.3642 78.1935 26.0301 78.4557 25.7679C78.7179 25.5057 79.052 25.3271 79.4157 25.2548C79.7794 25.1824 80.1564 25.2196 80.499 25.3615C80.8417 25.5034 81.1345 25.7437 81.3405 26.0521C81.5465 26.3604 81.6565 26.7229 81.6565 27.0938C81.6565 27.591 81.459 28.0679 81.1073 28.4196C80.7557 28.7712 80.2788 28.9688 79.7815 28.9688ZM80.719 27.0938C80.719 27.2792 80.664 27.4604 80.561 27.6146C80.458 27.7688 80.3116 27.8889 80.1403 27.9599C79.969 28.0308 79.7805 28.0494 79.5986 28.0132C79.4168 27.9771 79.2497 27.8878 79.1186 27.7567C78.9875 27.6256 78.8982 27.4585 78.862 27.2766C78.8259 27.0948 78.8444 26.9063 78.9154 26.735C78.9863 26.5637 79.1065 26.4173 79.2607 26.3142C79.4148 26.2112 79.5961 26.1562 79.7815 26.1562C80.0302 26.1562 80.2686 26.255 80.4444 26.4308C80.6202 26.6067 80.719 26.8451 80.719 27.0938Z" fill="black"/>
<path d="M28.9476 26.5481L29.1646 24.4032L23.5766 22.1429L23.3047 23.8451L28.9476 26.5481Z" fill="#155F84"/>
<path d="M95.4653 84.6884L71.0448 92.7894L65.1406 74.9888L89.5611 66.8907L95.4653 84.6884Z" fill="#CF9E5F"/>
<path d="M26.9221 33.7798C32.09 34.2371 28.5819 28.7099 28.0951 24.9777L28.0762 17.2862L25.9541 16.7366C25.9541 16.7366 25.0087 18.89 23.5806 20.2416C23.3872 22.0643 23.1634 24.0383 23.052 24.5459C23.2876 25.5219 21.7545 33.3227 26.9221 33.7798Z" fill="#664624"/>
<path d="M31.3219 10.9741C32.2184 13.0297 31.2178 14.5748 31.8814 15.4636C32.5448 16.3524 32.8265 16.2601 32.8685 16.6274C32.9102 16.9973 32.2443 17.1322 32.2144 17.6341C32.1788 18.2396 32.0007 19.1452 31.9827 19.7791C31.9608 20.5641 32.1462 21.0578 31.5287 21.4C30.386 22.0282 28.4479 21.2904 27.3492 20.8784C25.7871 20.2895 24.3101 18.4221 24.1365 17.0171C23.0312 16.7199 19.2296 14.3842 21.196 11.1312C23.1628 7.87861 29.6387 7.11585 31.3219 10.9741Z" fill="#815932"/>
<path d="M31.3224 10.9741C30.8937 10.7048 27.5905 10.5453 27.0796 12.3117C26.653 13.7894 27.0875 14.4483 25.3726 15.2562C24.2977 14.0026 23.3435 15.7074 24.1924 16.243C24.3778 16.3582 24.2804 16.8405 24.2804 16.8405L24.9021 18.7892L23.6008 20.2416C23.6008 20.2416 20.1588 19.1257 19.8707 15.1298C19.5775 11.0639 21.4057 8.58503 23.9266 8.26254C28.4401 7.68491 30.6276 9.27775 31.3224 10.9741Z" fill="black"/>
<path d="M31.342 10.8453C31.427 10.144 30.5942 6.88016 29.2562 6.0559C27.9149 5.22582 25.0198 4.92591 24.0098 5.16675C23.0001 5.4052 20.4944 7.02052 19.6741 8.40566C18.8897 9.73205 19.7405 12.6427 19.9335 13.4728C24.5259 13.1896 27.3699 12.5136 31.342 10.8453Z" fill="#1E7DAC"/>
<path d="M26.3672 12.5614C26.3672 12.5614 28.8485 12.6788 33.0789 12.365C36.2581 12.1293 36.6707 9.9031 36.6707 9.9031L31.1837 9.6001C31.1837 9.6001 30.9794 10.0459 29.6938 10.9265C28.4079 11.8068 26.3672 12.5614 26.3672 12.5614Z" fill="#18658C"/>
<path d="M31.2881 15.2169C31.2644 15.5141 31.004 15.7354 30.7069 15.7129C30.41 15.6879 30.1889 15.4269 30.2127 15.1298C30.2364 14.8353 30.4968 14.614 30.7939 14.6365C31.0908 14.6615 31.3125 14.9197 31.2881 15.2169Z" fill="black"/>
<path d="M31.9985 19.5154C32.0549 19.0921 32.1282 18.6292 32.159 18.1945L30.5391 18.2477C30.5391 18.2477 31.1797 19.1957 31.9985 19.5154Z" fill="white"/>
<path d="M25.4711 16.0496C25.346 16.8964 24.8231 17.5161 24.3037 17.4406C23.7839 17.362 23.4645 16.616 23.5897 15.7719C23.7148 14.9278 24.2376 14.3055 24.7571 14.381C25.2765 14.4596 25.5963 15.2056 25.4711 16.0496Z" fill="#815932"/>
<path d="M31.6532 14.0951L29.4844 14.1427L29.4864 14.0251C29.4923 13.7194 29.8102 13.4755 30.1963 13.4837L31.7035 13.4082L31.6532 14.0951Z" fill="black"/>
<path d="M24.2015 5.20325L23.3002 5.51714C23.1477 5.57049 22.9793 5.48948 22.9263 5.33513C22.8733 5.18378 22.955 5.01536 23.1075 4.9621L24.0094 4.64813C24.162 4.59487 24.3301 4.67888 24.383 4.83023C24.4357 4.98156 24.3544 5.15 24.2015 5.20325Z" fill="#1E7DAC"/>
<path d="M21.2085 14.4681C21.2072 15.071 20.7175 15.5561 20.1153 15.5561C19.513 15.5534 19.0258 15.0655 19.0273 14.4623C19.0288 13.8594 19.5182 13.3716 20.1204 13.3744C20.7227 13.3744 21.2099 13.8652 21.2085 14.4681Z" fill="black"/>
<path d="M21.3256 16.3384C21.3244 16.9385 20.8348 17.4263 20.2325 17.4263C19.6302 17.4236 19.143 16.933 19.1445 16.3329C19.1457 15.73 19.6354 15.2422 20.2377 15.2449C20.84 15.2449 21.3272 15.7355 21.3256 16.3384Z" fill="black"/>
<path d="M22.24 17.9032C22.2385 18.5061 21.7489 18.9939 21.1466 18.9911C20.5443 18.9884 20.0571 18.5003 20.0586 17.8977C20.0601 17.2948 20.5494 16.8094 21.1521 16.8094C21.7544 16.8125 22.2412 17.3003 22.24 17.9032Z" fill="black"/>
<path d="M23.5798 19.0976C23.5783 19.6978 23.0886 20.1857 22.4864 20.1857C21.8841 20.1829 21.3968 19.692 21.3984 19.0921C21.3999 18.4892 21.8893 18.0012 22.4918 18.0039C23.0941 18.0039 23.581 18.4947 23.5798 19.0976Z" fill="black"/>
<path d="M25.1108 19.4061C25.1096 20.009 24.62 20.4968 24.0176 20.4941C23.4153 20.4913 22.9282 20.0035 22.9297 19.4006C22.9312 18.7977 23.4208 18.3126 24.0231 18.3126C24.6254 18.3154 25.1126 18.8032 25.1108 19.4061Z" fill="black"/>
<path d="M29.5233 27.7286L27.9567 25.8218L22.8198 23.6039C22.8198 23.6039 21.6153 25.4826 21.6211 28.8981C21.625 31.144 22.6811 48.3331 22.6811 48.3331H32.4873C32.4873 48.3331 32.5771 38.174 32.5399 35.9307C32.5098 34.1053 29.5233 27.7286 29.5233 27.7286Z" fill="#1E7DAC"/>
<path d="M28.0023 26.3659L28.2194 24.2208L22.6313 21.9635L22.3594 23.6626L28.0023 26.3659Z" fill="#155F84"/>
<path d="M29.5235 27.7285L28.2053 24.3468L28.0391 25.9874L29.5235 27.7285Z" fill="#0F5070"/>
<path d="M32.329 50.3942L41.7648 73.4636L45.0597 94.0316L39.3936 94.1662L34.421 74.8235L21 53.2543L32.329 50.3942Z" fill="#001932"/>
<path d="M22.6277 48.3331C22.6277 48.3331 20.8653 51.7879 20.8653 54.7771C20.8653 55.9997 20.6525 72.883 20.6525 72.883L10.7969 90.5182L15.4971 93.0025L28.3521 74.2431L32.4866 48.3331H22.6277Z" fill="#132E42"/>
<path d="M32.4727 48.3331H22.6299C22.6299 48.3331 22.378 48.8632 22.2063 49.2728C22.0348 49.6793 21.7617 50.3942 21.7617 50.3942H32.3292L32.4727 48.3331Z" fill="#664624"/>
<path d="M25.8281 50.3942H26.5565V48.3333H25.8281V50.3942Z" fill="#132E42"/>
<path d="M8.53516 94.1915L10.1374 92.0743C10.1374 92.0743 13.5523 94.4017 14.0952 94.9878C14.6446 95.8794 16.9648 95.9889 17.1974 96.9759C17.3314 97.5423 16.6326 99.2893 16.6326 99.2893C16.6326 99.2893 13.3236 98.9416 12.3112 97.3909C11.2982 95.8375 8.53516 94.1915 8.53516 94.1915Z" fill="#664624"/>
<path d="M8.87624 93.7316C8.87624 93.7316 10.8505 95.1309 12.4102 97.0909C13.9692 99.0481 16.896 98.5743 16.896 98.5743L16.6615 99.2836C16.6615 99.2836 13.7514 99.7996 12.1754 97.8003C10.5993 95.801 8.53516 94.1915 8.53516 94.1915L8.87624 93.7316Z" fill="#9D764B"/>
<path d="M40.7964 99.3679L40.1055 96.8048C40.1055 96.8048 44.0377 95.5347 44.834 95.4645C45.8771 95.5766 47.3856 93.8128 48.3054 94.2307C48.8356 94.4718 49.7887 96.0955 49.7887 96.0955C49.7887 96.0955 47.4836 98.4985 45.6387 98.347C43.7907 98.1957 40.7964 99.3679 40.7964 99.3679Z" fill="#664624"/>
<path d="M40.6406 98.8182C40.6406 98.8182 42.956 98.1171 45.4602 98.0835C47.964 98.0527 49.383 95.4504 49.383 95.4504L49.798 96.0701C49.798 96.0701 48.4241 98.6864 45.8779 98.706C43.3317 98.7257 40.7944 99.3678 40.7944 99.3678L40.6406 98.8182Z" fill="#9D764B"/>
<path d="M39.1641 93.5185L45.0527 92.0322L45.4428 95.3692L40.1159 96.8553L39.1641 93.5185Z" fill="#0A4F6F"/>
<path d="M31.6342 50.3942H31.066C31.0673 50.4082 31.1671 51.8719 30.3883 53.145C29.5036 54.5919 28.0525 54.9199 27.7511 54.9731V50.3942H27.2148V55.5286C27.2148 55.5286 27.4919 55.5481 27.7511 55.5286C28.0104 55.5088 29.7601 55.2143 30.8516 53.4282C31.7241 52.0038 31.6385 50.4587 31.6342 50.3942Z" fill="#0A4F6F"/>
<path d="M72.3129 94.2L70.5133 94.7775L53.4336 37.8795L55.1832 37.3552L72.3129 94.2Z" fill="black"/>
<path d="M86.6211 87.5991L87.1448 89.3488L70.492 94.7944L70.0078 93.0502L86.6211 87.5991Z" fill="black"/>
<path d="M70.5218 94.7944L56.9719 93.2661L48.1699 62.951L55.3118 48.9951L40.0898 47.0433L40.2975 45.4255L57.8214 47.6714L49.9167 63.1163L58.2255 91.7295L70.665 93.14L70.5218 94.7944Z" fill="black"/>
<path d="M63.6251 92.2455C64.4999 95.159 62.8456 98.2267 59.9349 99.0987C57.0215 99.9707 53.9537 98.3192 53.0817 95.4057C52.2068 92.495 53.8612 89.4274 56.7718 88.5524C59.6852 87.6805 62.753 89.3349 63.6251 92.2455Z" fill="black"/>
<path d="M44.9571 45.5516C44.9571 45.5516 44.7494 45.9385 43.9839 46.0144C43.1932 46.0899 43.0473 45.8153 43.0473 45.8153C43.0473 45.8153 42.6214 46.4404 42.0208 46.6143C41.421 46.7854 40.3477 46.2638 40.3477 46.2638L40.5968 45.4477L43.681 45.002L44.9571 45.5516Z" fill="#815932"/>
<path d="M40.1911 47.5956L40.5974 45.4476L32.2158 39.848L27.4812 28.7072C26.7438 26.7417 25.0937 26.1415 24.4719 26.4947L22.983 28.096C22.3609 28.4493 24.718 32.6751 25.0395 33.4125L30.218 42.6999L40.1911 47.5956Z" fill="#815932"/>
<path d="M40.598 45.4476L43.3737 45.7814C43.3737 45.7814 43.3822 46.4994 44.5067 47.2088C45.5695 47.8818 46.7667 47.8818 46.7667 47.8818C46.7667 47.8818 46.2844 48.4594 45.401 48.8184C44.6441 49.1269 43.3122 48.9052 42.611 48.7313C41.0913 48.3556 40.1917 47.5956 40.1917 47.5956L39.9805 46.648L40.598 45.4476Z" fill="#815932"/>
<path d="M24.7673 34.0575C25.2905 33.965 26.4384 33.6678 27.118 33.376C28.2039 32.9135 29.0804 32.1002 29.36 31.6432L27.5699 28.121C26.5063 25.9229 25.313 25.662 24.1951 26.0911C23.0774 26.5201 22.6039 27.0474 22.9129 28.7465C23.2214 30.4487 24.7673 34.0575 24.7673 34.0575Z" fill="#155F84"/>
<path d="M26.5829 32.162C25.9486 32.4198 24.9502 32.6948 24.3086 32.8376C24.5708 33.5556 24.7668 34.0574 24.7668 34.0574C25.29 33.9649 26.438 33.6677 27.1176 33.376C28.2034 32.9134 29.08 32.1001 29.3596 31.6431L28.8154 30.575C28.4601 30.9981 27.5768 31.7524 26.5829 32.162Z" fill="white"/>
<path d="M11.6421 88.8777L16.1812 92.5454L14.2949 95.1869L9.88672 91.9426L11.6421 88.8777Z" fill="#0A4F6F"/>
<path d="M82.6702 41.3534L59.2461 49.3687L60.9113 54.0921L84.3354 46.0768L82.6702 41.3534Z" fill="white"/>
<path d="M84.3732 46.1839L60.9513 54.2026C60.9219 54.212 60.8899 54.2099 60.8621 54.1966C60.8343 54.1833 60.8127 54.1599 60.802 54.1314L59.1361 49.4084C59.1259 49.3795 59.1278 49.3477 59.1414 49.3202C59.1549 49.2926 59.1791 49.2715 59.2084 49.2614L82.6303 41.2428C82.6597 41.2327 82.6919 41.2345 82.7199 41.2479C82.7479 41.2613 82.7694 41.285 82.7796 41.314L84.4454 46.0369C84.4557 46.0658 84.4538 46.0976 84.4402 46.1252C84.4267 46.1527 84.4025 46.1739 84.3732 46.1839ZM60.9851 53.9464L84.1854 46.0036L82.5965 41.4989L59.3962 49.4417L60.9851 53.9464Z" fill="#263238"/>
<path d="M64.0689 49.1683L59.9524 50.5625C59.9229 50.5725 59.8907 50.5704 59.8628 50.5568C59.8349 50.5432 59.8136 50.5192 59.8035 50.49C59.7935 50.4609 59.7955 50.4289 59.8092 50.4012C59.8229 50.3735 59.8472 50.3524 59.8766 50.3424L63.9931 48.9482C64.0226 48.9383 64.0548 48.9403 64.0827 48.9539C64.1106 48.9675 64.1319 48.9915 64.142 49.0207C64.152 49.0499 64.15 49.0818 64.1363 49.1095C64.1226 49.1372 64.0983 49.1583 64.0689 49.1683Z" fill="#263238"/>
<path d="M66.4432 49.8234L65.8832 50.016C65.8539 50.0261 65.8216 50.0243 65.7936 50.011C65.7657 49.9977 65.7442 49.9739 65.7339 49.945C65.7237 49.9161 65.7255 49.8843 65.739 49.8567C65.7525 49.8291 65.7766 49.808 65.806 49.7979L66.366 49.6052C66.3953 49.5951 66.4275 49.597 66.4555 49.6103C66.4835 49.6236 66.505 49.6473 66.5153 49.6763C66.5255 49.7052 66.5237 49.7369 66.5101 49.7645C66.4966 49.7921 66.4726 49.8133 66.4432 49.8234Z" fill="#263238"/>
<path d="M64.9455 50.3301L60.3273 51.8938C60.2979 51.9038 60.2657 51.9017 60.2378 51.8881C60.2099 51.8745 60.1885 51.8505 60.1785 51.8213C60.1691 51.7921 60.1714 51.7604 60.1851 51.7328C60.1987 51.7053 60.2225 51.6841 60.2516 51.6736L64.8698 50.1099C64.8992 50.0999 64.9314 50.102 64.9594 50.1156C64.9873 50.1292 65.0086 50.1532 65.0186 50.1824C65.0287 50.2116 65.0266 50.2436 65.0129 50.2713C64.9992 50.299 64.975 50.3202 64.9455 50.3301Z" fill="#263238"/>
<path d="M62.7852 52.5739L60.8865 53.2191C60.857 53.2291 60.8248 53.2271 60.7969 53.2136C60.7689 53.2002 60.7475 53.1763 60.7374 53.1472C60.7273 53.1182 60.7292 53.0864 60.7429 53.0588C60.7565 53.0312 60.7807 53.01 60.8101 53L62.7089 52.3549C62.7383 52.3449 62.7706 52.3468 62.7985 52.3603C62.8265 52.3738 62.8479 52.3977 62.858 52.4267C62.8681 52.4558 62.8661 52.4876 62.8525 52.5152C62.8389 52.5428 62.8147 52.5639 62.7852 52.5739Z" fill="#263238"/>
<path d="M77.9495 43.2165C78.0713 44.8135 78.6168 46.3504 79.531 47.6722L88.9375 44.4047C88.9375 44.4047 86.9451 41.922 87.356 39.9489L77.9495 43.2165Z" fill="white"/>
<path d="M88.9775 44.5134L79.5725 47.7822C79.5481 47.7911 79.5214 47.7917 79.4966 47.7839C79.4718 47.776 79.4504 47.7603 79.4357 47.739C78.5139 46.3965 77.9613 44.8396 77.8323 43.2215C77.8314 43.1968 77.8386 43.1724 77.8528 43.152C77.867 43.1317 77.8874 43.1163 77.9111 43.1082L87.3161 39.8394C87.3357 39.8332 87.3565 39.8321 87.3767 39.8362C87.3968 39.8403 87.4155 39.8495 87.431 39.8629C87.4465 39.8763 87.4582 39.8934 87.465 39.9126C87.4718 39.9318 87.4735 39.9524 87.47 39.9724C87.0751 41.8716 89.009 44.3086 89.0206 44.3413C89.032 44.3557 89.0398 44.3726 89.0433 44.3906C89.0468 44.4086 89.046 44.4271 89.0409 44.4447C89.0357 44.4623 89.0265 44.4785 89.0138 44.4918C89.0011 44.5052 88.9855 44.5154 88.9681 44.5216L88.9775 44.5134ZM79.5789 47.5346L88.7477 44.3479C88.3566 43.8261 86.9822 41.8474 87.2082 40.1223L78.0637 43.3006C78.2076 44.8141 78.7282 46.2688 79.5789 47.5346Z" fill="#263238"/>
<mask id="mask0_1135_3184" style="mask-type:luminance" maskUnits="userSpaceOnUse" x="77" y="39" width="12" height="9">
<mask id="mask1_1135_3184" style="mask-type:luminance" maskUnits="userSpaceOnUse" x="77" y="39" width="12" height="9">
<path d="M77.9436 43.2295C78.0893 44.8227 78.6571 46.355 79.5899 47.6719L88.9336 44.3913C88.9336 44.3913 86.9067 41.9185 87.2873 39.949L77.9436 43.2295Z" fill="white"/>
</mask>
<g mask="url(#mask1_1135_3184)">
<path d="M88.9743 44.4961L79.6295 47.7818C79.6053 47.7907 79.5786 47.7913 79.5538 47.7836C79.5289 47.7759 79.5073 47.7602 79.4923 47.739C78.5529 46.4028 77.9791 44.8518 77.8275 43.2387C77.8263 43.214 77.8332 43.1897 77.847 43.1693C77.8609 43.1489 77.8811 43.1336 77.9046 43.1255L87.2493 39.8398C87.2688 39.8336 87.2896 39.8324 87.3097 39.8365C87.3299 39.8405 87.3487 39.8497 87.3644 39.863C87.38 39.8763 87.3919 39.8933 87.399 39.9124C87.4061 39.9315 87.4081 39.952 87.4048 39.972C87.0374 41.8669 89.0028 44.2918 89.0149 44.3244C89.0265 44.3388 89.0345 44.3556 89.0382 44.3735C89.042 44.3914 89.0414 44.4099 89.0365 44.4275C89.0317 44.445 89.0226 44.4611 89.0102 44.4745C88.9977 44.4879 88.9822 44.4981 88.9649 44.5043L88.9743 44.4961ZM79.6324 47.5348L88.7424 44.3317C88.3446 43.8125 86.9443 41.8431 87.1456 40.1222L78.0597 43.3169C78.2247 44.8258 78.7651 46.2749 79.6324 47.5348Z" fill="white"/>
</g>
</mask>
<g mask="url(#mask0_1135_3184)">
<g opacity="0.24">
<path d="M77.9476 43.2333C78.0917 44.8254 78.658 46.3564 79.5895 47.6718L88.9375 44.3875C88.9375 44.3875 86.913 41.9175 87.2957 39.949L77.9476 43.2333Z" fill="black"/>
<path d="M88.9782 44.4954L79.6335 47.7818C79.6092 47.7908 79.5825 47.7914 79.5577 47.7837C79.5328 47.776 79.5112 47.7603 79.4962 47.7391C78.5568 46.4033 77.983 44.8525 77.8314 43.2396C77.8302 43.2149 77.8371 43.1906 77.851 43.1703C77.8648 43.1499 77.885 43.1345 77.9085 43.1264L87.2532 39.8399C87.2727 39.8337 87.2935 39.8325 87.3136 39.8366C87.3338 39.8407 87.3526 39.8498 87.3682 39.8631C87.3839 39.8764 87.3958 39.8934 87.4029 39.9125C87.41 39.9316 87.412 39.9521 87.4087 39.9721C87.0413 41.8668 89.0067 44.2911 89.0188 44.3237C89.0304 44.338 89.0384 44.3549 89.0421 44.3728C89.0459 44.3907 89.0453 44.4092 89.0404 44.4267C89.0356 44.4443 89.0265 44.4604 89.0141 44.4738C89.0016 44.4871 88.9861 44.4973 88.9688 44.5036L88.9782 44.4954ZM79.6363 47.5349L88.7463 44.331C88.3485 43.8119 86.9482 41.843 87.1494 40.1223L78.0636 43.3178C78.2287 44.8264 78.769 46.2753 79.6363 47.5349Z" fill="#263238"/>
</g>
</g>
<path d="M60.8769 53.1213L59.7429 49.8952C59.715 49.8158 59.7202 49.7288 59.7574 49.6533C59.7947 49.5777 59.8608 49.5198 59.9414 49.4923L87.8108 39.979C87.8696 39.9589 87.9178 39.9167 87.945 39.8615C87.9722 39.8064 87.976 39.7428 87.9557 39.6849C87.9353 39.627 87.8924 39.5794 87.8364 39.5526C87.7805 39.5259 87.716 39.5221 87.6572 39.5422L59.0341 49.3127C58.9536 49.3402 58.8875 49.3981 58.8502 49.4737C58.813 49.5492 58.8078 49.6363 58.8357 49.7156L60.2822 53.8307C60.3042 53.8944 60.3388 53.9531 60.384 54.0036C60.4291 54.054 60.484 54.0952 60.5453 54.1247C60.6067 54.1542 60.6734 54.1715 60.7415 54.1756C60.8097 54.1796 60.878 54.1704 60.9425 54.1484L89.3793 44.4414C89.4381 44.4213 89.4864 44.379 89.5136 44.3239C89.5408 44.2687 89.5446 44.2052 89.5242 44.1473C89.5039 44.0893 89.461 44.0418 89.405 44.015C89.349 43.9882 89.2846 43.9844 89.2258 44.0045L61.5426 53.4543C61.4767 53.4765 61.407 53.4854 61.3376 53.4806C61.2682 53.4758 61.2004 53.4573 61.1384 53.4263C61.0763 53.3953 61.0212 53.3523 60.9763 53.2999C60.9314 53.2475 60.8976 53.1868 60.8769 53.1213Z" fill="#263238"/>
<path d="M89.4189 44.548L60.9843 54.2588C60.8246 54.3127 60.6497 54.3021 60.498 54.2292C60.3462 54.1563 60.23 54.0271 60.1747 53.87L58.7222 49.7403C58.7033 49.6867 58.6953 49.6299 58.6987 49.5732C58.7021 49.5166 58.7168 49.4611 58.742 49.4101C58.7671 49.359 58.8022 49.3133 58.8453 49.2756C58.8884 49.2379 58.9386 49.2089 58.993 49.1904L87.6137 39.4159C87.6594 39.3962 87.7088 39.3859 87.7586 39.3858C87.8085 39.3858 87.8579 39.3959 87.9036 39.4155C87.9494 39.4352 87.9904 39.464 88.0243 39.5001C88.0582 39.5362 88.0841 39.5788 88.1005 39.6252C88.1168 39.6717 88.1232 39.7209 88.1193 39.7699C88.1153 39.8189 88.1011 39.8666 88.0775 39.9099C88.054 39.9533 88.0215 39.9913 87.9823 40.0217C87.9431 40.0521 87.8979 40.0741 87.8496 40.0864L59.9824 49.6034C59.9312 49.6209 59.8892 49.6577 59.8656 49.7057C59.842 49.7536 59.8387 49.8089 59.8564 49.8593L60.9909 53.0849C61.0258 53.1841 61.0992 53.2657 61.195 53.3118C61.2907 53.358 61.4011 53.3649 61.5021 53.331L89.1831 43.8776C89.2287 43.8578 89.2781 43.8475 89.328 43.8475C89.3778 43.8474 89.4272 43.8575 89.4729 43.8772C89.5187 43.8968 89.5598 43.9256 89.5936 43.9617C89.6275 43.9978 89.6534 44.0404 89.6698 44.0868C89.6861 44.1333 89.6925 44.1826 89.6886 44.2316C89.6846 44.2806 89.6704 44.3282 89.6468 44.3716C89.6233 44.4149 89.5908 44.4529 89.5516 44.4833C89.5124 44.5137 89.4672 44.5357 89.4189 44.548ZM59.0787 49.4057C59.0275 49.4232 58.9855 49.4599 58.9619 49.5079C58.9383 49.5559 58.9349 49.6112 58.9527 49.6616L60.4052 53.7912C60.4401 53.8905 60.5135 53.9721 60.6092 54.0182C60.705 54.0643 60.8154 54.0713 60.9163 54.0374L89.3421 44.3296C89.3598 44.3261 89.3766 44.3189 89.3912 44.3085C89.4059 44.2981 89.4182 44.2847 89.4272 44.2692C89.4361 44.2538 89.4417 44.2366 89.4433 44.2188C89.445 44.2011 89.4428 44.1832 89.4369 44.1664C89.431 44.1495 89.4215 44.1341 89.409 44.1212C89.3965 44.1083 89.3814 44.0982 89.3646 44.0915C89.3479 44.0848 89.3298 44.0818 89.3118 44.0825C89.2937 44.0833 89.276 44.0879 89.2599 44.096L61.5789 53.5494C61.4998 53.5764 61.4161 53.5878 61.3326 53.5828C61.2491 53.5779 61.1673 53.5568 61.0921 53.5206C61.0169 53.4845 60.9497 53.4341 60.8943 53.3723C60.8389 53.3105 60.7964 53.2385 60.7693 53.1605L59.6347 49.935C59.5966 49.8267 59.6038 49.7079 59.6546 49.6048C59.7054 49.5016 59.7956 49.4226 59.9056 49.3851L87.7728 39.868C87.7905 39.8645 87.8073 39.8573 87.8219 39.8469C87.8366 39.8365 87.8489 39.8231 87.8578 39.8076C87.8668 39.7921 87.8723 39.775 87.874 39.7572C87.8757 39.7395 87.8735 39.7216 87.8676 39.7047C87.8617 39.6879 87.8522 39.6725 87.8397 39.6596C87.8272 39.6467 87.8121 39.6366 87.7953 39.6299C87.7786 39.6232 87.7605 39.6202 87.7425 39.6209C87.7244 39.6217 87.7067 39.6263 87.6906 39.6343L59.0787 49.4057Z" fill="#263238"/>
<path d="M86.0257 51.2659L62.6016 59.2811L64.2667 64.0045L87.6908 55.9893L86.0257 51.2659Z" fill="white"/>
<path d="M87.7247 56.0964L64.3028 64.115C64.2735 64.1251 64.2412 64.1233 64.2132 64.1099C64.1853 64.0965 64.1638 64.0728 64.1536 64.0438L62.4877 59.3209C62.4781 59.292 62.4803 59.2605 62.4938 59.2331C62.5073 59.2056 62.531 59.1844 62.56 59.1739L85.9819 51.1552C86.0113 51.1452 86.0435 51.147 86.0715 51.1604C86.0995 51.1737 86.1209 51.1975 86.1311 51.2264L87.797 55.9494C87.8072 55.9783 87.8053 56.0101 87.7918 56.0376C87.7782 56.0652 87.7541 56.0864 87.7247 56.0964ZM64.3366 63.8589L87.537 55.9161L85.9481 51.4114L62.7477 59.3542L64.3366 63.8589Z" fill="#263238"/>
<path d="M67.4662 58.7021L63.343 60.0985C63.3136 60.1085 63.2814 60.1064 63.2534 60.0928C63.2255 60.0793 63.2042 60.0552 63.1941 60.026C63.1841 59.9969 63.1861 59.9649 63.1999 59.9372C63.2136 59.9096 63.2378 59.8884 63.2672 59.8784L67.3904 58.482C67.4198 58.472 67.4521 58.4741 67.48 58.4877C67.5079 58.5012 67.5292 58.5253 67.5393 58.5544C67.5493 58.5836 67.5473 58.6156 67.5336 58.6433C67.5199 58.6709 67.4956 58.6921 67.4662 58.7021Z" fill="#263238"/>
<path d="M69.8377 59.3667L69.2777 59.5594C69.2484 59.5688 69.2164 59.5667 69.1886 59.5535C69.1608 59.5403 69.1392 59.5169 69.1285 59.4884C69.1182 59.4594 69.1201 59.4277 69.1336 59.4001C69.1471 59.3725 69.1712 59.3513 69.2005 59.3412L69.7605 59.1486C69.7899 59.1385 69.8221 59.1403 69.8501 59.1536C69.8781 59.1669 69.8995 59.1907 69.9098 59.2196C69.92 59.2485 69.9182 59.2803 69.9047 59.3079C69.8912 59.3355 69.8671 59.3566 69.8377 59.3667Z" fill="#263238"/>
<path d="M68.3418 59.8748L63.7258 61.4378C63.6963 61.4477 63.6641 61.4457 63.6362 61.4321C63.6083 61.4185 63.587 61.3944 63.5769 61.3652C63.5669 61.336 63.5689 61.3041 63.5827 61.2764C63.5964 61.2487 63.6206 61.2275 63.65 61.2176L68.266 59.6546C68.2954 59.6446 68.3277 59.6467 68.3556 59.6603C68.3835 59.6739 68.4048 59.6979 68.4148 59.7271C68.4249 59.7563 68.4228 59.7883 68.4091 59.816C68.3954 59.8437 68.3712 59.8648 68.3418 59.8748Z" fill="#263238"/>
<path d="M66.1798 62.1164L64.281 62.7615C64.2516 62.7715 64.2193 62.7696 64.1914 62.7561C64.1634 62.7427 64.142 62.7188 64.1319 62.6897C64.1218 62.6607 64.1238 62.6288 64.1374 62.6012C64.1511 62.5736 64.1752 62.5525 64.2047 62.5425L66.1034 61.8974C66.1329 61.8874 66.1651 61.8893 66.1931 61.9028C66.221 61.9163 66.2424 61.9402 66.2525 61.9692C66.2626 61.9982 66.2607 62.0301 66.247 62.0577C66.2334 62.0853 66.2092 62.1064 66.1798 62.1164Z" fill="#263238"/>
<path d="M81.4486 53.0811C81.5717 54.678 82.1171 56.2148 83.0302 57.5372L92.2902 54.3195C92.2902 54.3195 90.2978 51.8367 90.7085 49.8635L81.4486 53.0811Z" fill="white"/>
<path d="M92.3297 54.4263L83.0711 57.6452C83.0466 57.6531 83.0201 57.6528 82.9957 57.6445C82.9712 57.6361 82.9502 57.6202 82.9357 57.599C82.0129 56.2569 81.4602 54.6997 81.3322 53.0812C81.3319 53.0572 81.3392 53.0336 81.3531 53.0138C81.367 52.9941 81.3867 52.979 81.4096 52.9709L90.6681 49.752C90.6874 49.7454 90.7081 49.7439 90.7282 49.7477C90.7482 49.7515 90.7669 49.7604 90.7824 49.7736C90.7981 49.7872 90.81 49.8047 90.8169 49.8242C90.8239 49.8437 90.8256 49.8646 90.822 49.885C90.4265 51.7822 92.3603 54.2193 92.3727 54.2542C92.3844 54.269 92.3922 54.2864 92.3958 54.3048C92.3993 54.3232 92.3983 54.3421 92.393 54.3601C92.3876 54.3749 92.3792 54.3884 92.3683 54.3998C92.3574 54.4112 92.3443 54.4202 92.3297 54.4263ZM83.0797 57.3968L92.0998 54.2608C91.708 53.7368 90.3344 51.7602 90.5602 50.0349L81.5732 53.1594C81.714 54.6734 82.2315 56.1292 83.0797 57.3968Z" fill="#263238"/>
<mask id="mask2_1135_3184" style="mask-type:luminance" maskUnits="userSpaceOnUse" x="81" y="49" width="12" height="9">
<mask id="mask3_1135_3184" style="mask-type:luminance" maskUnits="userSpaceOnUse" x="81" y="49" width="12" height="9">
<path d="M81.4466 53.0946C81.5936 54.6874 82.1613 56.2193 83.093 57.5364L92.2902 54.3049C92.2902 54.3049 90.2634 51.8326 90.6438 49.8631L81.4466 53.0946Z" fill="white"/>
</mask>
<g mask="url(#mask3_1135_3184)">
<path d="M92.3304 54.4074L83.132 57.6439C83.1076 57.6518 83.0811 57.6516 83.0566 57.6434C83.0321 57.6351 83.0109 57.6193 82.9961 57.5982C82.0558 56.2627 81.482 54.7116 81.3313 53.0983C81.3307 53.0743 81.3376 53.0508 81.3512 53.0311C81.3647 53.0113 81.3843 52.9963 81.407 52.9881L90.6054 49.7516C90.6245 49.745 90.6452 49.7435 90.6653 49.7472C90.6853 49.7509 90.7041 49.7598 90.7198 49.7728C90.7357 49.7864 90.7478 49.8037 90.755 49.8232C90.7622 49.8426 90.7642 49.8635 90.7608 49.8838C90.3928 51.7766 92.3581 54.2009 92.3709 54.2357C92.3827 54.2504 92.3909 54.2677 92.3946 54.286C92.3984 54.3044 92.3977 54.3233 92.3926 54.3412C92.3875 54.356 92.3793 54.3694 92.3686 54.3808C92.3579 54.3922 92.3448 54.4013 92.3304 54.4074ZM83.137 57.3962L92.0985 54.243C91.6999 53.7218 90.3005 51.7549 90.5016 50.034L81.573 53.1756C81.7349 54.6847 82.2723 56.1348 83.137 57.3962Z" fill="white"/>
</g>
</mask>
<g mask="url(#mask2_1135_3184)">
<g opacity="0.24">
<path d="M81.4506 53.0982C81.596 54.6899 82.1622 56.2204 83.0925 57.5362L92.2941 54.301C92.2941 54.301 90.2697 51.8315 90.6522 49.863L81.4506 53.0982Z" fill="black"/>
<path d="M92.3304 54.4066L83.132 57.6439C83.1076 57.6518 83.0811 57.6516 83.0566 57.6434C83.0321 57.6351 83.0109 57.6193 82.9961 57.5983C82.0558 56.2631 81.482 54.7122 81.3313 53.0992C81.3307 53.0752 81.3376 53.0516 81.3512 53.0319C81.3647 53.0121 81.3843 52.9971 81.407 52.9889L90.6053 49.7517C90.6245 49.745 90.6452 49.7435 90.6653 49.7472C90.6853 49.7509 90.7041 49.7598 90.7198 49.7729C90.7357 49.7864 90.7478 49.8037 90.755 49.8232C90.7622 49.8426 90.7642 49.8635 90.7608 49.8838C90.3928 51.7764 92.3581 54.2002 92.3709 54.235C92.3827 54.2497 92.3909 54.2669 92.3946 54.2853C92.3984 54.3036 92.3977 54.3225 92.3926 54.3405C92.3875 54.3552 92.3793 54.3687 92.3686 54.3801C92.3579 54.3915 92.3448 54.4005 92.3304 54.4066ZM83.137 57.3962L92.0985 54.2423C91.6999 53.7212 90.3005 51.7548 90.5016 50.0341L81.573 53.1764C81.7349 54.6853 82.2723 56.1351 83.137 57.3962Z" fill="#263238"/>
</g>
</g>
<path d="M64.2332 63.0363L63.0983 59.808C63.0704 59.7287 63.0757 59.6416 63.1129 59.5661C63.1501 59.4905 63.2163 59.4326 63.2968 59.4051L91.1661 49.8915C91.2248 49.8715 91.2731 49.8292 91.3003 49.774C91.3275 49.7189 91.3313 49.6554 91.3109 49.5974C91.2906 49.5395 91.2477 49.4919 91.1917 49.4652C91.1357 49.4384 91.0713 49.4346 91.0125 49.4547L62.3896 59.2256C62.3091 59.2531 62.2429 59.3109 62.2057 59.3865C62.1685 59.4621 62.1632 59.5491 62.1911 59.6285L63.6438 63.7609C63.6888 63.889 63.7836 63.9941 63.9073 64.0533C64.031 64.1125 64.1735 64.1208 64.3034 64.0764L92.7401 54.3691C92.7988 54.349 92.8471 54.3068 92.8743 54.2516C92.9015 54.1965 92.9053 54.133 92.8849 54.075C92.8646 54.0171 92.8217 53.9695 92.7657 53.9427C92.7098 53.916 92.6453 53.9122 92.5865 53.9323L64.9035 63.3823C64.8365 63.4053 64.7654 63.4146 64.6947 63.4094C64.6239 63.4043 64.555 63.3849 64.4922 63.3525C64.4293 63.32 64.3739 63.2752 64.3294 63.2208C64.2848 63.1664 64.2521 63.1036 64.2332 63.0363Z" fill="#263238"/>
<path d="M92.7704 54.4605L64.3359 64.1713C64.1766 64.2257 64.0018 64.2156 63.8502 64.143C63.6985 64.0705 63.5822 63.9416 63.527 63.7846L62.0737 59.6528C62.0549 59.5991 62.0469 59.5424 62.0503 59.4857C62.0537 59.429 62.0684 59.3736 62.0935 59.3225C62.1187 59.2715 62.1538 59.2258 62.1969 59.1881C62.2399 59.1504 62.2901 59.1214 62.3445 59.1028L90.9653 49.3284C91.011 49.3086 91.0603 49.2984 91.1102 49.2983C91.1601 49.2982 91.2095 49.3084 91.2552 49.328C91.3009 49.3477 91.342 49.3765 91.3759 49.4125C91.4098 49.4486 91.4357 49.4912 91.452 49.5377C91.4684 49.5841 91.4748 49.6334 91.4708 49.6824C91.4669 49.7314 91.4527 49.7791 91.4291 49.8224C91.4055 49.8657 91.3731 49.9038 91.3339 49.9342C91.2946 49.9645 91.2494 49.9866 91.2011 49.9989L63.334 59.5159C63.2828 59.5334 63.2408 59.5702 63.2172 59.6181C63.1935 59.6661 63.1902 59.7214 63.2079 59.7718L64.3433 62.9995C64.3786 63.0982 64.452 63.1791 64.5476 63.2248C64.6431 63.2705 64.7531 63.2772 64.8536 63.2435L92.5346 53.79C92.5803 53.7703 92.6296 53.76 92.6795 53.7599C92.7294 53.7599 92.7788 53.77 92.8245 53.7896C92.8702 53.8093 92.9113 53.8381 92.9452 53.8742C92.9791 53.9103 93.005 53.9529 93.0213 53.9993C93.0377 54.0458 93.0441 54.095 93.0401 54.144C93.0362 54.1931 93.022 54.2407 92.9984 54.284C92.9748 54.3274 92.9424 54.3654 92.9032 54.3958C92.8639 54.4262 92.8187 54.4482 92.7704 54.4605ZM62.4302 59.3182C62.3791 59.3357 62.3371 59.3724 62.3134 59.4204C62.2898 59.4684 62.2865 59.5236 62.3042 59.574L63.7575 63.7059C63.7929 63.8046 63.8663 63.8855 63.9619 63.9312C64.0574 63.9769 64.1674 63.9836 64.2679 63.9499L92.6936 54.2421C92.7114 54.2386 92.7281 54.2314 92.7428 54.221C92.7575 54.2106 92.7697 54.1972 92.7787 54.1817C92.7877 54.1663 92.7932 54.1491 92.7949 54.1313C92.7966 54.1136 92.7944 54.0957 92.7885 54.0788C92.7825 54.062 92.773 54.0466 92.7606 54.0337C92.7481 54.0208 92.733 54.0107 92.7162 54.004C92.6994 53.9973 92.6814 53.9943 92.6633 53.995C92.6453 53.9958 92.6276 54.0004 92.6114 54.0084L64.9304 63.4619C64.7711 63.5163 64.5964 63.5061 64.4447 63.4336C64.2931 63.3611 64.1768 63.2322 64.1216 63.0752L62.9863 59.8475C62.9674 59.7938 62.9595 59.7371 62.9629 59.6804C62.9663 59.6237 62.981 59.5683 63.0061 59.5172C63.0313 59.4662 63.0664 59.4205 63.1095 59.3828C63.1525 59.3451 63.2027 59.3161 63.2571 59.2975L91.1243 49.7805C91.142 49.777 91.1588 49.7698 91.1735 49.7594C91.1882 49.749 91.2004 49.7356 91.2094 49.7201C91.2184 49.7046 91.2239 49.6874 91.2256 49.6697C91.2273 49.652 91.2251 49.6341 91.2192 49.6172C91.2132 49.6004 91.2037 49.585 91.1913 49.5721C91.1788 49.5592 91.1637 49.549 91.1469 49.5424C91.1301 49.5357 91.1121 49.5326 91.094 49.5334C91.0759 49.5342 91.0582 49.5387 91.0421 49.5468L62.4302 59.3182Z" fill="#263238"/>
<path d="M66.1047 68.4798C66.0777 67.8798 65.8929 65.4302 64.6433 64.2466L91.6143 55.0477L93.0979 59.2734L66.1047 68.4798Z" fill="white"/>
<path d="M93.1327 59.3809L66.144 68.5906C66.1268 68.5963 66.1085 68.598 66.0905 68.5957C66.0724 68.5934 66.0552 68.587 66.04 68.5772C66.0246 68.5669 66.0119 68.5531 66.0028 68.5371C65.9937 68.5211 65.9886 68.5032 65.9878 68.4849C65.9673 68.0026 65.7954 65.4999 64.5583 64.3246C64.5432 64.3114 64.5318 64.2946 64.5253 64.2759C64.5187 64.2571 64.5171 64.237 64.5207 64.2175C64.525 64.198 64.5343 64.18 64.5478 64.1651C64.5612 64.1502 64.5784 64.139 64.5976 64.1326L91.5685 54.9289C91.5979 54.9189 91.6301 54.9208 91.6581 54.9342C91.6861 54.9476 91.7075 54.9714 91.7177 55.0003L93.2021 59.2251C93.2086 59.2398 93.212 59.2556 93.212 59.2716C93.212 59.2876 93.2086 59.3034 93.2021 59.318C93.1956 59.3327 93.186 59.3458 93.1741 59.3567C93.1622 59.3675 93.1481 59.3757 93.1327 59.3809ZM66.2136 68.3222L92.9451 59.2003L91.5375 55.194L64.8569 64.2985C65.9284 65.4545 66.1631 67.5003 66.2136 68.3222Z" fill="#263238"/>
<path d="M81.1002 59.7946L76.9836 61.1888C76.9542 61.1988 76.922 61.1968 76.8941 61.1832C76.8662 61.1696 76.8448 61.1456 76.8348 61.1164C76.8247 61.0872 76.8268 61.0553 76.8405 61.0276C76.8542 60.9999 76.8784 60.9787 76.9078 60.9688L81.0244 59.5746C81.0538 59.5646 81.086 59.5666 81.1139 59.5802C81.1418 59.5938 81.1632 59.6178 81.1732 59.647C81.1833 59.6762 81.1812 59.7082 81.1675 59.7358C81.1538 59.7635 81.1296 59.7847 81.1002 59.7946Z" fill="#263238"/>
<path d="M76.0526 62.9687L75.4926 63.1613C75.4632 63.1714 75.431 63.1696 75.403 63.1563C75.375 63.1429 75.3535 63.1192 75.3433 63.0903C75.3331 63.0614 75.3349 63.0296 75.3484 63.002C75.3619 62.9744 75.386 62.9532 75.4154 62.9431L75.9753 62.7505C76.0047 62.7404 76.0369 62.7422 76.0649 62.7555C76.0929 62.7689 76.1144 62.7926 76.1246 62.8215C76.1349 62.8504 76.133 62.8822 76.1195 62.9098C76.106 62.9374 76.0819 62.9586 76.0526 62.9687Z" fill="#263238"/>
<path d="M81.6096 61.0913L76.9914 62.6551C76.962 62.665 76.9297 62.663 76.9018 62.6494C76.8739 62.6358 76.8526 62.6117 76.8426 62.5825C76.8325 62.5533 76.8346 62.5214 76.8483 62.4937C76.862 62.466 76.8862 62.4448 76.9156 62.4348L81.5339 60.8711C81.5633 60.8618 81.5953 60.8641 81.623 60.8777C81.6508 60.8912 81.6721 60.9148 81.6827 60.9437C81.6927 60.9729 81.6907 61.0048 81.677 61.0325C81.6633 61.0602 81.639 61.0814 81.6096 61.0913Z" fill="#263238"/>
<path d="M81.9688 62.4728L80.0701 63.118C80.0406 63.128 80.0084 63.126 79.9805 63.1126C79.9525 63.0991 79.9311 63.0752 79.921 63.0462C79.9109 63.0171 79.9128 62.9853 79.9265 62.9577C79.9401 62.9301 79.9643 62.909 79.9937 62.899L81.8925 62.2538C81.9219 62.2438 81.9542 62.2458 81.9821 62.2592C82.0101 62.2727 82.0315 62.2966 82.0416 62.3256C82.0517 62.3547 82.0497 62.3865 82.0361 62.4141C82.0224 62.4417 81.9983 62.4628 81.9688 62.4728Z" fill="#263238"/>
<path d="M82.2056 62.5126L81.0707 59.2844C81.0428 59.205 80.9841 59.1398 80.9074 59.1032C80.8307 59.0665 80.7424 59.0613 80.6619 59.0888L64.1682 64.7192C64.1094 64.7393 64.0449 64.7355 63.989 64.7087C63.933 64.682 63.8901 64.6344 63.8698 64.5765C63.8494 64.5185 63.8532 64.455 63.8804 64.3998C63.9076 64.3447 63.9558 64.3024 64.0146 64.2824L92.6286 54.5145C92.7092 54.487 92.7975 54.4922 92.8742 54.5288C92.9508 54.5655 93.0096 54.6307 93.0375 54.7101L94.4902 58.8425C94.5352 58.9706 94.5267 59.111 94.4667 59.2328C94.4067 59.3547 94.2999 59.4481 94.17 59.4925L65.7422 69.1968C65.6834 69.2169 65.619 69.2131 65.563 69.1863C65.507 69.1595 65.4641 69.112 65.4438 69.054C65.4234 68.9961 65.4272 68.9326 65.4544 68.8774C65.4816 68.8223 65.5299 68.78 65.5886 68.7599L81.8961 63.1931C81.9632 63.1704 82.0248 63.1343 82.0772 63.0871C82.1295 63.04 82.1715 62.9827 82.2005 62.9189C82.2295 62.8552 82.2449 62.7862 82.2458 62.7163C82.2467 62.6464 82.233 62.5771 82.2056 62.5126Z" fill="#263238"/>
<path d="M94.2031 59.5838L65.7775 69.2917C65.7318 69.3115 65.6824 69.3217 65.6326 69.3218C65.5827 69.3219 65.5333 69.3118 65.4876 69.2921C65.4418 69.2724 65.4007 69.2437 65.3669 69.2076C65.333 69.1715 65.3071 69.1289 65.2907 69.0824C65.2744 69.036 65.268 68.9867 65.2719 68.9377C65.2759 68.8887 65.2901 68.841 65.3137 68.7977C65.3372 68.7544 65.3697 68.7163 65.4089 68.686C65.4481 68.6556 65.4933 68.6336 65.5416 68.6213L81.8479 63.0524C81.948 63.0175 82.0302 62.9452 82.0765 62.851C82.1229 62.7569 82.1297 62.6486 82.0955 62.5495L80.9602 59.3218C80.9441 59.272 80.909 59.2304 80.8623 59.2057C80.8156 59.1811 80.761 59.1752 80.7101 59.1895L64.2066 64.8257C64.1609 64.8455 64.1116 64.8558 64.0617 64.8558C64.0118 64.8559 63.9624 64.8458 63.9167 64.8261C63.871 64.8065 63.8299 64.7777 63.796 64.7416C63.7621 64.7055 63.7362 64.6629 63.7199 64.6165C63.7035 64.57 63.6971 64.5207 63.7011 64.4717C63.705 64.4227 63.7192 64.3751 63.7428 64.3317C63.7664 64.2884 63.7988 64.2504 63.838 64.22C63.8773 64.1896 63.9225 64.1676 63.9708 64.1553L92.5826 54.3838C92.6925 54.3462 92.8131 54.3533 92.9177 54.4033C93.0224 54.4534 93.1026 54.5423 93.1407 54.6506L94.594 58.7825C94.6218 58.8604 94.6337 58.9429 94.629 59.0253C94.6244 59.1078 94.6033 59.1885 94.567 59.2629C94.5307 59.3373 94.4799 59.4039 94.4174 59.459C94.355 59.5141 94.2822 59.5565 94.2031 59.5838ZM65.6184 68.8397C65.6007 68.8431 65.5839 68.8503 65.5693 68.8608C65.5546 68.8712 65.5423 68.8846 65.5334 68.9C65.5244 68.9155 65.5189 68.9327 65.5172 68.9504C65.5155 68.9682 65.5177 68.9861 65.5236 69.0029C65.5295 69.0198 65.539 69.0351 65.5515 69.0481C65.564 69.061 65.5791 69.0711 65.5959 69.0778C65.6126 69.0844 65.6307 69.0875 65.6487 69.0867C65.6668 69.086 65.6845 69.0814 65.7006 69.0733L94.1263 59.3654C94.2264 59.3306 94.3086 59.2582 94.3549 59.1641C94.4013 59.0699 94.4081 58.9616 94.3739 58.8625L92.9206 54.7307C92.9029 54.6803 92.8656 54.6389 92.8169 54.6156C92.7682 54.5923 92.7121 54.5891 92.6609 54.6065L64.0491 64.378C64.0314 64.3815 64.0146 64.3887 63.9999 64.3991C63.9852 64.4096 63.973 64.423 63.964 64.4384C63.955 64.4539 63.9495 64.4711 63.9478 64.4888C63.9462 64.5066 63.9483 64.5245 63.9543 64.5413C63.9602 64.5581 63.9697 64.5735 63.9822 64.5865C63.9946 64.5994 64.0098 64.6095 64.0265 64.6162C64.0433 64.6228 64.0613 64.6259 64.0794 64.6251C64.0975 64.6244 64.1152 64.6198 64.1313 64.6117L80.6348 58.9754C80.7447 58.9379 80.8653 58.9449 80.97 58.995C81.0746 59.045 81.1548 59.134 81.1929 59.2423L82.3282 62.47C82.3828 62.627 82.3722 62.7989 82.2986 62.9482C82.2251 63.0974 82.0947 63.212 81.9358 63.267L65.6184 68.8397Z" fill="#263238"/>
<path d="M67.8031 73.5093C67.7769 72.9115 67.5921 70.4618 66.3425 69.2782L93.3135 60.0793L94.7963 64.3028L67.8031 73.5093Z" fill="white"/>
<path d="M94.8312 64.4104L67.8425 73.62C67.8253 73.6263 67.8069 73.6283 67.7888 73.626C67.7707 73.6237 67.7534 73.617 67.7385 73.6066C67.7232 73.5967 67.7106 73.5834 67.7017 73.5677C67.6927 73.552 67.6877 73.5345 67.687 73.5165C67.6665 73.0343 67.4939 70.5293 66.2575 69.3562C66.2424 69.343 66.231 69.3263 66.2245 69.3075C66.2179 69.2888 66.2163 69.2687 66.2199 69.2491C66.2242 69.2296 66.2335 69.2116 66.247 69.1967C66.2604 69.1818 66.2776 69.1706 66.2968 69.1642L93.2677 59.9606C93.2971 59.9506 93.3294 59.9525 93.3573 59.9659C93.3853 59.9793 93.4068 60.003 93.4169 60.032L94.9006 64.2546C94.9071 64.2693 94.9104 64.2851 94.9104 64.3011C94.9104 64.3171 94.9071 64.3329 94.9005 64.3475C94.894 64.3622 94.8845 64.3753 94.8725 64.3861C94.8606 64.397 94.8465 64.4052 94.8312 64.4104ZM67.912 73.3517L94.6436 64.2298L93.2367 60.2256L66.5561 69.3301C67.6261 70.4818 67.8616 72.5298 67.912 73.3517Z" fill="#263238"/>
<path d="M82.7982 64.8589L78.675 66.2554C78.6456 66.2653 78.6134 66.2633 78.5855 66.2497C78.5576 66.2361 78.5362 66.2121 78.5262 66.1829C78.5161 66.1537 78.5182 66.1218 78.5319 66.0941C78.5456 66.0664 78.5698 66.0453 78.5992 66.0353L82.718 64.6404C82.7474 64.631 82.7794 64.6333 82.8071 64.6468C82.8349 64.6604 82.8563 64.684 82.8669 64.7128C82.8767 64.7412 82.875 64.7723 82.8622 64.7996C82.8494 64.8268 82.8265 64.8481 82.7982 64.8589Z" fill="#263238"/>
<path d="M77.7479 68.0269L77.1879 68.2195C77.1585 68.2296 77.1263 68.2278 77.0983 68.2145C77.0703 68.2012 77.0489 68.1774 77.0386 68.1485C77.0284 68.1196 77.0302 68.0878 77.0437 68.0602C77.0572 68.0326 77.0813 68.0115 77.1107 68.0014L77.6707 67.8087C77.7 67.7986 77.7322 67.8004 77.7602 67.8138C77.7882 67.8271 77.8097 67.8508 77.8199 67.8797C77.8302 67.9087 77.8283 67.9404 77.8148 67.968C77.8013 67.9956 77.7772 68.0168 77.7479 68.0269Z" fill="#263238"/>
<path d="M83.3049 66.1498L78.6867 67.7135C78.6573 67.7235 78.6251 67.7215 78.5971 67.7078C78.5692 67.6942 78.5479 67.6702 78.5379 67.641C78.5278 67.6118 78.5299 67.5798 78.5436 67.5521C78.5573 67.5244 78.5815 67.5033 78.611 67.4933L83.2292 65.9296C83.2586 65.9196 83.2908 65.9217 83.3187 65.9353C83.3466 65.9489 83.368 65.9729 83.378 66.0021C83.388 66.0313 83.386 66.0633 83.3723 66.091C83.3586 66.1187 83.3343 66.1399 83.3049 66.1498Z" fill="#263238"/>
<path d="M83.6681 67.54L81.7693 68.1851C81.7399 68.1951 81.7076 68.1932 81.6797 68.1797C81.6517 68.1662 81.6303 68.1423 81.6202 68.1133C81.6101 68.0843 81.612 68.0524 81.6257 68.0248C81.6393 67.9972 81.6635 67.9761 81.6929 67.9661L83.5917 67.3209C83.6211 67.311 83.6534 67.3129 83.6813 67.3264C83.7093 67.3398 83.7307 67.3637 83.7408 67.3928C83.7509 67.4218 83.7489 67.4536 83.7353 67.4813C83.7217 67.5089 83.6975 67.53 83.6681 67.54Z" fill="#263238"/>
<path d="M83.908 67.5419L82.7739 64.3158C82.746 64.2365 82.6873 64.1713 82.6106 64.1346C82.5339 64.0979 82.4456 64.0928 82.3651 64.1202L65.8713 69.7505C65.8125 69.7705 65.7481 69.7668 65.6921 69.74C65.6361 69.7132 65.5932 69.6656 65.5729 69.6077C65.5525 69.5498 65.5563 69.4862 65.5835 69.4311C65.6107 69.3759 65.659 69.3337 65.7178 69.3136L94.3319 59.5461C94.4125 59.5186 94.5008 59.5237 94.5775 59.5604C94.6541 59.5971 94.7129 59.6623 94.7408 59.7416L96.1873 63.8567C96.2099 63.9202 96.2196 63.9874 96.2158 64.0546C96.212 64.1218 96.1948 64.1876 96.1651 64.2481C96.1354 64.3087 96.0939 64.363 96.0429 64.4077C95.9919 64.4524 95.9324 64.4868 95.8679 64.5088L67.4399 74.2128C67.3811 74.2329 67.3166 74.2291 67.2607 74.2023C67.2047 74.1756 67.1618 74.128 67.1415 74.0701C67.1211 74.0121 67.1249 73.9486 67.1521 73.8935C67.1793 73.8383 67.2275 73.796 67.2863 73.776L83.5939 68.2093C83.6596 68.1866 83.72 68.1512 83.7715 68.1051C83.823 68.059 83.8647 68.0032 83.8939 67.941C83.9232 67.8787 83.9395 67.8114 83.942 67.7428C83.9444 67.6743 83.9328 67.606 83.908 67.5419Z" fill="#407BFF"/>
<path d="M95.9047 64.6155L67.479 74.3234C67.4333 74.3432 67.384 74.3534 67.3341 74.3535C67.2842 74.3535 67.2349 74.3434 67.1891 74.3238C67.1434 74.3041 67.1023 74.2753 67.0684 74.2392C67.0346 74.2032 67.0086 74.1605 66.9923 74.1141C66.976 74.0677 66.9696 74.0184 66.9735 73.9694C66.9775 73.9204 66.9917 73.8727 67.0152 73.8294C67.0388 73.786 67.0712 73.748 67.1105 73.7176C67.1497 73.6873 67.1949 73.6652 67.2432 73.6529L83.5495 68.0841C83.65 68.0491 83.7324 67.9763 83.7786 67.8817C83.8249 67.7871 83.8313 67.6783 83.7964 67.579L82.6618 64.3535C82.6441 64.3031 82.6068 64.2617 82.5581 64.2384C82.5094 64.2151 82.4533 64.2118 82.4022 64.2293L65.9097 69.8617C65.864 69.8815 65.8147 69.8918 65.7648 69.8919C65.7149 69.8919 65.6656 69.8818 65.6198 69.8621C65.5741 69.8425 65.533 69.8137 65.4991 69.7776C65.4652 69.7415 65.4393 69.6989 65.423 69.6525C65.4066 69.606 65.4002 69.5567 65.4042 69.5077C65.4081 69.4587 65.4224 69.4111 65.4459 69.3677C65.4695 69.3244 65.5019 69.2864 65.5412 69.256C65.5804 69.2256 65.6256 69.2036 65.6739 69.1913L94.2858 59.4199C94.3402 59.4013 94.3978 59.3935 94.4553 59.3968C94.5128 59.4002 94.5691 59.4146 94.6209 59.4394C94.6727 59.4642 94.7191 59.4988 94.7574 59.5412C94.7956 59.5836 94.825 59.6331 94.8439 59.6867L96.2964 63.8164C96.3517 63.9736 96.3415 64.1459 96.2681 64.2957C96.1947 64.4455 96.064 64.5605 95.9047 64.6155ZM67.32 73.8713C67.3023 73.8748 67.2855 73.882 67.2708 73.8924C67.2562 73.9028 67.2439 73.9162 67.2349 73.9317C67.2259 73.9472 67.2204 73.9643 67.2187 73.9821C67.2171 73.9998 67.2193 74.0177 67.2252 74.0346C67.2311 74.0514 67.2406 74.0668 67.2531 74.0797C67.2655 74.0926 67.2807 74.1028 67.2974 74.1094C67.3142 74.1161 67.3322 74.1192 67.3503 74.1184C67.3684 74.1176 67.3861 74.1131 67.4022 74.105L95.8279 64.3972C95.9284 64.3622 96.0108 64.2894 96.0571 64.1948C96.1033 64.1002 96.1097 63.9913 96.0748 63.8921L94.6222 59.7624C94.6045 59.712 94.5672 59.6706 94.5185 59.6474C94.4698 59.6241 94.4137 59.6208 94.3626 59.6383L65.7507 69.4097C65.733 69.4132 65.7162 69.4204 65.7015 69.4308C65.6868 69.4412 65.6746 69.4546 65.6656 69.4701C65.6566 69.4855 65.6511 69.5027 65.6494 69.5205C65.6477 69.5382 65.6499 69.5561 65.6559 69.5729C65.6618 69.5898 65.6713 69.6052 65.6838 69.6181C65.6962 69.631 65.7114 69.6411 65.7281 69.6478C65.7449 69.6545 65.7629 69.6575 65.781 69.6568C65.7991 69.656 65.8168 69.6514 65.8329 69.6434L82.3364 64.0071C82.4463 63.9696 82.5669 63.9766 82.6716 64.0267C82.7762 64.0767 82.8564 64.1657 82.8945 64.274L84.0291 67.4995C84.0844 67.6567 84.0742 67.829 84.0008 67.9788C83.9273 68.1286 83.7967 68.2436 83.6374 68.2987L67.32 73.8713Z" fill="#263238"/>
<path d="M62.7016 58.4164C62.6754 57.8186 62.4906 55.369 61.2409 54.1853L88.212 44.9864L89.6948 49.21L62.7016 58.4164Z" fill="white"/>
<path d="M89.7296 49.3175L62.7409 58.5271C62.7238 58.5334 62.7053 58.5354 62.6872 58.5331C62.6691 58.5308 62.6518 58.5241 62.6369 58.5137C62.6217 58.5038 62.6091 58.4905 62.6001 58.4748C62.5912 58.4591 62.5861 58.4416 62.5854 58.4236C62.5649 57.9414 62.3923 55.4364 61.1559 54.2633C61.1408 54.2501 61.1295 54.2334 61.1229 54.2146C61.1163 54.1959 61.1147 54.1758 61.1183 54.1562C61.1226 54.1367 61.1319 54.1187 61.1454 54.1038C61.1589 54.0889 61.176 54.0777 61.1952 54.0713L88.1662 44.8677C88.1956 44.8577 88.2278 44.8596 88.2558 44.873C88.2838 44.8864 88.3052 44.9102 88.3154 44.9391L89.799 49.1617C89.8055 49.1764 89.8089 49.1922 89.8089 49.2082C89.8089 49.2242 89.8055 49.24 89.799 49.2546C89.7925 49.2693 89.7829 49.2824 89.771 49.2932C89.759 49.3041 89.745 49.3123 89.7296 49.3175ZM62.8105 58.2588L89.542 49.1369L88.1351 45.1327L61.4546 54.2372C62.5245 55.3889 62.76 57.4369 62.8105 58.2588Z" fill="#263238"/>
<path d="M77.7586 49.7243L73.6399 51.1193C73.6104 51.1292 73.5782 51.1272 73.5503 51.1136C73.5224 51.1 73.5011 51.076 73.491 51.0468C73.481 51.0176 73.483 50.9857 73.4967 50.958C73.5104 50.9303 73.5347 50.9092 73.5641 50.8992L77.6828 49.5042C77.7123 49.4943 77.7445 49.4963 77.7724 49.5099C77.8003 49.5235 77.8216 49.5475 77.8317 49.5767C77.8418 49.6059 77.8397 49.6378 77.826 49.6655C77.8123 49.6932 77.7881 49.7143 77.7586 49.7243Z" fill="#263238"/>
<path d="M72.7088 52.8902L72.1488 53.0828C72.1195 53.0929 72.0873 53.0911 72.0593 53.0778C72.0313 53.0645 72.0098 53.0407 71.9996 53.0118C71.9899 52.9828 71.9921 52.9513 72.0055 52.9239C72.0189 52.8965 72.0426 52.8752 72.0716 52.8646L72.6316 52.672C72.6609 52.6619 72.6932 52.6637 72.7212 52.677C72.7492 52.6904 72.7706 52.7141 72.7809 52.743C72.7911 52.772 72.7893 52.8037 72.7758 52.8313C72.7623 52.8589 72.7382 52.8801 72.7088 52.8902Z" fill="#263238"/>
<path d="M78.2658 51.013L73.6476 52.5767C73.6182 52.5866 73.586 52.5846 73.5581 52.571C73.5302 52.5574 73.5088 52.5334 73.4988 52.5041C73.4894 52.4749 73.4917 52.4432 73.5054 52.4157C73.519 52.3882 73.5428 52.3669 73.5719 52.3565L78.1901 50.7928C78.2195 50.7828 78.2518 50.7848 78.2797 50.7985C78.3076 50.8121 78.3289 50.8361 78.3389 50.8653C78.349 50.8945 78.3469 50.9265 78.3332 50.9542C78.3195 50.9819 78.2953 51.003 78.2658 51.013Z" fill="#263238"/>
<path d="M78.6312 52.4025L76.7302 53.0484C76.7008 53.0584 76.6686 53.0565 76.6406 53.043C76.6126 53.0295 76.5913 53.0056 76.5811 52.9766C76.5716 52.9475 76.5739 52.916 76.5875 52.8885C76.601 52.8611 76.6248 52.8399 76.6539 52.8294L78.5549 52.1835C78.5843 52.1741 78.6163 52.1764 78.6441 52.1897C78.6719 52.2031 78.6933 52.2266 78.704 52.2553C78.7141 52.2844 78.7121 52.3162 78.6985 52.3438C78.6848 52.3714 78.6606 52.3925 78.6312 52.4025Z" fill="#263238"/>
<path d="M78.8025 52.449L77.6685 49.2229C77.6406 49.1436 77.5818 49.0784 77.5052 49.0417C77.4285 49.005 77.3402 48.9999 77.2596 49.0273L60.7658 54.6576C60.7071 54.6776 60.6426 54.6739 60.5866 54.6471C60.5306 54.6203 60.4878 54.5727 60.4674 54.5148C60.447 54.4569 60.4509 54.3933 60.478 54.3382C60.5052 54.283 60.5535 54.2408 60.6123 54.2207L89.2265 44.4532C89.307 44.4257 89.3953 44.4308 89.472 44.4675C89.5487 44.5042 89.6074 44.5694 89.6353 44.6487L91.0818 48.7638C91.1045 48.8273 91.1142 48.8945 91.1103 48.9617C91.1065 49.0289 91.0893 49.0947 91.0596 49.1552C91.0299 49.2158 90.9884 49.2701 90.9374 49.3148C90.8864 49.3595 90.8269 49.3939 90.7624 49.4159L62.3344 59.1199C62.2756 59.14 62.2112 59.1362 62.1552 59.1095C62.0992 59.0827 62.0563 59.0351 62.036 58.9772C62.0156 58.9192 62.0194 58.8557 62.0466 58.8006C62.0738 58.7454 62.1221 58.7031 62.1809 58.6831L78.4884 53.1164C78.5541 53.0937 78.6145 53.0583 78.666 53.0122C78.7176 52.9661 78.7592 52.9103 78.7885 52.8481C78.8178 52.7858 78.8341 52.7185 78.8365 52.6499C78.8389 52.5814 78.8273 52.5131 78.8025 52.449Z" fill="#407BFF"/>
<path d="M90.7993 49.5228L62.3736 59.2306C62.3279 59.2504 62.2785 59.2606 62.2287 59.2607C62.1788 59.2608 62.1294 59.2507 62.0837 59.231C62.0379 59.2113 61.9968 59.1826 61.963 59.1465C61.9291 59.1104 61.9032 59.0678 61.8868 59.0213C61.8705 58.9749 61.8641 58.9256 61.868 58.8766C61.872 58.8276 61.8862 58.7799 61.9098 58.7366C61.9333 58.6933 61.9658 58.6552 62.005 58.6249C62.0442 58.5945 62.0894 58.5725 62.1377 58.5601L78.444 52.9913C78.5445 52.9563 78.6269 52.8836 78.6732 52.7889C78.7194 52.6943 78.7258 52.5855 78.6909 52.4862L77.5563 49.2607C77.5386 49.2103 77.5013 49.1689 77.4526 49.1456C77.4039 49.1223 77.3478 49.1191 77.2967 49.1365L60.8042 54.769C60.7586 54.7888 60.7092 54.799 60.6593 54.7991C60.6094 54.7991 60.5601 54.789 60.5144 54.7694C60.4686 54.7497 60.4275 54.7209 60.3937 54.6848C60.3598 54.6488 60.3339 54.6062 60.3175 54.5597C60.3012 54.5133 60.2948 54.464 60.2987 54.415C60.3027 54.366 60.3169 54.3183 60.3405 54.275C60.364 54.2316 60.3965 54.1936 60.4357 54.1632C60.4749 54.1329 60.5201 54.1108 60.5684 54.0985L89.1803 44.3271C89.2902 44.2896 89.4108 44.2966 89.5154 44.3466C89.6201 44.3967 89.7003 44.4856 89.7384 44.5939L91.191 48.7236C91.2463 48.8808 91.2361 49.0531 91.1626 49.2029C91.0892 49.3527 90.9586 49.4677 90.7993 49.5228ZM62.2145 58.7785C62.1968 58.782 62.18 58.7892 62.1654 58.7996C62.1507 58.8101 62.1384 58.8235 62.1295 58.8389C62.1205 58.8544 62.115 58.8716 62.1133 58.8893C62.1116 58.9071 62.1138 58.925 62.1197 58.9418C62.1256 58.9586 62.1351 58.974 62.1476 58.9869C62.1601 58.9999 62.1752 59.01 62.192 59.0167C62.2087 59.0233 62.2268 59.0264 62.2448 59.0256C62.2629 59.0248 62.2806 59.0203 62.2967 59.0122L90.7224 49.3044C90.823 49.2694 90.9053 49.1967 90.9516 49.102C90.9979 49.0074 91.0042 48.8986 90.9693 48.7993L89.5168 44.6696C89.508 44.6447 89.4943 44.6217 89.4765 44.6019C89.4587 44.5822 89.4371 44.5661 89.413 44.5546C89.3889 44.5431 89.3627 44.5363 89.336 44.5348C89.3092 44.5332 89.2824 44.5368 89.2571 44.5455L60.6452 54.3169C60.6275 54.3204 60.6107 54.3276 60.596 54.338C60.5814 54.3484 60.5691 54.3618 60.5601 54.3773C60.5512 54.3928 60.5456 54.41 60.544 54.4277C60.5423 54.4454 60.5445 54.4633 60.5504 54.4802C60.5563 54.497 60.5658 54.5124 60.5783 54.5253C60.5908 54.5382 60.6059 54.5484 60.6227 54.555C60.6394 54.5617 60.6575 54.5648 60.6755 54.564C60.6936 54.5632 60.7113 54.5587 60.7274 54.5506L77.2309 48.9144C77.3409 48.8768 77.4614 48.8838 77.5661 48.9339C77.6708 48.9839 77.751 49.0729 77.7891 49.1812L78.9236 52.4068C78.9789 52.5639 78.9687 52.7363 78.8953 52.8861C78.8219 53.0358 78.6912 53.1508 78.5319 53.2059L62.2145 58.7785Z" fill="#263238"/>
<g clip-path="url(#clip1_1135_3184)">
<path d="M76.5039 32.0248C74.5703 32.0248 73 33.6097 73 35.5569C73 37.5036 74.5703 39.0888 76.5039 39.0888C76.5042 39.0888 76.5045 39.0888 76.5048 39.0888C77.9275 39.0888 79.1814 38.2048 79.7191 36.8904H81.2809C81.8181 38.2048 83.0725 39.087 84.4952 39.0888C84.4955 39.0888 84.4958 39.0888 84.4961 39.0888C86.4297 39.0888 88 37.5036 88 35.5569C88 33.6097 86.4297 32.0248 84.4961 32.0248C84.495 32.0248 84.4939 32.0248 84.4928 32.0248C84.4492 32.0248 84.4066 32.0295 84.3634 32.0304C84.3473 32.0268 84.3308 32.0249 84.3142 32.0248H76.6858C76.667 32.0248 76.6483 32.027 76.63 32.0314C76.5902 32.0267 76.5508 32.0262 76.5109 32.0248C76.5086 32.0248 76.5062 32.0248 76.5039 32.0248ZM76.503 32.4936H76.5039C76.5578 32.4936 76.6117 32.4982 76.6656 32.5024C76.6947 32.5047 76.724 32.5016 76.7519 32.4931H84.2566C84.2807 32.4994 84.3057 32.5018 84.3306 32.5001C84.3859 32.4954 84.4408 32.4945 84.4961 32.4936C86.1742 32.4936 87.5312 33.8609 87.5312 35.5569C87.5312 37.2528 86.1742 38.6201 84.4961 38.6201C83.2117 38.6201 82.068 37.8021 81.6391 36.5787C81.623 36.533 81.5931 36.4934 81.5536 36.4653C81.514 36.4373 81.4668 36.4222 81.4183 36.4221H79.5817C79.5333 36.4223 79.4862 36.4374 79.4467 36.4655C79.4073 36.4935 79.3775 36.533 79.3614 36.5787C79.1554 37.1731 78.7697 37.6888 78.2578 38.0545C77.7459 38.4202 77.133 38.6179 76.5039 38.6201C74.8258 38.6201 73.4688 37.2528 73.4688 35.5569C73.4688 33.8614 74.8253 32.494 76.503 32.4936Z" fill="#373748"/>
<path fill-rule="evenodd" clip-rule="evenodd" d="M76.3205 33.8538C76.2585 33.8548 76.1994 33.8803 76.1562 33.9247C76.113 33.9692 76.0891 34.029 76.0899 34.091V37.0225C76.0899 37.0847 76.1146 37.1443 76.1585 37.1883C76.2025 37.2322 76.2621 37.2569 76.3242 37.2569C76.3864 37.2569 76.446 37.2322 76.49 37.1883C76.5339 37.1443 76.5586 37.0847 76.5586 37.0225V34.091C76.559 34.0596 76.5531 34.0285 76.5412 33.9995C76.5294 33.9705 76.5119 33.9442 76.4897 33.9221C76.4675 33.8999 76.441 33.8825 76.412 33.8708C76.3829 33.8591 76.3518 33.8533 76.3205 33.8538Z" fill="#373748"/>
<path fill-rule="evenodd" clip-rule="evenodd" d="M74.8711 35.3224C74.8089 35.3224 74.7493 35.347 74.7054 35.391C74.6614 35.4349 74.6367 35.4946 74.6367 35.5568C74.6367 35.6189 74.6614 35.6785 74.7054 35.7225C74.7493 35.7664 74.8089 35.7911 74.8711 35.7911H77.7773C77.8395 35.7911 77.8991 35.7664 77.9431 35.7225C77.987 35.6785 78.0117 35.6189 78.0117 35.5568C78.0117 35.4946 77.987 35.4349 77.9431 35.391C77.8991 35.347 77.8395 35.3224 77.7773 35.3224H74.8711Z" fill="#373748"/>
<path d="M85.0969 34.091C85.0969 34.247 85.0354 34.3966 84.9259 34.507C84.8165 34.6173 84.6681 34.6793 84.5133 34.6793C84.3585 34.6793 84.2101 34.6173 84.1006 34.507C83.9912 34.3966 83.9297 34.247 83.9297 34.091C83.9297 33.9349 83.9912 33.7853 84.1006 33.675C84.2101 33.5647 84.3585 33.5027 84.5133 33.5027C84.6681 33.5027 84.8165 33.5647 84.9259 33.675C85.0354 33.7853 85.0969 33.9349 85.0969 34.091Z" fill="#FCD062"/>
<path d="M86.55 35.5568C86.55 35.6341 86.5349 35.7106 86.5056 35.7819C86.4762 35.8533 86.4333 35.9181 86.3791 35.9728C86.3249 36.0274 86.2605 36.0707 86.1897 36.1003C86.1189 36.1299 86.043 36.145 85.9664 36.145C85.8898 36.145 85.8139 36.1299 85.7431 36.1003C85.6723 36.0707 85.6079 36.0274 85.5537 35.9728C85.4996 35.9181 85.4566 35.8533 85.4272 35.7819C85.3979 35.7106 85.3828 35.6341 85.3828 35.5568C85.3829 35.4009 85.4445 35.2513 85.5539 35.1411C85.6633 35.0309 85.8117 34.969 85.9664 34.969C86.1211 34.969 86.2695 35.0309 86.3789 35.1411C86.4883 35.2513 86.5499 35.4009 86.55 35.5568Z" fill="#78C8F0"/>
<path d="M85.0969 37.0226C85.0969 37.0999 85.0818 37.1763 85.0525 37.2477C85.0231 37.3191 84.9801 37.384 84.9259 37.4386C84.8718 37.4932 84.8074 37.5365 84.7366 37.5661C84.6658 37.5957 84.5899 37.6109 84.5133 37.6109C84.4366 37.6109 84.3608 37.5957 84.29 37.5661C84.2191 37.5365 84.1548 37.4932 84.1006 37.4386C84.0464 37.384 84.0034 37.3191 83.9741 37.2477C83.9448 37.1763 83.9297 37.0999 83.9297 37.0226C83.9297 36.9454 83.9448 36.8689 83.9741 36.7975C84.0034 36.7261 84.0464 36.6612 84.1006 36.6066C84.1548 36.552 84.2191 36.5087 84.29 36.4791C84.3608 36.4496 84.4366 36.4343 84.5133 36.4343C84.5899 36.4343 84.6658 36.4496 84.7366 36.4791C84.8074 36.5087 84.8718 36.552 84.9259 36.6066C84.9801 36.6612 85.0231 36.7261 85.0525 36.7975C85.0818 36.8689 85.0969 36.9454 85.0969 37.0226Z" fill="#60C5B8"/>
<path d="M83.6438 35.5568C83.6438 35.634 83.6287 35.7105 83.5993 35.7819C83.57 35.8533 83.527 35.9181 83.4728 35.9727C83.4186 36.0274 83.3543 36.0707 83.2835 36.1003C83.2127 36.1298 83.1368 36.145 83.0602 36.145C82.9835 36.145 82.9076 36.1298 82.8368 36.1003C82.766 36.0707 82.7017 36.0274 82.6475 35.9727C82.5933 35.9181 82.5503 35.8533 82.521 35.7819C82.4917 35.7105 82.4766 35.634 82.4766 35.5568C82.4766 35.4008 82.538 35.2511 82.6475 35.1408C82.7569 35.0305 82.9054 34.9685 83.0602 34.9685C83.2149 34.9685 83.3634 35.0305 83.4728 35.1408C83.5823 35.2511 83.6438 35.4008 83.6438 35.5568Z" fill="#F17F53"/>
<path fill-rule="evenodd" clip-rule="evenodd" d="M80.4975 25.9118C80.4356 25.9128 80.3766 25.9382 80.3334 25.9826C80.2902 26.0269 80.2662 26.0866 80.2669 26.1485V27.5496C80.2669 27.6118 80.2916 27.6714 80.3355 27.7153C80.3795 27.7593 80.4391 27.784 80.5013 27.784H81.435C81.6098 27.784 81.7116 27.8421 81.7856 27.9246C81.8597 28.008 81.9009 28.1276 81.9009 28.2508C81.9009 28.3736 81.8597 28.4936 81.7856 28.5766C81.712 28.6596 81.6098 28.7168 81.435 28.7168H79.5675C79.2755 28.7168 79.0266 28.8349 78.8672 29.0144C78.7073 29.194 78.6328 29.4241 78.6328 29.6519C78.6328 29.8788 78.7073 30.109 78.8672 30.289C79.0266 30.4685 79.275 30.5862 79.5675 30.5862H80.2669V32.2198C80.2669 32.2819 80.2916 32.3415 80.3355 32.3855C80.3795 32.4294 80.4391 32.4541 80.5013 32.4541C80.5634 32.4541 80.623 32.4294 80.667 32.3855C80.7109 32.3415 80.7356 32.2819 80.7356 32.2198V30.3518C80.7356 30.2896 80.7109 30.23 80.667 30.186C80.623 30.1421 80.5634 30.1174 80.5013 30.1174H79.5675C79.3927 30.1174 79.2909 30.0607 79.2169 29.9777C79.1405 29.8863 79.0995 29.7705 79.1016 29.6515C79.1016 29.5287 79.1428 29.4086 79.2169 29.3257C79.2905 29.2427 79.3927 29.1855 79.5675 29.1855H81.435C81.727 29.1855 81.9759 29.0679 82.1353 28.8879C82.2952 28.7083 82.3697 28.4782 82.3697 28.2504C82.3697 28.0235 82.2952 27.7924 82.1353 27.6129C81.9759 27.4329 81.7275 27.3152 81.435 27.3152H80.7356V26.149C80.736 26.1176 80.7301 26.0865 80.7183 26.0575C80.7064 26.0285 80.6889 26.0022 80.6667 25.9801C80.6445 25.958 80.6181 25.9405 80.589 25.9288C80.5599 25.917 80.5288 25.9113 80.4975 25.9118Z" fill="#373748"/>
</g>
<g clip-path="url(#clip2_1135_3184)">
<path d="M59.0562 21.9995C59.0239 21.9997 58.992 22.0065 58.9625 22.0197C57.8788 22.0726 57.0064 22.9553 57.0064 24.0512C57.0069 24.4375 57.1498 24.7918 57.3509 25.1143H53.3478C53.2857 25.1143 53.226 25.139 53.1821 25.183C53.1381 25.227 53.1134 25.2866 53.1134 25.3487V29.3485C52.7914 29.1484 52.4366 29.0064 52.0508 29.0064C51.5072 29.0073 50.9861 29.2238 50.6018 29.6081C50.2174 29.9925 50.001 30.5135 50 31.0571C50.001 31.6007 50.2174 32.1218 50.6018 32.5062C50.9861 32.8906 51.5072 33.1069 52.0508 33.1079C52.4366 33.1079 52.7914 32.9645 53.1139 32.7634V36.7665C53.1139 36.8287 53.1386 36.8883 53.1826 36.9322C53.2265 36.9762 53.2861 37.0009 53.3483 37.0009H57.7873C57.8347 37.0011 57.881 36.9869 57.9202 36.9602C57.9593 36.9335 57.9895 36.8956 58.0066 36.8514C58.0238 36.8072 58.0271 36.7589 58.0163 36.7128C58.0054 36.6667 57.9808 36.625 57.9458 36.5931L57.9209 36.5701H57.9195C57.9181 36.5701 57.9167 36.5655 57.9158 36.5655C57.8812 36.5299 57.8484 36.4926 57.8173 36.4539C57.7849 36.4126 57.7541 36.3697 57.7259 36.3254C57.7256 36.3254 57.7253 36.3254 57.725 36.3254C57.668 36.2368 57.6202 36.1426 57.5825 36.0442C57.5632 35.9954 57.5463 35.9456 57.5319 35.8951C57.5181 35.8448 57.5068 35.7938 57.4981 35.7423C57.4978 35.7423 57.4975 35.7423 57.4972 35.7423C57.4821 35.6543 57.4744 35.5653 57.4742 35.476C57.4744 35.3709 57.4851 35.266 57.5061 35.1629C57.527 35.0596 57.5581 34.9587 57.5989 34.8616C57.6817 34.6668 57.8029 34.4906 57.9552 34.3435C58.0307 34.27 58.1134 34.2044 58.2022 34.1476C58.2908 34.0905 58.385 34.0426 58.4834 34.0047C58.4837 34.0047 58.4841 34.0047 58.4844 34.0047C58.5822 33.9665 58.6837 33.9382 58.7872 33.9203C58.7875 33.9203 58.7878 33.9203 58.7881 33.9203C58.8402 33.9109 58.8931 33.9053 58.9456 33.9015C58.9827 33.8968 59.0192 33.8968 59.0562 33.8968C59.1087 33.8968 59.1617 33.9015 59.2137 33.9048C59.2662 33.9105 59.3187 33.9179 59.3703 33.9282C59.3706 33.9282 59.3709 33.9282 59.3713 33.9282C59.6305 33.9818 59.8725 34.0989 60.0753 34.269C60.0756 34.269 60.0759 34.269 60.0763 34.269C60.1571 34.3363 60.2307 34.4117 60.2961 34.494C60.3289 34.5357 60.3594 34.5784 60.3875 34.6225C60.3878 34.6225 60.3881 34.6225 60.3884 34.6225C60.4453 34.7111 60.4929 34.8054 60.5305 34.9037C60.5308 34.9037 60.5311 34.9037 60.5314 34.9037C60.5695 35.0016 60.5978 35.1031 60.6158 35.2065C60.6312 35.2948 60.639 35.3841 60.6392 35.4737C60.639 35.5792 60.6284 35.6844 60.6073 35.7878C60.5544 36.0471 60.4376 36.2891 60.2675 36.4918C60.2347 36.5303 60.2005 36.5673 60.1644 36.6029C60.1312 36.6355 60.1085 36.6771 60.099 36.7225C60.0895 36.768 60.0938 36.8152 60.1112 36.8583C60.1286 36.9013 60.1585 36.9382 60.1969 36.9642C60.2353 36.9903 60.2806 37.0043 60.327 37.0046H64.7661C64.8283 37.0046 64.8879 36.98 64.9318 36.936C64.9758 36.8921 65.0005 36.8324 65.0005 36.7703V32.3298C65.0006 32.2826 64.9865 32.2364 64.9599 32.1973C64.9333 32.1582 64.8956 32.1281 64.8516 32.1109C64.8076 32.0936 64.7594 32.0901 64.7134 32.1007C64.6673 32.1114 64.6256 32.1356 64.5936 32.1704L64.5655 32.2009C64.4914 32.2728 64.4103 32.3372 64.3236 32.3931C64.3233 32.3931 64.323 32.3931 64.3227 32.3931C64.234 32.4504 64.1397 32.4986 64.0414 32.537C64.0411 32.537 64.0408 32.537 64.0405 32.537C63.9425 32.5748 63.8411 32.603 63.7377 32.6209C63.7373 32.6209 63.737 32.6209 63.7367 32.6209C63.6849 32.6297 63.6326 32.636 63.5802 32.6397C63.5798 32.6397 63.5795 32.6397 63.5792 32.6397C63.5417 32.6444 63.5056 32.6443 63.4681 32.6443C63.4156 32.6443 63.3631 32.6396 63.3106 32.6364C63.2581 32.631 63.2058 32.623 63.1541 32.6124C63.1538 32.6124 63.1534 32.6124 63.1531 32.6124C63.05 32.5919 62.9492 32.5612 62.8522 32.5206H62.8512C62.706 32.4581 62.5705 32.3749 62.4491 32.2736C62.3683 32.2061 62.2945 32.1307 62.2287 32.0485C62.1632 31.9662 62.106 31.8775 62.0581 31.7837C62.0347 31.7368 62.0131 31.689 61.9944 31.6403C61.9941 31.6403 61.9938 31.6403 61.9934 31.6403C61.9741 31.5913 61.9572 31.5414 61.9428 31.4908H61.9437C61.9155 31.3894 61.8975 31.2854 61.8898 31.1804C61.8797 31.0383 61.889 30.8954 61.9175 30.7558C61.9178 30.7558 61.9181 30.7558 61.9184 30.7558C61.9388 30.653 61.9694 30.5524 62.0098 30.4558H62.0108C62.0937 30.2608 62.2145 30.0843 62.3661 29.9364C62.3664 29.9364 62.3667 29.9364 62.367 29.9364C62.4045 29.8998 62.4434 29.8656 62.4842 29.8333H62.4852C62.5675 29.7682 62.6561 29.7114 62.7495 29.6636H62.7505C62.7973 29.6397 62.8456 29.6186 62.8944 29.5993C62.895 29.5993 62.8956 29.5993 62.8962 29.5993C62.9455 29.5801 62.9956 29.5632 63.0463 29.5487C63.0963 29.5351 63.147 29.5239 63.1981 29.515C63.1984 29.515 63.1988 29.515 63.1991 29.515C63.2511 29.5056 63.3041 29.4995 63.3566 29.4962C63.3936 29.4915 63.4306 29.4915 63.4677 29.4915C63.5202 29.4915 63.5736 29.4962 63.6261 29.4995C63.6781 29.5051 63.7297 29.5126 63.7817 29.5234C63.7822 29.5234 63.7827 29.5234 63.7831 29.5234C63.8865 29.5441 63.9875 29.5752 64.0845 29.6162C64.133 29.6369 64.1804 29.6601 64.2266 29.6856C64.3189 29.7359 64.4059 29.7953 64.4862 29.8632C64.4866 29.8632 64.4869 29.8632 64.4872 29.8632C64.5261 29.8956 64.5636 29.9298 64.5992 29.9659C64.6329 30.0001 64.6762 30.0231 64.7233 30.0319C64.7705 30.0407 64.8192 30.0348 64.8629 30.015C64.9066 29.9952 64.9432 29.9625 64.9677 29.9213C64.9922 29.8801 65.0035 29.8323 65 29.7845V25.3478C65 25.2856 64.9753 25.226 64.9314 25.182C64.8874 25.1381 64.8278 25.1134 64.7656 25.1134H60.7648C60.9655 24.7914 61.107 24.4365 61.107 24.0503C61.106 23.5067 60.8897 22.9856 60.5053 22.6012C60.1209 22.2169 59.5998 22.0005 59.0562 21.9995ZM59.0572 22.4692C59.0581 22.4692 59.0591 22.4692 59.06 22.4692C59.2676 22.4689 59.4731 22.5097 59.6649 22.5891C59.8567 22.6685 60.0309 22.785 60.1776 22.9319C60.3242 23.0788 60.4404 23.2532 60.5195 23.4452C60.5985 23.6371 60.6389 23.8427 60.6383 24.0503C60.6383 24.4759 60.4677 24.8828 60.1634 25.18C60.13 25.2125 60.1071 25.2543 60.0976 25.3C60.0881 25.3456 60.0924 25.3931 60.11 25.4363C60.1277 25.4795 60.1578 25.5165 60.1965 25.5425C60.2352 25.5684 60.2809 25.5823 60.3275 25.5822H64.5312V29.3054C64.5045 29.289 64.4792 29.2712 64.4516 29.2562C64.3314 29.1907 64.205 29.1373 64.0742 29.0968C64.0739 29.0968 64.0736 29.0968 64.0733 29.0968C64.0081 29.0767 63.9419 29.06 63.875 29.0467H63.8759C63.7417 29.0194 63.6051 29.0053 63.4681 29.0045C63.4677 29.0045 63.4672 29.0045 63.4667 29.0045C63.3501 29.0047 63.2337 29.0152 63.1189 29.0359C63.0519 29.0474 62.9856 29.0624 62.9202 29.0809C62.9198 29.0809 62.9195 29.0809 62.9192 29.0809C62.7877 29.1178 62.66 29.1674 62.5381 29.2291C62.5378 29.2291 62.5375 29.2291 62.5372 29.2291C62.4157 29.2908 62.3007 29.3646 62.1941 29.4494C62.1938 29.4494 62.1934 29.4494 62.1931 29.4494C62.0858 29.5345 61.9873 29.6303 61.8992 29.7353C61.7226 29.9447 61.59 30.1874 61.5092 30.4492C61.5089 30.4492 61.5086 30.4492 61.5083 30.4492C61.4881 30.5148 61.4722 30.5818 61.4586 30.6489C61.4215 30.8298 61.4092 31.015 61.422 31.1992C61.4318 31.3353 61.4552 31.47 61.4919 31.6014C61.5102 31.667 61.5327 31.7317 61.5575 31.7955C61.5823 31.8587 61.6091 31.9211 61.64 31.982C61.6403 31.982 61.6406 31.982 61.6409 31.982C61.7027 32.1035 61.7765 32.2184 61.8612 32.3251C62.0753 32.5937 62.3529 32.8047 62.6689 32.9392C62.6692 32.9392 62.6695 32.9392 62.6698 32.9392C62.7954 32.9922 62.9261 33.0321 63.0598 33.0583C63.1269 33.0723 63.1944 33.0826 63.2623 33.0897C63.2627 33.0897 63.263 33.0897 63.2633 33.0897C63.3313 33.0967 63.3992 33.1004 63.4677 33.1004C63.4681 33.1004 63.4686 33.1004 63.4691 33.1004C63.5173 33.1004 63.5661 33.1004 63.6139 33.0948C63.7498 33.0842 63.8843 33.0605 64.0156 33.024C64.0159 33.024 64.0163 33.024 64.0166 33.024C64.1975 32.9727 64.3707 32.897 64.5312 32.799V36.5219H60.808C60.8239 36.4951 60.8422 36.4693 60.8572 36.4422C60.9553 36.2619 61.0259 36.0681 61.0667 35.867C61.0939 35.7335 61.1078 35.5977 61.108 35.4615C61.1078 35.3449 61.0978 35.2286 61.078 35.1137C61.0545 34.9795 61.0177 34.8479 60.9683 34.7209C60.9188 34.5939 60.8568 34.4722 60.7831 34.3576H60.7822C60.7086 34.2422 60.6236 34.1345 60.5286 34.036C60.5283 34.036 60.528 34.036 60.5277 34.036C60.48 33.9875 60.4299 33.9414 60.3777 33.8978H60.3767C60.2721 33.8099 60.1591 33.7327 60.0392 33.6671C59.9795 33.6344 59.9182 33.6047 59.8555 33.5781C59.8552 33.5781 59.8548 33.5781 59.8545 33.5781C59.7287 33.5257 59.5981 33.4856 59.4645 33.4586H59.4636C59.397 33.445 59.3297 33.4346 59.262 33.4276C59.2619 33.4276 59.2617 33.4276 59.2616 33.4276C59.1937 33.4208 59.1254 33.4175 59.0572 33.4178C59.0566 33.4178 59.0559 33.4178 59.0553 33.4178C59.007 33.4178 58.9583 33.4178 58.91 33.4234C58.7743 33.4338 58.6399 33.4571 58.5087 33.4932C58.5084 33.4932 58.5081 33.4932 58.5078 33.4932C58.4417 33.5117 58.3766 33.5336 58.3128 33.5589C58.2495 33.5832 58.1877 33.6104 58.1272 33.6414C58.1269 33.6414 58.1266 33.6414 58.1263 33.6414C57.7574 33.828 57.454 34.1222 57.2562 34.4851C57.2234 34.5451 57.1944 34.607 57.1672 34.6694C57.167 34.6694 57.1669 34.6694 57.1667 34.6694C57.0872 34.8585 57.0367 35.0586 57.0167 35.2628C57.0049 35.379 57.003 35.4959 57.0111 35.6125C57.0308 35.8859 57.1049 36.1527 57.2291 36.3972C57.252 36.4426 57.2792 36.4862 57.3059 36.5298H53.5822V32.3228C53.5819 32.2764 53.5678 32.231 53.5418 32.1926C53.5157 32.1542 53.4788 32.1244 53.4358 32.107C53.3927 32.0895 53.3455 32.0853 53.3 32.0948C53.2546 32.1042 53.213 32.127 53.1805 32.1601C52.9609 32.385 52.6793 32.5394 52.3716 32.6035C52.0639 32.6675 51.7441 32.6384 51.453 32.5198C51.1619 32.4012 50.9128 32.1986 50.7375 31.9377C50.5622 31.6768 50.4686 31.3696 50.4688 31.0553C50.4683 30.8474 50.5088 30.6414 50.5882 30.4493C50.6675 30.2571 50.784 30.0825 50.931 29.9355C51.078 29.7885 51.2526 29.672 51.4448 29.5927C51.6369 29.5134 51.8429 29.4728 52.0508 29.4733C52.4759 29.4733 52.8828 29.6444 53.1805 29.9476C53.2131 29.9809 53.2548 30.0036 53.3004 30.013C53.346 30.0225 53.3933 30.0181 53.4364 30.0005C53.4795 29.9829 53.5164 29.9529 53.5424 29.9142C53.5683 29.8756 53.5822 29.8301 53.5822 29.7836V25.5817H57.7873C57.834 25.5818 57.8796 25.5679 57.9183 25.5419C57.9571 25.516 57.9872 25.479 58.0048 25.4359C58.0224 25.3927 58.0268 25.3452 58.0172 25.2995C58.0077 25.2538 57.9848 25.2121 57.9514 25.1795C57.8008 25.0324 57.681 24.8567 57.5993 24.6628C57.5175 24.4688 57.4753 24.2603 57.4752 24.0498C57.4747 23.8419 57.5152 23.636 57.5946 23.4438C57.6739 23.2516 57.7904 23.0771 57.9374 22.9301C58.0844 22.7831 58.259 22.6665 58.4512 22.5872C58.6433 22.5079 58.8493 22.4673 59.0572 22.4678V22.4692Z" fill="#373748"/>
</g>
<path d="M71.8438 37.6169C71.8438 40.6224 69.4908 43.0586 66.587 43.0586C65.348 43.0596 64.1498 42.6081 63.2107 41.7863C62.2847 40.9821 61.6561 39.8808 61.4286 38.6644C61.3622 38.3183 61.3285 37.9665 61.3281 37.6139C61.3281 34.6085 63.6811 32.1722 66.585 32.1722C67.6164 32.1724 68.6243 32.4856 69.4798 33.0715C69.9122 33.3674 70.2993 33.7266 70.6286 34.1374C71.4158 35.1182 71.8445 36.3459 71.8418 37.6118L71.8438 37.6169Z" fill="#F93052"/>
<path d="M71.5696 35.8744L64.9046 42.7733C64.2838 42.5559 63.7091 42.221 63.2109 41.7861C63.232 41.7585 63.2542 41.734 63.2783 41.7085L70.4459 34.2884C70.5013 34.2315 70.5634 34.1818 70.6308 34.1403C71.0448 34.6555 71.3629 35.2432 71.5696 35.8744Z" fill="#F15A24"/>
<path d="M69.4789 33.0744C69.4608 33.0959 69.4437 33.1163 69.4236 33.1368L62.256 40.5568C62.2359 40.5772 62.2168 40.5956 62.1957 40.614C61.8172 40.021 61.5557 39.3588 61.4258 38.6642L67.5993 32.2773C68.2717 32.4135 68.9106 32.6845 69.4789 33.0744Z" fill="#F15A24"/>
<path d="M72.9974 37.3871C72.7695 38.9646 71.9911 40.4061 70.8043 41.4484C69.6175 42.4907 68.1016 43.0642 66.5334 43.0642C64.9651 43.0642 63.4492 42.4907 62.2624 41.4484C61.0757 40.4061 60.2973 38.9646 60.0694 37.3871C60.0233 37.7086 60.0001 38.033 60 38.3579C60 40.1196 60.6883 41.8091 61.9136 43.0548C63.1388 44.3004 64.8006 45.0003 66.5334 45.0003C68.2661 45.0003 69.9279 44.3004 71.1531 43.0548C72.3784 41.8091 73.0667 40.1196 73.0667 38.3579C73.0666 38.033 73.0434 37.7086 72.9974 37.3871Z" fill="#ED1C24"/>
<path d="M66.5334 33.0438C67.428 33.0438 68.3024 33.3135 69.0463 33.8188C69.7901 34.3241 70.3698 35.0423 70.7122 35.8826C71.0545 36.7229 71.1441 37.6475 70.9696 38.5395C70.795 39.4315 70.3642 40.2509 69.7317 40.894C69.0991 41.5372 68.2932 41.9751 67.4158 42.1526C66.5384 42.33 65.6289 42.2389 64.8025 41.8909C63.976 41.5428 63.2696 40.9534 62.7725 40.1972C62.2755 39.441 62.0103 38.5519 62.0103 37.6424C62.0116 36.4232 62.4886 35.2543 63.3365 34.3922C64.1845 33.5301 65.3342 33.0452 66.5334 33.0438ZM66.5334 31C65.2412 31 63.978 31.3896 62.9036 32.1194C61.8292 32.8493 60.9918 33.8867 60.4973 35.1004C60.0028 36.3142 59.8734 37.6497 60.1255 38.9382C60.3776 40.2267 60.9999 41.4103 61.9136 42.3392C62.8273 43.2682 63.9914 43.9008 65.2588 44.1571C66.5261 44.4134 67.8398 44.2819 69.0336 43.7791C70.2274 43.2764 71.2478 42.425 71.9657 41.3327C72.6836 40.2403 73.0667 38.9561 73.0667 37.6424C73.0667 35.8807 72.3784 34.1912 71.1532 32.9455C69.9279 31.6998 68.2661 31 66.5334 31Z" fill="#F7931E"/>
<path d="M66.5827 42.343C64.0428 42.343 61.7822 41.3324 60.3398 39.7617C60.772 41.0647 61.5913 42.1992 62.6846 43.0086C63.778 43.8181 65.0914 44.2626 66.4438 44.2809C67.7962 44.2992 69.1208 43.8903 70.2349 43.1107C71.349 42.3311 72.1977 41.2191 72.6638 39.9283C71.2204 41.4039 69.0312 42.343 66.5827 42.343Z" fill="#F15A24"/>
<path d="M70.025 36.8248L66.0246 34.4744C65.8499 34.3721 65.6517 34.3183 65.4501 34.3184C65.2485 34.3185 65.0504 34.3725 64.8758 34.4749C64.7012 34.5774 64.5561 34.7248 64.4552 34.9023C64.3543 35.0797 64.301 35.2811 64.3008 35.4861V40.1868C64.301 40.3918 64.3543 40.5932 64.4552 40.7706C64.5561 40.9481 64.7012 41.0955 64.8758 41.198C65.0504 41.3005 65.2485 41.3545 65.4501 41.3545C65.6517 41.3546 65.8499 41.3008 66.0246 41.1985L70.025 38.8481C70.1995 38.7454 70.3443 38.5979 70.445 38.4203C70.5457 38.2428 70.5987 38.0414 70.5987 37.8365C70.5987 37.6315 70.5457 37.4301 70.445 37.2526C70.3443 37.075 70.1995 36.9275 70.025 36.8248Z" fill="#ED1C24"/>
<path d="M69.6883 36.6205L65.8879 34.3918C65.7131 34.2894 65.515 34.2356 65.3134 34.2357C65.1118 34.2358 64.9137 34.2898 64.7391 34.3923C64.5644 34.4948 64.4194 34.6422 64.3185 34.8196C64.2175 34.9971 64.1643 35.1984 64.1641 35.4034V39.864C64.1643 40.069 64.2175 40.2704 64.3185 40.4478C64.4194 40.6253 64.5644 40.7727 64.7391 40.8752C64.9137 40.9777 65.1118 41.0317 65.3134 41.0318C65.515 41.0319 65.7131 40.978 65.8879 40.8757L69.6883 38.6459C69.8632 38.5434 70.0085 38.3958 70.1095 38.218C70.2105 38.0402 70.2637 37.8385 70.2637 37.6332C70.2637 37.4279 70.2105 37.2262 70.1095 37.0485C70.0085 36.8707 69.8632 36.7231 69.6883 36.6205Z" fill="white"/>
<g style="mix-blend-mode:soft-light">
<path d="M65.4273 35.9054C65.7604 35.9054 66.0304 35.6308 66.0304 35.2922C66.0304 34.9536 65.7604 34.6791 65.4273 34.6791C65.0942 34.6791 64.8242 34.9536 64.8242 35.2922C64.8242 35.6308 65.0942 35.9054 65.4273 35.9054Z" fill="white"/>
</g>
<g style="mix-blend-mode:soft-light">
<path d="M66.3328 36.1096C66.4993 36.1096 66.6343 35.9723 66.6343 35.803C66.6343 35.6337 66.4993 35.4965 66.3328 35.4965C66.1663 35.4965 66.0312 35.6337 66.0312 35.803C66.0312 35.9723 66.1663 36.1096 66.3328 36.1096Z" fill="white"/>
</g>
</g>
<defs>
<clipPath id="clip0_1135_3184">
<rect width="104" height="104" fill="white"/>
</clipPath>
<clipPath id="clip1_1135_3184">
<rect width="15" height="15" fill="white" transform="translate(73 25)"/>
</clipPath>
<clipPath id="clip2_1135_3184">
<rect width="15" height="15" fill="white" transform="translate(50 22)"/>
</clipPath>
</defs>
</svg>
