<svg width="67" height="67" viewBox="0 0 67 67" fill="none" xmlns="http://www.w3.org/2000/svg">
<g id="Idea" clip-path="url(#clip0_958_323)">
<path id="Vector" d="M51.423 7.09783C46.5786 2.46585 40.1418 -0.131029 33.4394 -0.15751C26.737 -0.183992 20.2798 2.36195 15.399 6.95549C10.5182 11.549 7.58574 17.8401 7.20611 24.5318C6.82648 31.2235 9.02862 37.8058 13.3586 42.9219C16.8167 46.9869 18.7557 52.1268 18.8442 57.463C18.847 58.048 19.0806 58.6082 19.4942 59.0219C19.9079 59.4355 20.4681 59.6691 21.0531 59.6719H45.9478C46.5328 59.6691 47.093 59.4355 47.5067 59.0219C47.9204 58.6082 48.154 58.048 48.1567 57.463V56.95C48.2277 51.855 50.1049 46.9507 53.4539 43.1103C57.7987 37.9926 60.0108 31.401 59.6328 24.6983C59.2548 17.9957 56.3156 11.6946 51.423 7.09783Z" fill="#FFF27D"/>
<path id="Vector_2" d="M18.5921 45.4867C14.9217 41.0615 12.8106 35.5509 12.5848 29.8061C12.359 24.0613 14.0312 18.402 17.3429 13.7024C20.6546 9.00284 25.4217 5.5245 30.9077 3.80473C36.3937 2.08496 42.2933 2.21946 47.6952 4.18745C42.4397 0.772578 36.1331 -0.642861 29.9223 0.198488C23.7114 1.03984 18.0087 4.08211 13.8511 8.77213C9.69345 13.4622 7.35694 19.4885 7.26641 25.7554C7.17587 32.0223 9.33731 38.1136 13.3577 42.9218C16.8158 46.9869 18.7548 52.1267 18.8434 57.4629C18.8461 58.0479 19.0797 58.6082 19.4934 59.0218C19.907 59.4355 20.4673 59.6691 21.0523 59.6718H24.0777C23.9082 54.4587 21.9742 49.4575 18.5921 45.4867Z" fill="#E3C264"/>
<path id="Vector_3" d="M44.9525 57.5781H22.0469C21.7692 57.5781 21.503 57.6884 21.3066 57.8847C21.1103 58.0811 21 58.3474 21 58.625C21 60.8462 21.8824 62.9764 23.453 64.547C25.0236 66.1176 27.1538 67 29.375 67H37.6244C39.8456 67 41.9758 66.1176 43.5464 64.547C45.117 62.9764 45.9994 60.8462 45.9994 58.625C45.9994 58.3474 45.8891 58.0811 45.6927 57.8847C45.4964 57.6884 45.2301 57.5781 44.9525 57.5781Z" fill="#798BC6"/>
<path id="Vector_4" d="M39.7809 63.9222H31.5525C29.6867 63.9196 27.8752 63.294 26.4054 62.1447C24.9356 60.9954 23.8917 59.3882 23.4392 57.5781H22.0469C21.7692 57.5781 21.503 57.6884 21.3066 57.8847C21.1103 58.0811 21 58.3474 21 58.625C21 60.8462 21.8824 62.9764 23.453 64.547C25.0236 66.1176 27.1538 67 29.375 67H37.6244C39.2897 66.9966 40.9163 66.4968 42.2962 65.5644C43.6761 64.6321 44.7467 63.3095 45.3713 61.7656C43.8407 63.1545 41.8477 63.9233 39.7809 63.9222Z" fill="#667DBA"/>
<path id="Vector_5" d="M17.5664 50.25C18.3972 52.5647 18.829 55.0037 18.8436 57.463C18.8463 58.048 19.08 58.6082 19.4936 59.0219C19.9073 59.4355 20.4675 59.6691 21.0525 59.6719H45.9472C46.5322 59.6691 47.0924 59.4355 47.5061 59.0219C47.9197 58.6082 48.1533 58.048 48.1561 57.463V56.95C48.1699 54.6659 48.5698 52.4007 49.3391 50.25H17.5664Z" fill="#C9C1F5"/>
<path id="Vector_6" d="M24.5909 56.5941C24.0141 56.5942 23.46 56.3687 23.0472 55.9657C22.6344 55.5627 22.3957 55.0142 22.382 54.4375C22.3935 53.0317 22.2602 51.6285 21.9842 50.25H17.5664C18.3972 52.5647 18.829 55.0037 18.8436 57.463C18.8463 58.048 19.08 58.6082 19.4936 59.0219C19.9073 59.4355 20.4675 59.6691 21.0525 59.6719H45.9472C46.5322 59.6691 47.0924 59.4355 47.5061 59.0219C47.9197 58.6082 48.1533 58.048 48.1561 57.463V56.5941H24.5909Z" fill="#AFBDD6"/>
<path id="Vector_7" d="M63.8594 41.875C63.7031 41.8763 63.5488 41.8405 63.4092 41.7703L58.5098 39.4044C58.376 39.3518 58.2545 39.2723 58.1527 39.1707C58.051 39.069 57.9713 38.9476 57.9186 38.8138C57.8659 38.68 57.8413 38.5369 57.8463 38.3932C57.8514 38.2495 57.886 38.1084 57.9479 37.9787C58.0099 37.8489 58.098 37.7334 58.2066 37.6391C58.3152 37.5449 58.442 37.4741 58.5792 37.4311C58.7164 37.388 58.861 37.3737 59.0039 37.389C59.1469 37.4043 59.2852 37.4489 59.4102 37.52L64.3095 39.8859C64.5223 39.989 64.694 40.161 64.7965 40.3741C64.8991 40.5871 64.9265 40.8286 64.8743 41.0592C64.8221 41.2898 64.6934 41.496 64.5091 41.6441C64.3248 41.7922 64.0958 41.8736 63.8594 41.875ZM8.04 14.9284C7.88363 14.931 7.72903 14.8951 7.58984 14.8238L2.69047 12.4578C2.55664 12.4053 2.43508 12.3257 2.33335 12.2241C2.23163 12.1225 2.15192 12.001 2.0992 11.8673C2.04649 11.7335 2.02189 11.5903 2.02694 11.4466C2.03199 11.3029 2.06659 11.1618 2.12857 11.0321C2.19055 10.9024 2.27859 10.7868 2.3872 10.6926C2.49581 10.5984 2.62266 10.5275 2.75985 10.4845C2.89703 10.4415 3.04161 10.4272 3.18457 10.4425C3.32753 10.4578 3.46581 10.5024 3.59078 10.5734L8.49016 12.9394C8.70296 13.0424 8.8746 13.2145 8.97715 13.4275C9.0797 13.6406 9.10711 13.8821 9.05492 14.1127C9.00273 14.3433 8.87402 14.5494 8.68973 14.6975C8.50544 14.8457 8.27644 14.9271 8.04 14.9284ZM3.14062 41.875C2.90419 41.8736 2.67518 41.7922 2.4909 41.6441C2.30661 41.496 2.17789 41.2898 2.1257 41.0592C2.07351 40.8286 2.10092 40.5871 2.20347 40.3741C2.30602 40.161 2.47767 39.989 2.69047 39.8859L7.58984 37.52C7.83623 37.4232 8.11013 37.4234 8.3564 37.5205C8.60267 37.6175 8.80303 37.8043 8.91714 38.0431C9.03126 38.282 9.05066 38.5552 8.97143 38.8077C8.89221 39.0603 8.72024 39.2735 8.49016 39.4044L3.59078 41.7703C3.45117 41.8405 3.29686 41.8763 3.14062 41.875ZM58.96 14.9284C58.7236 14.9271 58.4946 14.8457 58.3103 14.6975C58.126 14.5494 57.9973 14.3433 57.9451 14.1127C57.8929 13.8821 57.9203 13.6406 58.0228 13.4275C58.1254 13.2145 58.297 13.0424 58.5098 12.9394L63.4092 10.5734C63.5342 10.5024 63.6725 10.4578 63.8154 10.4425C63.9584 10.4272 64.103 10.4415 64.2402 10.4845C64.3773 10.5275 64.5042 10.5984 64.6128 10.6926C64.7214 10.7868 64.8094 10.9024 64.8714 11.0321C64.9334 11.1618 64.968 11.3029 64.9731 11.4466C64.9781 11.5903 64.9535 11.7335 64.9008 11.8673C64.8481 12.001 64.7684 12.1225 64.6666 12.2241C64.5649 12.3257 64.4434 12.4053 64.3095 12.4578L59.4102 14.8238C59.271 14.8951 59.1164 14.931 58.96 14.9284ZM65.9531 27.2188H61.7656C61.488 27.2188 61.2217 27.1085 61.0254 26.9121C60.829 26.7158 60.7188 26.4495 60.7188 26.1719C60.7188 25.8942 60.829 25.628 61.0254 25.4316C61.2217 25.2353 61.488 25.125 61.7656 25.125H65.9531C66.2308 25.125 66.497 25.2353 66.6934 25.4316C66.8897 25.628 67 25.8942 67 26.1719C67 26.4495 66.8897 26.7158 66.6934 26.9121C66.497 27.1085 66.2308 27.2188 65.9531 27.2188ZM5.23438 27.2188H1.04688C0.769226 27.2188 0.50295 27.1085 0.306623 26.9121C0.110295 26.7158 0 26.4495 0 26.1719C0 25.8942 0.110295 25.628 0.306623 25.4316C0.50295 25.2353 0.769226 25.125 1.04688 25.125H5.23438C5.51202 25.125 5.7783 25.2353 5.97463 25.4316C6.17095 25.628 6.28125 25.8942 6.28125 26.1719C6.28125 26.4495 6.17095 26.7158 5.97463 26.9121C5.7783 27.1085 5.51202 27.2188 5.23438 27.2188Z" fill="#FFF27D"/>
<path id="Vector_8" d="M45.4772 25.8578C45.4258 25.7204 45.3462 25.5954 45.2434 25.4908C45.1406 25.3862 45.0169 25.3043 44.8805 25.2506L34.5478 21.1678V5.23432C34.5467 5.00174 34.4681 4.77617 34.3245 4.5932C34.181 4.41024 33.9805 4.28029 33.7549 4.22388C33.5292 4.16748 33.2913 4.18781 33.0785 4.28168C32.8657 4.37555 32.6902 4.53761 32.5797 4.74229L21.5875 25.6798C21.5222 25.819 21.4883 25.9709 21.4883 26.1247C21.4883 26.2785 21.5222 26.4304 21.5875 26.5696C21.6458 26.7103 21.7341 26.8366 21.8462 26.9397C21.9583 27.0427 22.0915 27.1201 22.2366 27.1664L32.4541 30.3593V47.1093C32.4541 47.387 32.5644 47.6532 32.7607 47.8496C32.957 48.0459 33.2233 48.1562 33.501 48.1562C33.6904 48.1557 33.8761 48.1038 34.0383 48.0061C34.2005 47.9084 34.3332 47.7685 34.4222 47.6014L45.4144 26.7162C45.4851 26.5857 45.5273 26.4417 45.5381 26.2937C45.5489 26.1457 45.5282 25.9971 45.4772 25.8578Z" fill="#EEF5FD"/>
<path id="Vector_9" d="M36.9871 28.2656L26.7277 25.0098C26.5878 24.9574 26.4608 24.8757 26.3551 24.7701C26.2494 24.6645 26.1675 24.5376 26.115 24.3978C26.0624 24.258 26.0404 24.1085 26.0504 23.9595C26.0604 23.8104 26.1021 23.6653 26.1728 23.5337L34.5478 7.52698V5.23432C34.5467 5.00174 34.4681 4.77617 34.3245 4.5932C34.181 4.41024 33.9805 4.28029 33.7549 4.22388C33.5292 4.16748 33.2913 4.18781 33.0785 4.28168C32.8657 4.37555 32.6902 4.53761 32.5797 4.74229L21.5875 25.6798C21.5222 25.819 21.4883 25.9709 21.4883 26.1247C21.4883 26.2785 21.5222 26.4304 21.5875 26.5696C21.6458 26.7103 21.7341 26.8366 21.8462 26.9397C21.9583 27.0427 22.0915 27.1201 22.2366 27.1664L32.4541 30.3593V47.1093C32.4541 47.387 32.5644 47.6532 32.7607 47.8496C32.957 48.0459 33.2233 48.1562 33.501 48.1562C33.6904 48.1557 33.8761 48.1038 34.0383 48.0061C34.2005 47.9084 34.3332 47.7685 34.4222 47.6014L36.9871 42.7229V28.2656Z" fill="#D7E2F2"/>
</g>
<defs>
<clipPath id="clip0_958_323">
<rect width="67" height="67" fill="white"/>
</clipPath>
</defs>
</svg>
