<svg width="48" height="48" viewBox="0 0 48 48" fill="none" xmlns="http://www.w3.org/2000/svg">
<path d="M27.86 24C28.8418 24.768 29.635 25.7501 30.1792 26.8714C30.7234 27.9927 31.0042 29.2236 31 30.47V32C31 32.2652 30.8947 32.5196 30.7072 32.7071C30.5196 32.8946 30.2653 33 30 33H18C17.7348 33 17.4805 32.8946 17.2929 32.7071C17.1054 32.5196 17 32.2652 17 32V30.47C16.9959 29.2236 17.2767 27.9927 17.8209 26.8714C18.3651 25.7501 19.1583 24.768 20.14 24C18.5584 22.7597 17.4901 20.9793 17.14 19C17.0482 18.5154 17.0013 18.0233 17 17.53V16C17 15.7348 17.1054 15.4804 17.2929 15.2929C17.4805 15.1054 17.7348 15 18 15H30C30.2653 15 30.5196 15.1054 30.7072 15.2929C30.8947 15.4804 31 15.7348 31 16V17.53C31.0017 18.7281 30.7423 19.9122 30.24 21C29.6986 22.1763 28.8823 23.2052 27.86 24Z" fill="#407BFF"/>
<path d="M24 41C19.4913 41 15.1673 39.2089 11.9792 36.0208C8.79107 32.8327 7 28.5087 7 24C7 19.4913 8.79107 15.1673 11.9792 11.9792C15.1673 8.79107 19.4913 7 24 7C24.2652 7 24.5196 7.10536 24.7071 7.29289C24.8946 7.48043 25 7.73478 25 8C25 8.26522 24.8946 8.51957 24.7071 8.70711C24.5196 8.89464 24.2652 9 24 9C21.0333 9 18.1332 9.87973 15.6664 11.528C13.1997 13.1762 11.2771 15.5189 10.1418 18.2597C9.00649 21.0006 8.70944 24.0166 9.28822 26.9264C9.867 29.8361 11.2956 32.5088 13.3934 34.6066C15.4912 36.7044 18.1639 38.133 21.0736 38.7118C23.9834 39.2906 26.9994 38.9935 29.7403 37.8582C32.4811 36.7229 34.8238 34.8003 36.472 32.3336C38.1203 29.8668 39 26.9667 39 24C39 23.7348 39.1054 23.4804 39.2929 23.2929C39.4804 23.1054 39.7348 23 40 23C40.2652 23 40.5196 23.1054 40.7071 23.2929C40.8946 23.4804 41 23.7348 41 24C41 28.5087 39.2089 32.8327 36.0208 36.0208C32.8327 39.2089 28.5087 41 24 41Z" fill="#FF8300"/>
<path d="M24 9.00005C23.7348 9.00005 23.4804 8.89469 23.2929 8.70716C23.1054 8.51962 23 8.26527 23 8.00005C23.0016 7.86937 23.0288 7.74027 23.08 7.62005C23.1306 7.49887 23.2017 7.38725 23.29 7.29005C23.4055 7.16965 23.5492 7.08004 23.7081 7.02939C23.8671 6.97874 24.0362 6.96865 24.2 7.00005C24.2626 7.011 24.3233 7.03122 24.38 7.06005C24.4437 7.08194 24.5043 7.11221 24.56 7.15005L24.71 7.27005C24.7983 7.36725 24.8694 7.47887 24.92 7.60005C24.9729 7.71975 25.0002 7.84918 25.0002 7.98005C25.0002 8.11092 24.9729 8.24035 24.92 8.36005C24.8694 8.48124 24.7983 8.59285 24.71 8.69005L24.56 8.81005C24.5043 8.8479 24.4437 8.87816 24.38 8.90005C24.3258 8.94288 24.265 8.97665 24.2 9.00005H24ZM37.86 18.2601C37.7726 18.0208 37.7798 17.7571 37.8801 17.523C37.9805 17.2888 38.1664 17.1018 38.4 17.0001C38.5214 16.9492 38.6517 16.9229 38.7834 16.9225C38.915 16.9222 39.0454 16.9478 39.1671 16.998C39.2889 17.0482 39.3995 17.1219 39.4926 17.2149C39.5858 17.3079 39.6596 17.4184 39.71 17.5401C39.7608 17.6615 39.7872 17.7918 39.7875 17.9234C39.7879 18.0551 39.7622 18.1855 39.712 18.3072C39.6619 18.4289 39.5882 18.5395 39.4952 18.6327C39.4021 18.7258 39.2916 18.7997 39.17 18.8501C39.0455 18.8975 38.9132 18.9212 38.78 18.9201C38.5779 18.9159 38.3818 18.8506 38.2176 18.7328C38.0534 18.615 37.9287 18.4502 37.86 18.2601ZM34.61 13.3901C34.4237 13.2027 34.3192 12.9492 34.3192 12.6851C34.3192 12.4209 34.4237 12.1674 34.61 11.9801C34.799 11.8025 35.0497 11.7053 35.309 11.709C35.5684 11.7128 35.8161 11.8171 36 12.0001C36.1863 12.1874 36.2908 12.4409 36.2908 12.7051C36.2908 12.9692 36.1863 13.2227 36 13.4101C35.9074 13.5045 35.7969 13.5797 35.6751 13.6312C35.5532 13.6827 35.4223 13.7095 35.29 13.7101C35.0303 13.6959 34.7864 13.5811 34.61 13.3901ZM29.74 10.1401C29.6184 10.0897 29.5079 10.0158 29.4148 9.92267C29.3218 9.82951 29.2481 9.7189 29.198 9.59719C29.1478 9.47548 29.1221 9.34506 29.1225 9.21342C29.1228 9.08177 29.1492 8.95149 29.2 8.83005C29.2504 8.70842 29.3242 8.59792 29.4174 8.5049C29.5105 8.41188 29.6211 8.33817 29.7429 8.288C29.8646 8.23783 29.995 8.21219 30.1266 8.21254C30.2583 8.21289 30.3886 8.23923 30.51 8.29005C30.6316 8.3404 30.7421 8.41428 30.8352 8.50743C30.9282 8.60059 31.0019 8.7112 31.052 8.83291C31.1022 8.95462 31.1279 9.08504 31.1275 9.21668C31.1272 9.34833 31.1008 9.47861 31.05 9.60005C30.975 9.78267 30.8476 9.939 30.6839 10.0493C30.5201 10.1597 30.3274 10.2191 30.13 10.2201C29.9962 10.2176 29.864 10.1904 29.74 10.1401ZM40 25.0001C39.8684 25.0008 39.7379 24.9756 39.6161 24.9258C39.4943 24.8761 39.3834 24.8027 39.29 24.7101C39.1963 24.6171 39.1219 24.5065 39.0711 24.3846C39.0203 24.2628 38.9942 24.1321 38.9942 24.0001C38.9942 23.868 39.0203 23.7373 39.0711 23.6155C39.1219 23.4936 39.1963 23.383 39.29 23.2901L39.44 23.1701C39.4957 23.1322 39.5563 23.1019 39.62 23.0801L39.8 23.0001C39.9287 22.9745 40.0613 22.9745 40.19 23.0001C40.2562 23.0093 40.3205 23.0296 40.38 23.0601C40.4414 23.08 40.4989 23.1105 40.55 23.1501L40.71 23.2701C40.8037 23.363 40.8781 23.4736 40.9289 23.5955C40.9797 23.7173 41.0058 23.848 41.0058 23.9801C41.0058 24.1121 40.9797 24.2428 40.9289 24.3646C40.8781 24.4865 40.8037 24.5971 40.71 24.6901C40.6182 24.7864 40.5082 24.8634 40.3862 24.9166C40.2643 24.9698 40.133 24.9982 40 25.0001Z" fill="#FF8300"/>
<path d="M22.1301 12.1301C21.8678 12.129 21.6164 12.0249 21.4301 11.8401C21.2439 11.6527 21.1393 11.3993 21.1393 11.1351C21.1393 10.8709 21.2439 10.6175 21.4301 10.4301L23.7201 8.13011L21.4301 5.84011C21.3254 5.75046 21.2404 5.64015 21.1804 5.51608C21.1204 5.39202 21.0866 5.25688 21.0813 5.11916C21.076 4.98144 21.0992 4.84411 21.1495 4.71579C21.1997 4.58746 21.276 4.47091 21.3735 4.37346C21.4709 4.276 21.5875 4.19975 21.7158 4.14947C21.8441 4.0992 21.9814 4.07599 22.1192 4.08131C22.2569 4.08663 22.392 4.12036 22.5161 4.18038C22.6401 4.24041 22.7505 4.32543 22.8401 4.43011L25.8401 7.43011C26.0264 7.61747 26.1309 7.87092 26.1309 8.13511C26.1309 8.3993 26.0264 8.65275 25.8401 8.84011L22.8401 11.8401C22.7467 11.9328 22.6359 12.0061 22.514 12.0559C22.3922 12.1056 22.2617 12.1309 22.1301 12.1301Z" fill="#FF8300"/>
<path d="M28.7799 31.38L24.7799 26.38C24.6862 26.2632 24.5674 26.1689 24.4324 26.1042C24.2974 26.0394 24.1496 26.0058 23.9999 26.0058C23.8501 26.0058 23.7023 26.0394 23.5673 26.1042C23.4323 26.1689 23.3136 26.2632 23.2199 26.38L19.2199 31.38C19.1038 31.5263 19.0311 31.7023 19.0098 31.8879C18.9886 32.0734 19.0198 32.2612 19.0999 32.43C19.1809 32.6002 19.3084 32.744 19.4677 32.8448C19.6269 32.9457 19.8114 32.9995 19.9999 33H27.9999C28.1884 32.9995 28.3729 32.9457 28.5321 32.8448C28.6913 32.744 28.8188 32.6002 28.8999 32.43C28.9799 32.2612 29.0111 32.0734 28.9899 31.8879C28.9687 31.7023 28.896 31.5263 28.7799 31.38ZM30.8699 19C30.7485 19.6914 30.5367 20.3639 30.2399 21H17.7599C17.463 20.3639 17.2512 19.6914 17.1299 19H30.8699Z" fill="#FFD100"/>
<path d="M32 17H16C15.7348 17 15.4804 16.8946 15.2929 16.7071C15.1054 16.5196 15 16.2652 15 16C15 15.7348 15.1054 15.4804 15.2929 15.2929C15.4804 15.1054 15.7348 15 16 15H32C32.2652 15 32.5196 15.1054 32.7071 15.2929C32.8946 15.4804 33 15.7348 33 16C33 16.2652 32.8946 16.5196 32.7071 16.7071C32.5196 16.8946 32.2652 17 32 17ZM32 33H16C15.7348 33 15.4804 32.8946 15.2929 32.7071C15.1054 32.5196 15 32.2652 15 32C15 31.7348 15.1054 31.4804 15.2929 31.2929C15.4804 31.1054 15.7348 31 16 31H32C32.2652 31 32.5196 31.1054 32.7071 31.2929C32.8946 31.4804 33 31.7348 33 32C33 32.2652 32.8946 32.5196 32.7071 32.7071C32.5196 32.8946 32.2652 33 32 33Z" fill="#3F2975"/>
</svg>
