<svg xmlns="http://www.w3.org/2000/svg" width="32" height="32" viewBox="0 0 32 32" fill="none">
<path d="M27.0202 22.8199C27.0202 22.8682 27.0394 22.9145 27.0735 22.9486C27.1076 22.9827 27.1539 23.0019 27.2022 23.0019C27.2505 23.0019 27.2968 22.9827 27.3309 22.9486C27.365 22.9145 27.3842 22.8682 27.3842 22.8199C27.3842 22.7717 27.365 22.7254 27.3309 22.6912C27.2968 22.6571 27.2505 22.6379 27.2022 22.6379C27.1539 22.6379 27.1076 22.6571 27.0735 22.6912C27.0394 22.7254 27.0202 22.7717 27.0202 22.8199ZM23.0022 26.9659C23.0022 27.0619 23.0403 27.154 23.1082 27.2219C23.1761 27.2898 23.2682 27.3279 23.3642 27.3279C23.4602 27.3279 23.5523 27.2898 23.6202 27.2219C23.6881 27.154 23.7262 27.0619 23.7262 26.9659C23.7262 26.8699 23.6881 26.7778 23.6202 26.71C23.5523 26.6421 23.4602 26.6039 23.3642 26.6039C23.2682 26.6039 23.1761 26.6421 23.1082 26.71C23.0403 26.7778 23.0022 26.8699 23.0022 26.9659ZM17.5862 29.0999C17.5862 29.2442 17.6435 29.3826 17.7455 29.4846C17.8476 29.5866 17.9859 29.6439 18.1302 29.6439C18.2745 29.6439 18.4128 29.5866 18.5149 29.4846C18.6169 29.3826 18.6742 29.2442 18.6742 29.0999C18.6742 29.0285 18.6601 28.9577 18.6328 28.8917C18.6055 28.8257 18.5654 28.7658 18.5149 28.7153C18.4644 28.6647 18.4044 28.6247 18.3384 28.5973C18.2724 28.57 18.2016 28.5559 18.1302 28.5559C18.0588 28.5559 17.988 28.57 17.922 28.5973C17.856 28.6247 17.7961 28.6647 17.7455 28.7153C17.695 28.7658 17.655 28.8257 17.6276 28.8917C17.6003 28.9577 17.5862 29.0285 17.5862 29.0999ZM11.7562 28.8139C11.7562 29.0059 11.8325 29.1901 11.9683 29.3259C12.104 29.4616 12.2882 29.5379 12.4802 29.5379C12.6722 29.5379 12.8564 29.4616 12.9921 29.3259C13.1279 29.1901 13.2042 29.0059 13.2042 28.8139C13.2042 28.6219 13.1279 28.4378 12.9921 28.302C12.8564 28.1662 12.6722 28.0899 12.4802 28.0899C12.2882 28.0899 12.104 28.1662 11.9683 28.302C11.8325 28.4378 11.7562 28.6219 11.7562 28.8139ZM6.5842 26.1599C6.5842 26.2789 6.60764 26.3967 6.65317 26.5066C6.6987 26.6166 6.76543 26.7164 6.84956 26.8006C6.93369 26.8847 7.03357 26.9514 7.14349 26.997C7.25341 27.0425 7.37123 27.0659 7.4902 27.0659C7.60918 27.0659 7.72699 27.0425 7.83691 26.997C7.94684 26.9514 8.04671 26.8847 8.13084 26.8006C8.21497 26.7164 8.28171 26.6166 8.32724 26.5066C8.37277 26.3967 8.3962 26.2789 8.3962 26.1599C8.3962 26.0409 8.37277 25.9231 8.32724 25.8132C8.28171 25.7033 8.21497 25.6034 8.13084 25.5193C8.04671 25.4352 7.94684 25.3684 7.83691 25.3229C7.72699 25.2774 7.60918 25.2539 7.4902 25.2539C7.37123 25.2539 7.25341 25.2774 7.14349 25.3229C7.03357 25.3684 6.93369 25.4352 6.84956 25.5193C6.76543 25.6034 6.6987 25.7033 6.65317 25.8132C6.60764 25.9231 6.5842 26.0409 6.5842 26.1599ZM3.0022 21.6479C3.0022 21.9365 3.11683 22.2132 3.32087 22.4173C3.52491 22.6213 3.80165 22.7359 4.0902 22.7359C4.37876 22.7359 4.6555 22.6213 4.85954 22.4173C5.06357 22.2132 5.1782 21.9365 5.1782 21.6479C5.1782 21.3594 5.06357 21.0826 4.85954 20.8786C4.6555 20.6746 4.37876 20.5599 4.0902 20.5599C3.80165 20.5599 3.52491 20.6746 3.32087 20.8786C3.11683 21.0826 3.0022 21.3594 3.0022 21.6479ZM1.6582 16.1079C1.6582 16.2744 1.691 16.4393 1.75472 16.5932C1.81845 16.747 1.91185 16.8868 2.02959 17.0045C2.14734 17.1223 2.28712 17.2157 2.44096 17.2794C2.5948 17.3431 2.75969 17.3759 2.9262 17.3759C3.09272 17.3759 3.2576 17.3431 3.41145 17.2794C3.56529 17.2157 3.70507 17.1223 3.82281 17.0045C3.94056 16.8868 4.03396 16.747 4.09768 16.5932C4.16141 16.4393 4.1942 16.2744 4.1942 16.1079C4.1942 15.7716 4.06061 15.4491 3.82281 15.2113C3.58502 14.9735 3.2625 14.8399 2.9262 14.8399C2.58991 14.8399 2.26739 14.9735 2.02959 15.2113C1.7918 15.4491 1.6582 15.7716 1.6582 16.1079ZM2.7642 10.6039C2.7642 10.7943 2.80171 10.9829 2.87458 11.1588C2.94745 11.3347 3.05425 11.4946 3.1889 11.6292C3.32354 11.7639 3.48339 11.8707 3.65931 11.9435C3.83523 12.0164 4.02379 12.0539 4.2142 12.0539C4.59877 12.0539 4.96758 11.9012 5.23951 11.6292C5.51144 11.3573 5.6642 10.9885 5.6642 10.6039C5.6642 10.2194 5.51144 9.85055 5.23951 9.57862C4.96758 9.30669 4.59877 9.15392 4.2142 9.15392C3.82964 9.15392 3.46083 9.30669 3.1889 9.57862C2.91697 9.85055 2.7642 10.2194 2.7642 10.6039ZM6.0822 6.16592C6.0822 6.38024 6.12442 6.59246 6.20643 6.79046C6.28845 6.98847 6.40866 7.16838 6.5602 7.31992C6.71175 7.47147 6.89166 7.59168 7.08966 7.6737C7.28767 7.75571 7.49989 7.79792 7.7142 7.79792C7.92852 7.79792 8.14074 7.75571 8.33874 7.6737C8.53675 7.59168 8.71666 7.47147 8.8682 7.31992C9.01975 7.16838 9.13996 6.98847 9.22197 6.79046C9.30399 6.59246 9.3462 6.38024 9.3462 6.16592C9.3462 5.73309 9.17426 5.31798 8.8682 5.01193C8.56214 4.70587 8.14704 4.53392 7.7142 4.53392C7.28137 4.53392 6.86626 4.70587 6.5602 5.01193C6.25415 5.31798 6.0822 5.73309 6.0822 6.16592ZM10.9542 3.62392C10.9542 3.86188 11.0011 4.0975 11.0921 4.31735C11.1832 4.53719 11.3167 4.73694 11.4849 4.9052C11.6532 5.07346 11.8529 5.20693 12.0728 5.29799C12.2926 5.38905 12.5282 5.43592 12.7662 5.43592C13.2468 5.43592 13.7077 5.24502 14.0475 4.9052C14.3873 4.56539 14.5782 4.1045 14.5782 3.62392C14.5782 3.14335 14.3873 2.68246 14.0475 2.34265C13.7077 2.00283 13.2468 1.81192 12.7662 1.81192C12.2856 1.81192 11.8247 2.00283 11.4849 2.34265C11.1451 2.68246 10.9542 3.14335 10.9542 3.62392ZM16.4262 3.46592C16.4262 3.99477 16.6363 4.50195 17.0102 4.87589C17.3842 5.24984 17.8914 5.45992 18.4202 5.45992C18.949 5.45992 19.4562 5.24984 19.8302 4.87589C20.2041 4.50195 20.4142 3.99477 20.4142 3.46592C20.4142 2.93708 20.2041 2.4299 19.8302 2.05595C19.4562 1.68201 18.949 1.47192 18.4202 1.47192C17.8914 1.47192 17.3842 1.68201 17.0102 2.05595C16.6363 2.4299 16.4262 2.93708 16.4262 3.46592ZM21.4362 5.71992C21.4362 6.2965 21.6652 6.84947 22.073 7.25717C22.4807 7.66488 23.0336 7.89392 23.6102 7.89392C24.1868 7.89392 24.7397 7.66488 25.1475 7.25717C25.5552 6.84947 25.7842 6.2965 25.7842 5.71992C25.7842 5.14334 25.5552 4.59038 25.1475 4.18267C24.7397 3.77497 24.1868 3.54592 23.6102 3.54592C23.0336 3.54592 22.4807 3.77497 22.073 4.18267C21.6652 4.59038 21.4362 5.14334 21.4362 5.71992ZM24.9962 9.95392C24.9962 10.2633 25.0571 10.5697 25.1755 10.8555C25.2939 11.1414 25.4675 11.4011 25.6863 11.6199C25.905 11.8386 26.1648 12.0122 26.4506 12.1306C26.7364 12.249 27.0428 12.3099 27.3522 12.3099C27.6616 12.3099 27.968 12.249 28.2538 12.1306C28.5396 12.0122 28.7994 11.8386 29.0181 11.6199C29.2369 11.4011 29.4105 11.1414 29.5289 10.8555C29.6473 10.5697 29.7082 10.2633 29.7082 9.95392C29.7082 9.64453 29.6473 9.33816 29.5289 9.05232C29.4105 8.76648 29.2369 8.50675 29.0181 8.28798C28.7994 8.06921 28.5396 7.89566 28.2538 7.77726C27.968 7.65886 27.6616 7.59792 27.3522 7.59792C27.0428 7.59792 26.7364 7.65886 26.4506 7.77726C26.1648 7.89566 25.905 8.06921 25.6863 8.28798C25.4675 8.50675 25.2939 8.76648 25.1755 9.05232C25.0571 9.33816 24.9962 9.64453 24.9962 9.95392ZM26.4122 15.4379C26.4122 15.7712 26.4778 16.1012 26.6054 16.4092C26.7329 16.7171 26.9199 16.9969 27.1556 17.2326C27.3912 17.4682 27.671 17.6552 27.979 17.7827C28.2869 17.9103 28.6169 17.9759 28.9502 17.9759C29.6233 17.9759 30.2689 17.7085 30.7448 17.2326C31.2208 16.7566 31.4882 16.111 31.4882 15.4379C31.4882 14.7648 31.2208 14.1193 30.7448 13.6433C30.2689 13.1673 29.6233 12.8999 28.9502 12.8999C28.2771 12.8999 27.6315 13.1673 27.1556 13.6433C26.6796 14.1193 26.4122 14.7648 26.4122 15.4379Z" fill="#373636"/>
</svg>