<svg width="32" height="33" viewBox="0 0 32 33" fill="none" xmlns="http://www.w3.org/2000/svg">
<g id="Lock">
<path id="Vector" d="M12.1069 9.625C12.1069 8.53098 12.507 7.48177 13.2192 6.70818C13.9314 5.9346 14.8974 5.5 15.9046 5.5C16.9118 5.5 17.8777 5.9346 18.5899 6.70818C19.3021 7.48177 19.7022 8.53098 19.7022 9.625V12.375H22.2339V9.625C22.2339 7.80164 21.5671 6.05295 20.3801 4.76364C19.1931 3.47433 17.5832 2.75 15.9046 2.75C14.2259 2.75 12.616 3.47433 11.429 4.76364C10.242 6.05295 9.5752 7.80164 9.5752 9.625V12.375H12.1069V9.625ZM15.9046 24.75C15.5688 24.75 15.2469 24.6051 15.0095 24.3473C14.7721 24.0894 14.6387 23.7397 14.6387 23.375V19.25C14.6387 18.8853 14.7721 18.5356 15.0095 18.2777C15.2469 18.0199 15.5688 17.875 15.9046 17.875C16.2403 17.875 16.5623 18.0199 16.7997 18.2777C17.0371 18.5356 17.1704 18.8853 17.1704 19.25V23.375C17.1704 23.7397 17.0371 24.0894 16.7997 24.3473C16.5623 24.6051 16.2403 24.75 15.9046 24.75Z" fill="#8381FF"/>
<path id="Vector_2" d="M22.2337 12.375H9.57496C8.56777 12.375 7.60183 12.8096 6.88964 13.5832C6.17745 14.3568 5.77734 15.406 5.77734 16.5V26.125C5.77734 27.219 6.17745 28.2682 6.88964 29.0418C7.60183 29.8154 8.56777 30.25 9.57496 30.25H22.2337C23.2409 30.25 24.2068 29.8154 24.919 29.0418C25.6312 28.2682 26.0313 27.219 26.0313 26.125V16.5C26.0313 15.406 25.6312 14.3568 24.919 13.5832C24.2068 12.8096 23.2409 12.375 22.2337 12.375ZM17.1702 23.375C17.1702 23.7397 17.0368 24.0894 16.7994 24.3473C16.562 24.6051 16.2401 24.75 15.9043 24.75C15.5686 24.75 15.2466 24.6051 15.0092 24.3473C14.7718 24.0894 14.6385 23.7397 14.6385 23.375V19.25C14.6385 18.8853 14.7718 18.5356 15.0092 18.2777C15.2466 18.0199 15.5686 17.875 15.9043 17.875C16.2401 17.875 16.562 18.0199 16.7994 18.2777C17.0368 18.5356 17.1702 18.8853 17.1702 19.25V23.375Z" fill="#493FF5"/>
</g>
</svg>
