<svg width="33" height="33" viewBox="0 0 33 33" fill="none" xmlns="http://www.w3.org/2000/svg">
<g clip-path="url(#clip0_1_50956)">
<mask id="mask0_1_50956" style="mask-type:luminance" maskUnits="userSpaceOnUse" x="-520" y="-277" width="658" height="376">
<path d="M-519.535 -276.988H137.742V98.5938H-519.535V-276.988Z" fill="white"/>
</mask>
<g mask="url(#mask0_1_50956)">
<path d="M25.1371 33H7.86291C3.52019 33 0 29.4794 0 25.1372V7.86328C0 3.52062 3.52019 1.52588e-05 7.86291 1.52588e-05H25.1371C29.4798 1.52588e-05 33 3.52062 33 7.86328V25.1372C33 29.4794 29.4798 33 25.1371 33Z" fill="#1B3D6F"/>
</g>
<mask id="mask1_1_50956" style="mask-type:luminance" maskUnits="userSpaceOnUse" x="-520" y="-277" width="658" height="376">
<path d="M-519.535 -276.988H137.742V98.5938H-519.535V-276.988Z" fill="white"/>
</mask>
<g mask="url(#mask1_1_50956)">
<path d="M23.4663 21.1789C22.8978 21.6972 22.3447 22.17 21.8086 22.5859C22.1222 22.3268 22.425 22.07 22.7213 21.8104C22.9739 21.5949 23.2138 21.3878 23.4663 21.1789Z" fill="#F9A144"/>
</g>
<mask id="mask2_1_50956" style="mask-type:luminance" maskUnits="userSpaceOnUse" x="-520" y="-277" width="658" height="376">
<path d="M-519.535 -276.988H137.742V98.5938H-519.535V-276.988Z" fill="white"/>
</mask>
<g mask="url(#mask2_1_50956)">
<path d="M23.4663 17.2492C22.8978 17.7675 22.3447 18.2403 21.8086 18.6562C22.1222 18.3971 22.425 18.1403 22.7213 17.8807C22.9739 17.6652 23.2138 17.4581 23.4663 17.2492Z" fill="#F9A144"/>
</g>
<mask id="mask3_1_50956" style="mask-type:luminance" maskUnits="userSpaceOnUse" x="-520" y="-277" width="658" height="376">
<path d="M-519.535 -276.988H137.742V98.5938H-519.535V-276.988Z" fill="white"/>
</mask>
<g mask="url(#mask3_1_50956)">
<path d="M3.8172 16H3.8125V14.7085H3.8172V16Z" fill="#F9A144"/>
</g>
<mask id="mask4_1_50956" style="mask-type:luminance" maskUnits="userSpaceOnUse" x="-520" y="-277" width="658" height="376">
<path d="M-519.535 -276.988H137.742V98.5938H-519.535V-276.988Z" fill="white"/>
</mask>
<g mask="url(#mask4_1_50956)">
<path d="M29.1863 16H29.1816V14.7085H29.1863V16Z" fill="#F9A144"/>
</g>
<mask id="mask5_1_50956" style="mask-type:luminance" maskUnits="userSpaceOnUse" x="-520" y="-277" width="658" height="376">
<path d="M-519.535 -276.988H137.742V98.5938H-519.535V-276.988Z" fill="white"/>
</mask>
<g mask="url(#mask5_1_50956)">
<path d="M23.4663 13.3195C22.8978 13.8378 22.3447 14.3106 21.8086 14.7266C22.1222 14.4674 22.425 14.2106 22.7213 13.951C22.9739 13.7355 23.2138 13.5285 23.4663 13.3195Z" fill="#F9A144"/>
</g>
<mask id="mask6_1_50956" style="mask-type:luminance" maskUnits="userSpaceOnUse" x="-520" y="-277" width="658" height="376">
<path d="M-519.535 -276.988H137.742V98.5938H-519.535V-276.988Z" fill="white"/>
</mask>
<g mask="url(#mask6_1_50956)">
<path d="M3.8172 12.0703H3.8125V10.7788H3.8172V12.0703Z" fill="#F9A144"/>
</g>
<mask id="mask7_1_50956" style="mask-type:luminance" maskUnits="userSpaceOnUse" x="-520" y="-277" width="658" height="376">
<path d="M-519.535 -276.988H137.742V98.5938H-519.535V-276.988Z" fill="white"/>
</mask>
<g mask="url(#mask7_1_50956)">
<path d="M28.0722 10.8682C26.3079 11.1489 24.953 12.0856 23.629 13.1837C23.6224 13.1902 23.5854 13.2142 23.5285 13.2639C23.5088 13.2771 23.4915 13.3034 23.4656 13.3207C22.8971 13.8391 22.3436 14.3118 21.8079 14.7278C21.7882 14.7475 21.7684 14.7606 21.7558 14.7714C19.9346 16.1893 18.2947 17.0367 17.0553 17.1892V14.3489C18.8825 14.1832 20.952 12.8959 22.5835 11.6283C22.5943 11.6217 22.6008 11.6109 22.6074 11.6043C23.276 11.086 23.8685 10.5696 24.3412 10.1344L24.3539 10.1213C25.5586 9.10814 26.6694 8.31566 28.0722 8.04101V10.8682ZM28.0722 14.7977C26.3079 15.0785 24.953 16.0151 23.629 17.1127C23.6224 17.1193 23.5854 17.1432 23.5285 17.1935C23.5088 17.2066 23.4915 17.2324 23.4656 17.2503C22.8971 17.7686 22.3436 18.2413 21.8079 18.6573C21.7882 18.6765 21.7684 18.6897 21.7558 18.7005C19.9346 20.1188 18.2947 20.9657 17.0553 21.1183V18.4873C18.8825 18.3216 20.952 17.0343 22.5835 15.7691C22.5943 15.7625 22.6008 15.7494 22.6074 15.7428C23.276 15.2268 23.8685 14.7081 24.3412 14.2747L24.3539 14.2616C25.5586 13.2489 26.6694 12.456 28.0722 12.1795V14.7977ZM28.0722 18.7268C26.3079 19.008 24.953 19.9446 23.629 21.0422C23.6224 21.0488 23.5854 21.0727 23.5285 21.123C23.5088 21.1357 23.4915 21.1619 23.4656 21.1793C22.8971 21.6976 22.3436 22.1704 21.8079 22.5863C21.7882 22.6061 21.7684 22.6192 21.7558 22.63C19.9346 24.0478 18.2947 24.8952 17.0553 25.0478V22.4164C18.8825 22.2511 20.952 20.9638 22.5835 19.6981C22.5943 19.6915 22.6008 19.6789 22.6074 19.6723C23.276 19.1559 23.8685 18.6376 24.3412 18.2042L24.3539 18.1911C25.5586 17.178 26.6694 16.3855 28.0722 16.109V18.7268ZM11.4074 22.7629L11.244 22.63L11.2309 22.6192C10.9041 22.3469 10.5882 22.077 10.2788 21.8112C8.65201 20.4061 7.09896 19.0732 4.92713 18.7268V16.109C6.62854 16.4418 7.89614 17.5352 9.4337 18.8596C9.75624 19.1362 10.083 19.4131 10.4182 19.6981L10.6121 19.8484C12.2807 21.1619 13.6309 22.2248 15.9445 22.4056V25.0389C14.0839 24.8647 12.9863 23.9981 11.4074 22.7629ZM4.92713 12.1795C6.62854 12.5128 7.89614 13.6062 9.4337 14.9306C9.75624 15.2071 10.083 15.4836 10.4182 15.7691L10.6121 15.9193C12.2807 17.2324 13.6309 18.2958 15.9445 18.4765V21.1098C14.0839 20.9357 12.9863 20.0685 11.4074 18.8333L11.244 18.7005L11.2309 18.6897C10.9041 18.4174 10.5882 18.1474 10.2788 17.8817C8.65201 16.477 7.09896 15.1437 4.92713 14.7977V12.1795ZM4.92713 8.04101C6.62854 8.37434 7.89614 9.46775 9.4337 10.7898C9.75624 11.0687 10.083 11.3452 10.4182 11.6283L10.6121 11.7809C12.2807 13.0945 13.6309 14.1574 15.9445 14.3381V17.1803C14.0839 17.0061 12.9863 16.139 11.4074 14.9043L11.244 14.7714L11.2309 14.7606C10.9041 14.4883 10.5882 14.216 10.2788 13.9522C8.65201 12.5475 7.09896 11.2147 4.92713 10.8682V8.04101ZM29.183 7.93444H29.1854V6.64056C26.8525 6.64056 25.2187 7.72506 23.629 9.04288C23.6224 9.04945 23.5854 9.07574 23.5285 9.1255C23.5088 9.13865 23.4915 9.16259 23.4656 9.18231C22.8971 9.69874 22.3436 10.171 21.8079 10.5875C21.7882 10.6067 21.7684 10.6198 21.7558 10.633C19.7389 12.2034 17.9417 13.0724 16.6675 13.0724C14.3454 13.0724 13.1802 12.1532 11.4074 10.7659L11.244 10.633L11.2309 10.6198C10.9041 10.3476 10.5882 10.0776 10.2788 9.81188C8.38628 8.1781 6.59567 6.64056 3.81445 6.64056V7.93444H3.81633V18.6399H3.81445V19.9314C6.11633 19.9314 7.58018 21.1925 9.4337 22.7892C9.75624 23.0657 10.083 23.3422 10.4182 23.6276L10.6121 23.7779C12.4483 25.222 13.899 26.3633 16.6675 26.3633C18.5844 26.3633 20.8365 24.9825 22.5835 23.6276C22.5943 23.6211 22.6008 23.6079 22.6074 23.6013C23.276 23.0854 23.8685 22.5666 24.3412 22.1333L24.3539 22.1202C25.8614 20.8526 27.2182 19.9314 29.1854 19.9314V18.6399H29.183V7.93444Z" fill="#F9A144"/>
</g>
<mask id="mask8_1_50956" style="mask-type:luminance" maskUnits="userSpaceOnUse" x="-520" y="-277" width="658" height="376">
<path d="M-519.535 -276.988H137.742V98.5938H-519.535V-276.988Z" fill="white"/>
</mask>
<g mask="url(#mask8_1_50956)">
<path d="M29.1863 12.0703H29.1816V10.7788H29.1863V12.0703Z" fill="#F9A144"/>
</g>
<mask id="mask9_1_50956" style="mask-type:luminance" maskUnits="userSpaceOnUse" x="-520" y="-277" width="658" height="376">
<path d="M-519.535 -276.988H137.742V98.5938H-519.535V-276.988Z" fill="white"/>
</mask>
<g mask="url(#mask9_1_50956)">
<path d="M23.4663 9.18126C22.8978 9.69769 22.3447 10.17 21.8086 10.5859C22.1222 10.3291 22.425 10.07 22.7213 9.81083C22.9739 9.59722 23.2138 9.3883 23.4663 9.18126Z" fill="#F9A144"/>
</g>
</g>
<defs>
<clipPath id="clip0_1_50956">
<rect width="33" height="33" fill="white"/>
</clipPath>
</defs>
</svg>
