<svg width="240" height="231" viewBox="0 0 240 231" fill="none" xmlns="http://www.w3.org/2000/svg">
<path d="M6.476 214.854L7.322 215.718C7.094 215.994 6.764 216.24 6.332 216.456C5.9 216.672 5.336 216.78 4.64 216.78C3.548 216.78 2.708 216.516 2.12 215.988C1.544 215.46 1.256 214.728 1.256 213.792C1.256 213.192 1.376 212.676 1.616 212.244C1.868 211.812 2.24 211.434 2.732 211.11C3.236 210.786 3.866 210.492 4.622 210.228L6.494 209.562V211.596L4.874 212.136C4.298 212.328 3.896 212.55 3.668 212.802C3.452 213.042 3.344 213.324 3.344 213.648C3.344 213.996 3.47 214.266 3.722 214.458C3.974 214.638 4.34 214.734 4.82 214.746C5.192 214.746 5.522 214.68 5.81 214.548C6.11 214.416 6.32 214.26 6.44 214.08L6.17 215.16V209.184C6.17 208.62 6.53 208.338 7.25 208.338C7.454 208.338 7.646 208.356 7.826 208.392C8.018 208.416 8.162 208.44 8.258 208.464V214.134C8.258 214.566 8.354 214.866 8.546 215.034C8.75 215.19 9.02 215.268 9.356 215.268H9.554V217.5H9.248C8.516 217.5 7.892 217.296 7.376 216.888C6.86 216.468 6.56 215.79 6.476 214.854ZM9.554 217.5V215.268C9.638 215.4 9.704 215.562 9.752 215.754C9.8 215.934 9.824 216.144 9.824 216.384C9.824 216.624 9.8 216.84 9.752 217.032C9.704 217.224 9.638 217.38 9.554 217.5ZM9.26811 217.5V215.25H9.50211C9.82611 215.25 10.1021 215.178 10.3301 215.034C10.5581 214.89 10.7501 214.704 10.9061 214.476C11.0621 214.248 11.1941 214.02 11.3021 213.792C11.6501 213.072 12.0161 212.46 12.4001 211.956C12.7841 211.44 13.2041 211.05 13.6601 210.786C14.1281 210.522 14.6561 210.39 15.2441 210.39C15.8681 210.39 16.4201 210.528 16.9001 210.804C17.3801 211.08 17.7701 211.47 18.0701 211.974C18.3701 212.478 18.5681 213.054 18.6641 213.702C18.7481 214.23 18.9101 214.626 19.1501 214.89C19.4021 215.142 19.8461 215.268 20.4821 215.268H20.5361V217.5H20.4461C19.9181 217.5 19.4501 217.41 19.0421 217.23C18.6461 217.05 18.3221 216.78 18.0701 216.42C17.8301 216.06 17.6741 215.622 17.6021 215.106L18.1241 215.52C18.0161 216.072 17.7221 216.54 17.2421 216.924C16.7741 217.296 16.1201 217.482 15.2801 217.482C14.7521 217.482 14.2541 217.404 13.7861 217.248C13.3301 217.092 12.9401 216.87 12.6161 216.582C12.3041 216.282 12.0821 215.934 11.9501 215.538L12.3461 215.844C12.0821 216.312 11.7161 216.708 11.2481 217.032C10.7921 217.344 10.2221 217.5 9.53811 217.5H9.26811ZM15.4241 215.376C15.8201 215.376 16.1381 215.28 16.3781 215.088C16.6301 214.884 16.7561 214.614 16.7561 214.278C16.7561 213.99 16.7021 213.714 16.5941 213.45C16.4981 213.174 16.3361 212.952 16.1081 212.784C15.8921 212.616 15.6101 212.532 15.2621 212.532C14.7941 212.532 14.3921 212.712 14.0561 213.072C13.7321 213.432 13.4561 213.87 13.2281 214.386C13.4801 214.698 13.7981 214.944 14.1821 215.124C14.5781 215.292 14.9921 215.376 15.4241 215.376ZM20.5361 217.5V215.268C20.6201 215.4 20.6861 215.562 20.7341 215.754C20.7821 215.934 20.8061 216.144 20.8061 216.384C20.8061 216.624 20.7821 216.84 20.7341 217.032C20.6861 217.224 20.6201 217.38 20.5361 217.5ZM20.2544 217.5V215.268H20.5604C20.8004 215.268 21.0164 215.232 21.2084 215.16C21.4124 215.076 21.5744 214.938 21.6944 214.746C21.8144 214.554 21.8744 214.278 21.8744 213.918L21.8384 205.494C21.9464 205.47 22.0964 205.44 22.2884 205.404C22.4924 205.368 22.7084 205.35 22.9364 205.35C23.6684 205.35 24.0344 205.662 24.0344 206.286L23.9984 213.936C23.9984 214.284 24.0524 214.56 24.1604 214.764C24.2804 214.956 24.4364 215.088 24.6284 215.16C24.8204 215.232 25.0244 215.268 25.2404 215.268H25.5824V217.5H25.2944C24.7784 217.5 24.3344 217.416 23.9624 217.248C23.5904 217.068 23.2964 216.828 23.0804 216.528C22.8764 216.228 22.7624 215.892 22.7384 215.52H23.0804C23.0684 215.856 22.9664 216.18 22.7744 216.492C22.5944 216.792 22.3304 217.038 21.9824 217.23C21.6344 217.41 21.2144 217.5 20.7224 217.5H20.2544ZM25.5824 217.5V215.268C25.6664 215.4 25.7324 215.562 25.7804 215.754C25.8284 215.934 25.8524 216.144 25.8524 216.384C25.8524 216.624 25.8284 216.84 25.7804 217.032C25.7324 217.224 25.6664 217.38 25.5824 217.5ZM25.2994 217.5V215.268H26.7034C27.1834 215.268 27.6754 215.238 28.1794 215.178C28.6954 215.106 29.1754 214.992 29.6194 214.836L31.5094 216.168C31.1614 216.396 30.7174 216.612 30.1774 216.816C29.6374 217.02 29.0434 217.188 28.3954 217.32C27.7474 217.44 27.0874 217.5 26.4154 217.5H25.2994ZM31.9414 214.998L30.7354 214.728C31.1554 214.572 31.5274 214.41 31.8514 214.242C32.1874 214.074 32.4514 213.894 32.6434 213.702C32.8354 213.498 32.9314 213.27 32.9314 213.018C32.9314 212.646 32.7514 212.382 32.3914 212.226C32.0314 212.07 31.5094 211.992 30.8254 211.992C30.4174 211.992 30.0154 212.022 29.6194 212.082C29.2234 212.13 28.8634 212.196 28.5394 212.28C28.8154 212.532 29.1394 212.826 29.5114 213.162C29.8834 213.486 30.2794 213.81 30.6994 214.134C31.1194 214.446 31.5334 214.734 31.9414 214.998ZM32.9314 215.016C33.0994 215.076 33.2614 215.124 33.4174 215.16C33.5734 215.196 33.7474 215.226 33.9394 215.25C34.1434 215.262 34.4014 215.268 34.7134 215.268H36.3514V217.5H35.2534C34.7254 217.5 34.1794 217.446 33.6154 217.338C33.0634 217.23 32.5234 217.056 31.9954 216.816C31.4794 216.576 30.9994 216.246 30.5554 215.826L32.9314 215.016ZM30.4474 216.168L29.5834 215.628C29.0074 215.22 28.4734 214.8 27.9814 214.368C27.4894 213.924 26.9794 213.45 26.4514 212.946C26.4394 212.814 26.4274 212.688 26.4154 212.568C26.4154 212.448 26.4154 212.346 26.4154 212.262C26.4154 211.926 26.4274 211.632 26.4514 211.38C26.4874 211.128 26.5354 210.888 26.5954 210.66C27.0874 210.456 27.7114 210.276 28.4674 210.12C29.2234 209.952 29.9914 209.868 30.7714 209.868C32.2354 209.868 33.3154 210.114 34.0114 210.606C34.7074 211.098 35.0554 211.788 35.0554 212.676C35.0554 213.096 34.9654 213.468 34.7854 213.792C34.6054 214.116 34.3654 214.398 34.0654 214.638C33.7774 214.878 33.4654 215.088 33.1294 215.268L30.4474 216.168ZM36.3514 217.5V215.268C36.4354 215.4 36.5014 215.562 36.5494 215.754C36.5974 215.934 36.6214 216.144 36.6214 216.384C36.6214 216.624 36.5974 216.84 36.5494 217.032C36.5014 217.224 36.4354 217.38 36.3514 217.5ZM35.9132 217.5V215.268H36.2912C36.8072 215.268 37.2212 215.16 37.5332 214.944C37.8572 214.716 38.0252 214.314 38.0372 213.738L38.0912 211.542C38.1992 211.506 38.3312 211.47 38.4872 211.434C38.6432 211.386 38.8172 211.362 39.0092 211.362C39.2732 211.362 39.5012 211.434 39.6932 211.578C39.8852 211.722 39.9872 211.956 39.9992 212.28L40.0532 213.792C40.0772 214.344 40.2452 214.728 40.5572 214.944C40.8812 215.16 41.2952 215.268 41.7992 215.268H42.1412V217.5H41.7632C41.3312 217.5 40.9232 217.44 40.5392 217.32C40.1552 217.2 39.8252 217.008 39.5492 216.744C39.2732 216.48 39.0812 216.144 38.9732 215.736L39.1172 215.718C39.0692 216.138 38.9012 216.48 38.6132 216.744C38.3372 216.996 37.9952 217.188 37.5872 217.32C37.1792 217.44 36.7712 217.5 36.3632 217.5H35.9132ZM42.1412 217.5V215.268C42.2252 215.4 42.2912 215.562 42.3392 215.754C42.3872 215.934 42.4112 216.144 42.4112 216.384C42.4112 216.624 42.3812 216.84 42.3212 217.032C42.2732 217.224 42.2132 217.38 42.1412 217.5ZM37.5692 210.048C37.2332 210.048 36.9632 209.952 36.7592 209.76C36.5552 209.556 36.4532 209.28 36.4532 208.932C36.4532 208.596 36.5552 208.326 36.7592 208.122C36.9632 207.918 37.2332 207.816 37.5692 207.816C37.9172 207.816 38.1872 207.918 38.3792 208.122C38.5832 208.326 38.6852 208.596 38.6852 208.932C38.6852 209.28 38.5832 209.556 38.3792 209.76C38.1872 209.952 37.9172 210.048 37.5692 210.048ZM40.3772 210.048C40.0412 210.048 39.7712 209.946 39.5672 209.742C39.3632 209.538 39.2612 209.268 39.2612 208.932C39.2612 208.584 39.3632 208.314 39.5672 208.122C39.7712 207.918 40.0412 207.816 40.3772 207.816C40.7252 207.816 40.9952 207.918 41.1872 208.122C41.3912 208.314 41.4932 208.584 41.4932 208.932C41.4932 209.268 41.3912 209.538 41.1872 209.742C40.9952 209.946 40.7252 210.048 40.3772 210.048ZM41.858 217.5V215.268H42.218C42.53 215.268 42.842 215.244 43.154 215.196C43.478 215.148 43.772 215.082 44.036 214.998C44.3 214.914 44.492 214.824 44.612 214.728C44.636 214.32 44.612 213.858 44.54 213.342C44.48 212.814 44.396 212.292 44.288 211.776C44.18 211.248 44.078 210.78 43.982 210.372C44.102 210.288 44.258 210.21 44.45 210.138C44.642 210.054 44.846 210.012 45.062 210.012C45.41 210.012 45.686 210.102 45.89 210.282C46.106 210.462 46.262 210.798 46.358 211.29C46.418 211.518 46.466 211.8 46.502 212.136C46.55 212.472 46.586 212.814 46.61 213.162C46.646 213.498 46.664 213.81 46.664 214.098C46.664 214.758 46.586 215.292 46.43 215.7C46.286 216.096 45.992 216.438 45.548 216.726C45.176 216.954 44.684 217.14 44.072 217.284C43.472 217.428 42.866 217.5 42.254 217.5H41.858ZM43.442 220.956C43.106 220.956 42.836 220.854 42.632 220.65C42.428 220.458 42.326 220.188 42.326 219.84C42.326 219.504 42.428 219.234 42.632 219.03C42.836 218.826 43.106 218.724 43.442 218.724C43.79 218.724 44.06 218.826 44.252 219.03C44.456 219.234 44.558 219.504 44.558 219.84C44.558 220.188 44.456 220.458 44.252 220.65C44.06 220.854 43.79 220.956 43.442 220.956ZM46.25 220.956C45.914 220.956 45.644 220.854 45.44 220.65C45.236 220.458 45.134 220.188 45.134 219.84C45.134 219.504 45.236 219.234 45.44 219.03C45.644 218.826 45.914 218.724 46.25 218.724C46.598 218.724 46.868 218.826 47.06 219.03C47.264 219.234 47.366 219.504 47.366 219.84C47.366 220.188 47.264 220.458 47.06 220.65C46.868 220.854 46.598 220.956 46.25 220.956ZM54.951 206.286L54.915 213.954C54.915 214.446 55.023 214.788 55.239 214.98C55.467 215.172 55.785 215.268 56.193 215.268H56.517V217.518L55.887 217.5C55.299 217.488 54.771 217.38 54.303 217.176C53.847 216.972 53.481 216.642 53.205 216.186C52.941 215.73 52.803 215.13 52.791 214.386L52.737 205.494C52.833 205.47 52.983 205.44 53.187 205.404C53.391 205.368 53.601 205.35 53.817 205.35C54.189 205.35 54.471 205.428 54.663 205.584C54.855 205.74 54.951 205.974 54.951 206.286ZM56.517 217.518V215.286C56.589 215.418 56.649 215.574 56.697 215.754C56.745 215.934 56.769 216.144 56.769 216.384C56.769 216.636 56.745 216.858 56.697 217.05C56.649 217.242 56.589 217.398 56.517 217.518ZM56.2369 217.5V215.25H56.4709C56.7949 215.25 57.0709 215.178 57.2989 215.034C57.5269 214.89 57.7189 214.704 57.8749 214.476C58.0309 214.248 58.1629 214.02 58.2709 213.792C58.6189 213.072 58.9849 212.46 59.3689 211.956C59.7529 211.44 60.1729 211.05 60.6289 210.786C61.0969 210.522 61.6249 210.39 62.2129 210.39C62.8369 210.39 63.3889 210.528 63.8689 210.804C64.3489 211.08 64.7389 211.47 65.0389 211.974C65.3389 212.478 65.5369 213.054 65.6329 213.702C65.7169 214.23 65.8789 214.626 66.1189 214.89C66.3709 215.142 66.8149 215.268 67.4509 215.268H67.5049V217.5H67.4149C66.8869 217.5 66.4189 217.41 66.0109 217.23C65.6149 217.05 65.2909 216.78 65.0389 216.42C64.7989 216.06 64.6429 215.622 64.5709 215.106L65.0929 215.52C64.9849 216.072 64.6909 216.54 64.2109 216.924C63.7429 217.296 63.0889 217.482 62.2489 217.482C61.7209 217.482 61.2229 217.404 60.7549 217.248C60.2989 217.092 59.9089 216.87 59.5849 216.582C59.2729 216.282 59.0509 215.934 58.9189 215.538L59.3149 215.844C59.0509 216.312 58.6849 216.708 58.2169 217.032C57.7609 217.344 57.1909 217.5 56.5069 217.5H56.2369ZM62.3929 215.376C62.7889 215.376 63.1069 215.28 63.3469 215.088C63.5989 214.884 63.7249 214.614 63.7249 214.278C63.7249 213.99 63.6709 213.714 63.5629 213.45C63.4669 213.174 63.3049 212.952 63.0769 212.784C62.8609 212.616 62.5789 212.532 62.2309 212.532C61.7629 212.532 61.3609 212.712 61.0249 213.072C60.7009 213.432 60.4249 213.87 60.1969 214.386C60.4489 214.698 60.7669 214.944 61.1509 215.124C61.5469 215.292 61.9609 215.376 62.3929 215.376ZM67.5049 217.5V215.268C67.5889 215.4 67.6549 215.562 67.7029 215.754C67.7509 215.934 67.7749 216.144 67.7749 216.384C67.7749 216.624 67.7509 216.84 67.7029 217.032C67.6549 217.224 67.5889 217.38 67.5049 217.5ZM67.2232 217.5V215.268H67.5832C68.0392 215.268 68.3632 215.166 68.5552 214.962C68.7592 214.746 68.8612 214.41 68.8612 213.954L68.8072 205.494C68.9152 205.47 69.0652 205.44 69.2572 205.404C69.4612 205.368 69.6712 205.35 69.8872 205.35C70.6432 205.35 71.0212 205.662 71.0212 206.286L70.9852 214.386C70.9852 215.142 70.8352 215.754 70.5352 216.222C70.2352 216.678 69.8272 217.008 69.3112 217.212C68.8072 217.404 68.2492 217.5 67.6372 217.5H67.2232ZM85.1433 216.87C85.1073 216.462 85.0293 216.012 84.9093 215.52C84.7893 215.016 84.6453 214.494 84.4773 213.954C84.3093 213.402 84.1233 212.85 83.9193 212.298C84.0273 212.178 84.1833 212.07 84.3873 211.974C84.5913 211.866 84.8373 211.812 85.1253 211.812C85.4853 211.812 85.7733 211.92 85.9893 212.136C86.2053 212.34 86.3793 212.706 86.5113 213.234C86.6793 213.858 86.8113 214.482 86.9073 215.106C87.0153 215.718 87.0753 216.306 87.0873 216.87C87.0633 217.782 86.8413 218.598 86.4213 219.318C86.0133 220.05 85.4313 220.62 84.6753 221.028C83.9313 221.448 83.0133 221.658 81.9213 221.658C80.8653 221.658 79.9473 221.466 79.1673 221.082C78.3993 220.698 77.7993 220.128 77.3673 219.372C76.9473 218.616 76.7373 217.698 76.7373 216.618C76.7373 215.514 76.8813 214.734 77.1693 214.278C77.4573 213.81 77.8233 213.576 78.2673 213.576C78.4713 213.576 78.6573 213.612 78.8253 213.684C79.0053 213.744 79.1553 213.816 79.2753 213.9C79.1553 214.32 79.0533 214.704 78.9693 215.052C78.8973 215.4 78.8613 215.82 78.8613 216.312C78.8613 217.296 79.1313 218.064 79.6713 218.616C80.2113 219.18 81.0033 219.462 82.0473 219.462C82.6713 219.462 83.2113 219.342 83.6673 219.102C84.1233 218.874 84.4773 218.562 84.7293 218.166C84.9813 217.77 85.1193 217.338 85.1433 216.87ZM88.2753 217.5C87.8073 217.5 87.4353 217.386 87.1593 217.158C86.8833 216.93 86.6433 216.594 86.4393 216.15L86.6733 213.9C86.7693 214.308 86.8953 214.608 87.0513 214.8C87.2193 214.992 87.4113 215.118 87.6273 215.178C87.8433 215.238 88.0653 215.268 88.2933 215.268H88.5813V217.5H88.2753ZM88.5813 217.5V215.268C88.6653 215.4 88.7313 215.562 88.7793 215.754C88.8273 215.934 88.8513 216.144 88.8513 216.384C88.8513 216.624 88.8273 216.84 88.7793 217.032C88.7313 217.224 88.6653 217.38 88.5813 217.5ZM81.5793 212.55C81.2193 212.55 80.9313 212.442 80.7153 212.226C80.4993 212.01 80.3913 211.722 80.3913 211.362C80.3913 211.014 80.4993 210.732 80.7153 210.516C80.9313 210.3 81.2193 210.192 81.5793 210.192C81.9273 210.192 82.2033 210.3 82.4073 210.516C82.6233 210.732 82.7313 211.014 82.7313 211.362C82.7313 211.722 82.6233 212.01 82.4073 212.226C82.2033 212.442 81.9273 212.55 81.5793 212.55ZM96.9934 217.5C95.9974 217.512 95.1214 217.41 94.3654 217.194C93.6094 216.978 92.9794 216.678 92.4754 216.294H93.2854C92.9734 216.546 92.5774 216.762 92.0974 216.942C91.6294 217.122 91.1074 217.26 90.5314 217.356C89.9674 217.452 89.3854 217.5 88.7854 217.5H88.2994V215.268H88.9114C89.2114 215.268 89.5114 215.262 89.8114 215.25C90.1114 215.226 90.3934 215.196 90.6574 215.16C90.9334 215.124 91.1614 215.076 91.3414 215.016L90.8914 215.376C90.5674 215.196 90.2554 214.884 89.9554 214.44C89.6674 213.996 89.5234 213.45 89.5234 212.802C89.5234 212.142 89.6674 211.56 89.9554 211.056C90.2554 210.54 90.6514 210.138 91.1434 209.85C91.6474 209.55 92.2114 209.4 92.8354 209.4C93.4714 209.4 94.0354 209.55 94.5274 209.85C95.0314 210.138 95.4274 210.54 95.7154 211.056C96.0154 211.572 96.1654 212.154 96.1654 212.802C96.1654 213.258 96.0934 213.66 95.9494 214.008C95.8054 214.344 95.6314 214.626 95.4274 214.854C95.2234 215.07 95.0254 215.238 94.8334 215.358L94.4014 214.998C94.7854 215.094 95.1694 215.166 95.5534 215.214C95.9374 215.25 96.3994 215.268 96.9394 215.268H97.3714V217.5H96.9934ZM92.8354 214.692C93.1714 214.536 93.4714 214.32 93.7354 214.044C94.0114 213.756 94.1494 213.378 94.1494 212.91C94.1494 212.514 94.0234 212.184 93.7714 211.92C93.5194 211.644 93.2074 211.506 92.8354 211.506C92.4874 211.506 92.1814 211.644 91.9174 211.92C91.6654 212.184 91.5394 212.514 91.5394 212.91C91.5394 213.378 91.6714 213.756 91.9354 214.044C92.2114 214.332 92.5114 214.548 92.8354 214.692ZM97.3714 217.5V215.268C97.4554 215.4 97.5214 215.562 97.5694 215.754C97.6174 215.934 97.6414 216.144 97.6414 216.384C97.6414 216.624 97.6174 216.84 97.5694 217.032C97.5214 217.224 97.4554 217.38 97.3714 217.5ZM91.4314 208.086C91.0954 208.086 90.8254 207.99 90.6214 207.798C90.4174 207.594 90.3154 207.318 90.3154 206.97C90.3154 206.634 90.4174 206.364 90.6214 206.16C90.8254 205.956 91.0954 205.854 91.4314 205.854C91.7794 205.854 92.0494 205.956 92.2414 206.16C92.4454 206.364 92.5474 206.634 92.5474 206.97C92.5474 207.318 92.4454 207.594 92.2414 207.798C92.0494 207.99 91.7794 208.086 91.4314 208.086ZM94.2394 208.086C93.9034 208.086 93.6334 207.984 93.4294 207.78C93.2254 207.576 93.1234 207.306 93.1234 206.97C93.1234 206.622 93.2254 206.352 93.4294 206.16C93.6334 205.956 93.9034 205.854 94.2394 205.854C94.5874 205.854 94.8574 205.956 95.0494 206.16C95.2534 206.352 95.3554 206.622 95.3554 206.97C95.3554 207.306 95.2534 207.576 95.0494 207.78C94.8574 207.984 94.5874 208.086 94.2394 208.086ZM96.9444 217.5V215.268H97.3224C97.8384 215.268 98.2524 215.16 98.5644 214.944C98.8884 214.716 99.0564 214.314 99.0684 213.738L99.1224 211.542C99.2304 211.506 99.3624 211.47 99.5184 211.434C99.6744 211.386 99.8484 211.362 100.04 211.362C100.304 211.362 100.532 211.434 100.724 211.578C100.916 211.722 101.018 211.956 101.03 212.28L101.084 213.792C101.108 214.344 101.276 214.728 101.588 214.944C101.912 215.16 102.326 215.268 102.83 215.268H103.172V217.5H102.794C102.362 217.5 101.954 217.44 101.57 217.32C101.186 217.2 100.856 217.008 100.58 216.744C100.304 216.48 100.112 216.144 100.004 215.736L100.148 215.718C100.1 216.138 99.9324 216.48 99.6444 216.744C99.3684 216.996 99.0264 217.188 98.6184 217.32C98.2104 217.44 97.8024 217.5 97.3944 217.5H96.9444ZM103.172 217.5V215.268C103.256 215.4 103.322 215.562 103.37 215.754C103.418 215.934 103.442 216.144 103.442 216.384C103.442 216.624 103.412 216.84 103.352 217.032C103.304 217.224 103.244 217.38 103.172 217.5ZM98.6004 210.048C98.2644 210.048 97.9944 209.952 97.7904 209.76C97.5864 209.556 97.4844 209.28 97.4844 208.932C97.4844 208.596 97.5864 208.326 97.7904 208.122C97.9944 207.918 98.2644 207.816 98.6004 207.816C98.9484 207.816 99.2184 207.918 99.4104 208.122C99.6144 208.326 99.7164 208.596 99.7164 208.932C99.7164 209.28 99.6144 209.556 99.4104 209.76C99.2184 209.952 98.9484 210.048 98.6004 210.048ZM101.408 210.048C101.072 210.048 100.802 209.946 100.598 209.742C100.394 209.538 100.292 209.268 100.292 208.932C100.292 208.584 100.394 208.314 100.598 208.122C100.802 207.918 101.072 207.816 101.408 207.816C101.756 207.816 102.026 207.918 102.218 208.122C102.422 208.314 102.524 208.584 102.524 208.932C102.524 209.268 102.422 209.538 102.218 209.742C102.026 209.946 101.756 210.048 101.408 210.048ZM102.889 217.5V215.25H103.123C103.447 215.25 103.723 215.178 103.951 215.034C104.179 214.89 104.371 214.704 104.527 214.476C104.683 214.248 104.815 214.02 104.923 213.792C105.271 213.06 105.637 212.442 106.021 211.938C106.417 211.434 106.843 211.05 107.299 210.786C107.767 210.522 108.289 210.39 108.865 210.39C109.561 210.39 110.167 210.564 110.683 210.912C111.199 211.248 111.601 211.722 111.889 212.334C112.189 212.946 112.339 213.642 112.339 214.422C112.339 215.394 112.039 216.15 111.439 216.69C110.851 217.218 110.077 217.482 109.117 217.482C108.589 217.482 108.091 217.416 107.623 217.284C107.167 217.14 106.759 216.936 106.399 216.672C106.039 216.408 105.763 216.102 105.571 215.754L105.967 215.844C105.703 216.312 105.337 216.702 104.869 217.014C104.413 217.326 103.843 217.488 103.159 217.5H102.889ZM109.045 215.376C109.441 215.376 109.759 215.28 109.999 215.088C110.251 214.884 110.377 214.614 110.377 214.278C110.377 213.99 110.323 213.714 110.215 213.45C110.119 213.174 109.957 212.952 109.729 212.784C109.513 212.616 109.231 212.532 108.883 212.532C108.427 212.532 108.031 212.712 107.695 213.072C107.359 213.432 107.077 213.87 106.849 214.386C107.101 214.698 107.419 214.944 107.803 215.124C108.199 215.292 108.613 215.376 109.045 215.376ZM128.891 217.5C128.495 217.5 128.159 217.41 127.883 217.23C127.607 217.038 127.391 216.768 127.235 216.42C127.091 216.06 127.007 215.634 126.983 215.142L127.649 214.08C127.649 214.392 127.709 214.638 127.829 214.818C127.949 214.986 128.105 215.106 128.297 215.178C128.489 215.238 128.681 215.268 128.873 215.268H129.215V217.5H128.891ZM127.523 216.348C127.523 217.236 127.325 218.028 126.929 218.724C126.533 219.42 125.975 219.966 125.255 220.362C124.535 220.77 123.677 220.974 122.681 220.974C121.673 220.974 120.791 220.794 120.035 220.434C119.291 220.074 118.709 219.546 118.289 218.85C117.881 218.166 117.677 217.326 117.677 216.33C117.677 215.358 117.815 214.656 118.091 214.224C118.367 213.792 118.733 213.576 119.189 213.576C119.405 213.576 119.591 213.612 119.747 213.684C119.915 213.744 120.059 213.816 120.179 213.9C120.059 214.284 119.963 214.632 119.891 214.944C119.831 215.256 119.801 215.61 119.801 216.006C119.801 216.87 120.053 217.542 120.557 218.022C121.073 218.514 121.805 218.76 122.753 218.76C123.233 218.76 123.647 218.688 123.995 218.544C124.343 218.4 124.631 218.214 124.859 217.986C125.087 217.758 125.255 217.518 125.363 217.266C125.483 217.014 125.549 216.774 125.561 216.546L125.471 205.494C125.567 205.47 125.711 205.44 125.903 205.404C126.107 205.368 126.317 205.35 126.533 205.35C127.301 205.35 127.685 205.662 127.685 206.286L127.631 216.078L127.523 216.348ZM129.215 217.5V215.268C129.299 215.4 129.365 215.562 129.413 215.754C129.461 215.934 129.485 216.144 129.485 216.384C129.485 216.624 129.455 216.84 129.395 217.032C129.347 217.224 129.287 217.38 129.215 217.5ZM128.922 217.5V215.268H129.3C129.816 215.268 130.23 215.16 130.542 214.944C130.866 214.716 131.034 214.314 131.046 213.738L131.1 211.542C131.208 211.506 131.34 211.47 131.496 211.434C131.652 211.386 131.826 211.362 132.018 211.362C132.282 211.362 132.51 211.434 132.702 211.578C132.894 211.722 132.996 211.956 133.008 212.28L133.062 213.792C133.086 214.344 133.254 214.728 133.566 214.944C133.89 215.16 134.304 215.268 134.808 215.268H135.15V217.5H134.772C134.34 217.5 133.932 217.44 133.548 217.32C133.164 217.2 132.834 217.008 132.558 216.744C132.282 216.48 132.09 216.144 131.982 215.736L132.126 215.718C132.078 216.138 131.91 216.48 131.622 216.744C131.346 216.996 131.004 217.188 130.596 217.32C130.188 217.44 129.78 217.5 129.372 217.5H128.922ZM135.15 217.5V215.268C135.234 215.4 135.3 215.562 135.348 215.754C135.396 215.934 135.42 216.144 135.42 216.384C135.42 216.624 135.39 216.84 135.33 217.032C135.282 217.224 135.222 217.38 135.15 217.5ZM130.65 220.956C130.314 220.956 130.044 220.854 129.84 220.65C129.636 220.458 129.534 220.188 129.534 219.84C129.534 219.504 129.636 219.234 129.84 219.03C130.044 218.826 130.314 218.724 130.65 218.724C130.998 218.724 131.268 218.826 131.46 219.03C131.664 219.234 131.766 219.504 131.766 219.84C131.766 220.188 131.664 220.458 131.46 220.65C131.268 220.854 130.998 220.956 130.65 220.956ZM133.458 220.956C133.122 220.956 132.852 220.854 132.648 220.65C132.444 220.458 132.342 220.188 132.342 219.84C132.342 219.504 132.444 219.234 132.648 219.03C132.852 218.826 133.122 218.724 133.458 218.724C133.806 218.724 134.076 218.826 134.268 219.03C134.472 219.234 134.574 219.504 134.574 219.84C134.574 220.188 134.472 220.458 134.268 220.65C134.076 220.854 133.806 220.956 133.458 220.956ZM144.188 213.198L144.404 213.846C143.768 213.558 143.168 213.294 142.604 213.054C142.052 212.802 141.518 212.598 141.002 212.442C140.486 212.274 139.97 212.19 139.454 212.19C138.926 212.19 138.44 212.274 137.996 212.442C137.564 212.598 137.192 212.82 136.88 213.108C136.688 212.988 136.508 212.82 136.34 212.604C136.172 212.376 136.088 212.1 136.088 211.776C136.088 211.416 136.226 211.11 136.502 210.858C136.79 210.594 137.174 210.396 137.654 210.264C138.146 210.12 138.674 210.048 139.238 210.048C139.874 210.048 140.498 210.132 141.11 210.3C141.734 210.468 142.322 210.684 142.874 210.948C143.426 211.2 143.924 211.458 144.368 211.722C144.824 211.974 145.196 212.19 145.484 212.37C145.556 212.538 145.616 212.706 145.664 212.874C145.712 213.042 145.73 213.27 145.718 213.558C145.718 213.762 145.7 213.96 145.664 214.152C145.628 214.332 145.58 214.482 145.52 214.602C145.016 214.854 144.428 215.148 143.756 215.484C143.096 215.808 142.37 216.126 141.578 216.438C140.786 216.75 139.934 217.008 139.022 217.212C138.122 217.404 137.174 217.5 136.178 217.5H134.864V215.268H136.088C137.156 215.268 138.152 215.16 139.076 214.944C140.012 214.728 140.906 214.464 141.758 214.152C142.61 213.828 143.42 213.51 144.188 213.198ZM140.174 221.082C139.814 221.082 139.526 220.974 139.31 220.758C139.094 220.542 138.986 220.254 138.986 219.894C138.986 219.546 139.094 219.264 139.31 219.048C139.526 218.832 139.814 218.724 140.174 218.724C140.522 218.724 140.798 218.832 141.002 219.048C141.218 219.264 141.326 219.546 141.326 219.894C141.326 220.254 141.218 220.542 141.002 220.758C140.798 220.974 140.522 221.082 140.174 221.082ZM156.066 214.854L156.912 215.718C156.684 215.994 156.354 216.24 155.922 216.456C155.49 216.672 154.926 216.78 154.23 216.78C153.138 216.78 152.298 216.516 151.71 215.988C151.134 215.46 150.846 214.728 150.846 213.792C150.846 213.192 150.966 212.676 151.206 212.244C151.458 211.812 151.83 211.434 152.322 211.11C152.826 210.786 153.456 210.492 154.212 210.228L156.084 209.562V211.596L154.464 212.136C153.888 212.328 153.486 212.55 153.258 212.802C153.042 213.042 152.934 213.324 152.934 213.648C152.934 213.996 153.06 214.266 153.312 214.458C153.564 214.638 153.93 214.734 154.41 214.746C154.782 214.746 155.112 214.68 155.4 214.548C155.7 214.416 155.91 214.26 156.03 214.08L155.76 215.16V209.184C155.76 208.62 156.12 208.338 156.84 208.338C157.044 208.338 157.236 208.356 157.416 208.392C157.608 208.416 157.752 208.44 157.848 208.464V214.134C157.848 214.566 157.944 214.866 158.136 215.034C158.34 215.19 158.61 215.268 158.946 215.268H159.144V217.5H158.838C158.106 217.5 157.482 217.296 156.966 216.888C156.45 216.468 156.15 215.79 156.066 214.854ZM159.144 217.5V215.268C159.228 215.4 159.294 215.562 159.342 215.754C159.39 215.934 159.414 216.144 159.414 216.384C159.414 216.624 159.39 216.84 159.342 217.032C159.294 217.224 159.228 217.38 159.144 217.5ZM158.858 217.5V215.268H159.236C159.752 215.268 160.166 215.16 160.478 214.944C160.802 214.716 160.97 214.314 160.982 213.738L161.036 211.542C161.144 211.506 161.276 211.47 161.432 211.434C161.588 211.386 161.762 211.362 161.954 211.362C162.218 211.362 162.446 211.434 162.638 211.578C162.83 211.722 162.932 211.956 162.944 212.28L162.998 213.792C163.022 214.344 163.19 214.728 163.502 214.944C163.826 215.16 164.24 215.268 164.744 215.268H165.086V217.5H164.708C164.276 217.5 163.868 217.44 163.484 217.32C163.1 217.2 162.77 217.008 162.494 216.744C162.218 216.48 162.026 216.144 161.918 215.736L162.062 215.718C162.014 216.138 161.846 216.48 161.558 216.744C161.282 216.996 160.94 217.188 160.532 217.32C160.124 217.44 159.716 217.5 159.308 217.5H158.858ZM165.086 217.5V215.268C165.17 215.4 165.236 215.562 165.284 215.754C165.332 215.934 165.356 216.144 165.356 216.384C165.356 216.624 165.326 216.84 165.266 217.032C165.218 217.224 165.158 217.38 165.086 217.5ZM162.17 206.052C162.566 206.052 162.884 206.13 163.124 206.286C163.364 206.442 163.484 206.664 163.484 206.952C163.484 207.072 163.454 207.186 163.394 207.294C163.346 207.39 163.286 207.48 163.214 207.564C163.106 207.492 162.98 207.432 162.836 207.384C162.704 207.336 162.56 207.312 162.404 207.312C162.128 207.312 161.924 207.366 161.792 207.474C161.672 207.582 161.612 207.714 161.612 207.87C161.612 208.014 161.66 208.146 161.756 208.266C161.864 208.386 162.026 208.458 162.242 208.482L161.072 208.77C160.844 208.686 160.658 208.548 160.514 208.356C160.37 208.152 160.298 207.894 160.298 207.582C160.298 207.114 160.472 206.742 160.82 206.466C161.18 206.19 161.63 206.052 162.17 206.052ZM163.772 208.122C163.808 208.206 163.838 208.314 163.862 208.446C163.898 208.566 163.916 208.686 163.916 208.806C163.916 208.974 163.874 209.106 163.79 209.202C163.706 209.286 163.55 209.352 163.322 209.4C162.842 209.484 162.302 209.58 161.702 209.688C161.114 209.784 160.55 209.904 160.01 210.048C159.938 209.964 159.878 209.862 159.83 209.742C159.782 209.61 159.758 209.478 159.758 209.346C159.758 209.178 159.812 209.052 159.92 208.968C160.04 208.872 160.214 208.794 160.442 208.734C160.79 208.65 161.162 208.572 161.558 208.5C161.966 208.416 162.362 208.344 162.746 208.284C163.13 208.212 163.472 208.158 163.772 208.122ZM171.729 215.484L172.089 215.466C172.065 215.838 171.963 216.18 171.783 216.492C171.615 216.792 171.363 217.038 171.027 217.23C170.703 217.41 170.289 217.5 169.785 217.5C169.089 217.5 168.537 217.308 168.129 216.924C167.721 216.528 167.481 216.036 167.409 215.448L167.697 215.466C167.661 216.018 167.421 216.498 166.977 216.906C166.545 217.302 165.909 217.5 165.069 217.5H164.799V215.268H165.051C165.495 215.268 165.855 215.166 166.131 214.962C166.407 214.758 166.551 214.368 166.563 213.792L166.617 211.542C166.725 211.494 166.857 211.452 167.013 211.416C167.181 211.38 167.361 211.362 167.553 211.362C167.817 211.362 168.045 211.434 168.237 211.578C168.429 211.722 168.531 211.95 168.543 212.262L168.597 213.882C168.609 214.386 168.717 214.746 168.921 214.962C169.137 215.178 169.419 215.286 169.767 215.286C170.139 215.286 170.409 215.166 170.577 214.926C170.757 214.686 170.853 214.308 170.865 213.792L170.919 212.028C171.027 212.004 171.165 211.98 171.333 211.956C171.501 211.92 171.681 211.902 171.873 211.902C172.137 211.902 172.359 211.956 172.539 212.064C172.719 212.172 172.815 212.376 172.827 212.676L172.863 213.846C172.887 214.338 172.983 214.704 173.151 214.944C173.331 215.172 173.607 215.286 173.979 215.286C174.327 215.286 174.591 215.178 174.771 214.962C174.951 214.746 175.047 214.386 175.059 213.882L175.113 211.452C175.221 211.404 175.353 211.362 175.509 211.326C175.677 211.29 175.857 211.272 176.049 211.272C176.313 211.272 176.541 211.344 176.733 211.488C176.925 211.62 177.027 211.848 177.039 212.172L177.093 213.864C177.105 214.404 177.261 214.776 177.561 214.98C177.861 215.172 178.209 215.268 178.605 215.268H178.875V217.5H178.641C177.801 217.5 177.153 217.308 176.697 216.924C176.241 216.54 175.977 216.054 175.905 215.466H176.193C176.145 216.078 175.947 216.57 175.599 216.942C175.251 217.314 174.717 217.5 173.997 217.5C173.277 217.5 172.731 217.314 172.359 216.942C171.999 216.558 171.789 216.072 171.729 215.484ZM178.875 217.5V215.268C178.959 215.4 179.025 215.562 179.073 215.754C179.121 215.934 179.145 216.144 179.145 216.384C179.145 216.624 179.115 216.84 179.055 217.032C179.007 217.224 178.947 217.38 178.875 217.5ZM171.855 207.996C171.531 207.996 171.273 207.9 171.081 207.708C170.889 207.504 170.793 207.24 170.793 206.916C170.793 206.592 170.889 206.334 171.081 206.142C171.273 205.95 171.531 205.854 171.855 205.854C172.191 205.854 172.449 205.95 172.629 206.142C172.821 206.334 172.917 206.592 172.917 206.916C172.917 207.24 172.821 207.504 172.629 207.708C172.437 207.9 172.179 207.996 171.855 207.996ZM170.451 210.498C170.115 210.498 169.845 210.402 169.641 210.21C169.437 210.006 169.335 209.73 169.335 209.382C169.335 209.046 169.437 208.776 169.641 208.572C169.845 208.368 170.115 208.266 170.451 208.266C170.799 208.266 171.069 208.368 171.261 208.572C171.465 208.776 171.567 209.046 171.567 209.382C171.567 209.73 171.465 210.006 171.261 210.21C171.069 210.402 170.799 210.498 170.451 210.498ZM173.259 210.498C172.923 210.498 172.653 210.396 172.449 210.192C172.245 209.988 172.143 209.718 172.143 209.382C172.143 209.034 172.245 208.764 172.449 208.572C172.653 208.368 172.923 208.266 173.259 208.266C173.607 208.266 173.877 208.368 174.069 208.572C174.273 208.764 174.375 209.034 174.375 209.382C174.375 209.718 174.273 209.988 174.069 210.192C173.877 210.396 173.607 210.498 173.259 210.498ZM178.176 217.5V215.268H178.554C179.07 215.268 179.484 215.16 179.796 214.944C180.12 214.716 180.288 214.314 180.3 213.738L180.354 211.542C180.462 211.506 180.594 211.47 180.75 211.434C180.906 211.386 181.08 211.362 181.272 211.362C181.536 211.362 181.764 211.434 181.956 211.578C182.148 211.722 182.25 211.956 182.262 212.28L182.316 213.792C182.34 214.344 182.508 214.728 182.82 214.944C183.144 215.16 183.558 215.268 184.062 215.268H184.404V217.5H184.026C183.594 217.5 183.186 217.44 182.802 217.32C182.418 217.2 182.088 217.008 181.812 216.744C181.536 216.48 181.344 216.144 181.236 215.736L181.38 215.718C181.332 216.138 181.164 216.48 180.876 216.744C180.6 216.996 180.258 217.188 179.85 217.32C179.442 217.44 179.034 217.5 178.626 217.5H178.176ZM184.404 217.5V215.268C184.488 215.4 184.554 215.562 184.602 215.754C184.65 215.934 184.674 216.144 184.674 216.384C184.674 216.624 184.644 216.84 184.584 217.032C184.536 217.224 184.476 217.38 184.404 217.5ZM181.254 210.048C180.894 210.048 180.606 209.94 180.39 209.724C180.174 209.508 180.066 209.22 180.066 208.86C180.066 208.512 180.174 208.23 180.39 208.014C180.606 207.798 180.894 207.69 181.254 207.69C181.602 207.69 181.878 207.798 182.082 208.014C182.298 208.23 182.406 208.512 182.406 208.86C182.406 209.22 182.298 209.508 182.082 209.724C181.878 209.94 181.602 210.048 181.254 210.048ZM184.118 217.5V215.268H184.478C184.79 215.268 185.102 215.244 185.414 215.196C185.738 215.148 186.032 215.082 186.296 214.998C186.56 214.914 186.752 214.824 186.872 214.728C186.896 214.32 186.872 213.858 186.8 213.342C186.74 212.814 186.656 212.292 186.548 211.776C186.44 211.248 186.338 210.78 186.242 210.372C186.362 210.288 186.518 210.21 186.71 210.138C186.902 210.054 187.106 210.012 187.322 210.012C187.67 210.012 187.946 210.102 188.15 210.282C188.366 210.462 188.522 210.798 188.618 211.29C188.678 211.518 188.726 211.8 188.762 212.136C188.81 212.472 188.846 212.814 188.87 213.162C188.906 213.498 188.924 213.81 188.924 214.098C188.924 214.758 188.846 215.292 188.69 215.7C188.546 216.096 188.252 216.438 187.808 216.726C187.436 216.954 186.944 217.14 186.332 217.284C185.732 217.428 185.126 217.5 184.514 217.5H184.118ZM185.684 208.698C185.348 208.698 185.078 208.602 184.874 208.41C184.67 208.206 184.568 207.93 184.568 207.582C184.568 207.246 184.67 206.976 184.874 206.772C185.078 206.568 185.348 206.466 185.684 206.466C186.032 206.466 186.302 206.568 186.494 206.772C186.698 206.976 186.8 207.246 186.8 207.582C186.8 207.93 186.698 208.206 186.494 208.41C186.302 208.602 186.032 208.698 185.684 208.698ZM188.492 208.698C188.156 208.698 187.886 208.596 187.682 208.392C187.478 208.188 187.376 207.918 187.376 207.582C187.376 207.234 187.478 206.964 187.682 206.772C187.886 206.568 188.156 206.466 188.492 206.466C188.84 206.466 189.11 206.568 189.302 206.772C189.506 206.964 189.608 207.234 189.608 207.582C189.608 207.918 189.506 208.188 189.302 208.392C189.11 208.596 188.84 208.698 188.492 208.698ZM196.947 206.286L196.911 213.954C196.911 214.446 197.019 214.788 197.235 214.98C197.463 215.172 197.781 215.268 198.189 215.268H198.513V217.518L197.883 217.5C197.295 217.488 196.767 217.38 196.299 217.176C195.843 216.972 195.477 216.642 195.201 216.186C194.937 215.73 194.799 215.13 194.787 214.386L194.733 205.494C194.829 205.47 194.979 205.44 195.183 205.404C195.387 205.368 195.597 205.35 195.813 205.35C196.185 205.35 196.467 205.428 196.659 205.584C196.851 205.74 196.947 205.974 196.947 206.286ZM198.513 217.518V215.286C198.585 215.418 198.645 215.574 198.693 215.754C198.741 215.934 198.765 216.144 198.765 216.384C198.765 216.636 198.741 216.858 198.693 217.05C198.645 217.242 198.585 217.398 198.513 217.518ZM198.233 217.5V215.268H198.611C199.127 215.268 199.541 215.16 199.853 214.944C200.177 214.716 200.345 214.314 200.357 213.738L200.411 211.542C200.519 211.506 200.651 211.47 200.807 211.434C200.963 211.386 201.137 211.362 201.329 211.362C201.593 211.362 201.821 211.434 202.013 211.578C202.205 211.722 202.307 211.956 202.319 212.28L202.373 213.792C202.397 214.344 202.565 214.728 202.877 214.944C203.201 215.16 203.615 215.268 204.119 215.268H204.461V217.5H204.083C203.651 217.5 203.243 217.44 202.859 217.32C202.475 217.2 202.145 217.008 201.869 216.744C201.593 216.48 201.401 216.144 201.293 215.736L201.437 215.718C201.389 216.138 201.221 216.48 200.933 216.744C200.657 216.996 200.315 217.188 199.907 217.32C199.499 217.44 199.091 217.5 198.683 217.5H198.233ZM204.461 217.5V215.268C204.545 215.4 204.611 215.562 204.659 215.754C204.707 215.934 204.731 216.144 204.731 216.384C204.731 216.624 204.701 216.84 204.641 217.032C204.593 217.224 204.533 217.38 204.461 217.5ZM201.311 210.048C200.951 210.048 200.663 209.94 200.447 209.724C200.231 209.508 200.123 209.22 200.123 208.86C200.123 208.512 200.231 208.23 200.447 208.014C200.663 207.798 200.951 207.69 201.311 207.69C201.659 207.69 201.935 207.798 202.139 208.014C202.355 208.23 202.463 208.512 202.463 208.86C202.463 209.22 202.355 209.508 202.139 209.724C201.935 209.94 201.659 210.048 201.311 210.048ZM204.822 217.5H204.174V215.268H205.092C205.836 215.268 206.526 215.214 207.162 215.106C207.798 214.998 208.332 214.872 208.764 214.728C209.208 214.572 209.496 214.434 209.628 214.314C209.652 214.122 209.676 213.87 209.7 213.558C209.724 213.246 209.736 212.952 209.736 212.676L210.096 213.306C209.856 213.39 209.574 213.456 209.25 213.504C208.938 213.552 208.638 213.576 208.35 213.576C207.27 213.576 206.418 213.324 205.794 212.82C205.182 212.316 204.876 211.56 204.876 210.552C204.876 209.88 205.026 209.286 205.326 208.77C205.626 208.254 206.022 207.852 206.514 207.564C207.018 207.276 207.564 207.132 208.152 207.132C209.028 207.132 209.724 207.372 210.24 207.852C210.768 208.32 211.152 208.962 211.392 209.778C211.632 210.582 211.752 211.494 211.752 212.514C211.752 213.558 211.638 214.386 211.41 214.998C211.194 215.61 210.804 216.066 210.24 216.366C209.52 216.738 208.686 217.02 207.738 217.212C206.802 217.404 205.83 217.5 204.822 217.5ZM208.53 211.614C208.734 211.614 208.944 211.608 209.16 211.596C209.388 211.572 209.598 211.536 209.79 211.488C209.694 210.66 209.502 210.054 209.214 209.67C208.938 209.274 208.56 209.076 208.08 209.076C207.708 209.076 207.396 209.214 207.144 209.49C206.892 209.766 206.766 210.09 206.766 210.462C206.766 210.858 206.916 211.152 207.216 211.344C207.528 211.536 207.966 211.626 208.53 211.614ZM208.224 205.764C207.864 205.764 207.576 205.656 207.36 205.44C207.144 205.224 207.036 204.936 207.036 204.576C207.036 204.228 207.144 203.946 207.36 203.73C207.576 203.514 207.864 203.406 208.224 203.406C208.572 203.406 208.848 203.514 209.052 203.73C209.268 203.946 209.376 204.228 209.376 204.576C209.376 204.936 209.268 205.224 209.052 205.44C208.848 205.656 208.572 205.764 208.224 205.764ZM222.96 217.5C222.324 217.5 221.79 217.404 221.358 217.212C220.938 217.008 220.608 216.744 220.368 216.42C220.128 216.096 219.96 215.754 219.864 215.394L219.504 215.124C219.192 214.44 218.862 213.75 218.514 213.054C218.178 212.358 217.848 211.692 217.524 211.056C217.2 210.42 216.9 209.85 216.624 209.346C216.792 209.154 216.996 208.98 217.236 208.824C217.488 208.668 217.764 208.59 218.064 208.59C218.34 208.59 218.58 208.656 218.784 208.788C219 208.908 219.186 209.16 219.342 209.544L221.052 213.594C221.256 214.074 221.496 214.476 221.772 214.8C222.048 215.112 222.468 215.268 223.032 215.268H223.212V217.5H222.96ZM216.228 217.5C215.892 217.5 215.55 217.47 215.202 217.41C214.866 217.35 214.59 217.272 214.374 217.176C214.038 217.032 213.798 216.852 213.654 216.636C213.522 216.408 213.456 216.156 213.456 215.88C213.456 215.616 213.498 215.388 213.582 215.196C213.678 215.004 213.78 214.86 213.888 214.764C214.212 214.92 214.584 215.04 215.004 215.124C215.436 215.208 215.862 215.25 216.282 215.25C216.774 215.238 217.236 215.184 217.668 215.088C218.1 214.98 218.46 214.842 218.748 214.674C219.048 214.506 219.246 214.32 219.342 214.116L220.656 215.304C220.572 215.652 220.362 215.994 220.026 216.33C219.69 216.666 219.21 216.948 218.586 217.176C217.962 217.392 217.176 217.5 216.228 217.5ZM223.212 217.5V215.268C223.296 215.4 223.362 215.562 223.41 215.754C223.458 215.934 223.482 216.144 223.482 216.384C223.482 216.624 223.452 216.84 223.392 217.032C223.344 217.224 223.284 217.38 223.212 217.5ZM229.932 217.788C229.188 217.788 228.498 217.674 227.862 217.446C227.226 217.218 226.686 216.942 226.242 216.618L227.7 216.33C227.376 216.606 226.962 216.834 226.458 217.014C225.966 217.182 225.45 217.308 224.91 217.392C224.382 217.464 223.902 217.5 223.47 217.5H222.93V215.268H223.74C223.968 215.268 224.208 215.262 224.46 215.25C224.712 215.238 224.952 215.22 225.18 215.196C225.42 215.172 225.606 215.142 225.738 215.106L225.486 215.664C225.054 215.304 224.7 214.878 224.424 214.386C224.16 213.882 224.028 213.336 224.028 212.748C224.028 212.16 224.154 211.644 224.406 211.2C224.67 210.744 225.042 210.396 225.522 210.156C226.002 209.904 226.566 209.778 227.214 209.778L229.248 211.056C229.44 211.224 229.608 211.404 229.752 211.596C229.896 211.776 230.01 211.986 230.094 212.226C230.178 212.454 230.22 212.724 230.22 213.036C230.22 213.672 230.058 214.242 229.734 214.746C229.41 215.238 228.972 215.616 228.42 215.88L228.384 215.484C228.576 215.568 228.792 215.634 229.032 215.682C229.284 215.73 229.548 215.748 229.824 215.736C230.124 215.736 230.412 215.688 230.688 215.592C230.976 215.484 231.204 215.322 231.372 215.106C231.54 214.878 231.624 214.572 231.624 214.188C231.624 213.648 231.408 213.132 230.976 212.64C230.556 212.136 229.896 211.614 228.996 211.074L227.088 210.282C227.088 209.982 227.112 209.736 227.16 209.544C227.22 209.34 227.304 209.172 227.412 209.04C227.532 208.908 227.658 208.782 227.79 208.662C229.026 209.118 230.076 209.634 230.94 210.21C231.816 210.774 232.482 211.41 232.938 212.118C233.394 212.826 233.622 213.612 233.622 214.476C233.622 215.172 233.472 215.772 233.172 216.276C232.872 216.768 232.446 217.146 231.894 217.41C231.342 217.662 230.688 217.788 229.932 217.788ZM227.52 215.088L226.818 214.962C227.07 214.842 227.322 214.704 227.574 214.548C227.826 214.38 228.036 214.164 228.204 213.9C228.372 213.636 228.456 213.3 228.456 212.892C228.456 212.448 228.336 212.094 228.096 211.83C227.856 211.554 227.568 211.416 227.232 211.416C226.884 211.416 226.59 211.548 226.35 211.812C226.11 212.076 225.99 212.424 225.99 212.856C225.99 213.252 226.068 213.6 226.224 213.9C226.392 214.188 226.596 214.428 226.836 214.62C227.076 214.812 227.304 214.968 227.52 215.088Z" fill="white"/>
<g clip-path="url(#clip0_1184_1221)">
<mask id="mask0_1184_1221" style="mask-type:luminance" maskUnits="userSpaceOnUse" x="-682" y="-579" width="1594" height="959">
<path d="M-681.295 -578.39H911.694V379.676H-681.295V-578.39Z" fill="white"/>
</mask>
<g mask="url(#mask0_1184_1221)">
<path d="M62.901 111.31C62.901 112.16 62.8555 112.977 62.7644 113.76C62.6734 114.543 62.5608 115.321 62.4242 116.091H73.4625V94.2192H79.6638V116.091H90.2947V94.2192H96.4949V116.091H101.196V123.38H59.7332C58.914 124.815 57.9491 126.117 56.8362 127.286C55.7234 128.455 54.5139 129.457 53.2076 130.293C51.9014 131.13 50.5041 131.773 49.0169 132.226C47.5286 132.677 45.9903 132.902 44.4007 132.902C41.8337 132.902 39.4317 132.337 37.1947 131.209C34.9565 130.08 32.9983 128.54 31.3166 126.587C29.636 124.637 28.3138 122.352 27.3477 119.736C26.3828 117.119 25.9004 114.311 25.9004 111.31H32.1005C32.1005 113.275 32.4237 115.128 33.0723 116.868C33.7197 118.607 34.5993 120.134 35.7121 121.449C36.8249 122.764 38.1311 123.798 39.6308 124.556C41.1294 125.313 42.7189 125.692 44.4007 125.692C46.0813 125.692 47.6652 125.313 49.1523 124.556C50.6407 123.798 51.9469 122.764 53.0711 121.449C54.1964 120.134 55.0817 118.607 55.7303 116.868C56.3766 115.128 56.6997 113.275 56.6997 111.31L56.6314 94.2192H62.8327L62.901 111.31Z" fill="#F47827"/>
</g>
<mask id="mask1_1184_1221" style="mask-type:luminance" maskUnits="userSpaceOnUse" x="-682" y="-579" width="1594" height="959">
<path d="M-681.295 -578.39H911.694V379.676H-681.295V-578.39Z" fill="white"/>
</mask>
<g mask="url(#mask1_1184_1221)">
<path d="M115.132 128.717C115.609 128.717 116.051 128.816 116.461 129.016C116.869 129.215 117.227 129.494 117.534 129.852C117.84 130.21 118.085 130.635 118.267 131.126C118.448 131.617 118.539 132.143 118.539 132.7C118.539 133.231 118.448 133.736 118.267 134.215C118.085 134.692 117.84 135.11 117.534 135.469C117.227 135.828 116.869 136.113 116.461 136.325C116.051 136.538 115.609 136.645 115.132 136.645C114.654 136.645 114.211 136.538 113.803 136.325C113.394 136.113 113.036 135.828 112.73 135.469C112.424 135.11 112.185 134.692 112.014 134.215C111.844 133.736 111.758 133.231 111.758 132.7C111.758 131.558 112.083 130.609 112.73 129.852C113.377 129.095 114.177 128.717 115.132 128.717ZM106.443 128.717C106.921 128.717 107.364 128.816 107.772 129.016C108.182 129.215 108.539 129.494 108.845 129.852C109.153 130.21 109.396 130.635 109.578 131.126C109.759 131.617 109.851 132.143 109.851 132.7C109.851 133.231 109.759 133.736 109.578 134.215C109.396 134.692 109.153 135.11 108.845 135.469C108.539 135.828 108.182 136.113 107.772 136.325C107.364 136.538 106.921 136.645 106.443 136.645C105.967 136.645 105.524 136.538 105.114 136.325C104.706 136.113 104.349 135.828 104.042 135.469C103.735 135.11 103.496 134.692 103.326 134.215C103.156 133.736 103.071 133.231 103.071 132.7C103.071 131.558 103.394 130.609 104.042 129.852C104.689 129.095 105.49 128.717 106.443 128.717ZM113.871 94.2166V116.088H120.754V123.378H100.787V116.088H107.67V94.2166H113.871Z" fill="#F47827"/>
</g>
<mask id="mask2_1184_1221" style="mask-type:luminance" maskUnits="userSpaceOnUse" x="-682" y="-579" width="1594" height="959">
<path d="M-681.295 -578.39H911.694V379.676H-681.295V-578.39Z" fill="white"/>
</mask>
<g mask="url(#mask2_1184_1221)">
<path d="M120.174 116.089H127.057V94.2178H133.258V116.089H143.887V94.2178H150.055V116.089H160.685V94.2178H166.92V119.754C166.92 120.763 166.619 121.621 166.017 122.324C165.415 123.028 164.682 123.379 163.819 123.379H120.174V116.089Z" fill="#F47827"/>
</g>
<mask id="mask3_1184_1221" style="mask-type:luminance" maskUnits="userSpaceOnUse" x="-682" y="-579" width="1594" height="959">
<path d="M-681.295 -578.39H911.694V379.676H-681.295V-578.39Z" fill="white"/>
</mask>
<g mask="url(#mask3_1184_1221)">
<path d="M187.158 123.379H176.221C175.357 123.379 174.624 123.028 174.023 122.324C173.421 121.621 173.12 120.763 173.12 119.754L173.053 71.0482H179.288L179.355 116.089H187.158V123.379Z" fill="#F47827"/>
</g>
<mask id="mask4_1184_1221" style="mask-type:luminance" maskUnits="userSpaceOnUse" x="-682" y="-579" width="1594" height="959">
<path d="M-681.295 -578.39H911.694V379.676H-681.295V-578.39Z" fill="white"/>
</mask>
<g mask="url(#mask4_1184_1221)">
<path d="M201.126 79.5163C202.081 79.5163 202.881 79.8887 203.528 80.6312C204.176 81.3761 204.5 82.3318 204.5 83.5006C204.5 84.0311 204.415 84.5365 204.244 85.0144C204.073 85.4922 203.834 85.9101 203.528 86.2682C203.222 86.6275 202.864 86.9137 202.455 87.1257C202.047 87.3377 201.604 87.4442 201.126 87.4442C200.65 87.4442 200.207 87.3377 199.797 87.1257C199.389 86.9137 199.032 86.6275 198.724 86.2682C198.418 85.9101 198.179 85.4922 198.01 85.0144C197.839 84.5365 197.754 84.0311 197.754 83.5006C197.754 82.3318 198.078 81.3761 198.724 80.6312C199.372 79.8887 200.173 79.5163 201.126 79.5163ZM192.439 79.5163C193.393 79.5163 194.193 79.8887 194.841 80.6312C195.487 81.3761 195.811 82.3318 195.811 83.5006C195.811 84.0311 195.726 84.5365 195.555 85.0144C195.386 85.4922 195.147 85.9101 194.841 86.2682C194.534 86.6275 194.176 86.9137 193.768 87.1257C193.359 87.3377 192.916 87.4442 192.439 87.4442C191.962 87.4442 191.518 87.3377 191.11 87.1257C190.701 86.9137 190.343 86.6275 190.037 86.2682C189.73 85.9101 189.492 85.4922 189.321 85.0144C189.152 84.5365 189.066 84.0311 189.066 83.5006C189.066 82.3318 189.389 81.3761 190.037 80.6312C190.684 79.8887 191.484 79.5163 192.439 79.5163ZM186.408 116.088H197.652V94.2166H203.886V119.753C203.886 120.763 203.585 121.62 202.983 122.323C202.381 123.028 201.649 123.379 200.786 123.379H186.408V116.088Z" fill="#F47827"/>
</g>
<path d="M38.0475 170.092H31.7938V147.342H24.5V141.645H45.3547V147.342H38.0475V170.092ZM53.1685 170.092H46.3947L55.6086 141.645H62.5557L71.7563 170.092H64.9826L63.4225 165.011H54.7286L53.1685 170.092ZM56.302 159.735H61.8624L59.0755 150.177L56.302 159.735ZM76.2499 164.197C82.597 164.611 86.8906 164.815 89.1307 164.815C89.6641 164.815 90.0841 164.632 90.3975 164.268C90.7175 163.896 90.8775 163.397 90.8775 162.78V159.117H82.877C80.4502 159.117 78.6834 158.479 77.5834 157.194C76.4799 155.903 75.9299 153.837 75.9299 150.991V149.77C75.9299 146.935 76.4799 144.872 77.5834 143.581C78.6834 142.29 80.4502 141.645 82.877 141.645H95.0778V147.342H84.2771C82.8804 147.342 82.1836 148.153 82.1836 149.77V150.584C82.1836 152.212 82.8804 153.026 84.2771 153.026H90.5308C92.7976 153.026 94.4644 153.651 95.5312 154.893C96.5979 156.138 97.1312 158.089 97.1312 160.745V162.78C97.1312 165.439 96.5979 167.39 95.5312 168.632C94.4644 169.878 92.7976 170.499 90.5308 170.499C89.3474 170.499 88.094 170.471 86.7706 170.415L83.5837 170.26C81.2169 170.12 78.7734 169.93 76.2499 169.685V164.197ZM103.008 164.197C109.355 164.611 113.649 164.815 115.889 164.815C116.422 164.815 116.842 164.632 117.156 164.268C117.476 163.896 117.636 163.397 117.636 162.78V159.117H109.635C107.209 159.117 105.442 158.479 104.342 157.194C103.238 155.903 102.688 153.837 102.688 150.991V149.77C102.688 146.935 103.238 144.872 104.342 143.581C105.442 142.29 107.209 141.645 109.635 141.645H121.836V147.342H111.035C109.639 147.342 108.942 148.153 108.942 149.77V150.584C108.942 152.212 109.639 153.026 111.035 153.026H117.289C119.556 153.026 121.223 153.651 122.29 154.893C123.356 156.138 123.89 158.089 123.89 160.745V162.78C123.89 165.439 123.356 167.39 122.29 168.632C121.223 169.878 119.556 170.499 117.289 170.499C116.106 170.499 114.852 170.471 113.529 170.415L110.342 170.26C107.975 170.12 105.532 169.93 103.008 169.685V164.197ZM149.781 170.092H130.487V141.645H149.781V147.342H136.74V152.83H146.994V158.514H136.74V164.408H149.781V170.092ZM175.323 170.092H156.028V141.645H175.323V147.342H162.282V152.83H172.536V158.514H162.282V164.408H175.323V170.092ZM180.85 164.197C187.197 164.611 191.491 164.815 193.731 164.815C194.264 164.815 194.684 164.632 194.997 164.268C195.317 163.896 195.477 163.397 195.477 162.78V159.117H187.477C185.05 159.117 183.283 158.479 182.183 157.194C181.08 155.903 180.53 153.837 180.53 150.991V149.77C180.53 146.935 181.08 144.872 182.183 143.581C183.283 142.29 185.05 141.645 187.477 141.645H199.678V147.342H188.877C187.48 147.342 186.784 148.153 186.784 149.77V150.584C186.784 152.212 187.48 153.026 188.877 153.026H195.131C197.398 153.026 199.064 153.651 200.131 154.893C201.198 156.138 201.731 158.089 201.731 160.745V162.78C201.731 165.439 201.198 167.39 200.131 168.632C199.064 169.878 197.398 170.499 195.131 170.499C193.947 170.499 192.694 170.471 191.371 170.415L188.184 170.26C185.817 170.12 183.373 169.93 180.85 169.685V164.197Z" fill="#F47827"/>
<mask id="mask5_1184_1221" style="mask-type:luminance" maskUnits="userSpaceOnUse" x="-682" y="-579" width="1594" height="959">
<path d="M-681.295 -578.39H911.694V379.676H-681.295V-578.39Z" fill="white"/>
</mask>
<g mask="url(#mask5_1184_1221)">
<path d="M143.664 63.0306C141.341 65.2605 139.08 67.2928 136.891 69.082C138.173 67.9671 139.41 66.8617 140.62 65.7468C141.653 64.8198 142.631 63.93 143.664 63.0306Z" fill="#F47827"/>
</g>
<mask id="mask6_1184_1221" style="mask-type:luminance" maskUnits="userSpaceOnUse" x="-682" y="-579" width="1594" height="959">
<path d="M-681.295 -578.39H911.694V379.676H-681.295V-578.39Z" fill="white"/>
</mask>
<g mask="url(#mask6_1184_1221)">
<path d="M143.664 46.1322C141.341 48.3621 139.08 50.3944 136.891 52.1836C138.173 51.0686 139.41 49.9633 140.62 48.8483C141.653 47.9214 142.631 47.0316 143.664 46.1322Z" fill="#F47827"/>
</g>
<mask id="mask7_1184_1221" style="mask-type:luminance" maskUnits="userSpaceOnUse" x="-682" y="-579" width="1594" height="959">
<path d="M-681.295 -578.39H911.694V379.676H-681.295V-578.39Z" fill="white"/>
</mask>
<g mask="url(#mask7_1184_1221)">
<path d="M63.3696 40.7617H63.3623V35.2062H63.3696V40.7617Z" fill="#F47827"/>
</g>
<mask id="mask8_1184_1221" style="mask-type:luminance" maskUnits="userSpaceOnUse" x="-682" y="-579" width="1594" height="959">
<path d="M-681.295 -578.39H911.694V379.676H-681.295V-578.39Z" fill="white"/>
</mask>
<g mask="url(#mask8_1184_1221)">
<path d="M167.035 40.7617H167.027V35.2062H167.035V40.7617Z" fill="#F47827"/>
</g>
<mask id="mask9_1184_1221" style="mask-type:luminance" maskUnits="userSpaceOnUse" x="-682" y="-579" width="1594" height="959">
<path d="M-681.295 -578.39H911.694V379.676H-681.295V-578.39Z" fill="white"/>
</mask>
<g mask="url(#mask9_1184_1221)">
<path d="M143.664 29.2338C141.341 31.4637 139.08 33.496 136.891 35.2852C138.173 34.1702 139.41 33.0648 140.62 31.9499C141.653 31.023 142.631 30.1332 143.664 29.2338Z" fill="#F47827"/>
</g>
<mask id="mask10_1184_1221" style="mask-type:luminance" maskUnits="userSpaceOnUse" x="-682" y="-579" width="1594" height="959">
<path d="M-681.295 -578.39H911.694V379.676H-681.295V-578.39Z" fill="white"/>
</mask>
<g mask="url(#mask10_1184_1221)">
<path d="M63.3696 23.8633H63.3623V18.3077H63.3696V23.8633Z" fill="#F47827"/>
</g>
<mask id="mask11_1184_1221" style="mask-type:luminance" maskUnits="userSpaceOnUse" x="-682" y="-579" width="1594" height="959">
<path d="M-681.295 -578.39H911.694V379.676H-681.295V-578.39Z" fill="white"/>
</mask>
<g mask="url(#mask11_1184_1221)">
<path d="M162.488 18.6824C155.279 19.8907 149.743 23.9194 144.332 28.6402C144.304 28.6678 144.153 28.7708 143.922 28.9863C143.841 29.0426 143.771 29.1552 143.664 29.2307C141.34 31.4594 139.08 33.4929 136.89 35.282C136.81 35.3659 136.731 35.4222 136.677 35.4689C129.236 41.5681 122.534 45.2112 117.469 45.8675V33.6521C124.937 32.9396 133.392 27.4031 140.059 21.9517C140.103 21.923 140.131 21.8763 140.157 21.8488C142.89 19.6189 145.31 17.3985 147.241 15.5255L147.294 15.4692C152.217 11.1136 156.757 7.7029 162.488 6.52328V18.6824ZM162.488 35.5814C155.279 36.7898 149.743 40.8185 144.332 45.5393C144.304 45.5681 144.153 45.6711 143.922 45.8866C143.841 45.9429 143.771 46.0543 143.664 46.1297C141.34 48.3596 139.08 50.3919 136.89 52.1811C136.81 52.2662 136.731 52.3224 136.677 52.3691C129.236 58.4672 122.534 62.1115 117.469 62.7666V51.4506C124.937 50.7392 133.392 45.2028 140.059 39.7598C140.103 39.7311 140.131 39.676 140.157 39.6472C142.89 37.4269 145.31 35.1982 147.241 33.3336L147.294 33.2773C152.217 28.9217 156.757 25.511 162.488 24.3218V35.5814ZM162.488 52.4805C155.279 53.6901 149.743 57.7175 144.332 62.4384C144.304 62.4672 144.153 62.5702 143.922 62.7857C143.841 62.842 143.771 62.9546 143.664 63.0288C141.34 65.2587 139.08 67.291 136.89 69.0802C136.81 69.1652 136.731 69.2215 136.677 69.2682C129.236 75.3663 122.534 79.0106 117.469 79.6656V68.3497C124.937 67.6383 133.392 62.1019 140.059 56.6589C140.103 56.6313 140.131 56.5751 140.157 56.5463C142.89 54.326 145.31 52.0973 147.241 50.2327L147.294 50.1764C152.217 45.8208 156.757 42.4112 162.488 41.2208V52.4805ZM94.3902 69.8395L93.7234 69.2682L93.6699 69.2215C92.3341 68.0503 91.0437 66.8886 89.7807 65.7461C83.1311 59.7031 76.7853 53.9703 67.9113 52.4805V41.2208C74.8624 42.6544 80.043 47.3573 86.3262 53.053C87.6439 54.2422 88.9785 55.4314 90.3497 56.6589L91.1416 57.3056C97.9596 62.9546 103.478 67.5257 112.93 68.303V79.6285C105.329 78.8788 100.843 75.1508 94.3902 69.8395ZM67.9113 24.3218C74.8624 25.7553 80.043 30.457 86.3262 36.1527C87.6439 37.3431 88.9785 38.5323 90.3497 39.7598L91.1416 40.4065C97.9596 46.0543 103.478 50.6267 112.93 51.4039V62.7294C105.329 61.9797 100.843 58.2517 94.3902 52.9404L93.7234 52.3691L93.6699 52.3224C92.3341 51.1512 91.0437 49.9895 89.7807 48.8459C83.1311 42.8041 76.7853 37.0712 67.9113 35.5814V24.3218ZM67.9113 6.52328C74.8624 7.95679 80.043 12.6585 86.3262 18.3446C87.6439 19.5446 88.9785 20.7338 90.3497 21.9517L91.1416 22.608C97.9596 28.2558 103.478 32.8282 112.93 33.6054V45.8303C105.329 45.0807 100.843 41.3526 94.3902 36.0413L93.7234 35.4689L93.6699 35.4222C92.3341 34.2509 91.0437 33.0809 89.7807 31.9468C83.1311 25.905 76.7853 20.1721 67.9113 18.6824V6.52328ZM167.027 6.06462H167.036V0.499451C157.504 0.499451 150.829 5.16523 144.332 10.8322C144.304 10.8597 144.153 10.9723 143.922 11.1879C143.841 11.2442 143.771 11.3472 143.664 11.4322C141.34 13.6513 139.08 15.6848 136.89 17.474C136.81 17.5578 136.731 17.6141 136.677 17.6704C128.435 24.4248 121.092 28.1624 115.885 28.1624C106.397 28.1624 101.636 24.2092 94.3902 18.2416L93.7234 17.6704L93.6699 17.6141C92.3341 16.4429 91.0437 15.2824 89.7807 14.1387C82.0456 7.1137 74.7293 0.499451 63.3633 0.499451V6.06462H63.3724V52.1069H63.3633V57.6613C72.771 57.6613 78.7527 63.0851 86.3262 69.9521C87.6439 71.1413 88.9785 72.3316 90.3497 73.558L91.1416 74.2047C98.6446 80.4153 104.573 85.3242 115.885 85.3242C123.717 85.3242 132.921 79.3854 140.059 73.558C140.103 73.5304 140.131 73.4741 140.157 73.4466C142.89 71.2263 145.31 68.9964 147.241 67.1317L147.294 67.0755C153.455 61.6241 159 57.6613 167.036 57.6613V52.1069H167.027V6.06462Z" fill="#F47827"/>
</g>
<mask id="mask12_1184_1221" style="mask-type:luminance" maskUnits="userSpaceOnUse" x="-682" y="-579" width="1594" height="959">
<path d="M-681.295 -578.39H911.694V379.676H-681.295V-578.39Z" fill="white"/>
</mask>
<g mask="url(#mask12_1184_1221)">
<path d="M167.035 23.8633H167.027V18.3077H167.035V23.8633Z" fill="#F47827"/>
</g>
<mask id="mask13_1184_1221" style="mask-type:luminance" maskUnits="userSpaceOnUse" x="-682" y="-579" width="1594" height="959">
<path d="M-681.295 -578.39H911.694V379.676H-681.295V-578.39Z" fill="white"/>
</mask>
<g mask="url(#mask13_1184_1221)">
<path d="M143.664 11.4348C141.341 13.6551 139.08 15.6874 136.891 17.4766C138.173 16.3712 139.41 15.2562 140.62 14.1425C141.653 13.2239 142.631 12.3246 143.664 11.4348Z" fill="#F47827"/>
</g>
</g>
<defs>
<clipPath id="clip0_1184_1221">
<rect width="180" height="170" fill="white" transform="translate(24.5 0.5)"/>
</clipPath>
</defs>
</svg>
