<svg width="29" height="29" viewBox="0 0 29 29" fill="none" xmlns="http://www.w3.org/2000/svg">
<g clip-path="url(#clip0_1055_3429)">
<path d="M14.5002 4.83203V1.20703L9.66683 6.04036L14.5002 10.8737V7.2487C18.5058 7.2487 21.7502 10.4931 21.7502 14.4987C21.7502 15.7252 21.442 16.8731 20.9104 17.8881L22.6745 19.6522C23.611 18.1539 24.1668 16.3958 24.1668 14.4987C24.1668 9.15786 19.841 4.83203 14.5002 4.83203ZM14.5002 21.7487C10.4945 21.7487 7.25016 18.5043 7.25016 14.4987C7.25016 13.2722 7.55829 12.1243 8.08995 11.1093L6.32579 9.34516C5.38933 10.8435 4.8335 12.6016 4.8335 14.4987C4.8335 19.8395 9.15933 24.1654 14.5002 24.1654V27.7904L19.3335 22.957L14.5002 18.1237V21.7487Z" fill="black"/>
</g>
<defs>
<clipPath id="clip0_1055_3429">
<rect width="29" height="29" fill="white"/>
</clipPath>
</defs>
</svg>
