<svg width="19" height="19" viewBox="0 0 19 19" fill="none" xmlns="http://www.w3.org/2000/svg">
<path d="M16.5 9.5C16.5 13.9957 13.0668 17.5 9 17.5C4.93325 17.5 1.5 13.9957 1.5 9.5C1.5 5.00427 4.93325 1.5 9 1.5C13.0668 1.5 16.5 5.00427 16.5 9.5Z" fill="#D9D9D9" stroke="#FFC700" stroke-width="3"/>
<path d="M4.98501 8.8794C5.23945 8.48709 5.54247 8.12853 5.88686 7.81225C6.10969 7.60752 6.35022 7.42295 6.60563 7.26068C6.74363 7.17306 6.88572 7.09221 7.0319 7.01813C7.385 6.83947 7.75634 6.69939 8.13947 6.60032C8.53749 6.4973 8.94527 6.43657 9.35604 6.41914C9.85641 6.39714 10.3575 6.4404 10.8467 6.54783C11.3137 6.64962 11.7646 6.81498 12.1867 7.03928C12.5338 7.22429 12.8562 7.45234 13.1463 7.71805C13.1967 7.7644 13.2461 7.81139 13.2947 7.85901C13.6349 8.18966 13.9357 8.55872 14.1908 8.95875C14.4601 9.38104 14.6709 9.83793 14.8173 10.3169C15.1162 11.2953 15.1221 12.3398 14.8342 13.3215C14.7557 13.5907 14.6567 13.8534 14.5379 14.1074C14.4537 14.2874 14.3587 14.462 14.2532 14.6304C13.9659 15.0866 13.61 15.4957 13.198 15.8434C12.7935 16.1856 12.3439 16.4706 11.8618 16.6904C11.3333 16.9328 10.7718 17.0957 10.1957 17.174C9.83911 17.2227 9.47869 17.2367 9.11942 17.2159C7.82319 17.1389 6.59274 16.619 5.63395 15.7433C5.13724 15.293 4.73482 14.7486 4.44997 14.1417C4.33513 13.8937 4.24421 13.6353 4.17842 13.37C4.11497 13.1119 4.07125 12.8493 4.04762 12.5846C4.00893 12.1519 4.0205 11.7161 4.08212 11.2861C4.20488 10.4278 4.51297 9.60661 4.98501 8.8794Z" fill="#FFE73B"/>
<path d="M12.3276 8.51025C13.8839 9.84002 14.3107 11.7781 13.5969 13.4635C12.9211 15.0598 11.1841 16.0858 9.45126 16.047C7.532 16.004 5.91852 14.7182 5.48059 13.1824C5.24202 12.2957 5.27908 11.3574 5.58684 10.4922C5.89459 9.62708 6.45845 8.87615 7.20342 8.33931C8.71215 7.30312 10.9358 7.32137 12.3276 8.51025Z" fill="white"/>
<path d="M12.8311 15.8729C13.2228 15.5724 13.5703 15.2181 13.8632 14.8207C14.0835 14.5211 14.2683 14.1969 14.4138 13.8546C14.4731 13.7146 14.5261 13.5731 14.5727 13.4303C14.7135 13.0009 14.7971 12.5548 14.8215 12.1036C14.8482 11.6061 14.8011 11.1073 14.6817 10.6235C14.567 10.16 14.3895 9.71443 14.154 9.29912C13.9365 8.91541 13.675 8.55829 13.375 8.23498C13.2078 8.05416 13.03 7.88339 12.8426 7.72356C12.708 7.6087 12.5667 7.50201 12.4193 7.40408C12.0281 7.14562 11.6011 6.94604 11.1519 6.81171C10.689 6.67279 10.2097 6.59647 9.72655 6.58478C9.39048 6.57622 9.05431 6.59743 8.72198 6.64816C8.31281 6.71025 7.91185 6.81787 7.52657 6.96899C7.16493 7.11055 6.82053 7.29269 6.49998 7.51192C6.44164 7.55194 6.38424 7.59329 6.3278 7.63599C5.96655 7.90888 5.64301 8.22838 5.36561 8.58618C5.12755 8.89228 4.92213 9.22242 4.75271 9.57122C4.56447 9.95743 4.42001 10.3635 4.32204 10.7818L4.32126 10.78C4.32122 10.7815 4.32127 10.783 4.32142 10.7845C4.22326 11.2006 4.17269 11.6264 4.17069 12.0539C4.1677 12.545 4.23395 13.034 4.36749 13.5067C4.36974 13.5143 4.37182 13.5219 4.37406 13.5294L4.35941 13.5215C4.36522 13.5281 4.37102 13.5345 4.37734 13.5406C4.57496 14.1868 4.91489 14.7806 5.37214 15.2782C5.75372 15.6985 6.19985 16.0554 6.69374 16.3353C7.48378 16.7852 8.37331 17.0316 9.28225 17.0523C9.46118 17.0562 9.6402 17.0512 9.81862 17.037C10.3511 16.9944 10.8747 16.8762 11.3739 16.686C11.8969 16.4879 12.3879 16.2139 12.8311 15.8729ZM13.0525 7.46684C15.0996 9.21581 15.6609 11.7653 14.7221 13.9822C13.8332 16.0819 11.5487 17.4313 9.26907 17.3805C6.74469 17.324 4.62241 15.6325 4.04615 13.6125C3.38567 11.2972 4.32764 8.60499 6.31219 7.24204C6.93252 6.82101 7.63053 6.52781 8.36544 6.37958C8.48307 6.35518 8.60132 6.33441 8.72017 6.31726C9.18214 6.25018 9.65034 6.23715 10.1153 6.27844C10.2549 6.29076 10.3938 6.30821 10.532 6.33077C11.4603 6.47167 12.3321 6.86463 13.0525 7.46684Z" fill="#F9D026"/>
<path d="M5.5481 9.46735C5.75157 9.12708 5.99725 8.8139 6.2793 8.53528C6.46178 8.35492 6.65989 8.1911 6.87129 8.04572C6.98552 7.96722 7.10341 7.89432 7.22499 7.82703C7.51866 7.66474 7.82898 7.53459 8.15055 7.43881C8.48463 7.33923 8.82828 7.27518 9.17579 7.24773C9.59909 7.21363 10.025 7.2348 10.4428 7.31072C10.8417 7.38255 11.2288 7.50874 11.5934 7.68576C11.8933 7.83179 12.1735 8.01507 12.4275 8.23125C12.4716 8.26897 12.515 8.30725 12.5576 8.3461C12.8561 8.61576 13.1223 8.91918 13.3508 9.25026C13.5921 9.59975 13.7848 9.98038 13.9236 10.3817C14.2071 11.2015 14.2444 12.0863 14.0308 12.9271C13.9726 13.1575 13.8967 13.3832 13.804 13.6021C13.7382 13.7572 13.663 13.9081 13.5789 14.054C13.3496 14.4494 13.0606 14.8071 12.7222 15.1144C12.39 15.4168 12.0179 15.6722 11.6162 15.8734C11.1759 16.0951 10.7052 16.2505 10.2194 16.3346C9.91878 16.3869 9.61381 16.4099 9.30876 16.4034C8.20805 16.3781 7.14941 15.9756 6.30995 15.2632C5.87518 14.897 5.51738 14.4482 5.25728 13.9427C5.15232 13.7361 5.06729 13.52 5.00335 13.2973C4.94162 13.0805 4.89646 12.8594 4.86826 12.6358C4.82211 12.2703 4.81846 11.9008 4.85738 11.5345C4.9349 10.8035 5.17059 10.0981 5.5481 9.46735ZM13.4688 13.4633C14.1826 11.7778 13.7559 9.83978 12.1995 8.51C10.8078 7.32112 8.58412 7.30287 7.07539 8.33907C6.33042 8.87591 5.76656 9.62684 5.4588 10.492C5.15105 11.3571 5.11399 12.2955 5.35255 13.1822C5.79049 14.7179 7.40398 16.0038 9.32323 16.0468C11.0561 16.0856 12.7931 15.0596 13.4688 13.4633Z" fill="#F9D026"/>
<path d="M9.4025 5.32428C9.35564 5.34412 9.30819 5.36273 9.25997 5.37976C9.15512 5.42665 9.03822 5.43951 8.92568 5.41654C8.90052 5.40813 8.8775 5.3943 8.85826 5.37603C8.83902 5.35776 8.82402 5.3355 8.81432 5.3108C8.80462 5.2861 8.80045 5.25958 8.80211 5.2331C8.80378 5.20662 8.81123 5.18082 8.82394 5.15753C8.82652 5.15439 8.8291 5.15124 8.83186 5.14827L8.84592 5.14452C9.1971 5.03867 9.52802 4.87461 9.82487 4.65918C10.1208 4.44552 10.3929 4.20056 10.6363 3.92854C11.128 3.38787 11.5296 2.77309 11.9719 2.19131C12.0918 2.03358 12.2526 1.86143 12.4491 1.88678C12.5736 1.92453 12.6903 1.98459 12.7935 2.06403C12.9214 2.12445 13.0639 2.1471 13.2043 2.12933C13.3447 2.11155 13.477 2.05408 13.5859 1.96368C12.8581 3.19824 11.852 4.24568 10.6476 5.02246C10.5027 5.11591 10.3553 5.20503 10.2054 5.2898C10.1739 5.30765 10.1419 5.32552 10.1096 5.34232C10.0181 5.39373 9.91919 5.43088 9.81643 5.45249C9.74469 5.46885 9.67001 5.46725 9.59903 5.44781C9.52806 5.42838 9.46298 5.39171 9.40958 5.34108L9.4025 5.32428Z" fill="#F7A14B"/>
<path d="M12.5451 11.7696C12.7251 11.6027 12.8664 11.3984 12.9589 11.171C13.0514 10.9435 13.0928 10.6986 13.0804 10.4534C12.9775 10.5201 12.8908 10.6088 12.8266 10.7133C12.7624 10.8177 12.7223 10.9351 12.7093 11.057C12.6851 11.3006 12.6299 11.5401 12.5451 11.7696ZM12.9042 12.6605C13.0685 12.4792 13.1681 12.2486 13.1874 12.0046C12.7873 12.2362 12.4661 12.5829 12.2658 12.9995C12.5112 12.9631 12.7366 12.8435 12.9042 12.6605ZM12.5086 12.203C12.6946 12.147 12.8606 12.0387 12.9867 11.8909C13.1128 11.7431 13.1938 11.5622 13.2199 11.3697C13.0457 11.4453 12.8911 11.5596 12.7678 11.7041C12.6446 11.8485 12.5559 12.0191 12.5086 12.203ZM12.6848 10.3324C12.7039 10.1321 12.6959 9.93021 12.661 9.73208C12.5246 9.88046 12.4302 10.0626 12.3877 10.2596C12.3451 10.4566 12.3559 10.6614 12.419 10.8528C12.5703 10.7193 12.6653 10.5333 12.6848 10.3324ZM12.5718 13.591C12.7065 13.4096 12.8167 13.2112 12.8996 13.001C12.6416 13.0805 12.3966 13.197 12.1721 13.347C12.0603 13.4228 11.9662 13.5219 11.8963 13.6374C11.8263 13.753 11.7821 13.8823 11.7666 14.0165C11.8467 14.0341 11.9294 14.0351 12.0098 14.0193C12.0902 14.0035 12.1665 13.9713 12.234 13.9247C12.3659 13.835 12.4804 13.7219 12.5718 13.591ZM12.4988 11.5874C12.4796 11.3384 12.4081 11.0962 12.2889 10.8767C12.1696 10.6573 12.0053 10.4655 11.8068 10.314C11.7908 10.5698 11.8473 10.825 11.9697 11.0502C12.092 11.2754 12.2754 11.4616 12.4988 11.5874ZM12.2911 12.7743C12.379 12.5652 12.3954 12.3329 12.3376 12.1135C12.2781 11.8982 12.1473 11.7094 11.9667 11.5779C11.9133 12.0039 12.0298 12.4337 12.2911 12.7743ZM12.2584 10.1706C12.3139 9.92076 12.2954 9.6602 12.205 9.42079C12.1133 9.18616 11.9525 8.98492 11.7438 8.84375C11.8109 8.99795 11.8457 9.16426 11.8461 9.33243C11.8462 9.50033 11.8706 9.66734 11.9184 9.8283C11.9431 9.90862 11.9869 9.98173 12.0462 10.0414C12.1054 10.101 12.1782 10.1453 12.2584 10.1706ZM11.8077 13.7395C11.9042 13.5434 11.9529 13.3273 11.9498 13.1088C11.9468 12.8903 11.8921 12.6756 11.7903 12.4822C11.6745 12.7124 11.6051 12.9631 11.586 13.22C11.575 13.3192 11.5827 13.4195 11.6087 13.5158C11.6221 13.5661 11.6471 13.6124 11.6817 13.6513C11.7162 13.6901 11.7594 13.7203 11.8077 13.7395Z" fill="#FFE73B"/>
<path d="M11.0935 14.4626C11.0966 14.4153 11.089 14.3679 11.0712 14.324C11.0533 14.28 11.0258 14.2407 10.9906 14.2089C10.9555 14.1772 10.9135 14.1538 10.868 14.1406C10.8225 14.1273 10.7746 14.1246 10.7278 14.1325C10.6498 14.155 10.5732 14.1823 10.4986 14.2143C10.461 14.2299 10.4197 14.2345 10.3795 14.2275C10.3393 14.2205 10.302 14.2023 10.2718 14.1748C10.1719 12.3989 10.1468 10.6285 10.1964 8.86377C9.87668 8.90092 9.55466 8.91967 9.22852 8.92868C9.02953 10.0072 8.60959 11.033 7.99512 11.9415C8.14521 11.9046 8.28614 11.8374 8.40922 11.7439C8.53229 11.6505 8.63489 11.5327 8.71067 11.398C8.74461 11.3256 8.78578 11.2568 8.83355 11.1926C8.85755 11.1579 8.89318 11.1328 8.93401 11.122C8.97484 11.1112 9.01819 11.1153 9.05624 11.1337C9.06464 12.1525 9.04467 13.1714 8.99071 14.1937C8.97952 14.2123 8.96311 14.2272 8.94353 14.2365C8.92395 14.2458 8.90206 14.2492 8.88057 14.2462C8.83788 14.2395 8.79571 14.2298 8.75435 14.2172C8.70155 14.2068 8.647 14.2093 8.59541 14.2246C8.54381 14.24 8.49673 14.2676 8.45821 14.3052C8.41876 14.3436 8.39109 14.3924 8.37847 14.4459C8.36585 14.4994 8.3688 14.5554 8.38697 14.6074C9.27808 14.5302 10.1717 14.4825 11.0935 14.4626Z" fill="#F7A14B"/>
<path d="M7.60332 9.62106C7.65184 9.41901 7.72545 9.22382 7.82241 9.04004C7.58732 9.13545 7.38603 9.29882 7.24431 9.50927C7.10259 9.71971 7.02687 9.96766 7.02686 10.2214C7.02713 10.2388 7.04264 10.2456 7.05085 10.2539C7.30405 10.1149 7.49979 9.8907 7.60332 9.62106ZM7.39016 14.4341C7.48825 14.2054 7.51833 13.9533 7.47681 13.708C7.43528 13.4627 7.32391 13.2345 7.15603 13.0509C7.09421 13.2848 7.08312 13.5293 7.1235 13.7678C7.16388 14.0064 7.2548 14.2335 7.39016 14.4341Z" fill="#FFE73B"/>
<path d="M6.48743 10.8077C6.70748 10.6267 6.87465 10.3897 6.97135 10.1217C7.06805 9.85364 7.0907 9.56449 7.03691 9.28467C6.66005 9.70002 6.46255 10.2475 6.48743 10.8077ZM6.94557 11.1883C7.03359 10.9353 7.09058 10.6725 7.1153 10.4058C6.86603 10.532 6.66308 10.7339 6.53548 10.9825C6.40788 11.2311 6.36217 11.5137 6.40489 11.7898C6.53041 11.7304 6.64285 11.6466 6.73568 11.5434C6.8285 11.4401 6.89985 11.3194 6.94557 11.1883ZM6.72767 13.679C6.92401 13.179 6.98114 12.6352 6.89298 12.1053C6.67548 12.2998 6.53805 12.5682 6.5074 12.8583C6.48106 13.1493 6.55914 13.4403 6.72767 13.679ZM6.9762 14.211C6.91299 14.0305 6.79979 13.8718 6.64978 13.7532C6.49978 13.6346 6.31916 13.5611 6.12897 13.5412C6.19954 13.717 6.31486 13.8713 6.46347 13.9888C6.61209 14.1063 6.78884 14.1829 6.9762 14.211ZM6.4014 13.1082C6.3981 13.1062 6.39479 13.1041 6.39148 13.1019C6.39558 12.8801 6.32945 12.6626 6.20255 12.4806C6.14204 12.4191 6.07824 12.361 6.01141 12.3064C5.94421 12.2511 5.89687 12.1754 5.87659 12.0908C5.86482 12.2899 5.90632 12.4885 5.99682 12.6662C6.08732 12.8439 6.22355 12.9943 6.39148 13.1019L6.39253 13.1162C6.39688 13.1121 6.4014 13.1082 6.4014 13.1082ZM6.31283 12.2645C6.23137 12.0005 6.32148 11.7382 6.29879 11.4902C6.2553 11.2393 6.1538 11.0021 6.00238 10.7974C5.92372 11.048 5.91097 11.3147 5.96535 11.5717C6.01973 11.8286 6.1394 12.0673 6.31283 12.2645Z" fill="#FFE73B"/>
<path d="M10.6556 5.03461C10.7592 5.06906 10.8466 5.14011 10.9016 5.23444C10.9565 5.32878 10.9752 5.43991 10.954 5.54702C10.9056 5.68957 10.8251 5.81912 10.7187 5.9257C10.6121 6.03317 10.5463 6.17455 10.5329 6.32538L10.532 6.33062C10.394 6.30818 10.2551 6.29073 10.1153 6.27829L10.1155 6.23554C10.18 6.05696 10.2302 5.87355 10.2656 5.68704C10.2824 5.62172 10.2844 5.55349 10.2714 5.48732C10.2601 5.45228 10.2394 5.421 10.2117 5.39683C10.1839 5.37266 10.15 5.35651 10.1138 5.35012L10.1095 5.34201C10.1418 5.32522 10.1738 5.30735 10.2053 5.2895C10.3552 5.20466 10.5026 5.11555 10.6476 5.02215L10.6556 5.03461ZM9.81818 4.64978L9.82479 4.65887C9.52794 4.87431 9.19702 5.03837 8.84584 5.14422L8.83178 5.14796C8.82902 5.15093 8.82644 5.15408 8.82386 5.15723L8.81756 5.15189C8.75147 5.17278 8.69154 5.20961 8.64305 5.25913C8.59456 5.30866 8.55901 5.36936 8.53953 5.43588C8.50137 5.57948 8.50402 5.73087 8.5472 5.87304C8.59043 6.0144 8.64665 6.15146 8.71513 6.28246L8.72016 6.31711C8.60137 6.33419 8.48312 6.35497 8.36543 6.37943L8.36063 6.35608C8.20859 6.15565 8.05654 5.95528 7.9045 5.75497C7.84516 5.68873 7.8033 5.60871 7.78271 5.52219C7.78012 5.45805 7.79139 5.3941 7.81575 5.3347C7.84011 5.2753 7.87699 5.22186 7.92388 5.17801C8.01362 5.07869 8.11716 4.99278 8.23135 4.92293C8.40803 4.81593 8.60143 4.73937 8.80348 4.69646C8.85674 4.68464 8.91026 4.67497 8.9642 4.6669C9.24739 4.63018 9.53374 4.62444 9.81818 4.64978Z" fill="#F9DB48"/>
<path d="M8.95801 4.62589L8.96418 4.66714C8.91024 4.67521 8.85672 4.68489 8.80346 4.69671C8.60141 4.73962 8.40801 4.81617 8.23132 4.92317L8.22065 4.90614C6.97475 4.10538 5.98442 2.96435 5.36694 1.61816C5.54623 1.74829 5.76947 1.89674 6.00014 1.84505C6.12874 1.8163 6.23669 1.72815 6.36277 1.68925C6.4376 1.66697 6.5166 1.66242 6.59349 1.67598C6.67039 1.68955 6.74306 1.72084 6.80575 1.76738C6.93862 1.89047 7.03832 2.04507 7.09563 2.21689C7.51526 3.15702 8.15385 3.98304 8.95801 4.62589Z" fill="#F7A14B"/>
<path d="M9.50798 5.30917C9.5007 5.30917 9.49364 5.3067 9.48796 5.30215C9.48228 5.2976 9.47832 5.29126 9.47673 5.28416C9.47514 5.27706 9.47601 5.26963 9.47921 5.26309C9.48241 5.25656 9.48773 5.2513 9.49432 5.2482C10.3385 4.778 11.0983 4.17035 11.7426 3.45023C11.7453 3.44702 11.7487 3.44438 11.7524 3.44247C11.7562 3.44055 11.7602 3.43939 11.7644 3.43906C11.7686 3.43873 11.7729 3.43923 11.7769 3.44054C11.7809 3.44184 11.7846 3.44393 11.7878 3.44667C11.791 3.44941 11.7936 3.45275 11.7955 3.45651C11.7974 3.46027 11.7985 3.46437 11.7989 3.46857C11.7992 3.47277 11.7987 3.47699 11.7973 3.48099C11.796 3.48499 11.7939 3.48869 11.7912 3.49188C11.1408 4.21861 10.3737 4.83176 9.52158 5.3061C9.51733 5.30811 9.51268 5.30916 9.50798 5.30917Z" fill="#E58D3E"/>
<path d="M12.7583 8.45778C12.6783 8.45796 12.5995 8.43917 12.5282 8.40294C12.5127 8.39512 12.5007 8.3816 12.4948 8.36519C12.4889 8.34878 12.4895 8.33073 12.4966 8.31478C12.4999 8.30728 12.5047 8.30052 12.5106 8.29492C12.5166 8.28932 12.5237 8.285 12.5314 8.28222C12.5391 8.27943 12.5473 8.27824 12.5555 8.27873C12.5636 8.27921 12.5716 8.28135 12.5789 8.28502L12.5833 8.28727C12.6385 8.31525 12.6996 8.32957 12.7615 8.32904C12.8234 8.3285 12.8843 8.31313 12.939 8.2842C12.9648 8.26923 12.9899 8.25291 13.014 8.2353C13.051 8.20753 13.0906 8.18338 13.1322 8.16321C13.1771 8.13951 13.2283 8.13026 13.2786 8.13673C13.329 8.1432 13.3761 8.16507 13.4136 8.19935C13.4251 8.21185 13.4311 8.22841 13.4304 8.24538C13.4297 8.26235 13.4223 8.27834 13.4098 8.28983C13.3973 8.30132 13.3807 8.30738 13.3637 8.30666C13.3468 8.30595 13.3308 8.29852 13.3193 8.28602C13.2998 8.27231 13.2768 8.26446 13.253 8.26339C13.2291 8.26232 13.2055 8.26806 13.1848 8.27995C13.1507 8.29695 13.1181 8.31706 13.0876 8.34004C13.0597 8.36037 13.0307 8.37917 13.0008 8.39638C12.9264 8.4369 12.843 8.45801 12.7583 8.45778ZM14.145 9.3682C14.1356 9.36821 14.1263 9.36615 14.1178 9.36216C14.1093 9.35817 14.1018 9.35236 14.0957 9.34513C14.0703 9.32124 14.0392 9.30413 14.0053 9.29537C13.9715 9.28661 13.936 9.28647 13.9022 9.29498C13.8577 9.30267 13.8138 9.31341 13.7708 9.32712C13.727 9.3408 13.6825 9.35199 13.6374 9.36064C13.5827 9.37405 13.5255 9.37388 13.4708 9.36012C13.4161 9.34637 13.3656 9.31945 13.3238 9.28173C13.3179 9.27568 13.3133 9.26854 13.3103 9.26072C13.3072 9.2529 13.3057 9.24454 13.3058 9.23614C13.306 9.22773 13.3078 9.21944 13.3111 9.21173C13.3145 9.20402 13.3193 9.19705 13.3254 9.19121C13.3314 9.18537 13.3385 9.18078 13.3464 9.1777C13.3542 9.17462 13.3625 9.17311 13.3709 9.17326C13.3793 9.17341 13.3876 9.17521 13.3953 9.17857C13.4031 9.18192 13.41 9.18676 13.4159 9.19281C13.4439 9.21424 13.4764 9.2291 13.511 9.23631C13.5456 9.24351 13.5813 9.24288 13.6156 9.23445C13.6559 9.2266 13.6957 9.21649 13.7349 9.20419C13.7835 9.18881 13.8331 9.17681 13.8834 9.16829C13.939 9.15628 13.9967 9.15869 14.0511 9.17531C14.1055 9.19192 14.1548 9.22219 14.1942 9.26321C14.2019 9.27256 14.2069 9.28394 14.2085 9.296C14.21 9.30806 14.2081 9.32032 14.2029 9.33133C14.1978 9.34235 14.1896 9.35166 14.1793 9.35819C14.1691 9.36472 14.1572 9.3682 14.145 9.3682ZM14.6766 10.6886C14.6656 10.6886 14.6548 10.6858 14.6453 10.6805C14.6357 10.6751 14.6276 10.6674 14.6219 10.6581C14.5994 10.6221 14.569 10.5916 14.5331 10.5689C14.4972 10.5463 14.4567 10.532 14.4145 10.5271C14.366 10.5244 14.3174 10.5272 14.2696 10.5353C14.2343 10.5399 14.1978 10.5448 14.1603 10.546C14.1043 10.5529 14.0475 10.5436 13.9966 10.5193C13.9457 10.4949 13.9028 10.4565 13.8731 10.4086C13.8653 10.3934 13.8639 10.3759 13.8691 10.3597C13.8743 10.3435 13.8858 10.3301 13.9009 10.3224C13.916 10.3146 13.9336 10.3132 13.9497 10.3184C13.9659 10.3236 13.9793 10.335 13.9871 10.3502C14.007 10.3751 14.033 10.3944 14.0626 10.4063C14.0921 10.4182 14.1243 10.4223 14.1559 10.4181C14.1873 10.4169 14.2192 10.4128 14.2529 10.4084C14.3107 10.3986 14.3695 10.3957 14.4279 10.3998C14.4896 10.4069 14.5489 10.4278 14.6014 10.4609C14.6538 10.494 14.6982 10.5385 14.7312 10.5911C14.7371 10.6008 14.7403 10.612 14.7405 10.6233C14.7408 10.6347 14.7379 10.6459 14.7324 10.6558C14.7268 10.6658 14.7187 10.674 14.7089 10.6798C14.6991 10.6856 14.688 10.6886 14.6766 10.6886ZM14.8184 12.1673C14.8045 12.1673 14.791 12.1627 14.7799 12.1544C14.7688 12.146 14.7607 12.1343 14.7569 12.1209C14.7424 12.0734 14.7169 12.0299 14.6825 11.9941C14.6481 11.9582 14.6057 11.931 14.5588 11.9146C14.5192 11.9029 14.4786 11.8947 14.4375 11.8903C14.4046 11.8856 14.3707 11.8808 14.3365 11.8726C14.2876 11.8646 14.2415 11.8446 14.2023 11.8143C14.1632 11.784 14.1321 11.7445 14.112 11.6993C14.1091 11.6914 14.1077 11.6829 14.108 11.6745C14.1084 11.666 14.1104 11.6577 14.1139 11.65C14.1175 11.6424 14.1225 11.6355 14.1287 11.6298C14.135 11.624 14.1423 11.6196 14.1503 11.6167C14.1582 11.6139 14.1667 11.6126 14.1751 11.613C14.1836 11.6134 14.1918 11.6155 14.1995 11.6191C14.2071 11.6227 14.214 11.6279 14.2196 11.6341C14.2253 11.6404 14.2296 11.6478 14.2324 11.6558C14.2459 11.6806 14.265 11.7019 14.2883 11.718C14.3115 11.734 14.3382 11.7443 14.3662 11.7481C14.3945 11.7548 14.4241 11.759 14.4555 11.7635C14.5043 11.7689 14.5525 11.7789 14.5995 11.7932C14.6662 11.816 14.7264 11.8544 14.7752 11.9053C14.824 11.9562 14.8599 12.018 14.8799 12.0855C14.8827 12.0951 14.8832 12.1051 14.8813 12.1149C14.8795 12.1246 14.8755 12.1338 14.8695 12.1418C14.8636 12.1497 14.8558 12.1561 14.8469 12.1605C14.8381 12.165 14.8283 12.1673 14.8184 12.1673ZM14.572 13.494C14.557 13.494 14.5424 13.4887 14.5309 13.479C14.5194 13.4693 14.5117 13.4559 14.509 13.4411C14.4995 13.3913 14.4783 13.3444 14.4471 13.3043C14.416 13.2643 14.3758 13.2321 14.3298 13.2106C14.3016 13.1987 14.2727 13.1887 14.2432 13.1806C14.2063 13.1705 14.1702 13.1576 14.1352 13.1421C14.0919 13.1249 14.0544 13.0959 14.0269 13.0583C13.9993 13.0208 13.983 12.9762 13.9797 12.9297C13.9798 12.9128 13.9866 12.8967 13.9986 12.8848C14.0106 12.8729 14.0268 12.8662 14.0437 12.8662H14.0442C14.0612 12.8664 14.0774 12.8732 14.0893 12.8853C14.1012 12.8974 14.1078 12.9138 14.1077 12.9307C14.1074 12.9698 14.1487 13.0068 14.1897 13.0262C14.219 13.039 14.2492 13.0496 14.28 13.0579C14.315 13.0676 14.3492 13.0796 14.3826 13.0939C14.4476 13.1239 14.5046 13.169 14.5485 13.2255C14.5925 13.2821 14.6222 13.3484 14.6352 13.4188C14.6366 13.4271 14.6364 13.4356 14.6346 13.4438C14.6328 13.452 14.6294 13.4598 14.6246 13.4667C14.6197 13.4736 14.6136 13.4794 14.6065 13.4839C14.5994 13.4885 14.5915 13.4915 14.5833 13.493C14.5795 13.4937 14.5758 13.494 14.572 13.494ZM13.8521 14.8764C13.8418 14.8764 13.8317 14.874 13.8226 14.8692C13.8135 14.8645 13.8057 14.8577 13.7998 14.8493C13.7939 14.8409 13.79 14.8313 13.7887 14.8211C13.7873 14.8109 13.7883 14.8006 13.7918 14.7909C13.7993 14.7549 13.799 14.7176 13.791 14.6817C13.783 14.6458 13.7675 14.6119 13.7454 14.5825C13.7214 14.5471 13.6954 14.5132 13.6677 14.4807C13.6345 14.4418 13.6038 14.4009 13.5757 14.3582C13.5424 14.3119 13.5205 14.2583 13.512 14.2018C13.5036 14.1454 13.5087 14.0878 13.527 14.0337C13.5334 14.018 13.5459 14.0055 13.5616 13.999C13.5773 13.9925 13.5949 13.9925 13.6106 13.999C13.6263 14.0054 13.6388 14.0179 13.6453 14.0336C13.6518 14.0493 13.6518 14.0669 13.6453 14.0826C13.6361 14.1179 13.6348 14.1548 13.6415 14.1907C13.6482 14.2266 13.6628 14.2605 13.6842 14.2901C13.7094 14.3282 13.7369 14.3647 13.7667 14.3994C13.7974 14.4355 13.8261 14.4733 13.8526 14.5125C13.8869 14.5577 13.9101 14.6103 13.9205 14.6661C13.9309 14.7219 13.9281 14.7793 13.9124 14.8338C13.908 14.8463 13.8998 14.8571 13.889 14.8647C13.8782 14.8723 13.8653 14.8764 13.8521 14.8764ZM12.826 15.9501C12.8154 15.9501 12.8051 15.9475 12.7958 15.9425C12.7865 15.9376 12.7786 15.9304 12.7727 15.9216C12.7669 15.9129 12.7633 15.9028 12.7623 15.8923C12.7612 15.8819 12.7628 15.8713 12.7668 15.8616C12.768 15.8588 12.7692 15.8561 12.7701 15.8533C12.7866 15.7847 12.7776 15.7124 12.7446 15.6499C12.7318 15.6211 12.7169 15.5931 12.7022 15.5649C12.6719 15.5114 12.6469 15.4552 12.6275 15.3969C12.6081 15.3435 12.6033 15.2859 12.6134 15.23C12.6235 15.1741 12.6483 15.1218 12.6851 15.0786C12.691 15.0726 12.6981 15.0678 12.7058 15.0646C12.7136 15.0613 12.7219 15.0596 12.7303 15.0596C12.7388 15.0595 12.7471 15.0612 12.7549 15.0644C12.7627 15.0676 12.7698 15.0723 12.7757 15.0782C12.7817 15.0841 12.7865 15.0912 12.7897 15.099C12.7929 15.1067 12.7946 15.1151 12.7946 15.1235C12.7947 15.1319 12.793 15.1402 12.7898 15.148C12.7866 15.1558 12.7819 15.1629 12.7759 15.1689C12.7559 15.1959 12.743 15.2276 12.7385 15.261C12.7339 15.2944 12.7379 15.3283 12.75 15.3598C12.7672 15.4103 12.7892 15.459 12.8156 15.5054C12.8316 15.5358 12.8475 15.5663 12.8616 15.5976C12.9091 15.689 12.9198 15.7951 12.8914 15.8941C12.8901 15.8985 12.8877 15.9046 12.8851 15.9106C12.8803 15.9223 12.8721 15.9323 12.8615 15.9393C12.851 15.9463 12.8386 15.9501 12.826 15.9501ZM11.3698 16.7397C11.3575 16.7397 11.3455 16.7361 11.3352 16.7295C11.3249 16.7229 11.3167 16.7134 11.3116 16.7022C11.3065 16.6911 11.3047 16.6787 11.3064 16.6665C11.3082 16.6544 11.3134 16.643 11.3214 16.6337C11.371 16.5673 11.398 16.4867 11.3986 16.4038C11.4014 16.369 11.4023 16.3342 11.4032 16.2993C11.4035 16.2364 11.4082 16.1736 11.4175 16.1113C11.4242 16.0549 11.4425 16.0004 11.4711 15.9513C11.4997 15.9022 11.5381 15.8595 11.5838 15.8258C11.5908 15.8211 11.5987 15.8179 11.6069 15.8163C11.6152 15.8147 11.6237 15.8148 11.6319 15.8165C11.6402 15.8182 11.648 15.8215 11.655 15.8262C11.6619 15.8309 11.6679 15.837 11.6725 15.844C11.6772 15.851 11.6804 15.8589 11.682 15.8672C11.6835 15.8754 11.6835 15.8839 11.6818 15.8922C11.6801 15.9004 11.6768 15.9082 11.672 15.9152C11.6673 15.9221 11.6612 15.9281 11.6542 15.9327C11.5926 15.9824 11.5529 16.0543 11.5437 16.1329C11.5356 16.1892 11.5314 16.2459 11.5312 16.3028C11.5302 16.3398 11.5292 16.3769 11.5263 16.4138C11.5241 16.5241 11.4862 16.6306 11.4183 16.7175C11.4123 16.7245 11.4048 16.7301 11.3965 16.7339C11.3881 16.7377 11.379 16.7397 11.3698 16.7397ZM9.81728 17.0846C9.80261 17.0846 9.78839 17.0796 9.77698 17.0704C9.76558 17.0612 9.75769 17.0483 9.75463 17.034C9.75157 17.0196 9.75352 17.0047 9.76017 16.9916C9.76681 16.9785 9.77775 16.9681 9.79114 16.9621C9.85606 16.9252 9.9039 16.8642 9.92439 16.7924C9.93883 16.7498 9.951 16.7064 9.96084 16.6625C9.97138 16.6192 9.98229 16.5745 9.99745 16.5303C10.027 16.4253 10.0968 16.3362 10.1917 16.2825C10.1993 16.2788 10.2075 16.2766 10.2158 16.276C10.2242 16.2754 10.2326 16.2765 10.2406 16.2792C10.2486 16.2819 10.2559 16.2861 10.2623 16.2916C10.2686 16.2972 10.2738 16.3039 10.2775 16.3114C10.2813 16.3189 10.2835 16.3271 10.284 16.3355C10.2846 16.3439 10.2835 16.3523 10.2808 16.3603C10.2782 16.3682 10.2739 16.3756 10.2684 16.3819C10.2629 16.3883 10.2562 16.3935 10.2486 16.3972C10.1849 16.4371 10.1385 16.4995 10.1185 16.572C10.1053 16.6105 10.0956 16.6504 10.0852 16.6928C10.0744 16.7412 10.0609 16.7889 10.0449 16.8358C10.0292 16.8877 10.0032 16.936 9.96864 16.9777C9.93404 17.0195 9.89144 17.054 9.84335 17.0791C9.83515 17.0828 9.82626 17.0846 9.81728 17.0846ZM8.05076 16.9334C8.03425 16.9333 8.01838 16.9269 8.00648 16.9155C7.99458 16.904 7.98756 16.8884 7.98689 16.8719C7.98622 16.8554 7.99195 16.8393 8.00288 16.8269C8.01382 16.8145 8.02911 16.8069 8.04557 16.8055C8.161 16.7951 8.26783 16.7401 8.3433 16.6522C8.36949 16.6196 8.39347 16.5852 8.41509 16.5494C8.43523 16.5178 8.45604 16.4851 8.48021 16.4538C8.50827 16.4127 8.54463 16.3779 8.58696 16.3517C8.62928 16.3255 8.67661 16.3085 8.72592 16.3018C8.73434 16.3011 8.74282 16.3021 8.75085 16.3047C8.75889 16.3073 8.76633 16.3115 8.77274 16.317C8.77915 16.3225 8.7844 16.3292 8.7882 16.3368C8.792 16.3443 8.79427 16.3526 8.79487 16.361C8.79547 16.3694 8.7944 16.3779 8.79171 16.3859C8.78903 16.3939 8.78478 16.4013 8.77922 16.4077C8.77366 16.414 8.76689 16.4192 8.75931 16.423C8.75173 16.4267 8.74348 16.4289 8.73505 16.4294C8.70401 16.4356 8.6745 16.4478 8.64818 16.4654C8.62187 16.483 8.59928 16.5055 8.5817 16.5319C8.561 16.5587 8.54258 16.5876 8.52314 16.6182C8.49847 16.6588 8.47109 16.6978 8.44119 16.7347C8.34409 16.8491 8.20563 16.9205 8.05607 16.9332L8.05076 16.9334ZM6.79246 16.4087C6.75159 16.409 6.71108 16.401 6.6734 16.3852C6.66565 16.3819 6.65863 16.3771 6.65274 16.3711C6.64685 16.3651 6.6422 16.3579 6.63906 16.3501C6.63592 16.3423 6.63435 16.334 6.63445 16.3255C6.63454 16.3171 6.6363 16.3088 6.63961 16.3011C6.64293 16.2933 6.64774 16.2863 6.65376 16.2804C6.65979 16.2746 6.66692 16.2699 6.67474 16.2668C6.68256 16.2637 6.69092 16.2622 6.69934 16.2623C6.70775 16.2624 6.71607 16.2642 6.7238 16.2675C6.76357 16.2787 6.80534 16.2809 6.84606 16.2739C6.88678 16.2668 6.92542 16.2508 6.95916 16.227C7.00416 16.1978 7.04711 16.1656 7.08772 16.1306C7.12433 16.1005 7.1622 16.0695 7.20327 16.0417C7.25156 16.0044 7.30737 15.9781 7.36684 15.9645C7.42632 15.9509 7.48803 15.9504 7.54772 15.963C7.55581 15.9653 7.56338 15.9692 7.56999 15.9744C7.57659 15.9796 7.58211 15.986 7.58622 15.9934C7.59033 16.0007 7.59296 16.0088 7.59395 16.0172C7.59493 16.0255 7.59427 16.034 7.59198 16.0421C7.5897 16.0502 7.58585 16.0577 7.58064 16.0643C7.57543 16.071 7.56897 16.0765 7.56163 16.0806C7.55429 16.0847 7.54622 16.0873 7.53786 16.0883C7.52951 16.0893 7.52104 16.0886 7.51295 16.0863C7.47117 16.0798 7.42849 16.0819 7.38755 16.0924C7.3466 16.103 7.30826 16.1219 7.2749 16.1479C7.23882 16.1723 7.20489 16.2001 7.16897 16.2296C7.12388 16.2683 7.07617 16.3039 7.02619 16.3361C6.95644 16.3813 6.87556 16.4065 6.79246 16.4087ZM5.63873 15.4113C5.53145 15.4155 5.4268 15.3776 5.34718 15.3055C5.34107 15.2997 5.33619 15.2927 5.33281 15.2849C5.32944 15.2771 5.32764 15.2687 5.32751 15.2603C5.32739 15.2518 5.32896 15.2434 5.33211 15.2355C5.33526 15.2277 5.33995 15.2205 5.34589 15.2145C5.35183 15.2084 5.35891 15.2036 5.36672 15.2003C5.37453 15.1971 5.38292 15.1954 5.39139 15.1953C5.39986 15.1953 5.40825 15.197 5.41608 15.2002C5.4239 15.2035 5.43101 15.2082 5.43698 15.2143C5.47114 15.2427 5.51106 15.2633 5.55398 15.2748C5.5969 15.2863 5.64181 15.2883 5.68559 15.2808C5.75553 15.2713 5.8245 15.2557 5.89169 15.2341C5.92418 15.2248 5.95669 15.2154 5.98939 15.2072C6.10024 15.174 6.21816 15.1723 6.32993 15.2023L6.33987 15.2056C6.35605 15.2112 6.3694 15.223 6.37706 15.2383C6.38473 15.2536 6.3861 15.2713 6.38089 15.2877C6.37837 15.2956 6.3743 15.3029 6.36892 15.3092C6.36355 15.3155 6.35697 15.3207 6.34957 15.3244C6.34218 15.3282 6.33411 15.3304 6.32584 15.331C6.31757 15.3316 6.30927 15.3305 6.30141 15.3279L6.29735 15.3264L6.28972 15.3239C6.20101 15.301 6.10765 15.3037 6.02038 15.3315C5.98924 15.3393 5.95816 15.3483 5.92709 15.3572C5.85265 15.3809 5.77625 15.398 5.69879 15.4082C5.67884 15.4103 5.65879 15.4113 5.63873 15.4113ZM5.25317 14.0086C5.24119 14.0086 5.22944 14.0052 5.21927 13.9989C5.2091 13.9926 5.20092 13.9835 5.19565 13.9727C5.14501 13.8898 5.06419 13.8298 4.9702 13.8053C4.90523 13.7864 4.83903 13.772 4.77207 13.7623C4.72868 13.7549 4.68531 13.7474 4.64248 13.7379C4.52675 13.7176 4.41915 13.6649 4.33218 13.5859C4.32527 13.5793 4.31817 13.5715 4.31114 13.5634C4.30123 13.5521 4.29565 13.5376 4.29538 13.5225C4.29511 13.5074 4.30016 13.4927 4.30965 13.481C4.31914 13.4693 4.33245 13.4613 4.34725 13.4585C4.36205 13.4556 4.37739 13.458 4.39056 13.4654L4.39897 13.47L4.40463 13.4731L4.42063 13.4815C4.4282 13.4856 4.43486 13.4912 4.44022 13.4979C4.44558 13.5046 4.44953 13.5124 4.45184 13.5206C4.51721 13.5668 4.59182 13.5983 4.67053 13.6129C4.71111 13.622 4.75235 13.629 4.79355 13.636C4.86635 13.6467 4.93832 13.6625 5.00893 13.6832C5.0723 13.6998 5.13168 13.729 5.18351 13.769C5.23533 13.8091 5.27855 13.8592 5.31058 13.9163C5.31536 13.9261 5.31759 13.9369 5.31704 13.9478C5.31649 13.9586 5.31319 13.9691 5.30745 13.9784C5.30171 13.9876 5.29372 13.9952 5.28422 14.0005C5.27472 14.0058 5.26404 14.0085 5.25317 14.0086ZM4.86584 12.7C4.85266 12.7 4.83979 12.6959 4.82901 12.6883C4.81822 12.6807 4.81005 12.67 4.8056 12.6576C4.76992 12.5776 4.70718 12.5127 4.62842 12.4744C4.58971 12.4521 4.54929 12.433 4.50652 12.4128C4.45494 12.3894 4.40464 12.3633 4.35582 12.3346C4.2508 12.2782 4.17137 12.1838 4.13387 12.0707C4.12938 12.0543 4.13158 12.0368 4.13998 12.022C4.14838 12.0073 4.1623 11.9965 4.17868 11.992C4.19506 11.9875 4.21255 11.9897 4.22731 11.9981C4.24206 12.0065 4.25288 12.0204 4.25737 12.0368C4.28746 12.1177 4.3462 12.1847 4.42245 12.2252C4.46747 12.2516 4.51384 12.2755 4.56136 12.297C4.60454 12.3175 4.64915 12.3386 4.6923 12.3634C4.79771 12.4164 4.88066 12.5054 4.92609 12.6143C4.92957 12.6239 4.93068 12.6343 4.92931 12.6445C4.92794 12.6547 4.92414 12.6644 4.91823 12.6728C4.91232 12.6812 4.90448 12.688 4.89536 12.6928C4.88624 12.6975 4.87611 12.7 4.86584 12.7ZM4.85702 11.5984C4.84055 11.5984 4.82471 11.592 4.81281 11.5806C4.80091 11.5692 4.79385 11.5537 4.79311 11.5372C4.7805 11.4472 4.73458 11.3653 4.66443 11.3075C4.62922 11.2747 4.59099 11.2451 4.55053 11.2138C4.50429 11.1793 4.45993 11.1423 4.41766 11.103C4.32493 11.0226 4.2674 10.909 4.25739 10.7867L4.2572 10.7814C4.25718 10.7666 4.26221 10.7523 4.27147 10.7408C4.28073 10.7292 4.29366 10.7212 4.3081 10.718C4.32241 10.7148 4.3374 10.7167 4.35049 10.7233C4.36358 10.7299 4.37396 10.7409 4.37985 10.7543L4.38161 10.7583L4.39127 10.7824C4.39727 10.7973 4.39745 10.8139 4.39177 10.8289C4.41213 10.899 4.45185 10.962 4.50638 11.0107C4.54537 11.0468 4.58626 11.0808 4.62888 11.1125C4.66987 11.1442 4.71223 11.177 4.75178 11.2139C4.84767 11.2935 4.90845 11.4075 4.92105 11.5315C4.9218 11.5484 4.91579 11.565 4.90433 11.5775C4.89286 11.5901 4.87689 11.5975 4.85992 11.5983L4.85702 11.5984ZM5.12561 10.474C5.11014 10.4739 5.09521 10.4683 5.08356 10.4581C5.07192 10.448 5.06435 10.4339 5.06227 10.4186C5.06099 10.4092 5.0593 10.3998 5.05727 10.3906C5.03505 10.3103 4.99671 10.2354 4.9446 10.1705C4.92809 10.1481 4.91099 10.1261 4.89389 10.104C4.84415 10.0434 4.79973 9.97862 4.76111 9.9104C4.73051 9.85845 4.71059 9.80092 4.70251 9.74118C4.69443 9.68144 4.69835 9.62069 4.71405 9.56248C4.7166 9.55445 4.72072 9.54699 4.72615 9.54055C4.73159 9.53411 4.73825 9.5288 4.74574 9.52494C4.75324 9.52107 4.76142 9.51873 4.76982 9.51804C4.77823 9.51735 4.78668 9.51832 4.79471 9.52091C4.80273 9.52349 4.81017 9.52764 4.81659 9.53311C4.82301 9.53857 4.82828 9.54525 4.83211 9.55277C4.83594 9.56028 4.83825 9.56847 4.8389 9.57688C4.83956 9.58528 4.83854 9.59374 4.83592 9.60175C4.81628 9.68649 4.83 9.77554 4.87425 9.85043C4.90949 9.91212 4.94992 9.9707 4.99512 10.0255C5.01285 10.0484 5.03058 10.0713 5.04774 10.0946C5.11074 10.1738 5.15659 10.2653 5.18237 10.3632C5.18512 10.3758 5.18743 10.3886 5.18915 10.4013C5.19028 10.4096 5.18977 10.4181 5.18762 10.4263C5.18548 10.4344 5.18176 10.442 5.17667 10.4487C5.17157 10.4554 5.16521 10.461 5.15794 10.4653C5.15068 10.4695 5.14265 10.4723 5.13431 10.4734C5.13143 10.4738 5.12852 10.474 5.12561 10.474ZM5.54787 9.54128L5.54309 9.54109C5.5347 9.54047 5.52652 9.53821 5.51901 9.53442C5.5115 9.53064 5.50481 9.52541 5.49932 9.51904C5.49383 9.51268 5.48965 9.50529 5.48702 9.4973C5.48438 9.48932 5.48335 9.48089 5.48397 9.4725L5.484 9.46963C5.47719 9.3495 5.44407 9.23233 5.38699 9.1264C5.37795 9.1059 5.36891 9.08539 5.3602 9.065C5.31962 8.98949 5.2951 8.90641 5.28816 8.82097C5.28122 8.73554 5.29201 8.64959 5.31986 8.56852C5.32701 8.55311 5.33999 8.54118 5.35594 8.53534C5.37188 8.5295 5.3895 8.53023 5.4049 8.53738C5.42031 8.54453 5.43225 8.5575 5.43809 8.57345C5.44393 8.5894 5.44319 8.60701 5.43604 8.62242C5.41513 8.68711 5.40806 8.75547 5.41529 8.82307C5.42252 8.89066 5.44389 8.95599 5.478 9.01479C5.4865 9.03467 5.49532 9.05469 5.50417 9.07469C5.56897 9.19639 5.60581 9.33102 5.612 9.46875C5.61216 9.47318 5.61205 9.4776 5.61166 9.48201C5.61046 9.49811 5.60323 9.51317 5.5914 9.52416C5.57957 9.53516 5.56402 9.54127 5.54787 9.54128ZM6.26887 8.58897C6.25648 8.58899 6.24436 8.58539 6.23401 8.57859C6.22696 8.57401 6.22088 8.56809 6.21612 8.56116C6.21137 8.55423 6.20802 8.54643 6.20628 8.53821C6.20454 8.52999 6.20443 8.5215 6.20597 8.51324C6.20751 8.50497 6.21066 8.4971 6.21525 8.49005C6.27217 8.36613 6.28248 8.22584 6.24429 8.09493C6.19958 7.93436 6.21072 7.76337 6.27587 7.60995C6.27998 7.60261 6.2855 7.59616 6.29211 7.59096C6.29872 7.58575 6.30629 7.5819 6.31439 7.57962C6.32248 7.57734 6.33095 7.57668 6.3393 7.57767C6.34765 7.57867 6.35573 7.5813 6.36307 7.58541C6.3704 7.58952 6.37686 7.59504 6.38206 7.60165C6.38727 7.60826 6.39112 7.61583 6.3934 7.62392C6.39568 7.63202 6.39634 7.64049 6.39535 7.64884C6.39435 7.65719 6.39172 7.66527 6.38761 7.67261C6.33842 7.80101 6.33247 7.94195 6.37066 8.07404C6.41565 8.23631 6.39851 8.40952 6.32261 8.55983C6.3168 8.56879 6.30883 8.57615 6.29944 8.58124C6.29006 8.58633 6.27954 8.58899 6.26887 8.58897ZM7.22303 7.88776C7.20951 7.88777 7.19633 7.8835 7.18539 7.87556C7.17444 7.86763 7.16629 7.85643 7.1621 7.84357C7.15791 7.83072 7.15789 7.81687 7.16205 7.804C7.16621 7.79114 7.17434 7.77992 7.18526 7.77196C7.25032 7.71373 7.28983 7.63223 7.29525 7.5451C7.30129 7.49976 7.3031 7.45393 7.30504 7.40547C7.30621 7.34782 7.31083 7.2903 7.31889 7.2332C7.32482 7.17224 7.3439 7.1133 7.37483 7.06043C7.40575 7.00757 7.44778 6.96204 7.498 6.92699C7.50517 6.9226 7.51314 6.91966 7.52144 6.91834C7.52975 6.91702 7.53823 6.91735 7.54641 6.91931C7.55459 6.92127 7.5623 6.92482 7.56911 6.92976C7.57591 6.9347 7.58168 6.94093 7.58608 6.9481C7.59047 6.95527 7.59342 6.96323 7.59473 6.97154C7.59605 6.97984 7.59572 6.98833 7.59377 6.99651C7.59181 7.00468 7.58825 7.0124 7.58331 7.0192C7.57837 7.02601 7.57214 7.03177 7.56497 7.03617C7.53124 7.06226 7.50322 7.095 7.48265 7.13235C7.46207 7.16971 7.44938 7.21089 7.44535 7.25334C7.43811 7.30545 7.43399 7.35794 7.433 7.41054C7.43103 7.45981 7.429 7.51077 7.42222 7.56186C7.41758 7.62227 7.40089 7.68115 7.37315 7.73501C7.34541 7.78888 7.30716 7.83665 7.26067 7.87551C7.24974 7.88347 7.23656 7.88776 7.22303 7.88776ZM8.15043 7.50252C8.13517 7.50253 8.1204 7.49708 8.10879 7.48715C8.09719 7.47723 8.08951 7.46349 8.08715 7.44841C8.08478 7.43332 8.08788 7.41789 8.09589 7.4049C8.1039 7.3919 8.11629 7.38219 8.13083 7.37752C8.21827 7.33943 8.28777 7.26928 8.32505 7.18149C8.34952 7.12894 8.37099 7.07503 8.38936 7.02004C8.40671 6.97127 8.42466 6.92093 8.44679 6.87184C8.49239 6.75122 8.58193 6.65231 8.69744 6.59496C8.71303 6.58822 8.73066 6.58795 8.74645 6.59421C8.76224 6.60046 8.77489 6.61273 8.78164 6.62832C8.78838 6.64391 8.78865 6.66154 8.78239 6.67733C8.77614 6.69312 8.76386 6.70578 8.74828 6.71252C8.66246 6.75768 8.59659 6.83325 8.56357 6.92443C8.54356 6.96876 8.52728 7.01454 8.51001 7.06299C8.49003 7.12255 8.46667 7.18093 8.44004 7.23783C8.41463 7.29716 8.37768 7.35085 8.33133 7.39577C8.28497 7.44069 8.23014 7.47593 8.17004 7.49946C8.1637 7.50148 8.15709 7.50251 8.15043 7.50252ZM9.17332 7.28298C9.15729 7.28296 9.14185 7.27694 9.13005 7.26609C9.11825 7.25524 9.11095 7.24036 9.10958 7.22439C9.10822 7.20842 9.1129 7.19252 9.12269 7.17983C9.13248 7.16714 9.14668 7.15859 9.16247 7.15586C9.19971 7.14493 9.23429 7.12644 9.26404 7.10153C9.2938 7.07662 9.31809 7.04583 9.3354 7.0111C9.35858 6.96924 9.37932 6.92606 9.39749 6.88179C9.41609 6.83902 9.43529 6.79481 9.45901 6.75198C9.48401 6.70054 9.51939 6.65485 9.56294 6.61778C9.60648 6.58072 9.65724 6.55308 9.71201 6.53663C9.72848 6.53303 9.74571 6.53608 9.75995 6.54511C9.77419 6.55415 9.7843 6.56843 9.78807 6.58487C9.79184 6.6013 9.78898 6.61856 9.7801 6.6329C9.77122 6.64724 9.75704 6.65749 9.74065 6.66144C9.6661 6.68791 9.60508 6.74283 9.57094 6.8142C9.55028 6.85147 9.53311 6.89098 9.51495 6.93282C9.49481 6.98169 9.47181 7.02934 9.44607 7.07551C9.42019 7.12698 9.38334 7.17215 9.33811 7.20783C9.29288 7.24352 9.24038 7.26885 9.18429 7.28204C9.18067 7.28266 9.177 7.28297 9.17332 7.28298ZM10.4431 7.37189C10.4261 7.372 10.4098 7.36535 10.3977 7.35342C10.3857 7.34148 10.3788 7.32524 10.3787 7.30826C10.3786 7.29127 10.3853 7.27495 10.3972 7.26286C10.4091 7.25078 10.4254 7.24394 10.4424 7.24383C10.4829 7.23893 10.5221 7.22599 10.5577 7.20578C10.5932 7.18556 10.6243 7.15847 10.6493 7.12609C10.6768 7.09527 10.7018 7.06187 10.7281 7.02648C10.7618 6.97928 10.7986 6.93445 10.8383 6.8923C10.8777 6.84736 10.9269 6.8121 10.9821 6.78926C11.0373 6.76643 11.0971 6.75662 11.1567 6.76061C11.1735 6.76287 11.1888 6.77173 11.1991 6.78523C11.2094 6.79874 11.2139 6.81578 11.2116 6.83261C11.2094 6.84944 11.2005 6.86469 11.187 6.87499C11.1735 6.88529 11.1564 6.88981 11.1396 6.88754C11.0999 6.88725 11.0605 6.89556 11.0242 6.91189C10.988 6.92821 10.9557 6.95218 10.9295 6.98215C10.8939 7.02017 10.8609 7.06058 10.8308 7.10308C10.8039 7.1391 10.7761 7.17637 10.7448 7.21145C10.7087 7.25772 10.6632 7.29591 10.6114 7.32355C10.5596 7.35118 10.5025 7.36765 10.444 7.37189H10.4431ZM11.6459 7.75464C11.6245 7.75467 11.6032 7.7527 11.5822 7.74876L11.577 7.74788C11.5604 7.74466 11.5457 7.73499 11.5362 7.72099C11.5267 7.70699 11.5231 7.6898 11.5263 7.67316C11.5294 7.65653 11.539 7.64182 11.5529 7.63223C11.5669 7.62265 11.5841 7.61897 11.6007 7.62201L11.6016 7.6222C11.6858 7.63238 11.7708 7.61095 11.8401 7.56205C11.8751 7.54104 11.9084 7.5174 11.9437 7.49239C11.9914 7.45704 12.0414 7.42485 12.0934 7.39603C12.1441 7.36541 12.2008 7.34603 12.2596 7.33919C12.3185 7.33235 12.3781 7.33822 12.4345 7.35639C12.4503 7.36258 12.4629 7.37477 12.4697 7.39028C12.4765 7.4058 12.4769 7.42339 12.4708 7.43918C12.4647 7.45498 12.4525 7.46771 12.437 7.47458C12.4215 7.48144 12.404 7.48189 12.3881 7.47582C12.3488 7.46514 12.3076 7.46258 12.2673 7.46833C12.2269 7.47407 12.1881 7.48798 12.1533 7.50921C12.1062 7.53549 12.0609 7.5648 12.0177 7.59694C11.982 7.62221 11.9451 7.64828 11.9061 7.67179C11.8285 7.72254 11.7385 7.75118 11.6459 7.75464Z" fill="#F9D026"/>
<path d="M11.3814 14.7922C11.3754 14.7922 11.3695 14.7905 11.3644 14.7873C11.3593 14.7841 11.3552 14.7795 11.3526 14.7741C11.35 14.7687 11.3489 14.7627 11.3496 14.7567C11.3502 14.7508 11.3525 14.7451 11.3562 14.7404C11.5287 14.5204 11.6795 14.2843 11.8066 14.0353C11.8105 14.0278 11.8172 14.0222 11.8253 14.0196C11.8333 14.017 11.8421 14.0177 11.8496 14.0216C11.8571 14.0254 11.8628 14.0321 11.8655 14.0401C11.8681 14.0481 11.8674 14.0569 11.8637 14.0644C11.7347 14.3171 11.5816 14.5567 11.4066 14.7799C11.4036 14.7837 11.3998 14.7868 11.3954 14.789C11.391 14.7911 11.3862 14.7922 11.3814 14.7922ZM7.90802 15.0044C7.90232 15.0044 7.89671 15.0029 7.8918 14.9999C7.51839 14.7791 7.20211 14.4736 6.96849 14.1081C6.96621 14.1045 6.96464 14.1006 6.96389 14.0964C6.96314 14.0923 6.96322 14.088 6.96412 14.0839C6.96502 14.0798 6.96672 14.0759 6.96914 14.0724C6.97155 14.069 6.97462 14.066 6.97818 14.0638C6.98173 14.0615 6.9857 14.0599 6.98986 14.0592C6.99401 14.0585 6.99827 14.0586 7.00238 14.0595C7.0065 14.0604 7.01039 14.0622 7.01383 14.0646C7.01728 14.067 7.02021 14.0701 7.02245 14.0737C7.25068 14.4307 7.5596 14.7291 7.92431 14.9448C7.93036 14.9484 7.93507 14.9538 7.93771 14.9603C7.94035 14.9668 7.94078 14.974 7.93893 14.9808C7.93708 14.9876 7.93305 14.9936 7.92746 14.9978C7.92188 15.0021 7.91505 15.0044 7.90802 15.0044Z" fill="#FFE73B"/>
<path d="M7.2054 4.04864C7.19731 4.04866 7.18952 4.0456 7.18361 4.04007C6.61813 3.52619 6.16314 2.9026 5.84633 2.20728C5.84479 2.20336 5.84404 2.19919 5.84412 2.19498C5.8442 2.19078 5.84511 2.18663 5.84679 2.18278C5.84847 2.17893 5.85089 2.17545 5.85392 2.17253C5.85695 2.16961 5.86052 2.16732 5.86443 2.16579C5.86834 2.16425 5.87252 2.1635 5.87672 2.16358C5.88093 2.16366 5.88507 2.16456 5.88892 2.16625C5.89278 2.16793 5.89626 2.17035 5.89918 2.17338C5.90209 2.1764 5.90438 2.17998 5.90592 2.18389C6.21916 2.87031 6.66869 3.48587 7.22719 3.99317C7.2319 3.99755 7.23517 4.00325 7.2366 4.00952C7.23802 4.01579 7.23752 4.02234 7.23517 4.02832C7.23282 4.0343 7.22872 4.03944 7.22342 4.04306C7.21811 4.04669 7.21183 4.04863 7.2054 4.04864Z" fill="#E58D3E"/>
</svg>
