<svg width="360" height="220" viewBox="0 0 360 220" fill="none" xmlns="http://www.w3.org/2000/svg">
<path d="M201.175 5.35002C120.335 -2.29251 72.7976 28.5736 1.21222 56.2036C0.275747 83.8731 -0.798517 124.681 2.73408 124.681C71.8589 82.6862 142.104 0.00420856 251.828 40.1869C297.357 56.858 280.28 50.1797 358.429 104.262C360.33 105.578 357.97 88.0754 358.429 80.6209C273.392 32.1274 288.331 19.3979 201.175 5.35002Z" fill="white"/>
<path d="M238.349 68.3873L238.198 68.3378C238.217 68.2487 238.208 68.1398 238.17 68.0111C238.076 67.6349 237.86 67.3775 237.634 67.1003C237.409 66.8232 236.929 65.952 236.816 65.5263L236.957 65.457C237.061 65.8332 237.521 66.3282 237.747 66.6054C237.973 66.8826 238.208 67.1696 238.32 67.5953C238.377 67.7636 238.377 68.2685 238.349 68.3873Z" fill="#006345"/>
<path d="M238.733 70.3429L238.075 70.224L238.065 68.8183V68.6599L238.047 67.6799V66.967L238.037 66.1949V65.9573L238.695 65.9375V66.2047L238.714 68.5312L238.723 69.0064L238.733 70.3429Z" fill="#006345"/>
<path d="M243.247 59.6247C243.247 62.9807 241.386 65.7526 238.97 66.1684C238.763 66.208 238.557 66.2278 238.34 66.2278C238.087 66.2278 237.842 66.208 237.598 66.1486C237.448 66.1189 237.307 66.0793 237.166 66.0298C235.032 65.3269 233.443 62.7233 233.443 59.6247C233.443 58.6942 233.584 57.5953 233.838 56.4568C234.543 53.3483 236.094 50.022 237.936 49.5964C238.068 49.5667 238.209 49.5469 238.34 49.5469C241.048 49.5469 243.247 55.9717 243.247 59.6247Z" fill="#63A15B"/>
<path d="M238.963 66.1598C238.954 66.1697 238.954 66.1796 238.944 66.1895C238.766 66.2192 238.578 66.2291 238.39 66.2291C238.117 66.2291 237.854 66.1994 237.591 66.14C237.44 66.1103 237.299 66.0707 237.158 66.0212C235.034 65.2886 233.455 62.685 233.455 59.5963C233.455 59.1409 233.615 57.9233 233.831 56.4581C234.536 53.3496 236.087 50.0332 237.929 49.5977C237.158 51.1222 235.109 54.4881 239.386 60.3685C243.184 65.5757 239.555 65.1302 238.963 66.1598Z" fill="#006345"/>
<path d="M191.985 67.185L191.873 67.1454C191.882 67.0761 191.882 66.987 191.854 66.888C191.779 66.591 191.619 66.393 191.44 66.1852C191.262 65.9773 190.895 65.2941 190.811 64.9675L190.923 64.918C190.999 65.2051 191.365 65.6011 191.534 65.809C191.713 66.0268 191.891 66.2446 191.976 66.5713C192.004 66.7 192.004 67.086 191.985 67.185Z" fill="#006345"/>
<path d="M191.768 68.6289L191.73 65.3224L192.247 65.3125L192.285 68.7279L191.768 68.6289Z" fill="#006345"/>
<path d="M195.774 60.4006C195.774 63.0042 194.327 65.1525 192.466 65.4693C192.306 65.499 192.146 65.5089 191.977 65.5089C191.78 65.5089 191.592 65.4891 191.404 65.4495C191.291 65.4297 191.178 65.4 191.065 65.3604C189.411 64.8159 188.18 62.7963 188.18 60.4006C188.18 59.678 188.292 58.8266 188.49 57.9455C189.035 55.5399 190.238 52.966 191.667 52.6294C191.77 52.6096 191.874 52.5898 191.977 52.5898C194.073 52.5898 195.774 57.5693 195.774 60.4006Z" fill="#63A15B"/>
<path d="M192.461 65.4628C192.451 65.4727 192.451 65.4727 192.451 65.4826C192.31 65.5024 192.169 65.5123 192.019 65.5123C191.812 65.5123 191.605 65.4925 191.399 65.443C191.286 65.4232 191.173 65.3935 191.06 65.3539C189.415 64.7797 188.193 62.7701 188.193 60.3744C188.193 60.018 188.316 59.0775 188.485 57.9489C189.03 55.5433 190.233 52.9694 191.662 52.6328C191.07 53.8109 189.481 56.4244 192.79 60.9782C195.732 65.0074 192.912 64.6609 192.461 65.4628Z" fill="#006345"/>
<path d="M134.069 89.1289L133.975 89.0992C133.985 89.0398 133.975 88.9705 133.957 88.8913C133.891 88.6438 133.759 88.4854 133.618 88.3072C133.477 88.129 133.167 87.5647 133.092 87.2974L133.186 87.2578C133.252 87.4954 133.552 87.8221 133.693 87.9904C133.844 88.1686 133.994 88.3468 134.06 88.624C134.079 88.723 134.079 89.0398 134.069 89.1289Z" fill="#006345"/>
<path d="M133.89 90.3185L133.861 87.5664H134.284L134.312 90.3978L133.89 90.3185Z" fill="#006345"/>
<path d="M137.208 83.5035C137.208 85.6617 136.014 87.4436 134.463 87.7109C134.332 87.7307 134.2 87.7505 134.059 87.7505C133.899 87.7505 133.739 87.7307 133.58 87.701C133.486 87.6812 133.392 87.6515 133.307 87.6218C131.935 87.1664 130.91 85.4934 130.91 83.5035C130.91 82.9095 131.004 82.1968 131.164 81.4741C131.615 79.4744 132.611 77.3459 133.796 77.0687C133.88 77.0489 133.965 77.0391 134.059 77.0391C135.798 77.0292 137.208 81.1573 137.208 83.5035Z" fill="#63A15B"/>
<path d="M134.464 87.7064C134.464 87.7163 134.454 87.7164 134.454 87.7263C134.332 87.7461 134.22 87.7559 134.097 87.7559C133.919 87.7559 133.75 87.7361 133.58 87.6965C133.486 87.6767 133.392 87.6471 133.308 87.6174C131.945 87.1422 130.93 85.4691 130.93 83.4892C130.93 83.1922 131.033 82.42 131.165 81.4796C131.616 79.4798 132.612 77.3514 133.797 77.0742C133.298 78.0543 131.982 80.2223 134.736 83.9941C137.171 87.3303 134.84 87.0432 134.464 87.7064Z" fill="#006345"/>
<path d="M79.8635 123.653L79.7977 123.633C79.8071 123.593 79.7977 123.544 79.7883 123.485C79.7413 123.306 79.6473 123.188 79.5439 123.069C79.4406 122.94 79.215 122.534 79.168 122.346L79.2338 122.316C79.2808 122.485 79.497 122.722 79.6004 122.841C79.7037 122.97 79.8165 123.098 79.8635 123.296C79.8823 123.366 79.8729 123.593 79.8635 123.653Z" fill="#006345"/>
<path d="M79.7395 124.499L79.7207 122.529L80.0215 122.52L80.0403 124.559L79.7395 124.499Z" fill="#006345"/>
<path d="M82.1234 119.602C82.1234 121.146 81.2681 122.423 80.1589 122.611C80.065 122.631 79.971 122.641 79.8676 122.641C79.7548 122.641 79.6326 122.631 79.5292 122.601C79.4634 122.592 79.3976 122.572 79.3318 122.552C78.3449 122.225 77.6211 121.027 77.6211 119.602C77.6211 119.176 77.6869 118.661 77.7997 118.147C78.1193 116.711 78.8336 115.187 79.689 114.989C79.7548 114.979 79.8112 114.969 79.877 114.969C81.1083 114.959 82.1234 117.919 82.1234 119.602Z" fill="#63A15B"/>
<path d="M80.1632 122.607C80.1632 122.607 80.1632 122.617 80.1538 122.617C80.0692 122.627 79.9846 122.637 79.9 122.637C79.7778 122.637 79.6557 122.627 79.5335 122.597C79.4677 122.587 79.4019 122.568 79.3361 122.548C78.3585 122.211 77.6348 121.013 77.6348 119.588C77.6348 119.38 77.71 118.816 77.804 118.142C78.1235 116.717 78.8379 115.182 79.6933 114.984C79.3361 115.687 78.3961 117.242 80.37 119.944C82.0995 122.34 80.4358 122.132 80.1632 122.607Z" fill="#006345"/>
<path d="M31.7952 152.77L31.7294 152.75C31.7388 152.711 31.7294 152.661 31.72 152.602C31.673 152.424 31.579 152.305 31.4756 152.186C31.3722 152.057 31.1466 151.651 31.0996 151.463L31.1654 151.434C31.2124 151.602 31.4286 151.84 31.532 151.958C31.6354 152.087 31.7482 152.216 31.7952 152.414C31.8046 152.483 31.8046 152.711 31.7952 152.77Z" fill="#006345"/>
<path d="M31.6633 153.622L31.6445 151.652H31.9547L31.9735 153.682L31.6633 153.622Z" fill="#006345"/>
<path d="M34.0492 148.742C34.0492 150.287 33.1939 151.564 32.0847 151.752C31.9907 151.772 31.8967 151.782 31.7934 151.782C31.6806 151.782 31.5584 151.772 31.455 151.742C31.3892 151.732 31.3234 151.712 31.2576 151.692C30.2706 151.366 29.5469 150.168 29.5469 148.742C29.5469 148.317 29.6127 147.802 29.7255 147.287C30.045 145.852 30.7594 144.327 31.6148 144.129C31.6806 144.119 31.737 144.109 31.8027 144.109C33.0435 144.109 34.0492 147.069 34.0492 148.742Z" fill="#63A15B"/>
<path d="M32.0831 151.756C32.0831 151.756 32.0831 151.765 32.0737 151.765C31.9892 151.775 31.9046 151.785 31.82 151.785C31.6978 151.785 31.5756 151.775 31.4534 151.746C31.3876 151.736 31.3218 151.716 31.256 151.696C30.2784 151.36 29.5547 150.162 29.5547 148.736C29.5547 148.528 29.6299 147.964 29.7239 147.291C30.0435 145.865 30.7578 144.331 31.6132 144.133C31.256 144.836 30.316 146.39 32.2899 149.093C34.0288 151.488 32.3557 151.28 32.0831 151.756Z" fill="#006345"/>
<path d="M18.2972 156.664C10.5217 152.509 5.43412 147.328 0.207031 142.469L0.523261 165.756L8.96845 156.39C12.0749 156.81 15.1907 156.889 18.2972 156.664Z" fill="#4DA352"/>
<path d="M360 86.9328C323.217 80.9847 296.159 84.2631 270.832 92.4883C275.205 96.4046 279.767 100.851 284.572 105.867C275.337 108.811 263.835 114.033 255.558 117.979C221.785 134.056 194.812 145.962 164.707 167.771C133.013 190.729 101.918 205.127 63.9506 218.996C60.5366 217.338 48.8182 217.632 41.3789 218.996H201.834L281.017 217.904H360V86.9328Z" fill="#4DA352"/>
<path d="M131.741 149.366C132.21 150.257 132.652 151.099 133.075 151.871C195.328 130.953 230.858 105.55 270.674 92.5025C239.882 64.6943 218.094 63.2193 180.514 70.3965C154.233 75.4157 130.895 89.0673 109.436 104.075C109.454 104.115 109.473 104.144 109.483 104.184C117.19 121.251 126.016 138.486 131.741 149.366Z" fill="white"/>
<path d="M136.758 158.694C136.758 158.694 135.367 156.17 133.074 151.863C133.074 151.863 133.074 151.863 133.064 151.863C134.634 154.813 135.884 157.15 136.711 158.674L136.758 158.694Z" fill="white"/>
<path d="M136.712 158.676L125.103 154.469C124.624 154.627 124.126 154.776 123.646 154.924L137.84 160.725C137.83 160.725 137.426 160.003 136.712 158.676Z" fill="white"/>
<path d="M136.708 158.674C135.881 157.15 134.631 154.823 133.061 151.863C130.448 152.744 127.797 153.606 125.1 154.467L136.708 158.674Z" fill="white"/>
<path d="M109.479 104.176C117.534 122.005 126.369 139.191 131.736 149.358C126.012 138.478 117.186 121.243 109.479 104.176Z" fill="white"/>
<path d="M58.5857 217.633C96.4455 203.825 313.701 232.701 345.306 209.834C375.325 188.121 337.737 232.789 336.143 194.258C333.733 135.976 274.247 88.8835 269.886 84.9844C223.426 100.053 182.838 131.784 98.5931 153.625C47.0223 168.302 31.5577 155.452 17.9218 148.23C14.7801 148.455 11.6477 148.377 8.51541 147.957L0 157.318L0.815904 217.701H41.6955C49.1324 216.333 55.1814 215.981 58.5857 217.633Z" fill="#DD8838"/>
<path d="M327.908 80.0854L327.654 79.7488C328.265 79.2439 328.904 78.8182 329.515 78.4123C330.719 77.6104 331.865 76.8482 332.768 75.5117L333.106 75.7592C332.157 77.1749 330.982 77.9569 329.741 78.7786C329.13 79.1746 328.51 79.5904 327.908 80.0854Z" fill="#006744"/>
<path d="M327.976 82.0183L327.572 81.9194C327.619 81.7313 327.59 81.4937 327.496 81.2264C327.233 80.4146 326.66 79.8701 326.049 79.2959C325.438 78.7118 324.799 78.108 324.498 77.2071L324.883 77.0586C325.156 77.8605 325.72 78.3951 326.331 78.9693C326.951 79.5534 327.59 80.1671 327.891 81.0779C328.004 81.4243 328.032 81.7411 327.976 82.0183Z" fill="#006744"/>
<path d="M327.086 83.4321L326.982 75.7797L328.627 75.75L328.731 83.65L327.086 83.4321Z" fill="#006744"/>
<path d="M328.811 78.1366C335.087 78.1366 340.175 72.778 340.175 66.1679C340.175 59.5578 335.087 54.1992 328.811 54.1992C322.535 54.1992 317.447 59.5578 317.447 66.1679C317.447 72.778 322.535 78.1366 328.811 78.1366Z" fill="#4CA350"/>
<path d="M340.357 66.0742C340.357 59.4612 335.272 54.1055 328.993 54.1055C326.445 54.1055 324.086 54.9866 322.188 56.4814C323.964 55.2638 326.088 54.551 328.372 54.551C334.651 54.551 339.736 59.9067 339.736 66.5197C339.736 70.44 337.941 73.9246 335.168 76.1125C338.298 73.984 340.357 70.2815 340.357 66.0742Z" fill="white"/>
<path d="M320.698 59.3516C320.265 59.3516 319.833 59.3813 319.41 59.4308C318.169 61.3513 317.445 63.6679 317.445 66.1527C317.445 72.7657 322.53 78.1213 328.809 78.1213C329.242 78.1213 329.674 78.0916 330.097 78.0421C331.338 76.1216 332.061 73.8051 332.061 71.3203C332.061 64.7172 326.976 59.3516 320.698 59.3516Z" fill="#006744"/>
<path opacity="0.5" d="M328.811 78.1288C329.027 78.1288 329.244 78.1189 329.45 78.109C329.46 78.109 329.469 78.109 329.469 78.109C335.438 77.7427 340.166 72.5354 340.166 66.1601C340.166 59.5471 335.081 54.1914 328.802 54.1914C327.655 54.1914 326.555 54.3696 325.521 54.7062C326.79 54.3003 328.868 55.9337 329.864 56.6465C331.349 57.7157 332.505 59.1016 333.041 60.9331C333.859 63.7248 332.9 66.3878 331.227 68.5855C329.817 70.4466 327.975 71.6742 326.969 73.8225C326.753 74.2778 325.136 77.5348 326.085 77.7823C326.96 78.01 327.871 78.1288 328.811 78.1288Z" fill="#A7C43F"/>
<path d="M259.311 82.3818C259.293 82.5798 259.236 82.7877 259.142 82.9857C258.719 83.8965 257.666 84.2727 256.802 83.8272C255.937 83.3817 255.58 82.2829 256.003 81.3622C256.153 81.0454 256.379 80.788 256.651 80.6098C253.352 78.4418 249.921 76.3431 246.35 74.3136C246.359 74.4819 246.331 74.6502 246.293 74.8185C246.049 75.8084 245.09 76.3925 244.159 76.1351C243.229 75.8777 242.665 74.868 242.909 73.8879C243.022 73.4226 243.304 73.0465 243.652 72.8089C242.524 72.1951 240.766 71.0566 239.573 70.7695L238.52 71.2546C238.52 71.2546 236.865 71.9872 235.531 72.6504C233.717 73.5513 231.959 74.5116 230.248 75.5214C222.23 80.2435 215.181 86.1635 209.222 92.9646C209.607 92.7369 210.068 92.6577 210.528 92.7864C211.468 93.0438 212.023 94.0535 211.778 95.0336C211.534 96.0236 210.575 96.6076 209.645 96.3502C208.714 96.0928 208.15 95.0831 208.394 94.103C208.413 94.004 208.451 93.905 208.488 93.8159C197.002 107.24 189.671 123.98 187.283 141.661C190.987 138.632 194.69 135.612 198.422 132.642C197.858 132.207 197.576 131.445 197.764 130.692C198.008 129.702 198.967 129.118 199.897 129.376C200.48 129.534 200.912 129.979 201.1 130.524C205.922 126.732 210.801 123.04 215.811 119.506C215.2 119.08 214.871 118.288 215.068 117.486C215.312 116.506 216.271 115.912 217.202 116.169C217.888 116.357 218.367 116.942 218.48 117.635C222.287 115.011 226.169 112.487 230.154 110.091C230.041 109.754 230.032 109.398 230.117 109.032C230.361 108.042 231.32 107.458 232.25 107.715C232.617 107.814 232.927 108.032 233.153 108.319C236.969 106.101 240.888 104.013 244.921 102.082C246.641 101.26 248.389 100.449 250.147 99.6567C250.1 99.3993 250.109 99.1222 250.175 98.8549C250.419 97.8748 251.378 97.2808 252.309 97.5382C252.732 97.657 253.08 97.9243 253.305 98.2807C258.672 95.9839 264.237 93.8654 269.933 91.9746C269.942 91.8855 269.952 91.8063 269.98 91.7172C270.074 91.3113 270.299 90.9747 270.591 90.7371C267.038 87.8662 263.269 85.0745 259.311 82.3818ZM205.951 113.447C205.706 114.427 204.747 115.021 203.817 114.764C202.886 114.506 202.322 113.496 202.567 112.516C202.811 111.526 203.77 110.942 204.7 111.2C205.631 111.447 206.195 112.457 205.951 113.447ZM222.804 101.35C222.559 102.34 221.601 102.924 220.67 102.666C219.73 102.409 219.176 101.399 219.42 100.419C219.664 99.4291 220.623 98.845 221.554 99.1024C222.494 99.3598 223.058 100.37 222.804 101.35ZM231.113 83.4213C230.869 84.4013 229.91 84.9953 228.979 84.7379C228.039 84.4805 227.485 83.4708 227.729 82.4907C227.974 81.5106 228.932 80.9167 229.863 81.1741C230.803 81.4315 231.357 82.4313 231.113 83.4213ZM240.7 90.6579C240.456 91.6479 239.497 92.232 238.567 91.9746C237.627 91.7172 237.072 90.7074 237.317 89.7273C237.561 88.7473 238.52 88.1533 239.45 88.4107C240.39 88.6681 240.954 89.668 240.7 90.6579Z" fill="url(#paint0_linear_1176_46460)"/>
<path opacity="0.35" d="M259.308 82.3849C259.289 82.5829 259.233 82.7908 259.139 82.9888C258.716 83.8995 257.663 84.2758 256.798 83.8303C255.933 83.3848 255.576 82.2859 255.999 81.3653C256.15 81.0485 256.375 80.7911 256.648 80.6129C253.349 78.4449 249.918 76.3461 246.346 74.3167C246.355 74.485 246.327 74.6532 246.29 74.8215C246.045 75.8115 245.086 76.3956 244.156 76.1382C243.225 75.8808 242.661 74.871 242.906 73.891C243.019 73.4257 243.301 73.0495 243.648 72.8119C242.52 72.1982 241.364 71.5744 240.208 70.9805L239.043 71.0399C237.698 71.624 236.862 71.9903 235.537 72.6437C233.722 73.5445 231.965 74.5048 230.254 75.5145C222.236 80.2367 215.187 86.1567 209.227 92.9577C209.613 92.73 210.073 92.6509 210.534 92.7795C211.474 93.0369 212.028 94.0467 211.784 95.0268C211.54 96.0168 210.581 96.6009 209.65 96.3435C208.72 96.0861 208.156 95.0763 208.4 94.0962C208.419 93.9972 208.457 93.8982 208.494 93.8091C197.008 107.233 189.677 123.973 187.289 141.654C190.992 138.625 194.696 135.605 198.427 132.636C197.863 132.2 197.581 131.438 197.769 130.685C198.014 129.695 198.973 129.111 199.903 129.369C200.486 129.527 200.918 129.973 201.106 130.517C205.928 126.725 210.807 123.033 215.816 119.499C215.206 119.073 214.877 118.281 215.074 117.479C215.318 116.499 216.277 115.905 217.208 116.163C217.894 116.351 218.373 116.935 218.486 117.628C222.293 115.004 226.175 112.48 230.16 110.084C230.047 109.748 230.038 109.391 230.122 109.025C230.367 108.035 231.326 107.451 232.256 107.708C232.623 107.807 232.933 108.025 233.159 108.312C236.975 106.095 240.894 104.006 244.927 102.075C246.647 101.254 248.395 100.442 250.153 99.6499C250.106 99.3925 250.115 99.1153 250.181 98.848C250.425 97.868 251.384 97.274 252.315 97.5314C252.738 97.6502 253.085 97.9175 253.311 98.2738C258.678 95.9771 264.243 93.8586 269.939 91.9678C269.948 91.8787 269.957 91.7995 269.986 91.7104C270.08 91.3045 270.305 90.9679 270.597 90.7303C267.034 87.8693 263.265 85.0776 259.308 82.3849ZM205.947 113.45C205.703 114.43 204.744 115.024 203.813 114.767C202.883 114.509 202.319 113.5 202.563 112.519C202.808 111.53 203.766 110.945 204.697 111.203C205.627 111.45 206.191 112.46 205.947 113.45ZM222.8 101.353C222.556 102.343 221.597 102.927 220.667 102.669C219.727 102.412 219.172 101.402 219.416 100.422C219.661 99.4321 220.62 98.8481 221.55 99.1054C222.49 99.3628 223.054 100.373 222.8 101.353ZM231.109 83.4244C230.865 84.4044 229.906 84.9984 228.976 84.741C228.036 84.4836 227.481 83.4738 227.726 82.4938C227.97 81.5137 228.929 80.9198 229.859 81.1772C230.799 81.4346 231.354 82.4344 231.109 83.4244ZM240.697 90.661C240.453 91.651 239.494 92.2351 238.563 91.9777C237.623 91.7203 237.069 90.7105 237.313 89.7304C237.557 88.7504 238.516 88.1564 239.447 88.4138C240.387 88.6712 240.951 89.671 240.697 90.661Z" fill="#C9D86E"/>
<path d="M308.77 211.506C273.104 226.809 231.671 217.851 207.116 191.985C202.168 186.785 197.915 180.901 194.519 174.386C187.068 160.091 182.552 142.381 190.079 119.162C193.785 116.549 240.797 97.7458 244.833 96.0721C246.555 95.3633 248.305 94.6631 250.064 93.9799C250.017 93.7579 250.026 93.5188 250.092 93.2882C250.337 92.4428 251.297 91.9305 252.228 92.1525C252.651 92.255 252.999 92.4855 253.225 92.7929C258.597 90.8118 264.167 88.9844 269.868 87.3534C269.877 87.2766 269.887 87.2082 269.915 87.1314C270.009 86.7813 270.235 86.4909 270.527 86.286C266.942 83.8096 263.179 81.4015 259.218 79.0788C259.199 79.2496 259.143 79.429 259.049 79.5998C258.625 80.3854 257.572 80.7099 256.706 80.3256C255.841 79.9413 255.483 78.9935 255.906 78.1993C256.057 77.926 256.283 77.704 256.556 77.5503C253.253 75.6802 249.819 73.8699 246.244 72.1193C246.254 72.2645 246.226 72.4097 246.188 72.5548C245.943 73.4088 244.984 73.9125 244.052 73.6905C243.121 73.4685 242.556 72.5975 242.801 71.7521C242.914 71.3508 243.196 71.0263 243.544 70.8213C242.415 70.2919 241.258 69.7539 240.101 69.2416L239.433 69.0708C239.489 69.0537 239.546 69.0281 239.602 69.011C239.762 68.9512 239.932 68.8914 240.101 68.8317C254.862 63.4263 270.423 62.0259 285.231 64.118C299.503 66.1418 313.079 71.402 324.585 79.4631C331.961 84.6208 338.481 90.9314 343.796 98.2667C345.979 101.281 347.945 104.466 349.695 107.814C369.922 146.693 351.614 193.13 308.77 211.506Z" fill="url(#paint1_linear_1176_46460)"/>
<path d="M202.565 112.51C202.81 111.52 203.769 110.936 204.699 111.194C205.63 111.451 206.194 112.461 205.949 113.441C205.705 114.421 204.746 115.015 203.816 114.757C202.876 114.5 202.321 113.5 202.565 112.51Z" fill="url(#paint2_linear_1176_46460)"/>
<path d="M208.401 94.0775C208.42 93.9785 208.458 93.8796 208.495 93.7905C208.74 93.5034 208.984 93.2261 209.229 92.939C209.614 92.7114 210.075 92.6322 210.535 92.7609C211.475 93.0183 212.03 94.028 211.785 95.0081C211.541 95.9981 210.582 96.5822 209.652 96.3248C208.712 96.0674 208.157 95.0576 208.401 94.0775Z" fill="url(#paint3_linear_1176_46460)"/>
<path d="M219.417 100.424C219.661 99.4343 220.62 98.8502 221.551 99.1076C222.481 99.365 223.045 100.375 222.801 101.355C222.556 102.345 221.598 102.929 220.667 102.671C219.727 102.414 219.173 101.404 219.417 100.424Z" fill="url(#paint4_linear_1176_46460)"/>
<path d="M227.722 82.4783C227.966 81.4982 228.925 80.9042 229.855 81.1616C230.795 81.419 231.35 82.4288 231.106 83.4089C230.861 84.3889 229.902 84.9829 228.972 84.7255C228.032 84.4681 227.477 83.4683 227.722 82.4783Z" fill="url(#paint5_linear_1176_46460)"/>
<path d="M237.312 89.7205C237.556 88.7404 238.515 88.1464 239.445 88.4038C240.385 88.6612 240.94 89.671 240.696 90.6511C240.451 91.641 239.492 92.2251 238.562 91.9677C237.631 91.7202 237.077 90.7105 237.312 89.7205Z" fill="url(#paint6_linear_1176_46460)"/>
<path opacity="0.45" d="M353.838 182.332C371.556 124.142 332.069 88.8989 324.775 82.9492C299.095 83.3848 271.508 91.4531 271.508 91.4531C272.109 91.948 272.702 92.4331 273.294 92.9281C274.572 93.9973 275.841 95.0664 277.082 96.1554C278.228 97.1553 279.347 98.1551 280.456 99.1748L280.466 99.1847C282.261 100.828 284.009 102.481 285.701 104.174C286.425 104.877 287.139 105.6 287.854 106.322C288.483 106.956 289.104 107.589 289.724 108.243C290.044 108.56 290.354 108.886 290.664 109.223C291.012 109.589 291.369 109.965 291.707 110.332C292.008 110.648 292.309 110.975 292.61 111.302C293.728 112.52 294.819 113.737 295.89 114.975C296.238 115.371 296.576 115.757 296.905 116.153C297.902 117.311 298.879 118.459 299.828 119.627C299.838 119.647 299.847 119.667 299.866 119.677C300.167 120.063 300.477 120.429 300.778 120.815C301.539 121.756 302.282 122.696 303.015 123.637C303.081 123.726 303.137 123.805 303.203 123.884C307.038 128.854 310.553 133.913 313.768 139.041C314.379 140.031 314.99 141.011 315.582 142.011C318.9 147.515 321.889 153.069 324.549 158.662C324.643 158.85 325.057 159.691 325.141 159.88C325.141 159.88 337.079 187.737 341.402 203.745C341.703 204.844 353.838 182.332 353.838 182.332Z" fill="#9DC53B"/>
<mask id="mask0_1176_46460" style="mask-type:luminance" maskUnits="userSpaceOnUse" x="186" y="64" width="172" height="155">
<path d="M349.297 108.696C369.487 147.267 351.233 193.326 308.531 211.563C265.83 229.799 214.837 213.311 194.647 174.741C175.303 137.792 191.235 93.9828 230.14 74.3281C231.851 73.4621 233.608 72.6386 235.413 71.8745C251.486 65.0144 268.725 63.0702 285.052 65.3625C312.122 69.1661 336.702 84.6351 349.297 108.696Z" fill="white"/>
</mask>
<g mask="url(#mask0_1176_46460)">
<path d="M303.849 33.5C299.76 50.6017 295.465 67.6521 290.972 84.6597C288.763 93.1764 286.441 101.659 284.167 110.158L277.173 135.614L269.983 161.027C267.52 169.484 265.114 177.949 262.576 186.389C257.585 203.286 252.378 220.122 246.879 236.89C247.96 232.624 249.06 228.365 250.197 224.116L253.534 211.349L260.367 185.859L267.304 160.395L274.344 134.956L281.497 109.543L288.772 84.1552L296.189 58.802C298.745 50.3708 301.208 41.914 303.849 33.5Z" fill="url(#paint7_radial_1176_46460)"/>
<path d="M306.594 59.7695C306.819 60.6845 306.988 61.6165 307.148 62.5486L307.534 65.3532L307.75 68.1664L307.853 69.5773L307.881 70.9882L307.947 73.81L307.975 75.2209L307.938 76.6318L307.769 82.2839C307.176 89.8001 306.321 97.3163 304.817 104.73C301.96 119.583 297.852 134.23 292.635 148.519L290.737 153.897L288.631 159.207L284.392 169.819C282.926 173.333 281.29 176.796 279.739 180.285C278.16 183.765 276.637 187.263 274.974 190.7C271.534 197.541 268.15 204.399 264.569 211.179C260.79 217.866 257.096 224.596 253.242 231.231C256.504 224.322 259.925 217.49 263.262 210.632C264.945 207.203 266.458 203.714 268.065 200.26L272.868 189.896C273.686 188.178 274.363 186.408 275.115 184.663L277.352 179.422C278.828 175.924 280.388 172.453 281.788 168.93L285.924 158.344L287.992 153.051L289.844 147.698C291.084 144.132 292.391 140.575 293.594 137.001L296.922 126.193C297.204 125.295 297.495 124.397 297.758 123.49L298.482 120.763L299.939 115.307C300.973 111.682 301.744 108.013 302.571 104.345L303.191 101.6C303.407 100.685 303.605 99.7704 303.746 98.8384L304.733 93.2974L305.24 90.5269L305.607 87.7393L306.34 82.1642L306.838 76.5719L306.96 75.1696L307.007 73.7673L307.111 70.9626C307.176 67.2515 307.176 63.4892 306.594 59.7695Z" fill="url(#paint8_radial_1176_46460)"/>
<path d="M317.947 62.4883C318.286 63.3861 318.521 64.3096 318.803 65.2246L319.47 68.0036C319.686 68.9356 319.799 69.8762 319.978 70.8082C320.119 71.7488 320.325 72.6809 320.419 73.63L321.021 79.2992L321.275 84.9941L321.331 86.4221L321.303 87.8501L321.237 90.6975L321.171 93.5535C321.152 94.5027 321.134 95.4603 321.03 96.4009L320.523 102.087L320.26 104.935C320.166 105.884 319.987 106.816 319.855 107.765L318.991 113.417C318.709 115.298 318.417 117.188 317.966 119.044C317.13 122.772 316.359 126.508 315.475 130.22L312.317 141.259L311.518 144.012L310.569 146.731L308.679 152.161C306.282 159.446 303.124 166.484 300.201 173.598L299.073 176.257L297.814 178.865L295.295 184.073C293.621 187.544 291.929 191.016 290.219 194.471C286.468 201.243 282.746 208.032 278.864 214.736C274.681 221.295 270.602 227.896 266.354 234.403C270.019 227.597 273.854 220.884 277.586 214.138C279.419 210.743 281.101 207.288 282.859 203.868L288.132 193.607L292.926 183.158L295.342 177.942L296.545 175.334L297.616 172.674C300.445 165.586 303.566 158.591 305.888 151.349L307.796 145.97L308.755 143.277L309.563 140.549L312.778 129.638C313.717 125.97 314.554 122.284 315.447 118.607C315.654 117.684 315.926 116.769 316.067 115.846L316.566 113.058L317.59 107.491C317.75 106.559 317.957 105.636 318.079 104.704L318.417 101.899L319.113 96.2897C319.254 95.3577 319.31 94.4171 319.367 93.4765L319.555 90.6548L319.743 87.833L319.827 86.4221L319.837 85.0112L319.912 79.3591L319.649 73.707C319.291 69.9446 318.962 66.1651 317.947 62.4883Z" fill="url(#paint9_radial_1176_46460)"/>
<path d="M332.845 66.0469C333.541 69.7066 333.983 73.4006 334.283 77.1032C334.584 80.8057 334.791 84.5253 334.876 88.2449C335.017 95.6841 334.697 103.132 333.973 110.546C333.268 117.968 332.103 125.356 330.599 132.675C329.039 139.995 327.055 147.237 324.743 154.394L322.901 159.73L320.88 165.014C320.231 166.784 319.479 168.52 318.727 170.256C317.966 171.983 317.299 173.753 316.443 175.446L313.99 180.577C313.172 182.287 312.242 183.946 311.368 185.63C309.666 189.025 307.645 192.274 305.737 195.567C297.785 208.598 288.217 220.783 277.332 231.839L280.988 227.384C282.21 225.905 283.479 224.46 284.617 222.912C286.938 219.868 289.316 216.867 291.441 213.711C292.522 212.147 293.678 210.625 294.721 209.043L297.823 204.271C298.876 202.698 299.853 201.073 300.821 199.449C301.789 197.824 302.786 196.216 303.726 194.583C311.142 181.458 317.308 167.759 321.923 153.625C326.595 139.507 329.838 124.996 331.699 110.332C332.61 102.995 333.24 95.6243 333.447 88.2278C333.701 80.8484 333.56 73.4434 332.845 66.0469Z" fill="url(#paint10_radial_1176_46460)"/>
<path d="M344.151 72.1758C345.448 75.7244 346.21 79.4184 346.811 83.1209C347.394 86.832 347.742 90.5687 347.949 94.3139C348.268 101.804 347.968 109.329 347.065 116.786C345.336 131.724 341.407 146.389 336.303 160.634C331.105 174.863 324.563 188.664 317.071 201.986C309.599 215.326 301.036 228.118 291.73 240.422C293.761 237.173 295.81 233.949 297.897 230.734L303.837 220.943L309.561 211.059C311.357 207.715 313.255 204.415 315.013 201.054C318.481 194.316 321.95 187.578 324.976 180.677C328.135 173.82 330.936 166.842 333.511 159.796C336.124 152.759 338.314 145.602 340.241 138.394C342.187 131.185 343.681 123.883 344.791 116.529C345.881 109.175 346.482 101.762 346.501 94.3311C346.539 86.9175 346.012 79.444 344.151 72.1758Z" fill="url(#paint11_radial_1176_46460)"/>
<path d="M358.157 75.5078C359.173 79.0479 359.765 82.6905 360.197 86.3332C360.62 89.9844 360.883 93.6442 360.987 97.321C361.146 104.666 360.724 112.02 359.821 119.322C357.998 133.936 354.341 148.344 349.275 162.29C346.765 169.276 343.842 176.134 340.712 182.898C339.086 186.258 337.488 189.627 335.712 192.928C334.837 194.578 334.001 196.254 333.089 197.888L330.307 202.77C329.386 204.403 328.455 206.028 327.459 207.618L324.517 212.424C323.549 214.032 322.486 215.588 321.452 217.161L318.341 221.873C316.189 224.968 313.971 228.021 311.78 231.099C309.515 234.126 307.203 237.119 304.891 240.112C306.949 236.965 309.026 233.835 311.122 230.723C313.115 227.55 315.145 224.395 317.101 221.214C320.983 214.827 324.761 208.388 328.258 201.829C335.27 188.73 341.539 175.296 346.474 161.452C347.79 158.015 348.88 154.518 350.036 151.037L351.606 145.77C352.132 144.017 352.555 142.239 353.054 140.477C354.933 133.406 356.409 126.257 357.546 119.057C358.637 111.857 359.37 104.598 359.549 97.3125C359.746 90.0443 359.483 82.7247 358.157 75.5078Z" fill="url(#paint12_radial_1176_46460)"/>
<path d="M289.646 44.3828C285.981 52.241 282.766 60.2446 279.861 68.3508C278.329 72.3783 276.985 76.457 275.566 80.5186C274.184 84.5888 272.906 88.6847 271.562 92.7635L267.84 105.077C266.608 109.181 265.527 113.328 264.362 117.45C263.177 121.571 262.153 125.727 261.081 129.874C260.029 134.021 258.919 138.16 258.008 142.341L255.066 154.834L252.406 167.378C250.498 175.724 249.106 184.146 247.424 192.535C246.55 196.725 245.948 200.949 245.196 205.156L243.006 217.785C241.624 226.217 240.431 234.682 239.002 243.122C239.387 238.872 239.801 234.622 240.243 230.372C240.694 226.122 241.079 221.864 241.577 217.623L243.288 204.908C243.88 200.675 244.407 196.425 245.159 192.21L247.302 179.546C247.978 175.322 248.843 171.123 249.68 166.916C250.526 162.718 251.362 158.511 252.255 154.321L255.141 141.777C256.081 137.587 257.209 133.44 258.29 129.284C259.399 125.128 260.405 120.956 261.673 116.843C262.905 112.721 264.052 108.574 265.358 104.47C266.674 100.365 267.981 96.2608 269.372 92.182C270.829 88.1204 272.192 84.033 273.733 79.9885C275.312 75.961 276.788 71.908 278.499 67.9233C280.143 63.9215 281.929 59.971 283.725 56.0205C285.605 52.0871 287.475 48.1708 289.646 44.3828Z" fill="url(#paint13_radial_1176_46460)"/>
<path d="M277.877 49.3594C275.029 52.2154 272.745 55.4733 270.555 58.7397L268.966 61.228L268.177 62.4678L267.453 63.7505L264.595 68.881L262.02 74.1312L260.742 76.7563L259.614 79.4413L257.339 84.8027C256.935 85.6834 256.606 86.5984 256.286 87.5133L255.299 90.241L253.325 95.6964C252.978 96.6028 252.696 97.5263 252.414 98.4498L251.568 101.22L249.866 106.753L249.02 109.523L248.325 112.328L245.477 123.529L243.174 134.842C242.789 136.732 242.375 138.605 242.018 140.494L241.116 146.189L239.301 157.587C238.775 161.393 238.38 165.223 237.92 169.037L237.243 174.766C237.027 176.673 236.717 178.58 236.604 180.495L235.692 191.996L235.203 197.742C235.053 199.658 234.846 201.573 234.79 203.497C234.376 211.176 234.066 218.871 233.558 226.559C233.399 218.863 233.427 211.159 233.352 203.446C233.511 195.741 233.963 188.037 234.32 180.333C234.536 176.485 234.996 172.646 235.354 168.798C235.748 164.958 236.068 161.11 236.538 157.271L238.267 145.796L239.142 140.058C239.489 138.151 239.894 136.262 240.279 134.355L242.666 122.974L245.637 111.695L246.389 108.882L247.291 106.103L249.105 100.545L250.007 97.7658C250.308 96.8423 250.6 95.9102 250.985 95.0038L253.137 89.5399L254.218 86.8121C254.576 85.8972 254.933 84.9908 255.365 84.1015L257.847 78.7572L259.097 76.0893L260.497 73.4813L263.317 68.2824L266.494 63.246L267.293 61.989L268.167 60.7748L269.906 58.3463L270.78 57.1407L271.73 55.9778L273.619 53.6519L275.677 51.4373C276.006 51.061 276.401 50.7275 276.758 50.3769C277.116 50.0263 277.482 49.6843 277.877 49.3594Z" fill="url(#paint14_radial_1176_46460)"/>
<path d="M264.004 49.6133C258.233 54.8293 253.627 60.9859 249.632 67.3734C245.59 73.7523 242.207 80.4562 239.283 87.3139C236.398 94.1803 233.897 101.183 231.876 108.315C229.856 115.438 228.201 122.646 226.857 129.906L225.945 135.361L225.494 138.089L225.128 140.834L224.395 146.315L223.831 151.822C223.379 155.481 223.21 159.167 222.909 162.844C222.74 164.682 222.721 166.529 222.627 168.367L222.355 173.9L222.157 184.973C222.195 188.667 222.176 192.361 222.251 196.055C222.364 199.749 222.43 203.443 222.571 207.145C222.787 210.839 222.975 214.533 223.135 218.236C221.114 203.546 219.996 188.718 220.061 173.866C220.146 170.155 220.146 166.443 220.334 162.732C220.569 159.021 220.672 155.31 221.058 151.608L221.575 146.05L222.28 140.509L222.637 137.738L223.079 134.976L223.972 129.461C225.391 122.133 227.064 114.839 229.207 107.656C231.407 100.482 233.991 93.4022 237.168 86.5358C238.748 83.0984 240.468 79.7208 242.31 76.3945C244.227 73.1025 246.182 69.8275 248.401 66.6979C250.61 63.5682 252.959 60.5156 255.526 57.6254C258.11 54.7523 260.846 51.9648 264.004 49.6133Z" fill="url(#paint15_radial_1176_46460)"/>
<path d="M250.829 49.9258C245.264 55.3983 240.799 61.6917 236.889 68.1904C232.932 74.6805 229.557 81.4442 226.597 88.3447C220.666 102.163 216.464 116.545 213.343 131.108L212.244 136.58L211.698 139.316L211.238 142.07L210.317 147.576L209.537 153.1C208.963 156.777 208.606 160.48 208.174 164.174C207.939 166.021 207.816 167.876 207.647 169.723L207.14 175.281L206.425 186.414L205.984 197.573L205.758 208.741C205.786 212.469 205.786 216.188 205.749 219.925C204.498 205.055 204.094 190.091 204.856 175.161C205.241 167.697 205.852 160.232 206.783 152.801L207.506 147.226L208.399 141.668L208.85 138.889L209.377 136.127C209.734 134.28 210.072 132.433 210.458 130.594C212.074 123.249 213.964 115.955 216.248 108.756C218.57 101.564 221.267 94.4672 224.482 87.5666C226.08 84.1121 227.8 80.7003 229.642 77.3484C231.55 74.0221 233.477 70.7129 235.658 67.5319C237.829 64.351 240.123 61.23 242.613 58.2629C245.114 55.2957 247.764 52.4141 250.829 49.9258Z" fill="url(#paint16_radial_1176_46460)"/>
<path d="M236.829 46.582C231.79 52.2769 227.598 58.5361 223.848 64.9664C220.079 71.388 216.798 78.0406 213.866 84.8043C210.971 91.5851 208.395 98.4772 206.224 105.472C205.707 107.225 205.124 108.969 204.626 110.73L203.16 116.015C202.286 119.564 201.346 123.104 200.641 126.678C197.482 140.941 195.696 155.443 194.738 169.996C194.249 177.273 194.07 184.567 194.005 191.869C193.986 195.521 194.061 199.172 194.08 202.823C194.23 206.474 194.352 210.126 194.446 213.785C194.033 210.151 193.638 206.509 193.3 202.857C193.055 199.206 192.773 195.555 192.566 191.895L192.397 186.405C192.35 184.576 192.256 182.746 192.284 180.907L192.313 175.409C192.303 173.579 192.369 171.741 192.444 169.911L192.651 164.413C192.745 162.583 192.914 160.753 193.046 158.923C193.271 155.255 193.704 151.612 194.099 147.952C195.02 140.658 196.166 133.382 197.755 126.173C200.866 111.757 205.453 97.5708 211.741 84.0262C214.89 77.254 218.49 70.6612 222.588 64.3336C224.666 61.1869 226.865 58.1086 229.206 55.1158C231.555 52.123 234.028 49.2157 236.829 46.582Z" fill="url(#paint17_radial_1176_46460)"/>
<path d="M369.661 105.639C360.261 105.554 350.89 106.306 341.622 107.546C332.345 108.743 323.152 110.393 314.063 112.446C304.983 114.515 296.007 116.943 287.19 119.782C278.364 122.604 269.66 125.725 261.135 129.239C259.001 130.103 256.895 131.035 254.771 131.924L251.594 133.284L248.464 134.729C246.387 135.695 244.281 136.636 242.213 137.628L236.047 140.68C233.97 141.664 231.968 142.758 229.938 143.827C227.917 144.905 225.877 145.939 223.884 147.059L217.925 150.437C215.914 151.531 213.968 152.712 212.013 153.892C196.372 163.272 181.408 173.618 167.168 184.794C170.58 181.861 173.973 178.886 177.479 176.038L182.799 171.814C184.566 170.403 186.333 168.984 188.176 167.658C191.842 164.973 195.47 162.237 199.277 159.706L204.935 155.858L210.735 152.181C226.206 142.365 242.749 133.959 259.922 126.828C277.17 119.851 295.095 114.181 313.527 110.445C322.729 108.555 332.063 107.161 341.434 106.272C346.125 105.853 350.824 105.545 355.534 105.417C360.261 105.254 364.98 105.263 369.661 105.639Z" fill="url(#paint18_radial_1176_46460)"/>
<path d="M387.237 125.058C377.499 124.485 367.752 124.759 358.052 125.451C348.361 126.144 338.708 127.307 329.149 128.863C319.599 130.453 310.115 132.411 300.781 134.823C298.459 135.456 296.1 135.994 293.797 136.678L286.86 138.671L279.989 140.851L278.269 141.398L276.568 141.997L273.175 143.186L269.772 144.366C268.644 144.767 267.535 145.212 266.407 145.631C264.17 146.495 261.923 147.316 259.705 148.205C255.297 150.043 250.86 151.839 246.537 153.857C242.147 155.755 237.908 157.902 233.631 159.988C231.488 161.023 229.429 162.203 227.315 163.297C225.228 164.417 223.085 165.469 221.045 166.675C204.521 175.978 188.805 186.496 174.02 198.082C177.582 195.064 181.088 191.96 184.773 189.052L190.337 184.717C191.268 183.999 192.189 183.263 193.129 182.554L196.005 180.484L201.776 176.371C203.722 175.02 205.724 173.755 207.698 172.438C211.617 169.77 215.744 167.376 219.814 164.913C221.835 163.648 223.959 162.553 226.036 161.373C228.142 160.236 230.2 159.03 232.343 157.953C236.62 155.789 240.869 153.575 245.268 151.6C249.601 149.513 254.084 147.709 258.521 145.819C260.758 144.913 263.023 144.066 265.279 143.194C266.407 142.767 267.526 142.313 268.672 141.903L272.103 140.706C290.376 134.25 309.419 129.624 328.754 126.819C338.426 125.425 348.182 124.536 357.949 124.151C362.836 124.006 367.724 123.955 372.612 124.074C377.518 124.194 382.397 124.468 387.237 125.058Z" fill="url(#paint19_radial_1176_46460)"/>
<path d="M383.942 141.455C374.505 141.293 365.077 141.908 355.734 142.952C346.382 143.961 337.095 145.397 327.902 147.193C318.71 149.014 309.602 151.152 300.625 153.691C291.649 156.223 282.738 158.976 274.044 162.217C265.33 165.406 256.692 168.818 248.298 172.666L245.131 174.068L242.001 175.547L235.759 178.532L229.612 181.678L226.529 183.243C225.505 183.765 224.508 184.338 223.493 184.885C207.326 193.641 191.779 203.389 176.938 214.018C180.509 211.213 184.053 208.357 187.719 205.655L193.264 201.636L196.037 199.627L198.876 197.694L204.591 193.872C206.489 192.589 208.473 191.418 210.418 190.186C212.374 188.981 214.31 187.732 216.303 186.578L222.299 183.115C223.305 182.542 224.292 181.952 225.307 181.396L228.362 179.754L234.5 176.497L240.741 173.41L243.871 171.871L247.048 170.417C255.48 166.466 264.174 163.003 272.944 159.746C290.568 153.375 308.812 148.407 327.433 145.166C336.738 143.542 346.137 142.37 355.575 141.669C360.293 141.353 365.021 141.113 369.749 141.062C374.496 140.985 379.233 141.062 383.942 141.455Z" fill="url(#paint20_radial_1176_46460)"/>
<path d="M390.482 159.562C381.196 159.288 371.918 159.801 362.716 160.733C353.505 161.64 344.359 162.965 335.288 164.65C326.227 166.368 317.251 168.395 308.397 170.823C299.542 173.243 290.754 175.894 282.172 179.007C280.001 179.725 277.886 180.571 275.733 181.358C273.6 182.162 271.447 182.931 269.342 183.812L263.007 186.377L256.746 189.097L253.616 190.448L250.533 191.884L244.358 194.766L238.276 197.818L235.231 199.332L232.233 200.922C216.235 209.405 200.838 218.862 186.109 229.174C189.653 226.447 193.168 223.676 196.806 221.034L202.305 217.126L205.059 215.168L207.869 213.287L213.537 209.567C215.408 208.31 217.381 207.182 219.299 205.984C221.235 204.804 223.153 203.607 225.127 202.479L231.067 199.127L234.037 197.459L237.064 195.869L243.136 192.705L249.311 189.721L252.404 188.224L255.543 186.813L261.832 184.026L268.214 181.409C270.329 180.512 272.491 179.716 274.643 178.904C276.805 178.1 278.929 177.237 281.129 176.51C298.527 170.387 316.527 165.625 334.884 162.598C344.058 161.075 353.326 160.024 362.613 159.425C367.266 159.16 371.918 158.98 376.571 158.98C381.205 158.98 385.858 159.109 390.482 159.562Z" fill="url(#paint21_radial_1176_46460)"/>
<path d="M392.023 176.471C382.887 176.283 373.77 176.787 364.718 177.677C355.657 178.54 346.652 179.789 337.723 181.354C328.793 182.953 319.929 184.825 311.178 187.074C302.418 189.297 293.742 191.786 285.226 194.684C276.682 197.515 268.251 200.619 259.998 204.09C255.825 205.741 251.774 207.613 247.676 209.417C245.636 210.324 243.643 211.333 241.622 212.273C239.611 213.24 237.562 214.155 235.597 215.189C219.665 223.193 204.278 232.146 189.559 241.996C193.112 239.388 196.618 236.712 200.265 234.206L205.754 230.47L208.508 228.606L211.318 226.818L216.967 223.27C218.866 222.107 220.812 221.004 222.729 219.875C226.555 217.575 230.522 215.506 234.46 213.376C236.415 212.291 238.445 211.324 240.447 210.307C242.459 209.315 244.452 208.28 246.501 207.34C250.599 205.467 254.65 203.526 258.833 201.799C267.123 198.224 275.62 195.078 284.221 192.179C301.45 186.441 319.243 182.106 337.318 179.31C346.351 177.908 355.469 176.933 364.605 176.377C369.173 176.138 373.751 175.975 378.328 175.967C382.896 175.949 387.474 176.061 392.023 176.471Z" fill="url(#paint22_radial_1176_46460)"/>
<path d="M398.129 189.931C388.993 189.743 379.875 190.248 370.823 191.137C361.762 192.001 352.758 193.249 343.828 194.814C334.899 196.413 326.035 198.286 317.284 200.535C308.524 202.758 299.848 205.246 291.332 208.145C282.788 210.975 274.356 214.079 266.104 217.551C261.93 219.201 257.879 221.074 253.781 222.878C251.741 223.784 249.749 224.793 247.728 225.734C245.716 226.7 243.667 227.615 241.703 228.65C225.771 236.653 210.384 245.606 195.664 255.457C199.217 252.849 202.723 250.172 206.37 247.667L211.859 243.93L214.613 242.066L217.424 240.279L223.073 236.73C224.972 235.567 226.917 234.464 228.835 233.336C232.66 231.035 236.627 228.966 240.565 226.828C242.52 225.742 244.551 224.776 246.553 223.759C248.564 222.767 250.557 221.732 252.606 220.791C256.704 218.919 260.755 216.978 264.938 215.25C273.229 211.676 281.726 208.53 290.326 205.631C307.555 199.893 325.349 195.558 343.424 192.762C352.457 191.359 361.574 190.385 370.711 189.829C375.279 189.589 379.856 189.427 384.434 189.418C389.002 189.41 393.589 189.521 398.129 189.931Z" fill="url(#paint23_radial_1176_46460)"/>
<path d="M367.989 92.9032C358.468 92.3474 348.918 92.6381 339.443 93.3564C329.959 94.0832 320.531 95.2889 311.207 96.905C301.883 98.5553 292.643 100.59 283.563 103.096C281.307 103.754 279.023 104.344 276.767 105.028L270.028 107.123C265.582 108.637 261.127 110.116 256.775 111.843C252.366 113.434 248.09 115.306 243.766 117.094C239.536 119.043 235.24 120.899 231.114 123.028L227.984 124.576C226.941 125.08 225.897 125.602 224.882 126.166L218.754 129.475L217.222 130.305L215.727 131.185L212.738 132.947L209.74 134.691L208.236 135.563L206.779 136.487C191.101 146.261 176.362 157.308 162.695 169.442C165.976 166.295 169.19 163.071 172.602 160.036L177.763 155.513C178.627 154.76 179.473 153.99 180.357 153.255L183.036 151.092L188.431 146.791C190.255 145.388 192.144 144.046 194.005 142.669C197.68 139.873 201.609 137.376 205.454 134.777C213.274 129.749 221.357 125.02 229.761 120.813C233.906 118.616 238.239 116.743 242.506 114.742C246.868 112.921 251.182 111.005 255.637 109.381C273.327 102.626 291.901 97.7772 310.793 94.8614C320.24 93.3992 329.78 92.4757 339.349 92.0567C344.133 91.9027 348.918 91.8429 353.702 91.9456C358.477 92.0482 363.252 92.3132 367.989 92.9032Z" fill="url(#paint24_radial_1176_46460)"/>
<path d="M357.397 83.8971C348.317 82.3067 339.078 81.7338 329.876 81.7252C320.664 81.7167 311.471 82.2981 302.373 83.4354C293.274 84.5983 284.26 86.2743 275.424 88.5402C266.589 90.7977 257.876 93.4655 249.454 96.7918L247.865 97.3818L246.295 98.0317L243.165 99.3314L240.035 100.631C238.992 101.076 237.986 101.572 236.962 102.042C234.922 103 232.864 103.923 230.833 104.898L224.836 107.985C222.806 108.968 220.879 110.105 218.924 111.2C216.988 112.32 214.995 113.363 213.097 114.543L207.41 118.083C205.483 119.221 203.65 120.495 201.808 121.743C187.032 131.722 173.337 143.043 160.723 155.348C163.73 152.159 166.71 148.935 169.821 145.814L174.606 141.239C176.204 139.717 177.773 138.161 179.475 136.724C182.849 133.843 186.12 130.841 189.692 128.139L194.965 124.001L200.435 120.084C215.042 109.644 231.228 101.007 248.326 94.3292C265.48 87.7536 283.63 83.2815 302.11 81.3746C311.349 80.4084 320.655 80.1006 329.932 80.4255C334.566 80.6393 339.191 80.9813 343.787 81.52C348.355 82.0587 352.933 82.7941 357.397 83.8971Z" fill="url(#paint25_radial_1176_46460)"/>
<path d="M348.73 74.3707C339.998 72.5152 331.05 71.7114 322.139 71.5062C313.219 71.3095 304.29 71.7456 295.464 72.7803C286.637 73.8491 277.896 75.4738 269.352 77.7312C260.808 79.9715 252.423 82.7335 244.321 86.0597C236.237 89.4202 228.351 93.2082 220.794 97.4922C213.265 101.81 205.934 106.445 199.016 111.567C185.104 121.725 172.34 133.218 160.656 145.599C163.429 142.393 166.183 139.169 169.041 136.014L173.477 131.405L175.695 129.096L176.805 127.942L177.97 126.839L182.67 122.435L185.029 120.237L187.492 118.142L192.436 113.961C194.09 112.567 195.857 111.302 197.568 109.959C204.383 104.589 211.78 99.8523 219.318 95.3545L225.099 92.1394C226.058 91.5921 227.035 91.0876 228.032 90.6088L231.002 89.138L233.972 87.6673C234.959 87.1714 235.993 86.7609 237.008 86.2991C239.048 85.4099 241.059 84.4778 243.118 83.6313C251.38 80.2964 259.896 77.5003 268.609 75.3113C277.323 73.1565 286.214 71.5575 295.2 70.7281C304.177 69.8559 313.229 69.7019 322.214 70.215C326.707 70.5228 331.182 70.9675 335.618 71.6259C340.045 72.2758 344.454 73.1308 348.73 74.3707Z" fill="url(#paint26_radial_1176_46460)"/>
<path d="M342.471 70.1299C334.087 67.6502 325.392 66.2222 316.669 65.4099C307.937 64.6317 299.158 64.5291 290.435 65.1106C272.99 66.2735 255.855 70.2924 239.894 76.7227C231.942 79.9976 224.254 83.7942 216.913 88.1124C209.638 92.5161 202.56 97.219 195.999 102.503C182.746 112.935 170.846 124.813 160.121 137.545C162.65 134.261 165.169 130.969 167.772 127.728L171.88 123L173.938 120.631C174.624 119.845 175.301 119.049 176.044 118.305C181.843 112.243 187.85 106.3 194.486 100.956C196.14 99.6218 197.738 98.211 199.449 96.9283L204.637 93.1318C205.511 92.5161 206.338 91.8405 207.259 91.2676L209.967 89.5061C211.781 88.3432 213.548 87.1119 215.409 86.0089L221.039 82.7681L222.449 81.9643L223.906 81.2204L226.82 79.7497C228.765 78.7663 230.692 77.7573 232.713 76.9193C234.715 76.0471 236.699 75.1236 238.729 74.2942C246.878 71.0363 255.328 68.4198 263.967 66.513C272.614 64.6318 281.44 63.4261 290.323 63.0498C299.196 62.6479 308.097 63.0327 316.867 64.1272C321.247 64.7429 325.599 65.4954 329.885 66.4617C334.162 67.4193 338.401 68.5908 342.471 70.1299Z" fill="url(#paint27_radial_1176_46460)"/>
<path d="M345.556 214.036C344.813 205.956 343.244 197.978 341.119 190.137C339.061 182.287 336.373 174.583 333.233 167.049C330.056 159.533 326.428 152.171 322.227 145.091C318.025 138.011 313.306 131.196 308.099 124.697C302.976 118.139 297.186 112.042 291.058 106.244C285.023 100.361 278.256 95.1454 271.404 90.0491C257.426 80.1558 242.124 71.7845 225.957 64.9609C230.055 66.5343 234.229 67.9965 238.261 69.7323L244.286 72.4001C245.282 72.8533 246.307 73.2723 247.294 73.7512L250.226 75.2305L256.073 78.2147C257.99 79.2665 259.861 80.3781 261.75 81.4641C265.595 83.5676 269.138 86.0559 272.804 88.4073C287.119 98.2066 299.922 109.913 310.468 123.132C315.713 129.759 320.488 136.685 324.67 143.911C328.787 151.162 332.406 158.644 335.367 166.331C338.356 174.01 340.762 181.877 342.501 189.855C343.394 193.839 344.052 197.867 344.607 201.894C345.161 205.93 345.537 209.983 345.556 214.036Z" fill="url(#paint28_radial_1176_46460)"/>
<path d="M356.94 206.681C356.357 198.643 354.994 190.674 353.049 182.841C351.169 175 348.734 167.27 345.783 159.728C339.899 144.627 331.787 130.279 321.636 117.239C311.494 104.182 299.124 92.6211 285.25 82.7706C271.245 73.0739 255.83 65.0447 239.531 58.6914C243.658 60.1536 247.85 61.4875 251.901 63.1207L257.964 65.6347C258.969 66.0622 260.003 66.447 260.981 66.9173L263.932 68.3282L269.816 71.1842L275.522 74.3309L278.37 75.9128C279.31 76.4515 280.203 77.0586 281.124 77.623L286.613 81.0946C288.399 82.3003 290.138 83.5829 291.896 84.8228L294.528 86.704C295.383 87.3624 296.201 88.0379 297.047 88.7134C298.71 90.0644 300.402 91.3898 302.047 92.7579L306.822 97.0248C308.458 98.41 309.896 99.9749 311.409 101.463C312.904 102.976 314.436 104.447 315.817 106.046C317.227 107.619 318.656 109.184 320.038 110.775L324.014 115.674C329.136 122.327 333.761 129.296 337.765 136.555C341.751 143.815 345.172 151.331 347.926 159.036C350.727 166.731 352.889 174.607 354.44 182.568C355.22 186.552 355.803 190.563 356.254 194.573C356.715 198.609 357.006 202.645 356.94 206.681Z" fill="url(#paint29_radial_1176_46460)"/>
<path d="M367.699 195.312C367.164 187.351 365.763 179.467 363.78 171.729C361.872 163.973 359.296 156.371 356.26 148.941C350.151 134.096 341.879 119.996 331.446 107.324L329.491 104.946C328.851 104.151 328.193 103.356 327.488 102.612L323.334 98.0374C321.905 96.541 320.411 95.1044 318.954 93.6337C318.211 92.9069 317.506 92.1544 316.735 91.4532L314.423 89.3583L312.12 87.2547C311.35 86.5536 310.598 85.8439 309.77 85.194L304.92 81.2178L303.708 80.226L302.439 79.2939L299.901 77.4213L297.373 75.5401L296.104 74.5995L294.788 73.7188C280.848 64.1932 265.612 56.2152 249.576 49.7422C253.646 51.2215 257.773 52.6067 261.777 54.2399L267.755 56.771L270.744 58.0365L273.658 59.4474L279.466 62.3034C281.393 63.2696 283.236 64.3727 285.134 65.3988L287.954 66.9722L289.355 67.7674L290.708 68.6225L296.141 72.0514C303.266 76.78 310.118 81.8934 316.378 87.5711L318.756 89.6746C319.536 90.3844 320.26 91.1454 321.022 91.8722C322.507 93.3601 324.039 94.8137 325.496 96.3272L329.744 100.962C330.468 101.723 331.135 102.518 331.793 103.33L333.786 105.742C339.022 112.223 343.797 119.013 347.904 126.135C351.974 133.275 355.527 140.646 358.385 148.239C361.27 155.824 363.573 163.588 365.152 171.472C365.96 175.405 366.543 179.382 367.013 183.358C367.502 187.325 367.784 191.319 367.699 195.312Z" fill="url(#paint30_radial_1176_46460)"/>
<path d="M345.842 230.314C343.079 221.926 339.836 213.683 336.151 205.611C332.523 197.521 328.538 189.569 324.223 181.771C319.881 173.99 315.256 166.345 310.218 158.932C308.93 157.093 307.727 155.212 306.402 153.391L302.454 147.927C299.709 144.361 296.993 140.769 294.07 137.323C288.327 130.355 282.245 123.616 275.666 117.289L273.24 114.886L270.712 112.569C269.011 111.038 267.366 109.456 265.617 107.968L260.344 103.531L259.028 102.419L257.665 101.359L254.94 99.238C251.368 96.3308 247.486 93.774 243.735 91.0549C241.809 89.7637 239.835 88.5238 237.889 87.2583L234.956 85.3686L231.93 83.6071L225.876 80.0585L219.626 76.8006L216.496 75.1759L213.281 73.6967L206.861 70.6953C224.608 77.459 241.489 86.4289 256.415 97.6476L259.226 99.734L260.636 100.777L261.989 101.872L267.394 106.284C269.18 107.763 270.872 109.345 272.611 110.867L275.205 113.176L277.696 115.579C284.407 121.923 290.573 128.73 296.42 135.742C308.084 149.799 317.954 165.028 326.282 180.882C330.446 188.808 334.177 196.923 337.495 205.166C339.14 209.296 340.672 213.452 342.082 217.65C343.502 221.806 344.808 226.03 345.842 230.314Z" fill="url(#paint31_radial_1176_46460)"/>
<path d="M332.297 230.333C329.43 222.492 325.896 214.89 322.005 207.451C318.123 200.012 313.856 192.744 309.297 185.647C300.123 171.478 289.708 157.968 278.015 145.449C276.54 143.893 275.13 142.285 273.607 140.772L269.076 136.189C267.563 134.666 265.965 133.213 264.414 131.716L262.074 129.493L259.668 127.33C253.351 121.447 246.527 116.051 239.684 110.673C225.764 100.181 210.941 90.6467 195.328 82.207C199.323 84.1652 203.383 86.0293 207.294 88.1328C211.194 90.2534 215.161 92.2885 218.94 94.5886L224.655 97.9919L230.228 101.583L233.011 103.379L235.718 105.269L241.132 109.065C255.334 119.446 268.503 131.041 280.252 143.739C286.09 150.109 291.72 156.651 296.871 163.5C302.012 170.349 306.881 177.369 311.28 184.629C320.069 199.114 327.579 214.36 332.297 230.333Z" fill="url(#paint32_radial_1176_46460)"/>
<path d="M316.178 241.732C313.396 234.105 309.861 226.734 305.932 219.56C302.06 212.36 297.755 205.357 293.205 198.508C284.079 184.809 273.758 171.795 262.563 159.439C251.359 147.083 239.299 135.377 226.516 124.346C224.918 122.97 223.339 121.567 221.713 120.216L216.816 116.172C213.592 113.427 210.199 110.87 206.89 108.219C203.572 105.569 200.132 103.055 196.757 100.464L186.418 92.9219C190.037 95.2306 193.674 97.5223 197.237 99.908C200.752 102.345 204.343 104.705 207.802 107.21C211.233 109.75 214.739 112.213 218.085 114.855L223.132 118.78C224.796 120.105 226.422 121.473 228.076 122.816C234.694 128.177 240.963 133.889 247.157 139.652C253.258 145.501 259.17 151.529 264.828 157.737C270.421 163.997 275.826 170.401 280.92 177.011C285.968 183.646 290.771 190.444 295.17 197.447C299.588 204.442 303.648 211.625 307.229 219.004C309.025 222.69 310.67 226.435 312.202 230.214C313.725 233.994 315.134 237.816 316.178 241.732Z" fill="url(#paint33_radial_1176_46460)"/>
<path d="M306.325 259.802C302.697 251.542 298.467 243.53 293.918 235.68C289.397 227.822 284.547 220.118 279.452 212.559C274.329 205.017 268.991 197.595 263.36 190.369C257.749 183.127 251.94 176.004 245.811 169.121L243.546 166.512L241.225 163.947C239.664 162.246 238.141 160.518 236.553 158.834C233.367 155.482 230.199 152.113 226.909 148.846C223.694 145.52 220.32 142.314 216.993 139.081C215.329 137.457 213.581 135.918 211.889 134.327C210.178 132.754 208.514 131.129 206.747 129.598C203.251 126.503 199.792 123.382 196.192 120.389L190.834 115.857L185.363 111.436C181.773 108.427 177.994 105.622 174.291 102.715C172.449 101.252 170.512 99.9014 168.623 98.4905L162.955 94.2578C166.903 96.8744 170.907 99.4396 174.77 102.159C178.615 104.912 182.544 107.572 186.285 110.436L191.934 114.703L197.47 119.098C201.192 121.997 204.726 125.084 208.326 128.102C222.567 140.347 235.857 153.515 248.096 167.445C260.334 181.382 271.5 196.098 281.398 211.49C286.351 219.186 290.948 227.061 295.178 235.099C297.264 239.135 299.285 243.188 301.156 247.301C303.064 251.414 304.84 255.57 306.325 259.802Z" fill="url(#paint34_radial_1176_46460)"/>
<path d="M293.13 272.225C289.784 263.879 285.808 255.782 281.494 247.838C277.189 239.894 272.526 232.113 267.592 224.486C257.675 209.257 246.612 194.66 234.355 180.936C228.302 174.018 221.844 167.392 215.208 160.944L210.199 156.13L205.038 151.444L202.453 149.101L199.793 146.827L194.492 142.269C180.092 130.375 164.79 119.353 148.66 109.34C157.007 113.94 165.194 118.806 173.089 124.056C175.054 125.373 177.037 126.681 178.983 128.023L184.745 132.154L187.621 134.223L190.422 136.386L196.015 140.713L201.466 145.185L204.183 147.434L206.824 149.751L212.097 154.403L217.22 159.191C223.978 165.639 230.492 172.3 236.63 179.252C242.749 186.212 248.661 193.326 254.132 200.714C259.593 208.111 264.8 215.661 269.566 223.442C279.097 238.988 287.434 255.217 293.13 272.225Z" fill="url(#paint35_radial_1176_46460)"/>
<path d="M287.199 287.018C284.248 278.75 280.573 270.72 276.522 262.879C272.48 255.021 268.015 247.36 263.231 239.878C253.625 224.931 242.646 210.711 230.295 197.559C224.204 190.915 217.653 184.631 210.885 178.559L205.772 174.036L200.489 169.675L197.839 167.503L195.113 165.408L189.68 161.201C174.895 150.299 159.122 140.465 142.504 131.863C146.743 133.864 151.057 135.762 155.203 137.934C159.338 140.115 163.549 142.201 167.563 144.578C169.584 145.741 171.614 146.904 173.626 148.093L179.538 151.804L182.499 153.668L185.375 155.635L191.118 159.577C206.185 170.376 220.125 182.51 232.532 195.841C238.708 202.527 244.629 209.411 250.062 216.611C255.486 223.819 260.59 231.216 265.214 238.86C269.867 246.487 274.078 254.337 277.828 262.358C279.661 266.385 281.4 270.447 282.998 274.551C284.596 278.647 286.053 282.803 287.199 287.018Z" fill="url(#paint36_radial_1176_46460)"/>
</g>
<path d="M286.151 107.8C287.116 107.8 287.899 106.975 287.899 105.959C287.899 104.942 287.116 104.117 286.151 104.117C285.185 104.117 284.402 104.942 284.402 105.959C284.402 106.975 285.185 107.8 286.151 107.8Z" fill="white"/>
<path d="M253.584 99.7917C253.34 100.772 252.381 101.366 251.45 101.108C250.774 100.92 250.294 100.336 250.172 99.663C250.125 99.4056 250.134 99.1284 250.2 98.8611C250.445 97.8811 251.403 97.2871 252.334 97.5445C252.757 97.6632 253.105 97.9305 253.33 98.2869C253.612 98.7027 253.725 99.2571 253.584 99.7917Z" fill="white"/>
<path d="M266.311 115.023C267.276 115.023 268.059 114.198 268.059 113.181C268.059 112.164 267.276 111.34 266.311 111.34C265.345 111.34 264.562 112.164 264.562 113.181C264.562 114.198 265.345 115.023 266.311 115.023Z" fill="white"/>
<path d="M240.695 90.6627C240.451 91.6527 239.492 92.2368 238.562 91.9794C237.622 91.722 237.067 90.7122 237.312 89.7322C237.556 88.7521 238.515 88.1582 239.445 88.4155C240.385 88.6729 240.949 89.6728 240.695 90.6627Z" fill="white"/>
<path d="M231.106 83.4205C230.861 84.4006 229.902 84.9946 228.972 84.7372C228.032 84.4798 227.477 83.47 227.722 82.49C227.966 81.5099 228.925 80.916 229.855 81.1734C230.795 81.4308 231.35 82.4306 231.106 83.4205Z" fill="white"/>
<path d="M246.347 74.3002C246.356 74.4685 246.328 74.6368 246.29 74.8051C246.046 75.795 245.087 76.3791 244.157 76.1217C243.226 75.8643 242.662 74.8546 242.907 73.8745C243.019 73.4092 243.301 73.033 243.649 72.7954C244.044 72.5182 244.542 72.4291 245.04 72.5578C245.82 72.7657 246.328 73.4983 246.347 74.3002Z" fill="white"/>
<path d="M211.785 95.0081C211.54 95.9981 210.581 96.5822 209.651 96.3248C208.72 96.0674 208.156 95.0576 208.401 94.0775C208.42 93.9785 208.457 93.8796 208.495 93.7905C208.655 93.4242 208.918 93.1271 209.228 92.939C209.613 92.7114 210.074 92.6322 210.534 92.7609C211.474 93.0183 212.029 94.028 211.785 95.0081Z" fill="white"/>
<path d="M290.045 88.9522C291.011 88.9522 291.793 88.1279 291.793 87.1109C291.793 86.094 291.011 85.2695 290.045 85.2695C289.08 85.2695 288.297 86.094 288.297 87.1109C288.297 88.1279 289.08 88.9522 290.045 88.9522Z" fill="white"/>
<path d="M273.39 92.6465C273.371 92.7454 273.334 92.8445 273.296 92.9336C272.948 93.7454 272.093 94.2007 271.247 93.9631C270.392 93.7354 269.847 92.8643 269.95 91.9733C269.959 91.8842 269.969 91.805 269.997 91.7159C270.091 91.31 270.317 90.9734 270.608 90.7358C271.022 90.3893 271.576 90.2409 272.131 90.3993C272.497 90.4983 272.798 90.7061 273.024 90.9833C273.381 91.4189 273.541 92.0426 273.39 92.6465Z" fill="white"/>
<path d="M259.309 82.3826C259.29 82.5806 259.234 82.7885 259.14 82.9864C258.717 83.8972 257.664 84.2734 256.799 83.828C255.934 83.3825 255.577 82.2836 256 81.3629C256.151 81.0462 256.376 80.7888 256.649 80.6106C257.147 80.2938 257.777 80.2245 258.341 80.5214C259.027 80.858 259.393 81.6203 259.309 82.3826Z" fill="white"/>
<path d="M275.989 78.2998C276.954 78.2998 277.737 77.4755 277.737 76.4585C277.737 75.4416 276.954 74.6172 275.989 74.6172C275.023 74.6172 274.24 75.4416 274.24 76.4585C274.24 77.4755 275.023 78.2998 275.989 78.2998Z" fill="white"/>
<path d="M305.225 103.534C306.19 103.534 306.973 102.71 306.973 101.693C306.973 100.676 306.19 99.8516 305.225 99.8516C304.259 99.8516 303.477 100.676 303.477 101.693C303.477 102.71 304.259 103.534 305.225 103.534Z" fill="white"/>
<path d="M318.674 119.272C319.64 119.272 320.422 118.448 320.422 117.431C320.422 116.414 319.64 115.59 318.674 115.59C317.709 115.59 316.926 116.414 316.926 117.431C316.926 118.448 317.709 119.272 318.674 119.272Z" fill="white"/>
<path d="M301.869 124.105C302.835 124.105 303.618 123.28 303.618 122.263C303.618 121.246 302.835 120.422 301.869 120.422C300.904 120.422 300.121 121.246 300.121 122.263C300.121 123.28 300.904 124.105 301.869 124.105Z" fill="white"/>
<path d="M280.356 130.87C281.321 130.87 282.104 130.046 282.104 129.029C282.104 128.012 281.321 127.188 280.356 127.188C279.39 127.188 278.607 128.012 278.607 129.029C278.607 130.046 279.39 130.87 280.356 130.87Z" fill="white"/>
<path d="M274.987 154.605C275.952 154.605 276.735 153.78 276.735 152.763C276.735 151.746 275.952 150.922 274.987 150.922C274.021 150.922 273.238 151.746 273.238 152.763C273.238 153.78 274.021 154.605 274.987 154.605Z" fill="white"/>
<path d="M268.408 180.773C269.374 180.773 270.157 179.948 270.157 178.931C270.157 177.914 269.374 177.09 268.408 177.09C267.443 177.09 266.66 177.914 266.66 178.931C266.66 179.948 267.443 180.773 268.408 180.773Z" fill="white"/>
<path d="M261.828 206.96C262.794 206.96 263.577 206.136 263.577 205.119C263.577 204.102 262.794 203.277 261.828 203.277C260.863 203.277 260.08 204.102 260.08 205.119C260.08 206.136 260.863 206.96 261.828 206.96Z" fill="white"/>
<path d="M280.315 197.444C281.28 197.444 282.063 196.62 282.063 195.603C282.063 194.586 281.28 193.762 280.315 193.762C279.349 193.762 278.566 194.586 278.566 195.603C278.566 196.62 279.349 197.444 280.315 197.444Z" fill="white"/>
<path d="M289.535 171.956C290.501 171.956 291.284 171.132 291.284 170.115C291.284 169.098 290.501 168.273 289.535 168.273C288.57 168.273 287.787 169.098 287.787 170.115C287.787 171.132 288.57 171.956 289.535 171.956Z" fill="white"/>
<path d="M307.875 166.487C308.841 166.487 309.624 165.663 309.624 164.646C309.624 163.629 308.841 162.805 307.875 162.805C306.91 162.805 306.127 163.629 306.127 164.646C306.127 165.663 306.91 166.487 307.875 166.487Z" fill="white"/>
<path d="M300.951 189.976C301.917 189.976 302.7 189.151 302.7 188.134C302.7 187.117 301.917 186.293 300.951 186.293C299.986 186.293 299.203 187.117 299.203 188.134C299.203 189.151 299.986 189.976 300.951 189.976Z" fill="white"/>
<path d="M261.565 138.644C262.53 138.644 263.313 137.819 263.313 136.802C263.313 135.785 262.53 134.961 261.565 134.961C260.599 134.961 259.816 135.785 259.816 136.802C259.816 137.819 260.599 138.644 261.565 138.644Z" fill="white"/>
<path d="M246.844 123.851C247.81 123.851 248.592 123.026 248.592 122.009C248.592 120.992 247.81 120.168 246.844 120.168C245.878 120.168 245.096 120.992 245.096 122.009C245.096 123.026 245.878 123.851 246.844 123.851Z" fill="white"/>
<path d="M233.526 109.96C233.282 110.94 232.323 111.534 231.392 111.277C230.8 111.109 230.358 110.653 230.18 110.089C230.067 109.752 230.058 109.396 230.142 109.03C230.387 108.04 231.345 107.456 232.276 107.713C232.642 107.812 232.953 108.03 233.178 108.317C233.526 108.753 233.667 109.356 233.526 109.96Z" fill="white"/>
<path d="M227.321 134.452C228.286 134.452 229.069 133.628 229.069 132.611C229.069 131.594 228.286 130.77 227.321 130.77C226.355 130.77 225.572 131.594 225.572 132.611C225.572 133.628 226.355 134.452 227.321 134.452Z" fill="white"/>
<path d="M242.248 149.87C243.214 149.87 243.997 149.046 243.997 148.029C243.997 147.012 243.214 146.188 242.248 146.188C241.283 146.188 240.5 147.012 240.5 148.029C240.5 149.046 241.283 149.87 242.248 149.87Z" fill="white"/>
<path d="M218.466 118.403C218.222 119.383 217.263 119.977 216.333 119.72C216.145 119.67 215.976 119.591 215.825 119.482C215.214 119.057 214.885 118.265 215.083 117.463C215.327 116.483 216.286 115.889 217.216 116.146C217.902 116.334 218.382 116.918 218.495 117.611C218.542 117.869 218.532 118.136 218.466 118.403Z" fill="white"/>
<path d="M211.934 144.976C212.899 144.976 213.682 144.151 213.682 143.134C213.682 142.117 212.899 141.293 211.934 141.293C210.968 141.293 210.186 142.117 210.186 143.134C210.186 144.151 210.968 144.976 211.934 144.976Z" fill="white"/>
<path d="M196.086 156.589C197.052 156.589 197.834 155.765 197.834 154.748C197.834 153.731 197.052 152.906 196.086 152.906C195.121 152.906 194.338 153.731 194.338 154.748C194.338 155.765 195.121 156.589 196.086 156.589Z" fill="white"/>
<path d="M201.163 131.597C200.918 132.587 199.959 133.171 199.029 132.914C198.803 132.854 198.606 132.745 198.437 132.617C197.873 132.181 197.591 131.419 197.779 130.666C198.023 129.676 198.982 129.092 199.912 129.35C200.495 129.508 200.928 129.954 201.116 130.498C201.228 130.845 201.247 131.221 201.163 131.597Z" fill="white"/>
<path d="M205.949 113.449C205.704 114.429 204.746 115.023 203.815 114.765C202.884 114.508 202.32 113.498 202.565 112.518C202.809 111.528 203.768 110.944 204.699 111.201C205.629 111.449 206.193 112.459 205.949 113.449Z" fill="white"/>
<path d="M222.801 101.355C222.556 102.345 221.598 102.929 220.667 102.671C219.727 102.414 219.173 101.404 219.417 100.424C219.661 99.4343 220.62 98.8502 221.551 99.1076C222.491 99.365 223.055 100.375 222.801 101.355Z" fill="white"/>
<path d="M237.838 173.683C238.804 173.683 239.586 172.858 239.586 171.841C239.586 170.824 238.804 170 237.838 170C236.873 170 236.09 170.824 236.09 171.841C236.09 172.858 236.873 173.683 237.838 173.683Z" fill="white"/>
<path d="M223.864 159.476C224.829 159.476 225.612 158.651 225.612 157.634C225.612 156.617 224.829 155.793 223.864 155.793C222.898 155.793 222.115 156.617 222.115 157.634C222.115 158.651 222.898 159.476 223.864 159.476Z" fill="white"/>
<path d="M255.643 164.573C256.608 164.573 257.391 163.749 257.391 162.732C257.391 161.715 256.608 160.891 255.643 160.891C254.677 160.891 253.895 161.715 253.895 162.732C253.895 163.749 254.677 164.573 255.643 164.573Z" fill="white"/>
<path d="M249.879 189.523C250.845 189.523 251.627 188.698 251.627 187.681C251.627 186.664 250.845 185.84 249.879 185.84C248.914 185.84 248.131 186.664 248.131 187.681C248.131 188.698 248.914 189.523 249.879 189.523Z" fill="white"/>
<path d="M246.778 214.534C247.743 214.534 248.526 213.71 248.526 212.693C248.526 211.676 247.743 210.852 246.778 210.852C245.812 210.852 245.029 211.676 245.029 212.693C245.029 213.71 245.812 214.534 246.778 214.534Z" fill="white"/>
<path d="M234.514 198.159C235.479 198.159 236.262 197.335 236.262 196.318C236.262 195.301 235.479 194.477 234.514 194.477C233.548 194.477 232.766 195.301 232.766 196.318C232.766 197.335 233.548 198.159 234.514 198.159Z" fill="white"/>
<path d="M220.432 206.964C221.397 206.964 222.18 206.14 222.18 205.123C222.18 204.106 221.397 203.281 220.432 203.281C219.466 203.281 218.684 204.106 218.684 205.123C218.684 206.14 219.466 206.964 220.432 206.964Z" fill="white"/>
<path d="M220.883 182.921C221.849 182.921 222.631 182.097 222.631 181.08C222.631 180.063 221.849 179.238 220.883 179.238C219.918 179.238 219.135 180.063 219.135 181.08C219.135 182.097 219.918 182.921 220.883 182.921Z" fill="white"/>
<path d="M206.483 193.05C207.448 193.05 208.231 192.225 208.231 191.209C208.231 190.192 207.448 189.367 206.483 189.367C205.517 189.367 204.734 190.192 204.734 191.209C204.734 192.225 205.517 193.05 206.483 193.05Z" fill="white"/>
<path d="M208.918 169.265C209.884 169.265 210.667 168.44 210.667 167.423C210.667 166.406 209.884 165.582 208.918 165.582C207.953 165.582 207.17 166.406 207.17 167.423C207.17 168.44 207.953 169.265 208.918 169.265Z" fill="white"/>
<path d="M290.91 213.456C291.876 213.456 292.659 212.632 292.659 211.615C292.659 210.598 291.876 209.773 290.91 209.773C289.945 209.773 289.162 210.598 289.162 211.615C289.162 212.632 289.945 213.456 290.91 213.456Z" fill="white"/>
<path d="M310.479 206.249C311.444 206.249 312.227 205.425 312.227 204.408C312.227 203.391 311.444 202.566 310.479 202.566C309.513 202.566 308.73 203.391 308.73 204.408C308.73 205.425 309.513 206.249 310.479 206.249Z" fill="white"/>
<path d="M325.803 202.483C326.769 202.483 327.551 201.659 327.551 200.642C327.551 199.625 326.769 198.801 325.803 198.801C324.837 198.801 324.055 199.625 324.055 200.642C324.055 201.659 324.837 202.483 325.803 202.483Z" fill="white"/>
<path d="M318.489 185.226C319.454 185.226 320.237 184.401 320.237 183.384C320.237 182.367 319.454 181.543 318.489 181.543C317.523 181.543 316.74 182.367 316.74 183.384C316.74 184.401 317.523 185.226 318.489 185.226Z" fill="white"/>
<path d="M340.793 200.413C341.759 200.413 342.542 199.589 342.542 198.572C342.542 197.555 341.759 196.73 340.793 196.73C339.828 196.73 339.045 197.555 339.045 198.572C339.045 199.589 339.828 200.413 340.793 200.413Z" fill="white"/>
<path d="M349.215 178.753C350.181 178.753 350.963 177.929 350.963 176.912C350.963 175.895 350.181 175.07 349.215 175.07C348.25 175.07 347.467 175.895 347.467 176.912C347.467 177.929 348.25 178.753 349.215 178.753Z" fill="white"/>
<path d="M333.848 181.663C334.813 181.663 335.596 180.839 335.596 179.822C335.596 178.805 334.813 177.98 333.848 177.98C332.882 177.98 332.1 178.805 332.1 179.822C332.1 180.839 332.882 181.663 333.848 181.663Z" fill="white"/>
<path d="M325.848 161.761C326.813 161.761 327.596 160.936 327.596 159.919C327.596 158.903 326.813 158.078 325.848 158.078C324.882 158.078 324.1 158.903 324.1 159.919C324.1 160.936 324.882 161.761 325.848 161.761Z" fill="white"/>
<path d="M340.934 157.839C341.899 157.839 342.682 157.015 342.682 155.998C342.682 154.981 341.899 154.156 340.934 154.156C339.968 154.156 339.186 154.981 339.186 155.998C339.186 157.015 339.968 157.839 340.934 157.839Z" fill="white"/>
<path d="M354.996 156.644C355.962 156.644 356.745 155.819 356.745 154.802C356.745 153.785 355.962 152.961 354.996 152.961C354.031 152.961 353.248 153.785 353.248 154.802C353.248 155.819 354.031 156.644 354.996 156.644Z" fill="white"/>
<path d="M345.518 136.897C346.483 136.897 347.266 136.073 347.266 135.056C347.266 134.039 346.483 133.215 345.518 133.215C344.552 133.215 343.77 134.039 343.77 135.056C343.77 136.073 344.552 136.897 345.518 136.897Z" fill="white"/>
<path d="M307.621 86.0694C308.587 86.0694 309.37 85.245 309.37 84.228C309.37 83.2111 308.587 82.3867 307.621 82.3867C306.656 82.3867 305.873 83.2111 305.873 84.228C305.873 85.245 306.656 86.0694 307.621 86.0694Z" fill="white"/>
<path d="M314.246 142.683C315.212 142.683 315.995 141.858 315.995 140.841C315.995 139.824 315.212 139 314.246 139C313.281 139 312.498 139.824 312.498 140.841C312.498 141.858 313.281 142.683 314.246 142.683Z" fill="white"/>
<path d="M295.401 148.425C296.366 148.425 297.149 147.601 297.149 146.584C297.149 145.567 296.366 144.742 295.401 144.742C294.435 144.742 293.652 145.567 293.652 146.584C293.652 147.601 294.435 148.425 295.401 148.425Z" fill="white"/>
<path d="M330.668 138.69C331.634 138.69 332.417 137.866 332.417 136.849C332.417 135.832 331.634 135.008 330.668 135.008C329.703 135.008 328.92 135.832 328.92 136.849C328.92 137.866 329.703 138.69 330.668 138.69Z" fill="white"/>
<path d="M333.848 116.308C334.813 116.308 335.596 115.483 335.596 114.466C335.596 113.449 334.813 112.625 333.848 112.625C332.882 112.625 332.1 113.449 332.1 114.466C332.1 115.483 332.882 116.308 333.848 116.308Z" fill="white"/>
<path d="M321.684 100.472C322.649 100.472 323.432 99.6474 323.432 98.6304C323.432 97.6135 322.649 96.7891 321.684 96.7891C320.718 96.7891 319.936 97.6135 319.936 98.6304C319.936 99.6474 320.718 100.472 321.684 100.472Z" fill="white"/>
<path d="M334.795 98.7418C335.621 98.7418 336.29 98.0371 336.29 97.1678C336.29 96.2984 335.621 95.5938 334.795 95.5938C333.97 95.5938 333.301 96.2984 333.301 97.1678C333.301 98.0371 333.97 98.7418 334.795 98.7418Z" fill="white"/>
<path d="M321.31 84.7863C322.089 84.7863 322.72 84.1215 322.72 83.3014C322.72 82.4812 322.089 81.8164 321.31 81.8164C320.532 81.8164 319.9 82.4812 319.9 83.3014C319.9 84.1215 320.532 84.7863 321.31 84.7863Z" fill="white"/>
<path d="M293.947 74.134C294.726 74.134 295.357 73.4691 295.357 72.649C295.357 71.8289 294.726 71.1641 293.947 71.1641C293.168 71.1641 292.537 71.8289 292.537 72.649C292.537 73.4691 293.168 74.134 293.947 74.134Z" fill="white"/>
<path d="M263.707 69.7707C264.485 69.7707 265.117 69.1058 265.117 68.2857C265.117 67.4656 264.485 66.8008 263.707 66.8008C262.928 66.8008 262.297 67.4656 262.297 68.2857C262.297 69.1058 262.928 69.7707 263.707 69.7707Z" fill="white"/>
<path d="M220.011 202.151L219.805 201.864C220.331 201.438 220.857 201.092 221.374 200.755C222.399 200.092 223.358 199.459 224.128 198.34L224.41 198.558C223.602 199.736 222.606 200.389 221.553 201.072C221.055 201.389 220.519 201.735 220.011 202.151Z" fill="#006744"/>
<path d="M220.056 203.756L219.717 203.667C219.755 203.509 219.736 203.311 219.661 203.083C219.445 202.4 218.965 201.935 218.458 201.449C217.95 200.954 217.414 200.44 217.17 199.677L217.499 199.559C217.724 200.232 218.194 200.697 218.702 201.182C219.219 201.687 219.755 202.202 219.999 202.974C220.093 203.261 220.112 203.528 220.056 203.756Z" fill="#006744"/>
<path d="M219.299 204.966L219.262 198.522L220.643 198.512L220.681 205.164L219.299 204.966Z" fill="#006744"/>
<path d="M220.885 200.503C226.165 200.503 230.445 195.996 230.445 190.435C230.445 184.875 226.165 180.367 220.885 180.367C215.606 180.367 211.326 184.875 211.326 190.435C211.326 195.996 215.606 200.503 220.885 200.503Z" fill="#4CA350"/>
<path d="M230.597 190.456C230.644 184.893 226.405 180.339 221.132 180.289C218.989 180.27 216.996 180.992 215.389 182.23C216.893 181.22 218.688 180.636 220.605 180.656C225.888 180.705 230.127 185.259 230.071 190.823C230.042 194.129 228.501 197.04 226.151 198.851C228.802 197.089 230.569 193.991 230.597 190.456Z" fill="white"/>
<path d="M214.109 184.625C213.742 184.625 213.385 184.645 213.028 184.684C211.975 186.288 211.345 188.228 211.327 190.327C211.28 195.891 215.519 200.445 220.792 200.494C221.158 200.494 221.516 200.474 221.873 200.435C222.926 198.831 223.555 196.891 223.574 194.792C223.63 189.238 219.382 184.684 214.109 184.625Z" fill="#006744"/>
<path opacity="0.5" d="M220.795 200.496C220.973 200.496 221.152 200.496 221.34 200.486C221.349 200.486 221.349 200.486 221.359 200.486C226.378 200.228 230.401 195.892 230.457 190.527C230.504 184.963 226.265 180.409 220.992 180.36C220.033 180.35 219.103 180.498 218.229 180.766C219.3 180.439 221.039 181.825 221.866 182.439C223.107 183.35 224.066 184.528 224.507 186.082C225.175 188.438 224.348 190.665 222.919 192.507C221.716 194.061 220.155 195.071 219.291 196.872C219.112 197.249 217.721 199.981 218.511 200.189C219.234 200.377 220.005 200.486 220.795 200.496Z" fill="#A7C43F"/>
<path d="M256.429 204.274L256.316 204.116C256.598 203.888 256.89 203.7 257.162 203.522C257.717 203.165 258.234 202.829 258.647 202.215L258.798 202.334C258.365 202.967 257.83 203.324 257.256 203.69C256.993 203.868 256.702 204.056 256.429 204.274Z" fill="#006744"/>
<path d="M256.451 205.146L256.273 205.096C256.292 205.007 256.282 204.908 256.245 204.78C256.122 204.413 255.869 204.166 255.596 203.899C255.323 203.631 255.032 203.354 254.9 202.938L255.079 202.879C255.201 203.245 255.455 203.493 255.728 203.75C256.01 204.017 256.292 204.295 256.423 204.71C256.47 204.879 256.479 205.027 256.451 205.146Z" fill="#006744"/>
<path d="M256.044 205.787L256.025 202.322L256.768 202.312L256.787 205.896L256.044 205.787Z" fill="#006744"/>
<path d="M256.893 203.378C259.743 203.378 262.053 200.944 262.053 197.943C262.053 194.941 259.743 192.508 256.893 192.508C254.043 192.508 251.732 194.941 251.732 197.943C251.732 200.944 254.043 203.378 256.893 203.378Z" fill="#4CA350"/>
<path d="M262.132 197.961C262.16 194.962 259.876 192.506 257.028 192.477C255.872 192.467 254.8 192.853 253.936 193.526C254.744 192.982 255.712 192.665 256.746 192.675C259.594 192.704 261.878 195.16 261.85 198.159C261.831 199.941 261.004 201.515 259.735 202.485C261.164 201.535 262.113 199.862 262.132 197.961Z" fill="white"/>
<path d="M253.237 194.824C253.039 194.824 252.842 194.834 252.654 194.854C252.08 195.715 251.742 196.765 251.733 197.893C251.704 200.893 253.989 203.348 256.837 203.377C257.034 203.377 257.231 203.368 257.419 203.348C257.993 202.487 258.331 201.437 258.341 200.309C258.369 197.309 256.085 194.854 253.237 194.824Z" fill="#006744"/>
<path opacity="0.5" d="M256.848 203.398C256.942 203.398 257.046 203.398 257.14 203.388H257.149C259.856 203.249 262.027 200.913 262.055 198.013C262.084 195.013 259.8 192.558 256.952 192.528C256.435 192.518 255.936 192.597 255.457 192.746C256.03 192.568 256.97 193.32 257.422 193.647C258.089 194.142 258.606 194.775 258.85 195.607C259.207 196.874 258.766 198.082 257.995 199.072C257.346 199.913 256.51 200.458 256.04 201.428C255.946 201.636 255.194 203.101 255.617 203.22C256.002 203.339 256.416 203.398 256.848 203.398Z" fill="#A7C43F"/>
<path d="M134.182 151.465C134.182 151.465 186.462 253.491 352.663 179.352C352.663 229.494 352.663 219.107 352.663 219.107H88.8281L99.0279 161.889C99.0279 161.889 121.126 156.137 134.182 151.465Z" fill="#4CA350"/>
<path d="M169.966 182.661L169.684 182.275C170.379 181.71 171.094 181.245 171.789 180.79C173.152 179.899 174.44 179.057 175.474 177.562L175.85 177.85C174.769 179.424 173.443 180.295 172.033 181.206C171.357 181.651 170.652 182.116 169.966 182.661Z" fill="#006744"/>
<path d="M170.021 184.824L169.57 184.705C169.617 184.487 169.598 184.23 169.495 183.923C169.204 183.012 168.564 182.389 167.888 181.735C167.202 181.072 166.497 180.389 166.158 179.369L166.591 179.211C166.891 180.112 167.521 180.726 168.198 181.379C168.884 182.052 169.598 182.735 169.927 183.775C170.059 184.161 170.087 184.517 170.021 184.824Z" fill="#006744"/>
<path d="M169.002 186.416L168.965 177.803L170.807 177.793L170.845 189.286L169.002 186.416Z" fill="#006744"/>
<path d="M171.123 180.466C178.178 180.466 183.897 174.442 183.897 167.012C183.897 159.582 178.178 153.559 171.123 153.559C164.069 153.559 158.35 159.582 158.35 167.012C158.35 174.442 164.069 180.466 171.123 180.466Z" fill="#4CA350"/>
<path d="M184.105 167.038C184.171 159.604 178.512 153.525 171.453 153.446C168.586 153.416 165.926 154.386 163.783 156.04C165.795 154.693 168.192 153.911 170.758 153.941C177.817 154.01 183.475 160.099 183.409 167.533C183.372 171.948 181.313 175.839 178.183 178.264C181.699 175.898 184.058 171.77 184.105 167.038Z" fill="white"/>
<path d="M162.065 159.252C161.576 159.242 161.096 159.272 160.617 159.321C159.207 161.46 158.361 164.053 158.342 166.865C158.277 174.299 163.935 180.378 170.994 180.457C171.483 180.467 171.962 180.437 172.442 180.388C173.852 178.249 174.697 175.656 174.716 172.844C174.791 165.41 169.124 159.321 162.065 159.252Z" fill="#006744"/>
<path opacity="0.5" d="M170.991 180.464C171.235 180.464 171.47 180.464 171.715 180.445C171.724 180.445 171.734 180.445 171.743 180.445C178.454 180.108 183.831 174.307 183.896 167.139C183.962 159.705 178.304 153.626 171.245 153.547C169.957 153.537 168.716 153.725 167.551 154.082C168.98 153.646 171.301 155.507 172.41 156.319C174.065 157.537 175.352 159.111 175.945 161.18C176.837 164.328 175.728 167.308 173.83 169.763C172.222 171.832 170.145 173.198 168.989 175.604C168.745 176.109 166.883 179.752 167.955 180.039C168.914 180.306 169.938 180.455 170.991 180.464Z" fill="#A7C43F"/>
<path d="M15.8504 156.414C35.1401 155.104 54.6649 143.294 75.5809 128.706C58.7208 111.09 33.3865 92.8192 0.205078 91.668C0.205078 118.652 0.205078 144.604 0.205078 159.411C10.1879 158.29 17.4669 157.248 15.8504 156.414Z" fill="white"/>
<path d="M18.1465 156.564C22.6488 158.969 27.5836 162.147 33.9564 164.741C46.9371 170.027 65.8394 172.918 99.0008 162.028C99.0008 162.028 90.9642 145.773 75.4551 128.914C55.3872 143.476 36.6541 155.257 18.1465 156.564Z" fill="#006744"/>
<path d="M133.076 151.868C132.653 151.076 132.211 150.235 131.751 149.353C126.384 139.196 117.548 122.011 109.493 104.171C109.474 104.132 109.455 104.102 109.446 104.062C97.6026 112.339 86.3326 121.03 75.4668 128.911C90.9853 145.77 99.0125 162.025 99.0125 162.025C107.669 159.758 123.179 155.264 130.971 152.808L130.802 152.62C131.553 152.373 132.324 152.125 133.076 151.868Z" fill="#DD8838"/>
<path d="M359.893 179.442C326.086 197.432 284.457 215.944 241.061 219.065C132.62 226.854 104.242 168.531 95.9518 162.456C44.8023 173.199 10.7416 156.321 0 149.812V219.065H193.159H359.893L360 179.392L359.893 179.442Z" fill="#193D6F"/>
<path d="M0.605469 0V92.1263C31.0598 94.2052 59.7658 111.876 75.4629 128.923C86.3381 121.043 97.5987 112.351 109.442 104.075C93.4629 68.7433 40.6754 21.1358 0.605469 0Z" fill="#4CA350"/>
<path d="M104.98 64.6473C111.765 64.6473 117.266 58.8543 117.266 51.7084C117.266 44.5625 111.765 38.7695 104.98 38.7695C98.1956 38.7695 92.6953 44.5625 92.6953 51.7084C92.6953 58.8543 98.1956 64.6473 104.98 64.6473Z" fill="#DD8838"/>
<path d="M139.127 62.567C139.127 62.567 141.824 58.3993 145.077 58.1914C145.077 58.1914 142.022 58.8745 139.343 63.9728C139.343 63.9728 136.617 59.9635 132.152 58.3993C132.143 58.3993 136.533 59.0923 139.127 62.567Z" fill="white"/>
<path d="M118.665 62.2184C118.665 62.2184 123.27 52.2197 128.825 51.7148C128.825 51.7148 123.618 53.3384 119.031 65.5744C119.031 65.5744 114.378 55.9519 106.746 52.2098C106.737 52.1999 114.228 53.873 118.665 62.2184Z" fill="white"/>
<path d="M114.004 74.7819C114.004 74.7819 116.701 70.6141 119.954 70.4062C119.954 70.4062 116.899 71.0893 114.22 76.1876C114.22 76.1876 111.494 72.1783 107.029 70.6141C107.02 70.6042 111.409 71.3071 114.004 74.7819Z" fill="white"/>
<path d="M132.766 146.874L132.334 146.28C133.406 145.409 134.515 144.696 135.577 143.993C137.682 142.627 139.666 141.33 141.254 139.023L141.827 139.459C140.164 141.884 138.115 143.221 135.953 144.627C134.9 145.32 133.81 146.032 132.766 146.874Z" fill="#006744"/>
<path d="M132.843 150.205L132.157 150.027C132.232 149.7 132.194 149.294 132.044 148.819C131.593 147.413 130.606 146.453 129.562 145.443C128.51 144.424 127.419 143.365 126.902 141.79L127.579 141.543C128.04 142.929 129.017 143.879 130.051 144.889C131.113 145.919 132.213 146.988 132.721 148.572C132.909 149.195 132.956 149.74 132.843 150.205Z" fill="#006744"/>
<path d="M131.285 152.668L131.219 139.403L134.067 139.383L134.123 153.955L131.285 152.668Z" fill="#006744"/>
<path d="M134.563 143.519C145.439 143.519 154.255 134.233 154.255 122.779C154.255 111.325 145.439 102.039 134.563 102.039C123.687 102.039 114.871 111.325 114.871 122.779C114.871 134.233 123.687 143.519 134.563 143.519Z" fill="#4CA350"/>
<path d="M154.575 122.832C154.678 111.378 145.946 102.003 135.071 101.884C130.653 101.835 126.555 103.329 123.246 105.884C126.348 103.805 130.042 102.607 133.999 102.646C144.874 102.755 153.606 112.14 153.503 123.594C153.437 130.395 150.279 136.394 145.438 140.126C150.871 136.493 154.499 130.118 154.575 122.832Z" fill="white"/>
<path d="M120.606 110.861C119.854 110.851 119.111 110.891 118.378 110.97C116.197 114.266 114.91 118.266 114.872 122.592C114.769 134.046 123.501 143.421 134.376 143.54C135.128 143.55 135.87 143.51 136.604 143.431C138.784 140.134 140.072 136.135 140.11 131.809C140.213 120.345 131.481 110.97 120.606 110.861Z" fill="#006744"/>
<path opacity="0.5" d="M134.355 143.504C134.731 143.504 135.098 143.494 135.464 143.484C135.474 143.484 135.493 143.484 135.502 143.484C145.851 142.959 154.132 134.02 154.235 122.972C154.339 111.518 145.606 102.143 134.731 102.024C132.748 102.005 130.84 102.302 129.035 102.856C131.244 102.183 134.816 105.044 136.527 106.301C139.074 108.182 141.066 110.597 141.969 113.795C143.341 118.646 141.63 123.239 138.707 127.021C136.235 130.219 133.021 132.307 131.244 136.02C130.868 136.802 128.001 142.415 129.646 142.86C131.159 143.266 132.729 143.494 134.355 143.504Z" fill="#A7C43F"/>
<defs>
<linearGradient id="paint0_linear_1176_46460" x1="174.357" y1="128.679" x2="274.037" y2="76.1872" gradientUnits="userSpaceOnUse">
<stop offset="0.4551" stop-color="#00ABA3"/>
<stop offset="0.5554" stop-color="#03ACA4"/>
<stop offset="0.6302" stop-color="#0DAFA7"/>
<stop offset="0.6968" stop-color="#1DB3AD"/>
<stop offset="0.7585" stop-color="#33BAB5"/>
<stop offset="0.8169" stop-color="#51C2BF"/>
<stop offset="0.8729" stop-color="#75CDCC"/>
<stop offset="0.9259" stop-color="#9FD9DA"/>
<stop offset="0.9407" stop-color="#ACDDDF"/>
</linearGradient>
<linearGradient id="paint1_linear_1176_46460" x1="215.517" y1="186.815" x2="336.065" y2="74.877" gradientUnits="userSpaceOnUse">
<stop offset="0.4551" stop-color="#006744"/>
<stop offset="0.5554" stop-color="#036947"/>
<stop offset="0.6302" stop-color="#0D704F"/>
<stop offset="0.6968" stop-color="#1D7B5E"/>
<stop offset="0.7585" stop-color="#338A72"/>
<stop offset="0.8169" stop-color="#519E8D"/>
<stop offset="0.8729" stop-color="#75B7AD"/>
<stop offset="0.9259" stop-color="#9FD4D3"/>
<stop offset="0.9407" stop-color="#ACDDDF"/>
</linearGradient>
<linearGradient id="paint2_linear_1176_46460" x1="203.075" y1="114.026" x2="205.865" y2="111.794" gradientUnits="userSpaceOnUse">
<stop offset="0.4551" stop-color="#00ABA3"/>
<stop offset="0.5554" stop-color="#03ACA4"/>
<stop offset="0.6302" stop-color="#0DAFA7"/>
<stop offset="0.6968" stop-color="#1DB3AD"/>
<stop offset="0.7585" stop-color="#33BAB5"/>
<stop offset="0.8169" stop-color="#51C2BF"/>
<stop offset="0.8729" stop-color="#75CDCC"/>
<stop offset="0.9259" stop-color="#9FD9DA"/>
<stop offset="0.9407" stop-color="#ACDDDF"/>
</linearGradient>
<linearGradient id="paint3_linear_1176_46460" x1="208.922" y1="95.603" x2="211.713" y2="93.369" gradientUnits="userSpaceOnUse">
<stop offset="0.4551" stop-color="#00ABA3"/>
<stop offset="0.5554" stop-color="#03ACA4"/>
<stop offset="0.6302" stop-color="#0DAFA7"/>
<stop offset="0.6968" stop-color="#1DB3AD"/>
<stop offset="0.7585" stop-color="#33BAB5"/>
<stop offset="0.8169" stop-color="#51C2BF"/>
<stop offset="0.8729" stop-color="#75CDCC"/>
<stop offset="0.9259" stop-color="#9FD9DA"/>
<stop offset="0.9407" stop-color="#ACDDDF"/>
</linearGradient>
<linearGradient id="paint4_linear_1176_46460" x1="219.929" y1="101.937" x2="222.72" y2="99.703" gradientUnits="userSpaceOnUse">
<stop offset="0.4551" stop-color="#00ABA3"/>
<stop offset="0.5554" stop-color="#03ACA4"/>
<stop offset="0.6302" stop-color="#0DAFA7"/>
<stop offset="0.6968" stop-color="#1DB3AD"/>
<stop offset="0.7585" stop-color="#33BAB5"/>
<stop offset="0.8169" stop-color="#51C2BF"/>
<stop offset="0.8729" stop-color="#75CDCC"/>
<stop offset="0.9259" stop-color="#9FD9DA"/>
<stop offset="0.9407" stop-color="#ACDDDF"/>
</linearGradient>
<linearGradient id="paint5_linear_1176_46460" x1="228.233" y1="83.9942" x2="231.021" y2="81.7626" gradientUnits="userSpaceOnUse">
<stop offset="0.4551" stop-color="#00ABA3"/>
<stop offset="0.5554" stop-color="#03ACA4"/>
<stop offset="0.6302" stop-color="#0DAFA7"/>
<stop offset="0.6968" stop-color="#1DB3AD"/>
<stop offset="0.7585" stop-color="#33BAB5"/>
<stop offset="0.8169" stop-color="#51C2BF"/>
<stop offset="0.8729" stop-color="#75CDCC"/>
<stop offset="0.9259" stop-color="#9FD9DA"/>
<stop offset="0.9407" stop-color="#ACDDDF"/>
</linearGradient>
<linearGradient id="paint6_linear_1176_46460" x1="237.829" y1="91.2382" x2="240.619" y2="89.0059" gradientUnits="userSpaceOnUse">
<stop offset="0.4551" stop-color="#00ABA3"/>
<stop offset="0.5554" stop-color="#03ACA4"/>
<stop offset="0.6302" stop-color="#0DAFA7"/>
<stop offset="0.6968" stop-color="#1DB3AD"/>
<stop offset="0.7585" stop-color="#33BAB5"/>
<stop offset="0.8169" stop-color="#51C2BF"/>
<stop offset="0.8729" stop-color="#75CDCC"/>
<stop offset="0.9259" stop-color="#9FD9DA"/>
<stop offset="0.9407" stop-color="#ACDDDF"/>
</linearGradient>
<radialGradient id="paint7_radial_1176_46460" cx="0" cy="0" r="1" gradientUnits="userSpaceOnUse" gradientTransform="translate(275.36 135.195) scale(82.0829 74.6721)">
<stop stop-color="white" stop-opacity="0"/>
<stop offset="0.5581" stop-color="#F6F8F9"/>
</radialGradient>
<radialGradient id="paint8_radial_1176_46460" cx="0" cy="0" r="1" gradientUnits="userSpaceOnUse" gradientTransform="translate(280.465 145.51) scale(70.0727 63.7462)">
<stop stop-color="white" stop-opacity="0"/>
<stop offset="0.5581" stop-color="#F6F8F9"/>
</radialGradient>
<radialGradient id="paint9_radial_1176_46460" cx="0" cy="0" r="1" gradientUnits="userSpaceOnUse" gradientTransform="translate(293.584 148.437) scale(70.2703 63.926)">
<stop stop-color="white" stop-opacity="0"/>
<stop offset="0.5581" stop-color="#F6F8F9"/>
</radialGradient>
<radialGradient id="paint10_radial_1176_46460" cx="0" cy="0" r="1" gradientUnits="userSpaceOnUse" gradientTransform="translate(305.929 149.278) scale(68.1644 62.0102)">
<stop stop-color="white" stop-opacity="0"/>
<stop offset="0.5581" stop-color="#F6F8F9"/>
</radialGradient>
<radialGradient id="paint11_radial_1176_46460" cx="0" cy="0" r="1" gradientUnits="userSpaceOnUse" gradientTransform="translate(319.615 156.301) scale(69.0902 62.8524)">
<stop stop-color="white" stop-opacity="0"/>
<stop offset="0.5581" stop-color="#F6F8F9"/>
</radialGradient>
<radialGradient id="paint12_radial_1176_46460" cx="0" cy="0" r="1" gradientUnits="userSpaceOnUse" gradientTransform="translate(332.711 158.019) scale(67.5805 61.479)">
<stop stop-color="white" stop-opacity="0"/>
<stop offset="0.5581" stop-color="#F6F8F9"/>
</radialGradient>
<radialGradient id="paint13_radial_1176_46460" cx="0" cy="0" r="1" gradientUnits="userSpaceOnUse" gradientTransform="translate(264.259 143.524) scale(79.7879 72.5843)">
<stop stop-color="white" stop-opacity="0"/>
<stop offset="0.5581" stop-color="#F6F8F9"/>
</radialGradient>
<radialGradient id="paint14_radial_1176_46460" cx="0" cy="0" r="1" gradientUnits="userSpaceOnUse" gradientTransform="translate(255.489 137.473) scale(71.1949 64.7671)">
<stop stop-color="white" stop-opacity="0"/>
<stop offset="0.5581" stop-color="#F6F8F9"/>
</radialGradient>
<radialGradient id="paint15_radial_1176_46460" cx="0" cy="0" r="1" gradientUnits="userSpaceOnUse" gradientTransform="translate(242.308 133.466) scale(67.8917 61.7621)">
<stop stop-color="white" stop-opacity="0"/>
<stop offset="0.5581" stop-color="#F6F8F9"/>
</radialGradient>
<radialGradient id="paint16_radial_1176_46460" cx="0" cy="0" r="1" gradientUnits="userSpaceOnUse" gradientTransform="translate(227.797 134.456) scale(68.6126 62.4179)">
<stop stop-color="white" stop-opacity="0"/>
<stop offset="0.5581" stop-color="#F6F8F9"/>
</radialGradient>
<radialGradient id="paint17_radial_1176_46460" cx="0" cy="0" r="1" gradientUnits="userSpaceOnUse" gradientTransform="translate(214.81 129.774) scale(67.3844 61.3006)">
<stop stop-color="white" stop-opacity="0"/>
<stop offset="0.5581" stop-color="#F6F8F9"/>
</radialGradient>
<radialGradient id="paint18_radial_1176_46460" cx="0" cy="0" r="1" gradientUnits="userSpaceOnUse" gradientTransform="translate(267.983 145.048) scale(78.6306 71.5314)">
<stop stop-color="white" stop-opacity="0"/>
<stop offset="0.5581" stop-color="#F6F8F9"/>
</radialGradient>
<radialGradient id="paint19_radial_1176_46460" cx="0" cy="0" r="1" gradientUnits="userSpaceOnUse" gradientTransform="translate(280.231 161.051) scale(81.3483 74.0038)">
<stop stop-color="white" stop-opacity="0"/>
<stop offset="0.5581" stop-color="#F6F8F9"/>
</radialGradient>
<radialGradient id="paint20_radial_1176_46460" cx="0" cy="0" r="1" gradientUnits="userSpaceOnUse" gradientTransform="translate(280.024 177.524) scale(79.1294 71.9852)">
<stop stop-color="white" stop-opacity="0"/>
<stop offset="0.5581" stop-color="#F6F8F9"/>
</radialGradient>
<radialGradient id="paint21_radial_1176_46460" cx="0" cy="0" r="1" gradientUnits="userSpaceOnUse" gradientTransform="translate(287.9 194.089) scale(77.8726 70.8419)">
<stop stop-color="white" stop-opacity="0"/>
<stop offset="0.5581" stop-color="#F6F8F9"/>
</radialGradient>
<radialGradient id="paint22_radial_1176_46460" cx="0" cy="0" r="1" gradientUnits="userSpaceOnUse" gradientTransform="translate(290.392 208.979) scale(76.6684 69.7465)">
<stop stop-color="white" stop-opacity="0"/>
<stop offset="0.5581" stop-color="#F6F8F9"/>
</radialGradient>
<radialGradient id="paint23_radial_1176_46460" cx="0" cy="0" r="1" gradientUnits="userSpaceOnUse" gradientTransform="translate(296.5 222.444) scale(76.6684 69.7464)">
<stop stop-color="white" stop-opacity="0"/>
<stop offset="0.5581" stop-color="#F6F8F9"/>
</radialGradient>
<radialGradient id="paint24_radial_1176_46460" cx="0" cy="0" r="1" gradientUnits="userSpaceOnUse" gradientTransform="translate(264.902 130.661) scale(79.272 72.1149)">
<stop stop-color="white" stop-opacity="0"/>
<stop offset="0.5581" stop-color="#F6F8F9"/>
</radialGradient>
<radialGradient id="paint25_radial_1176_46460" cx="0" cy="0" r="1" gradientUnits="userSpaceOnUse" gradientTransform="translate(258.681 117.954) scale(76.118 69.2457)">
<stop stop-color="white" stop-opacity="0"/>
<stop offset="0.5581" stop-color="#F6F8F9"/>
</radialGradient>
<radialGradient id="paint26_radial_1176_46460" cx="0" cy="0" r="1" gradientUnits="userSpaceOnUse" gradientTransform="translate(254.338 107.898) scale(73.4417 66.811)">
<stop stop-color="white" stop-opacity="0"/>
<stop offset="0.5581" stop-color="#F6F8F9"/>
</radialGradient>
<radialGradient id="paint27_radial_1176_46460" cx="0" cy="0" r="1" gradientUnits="userSpaceOnUse" gradientTransform="translate(250.979 100.39) scale(71.4506 64.9997)">
<stop stop-color="white" stop-opacity="0"/>
<stop offset="0.5581" stop-color="#F6F8F9"/>
</radialGradient>
<radialGradient id="paint28_radial_1176_46460" cx="0" cy="0" r="1" gradientUnits="userSpaceOnUse" gradientTransform="translate(286.206 138.901) scale(72.5411 65.9917)">
<stop stop-color="white" stop-opacity="0"/>
<stop offset="0.5581" stop-color="#F6F8F9"/>
</radialGradient>
<radialGradient id="paint29_radial_1176_46460" cx="0" cy="0" r="1" gradientUnits="userSpaceOnUse" gradientTransform="translate(298.707 132.064) scale(71.7358 65.2591)">
<stop stop-color="white" stop-opacity="0"/>
<stop offset="0.5581" stop-color="#F6F8F9"/>
</radialGradient>
<radialGradient id="paint30_radial_1176_46460" cx="0" cy="0" r="1" gradientUnits="userSpaceOnUse" gradientTransform="translate(309.109 121.914) scale(71.1281 64.7063)">
<stop stop-color="white" stop-opacity="0"/>
<stop offset="0.5581" stop-color="#F6F8F9"/>
</radialGradient>
<radialGradient id="paint31_radial_1176_46460" cx="0" cy="0" r="1" gradientUnits="userSpaceOnUse" gradientTransform="translate(276.76 150.039) scale(80.0585 72.8304)">
<stop stop-color="white" stop-opacity="0"/>
<stop offset="0.5581" stop-color="#F6F8F9"/>
</radialGradient>
<radialGradient id="paint32_radial_1176_46460" cx="0" cy="0" r="1" gradientUnits="userSpaceOnUse" gradientTransform="translate(264.165 155.857) scale(76.1624 69.286)">
<stop stop-color="white" stop-opacity="0"/>
<stop offset="0.5581" stop-color="#F6F8F9"/>
</radialGradient>
<radialGradient id="paint33_radial_1176_46460" cx="0" cy="0" r="1" gradientUnits="userSpaceOnUse" gradientTransform="translate(251.574 166.949) scale(74.7561 68.0068)">
<stop stop-color="white" stop-opacity="0"/>
<stop offset="0.5581" stop-color="#F6F8F9"/>
</radialGradient>
<radialGradient id="paint34_radial_1176_46460" cx="0" cy="0" r="1" gradientUnits="userSpaceOnUse" gradientTransform="translate(234.903 176.715) scale(82.857 75.3762)">
<stop stop-color="white" stop-opacity="0"/>
<stop offset="0.5581" stop-color="#F6F8F9"/>
</radialGradient>
<radialGradient id="paint35_radial_1176_46460" cx="0" cy="0" r="1" gradientUnits="userSpaceOnUse" gradientTransform="translate(221.194 190.416) scale(82.2897 74.8602)">
<stop stop-color="white" stop-opacity="0"/>
<stop offset="0.5581" stop-color="#F6F8F9"/>
</radialGradient>
<radialGradient id="paint36_radial_1176_46460" cx="0" cy="0" r="1" gradientUnits="userSpaceOnUse" gradientTransform="translate(215.223 209.018) scale(80.0109 72.7871)">
<stop stop-color="white" stop-opacity="0"/>
<stop offset="0.5581" stop-color="#F6F8F9"/>
</radialGradient>
</defs>
</svg>
