<svg width="53" height="123" viewBox="0 0 53 123" fill="none" xmlns="http://www.w3.org/2000/svg">
<path d="M21.4909 9.81223C19.9612 9.75856 18.7087 10.9938 18.7712 12.4943L18.5322 25.6534H25.6773L25.9163 21.1993H26.4358C27.3051 21.1993 28.5073 20.5461 28.5802 19.6962L28.6976 12.7612C28.8236 11.2934 27.6728 10.0205 26.1725 9.96786L21.4909 9.81223Z" fill="#F7ABA6"/>
<path fill-rule="evenodd" clip-rule="evenodd" d="M23.1658 19.9359C25.1227 19.5374 25.077 18.2836 25.0061 16.3447C24.9918 15.9524 24.9764 15.5321 24.9764 15.085V12.0376H17.9393C17.9283 12.0915 17.9312 12.191 17.9454 12.3275V15.085C17.9454 15.3162 17.9438 15.5419 17.9422 15.7614C17.9247 18.2129 17.9126 19.9003 20.2151 20.0079C20.2151 20.0079 22.203 20.2172 23.1658 19.9359Z" fill="#241B14"/>
<path d="M45.9587 22.4384C48.0617 21.8855 49.3097 19.7646 48.7463 17.7012C48.1828 15.6378 46.0211 14.4133 43.9182 14.9662C41.8152 15.5191 40.5672 17.64 41.1306 19.7034C41.6941 21.7667 43.8558 22.9912 45.9587 22.4384Z" fill="#3A4A16"/>
<path d="M45.8349 21.9856C47.683 21.4997 48.7797 19.6359 48.2845 17.8226C47.7893 16.0093 45.8897 14.9332 44.0416 15.4191C42.1935 15.905 41.0967 17.7688 41.5919 19.5821C42.0871 21.3954 43.9868 22.4715 45.8349 21.9856Z" fill="#F6E5C9"/>
<path fill-rule="evenodd" clip-rule="evenodd" d="M45.5176 15.6188C45.5814 15.6355 45.6192 15.6997 45.6021 15.7623L45.4624 16.2738C45.4454 16.3363 45.3798 16.3734 45.3162 16.3567C45.2524 16.3399 45.2146 16.2757 45.2316 16.2131L45.3713 15.7016C45.3884 15.6391 45.4539 15.602 45.5176 15.6188Z" fill="#2B3B0A"/>
<path fill-rule="evenodd" clip-rule="evenodd" d="M44.1211 20.7335C44.1849 20.7503 44.2227 20.8145 44.2057 20.8771L44.066 21.3886C44.0489 21.4511 43.9834 21.4882 43.9197 21.4714C43.8559 21.4547 43.8181 21.3904 43.8351 21.3279L43.9749 20.8164C43.9919 20.7539 44.0574 20.7168 44.1211 20.7335Z" fill="#2B3B0A"/>
<path fill-rule="evenodd" clip-rule="evenodd" d="M47.7015 19.3291C47.6844 19.3916 47.6189 19.4287 47.5552 19.4119L47.0339 19.2749C46.9702 19.2582 46.9323 19.1938 46.9494 19.1314C46.9664 19.0688 47.032 19.0317 47.0958 19.0484L47.6171 19.1855C47.6807 19.2023 47.7186 19.2665 47.7015 19.3291Z" fill="#2B3B0A"/>
<path fill-rule="evenodd" clip-rule="evenodd" d="M42.4886 17.9585C42.4715 18.0209 42.406 18.0581 42.3423 18.0413L41.821 17.9043C41.7572 17.8875 41.7194 17.8233 41.7365 17.7607C41.7536 17.6982 41.8191 17.6611 41.8828 17.6779L42.4041 17.8149C42.4678 17.8317 42.5056 17.8959 42.4886 17.9585Z" fill="#2B3B0A"/>
<path fill-rule="evenodd" clip-rule="evenodd" d="M47.3925 17.0303C47.3594 16.9742 47.2864 16.955 47.2292 16.9874L46.7619 17.2521C46.7047 17.2846 46.6852 17.3562 46.7182 17.4123C46.7511 17.4683 46.8242 17.4875 46.8813 17.4552L47.3488 17.1904C47.4058 17.1581 47.4254 17.0863 47.3925 17.0303Z" fill="#2B3B0A"/>
<path fill-rule="evenodd" clip-rule="evenodd" d="M42.7187 19.6778C42.6856 19.6217 42.6126 19.6025 42.5555 19.6349L42.0881 19.8996C42.0309 19.932 42.0113 20.0037 42.0444 20.0597C42.0773 20.1158 42.1503 20.135 42.2075 20.1026L42.6749 19.8378C42.7321 19.8055 42.7517 19.7339 42.7187 19.6778Z" fill="#2B3B0A"/>
<path fill-rule="evenodd" clip-rule="evenodd" d="M43.175 15.9215C43.2321 15.8891 43.3052 15.9084 43.3382 15.9645L43.608 16.423C43.641 16.4791 43.6215 16.5507 43.5643 16.5831C43.5071 16.6155 43.4341 16.5963 43.4012 16.5402L43.1313 16.0816C43.0982 16.0255 43.1178 15.9539 43.175 15.9215Z" fill="#2B3B0A"/>
<path fill-rule="evenodd" clip-rule="evenodd" d="M45.8732 20.5074C45.9304 20.4751 46.0034 20.4943 46.0364 20.5503L46.3063 21.0089C46.3393 21.0649 46.3197 21.1367 46.2626 21.169C46.2054 21.2013 46.1323 21.1822 46.0993 21.1261L45.8295 20.6676C45.7965 20.6115 45.8161 20.5398 45.8732 20.5074Z" fill="#2B3B0A"/>
<path d="M49.4559 17.0151C51.783 20.6811 49.9882 24.6287 48.8713 26.5266L48.401 27.5092L43.981 25.5167L44.5899 24.4438C43.8206 23.6779 43.6063 22.5285 44.0494 21.5451L45.0881 19.2396C45.2021 18.9864 45.5068 18.8759 45.7613 18.9954C46.009 19.1117 46.1162 19.4033 46.0229 19.6568C45.8669 20.0808 45.6809 20.7216 45.7568 21.2117C45.8452 21.7823 46.6124 21.9138 47.1174 21.6181C48.7522 20.6608 48.3253 17.2448 48.2063 16.8089C48.0326 16.1729 49.2049 15.6106 49.4559 17.0151Z" fill="#F7ABA6"/>
<path d="M46.0827 17.8197C46.1993 17.7911 46.2811 17.9302 46.1975 18.015L45.1572 19.07C45.1417 19.0857 45.122 19.0968 45.1003 19.1022L43.649 19.4587C43.5324 19.4873 43.4506 19.3482 43.5342 19.2634L44.5745 18.2084C44.59 18.1927 44.6097 18.1816 44.6314 18.1762L46.0827 17.8197Z" fill="#2A5F49"/>
<path fill-rule="evenodd" clip-rule="evenodd" d="M45.1886 19.038L45.1572 19.0699C45.1417 19.0856 45.1221 19.0967 45.1004 19.102L43.6491 19.4585C43.5324 19.4872 43.4506 19.3481 43.5342 19.2634L44.5745 18.2084C44.5813 18.2014 44.5889 18.1954 44.5971 18.1904L45.1886 19.038Z" fill="#E04040"/>
<path d="M49.0918 26.6756L44.3871 24.3972C44.2688 24.3399 44.1255 24.3876 44.0671 24.5037L43.4338 25.7627C43.3754 25.8788 43.4239 26.0193 43.5423 26.0767L48.2469 28.355C48.3653 28.4123 48.5085 28.3647 48.567 28.2486L49.2003 26.9896C49.2587 26.8735 49.2101 26.7329 49.0918 26.6756Z" fill="#2A5F49"/>
<path d="M24.6627 21.2969H25.9428L25.8234 22.8205L24.5749 21.4936C24.5042 21.4185 24.5585 21.2969 24.6627 21.2969Z" fill="#DB7D76"/>
<path d="M18.8248 22.0005C18.4151 22.0005 18.083 22.3153 18.083 22.7037V23.8758C18.083 24.1347 17.869 24.3447 17.6052 24.3447H13.6831C11.9535 24.3447 10.557 25.731 10.5774 27.428L10.903 54.5847C10.903 55.3616 11.5673 56.9289 12.3868 56.9289H33.632C34.4601 56.9289 34.9141 55.3487 34.9018 54.5638L33.8382 40.0987L34.447 27.0402C34.4234 25.545 33.1381 24.3447 31.5606 24.3447H27.4444C27.1814 24.3447 26.9679 24.1362 26.9666 23.8782L26.9605 22.7037C26.9605 22.3153 26.6284 22.0005 26.2187 22.0005H18.8248Z" fill="#2A5F49"/>
<path d="M33.7077 39.113C31.5972 36.7297 28.9293 36.0655 27.9736 28.2124L33.9466 34.3073L33.7077 39.113Z" fill="#235842"/>
<path d="M9.36256 26.7443C10.29 24.8787 12.5777 24.0966 14.486 24.9926C16.4634 25.9211 17.2531 28.2798 16.222 30.1779L7.81803 45.6491L6.96797 45.1822C3.98262 43.5426 2.82113 39.9013 4.32118 36.8844L9.36256 26.7443Z" fill="#2A5F49"/>
<path d="M17.7745 49.4095C18.1107 49.9513 17.9465 50.6572 17.4042 51.0023L13.5485 53.4557C13.0049 53.8017 12.2793 53.6593 11.9131 53.1351L5.16451 43.474C3.67253 41.3382 4.22776 38.4201 6.4046 36.9562L8.97601 35.2271L17.7745 49.4095Z" fill="#2A5F49"/>
<path d="M31.5571 24.2274L27.4568 24.3322C27.189 24.3391 26.9679 24.1286 26.9665 23.8659L26.9605 22.7037C26.9605 22.3153 26.6284 22.0005 26.2187 22.0005H18.8248C18.4151 22.0005 18.083 22.3153 18.083 22.7037V23.8758C18.083 24.1347 17.869 24.3447 17.6052 24.3447H13.6831C11.9535 24.3447 10.557 25.731 10.5774 27.428L10.903 54.5847C10.903 55.3616 11.5673 56.9289 12.3868 56.9289H33.632C34.4601 56.9289 34.9141 55.3487 34.9018 54.5638L33.8382 40.5676L34.1426 33.8039" stroke="#1A4E38" stroke-width="4.437"/>
<path d="M43.4513 34.8953C44.9964 36.4361 45.0117 38.9033 43.4858 40.4624C41.8456 42.1381 39.0997 42.0919 37.5191 40.3621L28.809 30.8291C27.4157 29.3041 27.5514 26.9584 29.112 25.5981C30.6118 24.2907 32.8928 24.3659 34.2998 25.7691L43.4513 34.8953Z" fill="#2A5F49"/>
<path d="M30.1243 105.22H36.5751L36.0973 112.018H29.6465L30.1243 105.22Z" fill="#F7ABA6"/>
<path d="M29.8854 108.736H36.3363L36.0973 112.018H29.6465L29.8854 108.736Z" fill="#FDD39B"/>
<path d="M34.402 110.689C34.1952 111.074 33.7885 111.314 33.3455 111.314H32.4991C32.1106 111.314 31.7611 111.082 31.6168 110.728C31.4725 110.374 31.1232 110.142 30.7346 110.142H29.168V117.409H32.8115L34.6332 116.471H36.455L38.9636 116.705L40.0985 117.409H43.742L43.9204 116.184C44.0913 115.01 43.3417 113.896 42.1743 113.588L38.9871 112.749C38.0397 112.5 37.3439 111.708 37.2325 110.751L37.1249 109.827C37.0836 109.472 36.7771 109.204 36.4128 109.204H35.6328C35.367 109.204 35.123 109.348 34.9989 109.579L34.402 110.689Z" fill="#7A431C"/>
<path d="M29.168 115.534C29.4739 115.834 30.0083 116.003 30.441 116.003H43.9185V117.409H39.3742C39.2713 117.128 38.9994 116.94 38.6948 116.94H38.6559C38.3998 116.94 38.1602 117.064 38.0151 117.271L37.9183 117.409H35.9771C35.7515 117.114 35.3974 116.94 35.0215 116.94H34.5813C34.1778 116.94 33.7939 117.111 33.5282 117.409H29.168V115.534Z" fill="#2E1503"/>
<path d="M41.6001 113.438C41.4977 113.553 41.4138 113.687 41.3536 113.834C41.1372 114.365 40.6131 114.713 40.0303 114.713H39.6812C38.9555 114.713 38.3672 115.291 38.3672 116.003H43.9404C44.0133 114.897 43.282 113.88 42.175 113.589L41.6001 113.438Z" fill="#69340E"/>
<path d="M29.168 110.846H30.4773C30.7687 110.846 31.0308 111.019 31.139 111.285C31.3194 111.727 31.7561 112.017 32.2418 112.017H33.9071C34.3687 112.017 34.7891 111.756 34.9867 111.346L35.544 110.193C35.6627 109.946 35.9149 109.79 36.1918 109.79H37.1195C37.0618 109.454 36.7643 109.204 36.4128 109.204H35.6328C35.367 109.204 35.1229 109.348 34.9989 109.579L34.402 110.689C34.1951 111.074 33.7885 111.314 33.3455 111.314H32.4991C32.1106 111.314 31.7611 111.082 31.6168 110.728C31.4725 110.374 31.1231 110.142 30.7346 110.142H29.168V110.846Z" fill="#69340E"/>
<path d="M37.1755 110.259H36.3359C36.138 110.259 35.9775 110.417 35.9775 110.611C35.9775 110.804 36.138 110.962 36.3359 110.962H37.2674C37.2527 110.893 37.2412 110.822 37.2329 110.752L37.2301 110.728H36.3359C36.2699 110.728 36.2165 110.676 36.2165 110.611C36.2165 110.546 36.2699 110.494 36.3359 110.494H37.2029L37.1755 110.259Z" fill="#F6E5C8"/>
<path d="M37.4207 111.431H36.5752C36.3772 111.431 36.2168 111.589 36.2168 111.783C36.2168 111.977 36.3772 112.135 36.5752 112.135H37.9089C37.8347 112.061 37.7655 111.983 37.7018 111.9H36.5752C36.5092 111.9 36.4556 111.847 36.4556 111.783C36.4556 111.719 36.5092 111.666 36.5752 111.666H37.5426C37.4976 111.591 37.4569 111.511 37.4207 111.431Z" fill="#F6E5C8"/>
<path fill-rule="evenodd" clip-rule="evenodd" d="M35.3799 109.556C35.3799 111.012 35.4346 112.145 36.203 112.961C36.9686 113.773 38.4158 114.244 41.1033 114.478L41.1244 114.245C38.4363 114.01 37.0762 113.543 36.3784 112.802C35.6835 112.065 35.6187 111.03 35.6187 109.556H35.3799ZM29.168 114.01C30.5285 114.01 31.4376 114.902 31.4376 116.003H31.6766C31.6766 114.773 30.6604 113.776 29.168 113.776V114.01Z" fill="#69340E"/>
<path d="M11.4883 105.22H17.9391V112.018H11.4883V105.22Z" fill="#F7ABA6"/>
<path d="M11.4883 108.736H17.9391V112.018H11.4883V108.736Z" fill="#FDD39B"/>
<path d="M16.2439 110.689C16.037 111.074 15.6304 111.314 15.1874 111.314H14.341C13.9525 111.314 13.603 111.082 13.4587 110.728C13.3144 110.374 12.965 110.142 12.5765 110.142H11.0098V117.409H14.6534L16.4751 116.471H18.2969L20.8055 116.705L21.9404 117.409H25.5839L25.7623 116.184C25.9332 115.01 25.1836 113.896 24.0162 113.588L20.829 112.749C19.8816 112.5 19.1858 111.708 19.0744 110.751L18.9668 109.827C18.9255 109.472 18.619 109.204 18.2547 109.204H17.4747C17.2089 109.204 16.9648 109.348 16.8408 109.579L16.2439 110.689Z" fill="#7A431C"/>
<path d="M11.0098 115.534C11.3158 115.834 11.8502 116.003 12.2829 116.003H25.7604V117.409H21.2161C21.1132 117.128 20.8413 116.94 20.5366 116.94H20.4978C20.2417 116.94 20.0021 117.064 19.857 117.271L19.7602 117.409H17.819C17.5934 117.114 17.2393 116.94 16.8634 116.94H16.4232C16.0197 116.94 15.6358 117.111 15.3701 117.409H11.0098V115.534Z" fill="#2E1503"/>
<path d="M23.442 113.438C23.3396 113.553 23.2557 113.687 23.1955 113.834C22.9791 114.365 22.455 114.713 21.8722 114.713H21.5231C20.7974 114.713 20.209 115.291 20.209 116.003H25.7822C25.8552 114.897 25.1239 113.88 24.0169 113.589L23.442 113.438Z" fill="#69340E"/>
<path d="M11.0098 110.846H12.3192C12.6106 110.846 12.8727 111.019 12.9809 111.285C13.1613 111.727 13.598 112.017 14.0836 112.017H15.749C16.2106 112.017 16.6309 111.756 16.8286 111.346L17.3859 110.193C17.5045 109.946 17.7567 109.79 18.0337 109.79H18.9614C18.9036 109.454 18.6062 109.204 18.2547 109.204H17.4747C17.2089 109.204 16.9648 109.348 16.8408 109.579L16.2439 110.689C16.037 111.074 15.6304 111.314 15.1874 111.314H14.341C13.9525 111.314 13.603 111.082 13.4587 110.728C13.3144 110.374 12.965 110.142 12.5765 110.142H11.0098V110.846Z" fill="#69340E"/>
<path d="M19.0173 110.259H18.1777C17.9798 110.259 17.8193 110.417 17.8193 110.611C17.8193 110.804 17.9798 110.962 18.1777 110.962H19.1092C19.0945 110.893 19.083 110.822 19.0747 110.752L19.0719 110.728H18.1777C18.1117 110.728 18.0583 110.676 18.0583 110.611C18.0583 110.546 18.1117 110.494 18.1777 110.494H19.0447L19.0173 110.259Z" fill="#F6E5C8"/>
<path d="M19.2625 111.431H18.417C18.219 111.431 18.0586 111.589 18.0586 111.783C18.0586 111.977 18.219 112.135 18.417 112.135H19.7506C19.6764 112.061 19.6072 111.983 19.5436 111.9H18.417C18.351 111.9 18.2974 111.847 18.2974 111.783C18.2974 111.719 18.351 111.666 18.417 111.666H19.3843C19.3394 111.591 19.2987 111.511 19.2625 111.431Z" fill="#F6E5C8"/>
<path fill-rule="evenodd" clip-rule="evenodd" d="M17.2218 109.556C17.2218 111.012 17.2765 112.145 18.0449 112.961C18.8105 113.773 20.2577 114.244 22.9452 114.478L22.9663 114.245C20.2782 114.01 18.9181 113.543 18.2203 112.802C17.5253 112.065 17.4606 111.03 17.4606 109.556H17.2218ZM11.0098 114.01C12.3704 114.01 13.2795 114.902 13.2795 116.003H13.5185C13.5185 114.773 12.5023 113.776 11.0098 113.776V114.01Z" fill="#69340E"/>
<path d="M25.107 55.874H11.3691L12.5637 82.4806L10.6523 108.15H19.9702L23.6138 82.2462L25.107 55.874Z" fill="#CD8C38"/>
<path d="M23.1954 55.874L21.7021 82.2462L18.0586 108.15" stroke="#8E4B0C" stroke-width="3.328"/>
<path d="M34.7825 55.874H20.4473V61.6173L29.5263 83.0667L28.0927 108.267H37.6495L40.0387 81.1913L34.7825 55.874Z" fill="#CD8C38"/>
<path d="M28.0928 108.267L29.5263 83.0667L21.1641 63.3755" stroke="#8E4B0C" stroke-width="3.328" stroke-linecap="round"/>
<path d="M28.0928 104.868H37.8885" stroke="#8E4B0C" stroke-width="3.328"/>
<path d="M10.8906 104.868H20.4474" stroke="#8E4B0C" stroke-width="3.328"/>
<path d="M25.3458 60.6211H30.3632C30.3961 60.6211 30.4229 60.6473 30.4229 60.6797V61.383C30.4229 61.4153 30.3961 61.4415 30.3632 61.4415H25.3458C25.3128 61.4415 25.2861 61.4153 25.2861 61.383V60.6797C25.2861 60.6473 25.3128 60.6211 25.3458 60.6211Z" stroke="#8E4B0C" stroke-width="3.328"/>
<path d="M10.0547 54.3502C10.0547 54.0913 10.2687 53.8813 10.5326 53.8813H35.6192C35.8831 53.8813 36.097 54.0913 36.097 54.3502V57.3977C36.097 57.6566 35.8831 57.8665 35.6192 57.8665H10.5326C10.2687 57.8665 10.0547 57.6566 10.0547 57.3977V54.3502Z" fill="#2A5F49"/>
<path d="M27.4958 12.3892H22.4785V14.1474C22.8182 13.9807 24.3462 14.1719 24.9341 14.244C25.0372 14.2566 25.1205 14.3325 25.1408 14.4327L25.3455 15.4366H25.7038C25.8357 15.4366 25.9375 15.3301 25.9648 15.2034C26.0998 14.5781 26.8248 14.9004 27.2568 14.2646C27.7347 13.5613 27.4958 12.3892 27.4958 12.3892Z" fill="#241B14"/>
<path d="M26.0483 15.4363C26.1672 16.8429 25.5288 16.8429 24.7414 16.8429C23.954 16.8429 23.4346 16.2132 23.4346 15.4363C23.4346 14.6595 23.954 14.0298 24.7414 14.0298C25.5288 14.0298 26.0483 14.6595 26.0483 15.4363Z" fill="#F7ABA6"/>
<path fill-rule="evenodd" clip-rule="evenodd" d="M24.3923 14.8764C24.4437 14.8358 24.519 14.844 24.5602 14.8944L25.1951 15.6697C25.2365 15.7202 25.2282 15.7939 25.1768 15.8345C25.1253 15.8751 25.0502 15.8671 25.0088 15.8165L24.374 15.0412C24.3327 14.9907 24.3409 14.917 24.3923 14.8764Z" fill="#D5726B"/>
<path d="M42.228 26.3898C42.5306 25.8394 43.2204 25.619 43.7955 25.8891L48.2157 27.9661C48.8023 28.2418 49.0564 28.9272 48.7873 29.5081L44.1537 39.5153C43.608 40.694 42.1916 41.2154 40.9903 40.68L38.0042 39.3489C36.7445 38.7874 36.2328 37.2967 36.8895 36.1019L42.228 26.3898Z" fill="#2A5F49"/>
<path d="M26.2832 28.0644L37.6158 40.4656C39.149 42.1434 41.819 42.1683 43.3844 40.5196M30.6021 24.3447L31.5678 24.2921C32.321 24.251 33.0558 24.5294 33.5853 25.0565L40.9952 32.4322" stroke="#183D2E" stroke-width="3.328" stroke-linecap="round"/>
<path d="M17.7002 10.8628C17.7002 8.38499 19.5771 6.29341 22.0821 5.97961L23.2845 5.82905C23.3045 5.82651 23.3249 5.82651 23.345 5.82905L24.5474 5.97961C27.0524 6.29341 28.9293 8.38499 28.9293 10.8628V12.1546C28.9293 12.284 28.8224 12.3889 28.6904 12.3889H17.939C17.8071 12.3889 17.7002 12.284 17.7002 12.1546V10.8628Z" fill="#BD4C00"/>
<path fill-rule="evenodd" clip-rule="evenodd" d="M27.7342 12.3891C27.8661 12.3891 27.9731 12.2842 27.9731 12.1548V10.7521C27.9731 8.32228 26.1663 6.25596 23.7187 5.88648L23.3505 5.8309C23.34 5.82932 23.3293 5.82837 23.3187 5.82816C23.305 5.82795 23.2913 5.82879 23.2779 5.8309L22.9096 5.88648C20.462 6.25596 18.6553 8.32228 18.6553 10.7521V12.1548C18.6553 12.2842 18.7622 12.3891 18.8941 12.3891H27.7342ZM27.7342 12.1548V10.7521C27.7342 8.72874 26.4187 6.96999 24.5299 6.32485C25.6094 7.00253 26.3007 8.1863 26.3007 9.49908V12.1548H27.7342ZM20.3276 9.49908C20.3276 8.1863 21.0188 7.00253 22.0984 6.32485C20.2096 6.96999 18.8941 8.72874 18.8941 10.7521V12.1548H20.3276V9.49908ZM20.5666 9.49908V12.1548H22.0001V7.93579C22.0001 7.30608 22.2545 6.71292 22.6909 6.27624C21.417 6.8376 20.5666 8.08899 20.5666 9.49908ZM23.9374 6.27624C25.2113 6.8376 26.0617 8.08899 26.0617 9.49908V12.1548H24.6282V7.93579C24.6282 7.30608 24.3738 6.71292 23.9374 6.27624ZM24.3893 12.1548V7.93579C24.3893 7.17644 23.9787 6.47615 23.3141 6.09357C22.6496 6.47615 22.239 7.17644 22.239 7.93579V12.1548H24.3893Z" fill="#D56011"/>
<path d="M28.929 11.2168H17.6999C17.5679 11.2168 17.4609 11.3218 17.4609 11.4512V13.0921C17.4609 13.2216 17.5679 13.3265 17.6999 13.3265H28.929C29.061 13.3265 29.168 13.2216 29.168 13.0921V11.4512C29.168 11.3218 29.061 11.2168 28.929 11.2168Z" fill="#9F4000"/>
<path d="M28.2121 11.9204H27.2565C27.1246 11.9204 27.0176 12.0254 27.0176 12.1549V12.6237C27.0176 12.7531 27.1246 12.8581 27.2565 12.8581H28.2121C28.3441 12.8581 28.4511 12.7531 28.4511 12.6237V12.1549C28.4511 12.0254 28.3441 11.9204 28.2121 11.9204Z" fill="#FBBC91"/>
<path d="M23.6659 6.01144C23.6704 5.98915 23.6728 5.96611 23.6728 5.94245C23.6728 5.74825 23.5124 5.59082 23.3144 5.59082C23.1165 5.59082 22.9561 5.74825 22.9561 5.94245C22.9561 5.96611 22.9584 5.98915 22.9629 6.01144L23.3144 5.94245L23.6659 6.01144Z" fill="#BD4C00"/>
<path d="M19.3721 22.2349V24.1102" stroke="#1A4E38" stroke-width="2.219"/>
<path d="M21.2842 22.2349V24.1102" stroke="#1A4E38" stroke-width="2.219"/>
<path d="M25.1064 22.2349V24.1102" stroke="#1A4E38" stroke-width="2.219"/>
<path d="M23.6729 22.2349V24.1102" stroke="#1A4E38" stroke-width="2.219"/>
<path d="M8.86035 36.7686L10.8912 40.6364" stroke="black" stroke-width="2.219"/>
<path d="M47.3426 15.5138C47.5975 15.4468 47.7488 15.1897 47.6805 14.9396C47.6122 14.6896 47.3502 14.5411 47.0953 14.6082C46.8404 14.6752 46.6892 14.9322 46.7575 15.1823C46.8257 15.4324 47.0877 15.5808 47.3426 15.5138Z" stroke="#3A4A16" stroke-width="4.437"/>
<path d="M29.6465 83.301L31.7967 82.4805" stroke="#8E4B0C" stroke-width="3.328" stroke-linecap="round"/>
<path d="M29.6465 83.3008L31.6773 83.8868" stroke="#8E4B0C" stroke-width="3.328" stroke-linecap="round"/>
<path d="M20.4478 61.2653C15.072 65.6021 11.6077 63.0234 11.6077 63.0234L11.4883 57.8662H35.4997C33.9467 59.976 23.4343 58.856 20.4478 61.2653Z" fill="#CB712F"/>
<path d="M30.3628 15.4365V24.5789H6.94863V24.5775C4.43085 24.5153 2.40918 22.4931 2.40918 20.0077C2.40918 17.5223 4.43085 15.5002 6.94863 15.438V15.4365H30.3628Z" fill="#DB552B"/>
<path d="M2.6748 21.5312H29.4076V24.5787H6.94914V24.5773C4.97258 24.5285 3.30175 23.2718 2.6748 21.5312Z" fill="#C04923"/>
<path d="M25.1061 15.4363H28.7609C27.8018 14.5635 26.5175 14.0298 25.1061 14.0298C22.1372 14.0298 19.7305 16.3912 19.7305 19.3043V24.5786H21.164V19.3043C21.164 17.1681 22.9289 15.4363 25.1061 15.4363Z" fill="#7A431C"/>
<path d="M13.1609 15.4363H16.8157C15.8566 14.5635 14.5722 14.0298 13.1609 14.0298C10.1919 14.0298 7.78516 16.3912 7.78516 19.3043V24.5786H9.21866V19.3043C9.21866 17.1681 10.9837 15.4363 13.1609 15.4363Z" fill="#7A431C"/>
<path d="M30.0042 24.5788C27.4312 24.5788 25.3453 22.5322 25.3453 20.0076C25.3453 17.4831 27.4312 15.4365 30.0042 15.4365C32.5772 15.4365 34.6631 17.4831 34.6631 20.0076C34.6631 22.5322 32.5772 24.5788 30.0042 24.5788Z" fill="#D04219"/>
<path d="M30.0041 23.1725C28.2228 23.1725 26.7787 21.7557 26.7787 20.0079C26.7787 18.2601 28.2228 16.8433 30.0041 16.8433C31.7854 16.8433 33.2295 18.2601 33.2295 20.0079C33.2295 21.7557 31.7854 23.1725 30.0041 23.1725Z" stroke="#DC5531" stroke-width="4.437"/>
<path d="M30.0043 21.2969C29.2785 21.2969 28.6902 20.7197 28.6902 20.0076C28.6902 19.2955 29.2785 18.7183 30.0043 18.7183C30.73 18.7183 31.3184 19.2955 31.3184 20.0076C31.3184 20.7197 30.73 21.2969 30.0043 21.2969Z" stroke="#DC5531" stroke-width="4.437"/>
<path d="M32.2737 25.5163C32.2737 24.9985 31.8458 24.5786 31.3181 24.5786H6.94824V57.8662C6.94824 58.9019 7.8039 59.7416 8.85954 59.7416H31.3181C31.8458 59.7416 32.2737 59.3217 32.2737 58.8039V25.5163Z" fill="#495927"/>
<path d="M5.03711 55.991C5.03711 56.8973 5.78584 57.6319 6.70956 57.6319H23.9118C24.7035 57.6319 25.3453 57.0022 25.3453 56.2254V43.5669C25.3453 42.2721 24.2755 41.2227 22.9561 41.2227H7.42631C6.10674 41.2227 5.03711 42.2721 5.03711 43.5669V55.991Z" fill="#2B3C0A"/>
<path d="M5.03711 46.6143C5.03711 47.5205 5.78584 48.2552 6.70956 48.2552H20.5669C21.3586 48.2552 22.0004 47.6254 22.0004 46.8486V43.5058C22.0004 42.7365 22.385 42.0162 23.0296 41.5784L23.5534 41.2227H7.42631C6.10674 41.2227 5.03711 42.2721 5.03711 43.5669V46.6143Z" fill="#1E2809"/>
<path d="M22.001 55.5808C22.001 56.7137 22.937 57.6319 24.0916 57.6319C24.7843 57.6319 25.3459 57.0809 25.3459 56.4013V42.8636C25.3459 41.9573 24.597 41.2227 23.6734 41.2227C22.7497 41.2227 22.001 41.9573 22.001 42.8636V55.5808Z" fill="#253308"/>
<path d="M4.79785 26.9228C4.79785 25.6282 5.86748 24.5786 7.18705 24.5786H25.345V35.5964H5.75355C5.22568 35.5964 4.79785 35.1766 4.79785 34.6587V26.9228Z" fill="#2B3B0A"/>
<path d="M22.9561 26.9228C22.9561 25.6282 24.0257 24.5786 25.3453 24.5786V35.5964H23.9118C23.3839 35.5964 22.9561 35.1766 22.9561 34.6587V26.9228Z" fill="#2B3B0A"/>
<path d="M22.001 26.9228C22.001 25.6282 23.0706 24.5786 24.3902 24.5786H25.3459V35.5964H22.9567C22.4288 35.5964 22.001 35.1766 22.001 34.6587V26.9228Z" fill="#253308"/>
<path d="M25.3457 24.5786H31.3187C31.8464 24.5786 32.2744 24.9985 32.2744 25.5163V58.8039C32.2744 59.3217 31.8464 59.7416 31.3187 59.7416H27.257C26.2014 59.7416 25.3457 58.9019 25.3457 57.8662V24.5786Z" fill="#3A4A16"/>
<path d="M26.4937 59.5862C25.818 59.2971 25.3457 58.6358 25.3457 57.8663V54.0824L28.0608 51.4185L29.7501 53.076L31.3187 53.9985V54.8189L26.4937 59.5862Z" fill="#304207"/>
<path d="M29.4072 24.5786H28.6904V31.2596C28.6904 31.4538 28.8509 31.6112 29.0488 31.6112C29.2467 31.6112 29.4072 31.4538 29.4072 31.2596V24.5786Z" fill="#2B3B0A"/>
<path d="M28.213 45.4424H29.6465V46.3801H28.213V45.4424Z" fill="#B1320A"/>
<path d="M31.3184 47.3176C31.3184 46.5408 30.6766 45.9111 29.8849 45.9111H27.9736C27.1819 45.9111 26.54 46.5408 26.54 47.3176V52.7093H31.3184V47.3176Z" fill="#D34316"/>
<path d="M31.3184 52.7093H27.2568V47.3176C27.2568 46.5408 27.9841 45.9111 28.8815 45.9111H29.6937C30.7212 45.9111 31.3184 46.5408 31.3184 47.3176V52.7093Z" fill="#DB552B"/>
<path d="M28.2123 44.27H29.6458C29.7778 44.27 29.8848 44.375 29.8848 44.5045V45.4421C29.8848 45.5716 29.7778 45.6765 29.6458 45.6765H28.2123C28.0803 45.6765 27.9734 45.5716 27.9734 45.4421V44.5045C27.9734 44.375 28.0803 44.27 28.2123 44.27Z" fill="#D04219"/>
<path d="M31.557 48.4897H26.3008V54.3503C26.3008 54.9975 26.8357 55.5223 27.4953 55.5223H28.9288H30.3624C31.0221 55.5223 31.557 54.9975 31.557 54.3503V48.4897Z" fill="#2B3B0A"/>
<path d="M34.6212 48.9844L33.5488 49.7202V53.4579L36.3017 51.2841C36.3329 51.2208 36.3495 51.1511 36.3495 51.0796V49.4533C36.3495 49.1943 36.1356 48.9844 35.8717 48.9844H34.6212Z" fill="#263408"/>
<path d="M31.7959 49.9224C31.7959 49.6634 32.0099 49.4536 32.2737 49.4536H35.393C35.6568 49.4536 35.8708 49.6634 35.8708 49.9224V51.5489C35.8708 51.6611 35.8298 51.7697 35.7551 51.8548L34.0228 53.8292C33.932 53.9327 33.7998 53.9922 33.6607 53.9922H32.2737C32.0099 53.9922 31.7959 53.7822 31.7959 53.5234V49.9224Z" fill="#2B3B0A"/>
<path d="M29.5859 44.6216C29.5859 44.5893 29.6128 44.563 29.6457 44.563C29.6787 44.563 29.7055 44.5893 29.7055 44.6216V45.3249C29.7055 45.3572 29.6787 45.3835 29.6457 45.3835C29.6128 45.3835 29.5859 45.3572 29.5859 45.3249V44.6216Z" fill="#B1320A"/>
<path d="M29.1084 44.6216C29.1084 44.5893 29.1351 44.563 29.1682 44.563C29.2011 44.563 29.2278 44.5893 29.2278 44.6216V45.3249C29.2278 45.3572 29.2011 45.3835 29.1682 45.3835C29.1351 45.3835 29.1084 45.3572 29.1084 45.3249V44.6216Z" fill="#B1320A"/>
<path d="M28.6905 44.563C28.6576 44.563 28.6309 44.5893 28.6309 44.6216V45.3249C28.6309 45.3572 28.6576 45.3835 28.6905 45.3835C28.7236 45.3835 28.7503 45.3572 28.7503 45.3249V44.6216C28.7503 44.5893 28.7236 44.563 28.6905 44.563Z" fill="#B1320A"/>
<path d="M28.1523 44.6216C28.1523 44.5893 28.1792 44.563 28.2121 44.563C28.2451 44.563 28.2719 44.5893 28.2719 44.6216V45.3249C28.2719 45.3572 28.2451 45.3835 28.2121 45.3835C28.1792 45.3835 28.1523 45.3572 28.1523 45.3249V44.6216Z" fill="#B1320A"/>
<path d="M20.0888 31.8457H18.8942C18.7623 31.8457 18.6553 31.9507 18.6553 32.0802V40.7536C18.6553 40.8831 18.7623 40.988 18.8942 40.988H20.0888C20.2207 40.988 20.3277 40.8831 20.3277 40.7536V32.0802C20.3277 31.9507 20.2207 31.8457 20.0888 31.8457Z" fill="#7A431C"/>
<path d="M10.2939 31.8457H9.0993C8.96733 31.8457 8.86035 31.9507 8.86035 32.0802V40.7536C8.86035 40.8831 8.96733 40.988 9.0993 40.988H10.2939C10.4258 40.988 10.5328 40.8831 10.5328 40.7536V32.0802C10.5328 31.9507 10.4258 31.8457 10.2939 31.8457Z" fill="#7A431C"/>
<path d="M11.2491 37.2373H8.14325C8.01128 37.2373 7.9043 37.3423 7.9043 37.4718V38.175C7.9043 38.3045 8.01128 38.4095 8.14325 38.4095H11.2491C11.3811 38.4095 11.488 38.3045 11.488 38.175V37.4718C11.488 37.3423 11.3811 37.2373 11.2491 37.2373Z" fill="#3A4A16"/>
<path d="M21.045 37.2373H17.9391C17.8072 37.2373 17.7002 37.3423 17.7002 37.4718V38.175C17.7002 38.3045 17.8072 38.4095 17.9391 38.4095H21.045C21.177 38.4095 21.2839 38.3045 21.2839 38.175V37.4718C21.2839 37.3423 21.177 37.2373 21.045 37.2373Z" fill="#3A4A16"/>
<path d="M19.6116 55.405C20.0734 55.405 20.4477 55.0377 20.4477 54.5846C20.4477 54.1315 20.0734 53.7642 19.6116 53.7642C19.1498 53.7642 18.7754 54.1315 18.7754 54.5846C18.7754 55.0377 19.1498 55.405 19.6116 55.405Z" stroke="#495927" stroke-width="2.219"/>
<path d="M7.66528 55.405C8.12708 55.405 8.50144 55.0377 8.50144 54.5846C8.50144 54.1315 8.12708 53.7642 7.66528 53.7642C7.20347 53.7642 6.8291 54.1315 6.8291 54.5846C6.8291 55.0377 7.20347 55.405 7.66528 55.405Z" stroke="#495927" stroke-width="2.219"/>
<path fill-rule="evenodd" clip-rule="evenodd" d="M15.0475 27.0886C14.9541 26.9971 14.8028 26.9971 14.7096 27.0886L12.8513 28.9121C12.7579 29.0036 12.7579 29.152 12.8513 29.2435L14.7096 31.0669C14.8028 31.1584 14.9541 31.1584 15.0475 31.0669L16.9058 29.2435C16.9991 29.152 16.9991 29.0036 16.9058 28.9121L15.0475 27.0886ZM15.1705 27.9578C15.2315 27.9578 15.2927 27.9806 15.3394 28.0263L16.1961 28.8669C16.2894 28.9585 16.2894 29.1069 16.1961 29.1985L15.3394 30.0391C15.2927 30.0848 15.2315 30.1077 15.1705 30.1077V27.9578ZM14.5936 27.9578C14.5324 27.9578 14.4714 27.9806 14.4247 28.0263L13.568 28.8669C13.4747 28.9585 13.4747 29.1069 13.568 29.1985L14.4247 30.0391C14.4714 30.0848 14.5324 30.1078 14.5936 30.1078V27.9578Z" fill="#3A4A16"/>
<path d="M39.833 19.5207C39.4292 16.7001 41.4323 14.0924 44.307 13.6963" stroke="black" stroke-width="2.219" stroke-linecap="round"/>
</svg>
