<svg width="30" height="30" viewBox="0 0 30 30" fill="none" xmlns="http://www.w3.org/2000/svg">
<path fill-rule="evenodd" clip-rule="evenodd" d="M12.8597 0.939216C11.7704 0.975778 11.8547 2.59296 12.9422 2.5189H13.7569V4.32827H15.36V2.5189H16.1504C17.2435 2.54234 17.2435 0.915778 16.1504 0.939216H12.8597ZM8.37754 2.79356C8.28754 2.79356 8.19941 2.8123 8.12254 2.8573L6.45379 3.80791C5.91098 4.11728 6.37598 4.93292 6.91973 4.62261L7.38285 4.35917L8.34191 6.19949L9.15098 5.72513L8.19754 3.89419L8.58754 3.67012C9.00379 3.44043 8.85285 2.80767 8.37754 2.79173V2.79356ZM21.015 2.79356C20.5472 2.8245 20.4094 3.44798 20.821 3.67298L21.226 3.90358L19.8629 6.22856L20.671 6.70292L22.0397 4.36855L22.4897 4.62456C23.0288 4.92456 23.4863 4.12298 22.9538 3.80985L21.286 2.86016C21.2044 2.81132 21.1099 2.78842 21.015 2.79453V2.79356Z" fill="#1B3D6F"/>
<path d="M14.5294 4.0293C7.54875 4.0293 1.875 9.63642 1.875 16.5467C1.875 23.4561 7.54875 29.0624 14.5294 29.0624C21.51 29.0624 27.1838 23.4561 27.1838 16.5467C27.1838 9.63736 21.51 4.0293 14.5294 4.0293ZM14.5294 4.9668C21.0094 4.9668 26.2463 10.1492 26.2463 16.5467C26.2463 22.9442 21.0094 28.1249 14.5294 28.1249C8.05031 28.1249 2.8125 22.9433 2.8125 16.5467C2.8125 10.1492 8.04938 4.9668 14.5294 4.9668Z" fill="#1B3D6F"/>
<path d="M14.5294 9.34277C10.5291 9.34277 7.25439 12.5743 7.25439 16.5465C7.25439 20.5187 10.5291 23.7475 14.5294 23.7475C18.5297 23.7475 21.8044 20.5187 21.8044 16.5465C21.8044 12.5743 18.5297 9.34277 14.5294 9.34277ZM14.5294 11.2178C17.5285 11.2178 19.9294 13.599 19.9294 16.5465C19.9294 19.494 17.5285 21.8725 14.5294 21.8725C11.5303 21.8725 9.12939 19.494 9.12939 16.5465C9.12939 13.599 11.5303 11.2178 14.5294 11.2178Z" fill="#F8B84E"/>
<path fill-rule="evenodd" clip-rule="evenodd" d="M3.80627 16.0777V17.0152H5.75627V16.0777H3.80627ZM23.3035 16.0777V17.0152H25.2525V16.0777H23.3035ZM14.0606 5.94434V7.87278H14.9981V5.94434H14.0606ZM14.0606 25.2193V27.1477H14.9981V25.2203H14.0606V25.2193ZM9.57284 7.12937L8.76377 7.60178L9.73784 9.26965L10.5469 8.79712L9.5719 7.12834L9.57284 7.12937ZM19.321 23.8206L18.5119 24.2931L19.4869 25.9637L20.295 25.4912L19.321 23.8206ZM23.5838 10.839L21.8963 11.8019L22.3613 12.6175L24.0488 11.6518L23.5838 10.839ZM6.69846 20.4765L5.01002 21.4384L5.47502 22.254L7.16252 21.2903L6.69846 20.4765ZM5.47502 10.839L5.01002 11.6518L6.69752 12.6175L7.16346 11.8019L5.47502 10.839ZM22.3613 20.4765L21.8953 21.2903L23.5838 22.254L24.0488 21.4403L22.3613 20.4765ZM19.486 7.12937L18.5119 8.79803L19.321 9.26965L20.296 7.60087L19.486 7.12937ZM9.73784 23.8206L8.76284 25.4912L9.57284 25.9637L10.5469 24.2931L9.73784 23.8206Z" fill="#2B4255"/>
<path d="M12.7713 19.3359C12.7217 19.3359 12.6753 19.3204 12.632 19.2894C12.5299 19.2118 12.5082 19.0658 12.5856 18.9634L16.3985 13.8628C16.4759 13.7603 16.6213 13.7386 16.7235 13.8162C16.8256 13.8938 16.8473 14.0397 16.7699 14.1422L12.957 19.2428C12.9105 19.3049 12.8424 19.3359 12.7713 19.3359Z" fill="#1B3D6F"/>
<path d="M13.418 15.2344C13.7739 15.2344 14.0625 14.9589 14.0625 14.6191C14.0625 14.2794 13.7739 14.0039 13.418 14.0039C13.062 14.0039 12.7734 14.2794 12.7734 14.6191C12.7734 14.9589 13.062 15.2344 13.418 15.2344Z" fill="#1B3D6F"/>
<path d="M15.9668 19.1016C16.3066 19.1016 16.582 18.813 16.582 18.457C16.582 18.1011 16.3066 17.8125 15.9668 17.8125C15.627 17.8125 15.3516 18.1011 15.3516 18.457C15.3516 18.813 15.627 19.1016 15.9668 19.1016Z" fill="#1B3D6F"/>
</svg>
