<svg width="69" height="61" viewBox="0 0 69 61" fill="none" xmlns="http://www.w3.org/2000/svg">
<path d="M61.6888 55.2502C56.731 48.8282 53.2746 41.4969 51.6071 33.8663C51.358 32.731 50.9235 31.3642 49.6521 31.093C48.796 30.9123 47.9399 31.3359 47.2307 31.7991C44.4068 33.646 42.356 36.4023 41.551 39.4241C41.206 40.7288 40.8099 42.3611 39.3341 42.6887C38.3055 42.9203 37.2768 42.3385 36.5293 41.672C34.5041 39.8646 33.533 37.3568 32.6321 34.9394C30.888 30.2854 29.1438 25.6256 27.406 20.9716C27.1632 20.3164 26.831 19.5821 26.1027 19.3449C25.4766 19.1359 24.7802 19.3788 24.1924 19.6555C21.5218 20.9207 19.4838 23.0614 18.0271 25.411C16.5641 27.7606 15.6313 30.3249 14.7049 32.8779C12.0663 40.1357 9.42767 47.388 6.78906 54.6458L61.6888 55.2502Z" fill="#E9F9FF"/>
<path d="M62.7749 38.0346C64.666 38.944 65.9502 40.7119 65.9502 42.7508C65.9502 45.7105 63.2349 48.1109 59.8871 48.1109C57.306 48.1109 55.0955 46.682 54.2266 44.6712L62.7749 38.0346Z" fill="#CCEEFF"/>
<path d="M53.3994 44.7051C58.7027 44.7051 63.0019 40.9044 63.0019 36.2159C63.0019 31.5275 58.7027 27.7268 53.3994 27.7268C48.0961 27.7268 43.7969 31.5275 43.7969 36.2159C43.7969 40.9044 48.0961 44.7051 53.3994 44.7051Z" fill="#B0E1FF"/>
<path d="M53.3969 52.9853C53.2755 52.9853 53.1797 52.9006 53.1797 52.7932V36.2159C53.1797 36.1086 53.2755 36.0239 53.3969 36.0239C53.5183 36.0239 53.6141 36.1086 53.6141 36.2159V52.7932C53.6141 52.9006 53.5183 52.9853 53.3969 52.9853Z" fill="#CCEEFF"/>
<path d="M53.3975 40.8022C53.34 40.8022 53.2825 40.7853 53.2442 40.7457L50.5545 38.3679C50.4714 38.2944 50.4714 38.1702 50.5545 38.0911C50.6375 38.0177 50.7781 38.0177 50.8675 38.0911L53.5573 40.469C53.6403 40.5424 53.6403 40.6667 53.5573 40.7457C53.5125 40.7853 53.455 40.8022 53.3975 40.8022ZM53.3975 43.0106C53.34 43.0106 53.2825 42.9937 53.2442 42.9542L50.5545 40.5763C50.4714 40.5029 50.4714 40.3786 50.5545 40.2995C50.6375 40.2261 50.7781 40.2261 50.8675 40.2995L53.5573 42.6774C53.6403 42.7508 53.6403 42.8751 53.5573 42.9542C53.5125 42.9937 53.455 43.0106 53.3975 43.0106ZM59.8503 52.9853C59.7417 52.9683 59.6714 52.878 59.6714 52.7819V44.0951C59.6714 43.9878 59.7609 43.8974 59.8823 43.8918C60.01 43.8861 60.1123 43.9765 60.1123 44.0838V52.7932C60.1059 52.9119 59.9845 53.0022 59.8503 52.9853Z" fill="#CCEEFF"/>
<path d="M59.8875 45.3546C59.83 45.3546 59.7725 45.3377 59.7342 45.2981C59.6511 45.2247 59.6511 45.1005 59.7342 45.0214L61.67 43.31C61.7531 43.2366 61.8936 43.2366 61.9831 43.31C62.0661 43.3834 62.0661 43.5077 61.9831 43.5868L60.0408 45.2981C59.9961 45.3377 59.945 45.3546 59.8875 45.3546ZM59.8875 46.9474C59.83 46.9474 59.7725 46.9305 59.7342 46.8909C59.6511 46.8175 59.6511 46.6932 59.7342 46.6142L61.67 44.9028C61.7531 44.8294 61.8936 44.8294 61.9831 44.9028C62.0661 44.9762 62.0661 45.1005 61.9831 45.1795L60.0472 46.8909C59.9961 46.9248 59.945 46.9474 59.8875 46.9474Z" fill="#CCEEFF"/>
<path d="M11.8447 44.7051C17.148 44.7051 21.4472 40.9044 21.4472 36.2159C21.4472 31.5275 17.148 27.7268 11.8447 27.7268C6.54137 27.7268 2.24219 31.5275 2.24219 36.2159C2.24219 40.9044 6.54137 44.7051 11.8447 44.7051Z" fill="#B0E1FF"/>
<path d="M11.8422 52.9853C11.7208 52.9853 11.625 52.9006 11.625 52.7932V36.2159C11.625 36.1086 11.7208 36.0239 11.8422 36.0239C11.9636 36.0239 12.0594 36.1086 12.0594 36.2159V52.7932C12.0658 52.9006 11.9636 52.9853 11.8422 52.9853Z" fill="#CCEEFF"/>
<path d="M11.8428 40.8022C11.7853 40.8022 11.7278 40.7853 11.6895 40.7457L8.99979 38.3679C8.91674 38.2944 8.91674 38.1702 8.99979 38.0911C9.08285 38.0177 9.2234 38.0177 9.31285 38.0911L12.0026 40.469C12.0856 40.5424 12.0856 40.6667 12.0026 40.7457C11.9578 40.7853 11.9003 40.8022 11.8428 40.8022ZM11.8428 43.0106C11.7853 43.0106 11.7278 42.9937 11.6895 42.9542L8.99979 40.5763C8.91674 40.5029 8.91674 40.3786 8.99979 40.2995C9.08285 40.2261 9.2234 40.2261 9.31285 40.2995L12.0026 42.6774C12.0856 42.7508 12.0856 42.8751 12.0026 42.9542C11.9578 42.9937 11.9003 43.0106 11.8428 43.0106Z" fill="#CCEEFF"/>
<path d="M64.6914 56.5944H4.30365C3.93309 56.5944 3.63281 56.329 3.63281 56.0014V53.279C3.63281 52.9514 3.93309 52.6859 4.30365 52.6859H64.6978C65.0684 52.6859 65.3686 52.9514 65.3686 53.279V56.0014C65.3686 56.329 65.062 56.5944 64.6914 56.5944Z" fill="#F2F2F2"/>
<path d="M45.3097 53.5445C45.8975 53.9342 46.2744 54.2618 46.3639 54.3408C46.4853 54.4425 46.4278 54.9 46.153 55.222C46.1083 55.2784 46.0508 55.3293 45.9933 55.3745C44.7092 55.815 42.5753 54.5216 42.4539 54.4482C42.3325 54.3747 40.5244 53.9963 40.32 53.7591C40.1347 53.5445 40.4158 53.4202 40.4861 53.0813C40.4925 53.0474 40.4989 53.0135 40.4989 52.974C40.518 52.556 40.8694 51.6297 41.1697 51.5507L42.1664 51.7992L42.2303 51.8161C42.2303 51.8161 42.7861 51.6241 43.0033 51.5902C43.2269 51.562 44.083 52.2962 44.4792 52.8554C44.6389 53.07 44.9583 53.3185 45.3097 53.5445Z" fill="#2A94F4"/>
<path d="M45.3117 53.5444C44.9539 53.567 44.5642 53.4371 44.4428 53.3863C44.3022 53.3242 44.0275 52.8723 43.8805 52.7932C43.74 52.7085 42.1236 52.347 42.0725 52.0872C42.0597 52.0251 42.1044 51.9234 42.1747 51.8048L42.2386 51.8218C42.2386 51.8218 42.7944 51.6297 43.0117 51.5958C43.2353 51.5676 44.0914 52.3019 44.4875 52.861C44.6408 53.07 44.9603 53.3185 45.3117 53.5444Z" fill="#0B4870"/>
<path d="M46.1609 55.2219C46.1161 55.2784 46.0586 55.3293 46.0011 55.3744C44.717 55.815 42.5831 54.5216 42.4617 54.4482C42.3403 54.3747 40.5322 53.9963 40.3278 53.7591C40.1425 53.5444 40.4236 53.4202 40.4939 53.0813C40.9475 53.1604 41.2542 53.1886 41.6567 53.375C42.1614 53.6122 44.8 55.4253 46.1609 55.2219Z" fill="#B0E1FF"/>
<path d="M41.3665 38.4526C42.4845 39.8251 44.7526 44.4848 44.6184 44.7672C44.4842 45.0496 42.8551 52.4035 42.8551 52.4035C42.8551 52.4035 41.1109 52.5956 41.0853 51.9856C41.0598 51.3756 41.507 46.2131 42.3184 45.2925C41.769 44.7107 38.4531 39.8194 38.4531 39.8194L41.3665 38.4526Z" fill="#FFCEA6"/>
<path d="M22.748 47.7777C22.831 48.5063 22.8246 49.0259 22.8246 49.1502C22.8246 49.3196 22.4541 49.5569 22.0452 49.5286C21.9749 49.523 21.9046 49.5117 21.8343 49.4891C20.7035 48.7096 20.3202 46.1341 20.301 45.9872C20.2755 45.8404 19.4257 44.1064 19.4705 43.7901C19.5152 43.502 19.7835 43.6602 20.0774 43.502C20.1093 43.4851 20.1349 43.4682 20.1668 43.4456C20.4863 43.2027 21.3871 42.909 21.6299 43.1123L22.0707 44.0951L22.0963 44.1572C22.0963 44.1572 22.5882 44.4905 22.748 44.6543C22.9077 44.8181 22.9013 45.9872 22.7416 46.6707C22.6841 46.9305 22.7032 47.3484 22.748 47.7777Z" fill="#2A94F4"/>
<path d="M22.7479 47.7777C22.5115 47.4953 22.3582 47.0943 22.3198 46.9644C22.2751 46.8119 22.4348 46.2979 22.4093 46.1284C22.3773 45.959 21.6362 44.3944 21.796 44.1968C21.8343 44.1459 21.9365 44.1177 22.0643 44.1007L22.0898 44.1629C22.0898 44.1629 22.5818 44.4961 22.7415 44.6599C22.9012 44.8237 22.8948 45.9929 22.7351 46.6763C22.684 46.9305 22.7032 47.3484 22.7479 47.7777Z" fill="#0B4870"/>
<path d="M33.9253 37.8878C32.9798 38.8875 30.6414 41.2428 30.0217 42.1747C28.2903 42.5927 22.502 42.5249 21.4414 43.2366C21.2434 44.321 21.9462 44.53 21.9462 44.53L29.7598 44.9254C30.3795 44.8633 31.3953 44.6034 31.8809 44.1855C32.967 43.2535 37.1198 39.5822 37.1134 39.136C37.107 38.5147 33.9253 37.8878 33.9253 37.8878Z" fill="#FFCEA6"/>
<path d="M34.2996 35.1993C33.4307 36.2668 31.1562 40.1922 31.1562 40.1922L35.1365 41.7059L38.3054 38.4526L34.2996 35.1993Z" fill="#FFBE55"/>
<path d="M40.1964 35.8375C40.8417 36.6678 42.5667 39.5935 42.5667 39.5935L38.4842 41.7003C38.4842 41.7003 33.437 37.3512 34.0056 35.5607C35.8264 34.674 39.5128 34.8378 40.1964 35.8375Z" fill="#FFBE55"/>
<path d="M38.2225 30.0481C39.9092 30.082 41.2317 29.1275 41.762 28.7095C42.6564 28.9468 42.9056 28.9129 42.9056 28.9129C42.9056 28.9129 41.0975 31.4771 39.2256 31.4545C37.36 31.4319 38.2225 30.0481 38.2225 30.0481Z" fill="#FFCEA6"/>
<path d="M40.5187 36.0408C40.5187 36.0408 39.2984 35.075 37.7907 35.4704C36.2765 35.8657 33.5229 35.4704 33.5229 35.4704L34.0084 32.8553L34.232 31.6409L35.0307 27.3257L33.7018 27.8341C33.7018 27.8341 32.424 25.6991 32.3984 25.6257C35.5929 23.0557 37.5351 23.5641 38.1995 23.6883C38.1995 23.6883 38.257 23.8521 39.7457 24.5017C41.2279 25.1456 40.5187 36.0408 40.5187 36.0408Z" fill="#2A94F4"/>
<path d="M39.5957 22.4288V25.1738L37.7109 24.0046L37.8195 22.2424L38.8737 21.254L39.5957 22.4288Z" fill="#FFCEA6"/>
<path d="M36.9757 19.1924C36.6435 19.4748 36.5668 20.322 36.5477 20.7231C36.5413 20.8643 36.5732 20.9998 36.6435 21.1297C36.9438 21.6663 37.7807 23.0445 37.8893 23.1405C38.081 22.9145 38.4388 22.6717 38.4388 22.6717L38.5921 21.6663L38.656 20.0227L36.9757 19.1924Z" fill="#0B4870"/>
<path d="M41.415 21.6663C41.415 22.6547 41.415 23.4229 40.5844 23.4229C38.9808 23.5358 38.2141 22.971 38.2141 21.6381C38.2141 20.6496 37.1855 19.8532 39.7219 19.8532C40.5461 19.8532 41.415 20.6779 41.415 21.6663Z" fill="#FFE3CA"/>
<path d="M38.6546 20.2486C39.3574 20.4181 41.0313 20.2373 41.2868 19.9775C41.4785 19.7798 41.1719 18.7293 40.6607 18.7293C40.1496 18.7293 39.4277 18.4412 39.4277 18.4412C39.4277 18.4412 39.4085 18.6615 39.5363 18.718C39.6641 18.7744 37.1852 18.6671 36.8657 19.3506C36.8593 19.3393 36.476 20.1357 38.6546 20.2486Z" fill="#0B4870"/>
<path d="M39.1707 19.9662C39.0174 20.5875 38.8641 21.4968 38.0207 21.3839C37.1774 21.2709 37.8674 19.6838 37.8674 19.6838L39.1707 19.9662Z" fill="#0B4870"/>
<path d="M38.2545 22.1312C38.5007 22.064 38.6066 21.7414 38.4911 21.4105C38.3756 21.0797 38.0824 20.8659 37.8363 20.933C37.5901 21.0002 37.4843 21.3229 37.5998 21.6537C37.7153 21.9846 38.0084 22.1983 38.2545 22.1312Z" fill="#FFE3CA"/>
<path d="M35.0632 32.6971C35.0632 32.6971 34.8716 32.8383 34.418 33.3241C34.3221 33.2507 34.2263 33.1716 34.1305 33.0982C28.9746 29.0202 30.9743 27.2749 32.6802 26.1057C32.9166 26.5237 33.3574 27.1958 33.5938 27.6477C32.0413 28.5683 33.3957 30.7033 34.3477 31.8782C34.7438 32.3695 35.0632 32.6971 35.0632 32.6971Z" fill="#FFCEA6"/>
<path d="M34.4044 33.1546C34.3725 33.2055 34.3469 33.2619 34.3214 33.3128C34.2319 33.5048 34.2958 33.7307 34.4747 33.8663L35.005 34.2673L36.2253 33.7364L36.2572 33.3636C36.2572 33.3636 36.5128 33.5274 36.7236 33.4483C36.4106 33.149 36.1422 32.6406 35.7014 32.5107C35.465 32.4373 35.2478 32.3921 34.9475 32.6068C34.3022 32.9513 34.4044 33.1546 34.4044 33.1546ZM41.7197 28.9637C41.6558 28.766 41.5217 28.4215 41.5217 28.4215C41.5217 28.4215 42.0392 27.1676 42.0136 27.0038C42.3203 27.1337 42.3075 27.5178 42.3075 27.5178L42.7483 26.9925L43.8217 28.2803C43.8217 28.2803 43.2786 29.4438 42.48 29.3591C41.6814 29.28 41.7197 28.9637 41.7197 28.9637Z" fill="#FFCEA6"/>
<path d="M22.0452 49.5286C21.9749 49.523 21.9046 49.5117 21.8343 49.4891C20.7035 48.7096 20.3202 46.1341 20.301 45.9872C20.2755 45.8404 19.4257 44.1064 19.4705 43.7901C19.5152 43.502 19.7835 43.6602 20.0774 43.502C20.3074 43.9257 20.4735 44.1968 20.5885 44.6486C20.7291 45.2191 21.0485 48.5345 22.0452 49.5286Z" fill="#B0E1FF"/>
<path d="M55.6864 17.1591C58.555 17.1591 60.8805 15.1032 60.8805 12.5671C60.8805 10.0311 58.555 7.97519 55.6864 7.97519C52.8177 7.97519 50.4922 10.0311 50.4922 12.5671C50.4922 15.1032 52.8177 17.1591 55.6864 17.1591Z" fill="#FFBE55"/>
<path d="M25.7656 8.94667C22.2134 7.01501 18.1692 5.80066 14.0228 5.41658C13.7928 5.39399 13.5437 5.38269 13.3456 5.48436C12.9623 5.69334 13.0262 6.22991 13.3265 6.52927C13.6267 6.82297 14.074 6.95853 14.4637 7.15621C14.8534 7.3539 15.2303 7.68149 15.1984 8.07686C11.972 7.20704 8.54757 6.91899 5.19341 7.24658C4.81646 7.28612 4.42035 7.3313 4.10091 7.51204C3.78146 7.69278 3.55146 8.04862 3.66007 8.37056C3.83257 8.88454 4.61202 8.94667 5.21257 8.91279L25.7656 8.94667Z" fill="#B0E1FF"/>
<path d="M50.2409 15.442C48.4776 13.7081 46.0306 12.5332 43.4239 12.1831C43.6731 12.7309 44.0692 13.228 44.5739 13.6177C38.907 13.6798 33.5148 10.6072 27.8862 11.2003C27.5156 11.2398 27.1067 11.3189 26.9087 11.5956C26.5637 12.0814 27.1514 12.6801 27.7392 12.923C28.327 13.1658 29.0553 13.3635 29.2662 13.9057C28.0714 13.9566 26.8831 14.0074 25.6884 14.0582C25.4839 14.0695 25.2603 14.0808 25.107 14.1994C24.8131 14.4254 24.9728 14.8885 25.3114 15.0636C25.6501 15.2387 26.0653 15.2105 26.4551 15.1766L50.2409 15.442Z" fill="#E9F9FF"/>
<path d="M15.705 20.4632C15.5836 20.339 15.4622 20.2091 15.3217 20.1018C15.1875 19.9888 15.0342 19.8984 14.8744 19.8193L14.7531 19.7629L14.6253 19.7177C14.5869 19.7007 14.5422 19.6894 14.4975 19.6781L14.4336 19.6612C14.4144 19.6556 14.3889 19.6499 14.3697 19.6443C14.325 19.633 14.2803 19.6217 14.2356 19.616L14.1014 19.5934L13.9672 19.5821C13.9225 19.5765 13.8778 19.5765 13.8331 19.5765C13.7883 19.5708 13.7436 19.5765 13.6989 19.5765H13.6286C13.6031 19.5765 13.5839 19.5821 13.5583 19.5821C13.4689 19.5878 13.3794 19.5934 13.29 19.6047C13.1111 19.6273 12.9322 19.6668 12.7597 19.712C12.5872 19.7572 12.4147 19.8137 12.2486 19.8815C12.1656 19.9154 12.0825 19.9493 11.9994 19.9888C11.9228 20.0283 11.8397 20.0679 11.7694 20.1074L11.6353 20.1808L11.5714 20.0509C11.5586 20.0227 11.5331 19.9888 11.5139 19.9549C11.4947 19.921 11.4692 19.8928 11.45 19.8589C11.4053 19.7968 11.3542 19.7346 11.2967 19.6781C11.1881 19.5595 11.0603 19.4579 10.9261 19.3731C10.7919 19.2884 10.6386 19.215 10.4789 19.1698C10.3192 19.1246 10.1467 19.102 9.97417 19.0964C9.89111 19.0907 9.80167 19.102 9.71861 19.1077C9.63556 19.119 9.54611 19.1303 9.46306 19.1472C9.29056 19.1755 9.12444 19.2319 8.95833 19.2884C8.62611 19.407 8.31306 19.5652 8 19.7403C8.27472 19.5256 8.56861 19.3336 8.90083 19.1811C9.06694 19.1077 9.23944 19.0399 9.41833 18.9947C9.50778 18.9665 9.60361 18.9552 9.69306 18.9382C9.78889 18.9269 9.88472 18.9156 9.98056 18.9156C10.1722 18.91 10.3703 18.9269 10.5556 18.9721C10.7408 19.0173 10.9197 19.0964 11.0794 19.1868C11.2392 19.2828 11.3861 19.3957 11.5139 19.5256C11.5778 19.5878 11.6353 19.6612 11.6864 19.729C11.7119 19.7629 11.7375 19.8024 11.7631 19.8363C11.7886 19.8758 11.8078 19.9097 11.8333 19.9549L11.6289 19.9041C11.7183 19.8532 11.8014 19.8137 11.8844 19.7742C11.9739 19.7346 12.0569 19.7007 12.1464 19.6668C12.3253 19.5991 12.5042 19.5426 12.6958 19.4918C12.8811 19.4466 13.0728 19.4127 13.2644 19.3957C13.3603 19.3844 13.4561 19.3788 13.5583 19.3788H13.6989C13.75 19.3788 13.7947 19.3844 13.8458 19.3844C14.2356 19.4127 14.6189 19.5313 14.9383 19.7233C15.0981 19.8193 15.245 19.9323 15.3664 20.0622C15.4303 20.1243 15.4878 20.1921 15.5453 20.2599C15.5772 20.2938 15.5964 20.3277 15.6219 20.3672L15.705 20.4632ZM58.8172 22.6321C58.6831 22.5587 58.5489 22.4909 58.4083 22.4401C58.2678 22.3836 58.1208 22.3497 57.9739 22.3215L57.8653 22.3045L57.7503 22.2989C57.7119 22.2932 57.6736 22.2989 57.6353 22.2989H57.5778C57.5586 22.2989 57.5394 22.2989 57.5203 22.3045C57.4819 22.3102 57.4436 22.3102 57.4117 22.3158L57.3031 22.3271L57.1944 22.3497C57.1561 22.3554 57.1242 22.3667 57.0858 22.378C57.0475 22.3836 57.0156 22.3949 56.9772 22.4062L56.9261 22.4231C56.9069 22.4288 56.8942 22.4344 56.875 22.4401C56.8047 22.4627 56.7408 22.4909 56.6706 22.5192C56.5364 22.5813 56.4086 22.6491 56.2872 22.7281C56.1658 22.8072 56.0444 22.8863 55.9358 22.9767C55.8783 23.0218 55.8272 23.067 55.7761 23.1179C55.725 23.1631 55.6739 23.2139 55.6292 23.2647L55.5461 23.3551L55.4567 23.2704L55.3864 23.2082C55.3608 23.1856 55.3353 23.1687 55.3033 23.1461C55.2458 23.1066 55.1883 23.0727 55.1308 23.0388C55.0094 22.971 54.8817 22.9202 54.7475 22.8863C54.6133 22.8524 54.4728 22.8298 54.3386 22.8298C54.1981 22.8298 54.0575 22.8524 53.9233 22.8863C53.8531 22.9032 53.7892 22.9315 53.7253 22.9541C53.6614 22.9823 53.5975 23.0106 53.5336 23.0444C53.4058 23.1066 53.2908 23.1913 53.1758 23.2704C52.9522 23.4398 52.7542 23.6375 52.5625 23.8408C52.7094 23.6093 52.8883 23.3946 53.0992 23.1969C53.2078 23.1009 53.3228 23.0106 53.4506 22.9315C53.5144 22.8919 53.5783 22.8581 53.6486 22.8242C53.7189 22.7959 53.7892 22.762 53.8658 22.7394C54.0128 22.6886 54.1725 22.6604 54.3322 22.6547C54.4919 22.6491 54.6517 22.666 54.8114 22.7056C54.9647 22.7451 55.1117 22.8016 55.2522 22.875C55.3225 22.9089 55.3864 22.9484 55.4503 22.9936C55.4822 23.0162 55.5142 23.0388 55.5397 23.0614C55.5717 23.084 55.5972 23.1066 55.6292 23.1405L55.4567 23.1461C55.5078 23.0896 55.5653 23.0388 55.6228 22.988C55.6803 22.9371 55.7378 22.8863 55.7953 22.8411C55.9167 22.7451 56.0381 22.6604 56.1722 22.5813C56.3064 22.5022 56.4469 22.4288 56.5875 22.3723C56.6578 22.3441 56.7344 22.3158 56.8111 22.2932L56.8686 22.2763L56.9261 22.2593C56.9644 22.2481 57.0028 22.2368 57.0411 22.2311C57.3542 22.1633 57.6864 22.169 57.9994 22.2424C58.1528 22.2819 58.2997 22.3328 58.4339 22.4062C58.5042 22.4401 58.5681 22.4796 58.6319 22.5192C58.6639 22.5361 58.6958 22.5587 58.7214 22.5813L58.8172 22.6321Z" fill="#2A94F4"/>
</svg>
