<svg width="125" height="133" viewBox="0 0 125 133" fill="none" xmlns="http://www.w3.org/2000/svg">
<path d="M42.3887 17.8228C34.0057 21.1983 26.812 26.9839 21.7173 34.448C16.6226 41.9121 13.8558 50.7193 13.7668 59.756C13.6778 68.7926 16.2706 77.6526 21.2173 85.2156C26.164 92.7786 33.2424 98.7048 41.5573 102.245C49.8721 105.785 59.05 106.779 67.9302 105.103C76.8104 103.427 84.9941 99.1543 91.4462 92.8267C97.8983 86.4991 102.329 78.4002 104.178 69.5544C106.027 60.7085 105.211 51.513 101.834 43.1307C97.2953 31.9013 88.4879 22.9305 77.3439 18.1861C66.1998 13.4417 53.629 13.3111 42.3887 17.8228ZM74.4538 97.4059C67.0959 100.373 59.0235 101.091 51.2575 99.4694C43.4915 97.8481 36.3808 93.9601 30.8245 88.2973C25.2682 82.6345 21.5161 75.4512 20.0426 67.6558C18.569 59.8604 19.4403 51.8031 22.5462 44.503C25.6522 37.2028 30.8532 30.9876 37.4916 26.6435C44.13 22.2994 51.9075 20.0214 59.8405 20.0978C67.7736 20.1741 75.5059 22.6013 82.0594 27.0723C88.613 31.5434 93.6935 37.8575 96.6583 45.2161C100.619 55.0827 100.506 66.1174 96.344 75.9008C92.1816 85.6842 84.3095 93.4178 74.4538 97.4059Z" fill="#455A64"/>
<path d="M96.6551 45.2161C99.62 52.5747 100.336 60.6472 98.7128 68.4128C97.0896 76.1784 93.1999 83.2882 87.5357 88.843C81.8715 94.3979 74.6872 98.1483 66.8915 99.6198C59.0957 101.091 51.0386 100.218 43.7392 97.1104C36.4398 94.0026 30.226 88.8001 25.8835 82.1606C21.541 75.5211 19.265 67.743 19.3434 59.81C19.4217 51.8769 21.8508 44.1453 26.3234 37.5928C30.7961 31.0404 37.1115 25.9615 44.4708 22.9985C54.3382 19.037 65.374 19.1515 75.1571 23.3167C84.9402 27.4818 92.6716 35.3576 96.6551 45.2161Z" fill="white"/>
<path d="M78.9365 115.145L67.8672 103.326L83.3108 97.1033L83.5185 113.299C83.5251 113.833 83.3702 114.357 83.0741 114.801C82.7779 115.246 82.3544 115.59 81.8591 115.79C81.3637 115.989 80.8196 116.035 80.2981 115.92C79.7766 115.805 79.3019 115.535 78.9365 115.145Z" fill="#455A64"/>
<path d="M60.9442 76.9501C59.7884 77.4076 58.5204 77.5011 57.3101 77.2181C56.0997 76.935 55.0046 76.289 54.1716 75.3664C54.1512 75.3433 54.1243 75.3271 54.0944 75.3198C54.0644 75.3126 54.033 75.3147 54.0044 75.326C52.9688 75.8295 51.8123 76.0308 50.6675 75.9065C49.5228 75.7823 48.4363 75.3376 47.533 74.6236C46.6023 73.8858 45.9115 72.8884 45.5481 71.7577C44.5282 72.0258 43.456 72.0232 42.4375 71.7501C41.4189 71.4769 40.4893 70.9427 39.7404 70.2002C38.9916 69.4577 38.4494 68.5327 38.1676 67.5165C37.8857 66.5003 37.874 65.4281 38.1334 64.406C38.161 64.3297 38.1595 64.2458 38.1291 64.1705C38.0988 64.0953 38.0418 64.0338 37.969 63.9979C36.9436 63.548 36.0627 62.8232 35.4237 61.9037C34.7847 60.9843 34.4124 59.906 34.3481 58.7881C34.2838 57.6703 34.5299 56.5564 35.0593 55.5697C35.5887 54.5831 36.3807 53.7621 37.3476 53.1975C36.0899 52.5739 35.0867 51.5342 34.5085 50.2549C33.9302 48.9757 33.8124 47.5358 34.1751 46.1796C34.5378 44.8234 35.3586 43.6345 36.4983 42.8147C37.6379 41.9949 39.0262 41.5948 40.4273 41.6822L40.3675 41.5338C40.1347 40.1893 40.3671 38.8055 41.0264 37.6108C41.6858 36.4162 42.7327 35.4819 43.9944 34.9622C45.4876 34.3606 47.1586 34.3768 48.6399 35.0072C50.1212 35.6376 51.2914 36.8307 51.893 38.3239L64.2818 69.0719C64.8757 70.56 64.8583 72.2222 64.2333 73.6975C63.6083 75.1727 62.4263 76.3416 60.9442 76.9501ZM53.1354 73.1425C53.617 72.9506 54.1456 72.91 54.6509 73.0262C55.1561 73.1424 55.6139 73.4098 55.9633 73.7928C56.5412 74.4373 57.3283 74.8568 58.1856 74.9772C59.0428 75.0975 59.915 74.911 60.6481 74.4505C61.3811 73.99 61.9277 73.2853 62.1914 72.4607C62.4551 71.6362 62.4189 70.745 62.0891 69.9446L49.7003 39.1966C49.3266 38.3043 48.6166 37.595 47.7239 37.2223C46.8312 36.8496 45.8276 36.8433 44.9303 37.2049C44.1732 37.5111 43.5444 38.0682 43.1492 38.7829C42.7541 39.4976 42.6167 40.3264 42.7601 41.1304L42.9634 42.2237C43.006 42.5033 42.979 42.7892 42.8847 43.0559C42.7905 43.3226 42.6319 43.562 42.423 43.7528C42.2141 43.9435 41.9614 44.0799 41.6873 44.1496C41.4131 44.2194 41.126 44.2205 40.8513 44.1528C39.959 43.9552 39.025 44.0968 38.2313 44.5499C37.4375 45.0031 36.8408 45.7354 36.5573 46.6042C36.2738 47.4731 36.3238 48.4164 36.6975 49.2505C37.0713 50.0846 37.742 50.7497 38.5792 51.1165C38.9708 51.2783 39.3071 51.5502 39.5473 51.8993C39.7874 52.2484 39.9212 52.6597 39.9322 53.0833C39.947 53.5156 39.8374 53.943 39.6165 54.3149C39.3956 54.6867 39.0726 54.9874 38.6859 55.1811C38.0603 55.4964 37.5379 55.9842 37.1807 56.5869C36.8234 57.1896 36.6461 57.882 36.6697 58.5822C36.6933 59.2824 36.9169 59.9612 37.314 60.5384C37.7111 61.1157 38.2651 61.5672 38.9106 61.8396C39.5101 62.0955 39.9972 62.5588 40.2828 63.1447C40.5684 63.7306 40.6332 64.3998 40.4654 65.0297C40.2932 65.6865 40.3066 66.3782 40.5041 67.0279C40.7016 67.6775 41.0755 68.2597 41.5841 68.7095C42.0928 69.1594 42.7162 69.4593 43.3852 69.5759C44.0541 69.6925 44.7423 69.6213 45.3731 69.3701C45.6117 69.2752 45.8683 69.2344 46.1246 69.2504C46.3808 69.2665 46.6303 69.339 46.8552 69.4629C47.0819 69.5872 47.2786 69.7596 47.4316 69.9681C47.5845 70.1766 47.6898 70.416 47.7403 70.6696C47.8498 71.2221 48.0853 71.7419 48.4286 72.1885C48.7718 72.6351 49.2135 72.9964 49.7192 73.2444C50.225 73.4924 50.7811 73.6202 51.3444 73.6181C51.9076 73.616 52.4628 73.4839 52.9666 73.2321L53.1354 73.1425Z" fill="#90CAF9"/>
<path d="M45.747 49.1561C44.8264 49.5261 43.8226 49.6393 42.8427 49.4834C41.8628 49.3276 40.9436 48.9087 40.1832 48.2713C39.9647 48.0905 39.8269 47.8304 39.8001 47.5481C39.7732 47.2658 39.8596 46.9844 40.0401 46.7657C40.2238 46.5497 40.485 46.4147 40.7674 46.3897C41.0498 46.3646 41.3307 46.4516 41.5495 46.6319C42.0434 47.0485 42.6475 47.313 43.2886 47.3932C43.9297 47.4734 44.5803 47.3659 45.1616 47.0838C45.7428 46.8016 46.2298 46.357 46.5634 45.8037C46.8971 45.2503 47.0631 44.6121 47.0413 43.9664C47.0333 43.6816 47.1383 43.4052 47.3332 43.1974C47.5282 42.9896 47.7974 42.8672 48.0821 42.857C48.2223 42.8522 48.362 42.8752 48.4932 42.9248C48.6244 42.9743 48.7445 43.0494 48.8465 43.1457C48.9485 43.242 49.0303 43.3576 49.0873 43.4857C49.1443 43.6139 49.1753 43.7521 49.1784 43.8923C49.211 45.0148 48.8999 46.1205 48.2866 47.0613C47.6733 48.0021 46.7872 48.733 45.747 49.1561Z" fill="#90CAF9"/>
<path d="M54.2644 69.9086C53.4036 70.2542 52.4689 70.3748 51.5486 70.259C51.396 70.263 51.2443 70.2344 51.1036 70.175C50.963 70.1156 50.8367 70.0268 50.7332 69.9146C50.6298 69.8023 50.5515 69.6692 50.5037 69.5242C50.456 69.3793 50.4397 69.2257 50.4562 69.0739C50.4727 68.9222 50.5214 68.7757 50.5992 68.6443C50.6769 68.5129 50.7819 68.3997 50.907 68.3123C51.0322 68.2248 51.1746 68.1652 51.3247 68.1373C51.4748 68.1094 51.6291 68.114 51.7773 68.1507C52.4294 68.2523 53.0969 68.1589 53.6961 67.8824C54.2954 67.6059 54.7996 67.1586 55.1455 66.5965C55.4914 66.0345 55.6636 65.3828 55.6405 64.7233C55.6174 64.0637 55.4 63.4257 55.0156 62.8893C54.8542 62.6555 54.7923 62.3672 54.8435 62.0878C54.8947 61.8083 55.0548 61.5607 55.2885 61.3993C55.5223 61.2379 55.8106 61.176 56.0901 61.2272C56.3695 61.2784 56.6171 61.4385 56.7785 61.6723C57.2455 62.3506 57.5543 63.1252 57.6819 63.9388C57.8096 64.7524 57.7529 65.5843 57.516 66.3731C57.2792 67.1618 56.8682 67.8874 56.3134 68.4961C55.7587 69.1048 55.0743 69.5811 54.3108 69.8899L54.2644 69.9086Z" fill="#90CAF9"/>
<path d="M45.1168 66.3699C43.8956 66.859 42.5394 66.8933 41.2951 66.4667C40.0507 66.04 39.0009 65.1807 38.3367 64.0453C38.2517 63.9241 38.1928 63.7867 38.1636 63.6416C38.1345 63.4965 38.1357 63.347 38.1673 63.2024C38.1989 63.0578 38.2601 62.9214 38.3471 62.8017C38.4341 62.6819 38.545 62.5816 38.6728 62.5069C38.8005 62.4323 38.9424 62.3849 39.0894 62.3678C39.2364 62.3508 39.3853 62.3644 39.5268 62.4079C39.6682 62.4513 39.7992 62.5236 39.9112 62.6202C40.0233 62.7169 40.1142 62.8357 40.178 62.9692C40.5035 63.5271 40.9834 63.979 41.5598 64.2705C42.1362 64.5619 42.7846 64.6806 43.4269 64.612C44.0692 64.5435 44.678 64.2908 45.1799 63.8842C45.6819 63.4777 46.0556 62.9347 46.2561 62.3207C46.2997 62.1868 46.3693 62.0629 46.4609 61.956C46.5525 61.849 46.6643 61.7613 46.7899 61.6976C46.9155 61.634 47.0524 61.5958 47.1928 61.5852C47.3332 61.5746 47.4743 61.5918 47.6081 61.6358C47.7413 61.6787 47.8647 61.7476 47.9712 61.8385C48.0777 61.9293 48.1651 62.0404 48.2285 62.1652C48.2918 62.2901 48.3298 62.4262 48.3402 62.5658C48.3506 62.7054 48.3333 62.8457 48.2892 62.9785C48.0385 63.7403 47.6249 64.4384 47.077 65.0241C46.5291 65.6097 45.8602 66.069 45.1168 66.3699Z" fill="#90CAF9"/>
<path d="M52.2187 58.6345L52.0795 58.6906C51.8022 58.757 51.5099 58.711 51.2664 58.5627C51.0229 58.4144 50.8479 58.1759 50.7795 57.899C50.627 57.2735 50.2975 56.7051 49.8304 56.2619C49.3632 55.8188 48.7782 55.5197 48.1455 55.4004C47.5127 55.2811 46.859 55.3466 46.2626 55.5893C45.6661 55.8319 45.1522 56.2412 44.7824 56.7683C44.7047 56.8895 44.6032 56.9936 44.4843 57.0746C44.3653 57.1556 44.2312 57.2118 44.09 57.2398C43.9488 57.2677 43.8034 57.2669 43.6625 57.2374C43.5217 57.2078 43.3882 57.1502 43.2701 57.0679C43.1521 56.9855 43.0518 56.8803 42.9754 56.7583C42.899 56.6363 42.8479 56.5002 42.8254 56.358C42.8028 56.2159 42.8091 56.0706 42.844 55.931C42.8788 55.7913 42.9415 55.6602 43.0282 55.5453C43.6371 54.6941 44.477 54.0351 45.4486 53.6462C46.4202 53.2572 47.4828 53.1546 48.5109 53.3504C49.5389 53.5463 50.4894 54.0325 51.2499 54.7514C52.0104 55.4703 52.5491 56.392 52.8024 57.4075C52.8622 57.6479 52.8368 57.9017 52.7303 58.1255C52.6238 58.3493 52.443 58.5292 52.2187 58.6345Z" fill="#90CAF9"/>
<path d="M69.9919 73.3063C68.4991 73.9021 66.8311 73.8825 65.3527 73.2519C63.8742 72.6212 62.7057 71.4308 62.1026 69.9409L49.7138 39.1929C49.1128 37.7012 49.1283 36.0321 49.7568 34.5519C50.3854 33.0717 51.5756 31.9014 53.0662 31.2979C54.3358 30.7978 55.7379 30.7453 57.0413 31.1491C58.3448 31.553 59.4716 32.3891 60.2359 33.5195L60.2995 33.6771C61.2409 32.6197 62.5224 31.9247 63.9221 31.7123C65.3219 31.4998 66.7519 31.7834 67.9647 32.5138C69.1774 33.2443 70.0968 34.3757 70.5635 35.7123C71.0303 37.0489 71.0152 38.5067 70.5208 39.8333C71.6167 39.5522 72.7695 39.5836 73.8486 39.9239C74.9276 40.2641 75.8899 40.8997 76.6264 41.7586C77.3629 42.6175 77.8443 43.6654 78.016 44.7838C78.1877 45.9021 78.0428 47.0462 77.5979 48.0865C77.5679 48.1626 77.5683 48.2473 77.5989 48.3233C77.6294 48.3992 77.6879 48.4605 77.7623 48.4946C78.6584 49.0519 79.3933 49.8335 79.8945 50.7621C80.3957 51.6907 80.6457 52.7341 80.6199 53.7889C80.594 54.8438 80.2931 55.8737 79.747 56.7766C79.2009 57.6795 78.4285 58.4242 77.5063 58.9369C78.0307 60.0016 78.2276 61.1979 78.072 62.3746C77.9148 63.5168 77.4386 64.5915 76.6981 65.4753C75.9577 66.3591 74.983 67.0161 73.8859 67.371C73.8303 67.3934 73.7746 67.4159 73.7935 67.5161C73.8231 68.7531 73.4752 69.9699 72.7961 71.0043C72.1169 72.0387 71.1388 72.8417 69.9919 73.3063ZM53.9781 33.5612C53.0754 33.9277 52.3549 34.6373 51.9746 35.5342C51.5943 36.4312 51.5852 37.4424 51.9493 38.3461L64.3381 69.0941C64.6553 69.8995 65.247 70.5669 66.0087 70.9783C66.7703 71.3897 67.6529 71.5186 68.5004 71.3423C69.3479 71.1659 70.1058 70.6957 70.6401 70.0146C71.1745 69.3336 71.4509 68.4856 71.4205 67.6205C71.3884 67.0662 71.5401 66.5168 71.8523 66.0577C72.1644 65.5985 72.6195 65.2553 73.1467 65.0814C73.6833 64.9113 74.1736 64.6205 74.5802 64.2312C74.9867 63.8419 75.2985 63.3645 75.4916 62.8358C75.6847 62.3071 75.7539 61.7412 75.694 61.1815C75.6341 60.6219 75.4466 60.0834 75.1459 59.6076C75.0106 59.3919 74.9237 59.1493 74.8912 58.8968C74.8587 58.6442 74.8815 58.3875 74.9579 58.1446C75.0342 57.9016 75.1624 57.6782 75.3335 57.4896C75.5047 57.301 75.7147 57.1518 75.9491 57.0523C76.5753 56.7961 77.1184 56.3718 77.5185 55.8263C77.9187 55.2808 78.1603 54.6354 78.2166 53.9612C78.2729 53.2871 78.1418 52.6104 77.8378 52.0061C77.5337 51.4018 77.0685 50.8933 76.4936 50.5367C75.936 50.1991 75.5188 49.6719 75.3184 49.0517C75.118 48.4314 75.1479 47.7598 75.4025 47.1598C75.6788 46.5159 75.7651 45.8065 75.6511 45.1152C75.5371 44.4239 75.2276 43.7797 74.7591 43.2587C74.2907 42.7377 73.683 42.3616 73.0077 42.175C72.3324 41.9884 71.6177 41.9989 70.9482 42.2054C70.5355 42.3364 70.0936 42.345 69.676 42.23C69.2585 42.115 68.8833 41.8815 68.5957 41.5577C68.31 41.2447 68.1213 40.8556 68.0523 40.4375C67.9834 40.0194 68.0372 39.5903 68.2073 39.2022C68.5563 38.3575 68.5786 37.4131 68.2696 36.5529C67.9607 35.6928 67.3428 34.9783 66.5361 34.5487C65.7294 34.119 64.7917 34.005 63.9055 34.2287C63.0193 34.4524 62.2481 34.9978 61.742 35.7589C61.587 36 61.3746 36.1989 61.1237 36.3376C60.8728 36.4763 60.5915 36.5505 60.3048 36.5536C60.0197 36.556 59.7385 36.4871 59.4869 36.3531C59.2352 36.2192 59.021 36.0244 58.8638 35.7865L58.2431 34.8615C57.7865 34.1915 57.1149 33.6973 56.3394 33.4609C55.5638 33.2245 54.7308 33.2598 53.9781 33.5612Z" fill="#90CAF9"/>
<path d="M61.6668 42.7431C60.6235 43.1579 59.4786 43.2447 58.3848 42.992C57.2909 42.7393 56.3001 42.159 55.5445 41.3286C55.388 41.1147 55.3164 40.8503 55.3436 40.5867C55.3709 40.323 55.495 40.0788 55.692 39.9015C55.889 39.7241 56.1449 39.6262 56.4099 39.6267C56.675 39.6271 56.9305 39.726 57.1268 39.9041C57.5588 40.3846 58.1209 40.7294 58.7449 40.8969C59.3689 41.0643 60.0282 41.0472 60.6427 40.8475C61.2572 40.6479 61.8005 40.2743 62.207 39.772C62.6134 39.2697 62.8654 38.6603 62.9325 38.0177C62.9722 37.7443 63.1161 37.4968 63.3341 37.3271C63.5521 37.1574 63.8273 37.0785 64.1021 37.1071C64.3769 37.1357 64.63 37.2695 64.8084 37.4804C64.9868 37.6914 65.0767 37.9632 65.0593 38.2389C64.9551 39.2267 64.5844 40.1675 63.9868 40.9609C63.3893 41.7542 62.5873 42.3703 61.6668 42.7431Z" fill="#90CAF9"/>
<path d="M69.9173 63.6002C69.1532 63.9052 68.3304 64.035 67.5095 63.9798C66.6886 63.9247 65.8906 63.6861 65.1741 63.2817C64.4577 62.8772 63.8411 62.3171 63.3698 61.6428C62.8985 60.9684 62.5846 60.1969 62.451 59.3851C62.4052 59.1047 62.4727 58.8176 62.6386 58.587C62.8045 58.3564 63.0552 58.2012 63.3355 58.1554C63.6159 58.1096 63.903 58.1771 64.1336 58.343C64.3642 58.5089 64.5194 58.7596 64.5652 59.0399C64.6695 59.676 64.955 60.2685 65.3876 60.7464C65.8202 61.2242 66.3815 61.5671 67.0041 61.7339C67.6267 61.9007 68.2842 61.8844 68.8977 61.6869C69.5113 61.4893 70.0548 61.119 70.4632 60.6203C70.5445 60.4911 70.6525 60.3808 70.78 60.2968C70.9075 60.2128 71.0515 60.1571 71.2023 60.1334C71.3531 60.1096 71.5072 60.1185 71.6544 60.1592C71.8015 60.2 71.9382 60.2718 72.0552 60.3697C72.1723 60.4677 72.2671 60.5896 72.3332 60.7272C72.3993 60.8648 72.4351 61.015 72.4384 61.1676C72.4416 61.3202 72.4122 61.4718 72.352 61.6121C72.2919 61.7524 72.2024 61.8782 72.0896 61.981C71.5118 62.6935 70.765 63.2501 69.9173 63.6002Z" fill="#90CAF9"/>
<path d="M74.068 54.7061C73.3189 55.0013 72.5143 55.129 71.7106 55.0804C70.907 55.0317 70.1237 54.8078 69.4157 54.4244C69.2918 54.3592 69.182 54.2701 69.0928 54.1623C69.0035 54.0544 68.9365 53.93 68.8956 53.7961C68.8547 53.6622 68.8407 53.5216 68.8544 53.3823C68.8682 53.243 68.9094 53.1078 68.9757 52.9845C69.1106 52.7351 69.3382 52.5488 69.6093 52.4657C69.8805 52.3827 70.1734 52.4096 70.4248 52.5407C70.99 52.8322 71.6264 52.9567 72.2598 52.8998C72.8931 52.843 73.4971 52.607 74.0013 52.2196C74.5055 51.8321 74.8891 51.3092 75.1071 50.7118C75.3251 50.1145 75.3686 49.4675 75.2325 48.8463C75.1656 48.5702 75.2111 48.2788 75.359 48.0362C75.5069 47.7936 75.7451 47.6198 76.0213 47.5528C76.2974 47.4859 76.5888 47.5314 76.8314 47.6793C77.0739 47.8272 77.2478 48.0655 77.3148 48.3416C77.5477 49.3063 77.5143 50.3162 77.2181 51.2635C76.9218 52.2107 76.3739 53.0597 75.6328 53.7198C75.172 54.1363 74.6426 54.47 74.068 54.7061Z" fill="#90CAF9"/>
<path d="M63.598 54.049C63.3586 54.1434 63.0934 54.1492 62.8501 54.0654C62.6068 53.9816 62.4014 53.8136 62.271 53.5918C61.7373 52.6784 61.4788 51.6302 61.5267 50.5734C61.5747 49.5166 61.9269 48.4961 62.5411 47.6347C63.1554 46.7733 64.0053 46.1078 64.9889 45.7181C65.9724 45.3284 67.0476 45.2312 68.0851 45.4382C68.2272 45.4608 68.3634 45.5119 68.4853 45.5884C68.6072 45.6648 68.7125 45.7651 68.7948 45.8832C68.877 46.0013 68.9346 46.1348 68.9641 46.2757C68.9936 46.4166 68.9944 46.562 68.9663 46.7032C68.9383 46.8443 68.8821 46.9784 68.8011 47.0974C68.72 47.2163 68.6158 47.3177 68.4947 47.3954C68.3735 47.4731 68.2379 47.5256 68.096 47.5497C67.9541 47.5739 67.8088 47.5691 67.6688 47.5357C66.9966 47.4048 66.3004 47.4823 65.6735 47.758C65.0466 48.0337 64.519 48.4944 64.1612 49.0784C63.8422 49.5927 63.67 50.1845 63.663 50.7897C63.656 51.3948 63.8145 51.9904 64.1215 52.512C64.1933 52.6332 64.2404 52.7674 64.2602 52.9068C64.2801 53.0463 64.2721 53.1883 64.2369 53.3246C64.2017 53.461 64.1399 53.5891 64.0551 53.7016C63.9703 53.814 63.8641 53.9086 63.7427 53.9799L63.598 54.049Z" fill="#90CAF9"/>
<path d="M73.5146 76.0903L60.3157 81.4084C60.0524 81.5144 59.7579 81.5116 59.4968 81.4004C59.2356 81.2893 59.0294 81.079 58.9233 80.8158C58.8173 80.5526 58.8201 80.258 58.9312 79.9969C59.0424 79.7358 59.2527 79.5295 59.5159 79.4234L72.6963 74.1129C72.9595 74.0068 73.2541 74.0097 73.5152 74.1208C73.7763 74.2319 73.9826 74.4423 74.0886 74.7055C74.1947 74.9687 74.1918 75.2633 74.0807 75.5244C73.9696 75.7855 73.7593 75.9918 73.496 76.0978L73.5146 76.0903Z" fill="#90CAF9"/>
<path d="M71.0624 89.0247C69.0524 89.8317 66.8043 89.8085 64.8113 88.9603C62.8183 88.1121 61.2431 86.508 60.4311 84.4999C60.3251 84.2367 60.3279 83.9421 60.4391 83.681C60.5502 83.4199 60.7605 83.2136 61.0237 83.1076L74.2041 77.797C74.4673 77.691 74.7619 77.6938 75.023 77.805C75.2841 77.9161 75.4904 78.1264 75.5965 78.3896C76.4041 80.4013 76.3803 82.6513 75.5301 84.6453C74.68 86.6394 73.0731 88.2145 71.0624 89.0247ZM62.8994 84.659C63.623 85.9094 64.7733 86.8568 66.1393 87.3271C67.5053 87.7975 68.995 87.7592 70.335 87.2193C71.675 86.6794 72.7752 85.6741 73.4335 84.3882C74.0919 83.1023 74.2641 81.622 73.9186 80.2192L62.8994 84.659Z" fill="#90CAF9"/>
</svg>
