<svg width="120" height="120" viewBox="0 0 120 120" fill="none" xmlns="http://www.w3.org/2000/svg">
<path d="M52.2979 83.9502C56.4287 79.8242 63.5674 79.8242 67.6983 83.9502C68.6748 84.9268 69.9541 85.415 71.2334 85.415C72.5127 85.415 73.792 84.9268 74.7686 83.9502C76.7217 81.9971 76.7217 78.833 74.7686 76.8799C70.8184 72.9272 65.5742 70.752 59.9981 70.752C54.4219 70.752 49.1778 72.9272 45.2276 76.8799C43.2744 78.833 43.2744 81.9971 45.2276 83.9502C47.1807 85.9033 50.3447 85.9033 52.2979 83.9502ZM103.533 26.4648C101.58 24.5117 98.416 24.5117 96.4629 26.4648L89.9981 32.9297L83.5332 26.4648C81.5801 24.5117 78.416 24.5117 76.4629 26.4648C74.5098 28.418 74.5098 31.582 76.4629 33.5352L82.9278 40L76.4629 46.4648C74.5098 48.418 74.5098 51.582 76.4629 53.5352C77.4395 54.5117 78.7188 55 79.9981 55C81.2774 55 82.5567 54.5117 83.5332 53.5352L89.9981 47.0703L96.4629 53.5352C97.4395 54.5117 98.7188 55 99.9981 55C101.277 55 102.557 54.5117 103.533 53.5352C105.486 51.582 105.486 48.418 103.533 46.4648L97.0684 40L103.533 33.5352C105.486 31.582 105.486 28.418 103.533 26.4648ZM37.5469 74.1992C38.8408 74.1992 40.1348 73.7012 41.1113 72.7051C46.0918 67.6416 52.8008 64.8511 59.9981 64.8511C60.7891 64.8511 61.541 64.895 62.6494 64.9512H62.6983C65.4033 64.9512 67.5811 62.7979 67.6543 60.0928C67.7324 57.3877 65.6035 55.1099 62.9033 54.9585C51.9756 54.3604 41.5459 58.0054 33.9824 65.6934C32.044 67.6611 32.0733 70.8276 34.041 72.7637C35.0127 73.7207 36.2822 74.1992 37.5469 74.1992ZM60.9502 48.9502C63.7139 48.9502 65.9502 46.7114 65.9502 43.9502C65.9502 41.189 63.7139 38.9502 60.9502 38.9502H59.9981C45.9063 38.9502 32.6738 44.4458 22.752 54.4238C20.8037 56.3818 20.8135 59.5459 22.7715 61.4941C23.7481 62.4658 25.0225 62.9492 26.2969 62.9492C27.5811 62.9492 28.8653 62.4585 29.8418 61.4746C37.874 53.3984 48.5869 48.9502 59.9981 48.9502H60.9502Z" fill="#1B3D6F"/>
<path d="M15 51.6504C16.2793 51.6504 17.5586 51.1621 18.5352 50.1855C29.585 39.1357 44.3115 33.0493 60.0977 33.0493C62.8613 33.0493 65.0488 30.8105 65.0488 28.0493C65.0488 25.2881 62.7637 23.0493 60 23.0493C41.6357 23.0493 24.3994 30.1758 11.4648 43.1152C9.51172 45.0684 9.51172 48.2349 11.4648 50.1855C12.4414 51.1621 13.7207 51.6504 15 51.6504Z" fill="#1B3D6F"/>
<path d="M59.9992 96.95C62.9263 96.95 65.2992 94.5771 65.2992 91.65C65.2992 88.7229 62.9263 86.35 59.9992 86.35C57.0721 86.35 54.6992 88.7229 54.6992 91.65C54.6992 94.5771 57.0721 96.95 59.9992 96.95Z" fill="#1B3D6F"/>
</svg>
