<svg width="270" height="234" viewBox="0 0 270 234" fill="none" xmlns="http://www.w3.org/2000/svg">
<g clip-path="url(#clip0_1_22)">
<path opacity="0.18" d="M97.8658 17.0718C90.7702 24.7813 85.5111 34.6914 77.9714 41.7823C65.2227 53.7949 47.9194 56.1834 32.9269 63.8303C23.0097 68.8891 13.6068 76.904 9.21922 88.4977C5.66307 97.8674 6.12387 108.972 9.8069 118.255C11.5663 122.706 12.3481 127.603 12.081 132.499C11.8139 137.395 10.5064 142.134 8.27759 146.286C2.81816 156.427 -0.474202 168.013 0.056716 179.912C0.878136 198.213 12.7286 216.267 28.2922 217.951C33.6348 218.53 39.004 217.258 44.2932 216.122C76.2384 209.27 110.05 207.5 140.436 220.927C148.764 224.607 156.781 229.404 165.439 231.823C175.553 234.65 186.098 234.114 196.493 233.562C212.714 232.7 231.64 230.038 239.925 213.656C251.408 190.946 233.116 162.594 235.717 136.376C237.157 121.889 244.947 109.148 246.589 94.7037C248.373 79.0027 242.025 62.405 230.839 53.5248C215.305 41.195 193.825 44.1864 177.787 32.7728C165.099 23.7398 156.377 6.08889 141.418 1.28461C126.746 -3.42178 108.544 5.46242 97.8658 17.0718Z" fill="#1F477A"/>
<path d="M30.3591 174.79C28.7897 162.155 25.0466 149.99 23.5306 137.343C22.0147 124.696 23.0698 110.788 29.9784 100.909C34.4862 94.4762 40.9641 90.4629 47.2984 86.7001C52.9314 83.3524 58.7315 80.0164 64.9956 79.108C70.5185 78.325 76.0915 79.4409 81.6143 80.2161C92.0056 81.6727 102.587 81.8645 112.902 79.7893C126.368 77.0759 139.1 70.8073 152.26 66.5433C165.152 62.3694 177.914 60.2433 192.329 68.1095C202.293 73.552 209.646 84.9147 212.03 97.4755C215.883 117.769 207.181 140.26 214.497 159.195C216.561 164.528 219.766 169.125 222.384 174.113C225.602 180.263 227.925 186.998 229.256 194.043C229.714 196.466 230.051 199.023 229.467 201.408C227.964 207.516 221.526 209.548 216.11 210.049C198.102 211.717 180.111 207.778 162.15 205.488C132.993 201.776 103.572 202.43 74.3651 204.986C67.215 205.613 60.0715 206.344 52.9348 207.179C47.1748 207.841 36.2393 211.878 30.8099 209.955C24.7561 207.806 28.7296 203.15 30.0118 196.466C31.3909 189.391 31.2473 181.932 30.3591 174.79Z" fill="url(#paint0_linear_1_22)"/>
<path d="M128.218 53.7124C128.218 53.7124 125.457 66.8762 121.33 70.5489C117.069 74.3391 112.648 67.0563 112.648 67.0563L110.19 72.2717C110.19 72.2717 114.742 80.8857 119.33 81.0854C123.917 81.2851 127.944 76.4691 127.944 76.4691L128.218 53.7124Z" fill="#1F477A"/>
<path d="M104.638 44.6715L105.262 44.3466L117.991 48.1406L121.814 78.368H121.336L104.638 44.6715Z" fill="#3F3D56"/>
<path opacity="0.05" d="M44.4268 207.774C44.4268 207.774 16.6621 209.955 12.6685 213.076C8.67497 216.196 39.949 216.882 89.8519 215.123C139.755 213.365 178.178 215.123 205.385 218.342C232.592 221.561 269.496 220.938 270.007 213.056C270.518 205.174 202.64 205.08 202.64 205.08L44.4268 207.774Z" fill="#000405"/>
<path d="M217.035 145.033C217.035 145.033 216.104 154.124 210.113 155.017H183.808L180.065 104.523H207.779C210.016 104.523 214.601 107.35 215.516 111.352C215.639 112.093 215.72 112.842 215.76 113.595C216.361 121.36 217.035 145.033 217.035 145.033Z" fill="#1F477A"/>
<path d="M215.766 113.603H190.389L182.856 104.934L182.509 104.523H207.786C210.023 104.523 214.608 107.35 215.523 111.352C215.646 112.095 215.727 112.847 215.766 113.603Z" fill="url(#paint1_linear_1_22)"/>
<path d="M47.8227 109.222L45.3451 107.957C45.0226 107.793 44.7584 107.503 44.5968 107.137C44.4352 106.771 44.3861 106.35 44.4578 105.947C44.5296 105.543 44.7177 105.181 44.9906 104.921C45.2635 104.661 45.6045 104.519 45.9561 104.519H180.065C181.721 104.501 183.36 104.921 184.859 105.748C186.358 106.575 187.679 107.788 188.723 109.296C189.593 110.535 190.169 112.02 190.392 113.603C190.997 118.329 190.626 138.913 190.459 146.642C190.369 150.839 187.731 154.453 184.178 154.974L183.798 155.017H53.9065L47.8227 109.222Z" fill="#1F477A"/>
<path d="M47.8227 109.222L45.3451 107.957C45.0226 107.793 44.7584 107.503 44.5968 107.137C44.4352 106.771 44.3861 106.35 44.4578 105.947C44.5296 105.543 44.7177 105.181 44.9906 104.921C45.2635 104.661 45.6045 104.519 45.9561 104.519H180.065C181.721 104.501 183.36 104.921 184.859 105.748C186.358 106.575 187.679 107.788 188.723 109.296C189.593 110.535 190.169 112.02 190.392 113.603C190.997 118.329 190.626 138.913 190.459 146.642C190.369 150.839 187.731 154.453 184.178 154.974L183.798 155.017H53.9065L47.8227 109.222Z" fill="#1F477A"/>
<path d="M190.469 146.642C190.379 150.839 187.741 154.453 184.188 154.974L183.808 155.017H53.9165L47.8227 109.222L45.3451 107.957C45.0226 107.793 44.7584 107.503 44.5968 107.137C44.4352 106.771 44.3861 106.35 44.4578 105.947C44.5296 105.543 44.7177 105.181 44.9906 104.921C45.2635 104.661 45.6045 104.519 45.9561 104.519H180.065C181.721 104.501 183.36 104.921 184.859 105.748C186.358 106.575 187.679 107.788 188.723 109.296C189.593 110.535 190.169 112.02 190.392 113.603C191.007 118.329 190.636 138.913 190.469 146.642Z" fill="url(#paint2_linear_1_22)"/>
<path opacity="0.61" d="M41.0977 155.033H184.279C184.774 155.033 185.249 154.802 185.6 154.392C185.95 153.982 186.148 153.425 186.148 152.844C186.148 152.263 185.951 151.705 185.601 151.294C185.25 150.882 184.774 150.651 184.279 150.651H41.0977C40.6018 150.651 40.1261 150.882 39.7755 151.294C39.4248 151.705 39.2278 152.263 39.2278 152.844C39.2287 153.425 39.4261 153.982 39.7766 154.392C40.1272 154.802 40.6023 155.033 41.0977 155.033Z" fill="url(#paint3_linear_1_22)"/>
<path d="M41.0977 155.033H184.279C184.774 155.033 185.249 154.802 185.6 154.392C185.95 153.982 186.148 153.425 186.148 152.844C186.148 152.556 186.1 152.271 186.006 152.005C185.912 151.739 185.774 151.497 185.601 151.294C185.427 151.09 185.221 150.929 184.994 150.818C184.767 150.708 184.524 150.651 184.279 150.651H41.0977C40.6018 150.651 40.1261 150.882 39.7755 151.294C39.4248 151.705 39.2278 152.263 39.2278 152.844C39.2287 153.425 39.4261 153.982 39.7766 154.392C40.1272 154.802 40.6023 155.033 41.0977 155.033ZM213.659 169.418V196.807C213.66 198.577 213.363 200.329 212.786 201.964C212.208 203.599 211.362 205.085 210.295 206.336C209.228 207.588 207.961 208.581 206.567 209.258C205.173 209.935 203.679 210.284 202.169 210.284H51.1083C49.5985 210.287 48.1032 209.94 46.708 209.263C45.3127 208.587 44.0451 207.594 42.9777 206.342C41.9103 205.09 41.0641 203.603 40.4876 201.967C39.9112 200.331 39.6158 198.577 39.6185 196.807V169.418C39.6161 166.929 40.2058 164.488 41.3214 162.37C41.5651 161.901 41.835 161.451 42.1295 161.024C43.2043 159.441 44.5699 158.163 46.1246 157.285C47.6792 156.407 49.3828 155.952 51.1083 155.953H202.169C203.679 155.953 205.173 156.302 206.568 156.979C207.962 157.657 209.229 158.65 210.296 159.902C211.363 161.154 212.21 162.64 212.787 164.276C213.364 165.911 213.66 167.664 213.659 169.434V169.418Z" fill="#1F477A"/>
<path opacity="0.61" d="M154.834 210.284H51.1083C48.9053 210.285 46.7485 209.543 44.8949 208.147C43.0413 206.751 41.5691 204.76 40.6536 202.41H148.236C148.236 202.41 149.786 209.066 154.834 210.284Z" fill="url(#paint4_linear_1_22)"/>
<path d="M154.834 155.937C150.066 156.861 148.734 162.355 148.734 162.355H41.3214L42.1295 161.008C43.2043 159.425 44.5699 158.147 46.1246 157.269C47.6792 156.391 49.3828 155.936 51.1083 155.937H154.834Z" fill="url(#paint5_linear_1_22)"/>
<path opacity="0.61" d="M213.659 169.418V196.807C213.661 199.217 213.111 201.584 212.066 203.66C211.021 205.736 209.52 207.445 207.719 208.608H160.274C159.326 208.609 158.388 208.39 157.513 207.965C156.637 207.541 155.842 206.918 155.172 206.132C154.501 205.347 153.97 204.415 153.607 203.388C153.245 202.362 153.058 201.262 153.058 200.151V166.92C153.057 165.809 153.244 164.708 153.606 163.682C153.969 162.655 154.5 161.722 155.17 160.936C155.84 160.15 156.636 159.527 157.512 159.102C158.387 158.677 159.326 158.458 160.274 158.459H208.861C210.346 159.706 211.557 161.352 212.391 163.258C213.226 165.164 213.66 167.276 213.659 169.418Z" fill="url(#paint6_linear_1_22)"/>
<path d="M213.659 169.418V196.807C213.659 197.312 213.636 197.816 213.589 198.318C213.569 198.538 213.542 198.753 213.512 198.968C213.387 199.906 213.175 200.826 212.878 201.709C212.808 201.932 212.731 202.148 212.644 202.363C212.272 203.339 211.801 204.259 211.242 205.104C211.095 205.323 210.941 205.542 210.778 205.754C209.907 206.912 208.872 207.886 207.719 208.632H167.092C166.066 208.634 165.051 208.378 164.116 207.882C163.182 207.385 162.348 206.66 161.673 205.754C161.517 205.546 161.369 205.329 161.232 205.104C160.723 204.278 160.348 203.349 160.127 202.363C160.077 202.152 160.037 201.932 160.003 201.709C159.92 201.199 159.878 200.682 159.88 200.163V166.92C159.879 166.328 159.932 165.737 160.04 165.158C160.074 164.938 160.119 164.721 160.177 164.508C160.423 163.516 160.827 162.586 161.366 161.767C161.511 161.54 161.669 161.323 161.836 161.118C162.509 160.273 163.323 159.6 164.227 159.141C165.131 158.681 166.107 158.445 167.092 158.447H208.861C209.756 159.199 210.553 160.098 211.228 161.118C211.369 161.329 211.506 161.544 211.636 161.767C212.139 162.62 212.553 163.541 212.871 164.508C212.945 164.724 213.015 164.943 213.072 165.158C213.329 166.047 213.501 166.966 213.586 167.899C213.609 168.114 213.626 168.334 213.636 168.553C213.653 168.827 213.659 169.129 213.659 169.418Z" fill="url(#paint7_linear_1_22)"/>
<path d="M211.636 161.779H161.366C161.511 161.552 161.669 161.335 161.836 161.129H211.225C211.369 161.341 211.506 161.556 211.636 161.779ZM213.072 165.158H160.04C160.074 164.938 160.119 164.721 160.177 164.508H212.871C212.945 164.724 213.015 164.943 213.072 165.158ZM213.636 168.541H159.876V167.887H213.586C213.609 168.103 213.626 168.322 213.636 168.541ZM159.88 171.27H213.663V171.92H159.88V171.27ZM159.88 174.649H213.663V175.299H159.88V174.649ZM159.88 178.032H213.663V178.682H159.88V178.032ZM159.88 181.415H213.663V182.061H159.88V181.415ZM159.88 184.794H213.663V185.44H159.88V184.794ZM159.88 188.177H213.663V188.823H159.88V188.177ZM159.88 191.556H213.663V192.202H159.88V191.556ZM159.88 194.939H213.663V195.589H159.88V194.939ZM213.589 198.318C213.569 198.538 213.542 198.753 213.512 198.968H159.88V198.318H213.589ZM212.895 201.697C212.825 201.921 212.748 202.136 212.661 202.351H160.137C160.087 202.14 160.047 201.921 160.013 201.697H212.895ZM211.242 205.08C211.095 205.3 210.941 205.519 210.778 205.73H161.673C161.517 205.523 161.369 205.306 161.232 205.08H211.242Z" fill="white"/>
<path d="M147.007 149.622H181.233C179.782 150.472 178.181 150.912 176.559 150.906H49.2986C47.1921 150.923 45.1326 150.176 43.4017 148.768C42.9118 148.372 42.4566 147.919 42.0427 147.417C41.9092 147.257 41.7789 147.088 41.6554 146.92C41.1895 146.281 40.7925 145.578 40.4733 144.825C40.4032 144.661 40.3364 144.492 40.2763 144.328C40.0281 143.657 39.8487 142.954 39.7421 142.233C39.7187 142.069 39.6953 141.904 39.6786 141.732C39.6384 141.349 39.6183 140.963 39.6185 140.577V119.567C39.6185 119.34 39.6185 119.116 39.6386 118.897C39.6586 118.678 39.6619 118.564 39.6786 118.4C39.7529 117.684 39.8975 116.981 40.1094 116.305C40.1628 116.137 40.2196 115.972 40.2797 115.804C40.5521 115.059 40.9021 114.357 41.3215 113.713C41.4317 113.545 41.5452 113.376 41.6554 113.212C41.9019 112.874 42.1662 112.555 42.4468 112.256C44.3289 110.28 46.7721 109.198 49.2986 109.222H176.559C178.559 109.219 180.516 109.9 182.192 111.18H147.007C146.472 111.178 145.938 111.255 145.418 111.407C144.351 111.705 143.371 112.333 142.58 113.224C142.438 113.38 142.305 113.547 142.182 113.725C141.736 114.339 141.396 115.049 141.181 115.816C141.134 115.98 141.095 116.147 141.064 116.317C140.973 116.759 140.929 117.213 140.93 117.668V143.146C140.932 143.54 140.966 143.934 141.034 144.32C141.061 144.488 141.096 144.654 141.141 144.817C141.331 145.58 141.647 146.291 142.069 146.912C142.184 147.086 142.308 147.252 142.44 147.409C143.013 148.106 143.703 148.655 144.466 149.023C145.27 149.421 146.135 149.624 147.007 149.622Z" fill="#1F477A"/>
<path d="M186.235 119.719V140.976C186.235 141.094 186.235 141.219 186.215 141.337C186.195 141.454 186.198 141.575 186.188 141.693C186.178 141.81 186.162 141.912 186.152 142.018C186.142 142.124 186.128 142.186 186.115 142.268C186.111 142.311 186.105 142.353 186.095 142.394C186.078 142.507 186.058 142.625 186.035 142.738C186.011 142.852 186.005 142.887 185.985 142.961C185.965 143.036 185.955 143.106 185.935 143.181C185.915 143.255 185.898 143.337 185.878 143.416L185.808 143.655C185.808 143.721 185.774 143.784 185.754 143.846C185.734 143.909 185.701 144.015 185.671 144.097L185.581 144.351C185.566 144.399 185.548 144.445 185.527 144.489C185.506 144.554 185.482 144.618 185.454 144.68C185.434 144.735 185.407 144.79 185.384 144.845C185.36 144.9 185.314 145.013 185.274 145.091C185.233 145.17 185.16 145.346 185.097 145.483L184.993 145.679C184.9 145.859 184.803 146.031 184.699 146.2C184.646 146.29 184.592 146.372 184.539 146.454C184.432 146.622 184.319 146.783 184.205 146.944C184.091 147.104 183.951 147.28 183.814 147.441C183.541 147.769 183.25 148.076 182.943 148.361C182.937 148.371 182.929 148.379 182.919 148.384C182.819 148.478 182.719 148.565 182.616 148.655L182.282 148.925L181.948 149.175C181.841 149.254 181.734 149.324 181.614 149.398L181.23 149.637H147.007C146.135 149.641 145.271 149.44 144.466 149.046C143.704 148.68 143.014 148.133 142.439 147.441C142.308 147.283 142.184 147.117 142.069 146.944C141.646 146.327 141.331 145.619 141.141 144.86C141.096 144.699 141.061 144.534 141.034 144.367C140.966 143.981 140.931 143.587 140.93 143.192V117.812C140.929 117.36 140.974 116.909 141.064 116.469C141.095 116.301 141.134 116.135 141.181 115.972C141.396 115.209 141.736 114.503 142.182 113.893C142.305 113.716 142.438 113.548 142.58 113.392C143.373 112.506 144.352 111.882 145.418 111.583C145.938 111.434 146.472 111.359 147.007 111.36H182.192C182.345 111.477 182.499 111.599 182.646 111.728L182.816 111.877C183.048 112.079 183.271 112.296 183.484 112.527L183.667 112.73L183.801 112.887L183.981 113.106L184.162 113.341L184.198 113.392L184.225 113.431C184.332 113.58 184.439 113.736 184.539 113.893C184.592 113.971 184.642 114.054 184.693 114.132C184.698 114.144 184.704 114.154 184.713 114.163C184.802 114.315 184.888 114.467 184.973 114.621L185.117 114.895C185.203 115.068 185.287 115.248 185.364 115.424C185.4 115.518 185.44 115.604 185.477 115.694C185.514 115.784 185.551 115.882 185.581 115.972C185.611 116.062 185.644 116.137 185.671 116.223C185.698 116.309 185.728 116.387 185.751 116.469C185.774 116.552 185.801 116.634 185.824 116.716C185.926 117.055 186.007 117.402 186.068 117.754C186.079 117.799 186.087 117.844 186.092 117.891C186.092 117.973 186.118 118.055 186.132 118.137C186.145 118.22 186.168 118.415 186.185 118.552C186.202 118.689 186.218 118.881 186.225 119.05V119.316C186.225 119.406 186.235 119.582 186.235 119.719Z" fill="url(#paint8_linear_1_22)"/>
<path d="M144.466 149.027C143.712 149.241 142.933 149.439 142.129 149.622H51.3956C48.7137 149.64 46.0366 149.354 43.4017 148.768C42.9118 148.372 42.4566 147.919 42.0427 147.417C41.9092 147.257 41.7789 147.088 41.6554 146.92C41.1895 146.281 40.7925 145.578 40.4733 144.825C40.4032 144.661 40.3364 144.492 40.2763 144.328C40.0281 143.657 39.8487 142.954 39.7421 142.233C39.7187 142.069 39.6953 141.904 39.6786 141.732C39.6384 141.349 39.6183 140.963 39.6185 140.577V119.567C39.6185 119.339 39.6185 119.116 39.6386 118.897C39.6586 118.678 39.6619 118.564 39.6786 118.4C39.7529 117.684 39.8975 116.981 40.1094 116.305C40.1628 116.137 40.2196 115.972 40.2797 115.804C40.5521 115.059 40.9021 114.357 41.3215 113.713C41.4317 113.545 41.5452 113.376 41.6554 113.212C41.9019 112.874 42.1662 112.555 42.4468 112.256C45.3868 111.512 48.3879 111.151 51.3956 111.18H144.67L145.418 111.407C144.351 111.705 143.371 112.333 142.58 113.224C142.438 113.38 142.305 113.547 142.182 113.725C141.736 114.339 141.396 115.049 141.181 115.816C141.134 115.98 141.095 116.147 141.064 116.317C140.973 116.759 140.929 117.213 140.93 117.668V143.146C140.932 143.54 140.966 143.934 141.034 144.32C141.061 144.488 141.096 144.654 141.141 144.817C141.331 145.58 141.647 146.291 142.069 146.912C142.184 147.086 142.308 147.252 142.44 147.409C143.013 148.107 143.703 148.658 144.466 149.027Z" fill="#1F477A"/>
<path d="M144.466 149.027C143.712 149.241 142.933 149.439 142.129 149.622H51.3956C48.7137 149.64 46.0366 149.354 43.4017 148.768C42.9118 148.372 42.4566 147.919 42.0427 147.417C41.9092 147.257 41.7789 147.088 41.6554 146.92C41.1895 146.281 40.7925 145.578 40.4733 144.825C40.4032 144.661 40.3364 144.492 40.2763 144.328C40.0281 143.657 39.8487 142.954 39.7421 142.233C39.7187 142.069 39.6953 141.904 39.6786 141.732C39.6384 141.349 39.6183 140.963 39.6185 140.577V119.567C39.6185 119.339 39.6185 119.116 39.6386 118.897C39.6586 118.678 39.6619 118.564 39.6786 118.4C39.7529 117.684 39.8975 116.981 40.1094 116.305C40.1628 116.137 40.2196 115.972 40.2797 115.804C40.5521 115.059 40.9021 114.357 41.3215 113.713C41.4317 113.545 41.5452 113.376 41.6554 113.212C41.9019 112.874 42.1662 112.555 42.4468 112.256C45.3868 111.512 48.3879 111.151 51.3956 111.18H144.67L145.418 111.407C144.351 111.705 143.371 112.333 142.58 113.224C142.438 113.38 142.305 113.547 142.182 113.725C141.736 114.339 141.396 115.049 141.181 115.816C141.134 115.98 141.095 116.147 141.064 116.317C140.973 116.759 140.929 117.213 140.93 117.668V143.146C140.932 143.54 140.966 143.934 141.034 144.32C141.061 144.488 141.096 144.654 141.141 144.817C141.331 145.58 141.647 146.291 142.069 146.912C142.184 147.086 142.308 147.252 142.44 147.409C143.013 148.107 143.703 148.658 144.466 149.027Z" fill="url(#paint9_linear_1_22)"/>
<path d="M183.808 151.18C183.539 151.544 183.248 151.885 182.936 152.198C183.246 151.882 183.537 151.542 183.808 151.18Z" fill="url(#paint10_linear_1_22)"/>
<path d="M184.683 114.422C184.632 114.332 184.582 114.242 184.529 114.155C184.429 113.983 184.322 113.811 184.215 113.646C184.382 113.897 184.539 114.155 184.683 114.422Z" fill="url(#paint11_linear_1_22)"/>
<path d="M185.741 117.002C185.768 117.092 185.791 117.182 185.814 117.272C185.771 117.088 185.718 116.908 185.661 116.728C185.691 116.818 185.718 116.908 185.741 117.002Z" fill="url(#paint12_linear_1_22)"/>
<path d="M186.235 119.719V141.211C186.235 141.415 186.219 141.513 186.202 141.665C186.142 142.31 186.023 142.945 185.848 143.561C185.808 143.713 185.764 143.862 185.714 144.007C184.872 146.464 183.281 148.465 181.25 149.622H141.261C138.176 149.622 135.628 147.178 135.25 144.015C135.227 143.865 135.214 143.713 135.21 143.561C135.198 143.431 135.193 143.3 135.194 143.169V117.812C135.194 114.245 137.912 111.36 141.271 111.36H182.192C184.643 113.224 186.235 116.27 186.235 119.719Z" fill="#1F477A"/>
<path d="M184.529 113.713H142.182C142.305 113.536 142.438 113.368 142.58 113.212H184.178C184.305 113.376 184.419 113.529 184.529 113.713ZM185.741 116.305H141.064C141.094 116.135 141.133 115.968 141.181 115.804H185.574C185.634 115.968 185.691 116.137 185.741 116.305ZM186.219 118.897H140.93V118.396H186.182C186.182 118.56 186.209 118.729 186.219 118.897ZM140.93 120.988H186.239V121.489H140.93V120.988ZM140.93 123.58H186.239V124.081H140.93V123.58ZM140.93 126.172H186.239V126.673H140.93V126.172ZM140.93 128.768H186.239V129.265H140.93V128.768ZM140.93 131.36H186.239V131.857H140.93V131.36ZM140.93 133.952H186.239V134.449H140.93V133.952ZM140.93 136.544H186.239V137.041H140.93V136.544ZM140.93 139.136H186.239V139.637H140.93V139.136ZM186.242 141.72C186.234 141.887 186.234 142.055 186.242 142.221H140.93V141.72H186.242ZM185.577 144.32C185.577 144.489 185.394 144.653 185.38 144.821H141.141C141.096 144.657 141.06 144.49 141.034 144.32H185.577Z" fill="white"/>
<path d="M143.809 113.713H41.3214C41.4316 113.545 41.5451 113.376 41.6553 113.212H142.994C143.274 113.376 143.545 113.529 143.809 113.713ZM142.887 116.305H40.1093C40.1627 116.137 40.2195 115.972 40.2796 115.804H142.483C142.625 115.962 142.76 116.129 142.887 116.305ZM144.022 118.897H39.6385C39.6385 118.729 39.6619 118.564 39.6786 118.4H143.922C143.964 118.563 143.997 118.729 144.022 118.897ZM39.6151 120.988H144.069V121.485H39.6151V120.988ZM39.6151 123.58H144.069V124.077H39.6151V123.58ZM39.6151 126.172H144.069V126.673H39.6151V126.172ZM39.6151 128.768H144.069V129.265H39.6151V128.768ZM39.6151 131.364H144.069V131.857H39.6151V131.364ZM39.6151 133.952H144.069V134.445H39.6151V133.952ZM39.6151 136.544H144.069V137.041H39.6151V136.544ZM39.6151 139.136H144.069V139.637H39.6151V139.136ZM143.929 141.72C143.884 141.891 143.832 142.058 143.772 142.221H39.742C39.7186 142.057 39.6953 141.893 39.6786 141.72H143.929ZM142.496 144.324C142.347 144.5 142.19 144.666 142.025 144.821H40.4733C40.4031 144.657 40.3364 144.489 40.2763 144.324H142.496Z" fill="white"/>
<path opacity="0.2" d="M147.712 104.523C146.206 106.645 144.259 108.779 143.488 109.253C139.1 111.963 134.018 114.057 131.444 119.011C128.185 125.275 130.292 133.47 128.796 140.604C128.522 141.904 128.098 143.232 127.24 144.128C126.382 145.025 125.003 145.33 124.091 144.52C123.29 143.811 123.089 142.527 122.939 141.364C121.623 130.387 121.574 119.251 122.792 108.259C117.784 110.882 114.394 116.418 111.72 122.018C109.045 127.617 106.801 133.619 103.075 138.322C102.016 139.653 100.624 140.957 99.0879 140.698C97.2414 137.957 98.2097 133.952 99.2582 130.671C101.358 124.081 103.465 117.476 106.17 111.191C107.045 109.155 108.017 107.111 109.486 105.616C109.888 105.208 110.322 104.845 110.781 104.531L147.712 104.523Z" fill="#3F3D56"/>
<path d="M184.198 146.916C184.085 147.092 183.958 147.229 183.831 147.413H42.0426C41.909 147.253 41.7788 147.085 41.6553 146.916H184.198Z" fill="white"/>
<path d="M72.719 210.284H55.586C50.0932 208.663 47.4319 201.697 47.4319 201.697C47.4319 201.697 46.9344 167.633 47.4319 163.326C47.9295 159.019 56.2505 155.926 56.2505 155.926H72.719C67.2262 156.85 63.2359 163.13 63.2359 163.13C63.2359 163.13 62.902 200.777 63.2359 203.311C63.5698 205.844 72.719 210.284 72.719 210.284Z" fill="url(#paint13_linear_1_22)"/>
<path d="M72.719 210.284H67.2262C61.7401 208.663 59.0788 201.697 59.0788 201.697C59.0788 201.697 58.5779 167.633 59.0788 163.326C59.5797 159.019 67.894 155.926 67.894 155.926H72.719C67.2262 156.85 63.236 163.13 63.236 163.13C63.236 163.13 62.9021 200.777 63.236 203.311C63.5699 205.844 72.719 210.284 72.719 210.284Z" fill="url(#paint14_linear_1_22)"/>
<path d="M96.5802 129.132L94.9841 132.382L98.6905 134.273L100.223 131.18L96.5802 129.132Z" fill="url(#paint15_linear_1_22)"/>
<path d="M121.5 137.86L121.326 141.481L125.367 141.207L125.537 137.86H121.5Z" fill="url(#paint16_linear_1_22)"/>
<path d="M95.7121 131.661C95.6303 131.464 95.517 131.288 95.3782 131.141C95.2138 131.013 95.0262 130.933 94.8306 130.906L88.4161 129.394C88.1847 129.327 87.9466 129.297 87.7083 129.304C87.0939 129.351 86.5896 129.88 86.1856 130.424C85.9538 130.681 85.8052 131.024 85.7649 131.395C85.7885 131.628 85.8529 131.852 85.954 132.055C86.0551 132.257 86.1908 132.432 86.3526 132.57C86.8033 133.06 87.2771 133.52 87.7717 133.948C88.7221 134.73 89.7111 135.445 90.7335 136.09C91.4213 136.544 92.1092 136.998 92.8137 137.413C93.9724 138.095 95.1745 138.666 96.3832 139.222C96.423 139.251 96.4674 139.271 96.5137 139.28C96.5601 139.289 96.6075 139.287 96.6531 139.274C96.6988 139.262 96.7419 139.238 96.7798 139.206C96.8178 139.173 96.8498 139.132 96.8741 139.085C97.7486 138.016 98.4381 136.758 98.9043 135.381C99.0211 135.041 99.2382 134.293 98.9043 134.011C98.7874 133.913 98.4568 133.929 98.3099 133.889C98.091 133.827 97.8766 133.745 97.6688 133.643C96.8548 133.241 96.17 132.547 95.7121 131.661ZM121.737 139.837C121.582 139.715 121.409 139.629 121.226 139.582C121.03 139.569 120.833 139.609 120.652 139.7L114.461 142.178C114.232 142.257 114.013 142.37 113.81 142.515C113.299 142.907 113.089 143.69 112.972 144.383C112.883 144.741 112.903 145.125 113.029 145.467C113.147 145.653 113.298 145.808 113.47 145.922C113.643 146.035 113.833 146.106 114.03 146.129C114.63 146.288 115.236 146.405 115.847 146.481C117.003 146.599 118.163 146.634 119.323 146.587C120.114 146.587 120.902 146.564 121.69 146.505C122.986 146.411 124.271 146.196 125.55 145.965C125.643 145.969 125.734 145.93 125.802 145.857C125.871 145.784 125.912 145.682 125.918 145.573C126.214 144.132 126.272 142.638 126.088 141.172C126.041 140.808 125.898 140.041 125.494 139.997C125.35 139.978 125.073 140.189 124.929 140.24C124.711 140.319 124.488 140.374 124.261 140.405C123.39 140.533 122.506 140.335 121.737 139.837ZM146.8 90.9954C146.8 90.9954 145.752 102.503 136.706 104.531C130.582 105.906 123.093 105.416 118.899 104.958C117.907 104.851 116.909 105.067 116.016 105.583C115.123 106.099 114.368 106.895 113.837 107.883L100.814 132.206L97.041 130.068H97.011L95.6754 129.316L106.521 99.6447C107.158 97.8015 108.136 96.1472 109.384 94.8011C110.633 93.455 112.12 92.4507 113.74 91.8607L126.198 87.3384L129.11 86.2812C129.11 86.2812 140.77 84.903 146.8 90.9954Z" fill="#3F3D56"/>
<path opacity="0.24" d="M126.208 87.3228L127.026 89.3549C127.026 89.3549 112.668 94.2884 110.905 96.6885C108.551 99.8992 97.0444 130.068 97.0444 130.068H97.0144L95.6787 129.316L106.524 99.6447C107.161 97.8016 108.139 96.1472 109.387 94.8011C110.636 93.455 112.124 92.4508 113.743 91.8608L126.208 87.3228Z" fill="white"/>
<path d="M131.307 88.9985C131.307 88.9985 119.774 102.174 119.4 109.222C119.026 116.27 120.639 138.369 120.639 138.369H126.235C126.235 138.369 125.958 111.54 128.238 111.352C130.519 111.164 140.857 103.372 142.516 101.136C144.176 98.9007 146.824 90.9876 146.824 90.9876L131.307 88.9985Z" fill="#3F3D56"/>
<path d="M146.8 90.9955C146.8 90.9955 137.554 96.528 127.954 90.0558C127.117 89.4919 126.313 88.8628 125.547 88.1724C125.547 88.1724 129.594 79.6954 126.372 67.3813C124.993 62.115 124.963 52.0601 131.791 50.627H131.825C138.616 49.2135 138.232 51.1791 138.232 51.1791L141.304 54.6795C147.211 60.3139 147.859 68.9162 146.8 90.9955Z" fill="#1F477A"/>
<path opacity="0.24" d="M131.825 50.6191C131.54 51.3435 131.099 51.9683 130.546 52.432C130.546 52.432 126.485 54.5424 127.297 61.5237C128.108 68.505 129.594 81.9311 129.594 81.9311L127.954 90.0557C127.117 89.4919 126.313 88.8627 125.547 88.1724C125.547 88.1724 129.594 79.6954 126.372 67.3812C124.993 62.1149 124.963 52.06 131.791 50.627L131.825 50.6191Z" fill="white"/>
<path d="M137.932 50.1727C137.563 50.6892 137.108 51.1125 136.596 51.4173C136.084 51.722 135.524 51.9017 134.95 51.9456C134.377 51.9896 133.802 51.8967 133.26 51.6728C132.718 51.4488 132.221 51.0983 131.798 50.6426C131.798 50.6426 126.789 56.5158 131.851 57.2245C134.523 57.616 137.812 53.8259 138.763 51.6841L137.932 50.1727Z" fill="#3F3D56"/>
<path d="M139.434 44.6715C139.414 44.7498 138.473 48.1289 137.765 50.5447C137.24 52.4278 136.125 54.0074 134.646 54.9653C133.778 55.5794 132.812 55.9791 131.808 56.1399C131.568 56.1656 131.326 56.1131 131.11 55.9881C130.894 55.8631 130.711 55.6705 130.582 55.4316C130.454 55.1927 130.384 54.9167 130.38 54.634C130.376 54.3514 130.44 54.0731 130.562 53.8298C130.796 53.3482 131.05 52.7922 131.284 52.2009C131.771 50.9715 132.178 49.605 132.112 48.5243V48.4069C132.052 47.843 132.365 47.3458 132.893 46.9112C133.638 46.3043 134.81 45.8266 135.955 45.4663C137.101 45.1257 138.263 44.8603 139.434 44.6715Z" fill="url(#paint17_linear_1_22)"/>
<path d="M132.011 52.154C131.782 52.2082 131.547 52.228 131.314 52.2127C131.801 50.9833 132.208 49.6168 132.142 48.5361L132.916 46.9229L133.494 45.7248L135.978 45.4781L138.489 45.2314C136.833 49.8243 134.052 51.7272 132.011 52.154Z" fill="url(#paint18_linear_1_22)"/>
<path d="M136.676 29.2211C135.768 28.9978 134.829 28.9973 133.921 29.2195C133.012 29.4418 132.152 29.8821 131.395 30.5127C130.639 31.1434 130.001 31.9507 129.524 32.8841C129.046 33.8174 128.738 34.8565 128.619 35.9361C128.105 39.1006 128.084 42.3478 128.556 45.5212C129.701 50.4351 135.855 48.6536 137.104 47.1618C138.352 45.67 143.371 38.7944 142.55 36.1202C142.025 34.3034 140.189 30.153 136.676 29.2211Z" fill="url(#paint19_linear_1_22)"/>
<path d="M131.718 24.4286L132.666 25.431C132.014 25.2057 131.326 25.1653 130.659 25.313C129.991 25.4607 129.363 25.7924 128.826 26.2806C127.545 27.1403 126.605 28.5568 126.208 30.2235L128.315 29.7811C128.315 29.7811 127.547 32.4397 131.04 33.767C134.533 35.0943 138.239 36.453 138.239 36.453L137.491 34.1037C137.491 34.1037 139.451 35.8344 139.615 36.915C139.609 38.554 139.497 40.1901 139.281 41.8094C139.281 41.8094 140.777 39.4209 141.004 40.1179C141.231 40.8148 139.929 42.9958 139.334 43.3834C138.74 43.771 138.459 45.3803 138.386 45.4977C138.312 45.6152 141.057 44.1508 141.328 43.4304C141.598 42.7099 145.575 35.854 144.49 33.8022L145.388 34.0019C144.96 33.4257 144.429 32.9682 143.832 32.6628C143.832 32.6628 140.102 21.9071 131.718 24.4286Z" fill="#3F3D56"/>
<path d="M130.395 82.2444C129.891 81.6531 129.394 80.9483 128.689 80.8074C128.442 81.4965 128.946 82.2052 129.16 82.9061C129.192 82.9842 129.209 83.0699 129.209 83.1567C129.209 83.2434 129.192 83.3291 129.16 83.4072C129.06 83.5952 128.826 83.6069 128.642 83.5913C127.751 83.5164 126.877 83.2704 126.054 82.863C125.293 82.4714 124.562 81.9664 123.737 81.8685C123.649 81.8477 123.558 81.8615 123.477 81.9076C123.276 82.0564 123.393 82.4166 123.537 82.6359C123.843 83.1094 124.191 83.5438 124.575 83.9319C123.993 83.6305 123.373 83.444 122.739 83.3798C122.562 83.3798 122.321 83.4229 122.325 83.6304C122.336 83.7157 122.371 83.7942 122.425 83.8536C122.894 84.4837 123.461 85.0044 124.094 85.3885C123.634 85.2744 123.163 85.2284 122.692 85.2514C122.488 85.2514 122.218 85.3767 122.248 85.6117C122.263 85.6882 122.295 85.7585 122.341 85.8153C122.906 86.6157 123.669 87.1893 124.525 87.4558L123.19 87.4911C123.105 87.4863 123.022 87.5065 122.946 87.5498C122.705 87.7299 122.916 88.1724 123.149 88.3642C124.178 89.206 125.487 89.3548 126.746 89.4606C129.153 89.6642 131.688 89.7738 133.858 88.5287C134.015 88.4347 134.192 88.3094 134.222 88.1058C134.229 87.9992 134.215 87.8922 134.182 87.7926C133.918 86.7628 133.785 84.8951 132.986 84.2686C132.599 83.9672 132.122 83.7949 131.724 83.4856C131.327 83.1762 130.849 82.5106 130.395 82.2444Z" fill="url(#paint20_linear_1_22)"/>
<path d="M148.76 80.0595C148.006 88.7557 134.549 89.8208 134.549 89.8208L133.163 84.2334L132.92 83.2506C132.92 83.2506 140.119 82.1856 141.494 79.5427C142.87 76.8997 137.207 68.039 140.63 63.0977C144.052 58.1564 144.83 59.6756 144.83 59.6756C144.83 59.6756 149.508 71.3632 148.76 80.0595Z" fill="#1F477A"/>
<path d="M112.658 67.0602C112.658 67.0602 112.658 67.3852 112.601 67.8746C112.488 69.0923 112.164 71.3202 111.302 72.1307C110.09 73.2701 109.923 71.61 109.95 70.9561C109.977 70.5971 110.027 70.241 110.1 69.8911C110.381 68.4737 111.867 67.5026 112.438 67.1816L112.658 67.0602Z" fill="url(#paint21_linear_1_22)"/>
<path d="M112.601 67.8746C112.488 69.0923 112.164 71.3202 111.302 72.1307C110.928 71.8136 110.448 71.3907 109.95 70.9561C109.282 70.3687 108.571 69.7501 108.067 69.3194C107.618 68.9665 107.21 68.5481 106.851 68.0743C106.539 67.5919 106.278 67.0658 106.077 66.5081L105.042 63.8691C104.708 63.0037 104.374 61.8604 104.968 61.1909C105.118 61.0186 106.487 60.7054 106.578 60.4783C106.828 59.8283 105.242 58.454 105.342 57.7374C105.392 57.5423 105.498 57.3736 105.643 57.2607C105.787 57.1477 105.961 57.0975 106.133 57.1188C106.467 57.1384 107.416 58.1603 107.713 58.3678C108.3 58.7594 107.806 59.3154 108.381 59.7226C109.126 60.1713 109.803 60.7614 110.384 61.4689C111.032 62.3577 111.359 63.4971 111.67 64.6013C111.897 65.4118 112.201 66.2888 112.434 67.162C112.498 67.4126 112.555 67.6436 112.601 67.8746Z" fill="url(#paint22_linear_1_22)"/>
<path d="M107.69 61.6333L105.462 49.2487L104.638 44.6715L117.58 48.7397L121.336 78.368L109.309 74.0688L107.69 61.6333Z" fill="#1F477A"/>
<path d="M110.384 61.4845L105.262 48.1406L109.309 74.0688L121.336 78.368L120.048 68.2074L110.384 61.4845Z" fill="url(#paint23_linear_1_22)"/>
<path d="M108.427 66.974C108.835 66.7352 109.67 66.3006 109.88 65.8268C109.93 65.7133 110.003 65.5645 109.94 65.4627C109.65 64.9928 108.454 65.5919 108.114 65.4627C108.347 65.0124 110.431 63.6459 109.449 63.3366C109.239 63.27 107.933 64.0453 107.723 63.9748C107.886 63.8182 109.229 62.6983 109.459 62.4086C109.526 62.3223 109.565 62.212 109.571 62.0959C109.577 61.9798 109.55 61.8647 109.492 61.7696C109.435 61.6744 109.352 61.6048 109.257 61.5723C109.162 61.5397 109.06 61.546 108.968 61.5903C108.257 61.9731 107.528 62.3078 106.785 62.5926C106.928 62.3146 108.868 61.0264 108.945 60.6975C108.985 60.5791 108.992 60.449 108.965 60.3256C108.938 60.2563 108.898 60.1944 108.849 60.1438C108.801 60.0933 108.743 60.0552 108.681 60.0319C108.14 59.7852 107.533 60.0319 106.992 60.2864L105.709 60.8816C105.299 61.0695 104.845 61.3123 104.708 61.7978C104.648 62.0435 104.637 62.3023 104.678 62.5535C104.837 64.1318 105.319 65.6416 106.083 66.9545C106.464 67.6044 107.666 69.1745 108.357 69.3272C108.972 69.4643 107.856 67.3264 108.427 66.974Z" fill="url(#paint24_linear_1_22)"/>
<path opacity="0.24" d="M121.817 107.112C121.817 107.112 126.232 95.2516 131.334 91.8764L129.594 91.0503C129.594 91.0503 120.635 102.221 119.577 107.969C118.518 113.717 120.642 138.38 120.642 138.38H122.111C122.111 138.38 119.684 109.531 121.817 107.112ZM141.885 81.4221C139.044 82.7926 134.205 83.9868 133.164 84.2374L132.963 84.2844L132.92 83.2546C132.92 83.2546 140.119 82.1896 141.495 79.5466C142.87 76.9037 137.207 68.043 140.63 63.1017C140.63 63.1017 140.196 67.4713 141.321 70.7016C142.446 73.9319 145.077 79.8795 141.885 81.4221Z" fill="white"/>
</g>
<defs>
<linearGradient id="paint0_linear_1_22" x1="140.336" y1="277.607" x2="66.835" y2="-69.7534" gradientUnits="userSpaceOnUse">
<stop offset="0.02" stop-color="#68E1FD"/>
<stop offset="1" stop-color="white" stop-opacity="0"/>
</linearGradient>
<linearGradient id="paint1_linear_1_22" x1="196.409" y1="102.992" x2="222.034" y2="136.293" gradientUnits="userSpaceOnUse">
<stop stop-color="white" stop-opacity="0"/>
<stop offset="0.99" stop-color="white"/>
</linearGradient>
<linearGradient id="paint2_linear_1_22" x1="117.43" y1="133.537" x2="118.242" y2="70.7984" gradientUnits="userSpaceOnUse">
<stop stop-color="white" stop-opacity="0"/>
<stop offset="0.99" stop-color="white"/>
</linearGradient>
<linearGradient id="paint3_linear_1_22" x1="137.655" y1="82.401" x2="101.438" y2="156.695" gradientUnits="userSpaceOnUse">
<stop offset="0.17" stop-color="#00272E"/>
<stop offset="1" stop-color="#69B9EB" stop-opacity="0"/>
</linearGradient>
<linearGradient id="paint4_linear_1_22" x1="96.8741" y1="176.979" x2="98.8107" y2="224.523" gradientUnits="userSpaceOnUse">
<stop offset="0.17" stop-color="#00272E"/>
<stop offset="1" stop-color="#69B9EB" stop-opacity="0"/>
</linearGradient>
<linearGradient id="paint5_linear_1_22" x1="98.6438" y1="150.832" x2="96.2116" y2="176.769" gradientUnits="userSpaceOnUse">
<stop stop-color="white" stop-opacity="0"/>
<stop offset="0.99" stop-color="white"/>
</linearGradient>
<linearGradient id="paint6_linear_1_22" x1="124.572" y1="182.758" x2="180.931" y2="183.288" gradientUnits="userSpaceOnUse">
<stop offset="0.18" stop-color="#00272E"/>
<stop offset="1" stop-color="#69B9EB" stop-opacity="0"/>
</linearGradient>
<linearGradient id="paint7_linear_1_22" x1="221.292" y1="186.772" x2="137.517" y2="180.881" gradientUnits="userSpaceOnUse">
<stop stop-color="#68E1FD"/>
<stop offset="1" stop-color="white"/>
</linearGradient>
<linearGradient id="paint8_linear_1_22" x1="186.823" y1="132.652" x2="140.1" y2="129.368" gradientUnits="userSpaceOnUse">
<stop stop-color="#68E1FD"/>
<stop offset="1" stop-color="white"/>
</linearGradient>
<linearGradient id="paint9_linear_1_22" x1="142.533" y1="130.393" x2="18.5655" y2="130.393" gradientUnits="userSpaceOnUse">
<stop stop-color="white" stop-opacity="0"/>
<stop offset="0.99" stop-color="white"/>
</linearGradient>
<linearGradient id="paint10_linear_1_22" x1="182.936" y1="151.689" x2="183.808" y2="151.689" gradientUnits="userSpaceOnUse">
<stop stop-color="#68E1FD"/>
<stop offset="1" stop-color="#69B9EB"/>
</linearGradient>
<linearGradient id="paint11_linear_1_22" x1="184.215" y1="114.034" x2="184.683" y2="114.034" gradientUnits="userSpaceOnUse">
<stop stop-color="#68E1FD"/>
<stop offset="1" stop-color="#69B9EB"/>
</linearGradient>
<linearGradient id="paint12_linear_1_22" x1="185.661" y1="117.002" x2="185.814" y2="117.002" gradientUnits="userSpaceOnUse">
<stop stop-color="#68E1FD"/>
<stop offset="1" stop-color="#69B9EB"/>
</linearGradient>
<linearGradient id="paint13_linear_1_22" x1="55.2054" y1="221.658" x2="70.8324" y2="140.341" gradientUnits="userSpaceOnUse">
<stop stop-color="white" stop-opacity="0"/>
<stop offset="0.99" stop-color="white"/>
</linearGradient>
<linearGradient id="paint14_linear_1_22" x1="67.9107" y1="157.503" x2="60.8389" y2="232.221" gradientUnits="userSpaceOnUse">
<stop offset="0.02" stop-color="#68E1FD"/>
<stop offset="1" stop-color="white"/>
</linearGradient>
<linearGradient id="paint15_linear_1_22" x1="100.801" y1="132.01" x2="93.0799" y2="131.465" gradientUnits="userSpaceOnUse">
<stop stop-color="#ECC4D7"/>
<stop offset="0.42" stop-color="#EFD4D1"/>
<stop offset="1" stop-color="#F2EAC9"/>
</linearGradient>
<linearGradient id="paint16_linear_1_22" x1="126.299" y1="138.137" x2="118.958" y2="140.685" gradientUnits="userSpaceOnUse">
<stop stop-color="#ECC4D7"/>
<stop offset="0.42" stop-color="#EFD4D1"/>
<stop offset="1" stop-color="#F2EAC9"/>
</linearGradient>
<linearGradient id="paint17_linear_1_22" x1="131.647" y1="50.3748" x2="138.1" y2="51.8492" gradientUnits="userSpaceOnUse">
<stop stop-color="#ECC4D7"/>
<stop offset="0.42" stop-color="#EFD4D1"/>
<stop offset="1" stop-color="#F2EAC9"/>
</linearGradient>
<linearGradient id="paint18_linear_1_22" x1="137.038" y1="46.2965" x2="118.448" y2="61.6019" gradientUnits="userSpaceOnUse">
<stop stop-color="#ECC4D7"/>
<stop offset="0.42" stop-color="#EFD4D1"/>
<stop offset="1" stop-color="#F2EAC9"/>
</linearGradient>
<linearGradient id="paint19_linear_1_22" x1="128.303" y1="38.2781" x2="141.967" y2="41.4004" gradientUnits="userSpaceOnUse">
<stop stop-color="#ECC4D7"/>
<stop offset="0.42" stop-color="#EFD4D1"/>
<stop offset="1" stop-color="#F2EAC9"/>
</linearGradient>
<linearGradient id="paint20_linear_1_22" x1="122.231" y1="85.2044" x2="134.202" y2="85.2044" gradientUnits="userSpaceOnUse">
<stop stop-color="#ECC4D7"/>
<stop offset="0.42" stop-color="#EFD4D1"/>
<stop offset="1" stop-color="#F2EAC9"/>
</linearGradient>
<linearGradient id="paint21_linear_1_22" x1="109.95" y1="69.7893" x2="112.658" y2="69.7893" gradientUnits="userSpaceOnUse">
<stop stop-color="#183866"/>
<stop offset="1" stop-color="#1A7FC1"/>
</linearGradient>
<linearGradient id="paint22_linear_1_22" x1="104.637" y1="64.6326" x2="112.601" y2="64.6326" gradientUnits="userSpaceOnUse">
<stop stop-color="#ECC4D7"/>
<stop offset="0.42" stop-color="#EFD4D1"/>
<stop offset="1" stop-color="#F2EAC9"/>
</linearGradient>
<linearGradient id="paint23_linear_1_22" x1="109.219" y1="55.6544" x2="130.217" y2="98.9567" gradientUnits="userSpaceOnUse">
<stop stop-color="white" stop-opacity="0"/>
<stop offset="0.99" stop-color="white"/>
</linearGradient>
<linearGradient id="paint24_linear_1_22" x1="104.638" y1="64.6287" x2="109.967" y2="64.6287" gradientUnits="userSpaceOnUse">
<stop stop-color="#ECC4D7"/>
<stop offset="0.42" stop-color="#EFD4D1"/>
<stop offset="1" stop-color="#F2EAC9"/>
</linearGradient>
<clipPath id="clip0_1_22">
<rect width="270" height="234" fill="white"/>
</clipPath>
</defs>
</svg>
