<svg width="273" height="240" viewBox="0 0 273 240" fill="none" xmlns="http://www.w3.org/2000/svg">
<path d="M12.4091 36.7873C18.2166 45.0061 23.7883 53.336 25.8482 63.0481C28.603 76.0181 24.6817 89.9629 28.9504 102.513C34.7083 119.445 53.6817 129.12 60.0352 145.841C64.0557 156.417 62.5294 168.684 67.7412 178.729C75.0254 192.785 83.7738 198.573 89.4696 199.708C107.388 203.287 144.665 205.187 162.795 202.904C175.08 201.362 188.507 196.783 193.88 185.689C198.049 177.075 196.262 166.697 199.476 157.688C205.234 141.559 224.791 134.513 233.489 119.741C244.769 100.576 234.544 74.9444 243.479 54.5948C247.301 45.8947 254.237 39.095 260.591 31.9251V10.9091H12.4091V36.7873Z" fill="#0E1237"/>
<path d="M98.9501 144.496C96.7909 145.422 94.4456 146.816 94.0982 149.124C93.5149 152.962 98.5406 154.936 102.425 155.356C131.723 158.503 161.343 153.406 190.753 155.208C193.818 155.393 196.982 155.701 199.973 156.405C200.605 154.887 201.35 153.455 202.194 152.086C200.68 151.505 199.228 150.753 197.9 149.778C200.332 148.457 202.963 147.742 205.693 147.371C208.225 144.434 211.178 141.769 214.243 139.153C189.251 139.128 164.247 139.103 139.255 139.066C125.592 139.079 111.496 139.153 98.9501 144.496ZM74.3553 18.0913C72.6925 17.7828 71.0048 17.3509 69.6398 16.3513C67.8778 15.0555 67.0463 13.0563 66.9471 10.9091H12.4091V36.7873C14.6303 39.9341 16.8143 43.081 18.775 46.3266C26.5431 44.7717 34.2615 42.8218 41.9428 40.9708C83.2402 31.0489 125.506 23.8297 167.982 24.7182C180.987 24.9897 195.257 26.5816 204.266 35.9111C206.276 37.9967 208.026 40.7116 207.679 43.5746C207.046 48.696 200.68 50.6458 195.505 51.1024C156.714 54.5207 117.998 38.9839 79.2693 43.0563C71.9728 43.8214 63.1747 46.8325 62.182 54.0641C61.4747 59.2719 65.6565 64.1464 70.5829 66.0592C75.5093 67.972 80.9818 67.6141 86.2556 67.2315C102.896 66.0222 119.537 64.8128 136.165 63.6034C146.973 62.8136 159.569 62.7396 166.468 71.0448C167.895 72.7601 169.012 74.9074 168.851 77.1287C168.429 82.7313 161.169 84.5948 155.523 84.9033C131.723 86.199 107.785 86.2854 84.2205 89.8148C65.6441 92.6038 47.0801 97.6635 30.6505 106.598C35.9119 117.297 46.2115 125.22 53.6073 134.784C61.6484 132.958 69.6523 130.823 77.6561 128.885C114.908 119.852 153.116 114.78 191.447 113.78C203.745 113.459 216.65 113.706 227.459 119.556C228.935 120.358 230.424 121.357 231.678 122.53C232.323 121.629 232.931 120.716 233.502 119.753C235.822 115.804 237.237 111.571 238.093 107.178C234.792 105.673 230.983 105.006 227.335 104.574C184.647 99.4652 141.799 112.694 98.8136 111.843C96.9647 111.806 95.004 111.707 93.4777 110.67C91.9514 109.634 91.182 107.301 92.3857 105.919C92.9938 105.216 93.9493 104.92 94.8427 104.673C121.857 97.0958 151.428 100.576 177.599 90.5183C183.94 88.0872 190.926 83.2743 190.269 76.5487C189.685 70.6005 183.419 67.0588 177.797 64.9609C150.361 54.7058 121.361 56.9518 92.6339 57.4331C88.0798 57.5072 81.627 55.2118 83.1037 50.9296C83.8234 48.8441 86.2432 47.9185 88.39 47.3755C123.16 38.5273 158.414 58.951 194.264 60.6787C203.509 61.123 213.523 60.0246 220.448 53.9284C228.191 47.1164 230.065 35.1213 226.317 25.5327C224.034 19.7202 219.988 14.784 215.025 10.9337H117.812C103.492 15.8576 89.0104 20.8186 74.3553 18.0913ZM89.4696 199.72C107.053 198.449 129.315 194.624 146.899 193.352C161.901 192.266 176.966 191.168 191.857 189.095C192.626 188.034 193.309 186.911 193.892 185.701C196.275 180.79 196.709 175.311 197.243 169.831C154.419 176.236 108.344 165.191 68.25 179.667C73.5239 188.972 78.7605 196.623 89.4696 199.72Z" fill="#262E68"/>
<path d="M158.663 119.753C164.81 119.753 169.794 114.797 169.794 108.684C169.794 102.57 164.81 97.6141 158.663 97.6141C152.515 97.6141 147.532 102.57 147.532 108.684C147.532 114.797 152.515 119.753 158.663 119.753Z" fill="#33C3DF"/>
<path d="M158.663 97.6141C152.533 97.6141 147.569 102.538 147.544 108.622C148.698 109.449 150.274 109.819 150.944 111.053C151.478 112.04 151.267 113.336 151.974 114.212C152.384 114.731 153.041 114.99 153.463 115.508C154.133 116.322 154.059 117.594 154.816 118.334C155.449 117.717 155.858 116.903 156.032 116.039C156.119 115.607 156.144 115.162 156.317 114.755C156.528 114.262 156.95 113.854 157.049 113.324C157.186 112.559 156.615 111.868 156.044 111.349C155.3 110.67 154.468 110.078 153.587 109.572C153.314 109.412 153.016 109.264 152.806 109.017C152.595 108.782 152.483 108.425 152.607 108.141C152.681 107.98 152.83 107.82 152.806 107.647C152.768 107.45 152.545 107.351 152.371 107.24C151.813 106.882 151.726 106.055 152.036 105.475C152.346 104.895 152.942 104.513 153.538 104.229C154.133 103.945 154.779 103.735 155.325 103.365C155.871 102.982 156.317 102.39 156.28 101.724C156.255 101.242 155.995 100.798 155.995 100.329C155.995 99.8478 156.503 99.3295 156.901 99.5886C157.298 99.8601 157.099 100.601 157.521 100.835C157.732 100.946 157.993 100.872 158.216 100.786C158.737 100.601 159.295 100.366 159.519 99.8725C159.581 99.7367 159.606 99.5886 159.693 99.4529C159.792 99.2925 159.966 99.1814 160.102 99.0457C160.4 98.7248 160.462 98.2682 160.474 97.8363V97.7622C159.879 97.6758 159.271 97.6141 158.663 97.6141Z" fill="#2D92A0"/>
<path d="M164.234 99.1198C163.614 99.1938 162.969 99.2555 162.485 99.6257C162.075 99.9342 161.852 100.428 161.455 100.749C160.996 101.119 160.338 101.242 159.941 101.674C159.854 101.773 159.779 101.884 159.804 102.007C159.829 102.143 159.941 102.23 160.028 102.328C160.325 102.686 160.214 103.229 159.941 103.612C159.668 103.982 159.283 104.253 158.973 104.599C158.563 105.068 158.315 105.66 158.092 106.228C157.868 106.796 157.633 107.4 157.682 108.017C157.732 108.634 158.166 109.264 158.774 109.338C159.283 109.399 159.891 109.103 160.251 109.474C160.363 109.585 160.412 109.733 160.462 109.868C160.648 110.461 160.723 111.09 160.661 111.707C160.636 112.016 160.586 112.324 160.661 112.62C160.797 113.139 161.293 113.484 161.542 113.965C161.864 114.607 161.703 115.372 161.777 116.076C161.79 116.174 161.815 116.286 161.901 116.323C161.976 116.36 162.063 116.31 162.137 116.273C162.944 115.841 163.688 115.298 164.346 114.669C164.569 114.459 164.78 114.237 164.904 113.978C165.264 113.262 164.979 112.411 165.066 111.608C165.215 110.263 166.381 109.288 167.51 108.536C168.23 108.054 169.012 107.561 169.607 106.944C169.099 103.599 167.076 100.761 164.234 99.1198Z" fill="#2D92A0"/>
<path d="M149.083 111.115C148.549 110.868 148.078 110.547 147.643 110.165C148.376 115.57 153.029 119.741 158.663 119.741C163.626 119.741 167.845 116.495 169.272 112.028C168.652 112.411 168.007 112.719 167.299 112.904C165.885 113.287 164.358 113.139 162.944 113.534C162.013 113.793 161.132 114.286 160.164 114.36C158.278 114.521 156.652 113.139 154.865 112.497C152.992 111.831 150.882 111.954 149.083 111.115Z" fill="#2D92A0"/>
<path d="M154.865 112.509C153.699 112.09 152.421 111.979 151.205 111.744C151.428 112.596 151.428 113.534 151.974 114.225C152.384 114.743 153.041 115.002 153.463 115.52C154.133 116.335 154.059 117.606 154.816 118.346C155.449 117.729 155.858 116.915 156.032 116.051C156.119 115.619 156.144 115.175 156.317 114.768C156.503 114.336 156.851 113.965 157 113.521C156.292 113.151 155.585 112.768 154.865 112.509ZM162.931 113.534C162.472 113.657 162.025 113.842 161.579 114.002C161.864 114.632 161.715 115.372 161.79 116.063C161.802 116.162 161.827 116.273 161.914 116.31C161.988 116.347 162.075 116.298 162.15 116.261C162.956 115.829 163.701 115.286 164.358 114.657C164.582 114.447 164.793 114.225 164.917 113.965C165.029 113.731 165.078 113.472 165.091 113.213C164.371 113.287 163.639 113.348 162.931 113.534Z" fill="#24747A"/>
<path d="M54.9722 36.9107C54.9722 30.4195 59.3154 24.928 65.2718 23.1633C63.9688 22.7807 62.579 22.5709 61.152 22.5709C53.1853 22.5709 46.7326 28.988 46.7326 36.9107C46.7326 44.8334 53.1853 51.2505 61.152 51.2505C62.579 51.2505 63.9688 51.0407 65.2718 50.6581C59.3154 48.8934 54.9722 43.4019 54.9722 36.9107Z" fill="#FFE4AE"/>
<path d="M75.7947 88.729C74.9509 86.014 72.407 84.0519 69.4164 84.0519C65.7309 84.0519 62.7404 87.026 62.7404 90.6911C62.7404 91.7771 63.0009 92.789 63.4725 93.7022C66.066 93.5418 71.8362 92.715 75.7947 88.729ZM64.8127 95.4916C66.0164 96.627 67.6295 97.3304 69.4164 97.3304C72.9158 97.3304 75.7823 94.6525 76.0677 91.2464C73.5983 92.4311 68.5478 94.7018 64.8127 95.4916Z" fill="#8CD7F8"/>
<path d="M81.8876 86.1374C81.4533 84.9527 78.3014 84.9527 74.0699 85.9276C74.864 86.6927 75.4597 87.6429 75.7947 88.7165C71.8238 92.7026 66.066 93.5294 63.4601 93.6898C63.0009 92.7889 62.7279 91.7647 62.7279 90.6787C62.7279 90.4689 62.7404 90.2591 62.7652 90.0617C58.9184 92.0362 56.5482 94.06 56.9825 95.2447C57.5285 96.7256 62.3929 96.3554 68.2872 94.4919C71.253 93.4677 74.318 92.0855 76.0677 91.2464C76.0677 91.2711 76.0553 91.3081 76.0553 91.3328C79.9145 89.3583 82.3219 87.3221 81.8876 86.1374Z" fill="#EF443D"/>
<path d="M156.615 152.863C157.931 150.346 157.509 147.174 155.362 145.076C152.731 142.497 148.5 142.534 145.919 145.15C145.149 145.928 144.628 146.841 144.318 147.803C146.291 149.506 150.981 152.937 156.615 152.863ZM144.008 150.025C144.057 151.666 144.715 153.295 145.993 154.541C148.487 156.985 152.421 157.071 155.027 154.85C152.446 153.974 147.234 152.073 144.008 150.025Z" fill="#8CD7F8"/>
<path d="M162.782 155.269C163.304 154.122 161.07 151.925 157.36 149.667C157.385 150.765 157.136 151.863 156.615 152.863C150.981 152.937 146.291 149.506 144.318 147.803C144.628 146.841 145.149 145.928 145.919 145.15C146.067 145.002 146.216 144.866 146.378 144.731C142.245 143.459 139.118 143.237 138.597 144.385C137.939 145.829 141.662 148.951 147.184 151.74C150.014 153.085 153.178 154.233 155.014 154.862C154.99 154.887 154.965 154.899 154.952 154.912C159.109 156.195 162.261 156.417 162.782 155.269Z" fill="#EF443D"/>
<path d="M236.53 20.2509C237.101 18.1284 236.269 15.8083 234.296 14.5743C231.889 13.0564 228.7 13.7721 227.173 16.1662C226.726 16.8696 226.478 17.6471 226.404 18.4245C228.178 19.3871 232.286 21.2258 236.53 20.2509ZM226.54 20.1522C226.851 21.3863 227.62 22.5093 228.786 23.2374C231.07 24.6689 234.06 24.1012 235.661 21.991C233.564 21.7688 229.308 21.1765 226.54 20.1522Z" fill="#784C9E"/>
<path d="M241.58 21.0531C241.791 20.1029 239.731 18.8071 236.567 17.7088C236.765 18.5356 236.765 19.3995 236.53 20.2386C232.286 21.2135 228.178 19.3871 226.404 18.4246C226.478 17.6471 226.727 16.8696 227.173 16.1662C227.26 16.0305 227.347 15.9071 227.446 15.7713C224.121 15.4875 221.713 15.833 221.515 16.7833C221.254 17.9803 224.592 19.7327 229.221 20.9297C231.578 21.485 234.16 21.8306 235.649 22.0033C235.636 22.0157 235.624 22.0404 235.611 22.0527C238.962 22.3489 241.369 22.0033 241.58 21.0531Z" fill="#5C6AB2"/>
<path d="M97.9822 44.2164C100.011 44.2164 101.655 42.581 101.655 40.5636C101.655 38.5462 100.011 36.9108 97.9822 36.9108C95.9536 36.9108 94.3091 38.5462 94.3091 40.5636C94.3091 42.581 95.9536 44.2164 97.9822 44.2164Z" fill="#5F6CB2"/>
<path d="M227.632 109.757C229.661 109.757 231.305 108.122 231.305 106.104C231.305 104.087 229.661 102.452 227.632 102.452C225.604 102.452 223.959 104.087 223.959 106.104C223.959 108.122 225.604 109.757 227.632 109.757Z" fill="#5F6CB2"/>
<path d="M19.8421 21.3122C21.1785 21.3122 22.2619 20.2348 22.2619 18.9058C22.2619 17.5768 21.1785 16.4994 19.8421 16.4994C18.5057 16.4994 17.4224 17.5768 17.4224 18.9058C17.4224 20.2348 18.5057 21.3122 19.8421 21.3122Z" fill="#784C9E"/>
<path d="M188.618 112.435C190.647 112.435 192.291 110.8 192.291 108.782C192.291 106.765 190.647 105.13 188.618 105.13C186.59 105.13 184.945 106.765 184.945 108.782C184.945 110.8 186.59 112.435 188.618 112.435Z" fill="#F9A859"/>
<path d="M146.973 181.863C149.002 181.863 150.646 180.228 150.646 178.211C150.646 176.193 149.002 174.558 146.973 174.558C144.945 174.558 143.3 176.193 143.3 178.211C143.3 180.228 144.945 181.863 146.973 181.863Z" fill="#F9A859"/>
<path d="M213.585 28.6302C214.922 28.6302 216.005 27.5528 216.005 26.2238C216.005 24.8948 214.922 23.8174 213.585 23.8174C212.249 23.8174 211.165 24.8948 211.165 26.2238C211.165 27.5528 212.249 28.6302 213.585 28.6302Z" fill="#8CD7F8"/>
<path d="M121.299 118.951C122.128 118.951 122.8 118.282 122.8 117.458C122.8 116.633 122.128 115.965 121.299 115.965C120.47 115.965 119.797 116.633 119.797 117.458C119.797 118.282 120.47 118.951 121.299 118.951Z" fill="#5F6CB2"/>
<path d="M132.752 104.858C133.582 104.858 134.254 104.19 134.254 103.365C134.254 102.54 133.582 101.872 132.752 101.872C131.923 101.872 131.251 102.54 131.251 103.365C131.251 104.19 131.923 104.858 132.752 104.858Z" fill="#5F6CB2"/>
<path d="M55.0095 66.0963C55.8387 66.0963 56.511 65.4278 56.511 64.6031C56.511 63.7784 55.8387 63.1099 55.0095 63.1099C54.1802 63.1099 53.508 63.7784 53.508 64.6031C53.508 65.4278 54.1802 66.0963 55.0095 66.0963Z" fill="#8CD7F8"/>
<path d="M69.4289 116.236C70.2581 116.236 70.9304 115.568 70.9304 114.743C70.9304 113.918 70.2581 113.25 69.4289 113.25C68.5996 113.25 67.9274 113.918 67.9274 114.743C67.9274 115.568 68.5996 116.236 69.4289 116.236Z" fill="#784C9E"/>
<path d="M143.164 67.5895C143.993 67.5895 144.665 66.9209 144.665 66.0962C144.665 65.2716 143.993 64.603 143.164 64.603C142.334 64.603 141.662 65.2716 141.662 66.0962C141.662 66.9209 142.334 67.5895 143.164 67.5895Z" fill="#FEFACE"/>
<path d="M113.196 73.0687C114.025 73.0687 114.697 72.4002 114.697 71.5755C114.697 70.7508 114.025 70.0823 113.196 70.0823C112.366 70.0823 111.694 70.7508 111.694 71.5755C111.694 72.4002 112.366 73.0687 113.196 73.0687Z" fill="#FEFACE"/>
<path d="M51.4977 111.25C52.327 111.25 52.9992 110.582 52.9992 109.757C52.9992 108.933 52.327 108.264 51.4977 108.264C50.6685 108.264 49.9962 108.933 49.9962 109.757C49.9962 110.582 50.6685 111.25 51.4977 111.25Z" fill="#FEFACE"/>
<path d="M96.6916 75.1048C97.5209 75.1048 98.1931 74.4363 98.1931 73.6116C98.1931 72.7869 97.5209 72.1184 96.6916 72.1184C95.8624 72.1184 95.1901 72.7869 95.1901 73.6116C95.1901 74.4363 95.8624 75.1048 96.6916 75.1048Z" fill="#FBAF34"/>
<path d="M92.0879 54.2864C92.9171 54.2864 93.5894 53.6178 93.5894 52.7931C93.5894 51.9685 92.9171 51.2999 92.0879 51.2999C91.2586 51.2999 90.5864 51.9685 90.5864 52.7931C90.5864 53.6178 91.2586 54.2864 92.0879 54.2864Z" fill="#FBAF34"/>
<path d="M87.2607 108.042C88.09 108.042 88.7622 107.373 88.7622 106.549C88.7622 105.724 88.09 105.056 87.2607 105.056C86.4315 105.056 85.7592 105.724 85.7592 106.549C85.7592 107.373 86.4315 108.042 87.2607 108.042Z" fill="#784C9E"/>
<path d="M161.467 104.858C162.296 104.858 162.969 104.19 162.969 103.365C162.969 102.54 162.296 101.872 161.467 101.872C160.638 101.872 159.966 102.54 159.966 103.365C159.966 104.19 160.638 104.858 161.467 104.858Z" fill="#F9A859"/>
<path d="M181.607 56.3225C182.436 56.3225 183.109 55.654 183.109 54.8293C183.109 54.0046 182.436 53.3361 181.607 53.3361C180.778 53.3361 180.106 54.0046 180.106 54.8293C180.106 55.654 180.778 56.3225 181.607 56.3225Z" fill="#8CD7F8"/>
<path d="M94.0237 154.899C94.8529 154.899 95.5252 154.231 95.5252 153.406C95.5252 152.581 94.8529 151.913 94.0237 151.913C93.1944 151.913 92.5222 152.581 92.5222 153.406C92.5222 154.231 93.1944 154.899 94.0237 154.899Z" fill="#8CD7F8"/>
<path d="M137.741 36.6393C138.57 36.6393 139.242 35.9707 139.242 35.146C139.242 34.3214 138.57 33.6528 137.741 33.6528C136.912 33.6528 136.239 34.3214 136.239 35.146C136.239 35.9707 136.912 36.6393 137.741 36.6393Z" fill="#8CD7F8"/>
<path d="M62.6659 76.8203C63.4952 76.8203 64.1674 76.1518 64.1674 75.3271C64.1674 74.5024 63.4952 73.8339 62.6659 73.8339C61.8367 73.8339 61.1644 74.5024 61.1644 75.3271C61.1644 76.1518 61.8367 76.8203 62.6659 76.8203Z" fill="#8CD7F8"/>
<path d="M75.0874 20.399C75.9167 20.399 76.5889 19.7305 76.5889 18.9058C76.5889 18.0811 75.9167 17.4126 75.0874 17.4126C74.2582 17.4126 73.5859 18.0811 73.5859 18.9058C73.5859 19.7305 74.2582 20.399 75.0874 20.399Z" fill="#8CD7F8"/>
<path d="M83.7986 19.1773C83.9493 19.1773 84.0716 19.0557 84.0716 18.9058C84.0716 18.7558 83.9493 18.6343 83.7986 18.6343C83.6478 18.6343 83.5256 18.7558 83.5256 18.9058C83.5256 19.0557 83.6478 19.1773 83.7986 19.1773Z" fill="#8CD7F8"/>
<path d="M75.0874 40.8351C75.2382 40.8351 75.3604 40.7135 75.3604 40.5636C75.3604 40.4137 75.2382 40.2921 75.0874 40.2921C74.9366 40.2921 74.8144 40.4137 74.8144 40.5636C74.8144 40.7135 74.9366 40.8351 75.0874 40.8351Z" fill="#8CD7F8"/>
<path d="M41.2354 24.0889C41.3862 24.0889 41.5084 23.9673 41.5084 23.8174C41.5084 23.6674 41.3862 23.5459 41.2354 23.5459C41.0846 23.5459 40.9624 23.6674 40.9624 23.8174C40.9624 23.9673 41.0846 24.0889 41.2354 24.0889Z" fill="#8CD7F8"/>
<path d="M43.953 59.0991C44.1038 59.0991 44.226 58.9776 44.226 58.8276C44.226 58.6777 44.1038 58.5562 43.953 58.5562C43.8022 58.5562 43.68 58.6777 43.68 58.8276C43.68 58.9776 43.8022 59.0991 43.953 59.0991Z" fill="#8CD7F8"/>
<path d="M145.447 117.236C145.598 117.236 145.72 117.114 145.72 116.964C145.72 116.814 145.598 116.693 145.447 116.693C145.296 116.693 145.174 116.814 145.174 116.964C145.174 117.114 145.296 117.236 145.447 117.236Z" fill="#8CD7F8"/>
<path d="M75.0874 80.4361C75.2382 80.4361 75.3604 80.3145 75.3604 80.1646C75.3604 80.0146 75.2382 79.8931 75.0874 79.8931C74.9366 79.8931 74.8144 80.0146 74.8144 80.1646C74.8144 80.3145 74.9366 80.4361 75.0874 80.4361Z" fill="#8CD7F8"/>
<path d="M51.535 80.7075C51.6857 80.7075 51.808 80.586 51.808 80.436C51.808 80.2861 51.6857 80.1646 51.535 80.1646C51.3842 80.1646 51.262 80.2861 51.262 80.436C51.262 80.586 51.3842 80.7075 51.535 80.7075Z" fill="#8CD7F8"/>
<path d="M83.5256 66.3677C83.6763 66.3677 83.7986 66.2461 83.7986 66.0962C83.7986 65.9463 83.6763 65.8247 83.5256 65.8247C83.3748 65.8247 83.2526 65.9463 83.2526 66.0962C83.2526 66.2461 83.3748 66.3677 83.5256 66.3677Z" fill="#8CD7F8"/>
<path d="M121.299 59.383C121.45 59.383 121.572 59.2614 121.572 59.1115C121.572 58.9615 121.45 58.84 121.299 58.84C121.148 58.84 121.026 58.9615 121.026 59.1115C121.026 59.2614 121.148 59.383 121.299 59.383Z" fill="#8CD7F8"/>
<path d="M131.921 25.9153C132.072 25.9153 132.194 25.7937 132.194 25.6438C132.194 25.4939 132.072 25.3723 131.921 25.3723C131.77 25.3723 131.648 25.4939 131.648 25.6438C131.648 25.7937 131.77 25.9153 131.921 25.9153Z" fill="#8CD7F8"/>
<path d="M169.248 20.6706C169.398 20.6706 169.521 20.549 169.521 20.3991C169.521 20.2491 169.398 20.1276 169.248 20.1276C169.097 20.1276 168.975 20.2491 168.975 20.3991C168.975 20.549 169.097 20.6706 169.248 20.6706Z" fill="#8CD7F8"/>
<path d="M161.467 51.1394C161.618 51.1394 161.74 51.0179 161.74 50.8679C161.74 50.718 161.618 50.5964 161.467 50.5964C161.316 50.5964 161.194 50.718 161.194 50.8679C161.194 51.0179 161.316 51.1394 161.467 51.1394Z" fill="#8CD7F8"/>
<path d="M171.518 94.4796C171.669 94.4796 171.791 94.3581 171.791 94.2081C171.791 94.0582 171.669 93.9366 171.518 93.9366C171.368 93.9366 171.245 94.0582 171.245 94.2081C171.245 94.3581 171.368 94.4796 171.518 94.4796Z" fill="#8CD7F8"/>
<path d="M143.164 109.77C143.438 109.77 143.66 109.549 143.66 109.276C143.66 109.003 143.438 108.782 143.164 108.782C142.89 108.782 142.667 109.003 142.667 109.276C142.667 109.549 142.89 109.77 143.164 109.77Z" fill="#8CD7F8"/>
<path d="M101.655 115.286C101.806 115.286 101.928 115.164 101.928 115.014C101.928 114.864 101.806 114.743 101.655 114.743C101.504 114.743 101.382 114.864 101.382 115.014C101.382 115.164 101.504 115.286 101.655 115.286Z" fill="#8CD7F8"/>
<path d="M100.141 143.645C100.292 143.645 100.414 143.523 100.414 143.373C100.414 143.223 100.292 143.102 100.141 143.102C99.9906 143.102 99.8683 143.223 99.8683 143.373C99.8683 143.523 99.9906 143.645 100.141 143.645Z" fill="#8CD7F8"/>
<path d="M131.512 153.394C131.662 153.394 131.785 153.272 131.785 153.122C131.785 152.972 131.662 152.851 131.512 152.851C131.361 152.851 131.239 152.972 131.239 153.122C131.239 153.272 131.361 153.394 131.512 153.394Z" fill="#8CD7F8"/>
<path d="M117.762 130.415C118.064 130.415 118.308 130.172 118.308 129.872C118.308 129.573 118.064 129.329 117.762 129.329C117.461 129.329 117.216 129.573 117.216 129.872C117.216 130.172 117.461 130.415 117.762 130.415Z" fill="white"/>
<path d="M203.943 129.009C204.245 129.009 204.489 128.766 204.489 128.466C204.489 128.166 204.245 127.923 203.943 127.923C203.642 127.923 203.397 128.166 203.397 128.466C203.397 128.766 203.642 129.009 203.943 129.009Z" fill="white"/>
<path d="M193.222 122.629C193.523 122.629 193.768 122.385 193.768 122.086C193.768 121.786 193.523 121.543 193.222 121.543C192.92 121.543 192.676 121.786 192.676 122.086C192.676 122.385 192.92 122.629 193.222 122.629Z" fill="white"/>
<path d="M201.474 141.917C201.776 141.917 202.02 141.674 202.02 141.374C202.02 141.074 201.776 140.831 201.474 140.831C201.172 140.831 200.928 141.074 200.928 141.374C200.928 141.674 201.172 141.917 201.474 141.917Z" fill="white"/>
<path d="M76.5889 140.559C76.8905 140.559 77.1349 140.316 77.1349 140.016C77.1349 139.717 76.8905 139.474 76.5889 139.474C76.2874 139.474 76.0429 139.717 76.0429 140.016C76.0429 140.316 76.2874 140.559 76.5889 140.559Z" fill="white"/>
<path d="M132.852 124.763C133.153 124.763 133.398 124.52 133.398 124.22C133.398 123.921 133.153 123.677 132.852 123.677C132.55 123.677 132.306 123.921 132.306 124.22C132.306 124.52 132.55 124.763 132.852 124.763Z" fill="white"/>
<path d="M145.72 84.5701C146.022 84.5701 146.266 84.327 146.266 84.0271C146.266 83.7272 146.022 83.4841 145.72 83.4841C145.418 83.4841 145.174 83.7272 145.174 84.0271C145.174 84.327 145.418 84.5701 145.72 84.5701Z" fill="white"/>
<path d="M40.3296 90.8515C40.6311 90.8515 40.8756 90.6084 40.8756 90.3085C40.8756 90.0086 40.6311 89.7655 40.3296 89.7655C40.028 89.7655 39.7836 90.0086 39.7836 90.3085C39.7836 90.6084 40.028 90.8515 40.3296 90.8515Z" fill="white"/>
<path d="M206.028 68.404C206.33 68.404 206.574 68.1609 206.574 67.861C206.574 67.5611 206.33 67.318 206.028 67.318C205.727 67.318 205.482 67.5611 205.482 67.861C205.482 68.1609 205.727 68.404 206.028 68.404Z" fill="white"/>
<path d="M182.004 95.4668C182.306 95.4668 182.55 95.2237 182.55 94.9238C182.55 94.624 182.306 94.3809 182.004 94.3809C181.703 94.3809 181.458 94.624 181.458 94.9238C181.458 95.2237 181.703 95.4668 182.004 95.4668Z" fill="white"/>
<path d="M211.401 109.325C211.703 109.325 211.947 109.082 211.947 108.782C211.947 108.482 211.703 108.239 211.401 108.239C211.1 108.239 210.855 108.482 210.855 108.782C210.855 109.082 211.1 109.325 211.401 109.325Z" fill="white"/>
<path d="M134.117 80.4361C134.419 80.4361 134.663 80.193 134.663 79.8931C134.663 79.5932 134.419 79.3501 134.117 79.3501C133.816 79.3501 133.571 79.5932 133.571 79.8931C133.571 80.193 133.816 80.4361 134.117 80.4361Z" fill="white"/>
<path d="M165.823 80.7076C166.124 80.7076 166.369 80.4645 166.369 80.1646C166.369 79.8647 166.124 79.6216 165.823 79.6216C165.521 79.6216 165.277 79.8647 165.277 80.1646C165.277 80.4645 165.521 80.7076 165.823 80.7076Z" fill="white"/>
<path d="M216.005 40.2304C216.307 40.2304 216.551 39.9873 216.551 39.6874C216.551 39.3875 216.307 39.1444 216.005 39.1444C215.703 39.1444 215.459 39.3875 215.459 39.6874C215.459 39.9873 215.703 40.2304 216.005 40.2304Z" fill="white"/>
<path d="M199.588 55.3722C199.889 55.3722 200.134 55.1291 200.134 54.8292C200.134 54.5294 199.889 54.2863 199.588 54.2863C199.286 54.2863 199.042 54.5294 199.042 54.8292C199.042 55.1291 199.286 55.3722 199.588 55.3722Z" fill="white"/>
<path d="M187.166 18.5109C187.468 18.5109 187.712 18.2678 187.712 17.9679C187.712 17.668 187.468 17.4249 187.166 17.4249C186.865 17.4249 186.62 17.668 186.62 17.9679C186.62 18.2678 186.865 18.5109 187.166 18.5109Z" fill="white"/>
<path d="M84.0716 31.6289C84.3731 31.6289 84.6176 31.3858 84.6176 31.086C84.6176 30.7861 84.3731 30.543 84.0716 30.543C83.77 30.543 83.5256 30.7861 83.5256 31.086C83.5256 31.3858 83.77 31.6289 84.0716 31.6289Z" fill="white"/>
<path d="M25.2401 35.8865C25.5416 35.8865 25.7861 35.6434 25.7861 35.3435C25.7861 35.0436 25.5416 34.8005 25.2401 34.8005C24.9385 34.8005 24.6941 35.0436 24.6941 35.3435C24.6941 35.6434 24.9385 35.8865 25.2401 35.8865Z" fill="white"/>
<path d="M132.206 130.958C132.508 130.958 132.752 130.715 132.752 130.415C132.752 130.116 132.508 129.872 132.206 129.872C131.905 129.872 131.66 130.116 131.66 130.415C131.66 130.715 131.905 130.958 132.206 130.958Z" fill="#F9A859"/>
<path d="M102.214 160.082C102.364 160.082 102.487 159.961 102.487 159.811C102.487 159.661 102.364 159.539 102.214 159.539C102.063 159.539 101.941 159.661 101.941 159.811C101.941 159.961 102.063 160.082 102.214 160.082Z" fill="#8CD7F8"/>
<path d="M189.896 132.402C190.047 132.402 190.169 132.281 190.169 132.131C190.169 131.981 190.047 131.859 189.896 131.859C189.746 131.859 189.623 131.981 189.623 132.131C189.623 132.281 189.746 132.402 189.896 132.402Z" fill="#8CD7F8"/>
<path d="M171.518 141.374C171.669 141.374 171.791 141.252 171.791 141.102C171.791 140.952 171.669 140.831 171.518 140.831C171.368 140.831 171.245 140.952 171.245 141.102C171.245 141.252 171.368 141.374 171.518 141.374Z" fill="#8CD7F8"/>
<path d="M221.465 53.3361C221.616 53.3361 221.738 53.2145 221.738 53.0646C221.738 52.9146 221.616 52.7931 221.465 52.7931C221.314 52.7931 221.192 52.9146 221.192 53.0646C221.192 53.2145 221.314 53.3361 221.465 53.3361Z" fill="#8CD7F8"/>
<path d="M210.644 59.6544C210.795 59.6544 210.917 59.5329 210.917 59.3829C210.917 59.233 210.795 59.1115 210.644 59.1115C210.494 59.1115 210.371 59.233 210.371 59.3829C210.371 59.5329 210.494 59.6544 210.644 59.6544Z" fill="#8CD7F8"/>
<path d="M199.588 102.143C199.739 102.143 199.861 102.022 199.861 101.872C199.861 101.722 199.739 101.6 199.588 101.6C199.437 101.6 199.315 101.722 199.315 101.872C199.315 102.022 199.437 102.143 199.588 102.143Z" fill="#8CD7F8"/>
<path d="M245.539 18.9058C245.689 18.9058 245.812 18.7842 245.812 18.6343C245.812 18.4843 245.689 18.3628 245.539 18.3628C245.388 18.3628 245.266 18.4843 245.266 18.6343C245.266 18.7842 245.388 18.9058 245.539 18.9058Z" fill="#8CD7F8"/>
<path d="M231.268 30.8021C231.419 30.8021 231.541 30.6806 231.541 30.5306C231.541 30.3807 231.419 30.2592 231.268 30.2592C231.117 30.2592 230.995 30.3807 230.995 30.5306C230.995 30.6806 231.117 30.8021 231.268 30.8021Z" fill="#8CD7F8"/>
<path d="M216.39 17.6841C216.54 17.6841 216.663 17.5625 216.663 17.4126C216.663 17.2627 216.54 17.1411 216.39 17.1411C216.239 17.1411 216.117 17.2627 216.117 17.4126C216.117 17.5625 216.239 17.6841 216.39 17.6841Z" fill="#8CD7F8"/>
<path d="M197.789 26.4953C197.939 26.4953 198.062 26.3737 198.062 26.2238C198.062 26.0738 197.939 25.9523 197.789 25.9523C197.638 25.9523 197.516 26.0738 197.516 26.2238C197.516 26.3737 197.638 26.4953 197.789 26.4953Z" fill="#8CD7F8"/>
<path d="M162.956 35.689C163.107 35.689 163.229 35.5674 163.229 35.4175C163.229 35.2675 163.107 35.146 162.956 35.146C162.805 35.146 162.683 35.2675 162.683 35.4175C162.683 35.5674 162.805 35.689 162.956 35.689Z" fill="#8CD7F8"/>
<path d="M149.033 21.5838C149.184 21.5838 149.306 21.4622 149.306 21.3123C149.306 21.1623 149.184 21.0408 149.033 21.0408C148.882 21.0408 148.76 21.1623 148.76 21.3123C148.76 21.4622 148.882 21.5838 149.033 21.5838Z" fill="#8CD7F8"/>
<path d="M121.013 20.3991C121.164 20.3991 121.286 20.2775 121.286 20.1276C121.286 19.9776 121.164 19.8561 121.013 19.8561C120.863 19.8561 120.74 19.9776 120.74 20.1276C120.74 20.2775 120.863 20.3991 121.013 20.3991Z" fill="#8CD7F8"/>
<path d="M121.572 41.452C121.723 41.452 121.845 41.3305 121.845 41.1806C121.845 41.0306 121.723 40.9091 121.572 40.9091C121.421 40.9091 121.299 41.0306 121.299 41.1806C121.299 41.3305 121.421 41.452 121.572 41.452Z" fill="#8CD7F8"/>
<path d="M106.346 58.8277C106.497 58.8277 106.619 58.7061 106.619 58.5562C106.619 58.4062 106.497 58.2847 106.346 58.2847C106.195 58.2847 106.073 58.4062 106.073 58.5562C106.073 58.7061 106.195 58.8277 106.346 58.8277Z" fill="#8CD7F8"/>
<path d="M118.048 80.4361C118.198 80.4361 118.321 80.3145 118.321 80.1646C118.321 80.0146 118.198 79.8931 118.048 79.8931C117.897 79.8931 117.775 80.0146 117.775 80.1646C117.775 80.3145 117.897 80.4361 118.048 80.4361Z" fill="#8CD7F8"/>
<path d="M86.9753 92.8384C87.1261 92.8384 87.2483 92.7168 87.2483 92.5669C87.2483 92.417 87.1261 92.2954 86.9753 92.2954C86.8246 92.2954 86.7023 92.417 86.7023 92.5669C86.7023 92.7168 86.8246 92.8384 86.9753 92.8384Z" fill="#8CD7F8"/>
<path d="M74.8144 112.855C74.9652 112.855 75.0874 112.733 75.0874 112.583C75.0874 112.433 74.9652 112.312 74.8144 112.312C74.6636 112.312 74.5414 112.433 74.5414 112.583C74.5414 112.733 74.6636 112.855 74.8144 112.855Z" fill="#8CD7F8"/>
<path d="M61.636 134.772C61.7868 134.772 61.909 134.65 61.909 134.5C61.909 134.35 61.7868 134.229 61.636 134.229C61.4852 134.229 61.363 134.35 61.363 134.5C61.363 134.65 61.4852 134.772 61.636 134.772Z" fill="#8CD7F8"/>
<path d="M130.432 109.794C130.583 109.794 130.705 109.673 130.705 109.523C130.705 109.373 130.583 109.251 130.432 109.251C130.281 109.251 130.159 109.373 130.159 109.523C130.159 109.673 130.281 109.794 130.432 109.794Z" fill="#8CD7F8"/>
<path d="M130.717 86.0634C130.868 86.0634 130.99 85.9418 130.99 85.7919C130.99 85.6419 130.868 85.5204 130.717 85.5204C130.567 85.5204 130.444 85.6419 130.444 85.7919C130.444 85.9418 130.567 86.0634 130.717 86.0634Z" fill="#8CD7F8"/>
<path d="M130.99 42.9946C131.141 42.9946 131.263 42.8731 131.263 42.7232C131.263 42.5732 131.141 42.4517 130.99 42.4517C130.84 42.4517 130.717 42.5732 130.717 42.7232C130.717 42.8731 130.84 42.9946 130.99 42.9946Z" fill="#8CD7F8"/>
<path d="M130.432 57.4578C130.583 57.4578 130.705 57.3362 130.705 57.1863C130.705 57.0363 130.583 56.9148 130.432 56.9148C130.281 56.9148 130.159 57.0363 130.159 57.1863C130.159 57.3362 130.281 57.4578 130.432 57.4578Z" fill="#8CD7F8"/>
<path d="M32.4125 19.4611C32.5633 19.4611 32.6855 19.3395 32.6855 19.1896C32.6855 19.0396 32.5633 18.9181 32.4125 18.9181C32.2618 18.9181 32.1395 19.0396 32.1395 19.1896C32.1395 19.3395 32.2618 19.4611 32.4125 19.4611Z" fill="#8CD7F8"/>
<path d="M40.9624 44.5003C41.1132 44.5003 41.2354 44.3787 41.2354 44.2288C41.2354 44.0788 41.1132 43.9573 40.9624 43.9573C40.8116 43.9573 40.6894 44.0788 40.6894 44.2288C40.6894 44.3787 40.8116 44.5003 40.9624 44.5003Z" fill="#8CD7F8"/>
<path d="M56.511 17.9556C56.6617 17.9556 56.784 17.834 56.784 17.6841C56.784 17.5341 56.6617 17.4126 56.511 17.4126C56.3602 17.4126 56.238 17.5341 56.238 17.6841C56.238 17.834 56.3602 17.9556 56.511 17.9556Z" fill="#8CD7F8"/>
<path d="M61.909 36.6516C62.0598 36.6516 62.182 36.5301 62.182 36.3801C62.182 36.2302 62.0598 36.1086 61.909 36.1086C61.7582 36.1086 61.636 36.2302 61.636 36.3801C61.636 36.5301 61.7582 36.6516 61.909 36.6516Z" fill="#8CD7F8"/>
<path d="M99.434 24.3727C99.5848 24.3727 99.707 24.2511 99.707 24.1012C99.707 23.9513 99.5848 23.8297 99.434 23.8297C99.2832 23.8297 99.161 23.9513 99.161 24.1012C99.161 24.2511 99.2832 24.3727 99.434 24.3727Z" fill="#8CD7F8"/>
<path d="M73.5859 58.5562C73.7367 58.5562 73.8589 58.4346 73.8589 58.2847C73.8589 58.1347 73.7367 58.0132 73.5859 58.0132C73.4352 58.0132 73.3129 58.1347 73.3129 58.2847C73.3129 58.4346 73.4352 58.5562 73.5859 58.5562Z" fill="#8CD7F8"/>
<path d="M162.956 67.861C163.107 67.861 163.229 67.7394 163.229 67.5895C163.229 67.4395 163.107 67.318 162.956 67.318C162.805 67.318 162.683 67.4395 162.683 67.5895C162.683 67.7394 162.805 67.861 162.956 67.861Z" fill="#8CD7F8"/>
<path d="M192.155 90.691C192.984 90.691 193.656 90.0225 193.656 89.1978C193.656 88.3731 192.984 87.7046 192.155 87.7046C191.326 87.7046 190.653 88.3731 190.653 89.1978C190.653 90.0225 191.326 90.691 192.155 90.691Z" fill="#F9A859"/>
<path d="M178.232 167.487L184.573 168.326L186.72 161.44L186.037 168.684L192.068 170.3L185.516 169.733L183.32 177.137L184.412 169.424L178.232 167.487ZM145.546 127.528L151.887 128.367L154.034 121.481L153.364 128.725L159.382 130.341L152.83 129.774L150.634 137.178L151.738 129.453L145.546 127.528Z" fill="#EF443D"/>
<path d="M110.143 29.4077L114.089 29.9383L115.429 25.6438L115.007 30.1605L118.767 31.1724L114.685 30.8145L113.307 35.4176L114.002 30.6171L110.143 29.4077ZM33.033 65.9235L36.9791 66.4418L38.3193 62.1596L37.8974 66.664L41.6449 67.6759L37.5623 67.318L36.1973 71.9334L36.8798 67.1206L33.033 65.9235Z" fill="#FFF200"/>
<path d="M64.5273 158.416L70.645 156.565L69.7391 149.42L72.1341 156.294L78.3014 155.282L72.0968 157.454L73.164 165.105L70.9552 157.626L64.5273 158.416Z" fill="#A44F24"/>
<path d="M203.708 87.7663L208.237 88.4944L209.925 83.6076L209.292 88.7906L213.573 90.0617L208.895 89.5187L207.157 94.7881L208.1 89.2842L203.708 87.7663ZM219.43 72.464L223.959 73.1921L225.634 68.2929L225.002 73.4759L229.295 74.7594L224.605 74.2164L222.88 79.4858L223.823 73.9696L219.43 72.464ZM132.802 177.668L137.344 178.396L139.019 173.496L138.386 178.68L142.68 179.963L137.989 179.42L136.264 184.689L137.207 179.173L132.802 177.668ZM189.177 35.7507L193.706 36.4665L195.394 31.5796L194.748 36.7626L199.042 38.0461L194.351 37.5031L192.626 42.7602L193.569 37.2563L189.177 35.7507Z" fill="#FFF200"/>
<path d="M96.6917 86.6557L101.109 85.3229L100.452 80.1646L102.176 85.1255L106.619 84.3974L102.152 85.9646L102.921 91.4809L101.333 86.088L96.6917 86.6557Z" fill="#5F6CB2"/>
<path d="M187.638 142.941L192.229 142.744L192.887 137.598L193.321 142.818L197.788 143.213L193.073 143.62L192.453 149.136L192.254 143.533L187.638 142.941ZM78.1772 176.594L82.7686 176.397L83.4139 171.25L83.8482 176.471L88.3279 176.865L83.6124 177.273L82.992 182.789L82.7934 177.186L78.1772 176.594Z" fill="white"/>
<path d="M189.003 74.6729L193.594 74.4755L194.252 69.3295L194.686 74.5495L199.154 74.9444L194.438 75.3517L193.818 80.8679L193.619 75.2653L189.003 74.6729ZM148.847 90.8268L153.438 90.6293L154.084 85.4833L154.518 90.7034L158.998 91.0983L154.282 91.5055L153.662 97.0218L153.463 91.4191L148.847 90.8268ZM231.144 43.6363L235.748 43.4389L236.393 38.2928L236.827 43.5129L241.307 43.8955L236.592 44.3151L235.971 49.8313L235.773 44.2287L231.144 43.6363Z" fill="#5F6CB2"/>
<path d="M200.295 113.435L202.156 112.164L201.089 109.856L202.628 111.917L204.589 110.917L202.74 112.312L203.919 114.768L202.38 112.485L200.295 113.435ZM179.46 125.664L181.322 124.393L180.254 122.085L181.793 124.134L183.754 123.147L181.905 124.541L183.084 126.997L181.545 124.714L179.46 125.664Z" fill="#FFF200"/>
<path d="M167.026 116.878L168.813 114.94L166.977 112.583L169.285 114.533L171.258 112.879L169.508 114.953L171.518 117.458L169.148 115.249L167.026 116.878Z" fill="#FEFACE"/>
<path d="M184.672 26.7667C184.823 26.7667 184.945 26.6452 184.945 26.4952C184.945 26.3453 184.823 26.2238 184.672 26.2238C184.521 26.2238 184.399 26.3453 184.399 26.4952C184.399 26.6452 184.521 26.7667 184.672 26.7667Z" fill="#8CD7F8"/>
<path d="M180.093 40.8351C180.244 40.8351 180.366 40.7135 180.366 40.5636C180.366 40.4137 180.244 40.2921 180.093 40.2921C179.942 40.2921 179.82 40.4137 179.82 40.5636C179.82 40.7135 179.942 40.8351 180.093 40.8351Z" fill="#8CD7F8"/>
<path d="M120.74 94.7511C120.891 94.7511 121.013 94.6296 121.013 94.4796C121.013 94.3297 120.891 94.2081 120.74 94.2081C120.59 94.2081 120.467 94.3297 120.467 94.4796C120.467 94.6296 120.59 94.7511 120.74 94.7511Z" fill="#8CD7F8"/>
<path d="M101.407 103.365C101.558 103.365 101.68 103.243 101.68 103.093C101.68 102.943 101.558 102.822 101.407 102.822C101.256 102.822 101.134 102.943 101.134 103.093C101.134 103.243 101.256 103.365 101.407 103.365Z" fill="#8CD7F8"/>
<path d="M150.969 58.5562C151.12 58.5562 151.242 58.4346 151.242 58.2847C151.242 58.1347 151.12 58.0132 150.969 58.0132C150.818 58.0132 150.696 58.1347 150.696 58.2847C150.696 58.4346 150.818 58.5562 150.969 58.5562Z" fill="#8CD7F8"/>
<path d="M94.2967 128.466C94.4475 128.466 94.5697 128.344 94.5697 128.194C94.5697 128.044 94.4475 127.923 94.2967 127.923C94.1459 127.923 94.0237 128.044 94.0237 128.194C94.0237 128.344 94.1459 128.466 94.2967 128.466Z" fill="#8CD7F8"/>
<path d="M176.482 211.32C179.746 208.445 183.394 205.422 187.75 205.274C194.376 205.039 199.861 211.555 206.475 211.123C208.088 211.012 209.689 210.494 211.29 210.728C214.367 211.185 216.266 214.171 218.487 216.343C219.777 217.602 221.291 218.651 222.929 219.416C221.614 221.144 219.914 222.785 217.755 223.155C215.608 223.525 213.486 222.563 211.463 221.761C209.726 221.069 207.939 220.489 206.115 220.008C205.284 219.786 204.415 219.601 203.571 219.749C202.814 219.885 202.132 220.28 201.511 220.736C199.737 222.032 198.359 223.809 196.709 225.265C195.059 226.721 192.924 227.894 190.74 227.585C189.015 227.339 187.489 226.203 185.739 226.104C183.94 225.993 182.265 227.005 180.478 227.277C177.413 227.733 174.459 225.993 172.052 224.044C171.444 223.55 170.811 222.97 170.662 222.205C170.526 221.427 170.91 220.675 171.295 219.984C172.946 217.059 174.757 214.233 176.705 211.493" fill="#F48990"/>
<path d="M178.356 216.207C180.85 213.887 183.592 211.74 186.819 210.642C190.045 209.556 193.842 209.679 196.61 211.666C196.945 211.913 197.28 212.184 197.677 212.32C198.843 212.715 200.146 211.777 201.325 212.135C202.318 212.443 202.864 213.554 203.844 213.912C205.048 214.369 206.301 213.529 207.542 213.184C208.857 212.826 210.334 213.06 211.476 213.813C212.431 214.455 213.126 215.405 213.895 216.269C215.459 218.021 217.705 219.49 220.026 219.12C218.512 220.403 216.253 220.403 214.355 219.798C212.456 219.194 210.768 218.095 208.932 217.343C207.095 216.59 204.936 216.22 203.162 217.108C201.759 217.812 200.618 219.268 199.054 219.231C198.148 219.218 197.094 218.712 196.424 219.33C196.2 219.527 196.088 219.811 195.964 220.082C195.48 221.193 194.91 222.279 194.053 223.143C193.197 224.007 192.031 224.611 190.815 224.562C189.685 224.525 188.655 223.945 187.613 223.513C186 222.859 184.238 222.538 182.5 222.6C181.421 222.637 180.267 222.81 179.299 222.328C177.76 221.563 177.4 219.552 177.376 217.836C177.363 217.182 177.462 216.38 178.07 216.146" fill="#AA666D"/>
<path d="M175.34 203.756C176.457 199.572 177.81 195.043 181.346 192.513C186.732 188.675 194.934 191.07 200.196 187.071C201.486 186.096 202.529 184.764 203.993 184.085C206.81 182.764 210.049 184.208 213.114 184.801C214.888 185.146 216.737 185.183 218.524 184.912C218.388 187.084 217.891 189.379 216.303 190.872C214.714 192.365 212.419 192.723 210.284 193.18C208.448 193.562 206.636 194.068 204.862 194.673C204.055 194.945 203.224 195.265 202.603 195.858C202.045 196.388 201.697 197.092 201.437 197.808C200.68 199.868 200.531 202.102 199.96 204.225C199.389 206.347 198.272 208.507 196.287 209.457C194.711 210.21 192.812 210.099 191.299 210.975C189.735 211.876 188.904 213.641 187.563 214.85C185.268 216.923 181.843 217.084 178.753 216.8C177.971 216.726 177.115 216.602 176.569 216.035C176.023 215.467 175.924 214.615 175.862 213.838C175.613 210.494 175.539 207.137 175.638 203.793" fill="#FDC27A"/>
<path d="M209.577 186.775C208.361 186.615 207.145 186.343 205.904 186.368C204.663 186.392 203.385 186.763 202.554 187.664C201.945 188.342 201.635 189.243 201.002 189.897C199.364 191.563 196.374 190.81 194.475 192.168C193.942 192.55 193.532 193.081 192.961 193.414C191.199 194.476 188.854 193.266 186.881 193.846C184.486 194.55 183.642 197.413 181.967 199.264C181.781 199.474 181.57 199.683 181.297 199.77C180.924 199.893 180.527 199.77 180.13 199.77C179.013 199.782 178.182 200.782 177.562 201.707C176.854 202.756 176.197 203.842 175.576 204.953C175.527 207.902 175.613 210.864 175.824 213.801C175.837 213.986 175.849 214.183 175.874 214.381C176.271 214.319 176.656 214.258 177.053 214.208C178.343 214.011 179.622 213.826 180.924 213.813C182.5 213.801 184.287 213.998 185.429 212.925C186.968 211.481 186.372 208.618 188.01 207.31C189.028 206.508 190.467 206.631 191.758 206.619C193.061 206.606 194.599 206.187 194.984 204.953C195.406 203.595 194.091 202.114 194.587 200.782C195.22 199.066 198.235 199.103 198.645 197.314C198.806 196.623 198.459 195.895 198.545 195.191C198.682 193.97 199.972 193.229 201.164 192.908C202.355 192.575 203.683 192.415 204.564 191.563C204.973 191.168 205.246 190.662 205.619 190.23C207.691 187.861 211.773 188.725 214.293 186.837C212.754 186.997 211.153 186.985 209.577 186.775Z" fill="#C69560"/>
<path d="M96.4434 210.074C93.1799 207.199 89.5316 204.175 85.176 204.027C78.5495 203.793 73.0647 210.309 66.4507 209.877C64.8375 209.766 63.2367 209.247 61.6359 209.482C58.5585 209.938 56.6599 212.925 54.4387 215.097C53.1481 216.355 51.6342 217.404 49.9962 218.17C51.3116 219.897 53.0116 221.538 55.1708 221.909C57.3176 222.279 59.4395 221.316 61.4622 220.514C63.1995 219.823 64.9864 219.243 66.8105 218.762C67.6419 218.54 68.5106 218.355 69.3544 218.503C70.1114 218.638 70.7939 219.033 71.4143 219.49C73.1888 220.786 74.5662 222.563 76.2166 224.019C77.867 225.475 80.0014 226.647 82.1854 226.339C83.9103 226.092 85.4366 224.957 87.1863 224.858C88.9856 224.747 90.6608 225.759 92.4477 226.03C95.5128 226.487 98.4661 224.747 100.873 222.797C101.482 222.304 102.114 221.724 102.263 220.958C102.4 220.181 102.015 219.428 101.63 218.737C99.98 215.812 98.1683 212.986 96.2201 210.247" fill="#F48990"/>
<path d="M94.5821 214.949C92.0879 212.629 89.3454 210.481 86.1191 209.383C82.8927 208.297 79.0955 208.42 76.3283 210.407C75.9933 210.654 75.6582 210.926 75.2611 211.061C74.0947 211.456 72.7917 210.518 71.6129 210.876C70.6201 211.185 70.0741 212.295 69.0938 212.653C67.8901 213.11 66.6368 212.271 65.3959 211.925C64.0805 211.567 62.6039 211.802 61.4622 212.555C60.5067 213.196 59.8118 214.147 59.0424 215.01C57.4789 216.763 55.2329 218.231 52.9124 217.861C54.4263 219.144 56.6847 219.144 58.5833 218.54C60.4819 217.935 62.1695 216.837 64.0061 216.084C65.8426 215.331 68.0018 214.961 69.7763 215.85C71.1785 216.553 72.3202 218.009 73.8837 217.972C74.7896 217.96 75.8444 217.454 76.5144 218.071C76.7378 218.268 76.8495 218.552 76.9736 218.824C77.4575 219.934 78.0284 221.02 78.8846 221.884C79.7408 222.748 80.9073 223.353 82.1234 223.303C83.2526 223.266 84.2825 222.686 85.3249 222.254C86.9381 221.6 88.7002 221.279 90.4374 221.341C91.517 221.378 92.6711 221.551 93.639 221.07C95.1777 220.304 95.5376 218.293 95.5624 216.578C95.5748 215.924 95.4755 215.121 94.8675 214.887" fill="#AA666D"/>
<path d="M97.5975 202.497C96.4807 198.313 95.1281 193.784 91.5915 191.255C86.206 187.417 78.0036 189.811 72.7421 185.812C71.4516 184.838 70.4092 183.505 68.9449 182.826C66.1281 181.506 62.8893 182.949 59.8242 183.542C58.0497 183.887 56.2008 183.924 54.4139 183.653C54.5504 185.825 55.0467 188.12 56.6351 189.613C58.2235 191.107 60.5192 191.464 62.6535 191.921C64.4901 192.304 66.3018 192.81 68.0763 193.414C68.8829 193.686 69.7143 194.007 70.3347 194.599C70.8932 195.13 71.2406 195.833 71.5012 196.549C72.2582 198.61 72.4071 200.843 72.9779 202.966C73.5487 205.088 74.6655 207.248 76.651 208.198C78.2269 208.951 80.1255 208.84 81.6394 209.716C83.203 210.617 84.0344 212.382 85.3746 213.591C87.6702 215.664 91.0952 215.825 94.185 215.541C94.9668 215.467 95.823 215.343 96.369 214.776C96.915 214.208 97.0143 213.357 97.0763 212.579C97.3245 209.235 97.399 205.878 97.2997 202.534" fill="#FDC27A"/>
<path d="M63.3608 185.516C64.5769 185.356 65.793 185.084 67.0339 185.109C68.2748 185.134 69.553 185.504 70.3844 186.405C70.9924 187.083 71.3027 187.984 71.9355 188.638C73.5735 190.304 76.5641 189.552 78.4627 190.909C78.9963 191.292 79.4058 191.822 79.9766 192.155C81.7387 193.217 84.084 192.007 86.0571 192.587C88.452 193.291 89.2958 196.154 90.9711 198.005C91.1572 198.215 91.3682 198.425 91.6412 198.511C92.0134 198.634 92.4105 198.511 92.8076 198.511C93.9244 198.523 94.7558 199.523 95.3763 200.448C96.0836 201.497 96.7413 202.583 97.3617 203.694C97.4114 206.643 97.3245 209.605 97.1136 212.542C97.1012 212.727 97.0888 212.925 97.0639 213.122C96.6668 213.06 96.2822 212.999 95.8851 212.949C94.5945 212.752 93.3164 212.567 92.0134 212.554C90.4375 212.542 88.6506 212.74 87.5089 211.666C85.9702 210.222 86.5658 207.359 84.9278 206.051C83.9103 205.249 82.4708 205.372 81.1803 205.36C79.8773 205.348 78.3386 204.928 77.9539 203.694C77.532 202.336 78.8474 200.856 78.351 199.523C77.7182 197.807 74.7028 197.845 74.2933 196.055C74.1319 195.364 74.4794 194.636 74.3925 193.933C74.256 192.711 72.9655 191.97 71.7742 191.65C70.5829 191.316 69.2552 191.156 68.3741 190.304C67.9646 189.909 67.6916 189.404 67.3193 188.972C65.247 186.602 61.1644 187.466 58.6454 185.578C60.1717 185.738 61.7725 185.726 63.3608 185.516Z" fill="#C69560"/>
<path d="M89.3207 200.276H176.619V146.964C176.619 145.397 175.34 144.114 173.752 144.114H92.1872C90.6112 144.114 89.3207 145.385 89.3207 146.964V200.276Z" fill="#121212"/>
<path d="M91.3558 147.408H174.224V197.326H91.3558V147.408Z" fill="#07B5D9"/>
<path d="M89.3206 200.276L82.8679 226.882H185.293L176.619 200.276H89.3206Z" fill="#166CA6"/>
<path d="M184.908 229.091L83.2774 228.943L82.8928 226.87L185.268 226.882L184.908 229.091ZM145.186 225.167H121.076C120.542 225.167 120.157 224.661 120.281 224.155L121.659 218.811C121.733 218.515 121.994 218.318 122.304 218.318H143.586C143.921 218.318 144.206 218.54 144.293 218.86L145.832 224.327C145.956 224.735 145.633 225.167 145.186 225.167Z" fill="#074D84"/>
<path d="M121.076 225.167H145.186C145.422 225.167 145.621 225.043 145.745 224.87L144.057 219.194C143.97 218.922 143.722 218.737 143.437 218.737H122.589C122.341 218.737 122.13 218.897 122.056 219.132L120.381 224.772C120.517 225.006 120.778 225.167 121.076 225.167Z" fill="#166CA6"/>
<path d="M94.0733 205.656V205.928H100.514L101.556 202.127L101.395 201.769L94.0733 205.656ZM103.157 205.656V205.928H109.597L110.627 202.127L110.478 201.769L103.157 205.656ZM92.4974 211.37V211.678H99.0245L100.017 207.914L99.8435 207.606L92.4974 211.37ZM98.3296 213.32V213.826L97.3493 217.528H90.8718V217.256L98.3296 213.32ZM101.593 211.37V211.678H108.12L109.113 207.914L108.939 207.606L101.593 211.37ZM107.425 213.32V213.826L106.445 217.528H99.9676V217.256L107.425 213.32ZM112.203 205.656V205.928H118.805L119.686 202.127L119.524 201.769L112.203 205.656ZM110.639 211.37V211.678H117.365L118.159 207.914V207.606L110.639 211.37ZM116.782 213.32V213.789L115.876 217.528H109.014V217.256L116.782 213.32Z" fill="#074D84"/>
<path d="M101.593 211.37H107.897L108.89 207.606H102.623L101.593 211.37ZM110.441 201.769H104.212L103.157 205.656H109.411L110.441 201.769ZM99.98 217.256H106.321L107.376 213.32H101.06L99.98 217.256ZM92.4974 211.37H98.8508L99.8435 207.606H93.5273L92.4974 211.37ZM113.258 201.769L112.203 205.656H118.618L119.562 201.769H113.258ZM110.106 213.32L109.026 217.256H115.826L116.782 213.32H110.106ZM98.3296 213.32H91.9638L90.8718 217.256H97.2749L98.3296 213.32ZM118.159 207.606H111.669L110.639 211.37H117.241L118.159 207.606ZM100.365 205.656L101.395 201.769H95.1405L94.0733 205.656H100.365Z" fill="#2C90C9"/>
<path d="M174.211 154.64C170.029 153.184 165.475 152.69 161.033 152.974C153.91 153.431 147.023 155.738 140.421 158.429C133.82 161.119 127.367 164.241 120.579 166.438C119.351 166.833 118.073 167.215 116.782 167.079C115.491 166.944 114.188 166.191 113.791 164.969C112.799 161.933 117.663 159.28 116.695 156.232C116.087 154.295 113.568 153.813 111.521 153.801C104.584 153.764 97.6596 155.282 91.3433 158.132V166.697C93.093 165.697 94.9047 164.796 96.8281 164.167C99.31 163.353 102.487 163.192 104.075 165.241C106.011 167.733 104.212 171.534 105.452 174.434C106.172 176.125 107.86 177.248 109.647 177.717C111.434 178.186 113.307 178.075 115.144 177.865C124.116 176.865 132.69 173.78 141.414 171.473C150.138 169.165 159.382 167.622 168.143 169.757C170.228 170.263 172.313 171.041 174.199 172.102V154.64H174.211Z" fill="#33C3DF"/>
<path d="M154.667 192.402C153.86 193.92 153.426 195.623 153.376 197.326H174.211V190.218C172.189 190.317 170.178 190.415 168.156 190.514C167.486 190.551 166.729 190.551 166.245 190.07C165.922 189.749 165.81 189.28 165.773 188.824C165.525 185.973 167.572 183.209 166.977 180.42C166.331 177.371 162.931 175.804 159.879 175.113C146.986 172.176 133.584 176.557 121.559 182.036C115.901 184.615 109.858 187.528 103.74 186.405C101.494 185.998 99.1735 184.875 98.2428 182.789C96.6917 179.321 99.7195 175.422 99.3472 171.633C99.2852 170.942 99.0866 170.251 98.6275 169.733C97.3493 168.264 94.9544 168.98 93.2419 169.905C92.5967 170.263 91.9514 170.633 91.3309 171.016V192.193C92.8945 193.784 95.4135 194.007 97.6844 194.007C102.003 193.994 106.309 193.587 110.553 192.785C122.403 190.539 133.509 185.257 145.348 182.962C147.743 182.505 150.274 182.172 152.582 182.974C154.89 183.776 156.851 186.022 156.516 188.429C156.33 189.885 155.362 191.107 154.667 192.402Z" fill="#33C3DF"/>
<path d="M94.0733 205.656V205.928H100.514L101.556 202.127L101.395 201.769L94.0733 205.656ZM103.157 205.656V205.928H109.597L110.627 202.127L110.478 201.769L103.157 205.656ZM92.4974 211.37V211.678H99.0245L100.017 207.914L99.8435 207.606L92.4974 211.37ZM98.3296 213.32V213.826L97.3493 217.528H90.8718V217.256L98.3296 213.32ZM101.593 211.37V211.678H108.12L109.113 207.914L108.939 207.606L101.593 211.37ZM107.425 213.32V213.826L106.445 217.528H99.9676V217.256L107.425 213.32ZM112.203 205.656V205.928H118.805L119.686 202.127L119.524 201.769L112.203 205.656ZM110.639 211.37V211.678H117.365L118.159 207.914V207.606L110.639 211.37ZM116.782 213.32V213.789L115.876 217.528H109.014V217.256L116.782 213.32Z" fill="#074D84"/>
<path d="M101.593 211.37H107.897L108.89 207.606H102.623L101.593 211.37ZM110.441 201.769H104.212L103.157 205.656H109.411L110.441 201.769ZM99.98 217.256H106.321L107.376 213.32H101.06L99.98 217.256ZM92.4974 211.37H98.8508L99.8435 207.606H93.5273L92.4974 211.37ZM113.258 201.769L112.203 205.656H118.618L119.562 201.769H113.258ZM110.106 213.32L109.026 217.256H115.826L116.782 213.32H110.106ZM98.3296 213.32H91.9638L90.8718 217.256H97.2749L98.3296 213.32ZM118.159 207.606H111.669L110.639 211.37H117.241L118.159 207.606ZM100.365 205.656L101.395 201.769H95.1405L94.0733 205.656H100.365Z" fill="#2C90C9"/>
<path d="M173.702 205.656V205.928H167.262L166.22 202.127L166.369 201.769L173.702 205.656ZM164.619 205.656V205.928H158.179L157.136 202.127L157.285 201.769L164.619 205.656ZM175.278 211.37V211.678H168.751L167.746 207.914L167.92 207.606L175.278 211.37ZM169.446 213.32V213.826L170.414 217.528H176.904V217.256L169.446 213.32ZM166.183 211.37V211.678H159.655L158.663 207.914L158.836 207.606L166.183 211.37ZM160.35 213.32V213.826L161.318 217.528H167.808V217.256L160.35 213.32ZM155.573 205.656V205.928H148.971L148.09 202.127L148.239 201.769L155.573 205.656ZM157.136 211.37V211.678H150.411L149.616 207.914V207.606L157.136 211.37ZM150.994 213.32V213.789L151.9 217.528H158.762V217.256L150.994 213.32Z" fill="#074D84"/>
<path d="M166.183 211.37H159.879L158.874 207.606H165.153L166.183 211.37ZM157.323 201.769H163.552L164.619 205.656H158.365L157.323 201.769ZM167.796 217.256H161.442L160.4 213.32H166.716L167.796 217.256ZM175.278 211.37H168.925L167.92 207.606H174.236L175.278 211.37ZM154.506 201.769L155.573 205.656H149.145L148.214 201.769H154.506ZM157.67 213.32L158.75 217.256H151.949L150.994 213.32H157.67ZM169.446 213.32H175.812L176.904 217.256H170.489L169.446 213.32ZM149.616 207.606H156.106L157.136 211.37H150.522L149.616 207.606ZM167.411 205.656L166.369 201.769H172.635L173.703 205.656H167.411Z" fill="#2C90C9"/>
<path d="M129.365 201.769V202.164L128.571 205.878H121.907V205.656L129.365 201.769ZM128.111 207.606V207.89L127.342 211.567H120.269V211.37L128.111 207.606ZM130.382 205.656L130.444 205.878H137.877L138.014 205.656H130.382ZM129.154 211.37L129.241 211.567H139.143L139.242 211.37H129.154ZM139.031 201.769V202.077L139.813 205.878H146.402L146.551 205.656L139.031 201.769ZM140.285 207.606L140.223 207.951L141.042 211.567H148.078L148.177 211.37L140.285 207.606Z" fill="#074D84"/>
<path d="M139.863 205.656H146.551L145.435 201.769H139.031L139.863 205.656ZM130.382 205.656H138.014L137.17 201.769H131.214L130.382 205.656ZM139.242 211.37L138.423 207.606H129.96L129.154 211.37H139.242ZM140.285 207.606L141.091 211.37H148.177L147.11 207.606H140.285ZM128.521 205.656L129.365 201.769H123.024L121.907 205.656H128.521ZM128.111 207.606H121.349L120.269 211.37H127.292L128.111 207.606Z" fill="#2C90C9"/>
<path d="M119.065 216.861L119.214 217.256H148.996L149.281 216.861H119.065Z" fill="#074D84"/>
<path d="M149.281 216.861H119.065L120.108 213.32H148.475L149.281 216.861Z" fill="#2C90C9"/>
<path d="M153.19 131.884C153.19 131.563 153.426 131.292 153.563 130.995C154.034 129.947 153.19 128.638 153.662 127.589C153.873 127.121 154.307 126.8 154.667 126.429C155.163 125.911 155.548 125.294 155.895 124.665C156.168 124.183 156.417 123.69 156.789 123.283C157.149 122.875 157.645 122.542 158.191 122.48C158.315 122.468 158.439 122.468 158.539 122.53C158.65 122.592 158.712 122.727 158.762 122.838C158.923 123.295 158.898 123.813 158.687 124.245C158.501 124.64 158.154 124.998 158.216 125.43C158.836 125.171 159.444 124.912 160.065 124.652C160.574 124.443 161.095 124.22 161.628 124.06C162.634 123.752 163.713 123.653 164.756 123.764C164.954 123.789 165.202 123.863 165.202 124.072C165.202 124.171 165.128 124.27 165.053 124.332C164.793 124.554 164.47 124.677 164.16 124.788C163.328 125.097 162.485 125.405 161.653 125.714C161.331 125.837 160.971 125.973 160.822 126.281C162.125 126.022 163.465 125.862 164.793 125.8C165.041 125.788 165.302 125.775 165.537 125.849C165.773 125.923 165.996 126.096 166.058 126.343C166.071 126.405 166.083 126.479 166.046 126.541C165.996 126.639 165.885 126.676 165.785 126.701C164.83 126.96 163.862 127.121 162.882 127.207C162.472 127.244 161.988 127.293 161.753 127.626C162.845 127.614 163.924 127.602 165.016 127.577C165.45 127.577 165.972 127.614 166.195 127.984C165.972 128.256 165.587 128.305 165.239 128.342C164.197 128.453 163.155 128.564 162.112 128.688C163.18 128.861 164.259 129.021 165.302 129.317C165.5 129.379 165.761 129.564 165.637 129.737C165.599 129.786 165.537 129.811 165.488 129.835C164.805 130.095 164.048 129.959 163.328 130.033C162.249 130.144 161.244 130.761 160.648 131.662C160.437 131.97 160.276 132.316 159.978 132.538C159.581 132.822 159.047 132.822 158.576 132.908C158.042 133.019 157.521 133.266 157.112 133.624C156.963 133.747 156.826 133.896 156.64 133.957C156.367 134.044 156.069 133.908 155.809 133.772C154.878 133.254 154.046 132.587 153.352 131.785" fill="#F2A27F"/>
<path d="M128.67 95.7507C129.117 96.4047 129.39 97.1699 129.576 97.935C130.047 99.8231 130.085 101.835 129.65 103.735C129.278 105.389 128.571 106.968 128.484 108.659C128.447 109.473 128.546 110.3 128.72 111.102C129.228 113.546 130.295 115.878 131.822 117.877C132.504 118.778 133.286 119.605 133.931 120.543C136.45 124.208 136.55 129.083 135.321 133.34C133.882 138.338 128.31 141.288 124.079 143.608C119.661 146.039 115.218 148.47 110.565 150.42C107.215 151.826 103.703 152.999 100.079 153.122C96.4435 153.246 92.6587 152.209 90.0528 149.704C88.8367 148.531 87.906 147.088 87.0001 145.656C86.0446 144.151 85.0767 142.62 84.5307 140.917C83.9723 139.165 83.8855 137.314 83.8979 135.475C83.9103 132.254 84.2205 129.009 85.2132 125.936C85.8461 123.974 86.7644 122.073 88.0053 120.42C89.2214 118.791 90.8097 117.532 92.0258 115.903C94.5573 112.522 96.1581 108.437 96.5427 104.241C96.6917 102.6 96.6668 100.934 96.9398 99.2924C97.3245 96.9601 98.3421 94.7017 100.03 93.0357C101.966 91.123 104.646 90.0987 107.351 89.7038C111.322 89.1114 115.479 89.7655 119.078 91.5425C119.835 91.9128 120.641 92.6409 121.435 92.9C122.23 93.1592 123.309 92.9987 124.153 93.1592C125.903 93.4924 127.652 94.2328 128.67 95.7507Z" fill="#89403A"/>
<path d="M110.888 110.88C109.349 110.917 108.083 112.09 107.252 113.385C106.42 114.669 105.874 116.137 104.906 117.322C104.137 118.272 103.12 118.988 102.263 119.864C101.37 120.777 100.638 121.863 100.141 123.048C99.6574 124.183 99.4093 125.566 100.079 126.602C100.464 127.182 101.084 127.577 101.717 127.849C104.373 128.996 107.574 128.478 109.982 126.886C112.389 125.294 114.04 122.74 114.933 120C115.64 117.803 115.839 115.237 114.499 113.348C113.543 112.003 111.967 111.251 110.429 110.683" fill="#70393C"/>
<path d="M131.822 117.877C130.295 115.891 129.228 113.558 128.719 111.102C128.558 110.3 128.446 109.473 128.484 108.659C128.496 108.338 128.533 108.017 128.595 107.709C127.181 109.251 125.468 110.522 123.557 111.411C120.083 113.028 116 113.324 112.315 112.238C111.049 111.868 109.336 111.485 108.679 112.62C108.468 112.991 108.431 113.422 108.431 113.842C108.406 116.322 109.113 118.877 108.356 121.246C107.847 122.838 106.693 124.295 106.83 125.96C106.892 126.8 107.289 127.565 107.674 128.305C109.175 131.23 110.751 134.253 113.357 136.265C114.945 137.487 116.819 138.276 118.668 139.042C120.219 139.683 121.795 140.337 123.47 140.498C124.823 140.633 126.188 140.448 127.503 140.152C128.806 139.868 130.109 139.473 131.363 138.955C133.187 137.4 134.688 135.561 135.334 133.315C136.562 129.058 136.45 124.183 133.944 120.518C133.286 119.617 132.504 118.778 131.822 117.877Z" fill="#70393C"/>
<path d="M124.364 121.542C124.364 121.542 137.369 129.996 143.747 143.237L152.098 130.563L157.893 134.303L148.549 153.023C148.549 153.023 143.995 155.985 139.776 153.431L127.938 140.942L124.364 121.542Z" fill="#B55851"/>
<path d="M105.676 121.543C105.676 121.543 115.541 119.852 124.351 121.543C124.351 121.543 135.805 129.317 129.811 146.717C129.811 146.717 128.868 159.984 130.395 165.993C130.395 165.993 131.487 173.237 131.201 175.224C131.201 175.224 106.42 177.384 99.0866 173.41C99.0866 173.41 102.524 145.533 101.779 140.683C101.792 140.695 92.3485 131.267 105.676 121.543Z" fill="#F17C6E"/>
<path d="M117.886 175.817C118.097 175.385 118.122 174.866 117.849 174.471C117.638 174.188 117.316 174.015 116.993 173.879C114.486 172.768 111.62 172.448 108.927 172.953C108.418 173.052 107.823 173.139 107.475 172.768C106.892 172.151 107.699 171.213 108.443 170.806C112.836 168.412 117.924 167.622 122.912 167.178C123.843 167.092 125.034 166.746 125.046 165.833C125.046 165.204 124.463 164.759 123.905 164.463C122.205 163.575 120.145 163.081 119.04 161.514C117.837 159.823 118.234 157.392 119.45 155.714C119.859 155.146 120.368 154.566 120.343 153.875C120.319 153.295 119.921 152.801 119.586 152.332C117.427 149.284 117.316 144.94 119.301 141.781L118.929 141.534C117.154 140.843 115.169 140.942 113.258 141.065C111.409 141.189 109.523 141.325 107.773 141.942C105.316 142.793 103.268 144.545 101.755 146.656C101.184 156.417 99.0866 173.41 99.0866 173.41C102.772 175.397 110.776 175.854 117.886 175.817Z" fill="#BD5C55"/>
<path d="M113.965 133.007L118.135 139.671L124.451 121.604C124.389 121.555 124.351 121.543 124.351 121.543C117.973 120.321 111.037 120.864 107.698 121.259L113.965 133.007Z" fill="#DEDEDF"/>
<path d="M111.967 116.396L110.912 121.012L116.36 125.158L120.07 121.185C120.07 121.185 118.892 118.667 118.954 116.865L111.967 116.396Z" fill="#F2A27F"/>
<path d="M105.676 121.542C105.676 121.542 97.8457 123.825 92.82 134.747L85.4738 150.407L93.2543 153.751L105.291 135.611L105.676 121.542Z" fill="#F17C6E"/>
<path d="M125.717 122.69C125.108 122.098 124.637 121.74 124.451 121.604C123.098 124.406 118.792 133.735 118.135 139.992C118.135 139.992 122.912 133.982 123.992 133.155L123.57 128.873L126.138 127.207C126.138 127.194 126.138 124.615 125.717 122.69ZM107.761 121.259C107.525 121.283 107.314 121.308 107.115 121.333C106.52 123.246 107.388 127.762 107.388 127.762L110.342 129.021L110.776 133.612C112.042 134.266 118.135 139.671 118.135 139.671C116.124 132.945 109.386 123.48 107.761 121.259Z" fill="#B55851"/>
<path d="M100.328 134.315C100.576 134.377 119.438 138.511 119.438 138.511C119.438 138.511 121.113 139.251 120.616 141.164L113.915 165.722L94.8055 160.601L100.328 134.315Z" fill="#3F6B83"/>
<path d="M101.01 135.056L118.259 139.066C118.259 139.066 120.74 140.671 118.259 140.3L101.755 136.907L96.3069 161.008L95.1901 160.712L101.01 135.056Z" fill="#DEDEDF"/>
<path d="M106.631 157.688C108.145 157.392 108.89 155.492 110.391 155.121C110.726 155.035 111.074 155.047 111.421 155.023C112.215 154.973 112.997 154.8 113.729 154.504C113.965 154.406 114.201 154.294 114.461 154.282C114.722 154.27 114.995 154.369 115.119 154.591C115.231 154.825 115.144 155.121 114.958 155.306C114.772 155.492 114.524 155.603 114.288 155.701C113.742 155.923 113.208 156.146 112.662 156.368C112.426 156.466 112.153 156.627 112.191 156.874C112.215 157.108 112.501 157.207 112.737 157.256C113.444 157.38 114.176 157.404 114.896 157.429C115.454 157.454 116.05 157.491 116.509 157.824C116.956 158.157 117.129 158.91 116.708 159.268C116.521 159.428 116.199 159.564 116.248 159.811C116.273 159.934 116.385 160.008 116.447 160.107C116.621 160.354 116.546 160.712 116.36 160.946C116.162 161.181 115.876 161.316 115.603 161.427C115.777 161.625 115.963 161.822 116.05 162.069C116.137 162.316 116.099 162.624 115.889 162.785C115.789 162.871 115.64 162.908 115.553 162.995C115.293 163.241 115.442 163.673 115.355 164.019C115.28 164.315 115.02 164.537 114.734 164.636C114.449 164.747 114.139 164.759 113.841 164.772C112.228 164.846 110.553 164.895 109.088 164.216C108.294 163.846 107.612 163.266 106.954 162.711C106.693 162.489 106.42 162.267 106.271 161.958C106.147 161.711 106.123 161.44 106.098 161.156C106.011 159.909 106.247 158.626 106.755 157.491" fill="#FBC0A4"/>
<path d="M85.4738 150.407C85.5111 150.346 107.264 157.207 107.264 157.207L106.271 163.254L85.4738 157.639C85.4738 157.639 83.538 153.727 85.4738 150.407Z" fill="#F17C6E"/>
<path d="M124.476 100.625C124.476 100.625 127.057 115.348 117.775 118.791C117.775 118.791 108.257 121.246 107.909 106.759C107.909 106.759 110.615 93.2086 124.476 100.625Z" fill="#FBC0A4"/>
<path d="M120.703 100.391C120.703 100.391 115.169 106.376 107.264 107.869C107.264 107.869 103.79 105.993 107.264 100.391C107.264 100.391 115.243 95.2448 120.703 97.3057C120.703 97.3057 125.779 98.3299 125.592 103.661C125.605 103.661 121.832 102.723 120.703 100.391Z" fill="#89403A"/>
<path d="M108.493 107.807C108.493 107.807 106.147 106.228 105.676 108.918C105.676 108.918 105.788 113.879 109.138 112.892L108.493 107.807Z" fill="#FBC0A4"/>
<path d="M99.099 173.422L93.3536 197.338H128.831C130.171 189.046 132.008 176.631 131.214 175.236L99.099 173.422Z" fill="#3F6B83"/>
<path d="M110.056 181.518C111.384 180.518 112.985 179.938 114.561 179.395C119.028 177.84 123.52 176.396 128.062 175.051L99.099 173.422L93.3536 197.338H100.985C101.506 196.376 102.164 195.475 102.933 194.698C106.073 191.526 110.776 190.415 114.201 187.552C114.772 187.071 115.355 186.355 115.094 185.652C114.846 184.998 114.027 184.825 113.332 184.739C112.377 184.615 111.421 184.504 110.466 184.381C110.044 184.331 109.585 184.257 109.287 183.961C108.604 183.258 109.287 182.098 110.056 181.518Z" fill="#325363"/>
</svg>
