<svg width="259" height="237" viewBox="0 0 259 237" fill="none" xmlns="http://www.w3.org/2000/svg">
<path d="M258.483 236.748C258.483 234.546 258.483 142.118 258.368 0.278557L258.644 0.530589L0.642995 1.14076H0.241121L0.562617 0.835676C0.562617 87.1357 0.562617 168.063 0.562617 236.748L0.287051 236.483L258.529 236.748L0.287051 237H0V236.735C0 168.05 0 87.1224 0 0.822409V0.530589H0.723369L258.724 0H259V0.265295C258.713 142.118 258.495 234.546 258.483 236.748Z" fill="white"/>
<path d="M241.123 214.596H240.239H237.632L227.608 214.676L190.751 214.808L69.1336 214.928H16.6952H16.3622V214.543C16.3622 174.404 16.454 139.889 16.4885 115.363C16.4885 103.146 16.5574 93.4099 16.5803 86.7112C16.5803 83.3951 16.5803 80.835 16.5803 79.0708C16.5803 78.2218 16.5803 77.5586 16.5803 77.0943C16.5803 76.6301 16.5803 76.4178 16.5803 76.4178C16.5905 76.6432 16.5905 76.869 16.5803 77.0943C16.5803 77.5586 16.5803 78.2218 16.5803 79.0708C16.5803 80.835 16.5803 83.3951 16.5803 86.7112C16.5803 93.4099 16.6377 103.146 16.6722 115.363C16.6722 139.889 16.7526 174.404 16.7985 214.543L16.4655 214.158H68.9039L190.521 214.278L227.379 214.41L237.403 214.49H240.009L241.123 214.596Z" fill="#263238"/>
<path d="M57.5938 180.479H34.9283V206.664H57.5938V180.479Z" fill="#02579C"/>
<path d="M90.8344 161.75H68.1689V206.664H90.8344V161.75Z" fill="#90CAF9"/>
<path d="M124.201 140.486H101.536V206.664H124.201V140.486Z" fill="#02579C"/>
<path d="M156.557 116.809H133.892V206.664H156.557V116.809Z" fill="#90CAF9"/>
<path d="M189.66 86.4857H166.995V206.664H189.66V86.4857Z" fill="#02579C"/>
<path d="M222.51 63.3654H199.845V205.417H222.51V63.3654Z" fill="#90CAF9"/>
<g opacity="0.5">
<path d="M95.9485 161.828H73.283V206.742H95.9485V161.828Z" fill="#E4F9FF"/>
</g>
<g opacity="0.5">
<path d="M161.2 116.934H138.535V206.789H161.2V116.934Z" fill="#E4F9FF"/>
</g>
<g opacity="0.5">
<path d="M226.452 63.6873H203.787V205.739H226.452V63.6873Z" fill="#E4F9FF"/>
</g>
<path d="M34.9283 153.618C35.0198 153.522 35.1199 153.438 35.2268 153.366L36.1109 152.663L39.5555 150.01L52.5532 140.128L97.5398 106.157L98.0564 105.759V106.476C98.0564 110.19 98.0564 114.156 98.0564 118.202L97.5168 117.87L115.245 104.141L177.811 55.8575L196.813 41.2664L202.003 37.287L203.358 36.2921C203.508 36.1657 203.67 36.0589 203.84 35.9738C203.702 36.1131 203.557 36.2416 203.404 36.3584L202.084 37.4329L196.963 41.4123L178.098 56.3085L115.658 104.791L97.9646 118.507L97.4249 118.931V118.175C97.4249 114.196 97.4249 110.216 97.4249 106.449L97.9416 106.781L52.7828 140.539L39.6818 150.249L36.1683 152.809L35.2498 153.459C35.0431 153.565 34.9398 153.631 34.9283 153.618Z" fill="#263238"/>
<path d="M203.852 47.1028C203.649 46.0454 203.567 44.9616 203.611 43.8795C203.542 41.8766 203.507 39.091 203.496 35.9207L203.852 36.3319H202.979C200.074 36.3319 197.445 36.3319 195.55 36.2125C194.514 36.2538 193.478 36.1559 192.462 35.9207C193.486 35.7294 194.526 35.6716 195.562 35.7483C197.456 35.6687 200.086 35.6289 202.991 35.6289H204.208V36.0268C204.208 39.1573 204.208 41.9429 204.093 43.9856C204.117 45.032 204.037 46.0781 203.852 47.1028Z" fill="#263238"/>
<path d="M38.66 68.1804C38.66 68.1804 35.9617 97.0974 39.4063 112.935L72.8534 111.238C72.8534 111.238 65.6887 82.7185 70.0863 70.1171L38.66 68.1804Z" fill="#EBEBEB"/>
<path d="M38.7979 67.252C38.7979 67.252 39.0275 98.477 40.3939 108.001L74.3003 106.144C74.3003 106.144 71.3149 75.4495 72.4631 67.252H38.7979Z" fill="#90CAF9"/>
<path d="M67.3537 80.3707C67.3537 80.5033 62.2786 80.9809 55.998 81.4186C49.7173 81.8563 44.6193 82.0951 44.6078 81.9492C44.5963 81.8033 49.6829 81.3258 55.9635 80.888C62.2442 80.4503 67.3422 80.2248 67.3537 80.3707Z" fill="white"/>
<path d="M67.3648 86.9766C67.3648 87.1225 62.2897 87.5868 56.0091 88.0245C49.7284 88.4622 44.6189 88.701 44.6189 88.5551C44.6189 88.4092 49.694 87.9449 55.9746 87.5072C62.2553 87.0694 67.3533 86.8307 67.3648 86.9766Z" fill="white"/>
<path d="M61.6012 93.4763C60.9859 93.6626 60.3539 93.765 59.7181 93.7814C58.5699 93.914 56.928 94.06 55.1253 94.1793C53.3226 94.2987 51.6807 94.3916 50.5325 94.4181C49.8998 94.5135 49.2591 94.5135 48.6265 94.4181C49.2458 94.2328 49.8814 94.1304 50.521 94.113C51.6692 93.9804 53.3111 93.8345 55.1138 93.7151C56.9165 93.5957 58.5584 93.5028 59.7066 93.4763C60.3355 93.3813 60.9723 93.3813 61.6012 93.4763Z" fill="white"/>
<path d="M123.42 31.6362C123.42 31.8617 103.591 32.0341 79.1341 32.0341C54.6774 32.0341 34.8135 31.8617 34.8135 31.6362C34.8135 31.4107 54.6314 31.225 79.0882 31.225C103.545 31.225 123.42 31.4107 123.42 31.6362Z" fill="#263238"/>
<path d="M67.3765 40.9614C67.3765 41.1869 59.9361 41.3593 50.7735 41.3593C41.6108 41.3593 34.159 41.1869 34.159 40.9614C34.159 40.7359 41.5993 40.5502 50.7735 40.5502C59.9476 40.5502 67.3765 40.7359 67.3765 40.9614Z" fill="#263238"/>
<path d="M85.013 40.9614C85.013 41.1869 82.1539 41.3593 78.6175 41.3593C75.081 41.3593 72.222 41.1869 72.222 40.9614C72.222 40.7359 75.081 40.5502 78.6175 40.5502C82.1539 40.5502 85.013 40.7359 85.013 40.9614Z" fill="#263238"/>
</svg>
