<svg width="250" height="250" viewBox="0 0 250 250" fill="none" xmlns="http://www.w3.org/2000/svg">
<path d="M77.645 18.275H20.37V113.08H77.645V18.275Z" fill="#E0E0E0"/>
<path d="M75.74 18.275H18.465V113.08H75.74V18.275Z" fill="#EBEBEB"/>
<path d="M73.3 20.1949H20.905V111.155H73.3V20.1949Z" fill="white"/>
<path d="M63.1 32.015H30.88V99.335H63.1V32.015Z" fill="#EBEBEB"/>
<path d="M30.88 75.4999C30.805 69.2099 36.46 63.0699 42.685 62.1899C45.655 61.7749 48.81 62.3649 51.585 61.2249C56.535 59.1949 58.115 52.6149 63.085 50.6599L63.315 99.3199H30.88V75.4999Z" fill="#E0E0E0"/>
<path d="M227.425 13.97V66.14H152.495L149.795 14.335L227.425 13.97Z" fill="#E0E0E0"/>
<path d="M149.8 14.335V66.03H224.73V14.335L149.8 14.335Z" fill="white"/>
<path d="M225.08 66.385H149.44V14H225.08V66.385ZM150.155 65.675H224.37V14.675H150.155V65.675Z" fill="#E0E0E0"/>
<path d="M216.61 20.76H157.91V59.61H216.61V20.76Z" fill="white"/>
<path d="M216.61 20.76H216.32H215.485H212.265L200.165 20.805L157.91 20.89L158.08 20.72C158.08 32.59 158.08 45.72 158.08 59.565L157.895 59.38L216.595 59.415L216.45 59.565C216.48 47.74 216.505 38.065 216.525 31.295C216.525 27.925 216.555 25.295 216.565 23.48C216.565 22.59 216.565 21.905 216.565 21.425C216.565 20.96 216.565 20.715 216.565 20.715C216.565 20.715 216.565 20.94 216.565 21.395C216.565 21.85 216.565 22.54 216.565 23.395C216.565 25.195 216.565 27.82 216.6 31.18C216.6 37.95 216.645 47.68 216.68 59.54V59.685H216.53L157.83 59.725H157.645V59.54C157.645 45.715 157.645 32.565 157.645 20.695V20.525H157.81L200.18 20.61L212.235 20.655H215.425H216.24C216.366 20.6809 216.489 20.716 216.61 20.76Z" fill="#E0E0E0"/>
<path d="M149.795 14.1899C150.259 14.4126 150.692 14.6932 151.085 15.0249C151.85 15.5799 152.895 16.3649 154.025 17.2649C155.155 18.1649 156.14 19.0199 156.84 19.6599C157.243 19.9788 157.602 20.3485 157.91 20.7599C157.845 20.8399 156.04 19.3499 153.79 17.5549C151.54 15.7599 149.73 14.2749 149.795 14.1899Z" fill="#E0E0E0"/>
<path d="M224.725 14.335C224.79 14.415 223.025 15.92 220.785 17.695C218.545 19.47 216.675 20.84 216.61 20.76C216.545 20.68 218.31 19.175 220.555 17.4C222.8 15.625 224.66 14.255 224.725 14.335Z" fill="#E0E0E0"/>
<path d="M224.665 66.04L216.31 59.265L224.665 66.04Z" fill="white"/>
<path d="M216.31 59.265C216.375 59.19 218.31 60.64 220.605 62.51C222.9 64.38 224.73 65.96 224.665 66.04C224.6 66.12 222.665 64.665 220.375 62.795C218.085 60.925 216.25 59.345 216.31 59.265Z" fill="#E0E0E0"/>
<path d="M149.795 66.03C149.735 65.95 151.48 64.465 153.7 62.71C155.92 60.955 157.765 59.6 157.83 59.68C157.895 59.76 156.145 61.245 153.93 63C151.715 64.755 149.86 66.11 149.795 66.03Z" fill="#E0E0E0"/>
<path d="M169.83 32.86V45.87H206.765V32.86H169.83Z" fill="#E0E0E0"/>
<path d="M113.78 187.29C113.78 185.025 115.515 183.385 117.85 183.385C118.412 183.365 118.973 183.468 119.491 183.687C120.009 183.906 120.473 184.237 120.85 184.655L119.945 185.5C119.69 185.215 119.377 184.988 119.027 184.834C118.677 184.68 118.297 184.604 117.915 184.61C117.554 184.594 117.194 184.652 116.856 184.779C116.518 184.907 116.21 185.101 115.949 185.351C115.688 185.6 115.481 185.9 115.339 186.232C115.197 186.564 115.124 186.921 115.124 187.283C115.124 187.644 115.197 188.001 115.339 188.333C115.481 188.665 115.688 188.965 115.949 189.214C116.21 189.464 116.518 189.658 116.856 189.786C117.194 189.913 117.554 189.971 117.915 189.955C118.299 189.961 118.68 189.884 119.03 189.727C119.381 189.571 119.693 189.34 119.945 189.05L120.86 189.92C120.483 190.338 120.019 190.668 119.501 190.887C118.982 191.106 118.422 191.21 117.86 191.19C115.5 191.2 113.78 189.56 113.78 187.29Z" fill="#EBEBEB"/>
<path d="M106.065 193.245H96.645V183.825H106.065V193.245ZM97.145 192.745H105.565V184.325H97.145V192.745Z" fill="#EBEBEB"/>
<path d="M94.85 195.205C94.57 194.995 96.82 191.615 100.285 188.03C103.75 184.445 107.04 182.065 107.285 182.335C107.53 182.605 104.65 185.395 101.245 188.935C97.84 192.475 95.14 195.435 94.85 195.205Z" fill="#E0E0E0"/>
<path d="M107.415 195C107.11 195.22 104.54 192.095 101.145 188.47C97.75 184.845 94.81 182.065 95.045 181.775C95.28 181.485 98.64 183.875 102.095 187.58C105.55 191.285 107.7 194.82 107.415 195Z" fill="#E0E0E0"/>
<path d="M43 156.565L38.375 156.235L37.31 158.315L35.535 158.19L40.36 149.225L42.05 149.345L45.55 158.9L43.75 158.775L43 156.565ZM42.53 155.175L41.075 151L39.075 154.925L42.53 155.175Z" fill="#EBEBEB"/>
<path d="M27.895 158.695L16.525 157.89L17.335 146.5L28.7 147.31L27.895 158.695ZM17.06 157.425L27.43 158.165L28.165 147.79L17.795 147.055L17.06 157.425Z" fill="#EBEBEB"/>
<path d="M14.11 160.17C13.85 159.945 16.925 156.07 21.45 152.01C25.975 147.95 30.145 145.285 30.345 145.565C30.545 145.845 26.78 148.955 22.345 152.975C17.91 156.995 14.385 160.42 14.11 160.17Z" fill="#E0E0E0"/>
<path d="M29.435 161.03C29.115 161.23 26.305 157.155 22.47 152.44C18.635 147.725 15.25 144.12 15.5 143.845C15.75 143.57 19.59 146.815 23.5 151.62C27.41 156.425 29.73 160.855 29.435 161.03Z" fill="#E0E0E0"/>
<path d="M234.825 107.105C235.26 108.635 234.325 109.87 232.015 110.52L227.575 111.775L225.075 102.845L229.26 101.66C231.4 101.055 232.805 101.66 233.205 103.05C233.333 103.448 233.346 103.875 233.241 104.28C233.137 104.686 232.92 105.053 232.615 105.34C233.128 105.343 233.626 105.518 234.027 105.838C234.428 106.159 234.709 106.605 234.825 107.105ZM227.075 103.675L227.775 106.14L230.12 105.475C231.27 105.15 231.805 104.555 231.575 103.74C231.345 102.925 230.575 102.685 229.425 103.01L227.075 103.675ZM233.11 107.41C232.855 106.52 232.065 106.315 230.815 106.67L228.14 107.43L228.865 110.005L231.545 109.245C232.795 108.89 233.36 108.305 233.11 107.41Z" fill="#EBEBEB"/>
<path d="M208.33 118.315L205.225 107.35L216.19 104.245L219.295 115.21L208.33 118.315ZM205.83 107.695L208.66 117.695L218.66 114.86L215.825 104.86L205.83 107.695Z" fill="#EBEBEB"/>
<path d="M206.835 121.285C206.51 121.155 208.085 116.47 210.96 111.11C213.835 105.75 216.855 101.83 217.135 102.03C217.415 102.23 214.935 106.425 212.135 111.725C209.335 117.025 207.175 121.425 206.835 121.285Z" fill="#E0E0E0"/>
<path d="M221.54 116.88C221.305 117.175 217.28 114.3 212.07 111.17C206.86 108.04 202.45 105.795 202.6 105.45C202.75 105.105 207.46 106.855 212.74 110.055C218.02 113.255 221.76 116.615 221.54 116.88Z" fill="#E0E0E0"/>
<path d="M233.625 215.5C233.625 215.57 184.55 215.63 124.035 215.63C63.52 215.63 14.43 215.545 14.43 215.5C14.43 215.455 63.495 215.37 124.035 215.37C184.575 215.37 233.625 215.4 233.625 215.5Z" fill="black"/>
<path d="M169.2 38.615H40.795V168.875H169.2V38.615Z" fill="white"/>
<path d="M169.2 168.875C169.2 168.875 169.2 168.815 169.2 168.715C169.2 168.615 169.2 168.455 169.2 168.255C169.2 167.85 169.2 167.255 169.2 166.455C169.2 164.865 169.2 162.52 169.175 159.455C169.175 153.335 169.14 144.365 169.115 132.955C169.09 110.17 169.05 77.6301 169 38.6151L169.225 38.84L40.835 38.875L41.095 38.6151C41.095 86.3501 41.095 131.065 41.06 168.87L40.835 168.65L133.865 168.76L159.97 168.82L166.86 168.845H168.635H169.085H169.24H168.66H166.91L160.06 168.87L134.01 168.93L40.835 169.04H40.61V168.815C40.61 131.01 40.61 86.3151 40.575 38.5601V38.3H40.85L169.24 38.335H169.47V38.5601C169.42 77.6351 169.38 110.22 169.355 133.06C169.325 144.45 169.305 153.4 169.295 159.51C169.295 162.55 169.295 164.885 169.265 166.465C169.265 167.245 169.265 167.84 169.265 168.24V168.685C169.251 168.751 169.229 168.814 169.2 168.875Z" fill="#263238"/>
<path d="M50.875 59.8601V63.3151H50.23V60.4001H49.5V59.8601H50.875Z" fill="black"/>
<path d="M51.54 62.94C51.54 62.8868 51.5505 62.8342 51.5709 62.785C51.5912 62.7359 51.6211 62.6913 51.6587 62.6537C51.6963 62.616 51.7409 62.5862 51.7901 62.5659C51.8392 62.5455 51.8919 62.535 51.945 62.535C51.9982 62.535 52.0509 62.5455 52.1 62.5659C52.1492 62.5862 52.1938 62.616 52.2314 62.6537C52.269 62.6913 52.2989 62.7359 52.3192 62.785C52.3396 62.8342 52.35 62.8868 52.35 62.94C52.35 62.9932 52.3396 63.0459 52.3192 63.095C52.2989 63.1442 52.269 63.1888 52.2314 63.2264C52.1938 63.264 52.1492 63.2939 52.1 63.3142C52.0509 63.3346 51.9982 63.345 51.945 63.345C51.8919 63.345 51.8392 63.3346 51.7901 63.3142C51.7409 63.2939 51.6963 63.264 51.6587 63.2264C51.6211 63.1888 51.5912 63.1442 51.5709 63.095C51.5505 63.0459 51.54 62.9932 51.54 62.94Z" fill="black"/>
<path d="M93.93 45.8951C93.9131 45.524 94.0076 45.1564 94.2014 44.8396C94.3951 44.5227 94.6794 44.2712 95.0174 44.1173C95.3554 43.9634 95.7318 43.9142 96.098 43.9761C96.4642 44.038 96.8035 44.208 97.0722 44.4645C97.3409 44.7209 97.5267 45.0519 97.6056 45.4148C97.6845 45.7777 97.653 46.156 97.5151 46.5008C97.3771 46.8457 97.1391 47.1413 96.8317 47.3497C96.5242 47.5581 96.1615 47.6697 95.79 47.6701C95.5497 47.6823 95.3094 47.6454 95.0838 47.5616C94.8583 47.4779 94.6521 47.349 94.478 47.1829C94.304 47.0167 94.1656 46.8168 94.0714 46.5954C93.9771 46.374 93.9291 46.1357 93.93 45.8951ZM97.005 45.8951C97.005 45.6548 96.9338 45.4199 96.8003 45.2201C96.6668 45.0202 96.477 44.8645 96.255 44.7726C96.033 44.6806 95.7887 44.6565 95.553 44.7034C95.3173 44.7503 95.1008 44.866 94.9309 45.0359C94.761 45.2059 94.6453 45.4224 94.5984 45.658C94.5515 45.8937 94.5756 46.138 94.6675 46.36C94.7595 46.582 94.9152 46.7718 95.115 46.9053C95.3148 47.0388 95.5497 47.1101 95.79 47.1101C95.9505 47.1142 96.1101 47.0856 96.2591 47.0259C96.4081 46.9663 96.5434 46.8769 96.6567 46.7631C96.7699 46.6494 96.8588 46.5138 96.9179 46.3645C96.9769 46.2152 97.0049 46.0555 97 45.8951H97.005Z" fill="black"/>
<path d="M101.4 44.17V47.625H100.875L98.97 45.285V47.625H98.33V44.17H98.86L100.765 46.5V44.17H101.4Z" fill="black"/>
<path d="M102.33 44.17H102.97V47.08H104.78V47.625H102.33V44.17Z" fill="black"/>
<path d="M105.285 44.17H105.925V47.625H105.285V44.17Z" fill="black"/>
<path d="M109.93 44.17V47.625H109.4L107.5 45.285V47.625H106.865V44.17H107.395L109.295 46.5V44.17H109.93Z" fill="black"/>
<path d="M113.45 47.085V47.625H110.855V44.17H113.355V44.705H111.5V45.605H113.17V46.13H111.5V47.085H113.45Z" fill="black"/>
<path d="M116.225 44.71H115.08V44.17H118V44.71H116.855V47.625H116.21L116.225 44.71Z" fill="black"/>
<path d="M121.09 47.085V47.625H118.5V44.17H121V44.705H119.12V45.605H120.785V46.13H119.12V47.085H121.09Z" fill="black"/>
<path d="M121.5 47.26L121.725 46.76C122.055 47.0051 122.454 47.1382 122.865 47.14C123.405 47.14 123.63 46.945 123.63 46.69C123.63 45.945 121.575 46.435 121.575 45.15C121.575 44.59 122.02 44.12 122.97 44.12C123.374 44.1125 123.773 44.2182 124.12 44.425L123.915 44.925C123.628 44.7509 123.3 44.656 122.965 44.65C122.43 44.65 122.215 44.86 122.215 45.12C122.215 45.855 124.26 45.375 124.26 46.645C124.26 47.2 123.81 47.645 122.865 47.645C122.38 47.6672 121.902 47.5321 121.5 47.26Z" fill="black"/>
<path d="M125.56 44.71H124.415V44.17H127.345V44.71H126.2V47.625H125.56V44.71Z" fill="black"/>
<path d="M66.875 75.04H65.145L64.805 75.84H64.145L65.7 72.385H66.33L67.89 75.84H67.22L66.875 75.04ZM66.66 74.54L66.01 73.04L65.365 74.54H66.66Z" fill="black"/>
<path d="M49.46 47.6201C50.236 47.6201 50.865 46.991 50.865 46.2151C50.865 45.4391 50.236 44.8101 49.46 44.8101C48.684 44.8101 48.055 45.4391 48.055 46.2151C48.055 46.991 48.684 47.6201 49.46 47.6201Z" fill="black"/>
<path d="M53.715 47.6201C54.491 47.6201 55.12 46.991 55.12 46.2151C55.12 45.4391 54.491 44.8101 53.715 44.8101C52.939 44.8101 52.31 45.4391 52.31 46.2151C52.31 46.991 52.939 47.6201 53.715 47.6201Z" fill="black"/>
<path d="M57.97 47.6201C58.746 47.6201 59.375 46.991 59.375 46.2151C59.375 45.4391 58.746 44.8101 57.97 44.8101C57.194 44.8101 56.565 45.4391 56.565 46.2151C56.565 46.991 57.194 47.6201 57.97 47.6201Z" fill="black"/>
<path d="M169.2 53.165C169.2 53.235 140.6 53.295 105.325 53.295C70.05 53.295 41.445 53.235 41.445 53.165C41.445 53.095 70.04 53.035 105.325 53.035C140.61 53.035 169.2 53.095 169.2 53.165Z" fill="black"/>
<path d="M155.16 62.8251C155.16 62.8951 132.895 62.9551 105.435 62.9551C77.975 62.9551 55.7 62.8951 55.7 62.8251C55.7 62.7551 77.965 62.6951 105.435 62.6951C132.905 62.6951 155.16 62.7501 155.16 62.8251Z" fill="black"/>
<path d="M94.08 66.2051C94.08 66.2751 85.58 66.3351 75.08 66.3351C64.58 66.3351 56.05 66.2751 56.05 66.2051C56.05 66.1351 64.55 66.0751 75.08 66.0751C85.61 66.0751 94.08 66.1301 94.08 66.2051Z" fill="black"/>
<path d="M61.5 76.3851H56.945V71.8301H61.5V76.3851ZM57.445 75.8851H61V72.3301H57.445V75.8851Z" fill="black"/>
<path d="M67.68 83.55C67.68 84.14 67.215 84.485 66.325 84.485H64.61V81.03H66.225C67.055 81.03 67.5 81.38 67.5 81.93C67.5052 82.0858 67.4661 82.2399 67.3874 82.3744C67.3086 82.5089 67.1934 82.6183 67.055 82.69C67.2409 82.7418 67.4039 82.8549 67.5174 83.0111C67.6309 83.1672 67.6882 83.3572 67.68 83.55ZM65.25 81.55V82.5H66.16C66.6 82.5 66.855 82.345 66.855 82.03C66.855 81.715 66.6 81.53 66.16 81.53L65.25 81.55ZM67.03 83.5C67.03 83.155 66.77 83 66.285 83H65.25V84H66.285C66.77 84 67.03 83.83 67.03 83.5Z" fill="black"/>
<path d="M61.5 85.035H56.945V80.5H61.5V85.035ZM57.445 84.535H61V81H57.445V84.535Z" fill="black"/>
<path d="M64.36 91.4051C64.3779 91.0398 64.5025 90.6878 64.7184 90.3927C64.9343 90.0975 65.232 89.8721 65.5747 89.7444C65.9174 89.6167 66.29 89.5923 66.6464 89.6742C67.0028 89.756 67.3274 89.9406 67.58 90.2051L67.165 90.5951C67.0486 90.4655 66.9059 90.3622 66.7464 90.2924C66.5868 90.2225 66.4141 90.1876 66.24 90.1901C65.9177 90.1901 65.6087 90.3181 65.3809 90.5459C65.153 90.7738 65.025 91.0828 65.025 91.4051C65.025 91.7273 65.153 92.0364 65.3809 92.2642C65.6087 92.4921 65.9177 92.6201 66.24 92.6201C66.4146 92.6225 66.5877 92.5872 66.7474 92.5164C66.9071 92.4456 67.0495 92.3411 67.165 92.2101L67.58 92.6051C67.3274 92.8695 67.0028 93.0541 66.6464 93.136C66.29 93.2178 65.9174 93.1934 65.5747 93.0657C65.232 92.938 64.9343 92.7126 64.7184 92.4175C64.5025 92.1223 64.3779 91.7703 64.36 91.4051Z" fill="black"/>
<path d="M61.5 93.68H56.945V89.125H61.5V93.68ZM57.445 93.18H61V89.625H57.445V93.18Z" fill="black"/>
<path d="M64.61 98.3251H66.11C67.23 98.3251 67.995 99.0151 67.995 100.05C67.995 101.085 67.23 101.78 66.11 101.78H64.61V98.3251ZM66.11 101.235C66.2717 101.246 66.4339 101.223 66.5865 101.168C66.7391 101.113 66.8789 101.028 66.9972 100.917C67.1155 100.806 67.2098 100.673 67.2742 100.524C67.3387 100.375 67.3719 100.215 67.3719 100.053C67.3719 99.8905 67.3387 99.7301 67.2742 99.5814C67.2098 99.4326 67.1155 99.2987 66.9972 99.1879C66.8789 99.077 66.7391 98.9917 66.5865 98.937C66.4339 98.8823 66.2717 98.8596 66.11 98.8701H65.25V101.235H66.11Z" fill="black"/>
<path d="M61.5 102.33H56.945V97.775H61.5V102.33ZM57.445 101.83H61V98.275H57.445V101.83Z" fill="black"/>
<path d="M105.43 74.1101C105.43 74.1801 97.93 74.2401 88.65 74.2401C79.37 74.2401 71.865 74.1801 71.865 74.1101C71.865 74.0401 79.365 73.9801 88.65 73.9801C97.935 73.9801 105.43 74.0351 105.43 74.1101Z" fill="black"/>
<path d="M151.63 82.755C151.63 82.83 133.77 82.885 111.75 82.885C89.73 82.885 71.865 82.83 71.865 82.755C71.865 82.68 89.72 82.625 111.75 82.625C133.78 82.625 151.63 82.685 151.63 82.755Z" fill="black"/>
<path d="M82.84 100.05C82.84 100.12 80.385 100.18 77.34 100.18C74.295 100.18 71.84 100.12 71.84 100.05C71.84 99.98 74.295 99.92 77.34 99.92C80.385 99.92 82.84 100 82.84 100.05Z" fill="black"/>
<path d="M111.745 91.405C111.745 91.475 102.82 91.535 91.805 91.535C80.79 91.535 71.865 91.475 71.865 91.405C71.865 91.335 80.79 91.275 91.805 91.275C102.82 91.275 111.745 91.33 111.745 91.405Z" fill="black"/>
<path d="M51 112.36V112.9H48.45V112.47L49.825 111.17C50.16 110.85 50.22 110.645 50.22 110.455C50.22 110.135 50 109.955 49.575 109.955C49.4219 109.947 49.2692 109.976 49.1292 110.038C48.9893 110.101 48.8662 110.196 48.77 110.315L48.32 109.97C48.4785 109.779 48.6795 109.627 48.9069 109.527C49.1344 109.428 49.382 109.382 49.63 109.395C50.38 109.395 50.865 109.775 50.865 110.395C50.8596 110.608 50.8054 110.817 50.7066 111.006C50.6078 111.195 50.467 111.359 50.295 111.485L49.37 112.365L51 112.36Z" fill="black"/>
<path d="M51.375 112.525C51.375 112.418 51.4177 112.315 51.4936 112.239C51.5696 112.163 51.6726 112.12 51.78 112.12C51.8874 112.12 51.9904 112.163 52.0664 112.239C52.1423 112.315 52.185 112.418 52.185 112.525C52.185 112.633 52.1423 112.736 52.0664 112.811C51.9904 112.887 51.8874 112.93 51.78 112.93C51.6726 112.93 51.5696 112.887 51.4936 112.811C51.4177 112.736 51.375 112.633 51.375 112.525Z" fill="black"/>
<path d="M65.665 124.625H63.94L63.6 125.425H62.935L64.49 121.97H65.125L66.685 125.425H66L65.665 124.625ZM65.455 124.125L64.805 122.625L64.155 124.125H65.455Z" fill="black"/>
<path d="M153.95 112.41C153.95 112.48 131.685 112.54 104.225 112.54C76.765 112.54 54.5 112.5 54.5 112.41C54.5 112.32 76.76 112.28 104.23 112.28C131.7 112.28 153.95 112.34 153.95 112.41Z" fill="black"/>
<path d="M92.875 115.79C92.875 115.86 84.375 115.92 73.845 115.92C63.315 115.92 54.815 115.86 54.815 115.79C54.815 115.72 63.315 115.66 73.845 115.66C84.375 115.66 92.875 115.715 92.875 115.79Z" fill="black"/>
<path d="M60.27 126H55.715V121.445H60.27V126ZM56.215 125.5H59.77V121.945H56.215V125.5Z" fill="black"/>
<path d="M66.47 133.135C66.47 133.725 66.005 134.07 65.12 134.07H63.4V130.615H65C65.83 130.615 66.275 130.965 66.275 131.515C66.279 131.671 66.2395 131.824 66.1609 131.958C66.0822 132.093 65.9676 132.202 65.83 132.275C66.0192 132.323 66.1861 132.435 66.3027 132.591C66.4192 132.748 66.4783 132.94 66.47 133.135ZM64.045 131.135V132.09H64.95C65.395 132.09 65.645 131.93 65.645 131.615C65.645 131.3 65.395 131.115 64.95 131.115L64.045 131.135ZM65.825 133.085C65.825 132.74 65.565 132.585 65.08 132.585H64.045V133.585H65.08C65.565 133.57 65.825 133.415 65.825 133.07V133.085Z" fill="black"/>
<path d="M60.27 134.62H55.715V130.065H60.27V134.62ZM56.215 134.12H59.77V130.565H56.215V134.12Z" fill="black"/>
<path d="M63.155 141C63.1526 140.76 63.1994 140.522 63.2926 140.3C63.3857 140.079 63.5231 139.879 63.6964 139.713C63.8697 139.547 64.0752 139.417 64.3003 139.334C64.5253 139.25 64.7651 139.213 65.005 139.225C65.2608 139.215 65.5158 139.261 65.7517 139.36C65.9877 139.459 66.1988 139.61 66.37 139.8L65.96 140.19C65.8432 140.061 65.7004 139.958 65.541 139.888C65.3815 139.818 65.2091 139.783 65.035 139.785C64.7128 139.785 64.4037 139.913 64.1759 140.141C63.948 140.369 63.82 140.678 63.82 141C63.82 141.322 63.948 141.631 64.1759 141.859C64.4037 142.087 64.7128 142.215 65.035 142.215C65.2096 142.217 65.3826 142.182 65.5422 142.111C65.7018 142.04 65.8443 141.936 65.96 141.805L66.37 142.2C66.1181 142.465 65.7938 142.65 65.4375 142.733C65.0811 142.815 64.7085 142.79 64.3659 142.663C64.0233 142.535 63.7259 142.309 63.5106 142.013C63.2953 141.718 63.1716 141.365 63.155 141Z" fill="black"/>
<path d="M60.27 143.265H55.715V138.71H60.27V143.265ZM56.215 142.765H59.77V139.21H56.215V142.765Z" fill="black"/>
<path d="M63.4 147.91H64.9C66.02 147.91 66.785 148.6 66.785 149.64C66.785 150.68 66.02 151.365 64.9 151.365H63.4V147.91ZM64.9 150.825C65.0648 150.84 65.2309 150.821 65.3878 150.768C65.5446 150.715 65.6888 150.631 65.811 150.519C65.9332 150.408 66.0309 150.272 66.0977 150.121C66.1645 149.969 66.199 149.805 66.199 149.64C66.199 149.475 66.1645 149.311 66.0977 149.16C66.0309 149.008 65.9332 148.872 65.811 148.761C65.6888 148.649 65.5446 148.565 65.3878 148.512C65.2309 148.459 65.0648 148.44 64.9 148.455H64.065V150.825H64.9Z" fill="black"/>
<path d="M60.27 151.915H55.715V147.36H60.27V151.915ZM56.215 151.415H59.77V147.86H56.215V151.415Z" fill="black"/>
<path d="M104.225 123.695C104.225 123.765 96.725 123.825 87.44 123.825C78.155 123.825 70.655 123.765 70.655 123.695C70.655 123.625 78.155 123.565 87.44 123.565C96.725 123.565 104.225 123.625 104.225 123.695Z" fill="black"/>
<path d="M150.42 132.34C150.42 132.415 132.565 132.47 110.54 132.47C88.515 132.47 70.655 132.415 70.655 132.34C70.655 132.265 88.51 132.21 110.54 132.21C132.57 132.21 150.42 132.27 150.42 132.34Z" fill="black"/>
<path d="M81.635 149.635C81.635 149.71 79.175 149.765 76.135 149.765C73.095 149.765 70.635 149.71 70.635 149.635C70.635 149.56 73.095 149.505 76.135 149.505C79.175 149.505 81.635 149.565 81.635 149.635Z" fill="black"/>
<path d="M110.54 141C110.54 141.07 101.61 141.13 90.6 141.13C79.59 141.13 70.655 141.07 70.655 141C70.655 140.93 79.585 140.87 90.6 140.87C101.615 140.87 110.54 140.915 110.54 141Z" fill="black"/>
<path d="M142.83 161.5H122.245C121.415 161.5 120.594 161.336 119.827 161.019C119.061 160.701 118.364 160.236 117.778 159.649C117.191 159.062 116.726 158.365 116.409 157.598C116.092 156.831 115.929 156.01 115.93 155.18C115.93 153.505 116.595 151.899 117.78 150.715C118.964 149.53 120.57 148.865 122.245 148.865H142.83C144.505 148.865 146.111 149.53 147.295 150.715C148.48 151.899 149.145 153.505 149.145 155.18C149.146 156.01 148.983 156.831 148.666 157.598C148.349 158.365 147.884 159.062 147.297 159.649C146.711 160.236 146.014 160.701 145.248 161.019C144.481 161.336 143.66 161.5 142.83 161.5Z" fill="#1F477A"/>
<path d="M127.385 153.68V157.115H126.73L125 155.03V157.115H124.215V153.68H124.87L126.575 155.765V153.68H127.385Z" fill="white"/>
<path d="M130.855 156.5V157.14H128.195V153.705H130.79V154.345H129V155.09H130.595V155.705H129V156.5H130.855Z" fill="white"/>
<path d="M133.615 157.115L132.785 155.925L131.97 157.115H131.06L132.33 155.37L131.125 153.68H132.025L132.815 154.795L133.59 153.68H134.45L133.25 155.34L134.535 157.115H133.615Z" fill="white"/>
<path d="M135.5 154.33H134.4V153.68H137.4V154.33H136.3V157.115H135.5V154.33Z" fill="white"/>
<path d="M141.745 156.855C141.703 156.854 141.662 156.844 141.626 156.824C141.589 156.804 141.558 156.775 141.535 156.74C141.499 156.685 141.486 156.618 141.499 156.553C141.512 156.488 141.55 156.432 141.605 156.395L143.2 155.33C143.225 155.314 143.246 155.292 143.26 155.266C143.274 155.239 143.281 155.21 143.28 155.18C143.28 155.15 143.272 155.12 143.257 155.094C143.242 155.068 143.221 155.046 143.195 155.03L141.615 154.095C141.559 154.061 141.519 154.006 141.504 153.942C141.488 153.878 141.498 153.811 141.531 153.755C141.565 153.698 141.619 153.657 141.682 153.641C141.746 153.624 141.813 153.633 141.87 153.665L143.45 154.595C143.549 154.654 143.631 154.738 143.689 154.837C143.747 154.937 143.779 155.049 143.782 155.164C143.785 155.279 143.759 155.393 143.706 155.496C143.653 155.598 143.576 155.686 143.48 155.75L141.885 156.81C141.844 156.838 141.795 156.854 141.745 156.855Z" fill="white"/>
<path d="M56.38 84.955C56.23 84.805 57.195 83.59 58.54 82.24C59.885 80.89 61.1 79.93 61.255 80.08C61.41 80.23 60.44 81.45 59.095 82.795C57.75 84.14 56.535 85.11 56.38 84.955Z" fill="#1F477A"/>
<path d="M62.085 85.43C61.935 85.585 60.64 84.535 59.195 83.09C57.75 81.645 56.695 80.355 56.855 80.2C57.015 80.045 58.305 81.095 59.745 82.54C61.185 83.985 62.24 85.28 62.085 85.43Z" fill="#1F477A"/>
<path d="M55.285 126.22C55.13 126.065 56.1 124.85 57.445 123.505C58.79 122.16 60.005 121.195 60.16 121.345C60.315 121.495 59.345 122.71 57.995 124.06C56.645 125.41 55.435 126.37 55.285 126.22Z" fill="#1F477A"/>
<path d="M61 126.695C60.845 126.845 59.555 125.8 58.11 124.355C56.665 122.91 55.61 121.615 55.77 121.465C55.93 121.315 57.215 122.36 58.66 123.805C60.105 125.25 61.14 126.54 61 126.695Z" fill="#1F477A"/>
<path d="M152.26 227.77L117.155 216.5C117.061 216.471 116.963 216.459 116.865 216.465L89.865 218.465C85.12 206.965 79.175 192.59 76.47 186.025C76.0193 184.949 75.2931 184.01 74.3644 183.304C73.4358 182.597 72.3375 182.147 71.18 182L41.94 178.18C41.5923 178.138 41.2397 178.188 40.9173 178.324C40.595 178.461 40.3142 178.68 40.1031 178.96C39.892 179.239 39.758 179.569 39.7144 179.917C39.6709 180.264 39.7194 180.617 39.855 180.94L56.32 219.335C56.538 219.844 56.8594 220.303 57.2639 220.682C57.6685 221.061 58.1473 221.351 58.67 221.535L92.115 234.88C92.8794 235.185 93.7076 235.295 94.525 235.2L96.665 234.965C104.075 234.19 140.665 230.465 152.11 229.265C152.291 229.256 152.463 229.182 152.595 229.056C152.726 228.931 152.809 228.763 152.827 228.582C152.845 228.401 152.798 228.22 152.694 228.071C152.59 227.922 152.436 227.815 152.26 227.77Z" fill="#E0E0E0"/>
<path d="M152.26 227.77C152.377 227.808 152.483 227.873 152.57 227.96C152.657 228.047 152.722 228.153 152.76 228.27C152.805 228.418 152.806 228.576 152.763 228.724C152.719 228.873 152.633 229.005 152.515 229.105C152.357 229.227 152.164 229.294 151.965 229.295L151.305 229.365L143.09 230.235L112.87 233.38L102.87 234.42L97.545 234.97L94.81 235.265C93.8628 235.413 92.8933 235.3 92.005 234.94L69.635 226.03L63.66 223.645L60.615 222.435L59.08 221.825C58.825 221.715 58.58 221.625 58.305 221.51C58.0433 221.394 57.7952 221.25 57.565 221.08C57.102 220.737 56.714 220.303 56.425 219.805C56.145 219.305 55.965 218.78 55.735 218.265L54.4 215.16C53.5033 213.08 52.6017 210.978 51.695 208.855C48.06 200.355 44.29 191.595 40.435 182.605L39.905 181.37C39.6809 180.959 39.5656 180.498 39.57 180.03C39.5988 179.553 39.7862 179.1 40.1024 178.742C40.4186 178.384 40.8455 178.142 41.315 178.055C41.43 178.03 41.55 178.055 41.67 178.02L42.015 178.045L42.675 178.135L43.99 178.305L46.61 178.645L56.95 180L67.05 181.32L69.55 181.645C70.375 181.77 71.2 181.825 72.05 182.02C73.6924 182.443 75.1183 183.463 76.05 184.88C76.4667 185.586 76.8165 186.329 77.095 187.1C77.4017 187.847 77.7083 188.59 78.015 189.33L79.83 193.735L83.37 202.315C85.68 207.925 87.905 213.315 90.02 218.445L89.91 218.375L116.22 216.43L116.95 216.375C117.082 216.374 117.212 216.397 117.335 216.445L117.68 216.56L119 217L121.66 217.855L126.675 219.5L135.525 222.355L147.9 226.355L151.15 227.42C151.885 227.66 152.26 227.79 152.26 227.79C152.26 227.79 151.88 227.68 151.14 227.45L147.88 226.42L135.5 222.45L126.645 219.62L121.595 218L118.935 217.15L117.57 216.715C117.355 216.627 117.13 216.568 116.9 216.54L116.17 216.595L89.865 218.595H89.79L89.755 218.52C87.635 213.395 85.41 208.02 83.09 202.4L79.545 193.82C78.945 192.367 78.3383 190.898 77.725 189.415C77.42 188.675 77.11 187.915 76.805 187.185C76.5306 186.43 76.1875 185.702 75.78 185.01C74.8871 183.649 73.5202 182.669 71.945 182.26C71.165 182.07 70.325 182.01 69.505 181.89L67.005 181.565L56.9 180.25L46.56 178.9L43.935 178.56L42.62 178.385C42.199 178.3 41.7683 178.273 41.34 178.305C40.9285 178.383 40.5546 178.596 40.2776 178.91C40.0005 179.224 39.836 179.622 39.81 180.04C39.8069 180.469 39.9155 180.891 40.125 181.265L40.67 182.5L51.925 208.755C52.835 210.875 53.735 212.977 54.625 215.06C55.075 216.1 55.515 217.135 55.96 218.165C56.185 218.665 56.38 219.215 56.64 219.665C56.9095 220.134 57.274 220.541 57.71 220.86C57.9263 221.02 58.1593 221.156 58.405 221.265C58.645 221.37 58.905 221.465 59.165 221.57L60.7 222.185L63.74 223.4L69.74 225.785L92.1 234.72C92.9542 235.07 93.8881 235.179 94.8 235.035L97.54 234.74L102.865 234.2L112.865 233.2L143.095 230.135L151.315 229.31L151.975 229.25C152.166 229.25 152.352 229.188 152.505 229.075C152.619 228.981 152.702 228.855 152.746 228.714C152.789 228.573 152.791 228.422 152.75 228.28C152.702 228.104 152.587 227.953 152.43 227.86C152.32 227.795 152.26 227.775 152.26 227.77Z" fill="#263238"/>
<path d="M107.08 220.82L120.245 226.33L136.65 224.62L122.855 218.925L107.08 220.82Z" fill="#F5F5F5"/>
<path d="M97.155 231.235L122.855 228.915L98.315 219.185L90.425 219.78L94.595 229.84L97.155 231.235Z" fill="#F5F5F5"/>
<path d="M149.715 227.755L149.54 227.785L149.015 227.85L147.015 228.055L139.585 228.78L115.085 231.065L95.825 232.805H95.745L95.715 232.73L91.45 222.325L90.28 219.415C90.15 219.082 90.05 218.827 89.98 218.65C89.9434 218.562 89.9117 218.472 89.885 218.38C89.885 218.38 89.93 218.465 90.01 218.635L90.34 219.39L91.565 222.275C92.615 224.775 94.115 228.35 95.915 232.65L95.805 232.58L115.06 230.795L139.585 228.585L147 227.955L149 227.795L149.525 227.76L149.715 227.755Z" fill="black"/>
<path d="M40.705 179.57H40.925L41.575 179.645L44.075 179.97L53.245 181.22C57.115 181.76 61.745 182.41 66.84 183.165L70.76 183.77L71.76 183.94C71.925 183.965 72.1 184.005 72.26 184.045C72.345 184.045 72.435 184.08 72.52 184.105C72.9417 184.274 73.3245 184.528 73.645 184.85C73.7749 184.988 73.8783 185.149 73.95 185.325L74.145 185.825C75.19 188.435 76.27 191.14 77.38 193.905C81.8 204.98 85.795 215.01 88.695 222.28C90.13 225.905 91.29 228.845 92.1 230.885C92.49 231.885 92.795 232.685 93.01 233.235C93.11 233.495 93.185 233.695 93.24 233.845C93.2684 233.913 93.2918 233.983 93.31 234.055C93.2748 233.99 93.243 233.923 93.215 233.855L92.96 233.25L92.005 230.925C91.18 228.885 90.005 225.96 88.505 222.345L77.165 194C76.055 191.235 74.975 188.53 73.93 185.92L73.735 185.42C73.6748 185.272 73.5884 185.137 73.48 185.02C73.2564 184.777 72.986 184.581 72.685 184.445C72.6102 184.409 72.5334 184.377 72.455 184.35L72.215 184.29C72.055 184.255 71.895 184.22 71.715 184.195L70.715 184.02L66.795 183.405L53.215 181.405L44.055 180.07L41.555 179.7L40.91 179.595L40.705 179.57Z" fill="black"/>
<path d="M66.55 202.555C67.8 204.23 68.05 206.155 67.115 206.855C66.18 207.555 64.4 206.77 63.15 205.095C61.9 203.42 61.65 201.5 62.585 200.795C63.52 200.09 65.3 200.885 66.55 202.555Z" fill="white"/>
<path d="M224.74 174C223.065 164.5 212.56 158.775 209.09 155.615L214.305 162.59C216.974 173.598 217.985 184.943 217.305 196.25C217.235 197.485 217.37 199.15 218.25 199.325C218.568 199.351 218.884 199.253 219.13 199.05C222.21 197.075 224.21 192.55 224.655 187.89C225.1 183.23 225.5 178.395 224.74 174Z" fill="#1F477A"/>
<path d="M217.05 163.36C216.55 162.405 216.755 159.36 214.05 162.54L213.875 161.35L197.16 148.5L159.905 150.435C156.33 150.66 150.96 156.85 149.62 159.435C148.52 169.05 148.3 177.585 148.3 177.585C148.3 177.585 147.02 188.275 148.3 193.33C149.58 198.385 151.095 200.21 153.075 204.14C154.524 206.825 156.33 209.301 158.445 211.5L160.185 225L199.105 228.5L216.92 227.5C216.92 227.5 215.325 200.875 215.325 200.405C215.325 200.185 217.55 195.045 219.94 189.59C224 180.255 221.71 172.37 217.05 163.36Z" fill="#455A64"/>
<path d="M119.31 211.785C119.505 211.785 121.45 198.64 122.725 195.655C123.925 192.84 149.62 159.43 149.62 159.43L155.67 178.93L153.075 189.36L139.075 206.205L135.12 218.415L119.31 211.785Z" fill="#455A64"/>
<path d="M222.23 173.35C220.385 161.655 211.275 162.165 211.275 162.165L202.22 177.92V210.5L158.535 214.28L157.725 225.25C157.725 225.25 201.25 235.2 211.305 231.865C217.96 229.66 223.58 224.095 224.195 215C224.81 205.905 224.08 185.05 222.23 173.35Z" fill="#455A64"/>
<path d="M139.12 206.185C138.993 205.44 138.826 204.702 138.62 203.975C138.072 202.228 137.083 200.652 135.748 199.398C134.413 198.145 132.778 197.257 131 196.82C130.261 196.654 129.513 196.527 128.76 196.44C128.966 196.415 129.174 196.415 129.38 196.44C129.941 196.463 130.498 196.537 131.045 196.66C132.87 197.064 134.551 197.954 135.911 199.236C137.271 200.517 138.259 202.143 138.77 203.94C138.927 204.479 139.035 205.031 139.09 205.59C139.125 205.786 139.135 205.986 139.12 206.185Z" fill="black"/>
<path d="M160.03 213.83C160.092 213.813 160.156 213.802 160.22 213.795L160.775 213.715L162.915 213.43L170.8 212.43L196.8 209.27L202.58 208.58L202.465 208.705C202.8 199.845 202.965 192.035 202.905 186.44C202.905 183.645 202.845 181.4 202.81 179.855C202.81 179.095 202.775 178.5 202.765 178.085V177.625C202.765 177.52 202.765 177.47 202.765 177.465C202.77 177.518 202.77 177.572 202.765 177.625C202.765 177.74 202.765 177.89 202.795 178.08C202.795 178.5 202.845 179.08 202.88 179.855C202.945 181.395 203.015 183.64 203.055 186.44C203.145 192.035 203.025 199.855 202.7 208.71V208.82H202.59L196.81 209.515L170.785 212.6L162.895 213.505L160.745 213.735L160.185 213.79L160.03 213.83Z" fill="black"/>
<path d="M224.79 213.83C224.797 213.897 224.797 213.964 224.79 214.03C224.79 214.17 224.79 214.365 224.76 214.61C224.715 215.356 224.63 216.098 224.505 216.835C224.309 218.004 224.023 219.155 223.65 220.28C223.139 221.766 222.455 223.186 221.61 224.51C220.582 226.123 219.285 227.547 217.775 228.72C216.04 230.067 214.034 231.024 211.895 231.525C210.743 231.802 209.574 231.997 208.395 232.11C207.168 232.22 205.937 232.267 204.705 232.25C202.123 232.198 199.547 231.957 197 231.53L182.245 229.105L175.81 228.035L170.205 227C166.79 226.36 164.02 225.875 162.1 225.585L159.885 225.26L159.31 225.18C159.244 225.174 159.178 225.161 159.115 225.14H159.31L159.89 225.2C160.39 225.255 161.15 225.34 162.115 225.475C164.04 225.735 166.815 226.195 170.24 226.81L175.835 227.81L182.275 228.855L197.03 231.265C199.569 231.697 202.135 231.943 204.71 232C205.96 232 207.18 231.965 208.375 231.87C209.54 231.763 210.697 231.572 211.835 231.3C213.947 230.811 215.928 229.874 217.645 228.55C219.141 227.398 220.429 226 221.455 224.415C222.301 223.107 222.99 221.704 223.51 220.235C223.892 219.122 224.191 217.982 224.405 216.825C224.57 215.87 224.67 215.12 224.705 214.61L224.765 214.03C224.769 213.963 224.777 213.896 224.79 213.83Z" fill="black"/>
<path d="M158.85 214.635C158.83 214.568 158.816 214.5 158.81 214.43C158.785 214.275 158.75 214.07 158.715 213.82C158.635 213.26 158.52 212.48 158.38 211.49V211.525L155.07 207.86C154.425 206.94 153.842 205.978 153.325 204.98C152.747 203.844 152.236 202.675 151.795 201.48C150.819 198.778 150.149 195.976 149.795 193.125C149.446 190.039 149.374 186.929 149.58 183.83C149.735 180.98 150.03 178.42 150.31 176.28C150.59 174.14 150.855 172.415 151.045 171.22L151.27 169.85C151.295 169.705 151.315 169.59 151.335 169.495C151.339 169.454 151.349 169.413 151.365 169.375C151.369 169.415 151.369 169.455 151.365 169.495C151.365 169.595 151.365 169.71 151.325 169.855C151.28 170.195 151.225 170.655 151.15 171.235C150.99 172.43 150.755 174.16 150.495 176.305C150.235 178.45 150 181 149.845 183.85C149.654 186.933 149.731 190.026 150.075 193.095C150.423 195.928 151.081 198.715 152.035 201.405C152.467 202.588 152.968 203.745 153.535 204.87C154.041 205.862 154.611 206.821 155.24 207.74L158.505 211.45L158.775 213.785C158.8 214.04 158.82 214.245 158.84 214.4C158.857 214.477 158.861 214.557 158.85 214.635Z" fill="black"/>
<path d="M208.875 215.85C208.545 215.484 208.243 215.095 207.97 214.685C207.425 213.95 206.66 212.95 205.765 211.885C204.87 210.82 204.025 209.885 203.4 209.225C203.041 208.883 202.707 208.515 202.4 208.125C202.807 208.407 203.182 208.733 203.52 209.095C204.379 209.924 205.192 210.801 205.955 211.72C206.723 212.633 207.442 213.586 208.11 214.575C208.407 214.973 208.664 215.4 208.875 215.85Z" fill="black"/>
<path d="M130 213.39C129.63 211.255 127.685 209.59 127.685 209.59C127.685 209.59 126.755 206.99 125.365 206.305C123.975 205.62 122.865 206.99 121.655 206.62C120.445 206.25 117.85 206.155 117.015 206.62C116.18 207.085 115.16 209.68 115.16 209.68C114.318 209.714 113.495 209.936 112.75 210.33C112.119 210.656 111.573 211.125 111.155 211.7C110.793 211.559 110.396 211.531 110.017 211.62C109.639 211.71 109.296 211.912 109.035 212.2C108.528 212.793 108.148 213.484 107.92 214.23L107.26 216C107.133 216.27 107.074 216.567 107.09 216.865C107.141 217.11 107.273 217.331 107.466 217.491C107.659 217.65 107.9 217.74 108.15 217.745C108.404 217.746 108.656 217.694 108.888 217.591C109.121 217.489 109.329 217.339 109.5 217.15C109.84 216.814 110.141 216.44 110.395 216.035L110.56 217.195C110.56 217.195 110.835 219.03 112.32 219.14C113.345 219.22 114.455 218.03 114.455 218.03L117.05 217.75L117.42 220.345C117.591 220.845 117.918 221.277 118.352 221.578C118.787 221.879 119.307 222.032 119.835 222.015C120.765 222.015 121.965 220.44 121.965 220.44L124.38 221.365C124.38 221.365 127.16 223.315 128.46 222.665C128.824 222.481 129.114 222.179 129.283 221.808C129.452 221.437 129.489 221.02 129.39 220.625C129.945 219.996 130.384 219.273 130.685 218.49C131.035 217.38 130.39 215.525 130 213.39Z" fill="#FFBE9D"/>
<path d="M110.5 216.75C110.394 215.832 110.426 214.904 110.595 213.995C110.682 213.076 110.908 212.176 111.265 211.325C111.335 211.325 111.06 212.54 110.85 214.035C110.64 215.53 110.595 216.75 110.5 216.75Z" fill="#EB996E"/>
<path d="M114.555 214.31C114.713 214.941 114.787 215.59 114.775 216.24C114.828 216.71 114.78 217.185 114.635 217.635C114.49 217.985 114.285 218.135 114.27 218.095C114.255 218.055 114.375 217.9 114.46 217.595C114.546 217.159 114.564 216.712 114.515 216.27C114.439 215.618 114.452 214.959 114.555 214.31Z" fill="#EB996E"/>
<path d="M116.285 213.205C116.335 213.255 115.995 213.705 115.52 214.165C115.045 214.625 114.625 214.995 114.57 214.945C114.515 214.895 114.86 214.445 115.335 213.985C115.81 213.525 116.235 213.155 116.285 213.205Z" fill="#EB996E"/>
<path d="M116.63 208.215C116.686 208.683 116.706 209.154 116.69 209.625C116.69 210.5 116.725 211.7 116.795 213.025C116.865 214.35 116.97 215.55 117.045 216.42C117.116 216.887 117.146 217.358 117.135 217.83C116.997 217.377 116.906 216.912 116.865 216.44C116.74 215.575 116.61 214.375 116.535 213.04C116.46 211.705 116.47 210.5 116.505 209.625C116.498 209.152 116.54 208.679 116.63 208.215Z" fill="#EB996E"/>
<path d="M126.36 209.21C126.36 209.21 126.25 209.46 126.075 209.91C125.831 210.547 125.637 211.203 125.495 211.87C125.405 212.3 125.31 212.765 125.205 213.26C125.106 213.802 124.958 214.334 124.765 214.85C124.549 215.433 124.186 215.95 123.71 216.35C123.45 216.575 123.141 216.736 122.807 216.818C122.473 216.901 122.125 216.903 121.79 216.825C121.442 216.747 121.127 216.561 120.89 216.295C120.671 216.031 120.531 215.71 120.485 215.37C120.414 214.763 120.402 214.15 120.45 213.54C120.507 212.517 120.664 211.502 120.92 210.51C121.092 209.842 121.312 209.186 121.58 208.55C121.675 208.325 121.75 208.155 121.81 208.05C121.836 207.989 121.869 207.932 121.91 207.88C121.848 208.123 121.769 208.362 121.675 208.595C121.445 209.238 121.253 209.895 121.1 210.56C120.873 211.546 120.735 212.55 120.69 213.56C120.65 214.15 120.665 214.743 120.735 215.33C120.776 215.624 120.897 215.901 121.085 216.13C121.289 216.354 121.555 216.511 121.85 216.58C122.147 216.648 122.456 216.646 122.751 216.572C123.046 216.498 123.32 216.355 123.55 216.155C123.996 215.78 124.34 215.299 124.55 214.755C124.864 213.792 125.123 212.812 125.325 211.82C125.482 211.149 125.703 210.494 125.985 209.865C126.063 209.693 126.151 209.526 126.25 209.365C126.31 209.26 126.35 209.205 126.36 209.21Z" fill="#EB996E"/>
<path d="M127.34 210.335C127.27 210.89 127.025 211.407 126.641 211.814C126.258 212.22 125.755 212.493 125.205 212.595C125.643 212.306 126.059 211.985 126.45 211.635C126.779 211.224 127.076 210.79 127.34 210.335Z" fill="#EB996E"/>
<path d="M121.97 216.8C122.134 217.494 122.176 218.211 122.095 218.92C122.068 219.551 121.98 220.177 121.83 220.79V220.825C121.811 220.835 121.791 220.84 121.77 220.841C121.748 220.841 121.728 220.837 121.708 220.828C121.689 220.82 121.672 220.807 121.658 220.791C121.645 220.774 121.635 220.755 121.63 220.735C121.63 220.685 121.63 220.665 121.63 220.665C121.63 220.665 121.63 220.69 121.665 220.71C121.7 220.73 121.735 220.75 121.75 220.71L121.72 220.75C121.72 220.41 121.795 219.7 121.84 218.88C121.834 218.185 121.878 217.489 121.97 216.8Z" fill="#EB996E"/>
<path d="M127.855 214.73C127.662 215.048 127.434 215.343 127.175 215.61C126.602 216.277 126.099 217 125.675 217.77C125.253 218.539 125.013 219.394 124.975 220.27C124.975 220.945 125.09 221.355 125.045 221.365C124.87 221.027 124.782 220.651 124.79 220.27C124.775 219.353 125.001 218.448 125.445 217.645C125.886 216.856 126.43 216.129 127.065 215.485C127.295 215.201 127.561 214.947 127.855 214.73Z" fill="#EB996E"/>
<path d="M126.83 219.34C126.674 218.778 126.7 218.181 126.905 217.634C127.11 217.088 127.483 216.621 127.97 216.3C129.715 215.06 134.94 211.8 135.05 211.8C135.16 211.8 141.185 209.8 143.72 209.54C146.255 209.28 157.35 214.79 157.35 214.79C157.35 214.79 159.925 218.5 159.51 222.06C159.095 225.62 156.775 225.825 156.775 225.825L153.555 225.04L150.235 224.405C150.235 224.405 142.89 226.45 141.735 226.075C140.58 225.7 140.18 224.445 141.43 223.765C142.68 223.085 146.275 222.02 146.275 222.02L149.04 220.85L140.04 222.135C140.04 222.135 132.43 223.635 131.54 223.425C130.65 223.215 130.515 222.55 130.44 221.925C130.44 221.925 127.375 223.425 126.465 222.605C125.555 221.785 125.155 220 126.83 219.34Z" fill="#FFBE9D"/>
<path d="M146.255 217.15C146.032 217.186 145.806 217.198 145.58 217.185C145.15 217.185 144.525 217.185 143.755 217.235C142.857 217.276 141.965 217.401 141.09 217.61C140.574 217.741 140.072 217.921 139.59 218.145C139.09 218.375 138.59 218.645 138.09 218.945C137.58 219.237 137.048 219.489 136.5 219.7C135.987 219.889 135.45 220.006 134.905 220.045C134.007 220.045 133.111 220.146 132.235 220.345C131.663 220.527 131.158 220.875 130.785 221.345C130.659 221.528 130.547 221.72 130.45 221.92C130.45 221.92 130.45 221.855 130.48 221.745C130.532 221.584 130.606 221.431 130.7 221.29C131.06 220.771 131.577 220.38 132.175 220.175C133.06 219.944 133.97 219.821 134.885 219.81C135.974 219.683 137.019 219.312 137.945 218.725C138.445 218.44 138.945 218.15 139.475 217.915C139.969 217.69 140.483 217.512 141.01 217.385C141.9 217.177 142.811 217.068 143.725 217.06C144.505 217.06 145.13 217.06 145.565 217.09C145.796 217.088 146.027 217.109 146.255 217.15Z" fill="#EB996E"/>
<path d="M143.535 213.355C143.483 213.389 143.428 213.418 143.37 213.44C143.265 213.49 143.1 213.555 142.87 213.63C142.256 213.819 141.63 213.963 140.995 214.06C140.2 214.2 139.24 214.305 138.22 214.56C137.121 214.892 136.065 215.354 135.075 215.935C133.23 216.962 131.303 217.835 129.315 218.545C128.555 218.815 127.93 219.015 127.495 219.145C127.274 219.225 127.047 219.284 126.815 219.32C127.022 219.209 127.24 219.119 127.465 219.05L129.25 218.37C131.209 217.615 133.114 216.724 134.95 215.705C135.959 215.114 137.037 214.651 138.16 214.325C139.087 214.116 140.025 213.959 140.97 213.855C141.599 213.775 142.224 213.66 142.84 213.51C143.069 213.446 143.301 213.394 143.535 213.355Z" fill="#EB996E"/>
<path d="M150.84 215.5C150.774 215.305 150.725 215.104 150.695 214.9C150.576 214.432 150.345 214.001 150.023 213.641C149.701 213.282 149.297 213.005 148.845 212.835C148.646 212.782 148.452 212.711 148.265 212.625C148.265 212.595 148.515 212.565 148.905 212.66C149.412 212.797 149.868 213.076 150.22 213.465C150.569 213.857 150.797 214.341 150.875 214.86C150.927 215.072 150.915 215.295 150.84 215.5Z" fill="#EB996E"/>
<path d="M155 221.115C154.991 220.834 154.966 220.553 154.925 220.275C154.754 219.625 154.371 219.051 153.835 218.645C153.284 218.245 152.675 217.929 152.03 217.71C151.749 217.636 151.48 217.523 151.23 217.375C151.522 217.379 151.811 217.433 152.085 217.535C152.775 217.712 153.425 218.019 154 218.44C154.583 218.88 154.978 219.525 155.105 220.245C155.178 220.538 155.14 220.848 155 221.115Z" fill="#EB996E"/>
<path d="M130.47 221.915C130.343 222.028 130.195 222.117 130.035 222.175C129.617 222.372 129.186 222.539 128.745 222.675C128.441 222.781 128.13 222.866 127.815 222.93C127.434 222.98 127.048 222.941 126.685 222.815C126.48 222.74 126.293 222.623 126.137 222.471C125.98 222.32 125.857 222.137 125.775 221.935C125.568 221.524 125.485 221.062 125.535 220.605C125.587 220.26 125.765 219.946 126.035 219.725C126.265 219.523 126.522 219.354 126.8 219.225L126.735 219.375C126.531 218.755 126.578 218.081 126.865 217.495C127.103 217.056 127.424 216.667 127.81 216.35C128.058 216.144 128.322 215.958 128.6 215.795C128.696 215.726 128.802 215.674 128.915 215.64C128.94 215.675 128.51 215.925 127.915 216.465C127.564 216.786 127.272 217.167 127.055 217.59C126.808 218.13 126.78 218.744 126.975 219.305L127.005 219.4L126.91 219.45C126.44 219.695 125.875 220.055 125.82 220.645C125.778 221.052 125.851 221.462 126.03 221.83C126.096 222.003 126.198 222.16 126.329 222.291C126.46 222.422 126.617 222.524 126.79 222.59C127.11 222.707 127.451 222.752 127.79 222.72C128.097 222.665 128.401 222.593 128.7 222.505C129.255 222.35 129.7 222.195 130 222.085C130.15 222.012 130.308 221.955 130.47 221.915Z" fill="#EB996E"/>
<path d="M157.88 92C158.373 89.3575 159.559 86.8934 161.318 84.8605C163.076 82.8275 165.344 81.2986 167.888 80.4306C170.432 79.5626 173.161 79.3866 175.795 79.9207C178.43 80.4547 180.875 81.6797 182.88 83.47C184.505 84.925 185.835 86.74 187.715 87.845C189.84 89.09 190.115 88.67 192.455 89.425C194.795 90.18 199.38 96.29 199.455 98.75L201.275 109.45C201.335 111.975 198.185 113.6 195.745 112.95C193.305 112.3 191.585 110.145 190.185 108.035C188.785 105.925 187.455 103.64 185.3 102.315C181.725 100.12 177.135 101.24 173.085 102.315C169.035 103.39 164.33 104.315 160.96 101.815C158.08 99.64 157.22 95.54 157.88 92Z" fill="#263238"/>
<path d="M156.59 107.5C156.59 100.46 160.735 91.575 167.765 91.895L189.915 96.095C190.946 96.1406 191.922 96.572 192.65 97.3036C193.378 98.0353 193.805 99.0137 193.845 100.045L194.68 152.795H194.83C194.83 152.795 187.135 172.145 172.435 168.515C169.52 167.795 171.675 160.54 170.905 157.36L170.76 157.39C170.73 157.005 170.705 156.65 170.675 156.285C170.245 153.905 170.065 151.487 170.14 149.07C169.835 144.825 169.73 143.07 169.73 143.125C169.73 143.18 160.68 142.175 158.12 130.6C156.85 124.87 156.565 115.325 156.59 107.5Z" fill="#FFBE9D"/>
<path d="M160.5 116.71C160.519 117.101 160.691 117.469 160.978 117.735C161.264 118.001 161.644 118.145 162.035 118.135C162.227 118.139 162.417 118.105 162.596 118.034C162.774 117.963 162.936 117.857 163.073 117.722C163.209 117.587 163.318 117.426 163.391 117.249C163.464 117.072 163.501 116.882 163.5 116.69C163.481 116.299 163.309 115.931 163.022 115.665C162.736 115.399 162.356 115.255 161.965 115.265C161.773 115.261 161.583 115.295 161.404 115.366C161.226 115.437 161.064 115.543 160.927 115.678C160.791 115.813 160.683 115.973 160.609 116.151C160.536 116.328 160.499 116.518 160.5 116.71Z" fill="#263238"/>
<path d="M158.955 112.335C159.15 112.52 160.235 111.61 161.85 111.52C163.465 111.43 164.695 112.16 164.85 111.955C164.935 111.86 164.72 111.52 164.185 111.175C163.457 110.732 162.61 110.526 161.76 110.585C160.929 110.644 160.138 110.965 159.5 111.5C159 111.89 158.855 112.255 158.955 112.335Z" fill="#263238"/>
<path d="M175.05 115.895C175.069 116.286 175.241 116.654 175.528 116.92C175.814 117.186 176.194 117.33 176.585 117.32C176.777 117.324 176.967 117.29 177.146 117.219C177.324 117.148 177.486 117.042 177.623 116.907C177.759 116.772 177.868 116.612 177.941 116.434C178.014 116.257 178.051 116.067 178.05 115.875C178.031 115.482 177.857 115.111 177.567 114.845C177.277 114.578 176.894 114.436 176.5 114.45C176.309 114.448 176.12 114.484 175.944 114.556C175.767 114.628 175.607 114.734 175.472 114.868C175.337 115.003 175.23 115.163 175.158 115.339C175.085 115.516 175.049 115.704 175.05 115.895Z" fill="#263238"/>
<path d="M174.83 111.685C175.025 111.865 176.11 110.96 177.725 110.865C179.34 110.77 180.57 111.51 180.725 111.3C180.805 111.205 180.6 110.865 180.06 110.52C179.331 110.079 178.485 109.873 177.635 109.93C176.797 109.981 175.995 110.294 175.345 110.825C174.88 111.235 174.73 111.6 174.83 111.685Z" fill="#263238"/>
<path d="M169.695 124C169.695 123.905 168.695 123.795 167.045 123.685C166.63 123.685 166.235 123.605 166.15 123.33C166.09 122.906 166.159 122.474 166.35 122.09C166.68 121.09 167.02 120.005 167.38 118.885C168.805 114.315 169.805 110.57 169.62 110.515C169.435 110.46 168.12 114.115 166.71 118.68L165.735 121.91C165.504 122.421 165.463 122.997 165.62 123.535C165.688 123.678 165.788 123.803 165.912 123.901C166.036 123.999 166.18 124.067 166.335 124.1C166.567 124.148 166.804 124.167 167.04 124.155C168.68 124.145 169.695 124.09 169.695 124Z" fill="#263238"/>
<path d="M169.73 143.155C175.238 142.905 180.569 141.133 185.13 138.035C185.13 138.035 181.67 146.41 169.91 146.035L169.73 143.155Z" fill="#EB996E"/>
<path d="M170.61 127.845C170.893 127.44 171.275 127.114 171.719 126.897C172.164 126.681 172.656 126.582 173.15 126.61C173.508 126.619 173.86 126.701 174.185 126.85C174.51 127 174.801 127.214 175.04 127.48C175.272 127.736 175.42 128.056 175.464 128.399C175.508 128.741 175.445 129.089 175.285 129.395C175.044 129.7 174.717 129.927 174.346 130.045C173.976 130.163 173.579 130.169 173.205 130.06C172.426 129.836 171.7 129.459 171.07 128.95C170.876 128.834 170.706 128.681 170.57 128.5C170.505 128.415 170.468 128.312 170.461 128.205C170.455 128.099 170.481 127.992 170.535 127.9" fill="#EB996E"/>
<path d="M174.5 124.83C174.235 124.83 174.335 126.58 172.915 127.91C171.495 129.24 169.615 129.165 169.615 129.41C169.615 129.52 170.05 129.725 170.84 129.7C171.867 129.654 172.844 129.246 173.6 128.55C174.325 127.881 174.761 126.955 174.815 125.97C174.85 125.235 174.625 124.81 174.5 124.83Z" fill="#263238"/>
<path d="M174.055 105.57C174.24 106 175.84 105.695 177.745 105.81C179.65 105.925 181.215 106.345 181.44 105.935C181.54 105.74 181.25 105.345 180.61 104.935C179.754 104.464 178.803 104.194 177.827 104.145C176.852 104.097 175.878 104.271 174.98 104.655C174.305 105 174 105.365 174.055 105.57Z" fill="#263238"/>
<path d="M159.265 107.63C159.57 107.98 160.66 107.535 161.995 107.435C163.33 107.335 164.495 107.535 164.715 107.135C164.82 106.94 164.62 106.585 164.1 106.27C163.412 105.892 162.626 105.728 161.844 105.8C161.062 105.871 160.319 106.174 159.71 106.67C159.26 107.075 159.13 107.46 159.265 107.63Z" fill="#263238"/>
<path d="M167.965 88.8851L168.875 87.5551C175.674 87.9074 182.394 89.1824 188.85 91.3451C191.43 92.2101 194.05 93.2751 195.9 95.2701C198.45 98.01 199.075 101.97 199.575 105.68C201.485 119.795 203.245 134.35 199.625 148.13C198.445 146.47 196.295 145.825 194.275 145.56C192.255 145.295 190.15 145.305 188.275 144.49C187.257 144.024 186.347 143.35 185.605 142.511C184.863 141.672 184.304 140.687 183.965 139.62C183.297 137.466 183.409 135.145 184.28 133.065C185.225 130.75 187.02 128.46 186.395 126.065C185.74 123.53 182.705 122.245 181.855 119.77C180.39 115.49 186.255 111.2 184.75 106.935C184.19 105.36 182.72 104.28 181.18 103.63C179.64 102.98 177.98 102.665 176.425 102.06C173.839 100.989 171.643 99.1528 170.131 96.7978C168.619 94.4429 167.863 91.6818 167.965 88.8851Z" fill="#263238"/>
<path d="M206.195 95.5767C203.5 97.5 208.5 86 170.5 79L161.5 83C161.5 91 182.766 108.302 183.118 112C177.618 118.5 183.618 125 186.618 126.5C183.802 131.184 184.066 133.796 179.223 136.999C174.381 140.202 163.599 144.23 158 142.153L165.81 145.942L184.464 146.002L206.195 146.077C206.195 146.077 208.735 144.145 210.969 139.161C216.573 126.676 215.557 106.951 206.195 95.5767Z" fill="#1F477A"/>
<path d="M215.96 162.23C215.96 162.23 211.91 153.92 206.625 149.35C201.34 144.78 198.095 144.825 190.555 145.465C183.015 146.105 172.465 147.295 169.965 146.66L169.73 143.16C168.49 143.035 163.405 140.56 162.415 139.065C160.525 141 159.7 143.065 160.13 145.26L158.895 145.725C157.073 146.392 155.561 147.706 154.646 149.416C153.731 151.127 153.478 153.115 153.935 155C154.405 156.8 155.54 157.905 157.82 158.3C166.87 159.865 191.065 153.325 198.35 153.3C205.635 153.275 215.96 162.23 215.96 162.23Z" fill="#1F477A"/>
<path d="M157.323 158.642C157.323 158.642 157.336 156.383 160.878 151.55C166.597 143.385 158.421 125.911 156.875 119.5C156.875 119.5 160.136 99.9196 160.878 97.5001L162.867 95.0001C163.119 93.7834 167.047 92.11 168.102 91.2604C167.185 89.2205 166.038 88.2235 164.635 88.4576L164.525 87.1944C164.374 85.3326 163.784 83.7203 162.867 82.6653C172.493 79.999 160.669 84.6555 159.451 84.9435C158.284 85.2517 157.439 86.5143 156.875 88.737C154.639 97.5596 150.682 117.097 154.317 125.592C153.303 132.807 157.323 158.642 157.323 158.642Z" fill="#1F477A"/>
<path d="M157 158.205C157.212 158.199 157.425 158.211 157.635 158.24C158.045 158.28 158.635 158.345 159.43 158.4C161.636 158.572 163.85 158.609 166.06 158.51C169.334 158.342 172.589 157.9 175.79 157.19C177.6 156.795 179.485 156.315 181.42 155.755L187.39 153.91C191.485 152.665 195.59 151.815 199.345 152.185C202.653 152.488 205.855 153.512 208.725 155.185C210.652 156.314 212.394 157.732 213.89 159.39C214.297 159.838 214.677 160.309 215.03 160.8C215.161 160.958 215.279 161.125 215.385 161.3C215.227 161.16 215.086 161.002 214.965 160.83C214.71 160.505 214.305 160.05 213.77 159.48C209.954 155.484 204.814 153.013 199.31 152.53C195.63 152.19 191.59 153.03 187.51 154.27C185.465 154.885 183.48 155.54 181.535 156.105C179.59 156.67 177.695 157.14 175.87 157.525C172.646 158.225 169.367 158.64 166.07 158.765C163.849 158.839 161.625 158.757 159.415 158.52C158.635 158.44 158.03 158.35 157.625 158.285C157.415 158.276 157.206 158.25 157 158.205Z" fill="#263238"/>
<path d="M216.395 159.5C207.265 147.63 189.76 143.095 176.01 149.035L161.51 152.11C157.685 152.77 151.55 154.015 151.26 157.56C150.995 161.314 151.812 165.066 153.615 168.37C156.985 174.24 155.155 182.105 158.525 187.975C160.115 190.75 161.74 193.565 164.06 195.77C166.38 197.975 169.53 199.52 172.71 199.175C176.25 198.795 179.15 196.21 181.4 193.45C186.245 187.505 189.27 180.285 193.805 174.105C198.34 167.925 203.69 163.375 213.22 162.79C214.95 162.68 219.885 164.985 219.885 164.985C220.025 164.285 216.83 160.055 216.395 159.5Z" fill="#1F477A"/>
<g opacity="0.3">
<path d="M196.88 152.44C190.575 152.44 184.38 155.47 178.27 156.82C153.69 162.23 153.69 152.96 153.69 152.96C152.92 157.315 157.01 159.315 161.315 160.315C169.535 162.215 178.315 163.235 184.245 161.34C189.025 159.84 194.015 158.725 198.84 157.34C203.665 155.955 210.615 156.485 214.27 159.915C211 154.54 203.185 152.425 196.88 152.44Z" fill="black"/>
</g>
<g opacity="0.3">
<path d="M164.935 151.775C165.229 152.419 165.658 152.992 166.193 153.455C166.727 153.918 167.356 154.261 168.035 154.46C169.396 154.852 170.822 154.975 172.23 154.82C177.37 154.47 182.31 152.755 187.175 151.055C183.285 150.92 179.52 152.275 175.705 153.055C171.89 153.835 167.59 153.885 164.49 151.555" fill="black"/>
</g>
<path d="M217.63 163.305C217.63 163.305 217.585 163.27 217.515 163.195L217.21 162.845C216.945 162.53 216.54 162.09 216.005 161.53C214.499 159.946 212.678 158.694 210.66 157.855C209.252 157.324 207.772 157.003 206.27 156.905C204.548 156.765 202.815 156.821 201.105 157.07C197.475 157.57 193.64 158.845 189.57 160.005C185.5 161.165 181.615 162.375 177.92 162.57C174.662 162.71 171.4 162.477 168.195 161.875C165.465 161.375 163.29 160.795 161.785 160.42L160.055 159.98L159.61 159.86L159.455 159.81C159.508 159.802 159.562 159.802 159.615 159.81L160.07 159.905L161.81 160.3C163.31 160.645 165.5 161.19 168.23 161.67C171.421 162.246 174.666 162.461 177.905 162.31C181.56 162.105 185.45 160.95 189.5 159.735C193.55 158.52 197.41 157.295 201.07 156.81C202.799 156.566 204.55 156.519 206.29 156.67C208.156 156.777 209.981 157.254 211.661 158.073C213.341 158.892 214.841 160.036 216.075 161.44C216.605 162.015 217 162.465 217.25 162.79L217.535 163.155L217.63 163.305Z" fill="black"/>
<path d="M208.45 151.075C208.412 151.05 208.377 151.022 208.345 150.99L208.055 150.725C207.81 150.485 207.425 150.15 206.925 149.725C205.485 148.561 203.906 147.58 202.225 146.805C199.73 145.662 197.077 144.9 194.355 144.545C191.019 144.131 187.644 144.139 184.31 144.57C180.973 145.011 177.662 145.629 174.39 146.42C172.945 146.76 171.456 146.878 169.975 146.77C168.673 146.673 167.422 146.22 166.36 145.46C165.508 144.813 164.779 144.017 164.21 143.11C163.781 142.434 163.408 141.723 163.095 140.985C162.84 140.38 162.67 139.895 162.56 139.565L162.445 139.19C162.428 139.149 162.418 139.105 162.415 139.06C162.415 139.06 162.44 139.1 162.47 139.18C162.5 139.26 162.555 139.4 162.61 139.55C162.735 139.87 162.92 140.345 163.19 140.945C163.516 141.669 163.899 142.366 164.335 143.03C164.905 143.911 165.628 144.684 166.47 145.31C167.512 146.038 168.732 146.468 170 146.555C171.457 146.65 172.92 146.525 174.34 146.185C177.616 145.377 180.934 144.753 184.28 144.315C187.636 143.882 191.034 143.882 194.39 144.315C197.132 144.687 199.801 145.474 202.305 146.65C203.991 147.44 205.567 148.449 206.99 149.65C207.376 149.978 207.745 150.325 208.095 150.69L208.365 150.97C208.425 151.04 208.455 151.07 208.45 151.075Z" fill="black"/>
<path d="M205.5 150.83H205.375L205.005 150.77L203.58 150.535C201.834 150.266 200.075 150.088 198.31 150C195.691 149.871 193.066 149.955 190.46 150.25C187.272 150.678 184.113 151.297 181 152.105C177.68 152.905 174.45 153.605 171.455 153.56C170.041 153.569 168.632 153.401 167.26 153.06C166.064 152.722 164.957 152.122 164.02 151.305C162.675 150.13 161.583 148.694 160.81 147.085C160.516 146.502 160.283 145.891 160.115 145.26C160.139 145.295 160.157 145.334 160.17 145.375L160.305 145.725C160.43 146.035 160.62 146.48 160.9 147.035C161.699 148.61 162.8 150.014 164.14 151.165C165.063 151.951 166.146 152.527 167.315 152.85C168.67 153.18 170.061 153.339 171.455 153.325C174.415 153.325 177.62 152.66 180.955 151.855C184.08 151.041 187.253 150.423 190.455 150.005C193.073 149.723 195.711 149.658 198.34 149.81C200.11 149.913 201.873 150.118 203.62 150.425C204.24 150.54 204.715 150.635 205.04 150.71L205.405 150.795C205.465 150.81 205.5 150.825 205.5 150.83Z" fill="black"/>
<path d="M205.96 128.39C205.915 128.674 205.852 128.955 205.77 129.23C205.692 129.559 205.595 129.882 205.48 130.2C205.35 130.575 205.225 131.005 205.025 131.46C204.825 131.915 204.63 132.425 204.365 132.96C204.1 133.495 203.805 134.03 203.48 134.605C202.02 137.063 200.12 139.23 197.875 141C197.35 141.4 196.875 141.785 196.375 142.095C195.875 142.405 195.425 142.7 194.99 142.945C194.555 143.19 194.155 143.39 193.805 143.565C193.505 143.722 193.196 143.861 192.88 143.98C192.62 144.1 192.35 144.2 192.075 144.28C192.319 144.129 192.575 143.999 192.84 143.89C193.09 143.775 193.395 143.63 193.74 143.435C194.085 143.24 194.485 143.055 194.9 142.785C195.315 142.515 195.785 142.255 196.255 141.915C196.725 141.575 197.22 141.21 197.755 140.815C199.957 139.038 201.835 136.893 203.305 134.475C203.63 133.91 203.95 133.38 204.2 132.86C204.45 132.34 204.7 131.86 204.885 131.4C205.07 130.94 205.23 130.53 205.385 130.165C205.54 129.8 205.63 129.475 205.71 129.215C205.77 128.933 205.853 128.657 205.96 128.39Z" fill="black"/>
<path d="M205.205 158.195C205.069 158.195 204.934 158.183 204.8 158.16L204.3 158.095C204.11 158.07 203.885 158.095 203.64 158.06C202.226 158.026 200.817 158.244 199.48 158.705C198.558 159.022 197.66 159.406 196.795 159.855C195.804 160.377 194.841 160.951 193.91 161.575C191.94 162.89 189.88 164.5 187.67 166.125L176.39 174.5L172.945 177L172 177.65C171.895 177.735 171.781 177.809 171.66 177.87C171.755 177.776 171.857 177.689 171.965 177.61L172.88 176.9L176.275 174.325L187.525 165.915C189.735 164.295 191.795 162.685 193.79 161.375C194.73 160.751 195.703 160.179 196.705 159.66C197.586 159.216 198.498 158.839 199.435 158.53C200.794 158.08 202.225 157.887 203.655 157.96C203.905 157.96 204.13 157.985 204.32 158.015L204.82 158.105C204.951 158.124 205.08 158.154 205.205 158.195Z" fill="black"/>
<path d="M221.34 173.525C221.243 173.298 221.169 173.062 221.12 172.82C221 172.365 220.83 171.7 220.59 170.89C220.32 169.94 219.977 169.012 219.565 168.115C219.064 167.023 218.379 166.025 217.54 165.165C216.706 164.302 215.662 163.669 214.51 163.33C213.562 163.076 212.577 162.99 211.6 163.075C210.695 163.177 209.797 163.33 208.91 163.535C208.964 163.499 209.023 163.472 209.085 163.455C209.205 163.41 209.38 163.35 209.585 163.285C210.238 163.091 210.907 162.961 211.585 162.895C212.589 162.778 213.606 162.847 214.585 163.1C215.782 163.439 216.869 164.087 217.735 164.98C218.596 165.862 219.293 166.889 219.795 168.015C220.205 168.928 220.539 169.873 220.795 170.84C221.01 171.66 221.155 172.34 221.245 172.8C221.298 173.038 221.329 173.281 221.34 173.525Z" fill="black"/>
<path d="M212.47 80.2064C222.301 79.7496 229.9 71.4097 229.444 61.5785C228.987 51.7474 220.647 44.148 210.816 44.6048C200.985 45.0615 193.385 53.4015 193.842 63.2326C194.299 73.0637 202.639 80.6631 212.47 80.2064Z" fill="white"/>
<path d="M201.73 83C201.895 82.9536 202.062 82.9152 202.23 82.885C202.711 82.8254 203.199 82.918 203.625 83.15C203.918 83.3025 204.174 83.5176 204.375 83.78C204.598 84.085 204.728 84.4478 204.75 84.825C204.797 85.2587 204.71 85.6964 204.5 86.0791C204.291 86.4618 203.969 86.7712 203.579 86.9657C203.188 87.1601 202.748 87.2302 202.316 87.1666C201.885 87.1031 201.483 86.9088 201.165 86.61C200.879 86.3653 200.667 86.0446 200.555 85.685C200.463 85.3599 200.444 85.0183 200.5 84.685C200.574 84.2052 200.794 83.7599 201.13 83.41C201.37 83.165 201.545 83.08 201.535 83.065C201.491 83.0786 201.448 83.0988 201.41 83.125C201.359 83.151 201.311 83.1811 201.265 83.215C201.202 83.2615 201.142 83.3116 201.085 83.365C200.777 83.6598 200.553 84.0319 200.437 84.4425C200.321 84.8531 200.317 85.2873 200.425 85.7C200.536 86.0888 200.758 86.4365 201.065 86.7C201.399 86.9968 201.81 87.1943 202.25 87.27C202.724 87.37 203.218 87.3069 203.652 87.0909C204.086 86.8749 204.434 86.5187 204.64 86.08C204.843 85.682 204.933 85.2357 204.9 84.79C204.873 84.3859 204.729 83.9985 204.485 83.675C204.272 83.3965 203.996 83.1721 203.68 83.02C203.231 82.7879 202.718 82.7089 202.22 82.795C202.143 82.8062 202.068 82.8246 201.995 82.85C201.938 82.8645 201.883 82.8846 201.83 82.91C201.77 82.965 201.725 83 201.73 83Z" fill="#263238"/>
<path d="M196.805 72.545L196.66 72.29L196.22 71.56C196.125 71.395 196.015 71.215 195.895 71.02C195.775 70.825 195.685 70.585 195.565 70.335C195.445 70.085 195.32 69.835 195.185 69.535C195.111 69.3902 195.049 69.2397 195 69.085C194.945 68.925 194.885 68.765 194.825 68.585C194.219 66.9631 193.864 65.2587 193.77 63.53C193.632 61.2405 193.934 58.9457 194.66 56.77L194.975 55.86C195.1 55.555 195.245 55.26 195.38 54.955C195.445 54.805 195.515 54.655 195.585 54.5C195.649 54.3437 195.726 54.1931 195.815 54.05L196.315 53.155C196.4 53.005 196.485 52.855 196.575 52.705L196.885 52.275L197.51 51.405C197.725 51.12 197.98 50.855 198.22 50.575L198.585 50.16C198.645 50.095 198.705 50.02 198.77 49.955L198.975 49.765C199.511 49.2261 200.084 48.7249 200.69 48.265C201 48.04 201.3 47.765 201.63 47.57L202.63 46.955C202.8 46.855 202.965 46.74 203.13 46.65L203.675 46.39C204.04 46.22 204.4 46.03 204.775 45.89C205.546 45.5833 206.336 45.3261 207.14 45.12L207.75 44.965L208.06 44.89L208.375 44.845L209.64 44.655C210.07 44.61 210.5 44.6 210.935 44.575C211.15 44.575 211.37 44.54 211.59 44.575L212.245 44.605C213.132 44.6375 214.015 44.7294 214.89 44.88L216.205 45.195L216.535 45.275C216.645 45.305 216.75 45.345 216.86 45.38L217.505 45.605L218.155 45.825L218.785 46.105L219.415 46.395L219.73 46.535C219.835 46.59 219.93 46.65 220.035 46.71L221.245 47.405L222.395 48.225C225.481 50.5377 227.728 53.7942 228.795 57.5C228.915 57.955 229.03 58.415 229.145 58.865L229.355 60.25L229.405 60.595V60.94L229.44 61.63L229.475 62.32L229.445 63.005L229.415 63.69V64.03L229.37 64.365C229.305 64.815 229.245 65.26 229.185 65.705C229.008 66.5765 228.772 67.4351 228.48 68.275L228.27 68.895C228.2 69.105 228.095 69.295 228.01 69.495C227.825 69.89 227.665 70.29 227.465 70.67C227.265 71.05 227.04 71.415 226.83 71.785L226.67 72.06C226.61 72.15 226.545 72.235 226.485 72.32L226.12 72.82C225.637 73.4936 225.111 74.135 224.545 74.74C224.26 75.035 223.955 75.3 223.665 75.58L223.22 75.99C223.075 76.125 222.905 76.24 222.75 76.36L221.81 77.08C221.49 77.305 221.145 77.495 220.81 77.7C220.169 78.0996 219.501 78.4538 218.81 78.76L218.56 78.88L218.3 78.98L217.8 79.165C217.45 79.285 217.115 79.43 216.77 79.53L215.73 79.795L215.23 79.925L214.73 80.005L213.73 80.16C213.565 80.189 213.398 80.2057 213.23 80.21H212.73C212.4 80.21 212.07 80.255 211.73 80.26L210.765 80.22C208.474 80.1073 206.226 79.5539 204.145 78.59C203.915 78.485 203.685 78.39 203.465 78.285L202.845 77.925L202.245 77.585C202.145 77.525 202.045 77.475 201.955 77.415L201.69 77.225L200.69 76.505C200.375 76.265 200.105 76.005 199.83 75.775L199.44 75.435C199.315 75.331 199.196 75.2191 199.085 75.1L198.41 74.5C198.225 74.3 198.045 74.12 197.91 73.945L197.525 73.445L197.025 72.77C196.91 72.62 196.845 72.545 196.845 72.545L197.015 72.78C197.13 72.94 197.3 73.165 197.515 73.465L197.89 73.965C198.04 74.145 198.22 74.325 198.39 74.525L198.99 75.18C199.1 75.302 199.218 75.4157 199.345 75.52L199.735 75.865C200.005 76.095 200.275 76.365 200.59 76.6L201.59 77.33L201.855 77.52C201.95 77.585 202.05 77.635 202.145 77.695L202.745 78.04L203.37 78.405L204.05 78.715C206.14 79.6934 208.4 80.2571 210.705 80.375L211.675 80.42C212 80.42 212.335 80.39 212.675 80.375L213.175 80.345C213.343 80.3444 213.51 80.3293 213.675 80.3L214.7 80.145L215.2 80.065L215.7 79.935L216.75 79.67C217.095 79.57 217.435 79.43 217.785 79.31L218.31 79.12C218.395 79.085 218.485 79.06 218.57 79.02L218.825 78.9C219.527 78.5918 220.207 78.236 220.86 77.835C221.19 77.63 221.535 77.44 221.86 77.215L222.81 76.49C222.97 76.365 223.135 76.255 223.31 76.12L223.755 75.705C224.045 75.425 224.36 75.155 224.645 74.86C225.216 74.25 225.747 73.6036 226.235 72.925C226.355 72.75 226.48 72.58 226.605 72.425C226.665 72.34 226.73 72.255 226.79 72.165L226.95 71.885L227.595 70.765C227.795 70.38 227.96 69.975 228.145 69.58C228.23 69.375 228.34 69.18 228.41 68.975L228.62 68.345C228.916 67.4991 229.153 66.6337 229.33 65.755C229.395 65.31 229.46 64.855 229.52 64.405L229.57 64.065V63.72L229.6 63.035L229.63 62.34L229.595 61.645L229.555 60.95V60.595L229.5 60.25L229.29 58.855C229.175 58.395 229.06 57.935 228.94 57.475C227.885 53.7256 225.63 50.4254 222.52 48.08L221.36 47.25L220.135 46.55C220.035 46.49 219.935 46.43 219.83 46.375L219.51 46.23L218.875 45.94L218.24 45.66L217.585 45.435L216.93 45.21L216.605 45.1L216.27 45.025C215.83 44.915 215.385 44.81 214.945 44.71C214.063 44.5552 213.17 44.4617 212.275 44.43L211.615 44.4C211.395 44.4 211.175 44.4 210.955 44.4C210.515 44.43 210.08 44.435 209.65 44.48L208.37 44.675L208.055 44.725C207.95 44.725 207.845 44.775 207.745 44.8L207.125 44.96C206.315 45.1648 205.52 45.4237 204.745 45.735C204.365 45.895 204 46.09 203.63 46.26L203.085 46.525C202.905 46.615 202.74 46.73 202.585 46.835L201.585 47.455C201.255 47.675 200.95 47.93 200.64 48.16C200.03 48.62 199.452 49.1211 198.91 49.66L198.705 49.855C198.64 49.92 198.58 49.995 198.52 50.065C198.46 50.135 198.275 50.345 198.15 50.48C197.91 50.765 197.65 51.03 197.44 51.315L196.81 52.195L196.5 52.63C196.41 52.78 196.325 52.935 196.24 53.085L195.74 53.985C195.653 54.1305 195.578 54.2826 195.515 54.44L195.305 54.9C195.17 55.205 195.025 55.505 194.905 55.81C194.785 56.115 194.695 56.425 194.59 56.73C193.865 58.9195 193.569 61.2285 193.72 63.53C193.82 65.2672 194.186 66.9789 194.805 68.605L194.985 69.105C195.034 69.2598 195.096 69.4102 195.17 69.555L195.56 70.355C195.685 70.6 195.785 70.83 195.9 71.035L196.23 71.57L196.685 72.295C196.745 72.46 196.805 72.545 196.805 72.545Z" fill="#263238"/>
<path d="M202.645 62.855L205.285 60.215L210.375 64.74L220.365 55.125L222.815 57.765L210 69.83L202.645 62.855Z" fill="#1F477A"/>
</svg>
