<svg width="76" height="130" viewBox="0 0 76 130" fill="none" xmlns="http://www.w3.org/2000/svg">
<path d="M44.5252 113.696C44.4749 113.601 44.4132 113.509 44.3404 113.42C44.1883 113.225 43.9927 112.969 43.7427 112.632C43.0142 111.614 42.4288 110.558 41.9931 109.477C40.5898 105.46 40.638 101.301 42.1343 97.2976C43.0689 94.5227 44.2885 91.7874 45.7858 89.1087C47.329 86.2086 49.133 83.1268 50.5892 79.7961C52.2495 76.3176 53.0519 72.7039 52.9692 69.0771C52.7409 65.2888 50.9369 61.5073 48.9373 57.7391C46.9377 53.971 44.8947 50.2837 44.2752 46.5761C43.5813 43.0131 44.7223 39.4054 47.5355 36.2676C50.1762 33.2599 53.4908 30.6828 55.9794 28.0182C58.2961 25.5463 60.0065 22.8749 61.0545 20.0917C62.5462 16.0548 62.6536 11.8691 61.3696 7.80491C60.9125 6.31987 60.2209 4.8662 59.3048 3.46484C59.3308 3.56329 59.3708 3.66012 59.4244 3.75418C59.5331 3.96277 59.6635 4.23866 59.8482 4.58856C60.3657 5.65523 60.7937 6.73778 61.1306 7.83183C62.3153 11.8746 62.1414 16.0251 60.6198 20.0244C59.5603 22.7777 57.8424 25.4176 55.523 27.8567C53.0452 30.4876 49.7198 33.0513 47.0247 36.0927C44.1205 39.2893 42.9295 42.9741 43.6232 46.6165C44.2426 50.3846 46.3074 54.0989 48.2962 57.8603C50.2849 61.6216 52.078 65.3696 52.3062 69.0906C52.3958 72.6772 51.6155 76.2519 49.9915 79.6951C48.5461 83.0124 46.7312 86.0942 45.2424 89.0078C43.7565 91.7014 42.5585 94.4527 41.6562 97.2438C39.9826 102.371 40.4608 106.704 41.7105 109.517C42.1786 110.6 42.8042 111.654 43.5797 112.666L44.2426 113.44C44.3213 113.531 44.4161 113.617 44.5252 113.696Z" fill="#263238"/>
<path d="M38.5271 110.055C38.5623 109.961 38.6057 109.869 38.6567 109.78C38.7635 109.585 38.9008 109.33 39.0762 108.994C39.5874 107.977 39.9982 106.923 40.3039 105.843C41.2887 101.833 41.2548 97.6807 40.2048 93.6834C39.549 90.9129 38.6932 88.182 37.6424 85.5076C36.5595 82.6121 35.2936 79.5352 34.2717 76.2098C33.1066 72.7369 32.5435 69.1289 32.6016 65.5079C32.7617 61.7256 34.0277 57.95 35.4309 54.1879C36.8341 50.4258 38.2678 46.7443 38.7025 43.0427C39.1894 39.4853 38.3887 35.8834 36.4146 32.7506C34.5615 29.7476 32.2355 27.1746 30.4891 24.5142C28.8634 22.0463 27.6632 19.3792 26.9277 16.6004C25.8809 12.5699 25.8056 8.39085 26.7066 4.33316C27.0274 2.85048 27.5127 1.39912 28.1555 0C28.1373 0.0982928 28.1093 0.194961 28.0716 0.288872C27.9954 0.497132 27.9039 0.772587 27.7742 1.12193C27.4111 2.18691 27.1107 3.26772 26.8743 4.36004C26.043 8.39634 26.165 12.5403 27.2328 16.5332C27.9762 19.2822 29.1818 21.9179 30.8094 24.353C32.5482 26.9798 34.8818 29.5394 36.773 32.5759C38.811 35.7674 39.6468 39.4463 39.16 43.083C38.7253 46.8451 37.2764 50.5535 35.8808 54.3088C34.4852 58.0643 33.2269 61.8062 33.0668 65.5213C33.0039 69.1022 33.5515 72.6712 34.6911 76.109C35.7054 79.421 36.979 82.4979 38.0237 85.4068C39.0665 88.0962 39.9072 90.8431 40.5404 93.6297C41.7148 98.7489 41.3792 103.075 40.5022 105.883C40.1737 106.964 39.7347 108.017 39.1905 109.028L38.7253 109.8C38.6701 109.891 38.6036 109.977 38.5271 110.055Z" fill="#263238"/>
<path d="M52.656 30.6245C52.656 30.6245 57.6985 20.639 48.646 14.7917C48.5759 14.7441 48.4856 14.7096 48.3854 14.6923C48.2852 14.675 48.1791 14.6755 48.0793 14.6937C47.9796 14.712 47.8901 14.7473 47.8212 14.7955C47.7523 14.8438 47.7067 14.9031 47.6896 14.9666C47.2115 16.6152 46.6029 21.6348 52.656 30.6245Z" fill="#90CAF9"/>
<path d="M49.6328 18.1484C49.6414 18.7686 49.7543 19.3865 49.9697 19.9921C50.2957 21.2639 50.6869 22.7509 51.1216 24.3995C51.5563 26.048 51.9258 27.5351 52.2084 28.8001C52.2882 29.4173 52.4666 30.0281 52.7409 30.6236C52.8289 30.0044 52.796 29.3808 52.6431 28.7664C52.4801 27.6293 52.154 26.0749 51.6976 24.3322C51.2412 22.5894 50.763 21.062 50.3609 19.945C50.2238 19.3316 49.9797 18.7292 49.6328 18.1484Z" fill="#263238"/>
<path d="M46.7328 54.1692C46.7328 54.1692 43.6465 43.8877 31.2359 41.3374C31.1382 41.3178 31.0337 41.315 30.9336 41.3294C30.8335 41.3437 30.7416 41.3747 30.6678 41.419C30.594 41.4633 30.5412 41.5192 30.5149 41.5807C30.4886 41.6422 30.4899 41.707 30.5187 41.7681C31.3337 43.3628 34.5939 47.9788 46.7328 54.1692Z" fill="#90CAF9"/>
<path d="M34.6133 43.9922C35.0909 44.5349 35.6552 45.0466 36.2977 45.5196L40.6447 49.0791C42.2639 50.4249 43.7202 51.6226 44.9916 52.6454C45.5396 53.1636 46.1577 53.6521 46.8391 54.1055C46.4484 53.5338 45.9524 52.992 45.3612 52.4906C44.3505 51.5284 42.8725 50.2365 41.1663 48.8436C39.4601 47.4508 37.9061 46.2261 36.6781 45.3514C36.0723 44.8529 35.3799 44.3971 34.6133 43.9922Z" fill="#263238"/>
<path d="M50.0766 79.9736C50.0766 79.9736 51.9566 69.5776 41.2739 64.9079C41.1897 64.871 41.0908 64.8491 40.9879 64.8446C40.885 64.8401 40.7821 64.8531 40.6903 64.8822C40.5985 64.9113 40.5213 64.9555 40.4671 65.0098C40.4129 65.0641 40.3837 65.1266 40.3828 65.1905C40.4154 66.8659 41.3718 71.8654 50.0766 79.9736Z" fill="#90CAF9"/>
<path d="M34.861 76.2592C34.861 76.2592 33.6128 66.1367 40.7052 61.5898C40.7612 61.5539 40.8268 61.5326 40.8951 61.5282C40.9635 61.5238 41.0318 61.5365 41.0927 61.5648C41.1537 61.5932 41.2049 61.6361 41.2409 61.689C41.2769 61.7419 41.2963 61.8028 41.2969 61.8649C41.2752 63.4963 40.6403 68.3643 34.861 76.2592Z" fill="#90CAF9"/>
<path d="M43.2656 68.0547C43.4622 68.663 43.7647 69.2563 44.1676 69.8243C44.8849 71.0288 45.7217 72.4486 46.6454 74.0096C47.5691 75.5707 48.4059 76.9905 49.1123 78.2017C49.3857 78.7959 49.7496 79.3726 50.199 79.9242C50.0989 79.3063 49.8763 78.6984 49.5361 78.1142C49.0254 77.0174 48.2212 75.5102 47.2431 73.8751C46.265 72.24 45.3087 70.7731 44.5806 69.7234C44.2414 69.1393 43.8005 68.5797 43.2656 68.0547Z" fill="#263238"/>
<path d="M40.7338 105.933C40.7338 105.933 42.0053 95.4967 31.0619 91.0691C30.9764 91.0324 30.8759 91.0112 30.7719 91.0082C30.6679 91.0051 30.5647 91.0203 30.4739 91.0519C30.3832 91.0835 30.3087 91.1302 30.2589 91.1868C30.2091 91.2435 30.1861 91.3076 30.1924 91.3719C30.3228 93.0407 31.5617 98.0199 40.7338 105.933Z" fill="#90CAF9"/>
<path d="M33.1914 94.1836C33.4386 94.7852 33.777 95.3709 34.2021 95.9331C34.9845 97.1241 35.9083 98.5169 36.9298 100.058C37.9513 101.599 38.8533 103.005 39.6358 104.189C39.9345 104.781 40.3315 105.351 40.8203 105.892C40.6765 105.276 40.4175 104.673 40.0487 104.095C39.4728 103.012 38.5816 101.525 37.5058 99.9098C36.4299 98.2949 35.3975 96.8549 34.6042 95.8187C34.2386 95.2412 33.7645 94.6924 33.1914 94.1836Z" fill="#263238"/>
<path d="M59.9023 21.8497C59.9023 21.8497 74.8777 17.005 75.1711 8.91024C75.1728 8.84633 75.1461 8.78336 75.094 8.72816C75.042 8.67296 74.9665 8.62764 74.8758 8.59713C74.7851 8.56662 74.6826 8.55207 74.5795 8.55507C74.4763 8.55808 74.3765 8.57852 74.2908 8.61417C72.063 9.56966 65.9012 12.8466 59.9023 21.8497Z" fill="#90CAF9"/>
<path d="M72.0606 11.6953C71.3529 12.1332 70.726 12.6184 70.1914 13.142L65.964 16.7553C64.3882 18.1011 62.9537 19.3257 61.7257 20.362C61.0916 20.8395 60.521 21.3481 60.0195 21.8827C60.7932 21.4874 61.4865 21.0356 62.0843 20.5369C63.2689 19.6554 64.8338 18.4039 66.4313 16.9841C68.0288 15.5643 69.5177 14.2926 70.5175 13.2968C71.121 12.7979 71.6382 12.2611 72.0606 11.6953Z" fill="#263238"/>
<path d="M43.8164 43.2948C43.8164 43.2948 59.2699 39.0085 60.3566 30.934C60.3688 30.8696 60.3513 30.8043 60.3061 30.7458C60.2608 30.6873 60.1897 30.6379 60.101 30.6034C60.0122 30.5688 59.9095 30.5506 59.8047 30.5508C59.7 30.5509 59.5974 30.5695 59.509 30.6043C57.1616 31.4925 50.6846 34.5339 43.8164 43.2948Z" fill="#90CAF9"/>
<path d="M56.9497 33.625C56.2111 34.0304 55.5411 34.4813 54.9501 34.9708L50.3749 38.4159L45.7997 41.861C45.1104 42.3096 44.4884 42.7961 43.9414 43.3144C44.7442 42.9449 45.4737 42.5181 46.1149 42.0427C47.3864 41.2083 49.0708 40.0241 50.8531 38.6783C52.6353 37.3326 54.2002 36.0743 55.287 35.1524C55.9369 34.6859 56.4951 34.1731 56.9497 33.625Z" fill="#263238"/>
<path d="M52.6878 67.2099C52.6878 67.2099 63.2835 59.0613 58.3171 51.5722C58.2788 51.5125 58.2147 51.4605 58.1317 51.4219C58.0488 51.3832 57.9503 51.3595 57.8471 51.3532C57.7438 51.347 57.6397 51.3584 57.5463 51.3864C57.4528 51.4143 57.3736 51.4576 57.3173 51.5116C55.8937 52.9381 52.3727 57.48 52.6878 67.2099Z" fill="#90CAF9"/>
<path d="M57.262 54.8867C56.9073 55.4656 56.6488 56.0653 56.4904 56.6766C56.0449 57.9349 55.5341 59.4084 54.9581 61.0368L53.4149 65.3903C53.132 65.9838 52.9356 66.5919 52.8281 67.2071C53.2835 66.6552 53.6232 66.0696 53.8388 65.4644C54.3604 64.3608 54.9907 62.8267 55.5776 61.1243C56.1644 59.4219 56.6643 57.8608 56.9251 56.7304C57.1473 56.1255 57.2603 55.5071 57.262 54.8867Z" fill="#263238"/>
<path d="M29.3413 51.1289C29.6021 51.7396 29.7922 52.3724 29.9087 53.0173C30.2363 54.3449 30.6119 55.8996 31.0354 57.6176L32.1701 62.2108C32.3781 62.837 32.5225 63.4785 32.6016 64.1276C32.2667 63.5453 32.017 62.9274 31.8584 62.2889C31.4749 61.1246 31.0114 59.506 30.5799 57.7099C30.1484 55.9138 29.7808 54.2668 29.5891 53.0741C29.4257 52.4358 29.3426 51.7835 29.3413 51.1289Z" fill="#263238"/>
<path d="M42.1992 95.3543C42.1992 95.3543 57.5005 90.9267 58.3699 82.8455C58.3776 82.7821 58.3568 82.7187 58.3097 82.6623C58.2626 82.6058 58.1912 82.5586 58.1033 82.5258C58.0154 82.493 57.9146 82.476 57.812 82.4766C57.7094 82.4772 57.6091 82.4954 57.5223 82.5292C55.2293 83.4174 48.8392 86.5261 42.1992 95.3543Z" fill="#90CAF9"/>
<path d="M55.0686 85.543C54.3407 85.9662 53.6819 86.4327 53.1016 86.9358L48.6351 90.4348C46.9507 91.7402 45.4401 92.9177 44.136 93.9203C43.4639 94.3767 42.8601 94.8699 42.332 95.3939C43.1383 95.0193 43.8681 94.5855 44.5055 94.102C45.7553 93.2541 47.4071 92.0497 49.1459 90.677C50.8847 89.3044 52.4061 88.0393 53.4929 87.104C54.1088 86.621 54.6373 86.0975 55.0686 85.543Z" fill="#263238"/>
<path d="M31.517 82.3242C32.0139 82.7337 32.4636 83.1852 32.8597 83.672L35.9085 87.0578C37.0583 88.321 38.0894 89.4605 38.9795 90.4306C39.4383 90.8722 39.8505 91.3495 40.2109 91.8566C39.6606 91.4941 39.1624 91.0743 38.7273 90.6064C37.8743 89.786 36.7467 88.6205 35.5598 87.2923C34.373 85.964 33.3344 84.7399 32.5926 83.8348C32.1722 83.3674 31.8114 82.8608 31.517 82.3242Z" fill="#263238"/>
<path d="M11.7148 54.2266C11.7148 54.2266 11.7148 54.3073 11.7148 54.4553C11.7148 54.6034 11.7148 54.8591 11.7148 55.1282C11.7692 55.7607 11.8235 56.6086 11.8996 57.665C12.0952 59.8989 12.3778 63.0076 12.7038 66.7286C13.7905 70.5102 16.9095 74.7089 21.0934 78.7799C24.158 81.7809 27.3748 84.5128 30.1568 87.0495C32.6766 89.2656 34.9426 91.5882 36.9381 94.0004C38.2549 95.6351 39.3209 97.3427 40.1223 99.1008C40.394 99.7265 40.5896 100.211 40.7091 100.547C40.7542 100.72 40.8307 100.89 40.9373 101.052C40.9192 100.876 40.8829 100.701 40.8287 100.527C40.7526 100.191 40.5896 99.6929 40.3614 99.0604C39.6406 97.2744 38.6284 95.5384 37.3402 93.8792C35.3925 91.4348 33.1511 89.0843 30.635 86.8477C27.8856 84.2907 24.6797 81.5588 21.6259 78.5713C17.4746 74.534 14.3774 70.3891 13.2363 66.6613C12.8125 62.9403 12.4538 59.8384 12.2039 57.6111C12.0626 56.5547 11.954 55.7069 11.8779 55.0744C11.8779 54.812 11.7909 54.5899 11.7692 54.4015C11.7596 54.3423 11.7414 54.2838 11.7148 54.2266Z" fill="#263238"/>
<path d="M20.8225 78.0364C20.8225 78.0364 14.302 68.3738 22.496 62.0421C22.5589 61.9907 22.6439 61.9514 22.7412 61.9285C22.8386 61.9057 22.9443 61.9003 23.0464 61.9129C23.1484 61.9255 23.2427 61.9557 23.3183 62C23.394 62.0443 23.448 62.1008 23.4741 62.1632C24.2022 63.7646 25.5824 68.7305 20.8225 78.0364Z" fill="#90CAF9"/>
<path d="M22.0094 65.3984C21.73 65.9949 21.5587 66.6087 21.4987 67.2287C21.2704 68.3591 21.0096 69.9202 20.8032 71.6764C20.5967 73.4326 20.5097 74.9937 20.5097 76.1443C20.444 76.7634 20.5061 77.3853 20.6945 77.9947C20.8687 77.3861 20.956 76.7691 20.9553 76.151C21.0966 74.8658 21.2596 73.3653 21.4335 71.7033C21.6073 70.0413 21.7921 68.534 21.9442 67.2489C22.0645 66.6349 22.0863 66.0151 22.0094 65.3984Z" fill="#263238"/>
<g opacity="0.3">
<path d="M20.8225 78.0364C20.8225 78.0364 14.302 68.3738 22.496 62.0421C22.5589 61.9907 22.6439 61.9514 22.7412 61.9285C22.8386 61.9057 22.9443 61.9003 23.0464 61.9129C23.1484 61.9255 23.2427 61.9557 23.3183 62C23.394 62.0443 23.448 62.1008 23.4741 62.1632C24.2022 63.7646 25.5824 68.7305 20.8225 78.0364Z" fill="black"/>
</g>
<path d="M40.9047 101.301C40.9047 101.301 35.71 91.3428 44.6648 85.4416C44.7359 85.3965 44.8254 85.364 44.9238 85.3478C45.0222 85.3315 45.1259 85.332 45.2239 85.3492C45.3219 85.3665 45.4106 85.3998 45.4805 85.4457C45.5504 85.4916 45.599 85.5483 45.6211 85.6099C46.1319 87.2584 46.8165 92.2781 40.9047 101.301Z" fill="#90CAF9"/>
<path d="M43.7325 88.8008C43.3752 89.3805 43.1237 89.9831 42.9826 90.5974C42.6023 91.7143 42.1458 93.2889 41.7111 94.9913C41.2764 96.6936 40.983 98.2883 40.8309 99.4322C40.7074 100.049 40.7074 100.673 40.8309 101.289C41.0809 100.691 41.2482 100.081 41.3308 99.4659C41.635 98.1942 41.9937 96.7004 42.4175 95.0518C42.8413 93.4033 43.1891 91.9162 43.5042 90.6445C43.6818 90.0363 43.7583 89.4186 43.7325 88.8008Z" fill="#263238"/>
<g opacity="0.3">
<path d="M40.9047 101.301C40.9047 101.301 35.71 91.3428 44.6648 85.4416C44.7359 85.3965 44.8254 85.364 44.9238 85.3478C45.0222 85.3315 45.1259 85.332 45.2239 85.3492C45.3219 85.3665 45.4106 85.3998 45.4805 85.4457C45.5504 85.4916 45.599 85.5483 45.6211 85.6099C46.1319 87.2584 46.8165 92.2781 40.9047 101.301Z" fill="black"/>
</g>
<g opacity="0.3">
<path d="M41.3159 97.8365C41.3159 97.8365 45.0147 87.8779 38.6384 81.9768C38.5878 81.9316 38.5241 81.8992 38.454 81.8829C38.3839 81.8667 38.3101 81.8672 38.2403 81.8844C38.1705 81.9016 38.1074 81.935 38.0576 81.9808C38.0078 82.0267 37.9732 82.0834 37.9575 82.145C37.5938 83.7936 37.1063 88.8132 41.3159 97.8365Z" fill="black"/>
</g>
<path d="M12.5429 66.2105C12.5429 66.2105 -1.30219 60.2084 0.0997047 52.1608C0.107586 52.0968 0.14427 52.0356 0.205566 51.9839C0.266863 51.9321 0.350331 51.8921 0.446508 51.8683C0.542685 51.8445 0.647724 51.8378 0.7497 51.8491C0.851676 51.8603 0.946503 51.8891 1.02344 51.932C3.06652 53.0557 8.50023 56.8037 12.5429 66.2105Z" fill="#90CAF9"/>
<g opacity="0.3">
<path d="M12.5429 66.2105C12.5429 66.2105 -1.30219 60.2084 0.0997047 52.1608C0.107586 52.0968 0.14427 52.0356 0.205566 51.9839C0.266863 51.9321 0.350331 51.8921 0.446508 51.8683C0.542685 51.8445 0.647724 51.8378 0.7497 51.8491C0.851676 51.8603 0.946503 51.8891 1.02344 51.932C3.06652 53.0557 8.50023 56.8037 12.5429 66.2105Z" fill="black"/>
</g>
<path d="M2.63281 55.1562C2.91343 55.7506 3.29978 56.3238 3.78476 56.8654C4.56721 57.9016 5.71916 59.3146 7.04498 60.8488C8.3708 62.3829 9.67488 63.7556 10.6638 64.7178C11.1533 65.2612 11.7442 65.7671 12.4244 66.2251C12.0529 65.6501 11.5944 65.0981 11.0551 64.5765C10.0553 63.4528 8.88158 62.1273 7.59923 60.6671L4.16512 56.7442C3.74203 56.1843 3.22865 55.6523 2.63281 55.1562Z" fill="#263238"/>
<path d="M35.3622 91.4306C35.3622 91.4306 18.6698 89.8157 14.2033 82.2122C14.1652 82.1528 14.1546 82.088 14.1727 82.0252C14.1908 81.9623 14.2368 81.9037 14.3057 81.8562C14.3746 81.8086 14.4636 81.774 14.5626 81.756C14.6616 81.7381 14.7668 81.7376 14.8662 81.7546C17.4309 82.2122 24.9729 84.0895 35.3622 91.4306Z" fill="#90CAF9"/>
<g opacity="0.3">
<path d="M35.3661 91.4306C35.3661 91.4306 18.6737 89.8157 14.2072 82.2122C14.1691 82.1528 14.1585 82.088 14.1766 82.0252C14.1947 81.9623 14.2407 81.9037 14.3096 81.8562C14.3785 81.8086 14.4675 81.774 14.5665 81.756C14.6655 81.7381 14.7707 81.7376 14.8701 81.7546C17.4348 82.2122 24.9768 84.0895 35.3661 91.4306Z" fill="black"/>
</g>
<path d="M18.543 84.2227C19.2144 84.683 19.9692 85.0939 20.7925 85.4473C22.2379 86.1605 24.2701 87.116 26.5631 88.1388C28.8561 89.1616 30.997 90.0296 32.5728 90.6217C33.3968 90.9781 34.2871 91.2718 35.2245 91.4965C34.4792 91.0816 33.6713 90.7121 32.8119 90.3929L26.9326 87.8225L21.0642 85.232C20.2792 84.8452 19.4348 84.5071 18.543 84.2227Z" fill="#263238"/>
<path d="M55.0754 110.453L50.2828 129.899L31.1671 129.879L24.7227 110.453H55.0754Z" fill="#455A64"/>
<path d="M37.6258 116.697C38.1459 116.212 38.4496 115.65 38.5061 115.069C38.5629 114.744 38.4719 114.415 38.2434 114.12C38.0149 113.825 37.658 113.576 37.2129 113.4C36.7062 113.242 36.1389 113.173 35.5733 113.202C35.0077 113.23 34.4658 113.355 34.007 113.561C33.0574 113.992 32.4054 114.629 32.1813 115.345C31.9272 116.067 31.8466 116.808 31.9422 117.545C32.0022 118.313 32.2627 119.069 32.7138 119.785C33.1705 120.538 33.9166 121.21 34.8873 121.744C35.9108 122.306 37.2064 122.642 38.5713 122.699C39.9265 122.717 41.2591 122.483 42.3967 122.026C43.4865 121.594 44.4525 121.053 45.2548 120.425C46.0742 119.821 46.5782 119.077 46.7001 118.292C46.7479 117.906 46.65 117.518 46.4143 117.16C46.1785 116.801 45.8113 116.482 45.3417 116.226C44.8564 116.005 44.2783 115.875 43.6768 115.852C43.0754 115.83 42.4762 115.915 41.9511 116.098C41.4514 116.253 41.0154 116.477 40.6764 116.752C40.3375 117.027 40.1044 117.347 39.995 117.686C39.8526 118.29 40.0077 118.907 40.44 119.455C40.8723 120.004 41.5618 120.459 42.4184 120.761C43.8282 121.237 45.4664 121.385 47.037 121.178C48.189 121.027 49.2913 120.757 50.2973 120.378C50.9378 120.146 51.5548 119.889 52.1447 119.611C52.361 119.521 52.5581 119.415 52.7316 119.294C52.5069 119.375 52.2892 119.462 52.0795 119.557C51.6557 119.725 50.9928 119.987 50.1995 120.27C49.184 120.621 48.0827 120.866 46.9392 120.997C45.4534 121.169 43.9168 121.017 42.5923 120.566C41.8186 120.281 41.1989 119.861 40.8119 119.357C40.425 118.854 40.2881 118.291 40.4188 117.74C40.5214 117.443 40.7311 117.164 41.0321 116.924C41.3332 116.684 41.7179 116.489 42.1576 116.354C42.6036 116.199 43.1124 116.126 43.6231 116.145C44.1338 116.164 44.6249 116.274 45.0374 116.461C45.4433 116.687 45.7594 116.968 45.9611 117.282C46.1628 117.596 46.2447 117.935 46.2003 118.272C46.0777 118.994 45.604 119.677 44.8418 120.23C44.0758 120.825 43.1581 121.338 42.125 121.75C41.0768 122.177 39.8469 122.399 38.5931 122.39C37.3465 122.332 36.1641 122.025 35.2242 121.515C34.305 121.017 33.593 120.389 33.1485 119.685C32.7139 118.999 32.4607 118.274 32.3986 117.538C32.3013 116.834 32.3709 116.124 32.6051 115.432C32.7944 114.784 33.373 114.205 34.2244 113.81C34.6117 113.632 35.0701 113.522 35.5506 113.492C36.0311 113.463 36.5155 113.514 36.9521 113.642C37.3283 113.796 37.6288 114.011 37.8205 114.264C38.0122 114.517 38.0877 114.798 38.0388 115.075C37.9947 115.612 37.721 116.133 37.2455 116.583C36.3774 117.358 35.1268 117.939 33.681 118.238C32.5943 118.475 31.4364 118.56 30.2903 118.487C29.308 118.414 28.3527 118.239 27.4648 117.969C27.4648 117.969 27.4648 117.969 27.617 118.043C27.7822 118.107 27.9527 118.165 28.1277 118.218C28.8108 118.425 29.5457 118.559 30.3012 118.615C31.4852 118.713 32.69 118.642 33.8223 118.406C35.3468 118.11 36.6743 117.515 37.6041 116.71" fill="#FEC632"/>
</svg>
