<svg width="93" height="93" viewBox="0 0 93 93" fill="none" xmlns="http://www.w3.org/2000/svg">
<g id="Interview Task">
<path id="Vector" d="M27.8219 36.2191C27.8962 37.2513 28.2124 38.2515 28.745 39.1388C29.2775 40.0261 30.0114 40.7756 30.8874 41.3267C31.7633 41.8777 32.7566 42.2149 33.787 42.3109C34.8174 42.4068 35.8559 42.2589 36.8186 41.8791C37.01 41.8045 37.2167 41.7778 37.4207 41.8013C37.6248 41.8249 37.82 41.8979 37.9894 42.0141C38.1588 42.1303 38.2972 42.2862 38.3927 42.4681C38.4881 42.65 38.5376 42.8525 38.5369 43.0579V54.3632H27.257C27.0519 54.3652 26.8503 54.4168 26.6695 54.5136C26.4887 54.6103 26.3339 54.7494 26.2185 54.9189C26.103 55.0884 26.0303 55.2834 26.0065 55.4871C25.9827 55.6908 26.0085 55.8972 26.0818 56.0888C26.4773 57.0888 26.6223 58.1704 26.5041 59.2392C26.3858 60.3081 26.0079 61.3318 25.4033 62.2211C24.7987 63.1105 23.9858 63.8384 23.0354 64.3416C22.0849 64.8447 21.0259 65.1077 19.9505 65.1077C18.8751 65.1077 17.8161 64.8447 16.8656 64.3416C15.9152 63.8384 15.1023 63.1105 14.4977 62.2211C13.8931 61.3318 13.5152 60.3081 13.3969 59.2392C13.2787 58.1704 13.4237 57.0888 13.8192 56.0888C13.8918 55.8973 13.917 55.6911 13.8928 55.4877C13.8685 55.2843 13.7955 55.0898 13.6799 54.9208C13.5643 54.7517 13.4096 54.613 13.229 54.5166C13.0483 54.4201 12.847 54.3688 12.6422 54.3668H1.36231V25.248C1.36038 23.0866 2.2169 21.0129 3.74356 19.4828C5.27021 17.9528 7.34202 17.0916 9.50344 17.0887H36.7205C37.2022 17.0887 37.6642 17.2801 38.0049 17.6208C38.3455 17.9614 38.5369 18.4234 38.5369 18.9052V28.3959C38.5381 28.6011 38.4891 28.8036 38.3941 28.9856C38.2991 29.1676 38.1611 29.3236 37.992 29.44C37.8229 29.5564 37.6279 29.6297 37.424 29.6535C37.2202 29.6773 37.0135 29.6509 36.8222 29.5765C35.7818 29.1653 34.654 29.0254 33.5447 29.1701C32.4354 29.3147 31.3812 29.7392 30.4811 30.4035C29.581 31.0678 28.8647 31.9501 28.3995 32.9675C27.9343 33.9848 27.7356 35.1038 27.8219 36.2191Z" fill="#66C1FF"/>
<path id="Vector_2" d="M49.3009 73.4646C49.2299 74.5028 48.9143 75.5095 48.3799 76.4024C47.8455 77.2953 47.1075 78.0492 46.2261 78.6023C45.3447 79.1555 44.3449 79.4924 43.3085 79.5853C42.272 79.6783 41.2282 79.5247 40.2625 79.1372C40.071 79.0612 39.8638 79.0333 39.659 79.056C39.4543 79.0786 39.2582 79.1511 39.0879 79.267C38.9176 79.383 38.7783 79.5389 38.6823 79.7212C38.5862 79.9034 38.5363 80.1064 38.5369 80.3125V91.6378H9.50344C8.4329 91.6363 7.37313 91.424 6.38463 91.013C5.39612 90.602 4.49825 90.0004 3.74228 89.2424C2.9863 88.4844 2.38703 87.5849 1.97868 86.5953C1.57032 85.6057 1.36088 84.5454 1.36231 83.4748V54.3633H12.6422C12.8473 54.3653 13.0488 54.4169 13.2297 54.5136C13.4105 54.6104 13.5653 54.7495 13.6807 54.919C13.7962 55.0885 13.8689 55.2834 13.8927 55.4871C13.9165 55.6909 13.8907 55.8973 13.8174 56.0889C13.4218 57.0889 13.2769 58.1704 13.3951 59.2393C13.5134 60.3081 13.8913 61.3319 14.4959 62.2212C15.1005 63.1105 15.9134 63.8385 16.8638 64.3416C17.8142 64.8448 18.8733 65.1078 19.9487 65.1078C21.0241 65.1078 22.0831 64.8448 23.0336 64.3416C23.984 63.8385 24.7969 63.1105 25.4015 62.2212C26.0061 61.3319 26.384 60.3081 26.5023 59.2393C26.6205 58.1704 26.4755 57.0889 26.08 56.0889C26.0074 55.8973 25.9822 55.6911 26.0064 55.4878C26.0307 55.2844 26.1037 55.0899 26.2193 54.9208C26.3348 54.7518 26.4895 54.6131 26.6702 54.5167C26.8509 54.4202 27.0522 54.3688 27.257 54.3669H38.5369V65.6904C38.5359 65.896 38.5852 66.0987 38.6805 66.2808C38.7758 66.463 38.9141 66.6191 39.0836 66.7355C39.253 66.8519 39.4483 66.9251 39.6526 66.9487C39.8568 66.9724 40.0637 66.9457 40.2552 66.8711C41.2941 66.4519 42.4226 66.3042 43.5343 66.442C44.646 66.5798 45.7043 66.9985 46.6094 67.6586C47.5145 68.3187 48.2366 69.1984 48.7075 70.2149C49.1784 71.2313 49.3826 72.351 49.3009 73.4682V73.4646Z" fill="#FFE966"/>
<path id="Vector_3" d="M73.8971 54.3632C74.3788 54.3632 74.8408 54.5545 75.1815 54.8952C75.5221 55.2358 75.7135 55.6978 75.7135 56.1796V83.4747C75.7149 84.5454 75.5054 85.6059 75.097 86.5956C74.6885 87.5853 74.0891 88.4849 73.3329 89.2429C72.5767 90.0009 71.6786 90.6026 70.6899 91.0135C69.7012 91.4243 68.6412 91.6364 67.5706 91.6376H38.5371V80.3123C38.5365 80.1063 38.5865 79.9033 38.6825 79.7211C38.7786 79.5388 38.9178 79.3829 39.0881 79.2669C39.2584 79.1509 39.4545 79.0785 39.6593 79.0558C39.864 79.0332 40.0712 79.0611 40.2627 79.1371C41.2664 79.5413 42.354 79.693 43.43 79.5789C44.5061 79.4648 45.5377 79.0885 46.4344 78.4829C47.3311 77.8773 48.0655 77.0609 48.5732 76.1053C49.0809 75.1498 49.3464 74.0843 49.3464 73.0022C49.3464 71.9202 49.0809 70.8546 48.5732 69.8991C48.0655 68.9435 47.3311 68.1272 46.4344 67.5215C45.5377 66.9159 44.5061 66.5396 43.43 66.4255C42.354 66.3115 41.2664 66.4632 40.2627 66.8673C40.0712 66.942 39.8643 66.9686 39.6601 66.945C39.4558 66.9214 39.2605 66.8482 39.0911 66.7317C38.9216 66.6153 38.7832 66.4592 38.688 66.2771C38.5927 66.0949 38.5434 65.8922 38.5444 65.6866V54.3632H49.8642C50.0705 54.3637 50.2738 54.3135 50.4562 54.2172C50.6387 54.1208 50.7946 53.9811 50.9105 53.8104C51.0263 53.6397 51.0985 53.4431 51.1207 53.238C51.1428 53.0329 51.1143 52.8255 51.0376 52.6339C50.6233 51.632 50.4625 50.5433 50.5693 49.4643C50.6761 48.3853 51.0472 47.3493 51.6499 46.448C52.2526 45.5466 53.0682 44.8078 54.0245 44.2968C54.9808 43.7859 56.0483 43.5186 57.1326 43.5186C58.2168 43.5186 59.2844 43.7859 60.2407 44.2968C61.197 44.8078 62.0126 45.5466 62.6152 46.448C63.2179 47.3493 63.5891 48.3853 63.6959 49.4643C63.8027 50.5433 63.6418 51.632 63.2275 52.6339C63.1508 52.8255 63.1223 53.0329 63.1445 53.238C63.1666 53.4431 63.2388 53.6397 63.3547 53.8104C63.4705 53.9811 63.6265 54.1208 63.8089 54.2172C63.9913 54.3135 64.1946 54.3637 64.4009 54.3632H73.8971Z" fill="#FF6666"/>
<path id="Vector_4" d="M58.2703 50.1056C58.2712 50.973 58.1015 51.8321 57.7708 52.634C57.6941 52.8255 57.6656 53.033 57.6877 53.2381C57.7099 53.4432 57.7821 53.6397 57.8979 53.8105C58.0138 53.9812 58.1698 54.1209 58.3522 54.2172C58.5346 54.3136 58.7379 54.3637 58.9442 54.3632H64.3934C64.1871 54.3637 63.9838 54.3136 63.8014 54.2172C63.619 54.1209 63.463 53.9812 63.3472 53.8105C63.2313 53.6397 63.1591 53.4432 63.137 53.2381C63.1148 53.033 63.1433 52.8255 63.22 52.634C63.7299 51.4108 63.8598 50.0624 63.5926 48.7644C63.3254 47.4664 62.6736 46.2789 61.722 45.3565C60.7704 44.4341 59.5632 43.8197 58.2575 43.593C56.9518 43.3664 55.6081 43.5382 54.4014 44.086C55.5557 44.6125 56.5343 45.46 57.2203 46.5273C57.9063 47.5947 58.2708 48.8368 58.2703 50.1056ZM70.264 54.3632V83.4748C70.2655 84.5455 70.056 85.6059 69.6475 86.5957C69.239 87.5854 68.6396 88.4849 67.8834 89.243C67.1273 90.001 66.2292 90.6026 65.2405 91.0135C64.2518 91.4244 63.1918 91.6365 62.1211 91.6377H67.5703C68.6409 91.6363 69.7006 91.424 70.6891 91.013C71.6776 90.602 72.5755 90.0003 73.3315 89.2423C74.0875 88.4843 74.6867 87.5848 75.0951 86.5952C75.5034 85.6056 75.7129 84.5453 75.7114 83.4748V56.1796C75.7114 55.6979 75.5201 55.2359 75.1794 54.8952C74.8388 54.5546 74.3768 54.3632 73.895 54.3632H70.264Z" fill="#FF4E4E"/>
<path id="Vector_5" d="M91.6377 9.52523V36.8204C91.6377 37.3021 91.4463 37.7641 91.1057 38.1048C90.765 38.4454 90.303 38.6368 89.8213 38.6368H80.3196C80.1141 38.635 79.9121 38.5834 79.7308 38.4865C79.5496 38.3895 79.3946 38.25 79.279 38.08C79.1635 37.91 79.0909 37.7146 79.0675 37.5104C79.044 37.3062 79.0704 37.0993 79.1444 36.9076C79.5578 35.9059 79.7179 34.8178 79.6106 33.7396C79.5034 32.6613 79.132 31.6261 78.5294 30.7255C77.9268 29.8249 77.1116 29.0868 76.1558 28.5763C75.1999 28.0658 74.1331 27.7987 73.0495 27.7987C71.9659 27.7987 70.899 28.0658 69.9432 28.5763C68.9874 29.0868 68.1721 29.8249 67.5695 30.7255C66.9669 31.6261 66.5956 32.6613 66.4883 33.7396C66.381 34.8178 66.5412 35.9059 66.9545 36.9076C67.0312 37.0991 67.0597 37.3065 67.0376 37.5116C67.0154 37.7168 66.9432 37.9133 66.8274 38.084C66.7116 38.2547 66.5556 38.3944 66.3732 38.4908C66.1907 38.5872 65.9874 38.6373 65.7811 38.6368H56.2795C55.7978 38.6368 55.3358 38.4454 54.9951 38.1048C54.6545 37.7641 54.4631 37.3021 54.4631 36.8204V27.3315C54.4639 27.1258 54.4144 26.9231 54.3189 26.741C54.2234 26.5589 54.0848 26.4029 53.9151 26.2866C53.7455 26.1704 53.55 26.0974 53.3457 26.074C53.1414 26.0507 52.9345 26.0776 52.743 26.1526C51.7404 26.5477 50.6564 26.6918 49.5854 26.5723C48.5144 26.4528 47.4889 26.0733 46.5981 25.4668C45.7073 24.8604 44.9782 24.0454 44.4743 23.0929C43.9704 22.1403 43.707 21.079 43.707 20.0014C43.707 18.9237 43.9704 17.8624 44.4743 16.9098C44.9782 15.9573 45.7073 15.1423 46.5981 14.5359C47.4889 13.9294 48.5144 13.55 49.5854 13.4304C50.6564 13.3109 51.7404 13.455 52.743 13.8501C52.9343 13.9245 53.1409 13.9509 53.3448 13.9271C53.5487 13.9033 53.7437 13.83 53.9128 13.7136C54.0819 13.5971 54.2199 13.4411 54.3149 13.2592C54.4098 13.0772 54.4589 12.8747 54.4577 12.6694V3.17871C54.4577 2.69697 54.649 2.23496 54.9897 1.89432C55.3303 1.55368 55.7923 1.3623 56.2741 1.3623H83.4965C84.5671 1.36373 85.6269 1.57601 86.6154 1.98701C87.6039 2.39801 88.5017 2.99969 89.2577 3.75768C90.0137 4.51568 90.613 5.41516 91.0213 6.40476C91.4297 7.39435 91.6391 8.45469 91.6377 9.52523Z" fill="#63EA86"/>
<path id="Vector_6" d="M47.7059 26.0672C47.99 26.1909 48.2825 26.2941 48.5814 26.376C48.3401 26.1643 48.0266 26.0537 47.7059 26.0672ZM48.585 13.623C48.282 13.7064 47.9852 13.8108 47.6968 13.9355C48.0222 13.9505 48.3407 13.8385 48.585 13.623ZM83.4963 1.3623H78.0471C79.1176 1.36373 80.1774 1.57601 81.1659 1.98701C82.1544 2.39801 83.0523 2.99969 83.8083 3.75768C84.5643 4.51568 85.1635 5.41516 85.5719 6.40476C85.9802 7.39435 86.1897 8.45469 86.1882 9.52523V38.6368H89.8211C90.3028 38.6368 90.7648 38.4454 91.1054 38.1048C91.4461 37.7641 91.6375 37.3021 91.6375 36.8204V9.52523C91.6389 8.45469 91.4295 7.39435 91.0211 6.40476C90.6127 5.41516 90.0135 4.51568 89.2575 3.75768C88.5015 2.99969 87.6037 2.39801 86.6152 1.98701C85.6266 1.57601 84.5669 1.36373 83.4963 1.3623Z" fill="#3CE568"/>
<path id="Vector_7" d="M72.3512 18.2948C71.9898 18.2948 71.6433 18.1513 71.3879 17.8958C71.1324 17.6403 70.9888 17.2938 70.9888 16.9325V14.9999C70.9898 14.1388 71.3323 13.3133 71.9411 12.7044C72.55 12.0956 73.3755 11.7531 74.2366 11.7521C74.5738 11.7521 74.8972 11.6182 75.1357 11.3797C75.3741 11.1413 75.5081 10.8179 75.5081 10.4806V9.29089C75.5081 8.95368 75.3741 8.63027 75.1357 8.39182C74.8972 8.15337 74.5738 8.01941 74.2366 8.01941H72.0278C71.6906 8.01941 71.3672 8.15337 71.1288 8.39182C70.8903 8.63027 70.7563 8.95368 70.7563 9.29089C70.7563 9.6522 70.6128 9.99871 70.3573 10.2542C70.1019 10.5097 69.7553 10.6532 69.394 10.6532C69.0327 10.6532 68.6862 10.5097 68.4307 10.2542C68.1753 9.99871 68.0317 9.6522 68.0317 9.29089C68.0317 8.23106 68.4528 7.21464 69.2022 6.46523C69.9516 5.71582 70.968 5.2948 72.0278 5.2948H74.2366C75.2964 5.2948 76.3128 5.71582 77.0622 6.46523C77.8117 7.21464 78.2327 8.23106 78.2327 9.29089V10.4806C78.2327 11.5405 77.8117 12.5569 77.0622 13.3063C76.3128 14.0557 75.2964 14.4767 74.2366 14.4767C74.0978 14.4767 73.9648 14.5318 73.8667 14.63C73.7686 14.7281 73.7135 14.8611 73.7135 14.9999V16.9325C73.7135 17.2938 73.5699 17.6403 73.3144 17.8958C73.059 18.1513 72.7125 18.2948 72.3512 18.2948Z" fill="white"/>
<path id="Vector_8" d="M72.3237 23.8076C73.0761 23.8076 73.686 23.1977 73.686 22.4453C73.686 21.6929 73.0761 21.083 72.3237 21.083C71.5714 21.083 70.9614 21.6929 70.9614 22.4453C70.9614 23.1977 71.5714 23.8076 72.3237 23.8076Z" fill="white"/>
</g>
</svg>
