<svg width="30" height="30" viewBox="0 0 30 30" fill="none" xmlns="http://www.w3.org/2000/svg">
<path d="M15 30C23.2843 30 30 23.2843 30 15C30 6.71573 23.2843 0 15 0C6.71573 0 0 6.71573 0 15C0 23.2843 6.71573 30 15 30Z" fill="white"/>
<path opacity="0.2" d="M14.9999 29.5017C6.79898 29.5017 0.136406 22.9202 0.00316406 14.751C0.00175781 14.8339 0 14.9168 0 15.0001C0 23.2843 6.71566 30 14.9999 30C23.2843 30 30 23.2843 30 15.0001C30 14.9168 29.9981 14.8339 29.997 14.751C29.8638 22.9202 23.201 29.5017 14.9999 29.5017Z" fill="#D8D8D8"/>
<path opacity="0.1" d="M18.716 15.2463L23.0193 10.9429C23.6956 10.2666 23.696 9.15998 23.0193 8.48392L21.6667 7.13123C20.991 6.45494 19.8837 6.45494 19.2074 7.13134L14.9042 11.4346L10.6007 7.13134C9.92443 6.45505 8.81771 6.45505 8.14143 7.13123L6.7892 8.48392C6.11291 9.16009 6.11291 10.2667 6.7892 10.9429L11.0926 15.2463L6.7892 19.5497C6.11291 20.2263 6.11291 21.3331 6.7892 22.009L8.14143 23.3616C8.81771 24.0386 9.92443 24.0382 10.6007 23.3616L14.9041 19.0582L19.2073 23.3616C19.8836 24.0382 20.991 24.0386 21.6666 23.3616L23.0192 22.009C23.6958 21.3329 23.6955 20.2263 23.0192 19.5497L18.716 15.2463Z" fill="#2C2C2C"/>
<path d="M18.716 14.9144L23.0193 10.6108C23.6956 9.93459 23.696 8.82787 23.0193 8.15182L21.6667 6.79912C20.991 6.12295 19.8837 6.12295 19.2074 6.79936L14.9042 11.1026L10.6007 6.79924C9.92443 6.12295 8.81771 6.12295 8.14143 6.799L6.7892 8.1517C6.11291 8.82787 6.11291 9.93459 6.7892 10.6106L11.0926 14.9142L6.7892 19.2176C6.11291 19.8941 6.11291 21.001 6.7892 21.6769L8.14143 23.0295C8.81771 23.7064 9.92443 23.706 10.6007 23.0295L14.9041 18.7261L19.2073 23.0295C19.8836 23.706 20.991 23.7064 21.6666 23.0295L23.0192 21.6769C23.6958 21.0008 23.6955 19.8941 23.0192 19.2176L18.716 14.9144Z" fill="#1B3D6F"/>
<path opacity="0.2" d="M9.95406 13.4296L10.0854 13.303L6.68256 10.0251C6.45684 9.80775 6.31715 9.52121 6.28771 9.21511C6.25027 9.59536 6.38195 9.98856 6.68256 10.278L9.95406 13.4296ZM19.5166 10.278C19.8174 9.98847 19.9491 9.59518 19.9116 9.21484C19.8822 9.52106 19.7425 9.8077 19.5166 10.0251L16.1137 13.303L16.2451 13.4296L19.5166 10.278ZM19.5166 18.4541L18.447 19.4844C17.9127 20 17.0371 19.9997 16.5023 19.4844L13.0995 16.2066L9.69654 19.4844C9.16176 19.9997 8.28662 20 7.75184 19.4844L6.68256 18.4541C6.45685 18.2368 6.31716 17.9503 6.28771 17.6443C6.25027 18.0245 6.38195 18.4176 6.68256 18.7071L7.75184 19.7374C8.28662 20.2529 9.16176 20.2527 9.69654 19.7374L13.0994 16.4595L16.5023 19.7374C17.037 20.2527 17.9127 20.2529 18.447 19.7374L19.5165 18.7071C19.8173 18.4176 19.9489 18.0246 19.9115 17.6444C19.8821 17.9504 19.7423 18.2368 19.5166 18.4541Z" fill="#2C2C2C"/>
</svg>
