<svg width="35" height="35" viewBox="0 0 35 35" fill="none" xmlns="http://www.w3.org/2000/svg">
<g id="Question">
<path id="Vector" fill-rule="evenodd" clip-rule="evenodd" d="M17.4993 32.0833C25.5537 32.0833 32.0827 25.5543 32.0827 17.5C32.0827 9.44558 25.5537 2.91663 17.4993 2.91663C9.44497 2.91663 2.91602 9.44558 2.91602 17.5C2.91602 25.5543 9.44497 32.0833 17.4993 32.0833ZM15.9156 19.3608C15.7931 20.1775 16.4873 20.8512 17.3127 20.8512H17.9981C18.1928 20.8512 18.3803 20.777 18.5222 20.6437C18.6642 20.5104 18.75 20.3281 18.7623 20.1337C18.8454 19.3666 19.175 18.6958 19.7481 18.1227L20.6668 17.2185C21.3843 16.4966 21.886 15.8418 22.1733 15.2541C22.4606 14.6577 22.6035 14.0262 22.6035 13.3597C22.6035 11.8941 22.1616 10.761 21.2779 9.96183C20.3941 9.15392 19.1516 8.74996 17.5504 8.74996C15.9637 8.74996 14.711 9.17287 13.7879 10.0202C13.2415 10.527 12.8419 11.1719 12.6314 11.8868C12.3631 12.7677 13.1564 13.5362 14.0752 13.5362C14.8539 13.5362 15.4358 12.9018 15.9768 12.3112C16.0527 12.2281 16.1271 12.145 16.2014 12.0662C16.5427 11.706 16.9918 11.5266 17.5504 11.5266C18.7287 11.5266 19.3179 12.1887 19.3179 13.5129C19.3179 13.9518 19.2041 14.3718 18.9781 14.7714C18.7521 15.1637 18.2941 15.677 17.6073 16.3114C16.9277 16.9385 16.4596 17.5787 16.2014 18.2291C16.0746 18.5514 15.9798 18.9291 15.9156 19.3608ZM15.9987 23.1685C15.6589 23.5054 15.4883 23.937 15.4883 24.462C15.4883 24.9797 15.6546 25.407 15.9871 25.7454C16.3268 26.0808 16.7731 26.25 17.3243 26.25C17.8756 26.25 18.316 26.0808 18.65 25.7439C18.9898 25.407 19.1604 24.9797 19.1604 24.462C19.1604 23.937 18.9854 23.5054 18.6383 23.1685C18.2985 22.8229 17.8596 22.6508 17.3243 22.6508C16.7877 22.6508 16.3473 22.8229 15.9987 23.1685Z" fill="#1B3D6F"/>
</g>
</svg>
