<svg width="33" height="33" viewBox="0 0 33 33" fill="none" xmlns="http://www.w3.org/2000/svg">
<path d="M16.5 33C25.6127 33 33 25.6127 33 16.5C33 7.3873 25.6127 0 16.5 0C7.3873 0 0 7.3873 0 16.5C0 25.6127 7.3873 33 16.5 33Z" fill="#937EDA"/>
<path d="M16.5002 29.6154C23.7436 29.6154 29.6155 23.7435 29.6155 16.5C29.6155 9.2566 23.7436 3.38464 16.5002 3.38464C9.25672 3.38464 3.38477 9.2566 3.38477 16.5C3.38477 23.7435 9.25672 29.6154 16.5002 29.6154Z" fill="#473080"/>
<path d="M20.3338 25.1995H12.6655V21.6298C12.6655 21.4116 12.8381 21.2332 13.0489 21.2332H19.9504C20.1613 21.2332 20.3338 21.4116 20.3338 21.6298V25.1995Z" fill="#0CAFE8"/>
<path d="M20.9088 25.7945H12.0903L12.282 25.1996H20.7171L20.9088 25.7945Z" fill="#0B90D3"/>
<path d="M18.0334 24.4062H14.966C14.5443 24.4062 14.1992 24.0493 14.1992 23.613V23.018C14.1992 22.5817 14.5443 22.2247 14.966 22.2247H18.0334C18.4551 22.2247 18.8002 22.5817 18.8002 23.018V23.613C18.8002 24.0493 18.4551 24.4062 18.0334 24.4062Z" fill="white"/>
<path d="M15.5029 16.9694H17.5159V20.2416H15.5029V16.9694Z" fill="#F9A74E"/>
<path opacity="0.2" d="M16.9214 16.9694H17.4965V20.2416H16.9214V16.9694Z" fill="#382673"/>
<path d="M18.225 20.0433H14.7743C14.1416 20.0433 13.624 20.5788 13.624 21.2332H19.3752C19.3752 20.5788 18.8576 20.0433 18.225 20.0433Z" fill="#FFDE39"/>
<path d="M18.2251 20.0433H17.2666C17.8992 20.0433 18.4168 20.5788 18.4168 21.2332H19.3754C19.3754 20.5788 18.8578 20.0433 18.2251 20.0433Z" fill="#FEC632"/>
<path d="M17.4773 18.6551H15.5219C15.0043 18.6551 14.5825 18.2188 14.5825 17.6834V17.4652H18.4167V17.6834C18.4167 18.2188 17.9949 18.6551 17.4773 18.6551Z" fill="#FFDE39"/>
<path d="M17.65 17.4652V17.6834C17.65 18.2188 17.42 18.6551 16.9023 18.6551H17.4775C17.9951 18.6551 18.4168 18.2188 18.4168 17.6834V17.4652H17.65Z" fill="#FEC632"/>
<path d="M19.7588 21.2332H13.2407C13.2407 21.015 13.4133 20.8365 13.6241 20.8365H19.3753C19.5862 20.8365 19.7588 21.015 19.7588 21.2332Z" fill="#F9A74E"/>
<path opacity="0.2" d="M19.3755 20.8365H18.417C18.6279 20.8365 18.8004 21.015 18.8004 21.2332H19.7589C19.7589 21.015 19.5864 20.8365 19.3755 20.8365Z" fill="#382673"/>
<path d="M18.8002 17.0685H14.1992V17.6634C14.1992 17.8816 14.3718 18.0601 14.5826 18.0601H18.4168C18.6276 18.0601 18.8002 17.8816 18.8002 17.6634V17.0685Z" fill="#F9A74E"/>
<path d="M18.8002 17.0685H14.1992V17.6634C14.1992 17.8816 14.3718 18.0601 14.5826 18.0601H18.4168C18.6276 18.0601 18.8002 17.8816 18.8002 17.6634V17.0685Z" fill="#F9A74E"/>
<path opacity="0.2" d="M17.8414 17.0685L17.458 17.6634C17.6497 17.6634 17.6689 18.0601 17.458 18.0601H18.4165C18.6274 18.0601 18.8 17.8816 18.8 17.6634V17.0685H17.8414Z" fill="#382673"/>
<path d="M19.1836 10.7224H22.826V10.9207C22.826 13.0031 21.1965 14.6888 19.1836 14.6888" stroke="#F9A74E" stroke-width="4" stroke-miterlimit="10" stroke-linecap="round" stroke-linejoin="round"/>
<path d="M13.8158 10.7224H10.1733V10.9207C10.1733 13.0031 11.8028 14.6888 13.8158 14.6888" stroke="#FEC632" stroke-width="4" stroke-miterlimit="10" stroke-linecap="round" stroke-linejoin="round"/>
<path d="M18.1292 17.6635H14.8702C13.6432 17.6635 12.6655 16.6521 12.6655 15.3829V9.13586H20.3338V15.3829C20.3338 16.6521 19.3561 17.6635 18.1292 17.6635Z" fill="#FFDE39"/>
<path opacity="0.3" d="M13.8159 9.73083V13.6972" stroke="white" stroke-width="2" stroke-miterlimit="10" stroke-linecap="round" stroke-linejoin="round"/>
<path d="M19.3755 9.13586V15.3829C19.3755 16.6521 18.3978 17.6635 17.1709 17.6635H18.1294C19.3564 17.6635 20.3341 16.6521 20.3341 15.3829V9.13586H19.3755Z" fill="#FEC632"/>
<path d="M20.9088 9.13586H12.0903L12.6655 9.73082H20.3337L20.9088 9.13586Z" fill="#F9A74E"/>
<path opacity="0.2" d="M19.7589 9.13586L19.3755 9.73082H20.334L20.9091 9.13586H19.7589Z" fill="#382673"/>
<path d="M21.1005 8.34253H11.8986C11.6877 8.34253 11.5151 8.52101 11.5151 8.73916C11.5151 8.95731 11.6877 9.1358 11.8986 9.1358H21.1005C21.3114 9.1358 21.4839 8.95731 21.4839 8.73916C21.4839 8.52101 21.3114 8.34253 21.1005 8.34253Z" fill="#FFDE39"/>
<path d="M21.1004 8.34253H19.9502C20.1611 8.34253 20.3336 8.52101 20.3336 8.73916C20.3336 8.95731 20.1611 9.1358 19.9502 9.1358H21.1004C21.3113 9.1358 21.4838 8.95731 21.4838 8.73916C21.4838 8.52101 21.3113 8.34253 21.1004 8.34253Z" fill="#FEC632"/>
<path opacity="0.3" d="M13.8159 14.5697V15.0258" stroke="white" stroke-width="2" stroke-miterlimit="10" stroke-linecap="round" stroke-linejoin="round"/>
<path d="M13.6047 7.62858L13.7198 7.3311C13.7581 7.25177 13.8731 7.25177 13.8923 7.3311L14.0073 7.62858C14.1032 7.86656 14.2757 8.04504 14.5058 8.1442L14.7933 8.26319C14.87 8.30286 14.87 8.42185 14.7933 8.44168L14.5058 8.56067C14.2757 8.65983 14.1032 8.83831 14.0073 9.07629L13.8923 9.37377C13.854 9.4531 13.7389 9.4531 13.7198 9.37377L13.6047 9.07629C13.5089 8.83831 13.3364 8.65983 13.1063 8.56067L12.8187 8.44168C12.7421 8.40202 12.7421 8.28302 12.8187 8.26319L13.1063 8.1442C13.3364 8.04504 13.5281 7.84673 13.6047 7.62858Z" fill="white"/>
<path d="M16.4996 14.1929L17.3239 14.649C17.439 14.7085 17.5923 14.6094 17.5732 14.4706L17.4006 13.4988L18.0716 12.8245C18.1675 12.7254 18.1099 12.5469 17.9757 12.5271L17.0556 12.3882L16.6338 11.5156C16.5763 11.3966 16.4038 11.3966 16.3462 11.5156L15.9245 12.3882L15.0043 12.5271C14.8701 12.5469 14.8126 12.7254 14.9084 12.8245L15.5794 13.4988L15.426 14.4507C15.4069 14.5896 15.5411 14.6887 15.6753 14.6292L16.4996 14.1929Z" fill="#FEC632"/>
</svg>
