<svg width="235" height="157" viewBox="0 0 235 157" fill="none" xmlns="http://www.w3.org/2000/svg">
<path d="M219.468 38.3896C213.859 30.5046 206.436 24.0897 197.829 19.6878C186.28 13.816 168.019 5.81526 154.448 6.06018C133.045 6.44326 84.8883 32.7879 59.7089 37.7993C34.5294 42.8107 -2.46588 61.522 5.23272 99.6102C12.9313 137.698 33.3575 149.056 72.4396 144.044C111.522 139.033 125.434 134.021 157.115 140.358C188.796 146.695 225.208 142.374 229.047 96.9381C231.867 63.6698 227.712 49.926 219.468 38.3896Z" fill="#90CAF9"/>
<path opacity="0.7" d="M219.468 38.3896C213.859 30.5046 206.436 24.0897 197.829 19.6878C186.28 13.816 168.019 5.81526 154.448 6.06018C133.045 6.44326 84.8883 32.7879 59.7089 37.7993C34.5294 42.8107 -2.46588 61.522 5.23272 99.6102C12.9313 137.698 33.3575 149.056 72.4396 144.044C111.522 139.033 125.434 134.021 157.115 140.358C188.796 146.695 225.208 142.374 229.047 96.9381C231.867 63.6698 227.712 49.926 219.468 38.3896Z" fill="white"/>
<path d="M28.5415 39.8278L29.3875 50.1489C29.3875 50.1489 22.0461 48.9432 20.1003 52.8462C18.1545 56.7492 18.1514 66.9511 22.6978 72.3739C25.9722 76.2832 29.4721 74.6723 31.1735 73.4666L32.0571 84.7423C32.0571 88.9531 40.1286 96.7089 50.0863 96.7089C60.044 96.7089 68.1155 88.9531 68.1155 84.7423L71.628 39.8403L28.5415 39.8278ZM25.2954 67.824C22.4754 65.4376 23.995 55.0222 25.2954 53.7223C26.2573 52.7551 28.5321 53.4616 29.6413 53.8918L30.8038 68.744C29.353 69.1051 27.0657 69.3218 25.2954 67.824Z" fill="#263238"/>
<path d="M50.0864 96.8659C40.3981 96.8659 31.913 89.3111 31.913 84.7424L31.0514 73.7524C29.1714 75.0084 25.7842 76.2926 22.5914 72.4807C18.142 67.1678 17.9352 56.8686 19.975 52.7803C21.7955 49.1348 28.012 49.7973 29.2309 49.9543L28.388 39.6614H71.7972V39.8309L68.2848 84.7329C68.2722 89.3111 59.7715 96.8659 50.0864 96.8659ZM31.3083 73.1777L32.2107 84.7298C32.2107 88.6799 39.9406 96.5519 50.0864 96.5519C60.2321 96.5519 67.9464 88.6799 67.9464 84.7424L71.4463 39.9848H28.7139L29.5599 50.3468L29.3594 50.3154C29.2873 50.3154 22.1151 49.1724 20.2382 52.931C18.236 56.9439 18.4397 67.061 22.817 72.286C25.9848 76.054 29.3562 74.575 31.0827 73.3504L31.3083 73.1777ZM28.7515 69.1648C27.457 69.1997 26.1936 68.7636 25.1952 67.9371C23.9794 66.9103 23.6285 64.5741 23.5658 62.7969C23.406 58.9535 24.3366 54.4539 25.1858 53.603C26.1916 52.5919 28.4444 53.2544 29.6978 53.738L29.7918 53.7725L30.9699 68.8445L30.8414 68.8759C30.1593 69.0582 29.4574 69.1552 28.7515 69.1648ZM25.3957 67.6984C27.0344 69.0863 29.1275 68.9764 30.6378 68.6153L29.4941 54.008C28.4914 53.6312 26.295 52.9499 25.4208 53.8385C24.6092 54.636 23.7256 59.1137 23.8792 62.8C23.9794 65.2587 24.5058 66.9574 25.3957 67.7141V67.6984Z" fill="#263238"/>
<path d="M50.0863 48.94C61.9835 48.94 71.628 44.8603 71.628 39.8277C71.628 34.7952 61.9835 30.7155 50.0863 30.7155C38.1892 30.7155 28.5447 34.7952 28.5447 39.8277C28.5447 44.8603 38.1892 48.94 50.0863 48.94Z" fill="white"/>
<path d="M50.0865 49.1002C38.1203 49.1002 28.385 44.9397 28.385 39.8278C28.385 34.7158 38.1203 30.5585 50.0865 30.5585C62.0527 30.5585 71.7848 34.719 71.7848 39.8278C71.7848 44.9365 62.0401 49.1002 50.0865 49.1002ZM50.0865 30.8725C38.2926 30.8725 28.6983 34.8917 28.6983 39.8278C28.6983 44.7638 38.2926 48.7862 50.0865 48.7862C61.8803 48.7862 71.4715 44.767 71.4715 39.8278C71.4715 34.8885 61.8772 30.8725 50.0865 30.8725Z" fill="#263238"/>
<path d="M50.0863 47.9352C60.6717 47.9352 69.2529 44.3053 69.2529 39.8277C69.2529 35.3501 60.6717 31.7202 50.0863 31.7202C39.5009 31.7202 30.9197 35.3501 30.9197 39.8277C30.9197 44.3053 39.5009 47.9352 50.0863 47.9352Z" fill="white"/>
<path d="M50.0864 48.0953C39.4331 48.0953 30.76 44.387 30.76 39.8277C30.76 35.2684 39.4299 31.5632 50.0864 31.5632C60.7429 31.5632 69.4097 35.2716 69.4097 39.8277C69.4097 44.3839 60.7397 48.0953 50.0864 48.0953ZM50.0864 31.8772C39.6023 31.8772 31.0733 35.4443 31.0733 39.8277C31.0733 44.2112 39.6023 47.7813 50.0864 47.7813C60.5705 47.7813 69.0963 44.2143 69.0963 39.8277C69.0963 35.4411 60.5674 31.8772 50.0864 31.8772Z" fill="#263238"/>
<path d="M50.0865 47.9352C57.5241 47.9352 63.5535 46.8879 63.5535 45.5959C63.5535 44.3039 57.5241 43.2566 50.0865 43.2566C42.6488 43.2566 36.6194 44.3039 36.6194 45.5959C36.6194 46.8879 42.6488 47.9352 50.0865 47.9352Z" fill="#90CAF9"/>
<path d="M50.0863 48.0954C44.9915 48.0954 40.1881 47.2601 36.5566 45.7404L36.2119 45.5959L36.5566 45.4515C40.1881 43.9349 44.9915 43.0996 50.0863 43.0996C55.1811 43.0996 59.9845 43.9349 63.6129 45.4515L63.9607 45.5959L63.6129 45.7404C59.9845 47.2601 55.178 48.0954 50.0863 48.0954ZM37.0328 45.5834C40.5829 46.9932 45.1983 47.7814 50.0863 47.7814C54.9743 47.7814 59.5897 47.0058 63.1366 45.5834C59.5897 44.1735 54.9743 43.3854 50.0863 43.3854C45.1983 43.3854 40.5829 44.1861 37.0328 45.5959V45.5834Z" fill="#263238"/>
<path d="M126.273 63.8205C126.273 63.8205 136.519 88.2057 138.985 89.4963C141.451 90.7868 213.743 84.4974 213.743 84.4974L211.691 82.2084L211.594 66.4267L214.298 66.3074L186.681 29.8583L124.277 34.427C124.277 34.427 120.947 36.738 120.483 38.7602C120.019 40.7823 120.138 43.8062 120.138 43.8062L126.273 63.8205Z" fill="#263238"/>
<path d="M141.401 89.804C140.026 89.804 139.158 89.7475 138.916 89.6218C136.428 88.3219 126.549 64.8661 126.132 63.8738V63.8581L119.982 43.8344V43.8124C119.982 43.781 119.884 40.732 120.329 38.7256C120.774 36.7191 124.049 34.3924 124.19 34.295L124.224 34.2731H124.265L186.747 29.6949L186.797 29.764L214.602 66.4486L211.751 66.5774L211.848 82.1486L214.069 84.6261L213.756 84.6512C211.09 84.8836 154.232 89.804 141.401 89.804ZM126.424 63.742C129.961 72.1603 137.149 88.3313 139.06 89.3298C140.972 90.3283 188.348 86.5195 213.418 84.3404L211.538 82.2429V82.1832L211.44 66.2508L213.994 66.1378L186.609 30.0215L124.334 34.5776C123.98 34.832 121.041 36.9766 120.636 38.7947C120.217 40.6787 120.286 43.5047 120.292 43.781L126.424 63.742Z" fill="#263238"/>
<path d="M211.594 66.4268L140.687 72.1478C139.615 72.8562 138.713 73.7928 138.044 74.8908C137.375 75.9888 136.956 77.2212 136.817 78.5001C136.297 82.9369 138.086 87.4428 139.418 88.0896C140.388 88.5056 141.425 88.7428 142.479 88.7898L211.691 82.1958L211.594 66.4268Z" fill="#E0E0E0"/>
<path d="M142.495 88.9499C141.415 88.9045 140.353 88.6619 139.361 88.234C137.929 87.5369 136.156 82.896 136.673 78.5C136.818 77.1985 137.245 75.9446 137.925 74.8261C138.605 73.7076 139.521 72.7517 140.608 72.0254L140.674 72.0034L211.751 66.254L211.851 82.3465L211.707 82.3622L142.495 88.9499ZM140.721 72.3079C139.683 73.011 138.809 73.9311 138.16 75.0049C137.511 76.0787 137.102 77.2808 136.961 78.5283C136.438 83.0122 138.302 87.3862 139.468 87.9483C140.418 88.3546 141.434 88.5864 142.466 88.6328L211.516 82.0639L211.418 66.5931L140.721 72.3079Z" fill="#263238"/>
<path d="M139.433 11.348L110.829 50.9277C110.829 50.9277 109.262 52.4663 109.344 56.2374C109.425 60.0086 109.61 66.1598 110.729 66.5994C111.847 67.039 194.618 73.319 194.618 73.319L213.731 29.0858L212.239 28.4578L212.753 17.5526L214.007 14.0233L141.536 10.6195L139.433 11.348Z" fill="#90CAF9"/>
<path d="M194.718 73.476H194.605C191.224 73.2217 111.804 67.174 110.676 66.7407C109.77 66.3922 109.325 63.2522 109.187 56.2437C109.112 52.4474 110.654 50.8837 110.719 50.8178L139.336 11.2161L141.511 10.4594H141.542L214.213 13.8757L212.91 17.584L212.396 28.3417L213.931 29.0011L213.869 29.1486L194.718 73.476ZM139.53 11.4799L110.954 51.0187C110.923 51.0533 109.429 52.5887 109.501 56.2343C109.548 58.6552 109.695 66.0248 110.785 66.4456C111.86 66.7941 165.954 70.9797 194.517 73.162L213.521 29.1675L212.073 28.5395L212.606 17.4961L213.778 14.1614L141.558 10.7765L139.53 11.4799Z" fill="#263238"/>
<path d="M113.402 52.0549C113.402 52.0549 110.814 51.2511 110.077 53.7443C109.341 56.2374 111.152 65.2712 111.152 65.2712C111.152 65.2712 112.697 65.918 113.408 65.94C114.119 65.962 193.769 71.2309 193.769 71.2309L212.233 28.4453L212.753 17.5526L195.088 55.892L113.402 52.0549Z" fill="white"/>
<path d="M193.869 71.3941H193.759C192.963 71.3408 114.1 66.1221 113.402 66.1032C112.703 66.0844 111.155 65.4501 111.089 65.425L111.014 65.3905L110.998 65.3088C110.923 64.9383 109.19 56.2028 109.93 53.7065C110.012 53.3677 110.162 53.0494 110.372 52.7712C110.581 52.4931 110.846 52.261 111.149 52.0894C111.862 51.7561 112.672 51.6904 113.43 51.9042L194.99 55.7381L212.948 16.755L212.377 28.5049L193.869 71.3941ZM111.287 65.1581C111.6 65.2868 112.825 65.7641 113.411 65.7861C114.11 65.8049 189.106 70.7693 193.668 71.0707L212.08 28.4075L212.559 18.3595L195.188 56.0552H195.081L113.376 52.2087H113.355C112.672 52.0145 111.942 52.069 111.296 52.3626C111.031 52.516 110.799 52.7217 110.616 52.9673C110.432 53.2128 110.3 53.4932 110.227 53.7913C109.551 56.0898 111.111 64.2475 111.287 65.1581Z" fill="#263238"/>
<path d="M193.261 55.8072L113.402 52.0549C113.402 52.0549 110.814 51.2511 110.077 53.7443C109.341 56.2374 111.152 65.2712 111.152 65.2712C111.152 65.2712 112.697 65.918 113.408 65.94C114.119 65.962 193.769 71.2309 193.769 71.2309L193.659 56.1589L193.261 55.8072Z" fill="#E0E0E0"/>
<path d="M193.928 71.3974H193.759C192.963 71.344 114.1 66.1253 113.402 66.1065C112.703 66.0876 111.155 65.4533 111.089 65.4282L111.014 65.3937L110.998 65.312C110.923 64.9415 109.19 56.206 109.93 53.7097C110.012 53.3709 110.162 53.0526 110.372 52.7744C110.581 52.4963 110.846 52.2642 111.149 52.0926C111.862 51.7593 112.672 51.6936 113.43 51.9074L193.33 55.6754L193.822 56.0961V56.1684L193.928 71.3974ZM111.287 65.1582C111.6 65.2869 112.825 65.7642 113.411 65.7862C114.107 65.805 188.508 70.7285 193.624 71.0645L193.515 56.2249L193.201 55.9643L113.376 52.2088H113.355C112.672 52.0146 111.942 52.0691 111.296 52.3627C111.031 52.5161 110.799 52.7218 110.616 52.9673C110.432 53.2129 110.3 53.4932 110.227 53.7914C109.551 56.0899 111.111 64.2476 111.287 65.1582Z" fill="#263238"/>
<path d="M124.13 133.136C124.13 133.136 127.057 137.366 130.115 137.3C150.5 136.854 185.656 146.638 189.736 146.638C193.815 146.638 196.849 146.277 196.849 145.407C196.849 144.537 182.501 87.6312 182.501 87.6312L179.656 86.7645L189.426 142.299C189.426 142.299 177.303 140.565 152.813 136.474C128.323 132.382 129.313 128.938 126.355 129.547C123.397 130.156 124.13 133.136 124.13 133.136Z" fill="#90CAF9"/>
<path d="M189.736 146.789C188.501 146.789 184.491 145.913 178.941 144.701C166.02 141.875 144.384 137.14 130.118 137.479H130.033C126.956 137.479 124.114 133.422 123.995 133.249L123.97 133.196C123.97 133.139 123.632 131.789 124.327 130.684C124.555 130.348 124.849 130.063 125.191 129.847C125.533 129.631 125.917 129.488 126.317 129.428C127.382 129.208 127.965 129.484 129.237 130.093C131.666 131.252 136.717 133.66 152.831 136.355C175.304 140.123 187.499 141.897 189.228 142.148L179.449 86.5698L182.623 87.5401L182.645 87.6249C183.231 89.9485 196.999 144.553 196.999 145.429C196.999 146.305 194.561 146.789 189.736 146.789ZM131.518 137.136C145.813 137.136 166.49 141.655 179.007 144.393C184.538 145.602 188.533 146.475 189.736 146.475C194.865 146.475 196.692 145.922 196.692 145.401C196.648 144.556 187.317 107.388 182.36 87.7599L179.853 86.9937L189.62 142.49L189.404 142.459C189.285 142.44 176.999 140.675 152.788 136.631C136.626 133.934 131.55 131.509 129.109 130.351C127.856 129.757 127.348 129.509 126.389 129.723C126.029 129.776 125.684 129.904 125.375 130.098C125.067 130.292 124.802 130.548 124.597 130.85C124.228 131.538 124.117 132.335 124.284 133.098C124.528 133.441 127.307 137.231 130.121 137.18C130.572 137.14 131.042 137.136 131.518 137.136Z" fill="#263238"/>
<path d="M192.643 145.153C188.438 144.905 180.257 142.773 160.057 138.618C139.856 134.464 124.732 131.949 124.732 131.949L124.305 133.409C125.004 134.329 127.505 137.366 130.099 137.309C150.5 136.854 185.656 146.638 189.736 146.638C193.815 146.638 196.848 146.277 196.848 145.407C196.848 145.332 194.74 145.278 192.643 145.153Z" fill="#263238"/>
<path d="M189.736 146.789C188.501 146.789 184.491 145.913 178.942 144.701C166.02 141.875 144.39 137.143 130.118 137.479C127.442 137.548 124.913 134.461 124.196 133.516L124.149 133.453L124.635 131.786L124.772 131.808C124.923 131.833 140.151 134.373 160.104 138.477C167.336 139.966 172.998 141.187 177.544 142.17C185.553 143.9 189.965 144.851 192.653 144.996C193.452 145.043 194.257 145.081 194.943 145.112C197.005 145.209 197.005 145.209 197.005 145.401C197.005 146.324 194.561 146.789 189.736 146.789ZM131.519 137.136C145.813 137.136 166.49 141.655 179.007 144.393C184.538 145.602 188.533 146.475 189.736 146.475C194.47 146.475 196.391 146.004 196.657 145.533C196.369 145.501 195.664 145.47 194.928 145.435C194.242 145.404 193.436 145.366 192.634 145.319C189.924 145.159 185.503 144.205 177.478 142.474C172.932 141.492 167.27 140.276 160.041 138.782C141.1 134.885 126.424 132.401 124.857 132.138L124.494 133.394C125.239 134.364 127.605 137.162 130.043 137.162H130.112C130.572 137.14 131.042 137.136 131.519 137.136Z" fill="#263238"/>
<path d="M58.0731 85.4081C58.0731 85.4081 56.5879 85.9042 56.3435 87.0189C56.0991 88.1336 41.8706 145.282 43.2305 145.423C44.5904 145.564 119.552 146.051 120.417 145.175C121.282 144.299 124.13 133.136 124.13 133.136L117.813 141.699L52.7496 140.088L60.5422 86.7834L58.0731 85.4081Z" fill="#90CAF9"/>
<path d="M90.2118 145.847C68.7202 145.847 43.6222 145.611 43.2118 145.574C43.181 145.571 43.1513 145.561 43.1247 145.546C43.0981 145.53 43.0754 145.508 43.0582 145.483C42.8326 145.169 42.1433 144.195 55.532 89.6754C55.9206 88.1054 56.1587 87.132 56.1869 86.9969C56.4501 85.81 57.9572 85.2919 58.0199 85.2731L58.0857 85.2511L60.7146 86.6986L52.9345 139.934L117.744 141.542L124.478 132.408L124.28 133.186C123.989 134.332 121.401 144.409 120.52 145.282C120.094 145.718 106.142 145.847 90.2118 145.847ZM43.3058 145.266C45.7905 145.335 118.687 145.872 120.326 145.046C120.953 144.418 122.867 137.391 123.773 133.89L117.895 141.859H117.813L52.571 140.245L52.5961 140.069L60.373 86.8713L58.0575 85.5965C57.7817 85.7033 56.6882 86.1805 56.4908 87.0692C56.4626 87.2073 56.2276 88.165 55.836 89.7539C44.509 135.89 43.0896 144.44 43.3058 145.266Z" fill="#263238"/>
<path d="M120.417 145.172C121.285 144.302 124.13 133.146 124.13 133.146L123.71 133.711L119.8 143.812L43.9732 144.792L43.218 145.42C44.5904 145.542 119.552 146.038 120.417 145.172Z" fill="#263238"/>
<path d="M90.2117 145.847C68.7202 145.847 43.6222 145.611 43.2117 145.574L42.8357 145.539L43.9261 144.628H43.9825L119.693 143.652L123.585 133.62L124.478 132.408L124.28 133.186C123.989 134.332 121.401 144.409 120.52 145.282C120.094 145.718 106.145 145.847 90.2117 145.847ZM43.6504 145.272C49.6037 145.363 118.503 145.85 120.317 145.049C120.943 144.368 122.773 137.73 123.704 134.166L119.906 143.963H119.803L44.0452 144.942L43.6504 145.272Z" fill="#263238"/>
<path d="M59.8059 84.6764L58.0732 85.4206L46.0757 143.558L119.8 143.806L124.747 131.039L55.4757 134.386L61.9084 84.554L59.8059 84.6764Z" fill="white"/>
<path d="M119.906 143.963H119.8L45.8813 143.715L57.9384 85.3107L59.7965 84.5226L62.0869 84.3876L62.065 84.576L55.6542 134.219L124.982 130.872L119.906 143.963ZM46.273 143.404L119.7 143.649L124.522 131.208L55.297 134.552L55.3221 134.367L61.7266 84.7204L59.8466 84.8335L58.2141 85.5337L46.273 143.404Z" fill="#263238"/>
<path d="M51.0232 136.245L47.6611 141.85L46.0757 143.558L119.8 143.806L124.747 131.039L55.4757 134.386L51.0232 136.245Z" fill="#E0E0E0"/>
<path d="M119.906 143.963H119.8L45.7153 143.715L47.5358 141.752L50.9167 136.119L55.4694 134.235L124.982 130.878L119.906 143.963ZM46.4329 143.404L119.693 143.649L124.516 131.208L55.5101 134.543L51.1235 136.37L47.7708 141.956L46.4329 143.404Z" fill="#263238"/>
<path d="M124.747 131.039V119.634L65.2484 126.203L60.7959 134.015L124.747 131.039Z" fill="#B8B8B8"/>
<path d="M60.5171 134.185L65.1513 126.058H65.2328L124.904 119.464V131.189H124.754L60.5171 134.185ZM65.3456 126.351L61.0717 133.843L124.591 130.888V119.81L65.3456 126.351Z" fill="#263238"/>
<path d="M62.5257 78.3556L60.7961 78.6037L51.0232 136.245C51.0232 136.245 59.0633 135.617 69.9485 133.023C80.8337 130.429 102.977 126.451 110.4 127.569C117.823 128.687 124.13 133.136 124.13 133.136C124.13 133.136 133.392 134.979 143.782 137.086C154.173 139.193 169.636 142.424 179.903 144.154C190.171 145.884 192.644 145.143 192.644 145.143L179.903 85.766L178.666 85.4081L185.468 139.206C185.468 139.206 142.567 127.321 136.87 127.321C131.174 127.321 128.097 121.245 116.707 119.016C105.318 116.786 92.5806 121.245 81.8239 123.098C75.0796 124.291 68.4253 125.949 61.9084 128.059L64.7535 78.3494L62.5257 78.3556Z" fill="#E0E0E0"/>
<path d="M190.538 145.473C188.689 145.473 185.415 145.253 179.885 144.318C171.237 142.87 158.929 140.358 149.04 138.326L143.751 137.249C133.48 135.168 124.193 133.318 124.099 133.299L124.039 133.274C123.977 133.23 117.672 128.822 110.375 127.723C102.836 126.589 79.9815 130.784 69.9861 133.174C63.7529 134.695 57.4204 135.773 51.0357 136.402L50.8352 136.417L50.8697 136.22L60.6613 78.4624L62.5413 78.1986H64.9352L62.0933 127.842C68.5502 125.77 75.1388 124.136 81.8145 122.95C84.5279 122.482 87.326 121.857 90.2901 121.195C99.1042 119.223 108.216 117.188 116.754 118.862C122.918 120.071 126.674 122.41 129.695 124.288C132.274 125.895 134.31 127.164 136.886 127.164C142.379 127.164 181.574 137.959 185.299 138.989L178.478 85.1851L180.044 85.653L180.063 85.744L192.825 145.263L192.687 145.304C192.64 145.319 192.089 145.473 190.538 145.473ZM124.193 132.998C124.801 133.12 133.843 134.92 143.814 136.942L149.103 138.019C158.988 140.038 171.293 142.547 179.929 144.007C188.724 145.495 191.801 145.15 192.462 145.034L179.769 85.901L178.851 85.6247L185.653 139.416L185.428 139.353C184.998 139.234 142.476 127.475 136.861 127.475C134.194 127.475 132.123 126.184 129.504 124.551C126.508 122.686 122.777 120.363 116.657 119.166C108.197 117.505 99.1105 119.534 90.3371 121.496C87.3699 122.159 84.5687 122.787 81.8458 123.258C75.1098 124.452 68.4632 126.107 61.9523 128.209L61.7329 128.285L64.5874 78.5001H62.5382L60.9308 78.7293L51.2175 136.059C57.5173 135.42 63.7661 134.35 69.9203 132.857C80.2603 130.385 102.748 126.263 110.428 127.399C117.547 128.483 123.726 132.674 124.193 132.998Z" fill="#263238"/>
<path d="M55.4757 134.386L51.0232 136.245L60.7961 78.6037L64.7535 78.3556L55.4757 134.386Z" fill="white"/>
<path d="M50.8193 136.499L60.6611 78.4529L64.9413 78.186L55.6165 134.499L50.8193 136.499ZM60.9275 78.7512L51.2141 135.99L55.3251 134.273L64.5559 78.5252L60.9275 78.7512Z" fill="#263238"/>
<path d="M123.262 70.6688C123.262 70.6688 124.378 68.6844 134.52 71.2968C144.663 73.9093 155.285 80.4531 163.945 81.6902C172.606 82.9274 178.287 84.152 178.287 84.152L190.04 143.903C190.04 143.903 170.873 141.3 152.813 136.477C134.752 131.654 127.097 128.426 124.747 131.038L123.262 70.6688Z" fill="white"/>
<path d="M190.24 144.101L190.024 144.07C189.833 144.044 170.635 141.41 152.772 136.628C148.473 135.479 144.807 134.43 141.576 133.51C131.6 130.662 126.587 129.233 124.863 131.145L124.6 131.434L123.105 70.6313L123.127 70.5936C123.174 70.5057 124.415 68.5337 134.558 71.1368C139.189 72.3269 143.926 74.3396 148.507 76.2833C154.044 78.6351 159.27 80.8582 163.967 81.5302C172.531 82.7548 178.271 83.9982 178.327 84.0108L178.428 84.0328L190.24 144.101ZM127.527 129.949C130.253 129.949 134.693 131.205 141.674 133.208C144.904 134.128 148.567 135.174 152.866 136.326C169.67 140.826 187.687 143.423 189.849 143.727L178.161 84.2965C177.359 84.127 171.857 82.9777 163.923 81.8411C159.186 81.1628 153.941 78.9334 148.385 76.5753C143.817 74.6316 139.089 72.6252 134.479 71.4414C125.393 69.1052 123.632 70.4994 123.422 70.7223L124.895 130.696C125.499 130.178 126.352 129.949 127.527 129.949Z" fill="#263238"/>
<path d="M175.103 91.688C155.137 87.292 153.937 87.1602 153.894 87.157V86.843C153.919 86.843 154.768 86.8933 175.159 91.3835L175.103 91.688Z" fill="#263238"/>
<path d="M175.542 94.266C172.997 93.7039 170.654 93.1827 168.551 92.7117C165.891 92.1182 163.594 91.6064 161.764 91.2139C154.852 89.7287 154.129 89.6659 154.1 89.6628L154.116 89.3488C154.141 89.3488 154.79 89.3959 161.83 90.9188C163.66 91.3113 165.957 91.8262 168.617 92.4197L175.611 93.9708L175.542 94.266Z" fill="#263238"/>
<path d="M175.98 96.847C173.33 96.263 170.713 95.6664 168.401 95.1389C165.935 94.5768 163.807 94.0933 162.059 93.7165C155.272 92.2595 154.342 92.1779 154.304 92.1747L154.326 91.8607C154.36 91.8607 155.266 91.9361 162.125 93.4087C163.873 93.7855 166.004 94.2722 168.473 94.8343C170.782 95.3587 173.398 95.9553 176.049 96.5393L175.98 96.847Z" fill="#263238"/>
<path d="M176.406 99.4282C173.9 98.8787 171.346 98.2821 168.868 97.7043C166.442 97.1423 164.149 96.6085 162.344 96.2191C155.711 94.7936 154.511 94.6899 154.511 94.6868L154.533 94.3728C154.58 94.3728 155.739 94.4733 162.426 95.9114C164.233 96.3008 166.527 96.8314 168.955 97.3966C171.434 97.9712 173.997 98.5678 176.475 99.1173L176.406 99.4282Z" fill="#263238"/>
<path d="M176.861 102.009C174.58 101.507 172.011 100.898 169.529 100.31C166.975 99.7076 164.563 99.133 162.651 98.7405C156.184 97.3494 154.727 97.2176 154.711 97.2176L154.736 96.9036C154.793 96.9036 156.209 97.0323 162.717 98.4328C164.632 98.8441 167.044 99.4156 169.61 100.022C172.092 100.609 174.658 101.215 176.936 101.717L176.861 102.009Z" fill="#263238"/>
<path d="M177.3 104.59C175.25 104.138 172.716 103.529 170.262 102.939C167.668 102.311 164.982 101.664 162.949 101.227C156.648 99.8709 154.934 99.7139 154.915 99.7139L154.943 99.3999C155.012 99.3999 156.682 99.5569 163.015 100.92C165.051 101.359 167.737 102.006 170.337 102.631C172.788 103.221 175.319 103.834 177.365 104.283L177.3 104.59Z" fill="#263238"/>
<path d="M177.738 107.171C175.924 106.773 173.552 106.192 171.039 105.576C168.276 104.898 165.399 104.198 163.243 103.73C157.118 102.411 155.141 102.229 155.122 102.226L155.147 101.912C155.166 101.912 157.155 102.094 163.309 103.419C165.484 103.89 168.348 104.59 171.114 105.269C173.621 105.881 175.993 106.462 177.804 106.861L177.738 107.171Z" fill="#263238"/>
<path d="M178.177 109.752C176.61 109.404 174.295 108.832 171.86 108.226C168.912 107.492 165.863 106.735 163.541 106.233C157.588 104.951 155.347 104.741 155.325 104.741L155.354 104.427C155.376 104.427 157.628 104.641 163.607 105.925C165.932 106.427 168.984 107.181 171.935 107.922C174.37 108.528 176.667 109.099 178.243 109.445L178.177 109.752Z" fill="#263238"/>
<path d="M178.615 112.334C177.262 112.035 175.059 111.48 172.731 110.892C169.729 110.132 166.327 109.272 163.836 108.735C158.058 107.479 155.554 107.256 155.529 107.253L155.557 106.939C155.582 106.939 158.102 107.181 163.901 108.431C166.408 108.968 169.801 109.828 172.806 110.588C175.134 111.175 177.334 111.731 178.684 112.029L178.615 112.334Z" fill="#263238"/>
<path d="M179.054 114.924C177.92 114.676 175.921 114.167 173.633 113.577C170.431 112.754 166.803 111.825 164.133 111.247C158.531 110.041 155.761 109.778 155.736 109.774L155.764 109.46C155.792 109.46 158.584 109.727 164.199 110.939C166.875 111.517 170.506 112.447 173.712 113.269C176.009 113.856 177.992 114.368 179.123 114.616L179.054 114.924Z" fill="#263238"/>
<path d="M179.493 117.499C178.572 117.295 176.726 116.814 174.589 116.259C171.34 115.414 167.298 114.375 164.428 113.747C159.004 112.575 155.968 112.283 155.94 112.283L155.968 111.969C158.836 112.307 161.684 112.797 164.5 113.436C167.376 114.064 171.421 115.109 174.674 115.948C176.808 116.504 178.65 116.984 179.568 117.185L179.493 117.499Z" fill="#263238"/>
<path d="M179.935 120.08C179.211 119.92 177.61 119.496 175.583 118.962C172.305 118.099 167.815 116.915 164.726 116.246C161.892 115.61 159.028 115.124 156.143 114.792L156.175 114.478C159.07 114.813 161.947 115.3 164.791 115.938C167.887 116.607 172.38 117.794 175.664 118.661C177.685 119.191 179.283 119.603 180.001 119.772L179.935 120.08Z" fill="#263238"/>
<path d="M180.373 122.661C179.838 122.542 178.428 122.165 176.645 121.688C173.148 120.746 168.36 119.471 165.02 118.749C162.157 118.115 159.263 117.633 156.35 117.304L156.378 116.99C159.304 117.318 162.211 117.802 165.086 118.438C168.432 119.163 173.233 120.444 176.726 121.383C178.506 121.857 179.91 122.234 180.439 122.35L180.373 122.661Z" fill="#263238"/>
<path d="M180.812 125.242C180.449 125.16 179.33 124.859 177.782 124.438C174.48 123.54 168.946 122.039 165.318 121.251C162.42 120.621 159.492 120.143 156.544 119.816L156.576 119.502C159.532 119.827 162.469 120.308 165.374 120.943C169.012 121.728 174.549 123.233 177.854 124.131C179.399 124.551 180.514 124.853 180.869 124.931L180.812 125.242Z" fill="#263238"/>
<path d="M181.251 127.823C181.041 127.776 180.232 127.553 179.01 127.217C175.72 126.307 169.61 124.617 165.612 123.763C162.687 123.135 159.732 122.661 156.757 122.341L156.789 122.027C159.775 122.349 162.742 122.827 165.678 123.459C169.67 124.322 175.799 126.015 179.092 126.913C180.267 127.227 181.116 127.471 181.316 127.515L181.251 127.823Z" fill="#263238"/>
<path d="M181.689 130.404C181.608 130.385 181.179 130.266 180.405 130.049C177.403 129.205 170.378 127.223 165.91 126.259C162.96 125.634 159.979 125.161 156.98 124.843L157.008 124.529C160.025 124.851 163.023 125.325 165.991 125.952C170.469 126.922 177.503 128.9 180.505 129.745C181.198 129.94 181.699 130.081 181.774 130.097L181.689 130.404Z" fill="#263238"/>
<path d="M182.119 132.982C182.018 132.954 171.91 129.999 166.205 128.762C161.837 127.82 157.215 127.362 157.168 127.355L157.199 127.041C160.245 127.359 163.272 127.829 166.27 128.451C171.986 129.707 182.106 132.649 182.206 132.678L182.119 132.982Z" fill="#263238"/>
<path d="M150.713 86.2747C146.825 84.4817 144.089 82.918 141.893 81.662C139.609 80.3526 137.801 79.3227 135.808 78.6759C132.984 77.8225 130.068 77.3144 127.122 77.1624V76.8484C130.098 77.0005 133.044 77.514 135.896 78.3776C137.923 79.0338 139.74 80.0732 142.043 81.3888C144.237 82.6448 146.963 84.2148 150.839 85.9889L150.713 86.2747Z" fill="#263238"/>
<path d="M150.923 88.8244C147.436 87.2167 144.866 85.766 142.802 84.6011C140.392 83.2415 138.487 82.1676 136.253 81.4422C131.923 80.0324 127.53 79.8 127.191 79.8534L127.11 79.5394C127.317 79.4766 131.81 79.6587 136.35 81.1345C138.615 81.8693 140.53 82.9494 142.955 84.3185C145.12 85.5399 147.577 86.9278 151.055 88.5324L150.923 88.8244Z" fill="#263238"/>
<path d="M151.121 91.374C148.012 89.939 145.716 88.6611 143.688 87.5307C141.166 86.124 139.173 85.0187 136.688 84.2023C131.825 82.6134 127.486 82.4627 127.219 82.5412L127.125 82.2272C127.501 82.1079 131.995 82.3246 136.786 83.8914C139.292 84.7141 141.304 85.8288 143.842 87.2449C145.863 88.369 148.153 89.647 151.252 91.0757L151.121 91.374Z" fill="#263238"/>
<path d="M151.321 93.9269C148.57 92.6709 146.446 91.4903 144.572 90.4729C142.065 89.085 139.872 87.8887 137.124 86.9844C131.998 85.3013 127.696 85.1004 127.235 85.2479L127.141 84.9496C127.768 84.7487 132.201 85.0376 137.221 86.6861C140 87.5967 142.187 88.8024 144.722 90.1966C146.602 91.2265 148.711 92.3946 151.45 93.6506L151.321 93.9269Z" fill="#263238"/>
<path d="M151.518 96.4797C149.109 95.3681 147.163 94.3099 145.446 93.3774C142.839 91.9581 140.589 90.7366 137.556 89.735C132.067 87.9263 127.843 87.7411 127.251 87.9295L127.157 87.6312C127.918 87.3862 132.411 87.7097 137.657 89.4367C140.715 90.4446 142.983 91.6755 145.596 93.101C147.307 94.043 149.25 95.0855 151.647 96.1939L151.518 96.4797Z" fill="#263238"/>
<path d="M151.716 99.0293C149.629 98.0685 147.94 97.161 146.311 96.2818C143.632 94.8437 141.316 93.6003 137.992 92.5138C132.186 90.5922 128.025 90.3943 127.267 90.6298L127.173 90.3315C128.128 90.0175 132.596 90.3912 138.089 92.2155C141.442 93.3239 143.88 94.6333 146.458 96.0181C148.084 96.8941 149.77 97.7985 151.848 98.7562L151.716 99.0293Z" fill="#263238"/>
<path d="M151.913 101.579C150.13 100.76 148.62 99.9557 147.163 99.1801C144.541 97.7891 142.065 96.4734 138.427 95.2645C132.452 93.2832 128.219 93.0163 127.282 93.3177L127.188 93.0037C128.31 92.6458 132.69 93.0037 138.525 94.9536C142.187 96.172 144.675 97.4908 147.298 98.8912C148.755 99.6637 150.262 100.461 152.036 101.281L151.913 101.579Z" fill="#263238"/>
<path d="M152.111 104.132C150.613 103.441 149.291 102.741 147.997 102.066C145.34 100.668 142.827 99.3496 138.86 98.0308C132.484 95.905 128.385 95.6633 127.298 96.0087L127.204 95.7103C128.611 95.2613 133.21 95.8171 138.96 97.7325C142.952 99.0607 145.59 100.449 148.144 101.789C149.425 102.461 150.751 103.158 152.242 103.846L152.111 104.132Z" fill="#263238"/>
<path d="M152.308 106.682C151.074 106.113 149.977 105.542 148.814 104.939C145.768 103.282 142.583 101.895 139.295 100.794C133.073 98.7154 128.72 98.2538 127.313 98.7028L127.219 98.4045C128.723 97.9241 133.069 98.3857 139.396 100.496C142.698 101.602 145.898 102.995 148.959 104.659C150.118 105.262 151.211 105.831 152.44 106.396L152.308 106.682Z" fill="#263238"/>
<path d="M152.505 109.231C151.515 108.776 150.591 108.289 149.61 107.796C146.448 106.107 143.148 104.69 139.746 103.56C132.837 101.246 128.748 100.951 127.345 101.397L127.251 101.099C128.767 100.615 132.872 100.929 139.847 103.262C143.269 104.396 146.589 105.819 149.77 107.517C150.744 108.019 151.669 108.493 152.653 108.949L152.505 109.231Z" fill="#263238"/>
<path d="M152.703 111.784C151.935 111.429 151.18 111.043 150.378 110.638C147.098 108.922 143.682 107.479 140.166 106.324C131.446 103.4 128.294 103.786 127.345 104.091L127.251 103.777C129.319 103.121 134.063 103.934 140.263 106.013C143.795 107.171 147.226 108.62 150.519 110.346C151.318 110.751 152.07 111.134 152.834 111.486L152.703 111.784Z" fill="#263238"/>
<path d="M152.907 114.334C152.336 114.07 151.744 113.772 151.117 113.458C147.735 111.723 144.22 110.261 140.605 109.087C132.371 106.32 128.861 106.308 127.367 106.785L127.273 106.471C129.466 105.768 134.125 106.565 140.705 108.779C144.334 109.962 147.863 111.432 151.258 113.175C151.885 113.489 152.474 113.784 153.038 114.045L152.907 114.334Z" fill="#263238"/>
<path d="M153.098 116.887C152.703 116.701 152.286 116.494 151.804 116.259C149.886 115.317 146.988 113.863 141.034 111.863C134.223 109.567 129.629 108.77 127.376 109.486L127.282 109.187C129.629 108.44 134.16 109.216 141.135 111.564C147.107 113.577 150.018 115.018 151.942 115.982C152.424 116.221 152.838 116.428 153.229 116.61L153.098 116.887Z" fill="#263238"/>
<path d="M153.295 119.436C153.048 119.32 152.769 119.185 152.443 119.025C150.748 118.19 147.909 116.792 141.476 114.629C134.27 112.199 129.792 111.42 127.398 112.183L127.304 111.869C129.764 111.084 134.298 111.869 141.577 114.318C148.034 116.497 150.886 117.901 152.587 118.739C152.9 118.899 153.189 119.034 153.433 119.147L153.295 119.436Z" fill="#263238"/>
<path d="M153.492 121.986L153.016 121.757C151.763 121.154 148.877 119.738 141.905 117.383C134.285 114.808 129.949 114.054 127.411 114.871L127.313 114.572C129.924 113.74 134.316 114.494 142.006 117.084C148.996 119.449 151.91 120.868 153.154 121.48C153.342 121.575 153.496 121.65 153.624 121.706L153.492 121.986Z" fill="#263238"/>
<path d="M153.69 124.539L153.508 124.451C151.121 123.295 147.364 121.848 142.338 120.146C134.401 117.461 130.08 116.711 127.426 117.559L127.329 117.245C130.093 116.365 134.329 117.091 142.438 119.838C147.476 121.543 151.246 122.994 153.643 124.156L153.821 124.24L153.69 124.539Z" fill="#263238"/>
<path d="M153.884 127.085C153.859 127.085 151.258 125.788 142.773 122.912C134.407 120.086 130.24 119.355 127.442 120.249L127.345 119.951C130.227 119.031 134.435 119.753 142.874 122.614C151.387 125.5 154 126.793 154.025 126.806L153.884 127.085Z" fill="#263238"/>
<path d="M123.262 70.6688L124.747 131.038C124.747 131.038 120.295 121.867 108.42 122.246C96.5442 122.626 70.3213 131.792 66.1195 132.659C61.9177 133.525 55.4756 134.392 55.4756 134.392L62.5256 76.751C62.5256 76.751 93.6866 71.0425 100.267 69.058C106.847 67.0735 112.515 64.976 116.72 65.9588C120.925 66.9417 123.262 67.6953 123.262 70.6688Z" fill="white"/>
<path d="M55.2969 134.568L55.3219 134.367L62.3845 76.616L62.4973 76.5941C62.8106 76.5375 93.7366 70.873 100.21 68.9136C101.058 68.6561 101.894 68.3997 102.717 68.1443C108.26 66.4236 113.057 64.9384 116.748 65.8113C120.887 66.7878 123.425 67.5446 123.425 70.672L124.929 131.761L124.616 131.114C124.572 131.023 120.063 122.033 108.432 122.4C99.7087 122.674 83.2493 127.701 73.4138 130.703C69.8481 131.792 67.2693 132.587 66.1539 132.809C61.9928 133.67 55.5695 134.54 55.5005 134.549L55.2969 134.568ZM62.6665 76.8767L55.6572 134.204C56.7789 134.047 62.3469 133.262 66.0818 132.495C67.1847 132.269 69.8888 131.444 73.3135 130.398C83.1647 127.39 99.6335 122.356 108.407 122.08C118.537 121.766 123.359 128.426 124.569 130.417L123.099 70.6689C123.099 67.7707 120.774 67.0799 116.666 66.1127C113.044 65.2587 108.297 66.7407 102.798 68.4395C101.977 68.6907 101.144 68.9513 100.292 69.2088C93.9998 71.1116 64.7407 76.4967 62.6665 76.8767Z" fill="#263238"/>
<path d="M92.9418 78.4825L69.7429 83.7015L69.8119 84.0093L93.0107 78.7903L92.9418 78.4825Z" fill="#263238"/>
<path d="M69.0931 86.4285L69.0242 86.1145C74.097 84.9684 83.7508 82.7798 84.0234 82.695C84.3368 82.5946 92.0009 80.8864 92.3268 80.811L92.3926 81.125C89.6384 81.753 84.3618 82.9243 84.1174 83.009C83.7728 83.1127 69.6916 86.2935 69.0931 86.4285Z" fill="#263238"/>
<path d="M68.8392 89.0097L68.7703 88.6957C68.9144 88.6611 83.2243 85.3924 83.8917 85.182C84.5591 84.9716 91.9507 83.3294 92.2671 83.2572L92.3361 83.5712C92.2577 83.5712 84.603 85.2919 83.9857 85.4866C83.3058 85.7221 69.4314 88.8621 68.8392 89.0097Z" fill="#263238"/>
<path d="M68.5887 91.5907L68.5166 91.2767C68.6576 91.2453 82.7545 87.986 83.7634 87.6689C84.7034 87.3737 91.9101 85.7692 92.2077 85.7032L92.2767 86.0172C92.2015 86.0361 84.7817 87.6846 83.8574 87.9766C82.8391 88.2969 69.1683 91.4589 68.5887 91.5907Z" fill="#263238"/>
<path d="M68.3348 94.175L68.2627 93.861C68.4037 93.8296 82.2875 90.5796 83.6317 90.1557C84.885 89.7632 91.8536 88.2152 92.1512 88.1493L92.217 88.4633C92.145 88.4633 84.9602 90.0741 83.7257 90.4635C82.369 90.8905 68.905 94.0399 68.3348 94.175Z" fill="#263238"/>
<path d="M68.0809 96.7528L68.0088 96.4388C68.1467 96.4074 81.8205 93.1701 83.5031 92.6394C85.0698 92.1496 91.8065 90.655 92.0916 90.5922L92.1605 90.9062C92.0885 90.9219 85.1419 92.4762 83.5971 92.9472C81.902 93.481 68.6449 96.621 68.0809 96.7528Z" fill="#263238"/>
<path d="M67.8272 99.337L67.7551 99.023C67.8899 98.9916 81.3507 95.7669 83.3717 95.1294C85.2517 94.5391 91.9664 93.0539 92.0322 93.0382L92.1011 93.3522C92.0322 93.3679 85.3206 94.85 83.4657 95.434C81.4353 96.084 67.9619 99.3025 67.8272 99.337Z" fill="#263238"/>
<path d="M67.5733 101.918L67.5012 101.604C67.6328 101.573 80.8837 98.3574 83.24 97.6163C85.4333 96.9287 91.9099 95.4968 91.9757 95.4843L92.0415 95.7983C91.9757 95.814 85.5022 97.2426 83.334 97.924C80.9683 98.6682 67.708 101.884 67.5733 101.918Z" fill="#263238"/>
<path d="M67.3196 104.499L67.2476 104.185C67.376 104.151 80.4076 100.948 83.1116 100.103C85.5995 99.3183 91.8536 97.9429 91.9163 97.9272L91.9852 98.2412C91.9194 98.2412 85.681 99.6291 83.2119 100.408C80.4984 101.259 67.4512 104.468 67.3196 104.499Z" fill="#263238"/>
<path d="M67.0688 107.074L66.9905 106.76C67.1221 106.729 79.9468 103.535 82.9705 102.578C85.7717 101.695 91.7877 100.38 91.8472 100.364L91.9161 100.678C91.8566 100.678 85.8531 102.006 83.0645 102.876C80.0314 103.852 67.1973 107.049 67.0688 107.074Z" fill="#263238"/>
<path d="M66.8151 109.661L66.7368 109.347C66.8653 109.316 79.477 106.132 82.8516 105.071C85.9598 104.091 91.7408 102.826 91.8004 102.813L91.8661 103.127C91.8097 103.127 86.0413 104.402 82.9424 105.375C79.5647 106.446 66.9405 109.63 66.8151 109.661Z" fill="#263238"/>
<path d="M66.5612 112.243L66.4829 111.929C66.6082 111.897 79.0162 108.726 82.7198 107.558C86.1414 106.481 91.6843 105.272 91.7407 105.259L91.8065 105.573C91.7532 105.573 86.2198 106.788 82.8138 107.862C79.0946 109.037 66.6866 112.211 66.5612 112.243Z" fill="#263238"/>
<path d="M66.3076 114.824L66.2292 114.51C66.3514 114.478 78.5432 111.319 82.5884 110.044C86.3202 108.867 91.6312 107.715 91.675 107.702L91.7409 108.016C91.6876 108.016 86.3923 109.178 82.673 110.349C78.6279 111.63 66.4266 114.792 66.3076 114.824Z" fill="#263238"/>
<path d="M66.0537 117.405L65.9753 117.091C66.0944 117.059 78.0731 113.91 82.4598 112.531C86.5018 111.256 91.5747 110.157 91.6248 110.148L91.6906 110.462C91.6405 110.462 86.5801 111.567 82.5538 112.836C78.1609 114.221 66.1759 117.373 66.0537 117.405Z" fill="#263238"/>
<path d="M65.8 119.986L65.7185 119.672C65.8376 119.637 77.6032 116.5 82.3252 115.012C86.6774 113.643 91.5152 112.6 91.5622 112.588L91.628 112.902C91.581 112.902 86.7588 113.951 82.4192 115.32C77.7066 116.808 65.919 119.948 65.8 119.986Z" fill="#263238"/>
<path d="M65.5492 122.567L65.4678 122.253C65.5837 122.221 77.1363 119.094 82.1966 117.499C86.8622 116.029 91.4619 115.043 91.5089 115.034L91.5716 115.348C91.5277 115.348 86.9405 116.34 82.2906 117.803C77.224 119.408 65.6652 122.535 65.5492 122.567Z" fill="#263238"/>
<path d="M65.2953 125.148L65.2139 124.834C65.3267 124.803 76.6693 121.694 82.0681 119.986C87.0407 118.416 91.4054 117.474 91.4493 117.474L91.5151 117.788C91.4712 117.788 87.1284 118.73 82.1621 120.3C76.7665 121.998 65.4081 125.117 65.2953 125.148Z" fill="#263238"/>
<path d="M95.7451 77.7433L95.6479 77.4293C96.5315 77.1467 117.324 70.5527 120.48 74.0287L120.248 74.2422C117.227 70.9264 95.9581 77.6743 95.7451 77.7433Z" fill="#263238"/>
<path d="M95.6762 80.2458L95.5791 79.9475C95.6543 79.9224 102.977 77.5674 109.491 76.3397C112.255 75.8247 118.86 74.8199 120.489 76.616L120.257 76.8295C119.201 75.6614 115.197 75.5955 109.547 76.6474C103.055 77.872 95.7483 80.2207 95.6762 80.2458Z" fill="#263238"/>
<path d="M95.6072 82.7484L95.5132 82.4501C95.5853 82.425 103.033 80.0041 109.466 78.8109C115.04 77.7998 119.374 77.9474 120.498 79.1877L120.267 79.4012C119.229 78.2551 114.909 78.1452 109.522 79.1217C103.118 80.3086 95.6824 82.7233 95.6072 82.7484Z" fill="#263238"/>
<path d="M95.5414 85.251L95.4412 84.9527C95.5195 84.9276 103.099 82.425 109.438 81.2852C114.736 80.3432 119.392 80.5316 120.508 81.7593L120.276 81.9729C119.245 80.8362 114.611 80.6729 109.494 81.5929C103.177 82.7296 95.6166 85.2259 95.5414 85.251Z" fill="#263238"/>
<path d="M95.4726 87.7536L95.3755 87.4396C95.4507 87.4145 103.162 84.8428 109.413 83.7407C114.53 82.8395 119.408 83.0907 120.517 84.3153L120.285 84.5288C119.389 83.5397 115 83.075 109.466 84.0484C103.24 85.1631 95.5666 87.7285 95.4726 87.7536Z" fill="#263238"/>
<path d="M95.4067 90.2594L95.3064 89.9611C95.3847 89.9328 103.224 87.2921 109.388 86.2276C114.833 85.2856 119.543 85.8194 120.53 86.9027L120.295 87.1163C119.511 86.2496 115.194 85.5463 109.441 86.5385C103.303 87.6061 95.485 90.2311 95.4067 90.2594Z" fill="#263238"/>
<path d="M95.3378 92.7619L95.2375 92.4636C95.3159 92.4353 103.287 89.7255 109.363 88.6956C115.209 87.7128 119.693 88.548 120.539 89.49L120.307 89.7035C119.596 88.9185 115.347 88.0236 109.413 89.0253C103.365 90.0301 95.4161 92.7337 95.3378 92.7619Z" fill="#263238"/>
<path d="M95.269 95.2645L95.1687 94.9662C95.2502 94.938 103.353 92.1622 109.334 91.1731C115.316 90.184 119.797 91.2202 120.549 92.046L120.317 92.2596C119.624 91.4965 115.141 90.5325 109.388 91.4808C103.428 92.4668 95.3504 95.2363 95.269 95.2645Z" fill="#263238"/>
<path d="M95.203 97.7671L95.0996 97.4719C95.1811 97.4405 103.415 94.5988 109.309 93.6442C115.156 92.7022 119.806 93.7918 120.558 94.6176L120.32 94.828C119.693 94.1372 115.206 93.0037 109.353 93.952C103.5 94.9002 95.2845 97.7388 95.203 97.7671Z" fill="#263238"/>
<path d="M95.1342 100.27L95.0308 99.9745C95.1154 99.9431 103.491 97.0355 109.284 96.1155C115.238 95.1735 119.887 96.4295 120.564 97.1893L120.332 97.4029C119.831 96.8502 115.419 95.4623 109.328 96.4263C103.557 97.3401 95.2188 100.241 95.1342 100.27Z" fill="#263238"/>
<path d="M95.0653 102.772L94.9619 102.477C95.0465 102.446 103.541 99.4722 109.259 98.5898C115.448 97.6321 120.035 99.1644 120.577 99.761L120.345 99.9746C119.969 99.5601 115.727 97.9053 109.306 98.8975C103.619 99.7799 95.1499 102.744 95.0653 102.772Z" fill="#263238"/>
<path d="M94.9962 105.278L94.8928 104.98C94.9806 104.948 103.607 101.912 109.231 101.061C115.758 100.072 120.182 101.887 120.586 102.317L120.354 102.53C120.019 102.157 115.654 100.392 109.278 101.356C103.682 102.216 95.084 105.247 94.9962 105.278Z" fill="#263238"/>
<path d="M94.9398 107.781L94.8333 107.482C94.921 107.454 103.679 104.342 109.215 103.532C115.695 102.59 120.245 104.505 120.605 104.904L120.373 105.118C120.176 104.898 115.936 102.857 109.262 103.843C103.744 104.656 95.0181 107.749 94.9398 107.781Z" fill="#263238"/>
<path d="M94.8617 110.283L94.7551 109.988C94.846 109.953 103.732 106.791 109.168 106.003C115.629 105.061 120.223 107.068 120.593 107.476L120.361 107.689C120.107 107.435 115.774 105.369 109.212 106.314C103.81 107.096 94.94 110.252 94.8617 110.283Z" fill="#263238"/>
<path d="M94.7926 112.786L94.6892 112.491C94.7769 112.459 103.798 109.241 109.153 108.478C115.927 107.536 120.401 109.812 120.614 110.048L120.386 110.261C120.032 109.947 115.639 107.894 109.197 108.788C103.873 109.548 94.8835 112.754 94.7926 112.786Z" fill="#263238"/>
<path d="M94.7269 115.288L94.6204 114.993C94.7112 114.962 103.861 111.677 109.128 110.949C115.883 110.029 120.408 112.378 120.627 112.619L120.395 112.833C120.373 112.833 116.077 110.321 109.172 111.263C103.936 111.982 94.8178 115.257 94.7269 115.288Z" fill="#263238"/>
<path d="M94.6578 117.791L94.5513 117.496C94.6453 117.461 103.926 114.114 109.102 113.414C116.099 112.472 120.558 115.131 120.602 115.156L120.439 115.426C120.395 115.398 116.027 112.808 109.143 113.728C104.001 114.419 94.7487 117.75 94.6578 117.791Z" fill="#263238"/>
<path d="M148.771 136.882C148.771 136.882 147.799 136.64 146.289 136.323L146.355 136.009C147.871 136.323 148.84 136.568 148.862 136.571L148.771 136.882Z" fill="#263238"/>
<path d="M145.164 136.094C143.842 135.833 142.742 134.885 141.579 133.896C140.113 132.64 138.597 131.318 136.466 131.255C132.282 131.177 128.119 131.872 124.186 133.306L124.064 133.353L123.995 133.24C123.515 132.507 122.987 131.807 122.413 131.145L122.648 130.941C123.205 131.583 123.721 132.259 124.193 132.967C128.132 131.557 132.293 130.871 136.475 130.941C138.716 131.007 140.276 132.354 141.786 133.657C142.914 134.631 143.98 135.541 145.233 135.799L145.164 136.094Z" fill="#263238"/>
<path d="M121.595 130.235C120.819 129.422 119.981 128.672 119.089 127.99L119.277 127.742C120.182 128.432 121.03 129.193 121.815 130.018L121.595 130.235Z" fill="#263238"/>
<path d="M119.095 127.99C117.834 127.018 116.44 126.232 114.956 125.657C108.514 123.207 101.345 125.047 100.542 125.264L100.461 124.95C101.266 124.73 108.526 122.868 115.062 125.355C116.574 125.941 117.993 126.741 119.277 127.732L119.095 127.99Z" fill="#263238"/>
<path d="M82.2938 129.735L82.2249 129.421C82.4003 129.381 99.8405 125.478 107.292 125.653C110.196 125.695 113.076 126.207 115.817 127.17L115.711 127.465C112.997 126.513 110.148 126.009 107.273 125.974C99.8624 125.801 82.4693 129.698 82.2938 129.735Z" fill="#263238"/>
<path d="M118.534 128.819C118.075 128.518 117.592 128.257 117.089 128.037L117.218 127.751C117.736 127.982 118.235 128.252 118.712 128.558L118.534 128.819Z" fill="#263238"/>
<path d="M117.502 133.631L70.155 135.902L70.17 136.215L117.517 133.944L117.502 133.631Z" fill="#263238"/>
<path d="M121.957 133.411L119.371 133.535L119.386 133.848L121.971 133.724L121.957 133.411Z" fill="#263238"/>
<path d="M84.9359 138.065L82.1763 138.135L82.1842 138.449L84.9438 138.379L84.9359 138.065Z" fill="#263238"/>
<path d="M80.5938 138.179L58.7051 138.734L58.713 139.048L80.6017 138.492L80.5938 138.179Z" fill="#263238"/>
<path d="M115.116 139.837L112.684 139.91L112.694 140.224L115.125 140.151L115.116 139.837Z" fill="#263238"/>
<path d="M110.729 139.966L79.897 140.893L79.9064 141.207L110.738 140.28L110.729 139.966Z" fill="#263238"/>
<path d="M102.367 137.168L95.9094 137.389L95.9201 137.703L102.377 137.482L102.367 137.168Z" fill="#263238"/>
<path d="M120.151 136.559L104.136 137.108L104.147 137.422L120.161 136.872L120.151 136.559Z" fill="#263238"/>
<path d="M74.6617 140.717L72.4285 140.778L72.4371 141.092L74.6703 141.031L74.6617 140.717Z" fill="#263238"/>
<path d="M71.0348 140.816L50.2561 141.387L50.2647 141.701L71.0434 141.13L71.0348 140.816Z" fill="#263238"/>
<path d="M87.4578 72.3111C87.4578 72.3111 92.0638 66.2415 94.9778 63.7138C97.8918 61.1861 102.864 57.2014 104.885 57.2014C106.906 57.2014 107.408 58.4574 107.536 58.9064C107.665 59.3555 109.353 65.7359 109.353 66.0531C109.353 66.3702 107.589 66.8758 107.473 66.4958C107.358 66.1159 106.59 60.6774 106.277 59.6663C105.963 58.6552 106.023 58.0963 103.626 59.098C101.229 60.0996 94.1631 67.6953 92.7092 69.46C91.2554 71.2247 89.8704 73.0647 89.8704 73.0647C89.8704 73.0647 88.1534 72.3111 87.4578 72.3111Z" fill="#263238"/>
<path d="M89.9048 73.2657L89.792 73.2154C89.7763 73.2154 88.1094 72.4681 87.4576 72.4681H87.1443L87.3354 72.2169C87.3824 72.1573 91.9853 66.1065 94.8554 63.5945C97.1146 61.6257 102.614 57.0444 104.863 57.0444C106.922 57.0444 107.508 58.3161 107.664 58.8656C107.752 59.1796 109.497 65.692 109.497 66.0531C109.497 66.4142 108.442 66.7094 108.16 66.7565C107.661 66.835 107.373 66.7565 107.301 66.5461C107.251 66.3891 107.129 65.6261 106.916 64.2884C106.652 62.6117 106.289 60.3132 106.101 59.7134L106.032 59.4811C105.929 59.1231 105.85 58.8531 105.653 58.7714C105.371 58.6364 104.754 58.7714 103.66 59.2424C101.335 60.2221 94.3478 67.6859 92.8062 69.5668C91.3743 71.3157 89.9862 73.1464 89.9706 73.1652L89.9048 73.2657ZM87.7522 72.1855C88.4571 72.3496 89.1444 72.582 89.8045 72.8795C90.1178 72.4744 91.3273 70.8887 92.5744 69.3689C93.9562 67.6796 101.063 60.0023 103.541 58.9536C104.769 58.4355 105.402 58.3036 105.788 58.4888C106.101 58.6427 106.214 58.9912 106.333 59.3932C106.355 59.4654 106.377 59.5407 106.402 59.6192C106.596 60.2472 106.944 62.4452 107.226 64.2382C107.395 65.3026 107.539 66.3074 107.599 66.4362C107.763 66.4817 107.936 66.4817 108.1 66.4362C108.493 66.3926 108.869 66.2488 109.19 66.0186C109.168 65.7046 107.527 59.5125 107.361 58.9379C107.194 58.3632 106.643 57.3459 104.854 57.3459C102.661 57.3459 96.7918 62.3008 95.0497 63.8206C92.5242 66.0468 88.6138 71.0677 87.7522 72.1855Z" fill="#263238"/>
<path d="M165.421 78.5001C165.274 78.2866 165.077 78.0385 164.939 78.004C164.716 77.9475 163.237 80.4657 162.874 81.0875C163.073 80.8354 163.3 80.6068 163.551 80.4061C163.551 80.5945 162.792 84.3248 162.1 86.0958C161.407 87.8667 161.592 88.6894 162.288 88.6266C162.983 88.5638 163.927 85.4018 164.481 83.6309C164.975 81.9588 165.29 80.2389 165.421 78.5001Z" fill="white"/>
<path d="M162.216 88.7867C162.113 88.7917 162.011 88.7715 161.918 88.7277C161.825 88.6839 161.745 88.6179 161.683 88.5355C161.37 88.1273 161.473 87.2795 161.953 86.0392C162.511 84.6168 163.112 81.9038 163.319 80.8362L162.99 81.1942L161.994 82.268L162.733 80.9963C164.613 77.7496 164.832 77.803 164.97 77.8375C165.108 77.872 165.233 77.9474 165.544 78.3964L165.575 78.4435V78.5C165.448 80.2517 165.133 81.9845 164.635 83.6685L164.494 84.1175C163.667 86.7174 162.981 88.7082 162.301 88.771L162.216 88.7867ZM163.56 80.2396L163.607 80.2553L163.707 80.293V80.406C163.707 80.6258 162.94 84.375 162.244 86.1522C161.639 87.6971 161.824 88.1995 161.931 88.3502C161.971 88.3993 162.024 88.4367 162.083 88.4582C162.143 88.4798 162.207 88.4848 162.269 88.4727C162.805 88.4224 163.748 85.4583 164.199 84.0359L164.344 83.5837C164.824 81.946 165.131 80.262 165.258 78.5597C165.175 78.4209 165.069 78.2967 164.945 78.1923C164.428 78.8354 163.965 79.5202 163.56 80.2396Z" fill="#263238"/>
<path d="M165.381 77.1813C165.127 76.0414 163.501 77.4953 162.792 78.5095C162.084 79.5237 158.945 82.9337 157.177 84.6419C155.41 86.3501 148.786 92.0397 148.091 92.5453C147.395 93.0508 146.577 93.9363 146.073 93.9991C145.568 94.0619 144.243 93.9991 143.613 93.6192C142.983 93.2392 142.673 92.5453 139.637 90.9031C136.601 89.2608 123.485 85.4646 122.538 85.4081C121.592 85.3515 120.834 86.2935 119.509 86.8619C118.183 87.4302 115.977 87.5558 115.031 86.7331C114.085 85.9105 112.947 83.8255 112.318 82.3089C111.688 80.7923 110.676 80.4249 109.792 79.9068C108.908 79.3887 98.3116 74.7321 96.3532 74.0821C94.3949 73.4321 92.4428 73.0082 91.5592 72.9454C90.988 72.9125 90.4149 72.9547 89.8547 73.071C89.8547 73.071 89.7293 73.2594 89.228 72.8826C88.7267 72.5058 87.0817 71.8056 86.5772 72.8167C86.0728 73.8277 85.3239 76.1702 85.7563 77.0557L86.1981 77.9411C86.1981 77.9411 85.7563 83.6308 85.9474 85.5902C86.1385 87.5495 87.652 90.0804 88.9116 91.597C90.1712 93.1136 95.2221 95.9585 98.9382 96.8439C102.654 97.7294 104.932 97.2239 105.941 96.5299C106.95 95.836 110.043 92.3569 110.801 91.5342C111.559 90.7115 111.493 90.206 113.953 90.9659C116.413 91.7257 117.3 93.4936 117.741 94.8218C118.183 96.15 119.822 101.46 121.147 103.168C122.806 105.412 125.026 107.179 127.583 108.289C130.801 109.68 132.944 110.754 135.974 110.377C139.004 110.001 140.643 108.606 141.589 106.961C142.535 105.316 143.156 102.031 143.469 101.017C143.729 100.344 144.192 99.7701 144.795 99.3748C144.795 99.3748 146.048 98.8064 146.436 97.921C146.825 97.0355 149.78 94.3162 149.78 94.3162C149.78 94.3162 154.574 90.5231 156.404 88.435C158.233 86.3469 163.56 80.2145 163.56 80.406C163.56 80.5976 162.802 84.3248 162.109 86.0957C161.417 87.8667 161.602 88.6894 162.297 88.6266C162.993 88.5638 163.936 85.4018 164.491 83.6308C165.045 81.8599 165.631 78.3179 165.381 77.1813ZM111.75 87.6061C111.638 87.9888 111.468 88.352 111.246 88.6831C110.867 89.2514 108.341 93.2989 106.765 94.5612C105.189 95.8234 103.359 96.9005 101.464 96.7121C99.568 96.5237 94.7145 94.6899 91.1237 91.8451C87.5329 89.0002 87.0222 85.2668 87.4013 81.6652C87.7804 78.0636 89.0432 75.5924 90.9357 75.2156C92.8282 74.8388 99.0824 76.4151 103.366 78.6916C107.649 80.9681 111.315 83.7501 111.566 84.6984C111.816 85.6467 111.75 87.6061 111.75 87.6061ZM141.971 100.574C141.592 103.862 140.837 105.762 139.7 107.278C138.562 108.795 137.24 109.492 133.706 109.162C130.171 108.832 127.524 107.517 125.061 105.749C122.598 103.981 121.78 101.639 120.834 99.425C119.888 97.2113 118.249 92.7871 119.195 90.005C120.141 87.223 122.918 87.9201 122.918 87.9201C122.918 87.9201 125.252 88.4256 125.424 88.4884C125.597 88.5512 139.559 92.6615 140.189 93.6097C140.818 94.558 142.351 97.2867 141.971 100.574Z" fill="#263238"/>
<path d="M134.768 110.61C132.521 110.61 130.666 109.803 128.241 108.744L127.524 108.43C124.942 107.311 122.702 105.528 121.028 103.262C119.819 101.692 118.381 97.2772 117.763 95.3869C117.698 95.1797 117.638 95.0038 117.594 94.8688C117.177 93.6128 116.341 91.8607 113.912 91.1008C111.882 90.4728 111.682 90.7209 111.193 91.3081C111.111 91.4085 111.024 91.5153 110.917 91.6221L110.447 92.137C109.3 93.393 106.909 96.0369 106.032 96.6398C105.518 96.9946 103.482 98.0685 98.9038 96.9789C95.2409 96.106 90.0991 93.2549 88.7894 91.6786C87.4295 90.0458 85.9694 87.5275 85.7876 85.587C85.6059 83.703 85.9944 78.522 86.0352 77.9505L85.6153 77.1058C85.139 76.1638 85.9286 73.746 86.4362 72.7287C86.506 72.5837 86.6081 72.4567 86.7347 72.3576C86.8613 72.2585 87.009 72.1899 87.1663 72.1572C87.9496 71.9719 88.9742 72.4712 89.3189 72.7381C89.5884 72.9391 89.7106 72.9453 89.7419 72.9422L89.7607 72.9139L89.8202 72.8982C90.3958 72.7776 90.9848 72.7343 91.5718 72.7695C92.5306 72.8386 94.561 73.319 96.4034 73.9156C98.3586 74.5436 109.018 79.2536 109.877 79.7434L110.215 79.9318C111.002 80.362 111.895 80.8456 112.468 82.224C113.129 83.816 114.26 85.8288 115.138 86.5918C116.015 87.3548 118.127 87.2606 119.455 86.6923C119.921 86.4778 120.368 86.2236 120.79 85.9324C121.417 85.5305 121.934 85.1882 122.554 85.2259C123.563 85.2918 136.764 89.1415 139.719 90.746C141.874 91.9141 142.655 92.5986 143.165 93.0508C143.328 93.2046 143.504 93.3434 143.692 93.4652C144.274 93.8169 145.572 93.886 146.054 93.8263C146.346 93.7887 146.819 93.3805 147.279 92.988C147.517 92.7839 147.765 92.5703 148 92.4008C148.671 91.9109 155.285 86.2338 157.068 84.51C158.788 82.8458 161.972 79.4075 162.664 78.3995C163.143 77.7024 164.347 76.4621 165.067 76.6003C165.19 76.6286 165.301 76.6947 165.384 76.7893C165.467 76.8839 165.518 77.0023 165.531 77.1278C165.804 78.3556 165.189 81.9603 164.644 83.659L164.503 84.108C163.676 86.708 162.99 88.6987 162.31 88.7615C162.193 88.782 162.073 88.77 161.962 88.7268C161.852 88.6836 161.755 88.6109 161.683 88.5166C161.37 88.1084 161.473 87.2606 161.953 86.0203C162.51 84.5979 163.112 81.8818 163.319 80.8173C162.413 81.7813 159.759 84.824 158.077 86.7551L156.538 88.548C154.721 90.6235 149.94 94.4104 149.893 94.4481C148.884 95.3744 146.885 97.3149 146.596 97.99C146.198 98.932 144.929 99.5035 144.876 99.5254C144.31 99.9004 143.872 100.441 143.623 101.073C143.544 101.328 143.441 101.745 143.309 102.229C142.955 103.655 142.423 105.809 141.705 107.049C140.549 109.062 138.675 110.189 135.974 110.541C135.574 110.588 135.171 110.611 134.768 110.61ZM112.173 90.432C112.798 90.4744 113.414 90.6033 114.003 90.8151C116.573 91.6064 117.45 93.4527 117.892 94.7715C117.936 94.9065 117.995 95.0855 118.061 95.2927C118.672 97.1767 120.101 101.573 121.273 103.07C122.915 105.295 125.115 107.045 127.649 108.145L128.367 108.459C131.187 109.683 133.201 110.569 135.959 110.223C138.553 109.909 140.345 108.807 141.458 106.886C142.15 105.683 142.68 103.554 143.024 102.144C143.146 101.657 143.25 101.24 143.338 100.973C143.606 100.263 144.093 99.6567 144.729 99.2428C144.757 99.2271 145.957 98.6776 146.295 97.8612C146.681 96.9538 149.554 94.3162 149.676 94.2031C149.733 94.1592 154.489 90.388 156.291 88.3345L157.829 86.5729C163.397 80.183 163.428 80.1956 163.591 80.2584L163.692 80.2961V80.4091C163.692 80.6289 162.924 84.3781 162.228 86.1553C161.624 87.7002 161.809 88.2026 161.915 88.3533C161.955 88.4024 162.008 88.4398 162.067 88.4613C162.127 88.4829 162.191 88.4879 162.254 88.4758C162.789 88.4255 163.732 85.4614 164.184 84.039L164.328 83.5868C164.907 81.7813 165.446 78.3053 165.208 77.222C165.158 76.9928 165.058 76.9488 164.989 76.9331C164.525 76.8484 163.472 77.7747 162.902 78.6036C162.185 79.6492 159.02 83.0687 157.262 84.7612C155.504 86.4536 148.833 92.1873 148.16 92.6771C147.934 92.8404 147.693 93.0508 147.458 93.2517C146.941 93.6945 146.452 94.1121 146.067 94.1623C145.606 94.2188 144.212 94.1874 143.507 93.7604C143.302 93.6297 143.11 93.4804 142.933 93.3145C142.429 92.8686 141.661 92.1998 139.537 91.0443C136.604 89.4523 123.5 85.6309 122.504 85.565C121.987 85.5273 121.52 85.835 120.937 86.2213C120.5 86.5237 120.036 86.7864 119.552 87.0063C118.139 87.6123 115.883 87.7002 114.909 86.8524C113.934 86.0046 112.81 83.9448 112.155 82.3685C111.625 81.0936 110.82 80.6572 110.04 80.2333L109.698 80.0417C108.849 79.555 98.2364 74.867 96.2874 74.239C94.741 73.7093 93.1471 73.3307 91.5279 73.1086C90.9864 73.0778 90.4431 73.1158 89.9111 73.2217C89.8719 73.2493 89.8269 73.2676 89.7795 73.275C89.5314 73.2798 89.2915 73.1862 89.1121 73.0144C88.78 72.7632 87.8588 72.3393 87.2321 72.4869C87.1199 72.5101 87.0145 72.559 86.9243 72.6298C86.834 72.7007 86.7614 72.7914 86.712 72.8951C86.2106 73.8968 85.49 76.1858 85.891 76.9771L86.3516 77.9191V77.9599C86.3516 78.0196 85.913 83.659 86.101 85.5838C86.2796 87.4678 87.7021 89.9076 89.0306 91.5059C90.309 93.0476 95.3662 95.8422 98.9758 96.7026C103.431 97.7608 105.368 96.7465 105.869 96.4074C106.715 95.8265 109.087 93.2109 110.228 91.9549C110.428 91.7351 110.588 91.5561 110.701 91.4368C110.814 91.3175 110.886 91.2233 110.964 91.1228C111.302 90.6958 111.547 90.432 112.173 90.432ZM135.232 109.407C134.771 109.407 134.26 109.382 133.693 109.332C130.585 109.052 127.893 107.991 124.97 105.878C122.689 104.235 121.799 102.11 120.937 100.072C120.856 99.8771 120.774 99.6824 120.69 99.4909C119.437 96.5864 118.155 92.5829 119.045 89.9547C120.029 87.0722 122.927 87.7567 122.955 87.7567C123.19 87.807 125.299 88.2623 125.49 88.3282L125.822 88.4287C132.164 90.3284 139.831 92.7556 140.336 93.5123C140.84 94.2691 142.529 97.1171 142.128 100.571C141.774 103.639 141.085 105.667 139.825 107.35C138.86 108.66 137.77 109.407 135.232 109.407ZM122.147 88.0048C121.298 88.0048 119.954 88.3188 119.343 90.0678C118.44 92.7242 119.969 97.0386 120.978 99.3747C121.063 99.5694 121.144 99.7641 121.226 99.9588C122.069 101.965 122.943 104.041 125.155 105.633C128.028 107.702 130.67 108.744 133.721 109.018C137.25 109.332 138.503 108.619 139.574 107.184C140.8 105.548 141.47 103.567 141.815 100.559C142.2 97.2081 140.58 94.4669 140.076 93.707C139.947 93.5155 138.534 92.5892 125.731 88.749L125.39 88.6485C125.258 88.6045 123.823 88.2874 122.883 88.0833C122.642 88.0289 122.394 88.0026 122.147 88.0048ZM101.915 96.8973C101.759 96.8978 101.603 96.8904 101.448 96.8753C99.4678 96.6743 94.6142 94.8154 91.0203 91.9737C86.994 88.7866 86.947 84.5571 87.2384 81.6526C87.6394 77.8532 88.9711 75.4542 90.8981 75.0586C92.8251 74.6629 99.0855 76.2455 103.431 78.5502C107.558 80.7482 111.428 83.5931 111.713 84.6544C111.967 85.6152 111.907 87.5275 111.907 87.6091V87.6437C111.79 88.0422 111.612 88.4203 111.381 88.7647C111.34 88.8275 111.277 88.9279 111.19 89.0598C110.475 90.1651 108.298 93.5375 106.869 94.6804C104.995 96.1876 103.4 96.8973 101.915 96.8973ZM91.6344 75.3192C91.4075 75.3159 91.1809 75.3348 90.9576 75.3757C89.203 75.7274 87.9277 78.0855 87.5517 81.6871C87.0786 86.1836 88.241 89.3738 91.2146 91.7351C94.6268 94.4355 99.4928 96.3729 101.479 96.5707C103.024 96.7277 104.672 96.0557 106.668 94.4543C108.056 93.3428 110.212 90.005 110.923 88.906L111.114 88.6108C111.324 88.2996 111.485 87.9588 111.594 87.5997C111.594 87.4019 111.641 85.6215 111.409 84.7549C111.177 83.8882 107.58 81.125 103.284 78.8454C99.4176 76.7856 94.0252 75.3192 91.6344 75.3192Z" fill="#263238"/>
<path d="M116.444 88.8024C116.169 88.8039 115.895 88.7744 115.626 88.7145C113.377 88.2152 112.509 85.7786 111.935 84.1647L111.854 83.9354C111.318 82.4439 110.782 82.0514 110.779 82.0514L110.951 81.7939C110.976 81.8096 111.578 82.2178 112.148 83.8287L112.23 84.0579C112.781 85.6059 113.615 87.9452 115.695 88.4099C117.864 88.8903 120.082 87.0063 120.101 86.9875L120.308 87.2262C120.223 87.2921 118.44 88.8024 116.444 88.8024Z" fill="white"/>
<path d="M144.694 96.0119C143.953 95.9827 143.228 95.7931 142.567 95.4561C142.494 95.3933 142.436 95.3164 142.394 95.23C142.103 94.7339 141.21 93.233 137.478 91.5468C133.063 89.5529 122.968 87.0283 122.867 87.0032L122.943 86.6892C123.043 86.7143 133.167 89.2452 137.607 91.2516C141.426 92.9786 142.36 94.5424 142.664 95.0573C142.698 95.1138 142.736 95.1766 142.748 95.1923C142.877 95.274 144.716 96.0841 145.587 95.4404L145.775 95.6947C145.457 95.9113 145.079 96.0223 144.694 96.0119Z" fill="white"/>
<path d="M110.262 81.4737C110.262 81.4737 109.009 80.4406 103.798 78.0825C100.377 76.5729 96.8329 75.3626 93.2042 74.4652C92.8344 74.3679 92.543 74.2925 92.3362 74.2328C91.2186 73.9562 90.0458 74.0009 88.9522 74.3616C87.9966 74.6316 86.8341 73.6111 86.7871 73.5672L86.9939 73.3317C86.9939 73.3317 88.078 74.2737 88.8739 74.057C90.023 73.6811 91.2545 73.6376 92.4271 73.9314C92.6339 73.9911 92.9253 74.0664 93.2888 74.1606C96.9382 75.0616 100.503 76.2782 103.942 77.7967C109.203 80.18 110.428 81.1911 110.478 81.235L110.262 81.4737Z" fill="white"/>
<path d="M89.3754 91.2735C86.5115 88.7835 86.7308 84.5477 86.734 84.5068L87.0473 84.5257C87.0473 84.5665 86.8343 88.6516 89.5791 91.0349L89.3754 91.2735Z" fill="white"/>
</svg>
