<svg width="318" height="88" viewBox="0 0 318 88" fill="none" xmlns="http://www.w3.org/2000/svg">
<rect x="0.224609" y="38.75" width="311.109" height="32.625" fill="#D9D9D9"/>
<rect x="38.3184" y="42.7046" width="38.095" height="3.95455" fill="white"/>
<rect x="109.748" y="42.7046" width="38.095" height="3.95455" fill="white"/>
<rect x="181.178" y="42.7046" width="38.095" height="3.95455" fill="white"/>
<rect x="252.605" y="42.7046" width="38.095" height="3.95455" fill="white"/>
<rect x="38.3184" y="59.5115" width="38.095" height="3.95455" fill="white"/>
<rect x="109.748" y="59.5115" width="38.095" height="3.95455" fill="white"/>
<rect x="181.178" y="59.5115" width="38.095" height="3.95455" fill="white"/>
<rect x="252.605" y="59.5115" width="38.095" height="3.95455" fill="white"/>
<rect x="0.474609" y="33.375" width="308.387" height="4" fill="white" stroke="#263238" stroke-width="0.5"/>
<rect x="174.059" y="33.375" width="23.4315" height="4" fill="#656D71" stroke="#263238" stroke-width="0.5"/>
<rect x="141.584" y="33.375" width="23.4315" height="4" fill="#656D71" stroke="#263238" stroke-width="0.5"/>
<rect x="109.113" y="33.375" width="23.4315" height="4" fill="#656D71" stroke="#263238" stroke-width="0.5"/>
<rect x="80.4746" y="33.375" width="23.4315" height="4" fill="#656D71" stroke="#263238" stroke-width="0.5"/>
<rect x="51.5859" y="33.375" width="23.4315" height="4" fill="#656D71" stroke="#263238" stroke-width="0.5"/>
<rect x="22.6973" y="33.375" width="23.4315" height="4" fill="#656D71" stroke="#263238" stroke-width="0.5"/>
<rect x="0.474609" y="33.375" width="17.2777" height="4" fill="#656D71" stroke="#263238" stroke-width="0.5"/>
<rect x="208.111" y="33.375" width="23.4315" height="4" fill="#656D71" stroke="#263238" stroke-width="0.5"/>
<rect x="242.17" y="33.375" width="23.4315" height="4" fill="#656D71" stroke="#263238" stroke-width="0.5"/>
<rect x="276.227" y="33.375" width="23.4315" height="4" fill="#656D71" stroke="#263238" stroke-width="0.5"/>
<rect x="0.474609" y="67.125" width="317.276" height="9.625" fill="white" stroke="#263238" stroke-width="0.5"/>
<rect x="177.389" y="67.125" width="23.4315" height="9.625" fill="#656D71" stroke="#263238" stroke-width="0.5"/>
<rect x="144.92" y="67.125" width="23.4315" height="9.625" fill="#656D71" stroke="#263238" stroke-width="0.5"/>
<rect x="112.447" y="67.125" width="23.4315" height="9.625" fill="#656D71" stroke="#263238" stroke-width="0.5"/>
<rect x="79.3633" y="67.125" width="23.4315" height="9.625" fill="#656D71" stroke="#263238" stroke-width="0.5"/>
<rect x="43.8086" y="67.125" width="23.4315" height="9.625" fill="#656D71" stroke="#263238" stroke-width="0.5"/>
<rect x="9.36328" y="67.125" width="23.4315" height="9.625" fill="#656D71" stroke="#263238" stroke-width="0.5"/>
<rect x="211.445" y="67.125" width="23.4315" height="9.625" fill="#656D71" stroke="#263238" stroke-width="0.5"/>
<rect x="245.504" y="67.125" width="23.4315" height="9.625" fill="#656D71" stroke="#263238" stroke-width="0.5"/>
<rect x="279.561" y="67.125" width="23.4315" height="9.625" fill="#656D71" stroke="#263238" stroke-width="0.5"/>
<path opacity="0.32" d="M290.677 78.326C290.677 77.3181 291.667 76.5012 292.888 76.5012L314.377 76.5012C315.598 76.5012 316.588 77.3181 316.588 78.326C316.588 79.3338 315.598 80.1507 314.377 80.1507H310.182C308.961 80.1507 307.971 80.9676 307.971 81.9754C307.971 82.9833 308.961 83.8002 310.182 83.8002H315.364C316.585 83.8002 317.574 84.617 317.574 85.6249C317.574 86.6327 316.585 87.4496 315.364 87.4496L297.501 87.4496C296.28 87.4496 295.291 86.6327 295.291 85.6249C295.291 84.617 296.28 83.8002 297.501 83.8002H298.948C300.169 83.8002 301.158 82.9833 301.158 81.9754C301.158 80.9676 300.169 80.1507 298.948 80.1507H292.888C291.667 80.1507 290.677 79.3338 290.677 78.326Z" fill="white"/>
<path d="M304.405 76.5011H307.189L307.189 2.14918C307.189 1.8444 307.043 1.5521 306.782 1.33659C306.521 1.12108 306.167 1 305.797 1C305.428 1 305.074 1.12108 304.813 1.33659C304.552 1.5521 304.405 1.8444 304.405 2.14918L304.405 76.5011H304.405Z" fill="#414042"/>
<path d="M298.712 76.5011H312.918M295.292 76.5011H296.195M304.406 76.5011H307.19L307.19 2.14918C307.19 1.8444 307.044 1.5521 306.783 1.33659C306.522 1.12108 306.168 1 305.798 1C305.429 1 305.075 1.12108 304.814 1.33659C304.553 1.5521 304.406 1.8444 304.406 2.14918L304.406 76.5011H304.406Z" stroke="#2A2A2A" stroke-width="0.5" stroke-miterlimit="10" stroke-linecap="round" stroke-linejoin="round"/>
<path d="M283.155 13.7727C285.184 13.8384 287.208 13.97 289.225 14.1671V9.15365C287.208 8.95668 285.184 8.82512 283.155 8.75928V13.7727ZM283.155 23.7996C285.184 23.8654 287.208 23.9969 289.225 24.194V19.1806C287.208 18.9836 285.184 18.8521 283.155 18.7862V23.7996Z" fill="#2A2A2A"/>
<path d="M277.07 13.7727C279.098 13.7069 281.127 13.7069 283.154 13.7727V8.75928C281.127 8.69352 279.098 8.69352 277.07 8.75928V13.7727Z" fill="white"/>
<path d="M277.07 18.7861C279.098 18.7203 281.127 18.7203 283.154 18.7861V13.7727C281.127 13.7069 279.098 13.7069 277.07 13.7727V18.7861Z" fill="#2A2A2A"/>
<path d="M277.07 23.7997C279.098 23.7339 281.127 23.7339 283.154 23.7997V18.7863C281.127 18.7205 279.098 18.7205 277.07 18.7863V23.7997Z" fill="white"/>
<path d="M271.001 14.1671C273.017 13.97 275.042 13.8384 277.07 13.7727V8.75928C275.042 8.82503 273.017 8.95659 271.001 9.15365V14.1671Z" fill="#2A2A2A"/>
<path d="M271.001 19.1805C273.017 18.9835 275.042 18.8519 277.07 18.7861V13.7727C275.042 13.8385 273.017 13.97 271.001 14.1671V19.1805Z" fill="white"/>
<path d="M271.001 24.1939C273.017 23.9969 275.042 23.8654 277.07 23.7995V18.7861C275.042 18.8519 273.017 18.9835 271.001 19.1805V24.1939Z" fill="#2A2A2A"/>
<path d="M271.001 24.194C277.054 23.6025 283.171 23.6025 289.225 24.194V9.15382C283.171 8.56233 277.054 8.56233 271.001 9.15382V24.194Z" stroke="#2A2A2A" stroke-width="0.5" stroke-miterlimit="10" stroke-linecap="round" stroke-linejoin="round"/>
<path opacity="0.41" d="M289.225 9.15368C287.389 8.97421 285.545 8.84905 283.698 8.77844V23.8186C285.545 23.8892 287.389 24.0144 289.225 24.1939V9.15368Z" fill="#2A2A2A"/>
<path d="M298.338 9.47556C300.367 9.54131 302.392 9.67287 304.408 9.86993V4.85654C302.392 4.65956 300.367 4.528 298.338 4.46216V9.47556ZM298.338 19.5025C300.367 19.5683 302.392 19.6998 304.408 19.8969V14.8835C302.392 14.6865 300.367 14.555 298.338 14.4891V19.5025Z" fill="#2A2A2A"/>
<path d="M292.254 9.47568C294.281 9.40992 296.311 9.40992 298.338 9.47568V4.46228C296.311 4.39652 294.281 4.39652 292.254 4.46228V9.47568Z" fill="white"/>
<path d="M292.254 14.489C294.281 14.4232 296.311 14.4232 298.338 14.489V9.47559C296.311 9.40983 294.281 9.40983 292.254 9.47559V14.489Z" fill="#2A2A2A"/>
<path d="M292.254 19.5025C294.281 19.4368 296.311 19.4368 298.338 19.5025V14.4891C296.311 14.4234 294.281 14.4234 292.254 14.4891V19.5025Z" fill="white"/>
<path d="M286.182 9.86993C288.198 9.67296 290.223 9.5414 292.252 9.47556V4.46216C290.223 4.52791 288.198 4.65948 286.182 4.85654V9.86993Z" fill="#2A2A2A"/>
<path d="M286.182 14.8834C288.198 14.6864 290.223 14.5548 292.252 14.489V9.47559C290.223 9.54134 288.198 9.6729 286.182 9.86996V14.8834Z" fill="white"/>
<path d="M286.182 19.8969C288.198 19.6999 290.223 19.5684 292.252 19.5025V14.4891C290.223 14.5549 288.198 14.6865 286.182 14.8835V19.8969Z" fill="#2A2A2A"/>
<path d="M298.338 14.489C300.367 14.5547 302.392 14.6863 304.408 14.8834V9.86996C302.392 9.67298 300.367 9.54143 298.338 9.47559V14.489Z" fill="white"/>
<path d="M286.185 19.8969C292.238 19.3054 298.355 19.3054 304.408 19.8969V4.8567C298.355 4.26521 292.238 4.26521 286.185 4.8567V19.8969Z" stroke="#2A2A2A" stroke-width="0.5" stroke-miterlimit="10" stroke-linecap="round" stroke-linejoin="round"/>
</svg>
