<svg width="31" height="31" viewBox="0 0 31 31" fill="none" xmlns="http://www.w3.org/2000/svg">
<path d="M22.2812 6.4585C22.2812 5.92375 22.7153 5.48975 23.25 5.48975H27.125C27.6597 5.48975 28.0938 5.92375 28.0938 6.4585C28.0938 6.99325 27.6597 7.42725 27.125 7.42725H23.25C22.7153 7.42725 22.2812 6.99325 22.2812 6.4585ZM27.125 14.5314H12.9167C12.3819 14.5314 11.9479 14.9654 11.9479 15.5002C11.9479 16.0349 12.3819 16.4689 12.9167 16.4689H27.125C27.6597 16.4689 28.0938 16.0349 28.0938 15.5002C28.0938 14.9654 27.6597 14.5314 27.125 14.5314ZM3.875 16.4689H7.75C8.28475 16.4689 8.71875 16.0349 8.71875 15.5002C8.71875 14.9654 8.28475 14.5314 7.75 14.5314H3.875C3.34025 14.5314 2.90625 14.9654 2.90625 15.5002C2.90625 16.0349 3.34025 16.4689 3.875 16.4689ZM3.875 7.42725H18.0833C18.6181 7.42725 19.0521 6.99325 19.0521 6.4585C19.0521 5.92375 18.6181 5.48975 18.0833 5.48975H3.875C3.34025 5.48975 2.90625 5.92375 2.90625 6.4585C2.90625 6.99325 3.34025 7.42725 3.875 7.42725ZM27.125 23.5731H23.25C22.7153 23.5731 22.2812 24.0071 22.2812 24.5418C22.2812 25.0766 22.7153 25.5106 23.25 25.5106H27.125C27.6597 25.5106 28.0938 25.0766 28.0938 24.5418C28.0938 24.0071 27.6597 23.5731 27.125 23.5731ZM18.0833 23.5731H3.875C3.34025 23.5731 2.90625 24.0071 2.90625 24.5418C2.90625 25.0766 3.34025 25.5106 3.875 25.5106H18.0833C18.6181 25.5106 19.0521 25.0766 19.0521 24.5418C19.0521 24.0071 18.6181 23.5731 18.0833 23.5731Z" fill="white"/>
<path d="M17.1146 6.45833C17.1146 4.49888 18.7072 2.90625 20.6667 2.90625C22.6261 2.90625 24.2188 4.49888 24.2188 6.45833C24.2188 8.41779 22.6261 10.0104 20.6667 10.0104C18.7072 10.0104 17.1146 8.41779 17.1146 6.45833ZM10.3333 11.9479C8.37388 11.9479 6.78125 13.5405 6.78125 15.5C6.78125 17.4595 8.37388 19.0521 10.3333 19.0521C12.2928 19.0521 13.8854 17.4595 13.8854 15.5C13.8854 13.5405 12.2928 11.9479 10.3333 11.9479ZM20.6667 20.9896C18.7072 20.9896 17.1146 22.5822 17.1146 24.5417C17.1146 26.5011 18.7072 28.0938 20.6667 28.0938C22.6261 28.0938 24.2188 26.5011 24.2188 24.5417C24.2188 22.5822 22.6261 20.9896 20.6667 20.9896Z" fill="#91CAFE"/>
</svg>
