<svg width="20" height="20" viewBox="0 0 20 20" fill="none" xmlns="http://www.w3.org/2000/svg">
<path d="M11.8721 7.10862L11.2721 7.92062L12.1601 8.92062L13.0381 8.42663C13.275 8.58342 13.5311 8.70912 13.8001 8.80062L13.9501 9.80062L15.2901 9.88063L15.5581 8.91263C15.8356 8.8565 16.1045 8.76439 16.3581 8.63862L17.1581 9.23862L18.1581 8.34863L17.6621 7.47462C17.8199 7.23884 17.9444 6.98243 18.0321 6.71263L19.0321 6.56462L19.1141 5.22663L18.1441 4.95663C18.0886 4.67901 17.9964 4.41 17.8701 4.15663L18.4701 3.34662L17.5821 2.34662L16.7041 2.84063C16.4681 2.68623 16.2134 2.56256 15.9461 2.47263L15.7961 1.47263L14.4561 1.39062L14.2001 2.35463C13.9227 2.41075 13.6537 2.50286 13.4001 2.62863L12.6001 2.02863L11.6001 2.91663L12.0741 3.80063C11.9173 4.03654 11.7922 4.29207 11.7021 4.56062L10.7021 4.70863L10.6201 6.04863L11.6001 6.31462C11.6555 6.59009 11.747 6.85705 11.8721 7.10862ZM13.5201 4.10863C13.8228 3.84142 14.1979 3.66996 14.5981 3.6159C14.9982 3.56185 15.4054 3.62763 15.7681 3.80494C16.1309 3.98225 16.433 4.26312 16.6361 4.61205C16.8393 4.96098 16.9344 5.36231 16.9096 5.76532C16.8847 6.16832 16.7409 6.5549 16.4964 6.8762C16.2518 7.1975 15.9175 7.4391 15.5357 7.57045C15.1539 7.7018 14.7418 7.71701 14.3513 7.61417C13.9609 7.51132 13.6097 7.29502 13.3421 6.99262C13.1634 6.7915 13.0261 6.55703 12.9383 6.3027C12.8505 6.04837 12.8138 5.77918 12.8303 5.51062C12.8469 5.24206 12.9163 4.97941 13.0347 4.73778C13.1531 4.49615 13.318 4.2803 13.5201 4.10263V4.10863ZM1.72611 16.0646L3.09611 15.8446C3.32531 16.1575 3.59423 16.4392 3.89611 16.6826L3.61211 18.0426L5.30211 18.7886L6.11411 17.6646C6.49812 17.7222 6.88789 17.731 7.27411 17.6906L8.03811 18.8506L9.76011 18.1826L9.54011 16.8146C9.8563 16.5866 10.1408 16.3176 10.3861 16.0146L11.7381 16.2986L12.4861 14.6006L11.3621 13.8006C11.4282 13.4135 11.441 13.0192 11.4001 12.6286L12.5581 11.8706L11.8921 10.1466L10.5241 10.3666C10.2943 10.0531 10.0255 9.77016 9.7241 9.52462L10.0001 8.16663L8.3021 7.42062L7.49011 8.54463C7.10608 8.48678 6.7162 8.47871 6.33011 8.52062L5.56811 7.35862L3.84411 8.02863L4.06411 9.40063C3.74964 9.62929 3.46655 9.89826 3.22211 10.2006L1.86611 9.91463L1.12011 11.6006L2.24411 12.4006C2.18293 12.7863 2.17351 13.1784 2.21611 13.5666L1.05811 14.3386L1.72611 16.0646ZM4.23011 11.9706C4.45475 11.4614 4.82538 11.0302 5.2951 10.7316C5.76482 10.433 6.31255 10.2804 6.869 10.2931C7.42545 10.3058 7.96563 10.4833 8.42123 10.803C8.87682 11.1228 9.22737 11.5704 9.42852 12.0894C9.62968 12.6084 9.67241 13.1753 9.55131 13.7186C9.43022 14.2619 9.15073 14.757 8.74821 15.1414C8.34569 15.5259 7.8382 15.7823 7.28994 15.8782C6.74169 15.9742 6.17728 15.9054 5.66811 15.6806C4.98552 15.3792 4.45058 14.8191 4.18092 14.1234C3.91126 13.4276 3.92895 12.6533 4.23011 11.9706Z" fill="#263238"/>
</svg>
