<svg width="25" height="25" viewBox="0 0 25 25" fill="none" xmlns="http://www.w3.org/2000/svg">
<g id="Cart">
<path id="Vector" d="M20.9177 15.4639L24.0138 6.24759C24.0377 6.17529 24.044 6.09836 24.0323 6.02313C24.0206 5.94791 23.9912 5.87654 23.9465 5.81489C23.9021 5.75324 23.8436 5.70315 23.7758 5.66885C23.7081 5.63455 23.633 5.61703 23.5571 5.61778H6.1244L5.50421 3.11297C5.27824 2.31489 4.54267 1.7572 3.71574 1.7572H1.44171C1.17728 1.7572 0.960938 1.96874 0.960938 2.23797C0.960938 2.50239 1.17728 2.71874 1.44171 2.71874H3.71574C4.11478 2.71874 4.47055 2.98797 4.57151 3.35816L8.41286 18.8293C7.95081 18.9709 7.54639 19.257 7.25907 19.6456C6.97175 20.0342 6.81669 20.5047 6.81671 20.988C6.81671 22.2284 7.82632 23.2428 9.07151 23.2428C10.3119 23.2428 11.3215 22.2284 11.3215 20.988C11.3215 20.5072 11.1725 20.0601 10.9177 19.6947H18.5523C18.2927 20.0601 18.1436 20.5072 18.1436 20.988C18.1436 22.2284 19.1532 23.2428 20.3936 23.2428C21.6388 23.2428 22.6484 22.2284 22.6484 20.988C22.6484 19.7428 21.6388 18.7332 20.3936 18.7332C20.3744 18.7332 20.3504 18.7332 20.3311 18.738C20.3215 18.7332 20.3119 18.7332 20.3023 18.7332H9.37921L8.64844 15.7957H20.4609C20.6677 15.7957 20.8504 15.661 20.9177 15.4639Z" fill="#F3AF3E"/>
</g>
</svg>
