<svg width="30" height="64" viewBox="0 0 30 64" fill="none" xmlns="http://www.w3.org/2000/svg">
<g id="freepik--Plant--inject-30">
<path id="Vector" d="M14.7656 52.2427C14.7656 52.2427 17.3096 40.2118 12.6751 33.6988C8.04054 27.1857 16.862 33.6222 17.8808 39.723C17.8808 39.723 19.4001 28.8169 14.901 21.1496C10.402 13.4824 18.8171 19.7716 19.5356 27.6804C19.5356 27.6804 20.9136 17.952 18.8466 12.4813C16.7796 7.01052 20.3718 10.532 21.7557 13.9593C23.1395 17.3866 21.3258 25.8725 21.3258 25.8725C21.3258 25.8725 24.9297 10.1787 28.3453 11.4271C31.7608 12.6756 23.2396 22.9575 22.0619 28.3046C22.0619 28.3046 26.084 21.1084 29.1285 22.6101C32.173 24.1117 24.4174 24.8537 20.837 35.5655L19.5944 40.5946C19.5944 40.5946 23.2985 33.4926 25.7188 35.7363C28.1392 37.9799 18.5403 41.843 16.2967 52.6078L14.7656 52.2427Z" fill="#92E3A9"/>
<path id="Vector_2" d="M15.2661 52.9611C15.2661 52.9611 15.7961 37.7974 23.2926 31.3785C30.7891 24.9597 18.2989 30.0418 15.2661 37.0436C15.2661 37.0436 16.6912 23.5287 24.3585 15.6789C32.0258 7.82905 20.0773 12.8699 16.8679 22.1213C16.8679 22.1213 18.1163 10.0609 22.2209 4.13085C26.3254 -1.79921 20.9724 1.33366 18.2989 5.02597C15.6254 8.71827 15.2661 19.3947 15.2661 19.3947C15.2661 19.3947 15.6195 -0.474224 11.144 0.00866137C6.66844 0.491546 13.8175 15.3197 13.6408 22.0918C13.6408 22.0918 10.9614 12.2751 6.86278 13.1585C2.76414 14.0418 11.8565 17.2806 12.9283 31.1665V37.5677C12.9283 37.5677 10.6081 27.9571 7.03943 29.9122C3.47079 31.8673 13.8175 39.3697 13.2816 52.9258L15.2661 52.9611Z" fill="#92E3A9"/>
<path id="Vector_3" d="M18.9644 63.614H9.88384C8.16584 63.614 6.51821 62.9315 5.3034 61.7167C4.08859 60.5019 3.40612 58.8543 3.40612 57.1363V55.9173H25.4363V57.1363C25.4363 58.8533 24.7546 60.5 23.5411 61.7146C22.3275 62.9293 20.6814 63.6125 18.9644 63.614Z" fill="#90CAF9"/>
<path id="Vector_4" d="M3.00553 58.3612H25.8425C27.2117 58.3612 28.3217 57.2512 28.3217 55.882V53.9505C28.3217 52.5812 27.2117 51.4713 25.8425 51.4713H3.00553C1.6363 51.4713 0.526331 52.5812 0.526331 53.9505V55.882C0.526331 57.2512 1.6363 58.3612 3.00553 58.3612Z" fill="#90CAF9"/>
<path id="Vector_5" opacity="0.2" d="M3.00553 58.3612H25.8425C27.2117 58.3612 28.3217 57.2512 28.3217 55.882V53.9505C28.3217 52.5812 27.2117 51.4713 25.8425 51.4713H3.00553C1.6363 51.4713 0.526331 52.5812 0.526331 53.9505V55.882C0.526331 57.2512 1.6363 58.3612 3.00553 58.3612Z" fill="white"/>
</g>
</svg>
