<svg width="144" height="152" viewBox="0 0 144 152" fill="none" xmlns="http://www.w3.org/2000/svg">
<g id="Group 18">
<g id="freepik--Table--inject-30">
<path id="Vector" d="M71.2779 53.2152C71.1801 53.4175 71.1378 53.6421 71.1554 53.8661C71.1731 54.0901 71.2499 54.3054 71.3781 54.4899C71.5063 54.6744 71.6813 54.8215 71.8851 54.916C72.0889 55.0106 72.3142 55.0493 72.5379 55.0282H105.688C106.24 55.0016 106.771 54.8163 107.22 54.4947C107.668 54.1731 108.014 53.7288 108.215 53.2152L115.215 32.9861C115.285 32.7979 115.32 32.5988 115.32 32.3981C115.319 32.2254 115.282 32.0549 115.211 31.8974C115.14 31.7399 115.037 31.599 114.909 31.4836C114.78 31.3683 114.629 31.2811 114.465 31.2276C114.3 31.1742 114.127 31.1556 113.955 31.1732H80.8255C80.2744 31.1997 79.7427 31.385 79.2944 31.7066C78.8461 32.0282 78.5003 32.4726 78.2986 32.9861L71.2779 53.2152Z" fill="#263238"/>
<path id="Vector_2" d="M105.941 54.0132C106.211 54.0006 106.472 53.91 106.692 53.7522C106.912 53.5944 107.081 53.3763 107.179 53.1242L114.179 32.8951C114.209 32.8144 114.223 32.729 114.221 32.6431C114.221 32.3631 114.018 32.1881 113.696 32.1881H80.5806C80.3103 32.2007 80.0494 32.2913 79.8295 32.4491C79.6096 32.6069 79.4402 32.825 79.3417 33.0771L72.342 53.3062C72.3062 53.3879 72.2907 53.477 72.2968 53.566C72.3029 53.655 72.3304 53.7411 72.377 53.8172C72.4293 53.8847 72.4978 53.938 72.576 53.9722C72.6543 54.0065 72.7399 54.0205 72.825 54.0132H105.941Z" fill="#90CAF9"/>
<path id="Vector_3" opacity="0.8" d="M105.941 54.0132C106.211 54.0006 106.472 53.91 106.692 53.7522C106.912 53.5944 107.081 53.3763 107.179 53.1242L114.179 32.8951C114.209 32.8144 114.223 32.729 114.221 32.6431C114.221 32.3631 114.018 32.1881 113.696 32.1881H80.5806C80.3103 32.2007 80.0494 32.2913 79.8295 32.4491C79.6096 32.6069 79.4402 32.825 79.3417 33.0771L72.342 53.3062C72.3062 53.3879 72.2907 53.477 72.2968 53.566C72.3029 53.655 72.3304 53.7411 72.377 53.8172C72.4293 53.8847 72.4978 53.938 72.576 53.9722C72.6543 54.0065 72.7399 54.0205 72.825 54.0132H105.941Z" fill="white"/>
<path id="Vector_4" d="M57.0896 53.5303V54.4612L63.6553 56.1482H105.535C105.845 56.1482 106.142 56.025 106.361 55.8058C106.58 55.5866 106.703 55.2892 106.703 54.9792V53.5303H57.0896Z" fill="#263238"/>
<path id="Vector_5" opacity="0.2" d="M92.1301 53.5303V54.4612L98.7028 56.1482H63.6553L57.0896 54.4612V53.5303H92.1301Z" fill="white"/>
<g id="Group" opacity="0.2">
<path id="Vector_6" d="M112.093 36.941H78.5856L79.8876 33.2871H113.395L112.093 36.941Z" fill="#90CAF9"/>
</g>
<g id="Group_2" opacity="0.1">
<path id="Vector_7" d="M110.413 41.6447H76.9057C76.8077 41.6447 76.7587 41.5677 76.7937 41.4627C76.8127 41.4134 76.8451 41.3703 76.887 41.3382C76.929 41.3061 76.9791 41.2862 77.0317 41.2808H110.546C110.637 41.2808 110.686 41.3647 110.651 41.4627C110.634 41.5135 110.603 41.558 110.56 41.5904C110.518 41.6229 110.467 41.6418 110.413 41.6447Z" fill="black"/>
</g>
<g id="Group_3" opacity="0.1">
<path id="Vector_8" d="M108.579 46.7755H75.0718C74.9738 46.7755 74.9248 46.6915 74.9598 46.5935C74.9794 46.5432 75.0128 46.4994 75.0561 46.4672C75.0995 46.435 75.151 46.4157 75.2048 46.4115H108.712C108.81 46.4115 108.859 46.4885 108.824 46.5935C108.805 46.6438 108.771 46.6876 108.728 46.7197C108.685 46.7519 108.633 46.7713 108.579 46.7755Z" fill="black"/>
</g>
<g id="Group_4" opacity="0.1">
<path id="Vector_9" d="M106.752 51.9063H73.2449C73.1469 51.9063 73.0979 51.8223 73.1329 51.7243C73.1493 51.6727 73.1807 51.6272 73.2231 51.5936C73.2655 51.5599 73.3169 51.5396 73.3708 51.5353H106.878C106.976 51.5353 107.025 51.6193 106.99 51.7243C106.972 51.774 106.94 51.8175 106.898 51.8498C106.856 51.882 106.805 51.9016 106.752 51.9063Z" fill="black"/>
</g>
<path id="Vector_10" d="M95.6089 151.561H99.2558L105.815 60.257H100.971L95.6089 151.561Z" fill="#263238"/>
<path id="Vector_11" opacity="0.2" d="M95.6019 151.561H99.2558L105.492 64.7928L105.814 60.4039H100.971L100.712 64.7928L95.6019 151.561Z" fill="white"/>
<path id="Vector_12" opacity="0.2" d="M100.712 64.5758H105.493L105.815 60.4039H100.971L100.712 64.5758Z" fill="black"/>
<path id="Vector_13" d="M68.821 151.561H72.4679L73.0629 60.257H68.2261L68.821 151.561Z" fill="#263238"/>
<path id="Vector_14" opacity="0.3" d="M68.2191 60.4039L68.3171 75.1313L68.814 151.561H72.4679L72.9719 75.1313L73.0628 60.4039H68.2191Z" fill="white"/>
<path id="Vector_15" opacity="0.2" d="M68.2191 60.4039L68.3171 75.2993H72.9719L73.0628 60.4039H68.2191Z" fill="black"/>
<path id="Vector_16" d="M30.0707 151.561H33.7175L40.2762 60.257H35.4325L30.0707 151.561Z" fill="#263238"/>
<path id="Vector_17" opacity="0.3" d="M30.0707 151.561H33.7175L39.9613 64.7928L40.2762 60.4039H35.4325L35.1735 64.7928L30.0707 151.561Z" fill="white"/>
<path id="Vector_18" opacity="0.2" d="M35.1735 64.5758H39.9613L40.2763 60.4039H35.4325L35.1735 64.5758Z" fill="black"/>
<path id="Vector_19" d="M137.362 151.561H141.009L135.647 60.257H130.803L137.362 151.561Z" fill="#263238"/>
<path id="Vector_20" opacity="0.3" d="M130.803 60.4039L131.125 64.7928L137.362 151.561H141.009L135.906 64.7928L135.647 60.4039H130.803Z" fill="white"/>
<path id="Vector_21" opacity="0.2" d="M135.647 60.4039H130.803L131.125 64.5758H135.906L135.647 60.4039Z" fill="black"/>
<path id="Vector_22" d="M137.971 62.5458L33.1016 62.5458C32.9031 62.5458 32.7065 62.5067 32.523 62.4308C32.3396 62.3548 32.1729 62.2434 32.0325 62.103C31.8922 61.9626 31.7808 61.7959 31.7048 61.6125C31.6288 61.4291 31.5897 61.2324 31.5897 61.0339V57.975L139.497 57.975V61.0339C139.497 61.2336 139.458 61.4314 139.381 61.6158C139.304 61.8001 139.191 61.9674 139.049 62.108C138.907 62.2486 138.739 62.3596 138.554 62.4348C138.369 62.51 138.171 62.5477 137.971 62.5458Z" fill="#90CAF9"/>
<path id="Vector_23" opacity="0.2" d="M31.5967 60.257L139.483 60.257V57.9681L31.5967 57.9681V60.257Z" fill="black"/>
<path id="Vector_24" d="M29.3358 58.5629H141.744C142.086 58.5629 142.413 58.4273 142.655 58.1857C142.896 57.9442 143.032 57.6166 143.032 57.275C143.032 56.9334 142.896 56.6058 142.655 56.3643C142.413 56.1228 142.086 55.9871 141.744 55.9871H29.3358C28.9942 55.9871 28.6666 56.1228 28.4251 56.3643C28.1835 56.6058 28.0479 56.9334 28.0479 57.275C28.0479 57.6166 28.1835 57.9442 28.4251 58.1857C28.6666 58.4273 28.9942 58.5629 29.3358 58.5629Z" fill="#90CAF9"/>
<path id="Vector_25" d="M138.153 52.7463C138.202 53.8576 137.999 54.9657 137.558 55.9871H111.946V55.3782H112.464V50.0864H111.946V49.4774H137.558C137.996 50.5094 138.2 51.626 138.153 52.7463Z" fill="#263238"/>
<path id="Vector_26" opacity="0.2" d="M138.153 52.7463C138.202 53.8576 137.999 54.9657 137.558 55.9871H111.946V55.3782H112.464V50.0864H111.946V49.4774H137.558C137.996 50.5094 138.2 51.626 138.153 52.7463Z" fill="white"/>
<path id="Vector_27" opacity="0.2" d="M124.448 52.7463C124.497 53.8576 124.294 54.9657 123.853 55.9871H111.953V55.3782H112.471V50.0864H111.953V49.4774H123.853C124.291 50.5094 124.494 51.626 124.448 52.7463Z" fill="black"/>
<path id="Vector_28" opacity="0.8" d="M123.188 52.7462C123.228 53.6487 123.063 54.5487 122.705 55.3781H112.464V50.0863H122.705C123.06 50.9264 123.225 51.8348 123.188 52.7462Z" fill="white"/>
<path id="Vector_29" opacity="0.6" d="M133.981 52.7463C134.031 53.8576 133.827 54.9657 133.386 55.9871H128.62C129.06 54.9657 129.264 53.8576 129.214 52.7463C129.258 51.633 129.055 50.524 128.62 49.4984H133.386C133.822 50.524 134.025 51.633 133.981 52.7463Z" fill="white"/>
<path id="Vector_30" d="M140.435 46.2575C140.484 47.3689 140.281 48.477 139.84 49.4984H114.228V48.8894H114.746V43.6186H114.228V43.0096H139.84C140.274 44.0356 140.477 45.1444 140.435 46.2575Z" fill="#90CAF9"/>
<path id="Vector_31" opacity="0.2" d="M126.73 46.2575C126.779 47.3689 126.576 48.477 126.135 49.4984H114.235V48.8894H114.753V43.6186H114.235V43.0096H126.135C126.569 44.0356 126.772 45.1444 126.73 46.2575Z" fill="black"/>
<path id="Vector_32" opacity="0.8" d="M125.47 46.2575C125.51 47.1601 125.345 48.06 124.987 48.8894H114.746V43.6187H124.987C125.339 44.4522 125.504 45.3531 125.47 46.2575Z" fill="white"/>
<path id="Vector_33" opacity="0.2" d="M136.263 46.2575C136.312 47.3689 136.109 48.477 135.668 49.4984H130.901C131.342 48.477 131.546 47.3689 131.496 46.2575C131.538 45.1444 131.335 44.0356 130.901 43.0096H135.668C136.102 44.0356 136.305 45.1444 136.263 46.2575Z" fill="black"/>
</g>
<g id="freepik--Character--inject-30">
<g id="freepik--group--inject-30">
<path id="Vector_34" d="M54.5068 135.952L52.2529 146.381L46.9121 146.29L49.145 135.952H54.5068Z" fill="#EBB376"/>
<path id="Vector_35" opacity="0.2" d="M54.5138 135.952L53.3938 141.11L48.1021 140.753L49.145 135.952H54.5138Z" fill="black"/>
<path id="Vector_36" d="M53.0579 146.115H53.1699C53.1699 146.115 53.2889 146.157 53.3029 146.171C53.3094 146.174 53.3166 146.176 53.3239 146.176C53.3311 146.176 53.3383 146.174 53.3449 146.171C53.7994 146.317 54.269 146.411 54.7448 146.451C55.0966 146.516 55.4598 146.443 55.7597 146.248C55.8583 146.164 55.9296 146.053 55.9646 145.928C55.9995 145.803 55.9964 145.671 55.9557 145.548C55.9459 145.468 55.9165 145.392 55.8701 145.326C55.8237 145.26 55.7618 145.206 55.6898 145.17C55.1784 145.086 54.6536 145.182 54.2058 145.443C54.5227 145.114 54.7093 144.681 54.7308 144.225C54.7112 144.118 54.6566 144.02 54.5756 143.946C54.4947 143.873 54.3917 143.828 54.2828 143.819C54.1793 143.801 54.0732 143.804 53.9708 143.828C53.8685 143.852 53.7722 143.897 53.6878 143.959C53.1279 144.442 53.0369 145.954 53.0369 146.059L53.0579 146.115ZM53.6318 145.807L53.5269 145.87C53.4932 145.292 53.6506 144.719 53.9748 144.239C54.0109 144.205 54.0539 144.178 54.1009 144.161C54.1479 144.144 54.198 144.138 54.2478 144.141H54.3108C54.4858 144.141 54.5278 144.26 54.5278 144.337C54.4133 144.918 54.0956 145.439 53.6318 145.807ZM53.7088 146.073C54.3528 145.716 55.2698 145.331 55.6128 145.485C55.6473 145.503 55.677 145.528 55.699 145.56C55.721 145.592 55.7347 145.629 55.7387 145.667C55.7581 145.745 55.7574 145.826 55.7366 145.903C55.7157 145.98 55.6755 146.051 55.6198 146.108C55.3818 146.332 54.6818 146.318 53.7088 146.073Z" fill="#90CAF9"/>
<path id="Vector_37" d="M52.9318 145.464L46.9471 145.093C46.8974 145.087 46.847 145.091 46.7989 145.105C46.7508 145.119 46.7059 145.142 46.6669 145.173C46.6278 145.205 46.5953 145.243 46.5713 145.287C46.5473 145.331 46.5323 145.379 46.5271 145.429L45.9391 150.154C45.9255 150.402 46.0094 150.645 46.1729 150.832C46.3364 151.019 46.5665 151.135 46.8141 151.155C48.914 151.246 49.9079 151.19 52.5398 151.33C54.8783 151.579 57.2313 151.663 59.5815 151.582C61.8144 151.365 61.5414 149.16 60.5755 149.055C58.2936 148.796 55.2697 147.116 53.8348 145.842C53.5837 145.62 53.2663 145.487 52.9318 145.464Z" fill="#263238"/>
<path id="Vector_38" d="M85.7744 135.952L83.5205 146.381L78.1727 146.29L80.4126 135.952H85.7744Z" fill="#EBB376"/>
<path id="Vector_39" opacity="0.2" d="M85.7744 135.952L84.6545 141.11L79.3627 140.753L80.4056 135.952H85.7744Z" fill="black"/>
<path id="Vector_40" d="M84.3184 146.115H84.4304C84.4304 146.115 84.5494 146.157 84.5704 146.171C84.577 146.174 84.5842 146.176 84.5914 146.176C84.5987 146.176 84.6059 146.174 84.6124 146.171C85.0671 146.317 85.5367 146.41 86.0124 146.451C86.3664 146.517 86.7325 146.445 87.0343 146.248C87.1317 146.163 87.2016 146.052 87.2353 145.927C87.2689 145.802 87.2648 145.67 87.2233 145.548C87.2154 145.468 87.1867 145.39 87.1401 145.324C87.0935 145.258 87.0305 145.205 86.9573 145.17C86.446 145.086 85.9212 145.182 85.4734 145.443C85.7892 145.113 85.9777 144.681 86.0054 144.225C85.9832 144.118 85.927 144.02 85.8451 143.947C85.7631 143.874 85.6598 143.829 85.5504 143.819C85.4469 143.801 85.3408 143.804 85.2386 143.828C85.1363 143.852 85.04 143.897 84.9554 143.959C84.3954 144.442 84.3044 145.954 84.3044 146.059L84.3184 146.115ZM84.8924 145.807L84.7874 145.87C84.7574 145.292 84.9145 144.72 85.2354 144.239C85.2718 144.205 85.3148 144.179 85.3617 144.162C85.4087 144.145 85.4586 144.138 85.5084 144.141H85.5714C85.7464 144.141 85.7884 144.26 85.7954 144.337C85.6745 144.917 85.3552 145.437 84.8924 145.807ZM84.9694 146.073C85.6134 145.716 86.5303 145.331 86.8733 145.485C86.9079 145.503 86.9375 145.528 86.9595 145.56C86.9816 145.592 86.9952 145.629 86.9993 145.667C87.0196 145.744 87.02 145.825 87.0004 145.902C86.9808 145.979 86.9419 146.05 86.8873 146.108C86.6143 146.332 85.9144 146.318 84.9694 146.073Z" fill="#90CAF9"/>
<path id="Vector_41" d="M84.1924 145.464L78.2077 145.093C78.158 145.087 78.1076 145.091 78.0595 145.105C78.0114 145.119 77.9666 145.142 77.9275 145.173C77.8884 145.205 77.856 145.243 77.832 145.287C77.808 145.331 77.7929 145.379 77.7877 145.429L77.1997 150.154C77.1862 150.402 77.2701 150.645 77.4335 150.832C77.597 151.019 77.8271 151.135 78.0747 151.155C80.1746 151.246 81.1686 151.19 83.8004 151.33C86.1371 151.571 88.4877 151.648 90.8351 151.561C93.068 151.344 92.7951 149.139 91.8361 149.034C89.5472 148.775 86.5233 147.095 85.0954 145.821C84.8416 145.607 84.5244 145.481 84.1924 145.464Z" fill="#263238"/>
<path id="Vector_42" d="M64.0894 116.101C62.0552 123.946 59.4538 131.633 56.3057 139.102L46.5481 138.36C46.5481 138.36 50.5519 122.722 52.0009 108.401C52.8968 99.5602 52.8198 92.2455 50.23 91.6786C48.599 91.3146 44.7912 91.3286 39.9054 91.4406V73.2413C53.6108 76.0412 67.2462 81.361 68.2822 85.6168C69.7311 91.6156 67.1972 104.299 64.0894 116.101Z" fill="#90CAF9"/>
<path id="Vector_43" opacity="0.4" d="M64.0894 116.101C62.0552 123.946 59.4538 131.633 56.3057 139.102L46.5481 138.36C46.5481 138.36 50.5519 122.722 52.0009 108.401C52.8968 99.5602 52.8198 92.2455 50.23 91.6786C48.599 91.3146 44.7912 91.3286 39.9054 91.4406V73.2413C53.6108 76.0412 67.2462 81.361 68.2822 85.6168C69.7311 91.6156 67.1972 104.299 64.0894 116.101Z" fill="white"/>
<path id="Vector_44" opacity="0.2" d="M64.0894 116.1C60.4495 113.791 56.1867 111.082 52.0009 108.401C52.8968 99.5602 52.8198 92.2455 50.23 91.6786C48.599 91.3146 44.7912 91.3286 39.9054 91.4405V73.2413C53.6108 76.0412 67.2462 81.361 68.2822 85.6168C69.7311 91.6156 67.1972 104.299 64.0894 116.1Z" fill="black"/>
<path id="Vector_45" d="M58.7556 71.4564L59.6165 64.5477L31.6877 59.9489C31.6877 59.9489 22.5531 78.0851 27.0259 86.9187C31.1208 95.0523 74.7709 90.2086 81.4906 91.6715C88.2103 93.1344 77.7808 138.352 77.7808 138.352L87.5803 139.101C87.5803 139.101 102.658 98.4192 99.5568 85.6237C98.1919 80.045 75.1769 72.6533 58.7556 71.4564Z" fill="#90CAF9"/>
<path id="Vector_46" opacity="0.6" d="M58.7556 71.4564L59.6165 64.5477L31.6877 59.9489C31.6877 59.9489 22.5531 78.0851 27.0259 86.9187C31.1208 95.0523 74.7709 90.2086 81.4906 91.6715C88.2103 93.1344 77.7808 138.352 77.7808 138.352L87.5803 139.101C87.5803 139.101 102.658 98.4192 99.5568 85.6237C98.1919 80.045 75.1769 72.6533 58.7556 71.4564Z" fill="white"/>
<path id="Vector_47" d="M74.1198 15.2557C73.8818 15.6687 73.9098 16.1377 74.1828 16.2917C74.4558 16.4457 74.8828 16.2357 75.0998 15.8157C75.3168 15.3957 75.3098 14.9408 75.0438 14.7798C74.7778 14.6188 74.3788 14.8568 74.1198 15.2557Z" fill="#263238"/>
<path id="Vector_48" d="M73.6789 13.023C73.6214 12.9949 73.5729 12.9512 73.5389 12.897C73.5123 12.828 73.5126 12.7515 73.5398 12.6827C73.5671 12.614 73.6192 12.558 73.6859 12.526C74.093 12.3402 74.5387 12.2546 74.9857 12.2766C75.4327 12.2985 75.8679 12.4272 76.2548 12.652C76.316 12.6909 76.3596 12.7521 76.3766 12.8226C76.3936 12.8931 76.3825 12.9674 76.3458 13.03C76.3033 13.0912 76.2386 13.1335 76.1654 13.1479C76.0922 13.1622 76.0164 13.1476 75.9538 13.107C75.6469 12.9346 75.3034 12.8377 74.9517 12.8243C74.5999 12.8109 74.25 12.8814 73.9309 13.03C73.8913 13.0486 73.8478 13.0576 73.8041 13.0564C73.7603 13.0552 73.7174 13.0438 73.6789 13.023Z" fill="#263238"/>
<path id="Vector_49" d="M74.5119 14.7238C74.2822 16.2798 74.2657 17.86 74.4629 19.4206C74.0616 19.4585 73.6569 19.4093 73.2763 19.2764C72.8958 19.1436 72.5484 18.9301 72.258 18.6506L74.5119 14.7238Z" fill="#DE5753"/>
<path id="Vector_50" d="M72.0059 20.5755C71.838 20.7785 71.67 20.9745 71.488 21.1565C70.4674 22.2274 69.1435 22.9602 67.6941 23.2564C67.3273 23.3329 66.9553 23.382 66.5812 23.4034C65.5985 23.469 64.6135 23.3145 63.6981 22.9512C62.7827 22.5879 61.9598 22.025 61.2894 21.3035C60.688 20.646 60.2239 19.8749 59.9245 19.0356C58.6225 15.5358 59.9245 12.7359 61.8214 7.89909C62.2399 6.75584 62.944 5.73873 63.8667 4.94459C64.7895 4.15045 65.9001 3.60572 67.093 3.36224C68.2858 3.11876 69.5211 3.18466 70.6813 3.55364C71.8414 3.92262 72.8878 4.5824 73.7209 5.47019C77.5147 9.43202 74.9808 16.7747 72.0059 20.5755Z" fill="#E4897B"/>
<path id="Vector_51" opacity="0.2" d="M67.6943 23.2424C67.3274 23.3189 66.9554 23.368 66.5813 23.3894C65.5986 23.455 64.6137 23.3005 63.6982 22.9372C62.7828 22.574 61.9599 22.011 61.2896 21.2895C61.7605 20.8161 62.2897 20.4045 62.8645 20.0646C64.7445 20.6416 66.4204 21.7442 67.6943 23.2424Z" fill="black"/>
<path id="Vector_52" d="M51.9238 23.4245C52.3998 26.8543 59.8895 28.1353 59.8895 28.1353C59.8895 28.1353 63.5853 29.8152 63.7393 28.3523C62.2064 26.5814 62.0384 25.0344 62.5704 23.6835C62.9214 22.8645 63.4332 22.1243 64.0753 21.5066C64.4208 21.1511 64.7853 20.8146 65.1673 20.4986L62.8784 11.119C61.2334 14.6819 55.6057 22.9205 51.9238 23.4245Z" fill="#E4897B"/>
<path id="Vector_53" d="M73.294 2.78233C73.294 2.78233 74.8969 2.57934 76.0939 5.58221C77.1298 8.0951 74.6939 8.64108 74.7989 11.315C74.9039 13.9888 72.468 15.4658 72.468 15.4658C72.468 15.4658 70.4101 17.2367 68.6672 16.2777C68.6672 16.2777 66.3853 17.3977 65.7833 19.3506C65.1813 21.3035 61.6465 17.7757 58.4616 18.3147C58.4616 18.3147 56.3127 16.2987 56.4667 11.413C56.5896 9.29115 57.1096 7.21125 57.9996 5.28123C58.4224 4.25968 59.0443 3.3325 59.829 2.55376C60.6138 1.77502 61.5457 1.16029 62.5704 0.745413C66.2383 -0.892516 72.615 0.339433 73.294 2.78233Z" fill="#263238"/>
<path id="Vector_54" d="M68.2542 14.8218C68.1459 15.3061 68.1462 15.8083 68.2552 16.2924C68.3641 16.7765 68.5789 17.2305 68.8841 17.6217C69.6611 18.4686 70.9071 17.3907 71.418 15.9068C71.852 14.5838 72.006 12.5119 70.865 12.2809C69.7241 12.0499 68.4992 13.3939 68.2542 14.8218Z" fill="#E4897B"/>
<path id="Vector_55" d="M62.8784 24.6774C60.8165 22.8551 58.2712 21.6688 55.5497 21.2616C54.3606 21.1151 53.1568 21.3722 52.1312 21.9916C51.1057 22.6109 50.3178 23.5568 49.894 24.6774L62.4514 27.2183L62.8784 24.6774Z" fill="#90CAF9"/>
<path id="Vector_56" d="M60.7435 51.1782L65.8603 51.9412C67.0244 51.5782 68.2194 51.3228 69.4302 51.1782C70.7461 51.0667 72.0691 51.0667 73.385 51.1782C73.385 51.1782 75.6809 52.0462 75.6809 54.2861C75.6809 54.2861 70.2771 55.735 68.2052 54.867L60.7435 54.2861V51.1782Z" fill="#E4897B"/>
<path id="Vector_57" opacity="0.2" d="M60.7435 51.1782L65.8603 51.9412C67.0244 51.5782 68.2194 51.3228 69.4302 51.1782C70.7461 51.0667 72.0691 51.0667 73.385 51.1782C73.385 51.1782 75.6809 52.0462 75.6809 54.2861C75.6809 54.2861 70.2771 55.735 68.2052 54.867L60.7435 54.2861V51.1782Z" fill="black"/>
<path id="Vector_58" d="M69.0591 26.2873C68.0185 29.1992 67.0852 31.9991 66.2592 34.687C65.7273 36.3529 65.2443 37.9838 64.8033 39.5867C64.4253 40.9097 64.1033 42.1906 63.7603 43.4366C63.6063 44.0316 63.4524 44.6265 63.3054 45.2145C62.5004 48.4344 61.8494 51.3812 61.3384 53.9711C60.4874 58.0477 59.8565 62.1672 59.4485 66.3116L30.7498 62.7207C31.7437 57.786 32.5207 53.4811 33.6056 48.8333C34.2006 46.2855 34.8866 43.6396 35.7615 40.7347C36.3775 38.6348 37.0915 36.4299 37.9454 34.022C40.8223 25.7553 43.4822 23.4664 43.4822 23.4664C54.4997 21.6535 69.0591 26.2873 69.0591 26.2873Z" fill="#90CAF9"/>
<path id="Vector_59" d="M78.6068 51.7103L83.7236 52.4803C84.887 52.1131 86.0821 51.8553 87.2934 51.7103C88.6095 51.6029 89.9322 51.6029 91.2483 51.7103C91.2483 51.7103 93.5652 52.5783 93.5652 54.7972C93.5652 54.7972 88.1614 56.2461 86.0825 55.3781L78.6068 54.7972V51.7103Z" fill="#E4897B"/>
<path id="Vector_60" d="M45.5122 138.814L57.1317 139.584L58.8396 134.566L46.0372 133.964L45.5122 138.814Z" fill="#90CAF9"/>
<path id="Vector_61" opacity="0.2" d="M45.5122 138.814L57.1317 139.584L58.8396 134.566L46.0372 133.964L45.5122 138.814Z" fill="white"/>
<path id="Vector_62" d="M76.7728 138.814L88.3923 139.584L90.1002 134.566L77.2977 133.964L76.7728 138.814Z" fill="#90CAF9"/>
<path id="Vector_63" opacity="0.2" d="M76.7728 138.814L88.3923 139.584L90.1002 134.566L77.2977 133.964L76.7728 138.814Z" fill="white"/>
<path id="Vector_64" d="M30.6589 63.0917L43.6013 64.7926L44.0213 62.8817L31.0579 60.9988L30.6589 63.0917Z" fill="black"/>
<path id="Vector_65" d="M45.0992 62.8958L44.9382 64.7927L56.9007 66.4376V64.5617L45.0992 62.8958Z" fill="black"/>
<path id="Vector_66" d="M57.6426 64.6666V66.4375L59.3785 66.6686V64.9536L57.6426 64.6666Z" fill="black"/>
<path id="Vector_67" opacity="0.2" d="M66.2523 34.687C65.7203 36.3529 65.2373 37.9839 64.7963 39.5868C64.4184 40.9097 64.0964 42.1907 63.7534 43.4366C62.8574 38.5368 64.4534 32.6781 64.4534 32.6781L66.2523 34.687Z" fill="black"/>
<path id="Vector_68" d="M68.1912 27.9392C70.5291 28.4082 71.7401 44.6475 72.2581 46.7964C72.713 48.6723 83.7236 52.4802 83.7236 52.4802V55.119C83.7236 55.119 71.5441 54.2861 68.6812 53.1101C65.8183 51.9342 64.0894 35.8979 64.0894 35.8979L68.1912 27.9392Z" fill="#E4897B"/>
<g id="Group_5" opacity="0.2">
<path id="Vector_69" d="M69.0591 26.2873C68.0185 29.1992 67.0852 31.9991 66.2592 34.687C65.7273 36.3529 65.2443 37.9838 64.8033 39.5867C64.4253 40.9097 64.1033 42.1906 63.7603 43.4366C63.6063 44.0316 63.4524 44.6265 63.3054 45.2145C62.5004 48.4344 61.8494 51.3812 61.3384 53.9711C60.4874 58.0477 59.8565 62.1672 59.4485 66.3116L30.7498 62.7207C31.7437 57.786 32.5207 53.4811 33.6056 48.8333C34.2006 46.2855 34.8866 43.6396 35.7615 40.7347C36.3775 38.6348 37.0915 36.4299 37.9454 34.022C40.8223 25.7553 43.4822 23.4664 43.4822 23.4664C54.4997 21.6535 69.0591 26.2873 69.0591 26.2873Z" fill="white"/>
</g>
<path id="Vector_70" d="M69.0591 26.2874C71.201 26.9873 72.2579 40.9867 72.2579 40.9867L64.4813 42.0157L62.8713 36.2619C62.8713 36.2619 63.5153 33.546 64.4393 30.6972C65.7832 26.5673 69.0591 26.2874 69.0591 26.2874Z" fill="#90CAF9"/>
</g>
<path id="Vector_71" d="M18.8921 149.174C18.8921 148.686 18.7475 148.21 18.4764 147.804C18.2054 147.399 17.8201 147.083 17.3695 146.897C16.9189 146.711 16.4231 146.662 15.945 146.758C15.4669 146.854 15.0278 147.089 14.6835 147.434C14.3392 147.78 14.1051 148.219 14.0108 148.698C13.9166 149.176 13.9664 149.672 14.1539 150.122C14.3415 150.572 14.6584 150.956 15.0645 151.226C15.4706 151.496 15.9476 151.639 16.4352 151.638C16.7585 151.638 17.0785 151.574 17.3771 151.45C17.6756 151.326 17.9468 151.145 18.175 150.916C18.4033 150.687 18.5841 150.415 18.7071 150.116C18.8302 149.818 18.8931 149.497 18.8921 149.174Z" fill="#263238"/>
<path id="Vector_72" opacity="0.2" d="M18.8921 149.174C18.8921 148.686 18.7475 148.21 18.4764 147.804C18.2054 147.399 17.8201 147.083 17.3695 146.897C16.9189 146.711 16.4231 146.662 15.945 146.758C15.4669 146.854 15.0278 147.089 14.6835 147.434C14.3392 147.78 14.1051 148.219 14.0108 148.698C13.9166 149.176 13.9664 149.672 14.1539 150.122C14.3415 150.572 14.6584 150.956 15.0645 151.226C15.4706 151.496 15.9476 151.639 16.4352 151.638C16.7585 151.638 17.0785 151.574 17.3771 151.45C17.6756 151.326 17.9468 151.145 18.175 150.916C18.4033 150.687 18.5841 150.415 18.7071 150.116C18.8302 149.818 18.8931 149.497 18.8921 149.174Z" fill="white"/>
<path id="Vector_73" d="M78.1167 149.174C78.1167 148.687 77.9722 148.21 77.7015 147.805C77.4307 147.4 77.0459 147.084 76.5957 146.898C76.1455 146.711 75.6501 146.662 75.1721 146.758C74.6942 146.853 74.2551 147.087 73.9106 147.432C73.566 147.776 73.3313 148.215 73.2362 148.693C73.1412 149.171 73.19 149.667 73.3765 150.117C73.5629 150.567 73.8788 150.952 74.2839 151.223C74.6891 151.493 75.1655 151.638 75.6528 151.638C75.9766 151.639 76.2974 151.576 76.5968 151.452C76.8961 151.329 77.1681 151.147 77.3971 150.918C77.6261 150.689 77.8075 150.417 77.931 150.118C78.0545 149.819 78.1176 149.498 78.1167 149.174Z" fill="#263238"/>
<path id="Vector_74" opacity="0.2" d="M78.1167 149.174C78.1167 148.687 77.9722 148.21 77.7015 147.805C77.4307 147.4 77.0459 147.084 76.5957 146.898C76.1455 146.711 75.6501 146.662 75.1721 146.758C74.6942 146.853 74.2551 147.087 73.9106 147.432C73.566 147.776 73.3313 148.215 73.2362 148.693C73.1412 149.171 73.19 149.667 73.3765 150.117C73.5629 150.567 73.8788 150.952 74.2839 151.223C74.6891 151.493 75.1655 151.638 75.6528 151.638C75.9766 151.639 76.2974 151.576 76.5968 151.452C76.8961 151.329 77.1681 151.147 77.3971 150.918C77.6261 150.689 77.8075 150.417 77.931 150.118C78.0545 149.819 78.1176 149.498 78.1167 149.174Z" fill="white"/>
<path id="Vector_75" opacity="0.2" d="M17.6602 149.174C17.6602 148.93 17.5877 148.692 17.4521 148.489C17.3164 148.286 17.1236 148.128 16.8981 148.035C16.6725 147.942 16.4245 147.918 16.1853 147.966C15.9461 148.014 15.7267 148.132 15.5546 148.305C15.3826 148.478 15.2659 148.699 15.2191 148.938C15.1724 149.177 15.1978 149.425 15.2921 149.65C15.3864 149.875 15.5454 150.067 15.7489 150.202C15.9524 150.336 16.1913 150.407 16.4352 150.406C16.5967 150.406 16.7566 150.374 16.9056 150.312C17.0547 150.25 17.19 150.159 17.3039 150.045C17.4177 149.93 17.5078 149.794 17.569 149.645C17.6301 149.496 17.6611 149.336 17.6602 149.174Z" fill="white"/>
<path id="Vector_76" opacity="0.2" d="M75.6528 150.406C76.3332 150.406 76.8847 149.854 76.8847 149.174C76.8847 148.494 76.3332 147.942 75.6528 147.942C74.9724 147.942 74.4208 148.494 74.4208 149.174C74.4208 149.854 74.9724 150.406 75.6528 150.406Z" fill="white"/>
<path id="Vector_77" d="M48.0809 138.38V111.915H44.0071V138.38C28.1598 138.786 18.5282 144.33 16.5963 145.541C16.4862 145.612 16.3957 145.709 16.3333 145.824C16.2709 145.939 16.2385 146.068 16.2393 146.199V148.397C16.2393 148.603 16.3211 148.801 16.4668 148.946C16.6125 149.092 16.8102 149.174 17.0162 149.174C17.1575 149.178 17.2974 149.144 17.4207 149.075C17.5441 149.006 17.6462 148.905 17.7162 148.782L18.6542 147.13C26.865 144.512 35.4117 143.098 44.0281 142.93V147.284C44.0299 147.55 44.1369 147.805 44.3258 147.992C44.5146 148.18 44.7699 148.285 45.036 148.285H47.0939C47.3601 148.285 47.6154 148.18 47.8042 147.992C47.993 147.805 48.1001 147.55 48.1019 147.284V142.93C56.7183 143.098 65.265 144.512 73.4758 147.13L74.4138 148.782C74.4837 148.905 74.5859 149.006 74.7093 149.075C74.8326 149.144 74.9724 149.178 75.1137 149.174C75.3198 149.174 75.5174 149.092 75.6631 148.946C75.8088 148.801 75.8907 148.603 75.8907 148.397V146.199C75.8914 146.068 75.8591 145.939 75.7967 145.824C75.7343 145.709 75.6438 145.612 75.5337 145.541C73.5808 144.33 63.9282 138.786 48.0809 138.38Z" fill="#263238"/>
<path id="Vector_78" opacity="0.2" d="M48.0809 138.38V111.915H44.0071V138.38C28.1598 138.786 18.5282 144.33 16.5963 145.541C16.4862 145.612 16.3957 145.709 16.3333 145.824C16.2709 145.939 16.2385 146.068 16.2393 146.199V148.397C16.2393 148.603 16.3211 148.801 16.4668 148.946C16.6125 149.092 16.8102 149.174 17.0162 149.174C17.1575 149.178 17.2974 149.144 17.4207 149.075C17.5441 149.006 17.6462 148.905 17.7162 148.782L18.6542 147.13C26.865 144.512 35.4117 143.098 44.0281 142.93V147.284C44.0299 147.55 44.1369 147.805 44.3258 147.992C44.5146 148.18 44.7699 148.285 45.036 148.285H47.0939C47.3601 148.285 47.6154 148.18 47.8042 147.992C47.993 147.805 48.1001 147.55 48.1019 147.284V142.93C56.7183 143.098 65.265 144.512 73.4758 147.13L74.4138 148.782C74.4837 148.905 74.5859 149.006 74.7093 149.075C74.8326 149.144 74.9724 149.178 75.1137 149.174C75.3198 149.174 75.5174 149.092 75.6631 148.946C75.8088 148.801 75.8907 148.603 75.8907 148.397V146.199C75.8914 146.068 75.8591 145.939 75.7967 145.824C75.7343 145.709 75.6438 145.612 75.5337 145.541C73.5808 144.33 63.9282 138.786 48.0809 138.38Z" fill="black"/>
<path id="Vector_79" d="M46.8421 146.717H45.2461C44.9485 146.717 44.7072 146.958 44.7072 147.256V151.099C44.7072 151.397 44.9485 151.638 45.2461 151.638H46.8421C47.1397 151.638 47.381 151.397 47.381 151.099V147.256C47.381 146.958 47.1397 146.717 46.8421 146.717Z" fill="#263238"/>
<path id="Vector_80" opacity="0.2" d="M46.8421 146.717H45.2461C44.9485 146.717 44.7072 146.958 44.7072 147.256V151.099C44.7072 151.397 44.9485 151.638 45.2461 151.638H46.8421C47.1397 151.638 47.381 151.397 47.381 151.099V147.256C47.381 146.958 47.1397 146.717 46.8421 146.717Z" fill="white"/>
<path id="Vector_81" d="M19.3682 85.8618H72.7269C74.1953 85.8618 75.6036 86.4452 76.642 87.4835C77.6803 88.5219 78.2636 89.9301 78.2636 91.3986V94.7444H13.8244V91.3846C13.8281 89.9174 14.414 88.5116 15.4535 87.4761C16.493 86.4406 17.9009 85.86 19.3682 85.8618Z" fill="#90CAF9"/>
<path id="Vector_82" d="M36.8044 63.8687H72.2789C72.7137 63.8549 73.1457 63.9425 73.5407 64.1246C73.9357 64.3068 74.2828 64.5785 74.5545 64.9181C74.8263 65.2578 75.0151 65.6561 75.1061 66.0814C75.1971 66.5068 75.1878 66.9475 75.0788 67.3686L68.6811 94.7514H67.2181L72.6219 70.7284C72.716 70.3108 72.7143 69.8773 72.6169 69.4604C72.5195 69.0435 72.329 68.654 72.0596 68.3213C71.7901 67.9886 71.4489 67.7212 71.0614 67.5392C70.6738 67.3572 70.2501 67.2654 69.822 67.2706H37.5324L36.8044 63.8687Z" fill="#263238"/>
<path id="Vector_83" d="M50.2299 95.7103V118.865C50.2281 119.221 50.0859 119.562 49.8342 119.814C49.5826 120.065 49.2418 120.207 48.886 120.209H43.2092C43.0324 120.21 42.8573 120.176 42.6938 120.109C42.5303 120.042 42.3818 119.943 42.2568 119.818C42.1318 119.693 42.0329 119.544 41.9657 119.381C41.8985 119.217 41.8643 119.042 41.8653 118.865V95.7103H50.2299Z" fill="#263238"/>
<path id="Vector_84" opacity="0.2" d="M50.2369 95.7103H41.8652V105.328H50.2369V95.7103Z" fill="black"/>
<path id="Vector_85" d="M80.0206 93.3234V96.1233C80.0206 96.4946 79.8731 96.8506 79.6106 97.1132C79.348 97.3757 78.992 97.5232 78.6207 97.5232H13.5235C13.1522 97.5232 12.7961 97.3757 12.5336 97.1132C12.271 96.8506 12.1235 96.4946 12.1235 96.1233V93.3234C12.1235 92.9521 12.271 92.596 12.5336 92.3335C12.7961 92.071 13.1522 91.9235 13.5235 91.9235H78.6207C78.992 91.9235 79.348 92.071 79.6106 92.3335C79.8731 92.596 80.0206 92.9521 80.0206 93.3234Z" fill="#263238"/>
<path id="Vector_86" d="M50.0618 94.7514H12.0675C12.0675 94.7514 0 74.6763 0 41.5047V29.3182C0 26.9049 0.95871 24.5903 2.66522 22.8838C4.37173 21.1773 6.68624 20.2186 9.09961 20.2186H25.1989C27.5666 20.2068 29.8447 21.1225 31.5455 22.7696C33.2463 24.4168 34.2345 26.6644 34.2985 29.0312C34.7115 46.1525 37.2314 83.1669 50.0618 94.7514Z" fill="#263238"/>
<path id="Vector_87" opacity="0.2" d="M41.7042 94.7514H13.7894C13.26 94.7525 12.7404 94.6081 12.2874 94.3341C11.8344 94.0601 11.4654 93.6669 11.2205 93.1975C8.47663 87.8987 0.0209961 69.2935 0.0209961 41.5047V29.3182C0.0209961 26.9049 0.979701 24.5904 2.68621 22.8838C4.39272 21.1773 6.70724 20.2186 9.12061 20.2186H23.043C25.4075 20.2175 27.6795 21.1367 29.378 22.7816C31.0765 24.4265 32.068 26.668 32.1426 29.0312C32.5626 44.2976 34.6135 75.4673 44.1961 90.2016C44.5037 90.6441 44.6818 91.1635 44.7105 91.7016C44.7391 92.2397 44.6172 92.7752 44.3583 93.2478C44.0995 93.7204 43.714 94.1115 43.2451 94.3771C42.7763 94.6427 42.2427 94.7723 41.7042 94.7514Z" fill="white"/>
<path id="Vector_88" opacity="0.2" d="M80.0205 93.3234V96.1233C80.0205 96.4945 79.873 96.8506 79.6104 97.1132C79.3479 97.3757 78.9918 97.5232 78.6205 97.5232H49.4318C48.9255 97.5213 48.4406 97.3194 48.0826 96.9615C47.7246 96.6035 47.5227 96.1185 47.5209 95.6123V93.8414C47.5209 93.3346 47.7222 92.8485 48.0806 92.4901C48.4389 92.1318 48.925 91.9304 49.4318 91.9304H78.6135C78.7974 91.9295 78.9796 91.9648 79.1498 92.0343C79.32 92.1038 79.4748 92.2062 79.6055 92.3355C79.7361 92.4649 79.84 92.6187 79.9112 92.7882C79.9824 92.9577 80.0196 93.1395 80.0205 93.3234Z" fill="black"/>
</g>
</g>
</svg>
