<svg width="20" height="20" viewBox="0 0 20 20" fill="none" xmlns="http://www.w3.org/2000/svg">
<g clip-path="url(#clip0_88_8694)">
<path fill-rule="evenodd" clip-rule="evenodd" d="M15.2969 18.8486C15.2969 19.3098 14.9192 19.6875 14.4579 19.6875H5.54207C5.08066 19.6875 4.70312 19.31 4.70312 18.8486V16.0351C7.31352 16.0351 9.42969 13.919 9.42969 11.3086C9.42969 8.69812 7.31355 6.58199 4.70312 6.58199V1.15145C4.70312 0.690039 5.08066 0.3125 5.54207 0.3125H6.35898L6.73914 1.48246C6.87598 1.90359 7.26223 2.18422 7.70504 2.18422H12.295C12.7378 2.18422 13.124 1.90359 13.2609 1.48246L13.641 0.3125H14.4579C14.9194 0.3125 15.2969 0.690117 15.2969 1.15145V2.40234C12.6867 2.40234 10.5703 4.51871 10.5703 7.12891C10.5703 9.7391 12.6867 11.8555 15.2969 11.8555V18.8486ZM10 16.5499C9.57285 16.5499 9.22656 16.8962 9.22656 17.3233C9.22656 17.7505 9.57285 18.0968 10 18.0968C10.4271 18.0968 10.7734 17.7505 10.7734 17.3233C10.7734 16.8962 10.4271 16.5499 10 16.5499ZM7.01613 0.3125L7.33352 1.2893C7.38668 1.45297 7.53289 1.55922 7.705 1.55922H12.2949C12.467 1.55922 12.6132 1.45301 12.6664 1.2893L12.9838 0.3125H7.01613ZM4.70312 7.20699C2.43789 7.20699 0.601562 9.04332 0.601562 11.3086C0.601562 13.5738 2.43789 15.4101 4.70312 15.4101C6.96836 15.4101 8.80469 13.5738 8.80469 11.3086C8.80469 9.04332 6.96836 7.20699 4.70312 7.20699ZM4.27699 11.7346C4.06464 11.5228 3.87651 11.2881 3.71609 11.0346C3.65766 10.9422 3.65824 10.8311 3.7177 10.7393L3.94613 10.3866C3.99488 10.3114 4.00418 10.2255 3.97266 10.1415L3.57969 9.09418C3.5655 9.05585 3.54289 9.0212 3.51352 8.99279C3.48415 8.96437 3.44877 8.94291 3.41 8.92999C3.37122 8.91708 3.33005 8.91303 3.2895 8.91816C3.24896 8.92328 3.21008 8.93745 3.17574 8.95961L2.62754 9.30988C2.37734 9.46973 2.26121 9.75711 2.33012 10.0459C2.54223 10.9348 3.00488 11.7347 3.64434 12.3673C4.27695 13.0068 5.07691 13.4695 5.96578 13.6816C6.25457 13.7505 6.54195 13.6343 6.7018 13.3841L7.05207 12.8359C7.07422 12.8016 7.08838 12.7627 7.0935 12.7222C7.09862 12.6816 7.09457 12.6405 7.08165 12.6017C7.06873 12.5629 7.04727 12.5275 7.01885 12.4982C6.99043 12.4688 6.95579 12.4462 6.91746 12.432L5.87016 12.039C5.78621 12.0075 5.70031 12.0168 5.625 12.0655L5.2723 12.294C5.18051 12.3534 5.06945 12.3541 4.97699 12.2956C4.72358 12.1351 4.4888 11.947 4.27699 11.7346ZM12.7674 8.38285L14.3661 6.88414L12.7772 5.82707C12.7667 5.86829 12.7614 5.91066 12.7614 5.9532V8.30465C12.7614 8.33121 12.7635 8.35734 12.7674 8.38285ZM17.3736 8.81309L15.6945 7.23887L15.6105 7.29469C15.5141 7.35883 15.4058 7.3909 15.2968 7.3909C15.1879 7.3909 15.0795 7.35883 14.9832 7.29469L14.8993 7.23887L13.2201 8.81309C13.2373 8.81488 13.2548 8.81578 13.2726 8.81578H17.3211C17.3389 8.81578 17.3564 8.81488 17.3736 8.81309ZM17.8165 5.82707C17.8268 5.86746 17.8323 5.90969 17.8323 5.9532V8.30465C17.8323 8.33125 17.8303 8.35734 17.8263 8.38289L16.2277 6.88418L17.8165 5.82707ZM13.3243 5.44199L15.2969 6.75434L17.2694 5.44199H13.3243ZM15.2969 3.02734C13.0316 3.02734 11.1953 4.86367 11.1953 7.12891C11.1953 9.39414 13.0316 11.2305 15.2969 11.2305C17.5621 11.2305 19.3984 9.39414 19.3984 7.12891C19.3984 4.86367 17.5621 3.02734 15.2969 3.02734Z" fill="#1B3D6F"/>
</g>
<defs>
<clipPath id="clip0_88_8694">
<rect width="20" height="20" fill="white"/>
</clipPath>
</defs>
</svg>
