<svg width="201" height="142" viewBox="0 0 201 142" fill="none" xmlns="http://www.w3.org/2000/svg">
<path opacity="0.5" d="M14.0869 133.266H186.913C187.692 133.266 188.325 133.898 188.325 134.676V134.767C188.325 135.546 187.692 136.177 186.913 136.177H14.0869C13.3081 136.177 12.6758 135.546 12.6758 134.767V134.676C12.6758 133.897 13.3081 133.266 14.0869 133.266Z" fill="#C1C1C1"/>
<path d="M146.172 67.2063C146.172 67.2063 149.047 66.4201 149.256 66.3502C149.488 66.2731 149.853 66.1344 149.92 66.924C149.987 67.7135 150.022 67.9607 150.022 67.9607C150.022 67.9607 146.667 67.9894 146.304 67.9496C145.943 67.9092 145.649 67.6313 146.172 67.2063Z" fill="#0F1B29"/>
<path d="M148.049 50.9466C147.848 49.1911 147.101 47.9479 145.168 48.275C143.235 48.6032 142.516 49.7088 142.857 50.7365C143.637 53.0814 143.798 53.0437 144.823 55.8533C145.327 57.2349 146.286 59.8976 147.13 62.2475L148.972 61.9215C148.803 59.0916 148.221 52.4428 148.049 50.9466Z" fill="url(#paint0_linear_1_49600)"/>
<path d="M149.02 63.006C149.02 62.7922 149.003 62.4144 148.973 61.9219L147.131 62.2479C148.004 64.6766 148.754 66.7712 148.754 66.7712C148.754 66.7712 149.008 66.9336 149.235 66.8474C149.576 66.7181 149.566 66.5036 149.566 66.5036C149.566 66.5036 149.023 64.4483 149.02 63.006Z" fill="#F4AA74"/>
<path d="M134.107 29.3932C134.074 29.0933 133.895 28.1758 133.653 28.212C133.08 28.2963 133.461 28.7584 133.137 29.4161C132.928 29.8407 133.902 30.6262 133.902 30.6262C133.902 30.6262 134.178 30.0185 134.107 29.3932Z" fill="#E59661"/>
<path d="M142.197 34.2105C140.391 32.681 134.78 31.027 134.039 30.1974C133.558 29.6585 133.973 29.0213 132.751 28.3693C132.158 28.0532 130.649 29.2314 130.886 29.8578C131.429 31.2906 132.349 31.4538 133.4 31.0997C134.036 31.2211 138.738 34.6271 140.133 35.4755C140.762 35.8588 141.747 36.3654 142.145 35.9877C142.778 35.3864 142.867 34.7784 142.197 34.2105Z" fill="#E59661"/>
<path d="M142.541 32.5448C142.541 32.5448 141.151 34.5738 140.845 35.2462C140.626 35.7277 141.3 35.9579 141.711 36.1054C142.122 36.253 143.517 35.3142 144.399 34.1912C145.073 33.3312 142.735 32.4597 142.541 32.5448Z" fill="#E59661"/>
<path d="M147.758 26.3482C145.871 27.7987 141.432 33.3753 141.432 33.3753C141.432 33.3753 141.567 34.0242 142.496 34.9009C143.889 36.2175 144.728 36.245 144.728 36.245C144.728 36.245 148.017 33.378 149.77 31.7044C150.628 30.8862 150.633 29.1015 150.309 27.541C149.998 26.0444 148.661 25.6539 147.758 26.3482Z" fill="url(#paint1_linear_1_49600)"/>
<path d="M147.506 38.5554C147.506 38.5554 143.587 47.7439 142.876 49.6173C142.165 51.491 145.39 53.5286 147.379 51.6263C149.368 49.7249 152.074 47.0473 153.155 44.6519C154.236 42.2558 154.495 40.1519 153.452 37.9141C152.409 35.6763 148.558 36.0789 147.506 38.5554Z" fill="url(#paint2_linear_1_49600)"/>
<path d="M164.247 64.4555C164.247 64.4555 165.559 61.781 165.645 61.578C165.74 61.3537 165.878 60.9884 166.515 61.4602C167.151 61.9326 167.36 62.0698 167.36 62.0698C167.36 62.0698 165.162 64.6029 164.893 64.8481C164.623 65.0927 164.22 65.1285 164.247 64.4555Z" fill="#0F1B29"/>
<path d="M152.731 38.2022C152.731 38.2022 150.936 49.2204 150.658 51.1806C150.38 53.14 153.886 54.2721 155.375 51.966C156.864 49.6593 159.137 47.4196 159.734 41.8271C160.072 38.6542 153.207 35.5832 152.731 38.2022Z" fill="#1A1A2E"/>
<path d="M148.821 25.8967C145.906 26.858 146.397 29.6495 146.596 32.0072C147.039 37.2672 145.516 42.7452 145.516 42.7452C145.516 42.7452 150.897 45.5063 156.997 43.9054C159.767 43.1783 160.059 42.1665 160.059 42.1665C160.059 42.1665 158.992 33.0502 155.219 27.0992C154.375 25.768 153.265 24.9969 150.791 25.3861C150.085 25.4978 149.54 25.659 148.821 25.8967Z" fill="url(#paint3_linear_1_49600)"/>
<path d="M146.543 23.1881C144.221 21.8518 144.813 18.2258 147.487 18.4601C148.286 18.5301 148.048 19.7212 148.754 19.5021C150.827 18.8585 151.72 20.3924 151.772 22.1835C151.803 23.293 150.886 24.3514 150.062 24.9984C149.73 24.6964 149.627 23.5373 148.445 23.1895C147.263 22.8413 146.543 23.1881 146.543 23.1881Z" fill="#1A1A2E"/>
<path d="M147.759 26.5088C147.808 27.4594 147.666 29.6215 149.725 28.9836C152.144 28.2345 152.051 25.471 151.845 25.208C151.375 24.6097 150.488 25.2261 149.88 25.4238C149.272 25.622 147.717 25.7027 147.759 26.5088Z" fill="#1A1A2E"/>
<path d="M151.189 25.3203C151.069 25.3405 150.947 25.3633 150.821 25.3903C150.122 25.5447 149.588 25.7389 148.884 26.0196C148.662 26.1077 148.462 26.2062 148.281 26.314C148.344 26.9242 148.165 28.7024 149.725 28.2676C151.328 27.821 151.358 25.8778 151.189 25.3203Z" fill="#F4AA74"/>
<path d="M150.946 25.464C150.182 24.0232 149.696 23.2175 148.947 21.9415C148.938 21.8906 146.997 22.6111 146.301 21.6523C146.301 21.6523 146.392 23.0489 146.77 24.1525C147.126 25.1938 147.531 25.7198 148.456 25.0221C148.544 25.547 148.875 26.1264 148.881 26.5931C148.895 27.5347 149.53 27.7234 149.955 27.6529C150.38 27.5814 151.758 26.994 150.946 25.464Z" fill="#F4AA74"/>
<path d="M150.093 22.1527C150.287 22.3821 150.18 22.8087 149.854 23.1068C149.528 23.404 149.107 23.4599 148.913 23.2314C148.719 23.0019 148.826 22.5756 149.153 22.2773C149.478 21.9791 149.9 21.9241 150.093 22.1527Z" fill="#F4AA74"/>
<path d="M155.723 49.8838C154.532 48.5782 153.197 48.0081 151.822 49.4045C150.447 50.8017 150.512 52.1187 151.392 52.7517C153.398 54.1962 153.506 54.0713 155.983 55.749C157.072 56.4861 159.054 57.8398 160.935 59.1259L162.343 57.5616C160.327 55.1434 156.645 50.8932 155.723 49.8838Z" fill="#1A1A2E"/>
<path d="M166.07 61.6072C166.07 61.6072 164.425 60.259 163.578 59.0915C163.385 58.8262 162.936 58.2732 162.344 57.5625L160.936 59.1268C163.335 60.7679 165.569 62.299 165.569 62.299C165.569 62.299 165.869 62.2824 166.003 62.0797C166.204 61.7751 166.07 61.6072 166.07 61.6072Z" fill="#F4AA74"/>
<path d="M161.151 59.4465L160.49 59.0475L162.267 57.0977L162.678 57.7513L161.151 59.4465Z" fill="url(#paint4_linear_1_49600)"/>
<path d="M147.155 62.7068L146.867 61.9911L149.123 61.5703L149.058 62.3396L147.155 62.7068Z" fill="url(#paint5_linear_1_49600)"/>
<path d="M162.371 129.684C164.396 130.287 164.087 132.195 164.087 132.195C164.087 132.195 165.645 131.195 167.129 132.217C168.261 132.996 168.031 134.587 166.187 134.723H153.303C155.013 131.874 158.568 128.552 162.371 129.684Z" fill="url(#paint6_linear_1_49600)"/>
<path d="M160.701 129.457C157.554 129.525 154.76 132.294 153.303 134.721H157.386C159.871 133.897 161.137 131.604 160.701 129.457Z" fill="url(#paint7_linear_1_49600)"/>
<path d="M145.861 119.648C152.129 121.376 148.485 129.524 148.485 129.524C148.485 129.524 152.089 123.559 157.223 126.154C160.618 127.87 160.559 132.771 156.386 134.724H135.661C134.703 125.377 139.428 117.874 145.861 119.648Z" fill="url(#paint8_linear_1_49600)"/>
<path d="M149.478 123.752C149.248 121.983 148.313 120.324 145.861 119.648C139.428 117.874 134.703 125.377 135.661 134.724H143.364C146.492 131.278 148.436 127.328 149.478 123.752Z" fill="url(#paint9_linear_1_49600)"/>
<path d="M142.769 134.722C145.559 130.343 146.779 125.591 147.037 121.542C147.376 116.597 146.311 112.678 145.559 110.465C143.444 111.475 139.927 113.167 136.177 115.054C132.41 116.982 128.41 119.106 124.911 121.933C121.264 124.883 119.006 128.946 116.938 133.07C116.669 133.621 116.404 134.173 116.145 134.722H142.769Z" fill="url(#paint10_linear_1_49600)"/>
<path opacity="0.5" d="M143.184 122.889C143.155 122.725 142.999 122.622 142.836 122.658C141.394 122.978 139.959 123.24 138.534 123.447C139.67 121.909 140.735 120.316 141.727 118.672C141.811 118.533 141.765 118.352 141.624 118.269C141.484 118.185 141.304 118.229 141.221 118.367C140.239 119.995 139.183 121.573 138.059 123.096C137.83 121.683 137.552 120.294 137.227 118.934C137.19 118.781 137.034 118.678 136.879 118.703C136.723 118.728 136.628 118.871 136.664 119.024C137.027 120.565 137.33 122.142 137.569 123.75C136.137 125.637 134.598 127.437 132.961 129.142C132.872 126.407 132.591 123.743 132.134 121.171C132.107 121.02 131.96 120.904 131.806 120.911C131.653 120.919 131.551 121.046 131.577 121.197C132.058 123.945 132.336 126.797 132.392 129.726C130.733 131.409 128.976 132.995 127.131 134.477C127.44 131.31 127.477 128.206 127.262 125.201C127.251 125.049 127.118 124.917 126.966 124.906C126.814 124.895 126.701 125.008 126.711 125.159C126.924 128.255 126.866 131.457 126.518 134.723H127.764C129.531 133.288 131.217 131.759 132.813 130.141C135.759 130.14 138.78 129.917 141.845 129.456C142.014 129.43 142.141 129.271 142.129 129.101C142.116 128.931 141.969 128.815 141.801 128.841C138.95 129.281 136.138 129.514 133.388 129.551C135.04 127.829 136.594 126.012 138.04 124.107C139.661 123.895 141.296 123.611 142.941 123.252C143.104 123.217 143.214 123.053 143.184 122.889ZM121.534 131.993C121.383 131.96 121.248 132.057 121.231 132.211C121.139 133.044 121.027 133.882 120.895 134.723H121.47C121.591 133.922 121.695 133.125 121.779 132.332C121.796 132.177 121.685 132.026 121.534 131.993Z" fill="#C40000"/>
<path d="M136.177 115.054C132.41 116.982 128.41 119.105 124.911 121.933C121.264 124.882 119.006 128.945 116.938 133.069C116.669 133.621 116.404 134.173 116.145 134.722H130.389C131.817 133.284 133.108 131.642 134.19 129.785C137.319 124.486 138.498 118.837 138.554 113.867C137.781 114.25 136.984 114.647 136.177 115.054Z" fill="url(#paint11_linear_1_49600)"/>
<path d="M129.459 134.723C130.871 132.943 132.086 130.932 133 128.686C135.926 121.613 135.79 114.427 134.445 108.868C133.112 103.244 130.57 99.2481 128.968 97.043C126.961 98.8991 123.63 101.998 120.107 105.395C116.578 108.844 112.859 112.589 109.94 116.947C106.899 121.491 105.789 126.796 104.913 132.104C104.778 132.98 104.65 133.857 104.529 134.723H129.459Z" fill="url(#paint12_linear_1_49600)"/>
<path opacity="0.3" d="M131.594 118.981C131.521 118.796 131.318 118.718 131.139 118.805C128.117 120.28 125.065 121.51 122.015 122.501C123.26 120.013 124.361 117.453 125.313 114.832C127.045 114.035 128.768 113.154 130.475 112.187C130.645 112.091 130.71 111.871 130.62 111.698C130.531 111.525 130.321 111.465 130.153 111.561C128.657 112.415 127.15 113.203 125.635 113.925C126.367 111.82 127.003 109.678 127.539 107.505C127.584 107.321 127.47 107.136 127.285 107.092C127.1 107.047 126.915 107.159 126.87 107.34C126.339 109.493 125.709 111.614 124.984 113.699C124.24 112.204 123.45 110.754 122.618 109.352C122.524 109.194 122.314 109.133 122.15 109.215C121.986 109.296 121.929 109.488 122.022 109.646C122.96 111.237 123.842 112.888 124.665 114.597C123.723 117.193 122.632 119.729 121.398 122.193C120.353 119.179 119.119 116.309 117.72 113.602C117.637 113.443 117.434 113.365 117.265 113.426C117.097 113.487 117.028 113.665 117.109 113.824C118.595 116.717 119.891 119.797 120.967 123.04C119.701 125.487 118.294 127.861 116.751 130.148C115.999 126.514 114.967 123.045 113.688 119.773C113.623 119.607 113.429 119.506 113.257 119.546C113.084 119.586 112.996 119.751 113.06 119.917C114.403 123.381 115.468 127.067 116.213 130.934C115.317 132.227 114.375 133.489 113.392 134.723H114.273C115.142 133.614 115.978 132.482 116.78 131.327C120.68 130.647 124.632 129.611 128.58 128.203C128.769 128.136 128.881 127.923 128.831 127.729C128.781 127.535 128.587 127.434 128.4 127.502C124.697 128.838 120.989 129.844 117.323 130.533C118.88 128.224 120.301 125.827 121.579 123.357C124.86 122.339 128.146 121.047 131.4 119.474C131.579 119.387 131.666 119.166 131.594 118.981ZM109.659 129.316C109.479 129.331 109.362 129.486 109.397 129.663C109.718 131.316 109.975 133.004 110.167 134.723H110.843C110.644 132.985 110.379 131.278 110.049 129.608C110.014 129.43 109.839 129.3 109.659 129.316Z" fill="#C40000"/>
<path d="M39.6516 129.684C37.6267 130.287 37.9358 132.195 37.9358 132.195C37.9358 132.195 36.3773 131.195 34.8936 132.217C33.7616 132.996 33.9915 134.587 35.8359 134.723H48.72C47.0095 131.874 43.4551 128.552 39.6516 129.684Z" fill="url(#paint13_linear_1_49600)"/>
<path d="M41.3212 129.457C44.4681 129.525 47.2627 132.294 48.7197 134.721H44.6366C42.1516 133.897 40.885 131.604 41.3212 129.457Z" fill="url(#paint14_linear_1_49600)"/>
<path d="M56.1624 119.648C49.8947 121.376 53.538 129.524 53.538 129.524C53.538 129.524 49.9346 123.559 44.8005 126.154C41.4054 127.87 41.4649 132.771 45.6371 134.724H66.3628C67.3206 125.377 62.5955 117.874 56.1624 119.648Z" fill="url(#paint15_linear_1_49600)"/>
<path d="M52.5449 123.752C52.7746 121.983 53.7097 120.324 56.1619 119.648C62.595 117.874 67.3201 125.377 66.3623 134.724H58.6591C55.531 131.278 53.5867 127.328 52.5449 123.752Z" fill="url(#paint16_linear_1_49600)"/>
<path d="M59.2545 134.722C56.4646 130.343 55.245 125.591 54.9866 121.542C54.6479 116.597 55.7132 112.678 56.4644 110.465C58.5797 111.475 62.0972 113.167 65.8464 115.054C69.6139 116.982 73.6135 119.106 77.1128 121.933C80.7592 124.883 83.0181 128.946 85.086 133.07C85.3543 133.621 85.6193 134.173 85.8792 134.722H59.2545Z" fill="url(#paint17_linear_1_49600)"/>
<path opacity="0.5" d="M59.082 123.252C60.7267 123.611 62.3621 123.895 63.9832 124.107C65.4291 126.012 66.9825 127.829 68.6354 129.551C65.8851 129.514 63.0726 129.281 60.2216 128.841C60.0536 128.815 59.9066 128.931 59.8943 129.101C59.882 129.271 60.0094 129.43 60.178 129.456C63.2434 129.917 66.2637 130.14 69.2097 130.141C70.806 131.759 72.4921 133.288 74.2589 134.723H75.5049C75.1567 131.457 75.0995 128.255 75.3119 125.159C75.3223 125.008 75.2088 124.895 75.0569 124.906C74.9052 124.917 74.7722 125.049 74.7613 125.201C74.5464 128.206 74.583 131.31 74.892 134.477C73.0468 132.995 71.2901 131.409 69.6308 129.726C69.6873 126.797 69.9651 123.945 70.4455 121.197C70.4718 121.046 70.3698 120.919 70.2166 120.911C70.0631 120.904 69.9162 121.02 69.8892 121.171C69.4318 123.743 69.1512 126.407 69.0619 129.142C67.4249 127.437 65.8862 125.637 64.4542 123.75C64.6931 122.142 64.9961 120.565 65.3593 119.024C65.3953 118.871 65.2995 118.728 65.1443 118.703C64.9891 118.678 64.8328 118.781 64.7962 118.934C64.4713 120.294 64.1933 121.683 63.9642 123.096C62.8398 121.573 61.7844 119.995 60.8021 118.367C60.7192 118.229 60.539 118.185 60.3986 118.269C60.2585 118.352 60.2119 118.533 60.2957 118.672C61.2876 120.316 62.3534 121.909 63.4886 123.447C62.064 123.24 60.6288 122.978 59.1869 122.658C59.0245 122.622 58.868 122.725 58.8388 122.889C58.8092 123.053 58.9189 123.217 59.082 123.252ZM80.244 132.332C80.3284 133.125 80.4317 133.922 80.5533 134.723H81.1285C80.9958 133.882 80.8836 133.044 80.7921 132.211C80.7753 132.057 80.6402 131.96 80.489 131.993C80.3378 132.026 80.2274 132.177 80.244 132.332Z" fill="#C40000"/>
<path d="M65.8459 115.054C69.6134 116.982 73.613 119.105 77.1123 121.933C80.7587 124.882 83.0176 128.945 85.0855 133.069C85.3538 133.621 85.6188 134.173 85.8787 134.722H71.6339C70.2062 133.284 68.9156 131.642 67.8335 129.785C64.7045 124.486 63.5253 118.837 63.4688 113.867C64.2427 114.25 65.0388 114.647 65.8459 115.054Z" fill="url(#paint18_linear_1_49600)"/>
<path d="M72.5643 134.723C71.1515 132.943 69.9368 130.932 69.023 128.686C66.0965 121.613 66.2327 114.427 67.5781 108.868C68.9112 103.244 71.4533 99.2481 73.0554 97.043C75.0617 98.8991 78.3934 101.998 81.9161 105.395C85.4449 108.844 89.1644 112.589 92.0834 116.947C95.124 121.491 96.2341 126.796 97.1102 132.104C97.2447 132.98 97.3725 133.857 97.4937 134.723H72.5643Z" fill="url(#paint19_linear_1_49600)"/>
<path opacity="0.3" d="M70.6213 119.474C73.8753 121.047 77.1617 122.339 80.4424 123.357C81.7207 125.827 83.1418 128.224 84.699 130.533C81.0326 129.844 77.3247 128.838 73.6219 127.502C73.4343 127.434 73.2404 127.535 73.1906 127.729C73.1403 127.923 73.2531 128.136 73.4418 128.203C77.3893 129.611 81.3414 130.647 85.2419 131.327C86.0433 132.482 86.8795 133.614 87.7489 134.723H88.6295C87.6468 133.489 86.705 132.227 85.8083 130.934C86.5538 127.067 87.6189 123.381 88.9613 119.917C89.0255 119.751 88.938 119.586 88.765 119.546C88.5922 119.506 88.3985 119.607 88.3337 119.773C87.0552 123.045 86.0222 126.514 85.2706 130.148C83.7281 127.861 82.3209 125.487 81.0547 123.04C82.1311 119.797 83.4269 116.717 84.9124 113.824C84.9939 113.665 84.9244 113.487 84.7564 113.426C84.5881 113.365 84.3844 113.443 84.3018 113.602C82.9028 116.309 81.6686 119.179 80.6235 122.193C79.3901 119.729 78.2992 117.193 77.357 114.597C78.1795 112.888 79.0622 111.237 79.9999 109.646C80.0928 109.488 80.0357 109.296 79.8716 109.215C79.7074 109.133 79.4976 109.194 79.4039 109.352C78.5715 110.754 77.7817 112.204 77.0378 113.699C76.3124 111.614 75.6828 109.493 75.1521 107.34C75.1072 107.159 74.9218 107.047 74.7368 107.092C74.5517 107.136 74.4375 107.321 74.4829 107.505C75.0187 109.678 75.6546 111.82 76.3867 113.925C74.8716 113.203 73.3642 112.415 71.8691 111.561C71.7007 111.465 71.491 111.525 71.4014 111.698C71.3117 111.871 71.3771 112.091 71.5466 112.187C73.2541 113.154 74.9771 114.035 76.7091 114.832C77.6602 117.453 78.7618 120.013 80.007 122.501C76.9571 121.51 73.905 120.28 70.8824 118.805C70.7042 118.718 70.5006 118.796 70.428 118.981C70.3553 119.166 70.4423 119.387 70.6213 119.474ZM91.973 129.608C91.6429 131.278 91.3775 132.985 91.1791 134.723H91.8549C92.0464 133.004 92.304 131.316 92.6251 129.663C92.6594 129.486 92.5426 129.331 92.3629 129.316C92.1831 129.3 92.008 129.43 91.973 129.608Z" fill="#C40000"/>
<path d="M108.869 33.4623C109.07 33.4623 109.258 33.3842 109.401 33.2423C110.178 32.4728 111.207 32.0495 112.3 32.0495C114.571 32.0495 116.419 33.8958 116.419 36.1651C116.419 38.4346 114.571 40.2808 112.3 40.2808C111.207 40.2808 110.178 39.8576 109.401 39.089C109.258 38.9462 109.07 38.868 108.869 38.868C108.454 38.868 108.117 39.205 108.117 39.6192V52.7438H121.126C121.859 52.7438 122.456 53.3397 122.456 54.0722C122.456 54.4271 122.317 54.7607 122.066 55.0117C121.406 55.6776 121.042 56.562 121.042 57.501C121.042 59.452 122.63 61.0393 124.583 61.0393C126.535 61.0393 128.124 59.452 128.124 57.501C128.124 56.562 127.76 55.6776 127.098 55.0107C126.848 54.7607 126.71 54.4271 126.71 54.0722C126.71 53.3397 127.306 52.7438 128.039 52.7438L141.46 52.7439C141.303 34.3777 126.478 19.5226 108.117 19.3008V32.7111C108.117 33.1254 108.454 33.4623 108.869 33.4623Z" fill="#FCB63A"/>
<path d="M120.361 23.3113C124.196 24.9439 127.639 27.2746 130.594 30.2386C133.55 33.2031 135.871 36.6527 137.491 40.4913C139.13 44.3749 139.979 48.4956 140.016 52.7439H141.46C141.303 34.3777 126.478 19.5226 108.117 19.3008V20.7439C112.365 20.7971 116.483 21.6599 120.361 23.3113Z" fill="url(#paint20_linear_1_49600)"/>
<path d="M108.869 33.4606C109.07 33.4606 109.258 33.3825 109.401 33.2406C110.178 32.4711 111.207 32.0478 112.3 32.0478C114.571 32.0478 116.419 33.8941 116.419 36.1635C116.419 38.4329 114.571 40.2791 112.3 40.2791C111.207 40.2791 110.178 39.8559 109.401 39.0873C109.258 38.9445 109.07 38.8663 108.869 38.8663C108.454 38.8663 108.117 39.2033 108.117 39.6175V52.7421H121.126C121.859 52.7421 122.456 53.3381 122.456 54.0706C122.456 54.4254 122.317 54.759 122.066 55.01C121.406 55.6759 121.042 56.5603 121.042 57.4993C121.042 59.4504 122.63 61.0376 124.583 61.0376C126.535 61.0376 128.124 59.4504 128.124 57.4993C128.124 56.5603 127.76 55.6759 127.098 55.009C126.848 54.759 126.71 54.4254 126.71 54.0706C126.71 53.3381 127.306 52.7421 128.039 52.7421L140.016 52.7422C139.979 48.4939 139.13 44.3732 137.491 40.4897C135.871 36.651 133.55 33.2014 130.594 30.2369C127.639 27.2729 124.196 24.9422 120.361 23.3096C116.483 21.6582 112.365 20.7954 108.117 20.7422V32.7094C108.117 33.1237 108.454 33.4606 108.869 33.4606Z" fill="url(#paint21_linear_1_49600)"/>
<path d="M136.101 46.7314C135.465 46.7314 134.883 46.3091 134.708 45.6669C134.635 45.3989 134.557 45.1283 134.476 44.8626C134.243 44.1003 134.672 43.2936 135.435 43.061C136.198 42.8284 137.005 43.2576 137.238 44.02C137.328 44.3135 137.414 44.6126 137.495 44.9089C137.705 45.678 137.25 46.4711 136.481 46.6804C136.354 46.715 136.226 46.7314 136.101 46.7314ZM134.167 41.5922C133.632 41.5922 133.118 41.2938 132.868 40.7809C131.865 38.7259 130.609 36.7962 129.134 35.0453C128.62 34.4357 128.698 33.5252 129.308 33.0118C129.918 32.4984 130.829 32.5764 131.343 33.1861C132.971 35.1185 134.358 37.2483 135.464 39.5165C135.814 40.233 135.515 41.0969 134.798 41.446C134.595 41.5451 134.379 41.5922 134.167 41.5922ZM127 32.2701C126.664 32.2701 126.326 32.1534 126.052 31.9154C123.846 29.9957 121.36 28.4405 118.664 27.2927C117.559 26.8222 116.416 26.4206 115.266 26.0988C114.498 25.8839 114.05 25.0874 114.265 24.3199C114.48 23.5524 115.277 23.1045 116.045 23.3195C117.315 23.6748 118.577 24.1182 119.796 24.6373C122.771 25.9038 125.514 27.6201 127.949 29.7385C128.55 30.2619 128.613 31.1734 128.09 31.7746C127.804 32.1024 127.403 32.2701 127 32.2701Z" fill="url(#paint22_linear_1_49600)"/>
<path opacity="0.3" d="M121.223 58.1108C121.181 58.1108 121.139 58.1122 121.096 58.114C121.388 59.7733 122.84 61.0385 124.583 61.0385C126.327 61.0385 127.779 59.7717 128.07 58.1108L121.223 58.1108ZM109.401 39.0882C109.258 38.9454 109.07 38.8672 108.869 38.8672C108.454 38.8672 108.117 39.2042 108.117 39.6184V47.8708C109.86 46.931 111.047 45.0891 111.047 42.9753C111.047 41.5985 110.543 40.3373 109.711 39.3654C109.604 39.2786 109.501 39.1863 109.401 39.0882Z" fill="#FA7000"/>
<path d="M134.645 59.5553H121.223C120.491 59.5553 119.894 60.1513 119.894 60.8837C119.894 61.2386 120.032 61.5722 120.283 61.8222C120.944 62.4891 121.308 63.3735 121.308 64.3124C121.308 66.2635 119.719 67.8508 117.767 67.8508C115.815 67.8508 114.226 66.2635 114.226 64.3124C114.226 63.3735 114.59 62.4891 115.25 61.8231C115.502 61.5722 115.64 61.2386 115.64 60.8837C115.64 60.1513 115.043 59.5553 114.31 59.5553H101.301V46.4307C101.301 46.0165 101.639 45.6795 102.053 45.6795C102.254 45.6795 102.443 45.7577 102.586 45.9005C103.362 46.669 104.391 47.0923 105.484 47.0923C107.755 47.0923 109.603 45.2461 109.603 42.9767C109.603 40.7073 107.755 38.861 105.484 38.861C104.391 38.861 103.362 39.2843 102.585 40.0538C102.443 40.1957 102.254 40.2738 102.053 40.2738C101.639 40.2738 101.301 39.9368 101.301 39.5226V26.1123C101.205 26.1111 101.109 26.1097 101.013 26.1094C100.916 26.1097 100.82 26.1111 100.724 26.1123C82.2649 26.3354 67.3789 41.3487 67.3789 59.8507C67.3789 81.4895 85.8246 90.9482 85.8246 99.5436V106.03H116.201V99.5436C116.201 90.9856 134.485 81.5715 134.645 60.1327C134.645 60.0387 134.646 59.945 134.646 59.8507C134.646 59.7521 134.645 59.6538 134.645 59.5553Z" fill="#FCB63A"/>
<path d="M100.724 26.1123C82.2649 26.3354 67.3789 41.3487 67.3789 59.8507C67.3789 81.4895 85.8246 90.9482 85.8246 99.5436V106.03H87.2687V99.5436C87.2687 95.7153 84.4205 92.1488 80.8144 87.6334C75.4719 80.9439 68.8231 72.6186 68.8231 59.8507C68.8231 55.4981 69.6734 51.2764 71.3504 47.3029C72.9704 43.4642 75.2907 40.0147 78.2467 37.0501C81.2023 34.0861 84.6452 31.7554 88.4799 30.1228C92.3583 28.4715 96.4763 27.6086 100.724 27.5554C100.82 27.5542 100.916 27.5529 101.013 27.5525C101.109 27.5529 101.205 27.5542 101.301 27.5554V26.1123C101.205 26.1111 101.109 26.1097 101.013 26.1094C100.916 26.1097 100.82 26.1111 100.724 26.1123Z" fill="url(#paint23_linear_1_49600)"/>
<path d="M134.644 59.5547H133.2C133.2 59.6531 133.201 59.7516 133.201 59.85C133.201 59.9446 133.2 60.038 133.199 60.132C133.102 72.7403 126.513 80.9928 121.21 87.6328C117.604 92.1481 114.756 95.7146 114.756 99.5429V106.03H116.2V99.5429C116.2 90.9849 134.484 81.5708 134.644 60.132C134.644 60.038 134.646 59.9444 134.646 59.85C134.646 59.7515 134.645 59.6531 134.644 59.5547Z" fill="url(#paint24_linear_1_49600)"/>
<path d="M133.2 59.5536H121.223C120.49 59.5536 119.893 60.1496 119.893 60.882C119.893 61.2369 120.032 61.5705 120.282 61.8205C120.943 62.4874 121.307 63.3718 121.307 64.3107C121.307 66.2618 119.719 67.8491 117.766 67.8491C115.814 67.8491 114.225 66.2618 114.225 64.3107C114.225 63.3718 114.589 62.4874 115.25 61.8214C115.501 61.5705 115.639 61.2369 115.639 60.882C115.639 60.1496 115.043 59.5536 114.31 59.5536H101.301V46.429C101.301 46.0148 101.638 45.6778 102.052 45.6778C102.253 45.6778 102.442 45.756 102.585 45.8988C103.361 46.6673 104.39 47.0906 105.483 47.0906C107.754 47.0906 109.602 45.2444 109.602 42.975C109.602 40.7056 107.754 38.8593 105.483 38.8593C104.39 38.8593 103.361 39.2826 102.584 40.0521C102.442 40.194 102.253 40.2721 102.052 40.2721C101.638 40.2721 101.301 39.9351 101.301 39.5209V27.5537C101.204 27.5525 101.108 27.5512 101.012 27.5508C100.915 27.5512 100.819 27.5525 100.723 27.5537C96.4755 27.6069 92.3574 28.4698 88.479 30.1211C84.6443 31.7537 81.2014 34.0844 78.2459 37.0484C75.2898 40.013 72.9695 43.4625 71.3496 47.3012C69.6725 51.2747 68.8223 55.4964 68.8223 59.849C68.8223 72.6169 75.471 80.9422 80.8135 87.6317C84.4196 92.1471 87.2679 95.7136 87.2679 99.5419V106.029H114.756V99.5419C114.756 95.7136 117.604 92.1471 121.21 87.6317C126.513 80.9917 133.102 72.7392 133.199 60.131C133.2 60.0369 133.201 59.9435 133.201 59.849C133.201 59.7505 133.2 59.6521 133.2 59.5536Z" fill="url(#paint25_linear_1_49600)"/>
<path d="M101.012 130.805H91.3574L91.6437 132.504C91.8506 133.751 93.0523 134.725 94.3179 134.725H107.706C108.972 134.725 110.173 133.751 110.38 132.504L110.667 130.805H101.012Z" fill="url(#paint26_linear_1_49600)"/>
<path d="M85.0847 106.031H116.941C117.758 106.031 118.422 106.694 118.422 107.511V107.909C118.422 108.726 117.758 109.389 116.941 109.389H85.0847C84.2672 109.389 83.6035 108.726 83.6035 107.909V107.511C83.6035 106.694 84.2672 106.031 85.0847 106.031Z" fill="url(#paint27_linear_1_49600)"/>
<path d="M85.2637 109.391L88.1003 128.734C88.2705 129.888 89.4152 130.805 90.6502 130.805H111.373C112.604 130.805 113.755 129.888 113.924 128.734L116.761 109.391H85.2637Z" fill="url(#paint28_linear_1_49600)"/>
<path d="M114.778 122.906L116.761 109.391H85.2637L87.2456 122.906H114.778Z" fill="url(#paint29_linear_1_49600)"/>
<path d="M86.4649 117.582L99.697 130.805H102.791L85.9335 113.959L86.4649 117.582ZM92.2448 109.391L113.06 130.191C113.516 129.818 113.84 129.306 113.924 128.734L114.022 128.06L95.3392 109.391H92.2448ZM87.6648 125.764L92.7086 130.805H95.8029L87.1334 122.141L87.6648 125.764ZM85.2637 109.391L85.2649 109.399L106.686 130.805H109.78L88.3507 109.391H85.2637ZM99.2334 109.391L114.52 124.666L114.916 121.97L102.328 109.391H99.2334ZM116.305 109.391H113.211L116.307 112.485L116.703 109.788L116.305 109.391ZM106.222 109.391L115.414 118.576L115.809 115.879L109.316 109.391H106.222Z" fill="url(#paint30_linear_1_49600)"/>
<path d="M91.3574 130.801L91.6437 132.5C91.8506 133.747 93.0523 134.721 94.3179 134.721H98.1833C97.6485 134.721 97.1408 133.747 97.0533 132.5L96.9323 130.801H91.3574Z" fill="#02101C"/>
<path d="M108.656 72.6445C105.456 72.6445 102.853 75.246 102.853 78.4436V82.8638H99.1728V78.4436C99.1728 75.246 96.5695 72.6445 93.3696 72.6445C90.1697 72.6445 87.5664 75.246 87.5664 78.4436C87.5664 81.6412 90.1697 84.2426 93.3696 84.2426H97.7932V106.03H99.1728V84.2426H102.853V106.03H104.232V84.2426H108.656C111.856 84.2426 114.459 81.6412 114.459 78.4436C114.459 75.246 111.856 72.6445 108.656 72.6445ZM95.9049 82.8638H93.3696C90.9304 82.8638 88.9462 80.8809 88.9462 78.4436C88.9462 76.0062 90.9304 74.0233 93.3696 74.0233C95.8086 74.0233 97.7932 76.0062 97.7932 78.4436V82.8638H95.9049ZM108.656 82.8638H104.232V78.4436C104.232 76.0062 106.217 74.0233 108.656 74.0233C111.095 74.0233 113.079 76.0062 113.079 78.4436C113.079 80.8809 111.095 82.8638 108.656 82.8638Z" fill="url(#paint31_linear_1_49600)"/>
<path d="M101.012 26.1094C100.915 26.1097 100.819 26.1111 100.723 26.1123V39.5226C100.723 40.2551 101.319 40.8511 102.052 40.8511C102.407 40.8511 102.741 40.7129 102.991 40.463C103.659 39.8022 104.544 39.4383 105.483 39.4383C107.436 39.4383 109.024 41.0256 109.024 42.9767C109.024 44.9277 107.436 46.515 105.483 46.515C104.544 46.515 103.659 46.1512 102.992 45.4914C102.741 45.2404 102.407 45.1022 102.052 45.1022C101.319 45.1022 100.723 45.6982 100.723 46.4307V59.8439H101.3V46.4307C101.3 46.0165 101.637 45.6795 102.052 45.6795C102.253 45.6795 102.442 45.7577 102.584 45.9005C103.361 46.669 104.39 47.0923 105.483 47.0923C107.754 47.0923 109.602 45.2461 109.602 42.9767C109.602 40.7073 107.754 38.861 105.483 38.861C104.39 38.861 103.361 39.2843 102.584 40.0538C102.442 40.1957 102.253 40.2738 102.052 40.2738C101.637 40.2738 101.3 39.9368 101.3 39.5226V26.1123C101.204 26.1111 101.108 26.1097 101.012 26.1094Z" fill="url(#paint32_linear_1_49600)"/>
<path d="M86.9631 58.8022C86.9631 58.6016 87.0413 58.4129 87.1843 58.27C87.9533 57.4942 88.3768 56.4655 88.3768 55.3735C88.3768 53.1041 86.5293 51.2578 84.2583 51.2578C81.9873 51.2578 80.1397 53.1041 80.1397 55.3735C80.1397 56.4656 80.5632 57.4943 81.3334 58.271C81.4754 58.4128 81.5535 58.6015 81.5535 58.8022C81.5535 59.2163 81.2163 59.5533 80.8017 59.5533H67.3808C67.38 59.6517 67.3789 59.75 67.3789 59.8486C67.3789 59.943 67.3802 60.0366 67.3808 60.1305H80.8017C81.5348 60.1305 82.1312 59.5347 82.1312 58.8022C82.1312 58.4473 81.9929 58.1137 81.7428 57.8637C81.0814 57.1968 80.7174 56.3124 80.7174 55.3735C80.7174 53.4224 82.3059 51.8351 84.2583 51.8351C86.2108 51.8351 87.7992 53.4224 87.7992 55.3735C87.7992 56.3124 87.4352 57.1968 86.7748 57.8628C86.5237 58.1138 86.3854 58.4474 86.3854 58.8022C86.3854 59.5347 86.9818 60.1305 87.7149 60.1305H101.138V59.5533H87.7149C87.3003 59.5533 86.9631 59.2163 86.9631 58.8022Z" fill="url(#paint33_linear_1_49600)"/>
<path d="M119.893 60.8831C119.893 61.238 120.032 61.5715 120.282 61.8215C120.943 62.4885 121.307 63.3728 121.307 64.3118C121.307 66.2628 119.719 67.8502 117.766 67.8502C115.814 67.8502 114.225 66.2628 114.225 64.3118C114.225 63.3728 114.589 62.4885 115.25 61.8225C115.501 61.5715 115.639 61.238 115.639 60.8831C115.639 60.1506 115.043 59.5547 114.31 59.5547H100.887V60.132H114.31C114.724 60.132 115.061 60.4689 115.061 60.8831C115.061 61.0837 114.983 61.2724 114.84 61.4152C114.071 62.191 113.648 63.2197 113.648 64.3118C113.648 66.5812 115.495 68.4275 117.766 68.4275C120.037 68.4275 121.885 66.5812 121.885 64.3118C121.885 63.2197 121.461 62.191 120.691 61.4143C120.549 61.2724 120.471 61.0837 120.471 60.8831C120.471 60.4689 120.808 60.132 121.223 60.132L134.644 60.132C134.644 60.0381 134.646 59.9445 134.646 59.85C134.646 59.7515 134.645 59.6531 134.644 59.5547H121.223C120.49 59.5547 119.893 60.1506 119.893 60.8831Z" fill="url(#paint34_linear_1_49600)"/>
<path d="M101.3 59.7695H100.723V80.5135H101.3V59.7695Z" fill="url(#paint35_linear_1_49600)"/>
<path d="M78.2459 37.0484C75.2898 40.013 72.9695 43.4625 71.3496 47.3012C69.6725 51.2747 68.8223 55.4964 68.8223 59.849C68.8223 72.6169 75.471 80.9422 80.8135 87.6317C84.4196 92.1471 87.2679 95.7136 87.2679 99.5419V106.029H94.7197V99.5419C94.7197 95.7136 93.4157 92.1471 91.7648 87.6317C89.319 80.9422 86.2752 72.6169 86.2752 59.849C86.2752 55.4964 86.6644 51.2747 87.4321 47.3012C88.1739 43.4625 89.236 40.013 90.5894 37.0484C91.9425 34.0844 93.5186 31.7537 95.2741 30.1211C97.0901 28.4324 99.0206 27.5677 101.012 27.5508C96.6623 27.5677 92.4454 28.4324 88.479 30.1211C84.6443 31.7537 81.2014 34.0844 78.2459 37.0484Z" fill="url(#paint36_linear_1_49600)"/>
<path d="M95.5562 128.73L95.2695 124.101L95.1478 122.137L94.8652 117.578L94.6407 113.955L94.6408 113.955L94.3582 109.395L94.3576 109.387H85.2637L85.2649 109.395L85.9336 113.955L85.9335 113.955L86.4649 117.578L87.1334 122.137L87.4214 124.101L88.1003 128.73C88.2705 129.884 89.4152 130.801 90.6502 130.801H96.6337C96.112 130.801 95.6282 129.884 95.5562 128.73Z" fill="url(#paint37_linear_1_49600)"/>
<path d="M46.2507 98.0168C46.3398 97.715 46.6919 96.8035 46.9318 96.8751C47.5002 97.0443 47.0264 97.4615 47.2349 98.1807C47.3695 98.6452 46.2316 99.3068 46.2316 99.3068C46.2316 99.3068 46.0632 98.6457 46.2507 98.0168Z" fill="#F4AA74"/>
<path d="M37.1238 101.77C39.2454 100.468 45.2646 99.5898 46.1726 98.849C46.7626 98.368 46.4575 97.6567 47.8226 97.167C48.4841 96.9298 49.8034 98.3528 49.4458 98.9584C48.6287 100.344 47.6617 100.378 46.6565 99.8638C45.9869 99.8958 40.5692 102.697 38.9921 103.362C38.28 103.663 37.1835 104.038 36.8485 103.594C36.3147 102.888 36.3363 102.253 37.1238 101.77Z" fill="#F4AA74"/>
<path d="M32.2021 133.779C32.2021 133.779 29.1613 132.998 28.9398 132.928C28.6948 132.851 28.3077 132.712 28.261 133.516C28.2149 134.319 28.1855 134.571 28.1855 134.571C28.1855 134.571 31.7069 134.579 32.0859 134.536C32.4643 134.493 32.7637 134.208 32.2021 133.779Z" fill="#0F1B29"/>
<path d="M34.0606 105.286C34.0606 105.286 33.9421 114.26 33.8057 116.304C33.6693 118.348 29.7291 118.74 28.6673 116.085C27.6041 113.431 26.1979 109.737 26.2091 107.046C26.2216 104.353 26.8859 102.305 28.8432 100.73C30.8006 99.1548 34.1342 102.533 34.0606 105.286Z" fill="url(#paint38_linear_1_49600)"/>
<path d="M28.6016 124.34C28.685 126.681 28.7811 128.821 28.8574 129.47C29.0288 130.937 28.7128 133.076 28.7128 133.076C28.7128 133.076 28.7285 133.295 29.0984 133.397C29.3445 133.465 29.5883 133.278 29.5883 133.278C29.5883 133.278 30.7743 128.335 31.6593 124.68L28.6016 124.34Z" fill="#F4AA74"/>
<path d="M32.3522 121.827C33.0776 118.88 33.2496 118.904 33.7766 116.451C34.0071 115.375 33.1268 114.313 31.0784 114.147C29.0306 113.982 28.4041 115.311 28.4076 117.115C28.4094 118.121 28.2922 121.57 28.3974 124.52L31.7578 124.893C32.0336 123.755 32.18 122.527 32.3522 121.827Z" fill="url(#paint39_linear_1_49600)"/>
<path d="M31.9213 125.226C31.9122 125.276 31.8629 125.318 31.8114 125.318L28.4363 125.319C28.3848 125.32 28.331 125.279 28.3167 125.23L28.1363 124.607C28.1221 124.558 28.1526 124.518 28.2039 124.518L31.9533 124.516C32.0046 124.516 32.0395 124.557 32.0305 124.607L31.9213 125.226Z" fill="url(#paint40_linear_1_49600)"/>
<path d="M20.5767 124.613C20.4321 126.766 20.3081 128.951 20.3278 129.715C20.3647 131.161 19.9004 133.076 19.9004 133.076C19.9004 133.076 19.9059 133.305 20.2451 133.44C20.593 133.578 20.6821 133.467 20.6821 133.467C20.6821 133.467 22.4222 128.958 24.055 124.613H20.5767Z" fill="#F4AA74"/>
<path d="M21.2839 133.526C21.279 133.447 21.2697 133.38 21.2586 133.32C21.158 132.768 20.8306 132.886 20.6149 132.955C20.5751 132.968 20.4427 133.006 20.2532 133.057C20.0631 133.007 19.9306 132.971 19.8904 132.958C19.6746 132.89 19.3461 132.776 19.25 133.328C19.2393 133.389 19.2303 133.455 19.2257 133.534C19.1812 134.321 19.1523 134.568 19.1523 134.568C19.1523 134.568 19.6351 134.568 20.2592 134.567C20.8831 134.564 21.3665 134.559 21.3665 134.559C21.3665 134.559 21.3354 134.312 21.2839 133.526Z" fill="#101B29"/>
<path d="M28.9043 104.486C28.9043 104.486 26.9662 115.632 26.5806 117.601C26.1946 119.569 22.319 119.464 21.6146 116.753C21.0641 114.632 19.7143 109.256 20.2115 106.306C20.4118 105.117 20.5446 104.04 20.874 102.783C21.6944 99.6546 29.3166 101.82 28.9043 104.486Z" fill="#1A1A2E"/>
<path d="M26.4881 117.899C26.594 117.557 25.8395 115.311 23.8569 114.968C21.8741 114.626 21.0838 118.194 20.9264 119.954C20.8523 120.785 20.6138 122.78 20.4844 124.708L24.1304 124.816C25.2492 121.839 26.065 119.264 26.4881 117.899Z" fill="#1A1A2E"/>
<path d="M24.1453 125.327C24.1283 125.375 24.0724 125.415 24.0209 125.415H20.4138C20.3625 125.415 20.3203 125.373 20.3203 125.322V124.707C20.3203 124.655 20.3625 124.613 20.4138 124.613H24.3016C24.3529 124.613 24.3812 124.653 24.3642 124.701L24.1453 125.327Z" fill="url(#paint41_linear_1_49600)"/>
<path d="M35.0625 100.891C35.0625 100.891 36.3489 103.025 36.8448 103.588C37.2 103.991 37.7203 103.453 38.0441 103.128C38.3671 102.803 38.1105 101.11 37.4494 99.8238C36.9427 98.8385 35.0692 100.674 35.0625 100.891Z" fill="#F4AA74"/>
<path d="M30.0174 94.6019C30.643 96.5758 33.9297 102.77 33.9297 102.77C33.9297 102.77 34.6016 102.907 35.8438 102.393C37.7087 101.619 38.1095 100.843 38.1095 100.843C38.1095 100.843 36.8486 96.3245 35.7089 93.3756C34.8072 91.0424 32.6137 89.9896 30.9054 90.9362C29.506 91.7119 29.6676 93.4988 30.0174 94.6019Z" fill="url(#paint42_linear_1_49600)"/>
<path d="M32.4745 90.4165C35.5528 91.3661 35.2975 94.065 35.1847 95.7165C34.5354 105.232 34.1302 108.191 34.1302 108.191C34.1302 108.191 31.8951 110.021 26.9092 108.916C20.4344 107.479 20.3555 103.724 20.3555 103.724C20.3555 103.724 23.5934 96.6221 25.4612 91.9459C26.0592 90.4479 27.7854 89.5426 30.3951 89.9161C31.14 90.0231 31.7152 90.1819 32.4745 90.4165Z" fill="url(#paint43_linear_1_49600)"/>
<path d="M34.263 87.3533C35.2282 86.431 35.4537 83.513 33.9893 83.0007C32.1797 82.3676 32.1151 84.2568 31.0676 84.3254C28.7881 84.4757 28.2694 85.983 28.6742 87.7529C28.9249 88.8488 29.8831 89.3943 30.9307 89.6008C31.3943 89.6925 31.2069 88.5118 32.3232 87.8581C33.4398 87.2043 34.263 87.3533 34.263 87.3533Z" fill="#1A1A2E"/>
<path d="M33.6009 91.0073C33.5567 91.9712 33.7234 94.1612 31.5496 93.532C28.9955 92.7936 29.0704 89.9921 29.286 89.7239C29.7757 89.1135 30.7152 89.7306 31.3576 89.9258C31.9996 90.1217 33.6382 90.1903 33.6009 91.0073Z" fill="#1A1A2E"/>
<path d="M29.9774 89.8281C30.1048 89.8473 30.2332 89.8694 30.3663 89.8959C31.1034 90.0462 31.6682 90.2386 32.4115 90.5171C32.6464 90.6045 32.858 90.7025 33.0492 90.8103C32.988 91.4291 33.1912 93.2294 31.5435 92.8025C29.8516 92.3634 29.8041 90.3944 29.9774 89.8281Z" fill="#F4AA74"/>
<path d="M30.4491 90.4163C30.7514 88.5273 31.0497 88.2415 31.4886 86.7918C31.4846 86.7392 33.6473 86.9328 34.1134 85.8086C34.1134 85.8086 34.3751 87.2026 34.2715 88.3849C34.1744 89.5006 33.8948 90.1236 32.7735 89.6839C32.8177 90.2217 32.6903 90.8488 32.735 91.3198C32.8238 92.2699 32.1789 92.532 31.7267 92.5093C31.2741 92.4855 30.1693 92.1644 30.4491 90.4163Z" fill="#F4AA74"/>
<path d="M26.9133 107.304C26.852 107.556 27.0145 107.762 27.2742 107.762H36.6009C36.8604 107.762 37.1229 107.556 37.1841 107.304L38.7948 100.658C38.8558 100.406 38.6934 100.199 38.4338 100.199H29.1072C28.8476 100.199 28.585 100.406 28.524 100.658L26.9133 107.304Z" fill="#1A1A2E"/>
<path d="M26.9133 107.304L28.524 100.658C28.585 100.406 28.8476 100.199 29.1072 100.199H29.5555C29.2958 100.199 29.0334 100.406 28.9725 100.658L27.3618 107.304C27.3004 107.556 27.463 107.762 27.7226 107.762H27.2742C27.0145 107.762 26.852 107.556 26.9133 107.304Z" fill="url(#paint44_linear_1_49600)"/>
<path d="M34.1906 104.076C34.3601 103.313 33.9768 102.695 33.3343 102.695C32.6921 102.695 32.0338 103.313 31.8644 104.076C31.6947 104.838 32.0782 105.456 32.7206 105.456C33.3627 105.456 34.0208 104.838 34.1906 104.076Z" fill="url(#paint45_linear_1_49600)"/>
<path d="M32.4308 104.076C32.5743 103.43 33.0693 102.889 33.6078 102.738C33.5231 102.712 33.4321 102.695 33.3343 102.695C32.6921 102.695 32.0338 103.313 31.8644 104.076C31.6947 104.838 32.0782 105.456 32.7206 105.456C32.8184 105.456 32.9165 105.44 33.0133 105.413C32.5414 105.263 32.2869 104.722 32.4308 104.076Z" fill="url(#paint46_linear_1_49600)"/>
<path d="M18.9757 96.7083C18.9757 96.7083 17.2299 98.4876 16.8097 99.108C16.5081 99.5527 17.1594 99.9207 17.5556 100.153C17.9513 100.384 19.5267 99.7118 20.6079 98.7495C21.4352 98.0127 19.1871 96.6606 18.9757 96.7083Z" fill="#F4AA74"/>
<path d="M26.7641 90.4475C24.6067 91.5472 17.7129 97.3421 17.7129 97.3421C17.7129 97.3421 17.7487 98.0269 18.5587 99.0994C19.7755 100.709 20.6282 100.903 20.6282 100.903C20.6282 100.903 22.6261 99.8046 24.6827 98.4526C25.6881 97.7917 25.9656 97.1704 26.7818 94.6927C27.2821 93.1734 27.7956 89.9217 26.7641 90.4475Z" fill="url(#paint47_linear_1_49600)"/>
<path d="M26.659 103.908C26.9563 103.804 27.9025 103.558 27.9843 103.795C28.1786 104.355 27.5629 104.214 27.1004 104.803C26.8014 105.183 25.5996 104.646 25.5996 104.646C25.5996 104.646 26.0386 104.123 26.659 103.908Z" fill="#F4AA74"/>
<path d="M18.2831 98.6929C20.5792 99.6545 24.8061 104.026 25.938 104.331C26.6733 104.528 27.0732 103.866 28.2677 104.688C28.8467 105.086 28.4602 106.987 27.7595 107.05C26.1564 107.196 25.5648 106.431 25.3957 105.316C24.979 104.791 19.541 102.029 18.0797 101.138C17.4198 100.736 16.4752 100.065 16.6401 99.5342C16.9025 98.6889 17.4307 98.3362 18.2831 98.6929Z" fill="#F4AA74"/>
<path d="M30.3974 87.4888C30.2584 87.7646 30.4762 88.1546 30.885 88.3606C31.293 88.5656 31.545 88.4417 31.684 88.1662C31.8233 87.8901 31.7981 87.5678 31.3888 87.3621C30.9802 87.1559 30.5366 87.2133 30.3974 87.4888Z" fill="#F4AA74"/>
<path d="M55.7053 110.984H42.8044C42.595 110.984 42.4238 111.155 42.4238 111.365V120.278C42.4238 120.487 42.595 120.658 42.8044 120.658H55.7053C55.9147 120.658 56.0859 120.487 56.0859 120.278V111.365C56.0859 111.155 55.9147 110.984 55.7053 110.984Z" fill="#FB8B2D"/>
<path d="M55.7053 110.984H42.8044C42.595 110.984 42.4238 111.155 42.4238 111.365V114.785H56.0859V111.365C56.0859 111.155 55.9147 110.984 55.7053 110.984Z" fill="#FA5600"/>
<path d="M44.2743 111.365C44.2743 111.155 44.399 110.984 44.5516 110.984H42.8044C42.595 110.984 42.4238 111.155 42.4238 111.365V114.785H44.2743V111.365Z" fill="url(#paint48_linear_1_49600)"/>
<path d="M42.4238 114.785V120.279C42.4238 120.488 42.595 120.659 42.8044 120.659H44.5516C44.399 120.659 44.2743 120.488 44.2743 120.279V114.785H42.4238Z" fill="url(#paint49_linear_1_49600)"/>
<path d="M47.3953 109.972C47.3953 109.875 47.4771 109.793 47.574 109.793H50.6767C50.7737 109.793 50.8556 109.875 50.8556 109.972V110.986H51.571V109.972C51.571 109.479 51.1699 109.078 50.6767 109.078H47.574C47.0808 109.078 46.6797 109.479 46.6797 109.972V110.986H47.3953V109.972Z" fill="url(#paint50_linear_1_49600)"/>
<path d="M44.2619 110.77H45.3344C45.4272 110.77 45.5026 110.845 45.5026 110.938V111.371C45.5026 111.464 45.4272 111.54 45.3344 111.54H44.262C44.1691 111.54 44.0938 111.464 44.0938 111.371V110.938C44.0938 110.845 44.1691 110.77 44.2619 110.77Z" fill="#082947"/>
<path d="M54.2504 110.77H53.178C53.0851 110.77 53.0098 110.845 53.0098 110.938V111.371C53.0098 111.464 53.0851 111.54 53.178 111.54H54.2504C54.3432 111.54 54.4185 111.464 54.4185 111.371V110.938C54.4185 110.845 54.3432 110.77 54.2504 110.77Z" fill="#082947"/>
<path d="M52.8523 133.65C52.8479 133.58 52.84 133.52 52.8302 133.466C52.7425 132.974 52.4507 133.078 52.2582 133.139C52.2228 133.151 52.1045 133.183 51.9356 133.228C51.7665 133.183 51.6482 133.151 51.6129 133.139C51.4208 133.078 51.1285 132.974 51.0409 133.466C51.0312 133.52 51.023 133.58 51.0186 133.65C50.976 134.351 50.9492 134.57 50.9492 134.57C50.9492 134.57 51.3796 134.573 51.9356 134.574C52.4914 134.573 52.9222 134.57 52.9222 134.57C52.9222 134.57 52.895 134.351 52.8523 133.65Z" fill="#0F1B29"/>
<path d="M55.9262 109.184C55.9262 109.184 54.3179 117.959 53.9238 119.702C53.5295 121.445 50.0807 121.252 49.5235 118.82C48.9669 116.388 48.195 112.733 49.0052 109.084C49.5142 106.791 49.8535 106.701 51.7533 105.608C53.654 104.514 56.3621 106.821 55.9262 109.184Z" fill="#F4AA74"/>
<path d="M54.2282 118.223C54.0291 120.961 52.2532 133.512 52.2532 133.512C52.2532 133.512 52.1985 133.626 51.8687 133.576C51.5471 133.527 51.4963 133.33 51.4963 133.33C51.4963 133.33 51.5139 131.574 51.1908 130.327C50.8677 129.078 49.9642 123.293 49.7461 121.734C49.5284 120.175 49.4964 116.92 51.2862 116.819C53.0761 116.718 54.2516 117.905 54.2282 118.223Z" fill="#F4AA74"/>
<path d="M64.6862 133.936C64.6862 133.936 62.1884 132.813 62.0083 132.72C61.8093 132.618 61.4971 132.441 61.3375 133.125C61.1783 133.809 61.1152 134.021 61.1152 134.021C61.1152 134.021 64.1414 134.551 64.4739 134.57C64.8061 134.59 65.1053 134.389 64.6862 133.936Z" fill="#0F1B29"/>
<path d="M59.7362 108.642C59.7362 108.642 62.2008 116.048 62.6777 117.771C63.1544 119.492 60.9084 121.85 59.2673 119.97C57.627 118.089 54.5186 114.555 53.7517 112.334C52.9848 110.114 52.9416 108.235 54.0994 106.374C55.2574 104.513 59.2366 107.072 59.7362 108.642Z" fill="#F4AA74"/>
<path d="M62.7992 118.441C62.8153 121.187 62.8561 121.32 62.8315 123.015C62.7929 125.663 62.6241 133.07 62.6241 133.07C62.6241 133.07 62.5957 133.249 62.232 133.368C62.0246 133.436 61.8512 133.283 61.8512 133.283C61.8512 133.283 61.7167 131.401 61.2938 130.184C60.8705 128.966 59.2055 122.84 58.8624 121.303C58.5194 119.767 58.5222 116.957 60.298 116.713C62.0742 116.468 62.7931 117.361 62.7992 118.441Z" fill="#F4AA74"/>
<path d="M59.9074 108.53C60.8701 111.41 62.6443 116.682 62.7434 117.102C62.8426 117.523 63.0356 119.266 57.9718 120.359C53.03 121.425 49.3239 120.451 49.3239 120.451C49.3239 120.451 48.2891 117.101 48.2891 113.091C48.2891 109.08 48.2891 110.26 48.2891 110.26C48.2891 110.26 49.0709 106.814 53.1999 106.534C57.3289 106.254 59.4018 107.018 59.9074 108.53Z" fill="#1A1A2E"/>
<path d="M50.0399 108.811C50.2758 109.11 50.4826 109.445 50.346 109.622C50.1309 109.899 49.8536 109.399 49.2396 109.169C48.8372 109.018 48.9315 108.207 48.9315 108.207C48.9315 108.207 49.6787 108.353 50.0399 108.811Z" fill="#F4AA74"/>
<path d="M46.7814 101.628C47.7442 103.833 48.4923 106.64 49.0808 108.224C49.3387 108.918 50.2201 109.831 49.9425 110.133C49.596 110.485 48.5005 110.803 48.2414 110.336C48.0377 109.968 47.8384 109.099 48.211 108.515C48.2476 107.921 45.6602 104.497 45.2262 103.04C45.0295 102.382 44.8377 101.465 45.2626 101.21C45.9395 100.805 46.4311 100.887 46.7814 101.628Z" fill="#F4AA74"/>
<path d="M46.0564 99.4565C46.0564 99.4565 45.2607 100.878 45.0761 101.505C44.9436 101.955 45.4002 102.609 45.7906 102.696C46.1807 102.784 47.3126 101.807 47.9547 100.72C48.4467 99.8882 46.2194 99.3608 46.0564 99.4565Z" fill="#F4AA74"/>
<path d="M49.2943 95.2554C46.344 97.1433 44.8184 100.065 44.8184 100.065C44.8184 100.065 45.0948 100.92 46.1121 101.503C47.0408 102.033 47.6104 101.966 47.6104 101.966C47.6104 101.966 49.7576 99.6292 51.6885 98.2931C52.2349 97.9158 53.8483 96.6479 53.2823 95.7804C52.6022 94.737 51.2453 94.0067 49.2943 95.2554Z" fill="#EA5B34"/>
<path d="M67.0987 100.127C67.4361 99.9508 67.8049 99.81 67.9529 99.9771C68.1857 100.24 67.6422 100.419 67.3017 100.979C67.0785 101.346 66.2988 101.103 66.2988 101.103C66.2988 101.103 66.5809 100.396 67.0987 100.127Z" fill="#F4AA74"/>
<path d="M59.431 101.989C61.7777 101.453 64.6773 101.241 66.3444 100.958C67.0748 100.833 68.1356 100.138 68.3812 100.466C68.6626 100.872 68.772 102.007 68.2643 102.174C67.8652 102.306 66.9731 102.34 66.4688 101.866C65.8908 101.719 62.0429 103.623 60.5302 103.778C59.847 103.849 58.9094 103.867 58.7378 103.402C58.4655 102.662 58.6369 102.195 59.431 101.989Z" fill="#F4AA74"/>
<path d="M51.711 94.6281C51.7255 93.8971 51.6698 93.5192 51.7222 92.8531C53.8162 92.2615 53.9844 90.7066 53.9383 89.8047C53.9383 89.8047 54.3826 90.8833 54.5413 91.9752C54.6604 92.9451 54.6719 93.2997 53.6581 93.3763C53.7497 94.0645 53.8039 94.1583 53.8623 94.6583C53.9589 95.4851 53.6122 95.8218 53.2324 95.9314C52.8532 96.0411 51.6804 96.1724 51.711 94.6281Z" fill="#F4AA74"/>
<path d="M56.6835 96.2905C56.1959 94.9451 55.7873 94.061 53.452 94.222C52.76 94.2696 52.2534 94.3873 51.6022 94.468C49.3514 94.7466 48.6394 96.0928 48.3236 98.5527C47.5272 104.756 48.1155 110.699 48.1155 110.699C48.1155 110.699 49.3322 111.411 54.7291 110.413C59.1101 109.601 59.987 108.444 59.987 108.444C59.987 108.444 57.6824 99.0469 56.6835 96.2905Z" fill="url(#paint51_linear_1_49600)"/>
<path d="M57.1613 102.297C57.1613 102.297 58.4107 103.342 58.9936 103.64C59.4114 103.854 60.1393 103.527 60.2974 103.16C60.456 102.793 59.7058 101.5 58.7569 100.668C58.0302 100.03 57.0974 102.119 57.1613 102.297Z" fill="#F4AA74"/>
<path d="M53.6327 98.3383C54.9405 101.586 57.5298 103.627 57.5298 103.627C57.5298 103.627 58.4215 103.515 59.1835 102.624C59.8779 101.811 59.9178 101.239 59.9178 101.239C59.9178 101.239 58.0195 98.6965 57.0646 96.5523C56.7952 95.9458 55.8486 94.1259 54.8904 94.5202C53.7379 94.994 52.7675 96.1904 53.6327 98.3383Z" fill="url(#paint52_linear_1_49600)"/>
<path d="M53.6175 94.2657C52.8037 92.248 53.7649 91.5508 53.8695 91.3452C54.0656 90.96 54.4782 90.4334 54.1498 89.7573C53.7157 88.8644 53.1336 87.7564 51.0695 88.0419C49.3499 88.2797 48.3198 90.3259 47.9483 93.7689C47.7812 95.317 44.9977 95.2309 43.7791 98.5773C43.0305 100.633 43.989 103.932 47.7041 105.032C49.7757 105.645 56.2952 104.898 55.7129 99.0872C55.5667 97.628 53.8674 94.885 53.6175 94.2657Z" fill="#1A1A2E"/>
<path d="M53.019 91.0558C52.8596 91.2735 52.9908 91.6407 53.312 91.8764C53.6341 92.1123 54.0244 92.1272 54.1838 91.9099C54.3436 91.6922 54.2124 91.3248 53.8902 91.0891C53.569 90.8536 53.1783 90.839 53.019 91.0558Z" fill="#F4AA74"/>
<path d="M118.586 134.723H120.361L123.158 124.917H140.704L137.907 134.723H139.682L158.722 67.9805H137.627L118.586 134.723ZM153.008 81.7881H135.462L138.915 69.6863H156.461L153.008 81.7881ZM149.069 95.5957H131.523L134.976 83.4939H152.522L149.069 95.5957ZM145.13 109.403H127.584L131.037 97.3015H148.582L145.13 109.403ZM123.645 123.211L127.098 111.109H144.643L141.191 123.211H123.645Z" fill="#D81703"/>
<path d="M159.492 67.9805H138.396L157.437 134.723H159.212L156.415 124.917H173.96L176.758 134.723H178.533L159.492 67.9805ZM140.658 69.6863H158.204L161.657 81.7881H144.111L140.658 69.6863ZM144.597 83.4939H162.143L165.596 95.5957H148.05L144.597 83.4939ZM148.537 97.3015H166.082L169.535 109.403H151.989L148.537 97.3015ZM155.928 123.211L152.476 111.109H170.021L173.474 123.211H155.928Z" fill="#FD5313"/>
<path d="M166.721 97.0971C166.721 97.0971 164.303 96.9383 163.596 96.7606C163.09 96.6341 163.323 95.9456 163.459 95.5213C163.596 95.0977 165.173 94.5651 166.579 94.5625C167.656 94.5604 166.905 96.9947 166.721 97.0971Z" fill="#EE9255"/>
<path d="M172.461 97.3226C170.448 97.36 165.393 97.4542 165.393 97.4542C165.393 97.4542 164.976 96.9354 164.867 95.6342C164.705 93.6805 165.197 92.9884 165.197 92.9884C165.197 92.9884 169.663 92.0638 172.719 91.733C175.137 91.4713 175.758 92.2154 175.377 94.7611C175.146 96.2979 173.922 97.2954 172.461 97.3226Z" fill="url(#paint53_linear_1_49600)"/>
<path d="M167.848 87.2535C168.099 87.2294 168.857 87.2296 168.857 87.4018C168.856 87.8929 167.715 88.3998 166.99 88.2493C166.611 88.1705 166.957 87.8619 166.957 87.8619C166.957 87.8619 167.324 87.3024 167.848 87.2535Z" fill="#EE9255"/>
<path d="M162.679 95.4945C162.945 93.0916 165.572 88.8461 166.131 87.6046C166.099 86.8979 166.241 86.5486 166.42 85.647C166.479 85.3534 168.408 85.7617 168.479 86.1481C168.538 86.4657 168.505 87.8648 167.095 88.1187C166.591 88.5298 165.445 93.4065 165.015 95.0123C164.821 95.7375 164.455 96.8011 163.915 96.7934C163.054 96.7814 162.58 96.3861 162.679 95.4945Z" fill="#EE9255"/>
<path d="M170.882 101.596C170.967 101.596 171.063 101.567 171.063 101.483V101.375C171.063 101.29 170.967 101.223 170.882 101.223H166.41C166.325 101.223 166.295 101.29 166.295 101.375V101.483C166.295 101.567 166.325 101.596 166.41 101.596H170.882Z" fill="url(#paint54_linear_1_49600)"/>
<path d="M166.711 101.206C166.766 101.432 166.62 101.597 166.387 101.597H158.008C157.775 101.597 157.539 101.432 157.484 101.206L156.037 95.2588C155.982 95.0324 156.128 94.8711 156.361 94.8711H164.74C164.973 94.8711 165.209 95.0324 165.264 95.2588L166.711 101.206Z" fill="url(#paint55_linear_1_49600)"/>
<path d="M166.712 101.206L165.265 95.2588C165.21 95.0324 164.974 94.8711 164.741 94.8711H164.338C164.571 94.8711 164.807 95.0424 164.862 95.269L166.309 101.213C166.364 101.439 166.218 101.597 165.985 101.597H166.388C166.621 101.597 166.767 101.432 166.712 101.206Z" fill="url(#paint56_linear_1_49600)"/>
<path d="M160.173 98.3261C160.02 97.6412 160.365 97.0859 160.942 97.0859C161.519 97.0859 162.11 97.6412 162.263 98.3261C162.415 99.0109 162.07 99.5661 161.493 99.5661C160.916 99.5661 160.325 99.0109 160.173 98.3261Z" fill="url(#paint57_linear_1_49600)"/>
<path d="M161.753 98.3261C161.624 97.7457 161.179 97.2596 160.695 97.1246C160.771 97.1005 160.853 97.0859 160.941 97.0859C161.518 97.0859 162.109 97.6412 162.262 98.3261C162.414 99.0109 162.069 99.5661 161.493 99.5661C161.405 99.5661 161.317 99.5521 161.229 99.5277C161.653 99.3925 161.882 98.9067 161.753 98.3261Z" fill="url(#paint58_linear_1_49600)"/>
<path d="M171.564 105.276C171.564 105.276 167.474 114.33 166.729 116.176C165.985 118.022 169.267 120.028 171.318 118.153C173.37 116.279 176.162 113.64 177.29 111.28C178.416 108.919 178.701 106.846 177.653 104.641C176.606 102.437 172.663 102.835 171.564 105.276Z" fill="url(#paint59_linear_1_49600)"/>
<path d="M167.722 133.963C167.722 133.963 170.674 133.191 170.889 133.123C171.126 133.047 171.502 132.91 171.551 133.691C171.598 134.472 171.628 134.716 171.628 134.716C171.628 134.716 168.207 134.738 167.838 134.698C167.47 134.657 167.178 134.382 167.722 133.963Z" fill="#0F1B29"/>
<path d="M171.848 117.836C171.894 116.084 171.317 114.778 169.324 114.889C167.331 115.002 166.45 116.013 166.649 117.063C167.102 119.459 167.269 119.439 167.904 122.32C168.161 123.486 168.605 125.542 169.043 127.576H171.312C171.535 124.412 171.813 119.148 171.848 117.836Z" fill="url(#paint60_linear_1_49600)"/>
<path d="M171.117 129.824C171.168 129.466 171.237 128.639 171.312 127.574H169.043C169.687 130.564 170.317 133.505 170.317 133.505C170.317 133.505 170.549 133.693 170.79 133.633C171.152 133.542 171.172 133.33 171.172 133.33C171.172 133.33 170.916 131.245 171.117 129.824Z" fill="#F4AA74"/>
<path d="M175.003 106.211C175.003 106.211 177.873 116.822 178.422 118.693C178.971 120.563 182.712 120.115 183.151 117.43C183.59 114.745 184.604 109.31 182.621 103.848C181.547 100.894 174.366 103.668 175.003 106.211Z" fill="#1A1A2E"/>
<path d="M180.574 133.716C180.578 133.64 180.587 133.575 180.598 133.515C180.692 132.979 181.011 133.091 181.221 133.158C181.259 133.17 181.388 133.206 181.573 133.254C181.757 133.205 181.886 133.169 181.925 133.156C182.134 133.089 182.452 132.975 182.549 133.511C182.56 133.571 182.569 133.635 182.574 133.712C182.622 134.476 182.652 134.716 182.652 134.716C182.652 134.716 182.182 134.719 181.576 134.722C180.97 134.722 180.5 134.72 180.5 134.72C180.5 134.72 180.529 134.481 180.574 133.716Z" fill="#101B29"/>
<path d="M183.11 120.757C183.24 119.045 183.051 115.499 181.096 115.512C179.141 115.525 177.943 116.898 177.99 117.242C178.212 118.873 179.157 123.699 179.963 127.714H182.451C182.719 125.274 183.021 121.928 183.11 120.757Z" fill="#1A1A2E"/>
<path d="M182.453 127.711H179.965C180.625 131 181.192 133.746 181.192 133.746C181.192 133.746 181.26 133.867 181.615 133.79C181.962 133.714 182.003 133.496 182.003 133.496C182.003 133.496 181.864 131.587 182.13 130.206C182.214 129.77 182.33 128.837 182.453 127.711Z" fill="#F4AA74"/>
<path d="M168.932 128.131C168.881 128.131 168.831 128.089 168.822 128.038L168.658 127.161C168.648 127.11 168.683 127.07 168.734 127.07L171.685 127.111C171.736 127.112 171.767 127.153 171.752 127.202L171.504 128.06C171.49 128.109 171.436 128.149 171.385 128.149L168.932 128.131Z" fill="url(#paint61_linear_1_49600)"/>
<path d="M179.934 128.131C179.883 128.131 179.833 128.089 179.824 128.038L179.66 127.161C179.65 127.11 179.685 127.07 179.736 127.07L182.812 127.111C182.864 127.112 182.894 127.153 182.88 127.202L182.631 128.06C182.617 128.109 182.563 128.149 182.512 128.149L179.934 128.131Z" fill="url(#paint62_linear_1_49600)"/>
<path d="M174.158 91.223C171.064 91.7015 170.921 94.4867 170.984 96.8197C171.19 104.405 170.031 107.817 170.031 107.817C170.031 107.817 171.21 109.308 176.2 109.533C182.638 109.825 183.846 107.454 183.846 107.454C183.846 107.454 182.519 98.5707 180.92 94.3706C180.363 92.906 178.789 91.0443 176.227 91.0352C175.496 91.033 174.921 91.1043 174.158 91.223Z" fill="url(#paint63_linear_1_49600)"/>
<path d="M173.331 87.4704C172.412 86.5547 172.253 83.7138 173.686 83.2453C175.456 82.6666 175.48 84.5043 176.496 84.5922C178.707 84.7847 179.18 86.2604 178.75 87.9721C178.485 89.0322 177.316 90.0077 176.182 90.2368C175.731 90.3278 176.276 88.6588 175.205 88.0009C174.134 87.3422 173.331 87.4704 173.331 87.4704Z" fill="#1A1A2E"/>
<path d="M172.949 91.6271C172.855 92.5599 172.385 94.6415 174.564 94.3434C177.124 93.9941 177.448 91.2903 177.279 91.0022C176.894 90.3461 175.903 90.8069 175.258 90.9039C174.614 91.0015 173.029 90.8362 172.949 91.6271Z" fill="#1A1A2E"/>
<path d="M176.599 91.0078C176.474 91.0083 176.347 91.0114 176.216 91.0182C175.486 91.0586 174.916 91.1639 174.162 91.3267C173.924 91.3776 173.706 91.4421 173.507 91.5188C173.478 92.1221 173.029 93.8243 174.673 93.6462C176.362 93.4629 176.686 91.5766 176.599 91.0078Z" fill="#F4AA74"/>
<path d="M176.322 91.225C176.11 89.619 176.202 88.7111 175.914 87.2679C175.922 87.2175 173.813 87.2018 173.468 86.0703C173.468 86.0703 173.084 87.394 173.073 88.5473C173.062 89.6352 173.274 90.2641 174.399 89.9441C174.306 90.4602 174.11 91.0612 173.949 91.4918C173.624 92.3601 174.162 92.7699 174.592 92.8633C175.022 92.9562 176.547 92.9307 176.322 91.225Z" fill="#F4AA74"/>
<path d="M176.943 87.8676C177.052 88.1474 176.805 88.5044 176.391 88.6655C175.977 88.8258 175.552 88.7295 175.444 88.4499C175.335 88.1696 175.582 87.813 175.997 87.6522C176.411 87.4909 176.835 87.5882 176.943 87.8676Z" fill="#F4AA74"/>
<path d="M173.748 94.2746L174.078 95.1945L174.807 95.2159L175.379 94.002C175.379 94.002 174.215 93.5992 173.748 94.2746Z" fill="#1A1A2E"/>
<path d="M174.077 95.1961L172.973 104.975L174.601 108.945L176.182 105.069L174.807 95.2175C174.807 95.2175 174.55 94.7515 174.077 95.1961Z" fill="#1A1A2E"/>
<path d="M162.694 100.691C162.531 100.433 161.961 99.6734 161.755 99.804C161.268 100.112 161.822 100.377 161.817 101.105C161.814 101.575 163.053 101.892 163.053 101.892C163.053 101.892 163.036 101.23 162.694 100.691Z" fill="#F4AA74"/>
<path d="M172.221 101.787C169.893 101.13 164.032 101.9 162.987 101.448C162.308 101.154 162.405 100.408 160.999 100.311C160.318 100.264 159.258 100.898 159.752 101.37C160.883 102.449 162 103.271 162.803 102.524C163.438 102.377 169.245 103.564 170.896 103.769C171.641 103.862 172.765 103.923 172.961 103.42C173.273 102.618 173.085 102.031 172.221 101.787Z" fill="#F4AA74"/>
<path d="M173.132 100.196C173.132 100.196 171.736 102.174 171.429 102.835C171.209 103.308 171.891 103.56 172.308 103.721C172.723 103.881 174.129 102.991 175.016 101.899C175.695 101.064 173.328 100.117 173.132 100.196Z" fill="#F4AA74"/>
<path d="M178.536 94.0826C176.649 95.4878 172.02 101.001 172.02 101.001C172.02 101.001 172.161 101.652 173.105 102.554C174.523 103.909 175.371 103.962 175.371 103.962C175.371 103.962 177.456 102.312 179.218 100.695C180.079 99.905 181.727 98.8626 181.119 96.4803C180.465 93.9177 179.623 93.2729 178.536 94.0826Z" fill="url(#paint64_linear_1_49600)"/>
<path d="M172.012 87.1728L164.526 83.3516L163.688 85.3257L171.64 88.0506L172.012 87.1728Z" fill="url(#paint65_linear_1_49600)"/>
<path d="M158.972 80.0388C158.882 79.9931 158.777 80.0315 158.737 80.1242L157.342 83.4097C157.303 83.5025 157.349 83.6052 157.444 83.638L163.672 85.772C163.767 85.8047 163.877 85.7555 163.917 85.6627L164.927 83.2834C164.966 83.1906 164.925 83.0772 164.835 83.0313L158.972 80.0388Z" fill="#D13B49"/>
<path d="M157.495 83.8998C157.462 83.977 157.372 84.0133 157.294 83.9804L156.967 83.8415C156.889 83.8087 156.852 83.7186 156.885 83.6412L158.586 79.6356C158.619 79.5586 158.709 79.5223 158.787 79.555L159.114 79.6941C159.192 79.7269 159.228 79.817 159.196 79.8941L157.495 83.8998Z" fill="#082947"/>
<path d="M171.789 88.2371C171.756 88.3141 171.666 88.3506 171.589 88.3179L171.261 88.1787C171.184 88.1459 171.147 88.0559 171.18 87.9787L171.641 86.8939C171.673 86.8166 171.763 86.78 171.841 86.8128L172.169 86.9519C172.246 86.9846 172.283 87.0749 172.25 87.1523L171.789 88.2371Z" fill="#082947"/>
<path d="M171.319 87.6533L171.332 87.6237L164.259 84.8594L164.221 84.9494L164.221 84.9497L164.014 85.4381L171.212 87.9049L171.181 87.9788L171.319 87.6538L171.319 87.6533Z" fill="url(#paint66_linear_1_49600)"/>
<path d="M164.021 84.9507L158.041 82.6133L157.494 83.9001L157.585 83.6872L163.672 85.7729C163.767 85.8056 163.877 85.7564 163.917 85.6636L163.917 85.663L164.012 85.4385L164.22 84.9502C164.203 84.9869 164.114 84.9874 164.021 84.9507Z" fill="url(#paint67_linear_1_49600)"/>
<path d="M171.763 87.9069L171.435 87.7676C171.358 87.7351 171.306 87.6833 171.318 87.6523L171.18 87.9774C171.147 88.0546 171.184 88.1446 171.261 88.1774L171.589 88.3166C171.666 88.3492 171.756 88.3127 171.789 88.2357L171.927 87.9102C171.914 87.941 171.84 87.9394 171.763 87.9069Z" fill="#000001"/>
<path d="M140.402 37.4172C140.196 37.1852 139.502 36.5155 139.322 36.6718C138.896 37.0408 139.487 37.2263 139.609 37.9422C139.688 38.4045 140.964 38.5498 140.964 38.5498C140.964 38.5498 140.832 37.9006 140.402 37.4172Z" fill="#F4AA74"/>
<path d="M149.979 37.2069C147.571 36.8757 141.931 38.4243 140.823 38.1207C140.103 37.9234 140.068 37.1773 138.666 37.2721C137.987 37.3178 137.435 39.0841 138.004 39.4815C139.306 40.3901 140.167 40.0464 140.829 39.204C141.429 38.9739 147.356 39.3556 149.018 39.3344C149.769 39.3249 150.887 39.2333 150.992 38.7116C151.16 37.8817 150.873 37.3297 149.979 37.2069Z" fill="#F4AA74"/>
<path d="M149.755 35.5986C149.755 35.5986 149.323 37.9394 149.324 38.6594C149.325 39.1754 150.052 39.1425 150.498 39.1292C150.945 39.1155 151.846 37.7631 152.19 36.4273C152.454 35.4044 149.9 35.4518 149.755 35.5986Z" fill="#F4AA74"/>
<path d="M151.983 28.1009C150.841 30.0947 149.074 36.7501 149.074 36.7501C149.074 36.7501 149.477 37.2908 150.717 37.7536C152.578 38.449 153.373 38.1737 153.373 38.1737C153.373 38.1737 155.123 34.3419 156.046 32.1935C156.498 31.1431 156.499 30.0591 155.346 28.1751C154.256 26.3951 152.53 27.1473 151.983 28.1009Z" fill="url(#paint68_linear_1_49600)"/>
<defs>
<linearGradient id="paint0_linear_1_49600" x1="148.14" y1="34.4363" x2="144.779" y2="66.5253" gradientUnits="userSpaceOnUse">
<stop stop-color="#060607"/>
<stop offset="1" stop-color="#1A1A2E"/>
</linearGradient>
<linearGradient id="paint1_linear_1_49600" x1="149.672" y1="27.578" x2="143.32" y2="35.3365" gradientUnits="userSpaceOnUse">
<stop stop-color="#F7830F"/>
<stop offset="0.571" stop-color="#FB620A"/>
<stop offset="1" stop-color="#FF4E08"/>
</linearGradient>
<linearGradient id="paint2_linear_1_49600" x1="149.601" y1="34.5912" x2="146.24" y2="66.6802" gradientUnits="userSpaceOnUse">
<stop stop-color="#060607"/>
<stop offset="1" stop-color="#1A1A2E"/>
</linearGradient>
<linearGradient id="paint3_linear_1_49600" x1="152.051" y1="24.2333" x2="153.171" y2="51.9796" gradientUnits="userSpaceOnUse">
<stop stop-color="#E74D58"/>
<stop offset="0.645" stop-color="#B9253A"/>
<stop offset="1" stop-color="#A5142D"/>
</linearGradient>
<linearGradient id="paint4_linear_1_49600" x1="159.909" y1="56.9216" x2="166.418" y2="62.0289" gradientUnits="userSpaceOnUse">
<stop stop-color="#E74D58"/>
<stop offset="0.645" stop-color="#B9253A"/>
<stop offset="1" stop-color="#A5142D"/>
</linearGradient>
<linearGradient id="paint5_linear_1_49600" x1="147.525" y1="60.0172" x2="149.613" y2="67.8434" gradientUnits="userSpaceOnUse">
<stop stop-color="#E74D58"/>
<stop offset="0.645" stop-color="#B9253A"/>
<stop offset="1" stop-color="#A5142D"/>
</linearGradient>
<linearGradient id="paint6_linear_1_49600" x1="158.372" y1="132.09" x2="167.062" y2="132.09" gradientUnits="userSpaceOnUse">
<stop stop-color="#FFC124"/>
<stop offset="1" stop-color="#FFD97B"/>
</linearGradient>
<linearGradient id="paint7_linear_1_49600" x1="159.973" y1="129.66" x2="156.169" y2="134.242" gradientUnits="userSpaceOnUse">
<stop stop-color="#FF9700" stop-opacity="0"/>
<stop offset="1" stop-color="#FF9700" stop-opacity="0.75"/>
</linearGradient>
<linearGradient id="paint8_linear_1_49600" x1="157.545" y1="126.797" x2="143.688" y2="127.281" gradientUnits="userSpaceOnUse">
<stop stop-color="#F97C15"/>
<stop offset="1" stop-color="#F96E00"/>
</linearGradient>
<linearGradient id="paint9_linear_1_49600" x1="144.506" y1="122.029" x2="140.352" y2="130.805" gradientUnits="userSpaceOnUse">
<stop stop-color="#F63500" stop-opacity="0"/>
<stop offset="1" stop-color="#F63500" stop-opacity="0.75"/>
</linearGradient>
<linearGradient id="paint10_linear_1_49600" x1="142.074" y1="112.727" x2="129.61" y2="134.208" gradientUnits="userSpaceOnUse">
<stop stop-color="#FBB53D"/>
<stop offset="1" stop-color="#FF3803"/>
</linearGradient>
<linearGradient id="paint11_linear_1_49600" x1="132.926" y1="113.724" x2="125.685" y2="131.438" gradientUnits="userSpaceOnUse">
<stop stop-color="#FF0A00" stop-opacity="0"/>
<stop offset="1" stop-color="#FF0A00" stop-opacity="0.75"/>
</linearGradient>
<linearGradient id="paint12_linear_1_49600" x1="127.996" y1="104.254" x2="110.341" y2="152.06" gradientUnits="userSpaceOnUse">
<stop stop-color="#FBB53D"/>
<stop offset="1" stop-color="#FF3803"/>
</linearGradient>
<linearGradient id="paint13_linear_1_49600" x1="43.6508" y1="0.00276653" x2="34.9608" y2="0.00276653" gradientUnits="userSpaceOnUse">
<stop stop-color="#FFC124"/>
<stop offset="1" stop-color="#FFD97B"/>
</linearGradient>
<linearGradient id="paint14_linear_1_49600" x1="42.0492" y1="129.66" x2="45.8531" y2="134.242" gradientUnits="userSpaceOnUse">
<stop stop-color="#FF9700" stop-opacity="0"/>
<stop offset="1" stop-color="#FF9700" stop-opacity="0.75"/>
</linearGradient>
<linearGradient id="paint15_linear_1_49600" x1="44.4788" y1="126.797" x2="58.335" y2="127.281" gradientUnits="userSpaceOnUse">
<stop stop-color="#F97C15"/>
<stop offset="1" stop-color="#F96E00"/>
</linearGradient>
<linearGradient id="paint16_linear_1_49600" x1="57.5166" y1="122.029" x2="61.671" y2="130.805" gradientUnits="userSpaceOnUse">
<stop stop-color="#F63500" stop-opacity="0"/>
<stop offset="1" stop-color="#F63500" stop-opacity="0.75"/>
</linearGradient>
<linearGradient id="paint17_linear_1_49600" x1="59.9501" y1="112.727" x2="72.4139" y2="134.208" gradientUnits="userSpaceOnUse">
<stop stop-color="#FBB53D"/>
<stop offset="1" stop-color="#FF3803"/>
</linearGradient>
<linearGradient id="paint18_linear_1_49600" x1="69.097" y1="113.724" x2="76.3384" y2="131.438" gradientUnits="userSpaceOnUse">
<stop stop-color="#FF0A00" stop-opacity="0"/>
<stop offset="1" stop-color="#FF0A00" stop-opacity="0.75"/>
</linearGradient>
<linearGradient id="paint19_linear_1_49600" x1="74.0271" y1="104.254" x2="91.6817" y2="152.06" gradientUnits="userSpaceOnUse">
<stop stop-color="#FBB53D"/>
<stop offset="1" stop-color="#FF3803"/>
</linearGradient>
<linearGradient id="paint20_linear_1_49600" x1="124.789" y1="127.636" x2="124.789" y2="-11.518" gradientUnits="userSpaceOnUse">
<stop stop-color="#FCA815"/>
<stop offset="1" stop-color="#FCA000"/>
</linearGradient>
<linearGradient id="paint21_linear_1_49600" x1="124.067" y1="21.2934" x2="124.067" y2="56.7789" gradientUnits="userSpaceOnUse">
<stop stop-color="#FCB63A"/>
<stop offset="1" stop-color="#FB9C00"/>
</linearGradient>
<linearGradient id="paint22_linear_1_49600" x1="96.0631" y1="2.46038" x2="156.791" y2="63.4632" gradientUnits="userSpaceOnUse">
<stop stop-color="white"/>
<stop offset="1" stop-color="white" stop-opacity="0"/>
</linearGradient>
<linearGradient id="paint23_linear_1_49600" x1="84.3402" y1="134.447" x2="84.3402" y2="-4.70646" gradientUnits="userSpaceOnUse">
<stop stop-color="#FCB22D"/>
<stop offset="1" stop-color="#FCA000"/>
</linearGradient>
<linearGradient id="paint24_linear_1_49600" x1="124.701" y1="134.446" x2="124.701" y2="-4.70701" gradientUnits="userSpaceOnUse">
<stop stop-color="#FCB22D"/>
<stop offset="1" stop-color="#FCA000"/>
</linearGradient>
<linearGradient id="paint25_linear_1_49600" x1="101.012" y1="37.5222" x2="101.012" y2="87.9465" gradientUnits="userSpaceOnUse">
<stop stop-color="#FCB63A"/>
<stop offset="1" stop-color="#F96E00"/>
</linearGradient>
<linearGradient id="paint26_linear_1_49600" x1="91.3574" y1="132.765" x2="110.667" y2="132.765" gradientUnits="userSpaceOnUse">
<stop stop-color="#0F1E2D"/>
<stop offset="1" stop-color="#082947"/>
</linearGradient>
<linearGradient id="paint27_linear_1_49600" x1="101.012" y1="110.386" x2="101.012" y2="108.228" gradientUnits="userSpaceOnUse">
<stop stop-color="#0F1E2D"/>
<stop offset="1" stop-color="#082947"/>
</linearGradient>
<linearGradient id="paint28_linear_1_49600" x1="101.012" y1="109.975" x2="101.012" y2="131.962" gradientUnits="userSpaceOnUse">
<stop stop-color="#E94560"/>
<stop offset="0.958" stop-color="#AD1035"/>
</linearGradient>
<linearGradient id="paint29_linear_1_49600" x1="101.012" y1="111.406" x2="101.012" y2="121.466" gradientUnits="userSpaceOnUse">
<stop stop-color="#AC1039"/>
<stop offset="1" stop-color="#AC1039" stop-opacity="0"/>
</linearGradient>
<linearGradient id="paint30_linear_1_49600" x1="100.983" y1="110.494" x2="100.983" y2="129.7" gradientUnits="userSpaceOnUse">
<stop stop-color="#9E000F" stop-opacity="0"/>
<stop offset="1" stop-color="#9E000F" stop-opacity="0.8"/>
</linearGradient>
<linearGradient id="paint31_linear_1_49600" x1="101.013" y1="73.07" x2="101.013" y2="108.768" gradientUnits="userSpaceOnUse">
<stop stop-color="white"/>
<stop offset="1" stop-color="white" stop-opacity="0"/>
</linearGradient>
<linearGradient id="paint32_linear_1_49600" x1="105.162" y1="58.4586" x2="105.162" y2="27.5127" gradientUnits="userSpaceOnUse">
<stop stop-color="#FC2E06"/>
<stop offset="1" stop-color="#FC6A06" stop-opacity="0.25"/>
</linearGradient>
<linearGradient id="paint33_linear_1_49600" x1="98.8057" y1="55.6942" x2="69.0986" y2="55.6942" gradientUnits="userSpaceOnUse">
<stop stop-color="#FC2E06"/>
<stop offset="1" stop-color="#FC6A06" stop-opacity="0.25"/>
</linearGradient>
<linearGradient id="paint34_linear_1_49600" x1="102.964" y1="63.9911" x2="133.533" y2="63.9911" gradientUnits="userSpaceOnUse">
<stop stop-color="#FC2E06"/>
<stop offset="1" stop-color="#FC6A06" stop-opacity="0.25"/>
</linearGradient>
<linearGradient id="paint35_linear_1_49600" x1="101.011" y1="60.6213" x2="101.011" y2="79.6506" gradientUnits="userSpaceOnUse">
<stop stop-color="#FC2E06"/>
<stop offset="1" stop-color="#FC6A06" stop-opacity="0"/>
</linearGradient>
<linearGradient id="paint36_linear_1_49600" x1="84.917" y1="32.7788" x2="84.917" y2="103.087" gradientUnits="userSpaceOnUse">
<stop stop-color="#9B1A00" stop-opacity="0.05"/>
<stop offset="1" stop-color="#9B1A00" stop-opacity="0.45"/>
</linearGradient>
<linearGradient id="paint37_linear_1_49600" x1="90.9487" y1="129.542" x2="90.9487" y2="109.573" gradientUnits="userSpaceOnUse">
<stop stop-color="#610000" stop-opacity="0.5"/>
<stop offset="1" stop-color="#610000" stop-opacity="0"/>
</linearGradient>
<linearGradient id="paint38_linear_1_49600" x1="30.1354" y1="108.158" x2="30.1354" y2="123.358" gradientUnits="userSpaceOnUse">
<stop stop-color="#060607"/>
<stop offset="1" stop-color="#1A1A2E"/>
</linearGradient>
<linearGradient id="paint39_linear_1_49600" x1="31.0829" y1="108.159" x2="31.0829" y2="123.358" gradientUnits="userSpaceOnUse">
<stop stop-color="#060607"/>
<stop offset="1" stop-color="#1A1A2E"/>
</linearGradient>
<linearGradient id="paint40_linear_1_49600" x1="30.0824" y1="122.801" x2="30.0824" y2="127.077" gradientUnits="userSpaceOnUse">
<stop stop-color="#F7830F"/>
<stop offset="0.571" stop-color="#FB620A"/>
<stop offset="1" stop-color="#FF4E08"/>
</linearGradient>
<linearGradient id="paint41_linear_1_49600" x1="22.3448" y1="122.798" x2="22.3448" y2="127.074" gradientUnits="userSpaceOnUse">
<stop stop-color="#F7830F"/>
<stop offset="0.571" stop-color="#FB620A"/>
<stop offset="1" stop-color="#FF4E08"/>
</linearGradient>
<linearGradient id="paint42_linear_1_49600" x1="32.4288" y1="92.8522" x2="35.7435" y2="101.635" gradientUnits="userSpaceOnUse">
<stop stop-color="#E74D58"/>
<stop offset="0.645" stop-color="#B9253A"/>
<stop offset="1" stop-color="#A5142D"/>
</linearGradient>
<linearGradient id="paint43_linear_1_49600" x1="31.1659" y1="92.8374" x2="26.4977" y2="108.472" gradientUnits="userSpaceOnUse">
<stop stop-color="#F7830F"/>
<stop offset="0.571" stop-color="#FB620A"/>
<stop offset="1" stop-color="#FF4E08"/>
</linearGradient>
<linearGradient id="paint44_linear_1_49600" x1="29.4595" y1="99.8024" x2="25.6881" y2="112.257" gradientUnits="userSpaceOnUse">
<stop stop-color="#1A1A2E"/>
<stop offset="0.988"/>
</linearGradient>
<linearGradient id="paint45_linear_1_49600" x1="33.5264" y1="102.122" x2="32.3594" y2="106.7" gradientUnits="userSpaceOnUse">
<stop stop-color="#F7830F"/>
<stop offset="0.571" stop-color="#FB620A"/>
<stop offset="1" stop-color="#FF4E08"/>
</linearGradient>
<linearGradient id="paint46_linear_1_49600" x1="32.6252" y1="105.287" x2="32.7504" y2="102.908" gradientUnits="userSpaceOnUse">
<stop stop-color="#FD4A00"/>
<stop offset="1" stop-color="#F9760C"/>
</linearGradient>
<linearGradient id="paint47_linear_1_49600" x1="26.3378" y1="94.0463" x2="18.2544" y2="99.1897" gradientUnits="userSpaceOnUse">
<stop stop-color="#E74D58"/>
<stop offset="0.645" stop-color="#B9253A"/>
<stop offset="1" stop-color="#A5142D"/>
</linearGradient>
<linearGradient id="paint48_linear_1_49600" x1="43.4877" y1="114.344" x2="43.4877" y2="111.672" gradientUnits="userSpaceOnUse">
<stop stop-color="#FA5200"/>
<stop offset="1" stop-color="#FA5600"/>
</linearGradient>
<linearGradient id="paint49_linear_1_49600" x1="43.4877" y1="120.474" x2="43.4877" y2="115.32" gradientUnits="userSpaceOnUse">
<stop stop-color="#FB7A0D"/>
<stop offset="0.194" stop-color="#F97E17"/>
<stop offset="0.683" stop-color="#F6882D"/>
<stop offset="1" stop-color="#F58C35"/>
</linearGradient>
<linearGradient id="paint50_linear_1_49600" x1="49.1254" y1="111.477" x2="49.1254" y2="109.319" gradientUnits="userSpaceOnUse">
<stop stop-color="#FA5600"/>
<stop offset="0.231" stop-color="#FA650D"/>
<stop offset="0.716" stop-color="#FA8024"/>
<stop offset="1" stop-color="#FB8B2D"/>
</linearGradient>
<linearGradient id="paint51_linear_1_49600" x1="52.0756" y1="96.0521" x2="54.9659" y2="115.859" gradientUnits="userSpaceOnUse">
<stop stop-color="#E74D58"/>
<stop offset="0.645" stop-color="#B9253A"/>
<stop offset="1" stop-color="#A5142D"/>
</linearGradient>
<linearGradient id="paint52_linear_1_49600" x1="54.4965" y1="96.6892" x2="62.0408" y2="105.796" gradientUnits="userSpaceOnUse">
<stop stop-color="#F7830F"/>
<stop offset="0.571" stop-color="#FB620A"/>
<stop offset="1" stop-color="#FF4E08"/>
</linearGradient>
<linearGradient id="paint53_linear_1_49600" x1="174.522" y1="94.4076" x2="161.47" y2="95.1929" gradientUnits="userSpaceOnUse">
<stop stop-color="#E74D58"/>
<stop offset="0.645" stop-color="#B9253A"/>
<stop offset="1" stop-color="#A5142D"/>
</linearGradient>
<linearGradient id="paint54_linear_1_49600" x1="168.679" y1="107.193" x2="168.679" y2="96.7321" gradientUnits="userSpaceOnUse">
<stop stop-color="#0F1E2D"/>
<stop offset="1" stop-color="#082947"/>
</linearGradient>
<linearGradient id="paint55_linear_1_49600" x1="161.374" y1="107.194" x2="161.374" y2="96.7331" gradientUnits="userSpaceOnUse">
<stop stop-color="#0F1E2D"/>
<stop offset="1" stop-color="#082947"/>
</linearGradient>
<linearGradient id="paint56_linear_1_49600" x1="165.531" y1="94.9291" x2="165.531" y2="101.135" gradientUnits="userSpaceOnUse">
<stop stop-color="#00001B"/>
<stop offset="1" stop-color="#0C2846"/>
</linearGradient>
<linearGradient id="paint57_linear_1_49600" x1="160.919" y1="97.1683" x2="161.728" y2="100.314" gradientUnits="userSpaceOnUse">
<stop stop-color="#F7830F"/>
<stop offset="0.571" stop-color="#FB620A"/>
<stop offset="1" stop-color="#FF4E08"/>
</linearGradient>
<linearGradient id="paint58_linear_1_49600" x1="161.496" y1="97.0149" x2="161.496" y2="99.5278" gradientUnits="userSpaceOnUse">
<stop stop-color="#F9740D"/>
<stop offset="1" stop-color="#FD4200"/>
</linearGradient>
<linearGradient id="paint59_linear_1_49600" x1="177.284" y1="102.513" x2="167.199" y2="122.885" gradientUnits="userSpaceOnUse">
<stop stop-color="#060607"/>
<stop offset="1" stop-color="#1A1A2E"/>
</linearGradient>
<linearGradient id="paint60_linear_1_49600" x1="178.365" y1="103.05" x2="168.28" y2="123.421" gradientUnits="userSpaceOnUse">
<stop stop-color="#060607"/>
<stop offset="1" stop-color="#1A1A2E"/>
</linearGradient>
<linearGradient id="paint61_linear_1_49600" x1="170.044" y1="124.591" x2="170.748" y2="135.744" gradientUnits="userSpaceOnUse">
<stop stop-color="#E74D58"/>
<stop offset="0.645" stop-color="#B9253A"/>
<stop offset="1" stop-color="#A5142D"/>
</linearGradient>
<linearGradient id="paint62_linear_1_49600" x1="181.107" y1="124.572" x2="181.816" y2="135.796" gradientUnits="userSpaceOnUse">
<stop stop-color="#E74D58"/>
<stop offset="0.645" stop-color="#B9253A"/>
<stop offset="1" stop-color="#A5142D"/>
</linearGradient>
<linearGradient id="paint63_linear_1_49600" x1="176.899" y1="91.7231" x2="176.962" y2="117.009" gradientUnits="userSpaceOnUse">
<stop stop-color="#F7830F"/>
<stop offset="0.571" stop-color="#FB620A"/>
<stop offset="1" stop-color="#FF4E08"/>
</linearGradient>
<linearGradient id="paint64_linear_1_49600" x1="180.593" y1="95.482" x2="173.961" y2="102.618" gradientUnits="userSpaceOnUse">
<stop stop-color="#E74D58"/>
<stop offset="0.645" stop-color="#B9253A"/>
<stop offset="1" stop-color="#A5142D"/>
</linearGradient>
<linearGradient id="paint65_linear_1_49600" x1="164.675" y1="84.5864" x2="171.023" y2="87.3566" gradientUnits="userSpaceOnUse">
<stop stop-color="#BB0000"/>
<stop offset="0.208" stop-color="#BD0607"/>
<stop offset="0.529" stop-color="#C3171D"/>
<stop offset="0.921" stop-color="#CE3441"/>
<stop offset="1" stop-color="#D13B49"/>
</linearGradient>
<linearGradient id="paint66_linear_1_49600" x1="164.276" y1="85.1935" x2="171.09" y2="87.8803" gradientUnits="userSpaceOnUse">
<stop stop-color="#AC0000"/>
<stop offset="0.704" stop-color="#B30000"/>
<stop offset="1" stop-color="#B90000"/>
</linearGradient>
<linearGradient id="paint67_linear_1_49600" x1="163.985" y1="85.7004" x2="158.019" y2="83.2644" gradientUnits="userSpaceOnUse">
<stop stop-color="#C81526"/>
<stop offset="0.329" stop-color="#C91C2D"/>
<stop offset="0.838" stop-color="#CF3241"/>
<stop offset="1" stop-color="#D13B49"/>
</linearGradient>
<linearGradient id="paint68_linear_1_49600" x1="154.184" y1="29.275" x2="151.695" y2="36.9366" gradientUnits="userSpaceOnUse">
<stop stop-color="#F7830F"/>
<stop offset="0.571" stop-color="#FB620A"/>
<stop offset="1" stop-color="#FF4E08"/>
</linearGradient>
</defs>
</svg>
