<svg width="115" height="157" viewBox="0 0 115 157" fill="none" xmlns="http://www.w3.org/2000/svg">
<path d="M11 150H6.5V136H1.25V132.5H16.25V136H11V150ZM19.3701 150H14.4951L21.1201 132.5H26.1201L32.7451 150H27.8701L26.7451 146.875H20.4951L19.3701 150ZM21.6201 143.625H25.6201L23.6201 137.75L21.6201 143.625ZM33.4691 146.375C38.0358 146.625 41.1275 146.75 42.7441 146.75C43.1275 146.75 43.4275 146.642 43.6441 146.425C43.8775 146.192 43.9941 145.883 43.9941 145.5V143.25H38.2441C36.4941 143.25 35.2191 142.858 34.4191 142.075C33.6358 141.275 33.2441 140 33.2441 138.25V137.5C33.2441 135.75 33.6358 134.483 34.4191 133.7C35.2191 132.9 36.4941 132.5 38.2441 132.5H47.0191V136H39.2441C38.2441 136 37.7441 136.5 37.7441 137.5V138C37.7441 139 38.2441 139.5 39.2441 139.5H43.7441C45.3775 139.5 46.5775 139.883 47.3441 140.65C48.1108 141.417 48.4941 142.617 48.4941 144.25V145.5C48.4941 147.133 48.1108 148.333 47.3441 149.1C46.5775 149.867 45.3775 150.25 43.7441 150.25C42.8941 150.25 41.9941 150.233 41.0441 150.2L38.7441 150.1C37.0441 150.017 35.2858 149.9 33.4691 149.75V146.375ZM64.6172 150H50.7422V132.5H64.6172V136H55.2422V139.375H62.6172V142.875H55.2422V146.5H64.6172V150ZM80.4863 150H66.6113V132.5H80.4863V136H71.1113V139.375H78.4863V142.875H71.1113V146.5H80.4863V150ZM81.9555 146.375C86.5221 146.625 89.6138 146.75 91.2305 146.75C91.6138 146.75 91.9138 146.642 92.1305 146.425C92.3638 146.192 92.4805 145.883 92.4805 145.5V143.25H86.7305C84.9805 143.25 83.7055 142.858 82.9055 142.075C82.1221 141.275 81.7305 140 81.7305 138.25V137.5C81.7305 135.75 82.1221 134.483 82.9055 133.7C83.7055 132.9 84.9805 132.5 86.7305 132.5H95.5055V136H87.7305C86.7305 136 86.2305 136.5 86.2305 137.5V138C86.2305 139 86.7305 139.5 87.7305 139.5H92.2305C93.8638 139.5 95.0638 139.883 95.8305 140.65C96.5971 141.417 96.9805 142.617 96.9805 144.25V145.5C96.9805 147.133 96.5971 148.333 95.8305 149.1C95.0638 149.867 93.8638 150.25 92.2305 150.25C91.3805 150.25 90.4805 150.233 89.5305 150.2L87.2305 150.1C85.5305 150.017 83.7721 149.9 81.9555 149.75V146.375ZM113.104 150H99.2285V132.5H113.104V136H103.729V139.375H111.104V142.875H103.729V146.5H113.104V150Z" fill="#F0BC22"/>
<g clip-path="url(#clip0_2287_166)">
<mask id="mask0_2287_166" style="mask-type:luminance" maskUnits="userSpaceOnUse" x="-456" y="-309" width="1027" height="586">
<path d="M-455.364 -308.014H570.363V276.194H-455.364V-308.014Z" fill="white"/>
</mask>
<g mask="url(#mask0_2287_166)">
<path d="M23.8245 112.55C23.8245 113.068 23.7952 113.566 23.7366 114.044C23.6779 114.521 23.6054 114.995 23.5175 115.465H30.625V102.128H34.6181V115.465H41.4633V102.128H45.4556V115.465H48.483V119.91H21.7847C21.2572 120.785 20.6359 121.579 19.9194 122.291C19.2028 123.004 18.424 123.615 17.5829 124.125C16.7418 124.636 15.8421 125.028 14.8845 125.304C13.9262 125.579 12.9356 125.716 11.9121 125.716C10.2592 125.716 8.71258 125.372 7.27216 124.684C5.83102 123.995 4.57011 123.056 3.48723 121.866C2.40509 120.676 1.55373 119.283 0.931703 117.688C0.310406 116.092 -0.000244141 114.38 -0.000244141 112.55H3.99203C3.99203 113.748 4.20011 114.878 4.61773 115.939C5.03461 116.999 5.60096 117.93 6.3175 118.732C7.03405 119.534 7.87514 120.165 8.84079 120.627C9.80571 121.089 10.8292 121.319 11.9121 121.319C12.9943 121.319 14.0141 121.089 14.9717 120.627C15.93 120.165 16.7711 119.534 17.495 118.732C18.2196 117.93 18.7896 116.999 19.2072 115.939C19.6234 114.878 19.8315 113.748 19.8315 112.55L19.7875 102.128H23.7805L23.8245 112.55Z" fill="#F0BC22"/>
</g>
<mask id="mask1_2287_166" style="mask-type:luminance" maskUnits="userSpaceOnUse" x="-456" y="-309" width="1027" height="586">
<path d="M-455.364 -308.014H570.363V276.194H-455.364V-308.014Z" fill="white"/>
</mask>
<g mask="url(#mask1_2287_166)">
<path d="M57.4559 123.166C57.7629 123.166 58.0479 123.226 58.3117 123.348C58.5747 123.469 58.8047 123.64 59.0026 123.858C59.1996 124.076 59.3572 124.336 59.4744 124.635C59.5909 124.934 59.6495 125.255 59.6495 125.595C59.6495 125.919 59.5909 126.226 59.4744 126.518C59.3572 126.81 59.1996 127.065 59.0026 127.283C58.8047 127.502 58.5747 127.676 58.3117 127.805C58.0479 127.935 57.7629 128 57.4559 128C57.1482 128 56.8632 127.935 56.6002 127.805C56.3371 127.676 56.1063 127.502 55.9093 127.283C55.7122 127.065 55.5583 126.81 55.4484 126.518C55.3385 126.226 55.2836 125.919 55.2836 125.595C55.2836 124.899 55.4924 124.319 55.9093 123.858C56.3261 123.396 56.8412 123.166 57.4559 123.166ZM51.8613 123.166C52.169 123.166 52.454 123.226 52.7171 123.348C52.9808 123.469 53.2109 123.64 53.408 123.858C53.6058 124.076 53.7626 124.336 53.8798 124.635C53.9963 124.934 54.0556 125.255 54.0556 125.595C54.0556 125.919 53.9963 126.226 53.8798 126.518C53.7626 126.81 53.6058 127.065 53.408 127.283C53.2109 127.502 52.9808 127.676 52.7171 127.805C52.454 127.935 52.169 128 51.8613 128C51.5543 128 51.2693 127.935 51.0056 127.805C50.7425 127.676 50.5125 127.502 50.3154 127.283C50.1176 127.065 49.9637 126.81 49.8538 126.518C49.7446 126.226 49.6897 125.919 49.6897 125.595C49.6897 124.899 49.8978 124.319 50.3154 123.858C50.7315 123.396 51.2473 123.166 51.8613 123.166ZM56.6441 102.128V115.465H61.076V119.91H48.2192V115.465H52.6511V102.128H56.6441Z" fill="#F0BC22"/>
</g>
<mask id="mask2_2287_166" style="mask-type:luminance" maskUnits="userSpaceOnUse" x="-456" y="-309" width="1027" height="586">
<path d="M-455.364 -308.014H570.363V276.194H-455.364V-308.014Z" fill="white"/>
</mask>
<g mask="url(#mask2_2287_166)">
<path d="M60.7021 115.465H65.134V102.128H69.127V115.465H75.9708V102.128H79.9426V115.465H86.7871V102.128H90.8021V117.699C90.8021 118.315 90.608 118.838 90.2204 119.267C89.8328 119.696 89.361 119.91 88.8056 119.91H60.7021V115.465Z" fill="#F0BC22"/>
</g>
<mask id="mask3_2287_166" style="mask-type:luminance" maskUnits="userSpaceOnUse" x="-456" y="-309" width="1027" height="586">
<path d="M-455.364 -308.014H570.363V276.194H-455.364V-308.014Z" fill="white"/>
</mask>
<g mask="url(#mask3_2287_166)">
<path d="M103.833 119.91H96.791C96.2349 119.91 95.763 119.696 95.3762 119.267C94.9886 118.838 94.7944 118.315 94.7944 117.7L94.7512 88.0001H98.7662L98.8094 115.465H103.833V119.91Z" fill="#F0BC22"/>
</g>
<mask id="mask4_2287_166" style="mask-type:luminance" maskUnits="userSpaceOnUse" x="-456" y="-309" width="1027" height="586">
<path d="M-455.364 -308.014H570.363V276.194H-455.364V-308.014Z" fill="white"/>
</mask>
<g mask="url(#mask4_2287_166)">
<path d="M112.828 93.1641C113.442 93.1641 113.957 93.3912 114.374 93.844C114.791 94.2982 115 94.881 115 95.5937C115 95.9172 114.945 96.2254 114.835 96.5168C114.725 96.8081 114.571 97.063 114.374 97.2813C114.177 97.5004 113.946 97.675 113.683 97.8042C113.42 97.9335 113.135 97.9985 112.828 97.9985C112.521 97.9985 112.236 97.9335 111.972 97.8042C111.709 97.675 111.479 97.5004 111.281 97.2813C111.084 97.063 110.93 96.8081 110.821 96.5168C110.711 96.2254 110.656 95.9172 110.656 95.5937C110.656 94.881 110.865 94.2982 111.281 93.844C111.698 93.3912 112.214 93.1641 112.828 93.1641ZM107.234 93.1641C107.848 93.1641 108.363 93.3912 108.78 93.844C109.196 94.2982 109.405 94.881 109.405 95.5937C109.405 95.9172 109.35 96.2254 109.24 96.5168C109.131 96.8081 108.977 97.063 108.78 97.2813C108.583 97.5004 108.352 97.675 108.089 97.8042C107.826 97.9335 107.541 97.9985 107.234 97.9985C106.927 97.9985 106.641 97.9335 106.378 97.8042C106.115 97.675 105.884 97.5004 105.687 97.2813C105.489 97.063 105.336 96.8081 105.226 96.5168C105.117 96.2254 105.062 95.9172 105.062 95.5937C105.062 94.881 105.27 94.2982 105.687 93.844C106.104 93.3912 106.619 93.1641 107.234 93.1641ZM103.351 115.465H110.591V102.128H114.604V117.699C114.604 118.316 114.411 118.838 114.023 119.267C113.636 119.697 113.164 119.911 112.609 119.911H103.351V115.465Z" fill="#F0BC22"/>
</g>
</g>
<path d="M95.0472 83.0326C94.7366 82.8428 94.4473 82.6071 94.1794 82.3255C93.932 82.0322 93.722 81.6974 93.5495 81.3211C93.393 80.9492 93.2958 80.5505 93.2579 80.125C93.2245 79.6834 93.27 79.2377 93.3945 78.788C93.6212 77.9688 93.9993 77.3211 94.5288 76.8451C95.0788 76.3575 95.7012 76.0455 96.3961 75.9093C97.107 75.7774 97.8319 75.8138 98.5708 76.0183C98.8438 76.0938 99.1321 76.2082 99.4356 76.3614C99.7435 76.4985 100.031 76.6472 100.298 76.8075L99.4845 78.5279C99.2613 78.397 99.0177 78.2777 98.7535 78.17C98.4938 78.0462 98.2595 77.9554 98.0507 77.8976C97.5688 77.7643 97.1325 77.7473 96.7418 77.8467C96.3717 77.9345 96.0641 78.1087 95.819 78.3695C95.5739 78.6302 95.4002 78.9453 95.298 79.3147C95.1557 79.8288 95.1794 80.3368 95.369 80.8389C95.563 81.3249 95.8436 81.7484 96.2106 82.1094C96.5776 82.4704 96.9619 82.7064 97.3635 82.8176L95.0472 83.0326ZM91.3112 84.7223L91.2638 82.7377C91.9463 82.771 92.7649 82.7814 93.7195 82.7689C94.6901 82.7608 95.7098 82.7317 96.7786 82.6816C97.8517 82.6155 98.8892 82.5222 99.891 82.4017L100.127 84.3606C99.6079 84.4244 98.9593 84.4871 98.1814 84.5485C97.4241 84.5982 96.6185 84.6347 95.7647 84.6578C94.9226 84.7014 94.1112 84.7276 93.3306 84.7364C92.5455 84.7612 91.8724 84.7565 91.3112 84.7223Z" fill="#F0BC22"/>
<g clip-path="url(#clip1_2287_166)">
<mask id="mask5_2287_166" style="mask-type:luminance" maskUnits="userSpaceOnUse" x="-652" y="-460" width="1396" height="792">
<path d="M-651.123 -459.19H743.914V331.436H-651.123V-459.19Z" fill="white"/>
</mask>
<g mask="url(#mask5_2287_166)">
<path d="M71.3225 56.1849C69.2878 58.0251 67.3078 59.7022 65.3906 61.1787C66.5136 60.2586 67.5968 59.3464 68.657 58.4263C69.5608 57.6614 70.4177 56.9271 71.3225 56.1849Z" fill="#F0BC22"/>
</g>
<mask id="mask6_2287_166" style="mask-type:luminance" maskUnits="userSpaceOnUse" x="-652" y="-460" width="1396" height="792">
<path d="M-651.123 -459.189H743.914V331.436H-651.123V-459.189Z" fill="white"/>
</mask>
<g mask="url(#mask6_2287_166)">
<path d="M1.00703 51.7551H1V47.1705H1.00703V51.7551Z" fill="#F0BC22"/>
</g>
<mask id="mask7_2287_166" style="mask-type:luminance" maskUnits="userSpaceOnUse" x="-652" y="-460" width="1396" height="792">
<path d="M-651.123 -459.189H743.914V331.436H-651.123V-459.189Z" fill="white"/>
</mask>
<g mask="url(#mask7_2287_166)">
<path d="M91.79 51.7551H91.783V47.1705H91.79V51.7551Z" fill="#F0BC22"/>
</g>
<mask id="mask8_2287_166" style="mask-type:luminance" maskUnits="userSpaceOnUse" x="-652" y="-460" width="1396" height="792">
<path d="M-651.123 -459.189H743.914V331.436H-651.123V-459.189Z" fill="white"/>
</mask>
<g mask="url(#mask8_2287_166)">
<path d="M71.3225 42.2391C69.2878 44.0793 67.3078 45.7564 65.3906 47.2329C66.5136 46.3128 67.5968 45.4006 68.657 44.4805C69.5608 43.7156 70.4177 42.9813 71.3225 42.2391Z" fill="#F0BC22"/>
</g>
<mask id="mask9_2287_166" style="mask-type:luminance" maskUnits="userSpaceOnUse" x="-652" y="-460" width="1396" height="792">
<path d="M-651.123 -459.189H743.914V331.436H-651.123V-459.189Z" fill="white"/>
</mask>
<g mask="url(#mask9_2287_166)">
<path d="M1.00703 37.8094H1V33.2248H1.00703V37.8094Z" fill="#F0BC22"/>
</g>
<mask id="mask10_2287_166" style="mask-type:luminance" maskUnits="userSpaceOnUse" x="-640" y="-478" width="1396" height="791">
<path d="M-639.914 -477.719H755.123V312.907H-639.914V-477.719Z" fill="white"/>
</mask>
<g mask="url(#mask10_2287_166)">
<path d="M99.0171 15.0051C92.7036 16.0023 87.8558 19.3268 83.1167 23.2226C83.0928 23.2454 82.9603 23.3304 82.758 23.5083C82.6872 23.5547 82.6254 23.6476 82.5318 23.7099C80.497 25.5491 78.5181 27.2272 76.5999 28.7037C76.5301 28.7728 76.4604 28.8193 76.4135 28.8578C69.8967 33.8912 64.0276 36.8975 59.5924 37.4391V27.3586C66.1321 26.7706 73.5368 22.2018 79.375 17.7031C79.4139 17.6794 79.4378 17.6408 79.4607 17.6181C81.8542 15.7779 83.9736 13.9456 85.6646 12.4L85.7115 12.3535C90.0221 8.75914 93.998 5.94451 99.0171 4.97105V15.0051ZM99.0171 28.9507C92.7036 29.9479 87.8558 33.2725 83.1167 37.1683C83.0928 37.192 82.9603 37.277 82.758 37.4549C82.6872 37.5013 82.6254 37.5933 82.5318 37.6555C80.497 39.4957 78.5181 41.1728 76.5999 42.6493C76.5301 42.7195 76.4604 42.7659 76.4135 42.8045C69.8967 47.8368 64.0276 50.8441 59.5924 51.3847V42.0464C66.1321 41.4594 73.5368 36.8906 79.375 32.3988C79.4139 32.3751 79.4378 32.3297 79.4607 32.3059C81.8542 30.4737 83.9736 28.6345 85.6646 27.0957L85.7115 27.0493C90.0221 23.4549 93.998 20.6403 99.0171 19.6589V28.9507ZM99.0171 42.8964C92.7036 43.8945 87.8558 47.2181 83.1167 51.1139C83.0928 51.1377 82.9603 51.2226 82.758 51.4005C82.6872 51.447 82.6254 51.5399 82.5318 51.6012C80.497 53.4413 78.5181 55.1185 76.5999 56.5949C76.5301 56.6651 76.4604 56.7116 76.4135 56.7501C69.8967 61.7824 64.0276 64.7898 59.5924 65.3304V55.9921C66.1321 55.4051 73.5368 50.8362 79.375 46.3445C79.4139 46.3218 79.4378 46.2753 79.4607 46.2516C81.8542 44.4193 83.9736 42.5801 85.6646 41.0414L85.7115 40.9949C90.0221 37.4005 93.998 34.5869 99.0171 33.6045V42.8964ZM39.3813 57.2215L38.7974 56.7501L38.7505 56.7116C37.5807 55.745 36.4507 54.7864 35.3447 53.8436C29.5214 48.8567 23.9641 44.1258 16.1928 42.8964V33.6045C22.2801 34.7875 26.817 38.6685 32.3194 43.3688C33.4733 44.3501 34.6422 45.3315 35.8429 46.3445L36.5364 46.8782C42.5072 51.5399 47.34 55.3122 55.6175 55.9535V65.2997C48.9612 64.6811 45.0322 61.6045 39.3813 57.2215ZM16.1928 19.6589C22.2801 20.8419 26.817 24.7219 32.3194 29.4221C33.4733 30.4045 34.6422 31.3859 35.8429 32.3988L36.5364 32.9325C42.5072 37.5933 47.34 41.3665 55.6175 42.0079V51.3541C48.9612 50.7354 45.0322 47.6589 39.3813 43.2759L38.7974 42.8045L38.7505 42.7659C37.5807 41.7994 36.4507 40.8407 35.3447 39.8969C29.5214 34.9111 23.9641 30.1801 16.1928 28.9507V19.6589ZM16.1928 4.97105C22.2801 6.15403 26.817 10.034 32.3194 14.7264C33.4733 15.7166 34.6422 16.698 35.8429 17.7031L36.5364 18.2447C42.5072 22.9054 47.34 26.6787 55.6175 27.3201V37.4084C48.9612 36.7898 45.0322 33.7133 39.3813 29.3302L38.7974 28.8578L38.7505 28.8193C37.5807 27.8527 36.4507 26.8872 35.3447 25.9513C29.5214 20.9654 23.9641 16.2345 16.1928 15.0051V4.97105ZM102.992 4.59254H103V0C94.6527 0 88.8064 3.85035 83.1167 8.5269C83.0928 8.54963 82.9603 8.64252 82.758 8.82042C82.6872 8.86687 82.6254 8.95186 82.5318 9.02203C80.497 10.8533 78.5181 12.5314 76.5999 14.0079C76.5301 14.0771 76.4604 14.1235 76.4135 14.17C69.1952 19.7439 62.7651 22.8283 58.2053 22.8283C49.8959 22.8283 45.7267 19.566 39.3813 14.6414L38.7974 14.17L38.7505 14.1235C37.5807 13.157 36.4507 12.1994 35.3447 11.2555C28.5708 5.45828 22.1635 0 12.21 0V4.59254H12.2179V42.588H12.21V47.1717C20.4487 47.1717 25.687 51.6476 32.3194 57.3144C33.4733 58.2958 34.6422 59.2781 35.8429 60.2901L36.5364 60.8238C43.107 65.949 48.2986 70 58.2053 70C65.0639 70 73.1242 65.0991 79.375 60.2901C79.4139 60.2674 79.4378 60.221 79.4607 60.1982C81.8542 58.3659 83.9736 56.5258 85.6646 54.987L85.7115 54.9406C91.1063 50.4419 95.962 47.1717 103 47.1717V42.588H102.992V4.59254Z" fill="#F0BC22"/>
</g>
<mask id="mask11_2287_166" style="mask-type:luminance" maskUnits="userSpaceOnUse" x="-652" y="-460" width="1396" height="792">
<path d="M-651.123 -459.189H743.914V331.436H-651.123V-459.189Z" fill="white"/>
</mask>
<g mask="url(#mask11_2287_166)">
<path d="M91.79 37.8094H91.783V33.2248H91.79V37.8094Z" fill="#F0BC22"/>
</g>
<mask id="mask12_2287_166" style="mask-type:luminance" maskUnits="userSpaceOnUse" x="-652" y="-460" width="1396" height="792">
<path d="M-651.123 -459.19H743.914V331.436H-651.123V-459.19Z" fill="white"/>
</mask>
<g mask="url(#mask12_2287_166)">
<path d="M71.3225 27.551C69.2878 29.3833 67.3078 31.0604 65.3906 32.5369C66.5136 31.6247 67.5968 30.7046 68.657 29.7855C69.5608 29.0275 70.4177 28.2853 71.3225 27.551Z" fill="#F0BC22"/>
</g>
</g>
<defs>
<clipPath id="clip0_2287_166">
<rect width="115" height="40" fill="white" transform="translate(0 88)"/>
</clipPath>
<clipPath id="clip1_2287_166">
<rect width="102" height="70" fill="white" transform="translate(1)"/>
</clipPath>
</defs>
</svg>
