<svg width="20" height="20" viewBox="0 0 20 20" fill="none" xmlns="http://www.w3.org/2000/svg">
<mask id="mask0_1055_3317" style="mask-type:luminance" maskUnits="userSpaceOnUse" x="0" y="0" width="20" height="20">
<path d="M0 0H20V20H0V0Z" fill="white"/>
</mask>
<g mask="url(#mask0_1055_3317)">
<path d="M8.42804 16.844C8.42804 18.0066 8.01173 18.9492 6.8491 18.9492H3.16488C1.05962 18.9492 1.05962 11.5808 3.16488 11.5808H6.8491C8.01173 11.5808 8.42804 12.5234 8.42804 13.6861V16.844Z" fill="black"/>
<path d="M18.4215 17.8966H17.8951V12.6334H18.4215C18.5611 12.6334 18.6949 12.578 18.7936 12.4793C18.8923 12.3806 18.9478 12.2467 18.9478 12.1071C18.9478 11.9675 18.8923 11.8337 18.7936 11.735C18.6949 11.6362 18.5611 11.5808 18.4215 11.5808H5.78988C3.68462 11.5808 3.68462 18.9492 5.78988 18.9492H18.4215C18.5611 18.9492 18.6949 18.8938 18.7936 18.7951C18.8923 18.6964 18.9478 18.5625 18.9478 18.4229C18.9478 18.2833 18.8923 18.1494 18.7936 18.0507C18.6949 17.952 18.5611 17.8966 18.4215 17.8966Z" fill="black"/>
<path d="M18.5087 17.8984H6.31291C5.26028 17.8984 5.26028 12.6353 6.31291 12.6353H18.5087C19.0898 12.6353 19.0898 17.8984 18.5087 17.8984Z" fill="white"/>
<path d="M6.57567 13.6861H18.8651C18.7941 13.0677 18.6751 12.6335 18.5083 12.6335H6.31251C5.44356 12.6335 5.29251 16.2166 5.8583 17.4688C5.65198 15.9119 5.89093 13.6861 6.57567 13.6861Z" fill="white"/>
<path d="M6.84416 4.73849C6.84416 5.29684 6.62236 5.83232 6.22754 6.22713C5.83273 6.62195 5.29725 6.84375 4.7389 6.84375H2.63363C0.528372 6.84375 0.528372 1.05428 2.63363 1.05428H4.7389C5.29725 1.05428 5.83273 1.27608 6.22754 1.67089C6.62236 2.06571 6.84416 2.60119 6.84416 3.15954V4.73849Z" fill="black"/>
<path d="M16.8433 5.79112H16.317V2.10691H16.8433C16.9829 2.10691 17.1168 2.05146 17.2155 1.95275C17.3142 1.85405 17.3697 1.72018 17.3697 1.58059C17.3697 1.441 17.3142 1.30713 17.2155 1.20843C17.1168 1.10973 16.9829 1.05428 16.8433 1.05428H4.21176C2.1065 1.05428 2.1065 6.84375 4.21176 6.84375H16.8433C16.9829 6.84375 17.1168 6.7883 17.2155 6.6896C17.3142 6.59089 17.3697 6.45702 17.3697 6.31743C17.3697 6.17785 17.3142 6.04398 17.2155 5.94527C17.1168 5.84657 16.9829 5.79112 16.8433 5.79112Z" fill="black"/>
<path d="M16.9306 5.79297H4.73479C3.68215 5.79297 3.68215 2.10876 4.73479 2.10876H16.9306C17.5116 2.10876 17.5116 5.79297 16.9306 5.79297Z" fill="white"/>
<path d="M4.73974 3.16077H17.3318C17.2718 2.56867 17.1403 2.10814 16.9355 2.10814H4.73974C4.11184 2.10814 3.86132 3.41814 3.98289 4.47656C4.065 3.76183 4.315 3.16077 4.73974 3.16077Z" fill="white"/>
<path d="M11.0489 9.47677C11.0489 10.0351 10.8271 10.5706 10.4323 10.9654C10.0375 11.3602 9.50202 11.582 8.94367 11.582H3.68051C1.57525 11.582 1.57525 6.84519 3.68051 6.84519H8.94367C9.50202 6.84519 10.0375 7.06699 10.4323 7.46181C10.8271 7.85662 11.0489 8.3921 11.0489 8.95045V9.47677Z" fill="black"/>
<path d="M18.949 10.5294H18.4227V7.89782H18.949C19.0886 7.89782 19.2225 7.84237 19.3212 7.74367C19.4199 7.64496 19.4753 7.51109 19.4753 7.3715C19.4753 7.23192 19.4199 7.09805 19.3212 6.99934C19.2225 6.90064 19.0886 6.84519 18.949 6.84519H8.4227C6.31743 6.84519 6.31743 11.582 8.4227 11.582H18.949C19.0886 11.582 19.2225 11.5266 19.3212 11.4279C19.4199 11.3292 19.4753 11.1953 19.4753 11.0557C19.4753 10.9161 19.4199 10.7823 19.3212 10.6836C19.2225 10.5849 19.0886 10.5294 18.949 10.5294Z" fill="black"/>
<path d="M19.0441 10.5273H8.95354C7.9009 10.5273 7.9009 7.89576 8.95354 7.89576H19.0441C19.6251 7.89576 19.6251 10.5273 19.0441 10.5273Z" fill="white"/>
<path d="M8.9517 8.94881H19.4696C19.4359 8.38986 19.2938 7.89618 19.0422 7.89618H8.9517C8.28117 7.89618 8.03959 8.96302 8.2238 9.73828C8.32801 9.2967 8.56959 8.94881 8.9517 8.94881Z" fill="white"/>
</g>
</svg>
