<svg width="56" height="58" viewBox="0 0 56 58" fill="none" xmlns="http://www.w3.org/2000/svg">
<g id="Arrow" clip-path="url(#clip0_28_14333)">
<g id="Group">
<path id="Vector" d="M28 58C43.464 58 56 45.0163 56 29C56 12.9837 43.464 0 28 0C12.536 0 0 12.9837 0 29C0 45.0163 12.536 58 28 58Z" fill="#FFA40B"/>
<path id="Vector_2" d="M42.0447 54.0448C42.4096 53.839 42.7702 53.6248 43.1259 53.4024C43.9114 52.8806 44.6712 52.3185 45.4025 51.7181C46.1343 51.1169 46.8367 50.4781 47.5068 49.8041C48.1767 49.1304 48.8136 48.4223 49.4151 47.6827C50.0163 46.9428 50.5813 46.1722 51.1081 45.3738C51.4836 44.7888 51.8385 44.1898 52.1721 43.578L42.749 33.8184C42.7533 33.8407 42.7576 33.8407 42.7619 33.8407L42.749 33.8274C42.5475 33.6216 42.2759 33.5063 41.993 33.5063C41.7101 33.5063 41.4385 33.6216 41.237 33.8274L39.2619 35.8707L30.3428 26.6354L27.2262 23.4052L24.1074 20.1728L20.9908 16.9494L17.8764 13.7147C17.674 13.5081 17.4013 13.3922 17.1171 13.3922C16.833 13.3922 16.5602 13.5081 16.3579 13.7147L13.2391 16.9494C13.0372 17.1585 12.9238 17.4422 12.9238 17.7379C12.9238 18.0337 13.0372 18.3173 13.2391 18.5265L16.3579 21.7589C16.3601 21.7634 16.3665 21.7634 16.3708 21.7678L19.4724 24.9824L22.5868 28.217L22.5998 28.2237L25.7056 31.4404L30.1533 36.0537L34.6031 40.6669L32.6259 42.708C32.4585 42.8867 32.3565 43.1202 32.3373 43.3684C32.315 43.5436 32.3334 43.7218 32.3911 43.8881L32.3998 43.926C32.4536 44.0621 32.529 44.1893 32.6302 44.2919L42.0447 54.0448Z" fill="#FF7712"/>
<path id="Vector_3" d="M43.0749 34.6272C43.0744 34.4786 43.0453 34.3316 42.9893 34.1948C42.9333 34.058 42.8515 33.9341 42.7487 33.8303C42.5475 33.6243 42.276 33.5089 41.993 33.5089C41.7101 33.5089 41.4386 33.6243 41.2374 33.8303L39.2551 35.8739L30.3431 26.6363C30.2432 26.5322 30.1244 26.4497 29.9936 26.3933C29.8627 26.3369 29.7223 26.3076 29.5806 26.3076C29.4388 26.3076 29.2985 26.3369 29.1676 26.3933C29.0367 26.4497 28.9179 26.5322 28.818 26.6363L25.7011 29.8647C25.4998 30.0742 25.3868 30.3575 25.3868 30.6531C25.3868 30.9487 25.4998 31.2323 25.7011 31.4418L34.6039 40.6721L32.6263 42.7107C32.4774 42.867 32.3763 43.0653 32.3355 43.2808C32.2948 43.4962 32.3161 43.7193 32.3969 43.9222C32.4778 44.1252 32.6145 44.299 32.7901 44.422C32.9656 44.545 33.1723 44.6118 33.3842 44.614H41.9976C42.5948 44.614 43.0772 44.1144 43.0772 43.4983V34.6249L43.0749 34.6272ZM27.5409 24.179C27.5357 23.8892 27.4221 23.6129 27.2239 23.4083L24.107 20.1753C24.0072 20.0715 23.8885 19.989 23.7579 19.9328C23.6272 19.8766 23.4871 19.8477 23.3456 19.8477C23.2041 19.8477 23.0641 19.8766 22.9334 19.9328C22.8027 19.989 22.6841 20.0715 22.5842 20.1753L19.4673 23.4106C19.2667 23.62 19.1542 23.9029 19.1542 24.1979C19.1542 24.4928 19.2667 24.776 19.4673 24.9854L22.5842 28.2184C23.0045 28.6538 23.6867 28.6538 24.107 28.2184L27.2239 24.9854C27.3262 24.8798 27.4069 24.754 27.4613 24.6155C27.5158 24.4769 27.5428 24.3285 27.5409 24.179ZM21.3048 17.7249C21.3002 17.4355 21.1874 17.1592 20.9901 16.9542L17.8732 13.7189C17.6717 13.5107 17.3987 13.3936 17.1141 13.3936C16.8295 13.3936 16.5565 13.5107 16.355 13.7189L13.2381 16.9542C13.0368 17.1637 12.9238 17.447 12.9238 17.7426C12.9238 18.0382 13.0368 18.3218 13.2381 18.5313L16.355 21.762C16.5565 21.9702 16.8295 22.087 17.1141 22.087C17.3987 22.087 17.6717 21.9702 17.8732 21.762L20.9901 18.5313C21.0922 18.4252 21.1727 18.2989 21.2268 18.1599C21.2808 18.021 21.3074 17.8747 21.3048 17.7249Z" fill="white"/>
</g>
</g>
<defs>
<clipPath id="clip0_28_14333">
<rect width="56" height="58" fill="white"/>
</clipPath>
</defs>
</svg>
