<svg width="57" height="60" viewBox="0 0 57 60" fill="none" xmlns="http://www.w3.org/2000/svg">
<g id="Group 415">
<path id="Vector" d="M51.8423 19.7365H50.8259C50.2867 19.7365 49.7696 19.5169 49.3884 19.126C49.0071 18.7351 48.793 18.2049 48.793 17.6521C48.793 17.0993 49.0071 16.5691 49.3884 16.1782C49.7696 15.7873 50.2867 15.5677 50.8259 15.5677H51.8423C52.1119 15.5677 52.3705 15.4579 52.5611 15.2624C52.7517 15.067 52.8588 14.8019 52.8588 14.5255C52.8588 13.9726 53.073 13.4425 53.4542 13.0516C53.8355 12.6606 54.3525 12.441 54.8917 12.441C55.4309 12.441 55.9479 12.6606 56.3292 13.0516C56.7104 13.4425 56.9246 13.9726 56.9246 14.5255C56.9246 15.9075 56.3892 17.233 55.436 18.2102C54.4829 19.1875 53.1902 19.7365 51.8423 19.7365Z" fill="#6DD5FA"/>
<path id="Vector_2" d="M46.7601 0.976711H26.0834C25.2818 0.974325 24.4879 1.13504 23.7474 1.44955C23.0069 1.76405 22.3346 2.2261 21.7695 2.80891L9.92171 14.959C9.35355 15.5381 8.90306 16.2271 8.59633 16.986C8.2896 17.7448 8.13273 18.5585 8.13479 19.38V53.0871C8.13479 54.7455 8.77733 56.3361 9.92106 57.5088C11.0648 58.6815 12.616 59.3403 14.2335 59.3403H46.7601C48.3776 59.3403 49.9288 58.6815 51.0725 57.5088C52.2163 56.3361 52.8588 54.7455 52.8588 53.0871V7.22995C52.8588 5.57149 52.2163 3.98095 51.0725 2.80824C49.9288 1.63553 48.3776 0.976711 46.7601 0.976711Z" fill="#E6E7E8"/>
<path id="Vector_3" d="M54.8925 16.6098C54.3533 16.6098 53.8362 16.3902 53.455 15.9993C53.0737 15.6084 52.8596 15.0782 52.8596 14.5254C52.8596 14.249 52.7525 13.9839 52.5619 13.7885C52.3712 13.593 52.1127 13.4832 51.8431 13.4832H42.695C42.1559 13.4832 41.6388 13.2636 41.2575 12.8727C40.8763 12.4818 40.6621 11.9516 40.6621 11.3988C40.6621 10.846 40.8763 10.3158 41.2575 9.9249C41.6388 9.534 42.1559 9.31439 42.695 9.31439H51.8431C53.191 9.31439 54.4837 9.86341 55.4368 10.8407C56.3899 11.8179 56.9254 13.1434 56.9254 14.5254C56.9254 15.0782 56.7112 15.6084 56.33 15.9993C55.9487 16.3902 55.4316 16.6098 54.8925 16.6098Z" fill="#6DD5FA"/>
<path id="Vector_4" d="M26.431 0.976771C25.1316 2.30935 24.4006 4.11584 24.3981 6.00021V13.4833C24.3949 14.5879 23.9655 15.6463 23.2037 16.4274C22.4419 17.2085 21.4096 17.6488 20.3323 17.6521H13.0342C11.1964 17.6546 9.4345 18.4042 8.13485 19.7365V19.3822C8.13061 18.5605 8.2867 17.7463 8.59392 16.9874C8.90115 16.2285 9.35332 15.5402 9.92381 14.9632L21.7757 2.81106C22.3385 2.22611 23.0097 1.76249 23.7498 1.44748C24.49 1.13246 25.2841 0.972423 26.0854 0.976771H26.431Z" fill="#B7D8E5"/>
<path id="Vector_5" d="M41.2586 47.4446L40.663 48.0554L38.0345 45.3602C37.6532 44.9695 37.1362 44.7499 36.5972 44.7499C36.0581 44.7499 35.5411 44.9695 35.1599 45.3602L31.0941 49.5291C30.7238 49.9222 30.5189 50.4487 30.5235 50.9952C30.5281 51.5418 30.7419 52.0646 31.1189 52.451C31.4958 52.8375 32.0057 53.0567 32.5387 53.0615C33.0717 53.0662 33.5852 52.8561 33.9686 52.4764L36.5972 49.7813L39.2257 52.4764C39.607 52.8672 40.124 53.0867 40.663 53.0867C41.2021 53.0867 41.7191 52.8672 42.1003 52.4764L44.1332 50.392C44.5035 49.9989 44.7084 49.4724 44.7038 48.9258C44.6991 48.3793 44.4853 47.8565 44.1084 47.47C43.7315 47.0836 43.2216 46.8643 42.6886 46.8596C42.1556 46.8549 41.6421 47.0649 41.2586 47.4446Z" fill="#38EF7D"/>
<path id="Vector_6" d="M42.694 34.3274H30.4966C29.9574 34.3274 29.4403 34.547 29.0591 34.9379C28.6779 35.3288 28.4637 35.859 28.4637 36.4118C28.4637 36.9646 28.6779 37.4948 29.0591 37.8857C29.4403 38.2766 29.9574 38.4962 30.4966 38.4962H42.694C43.2332 38.4962 43.7503 38.2766 44.1315 37.8857C44.5128 37.4948 44.727 36.9646 44.727 36.4118C44.727 35.859 44.5128 35.3288 44.1315 34.9379C43.7503 34.547 43.2332 34.3274 42.694 34.3274ZM44.727 25.9897C44.727 25.4369 44.5128 24.9067 44.1315 24.5158C43.7503 24.1249 43.2332 23.9053 42.694 23.9053H22.3649C21.8258 23.9053 21.3087 24.1249 20.9275 24.5158C20.5462 24.9067 20.332 25.4369 20.332 25.9897C20.332 26.5426 20.5462 27.0727 20.9275 27.4637C21.3087 27.8546 21.8258 28.0742 22.3649 28.0742H42.694C43.2332 28.0742 43.7503 27.8546 44.1315 27.4637C44.5128 27.0727 44.727 26.5426 44.727 25.9897Z" fill="#F85032"/>
<path id="Vector_7" d="M25.8353 43.0299L11.1251 27.9471C9.88402 26.7325 8.23426 26.0549 6.51857 26.0549C4.80288 26.0549 3.15312 26.7325 1.912 27.9471C1.30593 28.5668 0.825079 29.3029 0.496983 30.1134C0.168887 30.9239 0 31.7929 0 32.6704C0 33.548 0.168887 34.4169 0.496983 35.2274C0.825079 36.0379 1.30593 36.7741 1.912 37.3937L16.6221 52.4765C17.0033 52.8674 17.5203 53.0871 18.0594 53.0872H24.398C24.9372 53.0872 25.4543 52.8676 25.8355 52.4767C26.2167 52.0858 26.4309 51.5557 26.4309 51.0028V44.5036C26.4308 43.9509 26.2166 43.4208 25.8353 43.0299Z" fill="#6DD5FA"/>
<path id="Vector_8" d="M13.0745 29.9292L3.84513 39.3925L1.91386 37.3914C1.30841 36.7719 0.828073 36.036 0.500338 35.2259C0.172602 34.4157 0.00390625 33.5473 0.00390625 32.6703C0.00390625 31.7932 0.172602 30.9248 0.500338 30.1146C0.828073 29.3045 1.30841 28.5686 1.91386 27.9491C3.15431 26.7347 4.80339 26.0572 6.51841 26.0572C8.23342 26.0572 9.8825 26.7347 11.1229 27.9491L13.0745 29.9292Z" fill="#F85032"/>
</g>
</svg>
