<svg width="25" height="25" viewBox="0 0 25 25" fill="none" xmlns="http://www.w3.org/2000/svg">
<path id="Vector" d="M24.2188 23.2143H22.6562V6.25C22.6562 5.7567 22.3066 5.35714 21.875 5.35714H18.75C18.3184 5.35714 17.9688 5.7567 17.9688 6.25V23.2143H15.625V2.67857C15.625 2.18527 15.2754 1.78571 14.8438 1.78571H11.7188C11.2871 1.78571 10.9375 2.18527 10.9375 2.67857V23.2143H8.59375V9.82143C8.59375 9.32812 8.24414 8.92857 7.8125 8.92857H4.6875C4.25586 8.92857 3.90625 9.32812 3.90625 9.82143V23.2143H2.34375C1.9125 23.2143 1.5625 22.8143 1.5625 22.3214V0.892857C1.5625 0.399554 1.21289 0 0.78125 0C0.349609 0 0 0.399554 0 0.892857V22.3214C0 23.7987 1.05117 25 2.34375 25H24.2188C24.6504 25 25 24.6004 25 24.1071C25 23.6138 24.6504 23.2143 24.2188 23.2143ZM19.5312 7.14286H21.0938V23.2143H19.5312V7.14286ZM12.5 3.57143H14.0625V23.2143H12.5V3.57143ZM5.46875 10.7143H7.03125V23.2143H5.46875V10.7143Z" fill="#263238"/>
</svg>
