<svg width="87" height="90" viewBox="0 0 87 90" fill="none" xmlns="http://www.w3.org/2000/svg">
<g id="Group 300">
<g id="freepik--dictionaries-2--inject-116">
<g id="freepik--Book--inject-116">
<path id="Vector" d="M85.0943 10.1329V10.8927C85.0943 10.8927 84.8041 10.6264 84.7877 10.4343C84.7714 10.2423 85.0943 10.1329 85.0943 10.1329Z" fill="black"/>
<path id="Vector_2" d="M84.5125 9.94226C84.4769 10.0485 84.4639 10.1611 84.4744 10.2727C84.485 10.3843 84.5188 10.4925 84.5736 10.59C84.6284 10.6875 84.703 10.7722 84.7926 10.8385C84.8821 10.9048 84.9845 10.9512 85.0931 10.9747C85.9108 11.2369 86.4321 10.9747 86.5547 11.208C86.6774 11.4413 82.6543 13.7828 82.6543 13.7828L83.4188 10.4213L84.5125 9.94226Z" fill="#407BFF"/>
<path id="Vector_3" opacity="0.3" d="M84.5125 9.94226C84.4769 10.0485 84.4639 10.1611 84.4744 10.2727C84.485 10.3843 84.5188 10.4925 84.5736 10.59C84.6284 10.6875 84.703 10.7722 84.7926 10.8385C84.8821 10.9048 84.9845 10.9512 85.0931 10.9747C85.9108 11.2369 86.4321 10.9747 86.5547 11.208C86.6774 11.4413 82.6543 13.7828 82.6543 13.7828L83.4188 10.4213L84.5125 9.94226Z" fill="black"/>
<path id="Vector_4" d="M82.9937 41.3977V41.4452L82.5849 41.2119L65.3438 31.148L66.8565 0.931467C66.8565 0.4483 67.1182 0.20878 67.4432 0.398744L68.0299 0.741503L84.1651 10.1488L84.1487 10.2913L82.9937 41.3977Z" fill="#407BFF"/>
<path id="Vector_5" opacity="0.2" d="M82.9937 41.3977V41.4452L82.5849 41.2119L65.3438 31.148L66.8565 0.931467C66.8565 0.4483 67.1182 0.20878 67.4432 0.398744L68.0299 0.741503L84.1651 10.1488L84.1487 10.2913L82.9937 41.3977Z" fill="black"/>
<path id="Vector_6" d="M80.655 14.7062L79.8066 13.744L84.1384 11.2188C84.7926 11.7164 85.2954 11.9827 85.8801 11.7329L80.655 14.7062Z" fill="#455A64"/>
<path id="Vector_7" d="M83.9181 10.7L67.9382 1.38151C67.7826 1.30203 67.6107 1.26062 67.4363 1.26062C67.262 1.26062 67.0901 1.30203 66.9345 1.38151L62.6641 3.87168L78.8688 13.2459C78.8688 13.2459 79.57 13.0622 80.0463 13.4524C80.5226 13.8427 80.496 13.3471 80.496 13.3471L84.1368 11.2245C83.8404 10.8157 83.9181 10.7 83.9181 10.7Z" fill="#F5F5F5"/>
<path id="Vector_8" d="M80.34 14.5057C80.1744 14.4108 80.1049 14.2993 80.1826 14.2538L80.3175 14.1754C80.4688 14.0866 80.3298 13.8595 80.0027 13.6695C79.6756 13.4795 79.2892 13.3928 79.14 13.4816L79.003 13.5601C78.9254 13.6055 78.6412 13.5126 78.3652 13.3536L78.4634 43.6217L78.8722 43.855C78.9508 43.8747 79.0338 43.8667 79.1073 43.8323L79.2443 43.7539C79.3935 43.6671 79.7799 43.7539 80.1049 43.9376C80.4299 44.1214 80.571 44.3506 80.4197 44.4435L80.2848 44.522C80.2071 44.5674 80.2848 44.6789 80.4422 44.776L80.34 14.5057Z" fill="#407BFF"/>
<path id="Vector_9" opacity="0.4" d="M80.34 14.5057C80.1744 14.4108 80.1049 14.2993 80.1826 14.2538L80.3175 14.1754C80.4688 14.0866 80.3298 13.8595 80.0027 13.6695C79.6756 13.4795 79.2892 13.3928 79.14 13.4816L79.003 13.5601C78.9254 13.6055 78.6412 13.5126 78.3652 13.3536L78.4634 43.6217L78.8722 43.855C78.9508 43.8747 79.0338 43.8667 79.1073 43.8323L79.2443 43.7539C79.3935 43.6671 79.7799 43.7539 80.1049 43.9376C80.4299 44.1214 80.571 44.3506 80.4197 44.4435L80.2848 44.522C80.2071 44.5674 80.2848 44.6789 80.4422 44.776L80.34 14.5057Z" fill="black"/>
<path id="Vector_10" d="M78.8675 43.8054V43.8529L78.4587 43.6196L61.2012 33.5557V4.23526C61.2012 3.75003 61.4628 3.51051 61.7879 3.70048L62.3746 4.0453L78.8675 13.2461V43.8054Z" fill="#407BFF"/>
<path id="Vector_11" opacity="0.2" d="M78.8675 43.8054V43.8529L78.4587 43.6196L61.2012 33.5557V4.23526C61.2012 3.75003 61.4628 3.51051 61.7879 3.70048L62.3746 4.0453L78.8675 13.2461V43.8054Z" fill="black"/>
<path id="Vector_12" d="M80.1504 44.6025V14.3013L81.2216 14.737V44.9411C81.0225 44.9811 80.8161 44.9602 80.6287 44.8813L80.1504 44.6025Z" fill="#407BFF"/>
<path id="Vector_13" opacity="0.2" d="M80.1504 44.6025V14.3013L81.2216 14.737V44.9411C81.0225 44.9811 80.8161 44.9602 80.6287 44.8813L80.1504 44.6025Z" fill="black"/>
<path id="Vector_14" d="M86.987 41.4576C86.989 41.4775 86.989 41.4976 86.987 41.5175C86.9889 41.5298 86.9889 41.5424 86.987 41.5547C86.9796 41.5832 86.9679 41.6104 86.9522 41.6352C86.9471 41.6504 86.9402 41.665 86.9318 41.6786C86.9058 41.7251 86.8749 41.7687 86.8398 41.8087C86.8031 41.8552 86.7635 41.8993 86.7212 41.9408L86.5699 42.0729C86.5397 42.0993 86.5076 42.1235 86.4739 42.1452L86.3941 42.201C86.3349 42.2423 86.2715 42.2836 86.204 42.3228L82.4855 44.4908C82.0993 44.7186 81.6743 44.8712 81.2324 44.941V14.7368L87.0013 11.2452V41.4494L86.987 41.4576Z" fill="#407BFF"/>
<path id="Vector_15" d="M81.2188 18.9303V22.5706C83.5267 21.7818 85.5117 20.7122 86.9897 19.207V15.5667C85.5035 17.0658 83.5369 18.1395 81.2188 18.9303Z" fill="#407BFF"/>
<path id="Vector_16" opacity="0.4" d="M81.2188 18.9303V22.5706C83.5267 21.7818 85.5117 20.7122 86.9897 19.207V15.5667C85.5035 17.0658 83.5369 18.1395 81.2188 18.9303Z" fill="white"/>
<path id="Vector_17" d="M81.2188 23.9209V25.2775C83.5267 24.4867 85.5117 23.4192 86.9897 21.9139V20.5553C85.5035 22.0564 83.5369 23.1301 81.2188 23.9209Z" fill="#407BFF"/>
<path id="Vector_18" opacity="0.4" d="M81.2188 23.9209V25.2775C83.5267 24.4867 85.5117 23.4192 86.9897 21.9139V20.5553C85.5035 22.0564 83.5369 23.1301 81.2188 23.9209Z" fill="white"/>
<path id="Vector_19" d="M82.4752 14.2785L82.1849 13.7706C81.8118 14.0046 81.3866 14.1402 80.9481 14.165C80.9697 13.9929 80.9337 13.8185 80.8459 13.6694C80.7066 13.4527 80.5153 13.2752 80.2899 13.1532C80.0307 13.0002 79.7435 12.9019 79.4456 12.8641H79.3822C79.2047 12.8466 79.0258 12.881 78.8671 12.9632L63.5618 4.04118L63.0406 3.74797L62.3782 3.35979C62.3261 3.32332 62.2652 3.30159 62.2019 3.29687C62.1387 3.29215 62.0753 3.30461 62.0184 3.33294L61.4297 3.6757C61.4874 3.64583 61.552 3.63218 61.6167 3.63618C61.6815 3.64017 61.744 3.66167 61.7976 3.69842H61.8079L63.5618 4.73083L78.3642 13.3618C78.6402 13.5207 78.9264 13.6178 79.0041 13.5682L79.139 13.4898C79.2362 13.4491 79.3442 13.4425 79.4456 13.4712C79.6411 13.5055 79.8289 13.5755 79.9996 13.6777C80.3267 13.8697 80.4657 14.0906 80.3165 14.1836L80.1815 14.262C80.1018 14.3074 80.1815 14.4189 80.3389 14.516L80.6333 14.6853C80.9563 14.8649 81.7822 14.6915 82.4752 14.2785Z" fill="#407BFF"/>
<path id="Vector_20" opacity="0.3" d="M82.4752 14.2785L82.1849 13.7706C81.8118 14.0046 81.3866 14.1402 80.9481 14.165C80.9697 13.9929 80.9337 13.8185 80.8459 13.6694C80.7066 13.4527 80.5153 13.2752 80.2899 13.1532C80.0307 13.0002 79.7435 12.9019 79.4456 12.8641H79.3822C79.2047 12.8466 79.0258 12.881 78.8671 12.9632L63.5618 4.04118L63.0406 3.74797L62.3782 3.35979C62.3261 3.32332 62.2652 3.30159 62.2019 3.29687C62.1387 3.29215 62.0753 3.30461 62.0184 3.33294L61.4297 3.6757C61.4874 3.64583 61.552 3.63218 61.6167 3.63618C61.6815 3.64017 61.744 3.66167 61.7976 3.69842H61.8079L63.5618 4.73083L78.3642 13.3618C78.6402 13.5207 78.9264 13.6178 79.0041 13.5682L79.139 13.4898C79.2362 13.4491 79.3442 13.4425 79.4456 13.4712C79.6411 13.5055 79.8289 13.5755 79.9996 13.6777C80.3267 13.8697 80.4657 14.0906 80.3165 14.1836L80.1815 14.262C80.1018 14.3074 80.1815 14.4189 80.3389 14.516L80.6333 14.6853C80.9563 14.8649 81.7822 14.6915 82.4752 14.2785Z" fill="black"/>
<path id="Vector_21" d="M82.1831 13.7788L85.9016 11.6107L86.0529 11.5158L86.1715 11.429C86.1755 11.43 86.1797 11.43 86.1837 11.429C85.7585 11.6149 85.182 11.429 84.8018 11.2226C84.5798 11.1049 84.3923 10.9305 84.258 10.7167C84.1601 10.551 84.1266 10.3546 84.164 10.1654L84.1129 10.1344L84.0086 10.0766L69.2063 1.42707L68.3579 0.931515C68.2782 0.886089 68.1964 0.836533 68.1126 0.791107L67.3971 0.378144C67.3477 0.351745 67.2926 0.337946 67.2366 0.337946C67.1807 0.337946 67.1256 0.351745 67.0762 0.378144L67.2356 0.285227L67.6629 0.0374487C67.7092 0.0128517 67.7608 0 67.8131 0C67.8655 0 67.917 0.0128517 67.9634 0.0374487C68.0472 0.0870043 68.1351 0.14069 68.2271 0.190245L68.3927 0.287292L68.6789 0.452477L68.8547 0.555718L68.9794 0.627986L69.1981 0.75394L80.9525 7.61326L84.7078 9.80196C84.9756 9.95476 85.133 10.1179 85.0696 10.1716C85.0625 10.1777 85.055 10.1832 85.0471 10.1881L84.9142 10.2645C84.7527 10.3595 84.8836 10.5907 85.2086 10.7786C85.5336 10.9665 85.7912 10.9727 85.9527 10.886L86.1142 10.7931C86.1476 10.7691 86.1861 10.7534 86.2266 10.7473C86.2671 10.7412 86.3084 10.7448 86.3473 10.758L86.4352 10.8075L86.6191 10.917L86.8501 11.0491C86.898 11.0733 86.9363 11.1134 86.9586 11.1626C86.9809 11.2117 86.9859 11.2671 86.9728 11.3196C86.9766 11.3317 86.9766 11.3447 86.9728 11.3568C86.9662 11.3852 86.9551 11.4124 86.9401 11.4373C86.9364 11.4517 86.9309 11.4656 86.9237 11.4786C86.8977 11.5251 86.8669 11.5687 86.8317 11.6087C86.795 11.6552 86.7554 11.6993 86.7132 11.7408C86.6641 11.7842 86.6151 11.8275 86.5599 11.873C86.5303 11.8993 86.4988 11.9235 86.4658 11.9452L86.3861 12.001C86.3268 12.0423 86.2634 12.0836 86.1939 12.1228L82.4734 14.2785L82.1831 13.7788Z" fill="#407BFF"/>
<path id="Vector_22" opacity="0.3" d="M82.1831 13.7788L85.9016 11.6107L86.0529 11.5158L86.1715 11.429C86.1755 11.43 86.1797 11.43 86.1837 11.429C85.7585 11.6149 85.182 11.429 84.8018 11.2226C84.5798 11.1049 84.3923 10.9305 84.258 10.7167C84.1601 10.551 84.1266 10.3546 84.164 10.1654L84.1129 10.1344L84.0086 10.0766L69.2063 1.42707L68.3579 0.931515C68.2782 0.886089 68.1964 0.836533 68.1126 0.791107L67.3971 0.378144C67.3477 0.351745 67.2926 0.337946 67.2366 0.337946C67.1807 0.337946 67.1256 0.351745 67.0762 0.378144L67.2356 0.285227L67.6629 0.0374487C67.7092 0.0128517 67.7608 0 67.8131 0C67.8655 0 67.917 0.0128517 67.9634 0.0374487C68.0472 0.0870043 68.1351 0.14069 68.2271 0.190245L68.3927 0.287292L68.6789 0.452477L68.8547 0.555718L68.9794 0.627986L69.1981 0.75394L80.9525 7.61326L84.7078 9.80196C84.9756 9.95476 85.133 10.1179 85.0696 10.1716C85.0625 10.1777 85.055 10.1832 85.0471 10.1881L84.9142 10.2645C84.7527 10.3595 84.8836 10.5907 85.2086 10.7786C85.5336 10.9665 85.7912 10.9727 85.9527 10.886L86.1142 10.7931C86.1476 10.7691 86.1861 10.7534 86.2266 10.7473C86.2671 10.7412 86.3084 10.7448 86.3473 10.758L86.4352 10.8075L86.6191 10.917L86.8501 11.0491C86.898 11.0733 86.9363 11.1134 86.9586 11.1626C86.9809 11.2117 86.9859 11.2671 86.9728 11.3196C86.9766 11.3317 86.9766 11.3447 86.9728 11.3568C86.9662 11.3852 86.9551 11.4124 86.9401 11.4373C86.9364 11.4517 86.9309 11.4656 86.9237 11.4786C86.8977 11.5251 86.8669 11.5687 86.8317 11.6087C86.795 11.6552 86.7554 11.6993 86.7132 11.7408C86.6641 11.7842 86.6151 11.8275 86.5599 11.873C86.5303 11.8993 86.4988 11.9235 86.4658 11.9452L86.3861 12.001C86.3268 12.0423 86.2634 12.0836 86.1939 12.1228L82.4734 14.2785L82.1831 13.7788Z" fill="black"/>
</g>
<g id="freepik--book--inject-116">
<path id="Vector_23" d="M76.5397 15.3396V16.0995C76.5397 16.0995 76.2494 15.8331 76.233 15.6411C76.2167 15.449 76.5397 15.3396 76.5397 15.3396Z" fill="black"/>
<path id="Vector_24" d="M75.9558 15.1543C75.9232 15.2598 75.9126 15.3709 75.9247 15.4808C75.9368 15.5906 75.9713 15.6967 76.0261 15.7923C76.0808 15.888 76.1546 15.9712 76.2428 16.0365C76.331 16.1019 76.4316 16.1481 76.5384 16.1723C77.3561 16.4324 77.8753 16.1723 78 16.4056C78.1247 16.6389 74.0996 18.9804 74.0996 18.9804L74.8642 15.6189L75.9558 15.1543Z" fill="#407BFF"/>
<path id="Vector_25" opacity="0.3" d="M75.9558 15.1543C75.9232 15.2598 75.9126 15.3709 75.9247 15.4808C75.9368 15.5906 75.9713 15.6967 76.0261 15.7923C76.0808 15.888 76.1546 15.9712 76.2428 16.0365C76.331 16.1019 76.4316 16.1481 76.5384 16.1723C77.3561 16.4324 77.8753 16.1723 78 16.4056C78.1247 16.6389 74.0996 18.9804 74.0996 18.9804L74.8642 15.6189L75.9558 15.1543Z" fill="black"/>
<path id="Vector_26" d="M74.4395 46.6049V46.6524L74.0307 46.4191L56.7793 36.3552L58.3002 6.13864C58.3002 5.65341 58.5639 5.41389 58.8869 5.60386L59.4757 5.94868L75.6088 15.3539L75.5945 15.4964L74.4395 46.6049Z" fill="#407BFF"/>
<path id="Vector_27" opacity="0.2" d="M74.4395 46.6049V46.6524L74.0307 46.4191L56.7793 36.3552L58.3002 6.13864C58.3002 5.65341 58.5639 5.41389 58.8869 5.60386L59.4757 5.94868L75.6088 15.3539L75.5945 15.4964L74.4395 46.6049Z" fill="black"/>
<path id="Vector_28" d="M72.0885 19.9134L71.2422 18.9512L75.5739 16.4239C76.2281 16.9236 76.7289 17.1879 77.3156 16.9401L72.0885 19.9134Z" fill="#455A64"/>
<path id="Vector_29" d="M75.3597 15.9073L59.3799 6.58878C59.2243 6.50931 59.0524 6.4679 58.878 6.4679C58.7037 6.4679 58.5318 6.50931 58.3762 6.58878L54.0996 9.07895L70.3043 18.447C70.3043 18.447 71.0035 18.2633 71.4798 18.6535C71.9561 19.0438 71.9316 18.5503 71.9316 18.5503L75.5723 16.4256C75.2821 16.0209 75.3597 15.9073 75.3597 15.9073Z" fill="#F5F5F5"/>
<path id="Vector_30" d="M71.7853 19.7135C71.6197 19.6165 71.5482 19.507 71.6279 19.4616L71.7628 19.3811C71.912 19.2944 71.773 19.0672 71.4459 18.8752C71.1189 18.6832 70.7345 18.6006 70.5833 18.6894L70.4483 18.7678C70.3707 18.8132 70.0865 18.7203 69.8105 18.5613L69.9087 48.8295L70.3175 49.0628C70.3963 49.0803 70.4785 49.0724 70.5526 49.0401L70.6875 48.9616C70.8388 48.8728 71.2231 48.9616 71.5502 49.1454C71.8773 49.3292 72.0163 49.5584 71.865 49.6513L71.7301 49.7297C71.6524 49.7752 71.7301 49.8867 71.8875 49.9817L71.7853 19.7135Z" fill="#407BFF"/>
<path id="Vector_31" opacity="0.25" d="M71.7853 19.7135C71.6197 19.6165 71.5482 19.507 71.6279 19.4616L71.7628 19.3811C71.912 19.2944 71.773 19.0672 71.4459 18.8752C71.1189 18.6832 70.7345 18.6006 70.5833 18.6894L70.4483 18.7678C70.3707 18.8132 70.0865 18.7203 69.8105 18.5613L69.9087 48.8295L70.3175 49.0628C70.3963 49.0803 70.4785 49.0724 70.5526 49.0401L70.6875 48.9616C70.8388 48.8728 71.2231 48.9616 71.5502 49.1454C71.8773 49.3292 72.0163 49.5584 71.865 49.6513L71.7301 49.7297C71.6524 49.7752 71.7301 49.8867 71.8875 49.9817L71.7853 19.7135Z" fill="white"/>
<path id="Vector_32" d="M70.3128 49.0132V49.0607L69.904 48.8253L52.6465 38.7634V9.44303C52.6465 8.9578 52.9102 8.71828 53.2352 8.90824L53.8219 9.251L70.3047 18.458L70.3128 49.0132Z" fill="#407BFF"/>
<path id="Vector_33" opacity="0.4" d="M70.3128 49.0132V49.0607L69.904 48.8253L52.6465 38.7634V9.44303C52.6465 8.9578 52.9102 8.71828 53.2352 8.90824L53.8219 9.251L70.3047 18.458L70.3128 49.0132Z" fill="white"/>
<path id="Vector_34" d="M71.5938 49.8082V19.5091L72.6649 19.9448V50.1468C72.4667 50.188 72.2608 50.1679 72.0741 50.089L71.5938 49.8082Z" fill="#407BFF"/>
<path id="Vector_35" opacity="0.4" d="M71.5938 49.8082V19.5091L72.6649 19.9448V50.1468C72.4667 50.188 72.2608 50.1679 72.0741 50.089L71.5938 49.8082Z" fill="white"/>
<path id="Vector_36" d="M78.4263 46.6655C78.4283 46.6847 78.4283 46.7041 78.4263 46.7233C78.4304 46.736 78.4304 46.7498 78.4263 46.7625C78.4197 46.7909 78.4087 46.8181 78.3936 46.843C78.3889 46.8577 78.382 46.8717 78.3732 46.8843C78.3477 46.9318 78.3168 46.9762 78.2812 47.0165C78.2444 47.0623 78.2048 47.1058 78.1626 47.1466C78.1136 47.192 78.0645 47.2353 78.0093 47.2787C77.9795 47.3062 77.9473 47.3311 77.9132 47.353L77.8355 47.4088C77.7763 47.4501 77.7129 47.4914 77.6434 47.5306L73.927 49.6987C73.5407 49.9264 73.1157 50.0791 72.6738 50.1488V19.9447L78.4263 16.4531V46.6655Z" fill="#407BFF"/>
<g id="Group" opacity="0.7">
<path id="Vector_37" d="M78.4283 46.6655C78.4303 46.6847 78.4303 46.7041 78.4283 46.7233C78.4324 46.736 78.4324 46.7498 78.4283 46.7625C78.4217 46.7909 78.4106 46.8181 78.3956 46.843C78.3908 46.8577 78.384 46.8717 78.3751 46.8843C78.3496 46.9318 78.3188 46.9762 78.2831 47.0165C78.2464 47.0623 78.2068 47.1058 78.1646 47.1466C78.1155 47.192 78.0665 47.2353 78.0113 47.2787C77.9814 47.3062 77.9493 47.3311 77.9152 47.353L77.8375 47.4088C77.7782 47.4501 77.7148 47.4914 77.6453 47.5306L73.9289 49.6987C73.5427 49.9264 73.1176 50.0791 72.6758 50.1488V19.9447L78.4283 16.4531V46.6655Z" fill="white"/>
</g>
<path id="Vector_38" d="M72.6641 22.4465V26.0888C74.97 25.298 76.957 24.2305 78.4329 22.7232V19.0829C76.9488 20.5819 74.97 21.6556 72.6641 22.4465Z" fill="#FAFAFA"/>
<path id="Vector_39" d="M72.6641 42.7296V46.3699C74.97 45.5811 76.957 44.5116 78.4329 43.0063V39.366C76.9488 40.8651 74.97 41.947 72.6641 42.7296Z" fill="#FAFAFA"/>
<path id="Vector_40" d="M73.9307 19.4938L73.6404 18.9859C73.2701 19.2178 72.8487 19.3533 72.4139 19.3803C72.4345 19.2082 72.3986 19.0341 72.3117 18.8847C72.1724 18.6681 71.9811 18.4905 71.7556 18.3685C71.4961 18.2146 71.208 18.1163 70.9093 18.0794C70.8889 18.0775 70.8684 18.0775 70.848 18.0794C70.67 18.0621 70.4908 18.0958 70.3308 18.1765L55.0051 9.24823L54.4859 8.94677L53.8215 8.55858C53.7693 8.52211 53.7085 8.50039 53.6452 8.49567C53.5819 8.49095 53.5186 8.5034 53.4617 8.53174L52.875 8.8745C52.9326 8.84419 52.9973 8.83029 53.0621 8.83429C53.1269 8.83829 53.1894 8.86004 53.243 8.89721L54.9969 9.92962L69.7993 18.5606C70.0753 18.7195 70.3615 18.8166 70.4391 18.767L70.5761 18.6886C70.6733 18.648 70.781 18.6407 70.8827 18.6679C71.078 18.7032 71.2656 18.7731 71.4367 18.8744C71.7638 19.0664 71.9028 19.2874 71.7515 19.3803L71.6166 19.4587C71.5389 19.5042 71.6166 19.6157 71.774 19.7107L72.0684 19.882C72.3996 20.072 73.2275 19.8965 73.9307 19.4938Z" fill="#407BFF"/>
<path id="Vector_41" opacity="0.6" d="M73.9307 19.4938L73.6404 18.9859C73.2701 19.2178 72.8487 19.3533 72.4139 19.3803C72.4345 19.2082 72.3986 19.0341 72.3117 18.8847C72.1724 18.6681 71.9811 18.4905 71.7556 18.3685C71.4961 18.2146 71.208 18.1163 70.9093 18.0794C70.8889 18.0775 70.8684 18.0775 70.848 18.0794C70.67 18.0621 70.4908 18.0958 70.3308 18.1765L55.0051 9.24823L54.4859 8.94677L53.8215 8.55858C53.7693 8.52211 53.7085 8.50039 53.6452 8.49567C53.5819 8.49095 53.5186 8.5034 53.4617 8.53174L52.875 8.8745C52.9326 8.84419 52.9973 8.83029 53.0621 8.83429C53.1269 8.83829 53.1894 8.86004 53.243 8.89721L54.9969 9.92962L69.7993 18.5606C70.0753 18.7195 70.3615 18.8166 70.4391 18.767L70.5761 18.6886C70.6733 18.648 70.781 18.6407 70.8827 18.6679C71.078 18.7032 71.2656 18.7731 71.4367 18.8744C71.7638 19.0664 71.9028 19.2874 71.7515 19.3803L71.6166 19.4587C71.5389 19.5042 71.6166 19.6157 71.774 19.7107L72.0684 19.882C72.3996 20.072 73.2275 19.8965 73.9307 19.4938Z" fill="white"/>
<path id="Vector_42" d="M73.6305 18.9863L77.3469 16.8183L77.5002 16.7233L77.6188 16.6366C77.1936 16.8245 76.6171 16.6366 76.2389 16.4301C76.0168 16.311 75.8288 16.1361 75.6931 15.9221C75.5974 15.7565 75.564 15.5614 75.5991 15.3729L75.548 15.3419L75.4458 15.2841L60.6536 6.63872L59.8053 6.14317C59.7255 6.09774 59.6438 6.04818 59.56 6.00276C59.3106 5.85616 59.0591 5.70955 58.8424 5.5898C58.793 5.5634 58.7379 5.5496 58.682 5.5496C58.626 5.5496 58.5709 5.5634 58.5215 5.5898L58.683 5.49688L59.1102 5.24704C59.1564 5.22296 59.2075 5.21039 59.2595 5.21039C59.3114 5.21039 59.3626 5.22296 59.4087 5.24704C59.4945 5.29659 59.5824 5.35028 59.6744 5.39983L59.84 5.49688L60.1242 5.66206C60.1896 5.69923 60.2489 5.73227 60.3 5.7653L60.4267 5.83757L60.6455 5.96353L72.3999 12.8228L76.1531 15.0095C76.4229 15.1643 76.5783 15.3275 76.5149 15.3812L76.4924 15.3977L76.3616 15.4741C76.1981 15.5691 76.3309 15.8003 76.656 15.9882C76.981 16.1761 77.2386 16.1823 77.4001 16.0956L77.5595 16.0006C77.5937 15.9776 77.6325 15.9625 77.6732 15.9564C77.7138 15.9503 77.7553 15.9534 77.7946 15.9655L77.8805 16.0171L78.0665 16.1266L78.2955 16.2587C78.3433 16.2825 78.3817 16.3221 78.4044 16.3708C78.427 16.4196 78.4326 16.4747 78.4202 16.5271C78.4232 16.54 78.4232 16.5535 78.4202 16.5664C78.4128 16.5949 78.4011 16.6221 78.3854 16.6469C78.3821 16.6608 78.3766 16.674 78.369 16.6861C78.3436 16.7336 78.3127 16.778 78.2771 16.8183C78.2403 16.8616 78.1994 16.9071 78.1565 16.9484C78.1135 16.9896 78.0604 17.0351 78.0052 17.0805C77.9753 17.108 77.9432 17.1329 77.9091 17.1548L77.8314 17.2106C77.7721 17.2519 77.7067 17.2932 77.6393 17.3324L73.931 19.4943L73.6305 18.9863Z" fill="#407BFF"/>
<path id="Vector_43" opacity="0.6" d="M73.6305 18.9863L77.3469 16.8183L77.5002 16.7233L77.6188 16.6366C77.1936 16.8245 76.6171 16.6366 76.2389 16.4301C76.0168 16.311 75.8288 16.1361 75.6931 15.9221C75.5974 15.7565 75.564 15.5614 75.5991 15.3729L75.548 15.3419L75.4458 15.2841L60.6536 6.63872L59.8053 6.14317C59.7255 6.09774 59.6438 6.04818 59.56 6.00276C59.3106 5.85616 59.0591 5.70955 58.8424 5.5898C58.793 5.5634 58.7379 5.5496 58.682 5.5496C58.626 5.5496 58.5709 5.5634 58.5215 5.5898L58.683 5.49688L59.1102 5.24704C59.1564 5.22296 59.2075 5.21039 59.2595 5.21039C59.3114 5.21039 59.3626 5.22296 59.4087 5.24704C59.4945 5.29659 59.5824 5.35028 59.6744 5.39983L59.84 5.49688L60.1242 5.66206C60.1896 5.69923 60.2489 5.73227 60.3 5.7653L60.4267 5.83757L60.6455 5.96353L72.3999 12.8228L76.1531 15.0095C76.4229 15.1643 76.5783 15.3275 76.5149 15.3812L76.4924 15.3977L76.3616 15.4741C76.1981 15.5691 76.3309 15.8003 76.656 15.9882C76.981 16.1761 77.2386 16.1823 77.4001 16.0956L77.5595 16.0006C77.5937 15.9776 77.6325 15.9625 77.6732 15.9564C77.7138 15.9503 77.7553 15.9534 77.7946 15.9655L77.8805 16.0171L78.0665 16.1266L78.2955 16.2587C78.3433 16.2825 78.3817 16.3221 78.4044 16.3708C78.427 16.4196 78.4326 16.4747 78.4202 16.5271C78.4232 16.54 78.4232 16.5535 78.4202 16.5664C78.4128 16.5949 78.4011 16.6221 78.3854 16.6469C78.3821 16.6608 78.3766 16.674 78.369 16.6861C78.3436 16.7336 78.3127 16.778 78.2771 16.8183C78.2403 16.8616 78.1994 16.9071 78.1565 16.9484C78.1135 16.9896 78.0604 17.0351 78.0052 17.0805C77.9753 17.108 77.9432 17.1329 77.9091 17.1548L77.8314 17.2106C77.7721 17.2519 77.7067 17.2932 77.6393 17.3324L73.931 19.4943L73.6305 18.9863Z" fill="white"/>
</g>
</g>
<g id="freepik--dictionary-1--inject-116">
<g id="freepik--Dictionary--inject-116">
<path id="Vector_44" d="M83.8874 59.2215C83.8817 59.2998 83.8551 59.3752 83.8105 59.4395C83.7659 59.5038 83.7049 59.5548 83.6339 59.587L59.6181 73.5843C59.2788 73.7908 59.0049 74.1295 59.0049 74.3607C59.0049 74.592 58.7309 74.9389 58.3916 75.1371L54.0987 77.65C53.7614 77.8565 53.4854 77.8193 53.4854 77.588C53.4854 77.3568 53.2115 77.3299 52.8721 77.5281L31.7265 89.851C31.5366 89.949 31.3264 90.0001 31.1132 90.0001C30.9 90.0001 30.6898 89.949 30.4999 89.851L0.257392 72.2195C0.187745 72.1883 0.12756 72.139 0.0830132 72.0766C0.0384669 72.0142 0.0111641 71.9409 0.00390625 71.8644C0.00390625 71.7508 0.00390625 71.0198 0.00390625 70.8319C0.0151933 70.9041 0.0440902 70.9723 0.0879885 71.0303C0.131887 71.0883 0.189404 71.1344 0.255348 71.1644L1.07305 71.6414L30.5102 88.802C30.7003 88.8991 30.9104 88.9497 31.1234 88.9497C31.3365 88.9497 31.5466 88.8991 31.7367 88.802L53.4854 76.1179C53.8227 75.9114 54.0987 75.9465 54.0987 76.1778C54.0987 76.409 54.3726 76.4379 54.712 76.2397L57.7783 74.4412C58.1177 74.2451 58.3916 73.8982 58.3916 73.6669C58.3916 73.4357 58.6655 73.0867 59.0049 72.8906L82.804 59.0109L83.8772 58.1746V58.2015C83.8833 58.3522 83.8833 59.1059 83.8874 59.2215Z" fill="#407BFF"/>
<path id="Vector_45" opacity="0.15" d="M30.9987 88.944V89.9888C30.8255 89.9809 30.656 89.9351 30.502 89.8546L0.257392 72.219C0.187745 72.1878 0.12756 72.1385 0.0830132 72.0761C0.0384669 72.0137 0.0111641 71.9404 0.00390625 71.8638C0.00390625 71.7503 0.00390625 71.0193 0.00390625 70.8314C0.0151933 70.9036 0.0440902 70.9717 0.0879885 71.0298C0.131887 71.0878 0.189404 71.1339 0.255348 71.1639L30.5102 88.8015C30.661 88.884 30.8276 88.9325 30.9987 88.944Z" fill="black"/>
<path id="Vector_46" d="M30.4991 88.7996L0.254508 71.164C-0.0848361 70.9576 -0.0848361 70.6478 0.254508 70.4496L52.1947 40.2001C52.3847 40.1025 52.5948 40.0516 52.8079 40.0516C53.0211 40.0516 53.2312 40.1025 53.4212 40.2001L83.631 57.815C83.9683 58.0112 83.9683 58.3312 83.631 58.5294L59.004 72.8882C58.6667 73.0946 58.3908 73.4333 58.3908 73.6645C58.3908 73.8958 58.1148 74.2427 57.7775 74.4409L54.6948 76.2393C54.3554 76.4355 54.0815 76.4087 54.0815 76.1774C54.0815 75.9461 53.8076 75.9193 53.4682 76.1155L31.7175 88.7996C31.5287 88.8963 31.32 88.9467 31.1083 88.9467C30.8966 88.9467 30.6879 88.8963 30.4991 88.7996Z" fill="#407BFF"/>
<path id="Vector_47" opacity="0.4" d="M30.4991 88.7996L0.254508 71.164C-0.0848361 70.9576 -0.0848361 70.6478 0.254508 70.4496L52.1947 40.2001C52.3847 40.1025 52.5948 40.0516 52.8079 40.0516C53.0211 40.0516 53.2312 40.1025 53.4212 40.2001L83.631 57.815C83.9683 58.0112 83.9683 58.3312 83.631 58.5294L59.004 72.8882C58.6667 73.0946 58.3908 73.4333 58.3908 73.6645C58.3908 73.8958 58.1148 74.2427 57.7775 74.4409L54.6948 76.2393C54.3554 76.4355 54.0815 76.4087 54.0815 76.1774C54.0815 75.9461 53.8076 75.9193 53.4682 76.1155L31.7175 88.7996C31.5287 88.8963 31.32 88.9467 31.1083 88.9467C30.8966 88.9467 30.6879 88.8963 30.4991 88.7996Z" fill="white"/>
<path id="Vector_48" d="M54.1835 75.3961L53.6152 75.0637L58.1494 72.4145L58.3068 72.5053L54.1835 75.3961Z" fill="#37474F"/>
<path id="Vector_49" d="M57.9287 72.5489L54.5517 74.5188C54.4279 74.5887 54.322 74.687 54.2425 74.8056C54.163 74.9243 54.112 75.0601 54.0938 75.2022C54.0937 75.4314 54.2982 75.4995 54.5537 75.3509L57.9328 73.381C58.0563 73.3108 58.1617 73.2125 58.2409 73.0938C58.32 72.9752 58.3706 72.8395 58.3887 72.6976C58.3907 72.4663 58.1863 72.4003 57.9287 72.5489Z" fill="#455A64"/>
<g id="freepik--book--inject-116_2">
<path id="Vector_50" d="M56.8457 73.1747V70.7692C56.8457 69.681 58.7632 66.5776 61.1631 65.1797L80.5835 53.8542L82.2986 58.3224L56.8457 73.1747Z" fill="#F5F5F5"/>
<path id="Vector_51" d="M80.5796 53.8547L61.1593 65.1802C58.7593 66.576 56.8316 69.6836 56.8418 70.7697V73.1752L26.957 55.7502V53.3468C26.957 52.2586 28.8766 49.1531 31.2745 47.7552L50.6948 36.4359H50.705L80.5796 53.8547Z" fill="#FAFAFA"/>
<path id="Vector_52" d="M80.5796 53.8546L61.1593 65.1801C58.7593 66.5759 56.8316 69.6834 56.8418 70.7695V73.175L26.957 55.7501V53.3466C26.957 52.2584 28.8766 49.153 31.2745 47.7551L50.6948 36.4296L80.5796 53.8546Z" fill="#FAFAFA"/>
<path id="Vector_53" d="M56.9468 73.3549L26.8535 55.8039V53.3468C26.8535 52.1719 28.8814 49.0313 31.2221 47.6665L50.6976 36.31L50.7487 36.341L80.7827 53.8547L61.205 65.2794C58.7682 66.6958 56.9305 69.7765 56.9387 70.778L56.9468 73.3549ZM27.0579 55.6904L56.7424 72.9956V70.7697C56.7424 69.5948 58.7703 66.4522 61.111 65.0915L80.382 53.8547L50.6976 36.5495L31.3243 47.8441C28.8875 49.2647 27.0498 52.3454 27.0579 53.3447V55.6904Z" fill="#E0E0E0"/>
<path id="Vector_54" d="M56.8368 70.8337L54.9765 69.7435L52.5234 68.3105C53.8972 68.1515 54.8702 68.3621 55.5428 68.7524C55.9142 68.9615 56.2275 69.2619 56.4537 69.6257C56.6799 69.9894 56.8116 70.4049 56.8368 70.8337Z" fill="#F0F0F0"/>
<path id="Vector_55" d="M56.8368 70.8337L54.9765 69.7435L52.5234 68.3105C53.8972 68.1515 54.8702 68.3621 55.5428 68.7524C55.9142 68.9615 56.2275 69.2619 56.4537 69.6257C56.6799 69.9894 56.8116 70.4049 56.8368 70.8337Z" fill="#E0E0E0"/>
<path id="Vector_56" d="M56.8363 70.8333C56.8363 69.7451 54.8616 68.8387 52.4575 70.2303L33.0413 81.4671L31.3262 88.0745L56.8445 73.183C56.8445 73.183 56.8465 71.9214 56.8363 70.8333Z" fill="#F5F5F5"/>
<path id="Vector_57" d="M71.0246 62.3884L66.1573 65.1532C65.3477 65.6199 64.5403 66.0913 63.7348 66.5676C62.9335 67.0487 62.1321 67.536 61.3635 68.0729C60.5864 68.6008 59.8516 69.1897 59.1659 69.8341C58.4743 70.4741 57.915 71.246 57.5203 72.1054C57.9471 71.2687 58.5286 70.5222 59.2334 69.9064C59.9273 69.2821 60.6682 68.7133 61.4494 68.205C63.005 67.1726 64.6363 66.26 66.2595 65.3308L71.1105 62.5206L73.5165 61.1L75.9247 59.6546L73.4716 61.0071L71.0246 62.3884ZM58.4975 69.287C59.1102 68.5053 59.8091 67.7966 60.5806 67.1747C61.3499 66.5494 62.1554 65.9709 62.9928 65.4423C63.8289 64.9096 64.6977 64.4305 65.5685 63.9494L70.7609 61.0236L73.3489 59.5452L75.9287 58.0523L73.3121 59.4502L70.6955 60.879L65.4786 63.7698C63.743 64.7299 62.0136 65.752 60.4906 67.0528C59.7229 67.6954 59.0308 68.4249 58.428 69.2271C57.8251 70.033 57.3715 70.9424 57.089 71.9114C57.2495 71.4382 57.4492 70.9796 57.6859 70.5403C57.9216 70.0986 58.1931 69.6773 58.4975 69.2808V69.287ZM54.2291 73.1255C53.8098 73.2236 53.3994 73.3577 53.0026 73.526C52.2138 73.8698 51.4429 74.2537 50.6926 74.6761C49.9382 75.0891 49.2023 75.5289 48.4602 75.9584L46.2402 77.2551C44.7683 78.1388 43.2904 79.0123 41.8226 79.9043C40.3548 80.7963 38.8891 81.6883 37.4336 82.603C38.9341 81.7667 40.4202 80.9098 41.9064 80.0488C43.3926 79.1878 44.8685 78.3144 46.3485 77.4471C47.8286 76.5799 49.2963 75.6838 50.7764 74.8207C51.5184 74.3912 52.2666 73.9741 53.0455 73.621C53.4314 73.439 53.8322 73.2912 54.2434 73.1792C54.4488 73.1236 54.6604 73.0945 54.873 73.0924C55.0871 73.082 55.2979 73.1486 55.4679 73.2803C55.302 73.1372 55.0912 73.0582 54.873 73.0573C54.6564 73.0531 54.4401 73.076 54.2291 73.1255ZM55.3126 71.4881C54.8612 71.395 54.3948 71.4077 53.949 71.5252C53.0682 71.7591 52.2159 72.0915 51.408 72.5163C50.5903 72.9169 49.8013 73.3712 49.0183 73.8316L46.6777 75.2254C45.1281 76.1711 43.5765 77.1147 42.0352 78.0748L39.7272 79.5202C38.9627 80.0096 38.1941 80.4927 37.4336 80.9904L39.7865 79.609L42.1251 78.2173L46.7921 75.4112C48.3458 74.4717 49.883 73.5033 51.4939 72.663C52.2847 72.2294 53.1195 71.8832 53.9838 71.6305C54.4141 71.5017 54.8676 71.4728 55.3105 71.5459C55.5296 71.5966 55.7342 71.6974 55.9085 71.8406C56.0829 71.9838 56.2224 72.1656 56.3163 72.3718C56.2268 72.16 56.0945 71.9694 55.9279 71.8122C55.755 71.6556 55.5475 71.543 55.3228 71.4839L55.3126 71.4881Z" fill="#E6E6E6"/>
<path id="Vector_58" d="M31.3259 88.0662L33.0411 81.4671L3.16239 64.0421L1.44727 70.6413L31.3259 88.0662Z" fill="#EBEBEB"/>
<path id="Vector_59" d="M52.4606 70.2344L51.5918 70.7362L33.0403 81.467L6.64709 66.0738L3.17188 64.0421L22.5922 52.8053C24.3523 51.7853 25.3376 51.8679 26.0306 52.2623L56.3181 69.9268C55.2142 69.3032 53.9386 69.4333 52.4606 70.2344Z" fill="#FAFAFA"/>
<path id="Vector_60" d="M31.6855 78.4033L48.2214 68.7668L49.0902 68.2651L49.728 68.6367L48.8572 69.1385L32.3213 78.775L31.6855 78.4033Z" fill="#E0E0E0"/>
<path id="Vector_61" d="M30.1562 77.5128L46.6921 67.8763L47.5609 67.3745L48.1987 67.7441L47.3279 68.2479L30.792 77.8844L30.1562 77.5128Z" fill="#E0E0E0"/>
<path id="Vector_62" d="M28.6309 76.6227L45.1667 66.9862L46.0356 66.4824L46.6734 66.854L45.8025 67.3558L29.2666 76.9943L28.6309 76.6227Z" fill="#E0E0E0"/>
<path id="Vector_63" d="M27.1016 75.7332L43.6375 66.0967L44.5083 65.5929L45.1441 65.9646L44.2732 66.4663L27.7373 76.1049L27.1016 75.7332Z" fill="#E0E0E0"/>
<path id="Vector_64" d="M25.5742 74.8416L42.1101 65.2051L42.981 64.7034L43.6167 65.075L42.7459 65.5768L26.21 75.2133L25.5742 74.8416Z" fill="#E0E0E0"/>
<path id="Vector_65" d="M24.0508 73.9511L40.5867 64.3146L41.4575 63.8129L42.0933 64.1825L41.2224 64.6863L24.6865 74.3228L24.0508 73.9511Z" fill="#E0E0E0"/>
<path id="Vector_66" d="M22.5234 73.0621L39.0593 63.4256L39.9302 62.9218L40.5659 63.2934L39.6951 63.7952L23.1592 73.4337L22.5234 73.0621Z" fill="#E0E0E0"/>
<path id="Vector_67" d="M20.9941 72.1715L37.53 62.535L38.4009 62.0312L39.0366 62.4029L38.1658 62.9046L21.6319 72.5432L20.9941 72.1715Z" fill="#E0E0E0"/>
<path id="Vector_68" d="M19.4668 71.2794L36.0027 61.6429L36.8735 61.1412L37.5093 61.5128L36.6384 62.0146L20.1046 71.6511L19.4668 71.2794Z" fill="#E0E0E0"/>
<path id="Vector_69" d="M17.9395 70.3894L34.4753 60.7529L35.3462 60.2512L35.9819 60.6208L35.1111 61.1246L18.5773 70.7611L17.9395 70.3894Z" fill="#E0E0E0"/>
<path id="Vector_70" d="M16.4121 69.4999L32.948 59.8634L33.8188 59.3596L34.4546 59.7312L33.5838 60.235L17.0499 69.8715L16.4121 69.4999Z" fill="#E0E0E0"/>
<path id="Vector_71" d="M14.8848 68.6098L31.4207 58.9712L32.2915 58.4695L32.9273 58.8412L32.0564 59.3429L15.5226 68.9815L14.8848 68.6098Z" fill="#E0E0E0"/>
<path id="Vector_72" d="M13.3594 67.7177L29.8953 58.0812L30.7661 57.5795L31.4019 57.9511L30.531 58.4529L13.9972 68.0894L13.3594 67.7177Z" fill="#E0E0E0"/>
<path id="Vector_73" d="M11.834 66.8277L28.3699 57.1912L29.2407 56.6895L29.8765 57.0591L29.0077 57.5629L12.4718 67.1994L11.834 66.8277Z" fill="#E0E0E0"/>
<path id="Vector_74" d="M10.3086 65.9376L26.8424 56.3011L27.7133 55.7973L28.349 56.169L27.4802 56.6707L10.9444 66.3093L10.3086 65.9376Z" fill="#E0E0E0"/>
<path id="Vector_75" d="M8.7793 65.0476L25.3131 55.409L26.184 54.9073L26.8197 55.279L25.9509 55.7807L9.41506 65.4193L8.7793 65.0476Z" fill="#E0E0E0"/>
<path id="Vector_76" d="M7.25195 64.1566L23.7858 54.5201L24.6566 54.0183L25.2924 54.39L24.4236 54.8917L7.88771 64.5282L7.25195 64.1566Z" fill="#E0E0E0"/>
<path id="Vector_77" opacity="0.1" d="M52.6466 69.1773C52.2868 69.2124 51.5264 69.4602 51.1073 69.5551C49.3431 69.9557 46.2277 71.3928 43.2451 72.9022C39.2589 74.9175 35.5056 77.069 35.5056 77.069L8.16797 61.1493L22.5819 52.8095C23.1333 52.4702 23.7332 52.2188 24.3604 52.0641C24.7976 52.1353 25.2195 52.282 25.6074 52.4977L25.8118 52.1591C25.886 52.1907 25.9584 52.2266 26.0285 52.2664L56.3181 69.9309C54.607 68.9336 53.8159 69.0658 52.6466 69.1773Z" fill="black"/>
<path id="Vector_78" d="M32.7865 82.4502L35.9878 80.8334L32.6924 82.8115L30.084 80.9222L32.7865 82.4502Z" fill="#E6E6E6"/>
<path id="Vector_79" d="M32.2187 84.6304L37.7178 81.4237L32.2842 84.3785L26.1719 81.0294L32.2187 84.6304Z" fill="#E6E6E6"/>
<path id="Vector_80" d="M2.25569 67.5318L2.17188 67.858L8.91175 71.6408L2.25569 67.5318Z" fill="#E6E6E6"/>
<path id="Vector_81" d="M2.52539 66.4992L6.69156 68.6486L2.61125 66.1626L2.52539 66.4992Z" fill="#E6E6E6"/>
<path id="Vector_82" d="M52.5256 68.3102C52.1339 68.358 51.7449 68.427 51.3604 68.5167C49.5942 68.9173 46.4808 70.3544 43.4983 71.8638C39.512 73.879 35.7588 76.0306 35.7588 76.0306L5.85352 58.6118C5.85352 58.6118 17.2277 52.0044 21.6903 51.1247C23.7856 50.7118 25.0694 51.0009 25.8524 51.451L55.5327 68.7583C54.8724 68.3618 53.8932 68.1512 52.5256 68.3102Z" fill="#F5F5F5"/>
<path id="Vector_83" d="M52.7312 67.1132C52.0627 66.7601 51.1183 66.5784 49.812 66.7291C49.42 66.7755 49.031 66.8444 48.6468 66.9356C47.4714 67.204 45.6969 67.9288 43.7651 68.829C42.7941 69.2812 41.7822 69.7768 40.7826 70.2744C40.2777 70.5304 39.7748 70.7885 39.2842 71.0446L38.6055 70.6481C39.0961 70.3921 39.599 70.134 40.1039 69.878C41.1015 69.3741 42.1134 68.8786 43.0865 68.4326C45.0183 67.5323 46.7927 66.8076 47.9661 66.5391C48.351 66.4482 48.7407 66.3792 49.1333 66.3327C50.505 66.1737 51.4781 66.3822 52.1506 66.7745L52.7312 67.1132Z" fill="#E0E0E0"/>
<path id="Vector_84" d="M50.6208 65.8819C49.9483 65.4896 48.9752 65.281 47.6035 65.44C47.2114 65.4855 46.8223 65.5544 46.4383 65.6465C45.2629 65.9129 43.4905 66.6397 41.5566 67.5399C40.5856 67.9921 39.5737 68.4877 38.5761 68.9853C36.1762 70.1994 33.8621 71.4631 32.3984 72.2746L33.0771 72.6689C34.5408 71.8575 36.8549 70.6041 39.2548 69.3818C40.2524 68.8779 41.2643 68.3824 42.2353 67.9364C44.1692 67.0361 45.9415 66.3114 47.117 66.043C47.5012 65.952 47.8903 65.883 48.2822 65.8365C49.6539 65.6775 50.629 65.886 51.2995 66.2783L50.6208 65.8819Z" fill="#E0E0E0"/>
<path id="Vector_85" d="M49.0915 64.9897C48.419 64.5974 47.4459 64.3889 46.0742 64.5479C45.6821 64.5933 45.293 64.6623 44.909 64.7544C43.7336 65.0207 41.9612 65.7475 40.0274 66.6457C39.0563 67.1 38.0444 67.5955 37.0448 68.0911C34.6469 69.3052 32.3328 70.5689 30.8691 71.3804L31.5478 71.7747C33.0115 70.9633 35.3256 69.7099 37.7255 68.4875C38.7231 67.9837 39.735 67.4861 40.706 67.0422C42.6399 66.1419 44.4123 65.4172 45.5877 65.1487C45.9719 65.0576 46.3609 64.9887 46.7529 64.9423C48.1246 64.7833 49.0977 64.9918 49.7702 65.3841L49.0915 64.9897Z" fill="#E0E0E0"/>
<path id="Vector_86" d="M48.1412 64.4361C47.4748 64.083 46.5283 63.9013 45.2221 64.052C44.8301 64.0984 44.441 64.1674 44.0568 64.2585C42.8814 64.5269 41.109 65.2517 39.1752 66.1519C38.3309 66.5443 37.456 66.9779 36.5851 67.4094L35.9023 67.0068C36.7732 66.5711 37.6481 66.1437 38.4924 65.7493C40.4263 64.8511 42.1986 64.1243 43.3741 63.8559C43.7583 63.7647 44.1473 63.6958 44.5393 63.6494C45.911 63.4904 46.884 63.6989 47.5566 64.0912L48.1412 64.4361Z" fill="#E0E0E0"/>
<path id="Vector_87" d="M46.0309 63.2139C45.3604 62.8216 44.3955 62.6131 43.0136 62.7721C42.6215 62.8177 42.2324 62.8866 41.8484 62.9785C40.6729 63.2449 38.9006 63.9717 36.9688 64.872C35.9957 65.3242 34.9838 65.8197 33.9862 66.3173C31.5863 67.5315 29.2722 68.7951 27.8105 69.6066L28.4892 70.001C29.9529 69.1895 32.265 67.9362 34.6649 66.7138C35.6625 66.21 36.6744 65.7144 37.6474 65.2684C39.5793 64.3682 41.3516 63.6434 42.5271 63.375C42.9113 63.284 43.3003 63.2151 43.6923 63.1685C45.066 63.0095 46.0391 63.2181 46.7116 63.6104L46.0309 63.2139Z" fill="#E0E0E0"/>
<path id="Vector_88" d="M45.083 62.6525C44.4145 62.2995 43.4701 62.1178 42.1618 62.2685C41.7698 62.3152 41.3808 62.3842 40.9965 62.475C39.8211 62.7434 38.0487 63.4681 36.1169 64.3684C35.1439 64.8206 34.132 65.3182 33.1344 65.8138C32.8496 65.9514 32.5681 66.0953 32.2901 66.2453L31.6094 65.8509L32.4557 65.4194C33.4533 64.9156 34.4652 64.42 35.4382 63.974C37.3701 63.0758 39.1424 62.349 40.3179 62.0806C40.7021 61.9896 41.0911 61.9207 41.4831 61.8741C42.8568 61.7151 43.8299 61.9237 44.5004 62.316L45.083 62.6525Z" fill="#E0E0E0"/>
<path id="Vector_89" d="M42.9743 61.4217C42.3018 61.0294 41.3389 60.8208 39.957 60.9798C39.5649 61.0253 39.1758 61.0942 38.7918 61.1863C37.6164 61.4527 35.844 62.1795 33.9102 63.0777C32.9391 63.5319 31.9272 64.0275 30.9276 64.523C28.5297 65.7372 26.2156 67.0008 24.752 67.8123L25.4306 68.2067C26.8943 67.3952 29.2084 66.1419 31.6083 64.9195C32.6059 64.4157 33.6178 63.9201 34.5889 63.4741C36.5227 62.5739 38.2951 61.8491 39.4705 61.5807C39.8547 61.4895 40.2437 61.4206 40.6357 61.3742C42.0074 61.2152 42.9805 61.4238 43.653 61.814L42.9743 61.4217Z" fill="#E0E0E0"/>
<path id="Vector_90" d="M42.0235 60.8687C41.355 60.5156 40.4106 60.3339 39.1043 60.4847C38.7123 60.5311 38.3233 60.6 37.9391 60.6911C36.7637 60.9596 34.9913 61.6843 33.0574 62.5846C32.0864 63.0368 31.0745 63.5323 30.0769 64.03C29.2858 64.4305 28.5029 64.8352 27.7588 65.2296L27.0801 64.8332C27.8242 64.4388 28.6071 64.0341 29.3982 63.6335C30.3958 63.1297 31.4077 62.6341 32.3788 62.1881C34.3126 61.2879 36.085 60.5631 37.2604 60.2947C37.6446 60.2036 38.0337 60.1346 38.4256 60.0882C39.7973 59.9292 40.7704 60.1378 41.4429 60.5301L42.0235 60.8687Z" fill="#E0E0E0"/>
<path id="Vector_91" d="M37.5751 59.5926C37.1832 59.6393 36.7941 59.7083 36.4099 59.7991C34.6436 60.2017 31.5303 61.6368 28.5477 63.1461C26.1478 64.3602 23.8459 65.6239 22.372 66.4333L21.6934 66.0389C23.155 65.2254 25.4691 63.9741 27.869 62.7497C30.8516 61.2403 33.965 59.8053 35.7312 59.4047C36.1152 59.3128 36.5043 59.2438 36.8964 59.1982C38.2701 59.0392 39.2432 59.2478 39.9137 59.6401L40.5924 60.0365C39.9219 59.6421 38.9488 59.4336 37.5751 59.5926Z" fill="#E0E0E0"/>
<path id="Vector_92" d="M38.9688 59.085C38.3003 58.7319 37.3559 58.5502 36.0476 58.7009C35.6556 58.7477 35.2666 58.8166 34.8824 58.9074C33.2122 59.2873 30.34 60.5902 27.5108 62.0046L26.8301 61.6082C29.6593 60.1917 32.5335 58.8867 34.2037 58.5109C34.5879 58.42 34.9769 58.351 35.3689 58.3045C36.7426 58.1455 37.7157 58.354 38.3862 58.7463L38.9688 59.085Z" fill="#E0E0E0"/>
<path id="Vector_93" d="M34.5166 57.8085C34.1246 57.8549 33.7356 57.9239 33.3514 58.015C31.5851 58.4177 28.4697 59.8527 25.4892 61.3621C23.0893 62.5762 20.7752 63.8399 19.3115 64.6493L18.6328 64.2466C20.0965 63.4331 22.4106 62.1715 24.8085 60.9574C27.791 59.448 30.9065 58.013 32.6727 57.6103C33.0569 57.5192 33.4459 57.4502 33.8379 57.4038C35.2096 57.2448 36.1826 57.4534 36.8552 57.8457L37.54 58.2587C36.8613 57.8581 35.8883 57.6495 34.5166 57.8085Z" fill="#E0E0E0"/>
<path id="Vector_94" d="M36.0022 57.3559C35.3297 56.9656 34.3566 56.7571 32.9849 56.914C32.5931 56.9615 32.2041 57.0304 31.8197 57.1205C30.0535 57.5231 26.9401 58.9582 23.9575 60.4675L23.6632 60.6162L22.9824 60.2198L23.2768 60.0711C26.2593 58.5617 29.3748 57.1267 31.141 56.724C31.5252 56.6329 31.9142 56.5639 32.3062 56.5175C33.6779 56.3585 34.651 56.5671 35.3235 56.9594L36.0022 57.3559Z" fill="#E0E0E0"/>
<path id="Vector_95" d="M31.4579 56.025C31.066 56.0716 30.6769 56.1405 30.2927 56.2315C28.5265 56.6445 25.4131 58.0692 22.4305 59.5786C20.0306 60.7927 17.7185 62.0563 16.2549 62.8658L15.5762 62.4714C17.0378 61.6578 19.3519 60.3962 21.7518 59.1821C24.7344 57.6727 27.8478 56.2377 29.614 55.8371C29.998 55.7452 30.3871 55.6763 30.7792 55.6306C32.1529 55.4716 33.126 55.6802 33.7965 56.0725L34.4772 56.469C33.8047 56.0746 32.8398 55.866 31.4579 56.025Z" fill="#E0E0E0"/>
<path id="Vector_96" d="M29.9248 55.1329C29.5328 55.1793 29.1438 55.2483 28.7596 55.3394C26.9933 55.742 23.88 57.1771 20.8974 58.6865C18.4975 59.9006 16.1834 61.1643 14.7217 61.9737L14.041 61.5793C15.5047 60.7657 17.8188 59.5041 20.2187 58.29C23.1992 56.7806 26.3147 55.3456 28.0809 54.945C28.4649 54.853 28.854 54.784 29.2461 54.7385C30.6178 54.5796 31.5908 54.7881 32.2634 55.1804L32.9421 55.5769C32.2716 55.1825 31.2965 54.9739 29.9248 55.1329Z" fill="#E0E0E0"/>
<path id="Vector_97" d="M31.317 54.6247C30.6505 54.2716 29.7061 54.0899 28.3978 54.2386C28.006 54.2862 27.617 54.3552 27.2326 54.4451C25.4663 54.8456 22.353 56.2827 19.3704 57.7921L18.3994 58.2877L17.7207 57.8912L18.6917 57.3957C21.6743 55.8863 24.7877 54.4512 26.5539 54.0486C26.9381 53.9575 27.3271 53.8885 27.7191 53.8421C29.0908 53.6831 30.0659 53.8917 30.7364 54.284L31.317 54.6247Z" fill="#E0E0E0"/>
<path id="Vector_98" d="M26.8701 53.3486C26.4775 53.3951 26.0878 53.4641 25.7028 53.555C23.9387 53.9577 20.8232 55.3927 17.8407 56.9021C15.4428 58.1162 13.1389 59.3799 11.665 60.1893L10.9863 59.7949C12.45 58.9814 14.762 57.7198 17.162 56.5057C20.1445 54.9963 23.2579 53.5612 25.0241 53.1586C25.4084 53.0678 25.7974 52.9989 26.1894 52.9521C27.5631 52.7931 28.5362 53.0017 29.2087 53.394L29.8874 53.7884C29.2148 53.3981 28.2418 53.1896 26.8701 53.3486Z" fill="#E0E0E0"/>
<path id="Vector_99" d="M37.799 71.073C36.2781 71.8721 34.9105 72.6216 33.9272 73.1667L34.6059 73.5631C35.5891 73.018 36.9567 72.2685 38.4777 71.4674L37.799 71.073ZM35.0842 67.4203C32.8356 68.5663 30.7136 69.7267 29.3378 70.4907L30.0165 70.8871C31.3923 70.1232 33.5204 68.9627 35.765 67.8168L35.0842 67.4203ZM30.7913 66.2723C29.0128 67.1973 27.3917 68.0852 26.2715 68.7067L26.9502 69.1031C28.0725 68.4837 29.6935 67.5938 31.47 66.6687L30.7913 66.2723ZM26.2694 65.2605C25.0776 65.8944 24.0208 66.4767 23.2031 66.9124L23.8818 67.3088C24.6872 66.8628 25.7482 66.2764 26.9481 65.6466L26.2694 65.2605ZM25.9955 62.0188C23.7162 63.1812 21.5493 64.3644 20.1531 65.1387L20.8317 65.5351C22.228 64.7608 24.3969 63.5777 26.6762 62.4152L25.9955 62.0188ZM22.1605 60.6353C20.1735 61.6677 18.3296 62.6692 17.0928 63.3547L17.7715 63.7511C19.0083 63.0656 20.8502 62.06 22.8392 61.0318L22.1605 60.6353ZM16.9007 58.3083C15.1733 59.2106 13.5992 60.0716 12.5035 60.6787L13.1842 61.0751C14.2779 60.4681 15.8418 59.607 17.5794 58.7047L16.9007 58.3083ZM15.5188 55.6591C13.1577 56.8567 10.8885 58.0956 9.44531 58.8947L10.1322 59.2911C11.5754 58.49 13.8445 57.2532 16.2077 56.0556L15.5188 55.6591Z" fill="#E0E0E0"/>
<g id="Group_2" opacity="0.25">
<path id="Vector_100" d="M37.8009 71.0735C36.28 71.8726 34.9124 72.6221 33.9291 73.1672L34.6078 73.5637C35.5911 73.0186 36.9587 72.2691 38.4796 71.4679L37.8009 71.0735ZM35.0862 67.4209C32.8375 68.5668 30.7156 69.7273 29.3398 70.4912L30.0185 70.8877C31.3943 70.1237 33.5223 68.9633 35.7669 67.8173L35.0862 67.4209ZM30.7933 66.2728C29.0148 67.1979 27.3937 68.0857 26.2734 68.7072L26.9521 69.1037C28.0744 68.4842 29.6955 67.5943 31.472 66.6693L30.7933 66.2728ZM26.2714 65.2611C25.0796 65.895 24.0227 66.4772 23.205 66.9129L23.8837 67.3094C24.6891 66.8634 25.7501 66.277 26.9501 65.6472L26.2714 65.2611ZM25.9975 62.0193C23.7181 63.1818 21.5512 64.3649 20.155 65.1392L20.8337 65.5357C22.2299 64.7614 24.3989 63.5782 26.6782 62.4157L25.9975 62.0193ZM22.1625 60.6359C20.1755 61.6683 18.3315 62.6697 17.0948 63.3552L17.7735 63.7517C19.0102 63.0662 20.8521 62.0606 22.8412 61.0323L22.1625 60.6359ZM16.9026 58.3088C15.1752 59.2111 13.6012 60.0722 12.5055 60.6792L13.1862 61.0757C14.2799 60.4686 15.8437 59.6076 17.5813 58.7053L16.9026 58.3088ZM15.5207 55.6597C13.1596 56.8573 10.8905 58.0961 9.44727 58.8952L10.1341 59.2917C11.5774 58.4905 13.8465 57.2537 16.2096 56.0561L15.5207 55.6597Z" fill="black"/>
</g>
<path id="Vector_101" d="M28.2591 52.841C27.5906 52.4879 26.6462 52.3062 25.3399 52.457C24.9473 52.5035 24.5576 52.5725 24.1727 52.6634C22.5516 53.033 19.7878 54.2761 17.0342 55.6492L16.3555 55.2527C19.1091 53.8796 21.8749 52.6366 23.494 52.267C23.8789 52.176 24.2686 52.1071 24.6612 52.0605C26.0329 51.9015 27.006 52.1101 27.6785 52.5024L28.2591 52.841Z" fill="#E0E0E0"/>
<path id="Vector_102" d="M75.7689 53.4208L60.4105 62.3573L59.7891 61.9939L75.1475 53.0594L75.7689 53.4208Z" fill="#E0E0E0"/>
<path id="Vector_103" d="M56.8304 62.6586C55.916 63.2169 55.0989 63.9236 54.4121 64.7503L53.7988 64.3869C54.4863 63.5614 55.3033 62.8554 56.2172 62.2973L73.6259 52.1673L74.2392 52.5307L56.8304 62.6586Z" fill="#E0E0E0"/>
<path id="Vector_104" d="M55.3031 61.7692C54.3892 62.3273 53.5722 63.0332 52.8848 63.8588L52.2715 63.4974C52.9579 62.6702 53.775 61.9635 54.6898 61.4058L72.0863 51.2778L72.6996 51.6392L55.3031 61.7692Z" fill="#E0E0E0"/>
<path id="Vector_105" d="M71.1841 50.7491L58.2972 58.2464L57.6758 57.8851L70.5627 50.3857L71.1841 50.7491Z" fill="#E0E0E0"/>
<path id="Vector_106" d="M52.2582 59.987C51.3443 60.5452 50.5273 61.2511 49.8398 62.0766L49.2266 61.7152C49.9134 60.8885 50.7305 60.1818 51.6449 59.6236L69.0537 49.4957L69.667 49.857L52.2582 59.987Z" fill="#E0E0E0"/>
<path id="Vector_107" d="M50.7191 59.0948C49.8039 59.652 48.9867 60.3588 48.3008 61.1865L47.6875 60.8231C48.3757 59.9975 49.1933 59.2916 50.1079 58.7335L67.5146 48.6035L68.1279 48.9669L50.7191 59.0948Z" fill="#E0E0E0"/>
<path id="Vector_108" d="M66.5989 48.0748L52.6019 56.2205L51.9805 55.8571L65.9774 47.7135L66.5989 48.0748Z" fill="#E0E0E0"/>
<path id="Vector_109" d="M47.6644 57.3132C46.75 57.8714 45.9329 58.5781 45.2461 59.4048L44.6328 59.0414C45.3203 58.2159 46.1372 57.51 47.0512 56.9518L64.4599 46.8218L65.0732 47.1852L47.6644 57.3132Z" fill="#E0E0E0"/>
<path id="Vector_110" d="M63.5436 46.2927L48.9027 54.8121L48.2812 54.4487L62.9221 45.9313L63.5436 46.2927Z" fill="#E0E0E0"/>
<path id="Vector_111" d="M44.6058 55.5311C43.6914 56.0894 42.8743 56.7961 42.1875 57.6228L41.5742 57.2594C42.2586 56.4316 43.0728 55.7229 43.9844 55.1615L61.3932 45.0439L62.0064 45.4074L44.6058 55.5311Z" fill="#E0E0E0"/>
<path id="Vector_112" d="M43.0804 54.641C42.1661 55.1986 41.3491 55.9046 40.6621 56.7306L40.0488 56.3692C40.7352 55.5421 41.5523 54.8353 42.4672 54.2776L59.8759 44.1497L60.4892 44.511L43.0804 54.641Z" fill="#E0E0E0"/>
<path id="Vector_113" d="M41.5511 53.7484C40.6367 54.3066 39.8197 55.0133 39.1328 55.84L38.5195 55.4766C39.207 54.6511 40.024 53.9452 40.9379 53.387L58.3467 43.257L58.9599 43.6204L41.5511 53.7484Z" fill="#E0E0E0"/>
<path id="Vector_114" d="M57.4321 42.7294L44.2426 50.4043L43.6191 50.043L56.8106 42.368L57.4321 42.7294Z" fill="#E0E0E0"/>
<path id="Vector_115" d="M38.4985 51.9672C37.583 52.5249 36.7652 53.2316 36.0781 54.0589L35.4648 53.6955C36.1526 52.8694 36.9703 52.1634 37.8852 51.6059L55.292 41.4759L55.9052 41.8393L38.4985 51.9672Z" fill="#E0E0E0"/>
<path id="Vector_116" d="M35.4418 50.1854C34.5274 50.7412 33.7103 51.4459 33.0234 52.2709L32.4102 51.9074C33.0971 51.0815 33.9142 50.3755 34.8285 49.8179L52.2373 39.6879L52.8505 40.0513L35.4418 50.1854Z" fill="#E0E0E0"/>
<path id="Vector_117" d="M59.0221 62.4419L57.7384 63.1873C56.8258 63.7464 56.0102 64.4531 55.3241 65.279L55.9374 65.6424C56.6248 64.8169 57.4418 64.1109 58.3557 63.5528L59.6395 62.8053L59.0221 62.4419ZM56.9104 58.3309L53.1552 60.5154C52.2413 61.0736 51.4243 61.7795 50.7368 62.605L51.3501 62.9664C52.0371 62.1404 52.8541 61.4344 53.7684 60.8768L57.5319 58.6922L56.9104 58.3309ZM51.2152 56.3032L48.5781 57.8456C47.6636 58.4037 46.8459 59.1096 46.1577 59.9352L46.771 60.2986C47.4584 59.4711 48.2761 58.7637 49.1914 58.2049L51.8489 56.6666L51.2152 56.3032ZM47.5192 54.895L45.5158 56.0596C44.6014 56.6178 43.7843 57.3245 43.0975 58.1512L43.7108 58.5126C44.3977 57.6866 45.2148 56.9806 46.1291 56.423L48.1325 55.2563L47.5192 54.895ZM42.9033 50.4598L39.4035 52.4957C38.4896 53.0538 37.6727 53.7598 36.9852 54.5853L37.5985 54.9487C38.2859 54.1232 39.1029 53.4172 40.0168 52.8591L43.5247 50.8252L42.9033 50.4598ZM38.2015 49.6339L36.3617 50.7076C35.4469 51.2653 34.6297 51.972 33.9434 52.7992L34.5566 53.1606C35.2436 52.3346 36.0607 51.6286 36.975 51.071L38.8148 49.9973L38.2015 49.6339Z" fill="#E0E0E0"/>
<g id="Group_3" opacity="0.25">
<path id="Vector_118" d="M59.0241 62.4425L57.7403 63.1878C56.8277 63.747 56.0121 64.4536 55.3261 65.2795L55.9393 65.6429C56.6268 64.8174 57.4438 64.1115 58.3577 63.5533L59.6415 62.8059L59.0241 62.4425ZM56.9124 58.3314L53.1571 60.516C52.2432 61.0741 51.4262 61.7801 50.7388 62.6056L51.352 62.9669C52.039 62.1409 52.8561 61.4349 53.7704 60.8773L57.5338 58.6927L56.9124 58.3314ZM51.2171 56.3038L48.5801 57.8462C47.6655 58.4043 46.8479 59.1102 46.1597 59.9358L46.7729 60.2992C47.4603 59.4716 48.2781 58.7642 49.1933 58.2054L51.8508 56.6672L51.2171 56.3038ZM47.5211 54.8955L45.5178 56.0601C44.6033 56.6184 43.7863 57.3251 43.0994 58.1518L43.7127 58.5131C44.3997 57.6871 45.2168 56.9811 46.131 56.4235L48.1344 55.2569L47.5211 54.8955ZM42.9052 50.4603L39.4055 52.4962C38.4916 53.0544 37.6746 53.7603 36.9871 54.5858L37.6004 54.9492C38.2879 54.1237 39.1049 53.4178 40.0188 52.8596L43.5267 50.8258L42.9052 50.4603ZM38.2035 49.6344L36.3637 50.7081C35.4488 51.2658 34.6317 51.9726 33.9453 52.7998L34.5586 53.1611C35.2456 52.3351 36.0626 51.6291 36.9769 51.0715L38.8167 49.9978L38.2035 49.6344Z" fill="black"/>
</g>
<path id="Vector_119" d="M54.377 40.9477L39.4868 49.6137L38.8633 49.2503L53.7556 40.5864L54.377 40.9477Z" fill="#E0E0E0"/>
<path id="Vector_120" d="M33.9105 49.2953C32.9966 49.8534 32.1796 50.5594 31.4922 51.3849L30.8789 51.0235C31.566 50.1963 32.3838 49.4895 33.2993 48.9319L50.706 38.8143L51.3193 39.1756L33.9105 49.2953Z" fill="#E0E0E0"/>
<path id="Vector_121" d="M80.9767 54.887L80.8868 54.6558L76.5039 57.3132L80.9767 54.887Z" fill="#E6E6E6"/>
<path id="Vector_122" d="M81.2894 55.7047L73.7891 60.1874L81.365 55.8987L81.2894 55.7047Z" fill="#E6E6E6"/>
<path id="Vector_123" opacity="0.02" d="M10.5215 56.0287C14.2011 54.0712 19.1073 51.6306 21.6974 51.1247C23.7927 50.7118 25.0765 51.0009 25.8594 51.451L55.5398 68.7583C54.8673 68.368 53.8942 68.1574 52.5205 68.3164C52.5205 68.3164 37.8305 59.2663 28.3432 56.1753C18.8559 53.0843 10.5215 56.0287 10.5215 56.0287Z" fill="black"/>
</g>
<path id="Vector_124" d="M56.8453 71.7791L54.0938 74.7855L58.1475 72.4151L56.8453 71.7791Z" fill="#37474F"/>
<path id="Vector_125" d="M67.5889 70.7117L66.3931 69.8466L65.1992 72.1055V65.8181L67.5889 64.4244V70.7117Z" fill="#407BFF"/>
<path id="Vector_126" opacity="0.25" d="M67.5889 70.7117L66.3931 69.8466L65.1992 72.1055V65.8181L67.5889 64.4244V70.7117Z" fill="black"/>
</g>
</g>
<g id="freepik--Meaning--inject-116">
<g id="freepik--meaning--inject-116">
<path id="Vector_127" d="M27.5312 25.3209L28.2263 23.7785L28.2917 23.8177L27.5967 25.3602L27.5312 25.3209Z" fill="#455A64"/>
<path id="Vector_128" d="M28.7031 24.5792V23.7181H28.8135V24.5792H28.7031Z" fill="#455A64"/>
<path id="Vector_129" d="M29.5453 25.1615C29.509 25.1597 29.4735 25.1506 29.4408 25.1346C29.4082 25.1187 29.379 25.0962 29.3551 25.0686C29.2709 24.962 29.2313 24.8264 29.2448 24.6907C29.2412 24.628 29.2504 24.5652 29.2719 24.5063C29.2933 24.4473 29.3265 24.3934 29.3695 24.348C29.3948 24.3183 29.4262 24.2945 29.4614 24.2781C29.4967 24.2618 29.5351 24.2533 29.5739 24.2533C29.6127 24.2533 29.651 24.2618 29.6863 24.2781C29.7216 24.2945 29.753 24.3183 29.7783 24.348V23.8648H29.9112V25.1553H29.7783V25.0232C29.7527 25.0629 29.7184 25.0961 29.6779 25.1201C29.6375 25.1441 29.5921 25.1583 29.5453 25.1615ZM29.4737 24.4264C29.4097 24.5042 29.3788 24.6045 29.3879 24.7052C29.3765 24.8078 29.4019 24.911 29.4594 24.9963C29.4751 25.0116 29.4937 25.0235 29.5141 25.0313C29.5345 25.0391 29.5562 25.0427 29.578 25.0418C29.6238 25.0384 29.6664 25.0169 29.6965 24.9819C29.76 24.8991 29.79 24.795 29.7804 24.6907C29.7848 24.6423 29.7797 24.5934 29.7653 24.547C29.7509 24.5006 29.7275 24.4575 29.6965 24.4202C29.682 24.405 29.6645 24.3929 29.6452 24.3847C29.6259 24.3766 29.6051 24.3725 29.5841 24.3728C29.5631 24.3738 29.5425 24.3791 29.5235 24.3883C29.5046 24.3975 29.4876 24.4105 29.4737 24.4264Z" fill="#455A64"/>
<path id="Vector_130" d="M30.5747 24.2556V24.3815H30.5032V25.0299H30.5747V25.1558H30.3008V25.0299H30.3723V24.3815H30.3008V24.2556H30.5747Z" fill="#455A64"/>
<path id="Vector_131" d="M31.2369 24.6779L31.0918 24.8431V25.1611H30.9609V23.8706H31.0918V24.6635L31.4209 24.2505H31.5844L31.3289 24.5664L31.6294 25.157H31.4781L31.2369 24.6779Z" fill="#455A64"/>
<path id="Vector_132" d="M32.1329 23.9368C32.1561 23.9136 32.184 23.8957 32.2147 23.8843C32.2454 23.8729 32.2781 23.8683 32.3107 23.8708C32.3375 23.8692 32.3643 23.8738 32.389 23.8841C32.4138 23.8945 32.436 23.9104 32.4538 23.9306C32.489 23.9787 32.5096 24.0361 32.5131 24.0958H32.3761C32.3729 24.0674 32.3638 24.04 32.3495 24.0153C32.3349 24.0024 32.3158 23.9958 32.2964 23.9967C32.2827 23.9959 32.269 23.9985 32.2565 24.0042C32.2441 24.01 32.2332 24.0187 32.2248 24.0297C32.2015 24.0697 32.1902 24.1156 32.1921 24.1619L32.1594 25.0683C32.1639 25.1526 32.1409 25.236 32.094 25.3058C32.0739 25.3322 32.0478 25.3533 32.0179 25.3674C31.988 25.3814 31.9552 25.3879 31.9223 25.3863C31.8956 25.3887 31.8686 25.3857 31.843 25.3776C31.8174 25.3694 31.7936 25.3563 31.7731 25.3388C31.7516 25.315 31.7352 25.2869 31.725 25.2563C31.7148 25.2258 31.711 25.1934 31.7138 25.1613H31.8446C31.8438 25.1745 31.8457 25.1878 31.8503 25.2002C31.8549 25.2127 31.862 25.224 31.8712 25.2335C31.8765 25.2404 31.8833 25.2459 31.8912 25.2495C31.899 25.2531 31.9076 25.2547 31.9162 25.2542C31.9297 25.2537 31.9429 25.2506 31.9552 25.2449C31.9675 25.2392 31.9785 25.2311 31.9877 25.2211C32.0196 25.1745 32.0361 25.1188 32.0347 25.0622L32.0552 24.1743C32.0595 24.0895 32.0863 24.0075 32.1329 23.9368Z" fill="#455A64"/>
<path id="Vector_133" d="M33.1357 24.706C33.1357 24.5594 33.1112 24.4665 33.058 24.4273C33.0404 24.4112 33.0197 24.3988 32.9972 24.391C32.9747 24.3832 32.9509 24.3801 32.9272 24.3819C32.9054 24.3808 32.8837 24.3843 32.8633 24.3921C32.8429 24.4 32.8243 24.4119 32.8086 24.4273C32.7775 24.4663 32.7615 24.5155 32.7637 24.5656H32.6124C32.619 24.4816 32.6536 24.4022 32.7105 24.3406C32.7392 24.3125 32.7732 24.2906 32.8104 24.2761C32.8476 24.2615 32.8873 24.2547 32.9272 24.2559C32.969 24.2539 33.0108 24.2604 33.0501 24.2749C33.0894 24.2895 33.1255 24.3118 33.1562 24.3406C33.2002 24.3899 33.234 24.4476 33.2554 24.5104C33.2768 24.5732 33.2855 24.6398 33.2809 24.706C33.2865 24.7701 33.2795 24.8347 33.2602 24.896C33.2409 24.9574 33.2097 25.0142 33.1684 25.0632C33.1381 25.0952 33.1016 25.1205 33.0611 25.1375C33.0207 25.1546 32.9772 25.163 32.9333 25.1624C32.8576 25.1623 32.7847 25.1336 32.7289 25.0818C32.6837 25.0316 32.6501 24.9718 32.6306 24.9068C32.6112 24.8418 32.6064 24.7732 32.6165 24.706H33.1357ZM32.7698 24.8113C32.7643 24.8458 32.7667 24.8811 32.777 24.9144C32.7873 24.9477 32.8051 24.9782 32.8291 25.0034C32.8441 25.019 32.8623 25.0311 32.8824 25.039C32.9025 25.0468 32.9241 25.0502 32.9456 25.0488C32.9936 25.0424 33.0378 25.019 33.0703 24.9827C33.1105 24.9346 33.1336 24.8743 33.1357 24.8113H32.7698Z" fill="#455A64"/>
<path id="Vector_134" d="M33.9429 24.415C33.9289 24.4012 33.9123 24.3904 33.894 24.3833C33.8757 24.3761 33.8562 24.3729 33.8366 24.3737C33.809 24.3757 33.7821 24.3833 33.7575 24.3961C33.7329 24.4089 33.7112 24.4266 33.6935 24.4481C33.6629 24.4792 33.6389 24.5163 33.6231 24.5572C33.6073 24.598 33.5999 24.6417 33.6015 24.6855V25.1625H33.4707V24.2561H33.6015V24.4274C33.625 24.3945 33.651 24.3634 33.6792 24.3345C33.7058 24.3075 33.7378 24.2866 33.7731 24.2731C33.8083 24.2595 33.846 24.2537 33.8836 24.2561C33.9149 24.2547 33.9461 24.2598 33.9753 24.2712C34.0045 24.2825 34.0311 24.2999 34.0533 24.3221C34.0755 24.3457 34.0927 24.3736 34.104 24.4042C34.1152 24.4347 34.1202 24.4672 34.1187 24.4997V25.1625H33.9879V24.5142C33.9876 24.4954 33.9834 24.4769 33.9757 24.4599C33.9679 24.4428 33.9568 24.4275 33.9429 24.415Z" fill="#455A64"/>
<path id="Vector_135" d="M34.925 25.3272C34.8206 25.2305 34.7373 25.113 34.6802 24.982C34.6232 24.851 34.5938 24.7095 34.5938 24.5664C34.5938 24.4233 34.6232 24.2817 34.6802 24.1508C34.7373 24.0198 34.8206 23.9022 34.925 23.8055L34.9966 23.8778C34.9019 23.9652 34.8264 24.0716 34.7747 24.1901C34.723 24.3087 34.6963 24.4368 34.6963 24.5664C34.6963 24.6959 34.723 24.824 34.7747 24.9426C34.8264 25.0612 34.9019 25.1675 34.9966 25.255L34.925 25.3272Z" fill="#455A64"/>
<path id="Vector_136" d="M35.6503 24.706C35.6503 24.5594 35.6237 24.4665 35.5726 24.4273C35.5546 24.4111 35.5335 24.3987 35.5107 24.3909C35.4879 24.3831 35.4638 24.38 35.4397 24.3818C35.4183 24.381 35.3968 24.3846 35.3768 24.3924C35.3568 24.4002 35.3385 24.4121 35.3232 24.4273C35.2913 24.466 35.2746 24.5152 35.2762 24.5656H35.127C35.1336 24.4815 35.1682 24.4022 35.2251 24.3405C35.2534 24.3126 35.287 24.2907 35.3239 24.2761C35.3607 24.2616 35.4001 24.2547 35.4397 24.2559C35.4818 24.254 35.5239 24.2605 35.5636 24.275C35.6032 24.2895 35.6396 24.3118 35.6707 24.3405C35.7143 24.3902 35.7478 24.448 35.7692 24.5107C35.7906 24.5734 35.7995 24.6398 35.7954 24.706C35.8059 24.8354 35.7655 24.9637 35.683 25.0632C35.6526 25.0952 35.6161 25.1205 35.5757 25.1375C35.5352 25.1546 35.4917 25.163 35.4479 25.1623C35.3722 25.1623 35.2992 25.1335 35.2435 25.0818C35.1991 25.0311 35.1662 24.9712 35.1471 24.9062C35.1281 24.8413 35.1233 24.773 35.1331 24.706H35.6503ZM35.2884 24.8092C35.2826 24.8435 35.2848 24.8787 35.2947 24.9121C35.3047 24.9454 35.3221 24.9759 35.3457 25.0013C35.3612 25.0168 35.3797 25.0289 35.4002 25.0368C35.4206 25.0446 35.4424 25.048 35.4643 25.0467C35.5123 25.0403 35.5564 25.0169 35.589 24.9806C35.6292 24.9325 35.6522 24.8722 35.6544 24.8092H35.2884Z" fill="#455A64"/>
<path id="Vector_137" d="M36.0051 25.3272L35.9336 25.255C36.0282 25.1675 36.1038 25.0612 36.1555 24.9426C36.2072 24.824 36.2339 24.6959 36.2339 24.5664C36.2339 24.4368 36.2072 24.3087 36.1555 24.1901C36.1038 24.0716 36.0282 23.9652 35.9336 23.8778L36.0051 23.8055C36.1096 23.9022 36.1929 24.0198 36.2499 24.1508C36.307 24.2817 36.3364 24.4233 36.3364 24.5664C36.3364 24.7095 36.307 24.851 36.2499 24.982C36.1929 25.113 36.1096 25.2305 36.0051 25.3272Z" fill="#455A64"/>
<path id="Vector_138" d="M37.3868 24.2548V24.4138C37.2253 24.3828 37.1088 24.4675 37.0332 24.6719V25.1613H36.9023V24.2548H37.0332V24.4468C37.0647 24.3814 37.1159 24.3276 37.1793 24.2932C37.2428 24.2587 37.3154 24.2453 37.3868 24.2548Z" fill="#455A64"/>
<path id="Vector_139" d="M38.0429 23.8706V24.042H37.9121V23.8706H38.0429ZM38.0429 25.1611H37.9121V24.2547H38.0429V25.1611Z" fill="#455A64"/>
<path id="Vector_140" d="M38.4355 25.3209L39.1306 23.7785L39.196 23.8177L38.501 25.3602L38.4355 25.3209Z" fill="#455A64"/>
<path id="Vector_141" d="M23.1438 22.1589L23.1131 21.9112C23.0499 21.9935 22.9687 22.0599 22.8757 22.1051C22.7827 22.1503 22.6806 22.1729 22.5775 22.1713C22.1257 22.1713 21.8027 21.8038 21.8027 21.2071C21.8027 20.6103 22.183 20.2097 22.6347 20.2097C22.7279 20.2076 22.8201 20.2279 22.904 20.2688C22.9879 20.3097 23.0609 20.3702 23.1172 20.4451V19.6461L22.8208 19.6048V19.454L23.5219 19.2806L23.5792 19.3157L23.5628 19.8608V21.9256L23.8122 21.969V22.1238L23.1438 22.1589ZM22.7615 21.8967C22.8256 21.8958 22.8889 21.8811 22.947 21.8537C23.0052 21.8263 23.0569 21.7868 23.0988 21.7377V20.6268C23.0109 20.536 22.8913 20.4834 22.7656 20.4802C22.508 20.4802 22.2934 20.7032 22.2934 21.1988C22.2934 21.6944 22.4896 21.8967 22.7615 21.8967Z" fill="#407BFF"/>
<path id="Vector_142" d="M24.9521 22.1245H24.0036V21.9676L24.2489 21.918C24.2489 21.7281 24.2489 21.4803 24.2489 21.3151V21.1334C24.2489 20.9269 24.2489 20.8009 24.2387 20.6461L23.9668 20.611V20.4644L24.6557 20.2207L24.717 20.2579L24.7048 20.8051V21.2986C24.7048 21.4638 24.7048 21.7115 24.7048 21.9056L24.9378 21.9531L24.9521 22.1245ZM24.1937 19.5827C24.1936 19.5447 24.2013 19.507 24.2162 19.4721C24.231 19.4371 24.2528 19.4056 24.2802 19.3795C24.3076 19.3534 24.34 19.3332 24.3754 19.3202C24.4108 19.3072 24.4484 19.3017 24.486 19.304C24.5587 19.304 24.6284 19.3331 24.6797 19.385C24.7311 19.4369 24.76 19.5073 24.76 19.5806C24.76 19.654 24.7311 19.7244 24.6797 19.7763C24.6284 19.8282 24.5587 19.8573 24.486 19.8573C24.4481 19.8596 24.4101 19.8539 24.3744 19.8407C24.3388 19.8275 24.3062 19.8069 24.2787 19.7804C24.2513 19.7538 24.2296 19.7218 24.2149 19.6864C24.2003 19.6509 24.1931 19.6128 24.1937 19.5744V19.5827Z" fill="#407BFF"/>
<path id="Vector_143" d="M25.6829 21.1415C25.6829 21.6102 25.9159 21.8662 26.2573 21.8662C26.3528 21.8666 26.4468 21.843 26.531 21.7976C26.6152 21.7522 26.6869 21.6864 26.7398 21.606L26.8542 21.6907C26.7975 21.8412 26.6943 21.9693 26.56 22.0559C26.4256 22.1426 26.2671 22.1832 26.1081 22.1718C25.5827 22.1718 25.2004 21.8187 25.2004 21.1951C25.1939 21.0656 25.214 20.9361 25.2595 20.8149C25.305 20.6936 25.3749 20.5832 25.4648 20.4906C25.5547 20.3981 25.6627 20.3254 25.7819 20.2771C25.901 20.2288 26.0288 20.2061 26.1571 20.2102C26.3177 20.1979 26.4771 20.2453 26.6055 20.3434C26.7338 20.4415 26.8223 20.5836 26.8542 20.7429C26.8457 20.794 26.8185 20.84 26.778 20.8717C26.7374 20.9035 26.6866 20.9187 26.6355 20.9143C26.4985 20.9143 26.4106 20.8276 26.3881 20.6418L26.337 20.4105C26.2923 20.3989 26.2462 20.3934 26.2001 20.394C25.918 20.394 25.6829 20.6314 25.6829 21.1415Z" fill="#407BFF"/>
<path id="Vector_144" d="M27.9468 21.9185C28.0331 21.9134 28.1151 21.8792 28.1799 21.8215L28.2719 21.9185C28.2182 22.003 28.143 22.0714 28.0542 22.1165C27.9653 22.1615 27.8661 22.1816 27.767 22.1746C27.7009 22.184 27.6335 22.1779 27.5702 22.1568C27.5068 22.1356 27.4491 22.1 27.4017 22.0526C27.3542 22.0053 27.3182 21.9475 27.2964 21.8837C27.2747 21.82 27.2678 21.7521 27.2763 21.6852C27.2763 21.5696 27.2763 21.4787 27.2763 21.3259V20.5H26.9922V20.2935L27.3172 20.2667L27.4624 19.736H27.7731L27.7465 20.2667H28.2065V20.5021H27.7424V21.6439C27.7424 21.8318 27.8242 21.9185 27.9468 21.9185Z" fill="#407BFF"/>
<path id="Vector_145" d="M29.3348 22.1245H28.3842V21.9675L28.6377 21.9159C28.6377 21.7259 28.6377 21.4782 28.6377 21.313V21.1313C28.6377 20.9248 28.6377 20.7988 28.6254 20.644L28.3535 20.6089V20.4623L29.0424 20.2186L29.1038 20.2558L29.0935 20.803V21.2985C29.0935 21.4637 29.0935 21.7115 29.0935 21.9056L29.3266 21.9531L29.3348 22.1245ZM28.5763 19.5827C28.5727 19.524 28.5865 19.4656 28.6161 19.415C28.6456 19.3644 28.6896 19.324 28.7422 19.2989C28.7948 19.2738 28.8537 19.2653 28.9111 19.2744C28.9686 19.2836 29.022 19.3099 29.0645 19.3501C29.1069 19.3902 29.1365 19.4424 29.1492 19.4997C29.162 19.557 29.1574 19.6169 29.1361 19.6716C29.1148 19.7262 29.0777 19.7732 29.0296 19.8063C28.9816 19.8394 28.9248 19.8572 28.8666 19.8573C28.8288 19.8596 28.7909 19.8539 28.7553 19.8407C28.7197 19.8274 28.6873 19.8068 28.66 19.7802C28.6327 19.7536 28.6112 19.7216 28.5968 19.6862C28.5824 19.6507 28.5754 19.6127 28.5763 19.5744V19.5827Z" fill="#407BFF"/>
<path id="Vector_146" d="M29.5804 21.1908C29.5653 21.0598 29.5779 20.927 29.6173 20.8012C29.6567 20.6755 29.722 20.5595 29.8089 20.4611C29.8957 20.3626 30.0022 20.2838 30.1214 20.2298C30.2406 20.1758 30.3697 20.1479 30.5003 20.1479C30.6308 20.1479 30.76 20.1758 30.8791 20.2298C30.9983 20.2838 31.1048 20.3626 31.1917 20.4611C31.2785 20.5595 31.3438 20.6755 31.3832 20.8012C31.4226 20.927 31.4352 21.0598 31.4202 21.1908C31.4352 21.3218 31.4226 21.4546 31.3832 21.5803C31.3438 21.7061 31.2785 21.822 31.1917 21.9205C31.1048 22.019 30.9983 22.0978 30.8791 22.1517C30.76 22.2057 30.6308 22.2336 30.5003 22.2336C30.3697 22.2336 30.2406 22.2057 30.1214 22.1517C30.0022 22.0978 29.8957 22.019 29.8089 21.9205C29.722 21.822 29.6567 21.7061 29.6173 21.5803C29.5779 21.4546 29.5653 21.3218 29.5804 21.1908ZM30.9275 21.1908C30.9275 20.6581 30.7783 20.3938 30.5023 20.3938C30.2263 20.3938 30.0812 20.6581 30.0812 21.1908C30.0812 21.7235 30.2284 21.9775 30.5023 21.9775C30.7762 21.9775 30.9275 21.7297 30.9275 21.1949V21.1908Z" fill="#407BFF"/>
<path id="Vector_147" d="M33.5756 20.9014V21.2979C33.5756 21.4713 33.5756 21.7108 33.5756 21.9049L33.8087 21.9524V22.1238H32.8622V21.9669L33.1075 21.9152C33.1075 21.7253 33.1075 21.4858 33.1075 21.3123V20.9448C33.1075 20.6433 33.0318 20.5421 32.8397 20.5421C32.678 20.5522 32.5255 20.6211 32.4104 20.7362V21.2979C32.4104 21.4672 32.4104 21.7108 32.4104 21.9049L32.6373 21.9524V22.1238H31.6908V21.9669L31.9402 21.9152C31.9402 21.7253 31.9402 21.4775 31.9402 21.3123V21.1058C31.9402 20.8993 31.9402 20.7961 31.928 20.6412L31.6602 20.6061V20.4595L32.3 20.2159L32.3613 20.2531L32.3879 20.5525C32.4658 20.4523 32.5642 20.3703 32.6764 20.3122C32.7886 20.2541 32.912 20.2212 33.038 20.2159C33.3875 20.2097 33.5756 20.4224 33.5756 20.9014Z" fill="#407BFF"/>
<path id="Vector_148" d="M35.1085 21.8728C35.0456 21.9633 34.9625 22.0376 34.8659 22.0896C34.7693 22.1416 34.6619 22.1699 34.5524 22.1722C34.4861 22.1785 34.4193 22.1703 34.3564 22.1483C34.2935 22.1262 34.2359 22.0908 34.1877 22.0445C34.1395 21.9981 34.1016 21.9418 34.0768 21.8794C34.0519 21.8171 34.0405 21.75 34.0434 21.6828C34.0434 21.4371 34.1763 21.2513 34.7282 21.0634C34.8284 21.0304 34.9613 20.9911 35.0962 20.956V20.8466C35.0962 20.4873 35.0083 20.3861 34.7589 20.3861C34.706 20.3861 34.6533 20.3916 34.6015 20.4026L34.5565 20.6091C34.534 20.795 34.442 20.8796 34.3153 20.8796C34.2646 20.8828 34.2145 20.8668 34.1748 20.8348C34.1351 20.8027 34.1087 20.7569 34.1007 20.7062C34.1456 20.3965 34.442 20.1962 34.9081 20.1962C35.3742 20.1962 35.548 20.4026 35.548 20.8961V21.7386C35.548 21.8625 35.5909 21.9141 35.6584 21.9141C35.6864 21.9127 35.7135 21.904 35.7372 21.8888C35.7609 21.8736 35.7802 21.8524 35.7933 21.8274L35.8812 21.9058C35.8489 21.983 35.7935 22.048 35.7227 22.0918C35.6519 22.1355 35.5694 22.1557 35.4867 22.1495C35.4013 22.1563 35.3164 22.1322 35.2471 22.0815C35.1778 22.0308 35.1286 21.9568 35.1085 21.8728ZM34.763 21.8893C34.8672 21.8893 34.9327 21.8501 35.0962 21.7345V21.115C34.9899 21.1501 34.8918 21.1811 34.8243 21.2079C34.5688 21.3112 34.4911 21.4516 34.4911 21.5982C34.4858 21.6362 34.489 21.675 34.5005 21.7117C34.512 21.7483 34.5316 21.7819 34.5577 21.8098C34.5838 21.8378 34.6158 21.8595 34.6514 21.8732C34.6869 21.887 34.7251 21.8925 34.763 21.8893Z" fill="#407BFF"/>
<path id="Vector_149" d="M36.0133 21.9594L36.2586 21.9119C36.2586 21.7178 36.2586 21.47 36.2586 21.3049V21.0984C36.2586 20.8919 36.2586 20.7887 36.2463 20.6338L35.9785 20.5987V20.4521L36.6184 20.2084L36.6797 20.2456L36.7206 20.7185C36.833 20.386 37.0538 20.2084 37.2541 20.2084C37.3201 20.2042 37.3856 20.2221 37.4403 20.2595C37.4951 20.2969 37.536 20.3515 37.5567 20.4149C37.5567 20.607 37.4606 20.7164 37.3073 20.7164C37.2563 20.7145 37.2064 20.7008 37.1614 20.6765C37.1164 20.6522 37.0775 20.6178 37.0477 20.576L37.0129 20.5388C36.8696 20.6648 36.7676 20.8319 36.7206 21.0178V21.2987C36.7206 21.4618 36.7206 21.7013 36.7206 21.8913L37.0354 21.9532V22.1246H36.0133V21.9594Z" fill="#407BFF"/>
<path id="Vector_150" d="M37.6295 22.7872C37.6457 22.7243 37.6832 22.6692 37.7355 22.6314C37.7878 22.5937 37.8516 22.5757 37.9157 22.5807C37.9755 22.581 38.0343 22.5961 38.087 22.6245C38.1397 22.6529 38.1848 22.6939 38.2183 22.7438L38.2408 22.7748C38.3816 22.6334 38.4868 22.4599 38.5474 22.2689V22.2441L37.8197 20.454L37.6152 20.423V20.2661H38.619V20.4209L38.3164 20.4622L38.7457 21.6515L39.1545 20.4663L38.8643 20.4209V20.2661H39.6002V20.4209L39.3855 20.4622L38.7641 22.1863C38.5433 22.7789 38.3553 23.0577 38.0139 23.0577C37.8053 23.0577 37.6357 22.9503 37.6295 22.7872Z" fill="#407BFF"/>
<path id="Vector_151" d="M22.8321 24.0183V25.1746H22.6584L22.0267 24.3962V25.1787H21.8223V24.0224H21.9981L22.6154 24.8091V24.0266L22.8321 24.0183Z" fill="#E0E0E0"/>
<path id="Vector_152" d="M23.3596 25.1144C23.2688 25.0672 23.1925 24.9958 23.1388 24.908C23.085 24.8138 23.0566 24.707 23.0566 24.5982C23.0566 24.4895 23.085 24.3827 23.1388 24.2885C23.1925 24.2007 23.2688 24.1293 23.3596 24.082C23.4574 24.0318 23.5656 24.0056 23.6754 24.0056C23.7852 24.0056 23.8934 24.0318 23.9913 24.082C24.0821 24.1293 24.1584 24.2007 24.212 24.2885C24.2659 24.3827 24.2942 24.4895 24.2942 24.5982C24.2942 24.707 24.2659 24.8138 24.212 24.908C24.1584 24.9958 24.0821 25.0672 23.9913 25.1144C23.8934 25.1647 23.7852 25.1909 23.6754 25.1909C23.5656 25.1909 23.4574 25.1647 23.3596 25.1144ZM23.8809 24.9513C23.9416 24.9168 23.9918 24.8661 24.026 24.8047C24.0588 24.7409 24.0759 24.6701 24.0759 24.5982C24.0759 24.5264 24.0588 24.4555 24.026 24.3918C23.9918 24.3304 23.9416 24.2797 23.8809 24.2452C23.818 24.2111 23.7478 24.1933 23.6764 24.1935C23.6051 24.193 23.5347 24.2107 23.472 24.2452C23.4112 24.2797 23.361 24.3304 23.3269 24.3918C23.2941 24.4555 23.277 24.5264 23.277 24.5982C23.277 24.6701 23.2941 24.7409 23.3269 24.8047C23.361 24.8661 23.4112 24.9168 23.472 24.9513C23.5347 24.9857 23.6051 25.0035 23.6764 25.0029C23.7478 25.0032 23.818 24.9854 23.8809 24.9513Z" fill="#E0E0E0"/>
<path id="Vector_153" d="M24.638 25.0569C24.5912 25.0049 24.5553 24.9439 24.5325 24.8776C24.5096 24.8112 24.5003 24.7409 24.5051 24.6708V24.0183H24.7096V24.6625C24.7096 24.8897 24.8056 25.0032 24.9998 25.0032C25.194 25.0032 25.2901 24.8897 25.2901 24.6625V24.0183H25.4946V24.6708C25.4992 24.7407 25.49 24.8108 25.4675 24.8771C25.4451 24.9434 25.4098 25.0045 25.3637 25.0569C25.26 25.1437 25.1295 25.1912 24.9947 25.1912C24.86 25.1912 24.7295 25.1437 24.6258 25.0569H24.638Z" fill="#E0E0E0"/>
<path id="Vector_154" d="M26.8264 24.0183V25.1746H26.6506L26.0189 24.3962V25.1787H25.8145V24.0224H25.9903L26.6199 24.805V24.0224L26.8264 24.0183Z" fill="#E0E0E0"/>
<path id="Vector_155" d="M22.0011 26.2892V27.1316H21.8457V26.4213H21.6699V26.2892H22.0011Z" fill="#E0E0E0"/>
<path id="Vector_156" d="M22.1908 27.1113C22.1815 27.1023 22.1741 27.0913 22.1692 27.0793C22.1643 27.0672 22.1619 27.0542 22.1622 27.0411C22.1617 27.0277 22.1641 27.0144 22.169 27.002C22.1739 26.9895 22.1813 26.9783 22.1908 26.9689C22.1999 26.9597 22.2108 26.9524 22.2227 26.9474C22.2346 26.9425 22.2474 26.9399 22.2603 26.94C22.2732 26.9397 22.2861 26.9421 22.298 26.9471C22.31 26.9521 22.3208 26.9595 22.3298 26.9689C22.3392 26.9783 22.3467 26.9895 22.3516 27.002C22.3565 27.0144 22.3588 27.0277 22.3584 27.0411C22.3587 27.0542 22.3563 27.0672 22.3513 27.0793C22.3464 27.0913 22.3391 27.1023 22.3298 27.1113C22.3207 27.1205 22.3098 27.1278 22.2979 27.1328C22.286 27.1377 22.2732 27.1403 22.2603 27.1402C22.2343 27.1401 22.2094 27.1297 22.1908 27.1113Z" fill="#E0E0E0"/>
<path id="Vector_157" d="M46.3028 27.132H23.0925C23.056 27.132 23.0198 27.1248 22.9861 27.1106C22.9523 27.0965 22.9217 27.0759 22.8959 27.0498C22.8701 27.0237 22.8496 26.9927 22.8356 26.9587C22.8216 26.9246 22.8145 26.8881 22.8145 26.8512C22.8145 26.8144 22.8217 26.778 22.8357 26.7441C22.8497 26.7101 22.8702 26.6793 22.896 26.6534C22.9218 26.6275 22.9525 26.607 22.9862 26.5931C23.02 26.5792 23.0561 26.5722 23.0925 26.5725H46.3028C46.3391 26.5722 46.3751 26.5792 46.4087 26.5931C46.4424 26.607 46.4729 26.6275 46.4986 26.6535C46.5242 26.6794 46.5446 26.7103 46.5583 26.7442C46.5721 26.7782 46.5791 26.8145 46.5788 26.8512C46.5791 26.888 46.5721 26.9245 46.5584 26.9585C46.5446 26.9926 46.5243 27.0235 46.4987 27.0496C46.473 27.0758 46.4425 27.0965 46.4089 27.1106C46.3753 27.1247 46.3392 27.132 46.3028 27.132Z" fill="#E0E0E0"/>
<path id="Vector_158" d="M22.3164 32.3494V32.4815H21.7031V32.3783L22.0322 32.0603C22.0629 32.0335 22.0885 32.0014 22.1078 31.9653C22.1213 31.9407 22.1283 31.913 22.1283 31.8848C22.1295 31.8679 22.1266 31.851 22.1198 31.8355C22.1131 31.82 22.1026 31.8065 22.0894 31.796C22.055 31.7731 22.0141 31.7622 21.9729 31.765C21.9344 31.7612 21.8955 31.7671 21.8598 31.7823C21.8242 31.7974 21.7928 31.8213 21.7685 31.8518L21.6602 31.7671C21.6939 31.722 21.7391 31.6871 21.791 31.6659C21.8497 31.6404 21.9131 31.6277 21.977 31.6288C22.0543 31.6247 22.1308 31.6472 22.1937 31.6928C22.2198 31.714 22.2406 31.7412 22.2544 31.772C22.2683 31.8028 22.2748 31.8365 22.2734 31.8704C22.2744 31.9148 22.2646 31.9587 22.2448 31.9984C22.2173 32.0508 22.1806 32.0976 22.1365 32.1367L21.9136 32.3432L22.3164 32.3494Z" fill="#E0E0E0"/>
<path id="Vector_159" d="M22.4444 32.4632C22.4262 32.4436 22.416 32.4178 22.416 32.3909C22.416 32.364 22.4262 32.3382 22.4444 32.3186C22.4537 32.3097 22.4646 32.3028 22.4765 32.2982C22.4885 32.2935 22.5012 32.2914 22.5139 32.2918C22.5267 32.2911 22.5395 32.2932 22.5515 32.2978C22.5635 32.3024 22.5744 32.3095 22.5835 32.3186C22.6017 32.3382 22.6119 32.364 22.6119 32.3909C22.6119 32.4178 22.6017 32.4436 22.5835 32.4632C22.5743 32.4724 22.5635 32.4797 22.5515 32.4846C22.5396 32.4896 22.5268 32.4921 22.5139 32.4921C22.4879 32.4919 22.463 32.4816 22.4444 32.4632Z" fill="#E0E0E0"/>
<path id="Vector_160" d="M46.3028 32.4817H23.0925C23.0561 32.482 23.02 32.475 22.9862 32.4611C22.9525 32.4472 22.9218 32.4267 22.896 32.4008C22.8702 32.3749 22.8497 32.3441 22.8357 32.3101C22.8217 32.2762 22.8145 32.2398 22.8145 32.203C22.8145 32.1661 22.8216 32.1296 22.8356 32.0955C22.8496 32.0615 22.8701 32.0305 22.8959 32.0044C22.9217 31.9784 22.9523 31.9577 22.9861 31.9436C23.0198 31.9294 23.056 31.9222 23.0925 31.9222H46.3028C46.3392 31.9222 46.3753 31.9295 46.4089 31.9436C46.4425 31.9577 46.473 31.9785 46.4987 32.0046C46.5243 32.0307 46.5446 32.0616 46.5584 32.0957C46.5721 32.1297 46.5791 32.1662 46.5788 32.203C46.5791 32.2397 46.5721 32.276 46.5583 32.31C46.5446 32.3439 46.5242 32.3748 46.4986 32.4007C46.4729 32.4267 46.4424 32.4472 46.4087 32.4611C46.3751 32.475 46.3391 32.482 46.3028 32.4817Z" fill="#E0E0E0"/>
<path id="Vector_161" d="M46.3035 28.5123H21.9382C21.9017 28.5123 21.8655 28.505 21.8318 28.4909C21.7981 28.4768 21.7674 28.4561 21.7416 28.4301C21.7158 28.404 21.6953 28.373 21.6813 28.339C21.6673 28.3049 21.6602 28.2684 21.6602 28.2315C21.6602 28.1946 21.6673 28.1581 21.6813 28.124C21.6953 28.09 21.7158 28.059 21.7416 28.0329C21.7674 28.0069 21.7981 27.9862 21.8318 27.9721C21.8655 27.9579 21.9017 27.9507 21.9382 27.9507H46.3035C46.3399 27.9507 46.376 27.958 46.4096 27.9721C46.4432 27.9862 46.4737 28.007 46.4994 28.0331C46.525 28.0592 46.5453 28.0901 46.5591 28.1242C46.5728 28.1582 46.5798 28.1947 46.5795 28.2315C46.5798 28.2683 46.5728 28.3047 46.5591 28.3388C46.5453 28.3729 46.525 28.4038 46.4994 28.4299C46.4737 28.456 46.4432 28.4768 46.4096 28.4909C46.376 28.505 46.3399 28.5123 46.3035 28.5123Z" fill="#E0E0E0"/>
<path id="Vector_162" d="M46.3035 29.8916H21.9382C21.8648 29.8916 21.7944 29.8623 21.7423 29.8101C21.6902 29.7579 21.6607 29.687 21.6602 29.6128C21.6602 29.576 21.6673 29.5395 21.6813 29.5054C21.6953 29.4713 21.7158 29.4404 21.7416 29.4143C21.7674 29.3882 21.7981 29.3675 21.8318 29.3534C21.8655 29.3393 21.9017 29.332 21.9382 29.332H46.3035C46.3399 29.332 46.376 29.3393 46.4096 29.3534C46.4432 29.3676 46.4737 29.3883 46.4994 29.4144C46.525 29.4405 46.5453 29.4715 46.5591 29.5055C46.5728 29.5396 46.5798 29.5761 46.5795 29.6128C46.5795 29.6495 46.5723 29.6857 46.5585 29.7195C46.5446 29.7533 46.5243 29.7841 46.4987 29.81C46.473 29.8358 46.4426 29.8564 46.4091 29.8704C46.3756 29.8844 46.3398 29.8916 46.3035 29.8916Z" fill="#E0E0E0"/>
<path id="Vector_163" d="M46.3035 33.8636H21.9382C21.9017 33.8636 21.8655 33.8564 21.8318 33.8423C21.7981 33.8282 21.7674 33.8075 21.7416 33.7814C21.7158 33.7553 21.6953 33.7244 21.6813 33.6903C21.6673 33.6562 21.6602 33.6197 21.6602 33.5828C21.6607 33.5087 21.6902 33.4378 21.7423 33.3856C21.7944 33.3334 21.8648 33.3041 21.9382 33.3041H46.3035C46.3398 33.3041 46.3756 33.3113 46.4091 33.3253C46.4426 33.3393 46.473 33.3598 46.4987 33.3857C46.5243 33.4116 46.5446 33.4423 46.5585 33.4762C46.5723 33.51 46.5795 33.5462 46.5795 33.5828C46.5798 33.6196 46.5728 33.6561 46.5591 33.6901C46.5453 33.7242 46.525 33.7552 46.4994 33.7813C46.4737 33.8074 46.4432 33.8281 46.4096 33.8422C46.376 33.8564 46.3399 33.8636 46.3035 33.8636Z" fill="#E0E0E0"/>
<path id="Vector_164" d="M59.0918 43.1729C59.0914 43.3259 59.0461 43.4754 58.9616 43.6025C58.8771 43.7295 58.7572 43.8285 58.6171 43.8867C58.477 43.945 58.3229 43.9601 58.1744 43.93C58.0258 43.8999 57.8894 43.8259 57.7824 43.7176C57.6754 43.6092 57.6026 43.4712 57.5732 43.3211C57.5438 43.1709 57.5591 43.0154 57.6171 42.874C57.6752 42.7326 57.7735 42.6118 57.8995 42.5268C58.0255 42.4418 58.1737 42.3965 58.3252 42.3965C58.426 42.3965 58.5259 42.4166 58.619 42.4556C58.7122 42.4947 58.7968 42.5519 58.868 42.624C58.9392 42.6961 58.9956 42.7817 59.034 42.8759C59.0724 42.9701 59.092 43.071 59.0918 43.1729Z" fill="#407BFF"/>
<path id="Vector_165" d="M58.2746 43.2618L44.4616 35.2069H21.6602V35.0004H44.5168L44.5393 35.0149L58.3768 43.0821L58.2746 43.2618Z" fill="#407BFF"/>
</g>
</g>
<g id="freepik--Button--inject-116">
<g id="freepik--AZ--inject-116">
<path id="Vector_166" d="M54.4838 83.113L61.6182 87.2778C61.7619 87.3518 61.9209 87.3903 62.0822 87.3903C62.2435 87.3903 62.4025 87.3518 62.5462 87.2778L85.2639 74.0506C85.3988 73.9616 85.5109 73.8418 85.5912 73.7008C85.6715 73.5597 85.7177 73.4016 85.7259 73.2391V72.9025C85.7164 72.7399 85.6693 72.5818 85.5883 72.4409C85.5074 72.2999 85.3949 72.1801 85.2598 72.0911L78.105 67.9367C77.9615 67.863 77.8029 67.8246 77.642 67.8246C77.4811 67.8246 77.3224 67.863 77.1789 67.9367L54.4756 81.1515C54.3411 81.2406 54.2294 81.3606 54.1494 81.5016C54.0695 81.6426 54.0237 81.8007 54.0156 81.9629V82.2995C54.0251 82.4627 54.0724 82.6213 54.1537 82.7627C54.235 82.904 54.3481 83.024 54.4838 83.113Z" fill="#F0F0F0"/>
<path id="Vector_167" d="M77.2119 67.9202C77.5636 67.7137 77.9315 67.8335 78.2872 68.04L85.0823 71.99C85.4339 72.1965 85.4359 72.531 85.0823 72.7374L62.7183 85.7582C62.5238 85.8708 62.3036 85.9301 62.0794 85.9301C61.8553 85.9301 61.635 85.8708 61.4406 85.7582L54.6394 81.8102C54.5745 81.7724 54.5205 81.7179 54.483 81.6523C54.4455 81.5867 54.4258 81.5123 54.4258 81.4365C54.4258 81.3608 54.4455 81.2863 54.483 81.2207C54.5205 81.1551 54.5745 81.1007 54.6394 81.0628L77.2119 67.9202Z" fill="#FAFAFA"/>
<path id="Vector_168" d="M54.6359 81.5625C54.6194 81.5337 54.6087 81.502 54.6045 81.4691C54.6002 81.4362 54.6024 81.4028 54.6109 81.3707C54.6195 81.3387 54.6342 81.3087 54.6543 81.2824C54.6743 81.2561 54.6993 81.2341 54.7279 81.2176L77.2984 68.0771C77.5375 67.9367 77.8156 67.9739 78.1958 68.1969L84.9908 72.1448C85.0525 72.1783 85.1052 72.2265 85.1442 72.2852C85.2239 72.4256 85.0644 72.5392 84.9908 72.5805L62.6268 85.6012C62.4599 85.6986 62.2706 85.7498 62.0779 85.7498C61.8852 85.7498 61.6959 85.6986 61.5291 85.6012L54.7279 81.6533C54.6897 81.6319 54.6579 81.6005 54.6359 81.5625ZM54.4805 81.6533C54.519 81.7183 54.5731 81.7723 54.6379 81.8102L61.4391 85.7582C61.6335 85.8708 61.8538 85.9301 62.0779 85.9301C62.3021 85.9301 62.5223 85.8708 62.7168 85.7582L85.0808 72.7374C85.3322 72.5908 85.4038 72.3802 85.2995 72.1965C85.2459 72.1094 85.1704 72.0381 85.0808 71.99L78.2857 68.04C77.93 67.8335 77.5621 67.7137 77.2105 67.9202L54.6379 81.0628C54.5398 81.1202 54.4681 81.2146 54.4386 81.3252C54.4091 81.4359 54.4242 81.5538 54.4805 81.6533Z" fill="#E0E0E0"/>
<path id="Vector_169" d="M54.4799 81.1531L54.6373 81.0623C54.5723 81.1001 54.5184 81.1546 54.4809 81.2202C54.4434 81.2858 54.4236 81.3602 54.4236 81.436C54.4236 81.5117 54.4434 81.5862 54.4809 81.6518C54.5184 81.7174 54.5723 81.7718 54.6373 81.8097L61.4405 85.7576C61.6314 85.8704 61.849 85.9289 62.0701 85.927H62.0865V87.3868C61.9219 87.3914 61.7591 87.3523 61.6143 87.2732L54.4778 83.1105C54.3432 83.0214 54.2311 82.9019 54.1502 82.7614C54.0693 82.6209 54.0219 82.4633 54.0117 82.3011V81.9625C54.021 81.7999 54.0682 81.6417 54.1496 81.5011C54.231 81.3604 54.3441 81.2411 54.4799 81.1531Z" fill="#E6E6E6"/>
<path id="Vector_170" d="M70.4012 79.1134C70.3593 79.0942 70.3154 79.0796 70.2704 79.07L64.4525 77.4182C64.3699 77.3998 64.2856 77.3901 64.201 77.3893C64.1009 77.3882 64.0025 77.4154 63.9169 77.4677L62.8048 78.1161C62.7128 78.1698 62.6699 78.2235 62.6719 78.2813C62.6719 78.3346 62.6899 78.3863 62.7231 78.4279L65.5462 81.8307C65.5653 81.8617 65.5911 81.8878 65.6218 81.9071C65.6679 81.9332 65.7202 81.946 65.7731 81.9443C65.8259 81.9457 65.8781 81.9329 65.9243 81.9071L66.789 81.4033C66.879 81.3496 66.926 81.3 66.926 81.2546C66.927 81.2346 66.9236 81.2147 66.9162 81.1962C66.9088 81.1776 66.8975 81.1609 66.8831 81.1472L66.5069 80.7033L68.3325 79.6379L69.0929 79.8588C69.1532 79.8773 69.216 79.8856 69.2789 79.8836C69.369 79.88 69.4565 79.8522 69.5324 79.803L70.3971 79.2992C70.4144 79.2912 70.4293 79.2788 70.4404 79.2632C70.4515 79.2477 70.4584 79.2295 70.4605 79.2104C70.4607 79.1903 70.4552 79.1705 70.4447 79.1533C70.4342 79.1362 70.4191 79.1223 70.4012 79.1134ZM65.8037 79.8671L64.7121 78.5827L66.9158 79.2187L65.8037 79.8671ZM71.6911 76.5365L70.9982 76.1235C70.9417 76.0928 70.8782 76.0778 70.8142 76.0802C70.7495 76.0781 70.6854 76.0931 70.6281 76.1235L68.4674 77.3852C68.4462 77.3942 68.4279 77.4091 68.4145 77.428C68.4012 77.447 68.3933 77.4693 68.3917 77.4925C68.3932 77.516 68.401 77.5387 68.4143 77.558C68.4277 77.5773 68.446 77.5925 68.4674 77.602L69.1604 78.0046C69.2163 78.0368 69.28 78.0525 69.3444 78.05C69.4093 78.0524 69.4737 78.0367 69.5304 78.0046L71.6911 76.7451C71.7131 76.7368 71.7319 76.7221 71.7453 76.7027C71.7586 76.6833 71.7658 76.6603 71.7658 76.6367C71.7658 76.6131 71.7586 76.59 71.7453 76.5706C71.7319 76.5513 71.7131 76.5365 71.6911 76.5283V76.5365ZM77.7442 74.7917L77.0164 74.3685C76.9601 74.3373 76.8966 74.3216 76.8324 74.323C76.7676 74.3216 76.7035 74.3373 76.6464 74.3685L74.4775 75.6321L74.0686 72.8343C74.0632 72.7944 74.0478 72.7565 74.0239 72.7244C73.9999 72.6922 73.9681 72.6668 73.9316 72.6505L73.2386 72.2479C73.1819 72.2158 73.1176 72.2 73.0526 72.2025C72.9883 72.2 72.9246 72.2157 72.8686 72.2479L69.328 74.3127C69.3084 74.3218 69.2918 74.3363 69.2802 74.3546C69.2686 74.3729 69.2624 74.3942 69.2624 74.4159C69.2624 74.4377 69.2686 74.459 69.2802 74.4773C69.2918 74.4956 69.3084 74.5101 69.328 74.5192L70.0537 74.9445C70.1117 74.973 70.1753 74.9878 70.2397 74.9878C70.3042 74.9878 70.3678 74.973 70.4258 74.9445L72.47 73.7511L72.8605 76.5406C72.8622 76.5725 72.8691 76.6039 72.8809 76.6336C72.9084 76.6802 72.9489 76.7176 72.9974 76.7409L73.6904 77.1539C73.7484 77.1824 73.812 77.1972 73.8764 77.1972C73.9409 77.1972 74.0045 77.1824 74.0625 77.1539L77.7421 75.0085C77.764 75.0003 77.7829 74.9855 77.7963 74.9662C77.8096 74.9468 77.8167 74.9237 77.8167 74.9001C77.8167 74.8765 77.8096 74.8535 77.7963 74.8341C77.7829 74.8147 77.764 74.8 77.7421 74.7917H77.7442Z" fill="#E0E0E0"/>
</g>
</g>
</g>
</svg>
