<svg width="13" height="11" viewBox="0 0 13 11" fill="none" xmlns="http://www.w3.org/2000/svg">
<path fill-rule="evenodd" clip-rule="evenodd" d="M0.539062 3.87504C0.539062 3.27673 1.02409 2.79171 1.6224 2.79171H11.3724C11.9707 2.79171 12.4557 3.27673 12.4557 3.87504V9.83337C12.4557 10.4317 11.9707 10.9167 11.3724 10.9167H1.6224C1.02409 10.9167 0.539062 10.4317 0.539062 9.83337V3.87504ZM5.16392 4.47792C5.34306 4.38466 5.55923 4.3988 5.72471 4.51464L8.43304 6.41047C8.57783 6.51182 8.66406 6.67746 8.66406 6.85421C8.66406 7.03095 8.57783 7.19659 8.43304 7.29794L5.72471 9.19377C5.55923 9.30964 5.34306 9.32377 5.16392 9.2305C4.98477 9.13722 4.8724 8.95203 4.8724 8.75004V4.95837C4.8724 4.75639 4.98477 4.57119 5.16392 4.47792ZM10.8307 2.52087H2.16406V1.43754H10.8307V2.52087ZM9.7474 1.16671H3.2474V0.083374H9.7474V1.16671Z" fill="white"/>
</svg>
