<svg width="34" height="34" viewBox="0 0 34 34" fill="none" xmlns="http://www.w3.org/2000/svg">
<path fill-rule="evenodd" clip-rule="evenodd" d="M1.41699 12.7502C1.41699 11.1854 2.68552 9.91683 4.25033 9.91683H29.7503C31.3152 9.91683 32.5837 11.1854 32.5837 12.7502V28.3335C32.5837 29.8983 31.3152 31.1668 29.7503 31.1668H4.25033C2.68552 31.1668 1.41699 29.8983 1.41699 28.3335V12.7502ZM13.5128 14.3269C13.9813 14.083 14.5467 14.12 14.9794 14.423L22.0628 19.3813C22.4415 19.6464 22.667 20.0796 22.667 20.5418C22.667 21.0041 22.4415 21.4373 22.0628 21.7024L14.9794 26.6607C14.5467 26.9637 13.9813 27.0007 13.5128 26.7567C13.0442 26.5128 12.7503 26.0284 12.7503 25.5002V15.5835C12.7503 15.0552 13.0442 14.5709 13.5128 14.3269ZM28.3337 9.2085H5.66699V6.37516H28.3337V9.2085ZM25.5003 5.66683H8.50033V2.8335H25.5003V5.66683Z" fill="#1B3D6F"/>
</svg>
