<svg width="1194" height="295" viewBox="0 0 1194 295" fill="none" xmlns="http://www.w3.org/2000/svg">
<path d="M1193 116.503V219.5V244.5C1119 259.47 1220.05 274.941 1167.12 294.191C1000.69 220.501 870.76 52.6612 612.72 64.8712C354.31 77.0912 315.26 212.301 56.5 294.191C43.96 299.941 28.22 283.431 0.5 294.191V175.5C169.23 113.98 369.4 19.8611 605.44 2.49115C954 -10.4983 960.5 116.502 1193 116.503Z" fill="#CEEBF0"/>
<mask id="mask0_1184_1049" style="mask-type:luminance" maskUnits="userSpaceOnUse" x="564" y="0" width="630" height="295">
<path d="M971.166 294.978C1134.47 202.668 1194 0 1194 0C1194 0 916.293 155.627 564.373 205.687C558.761 206.485 968.281 296.608 971.166 294.978Z" fill="white"/>
</mask>
<g mask="url(#mask0_1184_1049)">
<path d="M971.166 294.978C1134.47 202.668 1194 0 1194 0C1194 0 916.293 155.627 564.373 205.687C558.761 206.485 968.281 296.608 971.166 294.978Z" fill="#1EC2ED"/>
</g>
<mask id="mask1_1184_1049" style="mask-type:luminance" maskUnits="userSpaceOnUse" x="564" y="0" width="630" height="295">
<path d="M971.166 294.978C1134.47 202.668 1194 0 1194 0C1194 0 916.293 155.627 564.373 205.687C558.761 206.485 968.281 296.608 971.166 294.978Z" fill="white"/>
</mask>
<g mask="url(#mask1_1184_1049)">
<path d="M997.303 209.978C1292.89 116.207 1186.5 -13.5 1186.5 -13.5C1186.5 -13.5 987.714 108.455 730.071 174.222C724.986 175.525 994.035 211.016 997.303 209.978Z" fill="url(#paint0_linear_1184_1049)"/>
</g>
<mask id="mask2_1184_1049" style="mask-type:luminance" maskUnits="userSpaceOnUse" x="564" y="15" width="605" height="280">
<path d="M1029.46 294.5C1192.41 202.19 1167.66 15.5 1167.66 15.5C1167.66 15.5 915.51 155.627 564.372 205.687C558.773 206.485 1026.59 296.13 1029.46 294.5Z" fill="white"/>
</mask>
<g mask="url(#mask2_1184_1049)">
<path d="M1153.84 149.506C1079.18 138.516 1003.96 126.66 929.854 114.172C1004.53 125.156 1079.73 137.024 1153.84 149.506Z" fill="white"/>
<path d="M959.653 211.42C930.717 210.513 902.379 205.704 875.035 199.655C838.526 191.534 803.381 180.94 769.431 169.038C760.979 166.014 752.554 162.96 744.339 159.684C752.756 162.737 761.261 165.686 769.836 168.539C804.076 179.988 839.221 190.381 875.554 198.668C902.81 204.785 930.84 209.847 959.653 211.42Z" fill="white"/>
<path d="M981.237 206.745C942.951 201.62 906.196 192.57 869.776 183.485C833.46 174.137 797.541 164.122 762.264 153.207C771.226 155.726 780.188 158.252 789.177 160.713C833.751 173.012 879.573 185.339 925.247 195.726C943.039 199.83 962.828 203.847 981.237 206.745Z" fill="white"/>
<path d="M998.668 201.164C972.617 196.47 945.959 190.479 920.655 184.269C886.767 176.017 852.352 166.674 819.238 157.147C810.9 154.708 802.562 152.281 794.304 149.738C861.666 168.051 929.125 186.582 998.668 201.164Z" fill="white"/>
<path d="M1018.38 194.848C951.095 179.324 883.478 162.906 817.021 145.941C884.313 161.459 951.921 177.884 1018.38 194.848Z" fill="white"/>
<path d="M1040.87 187.638C974.349 173.004 907.488 157.481 841.753 141.395C908.279 156.029 975.131 171.558 1040.87 187.638Z" fill="white"/>
<path d="M1066.75 179.348C996.803 165.465 926.441 150.699 857.215 135.348C927.163 149.224 997.524 164.008 1066.75 179.348Z" fill="white"/>
<path d="M1096.07 169.844C1023.87 157.453 951.192 144.185 879.626 130.309C951.825 142.693 1024.5 155.973 1096.07 169.844Z" fill="white"/>
<path d="M1132.33 158.334C1056.34 147.092 979.785 134.977 904.349 122.242C980.348 133.479 1056.89 145.605 1132.33 158.334Z" fill="white"/>
<path d="M1222.74 135.848C1135.47 126.063 1043.07 114.866 956.134 103.578C1043.5 113.386 1135.86 124.554 1222.74 135.848Z" fill="white"/>
<path d="M1189.36 111.586C1119.72 107.012 1049.45 101.618 980.084 95.5117C1049.72 100.086 1120 105.486 1189.36 111.586Z" fill="white"/>
<path d="M1206.72 97.541C1163.8 96.6515 1120.67 94.7404 1077.96 91.6414C1056.91 90.1149 1034.93 88.1178 1014.19 85.1335C1010 84.5023 1005.84 83.739 1001.68 83.0273L1007.98 83.9398L1011.12 84.4047C1018.87 85.5008 1031.86 86.7978 1039.72 87.5611C1094.95 92.4391 1151.11 94.9241 1206.72 97.541Z" fill="white"/>
<path d="M1357.69 117.943C1275.53 108.267 1191.3 97.5817 1109.65 86.2876C1085.63 82.9074 1061.61 79.5215 1037.79 75.5616L1027.63 73.7539L1037.86 75.3952C1141.71 90.3852 1253.37 103.831 1357.69 117.943Z" fill="white"/>
<path d="M1116.62 43.6055C1064.75 70.9971 1009.26 96.0243 952.986 119.341C901.711 140.403 849.283 160.466 795.131 178.239C791.006 179.565 782.325 182.326 778.235 183.634C784.735 181.459 794.216 178.349 800.522 176.133C852.159 158.245 902.669 138.779 952.045 118.372C1008.35 95.1578 1063.96 70.2798 1116.62 43.6055Z" fill="white"/>
<path d="M1121.79 54.2109C1055.82 92.6212 985.467 127.944 911.21 159.278C866.609 177.924 820.092 195.175 770.733 207.858C836.029 190.039 896.267 165.287 954.341 139.095C1012.3 112.684 1068.27 84.363 1121.79 54.2109Z" fill="white"/>
<path d="M1137.32 54.7773C1054.62 114.324 961.773 168.269 859.45 213.084L838.869 221.934L859.186 212.832C960.445 167.081 1053 113.285 1137.32 54.7773Z" fill="white"/>
<path d="M1153.71 65.4727C1091.98 116.348 1022.9 163.55 947.278 205.719L932.036 214.058L946.97 205.49C1021.39 162.471 1090.23 115.389 1153.71 65.4727Z" fill="white"/>
</g>
<path d="M1194 97.3778V0L1186 21.5L1178.38 42.0704L1170.32 60.337L1158.22 83.1704L1125.5 140.5L1194 97.3778Z" fill="url(#paint1_linear_1184_1049)"/>
<path d="M1191 243.335C1125.61 234.655 1060.26 216.516 1011.06 200C1001.2 204.236 991.244 208.272 981.212 212.053C919.652 235.278 855.645 244.469 789.868 249.198C745.275 252.401 700.781 257.546 658.566 270.224C639.412 275.976 620.707 283.282 602.682 292.663C569.879 309.738 615.211 225.376 580 292.663H1191V243.335Z" fill="#4DA454"/>
<path d="M1145.38 128.028C1101.81 152.608 1057.45 178.818 1011.41 200.308C1058.65 217.628 1131.36 241.778 1194 247.428V97.3281C1174.34 109.148 1151.65 124.498 1145.38 128.028Z" fill="#EF8321"/>
<path d="M1070.49 174.068L1070.69 173.818C1070.21 173.438 1069.72 173.128 1069.25 172.828C1068.31 172.238 1067.43 171.678 1066.72 170.688L1066.46 170.867C1067.2 171.907 1068.11 172.487 1069.08 173.097C1069.54 173.387 1070.02 173.698 1070.49 174.068Z" fill="#006543"/>
<path d="M1070.44 175.476L1070.75 175.406C1070.72 175.266 1070.74 175.096 1070.81 174.896C1071.02 174.296 1071.46 173.896 1071.94 173.466C1072.42 173.036 1072.91 172.586 1073.15 171.926L1072.85 171.816C1072.64 172.406 1072.2 172.806 1071.73 173.226C1071.25 173.656 1070.75 174.106 1070.52 174.786C1070.42 175.046 1070.4 175.276 1070.44 175.476Z" fill="#006543"/>
<path d="M1071.13 176.537L1071.22 170.887L1069.94 170.867L1069.85 176.697L1071.13 176.537Z" fill="#006543"/>
<path d="M1069.79 172.629C1074.67 172.629 1078.63 168.671 1078.63 163.789C1078.63 158.907 1074.67 154.949 1069.79 154.949C1064.91 154.949 1060.95 158.907 1060.95 163.789C1060.95 168.671 1064.91 172.629 1069.79 172.629Z" fill="#4DA454"/>
<path d="M1060.81 163.719C1060.81 158.839 1064.77 154.879 1069.65 154.879C1071.63 154.879 1073.46 155.529 1074.94 156.639C1073.56 155.739 1071.9 155.209 1070.13 155.209C1065.25 155.209 1061.29 159.169 1061.29 164.049C1061.29 166.949 1062.68 169.519 1064.84 171.129C1062.42 169.549 1060.81 166.819 1060.81 163.719Z" fill="white"/>
<path d="M1076.1 158.758C1076.44 158.758 1076.77 158.778 1077.1 158.818C1078.06 160.238 1078.63 161.938 1078.63 163.778C1078.63 168.658 1074.67 172.618 1069.79 172.618C1069.45 172.618 1069.12 172.598 1068.79 172.558C1067.83 171.138 1067.26 169.438 1067.26 167.598C1067.27 162.718 1071.22 158.758 1076.1 158.758Z" fill="#006543"/>
<path opacity="0.5" d="M1069.79 172.619C1069.62 172.619 1069.46 172.609 1069.29 172.609C1069.28 172.609 1069.28 172.609 1069.27 172.609C1064.63 172.339 1060.95 168.499 1060.95 163.789C1060.95 158.909 1064.91 154.949 1069.79 154.949C1070.68 154.949 1071.53 155.079 1072.34 155.329C1071.35 155.029 1069.74 156.239 1068.96 156.769C1067.81 157.559 1066.91 158.579 1066.49 159.939C1065.85 161.999 1066.6 163.959 1067.9 165.589C1068.99 166.959 1070.43 167.869 1071.21 169.459C1071.37 169.789 1072.64 172.199 1071.9 172.379C1071.23 172.529 1070.52 172.619 1069.79 172.619Z" fill="#A7C545"/>
<path d="M1075.24 179.901C1075.3 179.911 1079.01 181.62 1079.09 181.69C1081.53 176.14 1071.59 176.77 1071.17 176.54C1071.14 176.52 1070.32 176.72 1070.02 176.68C1070.07 176.78 1070.35 177.241 1075.24 179.901Z" fill="url(#paint2_linear_1184_1049)"/>
<path d="M1149.3 129.872L1149.44 129.692C1149.1 129.432 1148.76 129.212 1148.42 129.002C1147.76 128.582 1147.14 128.192 1146.65 127.492L1146.47 127.622C1146.99 128.352 1147.63 128.762 1148.31 129.192C1148.64 129.402 1148.98 129.622 1149.3 129.872Z" fill="#006543"/>
<path d="M1149.27 130.871L1149.49 130.821C1149.47 130.721 1149.48 130.601 1149.53 130.461C1149.68 130.041 1149.99 129.761 1150.32 129.461C1150.66 129.161 1151 128.841 1151.17 128.381L1150.96 128.301C1150.81 128.711 1150.5 129.001 1150.17 129.291C1149.83 129.601 1149.48 129.911 1149.32 130.381C1149.25 130.561 1149.24 130.731 1149.27 130.871Z" fill="#006543"/>
<path d="M1149.75 131.613L1149.81 127.643L1148.92 127.633L1148.86 131.723L1149.75 131.613Z" fill="#006543"/>
<path d="M1148.81 128.861C1152.24 128.861 1155.02 126.081 1155.02 122.651C1155.02 119.222 1152.24 116.441 1148.81 116.441C1145.38 116.441 1142.6 119.222 1142.6 122.651C1142.6 126.081 1145.38 128.861 1148.81 128.861Z" fill="#4DA454"/>
<path d="M1142.51 122.601C1142.51 119.171 1145.29 116.391 1148.72 116.391C1150.11 116.391 1151.4 116.851 1152.44 117.621C1151.47 116.991 1150.31 116.621 1149.06 116.621C1145.63 116.621 1142.85 119.401 1142.85 122.831C1142.85 124.871 1143.83 126.671 1145.34 127.801C1143.63 126.701 1142.51 124.781 1142.51 122.601Z" fill="white"/>
<path d="M1153.25 119.121C1153.49 119.121 1153.72 119.131 1153.95 119.161C1154.63 120.151 1155.02 121.361 1155.02 122.651C1155.02 126.081 1152.24 128.861 1148.81 128.861C1148.57 128.861 1148.34 128.851 1148.11 128.821C1147.43 127.831 1147.04 126.621 1147.04 125.331C1147.04 121.901 1149.82 119.121 1153.25 119.121Z" fill="#006543"/>
<path opacity="0.5" d="M1148.81 128.861C1148.69 128.861 1148.58 128.861 1148.46 128.851H1148.45C1145.19 128.661 1142.61 125.961 1142.61 122.651C1142.61 119.221 1145.39 116.441 1148.82 116.441C1149.44 116.441 1150.05 116.531 1150.61 116.711C1149.92 116.501 1148.78 117.351 1148.24 117.721C1147.43 118.271 1146.8 118.991 1146.5 119.951C1146.05 121.401 1146.58 122.781 1147.49 123.921C1148.26 124.881 1149.27 125.521 1149.82 126.641C1149.94 126.871 1150.82 128.561 1150.3 128.691C1149.82 128.791 1149.32 128.861 1148.81 128.861Z" fill="#A7C545"/>
<path d="M1152.64 133.97C1152.68 133.97 1155.29 135.18 1155.35 135.23C1157.06 131.33 1150.08 131.77 1149.78 131.61C1149.76 131.6 1149.18 131.74 1148.97 131.71C1149.01 131.78 1149.21 132.1 1152.64 133.97Z" fill="url(#paint3_linear_1184_1049)"/>
<path d="M1115.7 155.898C1115.76 155.908 1119.57 157.668 1119.65 157.738C1122.15 152.038 1113.8 152.348 1113.37 152.118C1113.34 152.098 1110.65 152.638 1110.34 152.598C1110.4 152.698 1110.69 153.178 1115.7 155.898Z" fill="url(#paint4_linear_1184_1049)"/>
<path d="M1112.46 126.13C1112.03 124.94 1111.75 125.48 1111.77 125.18C1110.11 127.7 1109.6 136.98 1109.46 138.25C1109.18 140.84 1109.17 147.56 1109.72 150.68C1110.27 150.56 1110.76 150.56 1111.1 150.8C1111.35 150.97 1111.58 151.2 1111.77 151.43C1111.24 151.76 1110.69 151.92 1110.15 152.1C1110.2 152.18 1110.25 152.23 1110.31 152.26C1110.51 152.36 1113.16 150.84 1113.67 150.82C1113.77 150.24 1115.59 134.79 1112.46 126.13Z" fill="white"/>
<path d="M1111.86 125.378C1111.79 125.368 1111.76 125.368 1111.77 125.258C1110.11 127.788 1109.6 137.058 1109.46 138.328C1109.09 141.668 1109.14 151.998 1110.25 152.558C1110.35 152.608 1113.01 152.508 1113.66 152.178C1114 149.328 1114.09 131.118 1111.86 125.378Z" fill="#006543"/>
<g opacity="0.38">
<path opacity="0.31" d="M1110.25 152.558C1110.35 152.608 1113.01 152.048 1113.66 151.718C1114.01 148.868 1114.1 131.118 1111.87 125.378C1111.8 125.368 1111.77 125.368 1111.78 125.258C1111.76 125.298 1111.73 125.338 1111.71 125.378C1111.4 128.848 1111.1 132.328 1110.79 135.798C1110.65 137.328 1110.52 138.918 1111.01 140.378C1111.3 141.248 1111.8 142.038 1112.04 142.918C1112.32 143.968 1112.19 145.098 1111.94 146.158C1111.66 147.328 1111.23 148.458 1110.65 149.518C1110.32 150.118 1109.95 150.708 1109.75 151.348C1109.87 152.008 1110.04 152.448 1110.25 152.558Z" fill="#A7C545"/>
</g>
<path d="M1186 254.137V287.247C1047.74 257.785 202.676 314.79 -1 287.247V168.984C72.4209 151.806 251.207 113.392 481.764 168.986C872.348 263.168 1010 248.504 1186 254.137Z" fill="#A7C545"/>
<path d="M790.7 243.08L791.54 242.01C789.5 240.41 787.4 239.08 785.38 237.8C781.38 235.27 777.6 232.88 774.61 228.66L773.5 229.45C776.65 233.9 780.54 236.36 784.66 238.96C786.64 240.21 788.71 241.52 790.7 243.08Z" fill="#00563B"/>
<path d="M790.49 249.132L791.81 248.822C791.67 248.222 791.75 247.482 792.04 246.632C792.93 244.092 794.83 242.372 796.84 240.552C798.88 238.712 800.98 236.812 802 233.972L800.72 233.512C799.82 236.032 797.93 237.732 795.93 239.542C793.88 241.392 791.75 243.312 790.75 246.192C790.38 247.282 790.29 248.272 790.49 249.132Z" fill="#00563B"/>
<path d="M793.43 253.631L793.79 229.521L788.341 229.441L787.98 254.321L793.43 253.631Z" fill="#00563B"/>
<path d="M787.71 236.919C808.525 236.919 825.4 220.045 825.4 199.229C825.4 178.413 808.525 161.539 787.71 161.539C766.894 161.539 750.02 178.413 750.02 199.229C750.02 220.045 766.894 236.919 787.71 236.919Z" fill="#4DA454"/>
<path d="M749.42 198.928C749.42 178.108 766.3 161.238 787.11 161.238C795.57 161.238 803.38 164.028 809.67 168.728C803.76 164.888 796.72 162.648 789.15 162.648C768.33 162.648 751.46 179.528 751.46 200.338C751.46 212.698 757.41 223.668 766.6 230.538C756.26 223.828 749.42 212.178 749.42 198.928Z" fill="white"/>
<path d="M814.629 177.797C816.069 177.797 817.489 177.887 818.889 178.047C822.999 184.087 825.399 191.377 825.399 199.227C825.399 220.047 808.519 236.917 787.709 236.917C786.269 236.917 784.849 236.827 783.449 236.667C779.339 230.627 776.939 223.337 776.939 215.487C776.939 194.677 793.819 177.797 814.629 177.797Z" fill="#006543"/>
<path opacity="0.5" d="M787.71 236.919C786.99 236.919 786.29 236.899 785.58 236.859C785.55 236.859 785.53 236.859 785.5 236.849C765.71 235.709 750.01 219.299 750.01 199.229C750.01 178.409 766.89 161.539 787.7 161.539C791.49 161.539 795.14 162.109 798.59 163.149C794.38 161.879 787.48 167.019 784.19 169.269C779.28 172.629 775.43 176.999 773.64 182.779C770.93 191.569 774.12 199.939 779.65 206.879C784.32 212.729 790.44 216.599 793.77 223.369C794.47 224.789 799.86 235.049 796.71 235.819C793.84 236.529 790.82 236.919 787.71 236.919Z" fill="#A7C545"/>
<path d="M810.959 267.949C811.209 267.979 827.049 275.309 827.389 275.579C837.789 251.889 795.389 254.569 793.589 253.629C793.449 253.559 789.969 254.389 788.689 254.249C788.909 254.639 790.109 256.619 810.959 267.949Z" fill="url(#paint5_linear_1184_1049)"/>
<path d="M952.931 219.68L953.411 219.07C952.251 218.16 951.061 217.41 949.921 216.68C947.651 215.25 945.511 213.89 943.811 211.5L943.181 211.95C944.971 214.47 947.171 215.87 949.511 217.34C950.641 218.06 951.811 218.8 952.931 219.68Z" fill="#00563B"/>
<path d="M952.82 223.11L953.57 222.93C953.49 222.59 953.53 222.17 953.7 221.69C954.2 220.25 955.28 219.27 956.42 218.24C957.57 217.2 958.77 216.12 959.34 214.51L958.61 214.25C958.1 215.68 957.03 216.64 955.9 217.67C954.74 218.72 953.53 219.81 952.96 221.44C952.76 222.06 952.7 222.63 952.82 223.11Z" fill="#00563B"/>
<path d="M954.481 225.659L954.691 211.999L951.601 211.949L951.391 226.059L954.481 225.659Z" fill="#00563B"/>
<path d="M951.24 216.193C963.042 216.193 972.61 206.625 972.61 194.823C972.61 183.021 963.042 173.453 951.24 173.453C939.438 173.453 929.87 183.021 929.87 194.823C929.87 206.625 939.438 216.193 951.24 216.193Z" fill="#4DA454"/>
<path d="M929.53 194.651C929.53 182.851 939.1 173.281 950.9 173.281C955.7 173.281 960.12 174.861 963.69 177.531C960.34 175.351 956.35 174.081 952.06 174.081C940.26 174.081 930.69 183.651 930.69 195.451C930.69 202.461 934.06 208.681 939.27 212.571C933.41 208.771 929.53 202.171 929.53 194.651Z" fill="white"/>
<path d="M966.511 182.672C967.331 182.672 968.131 182.722 968.921 182.812C971.251 186.232 972.611 190.372 972.611 194.822C972.611 206.622 963.041 216.192 951.241 216.192C950.421 216.192 949.621 216.142 948.831 216.052C946.501 212.632 945.141 208.492 945.141 204.042C945.141 192.242 954.701 182.672 966.511 182.672Z" fill="#006543"/>
<path opacity="0.5" d="M951.24 216.193C950.83 216.193 950.43 216.183 950.03 216.153C950.02 216.153 950 216.153 949.99 216.153C938.77 215.503 929.87 206.203 929.87 194.823C929.87 183.023 939.44 173.453 951.24 173.453C953.39 173.453 955.46 173.783 957.41 174.373C955.02 173.653 951.11 176.573 949.25 177.843C946.46 179.753 944.28 182.223 943.27 185.503C941.73 190.483 943.54 195.233 946.68 199.163C949.33 202.483 952.8 204.673 954.69 208.513C955.09 209.323 958.14 215.133 956.36 215.573C954.72 215.973 953.01 216.193 951.24 216.193Z" fill="#A7C545"/>
<path d="M964.42 233.793C964.56 233.803 973.54 237.963 973.73 238.113C979.63 224.683 955.59 226.203 954.57 225.663C954.49 225.623 952.52 226.093 951.79 226.013C951.92 226.243 952.6 227.363 964.42 233.793Z" fill="url(#paint6_linear_1184_1049)"/>
<path d="M885.08 259.542C885.28 259.562 897.86 265.382 898.13 265.602C906.39 246.782 878.82 247.802 877.39 247.052C877.28 247.002 868.41 248.762 867.39 248.652C867.56 248.962 868.52 250.542 885.08 259.542Z" fill="url(#paint7_linear_1184_1049)"/>
<path d="M874.359 161.252C872.949 157.342 872.009 159.112 872.089 158.102C866.609 166.432 864.919 197.042 864.449 201.242C863.509 209.772 863.489 231.962 865.289 242.272C867.119 241.872 868.709 241.862 869.849 242.662C870.659 243.232 871.439 243.972 872.069 244.752C870.339 245.852 868.509 246.362 866.709 246.952C866.879 247.202 867.049 247.392 867.239 247.482C867.889 247.812 876.649 242.782 878.319 242.732C878.679 240.842 884.689 189.842 874.359 161.252Z" fill="white"/>
<path d="M872.4 158.773C872.17 158.733 872.06 158.743 872.09 158.363C866.61 166.713 864.92 197.313 864.45 201.523C863.24 212.533 863.4 246.653 867.07 248.483C867.39 248.643 876.18 248.303 878.31 247.243C879.46 237.823 879.76 177.743 872.4 158.773Z" fill="#006543"/>
<g opacity="0.38">
<path opacity="0.31" d="M867.07 248.483C867.39 248.643 876.18 246.783 878.31 245.723C879.45 236.303 879.75 177.733 872.4 158.773C872.17 158.733 872.06 158.743 872.09 158.363C872.01 158.483 871.94 158.623 871.86 158.743C870.85 170.213 869.83 181.683 868.82 193.153C868.37 198.213 867.94 203.453 869.56 208.273C870.52 211.133 872.18 213.743 872.94 216.663C873.85 220.143 873.44 223.843 872.6 227.343C871.68 231.203 870.24 234.943 868.35 238.423C867.28 240.403 866.05 242.343 865.38 244.473C865.83 246.693 866.39 248.143 867.07 248.483Z" fill="#A7C545"/>
</g>
<path d="M1020.62 207.289C1020.71 207.299 1026.58 210.019 1026.71 210.119C1030.56 201.339 1017.7 201.819 1017.04 201.469C1016.99 201.449 1012.85 202.269 1012.37 202.219C1012.45 202.349 1012.9 203.089 1020.62 207.289Z" fill="url(#paint8_linear_1184_1049)"/>
<path d="M1015.62 161.439C1014.96 159.609 1014.52 160.439 1014.56 159.969C1012.01 163.859 1011.21 178.129 1011 180.099C1010.56 184.079 1010.55 194.429 1011.39 199.239C1012.24 199.049 1012.98 199.049 1013.52 199.419C1013.9 199.689 1014.26 200.029 1014.55 200.389C1013.74 200.899 1012.89 201.139 1012.05 201.409C1012.13 201.529 1012.21 201.609 1012.29 201.659C1012.6 201.809 1016.68 199.469 1017.46 199.439C1017.64 198.559 1020.44 174.769 1015.62 161.439Z" fill="white"/>
<path d="M1014.71 160.28C1014.6 160.26 1014.55 160.27 1014.56 160.09C1012.01 163.98 1011.21 178.26 1011 180.22C1010.43 185.36 1010.51 201.27 1012.22 202.13C1012.37 202.2 1016.47 202.05 1017.46 201.55C1018 197.16 1018.14 169.13 1014.71 160.28Z" fill="#006543"/>
<g opacity="0.38">
<path opacity="0.31" d="M1012.22 202.13C1012.37 202.2 1016.47 201.34 1017.46 200.84C1017.99 196.44 1018.13 169.13 1014.7 160.28C1014.59 160.26 1014.54 160.27 1014.55 160.09C1014.51 160.15 1014.48 160.21 1014.44 160.27C1013.97 165.62 1013.49 170.97 1013.02 176.32C1012.81 178.68 1012.61 181.12 1013.37 183.37C1013.82 184.71 1014.59 185.92 1014.95 187.28C1015.38 188.9 1015.18 190.63 1014.79 192.26C1014.36 194.06 1013.69 195.8 1012.81 197.43C1012.31 198.35 1011.74 199.26 1011.42 200.25C1011.65 201.29 1011.91 201.97 1012.22 202.13Z" fill="#A7C545"/>
</g>
<path d="M686.87 74.3208C678.11 75.5808 670.4 83.4508 664.86 91.0408C661.65 85.4808 659.78 79.0408 659.78 72.1608C659.78 51.2508 676.73 34.3008 697.64 34.3008C718.55 34.3008 735.5 51.2508 735.5 72.1608C735.5 93.0708 718.55 110.021 697.64 110.021C685.08 110.021 673.99 103.881 667.1 94.4708C677.47 77.6308 686.87 74.3208 686.87 74.3208Z" fill="url(#paint9_linear_1184_1049)"/>
<path d="M613.41 139.231C605 123.091 590.75 119.851 590.75 119.851C605.25 127.091 614.09 145.711 614.09 145.711C622.81 122.041 632.71 118.891 632.71 118.891C622.15 119.881 613.41 139.231 613.41 139.231Z" fill="#006847"/>
<path d="M701.56 122.641C698.45 113.231 691.31 114.501 691.31 114.501C697.58 114.211 701.69 126.531 701.69 126.531C705.89 112.751 715.8 113.721 715.8 113.721C705.69 112.011 701.56 122.641 701.56 122.641Z" fill="#006847"/>
<path d="M668.99 139.044C667.82 134.324 665.05 134.924 665.05 134.924C667.49 134.814 669.03 140.984 669.03 140.984C670.61 134.144 674.17 134.684 674.17 134.684C670.55 133.774 668.99 139.044 668.99 139.044Z" fill="#006847"/>
<path d="M664.85 91.052C659.25 98.732 655.87 106.122 655.87 106.122C643.99 82.792 625.69 79.182 625.69 79.182C644.33 88.482 656.86 115.762 656.86 115.762C660.17 106.962 663.68 99.992 667.08 94.472C677.46 77.632 686.86 74.332 686.86 74.332C678.1 75.582 670.39 83.452 664.85 91.052Z" fill="#006847"/>
<path d="M717.4 260.531C651.22 252.771 577.63 241.521 496.23 225.741C261.64 180.241 79.8121 210.39 0.162109 246L0.162295 296H1193.5V249.501C1183.46 254.291 1048 296 717.4 260.531Z" fill="#193D6F"/>
<path opacity="0.26" d="M0 96.0673V274C314.792 175.781 631.404 255.755 734 270.437C623.224 241.644 226.161 80.4148 0 96.0673Z" fill="#006884"/>
<defs>
<linearGradient id="paint0_linear_1184_1049" x1="1079.83" y1="199.619" x2="1002.21" y2="60.3753" gradientUnits="userSpaceOnUse">
<stop stop-color="#006838" stop-opacity="0"/>
<stop offset="1" stop-color="#006838"/>
</linearGradient>
<linearGradient id="paint1_linear_1184_1049" x1="1159.75" y1="0" x2="1159.75" y2="140.5" gradientUnits="userSpaceOnUse">
<stop stop-color="#088068"/>
<stop offset="1" stop-color="#14A3AE"/>
</linearGradient>
<linearGradient id="paint2_linear_1184_1049" x1="1079.48" y1="179.112" x2="1070.02" y2="179.112" gradientUnits="userSpaceOnUse">
<stop stop-color="#006028" stop-opacity="0"/>
<stop offset="1" stop-color="#105716" stop-opacity="0.95"/>
</linearGradient>
<linearGradient id="paint3_linear_1184_1049" x1="1155.62" y1="133.418" x2="1148.97" y2="133.418" gradientUnits="userSpaceOnUse">
<stop stop-color="#006028" stop-opacity="0"/>
<stop offset="1" stop-color="#105716" stop-opacity="0.95"/>
</linearGradient>
<linearGradient id="paint4_linear_1184_1049" x1="1120.12" y1="154.928" x2="1110.35" y2="154.928" gradientUnits="userSpaceOnUse">
<stop stop-color="#006028" stop-opacity="0"/>
<stop offset="1" stop-color="#105716" stop-opacity="0.95"/>
</linearGradient>
<linearGradient id="paint5_linear_1184_1049" x1="829.025" y1="264.603" x2="788.683" y2="264.603" gradientUnits="userSpaceOnUse">
<stop stop-color="#006028" stop-opacity="0"/>
<stop offset="1" stop-color="#105716" stop-opacity="0.95"/>
</linearGradient>
<linearGradient id="paint6_linear_1184_1049" x1="974.666" y1="231.889" x2="951.793" y2="231.889" gradientUnits="userSpaceOnUse">
<stop stop-color="#006028" stop-opacity="0"/>
<stop offset="1" stop-color="#105716" stop-opacity="0.95"/>
</linearGradient>
<linearGradient id="paint7_linear_1184_1049" x1="899.67" y1="256.326" x2="867.387" y2="256.326" gradientUnits="userSpaceOnUse">
<stop stop-color="#006028" stop-opacity="0"/>
<stop offset="1" stop-color="#105716" stop-opacity="0.95"/>
</linearGradient>
<linearGradient id="paint8_linear_1184_1049" x1="1027.43" y1="205.786" x2="1012.37" y2="205.786" gradientUnits="userSpaceOnUse">
<stop stop-color="#006028" stop-opacity="0"/>
<stop offset="1" stop-color="#105716" stop-opacity="0.95"/>
</linearGradient>
<linearGradient id="paint9_linear_1184_1049" x1="659.773" y1="72.1632" x2="735.489" y2="72.1632" gradientUnits="userSpaceOnUse">
<stop stop-color="#FFD35A"/>
<stop offset="0.8587" stop-color="#FFD35A"/>
<stop offset="1" stop-color="#FFD35A"/>
</linearGradient>
</defs>
</svg>
