<svg width="20" height="20" viewBox="0 0 20 20" fill="none" xmlns="http://www.w3.org/2000/svg">
<path fill-rule="evenodd" clip-rule="evenodd" d="M14.1401 6.64875C13.9801 6.64875 13.8201 6.54875 13.7501 6.39875L13.6201 6.11875L10.5501 7.56875V11.1287L13.9201 16.7287C14.0501 16.6687 14.1801 16.6388 14.3301 16.6388C14.8501 16.6388 15.2801 17.0587 15.2801 17.5787C15.2801 18.1087 14.8501 18.5287 14.3301 18.5287C13.8101 18.5287 13.3801 18.1087 13.3801 17.5787C13.3801 17.3287 13.4801 17.0887 13.6501 16.9187L10.5501 11.7787V15.9887C11.0101 16.0687 11.3601 16.4688 11.3601 16.9587C11.3601 17.4987 10.9201 17.9287 10.3901 17.9287C9.85014 17.9287 9.41014 17.4987 9.41014 16.9587C9.41014 16.4688 9.76014 16.0687 10.2201 15.9887V11.7787L7.19014 16.8087C7.40014 16.9787 7.53014 17.2387 7.53014 17.5387C7.53014 18.0588 7.11014 18.4788 6.58014 18.4788C6.06014 18.4788 5.64014 18.0588 5.64014 17.5387C5.64014 17.0087 6.06014 16.5887 6.58014 16.5887C6.69014 16.5887 6.80014 16.6087 6.90014 16.6388L10.2201 11.1287V7.71875L7.19014 9.14875L7.31014 9.40875C7.36014 9.51875 7.37014 9.63875 7.33014 9.75875C7.29014 9.86875 7.21014 9.95875 7.10014 10.0087L6.86014 10.1187C6.80014 10.1487 6.74014 10.1587 6.67014 10.1587C6.50014 10.1587 6.34014 10.0588 6.27014 9.90875L5.83014 8.96875L4.50014 9.59875L4.74014 10.1187C4.78014 10.1987 4.75014 10.2987 4.66014 10.3387L3.92014 10.6888C3.90014 10.6987 3.87014 10.7087 3.85014 10.7087C3.83014 10.7087 3.81014 10.6987 3.79014 10.6987C3.75014 10.6788 3.72014 10.6487 3.70014 10.6087L2.53014 8.12875C2.51014 8.08875 2.51014 8.04875 2.53014 8.00875C2.54014 7.96875 2.57014 7.92875 2.61014 7.90875L3.36014 7.55875C3.44014 7.51875 3.54014 7.55875 3.58014 7.63875L3.82014 8.15875L5.15014 7.52875L4.71014 6.59875C4.66014 6.48875 4.66014 6.36875 4.70014 6.25875C4.74014 6.14875 4.82014 6.05875 4.93014 6.00875L5.16014 5.89875C5.22014 5.86875 5.29014 5.84875 5.35014 5.84875C5.53014 5.84875 5.68014 5.94875 5.76014 6.10875L5.88014 6.36875L12.3101 3.34875L12.1801 3.06875C12.1301 2.95875 12.1301 2.84875 12.1701 2.73875C12.2101 2.62875 12.2801 2.53875 12.3901 2.49875L14.4901 1.50875C14.5401 1.47875 14.6101 1.46875 14.6701 1.46875C14.8301 1.46875 14.9901 1.55875 15.0601 1.70875L15.1901 1.99875C16.0501 1.66875 16.9501 1.90875 17.2601 2.55875L17.3801 2.80875C17.5401 3.15875 17.5201 3.55875 17.3101 3.94875C17.1401 4.27875 16.8501 4.56875 16.4901 4.76875L16.6301 5.04875C16.7301 5.25875 16.6401 5.51875 16.4201 5.61875L14.3201 6.60875C14.2701 6.63875 14.2001 6.64875 14.1401 6.64875ZM14.3301 16.9688C13.9901 16.9688 13.7101 17.2487 13.7101 17.5787C13.7101 17.9187 13.9901 18.1987 14.3301 18.1987C14.6701 18.1987 14.9401 17.9187 14.9401 17.5787C14.9401 17.2487 14.6701 16.9688 14.3301 16.9688ZM6.58014 16.9187C6.24014 16.9187 5.97014 17.1987 5.97014 17.5387C5.97014 17.8787 6.24014 18.1488 6.58014 18.1488C6.92014 18.1488 7.20014 17.8787 7.20014 17.5387C7.20014 17.1987 6.92014 16.9187 6.58014 16.9187ZM10.3901 16.3087C10.0301 16.3087 9.74014 16.5988 9.74014 16.9587C9.74014 17.3087 10.0301 17.5987 10.3901 17.5987C10.7401 17.5987 11.0301 17.3087 11.0301 16.9587C11.0301 16.5988 10.7401 16.3087 10.3901 16.3087ZM10.3101 7.30875H10.3201L13.4801 5.81875L12.9701 4.73875L12.4601 3.64875L6.02014 6.67875L7.05014 8.84875L10.3101 7.30875ZM15.3301 2.29875L16.3501 4.45875C16.6401 4.28875 16.8701 4.05875 17.0201 3.79875C17.1701 3.49875 17.1901 3.19875 17.0701 2.94875L16.9601 2.70875C16.7301 2.20875 16.0201 2.04875 15.3301 2.29875ZM4.08014 9.49875L3.59014 8.44875L3.35014 7.93875L2.91014 8.13875L3.93014 10.3187L4.37014 10.1087L4.08014 9.49875ZM3.96014 8.45875L4.36014 9.29875L5.69014 8.66875L5.29014 7.83875L3.96014 8.45875ZM5.35014 6.18875C5.34014 6.18875 5.32014 6.18875 5.30014 6.19875L5.07014 6.30875C5.04014 6.31875 5.02014 6.33875 5.01014 6.36875C5.00014 6.39875 5.00014 6.42875 5.02014 6.45875L5.53014 7.53875L6.06014 8.67875L6.57014 9.75875C6.59014 9.79875 6.63014 9.82875 6.67014 9.82875C6.69014 9.82875 6.71014 9.82875 6.72014 9.81875L6.96014 9.70875C6.98014 9.69875 7.01014 9.66875 7.02014 9.63875C7.03014 9.60875 7.02014 9.57875 7.01014 9.55875L5.46014 6.24875C5.44014 6.20875 5.40014 6.18875 5.35014 6.18875ZM14.6701 1.79875C14.6601 1.79875 14.6401 1.79875 14.6301 1.80875L12.5301 2.79875C12.5101 2.80875 12.4901 2.82875 12.4801 2.84875C12.4701 2.87875 12.4701 2.89875 12.4801 2.92875L14.0501 6.25875C14.0801 6.30875 14.1301 6.32875 14.1801 6.30875L16.2801 5.31875C16.3301 5.29875 16.3501 5.23875 16.3301 5.18875L14.7601 1.85875C14.7401 1.81875 14.7101 1.79875 14.6701 1.79875Z" fill="black"/>
<path fill-rule="evenodd" clip-rule="evenodd" d="M10.32 7.30844L13.48 5.81844L12.97 4.73844L12.46 3.64844L6.02002 6.67844L7.05002 8.84844L10.31 7.30844H10.32Z" fill="black"/>
<path fill-rule="evenodd" clip-rule="evenodd" d="M12.4802 2.93078L14.0502 6.26078C14.0802 6.31078 14.1302 6.33078 14.1802 6.31078L16.2802 5.32078C16.3302 5.30078 16.3502 5.24078 16.3302 5.19078L14.7602 1.86078C14.7402 1.82078 14.7102 1.80078 14.6702 1.80078C14.6602 1.80078 14.6402 1.80078 14.6302 1.81078L12.5302 2.80078C12.5102 2.81078 12.4902 2.83078 12.4802 2.85078C12.4702 2.88078 12.4702 2.90078 12.4802 2.93078Z" fill="black"/>
<path fill-rule="evenodd" clip-rule="evenodd" d="M15.3301 2.29999L16.3501 4.45999C16.6401 4.28999 16.8701 4.05999 17.0201 3.79999C17.1701 3.49999 17.1901 3.19999 17.0701 2.94999L16.9601 2.70999C16.7301 2.20999 16.0201 2.04999 15.3301 2.29999Z" fill="black"/>
<path fill-rule="evenodd" clip-rule="evenodd" d="M7.00999 9.56141L5.45999 6.25141C5.43999 6.21141 5.39999 6.19141 5.34999 6.19141C5.33999 6.19141 5.31999 6.19141 5.29999 6.20141L5.06999 6.31141C5.03999 6.32141 5.01999 6.34141 5.00999 6.37141C4.99999 6.40141 4.99999 6.43141 5.01999 6.46141L5.52999 7.54141L6.05999 8.68141L6.56999 9.76141C6.58999 9.80141 6.62999 9.83141 6.66999 9.83141C6.68999 9.83141 6.70999 9.83141 6.71999 9.82141L6.95999 9.71141C6.97999 9.70141 7.00999 9.67141 7.01999 9.64141C7.02999 9.61141 7.01999 9.58141 7.00999 9.56141Z" fill="black"/>
<path fill-rule="evenodd" clip-rule="evenodd" d="M5.68996 8.66984L5.28996 7.83984L3.95996 8.45984L4.35996 9.29984L5.68996 8.66984Z" fill="black"/>
<path fill-rule="evenodd" clip-rule="evenodd" d="M4.08016 9.50141L3.59016 8.45141L3.35016 7.94141L2.91016 8.14141L3.93016 10.3214L4.37016 10.1114L4.08016 9.50141Z" fill="black"/>
<path fill-rule="evenodd" clip-rule="evenodd" d="M14.3302 16.9686C13.9902 16.9686 13.7102 17.2486 13.7102 17.5786C13.7102 17.9186 13.9902 18.1986 14.3302 18.1986C14.6702 18.1986 14.9402 17.9186 14.9402 17.5786C14.9402 17.2486 14.6702 16.9686 14.3302 16.9686ZM10.3902 17.5986C10.7402 17.5986 11.0302 17.3086 11.0302 16.9586C11.0302 16.5986 10.7402 16.3086 10.3902 16.3086C10.0302 16.3086 9.74021 16.5986 9.74021 16.9586C9.74021 17.3086 10.0302 17.5986 10.3902 17.5986ZM7.20021 17.5386C7.20021 17.1986 6.92021 16.9186 6.58021 16.9186C6.24021 16.9186 5.97021 17.1986 5.97021 17.5386C5.97021 17.8786 6.24021 18.1486 6.58021 18.1486C6.92021 18.1486 7.20021 17.8786 7.20021 17.5386Z" fill="black"/>
</svg>
