<svg width="87" height="90" viewBox="0 0 87 90" fill="none" xmlns="http://www.w3.org/2000/svg">
<g id="Group 299">
<g id="freepik--background-complete--inject-136">
<path id="Vector" d="M87 79.0905H0V79.1506H87V79.0905Z" fill="#EBEBEB"/>
<path id="Vector_2" d="M77.4757 81.8563H68.6191V81.9165H77.4757V81.8563Z" fill="#EBEBEB"/>
<path id="Vector_3" d="M17.3434 81.141H9.12891V81.2012H17.3434V81.141Z" fill="#EBEBEB"/>
<path id="Vector_4" d="M69.2512 80.735H65.9121V80.7952H69.2512V80.735Z" fill="#EBEBEB"/>
<path id="Vector_5" d="M57.6335 82.337H55.1836V82.3972H57.6335V82.337Z" fill="#EBEBEB"/>
<path id="Vector_6" d="M53.6314 82.337H47.4648V82.3972H53.6314V82.337Z" fill="#EBEBEB"/>
<path id="Vector_7" d="M43.885 81.3174H33.9688V81.3776H43.885V81.3174Z" fill="#EBEBEB"/>
<path id="Vector_8" d="M41.2399 68.3163H7.64219C7.37899 68.3156 7.12673 68.17 6.94078 67.9114C6.75483 67.6528 6.65039 67.3023 6.65039 66.9369V1.36729C6.65268 1.00397 6.75813 0.656585 6.94383 0.400577C7.12953 0.14457 7.38049 0.00062238 7.64219 0H41.2399C41.5034 0 41.7561 0.145326 41.9424 0.404008C42.1287 0.66269 42.2334 1.01354 42.2334 1.37937V66.9369C42.2334 67.3027 42.1287 67.6536 41.9424 67.9123C41.7561 68.1709 41.5034 68.3163 41.2399 68.3163ZM7.64219 0.0483144C7.39053 0.0489543 7.14933 0.188199 6.97154 0.435486C6.79374 0.682773 6.69389 1.01789 6.69389 1.36729V66.9369C6.69389 67.2863 6.79374 67.6214 6.97154 67.8687C7.14933 68.116 7.39053 68.2552 7.64219 68.2559H41.2399C41.4917 68.2552 41.7331 68.1161 41.9111 67.8688C42.0892 67.6216 42.1894 67.2865 42.1899 66.9369V1.36729C42.1894 1.01767 42.0892 0.682557 41.9111 0.435339C41.7331 0.188121 41.4917 0.0489529 41.2399 0.0483144H7.64219Z" fill="#EBEBEB"/>
<path id="Vector_9" d="M78.8761 68.3163H45.2767C45.0134 68.3156 44.7609 68.1701 44.5747 67.9115C44.3885 67.653 44.2837 67.3025 44.2832 66.9369V1.36729C44.2859 1.00375 44.3918 0.656367 44.5778 0.400426C44.7637 0.144486 45.0149 0.000615593 45.2767 0H78.8761C79.1375 0.00125725 79.3881 0.145486 79.5734 0.401425C79.7587 0.657364 79.8639 1.00439 79.8662 1.36729V66.9369C79.8662 67.3019 79.762 67.652 79.5764 67.9105C79.3909 68.1691 79.139 68.315 78.8761 68.3163ZM45.2767 0.0483144C45.0249 0.0489529 44.7835 0.188121 44.6055 0.435339C44.4274 0.682557 44.3272 1.01767 44.3267 1.36729V66.9369C44.3272 67.2865 44.4274 67.6216 44.6055 67.8688C44.7835 68.1161 45.0249 68.2552 45.2767 68.2559H78.8761C79.128 68.2552 79.3693 68.1161 79.5474 67.8688C79.7255 67.6216 79.8257 67.2865 79.8262 66.9369V1.36729C79.8257 1.01767 79.7255 0.682557 79.5474 0.435339C79.3693 0.188121 79.128 0.0489529 78.8761 0.0483144H45.2767Z" fill="#EBEBEB"/>
<path id="Vector_10" d="M67.9241 7.40881H50.2109V79.0901H67.9241V7.40881Z" fill="#EBEBEB"/>
<path id="Vector_11" d="M66.7285 77.6415V8.85901L51.4061 8.85901V77.6415H66.7285Z" fill="#FAFAFA"/>
<path id="Vector_12" d="M49.6819 7.40881H31.9688V79.0901H49.6819V7.40881Z" fill="#EBEBEB"/>
<path id="Vector_13" d="M49.6802 78.8103H50.2109L50.2109 7.69182H49.6802L49.6802 78.8103Z" fill="#E0E0E0"/>
<path id="Vector_14" d="M48.4844 77.6388V8.85632L33.1619 8.85632V77.6388H48.4844Z" fill="#FAFAFA"/>
<path id="Vector_15" d="M76.015 6.87012H23.876C23.8147 6.86949 23.7561 6.83543 23.7128 6.77532C23.6695 6.7152 23.645 6.63384 23.6445 6.54883C23.645 6.46381 23.6695 6.38246 23.7128 6.32234C23.7561 6.26222 23.8147 6.22817 23.876 6.22754H76.015C76.0763 6.22817 76.1349 6.26222 76.1782 6.32234C76.2215 6.38246 76.246 6.46381 76.2465 6.54883C76.246 6.63384 76.2215 6.7152 76.1782 6.77532C76.1349 6.83543 76.0763 6.86949 76.015 6.87012Z" fill="#E0E0E0"/>
<path id="Vector_16" d="M66.7285 10.2287V8.85901L51.4061 8.85901V10.2287L66.7285 10.2287Z" fill="#E0E0E0"/>
<path id="Vector_17" d="M66.7285 11.1657V8.85632L51.4061 8.85632V11.1657L66.7285 11.1657Z" fill="#E0E0E0"/>
<path id="Vector_18" d="M48.4844 13.9027V8.85632L33.1619 8.85632V13.9027H48.4844Z" fill="#E0E0E0"/>
<g id="Group" opacity="0.8">
<path id="Vector_19" d="M70.1998 4.72546H65.293V78.2089H70.1998V4.72546Z" fill="#F5F5F5"/>
<path id="Vector_20" d="M68.9058 4.72546H66.5898V78.2089H68.9058V4.72546Z" fill="#F0F0F0"/>
<path id="Vector_21" d="M72.8326 4.72534H67.9258V78.2088H72.8326V4.72534Z" fill="#F5F5F5"/>
<path id="Vector_22" d="M71.5386 4.72534H69.2227V78.2088H71.5386V4.72534Z" fill="#F0F0F0"/>
<path id="Vector_23" d="M75.2877 4.72534H70.3809V78.2088H75.2877V4.72534Z" fill="#F5F5F5"/>
</g>
<g id="Group_2" opacity="0.8">
<path id="Vector_24" d="M31.573 4.72546H24.4512V78.2089H31.573V4.72546Z" fill="#F5F5F5"/>
<path id="Vector_25" d="M29.6918 4.72534H26.3301V78.2088H29.6918V4.72534Z" fill="#F0F0F0"/>
<path id="Vector_26" d="M35.3914 4.72546H28.2695V78.2089H35.3914V4.72546Z" fill="#F5F5F5"/>
<path id="Vector_27" d="M33.5121 4.72534H30.1504V78.2088H33.5121V4.72534Z" fill="#F0F0F0"/>
<path id="Vector_28" d="M38.9519 4.72534H31.8301V78.2088H38.9519V4.72534Z" fill="#F5F5F5"/>
</g>
<path id="Vector_29" d="M21.0713 12.2544H9.58203V48.1687H21.0713V12.2544Z" fill="#F0F0F0"/>
<path id="Vector_30" d="M21.0717 48.1715H21.4336L21.4336 12.2572H21.0717L21.0717 48.1715Z" fill="#E6E6E6"/>
<path id="Vector_31" d="M20.0273 46.7201V13.7046H10.6261L10.6261 46.7201H20.0273Z" fill="#FAFAFA"/>
<path id="Vector_32" d="M21.7948 65.9653H10.0011C9.74174 65.9646 9.49309 65.8215 9.30953 65.5671C9.12596 65.3127 9.0224 64.9677 9.02148 64.6076C9.0224 64.2475 9.12596 63.9026 9.30953 63.6482C9.49309 63.3938 9.74174 63.2506 10.0011 63.25H21.7948C22.0539 63.2513 22.3021 63.3947 22.4853 63.649C22.6685 63.9034 22.7718 64.248 22.7727 64.6076C22.7718 64.9673 22.6685 65.3119 22.4853 65.5662C22.3021 65.8205 22.0539 65.964 21.7948 65.9653Z" fill="#F5F5F5"/>
<path id="Vector_33" d="M12.8389 65.9656H10.9023L8.70117 79.0901H10.6361L12.8389 65.9656Z" fill="#E6E6E6"/>
<path id="Vector_34" d="M16.7005 65.9656H14.7657L13.6816 79.0901H15.6165L16.7005 65.9656Z" fill="#E6E6E6"/>
<path id="Vector_35" d="M18.959 65.9656H20.8939L23.0967 79.0901H21.1601L18.959 65.9656Z" fill="#E6E6E6"/>
</g>
<g id="freepik--Shadow--inject-136">
<path id="freepik--path--inject-136" d="M43.5005 90.0003C62.1329 90.0003 77.2374 88.776 77.2374 87.2657C77.2374 85.7554 62.1329 84.5311 43.5005 84.5311C24.8682 84.5311 9.76367 85.7554 9.76367 87.2657C9.76367 88.776 24.8682 90.0003 43.5005 90.0003Z" fill="#F5F5F5"/>
</g>
<g id="freepik--Character--inject-136">
<path id="Vector_36" d="M54.7361 58.7886H39.8887C39.6072 58.7886 39.3789 59.1055 39.3789 59.4964V60.3081C39.3789 60.699 39.6072 61.0159 39.8887 61.0159H54.7361C55.0177 61.0159 55.246 60.699 55.246 60.3081V59.4964C55.246 59.1055 55.0177 58.7886 54.7361 58.7886Z" fill="#263238"/>
<path id="Vector_37" d="M54.5945 85.8152H55.2452L54.497 61.0155H53.5957L54.5945 85.8152Z" fill="#407BFF"/>
<path id="Vector_38" opacity="0.6" d="M54.5945 85.8152H55.2452L54.497 61.0155H53.5957L54.5945 85.8152Z" fill="white"/>
<path id="Vector_39" d="M48.6039 85.8152H47.9531L48.7013 61.0155H49.6026L48.6039 85.8152Z" fill="#407BFF"/>
<path id="Vector_40" opacity="0.6" d="M48.6039 85.8152H47.9531L48.7013 61.0155H49.6026L48.6039 85.8152Z" fill="white"/>
<path id="Vector_41" d="M46.0222 85.8152H46.673L45.923 61.0155H45.0234L46.0222 85.8152Z" fill="#407BFF"/>
<path id="Vector_42" opacity="0.6" d="M46.0222 85.8152H46.673L45.923 61.0155H45.0234L46.0222 85.8152Z" fill="white"/>
<path id="Vector_43" d="M40.0297 85.8152H39.3789L40.1288 61.0155H41.0284L40.0297 85.8152Z" fill="#407BFF"/>
<path id="Vector_44" opacity="0.6" d="M40.0297 85.8152H39.3789L40.1288 61.0155H41.0284L40.0297 85.8152Z" fill="white"/>
<g id="Group_3" opacity="0.3">
<path id="Vector_45" d="M54.497 61.0139H53.5957L53.6375 62.0696H54.5283L54.497 61.0139Z" fill="#407BFF"/>
<path id="Vector_46" d="M48.6699 62.0696H49.5591L49.6026 61.0139H48.7012L48.6699 62.0696Z" fill="#407BFF"/>
<path id="Vector_47" d="M45.0234 61.0139L45.0652 62.0696H45.9561L45.923 61.0139H45.0234Z" fill="#407BFF"/>
<path id="Vector_48" d="M40.0957 62.0696H40.9883L41.0301 61.0139H40.1288L40.0957 62.0696Z" fill="#407BFF"/>
</g>
<path id="Vector_49" d="M45.6018 82.1703L44.1298 83.2573L41.8086 78.9066L43.2824 77.8196L45.6018 82.1703Z" fill="#FFB573"/>
<path id="Vector_50" d="M43.5983 82.5861L45.1365 81.1029C45.1491 81.088 45.1638 81.0769 45.1796 81.0704C45.1955 81.0639 45.2121 81.062 45.2285 81.065C45.2449 81.0679 45.2607 81.0756 45.2748 81.0876C45.2889 81.0995 45.3011 81.1154 45.3105 81.1343L46.231 82.7504C46.2752 82.8394 46.2926 82.9491 46.2792 83.0557C46.2659 83.1623 46.2229 83.2574 46.1596 83.3205C45.6185 83.823 45.3749 83.9993 44.6667 84.5839C44.23 84.9414 43.186 85.7918 42.5439 86.1807C41.9018 86.5696 41.6443 85.6758 41.8914 85.4318C42.4778 84.8569 43.2538 83.7263 43.4296 82.9316C43.4567 82.7936 43.5161 82.6721 43.5983 82.5861Z" fill="#263238"/>
<path id="Vector_51" opacity="0.2" d="M43.2841 77.8217L41.8086 78.9063L42.9274 81.0031L44.3681 79.8533L43.2841 77.8217Z" fill="black"/>
<path id="Vector_52" d="M46.8398 52.0511C46.8398 52.0511 35.4011 51.5559 35.3558 58.1918C35.3001 67.729 41.8199 80.2545 41.8199 80.2545L44.3708 77.8992C44.3708 77.8992 39.9024 68.7944 39.8642 61.3491C43.2345 60.0277 51.1742 60.866 52.2025 56.9767C53.0447 53.8025 52.6044 52.0511 52.6044 52.0511H46.8398Z" fill="#407BFF"/>
<path id="Vector_53" opacity="0.2" d="M46.8398 52.0511C46.8398 52.0511 35.4011 51.5559 35.3558 58.1918C35.3001 67.729 41.8199 80.2545 41.8199 80.2545L44.3708 77.8992C44.3708 77.8992 39.9024 68.7944 39.8642 61.3491C43.2345 60.0277 51.1742 60.866 52.2025 56.9767C53.0447 53.8025 52.6044 52.0511 52.6044 52.0511H46.8398Z" fill="black"/>
<path id="Vector_54" d="M45.0625 78.506L42.0279 81.0859L41.0762 79.7452L44.41 76.8295L45.0625 78.506Z" fill="#263238"/>
<path id="Vector_55" d="M43.2798 83.3851C43.4012 83.2631 43.5122 83.1221 43.6104 82.9648C43.6155 82.9571 43.619 82.9474 43.6202 82.937C43.6214 82.9266 43.6203 82.9159 43.6172 82.9063C43.614 82.8967 43.6088 82.8887 43.6024 82.8832C43.5959 82.8777 43.5884 82.875 43.5808 82.8754C43.5164 82.8754 42.9457 82.8754 42.8239 83.1339C42.8099 83.1628 42.8015 83.1961 42.7994 83.2308C42.7972 83.2654 42.8015 83.3002 42.8117 83.332C42.8232 83.3821 42.8441 83.427 42.8722 83.4623C42.9003 83.4975 42.9347 83.5217 42.9718 83.5325C43.084 83.5377 43.1937 83.4852 43.2798 83.3851ZM43.4903 82.9865C43.2798 83.2909 43.0936 83.4528 42.9857 83.4262C42.9615 83.4188 42.9393 83.4022 42.9215 83.3784C42.9036 83.3545 42.8909 83.3242 42.8848 83.2909C42.8783 83.2764 42.8749 83.2597 42.8749 83.2426C42.8749 83.2255 42.8783 83.2088 42.8848 83.1943C42.9544 83.059 43.2624 82.9986 43.4903 82.9865Z" fill="#407BFF"/>
<path id="Vector_56" d="M43.6035 82.9746C43.6084 82.9694 43.6126 82.9628 43.6157 82.9553C43.619 82.9472 43.6208 82.9381 43.6208 82.9287C43.6208 82.9194 43.619 82.9103 43.6157 82.9022C43.6052 82.878 43.3616 82.3031 43.1319 82.2499C43.101 82.2416 43.0691 82.2436 43.0388 82.2558C43.0086 82.2679 42.9808 82.29 42.9579 82.32C42.9317 82.3471 42.9127 82.3855 42.9039 82.4292C42.8951 82.4729 42.897 82.5195 42.9092 82.5616C42.9823 82.8031 43.3842 82.9988 43.5774 82.9819L43.6035 82.9746ZM43.031 82.3755C43.0436 82.3626 43.058 82.3533 43.0732 82.3483C43.0885 82.3433 43.1043 82.3427 43.1198 82.3466C43.2572 82.378 43.4243 82.6799 43.5113 82.8635C43.3216 82.8394 43.0362 82.6703 42.9893 82.5132C42.9806 82.4843 42.9753 82.4432 43.0188 82.39C43.0223 82.3949 43.0258 82.3876 43.031 82.3755Z" fill="#407BFF"/>
<path id="Vector_57" d="M42.8795 84.8372L41.2265 84.7285L40.9551 79.3101L42.6081 79.4188L42.8795 84.8372Z" fill="#FFB573"/>
<path id="Vector_58" d="M41.1887 84.3373L43.0592 84.2551C43.0908 84.2518 43.1221 84.2659 43.1462 84.2944C43.1703 84.3229 43.1853 84.3635 43.188 84.4073L43.3255 86.4582C43.3283 86.5668 43.3 86.6725 43.2469 86.7521C43.1937 86.8318 43.12 86.879 43.0418 86.8834C42.3911 86.8834 42.0779 86.8568 41.2549 86.8834C40.7485 86.9052 39.7532 87.009 39.059 86.8834C38.3647 86.7578 38.4709 85.8133 38.7719 85.777C39.487 85.6973 40.4458 85.0112 40.9051 84.4774C40.986 84.3886 41.0857 84.3393 41.1887 84.3373Z" fill="#263238"/>
<path id="Vector_59" d="M40.6072 84.7641C40.7567 84.7529 40.905 84.7189 41.0492 84.6626C41.0564 84.66 41.0629 84.6545 41.0679 84.6467C41.073 84.639 41.0762 84.6294 41.0773 84.6191C41.0784 84.6088 41.0773 84.5983 41.0742 84.5889C41.071 84.5794 41.066 84.5715 41.0596 84.566C41.0056 84.5177 40.5237 84.0829 40.3236 84.2085C40.3007 84.2223 40.2807 84.244 40.2655 84.2715C40.2503 84.2989 40.2404 84.3313 40.2366 84.3655C40.2263 84.4161 40.2258 84.4696 40.2353 84.5206C40.2448 84.5715 40.2638 84.618 40.2905 84.6554C40.3824 84.7459 40.4955 84.7848 40.6072 84.7641ZM40.9395 84.5902C40.6437 84.6844 40.4175 84.682 40.3444 84.5781C40.3275 84.553 40.3155 84.5222 40.3097 84.4887C40.3039 84.4553 40.3045 84.4203 40.3114 84.3872C40.3129 84.3704 40.3175 84.3544 40.3248 84.3408C40.3321 84.3273 40.3419 84.3166 40.3532 84.3099C40.461 84.2447 40.7429 84.4259 40.9395 84.5902Z" fill="#407BFF"/>
<path id="Vector_60" d="M41.0427 84.6658C41.0484 84.668 41.0544 84.668 41.0601 84.6658C41.0657 84.6616 41.0705 84.6553 41.0739 84.6477C41.0772 84.64 41.0791 84.6313 41.0792 84.6224C41.0792 84.5934 41.1036 83.9266 40.9296 83.7092C40.9068 83.6789 40.879 83.6569 40.8487 83.6451C40.8183 83.6333 40.7863 83.6321 40.7556 83.6416C40.7223 83.6441 40.6906 83.6622 40.6656 83.6929C40.6407 83.7236 40.6239 83.7651 40.6181 83.8107C40.5851 84.0522 40.8443 84.5354 41.0131 84.6658C41.0227 84.6703 41.0331 84.6703 41.0427 84.6658ZM40.7939 83.7382C40.8092 83.7369 40.8246 83.7401 40.8389 83.7476C40.8533 83.7551 40.8664 83.7667 40.8774 83.7817C40.9818 83.9121 41.0027 84.2914 41.0044 84.5064C40.8548 84.3421 40.6808 83.9846 40.7034 83.8179C40.7034 83.7865 40.719 83.7479 40.7747 83.7358L40.7939 83.7382Z" fill="#407BFF"/>
<path id="Vector_61" opacity="0.2" d="M42.6098 79.4188L40.9551 79.3101L41.1099 82.4094L42.7595 82.407L42.6098 79.4188Z" fill="black"/>
<path id="Vector_62" d="M50.9076 52.0507C50.9076 52.0507 38.9399 53.6209 39.3749 58.6238C40.0047 65.8371 40.3145 81.3846 40.3145 81.3846L43.3647 81.5513C43.3647 81.5513 44.6575 67.5402 43.9893 60.1409C47.0865 60.1409 54.6695 60.4501 55.3602 57.8604C55.971 55.5703 55.7535 52.0627 55.7535 52.0627L50.9076 52.0507Z" fill="#407BFF"/>
<path id="Vector_63" d="M43.7014 81.8127L40.0404 81.5614L39.9082 79.3486L43.9241 79.7327L43.7014 81.8127Z" fill="#263238"/>
<path id="Vector_64" d="M48.2518 37.3971C48.2292 37.803 48.2065 38.1557 48.1735 38.5277C48.1404 38.8997 48.1056 39.2524 48.0639 39.6293C47.9821 40.354 47.8777 41.0787 47.7559 41.8203C47.5187 43.3527 47.133 44.8333 46.6092 46.2217C46.4529 46.6118 46.273 46.9827 46.0716 47.3305C45.8463 47.7231 45.5801 48.0667 45.2816 48.35C44.7074 48.8794 44.0433 49.1909 43.3554 49.2534C42.7531 49.3082 42.1484 49.2266 41.565 49.0119C41.2896 48.9141 41.0189 48.7931 40.7541 48.6495C40.6219 48.5795 40.4931 48.5022 40.3661 48.4079C40.2391 48.3137 40.1208 48.2364 39.9746 48.1277L40.4322 46.5116L40.7646 46.5696L41.1126 46.6179C41.3457 46.6445 41.5754 46.6614 41.8086 46.6614C42.2313 46.6713 42.6531 46.6039 43.0631 46.4609C43.3916 46.3515 43.6958 46.1316 43.9488 45.8207C44.0572 45.6798 44.1541 45.5226 44.2376 45.3521C44.3404 45.1323 44.4323 44.9031 44.5125 44.666C44.6966 44.1117 44.8473 43.5372 44.9632 42.9484C45.0954 42.3373 45.2016 41.6971 45.2973 41.0449C45.393 40.3926 45.4713 39.7331 45.5496 39.0688L45.6522 38.0687C45.6835 37.7402 45.7183 37.3875 45.741 37.1024L48.2518 37.3971Z" fill="#FFB573"/>
<path id="Vector_65" d="M48.2642 35.4288C47.0462 33.7885 45.5324 34.7572 44.9304 37.8445C44.5896 39.4925 44.3567 41.1799 44.2344 42.8861L48.1094 43.9973C48.8141 41.0526 49.517 37.1101 48.2642 35.4288Z" fill="#263238"/>
<path id="Vector_66" opacity="0.3" d="M47.0164 38.7868C47.2931 38.4413 48.0796 39.9946 48.5598 41.9103C48.4241 42.635 48.2692 43.3331 48.1109 43.9878L45.7793 43.3186C45.9655 41.4054 46.3953 39.5646 47.0164 38.7868Z" fill="black"/>
<path id="Vector_67" d="M40.17 45.7874L39.3 45.326L39.2617 47.8891C39.2617 47.8891 40.7233 48.766 41.0209 47.7587L40.9165 47.1185C40.8661 46.8364 40.7736 46.5722 40.645 46.3429C40.5165 46.1136 40.3546 45.9244 40.17 45.7874Z" fill="#FFB573"/>
<path id="Vector_68" d="M38.2731 45.3937L37.7598 47.5437L39.2683 47.8891L39.3066 45.326L38.2731 45.3937Z" fill="#FFB573"/>
<path id="Vector_69" d="M39.5896 47.1061C39.5712 47.1065 39.5531 47.0997 39.5374 47.0864C39.5217 47.0732 39.5091 47.054 39.5009 47.0312L37.947 42.8786C37.9347 42.8459 37.9322 42.8077 37.94 42.7725C37.9478 42.7372 37.9654 42.7076 37.9888 42.6902C38.0127 42.6739 38.0401 42.6711 38.0654 42.6823C38.0907 42.6936 38.1119 42.7181 38.1245 42.7506L39.6731 46.8959C39.6854 46.9286 39.688 46.9668 39.6801 47.0021C39.6723 47.0373 39.6548 47.0669 39.6314 47.0843C39.6186 47.0953 39.6044 47.1027 39.5896 47.1061Z" fill="#263238"/>
<path id="Vector_70" d="M48.1189 33.7836L49.9772 33.0589L52.3645 32.9042C52.7271 32.8801 53.0853 33.0222 53.384 33.3085C53.6827 33.5949 53.9053 34.0097 54.0175 34.489C54.4717 36.4215 54.8875 39.2044 55.1955 41.6129C55.5435 44.3161 55.7175 48.3769 55.754 52.0632H46.84C46.6364 44.3692 45.9317 39.8204 45.622 37.3033C45.5603 36.8099 45.6167 36.3021 45.7826 35.8575C45.9485 35.4129 46.2148 35.0561 46.5407 34.8416L48.1189 33.7836Z" fill="#263238"/>
<path id="Vector_71" opacity="0.3" d="M55.1953 41.6032C54.9552 39.7068 54.6455 37.5713 54.301 35.8054C52.7123 35.4334 51.9433 40.2697 52.4148 42.6685C52.8863 45.0673 55.4006 43.613 55.4006 43.613C55.3415 42.8907 55.2719 42.2119 55.1953 41.6032Z" fill="black"/>
<path id="Vector_72" d="M49.6622 28.0219C50.045 29.3264 49.8153 31.718 49.0601 31.0416C48.305 30.3652 49.429 27.2296 49.6622 28.0219Z" fill="#263238"/>
<path id="Vector_73" d="M49.243 28.8577L48.5209 30.3892L47.5395 32.474C47.6663 32.6523 47.7689 32.861 47.8423 33.09C48.0163 33.5925 48.1711 33.9669 47.4107 34.6868C47.3291 34.7595 47.2641 34.8633 47.2237 34.9858C47.1833 35.1083 47.1691 35.2443 47.1828 35.3777C47.228 35.7038 47.4612 36.0202 48.2807 35.8197C49.0706 35.6098 49.7913 35.0545 50.3374 34.235C50.6106 33.8558 50.548 33.5707 50.2852 33.177C49.5335 32.0657 49.3108 30.2902 49.243 28.8577Z" fill="#FFB573"/>
<path id="Vector_74" opacity="0.2" d="M47.7731 31.9598L48.3751 30.4741C48.3879 30.5128 48.4018 30.5538 48.4169 30.5973C48.4704 30.7808 48.5134 30.9698 48.5457 31.1626C48.6553 31.8221 48.2864 32.7642 47.881 33.2135L47.834 33.0855C47.761 32.8716 47.6673 32.6725 47.5556 32.4937C47.5485 32.4838 47.5403 32.4757 47.5312 32.4695L47.7731 31.9598Z" fill="black"/>
<path id="Vector_75" d="M44.1595 27.056C43.935 27.759 44.7302 29.7495 45.6402 28.9451C46.5502 28.1406 44.5562 25.8119 44.1595 27.056Z" fill="#263238"/>
<path id="Vector_76" d="M48.5469 36.2472C48.5349 36.2474 48.5233 36.2417 48.514 36.2311C48.5048 36.2205 48.4986 36.2056 48.4965 36.1892C48.4304 35.5925 48.1485 35.2229 47.8301 34.7736C47.4264 34.2252 46.9688 33.602 46.8191 32.3821C46.8168 32.3641 46.8197 32.3456 46.8272 32.3307C46.8348 32.3157 46.8462 32.3055 46.8591 32.3023C46.8721 32.2991 46.8854 32.3032 46.8961 32.3136C46.9069 32.324 46.9143 32.34 46.9166 32.3579C47.0627 33.5344 47.5082 34.1407 47.8997 34.6746C48.2216 35.1118 48.5243 35.5249 48.5957 36.1675C48.5969 36.1765 48.5968 36.1859 48.5953 36.1949C48.5939 36.2039 48.5911 36.2124 48.5872 36.2199C48.5833 36.2273 48.5783 36.2336 48.5726 36.2383C48.5669 36.243 48.5605 36.246 48.5539 36.2472H48.5469Z" fill="white"/>
<path id="Vector_77" d="M48.9163 26.3481C49.2643 28.5367 49.5358 29.7953 48.9737 31.1795C48.1246 33.2739 46.0018 32.9889 45.1945 30.9742C44.4671 29.1624 44.0339 25.8867 45.3859 24.4735C45.6883 24.1613 46.0427 23.9601 46.4161 23.8886C46.7895 23.8172 47.1699 23.8777 47.5219 24.0646C47.874 24.2516 48.1864 24.5589 48.4301 24.958C48.6739 25.3572 48.8411 25.8353 48.9163 26.3481Z" fill="#FFB573"/>
<path id="Vector_78" d="M49.3843 27.8506C48.8414 28.9208 47.4181 26.9568 47.5347 25.6378C46.1218 26.7539 44.5871 28.2444 43.6562 26.9882C42.5809 25.5388 42.875 23.4613 44.1347 23.2752C43.912 23.8792 45.1787 24.1473 45.8521 23.2149C46.9918 21.6495 48.7927 21.9756 48.7597 23.2438C49.6279 22.7655 50.5762 25.5001 49.3843 27.8506Z" fill="#263238"/>
<path id="Vector_79" d="M48.5922 23.5995C48.928 23.2516 48.7053 22.0124 47.9258 21.65C48.667 21.7829 49.4344 22.5487 48.5922 23.5995Z" fill="#263238"/>
<path id="Vector_80" d="M49.8877 27.7534C49.9026 28.2538 49.785 28.7445 49.5571 29.1327C49.2578 29.628 48.7967 29.2342 48.6871 28.6158C48.5914 28.0626 48.7149 27.205 49.1082 26.9393C49.5014 26.6735 49.8668 27.1301 49.8877 27.7534Z" fill="#FFB573"/>
<path id="Vector_81" d="M46.6557 28.1232C46.6975 28.2995 46.6662 28.4783 46.5826 28.5194C46.4991 28.5604 46.4087 28.4517 46.3582 28.2778C46.3077 28.1039 46.3477 27.9227 46.4313 27.8792C46.5148 27.8357 46.614 27.9444 46.6557 28.1232Z" fill="#263238"/>
<path id="Vector_82" d="M45.2297 28.8484C45.2732 29.0272 45.2401 29.206 45.1566 29.247C45.0731 29.2881 44.9739 29.1794 44.9322 29.0055C44.8904 28.8315 44.9235 28.6504 45.0052 28.6093C45.087 28.5682 45.1879 28.6721 45.2297 28.8484Z" fill="#263238"/>
<path id="Vector_83" d="M45.7182 28.7469C45.7239 29.2753 45.6794 29.8025 45.5859 30.3147C45.8417 30.4452 46.1236 30.1384 46.1236 30.1384L45.7182 28.7469Z" fill="#ED893E"/>
<path id="Vector_84" d="M46.4812 31.1206C46.6294 31.053 46.7661 30.9443 46.8831 30.801C47 30.6577 47.0948 30.4829 47.1616 30.2872C47.1656 30.2738 47.1657 30.2586 47.1618 30.245C47.1579 30.2315 47.1503 30.2206 47.1407 30.2148C47.1307 30.2099 47.1198 30.2104 47.1101 30.2162C47.1005 30.222 47.0927 30.2327 47.0885 30.2462C47.0138 30.4571 46.905 30.6414 46.7708 30.7847C46.6365 30.9279 46.4803 31.0264 46.3142 31.0723C46.3087 31.0733 46.3035 31.0758 46.2988 31.0797C46.2941 31.0836 46.29 31.0889 46.2868 31.095C46.2836 31.1012 46.2814 31.1083 46.2802 31.1157C46.279 31.1232 46.279 31.1309 46.2801 31.1383C46.2812 31.1458 46.2833 31.1529 46.2865 31.1591C46.2896 31.1654 46.2936 31.1707 46.2983 31.1747C46.3029 31.1787 46.3082 31.1813 46.3136 31.1824C46.319 31.1835 46.3246 31.183 46.3298 31.181C46.3812 31.1656 46.4318 31.1454 46.4812 31.1206Z" fill="#263238"/>
<path id="Vector_85" d="M46.7864 27.3554C46.7986 27.3474 46.8088 27.3348 46.816 27.3191C46.8271 27.2944 46.8308 27.2646 46.8263 27.2361C46.8217 27.2076 46.8093 27.1828 46.7917 27.167C46.6887 27.0705 46.5702 27.0108 46.4467 26.9931C46.3232 26.9754 46.1984 27.0003 46.0835 27.0655C46.0739 27.0715 46.0652 27.0801 46.058 27.0908C46.0509 27.1015 46.0453 27.1141 46.0418 27.1279C46.0382 27.1416 46.0366 27.1562 46.0372 27.1708C46.0378 27.1854 46.0405 27.1997 46.0452 27.2128C46.0546 27.2389 46.0709 27.2589 46.0908 27.2684C46.1106 27.2779 46.1324 27.2761 46.1513 27.2636C46.2421 27.2149 46.3399 27.1974 46.4365 27.2126C46.5332 27.2277 46.6258 27.2751 46.7064 27.3505C46.718 27.3618 46.7317 27.3682 46.7459 27.3691C46.7601 27.3699 46.7741 27.3652 46.7864 27.3554Z" fill="#263238"/>
<path id="Vector_86" d="M44.9472 27.7033C44.9506 27.6851 44.9506 27.666 44.9472 27.6477C44.9388 27.621 44.9231 27.5999 44.9036 27.589C44.8841 27.5782 44.8622 27.5784 44.8428 27.5898C44.727 27.6521 44.624 27.7534 44.5433 27.8845C44.4625 28.0156 44.4064 28.1725 44.38 28.341C44.3765 28.3695 44.3814 28.3988 44.3934 28.4224C44.4055 28.4459 44.4238 28.4618 44.4444 28.4667C44.4649 28.4715 44.486 28.4647 44.503 28.448C44.5199 28.4312 44.5314 28.4058 44.5349 28.3773C44.5575 28.2456 44.6029 28.1235 44.6672 28.0216C44.7315 27.9198 44.8127 27.8412 44.9037 27.7927C44.9159 27.7841 44.9262 27.7714 44.9338 27.7558C44.9414 27.7402 44.9461 27.7221 44.9472 27.7033Z" fill="#263238"/>
<path id="Vector_87" d="M53.7092 34.5452C53.8832 34.9365 54.0224 35.2892 54.1668 35.6661C54.3112 36.0429 54.4504 36.4101 54.5862 36.7869C54.8611 37.5382 55.1082 38.3113 55.3483 39.0988C55.5884 39.8863 55.7989 40.698 55.9799 41.5435C56.1779 42.4309 56.3108 43.3439 56.3766 44.2684C56.4118 44.8081 56.3983 45.3518 56.3366 45.8869C56.2969 46.2399 56.2195 46.5827 56.1069 46.9039C55.9766 47.267 55.7956 47.5905 55.5745 47.8557C55.3754 48.0959 55.1483 48.2871 54.9028 48.421C54.6969 48.5333 54.4828 48.6143 54.2643 48.6626C53.8953 48.7427 53.5204 48.7565 53.1489 48.7036C52.8172 48.6645 52.488 48.591 52.1641 48.4838C51.8549 48.3861 51.5494 48.2668 51.2488 48.1263C50.6582 47.8548 50.0844 47.5171 49.5332 47.1165L49.9734 45.4907C51.0557 45.7758 52.218 46.0391 53.1942 45.957C53.4076 45.9415 53.619 45.8912 53.824 45.8072C53.998 45.7347 54.0868 45.626 54.0798 45.5922C54.0729 45.5584 54.0694 45.5922 54.0659 45.568C54.0624 45.5439 54.0659 45.5415 54.0659 45.4183C54.0767 45.1468 54.065 44.8744 54.0311 44.6066C53.9479 43.9172 53.8179 43.2402 53.6431 42.5846C53.4691 41.8841 53.2585 41.1763 53.0306 40.4757C52.8027 39.7752 52.5573 39.0722 52.3085 38.3716C52.1832 38.0206 52.0539 37.6735 51.9205 37.3305L51.5272 36.3183L53.7092 34.5452Z" fill="#FFB573"/>
<path id="Vector_88" d="M52.8954 32.9287C51.2145 32.5735 50.388 34.5762 51.1797 37.5668C51.5885 39.1846 52.1022 40.7475 52.7144 42.2364L56.3388 40.0308C55.6794 37.0716 54.6145 33.2934 52.8954 32.9287Z" fill="#263238"/>
<path id="Vector_89" d="M49.0397 45.2676L48.2637 45.5913L49.3651 47.7654C49.3651 47.7654 50.9972 46.9537 50.6631 45.9681L50.2525 45.6444C49.901 45.3618 49.4556 45.0695 49.0397 45.2676Z" fill="#FFB573"/>
<path id="Vector_90" d="M47.5781 47.089L48.3559 48.1665L49.3668 47.763L48.2654 45.5913L47.5781 47.089Z" fill="#FFB573"/>
<path id="Vector_91" d="M49.274 28.4445C49.4124 28.4445 49.5246 28.2564 49.5246 28.0242C49.5246 27.7921 49.4124 27.6039 49.274 27.6039C49.1356 27.6039 49.0234 27.7921 49.0234 28.0242C49.0234 28.2564 49.1356 28.4445 49.274 28.4445Z" fill="white"/>
<path id="Vector_92" d="M49.4812 29.1356L49.3368 29.1283L49.248 28.1596L49.523 28.0751L49.4812 29.1356Z" fill="white"/>
<path id="Vector_93" d="M50.4781 47.3963C49.9561 47.3963 49.4932 47.2876 49.2131 46.9349C49.1086 46.7952 49.0273 46.6256 48.9747 46.4379C48.9221 46.2502 48.8996 46.0489 48.9086 45.8478C48.9245 44.8517 49.0363 43.863 49.2409 42.9079C49.4828 41.5914 49.6742 40.5526 49.093 39.2699C48.1674 37.2334 48.444 34.3853 49.093 32.6001C49.5889 31.2352 49.415 29.7133 49.3523 29.1529C49.3436 29.0804 49.3366 29.0224 49.3332 28.9838C49.3325 28.9747 49.3331 28.9655 49.335 28.9568C49.3369 28.948 49.34 28.9399 49.3443 28.9329C49.3485 28.9259 49.3537 28.9202 49.3596 28.9161C49.3654 28.9119 49.3718 28.9095 49.3784 28.9089C49.3915 28.9068 49.4047 28.912 49.4151 28.9233C49.4255 28.9346 49.4323 28.9511 49.4341 28.9693C49.4341 29.0055 49.4428 29.0611 49.4498 29.1311C49.5159 29.7133 49.6881 31.257 49.1766 32.6629C48.5415 34.4143 48.27 37.2044 49.1766 39.1853C49.7804 40.5164 49.575 41.6348 49.3366 42.9297C49.1362 43.8717 49.0268 44.8465 49.0113 45.8285C49.0019 46.0102 49.0211 46.1925 49.0677 46.3627C49.1143 46.5329 49.1871 46.687 49.281 46.8141C49.7508 47.4011 50.7878 47.2514 51.79 47.1064C52.239 47.0436 52.7035 46.976 53.1124 46.976C53.1258 46.976 53.1387 46.9834 53.1481 46.9965C53.1576 47.0096 53.1629 47.0275 53.1629 47.046C53.1629 47.0646 53.1576 47.0824 53.1481 47.0956C53.1387 47.1087 53.1258 47.1161 53.1124 47.1161C52.7088 47.1161 52.2424 47.1813 51.8005 47.2465C51.3618 47.3273 50.9204 47.3773 50.4781 47.3963Z" fill="white"/>
<path id="Vector_94" d="M55.1978 46.8789H53.2177C53.16 46.8789 53.1133 46.9438 53.1133 47.0239V47.2171C53.1133 47.2972 53.16 47.362 53.2177 47.362H55.1978C55.2555 47.362 55.3022 47.2972 55.3022 47.2171V47.0239C55.3022 46.9438 55.2555 46.8789 55.1978 46.8789Z" fill="white"/>
</g>
<g id="freepik--Desk--inject-136">
<path id="Vector_95" d="M67.623 48.9713H19.3763C19.2228 48.9707 19.0757 48.8857 18.9671 48.735C18.8585 48.5843 18.7973 48.38 18.7969 48.1669C18.7973 47.9537 18.8585 47.7495 18.9671 47.5987C19.0757 47.448 19.2228 47.3631 19.3763 47.3624H67.623C67.7765 47.3631 67.9237 47.448 68.0322 47.5987C68.1408 47.7495 68.202 47.9537 68.2024 48.1669C68.202 48.38 68.1408 48.5843 68.0322 48.735C67.9237 48.8857 67.7765 48.9707 67.623 48.9713Z" fill="#407BFF"/>
<path id="Vector_96" opacity="0.3" d="M67.6218 48.9713H56.3275C56.1739 48.9707 56.0268 48.8857 55.9183 48.735C55.8097 48.5843 55.7485 48.38 55.748 48.1669C55.7485 47.9537 55.8097 47.7495 55.9183 47.5987C56.0268 47.448 56.1739 47.3631 56.3275 47.3624H67.6218C67.7753 47.3631 67.9225 47.448 68.031 47.5987C68.1396 47.7495 68.2008 47.9537 68.2012 48.1669C68.2008 48.38 68.1396 48.5843 68.031 48.735C67.9225 48.8857 67.7753 48.9707 67.6218 48.9713Z" fill="#263238"/>
<path id="Vector_97" d="M67.09 86.8739H68.2018L66.9229 48.9714H65.3848L67.09 86.8739Z" fill="#263238"/>
<path id="Vector_98" opacity="0.1" d="M67.09 86.8739H68.2018L66.9229 48.9714H65.3848L67.09 86.8739Z" fill="white"/>
<path id="Vector_99" d="M56.8599 86.8739H55.748L57.0269 48.9714H58.5651L56.8599 86.8739Z" fill="#263238"/>
<path id="Vector_100" opacity="0.2" d="M56.8599 86.8739H55.748L57.0269 48.9714H58.5651L56.8599 86.8739Z" fill="white"/>
<path id="Vector_101" d="M30.1405 86.8739H31.2507L29.9718 48.9714H28.4336L30.1405 86.8739Z" fill="#263238"/>
<path id="Vector_102" opacity="0.1" d="M30.1405 86.8739H31.2507L29.9718 48.9714H28.4336L30.1405 86.8739Z" fill="white"/>
<path id="Vector_103" d="M19.9087 86.8739H18.7969L20.0758 48.9714H21.6139L19.9087 86.8739Z" fill="#263238"/>
<path id="Vector_104" opacity="0.2" d="M19.9087 86.8739H18.7969L20.0758 48.9714H21.6139L19.9087 86.8739Z" fill="white"/>
<path id="Vector_105" d="M57.5059 50.9888H20.4004V54.1654H57.5059V50.9888Z" fill="#263238"/>
<path id="Vector_106" opacity="0.2" d="M57.5059 50.9888H20.4004V54.1654H57.5059V50.9888Z" fill="white"/>
<path id="Vector_107" d="M26.5053 45.227C26.441 45.227 26.3793 45.2623 26.3337 45.3252C26.288 45.3881 26.2622 45.4736 26.2617 45.5628V47.0123C26.2617 47.1019 26.2874 47.188 26.3331 47.2514C26.3788 47.3148 26.4407 47.3505 26.5053 47.3505H34.3962C34.4171 47.3505 34.4372 47.3391 34.4522 47.3188C34.4672 47.2984 34.4758 47.2708 34.4763 47.2417V45.3237C34.4758 45.2946 34.4672 45.267 34.4522 45.2467C34.4372 45.2263 34.4171 45.215 34.3962 45.215L26.5053 45.227Z" fill="#407BFF"/>
<path id="Vector_108" opacity="0.9" d="M31.1761 45.4294H34.4821V47.1591H31.1761C31.1387 47.1591 31.1029 47.1385 31.0764 47.1018C31.05 47.0651 31.0352 47.0153 31.0352 46.9634V45.6227C31.0356 45.5712 31.0507 45.5221 31.077 45.4859C31.1034 45.4497 31.139 45.4294 31.1761 45.4294Z" fill="white"/>
<path id="Vector_109" d="M30.6325 45.2266H22.6616C22.527 45.2266 22.418 45.378 22.418 45.5648V47.0263C22.418 47.213 22.527 47.3645 22.6616 47.3645H30.6325C30.767 47.3645 30.8761 47.213 30.8761 47.0263V45.5648C30.8761 45.378 30.767 45.2266 30.6325 45.2266Z" fill="#407BFF"/>
<path id="Vector_110" opacity="0.2" d="M30.6325 45.2266H22.6616C22.527 45.2266 22.418 45.378 22.418 45.5648V47.0263C22.418 47.213 22.527 47.3645 22.6616 47.3645H30.6325C30.767 47.3645 30.8761 47.213 30.8761 47.0263V45.5648C30.8761 45.378 30.767 45.2266 30.6325 45.2266Z" fill="black"/>
<path id="Vector_111" opacity="0.5" d="M26.7108 45.2266H25.5015C25.4467 45.2266 25.4023 45.2882 25.4023 45.3643V47.2268C25.4023 47.3028 25.4467 47.3645 25.5015 47.3645H26.7108C26.7656 47.3645 26.81 47.3028 26.81 47.2268V45.3643C26.81 45.2882 26.7656 45.2266 26.7108 45.2266Z" fill="#407BFF"/>
<path id="Vector_112" opacity="0.5" d="M28.4571 45.2266H27.2496C27.1948 45.2266 27.1504 45.2882 27.1504 45.3643V47.2268C27.1504 47.3028 27.1948 47.3645 27.2496 47.3645H28.4571C28.5119 47.3645 28.5563 47.3028 28.5563 47.2268V45.3643C28.5563 45.2882 28.5119 45.2266 28.4571 45.2266Z" fill="#407BFF"/>
<path id="Vector_113" d="M25.0795 42.5937C25.0475 42.5937 25.0159 42.6024 24.9863 42.6194C24.9568 42.6364 24.9299 42.6614 24.9073 42.6928C24.8847 42.7242 24.8667 42.7614 24.8545 42.8025C24.8422 42.8435 24.8359 42.8875 24.8359 42.9319V44.8886C24.8359 44.933 24.8422 44.977 24.8545 45.018C24.8667 45.0591 24.8847 45.0964 24.9073 45.1278C24.9299 45.1592 24.9568 45.1841 24.9863 45.2011C25.0159 45.2181 25.0475 45.2268 25.0795 45.2268H33.6282C33.6491 45.2262 33.669 45.2142 33.6836 45.1934C33.6983 45.1727 33.7065 45.1448 33.7065 45.1157V42.7C33.7065 42.6709 33.6983 42.643 33.6836 42.6223C33.669 42.6015 33.6491 42.5895 33.6282 42.5889L25.0795 42.5937Z" fill="#407BFF"/>
<path id="Vector_114" opacity="0.9" d="M29.7543 42.8H33.711V45.0249H29.7543C29.7169 45.0249 29.681 45.0043 29.6546 44.9676C29.6282 44.9309 29.6133 44.8811 29.6133 44.8292V43.0006C29.6129 42.9745 29.6162 42.9485 29.623 42.9242C29.6299 42.8999 29.6402 42.8777 29.6534 42.8591C29.6665 42.8404 29.6822 42.8255 29.6995 42.8154C29.7168 42.8053 29.7355 42.8 29.7543 42.8Z" fill="white"/>
<path id="Vector_115" d="M29.2039 42.5941H22.5014C22.3669 42.5941 22.2578 42.7455 22.2578 42.9323V44.8866C22.2578 45.0734 22.3669 45.2248 22.5014 45.2248H29.2039C29.3384 45.2248 29.4475 45.0734 29.4475 44.8866V42.9323C29.4475 42.7455 29.3384 42.5941 29.2039 42.5941Z" fill="#407BFF"/>
<path id="Vector_116" opacity="0.2" d="M29.2039 42.5941H22.5014C22.3669 42.5941 22.2578 42.7455 22.2578 42.9323V44.8866C22.2578 45.0734 22.3669 45.2248 22.5014 45.2248H29.2039C29.3384 45.2248 29.4475 45.0734 29.4475 44.8866V42.9323C29.4475 42.7455 29.3384 42.5941 29.2039 42.5941Z" fill="white"/>
<path id="Vector_117" opacity="0.6" d="M28.574 43.1156H23.6655C23.5838 43.1156 23.5176 43.2075 23.5176 43.3209V44.4974C23.5176 44.6108 23.5838 44.7027 23.6655 44.7027H28.574C28.6557 44.7027 28.7219 44.6108 28.7219 44.4974V43.3209C28.7219 43.2075 28.6557 43.1156 28.574 43.1156Z" fill="#407BFF"/>
<path id="Vector_118" d="M27.5854 41.3351C27.4514 41.3351 27.3418 41.4245 27.3418 41.5332V42.3956C27.3418 42.5043 27.4514 42.5937 27.5854 42.5937H35.478C35.5215 42.5937 35.5563 42.5647 35.5563 42.5309V41.4003C35.5563 41.3641 35.5215 41.3351 35.478 41.3351H27.5854Z" fill="#407BFF"/>
<path id="Vector_119" opacity="0.9" d="M32.2251 41.4536H35.5572V42.473H32.2251C32.1965 42.473 32.169 42.4573 32.1488 42.4292C32.1286 42.4011 32.1172 42.363 32.1172 42.3233V41.5986C32.1181 41.5597 32.1299 41.5228 32.15 41.4958C32.1701 41.4687 32.197 41.4536 32.2251 41.4536Z" fill="white"/>
<path id="Vector_120" d="M31.77 41.3351H23.6842C23.5814 41.3351 23.498 41.4508 23.498 41.5936V42.3376C23.498 42.4804 23.5814 42.5961 23.6842 42.5961H31.77C31.8728 42.5961 31.9562 42.4804 31.9562 42.3376V41.5936C31.9562 41.4508 31.8728 41.3351 31.77 41.3351Z" fill="#407BFF"/>
<path id="Vector_121" opacity="0.2" d="M31.77 41.3351H23.6842C23.5814 41.3351 23.498 41.4508 23.498 41.5936V42.3376C23.498 42.4804 23.5814 42.5961 23.6842 42.5961H31.77C31.8728 42.5961 31.9562 42.4804 31.9562 42.3376V41.5936C31.9562 41.4508 31.8728 41.3351 31.77 41.3351Z" fill="black"/>
<path id="Vector_122" opacity="0.5" d="M24.7009 41.3351H24.4486C24.4285 41.3351 24.4121 41.3578 24.4121 41.3858V42.5454C24.4121 42.5734 24.4285 42.5961 24.4486 42.5961H24.7009C24.7211 42.5961 24.7375 42.5734 24.7375 42.5454V41.3858C24.7375 41.3578 24.7211 41.3351 24.7009 41.3351Z" fill="#407BFF"/>
<path id="Vector_123" opacity="0.5" d="M31.2641 41.3351H31.017C30.9968 41.3351 30.9805 41.3578 30.9805 41.3858V42.5454C30.9805 42.5734 30.9968 42.5961 31.017 42.5961H31.2641C31.2843 42.5961 31.3006 42.5734 31.3006 42.5454V41.3858C31.3006 41.3578 31.2843 41.3351 31.2641 41.3351Z" fill="#407BFF"/>
<path id="Vector_124" d="M26.1577 39.5137C26.0237 39.5137 25.9141 39.6031 25.9141 39.7118V41.1346C25.9141 41.2457 26.0237 41.3351 26.1577 41.3351H34.7063C34.7498 41.3351 34.7863 41.3061 34.7863 41.2699V39.5789C34.7863 39.5427 34.7498 39.5137 34.7063 39.5137H26.1577Z" fill="#407BFF"/>
<path id="Vector_125" opacity="0.9" d="M30.7973 39.6323H34.7872V41.2146H30.7973C30.7687 41.2146 30.7413 41.1988 30.7211 41.1707C30.7008 41.1427 30.6895 41.1046 30.6895 41.0648V39.7821C30.6895 39.7424 30.7008 39.7043 30.7211 39.6762C30.7413 39.6481 30.7687 39.6323 30.7973 39.6323Z" fill="white"/>
<path id="Vector_126" d="M30.3414 39.5137H23.5241C23.4212 39.5137 23.3379 39.6294 23.3379 39.7722V41.0766C23.3379 41.2194 23.4212 41.3351 23.5241 41.3351H30.3414C30.4442 41.3351 30.5276 41.2194 30.5276 41.0766V39.7722C30.5276 39.6294 30.4442 39.5137 30.3414 39.5137Z" fill="#407BFF"/>
<path id="Vector_127" opacity="0.1" d="M30.3414 39.5137H23.5241C23.4212 39.5137 23.3379 39.6294 23.3379 39.7722V41.0766C23.3379 41.2194 23.4212 41.3351 23.5241 41.3351H30.3414C30.4442 41.3351 30.5276 41.2194 30.5276 41.0766V39.7722C30.5276 39.6294 30.4442 39.5137 30.3414 39.5137Z" fill="black"/>
<path id="Vector_128" d="M45.2256 46.9611H38.0446C38.0061 46.9611 37.9692 46.9821 37.9419 47.0196C37.9145 47.0572 37.8989 47.1082 37.8984 47.1616C37.8989 47.215 37.9145 47.266 37.9419 47.3035C37.9692 47.341 38.0061 47.3621 38.0446 47.3621H45.2256C45.2639 47.3621 45.3006 47.3409 45.3277 47.3033C45.3548 47.2657 45.37 47.2147 45.37 47.1616C45.37 47.1084 45.3548 47.0574 45.3277 47.0198C45.3006 46.9822 45.2639 46.9611 45.2256 46.9611Z" fill="white"/>
<path id="Vector_129" d="M59.274 46.483H63.9928L64.4191 47.3406H58.8477L59.274 46.483Z" fill="#263238"/>
<path id="Vector_130" d="M66.5612 31.8462C66.5612 32.0206 66.524 32.1911 66.4542 32.3361C66.3844 32.4811 66.2852 32.5941 66.1692 32.6608C66.0531 32.7276 65.9254 32.745 65.8022 32.711C65.679 32.677 65.5659 32.593 65.477 32.4697C65.3882 32.3464 65.3277 32.1893 65.3032 32.0182C65.2787 31.8472 65.2913 31.6699 65.3394 31.5088C65.3874 31.3477 65.4688 31.21 65.5733 31.1131C65.6777 31.0162 65.8005 30.9645 65.9261 30.9645C66.0096 30.9642 66.0923 30.9868 66.1694 31.031C66.2466 31.0752 66.3167 31.1401 66.3757 31.222C66.4347 31.304 66.4815 31.4013 66.5133 31.5084C66.5452 31.6155 66.5614 31.7303 66.5612 31.8462Z" fill="black"/>
<path id="Vector_131" d="M61.7911 47.0625C61.758 47.0624 61.7255 47.0509 61.6963 47.0292C61.6672 47.0075 61.6423 46.9762 61.6239 46.938C61.6055 46.8999 61.5942 46.856 61.5909 46.8103C61.5875 46.7646 61.5924 46.7185 61.6049 46.676L66.1515 31.7372C66.175 31.6748 66.2145 31.627 66.2622 31.6032C66.3099 31.5794 66.3623 31.5814 66.409 31.6088C66.4557 31.6362 66.4933 31.6869 66.5143 31.751C66.5352 31.8151 66.538 31.8878 66.5222 31.9546L61.9755 46.891C61.9602 46.9415 61.9346 46.9846 61.9018 47.0151C61.8691 47.0456 61.8306 47.062 61.7911 47.0625Z" fill="#263238"/>
<path id="Vector_132" d="M66.3353 32.1291C66.2921 32.1284 66.2501 32.109 66.2152 32.0735L57.9589 23.476C57.9165 23.4318 57.8884 23.366 57.8809 23.293C57.8734 23.2201 57.8871 23.146 57.9189 23.0871C57.9508 23.0281 57.9982 22.9892 58.0507 22.9787C58.1032 22.9683 58.1566 22.9873 58.1991 23.0315L66.4571 31.6242C66.4905 31.6598 66.515 31.7089 66.5273 31.7648C66.5395 31.8207 66.5389 31.8805 66.5255 31.9358C66.5121 31.9912 66.4865 32.0393 66.4524 32.0735C66.4183 32.1078 66.3774 32.1263 66.3353 32.1267V32.1291Z" fill="#263238"/>
<path id="Vector_133" d="M66.9714 31.8462C66.9714 32.0206 66.9341 32.1911 66.8643 32.3361C66.7946 32.4811 66.6954 32.5941 66.5793 32.6608C66.4633 32.7276 66.3356 32.745 66.2124 32.711C66.0892 32.677 65.976 32.593 65.8872 32.4697C65.7984 32.3464 65.7379 32.1893 65.7134 32.0182C65.6889 31.8472 65.7014 31.6699 65.7495 31.5088C65.7976 31.3477 65.879 31.21 65.9834 31.1131C66.0879 31.0162 66.2107 30.9645 66.3363 30.9645C66.4197 30.9642 66.5024 30.9868 66.5796 31.031C66.6567 31.0752 66.7268 31.1401 66.7859 31.222C66.8449 31.304 66.8917 31.4013 66.9235 31.5084C66.9553 31.6155 66.9716 31.7303 66.9714 31.8462Z" fill="#263238"/>
<path id="Vector_134" d="M58.0787 24.1327C58.4285 24.1327 58.712 23.739 58.712 23.2533C58.712 22.7677 58.4285 22.374 58.0787 22.374C57.7289 22.374 57.4453 22.7677 57.4453 23.2533C57.4453 23.739 57.7289 24.1327 58.0787 24.1327Z" fill="#263238"/>
<path id="Vector_135" d="M57.1914 27.2734C56.9928 27.5491 56.7398 27.7368 56.4644 27.8129C56.189 27.8889 55.9035 27.8499 55.6441 27.7007C55.3846 27.5515 55.1629 27.2989 55.0069 26.9747C54.8509 26.6505 54.7676 26.2694 54.7676 25.8795C54.7676 25.4897 54.8509 25.1086 55.0069 24.7844C55.1629 24.4602 55.3846 24.2076 55.6441 24.0584C55.9035 23.9092 56.189 23.8701 56.4644 23.9462C56.7398 24.0223 56.9928 24.21 57.1914 24.4857C57.4572 24.8557 57.6065 25.3569 57.6065 25.8795C57.6065 26.4022 57.4572 26.9034 57.1914 27.2734Z" fill="#407BFF"/>
<path id="Vector_136" opacity="0.7" d="M57.1914 27.2734C56.9928 27.5491 56.7398 27.7368 56.4644 27.8129C56.189 27.8889 55.9035 27.8499 55.6441 27.7007C55.3846 27.5515 55.1629 27.2989 55.0069 26.9747C54.8509 26.6505 54.7676 26.2694 54.7676 25.8795C54.7676 25.4897 54.8509 25.1086 55.0069 24.7844C55.1629 24.4602 55.3846 24.2076 55.6441 24.0584C55.9035 23.9092 56.189 23.8701 56.4644 23.9462C56.7398 24.0223 56.9928 24.21 57.1914 24.4857C57.4572 24.8557 57.6065 25.3569 57.6065 25.8795C57.6065 26.4022 57.4572 26.9034 57.1914 27.2734Z" fill="white"/>
<path id="Vector_137" d="M58.0786 23.2538C57.7963 22.8615 57.4611 22.5502 57.092 22.3378C56.723 22.1254 56.3275 22.0161 55.928 22.0161C55.5285 22.0161 55.133 22.1254 54.7639 22.3378C54.3949 22.5502 54.0597 22.8615 53.7773 23.2538L58.0786 29.2303C58.3616 28.8381 58.586 28.3723 58.7392 27.8596C58.8923 27.3468 58.9712 26.7972 58.9712 26.2421C58.9712 25.687 58.8923 25.1373 58.7392 24.6246C58.586 24.1118 58.3616 23.646 58.0786 23.2538Z" fill="#263238"/>
<g id="Group_4" opacity="0.2">
<path id="Vector_138" d="M53.7776 23.2539L35.7129 47.3627H54.2456L58.0806 29.228L53.7776 23.2539Z" fill="#407BFF"/>
<path id="Vector_139" opacity="0.7" d="M53.7776 23.2539L35.7129 47.3627H54.2456L58.0806 29.228L53.7776 23.2539Z" fill="white"/>
</g>
</g>
</g>
</svg>
