<svg width="46" height="47" viewBox="0 0 46 47" fill="none" xmlns="http://www.w3.org/2000/svg">
<path d="M23 45.5313C18.7353 45.5313 14.5665 44.2392 11.0205 41.8183C7.47459 39.3975 4.71087 35.9567 3.07886 31.931C1.44684 27.9053 1.01983 23.4756 1.85183 19.2019C2.68382 14.9283 4.73745 11.0027 7.75302 7.92156C10.7686 4.84044 14.6107 2.74216 18.7934 1.89208C22.9761 1.042 27.3116 1.4783 31.2516 3.14579C35.1917 4.81328 38.5593 7.63708 40.9286 11.2601C43.2979 14.8831 44.5625 19.1426 44.5625 23.5C44.5625 29.3431 42.2908 34.9468 38.247 39.0785C34.2032 43.2101 28.7187 45.5313 23 45.5313ZM23 2.93751C19.0197 2.93751 15.1287 4.14348 11.8192 6.40292C8.50962 8.66235 5.93015 11.8738 4.40693 15.6311C2.88372 19.3884 2.48518 23.5228 3.26171 27.5116C4.03823 31.5003 5.95495 35.1642 8.76949 38.0399C11.584 40.9156 15.1699 42.874 19.0738 43.6674C22.9777 44.4608 27.0242 44.0536 30.7015 42.4973C34.3789 40.941 37.522 38.3054 39.7333 34.9239C41.9447 31.5424 43.125 27.5669 43.125 23.5C43.125 18.0465 41.0047 12.8163 37.2305 8.96013C33.4564 5.10391 28.3375 2.93751 23 2.93751Z" fill="#8690FA"/>
<path d="M23 41.125C32.5269 41.125 40.25 33.234 40.25 23.5C40.25 13.766 32.5269 5.875 23 5.875C13.4731 5.875 5.75 13.766 5.75 23.5C5.75 33.234 13.4731 41.125 23 41.125Z" fill="#3F2975"/>
<path d="M16.6599 20.3231C16.7831 20.4528 16.9306 20.5559 17.0936 20.6263C17.2566 20.6967 17.4317 20.733 17.6086 20.733C17.7856 20.733 17.9607 20.6967 18.1237 20.6263C18.2866 20.5559 18.4341 20.4528 18.5574 20.3231L21.648 17.1653V33.116C21.648 33.2973 21.683 33.4768 21.7509 33.6443C21.8188 33.8118 21.9183 33.964 22.0438 34.0922C22.1693 34.2204 22.3182 34.3221 22.4822 34.3915C22.6461 34.4609 22.8218 34.4966 22.9993 34.4966C23.1767 34.4966 23.3524 34.4609 23.5164 34.3915C23.6803 34.3221 23.8293 34.2204 23.9547 34.0922C24.0802 33.964 24.1797 33.8118 24.2476 33.6443C24.3156 33.4768 24.3505 33.2973 24.3505 33.116V17.1653L27.4411 20.3231C27.5644 20.4528 27.7119 20.5559 27.8748 20.6263C28.0378 20.6967 28.2129 20.733 28.3899 20.733C28.5668 20.733 28.742 20.6967 28.9049 20.6263C29.0679 20.5559 29.2154 20.4528 29.3386 20.3231C29.4642 20.1949 29.5639 20.0427 29.6319 19.8751C29.6999 19.7075 29.7349 19.5278 29.7349 19.3464C29.7349 19.165 29.6999 18.9854 29.6319 18.8178C29.5639 18.6502 29.4642 18.4979 29.3386 18.3697L23.948 12.8766C23.8229 12.7528 23.6767 12.6532 23.5168 12.5828C23.1837 12.4515 22.8148 12.4515 22.4818 12.5828C22.3218 12.6532 22.1757 12.7528 22.0505 12.8766L16.6599 18.3697C16.5343 18.4979 16.4346 18.6502 16.3666 18.8178C16.2986 18.9854 16.2636 19.165 16.2636 19.3464C16.2636 19.5278 16.2986 19.7075 16.3666 19.8751C16.4346 20.0427 16.5343 20.1949 16.6599 20.3231Z" fill="#8690FA"/>
</svg>
