<svg width="101" height="101" viewBox="0 0 101 101" fill="none" xmlns="http://www.w3.org/2000/svg">
<g id="verify fingerprint" clip-path="url(#clip0_1135_4097)">
<path id="Vector" d="M50.5 101C78.3904 101 101 78.3904 101 50.5C101 22.6096 78.3904 0 50.5 0C22.6096 0 0 22.6096 0 50.5C0 78.3904 22.6096 101 50.5 101Z" fill="#8BDC36"/>
<path id="Vector_2" d="M29.593 61.347C29.6814 61.2385 29.7472 61.1135 29.7866 60.9792C29.8261 60.845 29.8384 60.7043 29.8228 60.5652C29.8072 60.4262 29.764 60.2917 29.6958 60.1695C29.6276 60.0474 29.5357 59.9401 29.4255 59.8539C29.3153 59.7677 29.189 59.7043 29.054 59.6675C28.919 59.6307 28.7781 59.6212 28.6394 59.6395C28.5007 59.6579 28.367 59.7037 28.2462 59.7743C28.1255 59.8449 28.02 59.9389 27.936 60.0508C27.3863 60.7524 26.7315 61.3649 25.9949 61.8667C25.5783 62.1507 25.1595 62.4674 24.6756 62.8651C24.4641 63.0437 24.3315 63.2983 24.3065 63.574C24.2815 63.8496 24.3661 64.124 24.542 64.3376C24.7179 64.5513 24.9709 64.6871 25.2462 64.7155C25.5215 64.7439 25.7969 64.6627 26.0128 64.4895C26.4462 64.1318 26.8166 63.852 27.1795 63.6037C28.0958 62.9807 28.91 62.2194 29.593 61.347ZM35.5078 54.8998C35.5078 54.7603 35.4524 54.6265 35.3537 54.5278C35.2551 54.4292 35.1213 54.3737 34.9818 54.3737C34.8423 54.3737 34.7085 54.4292 34.6098 54.5278C34.5112 54.6265 34.4557 54.7603 34.4557 54.8998C34.4557 59.2386 32.2895 63.3049 28.6609 65.7783C28.2653 66.0477 27.8592 66.3643 27.4194 66.7473C27.3386 66.8177 27.2812 66.9111 27.255 67.015C27.2287 67.1189 27.2348 67.2284 27.2724 67.3287C27.3101 67.429 27.3775 67.5155 27.4656 67.5765C27.5537 67.6375 27.6584 67.6701 27.7655 67.67C27.8886 67.67 28.0117 67.6279 28.1117 67.5406C28.5188 67.185 28.8923 66.8935 29.2532 66.6474C33.169 63.9793 35.5078 59.5868 35.5078 54.8998ZM47.6394 36.5672C46.682 36.5357 45.7162 36.6083 44.7672 36.7798C38.1054 37.9791 33.27 43.9771 33.5204 50.7314C33.5305 51.0035 33.6456 51.261 33.8416 51.45C34.0376 51.6389 34.2992 51.7445 34.5715 51.7446L34.6114 51.7435C34.7495 51.7384 34.8853 51.7061 35.0109 51.6485C35.1365 51.5908 35.2495 51.509 35.3435 51.4077C35.4375 51.3064 35.5106 51.1876 35.5587 51.058C35.6067 50.9284 35.6288 50.7906 35.6236 50.6525C35.411 44.9387 39.5026 39.8655 45.1407 38.8503C45.9428 38.7043 46.7582 38.644 47.5731 38.6704C47.8515 38.6775 48.1216 38.5745 48.3246 38.3839C48.5277 38.1933 48.6474 37.9303 48.6578 37.6519C48.6666 37.373 48.5642 37.1021 48.3733 36.8987C48.1823 36.6952 47.9183 36.576 47.6394 36.5672ZM51.2133 60.944C51.2812 60.9566 51.3508 60.9558 51.4183 60.9414C51.4858 60.9271 51.5499 60.8996 51.6067 60.8605C51.6636 60.8214 51.7122 60.7715 51.7498 60.7136C51.7873 60.6558 51.8131 60.591 51.8256 60.5232C52.5033 56.8477 52.5115 53.08 51.8498 49.4016C51.389 46.8345 48.925 45.1238 46.3516 45.5804C45.107 45.8045 44.0244 46.5 43.3027 47.5384C42.581 48.5768 42.3074 49.834 42.5315 51.0786C42.8689 52.9611 42.9556 54.8799 42.7893 56.7851C42.7832 56.854 42.7908 56.9234 42.8116 56.9894C42.8324 57.0553 42.8659 57.1165 42.9104 57.1695C42.9549 57.2225 43.0093 57.2661 43.0707 57.298C43.1321 57.3299 43.1991 57.3494 43.268 57.3554C43.4065 57.3657 43.5436 57.3215 43.6501 57.2323C43.7566 57.1431 43.8241 57.0159 43.8382 56.8777C44.0135 54.8794 43.9226 52.8667 43.5678 50.8924C43.4808 50.4166 43.489 49.9283 43.5919 49.4557C43.6949 48.9831 43.8905 48.5356 44.1675 48.1391C44.4423 47.741 44.7934 47.4014 45.2005 47.14C45.6076 46.8787 46.0625 46.7008 46.5389 46.6167C47.4999 46.4454 48.4895 46.662 49.291 47.2192C50.0925 47.7763 50.6404 48.6285 50.8146 49.5889C51.4541 53.142 51.4462 56.7814 50.7914 60.3317C50.7663 60.4688 50.7965 60.6104 50.8756 60.7252C50.9548 60.84 51.0762 60.9187 51.2133 60.944ZM54.438 48.9355C54.4625 49.0715 54.5136 49.2014 54.5883 49.3177C54.663 49.434 54.7599 49.5344 54.8734 49.6132C54.9869 49.6921 55.1148 49.7478 55.2499 49.7772C55.3849 49.8066 55.5245 49.8091 55.6605 49.7846C55.7965 49.76 55.9264 49.709 56.0426 49.6343C56.1589 49.5595 56.2593 49.4627 56.3382 49.3491C56.417 49.2356 56.4727 49.1077 56.5021 48.9726C56.5315 48.8376 56.534 48.6981 56.5095 48.562C56.2922 47.337 55.834 46.1673 55.1615 45.1205C54.489 44.0738 53.6155 43.1709 52.5915 42.4642C51.5722 41.7515 50.4216 41.2481 49.2064 40.9832C47.9912 40.7183 46.7355 40.6971 45.5121 40.9208C44.8097 41.0472 44.1237 41.2519 43.4668 41.531C43.2101 41.6403 43.0074 41.8472 42.9032 42.1061C42.799 42.3649 42.802 42.6546 42.9113 42.9113C43.0207 43.168 43.2276 43.3707 43.4865 43.4749C43.7453 43.5791 44.035 43.5762 44.2917 43.4668C44.8032 43.2494 45.3375 43.0899 45.8845 42.9913C46.836 42.8168 47.8126 42.8331 48.7577 43.0392C49.7028 43.2453 50.5976 43.637 51.3901 44.1917C52.1868 44.7414 52.8664 45.4437 53.3896 46.258C53.9128 47.0724 54.2691 47.9825 54.438 48.9355ZM24.4357 39.4131C24.6807 39.5464 24.9686 39.577 25.2361 39.498C25.5036 39.4191 25.7289 39.2372 25.8623 38.9923C30.2306 30.9586 38.5631 25.9685 47.6068 25.9685C48.5011 25.9685 49.4037 26.018 50.2875 26.1158C50.565 26.1464 50.8433 26.0655 51.0611 25.8908C51.2789 25.7162 51.4184 25.4622 51.449 25.1847C51.4795 24.9073 51.3986 24.629 51.224 24.4112C51.0494 24.1933 50.7954 24.0538 50.5179 24.0232C49.5512 23.9171 48.5793 23.864 47.6068 23.8644C37.7908 23.8644 28.7513 29.2763 24.0138 37.9875C23.9479 38.1088 23.9065 38.242 23.892 38.3792C23.8775 38.5165 23.8902 38.6553 23.9294 38.7877C23.9686 38.9201 24.0335 39.0435 24.1203 39.1508C24.2072 39.2581 24.3144 39.3472 24.4357 39.4131ZM43.37 29.0143C39.716 29.6601 36.2935 31.2477 33.4405 33.6203C33.3331 33.7095 33.2654 33.8377 33.2525 33.9767C33.2396 34.1157 33.2824 34.2541 33.3716 34.3615C33.4607 34.469 33.5889 34.5366 33.7279 34.5495C33.8669 34.5624 34.0053 34.5196 34.1128 34.4305C36.8267 32.1743 40.0819 30.6648 43.5573 30.0506C46.3316 29.5555 49.1779 29.6351 51.9202 30.2846C54.6624 30.9341 57.2421 32.1397 59.4995 33.8266C59.5548 33.8679 59.6177 33.898 59.6846 33.9151C59.7515 33.9322 59.8211 33.9359 59.8894 33.9261C59.9577 33.9163 60.0235 33.8931 60.0828 33.8579C60.1422 33.8227 60.1941 33.7761 60.2355 33.7208C60.2768 33.6656 60.3069 33.6027 60.324 33.5358C60.3411 33.4689 60.3448 33.3993 60.335 33.331C60.3252 33.2626 60.302 33.1969 60.2668 33.1375C60.2316 33.0781 60.185 33.0263 60.1297 32.9849C57.7569 31.2108 55.0449 29.943 52.162 29.26C49.2791 28.577 46.2866 28.4934 43.37 29.0143ZM22.8355 55.5815C22.5174 53.9713 22.3571 52.3339 22.3568 50.6925C22.3568 47.7772 22.8607 44.9113 23.8528 42.178C23.8929 42.0486 23.8816 41.9087 23.8213 41.7874C23.761 41.6661 23.6563 41.5726 23.5289 41.5265C23.4016 41.4803 23.2613 41.485 23.1373 41.5395C23.0132 41.594 22.915 41.6942 22.8628 41.8192C21.8297 44.6634 21.3023 47.6665 21.3047 50.6925C21.3047 52.399 21.472 54.1128 21.8023 55.7856C21.8294 55.9226 21.9098 56.0433 22.0258 56.121C22.1418 56.1988 22.284 56.2272 22.421 56.2002C22.558 56.1731 22.6786 56.0927 22.7563 55.9767C22.8341 55.8607 22.8625 55.7185 22.8355 55.5815ZM24.8102 60.1265C26.5683 58.9282 27.6172 56.9755 27.6172 54.8998C27.6172 54.5242 27.5835 54.1475 27.5172 53.7825C27.001 50.9243 27.1145 47.9879 27.8499 45.1782C28.5853 42.3684 29.9248 39.7529 31.775 37.5141C31.863 37.4075 31.9291 37.2846 31.9695 37.1525C32.01 37.0204 32.024 36.8816 32.0108 36.744C31.9976 36.6065 31.9575 36.4729 31.8926 36.3508C31.8278 36.2288 31.7396 36.1207 31.633 36.0328C31.5264 35.9448 31.4035 35.8788 31.2714 35.8383C31.1393 35.7978 31.0005 35.7838 30.8629 35.797C30.7254 35.8102 30.5918 35.8503 30.4697 35.9152C30.3477 35.98 30.2396 36.0682 30.1517 36.1748C28.1066 38.6493 26.6261 41.5402 25.8135 44.6458C25.0009 47.7514 24.8757 50.997 25.4467 54.156C25.4909 54.3979 25.513 54.6483 25.513 54.8987C25.513 56.278 24.8071 57.5815 23.6256 58.3864C23.4491 58.5089 23.2768 58.6373 23.109 58.7715L22.8639 58.9619C22.7502 59.0435 22.6539 59.1469 22.5807 59.2661C22.5075 59.3854 22.4588 59.518 22.4375 59.6563C22.4161 59.7946 22.4226 59.9358 22.4565 60.0716C22.4904 60.2073 22.5511 60.3349 22.6349 60.447C22.7187 60.559 22.8241 60.6532 22.9448 60.724C23.0654 60.7949 23.199 60.8409 23.3377 60.8595C23.4764 60.878 23.6174 60.8687 23.7525 60.8321C23.8875 60.7955 24.0139 60.7323 24.1243 60.6463L24.4094 60.4264C24.5399 60.3254 24.6703 60.2223 24.8102 60.1265ZM43.5584 61.2491C43.5964 61.1163 43.6078 60.9772 43.5921 60.84C43.5763 60.7027 43.5337 60.5699 43.4667 60.4491C43.3996 60.3283 43.3094 60.2219 43.2012 60.1359C43.093 60.05 42.969 59.9862 42.8361 59.9482C42.7033 59.9102 42.5642 59.8988 42.427 59.9145C42.2897 59.9302 42.1569 59.9728 42.0361 60.0399C41.9153 60.107 41.8089 60.1972 41.7229 60.3054C41.637 60.4136 41.5732 60.5376 41.5352 60.6705C40.2538 65.1355 37.45 69.1218 33.6404 71.8972C33.4148 72.0616 33.2637 72.3088 33.2204 72.5846C33.1771 72.8603 33.2451 73.1419 33.4094 73.3675C33.5738 73.5931 33.821 73.7442 34.0968 73.7875C34.3725 73.8308 34.6541 73.7628 34.8797 73.5985C39.066 70.5485 42.1475 66.1634 43.5584 61.2491ZM56.4864 52.8009C56.4685 52.5116 56.2202 52.2748 55.9309 52.3064C55.7916 52.3145 55.6614 52.3776 55.5686 52.4818C55.4759 52.586 55.4283 52.7227 55.4364 52.8619C55.4764 53.5415 55.4974 54.2212 55.4974 54.8998C55.4974 62.5632 52.8672 70.0992 48.0907 76.1182C48.0291 76.1956 47.9905 76.2888 47.9795 76.3872C47.9686 76.4856 47.9856 76.585 48.0287 76.6741C48.0718 76.7632 48.1393 76.8383 48.2232 76.8907C48.3071 76.9431 48.4042 76.9707 48.5032 76.9704C48.5825 76.9706 48.6608 76.9529 48.7322 76.9184C48.8037 76.884 48.8664 76.8337 48.9156 76.7715C53.8467 70.5464 56.5364 62.8413 56.5505 54.8998C56.5496 54.1997 56.5282 53.4997 56.4864 52.8009ZM60.7578 54.8998C60.7573 52.5562 60.5485 50.2174 60.1339 47.9108C59.7433 45.7004 58.7905 43.6276 57.3672 41.8919C55.9438 40.1563 54.0978 38.816 52.0066 38.0002C51.8767 37.949 51.7318 37.9515 51.6037 38.0071C51.4757 38.0627 51.375 38.167 51.3238 38.2969C51.2726 38.4268 51.2751 38.5717 51.3307 38.6997C51.3864 38.8278 51.4906 38.9285 51.6205 38.9797C53.5445 39.7302 55.243 40.9633 56.5525 42.5602C57.862 44.1572 58.7385 46.0643 59.0976 48.0981C59.5006 50.3401 59.7047 52.6283 59.7047 54.9008C59.7041 58.5 59.1944 62.081 58.1907 65.5374C58.1517 65.6713 58.1674 65.8153 58.2345 65.9376C58.3016 66.06 58.4145 66.1506 58.5484 66.1897C58.6824 66.2288 58.8263 66.213 58.9487 66.1459C59.071 66.0789 59.1617 65.9659 59.2007 65.832C60.2331 62.2797 60.7574 58.5991 60.7578 54.8998ZM57.7899 68.4675C57.6618 68.4155 57.5248 68.3893 57.3866 68.3904C57.2484 68.3915 57.1118 68.4198 56.9845 68.4737C56.8573 68.5277 56.742 68.6062 56.6451 68.7048C56.5482 68.8033 56.4718 68.92 56.4201 69.0482C55.5747 71.1328 54.5467 73.1385 53.348 75.0419C53.2721 75.1588 53.2201 75.2896 53.1951 75.4268C53.1702 75.5639 53.1727 75.7047 53.2026 75.8408C53.2325 75.977 53.2892 76.1058 53.3693 76.2199C53.4495 76.334 53.5515 76.431 53.6694 76.5053C53.7874 76.5796 53.9189 76.6297 54.0564 76.6527C54.1939 76.6758 54.3345 76.6713 54.4703 76.6395C54.606 76.6077 54.734 76.5492 54.847 76.4675C54.9599 76.3858 55.0555 76.2824 55.1281 76.1634C56.394 74.1544 57.4791 72.037 58.3706 69.8362C58.4749 69.5777 58.4724 69.2883 58.3635 69.0317C58.2546 68.775 58.0483 68.5721 57.7899 68.4675ZM41.5773 43.8803C41.368 43.6959 41.094 43.6022 40.8157 43.6198C40.5373 43.6373 40.2773 43.7647 40.0928 43.9739C39.1443 45.0429 38.4515 46.3137 38.0669 47.6901C37.6823 49.0665 37.6159 50.5124 37.8729 51.9182C38.0497 52.8987 38.1391 53.9014 38.1391 54.8998C38.1391 57.4143 37.5573 59.9414 36.4568 62.2086C36.3349 62.4596 36.3176 62.7487 36.4089 63.0124C36.5001 63.2761 36.6924 63.4928 36.9434 63.6147C37.1944 63.7367 37.4835 63.7539 37.7472 63.6626C38.0109 63.5714 38.2276 63.3791 38.3495 63.1281C39.5916 60.5631 40.2389 57.7508 40.2432 54.9008C40.2432 53.7783 40.1422 52.6483 39.9434 51.5468C39.7439 50.453 39.7958 49.3281 40.0951 48.2573C40.3943 47.1865 40.9332 46.1977 41.6709 45.3658C41.8554 45.1563 41.9491 44.8822 41.9315 44.6037C41.914 44.3251 41.7866 44.0649 41.5773 43.8803ZM74.4023 51.7719C74.417 51.4121 74.4349 51.0523 74.4349 50.6915C74.4349 38.7219 66.3486 28.0938 54.7736 24.847C54.5049 24.7715 54.2172 24.8059 53.9738 24.9425C53.7304 25.0792 53.5513 25.3069 53.4758 25.5756C53.4003 25.8443 53.4347 26.132 53.5713 26.3754C53.708 26.6187 53.9357 26.7979 54.2044 26.8733C64.8767 29.8665 72.3307 39.6614 72.3307 50.6915C72.3307 50.8724 72.3234 51.0544 72.3192 51.2354C71.9741 51.1902 71.6266 51.1663 71.2787 51.1638C70.6999 51.1638 70.1228 51.2237 69.5564 51.3427C69.4365 49.6609 69.229 47.9865 68.9346 46.3264C68.2087 42.2707 66.3604 38.4997 63.5995 35.4415C63.5069 35.339 63.3949 35.2557 63.2701 35.1965C63.1453 35.1372 63.01 35.1031 62.872 35.0961C62.7341 35.0891 62.596 35.1094 62.4659 35.1558C62.3357 35.2021 62.216 35.2736 62.1134 35.3663C62.0109 35.4589 61.9277 35.5708 61.8684 35.6957C61.8091 35.8205 61.775 35.9557 61.768 36.0937C61.7611 36.2317 61.7813 36.3697 61.8277 36.4999C61.874 36.6301 61.9456 36.7498 62.0382 36.8524C64.5358 39.6192 66.2077 43.0308 66.8641 46.6999C67.1829 48.4716 67.3859 50.2706 67.4964 52.0728C66.5273 52.5632 65.6617 53.2359 64.9472 54.0539C64.9056 51.7434 64.6812 49.4399 64.276 47.1649C62.58 37.7498 53.5374 31.4615 44.1149 33.1564C34.6946 34.8523 28.4094 43.896 30.1054 53.3175C30.3168 54.4872 30.2911 55.6876 30.0296 56.8472C30.0125 56.9152 30.0092 56.9859 30.0199 57.0552C30.0305 57.1245 30.0549 57.191 30.0916 57.2507C30.1283 57.3104 30.1766 57.3622 30.2336 57.403C30.2906 57.4438 30.3552 57.4728 30.4235 57.4883C30.4919 57.5038 30.5627 57.5055 30.6317 57.4933C30.7007 57.481 30.7666 57.4551 30.8255 57.417C30.8844 57.379 30.935 57.3295 30.9745 57.2716C31.014 57.2136 31.0415 57.1484 31.0554 57.0797C31.3474 55.7825 31.3764 54.4399 31.1406 53.1312C29.5478 44.2822 35.451 35.7866 44.3001 34.1927C53.1502 32.6009 61.6468 38.5073 63.2386 47.3532C63.6858 49.8351 63.913 52.3748 63.913 54.9019C63.913 55.1123 63.9078 55.3206 63.9046 55.53C63.2189 56.7706 62.8598 58.1651 62.8609 59.5826C62.8609 60.0024 62.902 60.4117 62.9619 60.8157C62.9209 61.1018 62.882 61.389 62.8357 61.6731C62.2134 65.4576 61.0768 69.1392 59.4574 72.6158C59.3991 72.741 59.3661 72.8764 59.3601 73.0144C59.3541 73.1523 59.3754 73.2901 59.4227 73.4199C59.47 73.5496 59.5423 73.6688 59.6357 73.7705C59.729 73.8723 59.8415 73.9547 59.9667 74.013C60.0918 74.0713 60.2273 74.1044 60.3652 74.1103C60.5032 74.1163 60.641 74.095 60.7707 74.0477C60.9004 74.0005 61.0196 73.9281 61.1214 73.8348C61.2231 73.7414 61.3055 73.629 61.3638 73.5038C62.7086 70.6054 63.7344 67.5695 64.4233 64.4495C65.1992 65.5457 66.2264 66.4401 67.4189 67.0577C68.6115 67.6753 69.9346 67.9982 71.2776 67.9993C75.9183 67.9993 79.6943 64.2234 79.6943 59.5826C79.6953 56.0445 77.4996 53.0155 74.4023 51.7719ZM75.9678 57.6941L70.7074 62.9545C70.6099 63.0526 70.494 63.1304 70.3663 63.1835C70.2387 63.2366 70.1018 63.2639 69.9636 63.2639C69.8253 63.2639 69.6884 63.2366 69.5608 63.1835C69.4331 63.1304 69.3172 63.0526 69.2197 62.9545L66.5895 60.3243C66.3922 60.1271 66.2814 59.8595 66.2814 59.5805C66.2814 59.3015 66.3922 59.034 66.5895 58.8367C66.7868 58.6394 67.0544 58.5286 67.3333 58.5286C67.6123 58.5286 67.8799 58.6394 68.0772 58.8367L69.9636 60.7231L74.4801 56.2065C74.5778 56.1088 74.6938 56.0313 74.8214 55.9784C74.949 55.9256 75.0858 55.8984 75.224 55.8984C75.3621 55.8984 75.4989 55.9256 75.6265 55.9784C75.7542 56.0313 75.8701 56.1088 75.9678 56.2065C76.0655 56.3042 76.143 56.4201 76.1958 56.5477C76.2487 56.6754 76.2759 56.8122 76.2759 56.9503C76.2759 57.0884 76.2487 57.2252 76.1958 57.3529C76.143 57.4805 76.0655 57.5964 75.9678 57.6941ZM35.532 66.5537C35.5759 66.5003 35.6088 66.4388 35.6289 66.3727C35.649 66.3066 35.6559 66.2371 35.6491 66.1683C35.6424 66.0996 35.6222 66.0328 35.5896 65.9718C35.5571 65.9109 35.5128 65.8569 35.4594 65.813C35.406 65.7692 35.3445 65.7363 35.2784 65.7162C35.2123 65.6961 35.1428 65.6892 35.0741 65.6959C35.0053 65.7027 34.9385 65.7229 34.8775 65.7555C34.8166 65.788 34.7626 65.8322 34.7188 65.8856C33.6563 67.1796 32.4138 68.3144 31.0291 69.2555C30.8067 69.4098 30.5908 69.5734 30.3821 69.7457C30.2765 69.8348 30.2102 69.9618 30.1975 70.0993C30.1848 70.2369 30.2267 70.3739 30.3141 70.4808C30.4015 70.5877 30.5275 70.656 30.6648 70.6708C30.8022 70.6856 30.9398 70.6458 31.048 70.5601C31.2325 70.4071 31.4234 70.2621 31.6204 70.1255C33.0887 69.1285 34.406 67.9256 35.532 66.5537ZM48.2265 50.0539C48.1769 49.7792 48.0203 49.5354 47.791 49.3762C47.5618 49.217 47.2786 49.1553 47.0039 49.2049C46.7292 49.2544 46.4855 49.411 46.3262 49.6403C46.167 49.8695 46.1054 50.1527 46.1549 50.4274C46.42 51.8992 46.5547 53.4048 46.5547 54.8998C46.5547 62.2128 43.3564 69.1745 37.7793 73.9983C37.5714 74.1818 37.4444 74.4399 37.4258 74.7165C37.4073 74.9932 37.4987 75.266 37.6801 75.4756C37.8616 75.6852 38.1185 75.8147 38.395 75.836C38.6714 75.8572 38.9451 75.7684 39.1564 75.589C45.1954 70.3654 48.6599 62.8241 48.6599 54.8998C48.6588 53.2749 48.5137 51.6532 48.2265 50.0539ZM50.5126 63.7678C50.2485 63.6774 49.9593 63.6955 49.7086 63.8182C49.4578 63.9409 49.2661 64.1582 49.1754 64.4222C47.793 68.4517 45.4647 72.2318 42.4421 75.3533C42.2986 75.5018 42.202 75.6892 42.1642 75.8922C42.1265 76.0952 42.1493 76.3048 42.2298 76.4949C42.3103 76.685 42.445 76.8472 42.6171 76.9614C42.7892 77.0755 42.991 77.1364 43.1975 77.1366C43.3385 77.1368 43.4781 77.1084 43.608 77.0533C43.7378 76.9982 43.8551 76.9174 43.9529 76.8157C47.1891 73.4743 49.6836 69.4249 51.1649 65.1039C51.2099 64.9734 51.2287 64.8352 51.2202 64.6974C51.2117 64.5596 51.1762 64.4248 51.1156 64.3007C51.0551 64.1766 50.9706 64.0657 50.8672 63.9743C50.7637 63.8828 50.6432 63.8127 50.5126 63.7678Z" fill="white"/>
</g>
<defs>
<clipPath id="clip0_1135_4097">
<rect width="101" height="101" fill="white"/>
</clipPath>
</defs>
</svg>
