<svg width="26" height="9" viewBox="0 0 26 9" fill="none" xmlns="http://www.w3.org/2000/svg">
<g id="Group">
<path id="Vector" d="M10.9451 8.05436H8.88494L10.1725 0.141393H12.2329L10.9451 8.05436ZM7.15181 0.141393L5.18775 5.58399L4.95534 4.41199L4.95555 4.41241L4.26234 0.853865C4.26234 0.853865 4.17852 0.141393 3.28507 0.141393H0.0381001L0 0.275379C0 0.275379 0.99293 0.481965 2.15498 1.17983L3.94484 8.05457H6.09136L9.36902 0.141393H7.15181ZM23.356 8.05436H25.2476L23.5983 0.141182H21.9423C21.1775 0.141182 20.9912 0.730886 20.9912 0.730886L17.9187 8.05436H20.0663L20.4957 6.87897H23.1147L23.356 8.05436ZM21.089 5.25527L22.1715 2.29405L22.7805 5.25527H21.089ZM18.0798 2.04428L18.3738 0.345017C18.3738 0.345017 17.4666 0 16.5208 0C15.4985 0 13.0707 0.446829 13.0707 2.61959C13.0707 4.66387 15.9201 4.68927 15.9201 5.76306C15.9201 6.83685 13.3642 6.64444 12.5207 5.96732L12.2145 7.74405C12.2145 7.74405 13.1344 8.19088 14.5398 8.19088C15.9457 8.19088 18.0666 7.46296 18.0666 5.48175C18.0666 3.42435 15.1916 3.23279 15.1916 2.33829C15.1918 1.44357 17.1982 1.5585 18.0798 2.04428Z" fill="#2566AF"/>
</g>
</svg>
