<svg width="110" height="147" viewBox="0 0 110 147" fill="none" xmlns="http://www.w3.org/2000/svg">
<path d="M73.3356 0C75.7666 0.000520356 78.0978 0.968828 79.8165 2.69194L107.316 30.2544C109.035 31.9773 110 34.3138 110 36.75H73.3356V0ZM64.169 45.9375H64.1667V0H9.16667C6.73552 0 4.40394 0.967966 2.68485 2.69096C0.965771 4.41395 0 6.75082 0 9.1875L0 137.812C0 140.249 0.965771 142.586 2.68485 144.309C4.40394 146.032 6.73552 147 9.16667 147H100.833C103.264 147 105.596 146.032 107.315 144.309C109.034 142.586 110 140.249 110 137.812V45.9375H64.169Z" fill="#E0E0E0"/>
</svg>
