<svg width="144" height="145" viewBox="0 0 144 145" fill="none" xmlns="http://www.w3.org/2000/svg">
<path d="M141.001 17.8675L110.602 45.3235C109.238 41.7921 107.076 38.5555 104.253 35.8192C101.43 33.0829 98.0077 30.9068 94.2037 29.4291L124.003 2.51517C124.252 2.28574 124.391 1.97661 124.39 1.65506C124.388 1.3335 124.246 1.02553 123.994 0.798149C123.742 0.570771 123.401 0.442387 123.045 0.44093C122.689 0.439474 122.347 0.565064 122.093 0.790373L91.4177 28.4956C85.1516 26.7158 78.4096 26.8588 72.243 28.9025C66.0764 30.9462 60.832 34.7756 57.3277 39.7935C53.8235 44.8114 52.2563 50.7356 52.8707 56.6422C53.4852 62.5489 56.2466 68.1058 60.7244 72.4463C65.2022 76.7869 71.1445 79.6671 77.6246 80.6376C84.1048 81.6082 90.7584 80.6146 96.5478 77.8118C102.337 75.0089 106.937 70.5545 109.629 65.1432C112.322 59.7319 112.956 53.6679 111.432 47.897C111.587 47.8381 111.728 47.7535 111.848 47.6477L142.911 19.5923C143.16 19.3629 143.299 19.0538 143.298 18.7322C143.296 18.4107 143.154 18.1027 142.902 17.8753C142.65 17.6479 142.309 17.5195 141.953 17.5181C141.597 17.5166 141.255 17.6422 141.001 17.8675ZM109.542 54.104C109.537 55.9161 109.307 57.7218 108.857 59.4878C108.075 59.3343 107.299 59.1144 106.493 58.8796C102.986 57.8575 99.0115 56.7003 92.3655 60.6735C90.3451 61.8609 88.612 63.4058 87.2709 65.2147C84.3486 63.9893 81.5154 62.5976 78.7884 61.0479C83.4014 57.3252 96.9441 45.5277 100.405 35.8623C103.274 38.1429 105.573 40.9491 107.148 44.0944C108.724 47.2397 109.54 50.6519 109.542 54.104ZM105.029 67.5773C99.9162 67.9621 94.7698 67.4433 89.8771 66.05C90.98 64.7346 92.3281 63.6027 93.8611 62.7052C99.421 59.3811 102.452 60.2656 105.664 61.2019C106.458 61.433 107.274 61.6618 108.128 61.8382C107.379 63.866 106.337 65.7957 105.029 67.5773ZM69.8449 52.9846C72.015 52.0658 74.0591 50.9215 75.9358 49.5751C81.5431 45.6083 81.6124 40.2598 81.6737 35.5409C81.5862 33.5836 81.796 31.6247 82.2971 29.7188C82.3759 29.7182 82.452 29.7081 82.531 29.7081C88.1225 29.7079 93.5744 31.2853 98.125 34.2198C95.3679 44.1385 80.012 56.9986 76.6862 59.5785C74.2686 57.5 71.9844 55.2984 69.8449 52.9846ZM79.4597 29.8777C79.0855 31.736 78.9222 33.624 78.9726 35.5123C78.9158 39.8864 78.8572 44.4094 74.27 47.6549C72.4385 48.9736 70.4283 50.0759 68.2881 50.9354C65.4475 46.8604 63.5643 42.3018 62.7552 37.5422C67.1283 33.2641 73.0553 30.5446 79.4597 29.8777ZM65.6872 51.7823C62.3875 52.6537 58.8459 52.3744 55.7634 50.9997C56.3222 47.0428 57.954 43.2718 60.5139 40.0213C61.4882 44.178 63.2375 48.155 65.6872 51.7823ZM55.5481 53.599C57.5103 54.3335 59.6136 54.7114 61.7377 54.711C63.6002 54.695 65.449 54.4219 67.22 53.901C69.3842 56.3364 71.7214 58.6421 74.2169 60.8035C70.9594 62.1188 67.5295 63.0537 64.0102 63.5855C62.1098 63.8687 60.1899 64.0315 58.2644 64.0727C58.2043 64.0738 58.1444 64.0786 58.085 64.087L57.9531 64.1054C57.943 64.1068 57.9381 64.1178 57.9285 64.1201C56.3435 60.9748 55.5222 57.5597 55.5197 54.104C55.5197 53.9335 55.5442 53.7686 55.5481 53.599ZM59.2825 66.4622C65.2614 66.2444 71.1253 64.9085 76.5033 62.5389C79.5444 64.3407 82.7133 65.9602 85.9894 67.3868C84.5344 70.8983 84.5491 74.7688 86.0309 78.2711C80.7774 78.9308 75.4254 78.1594 70.6601 76.0556C65.8949 73.9518 61.9333 70.6115 59.2825 66.4622ZM88.7207 77.8282C87.3216 74.7658 87.2492 71.3402 88.5179 68.2318C92.7952 69.5082 97.2718 70.1559 101.777 70.1502C102.132 70.1502 102.492 70.1347 102.85 70.1265C99.1452 73.9625 94.2048 76.6555 88.7207 77.8282ZM141.001 37.3843L117.555 58.5603C117.429 58.6736 117.33 58.808 117.262 58.956C117.194 59.104 117.159 59.2626 117.159 59.4228C117.159 59.583 117.194 59.7416 117.262 59.8895C117.33 60.0375 117.429 60.172 117.555 60.2852C117.856 60.4031 118.181 60.4639 118.51 60.4639C118.838 60.4639 119.163 60.4031 119.464 60.2852L142.911 39.1091C143.16 38.8797 143.299 38.5705 143.298 38.249C143.296 37.9274 143.154 37.6194 142.902 37.3921C142.65 37.1647 142.309 37.0363 141.953 37.0348C141.597 37.0334 141.255 37.159 141.001 37.3843ZM93.3355 84.599H6.89934C5.3924 84.5943 3.92734 85.0466 2.73884 85.8834C1.55034 86.7202 0.707178 87.893 0.344407 89.214C-0.0183643 90.535 0.120251 91.9278 0.738051 93.1692C1.35585 94.4106 2.41708 95.4288 3.75176 96.0608C3.79732 96.1715 3.86088 96.2755 3.94036 96.3693C3.99181 96.4235 9.10193 101.971 12.6498 115.247C14.0621 120.648 15.0224 126.137 15.5224 131.668C15.5224 131.668 16.0718 139.706 16.0968 143.157C16.0991 143.479 16.2424 143.787 16.4954 144.014C16.7485 144.242 17.0907 144.369 17.4474 144.369H17.456C17.8142 144.367 18.1568 144.236 18.4084 144.006C18.6601 143.776 18.8002 143.465 18.798 143.141C18.7799 140.682 18.6717 138.209 18.5219 135.741L22.715 139.38L19.3981 142.273C19.1408 142.498 18.9932 142.806 18.9875 143.13C18.9818 143.453 19.1186 143.766 19.3677 143.998C19.6671 144.12 19.991 144.186 20.3195 144.19C20.6479 144.195 20.974 144.139 21.2775 144.025L24.6643 141.071L28.0719 144.028C28.3756 144.141 28.7018 144.196 29.0302 144.19C29.3586 144.185 29.6822 144.118 29.981 143.995C30.104 143.88 30.2007 143.744 30.2655 143.594C30.3303 143.445 30.3619 143.286 30.3585 143.126C30.3552 142.966 30.3169 142.808 30.2459 142.661C30.1749 142.514 30.0725 142.382 29.9447 142.271L26.608 139.376L33.3049 133.534L39.7484 139.156L36.1858 142.273C35.9284 142.498 35.7805 142.806 35.7746 143.129C35.7686 143.453 35.9052 143.765 36.1542 143.997C36.4534 144.12 36.7773 144.185 37.1058 144.19C37.4342 144.195 37.7603 144.139 38.0639 144.026L41.6922 140.852L45.3305 144.027C45.6343 144.14 45.9605 144.195 46.2889 144.19C46.6174 144.185 46.9411 144.119 47.2403 143.996C47.4889 143.763 47.625 143.451 47.6185 143.127C47.6121 142.804 47.4637 142.496 47.206 142.271L43.6337 139.154L50.1346 133.468L56.632 139.148L53.0547 142.272C52.7973 142.497 52.6493 142.806 52.6434 143.129C52.6375 143.452 52.774 143.765 53.023 143.997C53.3223 144.12 53.6461 144.185 53.9746 144.19C54.3031 144.195 54.6292 144.139 54.9328 144.026L58.5739 140.846L62.2111 144.026C62.5147 144.139 62.8408 144.195 63.1693 144.19C63.4978 144.185 63.8216 144.12 64.1209 143.997C64.3699 143.765 64.5064 143.452 64.5005 143.129C64.4946 142.806 64.3466 142.497 64.0893 142.272L60.5168 139.149L66.9715 133.512L73.6641 139.343L70.2915 142.269C70.1635 142.38 70.0609 142.513 69.9897 142.66C69.9185 142.806 69.8799 142.964 69.8763 143.124C69.8727 143.284 69.9041 143.444 69.9686 143.593C70.0332 143.742 70.1297 143.878 70.2525 143.994C70.5512 144.117 70.8747 144.184 71.2031 144.19C71.5314 144.196 71.8577 144.141 72.1617 144.029L75.6091 141.038L79.0398 144.027C79.3435 144.14 79.6696 144.195 79.9981 144.19C80.3265 144.185 80.6504 144.119 80.9495 143.997C81.1984 143.764 81.3347 143.452 81.3285 143.128C81.3223 142.805 81.1742 142.497 80.9166 142.272L77.5585 139.346L81.7126 135.742C81.5632 138.205 81.455 140.678 81.4369 143.141C81.4346 143.465 81.5748 143.776 81.8264 144.006C82.0781 144.236 82.4208 144.367 82.779 144.369H82.7875C83.1442 144.369 83.4865 144.242 83.7395 144.014C83.9925 143.787 84.1358 143.479 84.1381 143.157C84.1631 139.706 84.6729 132.048 84.7145 131.676C85.2014 126.141 86.1611 120.648 87.5851 115.246C91.133 101.971 96.243 96.4235 96.2945 96.3693C96.3748 96.2753 96.439 96.171 96.4851 96.0598C97.8194 95.4276 98.8801 94.4092 99.4975 93.1678C100.115 91.9264 100.253 90.5338 99.8902 89.213C99.5272 87.8922 98.684 86.7197 97.4956 85.8831C96.3072 85.0465 94.8423 84.5943 93.3355 84.599ZM7.56382 96.7969H8.18931L23.023 109.765L16.472 115.453L15.1759 114.322C13.6762 108.155 11.1072 102.24 7.56382 96.7969ZM83.9233 118.977C83.2375 122.149 82.7057 125.491 82.3069 128.946L77.2506 124.535L83.769 118.843L83.9233 118.977ZM75.3066 122.839L68.7875 117.152L75.2806 111.473L81.8204 117.151L75.3066 122.839ZM17.9243 128.934C17.52 125.48 16.9873 122.145 16.306 118.981L16.4672 118.841L22.9794 124.524L17.9243 128.934ZM18.4159 117.15L24.9652 111.463L31.4508 117.134L24.9235 122.828L18.4159 117.15ZM56.548 109.867L50.139 115.457L43.6953 109.843L50.1084 104.249L56.548 109.867ZM52.0525 102.553L58.5144 96.9157L64.9697 102.52L58.4922 108.171L52.0525 102.553ZM41.7502 108.149L35.2778 102.51L41.7117 96.9237L48.1645 102.553L41.7502 108.149ZM39.8061 109.845L33.3949 115.438L26.9138 109.772L33.3291 104.202L39.8061 109.845ZM33.3925 118.831L39.8248 124.455L33.3052 130.142L26.8668 124.524L33.3925 118.831ZM35.3365 117.135L41.7511 111.539L48.1949 117.153L41.7689 122.759L35.3365 117.135ZM50.1402 118.848L56.5657 124.446L50.1341 130.072L43.7108 124.456L50.1402 118.848ZM52.0843 117.152L58.4921 111.563L64.9021 117.154L58.5073 122.748L52.0843 117.152ZM66.8461 118.85L73.3636 124.536L66.9693 130.121L60.4525 124.443L66.8461 118.85ZM66.8436 115.456L60.4362 109.867L66.9184 104.212L73.3321 109.781L66.8436 115.456ZM68.8624 102.517L75.4192 96.7969H88.1762L75.2735 108.083L68.8624 102.517ZM66.9136 100.825L62.2745 96.7969H71.5309L66.9136 100.825ZM50.1085 100.857L45.4546 96.7969H54.7625L50.1085 100.857ZM33.3323 100.815L28.7208 96.7969H37.9598L33.3323 100.815ZM24.8299 96.7969L31.3835 102.507L24.9716 108.074L12.073 96.7969H24.8299ZM24.6587 137.684L18.2773 132.147L18.266 132.027L24.9227 126.22L31.361 131.838L24.6587 137.684ZM41.6899 137.458L35.2491 131.838L41.7669 126.152L48.1927 131.77L41.6899 137.458ZM58.575 137.452L52.0759 131.77L58.511 126.141L65.0263 131.817L58.575 137.452ZM68.9146 131.815L75.3076 126.232L81.9682 132.043L81.9584 132.146L75.6135 137.652L68.9146 131.815ZM85.0588 114.323L83.7636 115.454L77.2222 109.775L92.059 96.7969H92.671C89.1275 102.24 86.5584 108.155 85.0588 114.323ZM93.3355 94.3573H6.89934C5.82477 94.3573 4.7942 93.9718 4.03436 93.2855C3.27452 92.5993 2.84765 91.6685 2.84765 90.698C2.84765 89.7274 3.27452 88.7966 4.03436 88.1104C4.7942 87.4241 5.82477 87.0386 6.89934 87.0386H93.3355C94.4101 87.0386 95.4407 87.4241 96.2005 88.1104C96.9603 88.7966 97.3872 89.7274 97.3872 90.698C97.3872 91.6685 96.9603 92.5993 96.2005 93.2855C95.4407 93.9718 94.4101 94.3573 93.3355 94.3573Z" fill="#1B3D6F"/>
</svg>
