<svg width="179" height="110" viewBox="0 0 179 110" fill="none" xmlns="http://www.w3.org/2000/svg">
<g id="Group 437">
<path id="Vector" fill-rule="evenodd" clip-rule="evenodd" d="M68.3323 107.103C42.6652 108.85 15.2289 88.1035 15.2289 62.8543C15.2289 37.6039 55.912 48.3649 69.1091 28.3246C100.73 -19.6587 164.566 57.5549 142.124 66.1727C97.1573 83.4281 129.902 102.907 68.3323 107.103Z" fill="#F0EFF4"/>
<path id="Vector_2" d="M138.461 61.8391C138.475 61.9064 138.509 61.9694 138.524 62.0367C138.637 62.6677 138.709 63.0967 138.634 63.6481C138.455 64.8266 137.631 65.9687 138.107 67.4614C138.62 69.5768 141.211 70.863 141.908 68.7661C142.308 67.3809 141.628 65.6951 140.867 64.1651C140.443 63.3449 139.955 62.5595 139.407 61.816C140.007 61.7767 140.596 61.6448 141.156 61.4252C141.273 61.3787 141.37 61.3364 141.488 61.2894C141.521 61.3062 141.576 61.3185 141.609 61.3355C142.637 60.8999 143.479 60.4773 144.524 60.2016C146.322 59.6845 148.598 59.1663 148.768 57.2431C148.787 56.6328 148.227 56.0197 147.642 55.5747C146.852 55.0447 145.887 54.8416 144.95 55.0082C143.336 55.2094 142.222 56.1753 141.618 57.3674C141.246 58.1171 141.075 58.9674 140.958 59.8303C140.933 60.2553 140.832 60.7184 140.938 61.1642C140.252 61.4392 139.494 61.5418 138.689 61.5604C138.65 61.5498 138.608 61.5498 138.569 61.5604C138.281 61.5674 137.993 61.554 137.707 61.5202C137.641 60.2032 138.178 58.9776 138.649 57.7186C138.802 57.2217 139.011 56.7374 139.064 56.1902C139.477 56.3159 139.905 56.3885 140.336 56.4063C141.134 56.4593 141.812 55.9989 141.508 55.2423C140.965 54.2294 139.081 53.7369 138.06 53.5414C137.191 53.4087 136.308 53.3865 135.433 53.4754C135.312 53.4792 135.193 53.495 135.075 53.5224C135.588 53.0248 136.08 52.5315 136.559 52.0171C136.988 51.5828 137.393 51.1065 137.809 50.6511C139.172 50.9428 140.413 51.7017 141.675 52.4564C143.208 53.4378 144.81 54.4989 146.379 54.0033C147.7 53.5334 147.63 51.8673 146.128 50.8564C144.606 49.8498 142.779 49.416 141.163 49.3141C140.506 49.2717 139.848 49.2844 139.193 49.352C139.128 49.3647 139.052 49.3565 138.965 49.3735L140.092 48.1719C140.728 47.51 141.377 46.869 142.014 46.207C142.09 46.2152 142.188 46.2193 142.287 46.2233C142.703 46.2815 142.878 46.2935 143.306 46.3726C144.372 46.6059 145.454 46.9529 146.518 47.1399C147.538 47.3092 148.575 47.348 149.605 47.2554C150.353 47.1778 151.145 47.0922 151.764 46.7837C152.883 46.2133 152.992 44.9086 151.396 43.9864C150.002 43.2658 148.422 42.9832 146.865 43.1755C146.454 43.2563 145.965 43.2822 145.602 43.4471L145.295 43.1574L145.339 43.149C146.223 42.6715 147.199 42.316 148.197 41.9559C149.507 41.5112 150.906 41.0959 152.324 40.6301C152.915 40.9569 153.427 41.2294 154.036 41.7165C155.669 43.0048 156.834 45.0852 158.421 46.5924C159.51 47.6377 162.365 49.4789 163.737 49.2319C166.57 48.7209 161.184 44.672 159.902 43.7111C158.43 42.6247 156.846 41.7231 155.244 40.9186C154.713 40.6471 154.165 40.4121 153.603 40.2153C155.482 39.5885 157.339 38.9198 159.06 38.1376C159.37 38.0065 159.669 37.8544 159.946 37.7066L159.979 37.7233C160.189 37.7986 160.433 37.8907 160.654 37.9869C161.008 38.104 161.732 38.498 161.877 38.5861C164.702 40.2463 166.468 43.1417 169.538 44.6836C170.83 45.3626 172.459 45.7882 173.491 45.1885C175.194 43.7335 171.422 41.023 169.687 39.8949C168.044 38.8885 166.263 38.2362 164.49 37.7684C163.602 37.5211 162.695 37.3486 161.778 37.2524C161.492 37.216 161.204 37.2025 160.916 37.2122C163.045 36.0963 165.036 34.7334 166.846 33.1516C166.934 33.1807 167.033 33.1849 167.121 33.2142C167.629 33.3574 168.127 33.532 168.613 33.737C169.866 34.2603 170.816 34.8428 171.95 35.6697C173.353 36.6765 174.764 37.8685 176.437 38.2858C177.018 38.3813 177.686 38.4598 178.077 38.1729C178.413 37.8734 178.488 37.322 178.141 36.8305C177.662 36.0614 176.81 35.4822 176.004 34.9415C175.269 34.4491 174.5 34.0078 173.705 33.6209C172.74 33.1339 171.727 32.747 170.683 32.466C169.849 32.2303 169.001 32.0466 168.144 31.9161C168.457 31.5745 168.769 31.2331 169.07 30.8706L169.092 30.8663C170.39 30.144 171.914 29.6106 172.782 28.46C173.132 27.9712 173.436 27.4445 173.397 26.7756C173.412 25.8162 172.026 24.9692 171.031 24.8619C169.99 24.7164 169.285 25.299 169.032 26.0485C168.767 26.9875 169.007 28.0599 168.94 29.0531C168.925 29.5209 168.864 29.9861 168.758 30.442C168.749 30.464 168.744 30.488 168.745 30.5121C168.746 30.5362 168.752 30.5597 168.764 30.5809C168.401 31.0024 168.037 31.424 167.63 31.854C167.332 32.1661 167.017 32.4617 166.687 32.7397C166.868 32.1207 166.806 31.4097 166.439 30.7124C166.211 30.2205 165.652 29.864 165.1 29.6927C163.855 29.3546 163.511 30.2389 164.019 31.1887C164.399 31.9538 165.233 32.8863 165.202 33.4295C165.208 33.5783 165.203 33.7274 165.188 33.8757C165.173 33.9005 165.165 33.9285 165.165 33.9571C165.164 33.9858 165.171 34.0142 165.184 34.0397C164.301 34.7324 163.374 35.3669 162.409 35.9391C162.759 35.1936 163.019 34.3725 162.784 33.439C162.575 32.5936 161.709 31.6908 160.688 31.7518C159.732 31.8003 159.089 32.3234 158.568 32.8925C157.513 33.9635 157.336 35.7479 156.933 37.0406C156.752 37.6595 156.449 38.2324 156.135 38.7842C156.106 38.8601 155.989 38.9529 156.005 39.0665C153.538 39.9722 151.009 40.7266 148.431 41.561C147.325 41.9421 146.23 42.3441 145.229 42.868C145.665 42.3622 146.08 41.8605 146.483 41.338C146.997 41.3999 147.462 41.3317 147.757 41.0869C148.083 40.8127 147.941 40.2577 147.523 39.8966C147.737 39.5511 147.973 39.2014 148.175 38.8349C149.302 39.4763 150.388 39.9157 151.244 39.5605C151.969 39.1845 151.414 38.1505 150.653 37.6473C150.332 37.428 149.992 37.2372 149.638 37.0771C150.012 36.7949 150.41 36.545 150.826 36.3302C152.681 35.3585 154.891 34.8073 156.482 33.5366C157.284 32.9121 158.182 32.2454 158.401 31.2224C158.472 30.8352 158.495 30.3639 158.152 29.9649C156.847 28.7053 155.073 29.5212 154.069 29.9988C153.206 30.4271 152.468 31.0707 151.926 31.8675C151.391 32.6259 151.047 33.5103 150.635 34.3611C150.461 34.7123 150.268 35.054 150.057 35.3849C150.108 35.3049 150.148 35.2038 150.199 35.1237C150.579 34.3024 150.891 33.4475 151.204 32.5927C151.248 32.5842 151.257 32.5589 151.3 32.5504C151.318 32.5386 151.333 32.523 151.343 32.5048C151.354 32.4865 151.36 32.4661 151.361 32.4451C151.356 32.3984 151.339 32.3538 151.312 32.3147C151.322 32.2895 151.332 32.2642 151.354 32.2599C151.384 32.2663 151.415 32.2622 151.442 32.2483C151.469 32.2345 151.491 32.2117 151.503 32.1839C152.066 30.7899 153.825 28.3205 152.454 26.514C152.269 26.3462 152.028 26.2524 151.778 26.2504C151.124 26.2391 150.784 26.7027 150.574 27.1407C150.098 28.2611 150.065 29.574 150.394 30.9324C150.48 31.3137 150.586 31.69 150.714 32.0593C150.761 32.1434 150.765 32.236 150.833 32.3158C150.619 32.4045 150.417 32.5145 150.203 32.6032C149.994 31.9393 149.846 31.2581 149.758 30.5677C149.633 29.6591 149.497 28.2161 148.421 27.4946C148.256 27.4012 148.062 27.3743 147.877 27.4194C147.693 27.4644 147.533 27.5781 147.429 27.7371C146.977 28.386 147.191 29.3239 147.52 30.1689C147.811 30.9035 148.199 31.596 148.673 32.2283C148.87 32.5002 149.092 32.7533 149.336 32.9842L149.348 33.0053C149.018 33.1869 148.689 33.3685 148.391 33.5669C147.268 34.3015 146.314 35.2124 145.371 36.098C145.277 36.1866 145.192 36.2499 145.098 36.3385C144.971 36.1536 144.865 35.9644 144.759 35.7753C144.415 35.1568 144.119 34.5133 143.872 33.85C143.445 32.7442 142.845 30.9026 141.412 29.9716C140.953 29.6654 140.446 29.7885 140.252 30.0834C139.935 30.589 140.261 31.3415 140.516 31.968C140.974 33.0442 141.704 34.0903 142.518 35.0732C142.999 35.6318 143.468 36.1693 144.002 36.6942C144.126 36.7865 144.23 36.9294 144.363 36.9964C143.734 37.5869 143.084 38.1815 142.433 38.7762C141.851 37.6077 141.48 36.5607 141.016 35.3457C140.567 34.2443 140.104 33.0759 139.117 32.1266C138.314 31.4215 137.417 31.5748 137.185 32.2738C136.754 33.4319 137.297 34.9581 138.026 36.2605C138.504 37.0546 139.076 37.7881 139.729 38.4448C140.12 38.8447 140.532 39.2231 140.964 39.5783C141.076 39.6496 141.178 39.7462 141.289 39.8175C140.985 40.0874 140.671 40.3826 140.366 40.6526L139.452 41.4624C139.431 41.4667 139.409 41.4709 139.421 41.4915C139.399 41.4958 139.411 41.5168 139.411 41.5168C139.179 41.7025 138.937 41.9134 138.705 42.0988L138.684 42.103C137.905 40.4132 136.974 38.7068 135.559 37.1657C134.908 36.4307 134.18 35.6875 133.286 35.1634C132.293 34.5891 130.77 34.0958 130.631 35.2196C130.579 36.3264 131.417 37.3513 132.434 38.2243C131.755 37.8681 131.026 37.6382 130.339 37.6102C129.931 37.5894 129.53 37.7254 129.219 37.9906C128.908 38.2557 128.71 38.6298 128.666 39.0362C128.602 40.6353 130.237 42.2265 131.397 43.6547C132.027 44.3939 132.605 45.2132 132.601 45.8907C132.591 46.1031 132.556 46.3137 132.496 46.5179C132.467 46.5936 132.404 46.6527 132.451 46.7367C132.464 46.7643 132.483 46.7888 132.507 46.8083C132.53 46.8279 132.557 46.8421 132.587 46.85C132.533 46.9016 132.485 46.9581 132.441 47.0187C132.013 47.1963 131.654 47.4537 131.596 47.9083C131.602 47.9565 131.596 48.0054 131.581 48.0513C131.556 48.1005 131.525 48.1459 131.488 48.1863C131.289 48.4611 131.104 48.7467 130.936 49.0416C131.019 47.9053 131.146 46.7606 130.669 45.5245C129.919 43.4559 127.795 41.3775 127.17 39.4475C126.855 38.4131 126.951 37.6007 126.868 36.6374C126.978 36.6624 127.074 36.6202 127.092 36.5233C127.147 36.2791 127.192 36.0603 127.259 35.8371C127.464 35.0035 127.633 34.3636 127.893 33.5426C128.037 33.0709 128.202 32.5952 128.367 32.1193L128.389 32.115C128.693 32.055 129.001 32.0178 129.31 32.0036C129.896 31.9351 131.302 31.9615 131.971 32.0864C133.362 32.2559 135.103 33.0096 136.107 32.2753C136.856 31.6846 136.226 30.4323 135.241 29.7862C134.085 28.964 132.641 28.5715 131.438 28.6919C130.548 28.7737 129.88 29.2085 129.255 29.6348C129.144 29.7071 129.031 29.776 128.916 29.8417C129.044 29.2566 129.15 28.6757 129.294 28.2042C129.682 26.7977 130.303 25.509 130.858 24.1866C130.968 24.2116 131.064 24.1693 131.163 24.1733C131.424 24.1686 131.685 24.1636 131.936 24.1843C132.695 24.2437 133.447 24.3688 134.185 24.5582C135.076 24.7793 135.983 25.114 136.881 25.2178C138.151 25.3876 139.406 25.1872 140.127 24.4619C140.794 23.7241 139.93 22.6108 138.872 22.0493C137.791 21.4457 136.593 21.1915 135.491 21.1519C133.877 21.0964 132.934 21.7253 132.338 22.8459C132.175 23.1113 131.776 23.4698 131.452 23.5336C131.336 23.5759 131.217 23.6072 131.096 23.6269C131.197 23.4206 131.263 23.1974 131.352 22.97C131.85 21.5887 131.955 20.1916 132.808 18.9736C133.262 18.371 134.231 17.5736 134.711 16.8026C134.947 16.4529 135.183 16.1031 135.385 15.7366C136.878 15.4894 138.765 15.8177 140.422 15.608C141.039 15.5099 141.652 15.3193 141.982 14.8805C142.653 13.9784 142.023 12.9827 140.619 12.4892C139.125 11.9202 137.897 12.5119 136.93 13.0987C136.62 13.3074 136.341 13.5588 136.101 13.8456C136.181 13.5564 136.278 13.2723 136.392 12.995C136.63 12.4349 136.921 12.0976 137.416 11.6969C137.968 11.3221 138.486 10.9002 138.965 10.4359C139.331 10.2312 139.685 10.0057 140.026 9.76036C140.47 9.43968 140.914 9.1189 141.156 8.65136C141.5 8.02367 141.665 7.03447 140.765 6.3253C140.268 5.90985 139.522 5.77676 139.05 5.96291C137.921 6.55858 137.788 8.33456 138.103 9.62563C138.18 9.89076 138.256 10.1557 138.332 10.4204L138.344 10.4414C138.134 10.6228 137.924 10.8042 137.702 10.9645C137.308 11.2196 136.944 11.5182 136.617 11.8547C136.597 11.1352 136.871 10.3815 136.817 9.59895C136.777 8.37035 135.858 6.988 134.528 6.15342C132.865 5.19767 131.545 5.9242 131.901 7.41713C132.05 8.11117 132.481 8.79609 132.901 9.46005C133.399 10.1784 133.931 10.9137 134.591 11.5771C134.92 11.9088 135.281 12.211 135.654 12.5342C135.766 12.63 135.886 12.7157 136.013 12.7902C135.783 13.2788 135.665 13.8385 135.501 14.3607C135.241 15.138 134.855 15.8678 134.361 16.5217C133.922 17.2379 132.963 18.01 132.386 18.777C132.275 18.9258 132.179 19.0853 132.1 19.2532C132.078 19.2069 132.047 19.1656 132.008 19.1313C131.76 18.1304 131.762 17.15 131.645 16.1698C131.462 14.3861 130.731 12.5237 128.55 11.4132C127.57 10.9062 126.296 10.6438 125.645 11.2386C124.912 11.9429 125.031 13.226 125.696 14.2844C126.632 15.8267 128.274 17.0897 129.908 18.1213C130.567 18.5281 131.164 18.7372 131.595 19.1655L131.619 19.2075C131.65 19.3423 131.692 19.4745 131.744 19.6028C131.76 19.6278 131.782 19.6487 131.807 19.664C131.832 19.6793 131.861 19.6885 131.89 19.6908C131.463 20.6847 131.282 21.817 130.93 22.7729C130.4 24.1837 129.738 25.5277 129.208 26.938C129.147 26.7867 129.071 26.5218 129.01 26.3705C128.766 25.6134 128.566 24.8425 128.413 24.0619C127.98 22.0473 127.375 19.5533 124.871 18.2501C121.594 16.7255 118.959 18.5741 121.088 21.5612C122.255 23.1745 124.1 24.3277 125.938 25.2957C126.864 25.8365 127.873 26.2677 128.509 26.8891C128.615 27.0243 128.705 27.1709 128.778 27.3262C128.825 27.4102 128.817 27.4814 128.895 27.5363L128.996 27.5866C128.958 27.734 128.899 27.8855 128.862 28.0328C128.555 29.0264 128.393 30.1086 128.153 31.1353C128.094 31.3891 128.017 31.6382 127.922 31.8806C127.901 31.8848 127.913 31.9059 127.903 31.9311C127.844 32.0827 127.806 32.23 127.748 32.3817C126.696 31.1886 126.122 29.6922 125.097 28.3774C124.091 27.2223 122.527 26.0139 121.001 25.9877C118.758 26.0092 120.284 28.9052 121.52 30.0849C122.531 31.0757 123.824 31.8009 125.152 32.2862C125.304 32.8161 125.501 33.3374 125.708 33.8798C125.559 33.6992 125.388 33.5228 125.239 33.3421C124.817 32.8887 123.807 31.6411 123.186 31.9033C122.603 32.2749 123.554 33.4173 124.137 33.8158C124.69 34.2291 125.311 34.5411 125.973 34.7373L125.994 34.733C126.151 35.205 126.263 35.6909 126.327 36.1841C126.376 36.5735 126.403 36.9653 126.409 37.3578C126.364 37.32 126.307 37.2608 126.262 37.2235C126.046 37.0093 125.851 36.791 125.657 36.5725C125.212 36.077 124.809 35.5734 124.248 35.1702C123.202 34.373 122.284 34.8335 122.993 35.8839C123.538 36.6864 124.567 37.0673 125.448 37.3135C125.625 37.3717 126.067 37.5184 126.271 37.7112L126.283 37.7323C126.328 37.77 126.351 37.8121 126.397 37.8498C126.445 38.7502 126.582 39.6798 127.155 40.617C128.237 42.5502 129.994 44.4441 130.377 46.3284C130.62 47.7038 130.285 49.0762 130.356 50.5319C130.383 52.2066 130.772 53.973 130.853 55.6601C130.887 55.9336 130.92 56.207 130.963 56.4555C130.38 55.8003 129.766 55.1746 129.12 54.5786C127.785 53.3952 126.429 52.2153 125.169 50.9935C125.176 50.8768 125.2 50.7618 125.242 50.6526C125.359 50.2292 125.537 49.825 125.769 49.4522C126.351 48.521 127.705 47.5546 127.955 46.2455C128.353 44.5577 126.221 43.3205 124.646 43.9341C123.269 44.6018 123.277 46.3732 123.414 47.8162C123.486 48.408 123.605 48.9931 123.77 49.5659L123.599 49.3896C122.711 48.4447 121.863 47.4451 120.984 46.4749C120.98 46.3824 120.888 46.2605 120.85 46.1512C120.726 45.9326 120.622 45.7032 120.539 45.466C120.235 44.7094 119.976 43.4769 119.989 42.728C119.963 41.0533 120.989 39.8014 120.564 37.972C120.354 36.8699 119.059 35.3285 117.845 35.9875C117.462 36.2029 117.283 36.6114 117.124 36.9695C116.866 37.5806 116.775 38.2746 116.794 38.9941C116.834 40.0389 117.053 41.0691 117.444 42.0391C117.683 42.6551 117.963 43.2545 118.281 43.8336C116.701 42.5116 114.976 41.3581 113.41 40.1033C113.42 40.0773 113.424 40.0491 113.421 40.0212C113.418 39.9933 113.408 39.9666 113.392 39.9435C113.361 39.8093 113.341 39.6728 113.332 39.5354C113.304 39.1442 113.36 38.3866 113.551 37.9991C114.255 36.6007 115.057 35.2062 114.974 33.4728C114.922 31.4532 114.345 28.0672 111.528 26.8487C109.6 26.0618 108.725 27.5406 108.716 28.8954C108.575 31.2562 109.879 33.7991 110.95 36.2247C111.383 37.2126 111.71 38.0113 112.053 38.9237C111.648 38.5465 111.264 38.1469 110.904 37.7269C109.907 36.5467 109.204 35.3785 108.365 34.0506C107.639 32.8404 106.827 31.6471 106.101 30.4368C105.96 30.1846 105.829 29.9072 105.687 29.655C105.702 29.641 105.712 29.6242 105.719 29.6055C105.726 29.5869 105.728 29.567 105.727 29.5473C105.725 29.5276 105.718 29.5086 105.708 29.4915C105.698 29.4745 105.684 29.4599 105.668 29.4489C104.642 28.3444 104.01 27.3022 103.09 26.1302C101.687 24.3533 100.054 22.5517 97.9878 21.3022C97.071 20.7361 96.0754 20.6288 95.7374 21.3953C95.5347 22.0186 95.8935 22.7878 96.2387 23.4898C96.6035 24.1412 97.0017 24.809 97.5275 25.4057C98.385 26.3801 99.4331 27.2237 100.522 28.0124C101.78 28.9004 103.114 29.6762 104.507 30.3307L105.874 30.9716C105.908 30.9885 105.946 30.9971 105.984 30.9966C106.452 31.7908 106.998 32.5933 107.488 33.3834C107.347 33.3572 107.207 33.3223 107.07 33.279C106.395 33.1105 105.739 32.8722 105.113 32.5679C102.857 31.4956 100.753 29.88 98.2828 29.1535C97.8097 29.0371 97.3167 28.9705 96.9534 29.1354C96.7486 29.24 96.5894 29.4161 96.506 29.6304C96.4226 29.8446 96.4207 30.0821 96.5009 30.2976C96.8242 31.2605 97.8487 32.062 98.8105 32.6659C101.046 34.0455 103.634 34.9825 105.973 34.9186C106.757 34.9042 107.527 34.8227 108.181 34.5772L108.202 34.573C108.914 35.716 109.648 36.8547 110.552 37.9132C111.331 38.833 112.269 39.6515 113.237 40.3943C113.386 40.5181 113.54 40.6357 113.698 40.7467C112.577 40.5009 111.535 40.0528 110.359 39.5377C109.15 39.006 107.942 38.5204 106.693 38.0897C105.203 37.6132 103.566 37.0023 102.181 37.2283C101.339 37.3942 101.165 38.1983 101.764 38.967C102.307 39.7236 103.212 40.2683 104.029 40.7841C105.409 41.5978 106.907 42.1922 108.469 42.5461C110.042 42.913 111.607 43.0948 113.096 43.0117C114.117 42.9507 115.17 42.8601 116.071 42.5425C116.093 42.5382 116.081 42.5173 116.081 42.5173C117.296 43.4446 118.489 44.3762 119.512 45.3885C120.138 46.0352 120.742 46.6861 121.325 47.3412C119.784 47.2517 118.255 47.0054 116.764 46.6061C114.653 46.1352 112.034 45.2277 110.613 46.4173C109.737 47.0798 110.085 48.3876 111.244 49.2562C112.356 50.0869 113.709 50.4038 114.944 50.5106C116.859 50.7169 118.446 50.1244 119.831 49.3854C120.429 49.0812 121.185 48.6756 121.701 48.5272C121.847 48.4752 122 48.4451 122.155 48.438L122.285 48.4124C122.673 48.8489 123.095 49.3027 123.505 49.7353C123.664 49.8905 123.802 50.0502 123.949 50.1846L123.972 50.2266C123.996 50.2686 124.029 50.2853 124.096 50.3189L124.744 50.9612C124.741 50.9852 124.744 51.0095 124.753 51.0321C124.761 51.0547 124.775 51.0751 124.792 51.0916C124.841 51.1313 124.898 51.1598 124.959 51.1754C126.003 52.1831 127.1 53.1569 128.219 54.1265C129.176 54.953 130.076 55.8438 130.911 56.7927C130.956 56.8304 130.992 56.8935 131.049 56.9523C131.058 57.0067 131.057 57.0625 131.045 57.1164C130.908 58.5432 131.145 60.0361 131.393 61.5506C130.483 62.1964 128.885 61.9978 127.647 62.3581C126.787 62.6209 126.095 63.2699 126.144 64.1706C126.175 65.1678 126.961 66.2728 128.076 66.8931C129.606 67.7819 131.077 67.0256 131.345 65.8763C131.593 65.0342 131.655 64.1589 131.726 63.2582C131.953 64.2634 132.17 65.2939 132.266 66.2782C132.418 67.3215 132.266 68.3779 132.291 69.4929C132.32 69.6738 132.273 69.8464 132.346 70.0188C132.462 70.1827 132.754 70.1484 132.725 69.9675C132.655 69.328 132.738 68.4485 132.75 67.6995C132.735 66.961 132.683 66.2238 132.593 65.4907C132.446 64.3297 132.113 63.1354 131.878 61.9451L131.902 61.7305C131.905 61.719 131.906 61.7069 131.903 61.6952C131.901 61.6835 131.896 61.6725 131.888 61.6632C132.082 61.6249 132.081 61.5786 132.21 61.5531C132.931 61.3412 133.682 61.3106 134.479 61.3631C134.45 61.4389 134.475 61.5273 134.434 61.582C134.408 61.7504 134.369 61.8514 134.351 61.9482C134.17 62.5672 133.877 63.1149 133.595 63.6835C133.072 64.7197 132.482 65.9791 133.357 67.3695C134.818 69.7648 137.623 69.3759 137.024 67.0209C136.74 65.7002 135.635 64.2846 135.216 63.1073C135.075 62.5984 135.04 62.2787 135.162 61.8114C135.182 61.6896 135.221 61.5718 135.278 61.4622C135.979 61.5575 136.67 61.678 137.393 61.7691C137.747 61.8153 138.104 61.8387 138.461 61.8391ZM125.803 33.0682C125.717 32.8286 125.652 32.5847 125.578 32.366C125.754 32.4242 125.953 32.4788 126.118 32.5164C126.526 32.646 126.801 32.7084 127.126 32.9476L127.138 32.9686L127.172 32.9854C127.262 33.0609 127.321 33.166 127.421 33.2162C127.411 33.2416 127.423 33.2626 127.401 33.2668C127.121 34.1018 126.884 34.9506 126.691 35.8098C126.681 35.8351 126.693 35.8561 126.671 35.8604C126.546 34.9518 126.158 34.0017 125.803 33.0682ZM133.788 55.0367C134.026 54.99 134.931 55.0217 135.151 55.0717C135.362 55.103 135.571 55.1475 135.777 55.205C135.46 55.7326 135.275 56.3293 135.24 56.9439C135.011 56.7166 134.75 56.5244 134.464 56.3734C133.94 56.0571 133.363 55.8387 132.76 55.729L132.749 55.7079C132.925 55.5099 133.102 55.3117 133.291 55.1346L133.313 55.1303C133.466 55.0769 133.626 55.0453 133.788 55.0367ZM140.229 47.3058C140.074 46.3726 139.805 45.4617 139.429 44.5935C139.184 44.0194 138.91 43.4582 138.608 42.9122C138.554 42.8105 138.491 42.7135 138.421 42.6222L138.769 42.3438C139.592 42.7415 140.32 43.2283 141.14 43.8367C141.59 44.1681 142.075 44.5626 142.591 44.9276C141.819 45.7331 141.013 46.5216 140.229 47.306L140.229 47.3058ZM148.212 33.9755C148.824 33.5451 149.471 33.1679 150.147 32.8478C150.286 32.7971 150.393 32.7295 150.532 32.6788C150.286 33.3104 150.052 33.9631 149.773 34.578C149.493 35.1929 149.181 35.7911 148.868 36.3893C148.85 36.4011 148.836 36.4167 148.825 36.435C148.815 36.4532 148.809 36.4736 148.807 36.4947C148.788 36.5452 148.756 36.5747 148.736 36.6252C148.037 36.4169 147.315 36.2928 146.586 36.2554C146.237 36.2308 145.909 36.2021 145.571 36.1986C146.453 35.4184 147.314 34.6424 148.212 33.9757V33.9755ZM144.879 36.8487C145.676 37.1584 146.675 37.8716 147.714 38.4837C147.499 38.8292 147.306 39.1704 147.081 39.4949C146.698 39.2848 146.283 39.1379 145.853 39.0599C144.811 38.8572 143.744 38.8155 142.69 38.9362C143.413 38.2568 144.168 37.5483 144.879 36.8487ZM141.314 40.1636C141.392 40.0991 141.465 40.0301 141.534 39.957C141.678 39.9988 141.841 39.99 141.984 40.0318C142.534 40.1568 143.107 40.3239 143.659 40.4952C144.266 40.679 145.106 40.9802 145.885 41.1301C145.482 41.6527 145.046 42.1583 144.61 42.6644C144.06 42.2826 143.44 42.0315 142.821 41.8266C142.258 41.6313 141.675 41.4958 141.084 41.4223C140.701 41.3809 140.329 41.3608 139.958 41.3405C140.432 40.9436 140.884 40.5512 141.314 40.1631V40.1636ZM133.758 45.1743C134.126 44.5886 134.491 43.9567 134.692 43.2873C134.892 43.6444 135.092 44.0017 135.326 44.3757C134.632 44.8654 133.967 45.3936 133.333 45.9579C133.475 45.6964 133.616 45.435 133.758 45.1738L133.758 45.1743ZM133.124 46.6984C133.886 45.9762 134.699 45.3093 135.557 44.7029C136.261 45.7476 137.064 46.7224 137.955 47.6138C138.261 47.9035 138.6 48.2099 138.916 48.4744C138.954 48.509 138.996 48.5399 139.04 48.5666C138.529 49.1105 138.03 49.6754 137.531 50.2403C137.509 50.2331 137.485 50.2317 137.462 50.2361C137.44 50.2406 137.418 50.2508 137.401 50.2659C137.385 50.2729 137.371 50.2833 137.36 50.2963C137.349 50.3093 137.341 50.3246 137.337 50.3411C137.332 50.3576 137.331 50.3749 137.334 50.3917C137.337 50.4085 137.344 50.4245 137.354 50.4385C137.072 50.7505 136.813 51.0581 136.52 51.3491C136.309 50.4575 136.141 49.5575 135.711 48.6622C135.174 47.5313 134.285 46.5865 133.124 46.6984ZM131.274 55.6017C131.161 53.6874 130.724 51.837 130.769 50.0317C130.775 49.9139 130.769 49.775 130.775 49.6573C131.005 49.682 131.035 49.3495 131.149 49.2104C131.281 48.9745 131.424 48.7596 131.568 48.5447C131.765 49.1123 132.172 49.7087 132.617 50.2045C133.233 50.8765 134.107 51.1939 134.886 51.6009C135.035 51.6862 135.178 51.783 135.312 51.8903C135.324 51.9113 135.369 51.9491 135.381 51.97C135.414 51.9868 135.473 52.0919 135.506 52.1087C135.551 52.1663 135.586 52.23 135.612 52.2978C134.818 53.1074 133.958 53.8835 133.142 54.6973C133.214 54.1006 133.215 53.4974 133.143 52.9006C133.083 52.4925 132.987 52.0215 132.643 51.6225C132.392 51.3453 131.921 51.2747 131.723 51.477C131.512 51.6584 131.514 51.9613 131.504 52.2433C131.537 52.7734 131.702 53.3244 131.898 53.8456C132.063 54.2835 132.194 54.7334 132.291 55.1913C132.318 55.3031 132.334 55.4172 132.338 55.532C132.016 55.8988 131.706 56.2866 131.407 56.6953C131.369 56.3294 131.311 55.9674 131.274 55.6017H131.274ZM132.171 61.1877C132.024 61.2202 131.881 61.2641 131.741 61.319L131.719 61.3233C131.559 60.3516 131.426 59.2579 131.372 58.4754C131.356 58.32 131.356 58.1635 131.374 58.0083C131.386 58.0281 131.402 58.0448 131.421 58.0572C131.441 58.0696 131.463 58.0773 131.486 58.0796C131.663 58.1378 131.788 58.02 131.694 57.8519C131.657 57.7426 131.641 57.6288 131.604 57.5197C131.691 57.5027 131.753 57.4437 131.728 57.3554C131.75 57.3511 131.75 57.3511 131.783 57.3679C131.998 57.3797 132.212 57.416 132.419 57.476C132.827 57.6055 133.562 57.9743 134.135 58.1413C134.522 58.2751 134.96 58.3289 135.272 58.2441C135.301 58.51 135.352 58.7731 135.425 59.0306C135.641 59.8208 136.001 60.5645 136.485 61.2248C136.509 61.2668 136.554 61.3046 136.578 61.3466C135.174 61.1098 133.442 60.8441 132.171 61.1877H132.171Z" fill="#DAD8E4"/>
<path id="Vector_3" fill-rule="evenodd" clip-rule="evenodd" d="M46.5027 35.7204C37.6537 37.8104 24.3619 45.4061 21.2997 31.3396C19.2019 21.7016 44.1142 22.5245 49.2881 17.1844C60.6699 5.4371 78.1886 16.0648 70.6975 19.8412C55.6871 27.4045 67.7302 30.7059 46.5027 35.7204Z" fill="#F0EFF4"/>
<path id="Vector_4" fill-rule="evenodd" clip-rule="evenodd" d="M114.09 51.4286C110.753 56.4282 77.148 59.1698 72.7799 53.0263C66.0287 43.5397 85.4718 16.4281 85.4718 16.4281C85.221 15.1323 85.1742 11.9998 86.1951 10.7774C87.7414 8.91938 85.4411 7.15475 86.8721 6.75394C88.7112 6.24072 90.185 7.97809 93.3889 8.84692C95.2871 9.35636 95.0221 14.339 93.2275 17.1278C92.5887 18.1172 91.3686 18.2076 91.3686 18.2076C91.3686 18.2076 83.8684 36.663 85.4613 40.1975C87.437 44.5695 96.8432 39.5358 111.296 37.4957C118.208 36.5188 115.928 48.6728 114.09 51.4286Z" fill="#FFC197"/>
<g id="Clip path group">
<mask id="mask0_1570_853" style="mask-type:luminance" maskUnits="userSpaceOnUse" x="71" y="6" width="45" height="51">
<g id="a">
<path id="Vector_5" d="M114.077 51.4281C110.74 56.4277 77.1353 59.1693 72.7673 53.0258C66.0161 43.5392 85.4592 16.4277 85.4592 16.4277C85.2083 15.1318 85.1616 11.9993 86.1824 10.7769C87.7288 8.91889 85.4284 7.15426 86.8595 6.75346C88.6986 6.24023 90.1723 7.9776 93.3762 8.84643C95.2744 9.35587 95.0094 14.3385 93.2148 17.1273C92.576 18.1167 91.3559 18.2071 91.3559 18.2071C91.3559 18.2071 83.8557 36.6625 85.4486 40.1971C87.4244 44.569 96.8306 39.5353 111.283 37.4952C118.195 36.5183 115.916 48.6723 114.077 51.4281Z" fill="white"/>
</g>
</mask>
<g mask="url(#mask0_1570_853)">
<g id="Group">
<path id="Vector_6" fill-rule="evenodd" clip-rule="evenodd" d="M95.4951 37.9215C96.7602 38.8915 97.059 41.1889 97.2735 42.626C97.5012 44.1449 97.4319 45.7041 96.9243 47.1682C96.1612 49.3721 94.5781 51.1743 93.9276 53.4181C93.4445 55.0876 93.56 56.969 94.1261 58.6076C94.3899 59.3738 94.7892 60.0863 95.3049 60.7113C98.3621 64.3961 104.657 63.0206 108.518 61.7251C112.863 60.2669 117.154 57.4887 119.396 53.3686C122.874 46.9809 119.719 39.1011 113.727 35.5588C111.351 34.1703 108.674 33.3755 105.925 33.2419C102.66 33.0705 99.3075 33.6899 96.4863 35.3792L95.4951 37.9215Z" fill="#FE9400"/>
<path id="Vector_7" fill-rule="evenodd" clip-rule="evenodd" d="M82.7823 17.6202C80.6116 21.7165 77.8114 30.6732 76.3507 35.0446C74.4866 40.6573 73.7441 44.9117 76.6089 49.9376C79.9983 55.9003 91.3122 53.5698 96.8481 52.0381C98.0697 51.6992 99.276 51.3072 100.463 50.8631C102.138 50.2506 103.765 49.5131 105.33 48.6569C108.557 46.8527 111.253 44.3734 113.666 41.5933C114.36 40.7961 114.981 39.9249 115.715 39.1667C115.933 38.94 116.264 38.6058 116.619 38.647C117.216 38.7156 117.354 39.8172 117.434 40.2457C117.741 42.0208 117.717 43.8755 117.595 45.6662C117.119 52.7435 114.82 59.8134 108.493 63.6791C104.587 66.067 99.7208 66.8094 95.2662 67.4631C90.8197 68.1151 86.1392 68.7046 81.6363 68.2942C73.5986 67.5615 65.1172 64.0689 60.7193 56.9408C55.6354 48.6834 57.9756 37.648 62.1478 29.5259C63.1888 27.5011 64.3912 25.5539 65.8196 23.7793C68.6035 20.3214 72.3319 17.1736 76.73 16.1178L82.7823 17.6202Z" fill="black" fill-opacity="0.1"/>
</g>
</g>
</g>
<path id="Vector_8" fill-rule="evenodd" clip-rule="evenodd" d="M42.0175 7.75304C41.6215 7.12971 40.8688 6.68225 40.0055 6.55615C39.1551 6.41948 38.2847 6.61542 37.5748 7.10333L0.938565 33.4747C-0.0111633 34.1584 -0.272675 35.2687 0.303893 36.1763L46.41 108.752C46.8117 109.384 47.5582 109.822 48.4276 109.958C49.278 110.095 50.1484 109.899 50.8583 109.411L87.4944 83.0393C88.4441 82.3556 88.7056 81.2453 88.1289 80.3377L42.0175 7.75304ZM41.4669 7.97614L87.5788 80.5613C88.0273 81.2673 87.8249 82.1344 87.0777 82.6723L50.4418 109.044C49.8855 109.424 49.2057 109.579 48.5395 109.478C47.8573 109.381 47.275 109.025 46.9605 108.53L0.854563 35.9536C0.400214 35.2385 0.602362 34.3713 1.34926 33.8334L37.9851 7.46203C38.5414 7.08172 39.2212 6.92665 39.8874 7.02815C40.576 7.13398 41.1525 7.48066 41.4669 7.97565V7.97614Z" fill="#77536F"/>
<path id="Vector_9" fill-rule="evenodd" clip-rule="evenodd" d="M49.1075 7.09033C49.0405 6.98323 48.9519 6.89131 48.8473 6.82048C48.7427 6.74965 48.6245 6.70148 48.5002 6.67905C48.3781 6.65587 48.2526 6.65719 48.131 6.68296C48.0095 6.70872 47.8943 6.7584 47.7921 6.82911L8.74623 34.935C8.55505 35.0738 8.42423 35.2805 8.3806 35.5127C8.33697 35.7449 8.38384 35.985 8.51159 36.1838L54.1665 108.05C54.2327 108.155 54.3205 108.246 54.4241 108.315C54.5278 108.385 54.645 108.431 54.7679 108.452C54.89 108.478 55.016 108.478 55.1381 108.452C55.2601 108.426 55.3754 108.375 55.4765 108.302L94.5219 80.1962C94.7134 80.0599 94.8452 79.8552 94.8899 79.6244C94.9346 79.3936 94.8889 79.1545 94.7621 78.9565L49.1075 7.09033Z" fill="#A9A5C6"/>
<path id="Vector_10" fill-rule="evenodd" clip-rule="evenodd" d="M78.7216 63.6032C78.0717 62.5807 76.8635 61.8548 75.4468 61.6467C74.0301 61.4385 72.5761 61.7652 71.5055 62.5358L51.1051 77.2202C48.5055 79.0912 47.8049 82.1113 49.3852 84.5988C50.0351 85.6214 51.2428 86.3463 52.6594 86.5543C54.0759 86.7624 55.5301 86.4359 56.5957 85.6689L77.0009 70.9806C79.5952 69.1134 80.3018 66.0907 78.7216 63.6032ZM78.2816 63.7787L78.2822 63.7797C79.7619 66.1087 79.1001 68.9393 76.6703 70.6884L56.2648 85.3767C55.3142 86.0613 54.0127 86.3547 52.7478 86.1686C51.4881 85.9787 50.4046 85.3355 49.8245 84.4226C48.345 82.0937 49.0066 79.263 51.4366 77.5138L71.8419 62.8254C72.7925 62.1409 74.094 61.8473 75.3533 62.0362C76.618 62.2225 77.7016 62.8657 78.2815 63.7787H78.2816Z" fill="white"/>
<path id="Vector_11" fill-rule="evenodd" clip-rule="evenodd" d="M95.1288 57.0854C94.7186 56.44 94.1808 55.8853 93.5485 55.4551C92.9163 55.025 92.2028 54.7285 91.4518 54.584C90.7009 54.4394 89.9284 54.4497 89.1816 54.6143C88.4347 54.7789 87.7294 55.0943 87.1089 55.5412L61.0028 74.3326C59.6843 75.2811 58.7786 76.6981 58.4714 78.293C58.1641 79.8878 58.4786 81.5398 59.3503 82.9103C59.7602 83.556 60.2979 84.1111 60.9301 84.5415C61.5624 84.9718 62.276 85.2685 63.027 85.4131C63.7781 85.5577 64.5508 85.5474 65.2976 85.3826C66.0445 85.2178 66.7499 84.9021 67.3703 84.4548L93.4763 65.6631C94.7936 64.7139 95.6985 63.2973 96.0058 61.7031C96.3131 60.1088 95.9997 58.4574 95.1296 57.0866L95.1288 57.0854Z" fill="#77536F"/>
<path id="Vector_12" fill-rule="evenodd" clip-rule="evenodd" d="M64.9598 42.6406C64.7941 42.3798 64.5769 42.1556 64.3214 41.9819C64.066 41.8081 63.7776 41.6884 63.4742 41.6302C63.1708 41.5719 62.8587 41.5763 62.557 41.643C62.2554 41.7098 61.9705 41.8375 61.72 42.0183L36.1976 60.3901C35.6682 60.7707 35.3044 61.3393 35.1808 61.9795C35.0572 62.6196 35.1832 63.2828 35.5328 63.8331C35.6983 64.0933 35.9151 64.3171 36.17 64.4906C36.4249 64.6642 36.7126 64.7839 37.0154 64.8425C37.3182 64.901 37.6297 64.8971 37.931 64.8311C38.2322 64.7651 38.5168 64.6382 38.7674 64.4584L64.2951 46.0834C64.8245 45.703 65.1883 45.1345 65.312 44.4944C65.4356 43.8544 65.3097 43.1913 64.9601 42.6411L64.9598 42.6406ZM70.3905 51.1868C70.2248 50.926 70.0075 50.7018 69.7521 50.5281C69.4966 50.3543 69.2083 50.2346 68.9049 50.1763C68.6015 50.1181 68.2894 50.1224 67.9877 50.1891C67.686 50.2559 67.4012 50.3836 67.1507 50.5644L41.6281 68.9366C41.0987 69.3172 40.735 69.8858 40.6114 70.5259C40.4878 71.1661 40.6137 71.8293 40.9634 72.3795C41.1288 72.6398 41.3456 72.8636 41.6006 73.0371C41.8555 73.2107 42.1431 73.3304 42.4459 73.389C42.7487 73.4475 43.0603 73.4437 43.3615 73.3776C43.6628 73.3116 43.9474 73.1848 44.1979 73.005L69.7254 54.6297C70.2549 54.2493 70.6187 53.6808 70.7423 53.0407C70.866 52.4006 70.7401 51.7375 70.3905 51.1872V51.1868Z" fill="white"/>
<g id="Group_2">
<path id="Vector_13" d="M67.8218 77.5481L68.5347 76.9599C68.6016 77.0273 68.6826 77.0792 68.7718 77.1118C68.8611 77.1444 68.9564 77.1569 69.0511 77.1485C69.283 77.1124 69.5012 77.0158 69.6837 76.8683C69.8843 76.7402 70.0517 76.5666 70.1723 76.3615C70.2487 76.2013 70.2574 76.07 70.1963 75.9735C70.1768 75.9426 70.1501 75.917 70.1185 75.8988C70.0869 75.8806 70.0513 75.8703 70.0149 75.8689C69.894 75.8721 69.7753 75.9012 69.6667 75.9544C69.5668 75.9963 69.3377 76.1062 68.9812 76.2777C68.5272 76.5043 68.1847 76.6258 67.9514 76.6387C67.627 76.662 67.4014 76.5692 67.2683 76.3598C67.181 76.2106 67.153 76.034 67.1901 75.8651C67.2402 75.6406 67.3443 75.4317 67.4934 75.2565C67.6938 75.0179 67.9254 74.8074 68.1821 74.6306C68.6594 74.287 69.0642 74.1007 69.3965 74.0718C69.7287 74.0427 69.9754 74.1504 70.1399 74.3822L69.3938 74.9545C69.3425 74.9023 69.2799 74.8627 69.2107 74.8386C69.1416 74.8146 69.0679 74.8069 68.9953 74.816C68.7967 74.8586 68.611 74.9477 68.4535 75.0759C68.2675 75.1973 68.1106 75.358 67.9938 75.5469C67.9663 75.5819 67.9498 75.6243 67.9464 75.6687C67.9429 75.713 67.9527 75.7575 67.9744 75.7963C67.9993 75.8288 68.0329 75.8535 68.0714 75.8674C68.1098 75.8814 68.1514 75.8842 68.1914 75.8753C68.3248 75.8593 68.5968 75.7536 69.0048 75.5455C69.3098 75.3843 69.6278 75.2491 69.9554 75.1414C70.1456 75.0808 70.348 75.0693 70.5437 75.1082C70.7181 75.1527 70.8678 75.2646 70.9598 75.4193C71.0591 75.5867 71.091 75.7857 71.0488 75.9757C70.9995 76.2209 70.8866 76.4489 70.7214 76.6366C70.5003 76.8987 70.2448 77.1297 69.9619 77.3234C69.4807 77.6699 69.0658 77.8585 68.7113 77.8885C68.5466 77.9075 68.3797 77.8864 68.2249 77.8271C68.07 77.7679 67.9318 77.6721 67.8218 77.5481ZM70.7084 73.5585L70.4118 73.0916L71.1377 72.5691L71.4343 73.0361L70.7084 73.5585ZM72.0871 75.7287L70.8719 73.8165L71.5977 73.294L72.8128 75.2066L72.0871 75.7287ZM73.5699 74.8415L74.4442 74.3177C74.4653 74.3447 74.4935 74.3654 74.5255 74.3776C74.5576 74.3898 74.5924 74.393 74.6262 74.3868C74.7592 74.355 74.8831 74.2932 74.9885 74.206C75.1379 74.1073 75.2694 73.9838 75.3774 73.841C75.4222 73.7733 75.4438 73.6928 75.4387 73.6118C75.4212 73.518 75.3826 73.4294 75.3258 73.3527L75.1492 73.0746C75.0602 73.4417 74.8376 73.7624 74.525 73.9743C74.1542 74.2411 73.7925 74.3413 73.442 74.2784C73.3047 74.2548 73.1742 74.2017 73.0595 74.1227C72.9448 74.0437 72.8486 73.9408 72.7776 73.8209C72.6796 73.681 72.6167 73.5196 72.5942 73.3503C72.5717 73.181 72.5903 73.0087 72.6483 72.8481C72.7731 72.502 73.0055 72.2049 73.3114 72.0005C73.6045 71.7692 73.977 71.663 74.348 71.7048L74.1778 71.437L74.8568 70.9486L75.9475 72.6655C76.0658 72.834 76.1481 73.0252 76.1892 73.227C76.2064 73.3718 76.1868 73.5185 76.1324 73.6538C76.0588 73.8108 75.9599 73.9547 75.8396 74.0797C75.6654 74.2644 75.4721 74.4302 75.2631 74.5744C74.7975 74.9096 74.4313 75.0932 74.166 75.119C73.9029 75.1481 73.7149 75.0784 73.6057 74.9067C73.5921 74.8859 73.5802 74.8641 73.5699 74.8415ZM73.5058 73.2564C73.6345 73.4589 73.7835 73.5668 73.959 73.5807C74.1418 73.5891 74.3217 73.5323 74.4666 73.4204C74.6332 73.307 74.7588 73.1429 74.8247 72.9525C74.854 72.8585 74.861 72.759 74.8451 72.6618C74.8293 72.5646 74.7911 72.4725 74.7335 72.3926C74.6074 72.1935 74.454 72.0884 74.2785 72.0746C74.0842 72.0686 73.894 72.1312 73.7411 72.2513C73.581 72.3597 73.4612 72.518 73.4006 72.7016C73.3757 72.7961 73.3722 72.8949 73.3904 72.9909C73.4086 73.0869 73.448 73.1776 73.5058 73.2564ZM79.2864 70.5465L78.5606 71.0689L77.9411 70.0938C77.8102 69.8878 77.7094 69.7652 77.6385 69.7262C77.5643 69.6897 77.4804 69.6782 77.3991 69.6933C77.2955 69.7147 77.198 69.7592 77.1139 69.8235C76.9946 69.9067 76.8945 70.0145 76.8205 70.1398C76.756 70.2408 76.7269 70.3604 76.7376 70.4798C76.7815 70.6521 76.8575 70.8147 76.9615 70.9589L77.5112 71.8243L76.7854 72.3468L75.5704 70.4342L76.2449 69.9486L76.4239 70.2299C76.533 69.8326 76.7807 69.4874 77.1223 69.2569C77.2695 69.1492 77.4306 69.0618 77.6013 68.9972C77.7281 68.9494 77.8636 68.9285 77.999 68.9359C78.0995 68.9476 78.1952 68.9858 78.2762 69.0466C78.3781 69.1355 78.4644 69.2407 78.5317 69.3581L79.2864 70.5465ZM79.8163 66.322L80.5816 65.7712L81.489 67.1996C81.5771 67.3493 81.6799 67.4899 81.7958 67.6192C81.853 67.6613 81.9183 67.691 81.9876 67.7066C82.0568 67.7222 82.1286 67.7233 82.1983 67.7098C82.606 67.6015 82.9602 67.3483 83.1946 66.9977C83.2617 66.8862 83.2823 66.7528 83.2519 66.6262C83.1859 66.4608 83.1013 66.3034 82.9997 66.1571L82.0727 64.6978L82.8379 64.1469L83.717 65.5307C83.9177 65.8465 84.042 66.0874 84.0814 66.2491C84.1248 66.4109 84.1195 66.5819 84.066 66.7406C83.9949 66.9378 83.8892 67.1207 83.7537 67.2807C83.5545 67.5086 83.3275 67.7107 83.078 67.8821C82.7151 68.1433 82.4255 68.3118 82.1968 68.3865C82.0114 68.4598 81.8124 68.4922 81.6133 68.4814C81.468 68.4742 81.3277 68.426 81.2087 68.3423C81.0118 68.1635 80.8431 67.9559 80.7084 67.7266L79.8163 66.322ZM84.0794 64.3092L84.7584 63.8208L84.9373 64.1021C84.9696 63.9259 85.0402 63.759 85.144 63.613C85.2617 63.4379 85.411 63.2863 85.5843 63.166C85.8632 62.9482 86.2089 62.8337 86.5627 62.842C86.8967 62.8517 87.162 63.0166 87.3581 63.3251C87.4557 63.4678 87.5189 63.631 87.5429 63.8022C87.5668 63.9733 87.5508 64.1477 87.4961 64.3116C87.3782 64.6585 87.1505 64.9577 86.8475 65.1638C86.711 65.2649 86.5592 65.3437 86.398 65.3972C86.2266 65.4471 86.0484 65.4689 85.87 65.462L86.483 66.427L85.7571 66.9494L84.0794 64.3092ZM85.3842 64.7161C85.5215 64.9324 85.6849 65.0449 85.8727 65.0599C86.0682 65.0723 86.2615 65.0132 86.4166 64.8935C86.5748 64.7863 86.6914 64.6282 86.7471 64.4455C86.7987 64.2732 86.7557 64.079 86.621 63.8661C86.4923 63.6636 86.3433 63.5557 86.1651 63.5383C85.9772 63.5297 85.7923 63.5881 85.6435 63.7032C85.4783 63.8138 85.355 63.9766 85.2934 64.1655C85.2654 64.2582 85.2591 64.3559 85.2749 64.4514C85.2906 64.5468 85.328 64.6374 85.3842 64.7161Z" fill="white"/>
</g>
<path id="Vector_14" d="M46.8935 45.2518C51.7711 40.6715 52.6464 33.6799 48.8486 29.6356C45.0507 25.5913 38.018 26.0259 33.1404 30.6062C28.2628 35.1866 27.3875 42.1782 31.1853 46.2225C34.9832 50.2667 42.016 49.8322 46.8935 45.2518Z" fill="white"/>
<path id="Vector_15" fill-rule="evenodd" clip-rule="evenodd" d="M39.0024 42.9621C37.5871 42.9407 36.3112 42.3197 35.5612 41.1391C34.2016 38.9989 35.0892 35.8246 37.548 34.0546C40.0067 32.2846 43.1158 32.5837 44.4751 34.7239C45.3545 36.1082 45.2827 37.9282 44.4709 39.5157C47.8041 38.3942 50.7867 38.9499 51.5388 41.0207C52.4189 43.4522 49.8847 47.0596 45.8876 49.0691C41.8904 51.0785 37.9183 50.7396 37.0383 48.3081C36.4893 46.7625 37.303 44.7449 39.0024 42.9621Z" fill="#D1CFE1"/>
<path id="Vector_16" fill-rule="evenodd" clip-rule="evenodd" d="M111.066 92.1623C111.921 76.0225 106.248 61.9758 106.764 52.7491C107.095 46.896 104.561 38.2088 114.181 36.8014C122.428 35.5949 132.62 37.7747 134.63 39.9939C138.697 44.471 137.22 68.7467 133.355 72.0578C125.608 77.0039 117.118 87.2203 111.066 92.1623Z" fill="#FE9400"/>
<g id="Clip path group_2">
<mask id="mask1_1570_853" style="mask-type:luminance" maskUnits="userSpaceOnUse" x="106" y="36" width="32" height="57">
<g id="b">
<path id="Vector_17" d="M111.057 92.1615C111.912 76.0218 106.239 61.9751 106.756 52.7484C107.086 46.8953 104.552 38.208 114.172 36.8007C122.419 35.5942 132.611 37.774 134.621 39.9931C138.688 44.4703 137.211 68.746 133.346 72.0571C125.599 77.0031 117.109 87.2196 111.057 92.1615Z" fill="white"/>
</g>
</mask>
<g mask="url(#mask1_1570_853)">
<g id="Group_3">
<path id="Vector_18" fill-rule="evenodd" clip-rule="evenodd" d="M127.743 48.8619C127.073 49.756 126.694 50.8625 126.379 51.9212C125.548 54.6512 125.516 57.3756 125.895 60.1848C126.266 62.959 127.001 65.8328 126.5 68.6387C126.121 70.7145 125.007 72.4307 123.918 74.1932C121.183 78.6261 119.568 80.0818 115.864 83.3686C113.758 85.2311 109.651 92.887 110.272 95.8664C110.7 97.9444 113.984 95.9269 115.219 95.2918C118.568 93.5657 121.562 91.139 124.83 89.2435C129.494 86.5312 134.74 84.1885 138.234 79.9195C142.874 74.245 143.431 65.665 141.648 58.7854C140.8 55.5107 139.307 52.0834 136.362 50.2047L127.743 48.8619Z" fill="black" fill-opacity="0.1"/>
</g>
</g>
</g>
<path id="Vector_19" fill-rule="evenodd" clip-rule="evenodd" d="M133.674 40.286C139.219 42.6266 150.509 74.4828 144.019 80.4175C137.529 86.3523 94.7413 75.8973 94.7413 75.8973C93.5154 76.3869 90.4553 77.0208 89.0551 76.247C86.9479 75.0778 88.2447 72.4668 87.5824 71.137C86.7333 69.427 80.6681 73.2746 80.9126 69.9626C81.0648 68.0037 90.8976 66.9077 93.9736 68.1487C95.0735 68.5909 95.3909 69.7732 95.3909 69.7732C95.3909 69.7732 125.866 72.5959 129.039 70.3673C132.963 67.6065 123.128 57.6529 124.658 46.4015C125.6 39.4855 130.63 38.9982 133.674 40.286Z" fill="#FFC197"/>
<g id="Clip path group_3">
<mask id="mask2_1570_853" style="mask-type:luminance" maskUnits="userSpaceOnUse" x="80" y="39" width="66" height="44">
<g id="c">
<path id="Vector_20" d="M133.672 40.2858C139.217 42.6265 150.507 74.4826 144.017 80.4174C137.527 86.3522 94.7395 75.8972 94.7395 75.8972C93.5136 76.3867 90.4536 77.0206 89.0534 76.2469C86.9462 75.0776 88.243 72.4667 87.5806 71.1369C86.7316 69.4269 80.6664 73.2745 80.9108 69.9624C81.0631 68.0036 90.8959 66.9076 93.9719 68.1485C95.0718 68.5908 95.3891 69.7731 95.3891 69.7731C95.3891 69.7731 125.865 72.5958 129.038 70.3672C132.961 67.6064 123.126 57.6527 124.657 46.4014C125.599 39.4854 130.628 38.9981 133.672 40.2858Z" fill="white"/>
</g>
</mask>
<g mask="url(#mask2_1570_853)">
<g id="Group_4">
<path id="Vector_21" fill-rule="evenodd" clip-rule="evenodd" d="M124.916 60.9357C125.631 59.5111 127.832 58.7867 129.203 58.3063C130.652 57.7977 132.197 57.5733 133.73 57.7968C136.038 58.1329 138.105 59.3499 140.431 59.5679C142.162 59.7293 143.988 59.2629 145.491 58.3994C146.194 57.9966 146.819 57.4707 147.337 56.8469C150.382 53.1528 147.851 47.2273 145.854 43.6781C143.606 39.6842 140.072 35.9903 135.605 34.5611C128.678 32.3432 121.53 36.9203 119.175 43.4701C118.257 46.0648 117.978 48.8428 118.363 51.5682C118.807 54.8075 120.044 57.9843 122.233 60.4386L124.916 60.9357Z" fill="#FE9400"/>
</g>
</g>
</g>
<path id="Vector_22" fill-rule="evenodd" clip-rule="evenodd" d="M115.492 36.5828C115.492 36.5828 118.744 34.1772 117.986 31.6448C117.792 30.9799 116.323 32.8537 115 32.0425C113.192 30.927 112.756 24.4981 114.798 21.1531C116.065 19.0799 120.52 17.8364 121.972 19.2486C123.425 20.6608 123.998 26.6802 123.497 29.6276C122.707 34.3292 126.992 37.1576 126.992 37.1576C126.992 37.1576 119.874 42.8542 118.082 47.5823C117.558 48.9708 115.492 36.5828 115.492 36.5828Z" fill="#FFC197"/>
<g id="Clip path group_4">
<mask id="mask3_1570_853" style="mask-type:luminance" maskUnits="userSpaceOnUse" x="113" y="18" width="14" height="30">
<g id="d">
<path id="Vector_23" d="M115.487 36.5829C115.487 36.5829 118.739 34.1773 117.981 31.645C117.787 30.98 116.319 32.8538 114.995 32.0427C113.187 30.9272 112.752 24.4982 114.793 21.1532C116.06 19.0801 120.515 17.8365 121.967 19.2487C123.42 20.661 123.993 26.6803 123.493 29.6277C122.702 34.3293 126.987 37.1578 126.987 37.1578C126.987 37.1578 119.869 42.8543 118.078 47.5825C117.553 48.9709 115.487 36.5829 115.487 36.5829Z" fill="white"/>
</g>
</mask>
<g mask="url(#mask3_1570_853)">
<g id="Group_5">
<path id="Vector_24" fill-rule="evenodd" clip-rule="evenodd" d="M117.133 31.9912C117.391 31.8517 117.601 31.5668 117.794 31.3538C118.239 30.8769 118.649 30.3685 119.021 29.8326C119.158 29.6192 119.295 29.4016 119.449 29.1909C119.481 29.1377 119.57 28.9828 119.651 28.9828C119.731 28.9828 119.683 29.2492 119.675 29.2835C119.621 29.6561 119.534 30.0234 119.417 30.3809C118.973 31.8448 118.061 32.9407 117.084 34.0794L117.133 31.9912Z" fill="black" fill-opacity="0.1"/>
</g>
</g>
</g>
<path id="Vector_25" fill-rule="evenodd" clip-rule="evenodd" d="M115.785 23.8703C115.18 23.834 114.615 23.4806 114.147 23.1191C112.347 21.7326 112.469 19.3205 114.034 17.8001C114.978 16.8875 116.915 16.2782 117.819 17.563C118.109 17.1514 118.714 16.977 119.174 16.8697C119.548 16.7706 119.935 16.7367 120.32 16.7696C122.951 17.124 122.338 20.4301 124.339 21.4873C124.993 21.0668 125.711 22.4411 125.84 22.86C126.284 24.3166 126.09 26.8061 124.412 27.3871C124.266 27.7785 123.895 28.0537 123.564 28.2796C122.653 28.9067 121.184 29.3553 120.167 28.7073C120.045 28.6282 119.933 28.5332 119.836 28.4249C119.11 27.617 119.876 26.6963 120.119 25.8571C120.248 25.4148 120.353 24.8612 119.965 24.5134C119.651 24.2407 119.336 24.3956 119.086 24.6589C118.706 25.06 118.497 25.6919 117.891 25.8049C117.02 25.9663 116.172 25.1286 115.898 24.5411C115.841 24.4166 115.785 23.8703 115.785 23.8703Z" fill="black"/>
<g id="Group_6">
<path id="Vector_26" fill-rule="evenodd" clip-rule="evenodd" d="M110.217 17.4574C110.217 17.1737 110.138 16.8957 109.988 16.6548C109.839 16.4139 109.624 16.2199 109.369 16.0948L76.9568 0.154266C76.7252 0.0411686 76.4685 -0.0112233 76.2111 0.00200508C75.9536 0.0152334 75.7037 0.0936478 75.4849 0.229894C75.266 0.36614 75.0853 0.55575 74.9598 0.780936C74.8343 1.00612 74.768 1.25951 74.7672 1.51731V6.88141C74.7679 7.16489 74.8475 7.44257 74.9973 7.68327C75.147 7.92398 75.3608 8.11818 75.6148 8.24407L108.034 24.1876C108.265 24.3012 108.522 24.3538 108.78 24.3405C109.037 24.3272 109.287 24.2484 109.506 24.1116C109.724 23.9748 109.904 23.7844 110.029 23.5586C110.153 23.3327 110.218 23.0788 110.217 22.821L110.217 17.4574Z" fill="#77536F"/>
<path id="Vector_27" fill-rule="evenodd" clip-rule="evenodd" d="M79.3432 8.09756L78.6536 7.3172L79.5509 6.4054L77.9645 5.20502L78.1765 4.52913L79.7631 5.72931L79.6791 4.07458L80.4996 4.43678L80.5835 6.09151L82.1181 6.26911L82.4101 7.16753L80.8755 6.98982L81.9087 8.75416L81.2685 8.94748L80.2403 7.1848L79.3432 8.09756ZM85.0525 10.902L84.3628 10.1216L85.2601 9.20977L83.6737 8.00968L83.8858 7.33379L85.4723 8.53387L85.3883 6.87925L86.2088 7.24144L86.2927 8.89607L87.8273 9.07377L88.1193 9.97209L86.5847 9.79448L87.6179 11.5588L86.9777 11.752L85.9495 9.98946L85.0525 10.902ZM91.1699 13.6305L90.4802 12.8501L91.3776 11.9383L89.7911 10.7382L90.0032 10.0623L91.5897 11.2625L91.5057 9.60776L92.3262 9.96996L92.4101 11.6247L93.9448 11.8023L94.2367 12.7007L92.7021 12.523L93.7353 14.2873L93.0951 14.4807L92.0669 12.718L91.1699 13.6305ZM97.1433 16.8486L96.4537 16.0682L97.351 15.1564L95.7646 13.9562L95.9767 13.2804L97.5631 14.4805L97.4791 12.8258L98.2997 13.188L98.3836 14.8427L99.9182 15.0204L100.21 15.9187L98.6755 15.7411L99.7088 17.5053L99.0686 17.6986L98.0404 15.936L97.1433 16.8486ZM103.447 19.9486L102.757 19.1683L103.655 18.2565L102.068 17.0564L102.28 16.3805L103.867 17.5807L103.783 15.926L104.603 16.2882L104.687 17.9429L106.222 18.1205L106.514 19.0189L104.979 18.8412L106.012 20.6055L105.372 20.7989L104.344 19.0362L103.447 19.9486Z" fill="white"/>
</g>
<path id="Vector_28" fill-rule="evenodd" clip-rule="evenodd" d="M89.8493 17.3754C90.3537 16.8031 93.3825 15.4244 94.1775 15.3137C95.4453 15.1275 96.6387 15.958 96.1994 17.1636C96.0248 17.6274 92.1883 18.6932 91.1332 18.731C90.7011 18.7447 89.6479 17.6022 89.8493 17.3754Z" fill="#FFC197"/>
</g>
</svg>
