<svg width="149" height="125" viewBox="0 0 149 125" fill="none" xmlns="http://www.w3.org/2000/svg">
<g id="Authentication" clip-path="url(#clip0_1570_898)">
<path id="Vector" opacity="0.18" d="M87.313 123.438C88.8255 123.995 90.4975 124.077 92.1296 124.146C105.904 124.739 119.688 125.023 133.481 124.998C134.86 124.998 136.269 124.985 137.561 124.558C138.853 124.131 140.023 123.193 140.251 121.979C131.614 121.38 122.917 121.438 114.311 121.154C109.799 121.005 105.114 121.51 100.625 121.893C98.3508 122.088 96.0801 122.317 93.8133 122.58C92.3875 122.747 88.5816 123.905 87.313 123.438Z" fill="#1D2741"/>
<path id="Vector_2" d="M114.287 119.65L115.35 121.981L111.058 123.794L107.095 124.052C107.095 124.052 106.418 121.721 108.268 121.514C109.349 121.404 110.381 121.047 111.265 120.48L114.287 119.65ZM117.695 120.704C117.157 120.902 116.689 121.227 116.341 121.643C115.994 122.06 115.779 122.553 115.72 123.07L115.605 124.052H120.478V120.701L117.695 120.704Z" fill="#68E1FD"/>
<path id="Vector_3" opacity="0.22" d="M148.648 13.9154V72.098C148.649 72.9447 148.462 73.7832 148.099 74.5655C147.737 75.3477 147.205 76.0585 146.534 76.6572C145.864 77.2559 145.068 77.7308 144.191 78.0547C143.315 78.3786 142.376 78.5451 141.428 78.5449H7.22019C5.30528 78.5449 3.46879 77.8656 2.11474 76.6566C0.760696 75.4476 0 73.8078 0 72.098V13.9154C0.00248189 12.2063 0.763977 10.5678 2.11749 9.35931C3.471 8.15077 5.30604 7.47084 7.22019 7.46863H141.433C143.346 7.47195 145.18 8.15237 146.532 9.36078C147.885 10.5692 148.646 12.207 148.648 13.9154Z" fill="url(#paint0_linear_1570_898)"/>
<path id="Vector_4" d="M149 13.6998V71.8802C149 73.3556 148.434 74.7864 147.396 75.9341C146.358 77.0818 144.91 77.8769 143.295 78.1868C142.797 78.2804 142.29 78.3274 141.782 78.3271H7.56958C6.62113 78.3276 5.68186 78.1613 4.80545 77.8375C3.92905 77.5137 3.1327 77.0389 2.46193 76.4402C1.79117 75.8415 1.25913 75.1306 0.896247 74.3482C0.533361 73.5657 0.346738 72.7271 0.347046 71.8802V13.6998C0.348909 11.9899 1.11045 10.3506 2.46454 9.14153C3.81862 7.93249 5.65462 7.25252 7.56958 7.25085H141.782C143.536 7.25113 145.229 7.82145 146.546 8.85527C147.863 9.88908 148.714 11.3157 148.939 12.8685C148.981 13.144 149.001 13.4218 149 13.6998Z" fill="#68E1FD"/>
<path id="Vector_5" d="M149 13.6998V71.8802C149 73.3556 148.434 74.7864 147.396 75.9341C146.358 77.0818 144.91 77.8769 143.295 78.1868C142.797 78.2804 142.29 78.3274 141.782 78.3271H7.56958C6.62113 78.3276 5.68185 78.1613 4.80545 77.8375C3.92905 77.5137 3.1327 77.0389 2.46193 76.4402C1.79117 75.8415 1.25913 75.1306 0.896247 74.3482C0.53336 73.5657 0.346738 72.7271 0.347046 71.8802V13.6998C0.348909 11.9899 1.11045 10.3506 2.46454 9.14153C3.81862 7.93249 5.65462 7.25252 7.56958 7.25085H141.782C143.536 7.25113 145.229 7.82145 146.546 8.85527C147.863 9.88908 148.714 11.3157 148.939 12.8685C148.981 13.144 149.001 13.4218 149 13.6998Z" fill="url(#paint1_linear_1570_898)"/>
<path id="Vector_6" d="M148.592 13.0863H0.0609741C0.286549 11.5333 1.13753 10.1066 2.45499 9.07287C3.77244 8.03909 5.46629 7.46885 7.2202 7.46863H141.433C143.187 7.4684 144.881 8.03849 146.198 9.07235C147.516 10.1062 148.367 11.5331 148.592 13.0863Z" fill="url(#paint2_linear_1570_898)"/>
<path id="Vector_7" d="M97.0118 58.4192H46.7683C45.7425 58.4192 44.911 59.1616 44.911 60.0775V62.8057C44.911 63.7216 45.7425 64.464 46.7683 64.464H97.0118C98.0375 64.464 98.869 63.7216 98.869 62.8057V60.0775C98.869 59.1616 98.0375 58.4192 97.0118 58.4192Z" fill="white" stroke="#68E1FD" stroke-width="0.88" stroke-miterlimit="10"/>
<path id="Vector_8" d="M49.3102 62.8392C50.1248 62.8392 50.7852 62.2496 50.7852 61.5222C50.7852 60.7948 50.1248 60.2052 49.3102 60.2052C48.4956 60.2052 47.8352 60.7948 47.8352 61.5222C47.8352 62.2496 48.4956 62.8392 49.3102 62.8392Z" fill="#68E1FD"/>
<path id="Vector_9" d="M53.8994 62.8392C54.714 62.8392 55.3744 62.2496 55.3744 61.5222C55.3744 60.7948 54.714 60.2052 53.8994 60.2052C53.0848 60.2052 52.4244 60.7948 52.4244 61.5222C52.4244 62.2496 53.0848 62.8392 53.8994 62.8392Z" fill="#68E1FD"/>
<path id="Vector_10" d="M58.4908 62.8392C59.3054 62.8392 59.9658 62.2496 59.9658 61.5222C59.9658 60.7948 59.3054 60.2052 58.4908 60.2052C57.6762 60.2052 57.0158 60.7948 57.0158 61.5222C57.0158 62.2496 57.6762 62.8392 58.4908 62.8392Z" fill="#68E1FD"/>
<path id="Vector_11" d="M63.0799 62.8392C63.8946 62.8392 64.5549 62.2496 64.5549 61.5222C64.5549 60.7948 63.8946 60.2052 63.0799 60.2052C62.2653 60.2052 61.6049 60.7948 61.6049 61.5222C61.6049 62.2496 62.2653 62.8392 63.0799 62.8392Z" fill="#68E1FD"/>
<path id="Vector_12" d="M102.511 61.162V60.4669H103.125V60.0188H102.511V59.6838H103.125V59.2357H101.894V61.162C101.52 61.2302 101.188 61.42 100.961 61.6946C100.735 61.9692 100.631 62.309 100.67 62.6482C100.708 62.9873 100.886 63.3017 101.169 63.5303C101.452 63.7589 101.821 63.8854 102.202 63.8854C102.584 63.8854 102.952 63.7589 103.236 63.5303C103.519 63.3017 103.697 62.9873 103.735 62.6482C103.774 62.309 103.67 61.9692 103.443 61.6946C103.217 61.42 102.885 61.2302 102.511 61.162ZM102.204 63.4652C101.992 63.4656 101.784 63.4098 101.608 63.305C101.431 63.2001 101.293 63.0508 101.212 62.876C101.13 62.7012 101.109 62.5087 101.15 62.3229C101.191 62.1372 101.293 61.9665 101.443 61.8325C101.592 61.6984 101.783 61.6071 101.991 61.57C102.199 61.5329 102.415 61.5517 102.611 61.6241C102.807 61.6965 102.974 61.8191 103.092 61.9765C103.21 62.1339 103.273 62.319 103.273 62.5083C103.273 62.7619 103.16 63.0052 102.96 63.1849C102.76 63.3647 102.488 63.4662 102.204 63.4673V63.4652Z" fill="#68E1FD"/>
<path id="Vector_13" d="M81.0519 26.3463H65.6641C64.1411 26.3463 62.9064 27.4487 62.9064 28.8086V42.5482C62.9064 43.9081 64.1411 45.0105 65.6641 45.0105H81.0519C82.5749 45.0105 83.8096 43.9081 83.8096 42.5482V28.8086C83.8096 27.4487 82.5749 26.3463 81.0519 26.3463Z" fill="url(#paint3_linear_1570_898)"/>
<path id="Vector_14" d="M81.1363 26.3463H66.8577C65.3826 26.3463 64.1868 27.414 64.1868 28.7312V42.6256C64.1868 43.9427 65.3826 45.0105 66.8577 45.0105H81.1363C82.6114 45.0105 83.8072 43.9427 83.8072 42.6256V28.7312C83.8072 27.414 82.6114 26.3463 81.1363 26.3463Z" fill="#68E1FD"/>
<path id="Vector_15" d="M84.6162 35.7391L83.5375 36.6541L83.0686 37.0477C82.6989 36.6537 82.2298 36.3437 81.6999 36.1432C81.1699 35.9426 80.5942 35.8572 80.0201 35.894C79.769 35.9211 79.5145 35.8841 79.2861 35.7872C78.5099 35.3936 79.727 34.0515 79.727 34.0515C79.9948 34.0462 80.2627 34.0567 80.5289 34.0829C80.5523 34.0808 80.5759 34.0808 80.5993 34.0829L80.8127 34.1059C81.8304 34.2357 83.4883 34.6691 84.6162 35.7391Z" fill="white"/>
<path id="Vector_16" opacity="0.39" d="M83.4953 36.5683L83.5375 36.6541L83.0685 37.0477C82.6989 36.6538 82.2298 36.3438 81.6998 36.1432C81.1699 35.9426 80.5942 35.8573 80.0201 35.8941C79.769 35.9212 79.5145 35.8841 79.2861 35.7873L79.7269 34.0515C79.7269 34.0515 80.1608 34.0515 80.5289 34.0829C80.5523 34.0809 80.5759 34.0809 80.5993 34.0829C80.6708 34.0867 80.7421 34.0944 80.8127 34.106C80.8127 34.106 81.0683 35.0817 80.8783 35.492C80.8783 35.4983 82.6769 35.7663 83.4953 36.5683Z" fill="url(#paint4_linear_1570_898)"/>
<path id="Vector_17" d="M73.7215 30.2805H72.9945C72.4105 30.2805 71.937 30.7033 71.937 31.2248V40.1319C71.937 40.6534 72.4105 41.0762 72.9945 41.0762H73.7215C74.3056 41.0762 74.7791 40.6534 74.7791 40.1319V31.2248C74.7791 30.7033 74.3056 30.2805 73.7215 30.2805Z" fill="url(#paint5_linear_1570_898)"/>
<path id="Vector_18" d="M80.0154 35.5318C80.0037 36.662 79.4929 37.7424 78.5941 38.5382C77.6953 39.3341 76.4811 39.7811 75.2152 39.7822H74.1811C74.025 39.782 73.872 39.7427 73.7398 39.6687C73.6075 39.5946 73.5012 39.4888 73.433 39.3634C73.3699 39.2499 73.3402 39.1239 73.347 38.9973C73.3537 38.8707 73.3966 38.7477 73.4716 38.6401C73.5465 38.5325 73.6511 38.4437 73.7752 38.3823C73.8994 38.3209 74.0391 38.2889 74.1811 38.2893H74.5657C74.9826 38.2894 75.3953 38.2151 75.7796 38.0709C76.1639 37.9266 76.5121 37.7153 76.8037 37.4493C77.0953 37.1832 77.3244 36.8679 77.4777 36.5217C77.631 36.1755 77.7053 35.8055 77.6962 35.4334C77.6681 34.6956 77.3186 33.9967 76.7221 33.4856C76.1255 32.9745 75.3291 32.6914 74.5023 32.6968H74.0333C73.8517 32.6968 73.6776 32.6324 73.5492 32.5177C73.4208 32.403 73.3486 32.2475 73.3486 32.0854V31.8257C73.3486 31.6636 73.4208 31.5081 73.5492 31.3934C73.6776 31.2788 73.8517 31.2144 74.0333 31.2144H75.1331C77.79 31.2123 80.0342 33.1553 80.0154 35.5318Z" fill="white"/>
<path id="Vector_19" opacity="0.39" d="M78.735 35.7036C78.7258 36.6864 78.2823 37.6262 77.5011 38.3186C76.7199 39.0111 75.6641 39.4001 74.5633 39.4012H73.6628C73.5832 39.4013 73.504 39.39 73.4283 39.3677C73.3652 39.2542 73.3355 39.1282 73.3423 39.0016C73.349 38.875 73.3919 38.752 73.4669 38.6444C73.5418 38.5367 73.6464 38.448 73.7705 38.3866C73.8947 38.3252 74.0344 38.2932 74.1764 38.2936H74.561C74.9779 38.2937 75.3906 38.2194 75.7749 38.0752C76.1592 37.9309 76.5074 37.7196 76.799 37.4535C77.0906 37.1875 77.3198 36.8722 77.473 36.526C77.6263 36.1798 77.7006 35.8098 77.6915 35.4376C77.6634 34.6999 77.3139 34.001 76.7174 33.4899C76.1208 32.9787 75.3244 32.6957 74.4977 32.701H74.0287C73.8471 32.701 73.6729 32.6366 73.5445 32.522C73.4161 32.4073 73.3439 32.2518 73.3439 32.0897V31.9745C73.4045 31.9568 73.4678 31.9476 73.5315 31.9473H74.4859C75.6063 31.945 76.6822 32.3389 77.4784 33.0427C78.2746 33.7466 78.7263 34.7032 78.735 35.7036Z" fill="url(#paint6_linear_1570_898)"/>
<path id="Vector_20" d="M77.5461 34.6461C77.5461 34.6461 77.8604 35.3978 77.4687 36.5452C77.4687 36.5452 75.9844 37.9083 77.2507 40.0753L78.2965 41.0741L77.0795 42.144C76.323 41.6209 75.736 40.9274 75.3787 40.1349C75.0215 39.3423 74.9068 38.4792 75.0464 37.634C75.3161 35.7872 77.5461 34.6461 77.5461 34.6461Z" fill="white"/>
<path id="Vector_21" d="M76.0406 43.0066L85.6785 34.8408L93.764 41.0741L83.8072 49.6021L76.0406 43.0066ZM76.0406 43.0066L76.6808 46.2437L83.8072 52.3492V49.6021L76.0406 43.0066Z" fill="#68E1FD"/>
<path id="Vector_22" d="M93.764 41.0741V44.0452L83.8072 52.3492V49.6022L93.764 41.0741Z" fill="#68E1FD"/>
<path id="Vector_23" d="M76.0406 43.0067L76.6808 46.2437L83.8072 52.3493V49.6022L76.0406 43.0067Z" fill="url(#paint7_linear_1570_898)"/>
<path id="Vector_24" d="M93.764 41.0741V44.0452L83.8072 52.3492V49.6022L93.764 41.0741Z" fill="url(#paint8_linear_1570_898)"/>
<path id="Vector_25" d="M77.8181 44.5163L87.5475 36.2814L88.4456 36.9744L78.735 45.2952L77.8181 44.5163Z" fill="url(#paint9_linear_1570_898)"/>
<path id="Vector_26" d="M80.6907 46.9012L90.6522 38.6663L91.5503 39.3572L81.6076 47.678L80.6907 46.9012Z" fill="url(#paint10_linear_1570_898)"/>
<path id="Vector_27" opacity="0.21" d="M108.479 55.0083C108.381 56.3018 108.46 57.6012 108.713 58.8777C108.873 59.667 109.086 60.536 108.631 61.2311C108.397 61.608 107.975 61.8718 107.597 62.1503C105.2 63.9091 103.815 66.5201 101.767 68.6013C101.632 68.7725 101.435 68.8973 101.209 68.9551C100.977 68.9686 100.747 68.9102 100.557 68.7897C99.3108 68.1474 98.2631 67.2378 97.5089 66.1432C97.1408 65.6072 96.8055 64.9958 96.1723 64.7215C94.9998 64.2064 93.5788 65.3015 93.4498 66.4677C93.3208 67.634 94.022 68.7311 94.6997 69.734L97.8349 74.3781C98.7893 75.7935 99.7953 77.2571 101.352 78.1469C102.43 78.7335 103.64 79.0982 104.896 79.2148C106.673 79.4242 108.476 79.3195 110.266 79.1959C113.538 78.9698 116.801 78.6795 120.056 78.3249C121.172 78.2035 122.441 77.9857 123.006 77.121C123.386 76.5389 123.334 75.8207 123.269 75.1507C123.039 72.7233 122.804 70.2966 122.565 67.8706C122.436 66.4949 122.244 65 121.158 64.0201C120.509 63.438 119.599 63.1072 119.022 62.4644C118.609 61.9491 118.344 61.3519 118.248 60.7244C117.692 58.1072 118.224 55.2952 117.075 52.8308C116.841 52.3325 116.527 51.8383 116.008 51.5598C115.533 51.3396 114.997 51.2431 114.463 51.2814C111.895 51.3463 108.666 52.4392 108.479 55.0083Z" fill="url(#paint11_linear_1570_898)"/>
<path id="Vector_28" opacity="0.18" d="M143.365 91.964C141.974 106.271 97.8912 101.688 66.1894 95.8878C34.4876 90.0879 8.33171 101.688 2.30042 91.964C-0.370511 87.6591 1.41402 82.2822 4.23503 77.6256C5.31023 78.1607 6.52156 78.4398 7.7525 78.4359H140.769C142.601 82.2864 143.86 86.8928 143.365 91.964Z" fill="#68E1FD"/>
<path id="Vector_29" d="M108.734 86.0197L105.848 104.793C105.727 105.583 105.819 106.388 106.117 107.14L111.276 120.703L114.292 119.866L112.017 106.371C111.969 106.092 111.989 105.806 112.078 105.534L115.992 93.4652L117.695 120.685H120.478L122.872 93.8233C123.684 89.3341 122.197 86.0197 122.197 86.0197H108.734Z" fill="#3F3D56"/>
<path id="Vector_30" d="M123.529 81.049L120.673 64.6211L120.274 62.6194C120.274 62.6194 125.606 65.3413 127.135 70.1026C129.136 76.3526 123.529 81.049 123.529 81.049Z" fill="#77536F"/>
<path id="Vector_31" d="M126.46 77.2257C128.624 73.4045 124.35 66.7567 124.35 66.7567L120.668 64.6231L121.083 62.2509C121.083 62.2509 127.021 62.7931 127.6 70.2785C127.792 72.6885 127.59 75.6658 126.46 77.2257Z" fill="#77536F"/>
<path id="Vector_32" d="M95.8698 64.399C95.6705 63.796 95.3234 63.0779 94.6199 63.0234C94.8106 63.5732 94.7825 64.1651 94.5402 64.6985C93.0066 64.1918 92.6501 62.1859 91.1189 61.6666C90.8844 61.8886 91.0157 62.2508 91.1611 62.5272C91.4284 63.0423 91.6973 63.5573 91.9677 64.0724C91.6082 63.5671 91.2259 63.0786 90.821 62.6067C90.7015 62.4623 90.4951 62.3052 90.3263 62.3974C90.1574 62.4895 90.2184 62.6842 90.2794 62.835C90.5467 63.505 90.8515 64.1645 91.1869 64.8094C90.8105 64.2452 90.3798 63.7113 89.8995 63.2139C89.5852 63.283 89.6509 63.6976 89.7869 63.9593L90.7929 65.8731L89.9862 64.8262C89.7259 64.8492 89.7658 65.2052 89.8924 65.4103C90.9742 67.1349 92.6644 68.4916 94.6996 69.2692C95.1124 69.4263 95.5907 69.5561 95.9964 69.3865C97.7411 68.6767 96.2075 65.4334 95.8698 64.399Z" fill="url(#paint12_linear_1570_898)"/>
<path id="Vector_33" d="M123.529 69.4807V82.3618C123.529 83.9405 123.24 85.224 121.47 85.224H109.107C107.344 85.224 107.276 83.9531 107.264 82.3806L107.173 73.6265C107.173 73.6265 104.504 77.8706 102.375 77.4581C100.246 77.0456 93.9329 69.2755 93.9329 69.2755L97.0751 66.9179L102.37 71.6583C102.37 71.6583 103.221 69.9309 104.459 66.0636C105.698 62.1964 109.722 62.1859 109.722 62.1859H120.471C124.352 62.1859 123.529 69.4807 123.529 69.4807Z" fill="#77536F"/>
<path id="Vector_34" d="M123.529 70.9318C123.529 70.9318 125.386 73.2622 123.529 75.5926V70.9318Z" fill="#3F3D56"/>
<path id="Vector_35" d="M108.734 85.1423H122.197V86.0196H108.734V85.1423Z" fill="url(#paint13_linear_1570_898)"/>
<path id="Vector_36" d="M113.319 53.4254H117.204V62.2466H113.319V53.4254Z" fill="url(#paint14_linear_1570_898)"/>
<path id="Vector_37" d="M117.207 52.4581V62.2487H115.157V61.652C115.157 61.4783 115.119 61.3064 115.044 61.1459C114.97 60.9855 114.861 60.8398 114.723 60.7171C114.585 60.5943 114.422 60.4971 114.242 60.4308C114.062 60.3645 113.87 60.3306 113.675 60.3308H113.558C112.582 60.3308 111.645 59.9845 110.955 59.368C110.264 58.7515 109.876 57.9154 109.876 57.0436V52.4581H117.207Z" fill="url(#paint15_linear_1570_898)"/>
<path id="Vector_38" d="M109.876 53.4255C109.876 53.4255 106.476 51.7693 107.693 49.956C108.91 48.1428 110.894 49.2839 110.894 49.2839H117.448C117.448 49.2839 118.201 49.1792 118.492 50.3183C118.783 51.4573 117.216 58.5281 117.216 58.5281H113.959L113.542 56.6897C113.542 56.6897 114.191 56.0616 114.132 55.3936C114.138 55.2686 114.095 55.1458 114.011 55.0457C113.927 54.9456 113.807 54.8745 113.671 54.8443C113.535 54.8141 113.391 54.8266 113.264 54.8797C113.137 54.9329 113.035 55.0234 112.974 55.1361C112.681 55.6009 112.798 53.6328 111.755 53.4255C111.136 53.3002 110.495 53.3002 109.876 53.4255Z" fill="#3F3D56"/>
<path id="Vector_39" d="M114.287 119.65L115.35 121.981L111.058 123.794L107.095 124.052C107.095 124.052 106.418 121.721 108.268 121.514C109.349 121.404 110.381 121.047 111.265 120.48L114.287 119.65Z" fill="url(#paint16_linear_1570_898)"/>
<path id="Vector_40" d="M117.695 120.704C117.157 120.902 116.689 121.226 116.341 121.643C115.994 122.06 115.779 122.553 115.72 123.07L115.605 124.051H120.478V120.701L117.695 120.704Z" fill="url(#paint17_linear_1570_898)"/>
<path id="Vector_41" opacity="0.18" d="M28.1702 7.57746C28.1702 7.57746 58.2704 -9.47237 96.8172 7.57746H28.1702Z" fill="#68E1FD"/>
</g>
<defs>
<linearGradient id="paint0_linear_1570_898" x1="0" y1="43.0067" x2="148.653" y2="43.0067" gradientUnits="userSpaceOnUse">
<stop stop-color="#68E1FD"/>
<stop offset="1" stop-color="#69B9EB"/>
</linearGradient>
<linearGradient id="paint1_linear_1570_898" x1="-21.1963" y1="25.3183" x2="202.723" y2="76.504" gradientUnits="userSpaceOnUse">
<stop stop-color="#FE9400"/>
<stop offset="1" stop-color="white"/>
</linearGradient>
<linearGradient id="paint2_linear_1570_898" x1="-12.6957" y1="11.9138" x2="252.925" y2="5.89757" gradientUnits="userSpaceOnUse">
<stop offset="0.02" stop-opacity="0"/>
<stop offset="0.99" stop-color="#3F3D56"/>
</linearGradient>
<linearGradient id="paint3_linear_1570_898" x1="73.6089" y1="35.5925" x2="28.914" y2="54.4809" gradientUnits="userSpaceOnUse">
<stop stop-color="#68E1FD"/>
<stop offset="0.01" stop-color="#67DDF9"/>
<stop offset="0.12" stop-color="#5CB3CE"/>
<stop offset="0.24" stop-color="#538EA9"/>
<stop offset="0.37" stop-color="#4C718B"/>
<stop offset="0.5" stop-color="#465A73"/>
<stop offset="0.63" stop-color="#424A63"/>
<stop offset="0.79" stop-color="#404059"/>
<stop offset="0.99" stop-color="#3F3D56"/>
</linearGradient>
<linearGradient id="paint4_linear_1570_898" x1="79.2814" y1="35.5507" x2="83.5375" y2="35.5507" gradientUnits="userSpaceOnUse">
<stop stop-color="#68E1FD"/>
<stop offset="1" stop-color="#69B9EB"/>
</linearGradient>
<linearGradient id="paint5_linear_1570_898" x1="70.3353" y1="35.6679" x2="94.3878" y2="35.7545" gradientUnits="userSpaceOnUse">
<stop stop-opacity="0"/>
<stop offset="0.02" stop-color="#030304" stop-opacity="0.04"/>
<stop offset="0.18" stop-color="#181821" stop-opacity="0.39"/>
<stop offset="0.35" stop-color="#292839" stop-opacity="0.66"/>
<stop offset="0.53" stop-color="#363449" stop-opacity="0.85"/>
<stop offset="0.73" stop-color="#3D3B53" stop-opacity="0.96"/>
<stop offset="0.99" stop-color="#3F3D56"/>
</linearGradient>
<linearGradient id="paint6_linear_1570_898" x1="82.5526" y1="35.4251" x2="75.2336" y2="35.6955" gradientUnits="userSpaceOnUse">
<stop stop-color="#68E1FD"/>
<stop offset="1" stop-color="#69B9EB"/>
</linearGradient>
<linearGradient id="paint7_linear_1570_898" x1="78.0831" y1="52.075" x2="84.5114" y2="32.8148" gradientUnits="userSpaceOnUse">
<stop stop-opacity="0"/>
<stop offset="0.02" stop-color="#030304" stop-opacity="0.04"/>
<stop offset="0.18" stop-color="#181821" stop-opacity="0.39"/>
<stop offset="0.35" stop-color="#292839" stop-opacity="0.66"/>
<stop offset="0.53" stop-color="#363449" stop-opacity="0.85"/>
<stop offset="0.73" stop-color="#3D3B53" stop-opacity="0.96"/>
<stop offset="0.99" stop-color="#3F3D56"/>
</linearGradient>
<linearGradient id="paint8_linear_1570_898" x1="89.9581" y1="50.358" x2="85.1238" y2="31.4804" gradientUnits="userSpaceOnUse">
<stop stop-opacity="0"/>
<stop offset="0.02" stop-color="#030304" stop-opacity="0.04"/>
<stop offset="0.18" stop-color="#181821" stop-opacity="0.39"/>
<stop offset="0.35" stop-color="#292839" stop-opacity="0.66"/>
<stop offset="0.53" stop-color="#363449" stop-opacity="0.85"/>
<stop offset="0.73" stop-color="#3D3B53" stop-opacity="0.96"/>
<stop offset="0.99" stop-color="#3F3D56"/>
</linearGradient>
<linearGradient id="paint9_linear_1570_898" x1="87.1465" y1="35.6428" x2="61.6715" y2="76.2737" gradientUnits="userSpaceOnUse">
<stop stop-opacity="0"/>
<stop offset="0.02" stop-color="#030304" stop-opacity="0.04"/>
<stop offset="0.18" stop-color="#181821" stop-opacity="0.39"/>
<stop offset="0.35" stop-color="#292839" stop-opacity="0.66"/>
<stop offset="0.53" stop-color="#363449" stop-opacity="0.85"/>
<stop offset="0.73" stop-color="#3D3B53" stop-opacity="0.96"/>
<stop offset="0.99" stop-color="#3F3D56"/>
</linearGradient>
<linearGradient id="paint10_linear_1570_898" x1="90.4036" y1="37.6843" x2="64.9288" y2="78.3172" gradientUnits="userSpaceOnUse">
<stop stop-opacity="0"/>
<stop offset="0.02" stop-color="#030304" stop-opacity="0.04"/>
<stop offset="0.18" stop-color="#181821" stop-opacity="0.39"/>
<stop offset="0.35" stop-color="#292839" stop-opacity="0.66"/>
<stop offset="0.53" stop-color="#363449" stop-opacity="0.85"/>
<stop offset="0.73" stop-color="#3D3B53" stop-opacity="0.96"/>
<stop offset="0.99" stop-color="#3F3D56"/>
</linearGradient>
<linearGradient id="paint11_linear_1570_898" x1="99.6992" y1="57.3492" x2="152.202" y2="112.711" gradientUnits="userSpaceOnUse">
<stop stop-opacity="0"/>
<stop offset="0.02" stop-color="#030304" stop-opacity="0.04"/>
<stop offset="0.18" stop-color="#181821" stop-opacity="0.39"/>
<stop offset="0.35" stop-color="#292839" stop-opacity="0.66"/>
<stop offset="0.53" stop-color="#363449" stop-opacity="0.85"/>
<stop offset="0.73" stop-color="#3D3B53" stop-opacity="0.96"/>
<stop offset="0.99" stop-color="#3F3D56"/>
</linearGradient>
<linearGradient id="paint12_linear_1570_898" x1="89.6744" y1="65.5716" x2="96.8172" y2="65.5716" gradientUnits="userSpaceOnUse">
<stop stop-color="#ECC4D7"/>
<stop offset="0.42" stop-color="#EFD4D1"/>
<stop offset="1" stop-color="#F2EAC9"/>
</linearGradient>
<linearGradient id="paint13_linear_1570_898" x1="108.734" y1="85.582" x2="122.197" y2="85.582" gradientUnits="userSpaceOnUse">
<stop stop-color="#68E1FD"/>
<stop offset="1" stop-color="#69B9EB"/>
</linearGradient>
<linearGradient id="paint14_linear_1570_898" x1="114.062" y1="57.8559" x2="120.442" y2="57.7272" gradientUnits="userSpaceOnUse">
<stop stop-color="#ECC4D7"/>
<stop offset="0.42" stop-color="#EFD4D1"/>
<stop offset="1" stop-color="#F2EAC9"/>
</linearGradient>
<linearGradient id="paint15_linear_1570_898" x1="114.435" y1="56.9326" x2="113.188" y2="57.6692" gradientUnits="userSpaceOnUse">
<stop stop-color="#ECC4D7"/>
<stop offset="0.42" stop-color="#EFD4D1"/>
<stop offset="1" stop-color="#F2EAC9"/>
</linearGradient>
<linearGradient id="paint16_linear_1570_898" x1="106.973" y1="121.851" x2="115.35" y2="121.851" gradientUnits="userSpaceOnUse">
<stop stop-opacity="0"/>
<stop offset="0.02" stop-color="#030304" stop-opacity="0.04"/>
<stop offset="0.18" stop-color="#181821" stop-opacity="0.39"/>
<stop offset="0.35" stop-color="#292839" stop-opacity="0.66"/>
<stop offset="0.53" stop-color="#363449" stop-opacity="0.85"/>
<stop offset="0.73" stop-color="#3D3B53" stop-opacity="0.96"/>
<stop offset="0.99" stop-color="#3F3D56"/>
</linearGradient>
<linearGradient id="paint17_linear_1570_898" x1="115.6" y1="122.379" x2="120.473" y2="122.379" gradientUnits="userSpaceOnUse">
<stop stop-opacity="0"/>
<stop offset="0.02" stop-color="#030304" stop-opacity="0.04"/>
<stop offset="0.18" stop-color="#181821" stop-opacity="0.39"/>
<stop offset="0.35" stop-color="#292839" stop-opacity="0.66"/>
<stop offset="0.53" stop-color="#363449" stop-opacity="0.85"/>
<stop offset="0.73" stop-color="#3D3B53" stop-opacity="0.96"/>
<stop offset="0.99" stop-color="#3F3D56"/>
</linearGradient>
<clipPath id="clip0_1570_898">
<rect width="149" height="125" fill="white"/>
</clipPath>
</defs>
</svg>
