<svg width="78" height="90" viewBox="0 0 78 90" fill="none" xmlns="http://www.w3.org/2000/svg">
<g id="Group 298">
<g id="Group 297">
<path id="Vector" d="M39.3816 6.19965C39.3166 4.09746 39.6215 2.00003 40.2829 0C40.3477 2.09534 40.0427 4.18586 39.3816 6.17879V6.19965Z" fill="#263238"/>
<path id="Vector_2" d="M24.4237 7.84747C23.3044 6.06243 22.5063 4.101 22.0645 2.04932C23.1838 3.83436 23.9819 5.79579 24.4237 7.84747Z" fill="#263238"/>
<path id="Vector_3" d="M12.3146 16.6279C10.4382 15.6313 8.74911 14.3263 7.32031 12.7694C9.19868 13.763 10.8883 15.0683 12.3146 16.6279Z" fill="#263238"/>
<path id="Vector_4" d="M6.2826 30.1902C4.15218 30.2518 2.0269 29.9519 0 29.3038C2.13054 29.2401 4.25618 29.54 6.2826 30.1902Z" fill="#263238"/>
<path id="Vector_5" d="M57.7461 52.3136C59.6236 53.3085 61.313 54.6137 62.7403 56.1721C60.862 55.1785 59.1724 53.8732 57.7461 52.3136Z" fill="#263238"/>
<path id="Vector_6" d="M63.7773 38.7515C65.9071 38.6866 68.0324 38.9829 70.0599 39.6275C67.9294 39.6912 65.8038 39.3913 63.7773 38.7411V38.7515Z" fill="#263238"/>
<path id="Vector_7" d="M62.0996 24.0425C63.9146 22.9416 65.909 22.1567 67.9952 21.7222C66.1801 22.823 64.1858 23.6079 62.0996 24.0425Z" fill="#263238"/>
<path id="Vector_8" d="M53.1738 12.1279C54.1854 10.2815 55.5125 8.61996 57.0971 7.21619C56.0869 9.06352 54.7596 10.7252 53.1738 12.1279Z" fill="#263238"/>
<g id="Group" opacity="0.5">
<path id="Vector_9" d="M59.5175 40.3055C55.8063 55.2233 42.2443 57.7365 42.2443 57.7365C40.9242 59.8847 38.2998 66.5119 38.2998 66.5119L21.5675 63.8423C21.5675 63.8423 21.3819 56.7719 20.8199 54.3264C20.8199 54.3264 8.76369 47.7253 10.0308 32.4269C10.9056 21.79 21.0691 7.47711 38.9678 10.324L39.1534 10.3553C57.0575 13.2023 62.0994 29.9398 59.5175 40.3055Z" fill="#FFC727"/>
<path id="Vector_10" d="M59.5177 40.3055C57.959 46.5625 54.0569 52.173 48.278 55.3745C46.4017 56.463 44.3722 57.2729 42.2552 57.7782C41.953 58.3309 41.4917 59.2121 41.1948 59.8951C40.1769 62.0747 39.2597 64.3011 38.3637 66.5276V66.5693H38.3213C38.2523 66.5693 21.5836 63.9622 21.52 63.9205C21.4705 62.3041 21.3945 60.6912 21.292 59.0817C21.2231 57.6166 20.9686 55.5882 20.8042 54.389C17.4279 52.2806 14.6519 49.3628 12.7368 45.9097C10.8218 42.4566 9.8305 38.5814 9.8561 34.6481C9.66524 22.3114 20.0726 10.4283 32.8445 9.90691C39.5937 9.59406 46.6769 11.4712 51.7984 15.9345C58.6323 21.8526 61.5377 31.65 59.5177 40.3055ZM59.5177 40.3055C61.5377 31.6552 58.5793 21.8995 51.74 16.0179C46.6291 11.5859 39.5725 9.76091 32.8551 10.0738C20.1839 10.616 9.89321 22.4209 10.1106 34.6638C10.0533 40.258 12.0764 45.6801 15.7994 49.91C17.2607 51.6017 18.9773 53.063 20.8891 54.243C20.9315 54.243 20.9262 54.243 20.9368 54.3056C21.09 55.0901 21.2015 55.882 21.2708 56.678C21.4935 59.0609 21.5995 61.4542 21.6737 63.8423L21.6048 63.7641L38.3266 66.4546C39.4145 63.455 40.7203 60.5362 42.234 57.7208C50.9872 55.5987 57.4182 48.8568 59.5389 40.3055H59.5177Z" fill="#263238"/>
</g>
<path id="Vector_11" d="M25.5842 37.6702L23.9941 37.7076L24.6817 65.9812L26.2718 65.9438L25.5842 37.6702Z" fill="#263238"/>
<path id="Vector_12" d="M43.0804 40.4611L33.3535 67.0758L34.8503 67.6049L44.5771 40.9902L43.0804 40.4611Z" fill="#263238"/>
<path id="Vector_13" d="M33.2339 48.4026C33.0882 48.4034 32.9427 48.3912 32.7992 48.3661C31.2087 48.1158 29.9946 46.463 29.2629 44.4607C29.044 44.6534 28.7867 44.7993 28.5074 44.889C28.2282 44.9788 27.933 45.0105 27.6406 44.9821C24.9897 44.5598 24.8041 39.0328 24.7988 38.7981H25.329C25.3661 40.2737 25.8592 44.1844 27.7254 44.4764C27.9793 44.4858 28.2322 44.4408 28.4665 44.3445C28.7009 44.2482 28.9112 44.1028 29.0827 43.9184C28.5462 42.2825 28.3779 40.5513 28.5896 38.8451C28.8388 37.3277 29.5704 36.5456 30.5884 36.7125C31.7706 36.9002 32.2955 37.9326 32.0304 39.5437C31.7013 41.2439 30.8909 42.8181 29.6924 44.0853C30.3445 46.0093 31.4525 47.6205 32.8734 47.8499C33.9338 48.0168 35.1691 47.3285 36.3143 45.978C36.3991 45.8685 36.4892 45.759 36.5741 45.6443C36.3861 45.3518 36.2297 45.0407 36.1075 44.7162C35.3175 42.6775 35.5508 39.8722 36.6112 38.5948C36.7887 38.3509 37.0309 38.1597 37.3114 38.042C37.5919 37.9243 37.8998 37.8847 38.2017 37.9274C38.4466 37.9577 38.6775 38.0563 38.8673 38.2115C39.057 38.3667 39.1977 38.5721 39.2726 38.8033C39.8346 40.2581 38.8962 43.3501 37.2633 45.6548C37.649 46.163 38.2183 46.5064 38.8538 46.6142C40.4443 46.8644 42.4643 43.3397 43.0952 41.9579L43.5777 42.1769C43.3179 42.6983 41.0116 47.4901 38.7531 47.1304C38.0309 47.0153 37.3765 46.6444 36.9134 46.0875C36.855 46.1657 36.7914 46.2387 36.7331 46.3117C35.5932 47.6883 34.3897 48.4026 33.2339 48.4026ZM37.9578 38.4331C37.7726 38.4431 37.5923 38.4954 37.4312 38.5859C37.2702 38.6765 37.1328 38.8027 37.03 38.9545C36.0916 40.086 35.8954 42.7088 36.6112 44.5598C36.6959 44.7847 36.7987 45.0027 36.9187 45.2116C38.3448 43.0946 39.2302 40.2477 38.7531 39.0119C38.7097 38.8775 38.6293 38.7576 38.5207 38.6655C38.4121 38.5735 38.2796 38.5129 38.1381 38.4905L37.9578 38.4331ZM30.3392 37.2182C29.5651 37.2182 29.247 38.1359 29.1145 38.9337C28.9263 40.47 29.0598 42.028 29.5068 43.5117C30.5209 42.3578 31.21 40.9628 31.5056 39.4655C31.6593 38.5426 31.6063 37.3799 30.5035 37.2339L30.3392 37.2182Z" fill="#263238"/>
<path id="Vector_14" d="M41.1396 66.9503L18.9336 63.4131L16.9543 75.4316L39.1603 78.9687L41.1396 66.9503Z" fill="#C7C7C7"/>
<path id="Vector_15" d="M36.6216 78.577C34.941 80.6627 32.0992 82.2843 27.3223 81.523C22.5455 80.7618 20.3823 78.3268 19.4492 75.8396L36.6216 78.577Z" fill="#C7C7C7"/>
<path id="Vector_16" d="M36.6216 78.577C36.1223 79.1956 35.5348 79.74 34.8774 80.1934L19.7779 76.6061C19.656 76.3506 19.5447 76.0847 19.4492 75.8396L36.6216 78.577Z" fill="#A6A6A6"/>
<path id="Vector_17" d="M41.3976 69.3582L17.5449 67.747L17.7146 66.699L41.5725 68.3049L41.3976 69.3582Z" fill="#A6A6A6"/>
<path id="Vector_18" d="M40.8775 72.5289L17.0195 70.9229L17.1945 69.8696L41.0471 71.4808L40.8775 72.5289Z" fill="#A6A6A6"/>
<path id="Vector_19" d="M40.354 75.704L16.4961 74.0929L16.6711 73.0448L40.529 74.656L40.354 75.704Z" fill="#A6A6A6"/>
<g id="Group_2" opacity="0.7">
<path id="Vector_20" d="M15.4899 28.0631C16.2799 28.329 18.0136 24.3663 23.3206 20.3044C25.6799 18.4951 33.728 17.0508 33.5848 14.5115C33.4417 11.9722 26.2313 13.4113 22.1754 16.7588C15.6437 22.1502 14.7583 27.8232 15.4899 28.0631Z" fill="white"/>
<path id="Vector_21" d="M55.7691 36.9482C57.2695 37.1829 57.6459 34.8939 56.1455 34.6592C54.6451 34.4246 54.2687 36.7084 55.7691 36.9482Z" fill="white"/>
<path id="Vector_22" d="M45.6043 53.5085C46.3253 54.2489 50.9061 51.2768 53.3926 47.2515C55.4656 43.9196 56.4676 39.4302 55.5133 39.0235C54.559 38.6168 52.8889 44.6913 51.309 46.7822C49.3155 49.431 44.8408 52.7107 45.6043 53.5085Z" fill="white"/>
</g>
</g>
<g id="freepik--Stopwatch--inject-46">
<path id="Vector_23" d="M76.5843 73.66C76.5821 73.7073 76.5744 73.7542 76.5612 73.7997C76.5382 73.9055 76.5113 74.0376 76.4729 74.2C76.4309 74.4104 76.3771 74.6184 76.3117 74.823C76.2387 75.0647 76.1696 75.3403 76.0583 75.6386L75.8894 76.1068C75.8318 76.2692 75.7588 76.4316 75.6897 76.6053C75.5515 76.9527 75.3749 77.3114 75.1944 77.689C74.7821 78.5001 74.3112 79.2812 73.7854 80.0263C73.2473 80.7634 72.6572 81.4625 72.0193 82.1181C71.716 82.4127 71.4357 82.6958 71.1477 82.9375C71.0057 83.0621 70.8713 83.1867 70.7369 83.3151L70.353 83.6247C70.1073 83.8286 69.8654 84.0023 69.6581 84.1345C69.4847 84.2699 69.304 84.3959 69.1167 84.5121L68.7673 84.7273C68.728 84.7548 68.6855 84.7777 68.6406 84.7953C68.6406 84.7953 68.6752 84.7613 68.752 84.7084L69.0937 84.4743C69.2396 84.3761 69.42 84.2553 69.6197 84.0967C69.8193 83.9381 70.0612 83.7833 70.3031 83.5756L70.687 83.2622C70.8176 83.149 70.9481 83.0244 71.0901 82.9035C71.3743 82.6581 71.6507 82.3749 71.9502 82.0804C73.2203 80.775 74.2841 79.2896 75.1061 77.6739C75.2904 77.2963 75.467 76.9451 75.6052 76.6015C75.6782 76.4316 75.755 76.2692 75.8126 76.1068C75.8702 75.9445 75.9316 75.7934 75.9853 75.6462C76.1044 75.3517 76.1811 75.076 76.2579 74.8381C76.3347 74.6002 76.3961 74.3926 76.4384 74.2227C76.4806 74.0527 76.519 73.9319 76.5459 73.8451C76.5505 73.782 76.5634 73.7198 76.5843 73.66Z" fill="#263238"/>
<path id="Vector_24" d="M76.441 78.2603C76.4227 78.339 76.3943 78.4151 76.3565 78.4868C76.2951 78.6303 76.1953 78.838 76.0686 79.0834C75.7298 79.732 75.3355 80.3509 74.8899 80.9336C74.4466 81.5213 73.9548 82.0719 73.4194 82.5799C73.2121 82.7687 73.0355 82.9198 72.9164 83.0179C72.8565 83.0741 72.7894 83.1224 72.7168 83.1614C72.7168 83.1614 72.9664 82.916 73.3618 82.5195C73.8762 82.0032 74.3558 81.4545 74.7977 80.877C75.2362 80.2962 75.6363 79.6882 75.9956 79.057C76.272 78.5623 76.4218 78.2527 76.441 78.2603Z" fill="#263238"/>
<path id="Vector_25" d="M44.6017 52.8693L42.9043 54.0791L44.8238 56.6841L46.5212 55.4743L44.6017 52.8693Z" fill="#263238"/>
<path id="Vector_26" d="M46.0847 53.0019L42.5908 55.494L40.5176 52.6847C41.4388 51.5644 42.6457 50.7044 44.0152 50.1926L46.0847 53.0019Z" fill="#407BFF"/>
<path id="Vector_27" d="M43.1761 55.0785C43.1186 55.1163 42.5887 54.497 41.9898 53.6927C41.3908 52.8885 40.9455 52.1824 41.0031 52.1824C41.0607 52.1824 41.5905 52.7488 42.1894 53.5455C42.7884 54.3422 43.2337 55.037 43.1761 55.0785Z" fill="#263238"/>
<path id="Vector_28" d="M43.8433 54.6027C43.7857 54.6405 43.2635 53.9872 42.6723 53.149C42.2925 52.6553 41.9621 52.1267 41.6855 51.5706C41.7547 51.5178 42.2883 52.1672 42.8796 53.0055C43.4708 53.8438 43.8932 54.565 43.8433 54.6027Z" fill="#263238"/>
<path id="Vector_29" d="M44.728 53.9686C44.6704 54.0102 44.1445 53.3456 43.5532 52.496C43.1668 51.9981 42.8372 51.4599 42.5703 50.8912C42.6356 50.8422 43.1693 51.5029 43.7605 52.3563C44.3518 53.2097 44.7856 53.9309 44.728 53.9686Z" fill="#263238"/>
<path id="Vector_30" d="M45.5393 53.3761C45.4817 53.4177 44.9557 52.7871 44.3606 51.9752C43.7655 51.1634 43.3316 50.4649 43.3854 50.4309C43.4391 50.3969 43.9689 51.0199 44.564 51.8318C45.1592 52.6436 45.593 53.3384 45.5393 53.3761Z" fill="#263238"/>
<path id="Vector_31" d="M72.5184 57.037L71.2012 55.4332L68.6565 57.4548L69.9738 59.0585L72.5184 57.037Z" fill="#263238"/>
<path id="Vector_32" d="M72.4703 58.5L69.7559 55.196L72.501 53.0173C73.689 53.8611 74.6261 55.0018 75.2154 56.3213L72.4703 58.5Z" fill="#407BFF"/>
<path id="Vector_33" d="M70.2091 55.7697C70.1669 55.7168 70.7697 55.1618 71.5529 54.5312C72.3361 53.9006 73.0119 53.4286 73.0579 53.4815C73.104 53.5343 72.4974 54.0894 71.7141 54.72C70.9309 55.3505 70.2552 55.8037 70.2091 55.7697Z" fill="#263238"/>
<path id="Vector_34" d="M70.7266 56.3825C70.6844 56.3258 71.3217 55.7821 72.1433 55.1591C72.6197 54.7592 73.134 54.4052 73.6791 54.1018C73.7405 54.1698 73.107 54.7286 72.2854 55.3516C71.4638 55.9747 70.7688 56.4353 70.7266 56.3825Z" fill="#263238"/>
<path id="Vector_35" d="M71.4141 57.2199C71.3718 57.1632 72.0169 56.6157 72.8538 55.9889C73.3384 55.5841 73.8662 55.2321 74.428 54.9392C74.4817 54.9996 73.8406 55.5585 73.0036 56.1853C72.1666 56.8121 71.4563 57.2803 71.4141 57.2199Z" fill="#263238"/>
<path id="Vector_36" d="M72.063 57.9824C72.0169 57.9295 72.6274 57.3782 73.4221 56.7514C74.2169 56.1246 74.8964 55.6602 74.9387 55.7168C74.9809 55.7735 74.3743 56.3172 73.5795 56.944C72.7848 57.5708 72.1052 58.0353 72.063 57.9824Z" fill="#263238"/>
<path id="Vector_37" d="M59.8016 48.8511L57.3262 48.6479L57.004 52.4447L59.4795 52.6478L59.8016 48.8511Z" fill="#263238"/>
<path id="Vector_38" d="M61.0304 50.1059L55.9355 49.6867L56.2811 45.5974C57.9867 45.2878 59.7454 45.4312 61.3759 46.0128L61.0304 50.1059Z" fill="#407BFF"/>
<path id="Vector_39" d="M61.4402 46.0203C61.4709 46.0694 60.3114 46.5791 58.7949 46.4545C57.2783 46.3299 56.2148 45.6654 56.2571 45.62C56.2993 45.5747 57.359 46.1071 58.8141 46.2091C60.2692 46.311 61.4172 45.9523 61.4402 46.0203Z" fill="#263238"/>
<path id="Vector_40" d="M57.6212 49.8C57.5521 49.8 57.5636 49.0033 57.6481 48.0367C57.7326 47.07 57.8516 46.2846 57.9207 46.2922C57.9898 46.2997 57.9783 47.0851 57.8977 48.0555C57.817 49.0259 57.6903 49.8038 57.6212 49.8Z" fill="#263238"/>
<path id="Vector_41" d="M58.588 49.9025C58.5189 49.9025 58.5304 49.1058 58.6149 48.1316C58.6994 47.1574 58.8184 46.372 58.8875 46.3796C58.9566 46.3871 58.9451 47.1763 58.8645 48.1505C58.7838 49.1247 58.6571 49.9101 58.588 49.9025Z" fill="#263238"/>
<path id="Vector_42" d="M59.5587 49.9672C59.4896 49.9672 59.5011 49.1667 59.5856 48.1963C59.6701 47.2259 59.7891 46.4367 59.8582 46.4443C59.9273 46.4518 59.9158 47.241 59.8352 48.2152C59.7545 49.1894 59.6355 49.9748 59.5587 49.9672Z" fill="#263238"/>
<path id="Vector_43" d="M60.3675 50.0347C60.2983 50.0347 60.3137 49.17 60.402 48.1165C60.4903 47.063 60.6208 46.2285 60.69 46.2285C60.7591 46.2285 60.7399 47.0894 60.6516 48.1429C60.5633 49.1964 60.4327 50.0384 60.3675 50.0347Z" fill="#263238"/>
<path id="Vector_44" d="M56.7051 49.7285C56.6359 49.7285 56.6513 48.8638 56.7435 47.8103C56.8356 46.7568 56.9585 45.9224 57.0276 45.9224C57.0967 45.9224 57.0813 46.7833 56.993 47.8368C56.9047 48.8902 56.7742 49.7285 56.7051 49.7285Z" fill="#263238"/>
<path id="Vector_45" d="M74.54 70.5224C74.2405 74.0182 72.8942 77.3483 70.6712 80.0919C68.4482 82.8356 65.4482 84.8697 62.0503 85.9373C58.6523 87.0049 55.0089 87.0582 51.5802 86.0903C48.1516 85.1224 45.0915 83.1768 42.7866 80.4994C40.4817 77.8219 39.0354 74.5326 38.6304 71.0471C38.2254 67.5616 38.8798 64.0363 40.5111 60.9164C42.1424 57.7965 44.6773 55.2221 47.7955 53.5185C50.9138 51.8148 54.4755 51.0583 58.0307 51.3444C60.3962 51.5348 62.7002 52.1823 64.8109 53.2497C66.9215 54.3171 68.7973 55.7836 70.3309 57.565C71.8644 59.3465 73.0256 61.4079 73.7478 63.6314C74.4701 65.8548 74.7393 68.1965 74.54 70.5224Z" fill="#407BFF"/>
<path id="Vector_46" d="M67.2747 79.4509C73.1987 73.6247 73.1987 64.1787 67.2747 58.3526C61.3507 52.5265 51.746 52.5265 45.8221 58.3526C39.8981 64.1787 39.8981 73.6247 45.8221 79.4509C51.746 85.277 61.3507 85.277 67.2747 79.4509Z" fill="white"/>
<path id="Vector_47" d="M71.6668 70.145C71.6668 70.145 71.6668 70.062 71.6668 69.8996C71.6668 69.7372 71.6668 69.4956 71.6668 69.1935C71.6668 69.0349 71.6668 68.8612 71.6668 68.6686C71.6668 68.4761 71.6361 68.2684 71.6207 68.0418C71.5975 67.5183 71.5359 66.9972 71.4364 66.4824C71.2007 65.0652 70.7477 63.6915 70.0926 62.4081C69.1492 60.5246 67.8115 58.8585 66.1672 57.5193C64.5229 56.18 62.6093 55.1979 60.5518 54.6373C59.9359 54.468 59.3085 54.3418 58.6744 54.2597C58.3519 54.2219 58.0293 54.1615 57.6992 54.1426L56.7009 54.1124C56.5358 54.1124 56.3669 54.1124 56.198 54.1124L55.6912 54.1464C55.3533 54.1766 55.0078 54.1842 54.6661 54.2257C53.9755 54.3202 53.2919 54.4589 52.6197 54.641C51.9287 54.8223 51.2513 55.0507 50.5925 55.3245C50.2585 55.468 49.9398 55.6417 49.6096 55.7965C49.2785 55.9543 48.9591 56.1347 48.6536 56.3364C48.0189 56.7245 47.411 57.1534 46.8337 57.6203C46.2582 58.1127 45.7181 58.6439 45.2174 59.2099C44.1868 60.3629 43.3508 61.6709 42.741 63.084C42.1254 64.5479 41.7371 66.0944 41.5892 67.6718C41.4767 69.2539 41.6061 70.8436 41.9731 72.3879C42.3378 73.8874 42.9458 75.3192 43.7738 76.6283C44.1717 77.267 44.6143 77.8776 45.0984 78.4559C45.5881 79.0111 46.1153 79.5334 46.6763 80.0191C46.9439 80.2689 47.2301 80.4986 47.5325 80.7063C47.8281 80.9178 48.1161 81.1368 48.4194 81.3331C49.0229 81.7101 49.6514 82.0469 50.3007 82.3413C50.9343 82.6355 51.5872 82.8878 52.2549 83.0965C52.5851 83.1947 52.9191 83.2589 53.2493 83.3419L53.7446 83.459C53.9097 83.493 54.0748 83.5081 54.2399 83.5307L55.2304 83.6629C55.5606 83.6969 55.887 83.6931 56.2133 83.7082C56.8539 83.73 57.4952 83.7099 58.133 83.6478C60.2626 83.4344 62.3219 82.7792 64.175 81.7254C66.0281 80.6716 67.6328 79.2432 68.8832 77.5345C69.7459 76.3746 70.4242 75.0925 70.8951 73.7322C71.0807 73.24 71.2296 72.7352 71.3404 72.2218C71.3942 71.999 71.4556 71.7951 71.4902 71.6063C71.5247 71.4175 71.5439 71.2287 71.567 71.0928C71.613 70.7907 71.6514 70.5566 71.6745 70.3905C71.6975 70.2243 71.7205 70.1526 71.7205 70.1526C71.7248 70.2318 71.7248 70.3112 71.7205 70.3905C71.7013 70.5604 71.6745 70.7945 71.6361 71.0966C71.6169 71.2552 71.5938 71.4289 71.5708 71.6176C71.5478 71.8064 71.4825 71.9952 71.4326 72.2369C71.3274 72.7497 71.185 73.2545 71.0064 73.7473C70.5479 75.1225 69.8772 76.4202 69.0176 77.595C67.757 79.3425 66.1301 80.804 64.2465 81.8807C62.3629 82.9574 60.2664 83.6243 58.0985 83.8366C57.4531 83.9012 56.8041 83.9239 56.1557 83.9045C55.8294 83.9045 55.4954 83.9045 55.1613 83.863L54.1593 83.7309C53.9903 83.7044 53.8176 83.6931 53.6525 83.6591L53.1495 83.5383C52.8155 83.459 52.4738 83.391 52.1398 83.2928C50.7669 82.8731 49.4556 82.279 48.239 81.5257C47.9318 81.3294 47.64 81.1066 47.3367 80.8951C47.0311 80.6826 46.7412 80.4492 46.469 80.1966C45.8981 79.7043 45.3619 79.1745 44.8642 78.6107C44.3715 78.0222 43.92 77.4015 43.5127 76.7529C42.6706 75.423 42.0522 73.9682 41.6813 72.4446C41.3102 70.874 41.1808 69.2575 41.2974 67.6491C41.4543 66.0449 41.8555 64.4729 42.4876 62.9859C43.117 61.5431 43.9806 60.2104 45.0446 59.04C45.5543 58.4663 46.1033 57.9276 46.6879 57.4277C47.2751 56.9541 47.8933 56.519 48.5384 56.125C48.8504 55.9219 49.1763 55.7403 49.5136 55.5813C49.8477 55.4189 50.174 55.2452 50.508 55.1017C51.8326 54.5607 53.2223 54.1889 54.643 53.9954C54.9886 53.9538 55.3379 53.9425 55.6835 53.9161L56.1788 53.8821C56.3477 53.8821 56.5166 53.8821 56.6894 53.8821L57.6992 53.9161C58.0332 53.9387 58.3595 53.9991 58.6897 54.0369C59.3378 54.1187 59.9792 54.2449 60.6094 54.4145C62.6947 54.9885 64.6318 55.9925 66.292 57.3597C67.9522 58.7268 69.2976 60.4259 70.2385 62.344C70.8821 63.6454 71.3198 65.0358 71.5362 66.4673C71.6303 66.9862 71.6855 67.5112 71.7013 68.0381C71.7013 68.2646 71.7321 68.4761 71.7321 68.6686C71.7321 68.8612 71.7321 69.0462 71.709 69.1935C71.709 69.4956 71.6821 69.7335 71.6745 69.9034C71.6668 70.0733 71.6668 70.145 71.6668 70.145Z" fill="#263238"/>
<path id="Vector_48" d="M67.9979 69.2152C66.8116 69.1359 65.8555 69.0038 65.8594 68.9169C65.8632 68.8301 66.8269 68.781 68.0171 68.8112C69.2073 68.8414 70.1595 68.9736 70.1518 69.1095C70.1441 69.2454 69.1804 69.2945 67.9979 69.2152Z" fill="#263238"/>
<path id="Vector_49" d="M64.283 76.6825C63.496 75.8065 62.9124 75.0513 62.9776 74.9909C63.0429 74.9305 63.7455 75.5686 64.5863 76.4107C65.4272 77.2527 65.9916 78.0079 65.8879 78.1023C65.7842 78.1967 65.0663 77.5585 64.283 76.6825Z" fill="#263238"/>
<path id="Vector_50" d="M56.3029 79.4218C56.372 78.2588 56.4987 77.3148 56.587 77.3186C56.6753 77.3224 56.7329 78.2702 56.7176 79.4369C56.7022 80.6037 56.5755 81.5514 56.4334 81.5439C56.2914 81.5363 56.2376 80.5886 56.3029 79.4218Z" fill="#263238"/>
<path id="Vector_51" d="M48.6742 75.8545C49.5534 75.0729 50.3175 74.4914 50.3789 74.5518C50.4403 74.6122 49.803 75.3296 48.9545 76.149C48.106 76.9684 47.3458 77.5537 47.2498 77.4517C47.1538 77.3498 47.7912 76.6361 48.6742 75.8545Z" fill="#263238"/>
<path id="Vector_52" d="M45.812 68.0388C46.9984 68.0917 47.9544 68.2049 47.9544 68.2918C47.9544 68.3786 46.9869 68.4466 45.8005 68.4466C44.6141 68.4466 43.6543 68.3295 43.6543 68.1898C43.6543 68.0501 44.6103 67.9859 45.812 68.0388Z" fill="#263238"/>
<path id="Vector_53" d="M49.3416 60.4934C50.1479 61.3506 50.7468 62.0982 50.6854 62.1548C50.624 62.2115 49.8868 61.596 49.046 60.7728C48.2052 59.9497 47.6024 59.2058 47.7022 59.1114C47.802 59.017 48.5392 59.6363 49.3416 60.4934Z" fill="#263238"/>
<path id="Vector_54" d="M57.2573 57.5791C57.2151 58.7459 57.1076 59.6937 57.0193 59.6899C56.9309 59.6861 56.8542 58.7421 56.8426 57.5754C56.8311 56.4086 56.9386 55.4608 57.0807 55.4646C57.2227 55.4684 57.2995 56.4124 57.2573 57.5791Z" fill="#263238"/>
<path id="Vector_55" d="M64.9671 60.9846C64.1033 61.7851 63.3507 62.3817 63.2893 62.3213C63.2279 62.2609 63.8575 61.5321 64.6792 60.6788C65.5008 59.8254 66.2571 59.2439 66.3531 59.3421C66.4491 59.4403 65.831 60.1841 64.9671 60.9846Z" fill="#263238"/>
<path id="Vector_56" d="M61.4365 61.3467C61.3228 63.5343 61.0663 65.7125 60.6686 67.8677C60.5579 68.651 60.3315 69.4143 59.9967 70.1333C59.6541 70.8604 59.0372 71.4278 58.2767 71.7154C57.8959 71.8474 57.483 71.8602 57.0945 71.752C56.7061 71.6438 56.3613 71.42 56.1074 71.1113L61.4365 61.3467Z" fill="#E0E0E0"/>
<path id="Vector_57" d="M56.3242 67.7067L62.5862 59.056L58.4013 69.0547L56.6659 69.4172L56.3242 67.7067Z" fill="#407BFF"/>
<g id="Group_3" opacity="0.4">
<path id="Vector_58" d="M62.5892 59.056L57.7285 68.0201L58.4042 69.0547L62.5892 59.056Z" fill="black"/>
</g>
<path id="Vector_59" d="M58.4317 69.5586C58.4016 69.9022 58.2687 70.2293 58.0498 70.4986C57.8308 70.7679 57.5356 70.9674 57.2015 71.0718C56.8673 71.1762 56.5092 71.1808 56.1723 71.0852C55.8355 70.9895 55.535 70.7978 55.3089 70.5343C55.0828 70.2708 54.9411 69.9473 54.9018 69.6047C54.8625 69.262 54.9273 68.9156 55.0881 68.6092C55.2489 68.3027 55.4984 68.0501 55.8052 67.883C56.1119 67.716 56.4621 67.6421 56.8115 67.6707C57.044 67.6897 57.2705 67.7537 57.4778 67.8589C57.6852 67.9642 57.8694 68.1086 58.0199 68.284C58.1704 68.4594 58.2843 68.6622 58.3549 68.881C58.4256 69.0997 58.4517 69.33 58.4317 69.5586Z" fill="#FAFAFA"/>
<path id="Vector_60" d="M58.4307 69.5598C58.4076 69.5598 58.4307 69.405 58.3654 69.1407C58.2846 68.7698 58.0839 68.4347 57.7933 68.1853C57.5816 68.0063 57.3282 67.8813 57.0557 67.8214C56.7832 67.7615 56.4998 67.7685 56.2307 67.8417C56.0038 67.9082 55.7939 68.0215 55.615 68.174C55.4361 68.3265 55.2923 68.5148 55.1932 68.7263C55.094 68.9377 55.0419 69.1675 55.0402 69.4004C55.0384 69.6332 55.0872 69.8638 55.1832 70.0766C55.2792 70.2895 55.4202 70.4798 55.5968 70.6348C55.7734 70.7899 55.9816 70.9062 56.2075 70.9759C56.4334 71.0456 56.6719 71.0672 56.9069 71.0391C57.1419 71.0111 57.3682 70.9342 57.5706 70.8134C57.899 70.6142 58.1534 70.3163 58.2963 69.9638C58.3961 69.7146 58.4076 69.556 58.4307 69.5598C58.454 69.7057 58.4395 69.8551 58.3884 69.994C58.271 70.3898 58.0136 70.7313 57.6628 70.9569C57.4019 71.1291 57.1004 71.2328 56.7872 71.2579C56.474 71.283 56.1595 71.2288 55.8736 71.1004C55.5186 70.9434 55.2217 70.682 55.0241 70.3521C54.8265 70.0222 54.7378 69.6402 54.7702 69.2587C54.8026 68.8771 54.9546 68.5149 55.2052 68.2219C55.4558 67.9289 55.7926 67.7195 56.1693 67.6227C56.4734 67.5441 56.7929 67.5427 57.0978 67.6187C57.4026 67.6946 57.6829 67.8454 57.9123 68.057C58.2238 68.3347 58.4251 68.7119 58.4806 69.1218C58.5027 69.2696 58.4855 69.4205 58.4307 69.5598Z" fill="#263238"/>
<path id="Vector_61" d="M57.9847 69.5215C57.9634 69.7775 57.8653 70.0215 57.703 70.2227C57.5406 70.4239 57.3213 70.5732 57.0726 70.6518C56.824 70.7305 56.5572 70.7348 56.3061 70.6643C56.0549 70.5939 55.8306 70.4518 55.6616 70.256C55.4926 70.0602 55.3864 69.8195 55.3564 69.5643C55.3264 69.3091 55.374 69.051 55.4932 68.8224C55.6124 68.5939 55.7979 68.4052 56.0261 68.2803C56.2543 68.1554 56.515 68.0998 56.7753 68.1206C56.9483 68.1344 57.1168 68.1816 57.2712 68.2595C57.4256 68.3374 57.5629 68.4445 57.6752 68.5746C57.7875 68.7047 57.8727 68.8552 57.9258 69.0177C57.9789 69.1802 57.9989 69.3514 57.9847 69.5215Z" fill="#455A64"/>
<path id="Vector_62" d="M39.1718 77.7262C39.1397 77.6959 39.1101 77.6631 39.0835 77.628L38.8493 77.3335C38.7241 77.1813 38.6074 77.0225 38.5 76.8577C38.3694 76.6651 38.2158 76.4499 38.0738 76.1969C37.997 76.0723 37.9202 75.9402 37.8396 75.8193C37.759 75.6985 37.6899 75.5324 37.6131 75.3776C37.448 75.0793 37.3098 74.7394 37.1562 74.3883C36.524 72.8402 36.1807 71.1927 36.1426 69.5248C36.1426 69.1473 36.1426 68.7697 36.1695 68.4374C36.1695 68.2675 36.1695 68.1013 36.204 67.9427C36.2386 67.7841 36.2424 67.6369 36.2616 67.4934C36.2885 67.2027 36.3499 66.9459 36.3883 66.7193C36.4267 66.4928 36.4766 66.3002 36.5188 66.1454C36.5611 65.9906 36.5918 65.8811 36.6187 65.7678C36.6274 65.7247 36.6416 65.6828 36.6609 65.6432C36.6589 65.6865 36.6524 65.7295 36.6417 65.7716C36.6225 65.8697 36.5956 65.9868 36.5649 66.1492C36.5173 66.3384 36.4801 66.53 36.4536 66.7231C36.419 66.9497 36.3653 67.2064 36.3422 67.4783C36.3422 67.6218 36.3115 67.7728 36.2923 67.9276C36.2731 68.0824 36.2923 68.2486 36.2654 68.4185C36.2386 68.7546 36.2654 69.117 36.2654 69.4984C36.3114 71.1536 36.6519 72.7882 37.2714 74.3278C37.4211 74.6752 37.5555 75.0151 37.7129 75.3134C37.7897 75.4644 37.8588 75.6154 37.9356 75.7551L38.1582 76.1327C38.2965 76.3895 38.4462 76.6047 38.5691 76.7973C38.6919 76.9899 38.8071 77.1749 38.9031 77.2844L39.1181 77.5902C39.1437 77.6323 39.1618 77.6782 39.1718 77.7262Z" fill="#263238"/>
<path id="Vector_63" d="M35.2814 74.3469C35.0763 73.771 34.9071 73.1834 34.7746 72.5873C34.6093 71.999 34.4811 71.4013 34.3906 70.7975C34.5981 71.3729 34.7686 71.9606 34.9013 72.5571C35.0687 73.1446 35.1956 73.7426 35.2814 74.3469Z" fill="#263238"/>
</g>
</g>
</svg>
