<svg width="90" height="119" viewBox="0 0 90 119" fill="none" xmlns="http://www.w3.org/2000/svg">
<path d="M34.6056 88.1248L35.1058 106.078L35.1844 108.208C35.2936 111.256 35.3433 113.129 35.3478 114.589L35.3481 114.806L28.7738 114.873L28.5328 106.232L28.3563 101.565C28.3252 100.727 28.298 99.9719 28.2728 99.2472L28.2374 98.2075C28.1092 94.3603 28.0391 91.2708 28.0319 88.641L28.0312 88.192L34.6056 88.1248Z" fill="#EBBAAA"/>
<path d="M22.633 88.1248L23.1331 106.078L23.2117 108.208C23.321 111.256 23.3707 113.129 23.3752 114.589L23.3755 114.806L16.8011 114.873L16.5602 106.232L16.3836 101.565C16.3526 100.727 16.3254 99.9719 16.3002 99.2472L16.2648 98.2075C16.1365 94.3603 16.0665 91.2708 16.0592 88.641L16.0586 88.192L22.633 88.1248Z" fill="#EBBAAA"/>
<path d="M23.5802 84.0636C29.8398 84.0636 34.9142 82.0032 34.9142 79.4616C34.9142 76.92 29.8398 74.8596 23.5802 74.8596C17.3206 74.8596 12.2461 76.92 12.2461 79.4616C12.2461 82.0032 17.3206 84.0636 23.5802 84.0636Z" fill="#D2D7DB"/>
<path d="M11.3984 74.312H24.6472L24.1565 108.784V110.821H15.1277L14.724 108.238L11.3984 74.312Z" fill="#D2D7DB"/>
<path d="M24.5195 74.8196H37.8131L37.3056 107.625L36.7167 109.981L28.1786 110.486L27.8586 107.962L24.5195 74.8196Z" fill="#D2D7DB"/>
<path d="M45.4649 116.289C45.4649 113.706 43.529 113.391 40.3737 112.506C38.8283 112.073 37.2513 111.695 35.651 111.468C34.6454 111.325 34.3752 112.083 32.6087 112.083C31.0334 112.083 29.068 111.414 28.6611 111.269C28.61 111.251 28.5495 111.235 28.5088 111.267C28.499 111.274 28.4908 111.284 28.4846 111.295C28.2965 111.626 27.3092 113.433 27.3092 114.879C27.3092 115.985 27.1987 117.073 27.5545 117.635C27.7151 117.888 28.7176 118.027 29.0542 118.027H44.9189C45.2204 118.027 45.4649 116.547 45.4649 116.289Z" fill="#D0D4DB"/>
<path d="M37.2664 111.296C37.3666 111.41 37.3395 111.573 37.2059 111.658L36.999 111.789C36.9123 111.844 36.8449 111.888 36.7801 111.932C36.6436 112.026 36.531 112.114 36.4424 112.198L36.4341 112.206L39.2369 111.426C39.4997 111.353 39.7268 111.594 39.5952 111.797L39.587 111.809L38.8668 112.803L41.1504 112.161C41.4216 112.084 41.6505 112.342 41.5007 112.544L41.4919 112.556L40.1821 114.153C40.0861 114.27 39.8976 114.298 39.761 114.216C39.6295 114.137 39.5941 113.984 39.6774 113.868L39.6875 113.855L40.474 112.896L38.2658 113.517C38.0028 113.591 37.7749 113.349 37.9067 113.146L37.9149 113.134L38.6369 112.138L35.9894 112.875C35.7997 112.928 35.6052 112.812 35.5942 112.644L35.5938 112.629C35.5938 112.217 35.8838 111.883 36.4028 111.527L36.4572 111.491C36.4848 111.472 36.5132 111.453 36.5433 111.434L36.8433 111.244C36.9768 111.158 37.1663 111.181 37.2664 111.296Z" fill="white"/>
<path d="M6.48828 116.289C6.48828 113.706 8.42417 113.391 11.5793 112.506C13.1247 112.073 14.7019 111.695 16.3022 111.468C17.3078 111.325 17.578 112.083 19.3445 112.083C20.9198 112.083 22.8851 111.414 23.2921 111.269C23.3432 111.251 23.4036 111.235 23.4442 111.267C23.454 111.274 23.4624 111.284 23.4685 111.295C23.6566 111.626 24.644 113.433 24.644 114.879C24.644 115.985 24.7545 117.073 24.3986 117.635C24.2381 117.888 23.2356 118.027 22.8989 118.027H7.03413C6.73265 118.027 6.48828 116.547 6.48828 116.289Z" fill="#D0D4DB"/>
<path d="M14.6841 111.296C14.7805 111.185 14.9598 111.16 15.0922 111.235L15.1141 111.248L15.3105 111.372C15.4028 111.431 15.4759 111.478 15.5477 111.527C16.0667 111.883 16.3568 112.217 16.3568 112.629C16.3568 112.8 16.1677 112.922 15.9779 112.879L15.9611 112.875L13.3135 112.138L14.0356 113.134C14.1817 113.335 13.9616 113.583 13.7001 113.521L13.6847 113.517L11.4764 112.896L12.263 113.855C12.3554 113.968 12.3283 114.122 12.2042 114.207L12.1895 114.216C12.058 114.295 11.8783 114.272 11.7794 114.166L11.7684 114.153L10.4586 112.556C10.2945 112.356 10.5153 112.093 10.7848 112.157L10.8001 112.161L13.0836 112.803L12.3635 111.809C12.2176 111.608 12.4369 111.361 12.6982 111.422L12.7136 111.426L15.5163 112.206L15.5081 112.198C15.4269 112.121 15.3255 112.04 15.204 111.955L15.1704 111.932L15.0956 111.882C15.0783 111.87 15.0605 111.859 15.0418 111.847L14.7446 111.658C14.611 111.573 14.5839 111.41 14.6841 111.296Z" fill="white"/>
<path d="M10.544 45.6762C10.422 43.5739 12.1318 41.718 14.5459 41.3324L25.0519 39.6542L35.5577 41.3324C37.9718 41.718 39.6816 43.5739 39.5596 45.6762L38.7913 58.9181L39.7277 77.2198C39.7522 77.6984 39.3061 78.0979 38.7472 78.0979H11.3564C10.7975 78.0979 10.3514 77.6984 10.376 77.2198L11.3124 58.9181L10.544 45.6762Z" fill="#373434"/>
<path d="M10.5091 46.9581C11.4944 45.4609 13.7091 44.9318 15.4558 45.7764C17.185 46.6125 17.8073 48.4815 16.8635 49.9715L16.8344 50.0166C15.0282 52.7611 13.1379 57.856 11.8833 63.2115L11.8239 63.4673C11.2759 65.8497 10.8968 68.1126 10.7328 69.977L10.7243 70.0764C10.6439 71.0283 10.6229 71.849 10.6597 72.5002L10.6665 72.6093C10.6837 72.8588 10.7094 73.073 10.7416 73.247L10.7544 73.3128C10.7741 73.4082 10.7919 73.4714 10.8015 73.4966L10.8034 73.5014C11.4887 75.1169 10.5165 76.9028 8.6318 77.4902C6.74711 78.0777 4.6637 77.2443 3.97836 75.6288C2.91262 73.1166 3.33953 68.0629 4.76313 61.986C6.15521 56.0436 8.2558 50.3821 10.5091 46.9581Z" fill="#EBBAAA"/>
<path d="M34.6563 45.7764C36.403 44.9318 38.6177 45.4609 39.603 46.9581C41.8563 50.3821 43.9569 56.0436 45.349 61.986C46.7726 68.0629 47.1995 73.1166 46.1338 75.6288C45.4484 77.2443 43.365 78.0777 41.4803 77.4902C39.6145 76.9087 38.6429 75.1525 39.2887 73.55L39.3087 73.5014C39.3195 73.476 39.3447 73.3872 39.3706 73.247C39.4074 73.0481 39.4357 72.7968 39.4524 72.5002L39.4585 72.38C39.4865 71.749 39.4634 70.9706 39.3879 70.0764C39.2232 68.1273 38.8189 65.7302 38.2289 63.2115C36.9743 57.856 35.0839 52.7611 33.2777 50.0166C32.2924 48.5194 32.9096 46.621 34.6563 45.7764Z" fill="#EBBAAA"/>
<path d="M20.8402 51.563L12.3205 66.7188C12.3205 66.7188 4.82725 63.1993 1.95312 60.9117C1.95312 60.9117 3.13587 55.1045 4.82725 49.8034C5.808 46.7293 8.17099 44.3284 9.98342 42.8535C11.4355 41.672 13.3342 41.039 15.3017 40.7211L18.9926 40.1249L20.8402 51.563Z" fill="#5788A8"/>
<path d="M1.95646 60.8233C2.16009 59.4087 3.80693 58.4964 5.39522 58.9183L9.52647 60.0158C10.8737 60.3737 11.765 61.4703 11.6899 62.6775L11.6688 63.018C11.6606 63.1502 11.6408 63.2818 11.6096 63.4114L9.40428 72.564C9.2134 73.3562 8.41701 73.9349 7.47399 73.9664L2.442 74.1349C1.17714 74.1773 0.169353 73.238 0.324373 72.1611L1.95646 60.8233Z" fill="#5788A8"/>
<path d="M0.513237 74.1758L0 70.3924C3.28471 69.8997 7.80122 70.5977 9.64878 71.0083L9.13561 74.1758C9.13561 74.1758 6.46673 74.4397 4.82441 74.4397C3.18206 74.4397 0.513237 74.1758 0.513237 74.1758Z" fill="#6EA5C9"/>
<path d="M11.1892 60.01L5.33832 57.1064L4.00391 59.482L11.1892 60.01Z" fill="#4F7F9D"/>
<path d="M9.28325 60.2993L3.70703 60.8611L4.59306 62.346L9.28325 61.3957V60.2993Z" fill="#4F7F9D"/>
<path d="M10.3193 47.1732C10.6369 43.302 14.4197 40.3007 18.947 40.3007C19.8508 40.3007 20.6801 40.743 21.0752 41.4397L24.022 46.6357C24.022 46.6357 21.8664 56.8421 21.8664 61.8573C21.8664 66.077 20.849 76.2762 20.5263 79.4057C20.4743 79.9105 19.9361 80.2699 19.3516 80.1935L9.22332 78.8691C8.70701 78.8017 8.33222 78.4127 8.35234 77.9653L9.03548 62.8251L10.3193 47.1732Z" fill="#5991B6"/>
<path d="M22.7388 46.6548L24.0635 46.7926C22.2111 59.8736 20.8119 74.5916 20.7841 79.3145L20.7836 79.4545H19.4492C19.4492 74.8794 20.8336 60.2073 22.6826 47.0529L22.7388 46.6548Z" fill="#5383A2"/>
<path d="M11.418 57.8117L11.6585 53.0889L19.3942 52.5022C18.8647 54.5854 18.7132 57.559 18.6376 59.0458C12.8545 61.1953 13.3972 60.5146 11.418 57.8117Z" fill="#5383A2"/>
<path d="M19.1559 52.5146L11.2828 51.6035L10.6797 53.5185L13.7721 55.6598L18.1414 54.238L19.1559 52.5146Z" fill="#6EA5C9"/>
<path d="M20.2694 80.6357L8.67023 79.5848C8.40918 79.5612 8.21094 79.3724 8.21094 79.1474V77.6075L20.8366 78.7363V80.1982C20.8366 80.4594 20.5725 80.6631 20.2694 80.6357Z" fill="#5383A2"/>
<path d="M24.0209 47.0769L20.069 38.9822L15.7578 40.082L16.2197 49.1006L24.0209 47.0769Z" fill="#5383A3"/>
<path d="M29.0508 51.5409L37.5705 66.6965C37.5705 66.6965 45.0638 63.1771 47.9379 60.8894C47.9379 60.8894 46.7551 55.0824 45.0638 49.7811C43.9492 46.2881 41.0501 43.6641 39.2022 42.2806C38.1693 41.5073 36.8762 41.0684 35.5286 40.8507L30.8984 40.1027L29.0508 51.5409Z" fill="#5788A8"/>
<path d="M47.9254 60.8233C47.7218 59.4087 46.0749 58.4964 44.4866 58.9183L40.3554 60.0158C39.0081 60.3737 38.1168 61.4703 38.1919 62.6775L38.213 63.018C38.2212 63.1502 38.2411 63.2817 38.2723 63.4114L40.4776 72.564C40.6684 73.3562 41.4648 73.9349 42.4079 73.9664L47.4398 74.1349C48.7047 74.1773 49.7125 73.238 49.5575 72.1611L47.9254 60.8233Z" fill="#5788A8"/>
<path d="M49.3738 74.1758L49.8871 70.3924C46.6024 69.8997 42.0858 70.5977 40.2383 71.0083L40.7514 74.1758C40.7514 74.1758 43.4203 74.4397 45.0627 74.4397C46.705 74.4397 49.3738 74.1758 49.3738 74.1758Z" fill="#6EA5C9"/>
<path d="M38.4922 58.7782L44.343 55.8746L45.6774 58.2503L38.4922 58.7782Z" fill="#4F7F9D"/>
<path d="M40.3984 59.0679L45.9746 59.6297L45.0886 61.1146L40.3984 60.1643V59.0679Z" fill="#4F7F9D"/>
<path d="M38.7404 46.4753C38.3085 42.9651 34.8551 40.3007 30.7372 40.3007C29.8937 40.3007 29.1242 40.7134 28.7554 41.3637L25.7656 46.6357C25.7656 46.6357 27.9212 56.8421 27.9212 61.8573C27.9212 66.077 28.9386 76.2762 29.2613 79.4057C29.3133 79.9105 29.8515 80.2699 30.436 80.1935L40.5643 78.8691C41.0806 78.8017 41.4554 78.4127 41.4353 77.9653L40.7521 62.8251L38.7404 46.4753Z" fill="#5991B6"/>
<path d="M27.0434 46.6548C28.9017 59.7769 30.3047 74.5345 30.3326 79.3128L30.333 79.4545H28.9986C28.9986 74.9344 27.6179 60.302 25.7747 47.1895L25.7188 46.7926L27.0434 46.6548Z" fill="#5383A2"/>
<path d="M38.367 57.8117L38.1263 53.0889L30.3906 52.5022C30.9201 54.5854 31.0716 57.559 31.1473 59.0458C36.9303 61.1953 36.3876 60.5146 38.367 57.8117Z" fill="#5383A2"/>
<path d="M30.625 52.5146L38.4982 51.6035L39.1013 53.5185L36.0088 55.6598L31.6396 54.238L30.625 52.5146Z" fill="#6EA5C9"/>
<path d="M29.5165 80.6357L41.1156 79.5848C41.3766 79.5612 41.5749 79.3724 41.5749 79.1474V77.6075L28.9492 78.7363V80.1982C28.9492 80.4594 29.2133 80.6631 29.5165 80.6357Z" fill="#5383A2"/>
<path d="M25.8711 47.0769L29.4124 38.9822L34.0315 40.082L33.5697 49.1006L25.8711 47.0769Z" fill="#5383A3"/>
<path d="M24.8562 34.9434H24.6424C22.5876 34.9434 20.9219 36.3712 20.9219 38.1325V39.8299C20.9219 41.5912 22.5876 43.0191 24.6424 43.0191H24.8562C26.911 43.0191 28.5767 41.5912 28.5767 39.8299V38.1325C28.5767 36.3712 26.911 34.9434 24.8562 34.9434Z" fill="#EBBAAA"/>
<path d="M38.8086 30.1927C42.0209 30.1927 44.6249 27.9606 44.6249 25.2071C44.6249 22.4536 42.0209 20.2214 38.8086 20.2214C35.5963 20.2214 32.9922 22.4536 32.9922 25.2071C32.9922 27.9606 35.5963 30.1927 38.8086 30.1927Z" fill="#EBBAAA"/>
<path d="M11.4258 30.4458C8.21347 30.4458 5.60938 28.2137 5.60938 25.4603C5.60938 22.7068 8.21347 20.4746 11.4258 20.4746C14.638 20.4746 17.2421 22.7068 17.2421 25.4603C17.2421 28.2137 14.638 30.4458 11.4258 30.4458Z" fill="#EBBAAA"/>
<path d="M8.84766 16.448C8.84766 9.10046 15.7966 3.14404 24.3685 3.14404C33.1557 3.14404 40.1904 9.39127 39.8796 16.9187L39.3816 28.9771C39.1007 35.7781 32.5873 41.1671 24.648 41.1671C17.1934 41.1671 10.9073 36.4052 9.99068 30.0638L8.84766 22.1556V16.448Z" fill="#F4D4C9"/>
<path d="M27.6983 32.1569C28.0846 32.0215 28.5258 32.1801 28.6838 32.5112C28.8418 32.8422 28.6568 33.2204 28.2705 33.3559C25.8224 34.2144 23.5534 34.2381 21.631 33.3226C21.2662 33.1489 21.1347 32.7545 21.3374 32.4418C21.5401 32.1291 22.0001 32.0165 22.3649 32.1902C23.8469 32.8959 25.6444 32.8771 27.6983 32.1569Z" fill="#C99584"/>
<path d="M25.2755 8.61362C17.7971 8.61362 11.4397 10.2873 11.0433 14.9591C10.4527 21.9186 9.0407 22.4785 7.9702 19.251C7.80699 18.7591 7.69904 14.2972 7.67578 13.7871C8.09945 3.87086 20.6126 1.4762 25.2755 1.4762C29.0972 4.14172 32.7548 8.61362 25.2755 8.61362Z" fill="#272727"/>
<path d="M8.68845 14.9442C8.66264 14.2657 9.16786 13.7013 9.80016 13.7013C10.4562 13.7013 10.9698 14.3067 10.9078 15.0074L9.86013 26.8782C9.84256 27.0768 9.6875 27.2275 9.50261 27.2275C9.30937 27.2275 9.15127 27.0646 9.14303 26.8583L8.68845 14.9442Z" fill="#272727"/>
<path d="M40.24 14.8884C40.2659 14.2403 39.7606 13.7013 39.1283 13.7013C38.4722 13.7013 37.9587 14.2795 38.0207 14.9487L39.0683 26.287C39.0859 26.4765 39.241 26.6206 39.4259 26.6206C39.6191 26.6206 39.7772 26.4649 39.7854 26.2679L40.24 14.8884Z" fill="#272727"/>
<path d="M25.3305 8.27664C33.0367 8.27664 37.6924 11.3333 38.0101 16.0917C38.4873 22.1568 39.7254 24.0318 40.6476 13.8707C40.7458 3.14521 28.9415 1.46277 24.1366 1.46277C20.1987 4.1283 17.6234 8.27664 25.3305 8.27664Z" fill="#272727"/>
<path d="M15.4979 3.86818L14.4414 5.96975L24.6412 5.35679L35.9338 7.93997V6.71406L35.1324 6.32001V5.35679H34.1125V3.86818H32.801L32.5097 2.72983H31.344L30.6518 1.59148L29.4497 1.94174L29.0854 1.24121H27.8469V0.453125L26.1712 1.24121L25.7341 0.453125L25.0055 1.24121L24.277 0.453125L22.8926 1.24121L22.0184 0.453125L21.0713 1.24121H20.4156L19.687 1.94174L19.3957 1.24121L18.157 2.72983L17.3556 2.37957L16.2993 4.08709L15.4979 3.86818Z" fill="#272727"/>
<path d="M18.7122 10.8378L17.398 7.96165L15.7148 4.32227L33.7724 5.16348L29.024 11.5567L28.013 9.91326L26.9009 10.8378L25.4857 9.09156L24.5757 10.8378L23.0594 9.91326L21.1385 10.8378L20.532 9.91326L18.7122 10.8378Z" fill="#272727"/>
<path d="M30.8925 21.8135C31.5329 21.8135 32.0539 22.2516 32.0698 22.7973L32.0702 22.8229V25.2412C32.0702 25.7987 31.5429 26.2507 30.8925 26.2507C30.2521 26.2507 29.7311 25.8125 29.7152 25.2668L29.7148 25.2412V22.8229C29.7148 22.2654 30.2421 21.8135 30.8925 21.8135Z" fill="black"/>
<path d="M18.2363 21.8135C18.8767 21.8135 19.3977 22.2516 19.4136 22.7973L19.4139 22.8229V25.2412C19.4139 25.7987 18.8867 26.2507 18.2363 26.2507C17.5959 26.2507 17.0748 25.8125 17.059 25.2668L17.0586 25.2412V22.8229C17.0586 22.2654 17.5859 21.8135 18.2363 21.8135Z" fill="black"/>
<path d="M26.3888 23.0817V24.2594H22.7852V23.0817H26.3888Z" fill="black"/>
<path d="M17.9418 20.1373C14.9795 20.1373 12.5781 22.1957 12.5781 24.7349C12.5781 27.2741 14.9795 29.3325 17.9418 29.3325C20.904 29.3325 23.3054 27.2741 23.3054 24.7349C23.3054 22.1957 20.904 20.1373 17.9418 20.1373ZM17.9418 20.9785C20.362 20.9785 22.324 22.6603 22.324 24.7349C22.324 26.8095 20.362 28.4912 17.9418 28.4912C15.5215 28.4912 13.5595 26.8095 13.5595 24.7349C13.5595 22.6603 15.5215 20.9785 17.9418 20.9785Z" fill="#B98E4F"/>
<path d="M31.266 20.353C28.3037 20.353 25.9023 22.4114 25.9023 24.9506C25.9023 27.4898 28.3037 29.5482 31.266 29.5482C34.2282 29.5482 36.6296 27.4898 36.6296 24.9506C36.6296 22.4114 34.2282 20.353 31.266 20.353ZM31.266 21.1942C33.6862 21.1942 35.6482 22.876 35.6482 24.9506C35.6482 27.0252 33.6862 28.7069 31.266 28.7069C28.8457 28.7069 26.8837 27.0252 26.8837 24.9506C26.8837 22.876 28.8457 21.1942 31.266 21.1942Z" fill="#B98E4F"/>
<path d="M34.3925 17.8169C34.9342 17.8007 35.3887 18.1639 35.4076 18.6282C35.4262 19.0847 35.017 19.4689 34.4885 19.4972L34.4611 19.4983L28.8399 19.6668C28.2982 19.683 27.8438 19.3197 27.8248 18.8554C27.8062 18.399 28.2154 18.0148 28.7439 17.9865L28.7713 17.9853L34.3925 17.8169Z" fill="#393939"/>
<path d="M14.8025 17.9612L20.4269 18.0034C20.9689 18.0075 21.4044 18.3874 21.3997 18.852C21.395 19.3087 20.9666 19.6772 20.4371 19.6857L20.4097 19.6858L14.7853 19.6436C14.2433 19.6395 13.8078 19.2596 13.8125 18.795C13.8172 18.3383 14.2456 17.9698 14.7751 17.9613L14.8025 17.9612Z" fill="#393939"/>
<path d="M23.8359 25.4211L25.2874 26.1263C24.8344 26.8114 24.5761 27.5437 24.6039 28.0427C24.6244 28.4107 24.7386 28.5225 25.1434 28.5268L25.1685 28.5269V29.957C23.8074 29.957 22.999 29.2148 22.9375 28.111C22.8935 27.3228 23.2268 26.3602 23.8018 25.4732L23.8359 25.4211Z" fill="#EBBAAA"/>
<path d="M62.8801 109.295C63.2111 108.256 62.5584 107.418 62.1907 107.129C62.0068 107.399 61.777 108.766 61.3633 109.825L60.2832 111.198L58.6514 113.243L56.6289 114.255L57.6861 115.554C58.4062 114.977 62.5493 110.336 62.8801 109.295Z" fill="#E4E4E0"/>
<path d="M69.1386 116.441C69.1386 116.441 69.1975 114.181 68.7384 112.929C68.2792 111.677 67.8062 108.449 67.8062 108.449C67.8062 108.449 66.9917 109.364 65.4748 109.364C63.958 109.364 62.3492 108.981 62.3492 108.981C62.3492 108.981 59.5319 112.878 58.7964 113.36C58.0609 113.841 54.4757 114.853 54.4757 114.853C53.6888 114.853 53.0508 115.52 53.0508 116.345V117.105H61.6923L69.1386 116.441Z" fill="#F7F6F6"/>
<path d="M60.8517 109.868C60.9062 109.725 61.0577 109.653 61.1954 109.701L61.2101 109.707L61.6698 109.899C61.8112 109.958 61.8802 110.126 61.8237 110.274C61.7692 110.417 61.6178 110.49 61.4801 110.441L61.4654 110.436L61.0057 110.244C60.8642 110.184 60.7953 110.016 60.8517 109.868Z" fill="#ECECEC"/>
<path d="M60.2502 110.735C60.3047 110.592 60.4561 110.52 60.5938 110.568L60.6085 110.574L61.0682 110.766C61.2097 110.825 61.2786 110.993 61.2222 111.141C61.1677 111.284 61.0162 111.356 60.8785 111.308L60.8638 111.302L60.4042 111.11C60.2627 111.051 60.1937 110.883 60.2502 110.735Z" fill="#ECECEC"/>
<path d="M59.6097 111.6C59.6644 111.457 59.816 111.385 59.9536 111.434L59.9683 111.44L60.428 111.632C60.5694 111.692 60.638 111.86 60.5814 112.008C60.5267 112.151 60.3751 112.223 60.2375 112.174L60.2228 112.169L59.7631 111.976C59.6217 111.916 59.553 111.748 59.6097 111.6Z" fill="#ECECEC"/>
<path d="M58.7814 112.468C58.8359 112.324 58.9874 112.252 59.1251 112.301L59.1398 112.306L59.5994 112.498C59.7409 112.557 59.8099 112.726 59.7534 112.874C59.6989 113.017 59.5475 113.089 59.4098 113.041L59.3951 113.035L58.9354 112.843C58.7939 112.784 58.725 112.616 58.7814 112.468Z" fill="#ECECEC"/>
<path d="M58.0472 113.238C58.1019 113.095 58.2535 113.023 58.3911 113.072L58.4058 113.077L58.8655 113.27C59.0069 113.33 59.0755 113.498 59.0189 113.646C58.9642 113.789 58.8126 113.861 58.675 113.812L58.6603 113.806L58.2006 113.614C58.0592 113.554 57.9905 113.386 58.0472 113.238Z" fill="#ECECEC"/>
<path d="M69.2598 116.335L61.1239 116.721L53.034 116.335L52.9064 117.444C52.8677 117.78 53.1121 118.079 53.4353 118.09L60.9551 118.358L65.1534 118.406L69.3516 118.261L69.2598 116.335Z" fill="#E4E4E0"/>
<path d="M69.2348 117.3L69.248 117.685L66.8079 117.781L65.8726 117.816C64.7505 117.855 63.9028 117.877 63.345 117.878L63.1823 117.877C62.0268 117.87 59.5928 117.775 58.5908 117.691L58.5156 117.684L58.5474 117.3L58.6227 117.307C59.6535 117.394 62.2295 117.493 63.3119 117.493L63.483 117.492C64.0225 117.488 64.7973 117.468 65.7941 117.433L66.3963 117.411L69.2348 117.3Z" fill="#F7F6F6"/>
<path d="M58.8063 118.305V117.438V117.101L52.9686 116.812L52.8857 117.594C52.856 117.873 53.0602 118.119 53.3284 118.128L58.8063 118.305Z" fill="#ECEADF"/>
<path d="M65.9156 114.323C65.0017 114.323 64.2608 113.547 64.2608 112.59C64.2608 111.633 65.0017 110.857 65.9156 110.857C66.8295 110.857 67.5703 111.633 67.5703 112.59C67.5703 113.547 66.8295 114.323 65.9156 114.323Z" fill="#E4E4E0"/>
<path d="M65.9651 111.294C65.9273 111.225 65.83 111.232 65.8006 111.305L65.5258 111.991C65.5141 112.02 65.4894 112.041 65.4598 112.047L64.7647 112.199C64.6901 112.216 64.6657 112.314 64.7234 112.366L65.2611 112.852C65.2841 112.873 65.2958 112.904 65.2925 112.936L65.2154 113.675C65.2071 113.754 65.2893 113.81 65.3545 113.768L65.9616 113.382C65.9875 113.366 66.0194 113.364 66.047 113.377L66.6945 113.682C66.764 113.714 66.8391 113.65 66.8217 113.572L66.6592 112.848C66.6522 112.818 66.6602 112.785 66.6806 112.761L67.1579 112.21C67.2091 112.151 67.1734 112.056 67.0975 112.05L66.3898 111.988C66.3597 111.986 66.3327 111.967 66.3176 111.94L65.9651 111.294Z" fill="#F7F6F6"/>
<path d="M77.0908 109.295C76.7599 108.256 77.4126 107.418 77.7803 107.129C77.9642 107.399 78.194 108.766 78.6076 109.825L79.6878 111.198L81.3196 113.243L83.3421 114.255L82.2849 115.554C81.5647 114.977 77.4217 110.336 77.0908 109.295Z" fill="#E4E4E0"/>
<path d="M70.8228 116.441C70.8228 116.441 70.7639 114.181 71.223 112.929C71.6821 111.677 72.1552 108.449 72.1552 108.449C72.1552 108.449 72.9697 109.364 74.4866 109.364C76.0034 109.364 77.6122 108.981 77.6122 108.981C77.6122 108.981 80.4295 112.878 81.1649 113.36C81.9004 113.841 85.4857 114.853 85.4857 114.853C86.2726 114.853 86.9106 115.52 86.9106 116.345V117.105H78.2691L70.8228 116.441Z" fill="#F7F6F6"/>
<path d="M78.7545 109.707C78.8959 109.648 79.0564 109.72 79.1128 109.868C79.1673 110.011 79.1049 110.173 78.9732 110.237L78.9588 110.244L78.4991 110.436C78.3577 110.495 78.1972 110.423 78.1408 110.274C78.0863 110.131 78.1487 109.97 78.2804 109.905L78.2948 109.899L78.7545 109.707Z" fill="#ECECEC"/>
<path d="M79.3521 110.574C79.4936 110.515 79.654 110.587 79.7105 110.735C79.7649 110.878 79.7026 111.04 79.5709 111.104L79.5565 111.11L79.0968 111.302C78.9553 111.362 78.7949 111.289 78.7385 111.141C78.684 110.998 78.7464 110.836 78.8781 110.772L78.8924 110.766L79.3521 110.574Z" fill="#ECECEC"/>
<path d="M80.0001 111.44C80.1415 111.38 80.3021 111.452 80.3587 111.6C80.4134 111.743 80.3513 111.905 80.2197 111.969L80.2053 111.976L79.7456 112.169C79.6043 112.228 79.4437 112.156 79.3871 112.008C79.3323 111.865 79.3945 111.703 79.5261 111.639L79.5405 111.632L80.0001 111.44Z" fill="#ECECEC"/>
<path d="M80.8248 112.306C80.9662 112.247 81.1267 112.319 81.1831 112.468C81.2376 112.611 81.1752 112.772 81.0435 112.836L81.0291 112.843L80.5695 113.035C80.428 113.094 80.2675 113.022 80.2111 112.874C80.1566 112.731 80.219 112.569 80.3507 112.505L80.3651 112.498L80.8248 112.306Z" fill="#ECECEC"/>
<path d="M81.5627 113.077C81.7041 113.018 81.8647 113.09 81.9213 113.238C81.976 113.381 81.9139 113.543 81.7823 113.607L81.7679 113.614L81.3081 113.806C81.1667 113.866 81.0062 113.794 80.9495 113.646C80.8948 113.503 80.957 113.341 81.0886 113.277L81.103 113.27L81.5627 113.077Z" fill="#ECECEC"/>
<path d="M70.7012 116.335L78.8371 116.721L86.927 116.335L87.0546 117.444C87.0933 117.78 86.8489 118.079 86.5257 118.09L79.0059 118.358L74.8076 118.406L70.6094 118.261L70.7012 116.335Z" fill="#E4E4E0"/>
<path d="M70.7109 117.685L70.7241 117.3L73.1644 117.396C73.3691 117.404 73.5649 117.412 73.7543 117.418L74.5517 117.446C75.4683 117.476 76.1709 117.493 76.6471 117.493L76.7767 117.492C77.9229 117.485 80.3447 117.391 81.3363 117.307L81.4116 117.3L81.4433 117.684L81.3672 117.691C80.3649 117.775 77.9334 117.87 76.7778 117.877L76.614 117.878L76.4379 117.877C75.8716 117.872 75.0611 117.85 74.0187 117.813L73.5497 117.796L70.7109 117.685Z" fill="#F7F6F6"/>
<path d="M81.1562 118.305V117.438V117.101L86.9939 116.812L87.0769 117.594C87.1065 117.873 86.9023 118.119 86.6341 118.128L81.1562 118.305Z" fill="#ECEADF"/>
<path d="M74.0454 114.323C74.9593 114.323 75.7001 113.547 75.7001 112.59C75.7001 111.633 74.9593 110.857 74.0454 110.857C73.1315 110.857 72.3906 111.633 72.3906 112.59C72.3906 113.547 73.1315 114.323 74.0454 114.323Z" fill="#E4E4E0"/>
<path d="M73.998 111.294C74.0357 111.225 74.1331 111.232 74.1625 111.305L74.4373 111.991C74.449 112.02 74.4737 112.041 74.5033 112.047L75.1984 112.199C75.2731 112.216 75.2974 112.314 75.2397 112.366L74.702 112.852C74.679 112.873 74.6674 112.904 74.6706 112.936L74.7477 113.675C74.7559 113.754 74.6738 113.81 74.6086 113.768L74.0015 113.382C73.9756 113.366 73.9436 113.364 73.9161 113.377L73.2686 113.682C73.1991 113.714 73.124 113.65 73.1414 113.572L73.3039 112.848C73.3109 112.818 73.3028 112.785 73.2825 112.761L72.8053 112.21C72.754 112.151 72.7897 112.056 72.8657 112.05L73.5732 111.988C73.6034 111.986 73.6304 111.967 73.6454 111.94L73.998 111.294Z" fill="#F7F6F6"/>
<path d="M74.515 92.083C75.7962 92.083 76.8372 93.16 76.8579 94.4968L76.8582 94.5374V108.355C76.8582 109.71 75.8091 110.809 74.515 110.809C73.2339 110.809 72.1929 109.732 72.1722 108.396L72.1719 108.355V94.5374C72.1719 93.1819 73.2209 92.083 74.515 92.083Z" fill="#EBBAAA"/>
<path d="M65.4877 92.083C66.7688 92.083 67.8098 93.16 67.8305 94.4968L67.8308 94.5374V108.173C67.8308 109.528 66.7818 110.627 65.4877 110.627C64.2065 110.627 63.1655 109.55 63.1448 108.213L63.1445 108.173V94.5374C63.1445 93.1819 64.1936 92.083 65.4877 92.083Z" fill="#EBBAAA"/>
<path d="M54.207 107.059L57.9387 72.0658L60.6724 60.085L70.6037 63.0265C71.9838 76.4906 70.4113 111.149 68.6172 111.671C66.8231 112.192 54.7821 108.218 54.207 107.059Z" fill="#F7F6F6"/>
<path d="M86.1415 107.059L82.4098 72.0658L79.676 60.085L69.7447 63.0265C68.3646 76.4906 69.9371 111.149 71.7312 111.671C73.5254 112.192 85.5664 108.218 86.1415 107.059Z" fill="#F7F6F6"/>
<path d="M56.6537 40.9449C57.3601 39.6331 58.9481 39.1696 60.2004 39.9096C61.4528 40.6496 61.8953 42.3129 61.1889 43.6247C59.5336 46.6983 58.2091 51.406 57.5203 56.3628C56.9087 60.7646 56.915 64.7457 57.4231 66.2881L57.4387 66.3341C57.9301 67.7495 57.2329 69.3142 55.8816 69.8289C54.5303 70.3436 53.0365 69.6134 52.5452 68.198C51.6499 65.6192 51.6349 60.8506 52.3676 55.5773C53.1413 50.0094 54.6391 44.6858 56.6537 40.9449Z" fill="#EBBAAA"/>
<path d="M66.9655 45.9426C68.4072 41.8744 66.1953 37.3889 62.1938 36.2659C58.443 35.2131 54.5877 37.5446 53.5827 41.4734L50.5414 53.3623C49.3967 57.837 52.7732 62.1717 57.188 61.8949C59.7515 61.7342 61.9825 60.0031 62.8762 57.4814L66.9655 45.9426Z" fill="#F0F0EC"/>
<path d="M54.0758 50.9943L60.3676 52.9942L53.5117 52.3124L54.0758 50.9943Z" fill="white"/>
<path d="M50.2243 64.539C49.6987 62.8626 49.7959 56.6735 50.4529 53.9404L59.5859 54.9942C58.584 58.4561 60.325 58.166 59.5859 62.63C57.8615 62.7211 50.8812 66.6343 50.2243 64.539Z" fill="#F0F0EC"/>
<path d="M84.231 53.9033L79.3711 53.6306L83.5801 55.0396L84.231 53.9033Z" fill="#7EBFD7"/>
<path d="M79.3092 39.0745C80.5615 38.3345 82.1495 38.798 82.8559 40.1099C84.8705 43.8507 86.3683 49.1743 87.142 54.7422C87.8747 60.0155 87.8597 64.7841 86.9644 67.3629C86.4731 68.7784 84.9793 69.5086 83.628 68.9939C82.2902 68.4843 81.5935 66.9456 82.0565 65.5415L82.0709 65.499C82.5944 63.991 82.6071 59.974 81.9893 55.5277C81.3005 50.5709 79.976 45.8632 78.3207 42.7896C77.6143 41.4778 78.0568 39.8145 79.3092 39.0745Z" fill="#EBBAAA"/>
<path d="M72.0474 45.8939C70.8348 41.7789 73.1278 37.4323 77.099 36.3176C80.9572 35.2348 84.9248 37.6242 85.9726 41.6616L88.6352 51.9217C90.0875 57.5179 85.1202 62.6156 79.8084 60.98C77.5313 60.2789 75.7412 58.4289 75.0412 56.0534L72.0474 45.8939Z" fill="#F0F0EC"/>
<path d="M85.4012 50.9943L79.1094 52.9942L85.9653 52.3124L85.4012 50.9943Z" fill="white"/>
<path d="M89.5697 62.7669C90.1046 61.0906 89.4607 55.4104 88.7921 52.6772L79.3912 54.9947C80.4108 58.4566 78.639 56.6666 79.3912 61.1306C81.1462 61.2217 88.9011 64.8622 89.5697 62.7669Z" fill="#F0F0EC"/>
<path d="M57.3429 40.6341C56.9986 38.1615 58.6243 35.8615 60.9825 35.485L69.7382 34.0865L78.4938 35.485C80.852 35.8615 82.4777 38.1615 82.1334 40.6341L81.02 48.631L82.3281 60.6201C82.3778 61.0757 82.1896 61.5241 81.8356 61.7938L80.022 63.1754H59.5411L58.0358 61.7738C57.7538 61.5113 57.6042 61.1263 57.6311 60.732L58.4563 48.631L57.3429 40.6341Z" fill="#E6E6E3"/>
<path d="M69.9227 24.6327H69.9072C68.0902 24.6327 66.6172 26.1756 66.6172 28.0789V38.8216C66.6172 40.7249 68.0902 42.2678 69.9072 42.2678H69.9227C71.7397 42.2678 73.2127 40.7249 73.2127 38.8216V28.0789C73.2127 26.1756 71.7397 24.6327 69.9227 24.6327Z" fill="#EBBAAA"/>
<path d="M84.7777 65.4451C84.7668 65.0938 85.0299 64.7999 85.3652 64.7885L86.3951 64.7536C86.7183 64.7426 86.993 64.9988 87.0201 65.3364L87.5509 71.9577C87.5799 72.3207 87.3127 72.6352 86.9651 72.6469L85.6094 72.6929C85.274 72.7043 84.9934 72.4288 84.9826 72.0775L84.7777 65.4451Z" fill="#E3D08F"/>
<path d="M80.5039 63.8116C80.5039 63.4602 80.7758 63.1753 81.1114 63.1753H84.8867C85.2046 63.1753 85.4688 63.4321 85.4925 63.7643L86.2697 74.6726C86.296 75.0417 86.0172 75.3563 85.6639 75.3563H81.1114C80.7758 75.3563 80.5039 75.0714 80.5039 74.7199V63.8116Z" fill="#E8D79D"/>
<path d="M63.7458 35.1407C64.2672 38.1993 66.4127 43.4308 69.3836 48.3902C73.0956 54.5867 77.7423 59.9251 83.0257 63.593L83.186 63.7037L83.4999 63.919V67.2209H82.1113L82.1113 64.7025L82.094 64.6905C76.7545 60.9408 72.0756 55.5705 68.3232 49.3557L68.2074 49.1633C65.1795 44.1087 62.9796 38.7676 62.3961 35.495L62.3789 35.3964L63.7458 35.1407Z" fill="#CC8879"/>
<path d="M74.4495 34.5318L73.7731 34.2381C73.4824 34.1118 73.1535 34.2922 73.0871 34.6144L72.695 36.5141C72.3906 37.9884 71.1456 39.0407 69.7056 39.0407C68.3615 39.0407 67.1749 38.1215 66.7812 36.7753L66.173 34.6952C66.0685 34.3382 65.6733 34.1767 65.3658 34.3656L65.1635 34.4898C64.8953 34.6545 64.7643 34.9859 64.8429 35.301L65.6802 38.6578C65.8694 39.4165 66.2342 40.1146 66.7425 40.6903L66.8796 40.8456C67.6542 41.7232 68.7434 42.2223 69.8845 42.2223C71.3068 42.2223 72.6271 41.4488 73.3715 40.1794L73.6205 39.7548C73.8979 39.2818 74.1008 38.7652 74.2216 38.2247L74.8596 35.3693C74.9371 35.0226 74.7635 34.6682 74.4495 34.5318Z" fill="#F4F3F3"/>
<path d="M70.0007 41.45H68.048L63.9258 49.3131H70.0007V41.45Z" fill="#F4F3F3"/>
<path d="M70.261 41.45H68.3084L65.9219 52.9947H71.9967L70.261 41.45Z" fill="#F4F3F3"/>
<path d="M69.0469 39.1771H70.6927L74.1672 45.3585H69.0469V39.1771Z" fill="#F7F6F6"/>
<path d="M59.1484 36.4504C59.6638 29.4812 62.6591 15.5428 70.517 15.5428C68.3343 23.0602 62.0285 32.6134 59.1484 36.4504Z" fill="#272727"/>
<path d="M81.6289 36.905C76.5087 30.0418 79.0895 15.5428 70 15.5428C72.5248 22.3085 70.8244 32.4507 81.6289 36.905Z" fill="#272727"/>
<path d="M80.457 31.8144C76.7887 26.5575 78.1604 15.5428 71.6484 15.5428C73.4574 20.7249 72.7164 28.4026 80.457 31.8144Z" fill="#272727"/>
<path d="M59.9329 24.0877C57.5365 24.0877 55.5938 22.0528 55.5938 19.5426C55.5938 17.0324 57.5365 14.9974 59.9329 14.9974C62.3294 14.9974 64.2721 17.0324 64.2721 19.5426C64.2721 22.0528 62.3294 24.0877 59.9329 24.0877Z" fill="#E4C1C1"/>
<path d="M80.0658 24.0877C82.4622 24.0877 84.4049 22.0528 84.4049 19.5426C84.4049 17.0324 82.4622 14.9974 80.0658 14.9974C77.6693 14.9974 75.7266 17.0324 75.7266 19.5426C75.7266 22.0528 77.6693 24.0877 80.0658 24.0877Z" fill="#E4C1C1"/>
<path d="M58.1908 14.1544C57.7712 7.02328 63.1794 0.998413 70.0003 0.998413C76.8211 0.998413 82.2293 7.02327 81.8097 14.1544L81.2799 23.1566C81.0155 27.6499 77.473 31.5972 73.5108 33.3413C70.7105 34.574 69.29 34.574 66.4897 33.3413C62.5275 31.5972 58.985 27.6499 58.7206 23.1566L58.1908 14.1544Z" fill="#F6DDD6"/>
<path fill-rule="evenodd" clip-rule="evenodd" d="M66.2695 26.1794V27.1154C66.2695 28.5562 67.9405 29.7237 70.0011 29.7237C72.0623 29.7237 73.7327 28.5562 73.7327 27.1154V26.1794H66.2695Z" fill="#393939"/>
<mask id="mask0_1415_1537" style="mask-type:luminance" maskUnits="userSpaceOnUse" x="66" y="26" width="8" height="4">
<path d="M66.2757 26.1782C66.2715 26.2265 66.2695 26.2752 66.2695 26.3239V27.2356C66.2695 28.6098 67.9406 29.7235 70.0011 29.7235C72.0624 29.7235 73.7327 28.6098 73.7327 27.2356V26.3239C73.7327 26.2752 73.7307 26.2265 73.7266 26.1782H66.2757Z" fill="#FF6C6C"/>
</mask>
<g mask="url(#mask0_1415_1537)">
<path d="M70.0004 30.5598C71.2433 30.5598 72.2508 30.1765 72.2508 29.7036C72.2508 29.2308 71.2433 28.8474 70.0004 28.8474C68.7575 28.8474 67.75 29.2308 67.75 29.7036C67.75 30.1765 68.7575 30.5598 70.0004 30.5598Z" fill="#FF6C6C"/>
</g>
<path d="M73.7329 26.1794H66.2695V27.2547H73.7329V26.1794Z" fill="white"/>
<path d="M65.2249 17.0884C65.4645 17.0884 65.6588 17.2919 65.6588 17.5429C65.6588 17.7875 65.4744 17.9869 65.2432 17.997L65.2249 17.9974H62.6214C62.3818 17.9974 62.1875 17.7939 62.1875 17.5429C62.1875 17.2983 62.3719 17.0988 62.6031 17.0888L62.6214 17.0884H65.2249Z" fill="black"/>
<path d="M77.3772 17.0884C77.6169 17.0884 77.8111 17.2919 77.8111 17.5429C77.8111 17.7875 77.6267 17.9869 77.3956 17.997L77.3772 17.9974H74.7738C74.5341 17.9974 74.3398 17.7939 74.3398 17.5429C74.3398 17.2983 74.5243 17.0988 74.7554 17.0888L74.7738 17.0884H77.3772Z" fill="black"/>
<path d="M75.1195 16.3606C75.686 16.3606 76.147 16.8345 76.1606 17.4245L76.1609 17.4514L76.161 19.1785C76.161 19.781 75.6948 20.2694 75.1197 20.2694C74.5531 20.2694 74.0922 19.7955 74.0785 19.2055L74.0782 19.1786L74.0781 17.4515C74.0781 16.849 74.5443 16.3606 75.1195 16.3606Z" fill="black"/>
<path d="M64.8811 16.3606C65.4477 16.3605 65.9086 16.8344 65.9223 17.4244L65.9226 17.4513L65.9228 19.1784C65.9229 19.7809 65.4567 20.2693 64.8815 20.2694C64.315 20.2694 63.854 19.7956 63.8403 19.2056L63.84 19.1787L63.8398 17.4515C63.8398 16.8491 64.306 16.3607 64.8811 16.3606Z" fill="black"/>
<path d="M75.1623 12.7921C75.7538 12.7406 76.2553 12.7458 76.6518 12.8257C77.0543 12.9068 77.4116 13.0251 77.7249 13.1719C77.9518 13.2783 78.1445 13.3941 78.3041 13.5126C78.408 13.5896 78.4818 13.6553 78.5271 13.7028C78.7305 13.9158 78.7305 14.2611 78.5272 14.4741C78.329 14.6818 78.0106 14.687 77.8063 14.4898L77.79 14.4739L77.7836 14.4681C77.763 14.4498 77.7359 14.4277 77.7022 14.4027C77.5973 14.3249 77.4637 14.2445 77.2997 14.1677C77.0592 14.055 76.7786 13.962 76.4551 13.8969C76.1704 13.8395 75.7536 13.8352 75.2485 13.8792C74.9146 13.9082 74.556 13.9569 74.1884 14.0197C73.9956 14.0526 73.8108 14.0876 73.6391 14.1228L73.5018 14.1516C73.4707 14.1583 73.4416 14.1647 73.4144 14.1707L73.3271 14.1905C73.0467 14.257 72.7678 14.0727 72.7044 13.7789C72.6423 13.4916 72.8091 13.206 73.0788 13.1313L73.1038 13.125L73.1696 13.11C73.2257 13.0974 73.29 13.0834 73.3616 13.0684C73.5653 13.0256 73.7874 12.9829 74.0208 12.9431C74.4136 12.876 74.7985 12.8237 75.1623 12.7921Z" fill="#271E1E"/>
<path d="M63.7857 12.8257C64.1822 12.7458 64.6837 12.7406 65.2752 12.7921C65.639 12.8237 66.0239 12.876 66.4167 12.9431C66.6501 12.9829 66.8722 13.0256 67.0759 13.0684L67.2392 13.1036L67.3402 13.1266C67.6207 13.193 67.7966 13.4851 67.7331 13.7789C67.6711 14.0662 67.4031 14.2487 67.1291 14.1946L67.0496 14.1766C67.0151 14.1689 66.9771 14.1605 66.9357 14.1516L66.8713 14.138C66.6793 14.0977 66.4694 14.0573 66.2491 14.0197C65.8815 13.9569 65.5229 13.9082 65.189 13.8792C64.6839 13.8352 64.2671 13.8395 63.9824 13.8969C63.6589 13.962 63.3783 14.055 63.1378 14.1677C62.9738 14.2445 62.8402 14.3249 62.7353 14.4027C62.7083 14.4227 62.6856 14.4408 62.6671 14.4567L62.6454 14.4756L62.6467 14.4742C62.4433 14.6872 62.1136 14.6871 61.9103 14.4741C61.707 14.2611 61.707 13.9158 61.9104 13.7028L61.9333 13.6796C61.9791 13.6348 62.0455 13.5778 62.1334 13.5126C62.293 13.3941 62.4857 13.2783 62.7126 13.1719C63.0259 13.0251 63.3832 12.9068 63.7857 12.8257Z" fill="#271E1E"/>
<path d="M69.3863 19.0232L70.6138 19.8804C70.1966 20.5359 69.8699 21.5199 69.8698 22.2357L69.8704 22.2923C69.8834 22.9421 70.1282 23.2165 70.8372 23.2241L70.8679 23.2242V24.7696C69.2586 24.7696 68.3945 23.7513 68.3945 22.2357C68.3945 21.2086 68.8026 19.9617 69.3565 19.0706L69.3863 19.0232Z" fill="#EBBAAA"/>
<path d="M70.129 4.14203V2.05868V0.776229C69.1398 0.271006 67.2055 0.42647 65.5656 0.776229C63.435 1.23063 59.6413 4.90723 58.7301 8.36153C57.8146 11.8325 57.8691 12.6362 58.0333 15.0632L58.0385 15.14C58.9075 15.3731 59.1509 16.6025 59.1509 16.0428C59.1509 15.3433 58.4025 10.5813 63.5784 6.58893C66.8188 4.08944 70.129 4.60837 70.129 4.14203Z" fill="#272727"/>
<path d="M70.3477 4.14203V2.05868V0.776229C71.337 0.271006 73.2713 0.42647 74.9112 0.776229C77.0418 1.23063 80.8354 4.90723 81.7465 8.36153C82.662 11.8325 82.6077 12.6362 82.4434 15.0632L82.4382 15.14C81.5692 15.3731 81.3258 16.6025 81.3258 16.0428C81.3258 15.3433 82.4661 10.4449 77.2903 6.45258C74.0497 3.95308 70.3477 4.60837 70.3477 4.14203Z" fill="#272727"/>
</svg>
