<svg width="91" height="91" viewBox="0 0 91 91" fill="none" xmlns="http://www.w3.org/2000/svg">
<path d="M66.3616 15.61H45.8516V35H66.3616V15.61Z" fill="#BF1F2B"/>
<path d="M66.4313 12.53H45.7812V13.72H66.4313V12.53Z" fill="#E8E8E8"/>
<path d="M44.5892 59.92C44.5892 62.51 44.8692 64.68 43.3992 64.68C41.9292 64.68 39.1992 62.58 39.1992 59.92C39.1992 57.33 40.3892 55.23 41.9292 55.23C43.3292 55.23 44.5892 57.33 44.5892 59.92Z" fill="#ED9F74"/>
<path d="M58.5909 85.26V88.55C58.5909 88.9 58.8709 89.18 59.2209 89.18H65.8709C66.2209 89.18 66.5009 88.9 66.5009 88.55V85.26H58.5909ZM53.6209 85.26V88.55C53.6209 88.9 53.3409 89.18 52.9909 89.18H46.3409C45.9909 89.18 45.7109 88.9 45.7109 88.55V85.26H53.6209Z" fill="#602C22"/>
<path d="M68.3905 47.7401L68.6005 86.5201C60.4805 89.0401 52.1505 88.9701 43.6805 86.5201L44.3805 58.0301L37.7305 57.1901L39.9705 39.4101C40.3205 36.6101 42.0705 34.0901 44.6605 32.9001C45.7805 32.3401 47.0405 32.0601 48.3005 32.0601H63.9105C65.1705 32.0601 66.4305 32.3401 67.5505 32.9001C70.1405 34.1601 71.8905 36.6101 72.2405 39.4101L72.6605 42.7701L68.3905 47.7401Z" fill="#E8E8E8"/>
<path d="M61.1816 22.96V28.91C61.1816 31.71 58.9416 33.95 56.1416 33.95C53.3416 33.95 51.1016 31.71 51.1016 28.91V22.96H61.1816Z" fill="#ED9F74"/>
<path d="M43.2617 57.89L44.3817 41.86V58.03L43.2617 57.89Z" fill="#D3D1CD"/>
<path d="M55.5806 34.16C55.5806 34.16 56.4206 31.43 55.5806 30.59C54.6006 29.61 49.9806 29.54 49.9806 29.54L49.1406 32.06L55.5806 34.16ZM56.7006 34.16C56.7006 34.16 55.8606 31.43 56.7006 30.59C57.6806 29.61 62.3006 29.54 62.3006 29.54L63.1406 32.06L56.7006 34.16Z" fill="#E8E8E8"/>
<path d="M56.7017 33.74H55.5117V54.67H56.7017V33.74Z" fill="#D3D1CD"/>
<path d="M68.3906 47.74C68.8106 49.77 69.2306 51.8 70.3506 53.55C71.4006 55.3 73.2906 56.7 75.3906 56.56L76.3006 51.73C75.3906 50.89 74.6206 49.91 74.0606 48.79C73.2206 46.9 72.9406 44.87 72.8006 42.77L68.3906 47.74Z" fill="#E8E8E8"/>
<path d="M76.3342 55.851C78.0731 55.0068 79.0311 53.3921 78.474 52.2444C77.9168 51.0967 76.0555 50.8506 74.3166 51.6948C72.5777 52.5389 71.6196 54.1537 72.1768 55.3014C72.7339 56.449 74.5952 56.6951 76.3342 55.851Z" fill="#D3D1CD"/>
<path d="M76.3268 55.8295C77.6831 55.1711 78.4269 53.9043 77.9879 53C77.5489 52.0958 76.0935 51.8965 74.7372 52.555C73.3808 53.2134 72.6371 54.4802 73.0761 55.3845C73.515 56.2887 74.9704 56.488 76.3268 55.8295Z" fill="#C1BFBD"/>
<path d="M82.0832 42.1575L74.168 55.0402L74.824 55.4433L82.7393 42.5606L82.0832 42.1575Z" fill="#CC9933"/>
<path d="M84.7016 47.46C84.6316 47.53 84.5616 47.6 84.4916 47.53C84.4216 47.46 84.3516 47.39 84.4216 47.32C84.4916 47.25 84.5616 47.18 84.6316 47.25C84.7016 47.32 84.7716 47.39 84.7016 47.46ZM84.7716 46.62C84.7716 46.69 84.7016 46.69 84.7016 46.69C84.6316 46.69 84.6316 46.62 84.6316 46.62C84.6316 46.55 84.7016 46.55 84.7016 46.55C84.7716 46.48 84.8416 46.55 84.7716 46.62ZM84.4916 48.16C84.4916 48.23 84.4216 48.23 84.4216 48.23C84.3516 48.23 84.3516 48.16 84.3516 48.16C84.3516 48.09 84.4216 48.09 84.4216 48.09C84.4916 48.09 84.4916 48.09 84.4916 48.16Z" fill="#4C5AA5"/>
<path d="M84.5619 47.1099V47.2499L84.4219 47.1099V46.6899L84.5619 47.1099Z" fill="#4C5AA5"/>
<path d="M84.5586 47.6V47.46L84.6986 47.6V48.02L84.5586 47.6Z" fill="#4C5AA5"/>
<path d="M87.0803 52.5C85.7503 51.66 84.3503 50.82 82.9503 49.98C81.5503 49.14 80.2203 48.3 78.8203 47.46L82.0403 42.21L90.2303 47.25C89.2503 49 88.1303 50.75 87.0803 52.5Z" fill="#006C35"/>
<path d="M84.0714 46.48L84.0014 46.55C84.0714 46.55 84.1414 46.55 84.2114 46.55C84.2814 46.55 84.3514 46.48 84.2814 46.41V46.3399C84.2814 46.2699 84.2814 46.2 84.3514 46.2H84.4214C84.4214 46.27 84.4214 46.3399 84.4214 46.3399C84.4214 46.4099 84.4214 46.41 84.4214 46.48C84.4214 46.55 84.3514 46.55 84.3514 46.62C84.2814 46.69 84.1414 46.6899 84.0714 46.6899H84.0014V46.76C84.0014 46.76 84.0714 46.83 84.1414 46.83C84.2114 46.83 84.3514 46.83 84.4214 46.76C84.4914 46.76 84.4914 46.69 84.5614 46.62C84.5614 46.55 84.6314 46.48 84.6314 46.41C84.6314 46.34 84.6314 46.34 84.6314 46.27C84.6314 46.2 84.7014 46.2 84.7014 46.2V46.27C84.7014 46.41 84.7014 46.48 84.6314 46.62H84.7014C84.7714 46.62 84.9114 46.6199 84.9814 46.6899C84.9814 46.6899 84.9814 46.6899 85.0514 46.6899C85.0514 46.6899 85.0514 46.62 85.1214 46.62C85.1914 46.55 85.2614 46.55 85.3314 46.62C85.4014 46.69 85.4014 46.76 85.3314 46.83C85.2614 46.9 85.1914 46.9 85.1914 46.9C85.1214 46.9 85.0514 46.9 85.0514 46.83C85.0514 46.83 85.0514 46.83 84.9814 46.83C85.1214 46.9 85.1914 46.9699 85.3314 47.0399C85.2614 47.0399 85.2614 47.11 85.1914 47.11C85.1914 47.11 85.1914 47.11 85.1214 47.11C84.9814 47.11 84.9114 47.04 84.7714 46.97H84.7014C84.6314 46.97 84.6314 47.0399 84.6314 47.0399C84.6314 47.0399 84.6314 47.11 84.7014 47.11C84.7014 47.11 84.7014 47.11 84.7014 47.18C84.7014 47.18 84.7014 47.18 84.6314 47.25C84.5614 47.18 84.4914 47.1099 84.4214 47.0399C84.4214 46.9699 84.3514 46.97 84.3514 46.9H84.2814C84.1414 46.9 84.0714 46.97 83.9314 46.9C83.8614 46.9 83.7914 46.83 83.7914 46.76C83.7914 46.69 83.7914 46.69 83.7914 46.62C83.7214 46.62 83.5814 46.55 83.5114 46.55H83.4414C83.5114 46.55 83.5814 46.55 83.5814 46.55C83.6514 46.55 83.7914 46.55 83.8614 46.55C83.8614 46.55 83.8614 46.55 83.9314 46.55C83.9314 46.48 83.9314 46.48 84.0714 46.48C84.0014 46.48 84.0014 46.48 84.0714 46.48ZM84.5614 46.76H84.4914C84.4914 46.83 84.4914 46.9 84.4914 46.97V47.0399C84.4914 47.0399 84.4914 47.04 84.4914 46.97L84.5614 46.9H84.6314C84.6314 46.9 84.6314 46.9 84.7014 46.9C84.7014 46.9 84.6314 46.83 84.5614 46.76ZM85.1214 46.76C85.1214 46.69 85.1214 46.69 85.1214 46.76C85.0514 46.69 85.0514 46.69 85.1214 46.76C85.0514 46.76 85.0514 46.76 85.1214 46.76Z" fill="#FCFDFC"/>
<path d="M86.6581 47.53C86.6581 47.53 86.6581 47.46 86.7281 47.46C86.7981 47.32 86.7981 47.25 86.8681 47.11C86.8681 47.04 86.9381 47.04 86.9381 47.04C86.9381 47.04 87.0081 47.04 87.0081 47.11C87.0081 47.18 87.0081 47.25 87.0081 47.32C87.0081 47.32 87.0081 47.32 86.9381 47.32V47.39C86.8681 47.53 86.8681 47.6 86.7981 47.74C86.7981 47.74 86.7981 47.74 86.7981 47.81C86.7981 47.88 86.7981 47.95 86.7981 48.09V48.16C86.7981 48.23 86.7281 48.23 86.7281 48.23C86.7281 48.16 86.7281 48.09 86.7281 48.02L86.6581 48.09L86.5881 48.16H86.5181C86.5881 48.09 86.6581 47.95 86.7281 47.81C86.7281 47.74 86.7281 47.74 86.7281 47.67C86.7281 47.6 86.7281 47.6 86.7281 47.53V47.6C86.6581 47.74 86.5881 47.81 86.5181 47.95C86.5181 48.02 86.4481 48.02 86.4481 48.02C86.3781 48.02 86.3781 48.02 86.3081 48.02C86.3081 48.02 86.3081 48.02 86.2381 48.02C86.2381 47.95 86.1681 47.95 86.1681 47.88C86.1681 47.81 86.0981 47.81 86.0981 47.81L86.0281 47.88L85.9581 47.95C85.8881 48.02 85.8181 47.95 85.8181 47.88C85.7481 47.74 85.8181 47.6 85.8881 47.53C85.8881 47.53 85.8881 47.53 85.9581 47.53L85.8881 47.6C85.8881 47.67 85.8881 47.67 85.8881 47.74C85.8881 47.81 85.9581 47.81 85.9581 47.81C86.0281 47.81 86.0281 47.74 86.0981 47.74L86.1681 47.67C86.2381 47.67 86.2381 47.67 86.2381 47.74C86.2381 47.81 86.2381 47.81 86.2381 47.88C86.2381 47.95 86.3081 47.95 86.3081 47.95C86.3781 47.88 86.3781 47.88 86.4481 47.81C86.5181 47.67 86.5881 47.53 86.6581 47.39C86.6581 47.32 86.6581 47.18 86.5881 47.11C86.5881 47.04 86.5881 46.97 86.6581 46.97C86.6581 46.97 86.6581 46.9 86.7281 46.9C86.7281 46.97 86.7981 47.04 86.7981 47.11C86.7981 47.11 86.7981 47.11 86.7981 47.04C86.7981 47.04 86.7981 46.97 86.8681 46.97H86.9381C86.9381 47.04 86.9381 47.04 86.9381 47.11V47.18C86.9381 47.25 86.8681 47.25 86.8681 47.32C86.8681 47.32 86.8681 47.32 86.8681 47.39C86.6581 47.39 86.6581 47.46 86.6581 47.53ZM86.6581 47.04C86.5881 47.04 86.5881 47.04 86.6581 47.04C86.5881 47.04 86.5881 47.11 86.6581 47.11C86.5881 47.04 86.6581 47.04 86.6581 47.04Z" fill="#FBFDFC"/>
<path d="M84.7709 49.1399C84.6309 49.0699 84.4909 48.9999 84.3509 48.8599C84.1409 48.7199 83.8609 48.5799 83.6509 48.4399C83.3709 48.2299 83.0209 48.0899 82.7409 47.8799C82.6709 47.8099 82.6009 47.8099 82.5309 47.6699C82.4609 47.5999 82.4609 47.5299 82.4609 47.4599C83.2309 47.9499 84.0709 48.5099 84.9109 48.9999V48.9299H84.9809C84.9809 48.9299 84.9809 48.9299 84.9809 48.9999C84.9809 48.9999 84.9809 48.9999 85.0509 48.9999C85.1209 49.0699 85.1909 49.0699 85.2609 49.1399C85.2609 49.1399 85.3309 49.1399 85.3309 49.2099C85.4009 49.2099 85.4009 49.2799 85.4009 49.3499C85.4009 49.4199 85.4009 49.4199 85.3309 49.4199H85.2609C85.1909 49.4199 85.1909 49.4199 85.1909 49.3499C85.1209 49.2799 84.9809 49.2099 84.9109 49.2099C84.9109 49.2099 84.8409 49.2099 84.8409 49.1399C84.7709 49.2099 84.7709 49.1399 84.7709 49.1399ZM84.9809 49.2799C84.9109 49.2099 84.9109 49.2099 84.8409 49.2099C84.9109 49.2799 84.9109 49.2799 84.9809 49.2799V49.3499C84.9809 49.3499 85.0509 49.3499 85.0509 49.4199C85.0509 49.4199 85.0509 49.4199 85.1209 49.4199C85.1209 49.3499 85.0509 49.2799 84.9809 49.2799ZM84.2809 46.1299C84.2809 46.1999 84.2109 46.1999 84.1409 46.2699H84.0709C84.0709 46.2699 84.0009 46.2699 84.0009 46.1999C84.0009 46.1999 84.0009 46.1999 83.9309 46.1999C83.8609 46.1999 83.8609 46.1999 83.7909 46.1999C83.7909 46.1999 83.7909 46.1999 83.7209 46.1299V46.1999C83.7209 46.2699 83.6509 46.2699 83.6509 46.3399C83.5809 46.4099 83.5109 46.4799 83.3709 46.4799C83.2309 46.4799 83.0909 46.4799 82.9509 46.3399C82.8809 46.3399 82.8809 46.2699 82.8809 46.2699C82.8109 46.1999 82.8109 46.1299 82.8809 46.0599C82.8809 45.9899 82.9509 45.9899 82.9509 45.9199C82.9509 45.9199 82.9509 45.9199 83.0209 45.9199V45.9899C83.0209 45.9899 83.0209 46.0599 82.9509 46.0599C82.9509 46.1299 82.9509 46.1299 82.9509 46.1999C83.0209 46.2699 83.0909 46.3399 83.1609 46.3399C83.3009 46.4099 83.5109 46.3399 83.5809 46.1999C83.5809 46.1999 83.5809 46.1299 83.6509 46.1299C83.6509 46.1299 83.6509 46.1299 83.5809 46.1999C83.5109 46.2699 83.3709 46.3399 83.3009 46.3399C83.2309 46.3399 83.0909 46.3399 83.0909 46.1999C83.0209 46.1299 83.0209 46.0599 83.0909 45.9899C83.0909 45.9199 83.1609 45.9199 83.2309 45.8499V45.9199V45.9899C83.2309 46.0599 83.2309 46.1299 83.3009 46.1299C83.3709 46.1999 83.5109 46.1999 83.5809 46.1299C83.5809 46.1299 83.6509 46.1299 83.6509 46.0599C83.6509 46.0599 83.6509 46.0599 83.5809 46.0599C83.5109 46.0599 83.5109 46.0599 83.4409 45.9899V45.9199C83.4409 45.8499 83.5109 45.8499 83.5109 45.8499C83.5809 45.7799 83.6509 45.7799 83.7209 45.8499C83.7209 45.8499 83.7209 45.8499 83.7209 45.9199V45.9899C83.7209 45.9899 83.7209 45.9899 83.7909 45.9899C83.8609 45.8499 83.9309 45.6399 84.0009 45.4999C84.0009 45.4299 84.0709 45.4299 84.0709 45.4299C84.0709 45.4299 84.1409 45.4299 84.1409 45.4999V45.5699C84.1409 45.6399 84.1409 45.6399 84.1409 45.7099C84.0709 45.8499 84.0709 45.9199 84.0009 46.0599C84.0709 46.0599 84.0709 46.0599 84.0009 46.1299C84.0009 46.1299 84.0009 46.1299 84.0009 46.1999H84.0709C84.0709 46.1999 84.0709 46.1999 84.1409 46.1999C84.2109 46.1999 84.2109 46.1999 84.2109 46.2699C84.2109 46.1299 84.2809 46.1299 84.2809 46.1299ZM83.5809 45.9199C83.5809 45.9899 83.6509 45.9899 83.5809 45.9199C83.6509 45.9199 83.6509 45.9199 83.5809 45.9199Z" fill="#FCFDFC"/>
<path d="M83.9298 45.5C83.9298 45.57 83.9298 45.64 83.8598 45.64C83.8598 45.64 83.8598 45.64 83.8598 45.71C83.8598 45.71 83.8598 45.71 83.7898 45.78C83.7198 45.78 83.6498 45.78 83.5798 45.78C83.5798 45.78 83.5798 45.78 83.5798 45.71V45.64C83.5798 45.64 83.5798 45.64 83.5098 45.64L83.4398 45.71C83.3698 45.78 83.3698 45.85 83.2998 45.92C83.2998 45.92 83.2998 45.92 83.2298 45.92C83.2298 45.92 83.2298 45.92 83.1598 45.92C83.2298 45.85 83.2298 45.71 83.2998 45.64V45.57V45.5C83.2998 45.43 83.3698 45.36 83.3698 45.36C83.3698 45.36 83.3698 45.36 83.2998 45.36C83.2998 45.36 83.2298 45.43 83.2298 45.5C83.1598 45.57 83.0898 45.5 83.0898 45.43C83.0898 45.36 83.0898 45.36 83.0898 45.29C83.0898 45.22 83.1598 45.15 83.2298 45.08V45.15C83.2298 45.22 83.2298 45.22 83.1598 45.29V45.36H83.2298L83.2998 45.29C83.2998 45.29 83.3698 45.22 83.4398 45.22H83.5098V45.29C83.5098 45.36 83.4398 45.43 83.4398 45.43V45.5C83.4398 45.5 83.4398 45.43 83.5098 45.43C83.5098 45.36 83.5798 45.29 83.5798 45.22C83.5798 45.15 83.6498 45.15 83.6498 45.08C83.6498 45.08 83.6498 45.08 83.7198 45.08C83.7198 45.15 83.7198 45.15 83.7198 45.22C83.7198 45.29 83.6498 45.36 83.6498 45.43C83.6498 45.36 83.6498 45.36 83.7198 45.29C83.7198 45.29 83.7198 45.29 83.7898 45.29C83.7898 45.29 83.7898 45.29 83.7898 45.36C83.7898 45.43 83.7898 45.5 83.7198 45.57C83.7198 45.57 83.7198 45.57 83.7198 45.64V45.71H83.7898V45.64C83.7898 45.57 83.7898 45.5 83.7898 45.5C83.7898 45.5 83.7898 45.5 83.8598 45.43H83.9298C83.9998 45.43 83.9998 45.43 83.9298 45.5C83.9998 45.5 83.9998 45.5 83.9298 45.5Z" fill="#FBFCFC"/>
<path d="M85.4711 46.97C85.4711 47.04 85.4011 47.11 85.4011 47.11C85.3311 47.18 85.3311 47.25 85.2611 47.32C85.1911 47.39 85.1911 47.39 85.1211 47.39C85.2611 47.18 85.3311 47.04 85.4711 46.83C85.4711 46.76 85.5411 46.76 85.5411 46.69C85.5411 46.55 85.5411 46.41 85.4711 46.27C85.4711 46.2 85.4711 46.13 85.5411 46.13C85.5411 46.13 85.5411 46.13 85.6111 46.13C85.6111 46.13 85.6111 46.13 85.6111 46.2C85.6111 46.27 85.6811 46.34 85.6811 46.41C85.6811 46.41 85.6811 46.34 85.7511 46.34C85.7511 46.34 85.7511 46.34 85.8211 46.34C85.8211 46.41 85.8211 46.48 85.8211 46.55V46.62C85.8211 46.69 85.7511 46.69 85.7511 46.76C85.7511 46.76 85.7511 46.76 85.7511 46.83C85.7511 46.97 85.7511 47.18 85.7511 47.32C85.7511 47.39 85.7511 47.39 85.6811 47.46C85.6811 47.46 85.6811 47.53 85.6111 47.53C85.4711 47.32 85.4711 47.18 85.4711 46.97ZM85.5411 46.48C85.5411 46.41 85.5411 46.41 85.5411 46.41C85.5411 46.48 85.5411 46.48 85.5411 46.48Z" fill="#FCFDFC"/>
<path d="M84.8416 46.06C84.8416 46.06 84.8416 46.13 84.7716 46.13C84.7716 46.2 84.7716 46.2 84.7716 46.27C84.7716 46.27 84.8416 46.34 84.8416 46.27C84.8416 46.27 84.9116 46.27 84.9116 46.2C84.9116 46.13 84.9816 46.13 84.9816 46.06C84.9816 45.99 85.0516 45.92 85.1216 45.92C85.1216 45.99 85.1216 45.99 85.0516 46.06C85.0516 46.13 84.9816 46.2 84.9816 46.27V46.34C84.9816 46.34 84.9816 46.41 85.0516 46.41H85.1216C85.1216 46.41 85.1216 46.34 85.1916 46.27V46.2C85.1916 46.13 85.1916 46.13 85.2616 46.06C85.3316 46.06 85.3316 46.06 85.3316 46.13C85.3316 46.2 85.3316 46.2 85.3316 46.27C85.3316 46.34 85.3316 46.34 85.2616 46.27C85.2616 46.34 85.2616 46.34 85.1916 46.41C85.1916 46.48 85.1916 46.48 85.2616 46.48L85.1216 46.55C85.1216 46.55 85.1216 46.55 85.0516 46.55C84.9816 46.55 84.9816 46.55 84.9116 46.55C84.8416 46.55 84.8416 46.48 84.8416 46.48C84.8416 46.41 84.8416 46.41 84.7716 46.41H84.7016C84.6316 46.41 84.5616 46.41 84.5616 46.34C84.4916 46.27 84.5616 46.27 84.5616 46.2C84.5616 46.2 84.5616 46.13 84.6316 46.13C84.6316 46.13 84.6316 46.13 84.5616 46.13L84.4916 46.2C84.4216 46.27 84.3516 46.2 84.3516 46.13C84.3516 46.06 84.3516 45.99 84.3516 45.92C84.3516 45.85 84.4216 45.78 84.4916 45.78C84.4916 45.85 84.4916 45.85 84.4216 45.92V45.99C84.4216 45.99 84.4216 45.99 84.4916 45.99L84.5616 45.92C84.6316 45.85 84.7016 45.85 84.7016 45.85C84.7016 45.85 84.7016 45.85 84.7716 45.85C84.8416 45.85 84.8416 45.85 84.8416 45.92C84.9116 45.99 84.9116 45.99 84.8416 46.06ZM86.8716 48.09C86.8016 48.16 86.8016 48.23 86.7316 48.3C86.6616 48.44 86.5216 48.44 86.3816 48.37C86.3816 48.37 86.3116 48.37 86.3116 48.3H86.3816H86.4516C86.5216 48.3 86.5916 48.3 86.6616 48.23L86.7316 48.16C86.8716 47.95 87.0116 47.67 87.0816 47.46C87.0816 47.39 87.1516 47.32 87.1516 47.32C87.1516 47.25 87.2216 47.25 87.2216 47.25C87.2216 47.32 87.2216 47.39 87.2216 47.39C87.2216 47.39 87.2216 47.39 87.2216 47.46C87.2216 47.46 87.2216 47.46 87.1516 47.46C87.0816 47.67 86.9416 47.88 86.8716 48.09ZM85.1216 47.67L85.0516 47.6C85.1916 47.6 85.3316 47.6 85.4716 47.6L85.5416 47.53C85.6116 47.32 85.7516 47.11 85.8216 46.9C85.8216 46.83 85.8916 46.76 85.8916 46.69C85.8916 46.62 85.9616 46.55 86.0316 46.55C86.0316 46.62 86.0316 46.69 86.0316 46.76C86.0316 46.83 86.0316 46.83 85.9616 46.76C85.9616 46.76 85.9616 46.76 85.9616 46.83C85.8916 47.04 85.7516 47.25 85.6816 47.46C85.6116 47.6 85.4716 47.67 85.4016 47.67C85.2616 47.74 85.1916 47.74 85.1216 47.67ZM85.7516 47.67C85.8216 47.53 85.9616 47.32 85.9616 47.11C86.0316 46.97 86.0316 46.9 86.1016 46.76C86.1016 46.69 86.1716 46.62 86.2416 46.62C86.2416 46.69 86.2416 46.76 86.2416 46.83H86.1716C86.1016 46.97 86.1016 47.04 86.0316 47.18C85.9616 47.32 85.8916 47.46 85.8216 47.53C85.8216 47.6 85.7516 47.6 85.6816 47.67C85.6816 47.74 85.6816 47.74 85.7516 47.67C85.6816 47.74 85.6816 47.67 85.7516 47.67Z" fill="#FBFCFC"/>
<path d="M84.1405 45.7801C84.2105 45.7101 84.3505 45.7101 84.4205 45.7101C84.4205 45.7101 84.4905 45.7101 84.4205 45.6401V45.5701C84.4205 45.5701 84.4905 45.5001 84.4905 45.5701C84.5605 45.5701 84.5605 45.6401 84.5605 45.6401C84.5605 45.6401 84.5605 45.6401 84.4905 45.6401C84.4205 45.6401 84.3505 45.6401 84.2805 45.7101C84.2805 45.8501 84.2105 45.8501 84.1405 45.7801ZM84.4905 45.6401C84.4905 45.7101 84.5605 45.7101 84.4905 45.6401C84.5605 45.6401 84.5605 45.7101 84.4905 45.6401ZM86.4505 47.2501C86.3805 47.3201 86.3805 47.3201 86.4505 47.2501C86.3805 47.2501 86.3805 47.2501 86.3805 47.2501L86.3105 47.3201C86.2405 47.2501 86.2405 47.1801 86.2405 47.1101C86.2405 47.0401 86.3105 47.0401 86.3105 47.0401C86.3105 47.0401 86.3805 47.0401 86.3105 47.1101C86.3105 47.1101 86.3105 47.0401 86.3805 47.0401C86.4505 47.1801 86.4505 47.1801 86.4505 47.2501Z" fill="#FAFCFB"/>
<path d="M82.9492 45.71C82.9492 45.64 82.9492 45.64 82.9492 45.71C83.0892 45.64 83.2292 45.64 83.2992 45.64C83.2992 45.64 83.2992 45.64 83.3692 45.64V45.71C83.2292 45.71 83.0892 45.71 82.9492 45.71Z" fill="#FAFBFB"/>
<path d="M82.8816 45.85L82.8116 45.92L82.7416 45.99C82.7416 45.99 82.7416 45.99 82.8116 45.99C82.8116 45.99 82.8116 45.99 82.8116 46.06C82.8116 46.06 82.8116 46.13 82.7416 46.13H82.6716L82.6016 46.06V45.99C82.6716 45.92 82.7416 45.85 82.8816 45.85Z" fill="#F9FBFA"/>
<path d="M86.3816 47.53C86.2416 47.6 86.1716 47.6 86.1016 47.6C86.1016 47.6 86.1016 47.53 86.1716 47.53C86.1716 47.46 86.2416 47.46 86.3816 47.53C86.3816 47.46 86.3816 47.46 86.3816 47.53Z" fill="#FAFBFB"/>
<path d="M84.8398 47.3899C84.8398 47.3199 84.8398 47.3199 84.8398 47.3899C84.8398 47.3199 84.8398 47.3199 84.8398 47.3199H84.9098H84.9798C84.9798 47.3199 84.9798 47.3199 84.9798 47.3899C84.9798 47.4599 84.9098 47.3899 84.8398 47.3899Z" fill="#F9FBFA"/>
<path d="M86.2416 48.23C86.2416 48.3 86.3116 48.3 86.2416 48.23C86.1716 48.3 86.1716 48.3 86.1016 48.23C86.1016 48.23 86.1016 48.23 86.1716 48.23C86.1716 48.23 86.1716 48.23 86.1716 48.16C86.1716 48.16 86.1716 48.16 86.1716 48.09C86.1716 48.09 86.1716 48.09 86.2416 48.09C86.2416 48.09 86.2416 48.09 86.3116 48.09C86.3116 48.16 86.3116 48.16 86.2416 48.23ZM84.8416 46.55C84.7716 46.48 84.7716 46.41 84.8416 46.41C84.9116 46.48 84.9116 46.55 84.8416 46.55C84.9116 46.48 84.9116 46.48 84.9116 46.48C84.9116 46.48 84.9116 46.48 84.9116 46.55C84.9116 46.62 84.9116 46.62 84.8416 46.55C84.9116 46.62 84.8416 46.62 84.8416 46.55Z" fill="#F8FBF9"/>
<path d="M86.1717 47.74V47.67V47.6C86.1717 47.6 86.1717 47.6 86.2417 47.6C86.3117 47.67 86.2417 47.74 86.1717 47.74C86.1717 47.81 86.1017 47.81 86.1717 47.74Z" fill="#FAFBFB"/>
<path d="M85.6794 46.83C85.6094 46.83 85.6094 46.76 85.6794 46.69C85.7494 46.76 85.7494 46.76 85.6794 46.83C85.7494 46.76 85.7494 46.76 85.7494 46.76C85.8194 46.83 85.7494 46.9 85.6794 46.83ZM83.9994 45.29L83.9294 45.36C83.9294 45.36 83.8594 45.36 83.8594 45.29V45.22C83.9294 45.22 83.9294 45.22 83.9994 45.29C83.9994 45.22 83.9294 45.22 83.9994 45.29C83.9994 45.22 83.9994 45.22 83.9994 45.29Z" fill="#F8FBF9"/>
<path d="M85.8903 46.55L85.8203 46.62C85.8903 46.62 85.8903 46.55 85.8903 46.48C85.8903 46.48 85.8903 46.48 85.8903 46.41V46.34H85.9603C85.9603 46.48 85.9603 46.55 85.8903 46.55Z" fill="#F9FBFA"/>
<path d="M86.8691 47.46C86.9391 47.46 86.9391 47.39 86.8691 47.32V47.25C87.0091 47.39 87.0091 47.46 86.8691 47.46C86.9391 47.46 86.8691 47.53 86.8691 47.46ZM84.2791 45.99C84.2091 45.99 84.2091 45.92 84.2791 45.92L84.3491 45.85C84.3491 45.92 84.3491 45.92 84.2791 45.99C84.3491 45.99 84.3491 45.92 84.3491 45.99C84.3491 45.99 84.2791 46.06 84.2791 45.99Z" fill="#F8FBF9"/>
<path d="M83.4414 45.0799C83.4414 45.0099 83.4414 45.0099 83.4414 44.9399C83.4414 44.9399 83.4414 44.9399 83.5114 44.9399V45.0099C83.5114 45.0799 83.5114 45.0799 83.4414 45.0799C83.4414 45.1499 83.4414 45.1499 83.4414 45.0799Z" fill="#F9FBFA"/>
<path d="M84.9803 45.99L85.0503 45.92C85.0503 45.92 85.0503 45.92 85.1203 45.92C85.1203 45.92 85.1203 45.92 85.1203 45.99C85.0503 45.99 85.0503 45.99 84.9803 45.99Z" fill="#FAFBFB"/>
<path d="M83.9294 46.41C83.8594 46.48 83.8594 46.48 83.8594 46.48C83.8594 46.48 83.9294 46.41 83.8594 46.34V46.27H83.9294C83.9994 46.34 83.9294 46.41 83.9294 46.41Z" fill="#F9FBFA"/>
<path d="M84.6992 45.78C84.6992 45.71 84.7692 45.71 84.8392 45.71C84.8392 45.71 84.8392 45.71 84.7692 45.71C84.7692 45.78 84.7692 45.78 84.6992 45.78C84.7692 45.78 84.7692 45.78 84.7692 45.85C84.7692 45.85 84.7692 45.85 84.6992 45.78Z" fill="#F8FBF9"/>
<path d="M84.5581 46.76C84.6281 46.83 84.6981 46.83 84.6981 46.9C84.6981 46.9 84.6981 46.9 84.6281 46.9H84.5581C84.5581 46.9 84.4881 46.9 84.4881 46.97V47.04C84.4881 47.04 84.4881 47.04 84.4881 46.97C84.4881 46.9 84.4181 46.83 84.4881 46.76H84.5581Z" fill="#036D37"/>
<path d="M85.1189 46.76C85.0489 46.76 85.0489 46.76 85.1189 46.76C85.0489 46.69 85.0489 46.69 85.1189 46.76C85.1189 46.69 85.1189 46.69 85.1189 46.76Z" fill="#066F3A"/>
<path d="M86.6619 47.04V47.11C86.5919 47.04 86.5919 47.04 86.6619 47.04C86.5919 47.04 86.5919 47.04 86.6619 47.04Z" fill="#006C35"/>
<path d="M83.5781 45.92C83.6481 45.92 83.6481 45.92 83.5781 45.92C83.5781 45.99 83.6481 45.99 83.5781 45.92Z" fill="#0A713D"/>
<path d="M85.5383 46.48V46.41C85.6083 46.41 85.6083 46.41 85.5383 46.48ZM84.4883 45.64C84.5583 45.64 84.5583 45.71 84.4883 45.64C84.4883 45.71 84.5583 45.71 84.4883 45.64Z" fill="#0A713D"/>
<path d="M78.5399 52.36C79.2399 53.34 78.6099 54.95 77.1399 55.93C75.6699 56.91 73.9899 56.91 73.2899 55.93C72.5899 54.95 73.2199 53.34 74.6899 52.36C76.0899 51.38 77.8399 51.38 78.5399 52.36Z" fill="#ED9F74"/>
<path d="M76.4404 51.52C76.9304 52.22 76.5804 53.27 75.7404 53.9C74.8304 54.53 73.7104 54.39 73.2904 53.69C72.8004 52.99 73.1504 51.87 73.9904 51.31C74.8304 50.68 75.9504 50.82 76.4404 51.52Z" fill="#ED9F74"/>
<path d="M56.1391 35.7699C56.3324 35.7699 56.4891 35.6132 56.4891 35.4199C56.4891 35.2266 56.3324 35.0699 56.1391 35.0699C55.9458 35.0699 55.7891 35.2266 55.7891 35.4199C55.7891 35.6132 55.9458 35.7699 56.1391 35.7699Z" fill="#646C79"/>
<path d="M56.1391 39.1299C56.3324 39.1299 56.4891 38.9732 56.4891 38.7799C56.4891 38.5866 56.3324 38.4299 56.1391 38.4299C55.9458 38.4299 55.7891 38.5866 55.7891 38.7799C55.7891 38.9732 55.9458 39.1299 56.1391 39.1299Z" fill="#646C79"/>
<path d="M56.1391 42.4899C56.3324 42.4899 56.4891 42.3332 56.4891 42.1399C56.4891 41.9466 56.3324 41.7899 56.1391 41.7899C55.9458 41.7899 55.7891 41.9466 55.7891 42.1399C55.7891 42.3332 55.9458 42.4899 56.1391 42.4899Z" fill="#646C79"/>
<path d="M56.1391 45.8499C56.3324 45.8499 56.4891 45.6932 56.4891 45.4999C56.4891 45.3066 56.3324 45.1499 56.1391 45.1499C55.9458 45.1499 55.7891 45.3066 55.7891 45.4999C55.7891 45.6932 55.9458 45.8499 56.1391 45.8499Z" fill="#646C79"/>
<path d="M56.1391 49.21C56.3324 49.21 56.4891 49.0533 56.4891 48.86C56.4891 48.6667 56.3324 48.51 56.1391 48.51C55.9458 48.51 55.7891 48.6667 55.7891 48.86C55.7891 49.0533 55.9458 49.21 56.1391 49.21Z" fill="#646C79"/>
<path d="M56.1391 52.57C56.3324 52.57 56.4891 52.4133 56.4891 52.22C56.4891 52.0267 56.3324 51.87 56.1391 51.87C55.9458 51.87 55.7891 52.0267 55.7891 52.22C55.7891 52.4133 55.9458 52.57 56.1391 52.57Z" fill="#646C79"/>
<path d="M66.8489 20.86C66.2889 22.75 65.2389 24.08 64.6089 23.87C63.9789 23.66 63.9089 21.98 64.5389 20.16C65.1689 18.34 66.1489 16.94 66.7789 17.15C67.4089 17.36 67.4789 18.97 66.8489 20.86ZM45.4289 20.86C45.9889 22.75 47.0389 24.08 47.6689 23.87C48.2989 23.66 48.3689 21.98 47.7389 20.16C47.1089 18.34 46.1289 16.94 45.4989 17.15C44.7989 17.36 44.7989 18.97 45.4289 20.86Z" fill="#ED9F74"/>
<path d="M46.7578 13.79V20.02C46.7578 25.2 50.9578 29.4 56.1378 29.4C61.3178 29.4 65.5178 25.2 65.5178 20.02V13.79H46.7578Z" fill="#FFB381"/>
<path d="M58.8005 23.52C58.4505 24.64 57.4005 25.48 56.1405 25.48C54.8805 25.48 53.8305 24.64 53.4805 23.52C54.1105 24.29 55.0905 24.78 56.1405 24.78C57.1905 24.78 58.1705 24.29 58.8005 23.52Z" fill="#DB8E67"/>
<path d="M45.3594 13.79C45.4294 17.5 46.7594 20.51 46.7594 20.51C46.7594 19.32 46.9694 16.17 48.8594 13.79H45.3594ZM63.3494 13.79C65.2394 16.24 65.4494 19.39 65.4494 20.51C65.4494 20.51 66.7094 17.5 66.8494 13.79H63.3494Z" fill="#161616"/>
<path d="M58.6582 16.31C59.3582 16.03 60.1281 15.89 60.8981 15.96C61.6681 16.03 62.3681 16.31 62.9981 16.66C62.3681 16.31 61.5981 16.17 60.8981 16.24C60.1981 16.24 59.4981 16.45 58.9381 16.8C58.7981 16.87 58.5881 16.8 58.5181 16.66C58.3781 16.59 58.4482 16.38 58.6582 16.31ZM59.4281 17.85C60.4081 17.29 61.5981 17.36 62.4381 17.92C61.5281 17.5 60.4081 17.71 59.7781 18.34C59.6381 18.48 59.4982 18.41 59.3582 18.34C59.2882 18.2 59.2881 17.99 59.4281 17.85Z" fill="#161616"/>
<path d="M53.3373 16.8699C52.7073 16.5199 52.0773 16.3099 51.3773 16.3099C50.6773 16.3099 49.9773 16.4499 49.2773 16.7299C49.9073 16.3099 50.6073 16.0999 51.3773 16.0299C52.1473 15.9599 52.9173 16.0999 53.6173 16.3799C53.7573 16.4499 53.8273 16.5899 53.7573 16.7299C53.6873 16.8699 53.5473 16.9399 53.3373 16.8699C53.4073 16.8699 53.4073 16.8699 53.3373 16.8699ZM52.4973 18.3399C51.8673 17.7099 50.7473 17.4999 49.8373 17.9199C50.6773 17.3599 51.8673 17.2899 52.8473 17.8499C52.9873 17.9199 53.0573 18.1299 52.9173 18.2699C52.8473 18.4099 52.6373 18.4799 52.4973 18.3399Z" fill="#161616"/>
<path d="M67.6202 12.53C66.5702 6.44 61.8802 1.75 56.1402 1.75C50.4002 1.75 45.7102 6.44 44.6602 12.53H67.6202Z" fill="#D42E32"/>
<path d="M44.3793 55.02C44.3793 55.02 47.4593 51.8 45.8493 44.52C45.5693 43.26 45.7793 42 46.4093 40.88C48.2293 37.8 51.4493 31.22 48.5793 27.3C46.0593 23.87 46.5493 16.66 47.1793 11.97C47.5293 9.38 48.3693 6.93 49.6993 4.62C49.6993 4.62 47.3893 5.25 45.2193 10.22C43.3993 14.49 37.8693 27.37 36.3993 30.8C36.1193 31.43 36.1893 32.06 36.5393 32.69C37.1693 33.74 38.0793 34.3 39.1293 34.37C34.3693 45.08 42.9093 44.03 44.3793 55.02ZM67.8993 55.02C67.8993 55.02 64.8193 51.8 66.4293 44.52C66.7093 43.26 66.4993 42 65.8693 40.88C64.0493 37.8 60.8293 31.22 63.6993 27.3C66.2193 23.87 65.7293 16.66 65.0993 11.97C64.7493 9.38 63.9093 6.93 62.5793 4.62C62.5793 4.62 64.8893 5.25 67.0593 10.22C68.9493 14.49 74.4793 27.44 75.9493 30.87C76.2293 31.5 76.1593 32.13 75.8093 32.76C75.1793 33.81 74.2693 34.37 73.2193 34.44C77.9093 45.08 69.3693 44.03 67.8993 55.02Z" fill="#D42E32"/>
<path opacity="0.1" d="M73.1475 34.37C73.1475 34.44 73.2175 34.51 73.2175 34.58C72.1675 33.53 71.4675 32.2 70.9775 30.8C70.4875 29.33 70.2775 27.79 70.2775 26.25C70.4875 27.79 70.9075 29.26 71.5375 30.59C72.1675 31.92 73.0775 33.11 74.2675 33.95L74.3375 34.02C73.9175 34.23 73.5675 34.3 73.1475 34.37ZM39.1275 34.37C39.1275 34.44 39.0575 34.51 39.0575 34.58C40.1075 33.53 40.8075 32.2 41.2975 30.8C41.7875 29.33 41.9975 27.79 41.9975 26.25C41.7875 27.79 41.3675 29.26 40.7375 30.59C40.1075 31.92 39.1975 33.11 38.0075 33.95L37.9375 34.02C38.2875 34.23 38.7075 34.3 39.1275 34.37Z" fill="black"/>
<path d="M56.1421 8.19006C53.3421 8.19006 50.4721 7.56006 47.6721 6.23006C47.0421 5.95006 46.7621 5.18006 47.0421 4.55006C47.3221 3.92006 48.0921 3.64006 48.7221 3.92006C53.6921 6.30006 58.5221 6.30006 63.5621 3.99006C64.1921 3.71006 64.8921 3.99006 65.2421 4.62006C65.5221 5.25006 65.2421 5.95006 64.6121 6.30006C61.8121 7.49006 58.9421 8.19006 56.1421 8.19006Z" fill="#212121"/>
<path d="M56.141 10.5001C52.921 10.5001 49.701 9.73009 46.551 8.26009C45.921 7.98009 45.641 7.21009 45.921 6.58009C46.201 5.95009 46.971 5.67009 47.601 5.95009C53.341 8.68009 58.941 8.68009 64.751 5.95009C65.381 5.67009 66.081 5.95009 66.431 6.58009C66.711 7.21009 66.431 7.91009 65.801 8.26009C62.581 9.73009 59.361 10.5001 56.141 10.5001Z" fill="#424242"/>
<path d="M20.9291 85.68V88.69C20.9291 89.04 21.2091 89.25 21.4891 89.25H27.5091C27.8591 89.25 28.0691 88.97 28.0691 88.69V85.68H20.9291ZM16.5191 85.68V88.69C16.5191 89.04 16.2391 89.25 15.9591 89.25H9.93906C9.58906 89.25 9.37906 88.97 9.37906 88.69V85.68H16.5191ZM3.28906 38.78C3.28906 15.47 10.2191 4.19995 18.6891 4.19995C27.2291 4.19995 34.0891 15.47 34.0891 38.78H3.28906Z" fill="#212121"/>
<path d="M7.55797 59.43C7.55797 62.02 7.83797 64.19 6.36797 64.19C4.89797 64.19 2.16797 62.09 2.16797 59.43C2.16797 56.84 3.35797 54.74 4.89797 54.74C6.29797 54.67 7.55797 56.77 7.55797 59.43ZM29.888 59.43C29.888 62.02 29.608 64.19 31.078 64.19C32.548 64.19 35.278 62.09 35.278 59.43C35.278 56.84 34.088 54.74 32.548 54.74C31.078 54.67 29.888 56.77 29.888 59.43Z" fill="#ED9F74"/>
<path d="M30.0992 57.5399L30.7992 86.0299C26.7392 87.2199 22.7492 87.8499 18.7592 87.9199C14.7692 87.8499 10.7792 87.2199 6.71922 86.0299L7.41922 57.5399L0.699219 56.6999L2.93922 38.9199C3.28922 36.1199 5.03922 33.5999 7.62922 32.4099C8.74922 31.8499 10.0092 31.5699 11.2692 31.5699H26.1092C27.3692 31.5699 28.6292 31.8499 29.7492 32.4099C32.3392 33.6699 34.0892 36.1199 34.4392 38.9199L36.7492 56.6999L30.0992 57.5399Z" fill="#333333"/>
<path d="M6.23047 57.4L7.35047 41.37V57.54L6.23047 57.4Z" fill="#212121"/>
<path d="M31.2177 57.4L30.0977 41.37V57.54L31.2177 57.4Z" fill="#212121"/>
<path d="M26.6685 35.14C24.0085 38.43 21.3485 39.6199 18.6885 39.6199C16.0285 39.6199 13.3685 38.43 10.7085 35.14C6.2285 32.83 3.7085 30.1 6.8585 26.18C6.5785 23.45 7.0685 21.14 8.0485 19.25C8.3285 18.69 8.4685 18.13 8.3985 17.5C8.3985 17.08 8.3285 16.73 8.3285 16.31C8.3985 9.58995 13.0185 4.19995 18.6885 4.19995C24.3585 4.19995 28.9785 9.58995 28.9785 16.31C28.9785 16.66 28.9785 17.08 28.9085 17.5C28.8385 18.13 28.9785 18.69 29.2585 19.25C30.3085 21.21 30.7985 23.45 30.4485 26.18C33.6685 30.1 31.2185 32.83 26.6685 35.14Z" fill="#282828"/>
<path d="M26.8803 18.3399V20.3699C26.8803 24.7099 23.5903 28.4899 19.3203 28.7699C16.8703 28.9099 14.5603 27.9999 12.9503 26.3899C11.4803 24.9199 10.5703 22.8899 10.5703 20.5799V18.3399C10.5703 13.8599 14.2103 10.1499 18.7603 10.1499C23.2403 10.1499 26.8803 13.7899 26.8803 18.3399Z" fill="#FFB381"/>
<path d="M20.9292 17.3599C21.5592 17.0799 22.1892 17.0099 22.8892 17.0799C23.5192 17.1499 24.1492 17.3599 24.7092 17.7099C24.1492 17.4299 23.5192 17.2899 22.8892 17.3599C22.2592 17.3599 21.6992 17.5699 21.1392 17.8499C20.9992 17.9199 20.8592 17.8499 20.7892 17.7799C20.7192 17.5699 20.7892 17.4299 20.9292 17.3599ZM21.6292 18.6899C22.4692 18.1999 23.5192 18.2699 24.2892 18.7599C23.4492 18.4099 22.5392 18.5499 21.9792 19.1099C21.9092 19.1799 21.6992 19.1799 21.6292 19.1099C21.4192 19.0399 21.4892 18.8299 21.6292 18.6899C21.5592 18.7599 21.5592 18.7599 21.6292 18.6899Z" fill="#161616"/>
<path d="M16.3083 17.85C15.8183 17.57 15.1883 17.36 14.5583 17.36C13.9283 17.36 13.2983 17.43 12.7383 17.71C13.2983 17.36 13.8583 17.15 14.5583 17.08C15.1883 17.01 15.8883 17.15 16.5183 17.36C16.6583 17.43 16.7283 17.57 16.6583 17.71C16.5883 17.85 16.4483 17.92 16.3083 17.85ZM15.5383 19.11C14.9783 18.55 13.9983 18.41 13.2283 18.76C13.9283 18.27 15.0483 18.2 15.8883 18.69C16.0283 18.76 16.0283 18.9 15.9583 19.04C15.8183 19.18 15.6783 19.25 15.5383 19.11Z" fill="#161616"/>
<path d="M21.0692 23.6599C20.7892 24.6399 19.8092 25.3399 18.7592 25.3399C17.6392 25.3399 16.7292 24.6399 16.4492 23.6599C17.0092 24.3599 17.8492 24.7099 18.7592 24.7099C19.6692 24.7099 20.5092 24.2899 21.0692 23.6599Z" fill="#DB8E67"/>
<path d="M10.5706 18.34C10.1506 16.17 10.9206 13.79 12.4606 12.04C13.2306 11.13 14.2106 10.5 15.2606 10.01C16.3106 9.51999 17.5006 9.30999 18.6906 9.23999C19.8806 9.23999 21.0706 9.51999 22.1206 9.93999C23.1706 10.43 24.1506 11.13 24.9206 11.97C26.4606 13.72 27.2306 16.1 26.8106 18.27C26.4606 16.1 25.4106 14.28 23.9406 13.02C22.4706 11.76 20.5806 10.99 18.6906 11.06C16.8006 11.06 14.9106 11.76 13.4406 13.02C11.9706 14.35 10.9206 16.17 10.5706 18.34Z" fill="#353535"/>
<path d="M8.12109 26.0399C9.66109 27.0199 11.2711 27.8599 12.8811 28.5599C14.5611 29.1899 16.2411 29.6099 18.0611 29.7499C19.8111 29.8899 21.5611 29.7499 23.3811 29.3999C25.1311 29.0499 26.8811 28.5599 28.6311 27.9299C27.0911 28.9099 25.4111 29.6799 23.5911 30.1699C21.7711 30.6599 19.9511 30.8699 18.0611 30.7299C16.1711 30.5899 14.3511 30.0999 12.6711 29.2599C10.9211 28.4199 9.45109 27.2999 8.12109 26.0399ZM10.0811 31.6399C11.3411 32.4099 12.6711 33.1099 14.0011 33.5999C15.3311 34.0899 16.7311 34.4399 18.1311 34.5099C19.5311 34.6499 20.9311 34.5099 22.4011 34.2999C23.8011 34.0199 25.2011 33.6699 26.6711 33.1799C25.4111 34.0199 24.0811 34.6499 22.6111 35.0699C21.1411 35.4899 19.6011 35.6299 18.1311 35.5599C16.5911 35.4199 15.1211 34.9999 13.7211 34.3699C12.3211 33.5999 11.1311 32.6899 10.0811 31.6399Z" fill="#212121"/>
</svg>
