<svg width="21" height="21" viewBox="0 0 21 21" fill="none" xmlns="http://www.w3.org/2000/svg">
<path d="M10.5 0C4.71046 0 0 4.71046 0 10.5C0 12.2554 0.448 13.9892 1.29769 15.5378L0.0312308 19.9705C-0.0495384 20.2526 0.029077 20.5563 0.236923 20.7631C0.390923 20.9171 0.596615 21 0.807692 21C0.882 21 0.956308 20.9903 1.02954 20.9688L5.46215 19.7023C7.01077 20.5531 8.74462 21 10.5 21C16.2895 21 21 16.2895 21 10.5C21 4.71046 16.2895 0 10.5 0ZM11.1785 14.84C11.0277 14.9908 10.8123 15.0769 10.6077 15.0769C10.5 15.0769 10.3923 15.0554 10.2954 15.0123C10.1985 14.9692 10.1123 14.9154 10.0369 14.84C9.96154 14.7646 9.89692 14.6785 9.85385 14.5815C9.82154 14.4846 9.8 14.3769 9.8 14.2692C9.8 14.1615 9.82154 14.0538 9.85385 13.9569C9.89692 13.86 9.96154 13.7738 10.0369 13.6985C10.1123 13.6231 10.1985 13.5692 10.2954 13.5262C10.4892 13.44 10.7154 13.44 10.9092 13.5262C11.0169 13.5692 11.1031 13.6231 11.1785 13.6985C11.2538 13.7738 11.3077 13.86 11.3508 13.9569C11.3938 14.0538 11.4154 14.1615 11.4154 14.2692C11.4154 14.4846 11.3292 14.6892 11.1785 14.84ZM12.9285 10.0725C12.9005 10.1091 12.8692 10.1425 12.8369 10.1737L11.5737 11.3432C11.4682 11.4994 11.4132 11.6749 11.4132 11.8569C11.4132 12.3028 11.0514 12.6646 10.6055 12.6646C10.1597 12.6646 9.79785 12.3028 9.79785 11.8569C9.79785 11.2991 9.97985 10.7649 10.3255 10.3137C10.3535 10.2771 10.3848 10.2437 10.4182 10.2125L11.6814 9.04292C11.8515 8.79308 11.8925 8.49154 11.7955 8.20723C11.69 7.90246 11.4412 7.67739 11.1128 7.59231C10.7875 7.50615 10.5312 7.52554 10.3288 7.64615C9.99708 7.84539 9.82369 8.30523 9.786 8.46569C9.68154 8.89646 9.24969 9.17108 8.81785 9.06769C8.386 8.96862 8.11462 8.54323 8.21046 8.11031C8.23846 7.98431 8.50985 6.86539 9.48123 6.272C9.88508 6.02539 10.5689 5.782 11.522 6.02969C12.3717 6.25154 13.0448 6.86862 13.3248 7.68277C13.6037 8.49369 13.4562 9.38754 12.9306 10.0735L12.9285 10.0725Z" fill="url(#paint0_linear_481_1952)"/>
<defs>
<linearGradient id="paint0_linear_481_1952" x1="0.236923" y1="20.7631" x2="17.9211" y2="3.07892" gradientUnits="userSpaceOnUse">
<stop stop-color="#5433FF"/>
<stop offset="1" stop-color="#20BDFF"/>
</linearGradient>
</defs>
</svg>
