<svg width="11" height="6" viewBox="0 0 11 6" fill="none" xmlns="http://www.w3.org/2000/svg">
<path d="M5.02533 3.14201L1.62284 0.359668C1.44277 0.213296 1.20097 0.13327 0.950246 0.137067C0.699525 0.140865 0.460258 0.228177 0.284702 0.379935C0.196877 0.455684 0.127615 0.545273 0.0809108 0.643532C0.0342067 0.741791 0.0109851 0.846777 0.0125853 0.952432C0.0141855 1.05809 0.0405757 1.16232 0.090234 1.25912C0.139892 1.35592 0.211836 1.44337 0.301914 1.51642L4.37722 4.84894C4.46658 4.92262 4.57244 4.98057 4.68871 5.01945C4.80497 5.05834 4.92933 5.07738 5.05462 5.07548C5.1799 5.07358 5.30363 5.05078 5.41866 5.0084C5.53369 4.96602 5.63776 4.90488 5.72485 4.82853L9.74481 1.37341C9.83163 1.29729 9.89988 1.20755 9.94563 1.10932C9.99138 1.01109 10.0137 0.906316 10.0114 0.800997C10.0106 0.695655 9.98503 0.591603 9.93632 0.494806C9.88762 0.398009 9.81669 0.310372 9.7276 0.23692C9.54753 0.0905478 9.30572 0.0105216 9.055 0.0143189C8.80428 0.0181161 8.56501 0.105428 8.38946 0.257186L5.02533 3.14201Z" fill="white"/>
</svg>
