<svg width="20" height="22" viewBox="0 0 20 22" fill="none" xmlns="http://www.w3.org/2000/svg">
<path d="M10.0004 0.6875C9.27006 0.6875 8.59411 1.04 8.02786 1.59688C7.46255 2.15563 6.98631 2.92532 6.58694 3.85625C6.466 4.13844 6.35442 4.44125 6.24942 4.7525C5.93454 4.69973 5.61774 4.65907 5.29974 4.63062C4.29192 4.54437 3.38723 4.60251 2.62786 4.83876C1.87036 5.07501 1.24129 5.50719 0.898167 6.15125C0.555042 6.79625 0.546609 7.55749 0.773484 8.31968C1.00036 9.08093 1.45506 9.86656 2.08881 10.6559C2.18069 10.7712 2.28569 10.8866 2.38507 11.0028C2.28569 11.1172 2.18257 11.2316 2.08975 11.3459C1.45694 12.1353 1.00036 12.9209 0.773484 13.6831C0.546609 14.4444 0.55693 15.2065 0.900055 15.8506C1.24318 16.4956 1.8685 16.925 2.62694 17.1622C3.38538 17.3984 4.29192 17.4594 5.29974 17.374C5.61746 17.3446 5.93394 17.303 6.24848 17.2494C6.35442 17.5615 6.466 17.8634 6.58694 18.1465C6.98631 19.0775 7.46255 19.8463 8.02786 20.4041C8.59411 20.9628 9.27006 21.3134 10.0004 21.3134C10.7307 21.3134 11.4066 20.9628 11.9729 20.4041C12.5382 19.8463 13.0144 19.0775 13.4138 18.1465C13.5347 17.8644 13.6463 17.5625 13.7522 17.2512C14.0757 17.3047 14.3954 17.3478 14.701 17.374C15.7088 17.4594 16.6154 17.4003 17.3738 17.1631C18.1332 16.9269 18.7594 16.4947 19.1026 15.8506C19.4457 15.2065 19.4541 14.4444 19.2272 13.6831C19.0004 12.9209 18.5438 12.1372 17.911 11.3488C17.8182 11.2334 17.7141 11.1172 17.6138 11.0019C17.7141 10.8865 17.8182 10.7694 17.911 10.655C18.5438 9.86468 19.0004 9.08001 19.2272 8.31782C19.4541 7.55657 19.4457 6.79811 19.1026 6.15311C18.7594 5.50905 18.1322 5.07501 17.3738 4.83876C16.6154 4.60251 15.7088 4.5425 14.701 4.62782C14.3833 4.65657 14.0668 4.69752 13.7522 4.75061C13.6509 4.44796 13.538 4.14931 13.4138 3.85531C13.0144 2.92531 12.5382 2.15563 11.9729 1.59782C11.4066 1.04001 10.7307 0.688444 10.0004 0.688444V0.6875ZM10.0004 1.625C10.4354 1.625 10.8694 1.82563 11.3129 2.26438C11.7572 2.70219 12.1885 3.37436 12.5532 4.22561C12.6469 4.44499 12.7219 4.70655 12.8072 4.94842C11.9101 5.15561 10.9679 5.45657 10.0004 5.84844C9.08953 5.47652 8.15105 5.17622 7.19349 4.95031C7.27787 4.7075 7.35286 4.44499 7.44755 4.22561C7.81317 3.37436 8.24444 2.70219 8.68787 2.26438C9.13131 1.82563 9.56537 1.625 10.0004 1.625ZM4.5535 5.52875C4.76631 5.53063 4.98849 5.5428 5.21911 5.56248C5.45818 5.58217 5.72632 5.6375 5.98132 5.67781C5.76382 6.48406 5.60255 7.36344 5.49005 8.29344C4.56474 8.94032 3.72756 9.61343 3.03475 10.3044C2.96913 10.2266 2.88099 10.1459 2.81911 10.0681C2.23974 9.34623 1.85069 8.64968 1.67256 8.05249C1.49444 7.45436 1.52163 6.97623 1.726 6.59279C1.93038 6.20842 2.31098 5.91968 2.90723 5.73406C3.35348 5.59437 3.91224 5.52313 4.55255 5.52875H4.5535ZM15.4463 5.53061C16.0866 5.52405 16.6472 5.59624 17.0935 5.73686C17.6897 5.92155 18.0704 6.20936 18.2747 6.59279C18.4791 6.97717 18.5063 7.4553 18.3282 8.05249C18.1501 8.64968 17.7591 9.34623 17.1797 10.0681C17.1179 10.1459 17.0297 10.2266 16.9641 10.3044C16.2722 9.61343 15.436 8.93936 14.5107 8.29436C14.3982 7.36342 14.2388 6.48406 14.0213 5.67781C14.2744 5.63844 14.5416 5.58405 14.7798 5.56343C15.0011 5.54423 15.2232 5.53328 15.4454 5.53061H15.4463ZM6.9038 5.84186C7.5038 5.9778 8.13194 6.16719 8.77881 6.39312C8.45069 6.54875 8.12443 6.68842 7.79536 6.86373C7.35193 7.10092 6.9413 7.35686 6.5288 7.61092C6.63005 6.98654 6.7538 6.39311 6.9038 5.84186ZM13.0969 5.84186C13.2469 6.39311 13.3707 6.98561 13.4719 7.61092C13.0594 7.35686 12.6488 7.10092 12.2054 6.86373C11.8763 6.68842 11.5491 6.54875 11.221 6.39312C11.8351 6.17426 12.4621 5.9902 13.0969 5.84186ZM10.0004 6.85063C10.5826 7.09719 11.1722 7.37749 11.7629 7.69249C12.4285 8.04686 13.0472 8.42749 13.6351 8.8203C13.7054 9.52343 13.7504 10.2472 13.7504 11.0009C13.7504 11.7556 13.7054 12.4803 13.6351 13.1834C13.0482 13.5762 12.4294 13.9569 11.7638 14.3122C11.1732 14.6262 10.5826 14.9066 10.0004 15.1541C9.40075 14.8992 8.81267 14.618 8.23786 14.3112C7.57224 13.9569 6.95348 13.5762 6.36567 13.1834C6.2908 12.4583 6.25233 11.7299 6.25037 11.0009C6.25037 10.2481 6.29535 9.52438 6.36567 8.82219C6.97016 8.41461 7.59471 8.03756 8.23693 7.69249C8.82756 7.37749 9.41818 7.09719 10.0004 6.85063ZM14.626 9.53092C15.2616 10.0147 15.8316 10.5059 16.3247 11.0009C15.7927 11.5297 15.2251 12.0215 14.626 12.4728C14.656 11.989 14.6879 11.5053 14.6879 11.0009C14.6879 10.4975 14.656 10.0147 14.626 9.53092ZM5.37661 9.53281C5.34661 10.0156 5.31287 10.4984 5.31287 11.0009C5.31287 11.5044 5.34661 11.9881 5.37661 12.4719C4.77704 12.0214 4.20885 11.5305 3.67599 11.0028C4.2088 10.4747 4.77699 9.98359 5.37661 9.53281ZM10.0004 9.59469C9.22881 9.59469 8.59412 10.2303 8.59412 11.0009C8.59412 11.7725 9.22881 12.4072 10.0004 12.4072C10.7719 12.4072 11.4066 11.7725 11.4066 11.0009C11.4066 10.2303 10.7719 9.59469 10.0004 9.59469ZM10.0004 10.5322C10.2647 10.5322 10.4691 10.7366 10.4691 11.0009C10.4691 11.2653 10.2647 11.4697 10.0004 11.4697C9.93857 11.4706 9.87721 11.459 9.81994 11.4358C9.76267 11.4125 9.71065 11.3781 9.66695 11.3344C9.62324 11.2907 9.58874 11.2386 9.56549 11.1814C9.54225 11.1241 9.53074 11.0627 9.53162 11.0009C9.53162 10.7366 9.73599 10.5322 10.0004 10.5322ZM16.9641 11.6984C17.0297 11.7772 17.1179 11.8578 17.1797 11.9347C17.7591 12.6566 18.1501 13.3531 18.3282 13.9503C18.5063 14.5484 18.4791 15.0265 18.2747 15.41C18.0704 15.7944 17.6897 16.0831 17.0935 16.2687C16.4982 16.4553 15.7023 16.5172 14.7798 16.4394C14.5416 16.4197 14.2744 16.3644 14.0213 16.3259C14.2379 15.5197 14.3982 14.6394 14.5107 13.7094C15.4351 13.0644 16.2732 12.3894 16.9641 11.6984ZM3.03475 11.7003C3.72663 12.3913 4.56663 13.0644 5.49194 13.7094C5.60444 14.6394 5.76382 15.5188 5.98132 16.3259C5.72632 16.3653 5.45818 16.4206 5.21911 16.4412C4.29661 16.52 3.5035 16.4553 2.90912 16.2687C2.31287 16.0831 1.93038 15.7944 1.726 15.41C1.52163 15.0265 1.49444 14.5494 1.67256 13.9512C1.85069 13.3531 2.23974 12.6584 2.81911 11.9366C2.88099 11.8587 2.96913 11.7791 3.03475 11.7003ZM6.5288 14.3928C6.9413 14.6459 7.35193 14.9028 7.79536 15.1391C8.12443 15.3144 8.45162 15.4541 8.77974 15.6097C8.13287 15.8356 7.50287 16.0278 6.90474 16.1628C6.74831 15.5798 6.62283 14.989 6.5288 14.3928ZM13.4719 14.3928C13.3707 15.0172 13.2469 15.6097 13.0969 16.1609C12.4621 16.0126 11.8361 15.8285 11.2219 15.6097C11.5501 15.4541 11.8763 15.3144 12.2054 15.1391C12.6488 14.9028 13.0594 14.6469 13.4719 14.3928ZM10.0004 16.1553C10.9669 16.5462 11.9101 16.8472 12.8072 17.0553C12.7229 17.2962 12.6469 17.5588 12.5532 17.7772C12.1876 18.6294 11.7563 19.3006 11.3129 19.7394C10.8694 20.1772 10.4354 20.3769 10.0004 20.3769C9.56537 20.3769 9.13131 20.1772 8.68787 19.7394C8.2435 19.3006 7.81224 18.6294 7.44755 17.7781C7.3538 17.5587 7.2788 17.2963 7.19349 17.0544C8.09068 16.8481 9.03287 16.5453 10.0004 16.1553Z" fill="#E44700"/>
</svg>
