<svg width="20" height="20" viewBox="0 0 20 20" fill="none" xmlns="http://www.w3.org/2000/svg">
<path d="M10.0003 1.66797C5.41699 1.66797 1.66699 5.41797 1.66699 10.0013C1.66699 14.5846 5.41699 18.3346 10.0003 18.3346C14.5837 18.3346 18.3337 14.5846 18.3337 10.0013C18.3337 5.41797 14.5837 1.66797 10.0003 1.66797ZM10.0003 14.168C9.50033 14.168 9.16699 13.8346 9.16699 13.3346C9.16699 12.8346 9.50033 12.5013 10.0003 12.5013C10.5003 12.5013 10.8337 12.8346 10.8337 13.3346C10.8337 13.8346 10.5003 14.168 10.0003 14.168ZM10.8337 10.0013C10.8337 10.5013 10.5003 10.8346 10.0003 10.8346C9.50033 10.8346 9.16699 10.5013 9.16699 10.0013V6.66797C9.16699 6.16797 9.50033 5.83464 10.0003 5.83464C10.5003 5.83464 10.8337 6.16797 10.8337 6.66797V10.0013Z" fill="#1B3D6F"/>
</svg>
