<svg width="28" height="28" viewBox="0 0 28 28" fill="none" xmlns="http://www.w3.org/2000/svg">
<circle cx="14" cy="14" r="14" fill="#1B3D6F"/>
<path d="M13.3204 13.4769L16.7207 9.78095C16.8996 9.58533 17 9.32072 17 9.04489C17 8.76907 16.8996 8.50445 16.7207 8.30883C16.6314 8.21097 16.5252 8.1333 16.4081 8.0803C16.2911 8.02729 16.1655 8 16.0387 8C15.9119 8 15.7864 8.02729 15.6693 8.0803C15.5523 8.1333 15.446 8.21097 15.3567 8.30883L11.2841 12.7356C11.1941 12.8327 11.1226 12.9482 11.0739 13.0754C11.0251 13.2026 11 13.3391 11 13.4769C11 13.6147 11.0251 13.7512 11.0739 13.8784C11.1226 14.0057 11.1941 14.1211 11.2841 14.2182L15.3567 18.6972C15.4465 18.794 15.5529 18.8705 15.67 18.9225C15.787 18.9744 15.9123 19.0008 16.0387 19C16.1651 19.0008 16.2904 18.9744 16.4075 18.9225C16.5245 18.8705 16.6309 18.794 16.7207 18.6972C16.8996 18.5016 17 18.237 17 17.9611C17 17.6853 16.8996 17.4207 16.7207 17.2251L13.3204 13.4769Z" fill="white"/>
</svg>
