<svg width="28" height="28" viewBox="0 0 28 28" fill="none" xmlns="http://www.w3.org/2000/svg">
<path d="M25.9208 6.93359H1.77344V23.587H25.9208V6.93359Z" fill="#007579"/>
<path d="M13.8478 23.5844C13.8478 23.1427 13.6724 22.7191 13.3601 22.4068C13.0477 22.0945 12.6242 21.919 12.1825 21.919H3.43945V5.26562H8.01913V20.2537H10.5171C11.4005 20.2537 12.2477 20.6046 12.8723 21.2292C13.4969 21.8538 13.8478 22.701 13.8478 23.5844Z" fill="#FF6243"/>
<path d="M24.256 5.26562V21.919H15.513C15.0713 21.919 14.6477 22.0945 14.3354 22.4068C14.0231 22.7191 13.8477 23.1427 13.8477 23.5844V6.93096C13.8477 6.48929 14.0231 6.0657 14.3354 5.75339C14.6477 5.44108 15.0713 5.26563 15.513 5.26562H24.256Z" fill="#FFA733"/>
<path d="M13.8463 6.93224V23.5856C13.8463 22.7023 13.4954 21.8551 12.8707 21.2305C12.2461 20.6059 11.3989 20.2549 10.5156 20.2549H8.01758V3.60156H10.5156C11.3989 3.60156 12.2461 3.95247 12.8707 4.5771C13.4954 5.20172 13.8463 6.04889 13.8463 6.93224Z" fill="#FFDAAA"/>
<path d="M7.60152 21.9219V25.2526L6.35252 24.0035L5.10352 25.2526V21.9219H7.60152Z" fill="#006DF0"/>
<path d="M22.5898 21.9219H20.0918V25.2526H22.5898V21.9219Z" fill="#46F8FF"/>
<path d="M22.5911 5.26562V11.5106L20.5094 9.84531L18.4277 11.5106V5.26562H22.5911Z" fill="#FFDA44"/>
<path d="M22.5898 21.9219H20.0918V22.3382H22.5898V21.9219Z" fill="#00D7DF"/>
<path d="M7.60152 21.9219H5.10352V22.3382H7.60152V21.9219Z" fill="#005ECE"/>
</svg>
