<svg width="28" height="28" viewBox="0 0 28 28" fill="none" xmlns="http://www.w3.org/2000/svg">
<path d="M8.62344 24.747C6.87344 24.747 5.11797 24.747 3.36797 24.747C2.96875 24.747 2.56953 24.747 2.17031 24.747C1.90781 24.747 1.62891 24.7798 1.43203 24.561C1.20781 24.304 1.29531 23.7735 1.29531 23.4563C1.29531 21.6571 1.29531 19.8579 1.29531 18.0587C1.29531 15.8056 1.29531 13.5579 1.29531 11.3048C1.29531 10.2001 1.24063 9.07899 1.29531 7.97431C1.31719 7.56962 1.63438 7.42196 1.98984 7.42196C2.32344 7.42196 2.6625 7.42196 2.99609 7.42196C4.10625 7.42196 5.21641 7.42196 6.32109 7.42196C7.06484 7.42196 7.81406 7.40556 8.55781 7.42196C9.15938 7.4329 9.16484 7.94149 9.16484 8.38446C9.16484 10.0196 9.16484 11.6548 9.16484 13.2899C9.16484 15.5759 9.16484 17.8618 9.16484 20.1477C9.16484 21.4821 9.17578 22.8165 9.16484 24.1509C9.15938 24.4681 8.96797 24.7306 8.62344 24.747C8.09844 24.7688 8.09297 25.5892 8.62344 25.5673C9.38359 25.5399 9.96328 24.9602 9.98516 24.1946C9.99063 24.0743 9.98516 23.954 9.98516 23.8337C9.98516 23.172 9.98516 22.5048 9.98516 21.8431C9.98516 19.5899 9.98516 17.3368 9.98516 15.0891C9.98516 13.0876 9.98516 11.086 9.98516 9.07899C9.98516 8.71806 9.99609 8.35165 9.98516 7.99071C9.96328 7.21415 9.36719 6.61806 8.59062 6.59618C8.37734 6.59071 8.15859 6.59618 7.94531 6.59618C5.96016 6.59618 3.98047 6.59618 1.99531 6.59618C1.09297 6.59618 0.480469 7.20321 0.480469 8.10556C0.480469 8.64149 0.480469 9.1829 0.480469 9.71884C0.480469 11.8735 0.480469 14.0337 0.480469 16.1884C0.480469 18.3212 0.480469 20.4485 0.480469 22.5813C0.480469 23.0845 0.480469 23.5876 0.480469 24.0907C0.480469 24.479 0.584375 24.8454 0.857812 25.1352C1.18594 25.4798 1.6125 25.5618 2.06094 25.5618C4.06797 25.5618 6.075 25.5618 8.08203 25.5618C8.2625 25.5618 8.44844 25.5618 8.62891 25.5618C9.14844 25.5673 9.14844 24.747 8.62344 24.747Z" fill="#E44700"/>
<path d="M13.8915 24.7445C13.0329 24.7445 12.1743 24.7445 11.3102 24.7445C11.0259 24.7445 10.6102 24.8156 10.3368 24.7062C10.0743 24.6023 9.98681 24.3617 9.98134 24.1047C9.97587 22.9016 9.98134 21.6984 9.98134 20.4953C9.98134 18.3023 9.98134 16.1148 9.98134 13.9219C9.98134 11.8055 9.98134 9.68359 9.98134 7.56719C9.98134 6.87266 9.98134 6.17812 9.98134 5.48906C9.98134 5.22656 9.96493 4.95859 9.98134 4.69609C10.0141 4.22031 10.4024 4.16016 10.7852 4.16016C11.2884 4.16016 11.7915 4.16016 12.2946 4.16016C12.7649 4.16016 13.2298 4.16016 13.7001 4.16016C14.072 4.16016 14.4056 4.30781 14.4274 4.73437C14.4712 5.74062 14.4274 6.75781 14.4274 7.76406C14.4274 9.89687 14.4274 12.0352 14.4274 14.168C14.4274 16.35 14.4274 18.532 14.4274 20.7141C14.4274 21.8625 14.4384 23.0109 14.4274 24.1594C14.4274 24.4711 14.2251 24.7336 13.8915 24.7445C13.3665 24.7664 13.361 25.5867 13.8915 25.5648C14.6516 25.5375 15.2313 24.9578 15.2532 24.1977C15.2587 24.0992 15.2532 23.9953 15.2532 23.8969C15.2532 23.3391 15.2532 22.7758 15.2532 22.218C15.2532 20.1508 15.2532 18.0891 15.2532 16.0219C15.2532 13.6977 15.2532 11.3789 15.2532 9.05469C15.2532 7.67109 15.2532 6.29297 15.2532 4.90938C15.2532 4.75078 15.2532 4.59766 15.2204 4.43359C15.0782 3.72813 14.4329 3.33984 13.7548 3.33984C12.7595 3.33984 11.7696 3.33984 10.7743 3.33984C10.2165 3.33984 9.68602 3.47109 9.36884 3.97969C9.21024 4.23125 9.16649 4.51563 9.16649 4.80547C9.16649 5.26484 9.16649 5.71875 9.16649 6.17812C9.16649 8.13594 9.16649 10.0992 9.16649 12.057C9.16649 14.4141 9.16649 16.7711 9.16649 19.1281C9.16649 20.6812 9.16649 22.2398 9.16649 23.793C9.16649 23.9187 9.16102 24.0391 9.16649 24.1648C9.1829 24.75 9.51102 25.275 10.0743 25.4828C10.4298 25.6141 10.8563 25.5648 11.2282 25.5648C11.8024 25.5648 12.3821 25.5648 12.9563 25.5648C13.2681 25.5648 13.5852 25.5648 13.897 25.5648C14.4165 25.5648 14.4165 24.7445 13.8915 24.7445Z" fill="#E44700"/>
<path d="M17.6149 24.7455C17.1993 24.7455 16.7782 24.7455 16.3626 24.7455C15.9688 24.7455 15.4056 24.8385 15.2688 24.3408C15.2032 24.0947 15.247 23.7885 15.247 23.5424C15.247 22.0275 15.247 20.5072 15.247 18.9924C15.247 16.783 15.247 14.5791 15.247 12.3697C15.247 10.3791 15.247 8.39392 15.247 6.4033C15.247 5.5447 15.2032 4.6697 15.247 3.81111C15.2743 3.23689 15.8102 3.25877 16.2368 3.25877C16.6852 3.25877 17.1337 3.24236 17.5821 3.25877C18.1563 3.27517 18.1509 3.76736 18.1509 4.18299C18.1509 5.55564 18.1509 6.93377 18.1509 8.30642C18.1509 10.472 18.1509 12.6322 18.1509 14.7978C18.1509 16.865 18.1509 18.9322 18.1509 20.9994C18.1509 22.0549 18.1618 23.1049 18.1509 24.1603C18.1509 24.4775 17.9485 24.7345 17.6149 24.7455C17.0899 24.7674 17.0845 25.5877 17.6149 25.5658C18.3751 25.5385 18.9493 24.9642 18.9766 24.1986C18.9766 24.1111 18.9766 24.0236 18.9766 23.9361C18.9766 23.422 18.9766 22.9025 18.9766 22.3885C18.9766 20.4525 18.9766 18.5111 18.9766 16.5752C18.9766 14.2674 18.9766 11.9595 18.9766 9.65174C18.9766 7.98377 18.9766 6.3158 18.9766 4.64783C18.9766 4.36892 18.9876 4.09002 18.9766 3.81111C18.9548 3.04002 18.3642 2.46033 17.5931 2.43845C17.1446 2.42752 16.6907 2.43845 16.2368 2.43845C15.6352 2.43845 15.061 2.48221 14.6782 3.02908C14.4977 3.29158 14.4321 3.59236 14.4321 3.90408C14.4321 4.31424 14.4321 4.72439 14.4321 5.13455C14.4321 6.95564 14.4321 8.77674 14.4321 10.5978C14.4321 12.9111 14.4321 15.2299 14.4321 17.5431C14.4321 19.3478 14.4321 21.1525 14.4321 22.9627C14.4321 23.351 14.4266 23.7392 14.4321 24.1275C14.4321 24.5049 14.547 24.8658 14.8095 25.1447C15.236 25.5986 15.7993 25.5713 16.3681 25.5713C16.7837 25.5713 17.2048 25.5713 17.6204 25.5713C18.1399 25.5658 18.1399 24.7455 17.6149 24.7455Z" fill="#E44700"/>
<path d="M22.0059 24.7445C21.2567 24.7445 20.5075 24.7445 19.7528 24.7445C19.3755 24.7445 18.9927 24.657 18.9708 24.1921C18.9653 24.132 18.9708 24.0773 18.9708 24.0171C18.9708 22.8742 18.9708 21.7312 18.9708 20.5827C18.9708 18.6413 18.9708 16.7054 18.9708 14.764C18.9708 12.9484 18.9708 11.1327 18.9708 9.31712C18.9708 8.73197 18.9708 8.14681 18.9708 7.56165C18.9708 7.3265 18.9434 7.07494 18.9763 6.84525C19.0364 6.40228 19.4466 6.36947 19.7966 6.36947C20.2614 6.36947 20.7263 6.36947 21.1856 6.36947C21.6942 6.36947 22.5364 6.22181 22.5474 6.97103C22.5583 7.96634 22.5474 8.96166 22.5474 9.95697C22.5474 11.8437 22.5474 13.7304 22.5474 15.6171C22.5474 17.5038 22.5474 19.3851 22.5474 21.2718C22.5474 22.2343 22.5583 23.2023 22.5474 24.1648C22.5419 24.4874 22.3341 24.7335 22.0059 24.7445C21.4809 24.7663 21.4755 25.5867 22.0059 25.5648C22.7606 25.5374 23.3403 24.9632 23.3677 24.2031C23.3677 24.132 23.3677 24.0554 23.3677 23.9843C23.3677 23.5195 23.3677 23.0546 23.3677 22.5898C23.3677 20.8124 23.3677 19.0296 23.3677 17.2523C23.3677 15.2015 23.3677 13.1452 23.3677 11.0945C23.3677 9.7929 23.3677 8.49681 23.3677 7.19525C23.3677 7.10775 23.3677 7.02025 23.3677 6.93275C23.3513 6.30931 22.9466 5.74603 22.3231 5.5929C21.9786 5.51087 21.5849 5.55462 21.2349 5.55462C20.7481 5.55462 20.2614 5.55462 19.7747 5.55462C19.2606 5.55462 18.7849 5.64759 18.4458 6.07415C18.2325 6.34212 18.1505 6.65931 18.145 6.9929C18.1395 7.36478 18.145 7.74212 18.145 8.114C18.145 9.78744 18.145 11.4554 18.145 13.1288C18.145 15.2015 18.145 17.2742 18.145 19.3468C18.145 20.7906 18.145 22.2343 18.145 23.6781C18.145 24.1046 18.1122 24.5312 18.3528 24.914C18.6536 25.4007 19.1622 25.5648 19.7036 25.5648C20.163 25.5648 20.6224 25.5648 21.0817 25.5648C21.388 25.5648 21.6942 25.5648 22.0005 25.5648C22.5364 25.5648 22.5364 24.7445 22.0059 24.7445Z" fill="#E44700"/>
<path d="M26.1516 24.7461C25.5774 24.7461 24.9977 24.7461 24.4235 24.7461C23.9751 24.7461 23.3845 24.7898 23.3681 24.1719C23.3462 23.4391 23.3681 22.7008 23.3681 21.968C23.3681 19.1461 23.3681 16.3188 23.3681 13.4969C23.3681 13.0594 23.3681 12.6219 23.3681 12.1844C23.3681 11.9656 23.3298 11.6813 23.4446 11.4844C23.5923 11.2273 23.8493 11.2109 24.1118 11.2109C24.4399 11.2109 24.7681 11.2109 25.0962 11.2109C25.4079 11.2109 25.7196 11.2109 26.0313 11.2109C26.3157 11.2109 26.5782 11.2875 26.6821 11.5828C26.7477 11.7742 26.7149 12.0312 26.7149 12.2281C26.7149 12.6766 26.7149 13.125 26.7149 13.5789C26.7149 14.9625 26.7149 16.3516 26.7149 17.7352C26.7149 19.1734 26.7149 20.6172 26.7149 22.0555C26.7149 22.7609 26.7423 23.4773 26.7149 24.1828C26.6931 24.4945 26.4743 24.7352 26.1516 24.7461C25.6266 24.768 25.6212 25.5883 26.1516 25.5664C26.9774 25.5336 27.5243 24.8937 27.5298 24.0898C27.5298 23.7508 27.5298 23.4117 27.5298 23.0727C27.5298 21.7109 27.5298 20.3438 27.5298 18.982C27.5298 16.5867 27.5626 14.1914 27.5298 11.8016C27.5188 10.9758 26.8899 10.3906 26.0751 10.3852C25.4188 10.3797 24.7681 10.3852 24.1118 10.3852C23.7345 10.3852 23.3845 10.4398 23.0727 10.6859C22.7337 10.9539 22.5641 11.3477 22.5477 11.7797C22.5423 12.0258 22.5477 12.2719 22.5477 12.5125C22.5477 15.3727 22.5477 18.2328 22.5477 21.093C22.5477 22.0719 22.5477 23.0562 22.5477 24.0352C22.5477 24.6969 22.8759 25.3258 23.5595 25.5117C23.822 25.5828 24.1063 25.5609 24.3798 25.5609C24.7571 25.5609 25.1345 25.5609 25.5118 25.5609C25.7251 25.5609 25.9384 25.5609 26.1516 25.5609C26.6821 25.5664 26.6821 24.7461 26.1516 24.7461ZM6.44774 17.0297C5.74227 17.0297 5.03134 17.0297 4.32587 17.0297C3.99227 17.0297 3.64227 17.0516 3.46181 16.7016C3.36884 16.5266 3.39071 16.3297 3.39071 16.1383C3.39071 14.4977 3.39071 12.8625 3.39071 11.2219C3.39071 10.8062 3.24852 10.0297 3.63681 9.74531C3.87196 9.57031 4.2329 9.625 4.51181 9.625C4.95477 9.625 5.39774 9.625 5.84618 9.625C6.10868 9.625 6.45868 9.57031 6.70477 9.67969C6.99462 9.81094 7.06024 10.0898 7.06024 10.3742C7.06024 11.0469 7.06024 11.7141 7.06024 12.3867C7.06024 13.3 7.06024 14.2133 7.06024 15.1211C7.06024 15.4438 7.06024 15.7664 7.06024 16.0891C7.06024 16.2477 7.08212 16.4445 7.0329 16.5977C6.95087 16.8602 6.71571 17.0187 6.44774 17.0297C5.92274 17.0516 5.91727 17.8719 6.44774 17.85C7.24618 17.8227 7.85868 17.2156 7.88056 16.4117C7.88602 16.2477 7.88056 16.0836 7.88056 15.9195C7.88056 15.0172 7.88056 14.1203 7.88056 13.218C7.88056 12.3539 7.88056 11.4953 7.88056 10.6312C7.88056 10.4125 7.89149 10.1937 7.85321 9.98047C7.7329 9.28594 7.10946 8.82109 6.42587 8.80469C5.64384 8.78281 4.85634 8.79922 4.07431 8.80469C3.45634 8.81016 2.90399 9.12734 2.66884 9.71797C2.56493 9.98047 2.56493 10.2484 2.56493 10.5219C2.56493 12.2828 2.56493 14.0437 2.56493 15.7992C2.56493 15.9961 2.55946 16.1984 2.56493 16.3953C2.58134 17.0625 3.02977 17.675 3.70243 17.8117C4.04149 17.8773 4.4079 17.8445 4.74696 17.8445C5.22274 17.8445 5.69852 17.8445 6.17431 17.8445C6.26181 17.8445 6.35477 17.8445 6.44227 17.8445C6.97821 17.85 6.97821 17.0297 6.44774 17.0297ZM3.19931 20.4312C4.55009 20.4312 5.90087 20.4312 7.25712 20.4312C7.78759 20.4312 7.78759 19.6109 7.25712 19.6109C5.90634 19.6109 4.55556 19.6109 3.19931 19.6109C2.66884 19.6109 2.66884 20.4312 3.19931 20.4312ZM3.19931 21.8914C4.55009 21.8914 5.90087 21.8914 7.25712 21.8914C7.78759 21.8914 7.78759 21.0711 7.25712 21.0711C5.90634 21.0711 4.55556 21.0711 3.19931 21.0711C2.66884 21.0711 2.66884 21.8914 3.19931 21.8914ZM3.19931 23.3516C4.55009 23.3516 5.90087 23.3516 7.25712 23.3516C7.78759 23.3516 7.78759 22.5312 7.25712 22.5312C5.90634 22.5312 4.55556 22.5312 3.19931 22.5312C2.66884 22.5312 2.66884 23.3516 3.19931 23.3516ZM10.954 12.2773C11.7852 12.2773 12.622 12.2773 13.4532 12.2773C13.9837 12.2773 13.9837 11.457 13.4532 11.457C12.622 11.457 11.7852 11.457 10.954 11.457C10.429 11.457 10.4235 12.2773 10.954 12.2773ZM10.954 13.7375C11.7852 13.7375 12.622 13.7375 13.4532 13.7375C13.9837 13.7375 13.9837 12.9172 13.4532 12.9172C12.622 12.9172 11.7852 12.9172 10.954 12.9172C10.429 12.9172 10.4235 13.7375 10.954 13.7375ZM10.954 15.1977C11.7852 15.1977 12.622 15.1977 13.4532 15.1977C13.9837 15.1977 13.9837 14.3773 13.4532 14.3773C12.622 14.3773 11.7852 14.3773 10.954 14.3773C10.429 14.3773 10.4235 15.1977 10.954 15.1977ZM16.2915 4.38594C16.2915 6.90703 16.2915 9.42812 16.2915 11.9437C16.2915 12.2992 16.2915 12.6547 16.2915 13.0047C16.2915 13.5352 17.1118 13.5352 17.1118 13.0047C17.1118 10.4836 17.1118 7.9625 17.1118 5.44688C17.1118 5.09141 17.1118 4.73594 17.1118 4.38594C17.1118 3.86094 16.2915 3.86094 16.2915 4.38594ZM16.2915 14.7875C16.2915 15.5586 16.2915 16.3297 16.2915 17.1008C16.2915 17.6313 17.1118 17.6313 17.1118 17.1008C17.1118 16.3297 17.1118 15.5586 17.1118 14.7875C17.1118 14.2625 16.2915 14.257 16.2915 14.7875ZM16.2915 19.6219C16.2915 20.65 16.2915 21.6781 16.2915 22.7063C16.2915 23.2367 17.1118 23.2367 17.1118 22.7063C17.1118 21.6781 17.1118 20.65 17.1118 19.6219C17.1118 19.0914 16.2915 19.0914 16.2915 19.6219ZM22.9579 8.03906C21.4923 8.03906 20.0266 8.03906 18.561 8.03906C18.0306 8.03906 18.0306 8.85938 18.561 8.85938C20.0266 8.85938 21.4923 8.85938 22.9579 8.85938C23.4884 8.85938 23.4884 8.03906 22.9579 8.03906Z" fill="#E44700"/>
<path d="M22.9588 9.91406C21.4932 9.91406 20.0275 9.91406 18.5619 9.91406C18.0314 9.91406 18.0314 10.7344 18.5619 10.7344C20.0275 10.7344 21.4932 10.7344 22.9588 10.7344C23.4893 10.7344 23.4893 9.91406 22.9588 9.91406ZM20.0385 18.9703C20.5197 18.9703 21.001 18.9703 21.4822 18.9703C22.0127 18.9703 22.0127 18.15 21.4822 18.15C21.001 18.15 20.5197 18.15 20.0385 18.15C19.5135 18.15 19.5135 18.9703 20.0385 18.9703Z" fill="#E44700"/>
<path d="M20.0383 20.4297C20.5195 20.4297 21.0008 20.4297 21.482 20.4297C22.0125 20.4297 22.0125 19.6094 21.482 19.6094C21.0008 19.6094 20.5195 19.6094 20.0383 19.6094C19.5133 19.6094 19.5133 20.4297 20.0383 20.4297Z" fill="#E44700"/>
<path d="M20.0383 21.8906C20.5195 21.8906 21.0008 21.8906 21.482 21.8906C22.0125 21.8906 22.0125 21.0703 21.482 21.0703C21.0008 21.0703 20.5195 21.0703 20.0383 21.0703C19.5133 21.0703 19.5133 21.8906 20.0383 21.8906Z" fill="#E44700"/>
<path d="M27.1201 12.1641C25.7311 12.1641 24.3475 12.1641 22.9584 12.1641C22.4279 12.1641 22.4279 12.9844 22.9584 12.9844C24.3475 12.9844 25.7311 12.9844 27.1201 12.9844C27.6451 12.9844 27.6451 12.1641 27.1201 12.1641ZM27.1201 14.0453C25.7311 14.0453 24.3475 14.0453 22.9584 14.0453C22.4279 14.0453 22.4279 14.8656 22.9584 14.8656C24.3475 14.8656 25.7311 14.8656 27.1201 14.8656C27.6451 14.8656 27.6451 14.0453 27.1201 14.0453Z" fill="#E44700"/>
<path d="M27.1201 19.6094C25.7311 19.6094 24.3475 19.6094 22.9584 19.6094C22.4279 19.6094 22.4279 20.4297 22.9584 20.4297C24.3475 20.4297 25.7311 20.4297 27.1201 20.4297C27.6451 20.4297 27.6451 19.6094 27.1201 19.6094ZM27.1201 21.4906C25.7311 21.4906 24.3475 21.4906 22.9584 21.4906C22.4279 21.4906 22.4279 22.3109 22.9584 22.3109C24.3475 22.3109 25.7311 22.3109 27.1201 22.3109C27.6451 22.3109 27.6451 21.4906 27.1201 21.4906Z" fill="#E44700"/>
</svg>
