<svg width="28" height="28" viewBox="0 0 28 28" fill="none" xmlns="http://www.w3.org/2000/svg">
<path d="M21 11.4624C21.0019 10.3078 20.7182 9.17067 20.1741 8.1523C19.63 7.13393 18.8424 6.26596 17.8816 5.62571C16.9208 4.98547 15.8165 4.59283 14.6671 4.48279C13.5178 4.37275 12.3591 4.54872 11.2942 4.99502C10.2294 5.44132 9.29143 6.1441 8.564 7.04073C7.83656 7.93736 7.34221 9.00001 7.125 10.134C6.90778 11.268 6.97443 12.4381 7.31902 13.5401C7.66361 14.6421 8.27544 15.6417 9.09999 16.4499C9.53173 16.855 9.87802 17.3424 10.1185 17.8834C10.3589 18.4244 10.4886 19.008 10.5 19.5999V20.1249H17.5V19.6612C17.5121 19.0554 17.6445 18.458 17.8893 17.9038C18.1341 17.3495 18.4866 16.8494 18.9262 16.4324C19.5829 15.7819 20.1043 15.0079 20.4602 14.1548C20.8161 13.3018 20.9996 12.3867 21 11.4624Z" stroke="#638E36" stroke-width="2" stroke-linecap="round" stroke-linejoin="round"/>
<path d="M10.5 22.75H17.5" stroke="#638E36" stroke-width="2" stroke-linecap="round" stroke-linejoin="round"/>
<path d="M11.375 23.625H16.625" stroke="#638E36" stroke-width="2" stroke-linecap="round" stroke-linejoin="round"/>
<path d="M14 24.5V23.625" stroke="#638E36" stroke-width="2" stroke-linecap="round" stroke-linejoin="round"/>
<path d="M14 10.8674L13.125 13.3437H14.875L14 15.8987" stroke="#638E36" stroke-linecap="round" stroke-linejoin="round"/>
</svg>
