<svg width="24" height="23" viewBox="0 0 24 23" fill="none" xmlns="http://www.w3.org/2000/svg">
<path d="M4.5 4.3125H18C18.831 4.3125 19.5 4.95362 19.5 5.75V9.34375H3V5.75C3 4.95362 3.669 4.3125 4.5 4.3125Z" fill="url(#paint0_linear_11_3024)"/>
<path d="M3 8.625V18.6875C3 19.4839 3.669 20.125 4.5 20.125H18C18.831 20.125 19.5 19.4839 19.5 18.6875V8.625H3Z" fill="url(#paint1_linear_11_3024)"/>
<path d="M7.5 3.59375C7.5 3.1968 7.16421 2.875 6.75 2.875C6.33579 2.875 6 3.1968 6 3.59375V6.46875C6 6.8657 6.33579 7.1875 6.75 7.1875C7.16421 7.1875 7.5 6.8657 7.5 6.46875V3.59375Z" fill="#34485C"/>
<path d="M16.5 3.59375C16.5 3.1968 16.1642 2.875 15.75 2.875C15.3358 2.875 15 3.1968 15 3.59375V6.46875C15 6.8657 15.3358 7.1875 15.75 7.1875C16.1642 7.1875 16.5 6.8657 16.5 6.46875V3.59375Z" fill="#34485C"/>
<path d="M16.5 10.0625H15V11.5H16.5V10.0625Z" fill="#A5B7BF"/>
<path d="M13.5 10.0625H12V11.5H13.5V10.0625Z" fill="#A5B7BF"/>
<path d="M10.5 10.0625H9V11.5H10.5V10.0625Z" fill="#A5B7BF"/>
<path d="M7.5 10.0625H6V11.5H7.5V10.0625Z" fill="url(#paint2_linear_11_3024)"/>
<path d="M16.5 12.9375H15V14.375H16.5V12.9375Z" fill="#A5B7BF"/>
<path d="M13.5 12.9375H12V14.375H13.5V12.9375Z" fill="#A5B7BF"/>
<path d="M10.5 12.9375H9V14.375H10.5V12.9375Z" fill="#A5B7BF"/>
<path d="M7.5 12.9375H6V14.375H7.5V12.9375Z" fill="#A5B7BF"/>
<path d="M13.5 15.8125H12V17.25H13.5V15.8125Z" fill="#A5B7BF"/>
<path d="M10.5 15.8125H9V17.25H10.5V15.8125Z" fill="#A5B7BF"/>
<path d="M7.5 15.8125H6V17.25H7.5V15.8125Z" fill="#A5B7BF"/>
<defs>
<linearGradient id="paint0_linear_11_3024" x1="3" y1="6.82812" x2="19.5" y2="6.82812" gradientUnits="userSpaceOnUse">
<stop stop-color="#FC6A28"/>
<stop offset="1" stop-color="#F94045"/>
</linearGradient>
<linearGradient id="paint1_linear_11_3024" x1="3" y1="14.375" x2="19.5" y2="14.375" gradientUnits="userSpaceOnUse">
<stop stop-color="#F3F3F3"/>
<stop offset="1" stop-color="#DFE3E4"/>
</linearGradient>
<linearGradient id="paint2_linear_11_3024" x1="6" y1="10.7812" x2="7.5" y2="10.7812" gradientUnits="userSpaceOnUse">
<stop stop-color="#A5B7BF"/>
<stop offset="1" stop-color="#A5B7BF"/>
</linearGradient>
</defs>
</svg>
