<svg width="20" height="20" viewBox="0 0 20 20" fill="none" xmlns="http://www.w3.org/2000/svg">
<path d="M16.7344 12.3716L19.2113 4.99856C19.2304 4.94072 19.2355 4.87917 19.2261 4.81899C19.2168 4.75881 19.1932 4.70172 19.1575 4.6524C19.122 4.60308 19.0752 4.56301 19.021 4.53557C18.9667 4.50813 18.9067 4.49411 18.846 4.49471H4.89981L4.40366 2.49087C4.22289 1.8524 3.63443 1.40625 2.97289 1.40625H1.15366C0.94212 1.40625 0.769043 1.57548 0.769043 1.79087C0.769043 2.0024 0.94212 2.17548 1.15366 2.17548H2.97289C3.29212 2.17548 3.57674 2.39087 3.6575 2.68702L6.73058 15.0639C6.36094 15.1772 6.0374 15.4061 5.80755 15.717C5.57769 16.0278 5.45365 16.4043 5.45366 16.7909C5.45366 17.7832 6.26135 18.5947 7.2575 18.5947C8.24981 18.5947 9.0575 17.7832 9.0575 16.7909C9.0575 16.4062 8.93827 16.0486 8.73443 15.7562H14.8421C14.6344 16.0486 14.5152 16.4062 14.5152 16.7909C14.5152 17.7832 15.3229 18.5947 16.3152 18.5947C17.3113 18.5947 18.119 17.7832 18.119 16.7909C18.119 15.7947 17.3113 14.987 16.3152 14.987C16.2998 14.987 16.2806 14.987 16.2652 14.9909C16.2575 14.987 16.2498 14.987 16.2421 14.987H7.50366L6.91904 12.637H16.369C16.5344 12.637 16.6806 12.5293 16.7344 12.3716Z" fill="#263238"/>
</svg>
