<svg width="104" height="104" viewBox="0 0 104 104" fill="none" xmlns="http://www.w3.org/2000/svg">
<g clip-path="url(#clip0_88_11844)">
<g clip-path="url(#clip1_88_11844)">
<path d="M81.1856 23.3438H71.8106C71.5028 23.3438 71.198 23.4044 70.9136 23.5222C70.6293 23.6399 70.3709 23.8126 70.1533 24.0302C69.7137 24.4698 69.4668 25.0659 69.4668 25.6875V30.7453C69.4597 31.2323 69.5994 31.7101 69.8678 32.1164C70.1362 32.5228 70.5208 32.8389 70.9715 33.0234C71.3964 33.1952 71.8637 33.2334 72.3109 33.1329C72.7581 33.0324 73.164 32.798 73.4746 32.4609L75.4574 30.375H77.5387L79.5215 32.4609C79.8317 32.7986 80.2377 33.0334 80.685 33.1339C81.1324 33.2344 81.5998 33.1959 82.0246 33.0234C82.4753 32.8389 82.8599 32.5228 83.1283 32.1164C83.3967 31.7101 83.5364 31.2323 83.5293 30.7453V25.6875C83.5293 25.0659 83.2824 24.4698 82.8428 24.0302C82.4033 23.5907 81.8072 23.3438 81.1856 23.3438ZM74.6231 27.5625H73.6856V28.5C73.6856 28.6243 73.6362 28.7435 73.5483 28.8315C73.4604 28.9194 73.3411 28.9688 73.2168 28.9688C73.0925 28.9688 72.9733 28.9194 72.8854 28.8315C72.7974 28.7435 72.7481 28.6243 72.7481 28.5V27.5625H71.8106C71.6862 27.5625 71.567 27.5131 71.4791 27.4252C71.3912 27.3373 71.3418 27.2181 71.3418 27.0938C71.3418 26.9694 71.3912 26.8502 71.4791 26.7623C71.567 26.6744 71.6862 26.625 71.8106 26.625H72.7481V25.6875C72.7481 25.5632 72.7974 25.444 72.8854 25.356C72.9733 25.2681 73.0925 25.2188 73.2168 25.2188C73.3411 25.2188 73.4604 25.2681 73.5483 25.356C73.6362 25.444 73.6856 25.5632 73.6856 25.6875V26.625H74.6231C74.7474 26.625 74.8666 26.6744 74.9545 26.7623C75.0424 26.8502 75.0918 26.9694 75.0918 27.0938C75.0918 27.2181 75.0424 27.3373 74.9545 27.4252C74.8666 27.5131 74.7474 27.5625 74.6231 27.5625ZM79.7793 28.9688C79.4085 28.9688 79.046 28.8588 78.7376 28.6528C78.4293 28.4467 78.189 28.1539 78.047 27.8113C77.9051 27.4687 77.868 27.0917 77.9403 26.728C78.0127 26.3642 78.1913 26.0301 78.4535 25.7679C78.7157 25.5057 79.0498 25.3271 79.4135 25.2548C79.7772 25.1824 80.1542 25.2196 80.4968 25.3615C80.8395 25.5034 81.1323 25.7437 81.3383 26.0521C81.5443 26.3604 81.6543 26.7229 81.6543 27.0938C81.6543 27.591 81.4568 28.0679 81.1051 28.4196C80.7535 28.7712 80.2766 28.9688 79.7793 28.9688ZM80.7168 27.0938C80.7168 27.2792 80.6618 27.4604 80.5588 27.6146C80.4558 27.7688 80.3094 27.8889 80.1381 27.9599C79.9668 28.0308 79.7783 28.0494 79.5964 28.0132C79.4146 27.9771 79.2475 27.8878 79.1164 27.7567C78.9853 27.6256 78.896 27.4585 78.8598 27.2766C78.8237 27.0948 78.8422 26.9063 78.9132 26.735C78.9841 26.5637 79.1043 26.4173 79.2585 26.3142C79.4126 26.2112 79.5939 26.1562 79.7793 26.1562C80.028 26.1562 80.2664 26.255 80.4422 26.4308C80.618 26.6067 80.7168 26.8451 80.7168 27.0938Z" fill="black"/>
</g>
<path d="M28.9473 26.5482L29.1644 24.4033L23.5763 22.1431L23.3044 23.8452L28.9473 26.5482Z" fill="#155F84"/>
<path d="M95.4655 84.6882L71.045 92.7893L65.1409 74.9887L89.5614 66.8906L95.4655 84.6882Z" fill="#CF9E5F"/>
<path d="M26.9216 33.78C32.0895 34.2373 28.5814 28.7102 28.0946 24.978L28.0757 17.2865L25.9536 16.7368C25.9536 16.7368 25.0082 18.8903 23.5802 20.2419C23.3868 22.0645 23.1629 24.0386 23.0515 24.5462C23.2871 25.5221 21.754 33.323 26.9216 33.78Z" fill="#664624"/>
<path d="M31.3212 10.9741C32.2177 13.0297 31.2171 14.5748 31.8806 15.4636C32.5441 16.3524 32.8257 16.2601 32.8678 16.6274C32.9095 16.9973 32.2436 17.1322 32.2137 17.6341C32.1781 18.2396 31.9999 19.1452 31.982 19.7791C31.96 20.5641 32.1455 21.0578 31.5279 21.4C30.3853 22.0282 28.4471 21.2904 27.3485 20.8784C25.7864 20.2895 24.3093 18.4221 24.1358 17.0171C23.0305 16.7199 19.2289 14.3842 21.1953 11.1312C23.162 7.87861 29.638 7.11585 31.3212 10.9741Z" fill="#815932"/>
<path d="M31.3212 10.9738C30.8925 10.7046 27.5893 10.5451 27.0784 12.3114C26.6518 13.7892 27.0863 14.4481 25.3714 15.2559C24.2965 14.0023 23.3423 15.7072 24.1912 16.2428C24.3766 16.3579 24.2792 16.8402 24.2792 16.8402L24.9009 18.789L23.5996 20.2414C23.5996 20.2414 20.1576 19.1255 19.8695 15.1295C19.5763 11.0637 21.4045 8.58478 23.9254 8.2623C28.4389 7.68467 30.6264 9.2775 31.3212 10.9738Z" fill="black"/>
<path d="M31.3423 10.845C31.4273 10.1438 30.5944 6.87992 29.2565 6.05565C27.9152 5.22558 25.02 4.92566 24.0101 5.16651C23.0004 5.40496 20.4946 7.02028 19.6743 8.40541C18.89 9.73181 19.7407 12.6424 19.9338 13.4725C24.5262 13.1894 27.3701 12.5134 31.3423 10.845Z" fill="#1E7DAC"/>
<path d="M26.3682 12.5614C26.3682 12.5614 28.8495 12.6788 33.0798 12.365C36.2591 12.1293 36.6717 9.9031 36.6717 9.9031L31.1846 9.6001C31.1846 9.6001 30.9804 10.0459 29.6947 10.9265C28.4089 11.8068 26.3682 12.5614 26.3682 12.5614Z" fill="#18658C"/>
<path d="M31.2881 15.2168C31.2644 15.5139 31.004 15.7353 30.7069 15.7127C30.41 15.6878 30.1889 15.4268 30.2127 15.1296C30.2364 14.8352 30.4968 14.6138 30.7939 14.6363C31.0908 14.6614 31.3125 14.9195 31.2881 15.2168Z" fill="black"/>
<path d="M31.997 19.5152C32.0534 19.092 32.1267 18.6291 32.1575 18.1943L30.5376 18.2476C30.5376 18.2476 31.1782 19.1955 31.997 19.5152Z" fill="white"/>
<path d="M25.4699 16.0499C25.3448 16.8966 24.8219 17.5163 24.3025 17.4408C23.7827 17.3623 23.4632 16.6162 23.5884 15.7721C23.7136 14.9281 24.2364 14.3057 24.7559 14.3812C25.2753 14.4598 25.5951 15.2058 25.4699 16.0499Z" fill="#815932"/>
<path d="M31.6545 14.0951L29.4856 14.1427L29.4877 14.0251C29.4935 13.7194 29.8114 13.4755 30.1975 13.4837L31.7047 13.4082L31.6545 14.0951Z" fill="black"/>
<path d="M24.2015 5.2035L23.3002 5.51739C23.1477 5.57073 22.9793 5.48973 22.9263 5.33537C22.8733 5.18402 22.955 5.01561 23.1075 4.96235L24.0094 4.64837C24.162 4.59512 24.3301 4.67913 24.383 4.83048C24.4357 4.9818 24.3544 5.15024 24.2015 5.2035Z" fill="#1E7DAC"/>
<path d="M21.2067 14.4683C21.2055 15.0712 20.7158 15.5562 20.1136 15.5562C19.5113 15.5535 19.0241 15.0657 19.0256 14.4624C19.0271 13.8595 19.5165 13.3717 20.1187 13.3745C20.721 13.3745 21.2082 13.8654 21.2067 14.4683Z" fill="black"/>
<path d="M21.3266 16.3381C21.3254 16.9383 20.8358 17.4261 20.2334 17.4261C19.6312 17.4234 19.144 16.9328 19.1455 16.3326C19.1467 15.7297 19.6363 15.2419 20.2387 15.2446C20.841 15.2446 21.3281 15.7352 21.3266 16.3381Z" fill="black"/>
<path d="M22.2407 17.9033C22.2392 18.5062 21.7496 18.994 21.1473 18.9912C20.545 18.9885 20.0578 18.5004 20.0593 17.8978C20.0608 17.2949 20.5501 16.8096 21.1528 16.8096C21.7551 16.8126 22.2419 17.3004 22.2407 17.9033Z" fill="black"/>
<path d="M23.5805 19.0976C23.579 19.6978 23.0894 20.1857 22.4871 20.1857C21.8848 20.1829 21.3976 19.692 21.3992 19.0921C21.4007 18.4892 21.89 18.0012 22.4926 18.0039C23.0948 18.0039 23.5818 18.4947 23.5805 19.0976Z" fill="black"/>
<path d="M25.1091 19.406C25.1079 20.0089 24.6183 20.4967 24.0159 20.4939C23.4136 20.4912 22.9265 20.0034 22.928 19.4005C22.9295 18.7976 23.4191 18.3125 24.0214 18.3125C24.6237 18.3153 25.1109 18.8031 25.1091 19.406Z" fill="black"/>
<path d="M29.5246 27.7287L27.958 25.8219L22.8211 23.604C22.8211 23.604 21.6165 25.4827 21.6223 28.8983C21.6262 31.1441 22.6823 48.3332 22.6823 48.3332H32.4885C32.4885 48.3332 32.5783 38.1741 32.5411 35.9308C32.511 34.1054 29.5246 27.7287 29.5246 27.7287Z" fill="#1E7DAC"/>
<path d="M28.0018 26.3658L28.2189 24.2206L22.6308 21.9634L22.3589 23.6625L28.0018 26.3658Z" fill="#155F84"/>
<path d="M29.5245 27.7284L28.2063 24.3467L28.04 25.9873L29.5245 27.7284Z" fill="#0F5070"/>
<path d="M32.3288 50.394L41.7645 73.4635L45.0594 94.0315L39.3934 94.1661L34.4207 74.8234L20.9998 53.2542L32.3288 50.394Z" fill="#001932"/>
<path d="M22.6297 48.333C22.6297 48.333 20.8672 51.7878 20.8672 54.777C20.8672 55.9996 20.6544 72.8828 20.6544 72.8828L10.7988 90.5181L15.499 93.0024L28.3541 74.243L32.4886 48.333H22.6297Z" fill="#132E42"/>
<path d="M32.4724 48.333H22.6296C22.6296 48.333 22.3778 48.8631 22.206 49.2726C22.0346 49.6792 21.7615 50.3941 21.7615 50.3941H32.3289L32.4724 48.333Z" fill="#664624"/>
<path d="M25.8289 50.394H26.5573V48.333H25.8289V50.394Z" fill="#132E42"/>
<path d="M8.53442 94.1913L10.1367 92.0742C10.1367 92.0742 13.5516 94.4016 14.0945 94.9876C14.6438 95.8793 16.964 95.9888 17.1967 96.9757C17.3307 97.5422 16.6319 99.2892 16.6319 99.2892C16.6319 99.2892 13.3229 98.9415 12.3105 97.3908C11.2975 95.8374 8.53442 94.1913 8.53442 94.1913Z" fill="#664624"/>
<path d="M8.87551 93.7314C8.87551 93.7314 10.8498 95.1307 12.4095 97.0908C13.9684 99.048 16.8953 98.5741 16.8953 98.5741L16.6608 99.2835C16.6608 99.2835 13.7507 99.7994 12.1747 97.8002C10.5986 95.8009 8.53442 94.1914 8.53442 94.1914L8.87551 93.7314Z" fill="#9D764B"/>
<path d="M40.7949 99.3679L40.104 96.8048C40.104 96.8048 44.0362 95.5347 44.8325 95.4645C45.8757 95.5766 47.3841 93.8128 48.304 94.2307C48.8341 94.4718 49.7872 96.0955 49.7872 96.0955C49.7872 96.0955 47.4822 98.4985 45.6372 98.347C43.7892 98.1957 40.7949 99.3679 40.7949 99.3679Z" fill="#664624"/>
<path d="M40.6411 98.8184C40.6411 98.8184 42.9565 98.1174 45.4607 98.0837C47.9645 98.0529 49.3835 95.4507 49.3835 95.4507L49.7985 96.0704C49.7985 96.0704 48.4246 98.6867 45.8784 98.7063C43.3322 98.7259 40.7949 99.3681 40.7949 99.3681L40.6411 98.8184Z" fill="#9D764B"/>
<path d="M39.165 93.5185L45.0537 92.0322L45.4437 95.3692L40.1169 96.8553L39.165 93.5185Z" fill="#0A4F6F"/>
<path d="M31.6344 50.394H31.0663C31.0676 50.408 31.1674 51.8718 30.3885 53.1448C29.5039 54.5918 28.0527 54.9198 27.7513 54.973V50.394H27.2151V55.5285C27.2151 55.5285 27.4922 55.5479 27.7513 55.5285C28.0107 55.5087 29.7603 55.2142 30.8519 53.428C31.7243 52.0037 31.6387 50.4586 31.6344 50.394Z" fill="#0A4F6F"/>
<path d="M72.3116 94.1997L70.5121 94.7773L53.4324 37.8793L55.182 37.355L72.3116 94.1997Z" fill="black"/>
<path d="M86.623 87.5991L87.1468 89.3488L70.4939 94.7944L70.0098 93.0502L86.623 87.5991Z" fill="black"/>
<path d="M70.5214 94.7942L56.9714 93.2659L48.1694 62.9507L55.3113 48.9949L40.0894 47.0431L40.297 45.4253L57.8209 47.6712L49.9162 63.1161L58.225 91.7292L70.6645 93.1397L70.5214 94.7942Z" fill="black"/>
<path d="M63.6254 92.2456C64.5001 95.1591 62.8458 98.2268 59.9351 99.0988C57.0217 99.9708 53.9539 98.3193 53.0819 95.4058C52.2071 92.4951 53.8614 89.4275 56.7721 88.5525C59.6855 87.6806 62.7532 89.335 63.6254 92.2456Z" fill="black"/>
<path d="M44.9588 45.5516C44.9588 45.5516 44.7511 45.9385 43.9856 46.0144C43.1949 46.0899 43.049 45.8153 43.049 45.8153C43.049 45.8153 42.6231 46.4404 42.0225 46.6143C41.4227 46.7854 40.3494 46.2638 40.3494 46.2638L40.5985 45.4477L43.6827 45.002L44.9588 45.5516Z" fill="#815932"/>
<path d="M40.1921 47.5955L40.5983 45.4475L32.2168 39.8479L27.4822 28.7071C26.7447 26.7415 25.0947 26.1414 24.4729 26.4946L22.9839 28.0959C22.3619 28.4491 24.7189 32.675 25.0405 33.4124L30.219 42.6998L40.1921 47.5955Z" fill="#815932"/>
<path d="M40.5985 45.4478L43.3742 45.7815C43.3742 45.7815 43.3827 46.4995 44.5072 47.2089C45.57 47.8819 46.7672 47.8819 46.7672 47.8819C46.7672 47.8819 46.2849 48.4595 45.4015 48.8185C44.6446 49.127 43.3127 48.9053 42.6115 48.7314C41.0918 48.3557 40.1922 47.5957 40.1922 47.5957L39.981 46.6481L40.5985 45.4478Z" fill="#815932"/>
<path d="M24.768 34.0574C25.2912 33.9649 26.4391 33.6676 27.1187 33.3759C28.2046 32.9134 29.0812 32.1001 29.3607 31.6431L27.5706 28.1209C26.507 25.9228 25.3137 25.6619 24.1959 26.0909C23.0781 26.5199 22.6046 27.0473 22.9137 28.7464C23.2222 30.4485 24.768 34.0574 24.768 34.0574Z" fill="#155F84"/>
<path d="M26.5841 32.1622C25.9499 32.4201 24.9514 32.6951 24.3098 32.8379C24.572 33.5558 24.7681 34.0576 24.7681 34.0576C25.2912 33.9651 26.4392 33.6679 27.1188 33.3762C28.2047 32.9137 29.0812 32.1004 29.3608 31.6433L28.8166 30.5752C28.4613 30.9984 27.578 31.7526 26.5841 32.1622Z" fill="white"/>
<path d="M11.6418 88.8779L16.181 92.5457L14.2946 95.1872L9.88647 91.9428L11.6418 88.8779Z" fill="#0A4F6F"/>
<path d="M82.7108 41.3535L59.2458 49.2891L60.8702 54.0921L84.3351 46.1566L82.7108 41.3535Z" fill="white"/>
<path d="M84.3725 46.2673L60.9076 54.2028C60.8781 54.2121 60.8462 54.2097 60.8185 54.196C60.7908 54.1823 60.7695 54.1584 60.759 54.1294L59.1347 49.3263C59.1247 49.2969 59.1269 49.2647 59.1407 49.2368C59.1544 49.209 59.1787 49.1878 59.2081 49.1778L82.6731 41.2422C82.7025 41.2323 82.7347 41.2344 82.7625 41.2482C82.7904 41.262 82.8116 41.2862 82.8216 41.3157L84.4459 46.1187C84.4559 46.1482 84.4537 46.1804 84.44 46.2082C84.4262 46.2361 84.4019 46.2573 84.3725 46.2673ZM60.9435 53.9433L84.1864 46.0828L82.6372 41.5017L59.3942 49.3622L60.9435 53.9433Z" fill="#263238"/>
<path d="M64.066 49.1699L59.9487 50.5624C59.9193 50.5723 59.8871 50.5702 59.8593 50.5564C59.8314 50.5426 59.8102 50.5183 59.8002 50.4889C59.7903 50.4595 59.7924 50.4273 59.8062 50.3994C59.82 50.3716 59.8442 50.3504 59.8737 50.3404L63.9909 48.948C64.0203 48.938 64.0525 48.9402 64.0804 48.954C64.1082 48.9677 64.1295 48.992 64.1394 49.0214C64.1494 49.0509 64.1472 49.0831 64.1334 49.1109C64.1197 49.1388 64.0954 49.16 64.066 49.1699Z" fill="#263238"/>
<path d="M66.44 49.8265L65.8784 50.0165C65.849 50.0264 65.8168 50.0243 65.789 50.0105C65.7611 49.9967 65.7399 49.9724 65.7299 49.943C65.72 49.9136 65.7221 49.8814 65.7359 49.8535C65.7497 49.8257 65.7739 49.8045 65.8034 49.7945L66.3649 49.6046C66.3943 49.5946 66.4265 49.5968 66.4544 49.6106C66.4822 49.6243 66.5035 49.6486 66.5134 49.678C66.5234 49.7075 66.5212 49.7397 66.5074 49.7675C66.4937 49.7954 66.4694 49.8166 66.44 49.8265Z" fill="#263238"/>
<path d="M64.945 50.3319L60.3262 51.8939C60.2967 51.9038 60.2646 51.9017 60.2367 51.8879C60.2089 51.8742 60.1876 51.8499 60.1777 51.8204C60.1683 51.791 60.1708 51.7591 60.1845 51.7314C60.1982 51.7037 60.2221 51.6824 60.2511 51.6719L64.87 50.1099C64.8994 50.0999 64.9316 50.1021 64.9594 50.1159C64.9873 50.1296 65.0085 50.1539 65.0185 50.1833C65.0284 50.2128 65.0263 50.245 65.0125 50.2728C64.9987 50.3007 64.9745 50.3219 64.945 50.3319Z" fill="#263238"/>
<path d="M62.7842 52.5766L60.8843 53.2191C60.8548 53.229 60.8227 53.2269 60.7948 53.2131C60.767 53.1994 60.7457 53.1751 60.7358 53.1456C60.7258 53.1162 60.728 53.084 60.7417 53.0562C60.7555 53.0283 60.7798 53.0071 60.8092 52.9971L62.7091 52.3546C62.7386 52.3446 62.7708 52.3468 62.7986 52.3606C62.8265 52.3743 62.8477 52.3986 62.8577 52.428C62.8676 52.4575 62.8655 52.4897 62.8517 52.5175C62.8379 52.5454 62.8136 52.5666 62.7842 52.5766Z" fill="#263238"/>
<path d="M77.951 43.1465C78.0543 44.7642 78.5825 46.3261 79.4823 47.6744L88.9375 44.4768C88.9375 44.4768 86.9718 41.941 87.4062 39.9489L77.951 43.1465Z" fill="white"/>
<path d="M88.9741 44.5876L79.5189 47.7853C79.4943 47.794 79.4675 47.7942 79.4428 47.786C79.4181 47.7778 79.3968 47.7616 79.3823 47.7399C78.4752 46.3707 77.9402 44.7888 77.8301 43.1499C77.8295 43.1249 77.837 43.1003 77.8515 43.0799C77.8659 43.0594 77.8865 43.0441 77.9103 43.0362L87.3655 39.8386C87.3852 39.8325 87.4061 39.8317 87.4262 39.8361C87.4463 39.8405 87.4649 39.85 87.4803 39.8638C87.4956 39.8775 87.5071 39.8949 87.5138 39.9144C87.5204 39.9339 87.5218 39.9548 87.518 39.975C87.1004 41.8921 89.008 44.3808 89.0193 44.4141C89.0305 44.4288 89.0381 44.446 89.0414 44.4642C89.0447 44.4824 89.0437 44.5012 89.0383 44.5189C89.033 44.5367 89.0235 44.5529 89.0107 44.5663C88.9978 44.5796 88.982 44.5898 88.9645 44.5958L88.9741 44.5876ZM79.5281 47.5348L88.7459 44.4175C88.3605 43.8849 87.0076 41.8666 87.2542 40.1236L78.0608 43.2327C78.1871 44.7659 78.6912 46.244 79.5281 47.5348Z" fill="#263238"/>
<mask id="mask0_88_11844" style="mask-type:luminance" maskUnits="userSpaceOnUse" x="77" y="39" width="12" height="9">
<mask id="mask1_88_11844" style="mask-type:luminance" maskUnits="userSpaceOnUse" x="77" y="39" width="12" height="9">
<path d="M77.9481 43.1465C78.0514 44.7642 78.5796 46.3261 79.4794 47.6744L88.9346 44.4768C88.9346 44.4768 86.9689 41.941 87.4033 39.9489L77.9481 43.1465Z" fill="white"/>
</mask>
<g mask="url(#mask1_88_11844)">
<path d="M88.9731 44.5876L79.5179 47.7853C79.4933 47.794 79.4666 47.7942 79.4418 47.786C79.4171 47.7778 79.3958 47.7616 79.3814 47.7399C78.4742 46.3707 77.9392 44.7888 77.8291 43.1499C77.8285 43.1249 77.836 43.1003 77.8505 43.0799C77.8649 43.0594 77.8856 43.0441 77.9093 43.0362L87.3646 39.8386C87.3842 39.8325 87.4051 39.8317 87.4252 39.8361C87.4453 39.8405 87.464 39.85 87.4793 39.8638C87.4946 39.8775 87.5062 39.8949 87.5128 39.9144C87.5194 39.9339 87.5209 39.9548 87.517 39.975C87.0994 41.8921 89.007 44.3808 89.0183 44.4141C89.0295 44.4288 89.0371 44.446 89.0404 44.4642C89.0437 44.4824 89.0427 44.5012 89.0373 44.5189C89.032 44.5367 89.0225 44.5529 89.0097 44.5663C88.9968 44.5796 88.981 44.5898 88.9635 44.5958L88.9731 44.5876ZM79.5272 47.5348L88.7449 44.4175C88.3595 43.8849 87.0066 41.8666 87.2532 40.1236L78.0599 43.2327C78.1861 44.7659 78.6903 46.244 79.5272 47.5348Z" fill="white"/>
</g>
</mask>
<g mask="url(#mask0_88_11844)">
<g opacity="0.24">
<path d="M77.9515 43.1465C78.0548 44.7642 78.583 46.3261 79.4828 47.6744L88.938 44.4768C88.938 44.4768 86.9723 41.941 87.4067 39.9489L77.9515 43.1465Z" fill="black"/>
<path d="M88.976 44.5876L79.5208 47.7853C79.4963 47.794 79.4695 47.7942 79.4448 47.786C79.42 47.7778 79.3988 47.7616 79.3843 47.7399C78.4771 46.3707 77.9421 44.7888 77.832 43.1499C77.8315 43.1249 77.839 43.1003 77.8534 43.0799C77.8679 43.0594 77.8885 43.0441 77.9123 43.0362L87.3675 39.8386C87.3872 39.8325 87.4081 39.8317 87.4282 39.8361C87.4483 39.8405 87.4669 39.85 87.4822 39.8638C87.4976 39.8775 87.5091 39.8949 87.5157 39.9144C87.5223 39.9339 87.5238 39.9548 87.52 39.975C87.1023 41.8921 89.01 44.3808 89.0212 44.4141C89.0325 44.4288 89.04 44.446 89.0434 44.4642C89.0467 44.4824 89.0456 44.5012 89.0403 44.5189C89.0349 44.5367 89.0254 44.5529 89.0126 44.5663C88.9998 44.5796 88.984 44.5898 88.9664 44.5958L88.976 44.5876ZM79.5301 47.5348L88.7478 44.4175C88.3624 43.8849 87.0096 41.8666 87.2561 40.1236L78.0628 43.2327C78.1891 44.7659 78.6932 46.244 79.5301 47.5348Z" fill="#263238"/>
</g>
</g>
<path d="M60.8467 53.1079L59.7381 49.8297C59.7108 49.749 59.7167 49.6609 59.7544 49.5846C59.7922 49.5082 59.8587 49.45 59.9393 49.4228L87.8455 39.9852C87.9044 39.9653 87.9529 39.9228 87.9805 39.8671C88.008 39.8114 88.0123 39.7471 87.9924 39.6882C87.9725 39.6293 87.93 39.5808 87.8743 39.5532C87.8186 39.5257 87.7543 39.5214 87.6954 39.5413L59.0345 49.2341C58.9539 49.2614 58.8874 49.3195 58.8497 49.3959C58.8119 49.4722 58.806 49.5603 58.8333 49.641L60.2475 53.8226C60.269 53.8873 60.3032 53.9471 60.3479 53.9986C60.3926 54.0501 60.4471 54.0922 60.5081 54.1226C60.5692 54.1529 60.6357 54.1709 60.7037 54.1756C60.7718 54.1802 60.84 54.1713 60.9046 54.1494L89.3791 44.5197C89.4379 44.4998 89.4865 44.4573 89.514 44.4016C89.5416 44.3459 89.5459 44.2816 89.5259 44.2227C89.506 44.1638 89.4636 44.1153 89.4079 44.0877C89.3522 44.0602 89.2878 44.0559 89.2289 44.0758L61.5092 53.4503C61.4432 53.4723 61.3735 53.4809 61.3042 53.4755C61.2349 53.4701 61.1674 53.4509 61.1057 53.419C61.0439 53.3871 60.9892 53.3431 60.9447 53.2897C60.9002 53.2363 60.8669 53.1745 60.8467 53.1079Z" fill="#263238"/>
<path d="M89.4164 44.6309L60.942 54.2607C60.7821 54.3141 60.6075 54.302 60.4565 54.2269C60.3055 54.1519 60.1904 54.0201 60.1363 53.8604L58.7169 49.6632C58.6985 49.6087 58.691 49.5511 58.6948 49.4937C58.6986 49.4363 58.7137 49.3802 58.7392 49.3286C58.7647 49.2771 58.8002 49.231 58.8435 49.1931C58.8868 49.1552 58.9371 49.1262 58.9916 49.1078L87.6525 39.415C87.6982 39.3953 87.7476 39.3853 87.7974 39.3856C87.8472 39.3859 87.8965 39.3965 87.942 39.4168C87.9875 39.4371 88.0283 39.4666 88.0619 39.5034C88.0955 39.5402 88.121 39.5836 88.137 39.6308C88.153 39.678 88.159 39.728 88.1547 39.7777C88.1504 39.8273 88.1358 39.8755 88.1119 39.9193C88.088 39.963 88.0554 40.0014 88.016 40.0318C87.9765 40.0623 87.9312 40.0843 87.8829 40.0964L59.9767 49.534C59.9255 49.5513 59.8832 49.5883 59.8593 49.6367C59.8353 49.6852 59.8316 49.7412 59.8489 49.7924L60.9576 53.0707C60.9917 53.1715 61.0643 53.2548 61.1596 53.3023C61.2549 53.3498 61.3651 53.3576 61.4662 53.3241L89.186 43.9495C89.2317 43.9298 89.2811 43.9198 89.3309 43.9201C89.3808 43.9204 89.43 43.931 89.4755 43.9513C89.521 43.9716 89.5619 44.0011 89.5954 44.0379C89.629 44.0748 89.6546 44.1181 89.6705 44.1653C89.6865 44.2125 89.6925 44.2626 89.6882 44.3122C89.6839 44.3618 89.6693 44.4101 89.6454 44.4538C89.6216 44.4975 89.5889 44.5359 89.5495 44.5663C89.5101 44.5968 89.4648 44.6188 89.4164 44.6309ZM59.0755 49.3268C59.0243 49.3441 58.9821 49.381 58.9581 49.4295C58.9342 49.478 58.9304 49.534 58.9477 49.5852L60.3672 53.7823C60.4013 53.8832 60.4739 53.9664 60.5692 54.0139C60.6645 54.0614 60.7748 54.0692 60.8758 54.0357L89.3414 44.409C89.3591 44.4056 89.3759 44.3984 89.3906 44.388C89.4054 44.3775 89.4177 44.364 89.4268 44.3484C89.4359 44.3328 89.4415 44.3154 89.4433 44.2975C89.4452 44.2795 89.4431 44.2613 89.4373 44.2442C89.4315 44.2271 89.4221 44.2114 89.4098 44.1982C89.3974 44.1851 89.3824 44.1747 89.3657 44.1678C89.349 44.1609 89.331 44.1577 89.313 44.1583C89.2949 44.1589 89.2772 44.1634 89.261 44.1715L61.5413 53.546C61.4621 53.5728 61.3784 53.5837 61.295 53.578C61.2116 53.5724 61.1302 53.5503 61.0553 53.5132C60.9805 53.476 60.9137 53.4244 60.8588 53.3613C60.804 53.2983 60.7621 53.225 60.7356 53.1457L59.6269 49.8675C59.5897 49.7574 59.5977 49.637 59.6492 49.5329C59.7008 49.4287 59.7915 49.3493 59.9016 49.312L87.8078 39.8745C87.8256 39.8711 87.8424 39.8639 87.8571 39.8535C87.8719 39.843 87.8842 39.8295 87.8933 39.8139C87.9024 39.7983 87.908 39.7809 87.9098 39.7629C87.9116 39.745 87.9096 39.7268 87.9038 39.7097C87.898 39.6926 87.8886 39.6769 87.8763 39.6637C87.8639 39.6505 87.8489 39.6402 87.8322 39.6333C87.8155 39.6264 87.7975 39.6231 87.7795 39.6238C87.7614 39.6244 87.7437 39.6289 87.7275 39.637L59.0755 49.3268Z" fill="#263238"/>
<path d="M86.0636 51.2656L62.5986 59.2012L64.223 64.0042L87.6879 56.0687L86.0636 51.2656Z" fill="white"/>
<path d="M87.725 56.1799L64.2601 64.1154C64.2307 64.1254 64.1985 64.1232 64.1706 64.1095C64.1428 64.0957 64.1215 64.0714 64.1116 64.042L62.4872 59.2389C62.4779 59.2095 62.4804 59.1775 62.494 59.1499C62.5077 59.1222 62.5316 59.1009 62.5607 59.0904L86.0256 51.1548C86.055 51.1449 86.0872 51.147 86.1151 51.1608C86.1429 51.1746 86.1642 51.1988 86.1741 51.2283L87.7985 56.0313C87.8084 56.0608 87.8063 56.093 87.7925 56.1208C87.7787 56.1487 87.7544 56.1699 87.725 56.1799ZM64.296 63.8559L87.539 55.9954L85.9897 51.4143L62.7467 59.2748L64.296 63.8559Z" fill="#263238"/>
<path d="M67.464 58.7038L63.3401 60.0985C63.3107 60.1084 63.2785 60.1063 63.2506 60.0925C63.2228 60.0787 63.2015 60.0545 63.1916 60.025C63.1816 59.9956 63.1838 59.9634 63.1976 59.9356C63.2113 59.9077 63.2356 59.8865 63.265 59.8765L67.3889 58.4819C67.4184 58.4719 67.4505 58.4741 67.4784 58.4878C67.5062 58.5016 67.5275 58.5259 67.5374 58.5553C67.5474 58.5848 67.5452 58.6169 67.5315 58.6448C67.5177 58.6726 67.4934 58.6939 67.464 58.7038Z" fill="#263238"/>
<path d="M69.8382 59.37L69.2766 59.5599C69.2472 59.5692 69.2153 59.5668 69.1876 59.5531C69.1599 59.5394 69.1386 59.5155 69.1281 59.4865C69.1182 59.457 69.1203 59.4249 69.1341 59.397C69.1478 59.3692 69.1721 59.3479 69.2016 59.338L69.7631 59.148C69.7925 59.1381 69.8247 59.1402 69.8526 59.154C69.8804 59.1678 69.9016 59.1921 69.9116 59.2215C69.9216 59.2509 69.9194 59.2831 69.9056 59.311C69.8919 59.3388 69.8676 59.36 69.8382 59.37Z" fill="#263238"/>
<path d="M68.3398 59.8765L63.7231 61.4378C63.6937 61.4478 63.6615 61.4456 63.6337 61.4319C63.6058 61.4181 63.5846 61.3938 63.5746 61.3644C63.5647 61.335 63.5668 61.3028 63.5806 61.2749C63.5944 61.2471 63.6187 61.2258 63.6481 61.2159L68.2647 59.6546C68.2942 59.6446 68.3263 59.6468 68.3542 59.6606C68.382 59.6743 68.4033 59.6986 68.4132 59.728C68.4232 59.7575 68.421 59.7897 68.4073 59.8175C68.3935 59.8454 68.3692 59.8666 68.3398 59.8765Z" fill="#263238"/>
<path d="M66.177 62.119L64.2771 62.7616C64.2477 62.7715 64.2155 62.7694 64.1876 62.7556C64.1598 62.7418 64.1385 62.7176 64.1286 62.6881C64.1186 62.6587 64.1208 62.6265 64.1346 62.5987C64.1483 62.5708 64.1726 62.5496 64.202 62.5396L66.102 61.8971C66.1314 61.8871 66.1636 61.8893 66.1914 61.9031C66.2193 61.9168 66.2405 61.9411 66.2505 61.9705C66.2604 62 66.2583 62.0322 66.2445 62.06C66.2307 62.0879 66.2065 62.1091 66.177 62.119Z" fill="#263238"/>
<path d="M81.4502 53.0116C81.5547 54.629 82.0828 56.1906 82.9814 57.5394L92.2902 54.3913C92.2902 54.3913 90.3245 51.8555 90.7589 49.8635L81.4502 53.0116Z" fill="white"/>
<path d="M92.3261 54.5L83.0174 57.6481C82.9927 57.6557 82.9662 57.6552 82.9418 57.6464C82.9175 57.6377 82.8966 57.6213 82.8824 57.5998C81.9742 56.231 81.4391 54.6488 81.3301 53.0098C81.3301 52.9854 81.3376 52.9617 81.3518 52.9418C81.3659 52.922 81.3858 52.907 81.4089 52.899L90.7176 49.7509C90.737 49.7445 90.7578 49.7432 90.7778 49.7473C90.7978 49.7514 90.8164 49.7606 90.8318 49.7741C90.8474 49.7881 90.8591 49.8059 90.8658 49.8257C90.8725 49.8455 90.874 49.8668 90.8701 49.8873C90.4517 51.8022 92.3593 54.2909 92.3713 54.3264C92.3828 54.3415 92.3905 54.3591 92.3938 54.3778C92.3971 54.3964 92.3959 54.4156 92.3903 54.4337C92.3848 54.4486 92.3762 54.4622 92.3652 54.4736C92.3541 54.485 92.3408 54.494 92.3261 54.5ZM83.0289 57.3968L92.0979 54.3298C91.7118 53.7951 90.3597 51.7789 90.6062 50.0359L81.5705 53.0917C81.6935 54.6252 82.1946 56.1043 83.0289 57.3968Z" fill="#263238"/>
<mask id="mask2_88_11844" style="mask-type:luminance" maskUnits="userSpaceOnUse" x="81" y="49" width="12" height="9">
<mask id="mask3_88_11844" style="mask-type:luminance" maskUnits="userSpaceOnUse" x="81" y="49" width="12" height="9">
<path d="M81.4492 53.0111C81.5537 54.6286 82.0818 56.1901 82.9805 57.539L92.2892 54.3908C92.2892 54.3908 90.3235 51.855 90.7579 49.863L81.4492 53.0111Z" fill="white"/>
</mask>
<g mask="url(#mask3_88_11844)">
<path d="M92.3269 54.4995L83.0181 57.6476C82.9934 57.6552 82.9669 57.6547 82.9426 57.646C82.9182 57.6372 82.8973 57.6209 82.8831 57.5993C81.9749 56.2305 81.4399 54.6483 81.3308 53.0093C81.3308 52.9849 81.3384 52.9612 81.3525 52.9413C81.3666 52.9215 81.3866 52.9065 81.4096 52.8985L90.7183 49.7504C90.7377 49.744 90.7585 49.7427 90.7785 49.7468C90.7986 49.7509 90.8172 49.7601 90.8325 49.7736C90.8481 49.7876 90.8598 49.8054 90.8665 49.8252C90.8732 49.8451 90.8747 49.8663 90.8708 49.8868C90.4524 51.8018 92.36 54.2904 92.3721 54.3259C92.3835 54.341 92.3912 54.3586 92.3945 54.3773C92.3978 54.396 92.3966 54.4151 92.391 54.4333C92.3855 54.4481 92.3769 54.4617 92.3659 54.4731C92.3549 54.4845 92.3416 54.4935 92.3269 54.4995ZM83.0296 57.3964L92.0987 54.3293C91.7125 53.7946 90.3604 51.7785 90.6069 50.0354L81.5712 53.0912C81.6942 54.6247 82.1953 56.1038 83.0296 57.3964Z" fill="white"/>
</g>
</mask>
<g mask="url(#mask2_88_11844)">
<g opacity="0.24">
<path d="M81.4506 53.0111C81.5552 54.6286 82.0832 56.1901 82.9819 57.539L92.2906 54.3908C92.2906 54.3908 90.325 51.855 90.7594 49.863L81.4506 53.0111Z" fill="black"/>
<path d="M92.3266 54.4995L83.0179 57.6476C82.9932 57.6552 82.9667 57.6547 82.9423 57.646C82.918 57.6372 82.8971 57.6209 82.8828 57.5993C81.9747 56.2305 81.4396 54.6483 81.3306 53.0093C81.3305 52.9849 81.3381 52.9612 81.3522 52.9413C81.3664 52.9215 81.3863 52.9065 81.4094 52.8985L90.7181 49.7504C90.7375 49.744 90.7582 49.7427 90.7783 49.7468C90.7983 49.7509 90.8169 49.7601 90.8323 49.7736C90.8479 49.7876 90.8596 49.8054 90.8663 49.8252C90.873 49.8451 90.8744 49.8663 90.8706 49.8868C90.4521 51.8018 92.3598 54.2904 92.3718 54.3259C92.3833 54.341 92.391 54.3586 92.3943 54.3773C92.3976 54.396 92.3964 54.4151 92.3908 54.4333C92.3853 54.4481 92.3767 54.4617 92.3657 54.4731C92.3546 54.4845 92.3413 54.4935 92.3266 54.4995ZM83.0294 57.3964L92.0984 54.3293C91.7123 53.7946 90.3602 51.7785 90.6067 50.0354L81.571 53.0912C81.694 54.6247 82.1951 56.1038 83.0294 57.3964Z" fill="#263238"/>
</g>
</g>
<path d="M64.2003 63.0228L63.0909 59.7423C63.0636 59.6616 63.0695 59.5735 63.1072 59.4971C63.1449 59.4208 63.2114 59.3626 63.2921 59.3354L91.1983 49.8978C91.2572 49.8779 91.3057 49.8354 91.3333 49.7797C91.3608 49.724 91.3651 49.6597 91.3452 49.6008C91.3253 49.5419 91.2828 49.4934 91.2271 49.4658C91.1714 49.4383 91.107 49.434 91.0482 49.4539L62.3873 59.1467C62.3067 59.174 62.2402 59.2321 62.2024 59.3084C62.1647 59.3848 62.1588 59.4729 62.1861 59.5536L63.6063 63.7529C63.6503 63.883 63.7441 63.9903 63.8672 64.0512C63.9903 64.1121 64.1326 64.1216 64.2627 64.0776L92.7371 54.4479C92.7959 54.4279 92.8445 54.3855 92.872 54.3298C92.8996 54.2741 92.9039 54.2097 92.884 54.1508C92.8641 54.092 92.8216 54.0434 92.7659 54.0159C92.7102 53.9883 92.6458 53.984 92.587 54.0039L64.8672 63.3785C64.8001 63.4013 64.7291 63.4101 64.6585 63.4044C64.5878 63.3987 64.5191 63.3785 64.4566 63.3452C64.3941 63.3118 64.3391 63.266 64.295 63.2105C64.2509 63.1551 64.2187 63.0912 64.2003 63.0228Z" fill="#263238"/>
<path d="M92.7692 54.5431L64.2948 64.1728C64.1353 64.2267 63.9608 64.2151 63.8099 64.1404C63.6589 64.0658 63.5438 63.9342 63.4899 63.7747L62.0697 59.5753C62.0513 59.5208 62.0437 59.4632 62.0476 59.4058C62.0514 59.3484 62.0665 59.2923 62.092 59.2407C62.1175 59.1892 62.1529 59.1431 62.1962 59.1052C62.2395 59.0673 62.2899 59.0384 62.3444 59.0199L91.0052 49.3271C91.051 49.3074 91.1004 49.2974 91.1502 49.2977C91.2 49.298 91.2493 49.3087 91.2948 49.3289C91.3403 49.3492 91.3811 49.3787 91.4147 49.4155C91.4483 49.4523 91.4738 49.4957 91.4898 49.5429C91.5058 49.5901 91.5118 49.6402 91.5075 49.6898C91.5031 49.7394 91.4886 49.7877 91.4647 49.8314C91.4408 49.8751 91.4082 49.9135 91.3687 49.944C91.3293 49.9744 91.284 49.9964 91.2357 50.0085L63.3295 59.4461C63.2783 59.4634 63.236 59.5004 63.2121 59.5488C63.1881 59.5973 63.1843 59.6533 63.2017 59.7045L64.3111 62.985C64.3457 63.0853 64.4184 63.1679 64.5134 63.2149C64.6085 63.2619 64.7183 63.2696 64.819 63.2362L92.5388 53.8617C92.5845 53.8419 92.6339 53.8319 92.6837 53.8322C92.7335 53.8325 92.7828 53.8432 92.8283 53.8634C92.8738 53.8837 92.9146 53.9132 92.9482 53.95C92.9818 53.9869 93.0073 54.0302 93.0233 54.0775C93.0393 54.1247 93.0453 54.1747 93.041 54.2243C93.0367 54.274 93.0221 54.3222 92.9982 54.3659C92.9744 54.4096 92.9417 54.448 92.9023 54.4785C92.8628 54.5089 92.8175 54.5309 92.7692 54.5431ZM62.4283 59.2389C62.3771 59.2562 62.3349 59.2931 62.3109 59.3416C62.2869 59.3901 62.2832 59.4461 62.3005 59.4973L63.7207 63.6966C63.7553 63.7969 63.828 63.8795 63.9231 63.9266C64.0181 63.9736 64.1279 63.9812 64.2286 63.9478L92.6941 54.3211C92.7119 54.3177 92.7287 54.3105 92.7434 54.3001C92.7582 54.2896 92.7705 54.2761 92.7796 54.2605C92.7887 54.2449 92.7943 54.2275 92.7961 54.2096C92.7979 54.1916 92.7959 54.1734 92.7901 54.1563C92.7843 54.1392 92.7749 54.1235 92.7626 54.1103C92.7502 54.0972 92.7352 54.0868 92.7185 54.0799C92.7018 54.073 92.6838 54.0698 92.6658 54.0704C92.6477 54.071 92.63 54.0756 92.6138 54.0836L64.894 63.4581C64.7345 63.5121 64.5601 63.5004 64.4091 63.4258C64.2582 63.3511 64.1431 63.2196 64.0891 63.06L62.9797 59.7796C62.9613 59.7251 62.9538 59.6675 62.9576 59.6101C62.9614 59.5526 62.9765 59.4966 63.002 59.445C63.0275 59.3934 63.063 59.3474 63.1063 59.3095C63.1496 59.2716 63.1999 59.2426 63.2544 59.2242L91.1606 49.7866C91.1784 49.7832 91.1952 49.776 91.2099 49.7656C91.2246 49.7551 91.237 49.7416 91.2461 49.726C91.2552 49.7104 91.2608 49.693 91.2626 49.6751C91.2644 49.6571 91.2624 49.6389 91.2566 49.6218C91.2508 49.6047 91.2414 49.589 91.2291 49.5758C91.2167 49.5627 91.2017 49.5523 91.185 49.5454C91.1683 49.5385 91.1503 49.5353 91.1322 49.5359C91.1142 49.5365 91.0965 49.541 91.0803 49.5491L62.4283 59.2389Z" fill="#263238"/>
<path d="M66.0706 68.4796C66.0479 67.8714 65.8808 65.3878 64.6411 64.1795L91.644 55.0474L93.0957 59.34L66.0706 68.4796Z" fill="white"/>
<path d="M93.1311 59.452L66.1083 68.5908C66.091 68.5964 66.0727 68.5981 66.0547 68.5956C66.0367 68.5931 66.0196 68.5865 66.0045 68.5764C65.9892 68.5659 65.9766 68.5519 65.9676 68.5356C65.9587 68.5193 65.9536 68.5011 65.9529 68.4825C65.936 67.9936 65.7827 65.4558 64.5556 64.2557C64.5407 64.2422 64.5294 64.2252 64.523 64.2061C64.5166 64.1871 64.5151 64.1667 64.5188 64.1469C64.5233 64.1272 64.5327 64.1089 64.5463 64.0939C64.5599 64.079 64.5771 64.0677 64.5963 64.0614L91.6013 54.9286C91.6308 54.9186 91.663 54.9207 91.6908 54.9345C91.7187 54.9483 91.7399 54.9726 91.7499 55.002L93.2016 59.2946C93.208 59.3095 93.2112 59.3255 93.2111 59.3417C93.211 59.3579 93.2075 59.3739 93.2009 59.3887C93.1942 59.4035 93.1846 59.4168 93.1726 59.4277C93.1606 59.4385 93.1465 59.4468 93.1311 59.452ZM66.1797 68.3193L92.9451 59.2675L91.5684 55.1969L64.8541 64.2314C65.9158 65.4108 66.1353 67.4859 66.1797 68.3193Z" fill="#263238"/>
<path d="M81.0984 59.7964L76.9812 61.1888C76.9518 61.1988 76.9196 61.1966 76.8917 61.1829C76.8639 61.1691 76.8427 61.1448 76.8327 61.1154C76.8227 61.0859 76.8249 61.0538 76.8387 61.0259C76.8524 60.9981 76.8767 60.9768 76.9061 60.9669L81.0234 59.5745C81.0528 59.5645 81.085 59.5667 81.1128 59.5804C81.1407 59.5942 81.1619 59.6185 81.1719 59.6479C81.1818 59.6773 81.1797 59.7095 81.1659 59.7374C81.1521 59.7652 81.1279 59.7865 81.0984 59.7964Z" fill="#263238"/>
<path d="M76.0515 62.9721L75.49 63.162C75.4606 63.1719 75.4284 63.1698 75.4005 63.156C75.3727 63.1422 75.3514 63.1179 75.3415 63.0885C75.3315 63.0591 75.3337 63.0269 75.3475 62.9991C75.3612 62.9712 75.3855 62.95 75.4149 62.94L75.9765 62.7501C76.0059 62.7401 76.0381 62.7423 76.0659 62.7561C76.0938 62.7698 76.115 62.7941 76.125 62.8235C76.1349 62.853 76.1328 62.8852 76.119 62.913C76.1052 62.9409 76.081 62.9621 76.0515 62.9721Z" fill="#263238"/>
<path d="M81.6084 61.0931L76.9895 62.6551C76.9601 62.6651 76.9279 62.6629 76.9 62.6492C76.8722 62.6354 76.851 62.6111 76.841 62.5817C76.831 62.5522 76.8332 62.5201 76.847 62.4922C76.8607 62.4644 76.885 62.4431 76.9144 62.4332L81.5333 60.8711C81.5627 60.8618 81.5947 60.8642 81.6223 60.8779C81.65 60.8916 81.6713 60.9155 81.6818 60.9446C81.6918 60.974 81.6896 61.0062 81.6758 61.034C81.6621 61.0619 81.6378 61.0831 81.6084 61.0931Z" fill="#263238"/>
<path d="M81.9666 62.4755L80.0667 63.118C80.0372 63.128 80.005 63.1258 79.9772 63.1121C79.9493 63.0983 79.9281 63.074 79.9181 63.0446C79.9082 63.0151 79.9103 62.983 79.9241 62.9551C79.9379 62.9273 79.9622 62.906 79.9916 62.8961L81.8915 62.2535C81.9209 62.2436 81.9531 62.2457 81.981 62.2595C82.0088 62.2733 82.0301 62.2975 82.04 62.327C82.05 62.3564 82.0478 62.3886 82.0341 62.4164C82.0203 62.4443 81.996 62.4655 81.9666 62.4755Z" fill="#263238"/>
<path d="M82.1974 62.5435L81.088 59.263C81.0607 59.1824 81.0025 59.1159 80.9262 59.0781C80.8499 59.0404 80.7617 59.0345 80.6811 59.0618L64.1655 64.6472C64.1067 64.6671 64.0423 64.6628 63.9866 64.6352C63.9309 64.6077 63.8884 64.5591 63.8685 64.5003C63.8486 64.4414 63.8529 64.377 63.8805 64.3213C63.908 64.2656 63.9565 64.2232 64.0154 64.2033L92.6674 54.5135C92.748 54.4862 92.8362 54.4921 92.9125 54.5298C92.9888 54.5676 93.047 54.6341 93.0743 54.7147L94.4945 58.9141C94.5385 59.0442 94.529 59.1864 94.4681 59.3095C94.4072 59.4326 94.2999 59.5265 94.1698 59.5705L65.7043 69.1972C65.6454 69.2171 65.5811 69.2128 65.5254 69.1853C65.4697 69.1577 65.4272 69.1092 65.4073 69.0503C65.3874 68.9915 65.3917 68.9271 65.4192 68.8714C65.4468 68.8157 65.4953 68.7732 65.5542 68.7533L81.8833 63.231C81.9505 63.2084 82.0123 63.1723 82.0649 63.1249C82.1176 63.0775 82.1599 63.0198 82.1894 62.9553C82.2188 62.8909 82.2347 62.8211 82.2361 62.7503C82.2375 62.6794 82.2243 62.6091 82.1974 62.5435Z" fill="#263238"/>
<path d="M94.2025 59.6661L65.737 69.2928C65.6912 69.3126 65.6419 69.3226 65.592 69.3223C65.5422 69.322 65.493 69.3113 65.4474 69.2911C65.4019 69.2708 65.3611 69.2413 65.3275 69.2045C65.294 69.1676 65.2684 69.1243 65.2524 69.077C65.2365 69.0298 65.2304 68.9798 65.2348 68.9302C65.2391 68.8806 65.2536 68.8323 65.2775 68.7886C65.3014 68.7448 65.3341 68.7065 65.3735 68.676C65.4129 68.6456 65.4582 68.6236 65.5065 68.6114L81.8356 63.0891C81.9359 63.0546 82.0185 62.9819 82.0656 62.8868C82.1126 62.7917 82.1202 62.6819 82.0868 62.5812L80.9774 59.3008C80.9617 59.2502 80.927 59.2078 80.8805 59.1824C80.8341 59.157 80.7796 59.1507 80.7286 59.1648L64.202 64.7539C64.1562 64.7736 64.1068 64.7836 64.057 64.7833C64.0072 64.783 63.9579 64.7724 63.9124 64.7521C63.8669 64.7318 63.8261 64.7024 63.7925 64.6655C63.7589 64.6287 63.7334 64.5853 63.7174 64.5381C63.7014 64.4909 63.6954 64.4409 63.6997 64.3912C63.7041 64.3416 63.7186 64.2934 63.7425 64.2496C63.7664 64.2059 63.799 64.1676 63.8385 64.1371C63.8779 64.1066 63.9232 64.0846 63.9715 64.0725L92.6235 54.3827C92.7336 54.3455 92.8539 54.3535 92.9581 54.405C93.0623 54.4565 93.1417 54.5473 93.1789 54.6574L94.5991 58.8568C94.6262 58.936 94.6374 59.0197 94.6322 59.1032C94.6269 59.1867 94.6053 59.2684 94.5684 59.3436C94.5316 59.4187 94.4803 59.4859 94.4175 59.5412C94.3548 59.5966 94.2817 59.639 94.2025 59.6661ZM65.5816 68.8334C65.5639 68.8368 65.547 68.844 65.5323 68.8544C65.5176 68.8649 65.5052 68.8784 65.4961 68.894C65.4871 68.9096 65.4814 68.927 65.4796 68.9449C65.4778 68.9629 65.4798 68.9811 65.4856 68.9982C65.4914 69.0153 65.5008 69.031 65.5132 69.0442C65.5255 69.0573 65.5405 69.0677 65.5572 69.0746C65.5739 69.0815 65.5919 69.0847 65.61 69.0841C65.628 69.0835 65.6457 69.079 65.6619 69.0709L94.1275 59.4442C94.2277 59.4096 94.3103 59.3369 94.3574 59.2418C94.4044 59.1467 94.412 59.0369 94.3786 58.9363L92.9585 54.7369C92.9411 54.6857 92.9042 54.6435 92.8557 54.6195C92.8073 54.5955 92.7513 54.5918 92.7001 54.6091L64.0481 64.2989C64.0303 64.3023 64.0135 64.3095 63.9988 64.3199C63.984 64.3304 63.9717 64.3439 63.9626 64.3595C63.9535 64.3751 63.9479 64.3924 63.9461 64.4104C63.9443 64.4284 63.9463 64.4466 63.9521 64.4637C63.9579 64.4808 63.9673 64.4965 63.9796 64.5096C63.992 64.5228 64.007 64.5332 64.0237 64.5401C64.0404 64.547 64.0584 64.5502 64.0765 64.5496C64.0945 64.5489 64.1122 64.5444 64.1284 64.5364L80.655 58.9472C80.7651 58.91 80.8855 58.9181 80.9897 58.9696C81.0938 59.0211 81.1732 59.1119 81.2105 59.2219L82.3199 62.5024C82.3732 62.662 82.3613 62.8361 82.2867 62.9869C82.2121 63.1377 82.081 63.2528 81.9218 63.3073L65.5816 68.8334Z" fill="#263238"/>
<path d="M67.7718 73.5091C67.7498 72.9031 67.5827 70.4195 66.343 69.2112L93.3459 60.0792L94.7968 64.3695L67.7718 73.5091Z" fill="white"/>
<path d="M94.8308 64.4815L67.8079 73.6203C67.7908 73.6265 67.7724 73.6285 67.7543 73.6259C67.7362 73.6234 67.719 73.6166 67.7042 73.6059C67.689 73.5958 67.6765 73.5822 67.6677 73.5662C67.6589 73.5503 67.654 73.5325 67.6534 73.5143C67.6364 73.0253 67.4823 70.4853 66.256 69.2874C66.2411 69.274 66.2299 69.2569 66.2234 69.2378C66.217 69.2188 66.2155 69.1984 66.2193 69.1787C66.2237 69.1589 66.2331 69.1407 66.2467 69.1257C66.2603 69.1107 66.2775 69.0995 66.2967 69.0931L93.3018 59.9603C93.3312 59.9503 93.3634 59.9525 93.3912 59.9663C93.4191 59.98 93.4403 60.0043 93.4503 60.0337L94.9012 64.3241C94.9076 64.339 94.9109 64.355 94.9108 64.3712C94.9106 64.3874 94.9072 64.4035 94.9005 64.4183C94.8939 64.433 94.8843 64.4463 94.8723 64.4572C94.8603 64.4681 94.8462 64.4763 94.8308 64.4815ZM67.8794 73.3488L94.6447 64.2971L93.2689 60.2287L66.5545 69.2631C67.6148 70.4381 67.835 72.5154 67.8794 73.3488Z" fill="#263238"/>
<path d="M82.7987 64.8606L78.6748 66.2552C78.6454 66.2652 78.6132 66.263 78.5853 66.2493C78.5575 66.2355 78.5363 66.2112 78.5263 66.1818C78.5163 66.1523 78.5185 66.1202 78.5323 66.0923C78.546 66.0645 78.5703 66.0432 78.5997 66.0333L82.7192 64.6401C82.7486 64.6308 82.7806 64.6332 82.8082 64.6469C82.8359 64.6606 82.8572 64.6845 82.8677 64.7136C82.8774 64.7422 82.8757 64.7736 82.8628 64.801C82.8499 64.8284 82.827 64.8497 82.7987 64.8606Z" fill="#263238"/>
<path d="M77.7481 68.0302L77.1865 68.2201C77.1571 68.23 77.1249 68.2279 77.0971 68.2141C77.0692 68.2003 77.048 68.1761 77.038 68.1466C77.0281 68.1172 77.0302 68.085 77.044 68.0572C77.0578 68.0293 77.082 68.0081 77.1115 67.9981L77.673 67.8082C77.7024 67.7983 77.7346 67.8004 77.7625 67.8142C77.7903 67.8279 77.8116 67.8522 77.8215 67.8817C77.8315 67.9111 77.8293 67.9433 77.8155 67.9711C77.8018 67.999 77.7775 68.0202 77.7481 68.0302Z" fill="#263238"/>
<path d="M83.3032 66.1512L78.6843 67.7132C78.6549 67.7232 78.6227 67.721 78.5949 67.7073C78.567 67.6935 78.5458 67.6692 78.5358 67.6398C78.5259 67.6104 78.528 67.5782 78.5418 67.5503C78.5556 67.5225 78.5798 67.5012 78.6093 67.4913L83.2281 65.9292C83.2575 65.9193 83.2897 65.9214 83.3176 65.9352C83.3454 65.949 83.3667 65.9732 83.3766 66.0027C83.3866 66.0321 83.3844 66.0643 83.3707 66.0921C83.3569 66.12 83.3326 66.1412 83.3032 66.1512Z" fill="#263238"/>
<path d="M83.6656 67.5429L81.7656 68.1854C81.7362 68.1954 81.704 68.1932 81.6762 68.1794C81.6483 68.1657 81.6271 68.1414 81.6171 68.112C81.6072 68.0825 81.6093 68.0503 81.6231 68.0225C81.6369 67.9946 81.6611 67.9734 81.6906 67.9634L83.5905 67.3209C83.6199 67.311 83.6521 67.3131 83.68 67.3269C83.7078 67.3406 83.729 67.3649 83.739 67.3944C83.749 67.4238 83.7468 67.456 83.733 67.4838C83.7193 67.5117 83.695 67.5329 83.6656 67.5429Z" fill="#263238"/>
<path d="M83.8986 67.573L82.7899 64.2948C82.7626 64.2141 82.7044 64.1476 82.6281 64.1099C82.5518 64.0721 82.4636 64.0663 82.383 64.0935L65.8674 69.6789C65.8086 69.6988 65.7442 69.6945 65.6885 69.667C65.6328 69.6394 65.5903 69.5909 65.5704 69.532C65.5505 69.4731 65.5548 69.4088 65.5824 69.3531C65.6099 69.2974 65.6584 69.2549 65.7173 69.235L94.3693 59.5452C94.4499 59.5179 94.5381 59.5238 94.6144 59.5616C94.6907 59.5993 94.7489 59.6658 94.7762 59.7465L96.1904 63.9281C96.2125 63.9926 96.2217 64.0608 96.2174 64.1289C96.2131 64.1969 96.1954 64.2635 96.1653 64.3247C96.1352 64.3859 96.0933 64.4405 96.042 64.4855C95.9908 64.5305 95.9311 64.5648 95.8665 64.5867L67.401 74.2134C67.3421 74.2333 67.2777 74.229 67.222 74.2015C67.1663 74.1739 67.1239 74.1254 67.1039 74.0665C67.084 74.0077 67.0883 73.9433 67.1159 73.8876C67.1434 73.8319 67.192 73.7894 67.2508 73.7695L83.58 68.2472C83.6457 68.2246 83.7063 68.1892 83.7581 68.1428C83.8099 68.0965 83.8519 68.0402 83.8816 67.9774C83.9113 67.9145 83.9281 67.8464 83.931 67.7769C83.934 67.7075 83.9229 67.6381 83.8986 67.573Z" fill="#407BFF"/>
<path d="M95.9029 64.6978L67.4374 74.3245C67.3916 74.3443 67.3423 74.3543 67.2924 74.354C67.2426 74.3537 67.1934 74.343 67.1478 74.3228C67.1023 74.3025 67.0615 74.273 67.0279 74.2362C66.9944 74.1993 66.9688 74.1559 66.9528 74.1087C66.9369 74.0615 66.9308 74.0115 66.9352 73.9619C66.9395 73.9122 66.954 73.864 66.9779 73.8203C67.0018 73.7765 67.0345 73.7382 67.0739 73.7077C67.1133 73.6772 67.1586 73.6552 67.2069 73.6431L83.5361 68.1208C83.6367 68.0861 83.7196 68.013 83.7665 67.9174C83.8134 67.8218 83.8206 67.7116 83.7865 67.6107L82.6778 64.3324C82.6605 64.2812 82.6235 64.239 82.5751 64.215C82.5266 64.1911 82.4706 64.1873 82.4194 64.2047L65.9039 69.79C65.8581 69.8097 65.8087 69.8198 65.7589 69.8195C65.7091 69.8191 65.6598 69.8085 65.6143 69.7882C65.5688 69.768 65.528 69.7385 65.4944 69.7017C65.4608 69.6648 65.4353 69.6214 65.4193 69.5742C65.4033 69.527 65.3973 69.477 65.4016 69.4274C65.406 69.3777 65.4205 69.3295 65.4444 69.2858C65.4683 69.242 65.5009 69.2037 65.5404 69.1732C65.5798 69.1427 65.6251 69.1207 65.6734 69.1086L94.3254 59.4189C94.3799 59.4004 94.4375 59.3929 94.4949 59.3967C94.5523 59.4006 94.6084 59.4157 94.66 59.4412C94.7116 59.4667 94.7576 59.5021 94.7955 59.5454C94.8334 59.5887 94.8624 59.639 94.8808 59.6935L96.3002 63.8907C96.3543 64.0504 96.3428 64.225 96.2683 64.3763C96.1938 64.5276 96.0624 64.6432 95.9029 64.6978ZM67.282 73.8651C67.2643 73.8685 67.2475 73.8757 67.2327 73.8861C67.218 73.8966 67.2056 73.9101 67.1966 73.9257C67.1875 73.9413 67.1818 73.9587 67.18 73.9766C67.1782 73.9946 67.1802 74.0128 67.186 74.0299C67.1918 74.047 67.2012 74.0627 67.2136 74.0758C67.2259 74.089 67.2409 74.0994 67.2576 74.1063C67.2743 74.1132 67.2923 74.1164 67.3104 74.1158C67.3284 74.1151 67.3461 74.1106 67.3623 74.1026L95.8279 64.4759C95.9285 64.4412 96.0114 64.368 96.0583 64.2725C96.1052 64.1769 96.1124 64.0666 96.0783 63.9657L94.6589 59.7686C94.6415 59.7174 94.6046 59.6752 94.5561 59.6512C94.5077 59.6272 94.4517 59.6235 94.4005 59.6408L65.7485 69.3306C65.7307 69.334 65.7139 69.3412 65.6992 69.3516C65.6845 69.3621 65.6721 69.3755 65.663 69.3912C65.6539 69.4068 65.6483 69.4241 65.6465 69.4421C65.6447 69.4601 65.6467 69.4783 65.6525 69.4954C65.6583 69.5125 65.6677 69.5282 65.68 69.5413C65.6924 69.5545 65.7074 69.5649 65.7241 69.5718C65.7408 69.5787 65.7588 69.5819 65.7769 69.5813C65.7949 69.5806 65.8126 69.5761 65.8288 69.5681L82.3555 63.9789C82.4655 63.9417 82.5859 63.9497 82.6901 64.0013C82.7942 64.0528 82.8736 64.1436 82.9109 64.2536L84.0195 67.5319C84.0736 67.6916 84.0621 67.8662 83.9876 68.0175C83.9131 68.1688 83.7817 68.2844 83.6222 68.339L67.282 73.8651Z" fill="#263238"/>
<path d="M62.6675 58.4163C62.6456 57.8103 62.4784 55.3267 61.2387 54.1185L88.2416 44.9864L89.6926 49.2768L62.6675 58.4163Z" fill="white"/>
<path d="M89.7265 49.3887L62.7037 58.5275C62.6865 58.5337 62.6681 58.5357 62.65 58.5332C62.6319 58.5307 62.6147 58.5238 62.5999 58.5132C62.5848 58.503 62.5723 58.4894 62.5634 58.4735C62.5546 58.4575 62.5497 58.4397 62.5491 58.4215C62.5322 57.9326 62.3781 55.3926 61.1518 54.1946C61.1368 54.1812 61.1256 54.1641 61.1192 54.1451C61.1127 54.126 61.1113 54.1056 61.115 54.0859C61.1194 54.0662 61.1289 54.0479 61.1425 54.0329C61.156 54.0179 61.1732 54.0067 61.1924 54.0003L88.1975 44.8675C88.227 44.8576 88.2591 44.8597 88.287 44.8735C88.3148 44.8873 88.3361 44.9115 88.346 44.941L89.797 49.2313C89.8034 49.2462 89.8066 49.2623 89.8065 49.2785C89.8064 49.2947 89.8029 49.3107 89.7963 49.3255C89.7897 49.3403 89.7801 49.3535 89.768 49.3644C89.756 49.3753 89.7419 49.3836 89.7265 49.3887ZM62.7751 58.256L89.5405 49.2043L88.1646 45.1359L61.4503 54.1704C62.5105 55.3453 62.7307 57.4227 62.7751 58.256Z" fill="#263238"/>
<path d="M77.7589 49.7258L73.6394 51.119C73.61 51.1289 73.5778 51.1268 73.5499 51.113C73.5221 51.0993 73.5009 51.075 73.4909 51.0455C73.4809 51.0161 73.4831 50.9839 73.4969 50.9561C73.5106 50.9282 73.5349 50.907 73.5643 50.897L77.6838 49.5039C77.7132 49.4939 77.7454 49.4961 77.7733 49.5099C77.8011 49.5236 77.8224 49.5479 77.8323 49.5773C77.8423 49.6068 77.8401 49.6389 77.8263 49.6668C77.8126 49.6946 77.7883 49.7159 77.7589 49.7258Z" fill="#263238"/>
<path d="M72.7085 52.8934L72.147 53.0833C72.1175 53.0933 72.0854 53.0912 72.0575 53.0774C72.0297 53.0636 72.0084 53.0393 71.9985 53.0099C71.9891 52.9805 71.9916 52.9485 72.0053 52.9209C72.019 52.8932 72.0429 52.8719 72.0719 52.8614L72.6335 52.6715C72.6629 52.6615 72.6951 52.6637 72.7229 52.6775C72.7508 52.6912 72.772 52.7155 72.782 52.7449C72.7919 52.7744 72.7898 52.8065 72.776 52.8344C72.7622 52.8622 72.738 52.8835 72.7085 52.8934Z" fill="#263238"/>
<path d="M78.2639 51.0145L73.645 52.5765C73.6156 52.5865 73.5834 52.5843 73.5556 52.5705C73.5277 52.5568 73.5065 52.5325 73.4965 52.5031C73.4872 52.4736 73.4896 52.4417 73.5033 52.414C73.517 52.3863 73.5409 52.365 73.57 52.3546L78.1888 50.7925C78.2182 50.7826 78.2504 50.7847 78.2783 50.7985C78.3061 50.8123 78.3274 50.8365 78.3373 50.866C78.3473 50.8954 78.3451 50.9276 78.3314 50.9554C78.3176 50.9833 78.2933 51.0045 78.2639 51.0145Z" fill="#263238"/>
<path d="M78.6282 52.4049L76.7261 53.0482C76.6966 53.0581 76.6645 53.056 76.6366 53.0422C76.6088 53.0285 76.5875 53.0042 76.5776 52.9747C76.5682 52.9453 76.5707 52.9134 76.5844 52.8857C76.5981 52.858 76.622 52.8367 76.651 52.8262L78.5532 52.183C78.5826 52.1736 78.6145 52.1761 78.6422 52.1898C78.6699 52.2035 78.6912 52.2273 78.7017 52.2564C78.7116 52.2858 78.7095 52.318 78.6957 52.3459C78.6819 52.3737 78.6577 52.395 78.6282 52.4049Z" fill="#263238"/>
<path d="M78.7943 52.4802L77.6857 49.202C77.6584 49.1213 77.6002 49.0548 77.5239 49.0171C77.4476 48.9794 77.3594 48.9735 77.2788 49.0008L60.7632 54.5861C60.7043 54.606 60.64 54.6017 60.5843 54.5742C60.5286 54.5466 60.4861 54.4981 60.4662 54.4392C60.4463 54.3804 60.4506 54.316 60.4781 54.2603C60.5057 54.2046 60.5542 54.1621 60.6131 54.1422L89.265 44.4524C89.3457 44.4252 89.4339 44.4311 89.5102 44.4688C89.5865 44.5065 89.6447 44.573 89.672 44.6537L91.0861 48.8353C91.1083 48.8998 91.1175 48.968 91.1131 49.0361C91.1088 49.1042 91.0911 49.1707 91.061 49.2319C91.0309 49.2931 90.9891 49.3477 90.9378 49.3927C90.8865 49.4377 90.8269 49.4721 90.7622 49.4939L62.2967 59.1206C62.2378 59.1405 62.1735 59.1363 62.1178 59.1087C62.0621 59.0812 62.0196 59.0326 61.9997 58.9737C61.9798 58.9149 61.9841 58.8505 62.0116 58.7948C62.0392 58.7391 62.0877 58.6966 62.1466 58.6767L78.4757 53.1544C78.5415 53.1319 78.602 53.0964 78.6539 53.05C78.7057 53.0037 78.7477 52.9475 78.7774 52.8846C78.8071 52.8218 78.8239 52.7536 78.8268 52.6841C78.8297 52.6147 78.8187 52.5454 78.7943 52.4802Z" fill="#407BFF"/>
<path d="M90.7987 49.6046L62.3331 59.2313C62.2874 59.251 62.238 59.261 62.1882 59.2607C62.1383 59.2604 62.0891 59.2498 62.0436 59.2295C61.9981 59.2092 61.9572 59.1797 61.9237 59.1429C61.8901 59.1061 61.8645 59.0627 61.8486 59.0155C61.8326 58.9683 61.8266 58.9183 61.8309 58.8686C61.8352 58.819 61.8498 58.7708 61.8737 58.727C61.8975 58.6833 61.9302 58.645 61.9696 58.6145C62.009 58.584 62.0543 58.562 62.1027 58.5499L78.4318 53.0276C78.5325 52.9929 78.6153 52.9197 78.6622 52.8241C78.7092 52.7286 78.7164 52.6183 78.6822 52.5174L77.5736 49.2392C77.5563 49.188 77.5193 49.1457 77.4708 49.1218C77.4224 49.0978 77.3664 49.0941 77.3152 49.1114L60.7996 54.6968C60.7538 54.7165 60.7045 54.7265 60.6547 54.7262C60.6048 54.7259 60.5556 54.7153 60.5101 54.695C60.4646 54.6747 60.4237 54.6452 60.3902 54.6084C60.3566 54.5716 60.331 54.5282 60.3151 54.481C60.2991 54.4338 60.2931 54.3838 60.2974 54.3341C60.3017 54.2845 60.3163 54.2363 60.3401 54.1925C60.364 54.1488 60.3967 54.1105 60.4361 54.08C60.4755 54.0495 60.5208 54.0275 60.5692 54.0154L89.2211 44.3256C89.3312 44.2884 89.4516 44.2964 89.5557 44.3479C89.6599 44.3994 89.7393 44.4902 89.7766 44.6003L91.196 48.7974C91.25 48.9572 91.2385 49.1318 91.1641 49.2831C91.0896 49.4343 90.9582 49.5499 90.7987 49.6046ZM62.1777 58.7718C62.16 58.7752 62.1432 58.7824 62.1285 58.7929C62.1137 58.8033 62.1014 58.8168 62.0923 58.8324C62.0832 58.848 62.0776 58.8654 62.0758 58.8834C62.0739 58.9013 62.076 58.9195 62.0818 58.9366C62.0876 58.9537 62.097 58.9694 62.1093 58.9826C62.1217 58.9958 62.1367 59.0062 62.1534 59.013C62.1701 59.0199 62.1881 59.0232 62.2061 59.0225C62.2242 59.0219 62.2419 59.0174 62.2581 59.0093L90.7236 49.3826C90.8243 49.3479 90.9071 49.2748 90.954 49.1792C91.001 49.0836 91.0081 48.9733 90.974 48.8725L89.5546 44.6753C89.546 44.65 89.5325 44.6266 89.5149 44.6064C89.4973 44.5863 89.4759 44.5698 89.4519 44.5579C89.4279 44.5461 89.4018 44.539 89.3751 44.5373C89.3484 44.5355 89.3216 44.539 89.2962 44.5475L60.6442 54.2373C60.6265 54.2407 60.6097 54.2479 60.5949 54.2584C60.5802 54.2688 60.5679 54.2823 60.5588 54.2979C60.5497 54.3135 60.544 54.3309 60.5422 54.3489C60.5404 54.3668 60.5425 54.385 60.5483 54.4021C60.554 54.4192 60.5634 54.4349 60.5758 54.4481C60.5881 54.4613 60.6032 54.4716 60.6199 54.4785C60.6366 54.4854 60.6546 54.4887 60.6726 54.488C60.6907 54.4874 60.7084 54.4829 60.7245 54.4748L77.2512 48.8857C77.3613 48.8485 77.4816 48.8565 77.5858 48.908C77.69 48.9595 77.7694 49.0503 77.8066 49.1604L78.9153 52.4386C78.9693 52.5984 78.9578 52.773 78.8834 52.9243C78.8089 53.0755 78.6775 53.1911 78.518 53.2458L62.1777 58.7718Z" fill="#263238"/>
<g clip-path="url(#clip2_88_11844)">
<path d="M76.5039 32.0244C74.5703 32.0244 73 33.6093 73 35.5565C73 37.5032 74.5703 39.0885 76.5039 39.0885C76.5042 39.0885 76.5045 39.0885 76.5048 39.0885C77.9275 39.0885 79.1814 38.2044 79.7191 36.8901H81.2809C81.8181 38.2044 83.0725 39.0866 84.4952 39.0885C84.4955 39.0885 84.4958 39.0885 84.4961 39.0885C86.4297 39.0885 88 37.5032 88 35.5565C88 33.6093 86.4297 32.0244 84.4961 32.0244C84.495 32.0244 84.4939 32.0244 84.4928 32.0244C84.4492 32.0244 84.4066 32.0291 84.3634 32.03C84.3473 32.0264 84.3308 32.0246 84.3142 32.0244H76.6858C76.667 32.0244 76.6483 32.0266 76.63 32.031C76.5902 32.0263 76.5508 32.0258 76.5109 32.0244C76.5086 32.0244 76.5062 32.0244 76.5039 32.0244ZM76.503 32.4932H76.5039C76.5578 32.4932 76.6117 32.4978 76.6656 32.5021C76.6947 32.5043 76.724 32.5012 76.7519 32.4927H84.2566C84.2807 32.499 84.3057 32.5014 84.3306 32.4998C84.3859 32.4951 84.4408 32.4941 84.4961 32.4932C86.1742 32.4932 87.5312 33.8606 87.5312 35.5565C87.5312 37.2524 86.1742 38.6197 84.4961 38.6197C83.2117 38.6197 82.068 37.8018 81.6391 36.5783C81.623 36.5326 81.5931 36.493 81.5536 36.465C81.514 36.4369 81.4668 36.4218 81.4183 36.4218H79.5817C79.5333 36.4219 79.4862 36.4371 79.4467 36.4651C79.4073 36.4931 79.3775 36.5327 79.3614 36.5783C79.1554 37.1728 78.7697 37.6885 78.2578 38.0542C77.7459 38.4199 77.133 38.6175 76.5039 38.6197C74.8258 38.6197 73.4688 37.2524 73.4688 35.5565C73.4688 33.861 74.8253 32.4937 76.503 32.4932Z" fill="#373748"/>
<path fill-rule="evenodd" clip-rule="evenodd" d="M76.3188 33.8535C76.2568 33.8545 76.1977 33.88 76.1545 33.9245C76.1112 33.969 76.0874 34.0287 76.0882 34.0907V37.0223C76.0882 37.0845 76.1128 37.1441 76.1568 37.188C76.2008 37.232 76.2604 37.2567 76.3225 37.2567C76.3847 37.2567 76.4443 37.232 76.4883 37.188C76.5322 37.1441 76.5569 37.0845 76.5569 37.0223V34.0907C76.5573 34.0594 76.5514 34.0283 76.5395 33.9993C76.5277 33.9703 76.5101 33.9439 76.4879 33.9218C76.4657 33.8997 76.4393 33.8823 76.4103 33.8705C76.3812 33.8588 76.3501 33.853 76.3188 33.8535Z" fill="#373748"/>
<path fill-rule="evenodd" clip-rule="evenodd" d="M74.8694 35.3223C74.8072 35.3223 74.7476 35.3469 74.7037 35.3909C74.6597 35.4348 74.635 35.4945 74.635 35.5566C74.635 35.6188 74.6597 35.6784 74.7037 35.7224C74.7476 35.7663 74.8072 35.791 74.8694 35.791H77.7756C77.8378 35.791 77.8974 35.7663 77.9414 35.7224C77.9853 35.6784 78.01 35.6188 78.01 35.5566C78.01 35.4945 77.9853 35.4348 77.9414 35.3909C77.8974 35.3469 77.8378 35.3223 77.7756 35.3223H74.8694Z" fill="#373748"/>
<path d="M85.0971 34.0907C85.0971 34.2467 85.0356 34.3964 84.9262 34.5067C84.8167 34.617 84.6683 34.679 84.5135 34.679C84.3587 34.679 84.2103 34.617 84.1009 34.5067C83.9914 34.3964 83.9299 34.2467 83.9299 34.0907C83.9299 33.9347 83.9914 33.7851 84.1009 33.6747C84.2103 33.5644 84.3587 33.5024 84.5135 33.5024C84.6683 33.5024 84.8167 33.5644 84.9262 33.6747C85.0356 33.7851 85.0971 33.9347 85.0971 34.0907Z" fill="#FCD062"/>
<path d="M86.5502 35.5566C86.5502 35.6338 86.5351 35.7103 86.5058 35.7817C86.4765 35.8531 86.4335 35.9179 86.3793 35.9725C86.3251 36.0271 86.2608 36.0705 86.19 36.1001C86.1192 36.1296 86.0433 36.1448 85.9667 36.1448C85.89 36.1448 85.8141 36.1296 85.7433 36.1001C85.6725 36.0705 85.6082 36.0271 85.554 35.9725C85.4998 35.9179 85.4568 35.8531 85.4275 35.7817C85.3982 35.7103 85.3831 35.6338 85.3831 35.5566C85.3832 35.4006 85.4447 35.2511 85.5542 35.1409C85.6636 35.0306 85.812 34.9687 85.9667 34.9688C86.1213 34.9687 86.2697 35.0306 86.3791 35.1409C86.4886 35.2511 86.5501 35.4006 86.5502 35.5566Z" fill="#78C8F0"/>
<path d="M85.0971 37.0224C85.0971 37.0996 85.082 37.1761 85.0527 37.2475C85.0234 37.3188 84.9804 37.3837 84.9262 37.4384C84.872 37.493 84.8077 37.5363 84.7369 37.5658C84.6661 37.5954 84.5902 37.6106 84.5135 37.6106C84.4369 37.6106 84.361 37.5954 84.2902 37.5658C84.2194 37.5363 84.1551 37.493 84.1009 37.4384C84.0467 37.3837 84.0037 37.3188 83.9744 37.2475C83.945 37.1761 83.9299 37.0996 83.9299 37.0224C83.9299 36.9451 83.945 36.8686 83.9744 36.7973C84.0037 36.7259 84.0467 36.661 84.1009 36.6064C84.1551 36.5517 84.2194 36.5084 84.2902 36.4789C84.361 36.4493 84.4369 36.4341 84.5135 36.4341C84.5902 36.4341 84.6661 36.4493 84.7369 36.4789C84.8077 36.5084 84.872 36.5517 84.9262 36.6064C84.9804 36.661 85.0234 36.7259 85.0527 36.7973C85.082 36.8686 85.0971 36.9451 85.0971 37.0224Z" fill="#60C5B8"/>
<path d="M83.644 35.5565C83.644 35.6338 83.6289 35.7103 83.5996 35.7817C83.5702 35.853 83.5273 35.9179 83.4731 35.9725C83.4189 36.0271 83.3545 36.0705 83.2837 36.1C83.2129 36.1296 83.137 36.1448 83.0604 36.1448C82.9838 36.1448 82.9079 36.1296 82.8371 36.1C82.7663 36.0705 82.7019 36.0271 82.6477 35.9725C82.5935 35.9179 82.5506 35.853 82.5212 35.7817C82.4919 35.7103 82.4768 35.6338 82.4768 35.5565C82.4768 35.4005 82.5383 35.2509 82.6477 35.1406C82.7572 35.0302 82.9056 34.9683 83.0604 34.9683C83.2152 34.9683 83.3636 35.0302 83.4731 35.1406C83.5825 35.2509 83.644 35.4005 83.644 35.5565Z" fill="#F17F53"/>
<path fill-rule="evenodd" clip-rule="evenodd" d="M80.4963 25.9117C80.4344 25.9126 80.3754 25.9381 80.3321 25.9824C80.2889 26.0268 80.265 26.0865 80.2657 26.1484V27.5495C80.2657 27.6116 80.2903 27.6712 80.3343 27.7152C80.3783 27.7591 80.4379 27.7838 80.5 27.7838H81.4338C81.6086 27.7838 81.7103 27.8419 81.7844 27.9244C81.8585 28.0079 81.8997 28.1274 81.8997 28.2507C81.8997 28.3735 81.8585 28.4935 81.7844 28.5765C81.7108 28.6594 81.6086 28.7167 81.4338 28.7167H79.5663C79.2742 28.7167 79.0253 28.8348 78.866 29.0143C78.7061 29.1938 78.6316 29.424 78.6316 29.6518C78.6316 29.8787 78.7061 30.1088 78.866 30.2888C79.0253 30.4684 79.2738 30.586 79.5663 30.586H80.2657V32.2196C80.2657 32.2818 80.2903 32.3414 80.3343 32.3853C80.3783 32.4293 80.4379 32.454 80.5 32.454C80.5622 32.454 80.6218 32.4293 80.6658 32.3853C80.7097 32.3414 80.7344 32.2818 80.7344 32.2196V30.3517C80.7344 30.2895 80.7097 30.2299 80.6658 30.1859C80.6218 30.142 80.5622 30.1173 80.5 30.1173H79.5663C79.3914 30.1173 79.2897 30.0605 79.2157 29.9776C79.1393 29.8862 79.0983 29.7704 79.1003 29.6514C79.1003 29.5285 79.1416 29.4085 79.2157 29.3255C79.2892 29.2426 79.3914 29.1854 79.5663 29.1854H81.4338C81.7258 29.1854 81.9747 29.0677 82.1341 28.8877C82.2939 28.7082 82.3685 28.4781 82.3685 28.2503C82.3685 28.0234 82.2939 27.7923 82.1341 27.6128C81.9747 27.4328 81.7263 27.3151 81.4338 27.3151H80.7344V26.1488C80.7348 26.1175 80.7289 26.0864 80.717 26.0574C80.7052 26.0284 80.6876 26.0021 80.6654 25.9799C80.6432 25.9578 80.6168 25.9404 80.5878 25.9286C80.5587 25.9169 80.5276 25.9111 80.4963 25.9117Z" fill="#373748"/>
</g>
<g clip-path="url(#clip3_88_11844)">
<path d="M59.0562 21.9995C59.0239 21.9997 58.992 22.0065 58.9625 22.0197C57.8788 22.0726 57.0064 22.9553 57.0064 24.0512C57.0069 24.4375 57.1498 24.7918 57.3509 25.1143H53.3478C53.2857 25.1143 53.226 25.139 53.1821 25.183C53.1381 25.227 53.1134 25.2866 53.1134 25.3487V29.3485C52.7914 29.1484 52.4366 29.0064 52.0508 29.0064C51.5072 29.0073 50.9861 29.2238 50.6018 29.6081C50.2174 29.9925 50.001 30.5135 50 31.0571C50.001 31.6007 50.2174 32.1218 50.6018 32.5062C50.9861 32.8906 51.5072 33.1069 52.0508 33.1079C52.4366 33.1079 52.7914 32.9645 53.1139 32.7634V36.7665C53.1139 36.8287 53.1386 36.8883 53.1826 36.9322C53.2265 36.9762 53.2861 37.0009 53.3483 37.0009H57.7873C57.8347 37.0011 57.881 36.9869 57.9202 36.9602C57.9593 36.9335 57.9895 36.8956 58.0066 36.8514C58.0238 36.8072 58.0271 36.7589 58.0163 36.7128C58.0054 36.6667 57.9808 36.625 57.9458 36.5931L57.9209 36.5701H57.9195C57.9181 36.5701 57.9167 36.5655 57.9158 36.5655C57.8812 36.5299 57.8484 36.4926 57.8173 36.4539C57.7849 36.4126 57.7541 36.3697 57.7259 36.3254C57.7256 36.3254 57.7253 36.3254 57.725 36.3254C57.668 36.2368 57.6202 36.1426 57.5825 36.0442C57.5632 35.9954 57.5463 35.9456 57.5319 35.8951C57.5181 35.8448 57.5068 35.7938 57.4981 35.7423C57.4978 35.7423 57.4975 35.7423 57.4972 35.7423C57.4821 35.6543 57.4744 35.5653 57.4742 35.476C57.4744 35.3709 57.4851 35.266 57.5061 35.1629C57.527 35.0596 57.5581 34.9587 57.5989 34.8616C57.6817 34.6668 57.8029 34.4906 57.9552 34.3435C58.0307 34.27 58.1134 34.2044 58.2022 34.1476C58.2908 34.0905 58.385 34.0426 58.4834 34.0047C58.4837 34.0047 58.4841 34.0047 58.4844 34.0047C58.5822 33.9665 58.6837 33.9382 58.7872 33.9203C58.7875 33.9203 58.7878 33.9203 58.7881 33.9203C58.8402 33.9109 58.8931 33.9053 58.9456 33.9015C58.9827 33.8968 59.0192 33.8968 59.0562 33.8968C59.1087 33.8968 59.1617 33.9015 59.2137 33.9048C59.2662 33.9105 59.3187 33.9179 59.3703 33.9282C59.3706 33.9282 59.3709 33.9282 59.3713 33.9282C59.6305 33.9818 59.8725 34.0989 60.0753 34.269C60.0756 34.269 60.0759 34.269 60.0763 34.269C60.1571 34.3363 60.2307 34.4117 60.2961 34.494C60.3289 34.5357 60.3594 34.5784 60.3875 34.6225C60.3878 34.6225 60.3881 34.6225 60.3884 34.6225C60.4453 34.7111 60.4929 34.8054 60.5305 34.9037C60.5308 34.9037 60.5311 34.9037 60.5314 34.9037C60.5695 35.0016 60.5978 35.1031 60.6158 35.2065C60.6312 35.2948 60.639 35.3841 60.6392 35.4737C60.639 35.5792 60.6284 35.6844 60.6073 35.7878C60.5544 36.0471 60.4376 36.2891 60.2675 36.4918C60.2347 36.5303 60.2005 36.5673 60.1644 36.6029C60.1312 36.6355 60.1085 36.6771 60.099 36.7225C60.0895 36.768 60.0938 36.8152 60.1112 36.8583C60.1286 36.9013 60.1585 36.9382 60.1969 36.9642C60.2353 36.9903 60.2806 37.0043 60.327 37.0046H64.7661C64.8283 37.0046 64.8879 36.98 64.9318 36.936C64.9758 36.8921 65.0005 36.8324 65.0005 36.7703V32.3298C65.0006 32.2826 64.9865 32.2364 64.9599 32.1973C64.9333 32.1582 64.8956 32.1281 64.8516 32.1109C64.8076 32.0936 64.7594 32.0901 64.7134 32.1007C64.6673 32.1114 64.6256 32.1356 64.5936 32.1704L64.5655 32.2009C64.4914 32.2728 64.4103 32.3372 64.3236 32.3931C64.3233 32.3931 64.323 32.3931 64.3227 32.3931C64.234 32.4504 64.1397 32.4986 64.0414 32.537C64.0411 32.537 64.0408 32.537 64.0405 32.537C63.9425 32.5748 63.8411 32.603 63.7377 32.6209C63.7373 32.6209 63.737 32.6209 63.7367 32.6209C63.6849 32.6297 63.6326 32.636 63.5802 32.6397C63.5798 32.6397 63.5795 32.6397 63.5792 32.6397C63.5417 32.6444 63.5056 32.6443 63.4681 32.6443C63.4156 32.6443 63.3631 32.6396 63.3106 32.6364C63.2581 32.631 63.2058 32.623 63.1541 32.6124C63.1538 32.6124 63.1534 32.6124 63.1531 32.6124C63.05 32.5919 62.9492 32.5612 62.8522 32.5206H62.8512C62.706 32.4581 62.5705 32.3749 62.4491 32.2736C62.3683 32.2061 62.2945 32.1307 62.2287 32.0485C62.1632 31.9662 62.106 31.8775 62.0581 31.7837C62.0347 31.7368 62.0131 31.689 61.9944 31.6403C61.9941 31.6403 61.9938 31.6403 61.9934 31.6403C61.9741 31.5913 61.9572 31.5414 61.9428 31.4908H61.9437C61.9155 31.3894 61.8975 31.2854 61.8898 31.1804C61.8797 31.0383 61.889 30.8954 61.9175 30.7558C61.9178 30.7558 61.9181 30.7558 61.9184 30.7558C61.9388 30.653 61.9694 30.5524 62.0098 30.4558H62.0108C62.0937 30.2608 62.2145 30.0843 62.3661 29.9364C62.3664 29.9364 62.3667 29.9364 62.367 29.9364C62.4045 29.8998 62.4434 29.8656 62.4842 29.8333H62.4852C62.5675 29.7682 62.6561 29.7114 62.7495 29.6636H62.7505C62.7973 29.6397 62.8456 29.6186 62.8944 29.5993C62.895 29.5993 62.8956 29.5993 62.8962 29.5993C62.9455 29.5801 62.9956 29.5632 63.0463 29.5487C63.0963 29.5351 63.147 29.5239 63.1981 29.515C63.1984 29.515 63.1988 29.515 63.1991 29.515C63.2511 29.5056 63.3041 29.4995 63.3566 29.4962C63.3936 29.4915 63.4306 29.4915 63.4677 29.4915C63.5202 29.4915 63.5736 29.4962 63.6261 29.4995C63.6781 29.5051 63.7297 29.5126 63.7817 29.5234C63.7822 29.5234 63.7827 29.5234 63.7831 29.5234C63.8865 29.5441 63.9875 29.5752 64.0845 29.6162C64.133 29.6369 64.1804 29.6601 64.2266 29.6856C64.3189 29.7359 64.4059 29.7953 64.4862 29.8632C64.4866 29.8632 64.4869 29.8632 64.4872 29.8632C64.5261 29.8956 64.5636 29.9298 64.5992 29.9659C64.6329 30.0001 64.6762 30.0231 64.7233 30.0319C64.7705 30.0407 64.8192 30.0348 64.8629 30.015C64.9066 29.9952 64.9432 29.9625 64.9677 29.9213C64.9922 29.8801 65.0035 29.8323 65 29.7845V25.3478C65 25.2856 64.9753 25.226 64.9314 25.182C64.8874 25.1381 64.8278 25.1134 64.7656 25.1134H60.7648C60.9655 24.7914 61.107 24.4365 61.107 24.0503C61.106 23.5067 60.8897 22.9856 60.5053 22.6012C60.1209 22.2169 59.5998 22.0005 59.0562 21.9995ZM59.0572 22.4692C59.0581 22.4692 59.0591 22.4692 59.06 22.4692C59.2676 22.4689 59.4731 22.5097 59.6649 22.5891C59.8567 22.6685 60.0309 22.785 60.1776 22.9319C60.3242 23.0788 60.4404 23.2532 60.5195 23.4452C60.5985 23.6371 60.6389 23.8427 60.6383 24.0503C60.6383 24.4759 60.4677 24.8828 60.1634 25.18C60.13 25.2125 60.1071 25.2543 60.0976 25.3C60.0881 25.3456 60.0924 25.3931 60.11 25.4363C60.1277 25.4795 60.1578 25.5165 60.1965 25.5425C60.2352 25.5684 60.2809 25.5823 60.3275 25.5822H64.5312V29.3054C64.5045 29.289 64.4792 29.2712 64.4516 29.2562C64.3314 29.1907 64.205 29.1373 64.0742 29.0968C64.0739 29.0968 64.0736 29.0968 64.0733 29.0968C64.0081 29.0767 63.9419 29.06 63.875 29.0467H63.8759C63.7417 29.0194 63.6051 29.0053 63.4681 29.0045C63.4677 29.0045 63.4672 29.0045 63.4667 29.0045C63.3501 29.0047 63.2337 29.0152 63.1189 29.0359C63.0519 29.0474 62.9856 29.0624 62.9202 29.0809C62.9198 29.0809 62.9195 29.0809 62.9192 29.0809C62.7877 29.1178 62.66 29.1674 62.5381 29.2291C62.5378 29.2291 62.5375 29.2291 62.5372 29.2291C62.4157 29.2908 62.3007 29.3646 62.1941 29.4494C62.1938 29.4494 62.1934 29.4494 62.1931 29.4494C62.0858 29.5345 61.9873 29.6303 61.8992 29.7353C61.7226 29.9447 61.59 30.1874 61.5092 30.4492C61.5089 30.4492 61.5086 30.4492 61.5083 30.4492C61.4881 30.5148 61.4722 30.5818 61.4586 30.6489C61.4215 30.8298 61.4092 31.015 61.422 31.1992C61.4318 31.3353 61.4552 31.47 61.4919 31.6014C61.5102 31.667 61.5327 31.7317 61.5575 31.7955C61.5823 31.8587 61.6091 31.9211 61.64 31.982C61.6403 31.982 61.6406 31.982 61.6409 31.982C61.7027 32.1035 61.7765 32.2184 61.8612 32.3251C62.0753 32.5937 62.3529 32.8047 62.6689 32.9392C62.6692 32.9392 62.6695 32.9392 62.6698 32.9392C62.7954 32.9922 62.9261 33.0321 63.0598 33.0583C63.1269 33.0723 63.1944 33.0826 63.2623 33.0897C63.2627 33.0897 63.263 33.0897 63.2633 33.0897C63.3313 33.0967 63.3992 33.1004 63.4677 33.1004C63.4681 33.1004 63.4686 33.1004 63.4691 33.1004C63.5173 33.1004 63.5661 33.1004 63.6139 33.0948C63.7498 33.0842 63.8843 33.0605 64.0156 33.024C64.0159 33.024 64.0163 33.024 64.0166 33.024C64.1975 32.9727 64.3707 32.897 64.5312 32.799V36.5219H60.808C60.8239 36.4951 60.8422 36.4693 60.8572 36.4422C60.9553 36.2619 61.0259 36.0681 61.0667 35.867C61.0939 35.7335 61.1078 35.5977 61.108 35.4615C61.1078 35.3449 61.0978 35.2286 61.078 35.1137C61.0545 34.9795 61.0177 34.8479 60.9683 34.7209C60.9188 34.5939 60.8568 34.4722 60.7831 34.3576H60.7822C60.7086 34.2422 60.6236 34.1345 60.5286 34.036C60.5283 34.036 60.528 34.036 60.5277 34.036C60.48 33.9875 60.4299 33.9414 60.3777 33.8978H60.3767C60.2721 33.8099 60.1591 33.7327 60.0392 33.6671C59.9795 33.6344 59.9182 33.6047 59.8555 33.5781C59.8552 33.5781 59.8548 33.5781 59.8545 33.5781C59.7287 33.5257 59.5981 33.4856 59.4645 33.4586H59.4636C59.397 33.445 59.3297 33.4346 59.262 33.4276C59.2619 33.4276 59.2617 33.4276 59.2616 33.4276C59.1937 33.4208 59.1254 33.4175 59.0572 33.4178C59.0566 33.4178 59.0559 33.4178 59.0553 33.4178C59.007 33.4178 58.9583 33.4178 58.91 33.4234C58.7743 33.4338 58.6399 33.4571 58.5087 33.4932C58.5084 33.4932 58.5081 33.4932 58.5078 33.4932C58.4417 33.5117 58.3766 33.5336 58.3128 33.5589C58.2495 33.5832 58.1877 33.6104 58.1272 33.6414C58.1269 33.6414 58.1266 33.6414 58.1263 33.6414C57.7574 33.828 57.454 34.1222 57.2562 34.4851C57.2234 34.5451 57.1944 34.607 57.1672 34.6694C57.167 34.6694 57.1669 34.6694 57.1667 34.6694C57.0872 34.8585 57.0367 35.0586 57.0167 35.2628C57.0049 35.379 57.003 35.4959 57.0111 35.6125C57.0308 35.8859 57.1049 36.1527 57.2291 36.3972C57.252 36.4426 57.2792 36.4862 57.3059 36.5298H53.5822V32.3228C53.5819 32.2764 53.5678 32.231 53.5418 32.1926C53.5157 32.1542 53.4788 32.1244 53.4358 32.107C53.3927 32.0895 53.3455 32.0853 53.3 32.0948C53.2546 32.1042 53.213 32.127 53.1805 32.1601C52.9609 32.385 52.6793 32.5394 52.3716 32.6035C52.0639 32.6675 51.7441 32.6384 51.453 32.5198C51.1619 32.4012 50.9128 32.1986 50.7375 31.9377C50.5622 31.6768 50.4686 31.3696 50.4688 31.0553C50.4683 30.8474 50.5088 30.6414 50.5882 30.4493C50.6675 30.2571 50.784 30.0825 50.931 29.9355C51.078 29.7885 51.2526 29.672 51.4448 29.5927C51.6369 29.5134 51.8429 29.4728 52.0508 29.4733C52.4759 29.4733 52.8828 29.6444 53.1805 29.9476C53.2131 29.9809 53.2548 30.0036 53.3004 30.013C53.346 30.0225 53.3933 30.0181 53.4364 30.0005C53.4795 29.9829 53.5164 29.9529 53.5424 29.9142C53.5683 29.8756 53.5822 29.8301 53.5822 29.7836V25.5817H57.7873C57.834 25.5818 57.8796 25.5679 57.9183 25.5419C57.9571 25.516 57.9872 25.479 58.0048 25.4359C58.0224 25.3927 58.0268 25.3452 58.0172 25.2995C58.0077 25.2538 57.9848 25.2121 57.9514 25.1795C57.8008 25.0324 57.681 24.8567 57.5993 24.6628C57.5175 24.4688 57.4753 24.2603 57.4752 24.0498C57.4747 23.8419 57.5152 23.636 57.5946 23.4438C57.6739 23.2516 57.7904 23.0771 57.9374 22.9301C58.0844 22.7831 58.259 22.6665 58.4512 22.5872C58.6433 22.5079 58.8493 22.4673 59.0572 22.4678V22.4692Z" fill="#373748"/>
</g>
<path d="M71.8426 37.6171C71.8426 40.6225 69.4896 43.0587 66.5858 43.0587C65.3467 43.0597 64.1486 42.6082 63.2095 41.7864C62.2835 40.9822 61.6549 39.881 61.4274 38.6645C61.361 38.3184 61.3273 37.9666 61.3269 37.614C61.3269 34.6086 63.6799 32.1724 66.5837 32.1724C67.6152 32.1726 68.6231 32.4857 69.4785 33.0716C69.9109 33.3676 70.2981 33.7267 70.6274 34.1375C71.4146 35.1183 71.8433 36.3461 71.8406 37.612L71.8426 37.6171Z" fill="#F93052"/>
<path d="M71.5684 35.8743L64.9034 42.7732C64.2826 42.5558 63.7079 42.2208 63.2097 41.786C63.2308 41.7584 63.2529 41.7339 63.2771 41.7083L70.4447 34.2883C70.5001 34.2314 70.5622 34.1817 70.6296 34.1401C71.0436 34.6554 71.3617 35.2431 71.5684 35.8743Z" fill="#F15A24"/>
<path d="M69.4801 33.0744C69.462 33.0959 69.4449 33.1163 69.4248 33.1368L62.2572 40.5568C62.2371 40.5772 62.218 40.5956 62.1969 40.614C61.8184 40.021 61.5569 39.3588 61.427 38.6642L67.6005 32.2773C68.2729 32.4135 68.9119 32.6845 69.4801 33.0744Z" fill="#F15A24"/>
<path d="M72.9974 37.3872C72.7695 38.9647 71.9911 40.4062 70.8043 41.4485C69.6175 42.4908 68.1016 43.0643 66.5334 43.0643C64.9651 43.0643 63.4492 42.4908 62.2624 41.4485C61.0757 40.4062 60.2973 38.9647 60.0694 37.3872C60.0233 37.7087 60.0001 38.0331 60 38.358C60 40.1197 60.6883 41.8092 61.9136 43.0549C63.1388 44.3006 64.8006 45.0004 66.5334 45.0004C68.2661 45.0004 69.9279 44.3006 71.1531 43.0549C72.3784 41.8092 73.0667 40.1197 73.0667 38.358C73.0666 38.0331 73.0434 37.7087 72.9974 37.3872Z" fill="#ED1C24"/>
<path d="M66.5334 33.0438C67.428 33.0438 68.3024 33.3135 69.0463 33.8188C69.7901 34.3241 70.3698 35.0423 70.7122 35.8826C71.0545 36.7229 71.1441 37.6475 70.9696 38.5395C70.795 39.4315 70.3642 40.2509 69.7317 40.894C69.0991 41.5372 68.2932 41.9751 67.4158 42.1526C66.5384 42.33 65.6289 42.2389 64.8025 41.8909C63.976 41.5428 63.2696 40.9534 62.7725 40.1972C62.2755 39.441 62.0103 38.5519 62.0103 37.6424C62.0116 36.4232 62.4886 35.2543 63.3365 34.3922C64.1845 33.5301 65.3342 33.0452 66.5334 33.0438ZM66.5334 31C65.2412 31 63.978 31.3896 62.9036 32.1194C61.8292 32.8493 60.9918 33.8867 60.4973 35.1004C60.0028 36.3142 59.8734 37.6497 60.1255 38.9382C60.3776 40.2267 60.9999 41.4103 61.9136 42.3392C62.8273 43.2682 63.9914 43.9008 65.2588 44.1571C66.5261 44.4134 67.8398 44.2819 69.0336 43.7791C70.2274 43.2764 71.2478 42.425 71.9657 41.3327C72.6836 40.2403 73.0667 38.9561 73.0667 37.6424C73.0667 35.8807 72.3784 34.1912 71.1532 32.9455C69.9279 31.6998 68.2661 31 66.5334 31Z" fill="#F7931E"/>
<path d="M66.5839 42.343C64.044 42.343 61.7834 41.3324 60.3411 39.7617C60.7733 41.0647 61.5925 42.1992 62.6859 43.0086C63.7792 43.8181 65.0926 44.2626 66.445 44.2809C67.7974 44.2992 69.122 43.8903 70.2361 43.1107C71.3502 42.3311 72.1989 41.2191 72.665 39.9283C71.2216 41.4039 69.0324 42.343 66.5839 42.343Z" fill="#F15A24"/>
<path d="M70.0238 36.8248L66.0234 34.4744C65.8486 34.3721 65.6505 34.3183 65.4489 34.3184C65.2473 34.3185 65.0492 34.3725 64.8746 34.4749C64.6999 34.5774 64.5549 34.7248 64.454 34.9023C64.353 35.0797 64.2998 35.2811 64.2996 35.4861V40.1868C64.2998 40.3918 64.353 40.5932 64.454 40.7706C64.5549 40.9481 64.6999 41.0955 64.8746 41.198C65.0492 41.3005 65.2473 41.3545 65.4489 41.3545C65.6505 41.3546 65.8486 41.3008 66.0234 41.1985L70.0238 38.8481C70.1983 38.7454 70.3431 38.5979 70.4438 38.4203C70.5445 38.2428 70.5975 38.0414 70.5975 37.8365C70.5975 37.6315 70.5445 37.4301 70.4438 37.2526C70.3431 37.075 70.1983 36.9275 70.0238 36.8248Z" fill="#ED1C24"/>
<path d="M69.6895 36.6206L65.8891 34.3919C65.7144 34.2896 65.5162 34.2357 65.3146 34.2358C65.113 34.2359 64.9149 34.2899 64.7403 34.3924C64.5657 34.4949 64.4206 34.6423 64.3197 34.8198C64.2188 34.9972 64.1655 35.1986 64.1653 35.4036V39.8642C64.1655 40.0692 64.2188 40.2705 64.3197 40.448C64.4206 40.6254 64.5657 40.7728 64.7403 40.8753C64.9149 40.9778 65.113 41.0318 65.3146 41.0319C65.5162 41.032 65.7144 40.9782 65.8891 40.8758L69.6895 38.6461C69.8644 38.5435 70.0097 38.3959 70.1107 38.2181C70.2117 38.0403 70.2649 37.8387 70.2649 37.6334C70.2649 37.428 70.2117 37.2264 70.1107 37.0486C70.0097 36.8708 69.8644 36.7232 69.6895 36.6206Z" fill="white"/>
<g style="mix-blend-mode:soft-light">
<path d="M65.4273 35.9055C65.7604 35.9055 66.0304 35.631 66.0304 35.2923C66.0304 34.9537 65.7604 34.6792 65.4273 34.6792C65.0942 34.6792 64.8242 34.9537 64.8242 35.2923C64.8242 35.631 65.0942 35.9055 65.4273 35.9055Z" fill="white"/>
</g>
<g style="mix-blend-mode:soft-light">
<path d="M66.3328 36.1097C66.4993 36.1097 66.6343 35.9725 66.6343 35.8032C66.6343 35.6338 66.4993 35.4966 66.3328 35.4966C66.1663 35.4966 66.0312 35.6338 66.0312 35.8032C66.0312 35.9725 66.1663 36.1097 66.3328 36.1097Z" fill="white"/>
</g>
</g>
<defs>
<clipPath id="clip0_88_11844">
<rect width="104" height="104" fill="white"/>
</clipPath>
<clipPath id="clip1_88_11844">
<rect width="15" height="15" fill="white" transform="translate(68.998 21)"/>
</clipPath>
<clipPath id="clip2_88_11844">
<rect width="15" height="15" fill="white" transform="translate(73 25)"/>
</clipPath>
<clipPath id="clip3_88_11844">
<rect width="15" height="15" fill="white" transform="translate(50 22)"/>
</clipPath>
</defs>
</svg>
