<svg width="19" height="19" viewBox="0 0 19 19" fill="none" xmlns="http://www.w3.org/2000/svg">
<g clip-path="url(#clip0_262_627)">
<mask id="mask0_262_627" style="mask-type:luminance" maskUnits="userSpaceOnUse" x="0" y="0" width="19" height="19">
<path d="M0 0H19V19H0V0Z" fill="white"/>
</mask>
<g mask="url(#mask0_262_627)">
<path d="M6.31233 4.24416C6.25679 4.30192 6.21147 4.3687 6.17833 4.44166L6.17433 4.43766L0.566329 17.0702L0.571829 17.0757C0.467829 17.2772 0.641829 17.6872 0.998329 18.0442C1.35433 18.4002 1.76433 18.5742 1.96583 18.4702L1.97083 18.4752L14.6043 12.8677L14.6003 12.8632C14.6743 12.8282 14.7413 12.7857 14.7978 12.7292C15.5788 11.9482 14.3123 9.41566 11.9693 7.07266C9.62633 4.72916 7.09333 3.46316 6.31233 4.24416Z" fill="#DD2E44"/>
<path d="M6.99933 6.50172L0.707329 16.7547L0.566329 17.0722L0.571829 17.0772C0.467829 17.2792 0.641829 17.6887 0.998329 18.0457C1.10554 18.1517 1.22447 18.2451 1.35283 18.3242L8.99933 9.00172L6.99933 6.50172Z" fill="#EA596E"/>
<path d="M12.0053 7.03178C14.3403 9.36778 15.6368 11.8578 14.8998 12.5943C14.1633 13.3308 11.6733 12.0348 9.33685 9.69978C7.00135 7.36378 5.70535 4.87328 6.44185 4.13628C7.17885 3.39978 9.66885 4.69628 12.0053 7.03178Z" fill="#A0041E"/>
<path d="M9.79492 7.30348C9.74393 7.34484 9.68523 7.37565 9.62222 7.3941C9.55921 7.41256 9.49316 7.4183 9.42792 7.41098C8.99392 7.36398 8.62892 7.21298 8.37342 6.97448C8.10292 6.72198 7.96942 6.38348 8.00592 6.04348C8.06992 5.44748 8.66792 4.90048 9.68742 5.01098C10.0839 5.05348 10.2609 4.92598 10.2664 4.86498C10.2734 4.80448 10.1279 4.64198 9.73192 4.59898C9.29742 4.55198 8.93292 4.40098 8.67692 4.16248C8.40642 3.90998 8.27242 3.57098 8.30942 3.23148C8.37442 2.63548 8.97192 2.08848 9.99042 2.19898C10.2794 2.22998 10.4314 2.16998 10.4959 2.13148C10.5479 2.09998 10.5684 2.06998 10.5704 2.05298C10.5759 1.99248 10.4324 1.82998 10.0349 1.78698C9.90513 1.77029 9.78706 1.70337 9.70604 1.60061C9.62503 1.49784 9.58754 1.3674 9.60161 1.2373C9.61568 1.1072 9.68019 0.987803 9.7813 0.904731C9.88241 0.82166 10.0121 0.781539 10.1424 0.792979C11.1609 0.90248 11.6289 1.56398 11.5644 2.16048C11.4999 2.75648 10.9024 3.30298 9.88292 3.19298C9.59392 3.16148 9.44242 3.22148 9.37792 3.25998C9.32642 3.29148 9.30542 3.32198 9.30342 3.33848C9.29692 3.39948 9.44142 3.56198 9.83892 3.60498C10.8574 3.71448 11.3254 4.37598 11.2609 4.97248C11.1964 5.56848 10.5984 6.11548 9.57992 6.00498C9.29092 5.97398 9.13892 6.03348 9.07392 6.07198C9.02242 6.10348 9.00242 6.13398 9.00042 6.15098C8.99392 6.21148 9.13842 6.37398 9.53542 6.41698C9.63396 6.42722 9.72721 6.46656 9.80332 6.52998C9.87942 6.5934 9.93492 6.67804 9.96275 6.77312C9.99058 6.8682 9.98948 6.96941 9.95959 7.06386C9.92971 7.15831 9.87238 7.24172 9.79492 7.30348Z" fill="#AA8DD8"/>
<path d="M15.8296 11.929C16.8161 11.6505 17.4966 12.0905 17.6586 12.668C17.8206 13.245 17.4696 13.9755 16.4841 14.2525C16.0991 14.3605 15.9836 14.5445 15.9991 14.6035C16.0161 14.6625 16.2116 14.7595 16.5956 14.6505C17.5816 14.3735 18.2621 14.8135 18.4241 15.3905C18.5876 15.968 18.2356 16.6975 17.2491 16.9755C16.8646 17.0835 16.7486 17.268 16.7656 17.3265C16.7821 17.385 16.9771 17.4815 17.3616 17.374C17.4254 17.3543 17.4925 17.3475 17.5589 17.3542C17.6254 17.3608 17.6898 17.3807 17.7484 17.4126C17.8071 17.4445 17.8587 17.4879 17.9003 17.5401C17.9419 17.5923 17.9726 17.6523 17.9907 17.7166C18.0087 17.7809 18.0137 17.8482 18.0053 17.9144C17.9969 17.9807 17.9754 18.0445 17.9419 18.1023C17.9084 18.1601 17.8637 18.2106 17.8104 18.2508C17.7571 18.291 17.6963 18.3202 17.6316 18.3365C16.6466 18.614 15.9651 18.175 15.8021 17.597C15.6401 17.02 15.9916 16.2905 16.9786 16.0125C17.3631 15.904 17.4791 15.7205 17.4621 15.6615C17.4456 15.603 17.2511 15.5055 16.8666 15.6135C15.8801 15.8915 15.1996 15.4525 15.0371 14.8745C14.8746 14.297 15.2261 13.5675 16.2131 13.2895C16.5966 13.182 16.7126 12.997 16.6961 12.939C16.6791 12.8795 16.4851 12.7825 16.1001 12.891C16.0361 12.9116 15.9686 12.9191 15.9016 12.913C15.8347 12.9069 15.7697 12.8874 15.7104 12.8556C15.6512 12.8238 15.599 12.7803 15.5569 12.7279C15.5148 12.6755 15.4838 12.6151 15.4656 12.5504C15.4474 12.4857 15.4424 12.4179 15.451 12.3513C15.4596 12.2846 15.4815 12.2203 15.5155 12.1623C15.5495 12.1043 15.5948 12.0537 15.6488 12.0136C15.7027 11.9736 15.7642 11.9448 15.8296 11.929Z" fill="#77B255"/>
<path d="M11.9998 10.582C11.8963 10.5819 11.7953 10.5496 11.7109 10.4897C11.6264 10.4298 11.5627 10.3452 11.5283 10.2475C11.494 10.1498 11.4908 10.0439 11.5192 9.94432C11.5476 9.84474 11.6061 9.75642 11.6868 9.69153C11.7958 9.60403 14.3958 7.56203 18.0703 8.08753C18.1353 8.09679 18.1978 8.11876 18.2543 8.1522C18.3108 8.18563 18.3601 8.22988 18.3995 8.2824C18.4389 8.33492 18.4675 8.39468 18.4838 8.45828C18.5001 8.52188 18.5036 8.58805 18.4943 8.65303C18.4853 8.71818 18.4635 8.78089 18.4301 8.83755C18.3967 8.89421 18.3524 8.94368 18.2998 8.98311C18.2471 9.02254 18.1872 9.05114 18.1234 9.06726C18.0597 9.08339 17.9934 9.0867 17.9283 9.07703C14.6818 8.61603 12.3348 10.454 12.3118 10.4725C12.2234 10.5436 12.1133 10.5822 11.9998 10.582Z" fill="#AA8DD8"/>
<path d="M3.37612 8.5C3.29813 8.50003 3.22121 8.48181 3.15152 8.44681C3.08182 8.4118 3.02129 8.36098 2.97474 8.2984C2.9282 8.23582 2.89693 8.16323 2.88346 8.08641C2.86998 8.00959 2.87466 7.93069 2.89712 7.856C3.46362 5.9695 3.97712 2.959 3.34612 2.1745C3.27512 2.0855 3.16912 1.998 2.92512 2.0165C2.45562 2.052 2.50062 3.042 2.50112 3.052C2.50747 3.11824 2.50053 3.18508 2.48072 3.24861C2.4609 3.31213 2.42861 3.37106 2.38572 3.42195C2.34284 3.47283 2.29022 3.51464 2.23097 3.54493C2.17172 3.57521 2.10702 3.59337 2.04066 3.59833C1.9743 3.60329 1.90762 3.59495 1.84452 3.5738C1.78143 3.55266 1.72319 3.51913 1.67322 3.47519C1.62325 3.43124 1.58255 3.37777 1.55351 3.31789C1.52448 3.25802 1.50768 3.19295 1.50412 3.1265C1.45212 2.437 1.66712 1.109 2.84962 1.0195C3.37762 0.9795 3.81612 1.163 4.12612 1.548C5.31162 3.0235 4.10812 7.3015 3.85462 8.144C3.82368 8.24687 3.76044 8.33704 3.67426 8.40115C3.58808 8.46527 3.48354 8.49993 3.37612 8.5Z" fill="#77B255"/>
<path d="M13.9995 5.25C13.9995 5.34852 13.9801 5.44608 13.9423 5.53709C13.9046 5.6281 13.8493 5.71079 13.7796 5.78043C13.7099 5.85008 13.6272 5.90531 13.5362 5.94299C13.4451 5.98066 13.3475 6.00003 13.249 6C13.1505 5.99997 13.0529 5.98053 12.9619 5.94279C12.8709 5.90506 12.7882 5.84977 12.7186 5.78008C12.6489 5.71039 12.5937 5.62766 12.556 5.53663C12.5184 5.44559 12.499 5.34802 12.499 5.2495C12.4991 5.05052 12.5782 4.85972 12.7189 4.71907C12.8597 4.57841 13.0505 4.49943 13.2495 4.4995C13.4485 4.49957 13.6393 4.57867 13.78 4.71942C13.9206 4.86017 13.9996 5.05102 13.9995 5.25Z" fill="#5C913B"/>
<path d="M2.49952 9.5C2.49949 9.63135 2.47359 9.76142 2.42329 9.88276C2.37299 10.0041 2.29929 10.1144 2.20638 10.2072C2.11348 10.3001 2.00319 10.3737 1.88182 10.424C1.76045 10.4742 1.63038 10.5 1.49902 10.5C1.36767 10.5 1.23761 10.4741 1.11626 10.4238C0.99492 10.3735 0.884672 10.2998 0.791813 10.2069C0.698954 10.114 0.625304 10.0037 0.575067 9.8823C0.52483 9.76093 0.498991 9.63085 0.499023 9.4995C0.49909 9.23422 0.604536 8.97983 0.792167 8.79229C0.979797 8.60475 1.23424 8.49943 1.49952 8.4995C1.76481 8.49957 2.0192 8.60501 2.20673 8.79264C2.39427 8.98027 2.49959 9.23472 2.49952 9.5Z" fill="#9266CC"/>
<path d="M17.4995 10.25C17.4995 10.3485 17.4801 10.4461 17.4423 10.5371C17.4046 10.6281 17.3493 10.7108 17.2796 10.7804C17.2099 10.8501 17.1272 10.9053 17.0362 10.943C16.9451 10.9807 16.8475 11 16.749 11C16.6505 11 16.5529 10.9805 16.4619 10.9428C16.3709 10.9051 16.2882 10.8498 16.2186 10.7801C16.1489 10.7104 16.0937 10.6277 16.056 10.5366C16.0184 10.4456 15.999 10.348 15.999 10.2495C15.9991 10.0505 16.0782 9.85972 16.2189 9.71907C16.3597 9.57841 16.5505 9.49943 16.7495 9.4995C16.9485 9.49957 17.1393 9.57867 17.28 9.71942C17.4206 9.86017 17.4996 10.051 17.4995 10.25Z" fill="#5C913B"/>
<path d="M12.9995 16.25C12.9995 16.3485 12.9801 16.4461 12.9423 16.5371C12.9046 16.6281 12.8493 16.7108 12.7796 16.7804C12.7099 16.8501 12.6272 16.9053 12.5362 16.943C12.4451 16.9807 12.3475 17 12.249 17C12.1505 17 12.0529 16.9805 11.9619 16.9428C11.8709 16.9051 11.7882 16.8498 11.7186 16.7801C11.6489 16.7104 11.5937 16.6277 11.556 16.5366C11.5184 16.4456 11.499 16.348 11.499 16.2495C11.4991 16.0505 11.5782 15.8597 11.7189 15.7191C11.8597 15.5784 12.0505 15.4994 12.2495 15.4995C12.4485 15.4996 12.6393 15.5787 12.78 15.7194C12.9206 15.8602 12.9996 16.051 12.9995 16.25Z" fill="#5C913B"/>
<path d="M15.4995 2.5C15.4995 2.63135 15.4736 2.76142 15.4233 2.88276C15.373 3.0041 15.2993 3.11435 15.2064 3.20721C15.1135 3.30007 15.0032 3.37372 14.8818 3.42396C14.7605 3.47419 14.6304 3.50003 14.499 3.5C14.3677 3.49997 14.2376 3.47406 14.1163 3.42376C13.9949 3.37347 13.8847 3.29976 13.7918 3.20686C13.699 3.11395 13.6253 3.00367 13.5751 2.8823C13.5248 2.76093 13.499 2.63085 13.499 2.4995C13.4991 2.23422 13.6045 1.97983 13.7922 1.79229C13.9798 1.60475 14.2342 1.49943 14.4995 1.4995C14.7648 1.49957 15.0192 1.60501 15.2067 1.79264C15.3943 1.98027 15.4996 2.23472 15.4995 2.5Z" fill="#FFCC4D"/>
<path d="M17.4995 4.75C17.4995 4.84852 17.4801 4.94608 17.4423 5.03709C17.4046 5.1281 17.3493 5.21079 17.2796 5.28043C17.2099 5.35008 17.1272 5.40531 17.0362 5.44299C16.9451 5.48066 16.8475 5.50003 16.749 5.5C16.6505 5.49997 16.5529 5.48053 16.4619 5.44279C16.3709 5.40506 16.2882 5.34977 16.2186 5.28008C16.1489 5.21039 16.0937 5.12766 16.056 5.03663C16.0184 4.94559 15.999 4.84802 15.999 4.7495C15.9991 4.55052 16.0782 4.35972 16.2189 4.21907C16.3597 4.07841 16.5505 3.99943 16.7495 3.9995C16.9485 3.99957 17.1393 4.07867 17.28 4.21942C17.4206 4.36017 17.4996 4.55102 17.4995 4.75Z" fill="#FFCC4D"/>
<path d="M15.9995 6.75C15.9995 6.84852 15.9801 6.94608 15.9423 7.03709C15.9046 7.1281 15.8493 7.21079 15.7796 7.28043C15.7099 7.35008 15.6272 7.40531 15.5362 7.44299C15.4451 7.48066 15.3475 7.50003 15.249 7.5C15.1505 7.49997 15.0529 7.48053 14.9619 7.44279C14.8709 7.40506 14.7882 7.34977 14.7186 7.28008C14.6489 7.21039 14.5937 7.12766 14.556 7.03663C14.5184 6.94559 14.499 6.84802 14.499 6.7495C14.4991 6.55052 14.5782 6.35972 14.7189 6.21907C14.8597 6.07841 15.0505 5.99943 15.2495 5.9995C15.4485 5.99957 15.6393 6.07867 15.78 6.21942C15.9206 6.36017 15.9996 6.55102 15.9995 6.75Z" fill="#FFCC4D"/>
<path d="M4.99952 12.25C4.99949 12.3485 4.98005 12.4461 4.94232 12.5371C4.90458 12.6281 4.84929 12.7108 4.7796 12.7804C4.70991 12.8501 4.62719 12.9053 4.53615 12.943C4.44511 12.9807 4.34755 13 4.24902 13C4.1505 13 4.05295 12.9805 3.96193 12.9428C3.87092 12.9051 3.78823 12.8498 3.71859 12.7801C3.64895 12.7104 3.59371 12.6277 3.55604 12.5366C3.51836 12.4456 3.49899 12.348 3.49902 12.2495C3.49909 12.0505 3.5782 11.8597 3.71894 11.7191C3.85969 11.5784 4.05054 11.4994 4.24952 11.4995C4.4485 11.4996 4.6393 11.5787 4.77996 11.7194C4.92061 11.8602 4.99959 12.051 4.99952 12.25Z" fill="#FFCC4D"/>
</g>
</g>
<defs>
<clipPath id="clip0_262_627">
<rect width="19" height="19" fill="white"/>
</clipPath>
</defs>
</svg>
