<svg width="78" height="67" viewBox="0 0 78 67" fill="none" xmlns="http://www.w3.org/2000/svg">
<path d="M30.2148 66.0587C30.2148 66.0587 18.5317 64.5253 11.5573 66.0953L5.30038 66.0953C5.30038 66.0953 3.47667 67.0531 2.60851 66.0535C0.452674 63.5885 -1.44096 56.9785 3.90783 51.4258C8.80798 46.3388 18.4743 44.7844 26.8762 45.1455C34.9809 45.4857 42.7245 48.7724 41.4426 53.7181C40.1608 58.6637 30.2148 66.0587 30.2148 66.0587Z" fill="#90CAF9"/>
<path opacity="0.1" d="M30.4769 63.7977C30.4769 63.7977 37.9232 56.4708 38.0514 52.9434C38.1796 49.416 29.9408 47.668 24.8309 47.3436C16.9184 46.8202 11.9484 48.249 8.62721 52.6242C5.30606 56.9994 30.4769 63.7977 30.4769 63.7977Z" fill="black"/>
<path d="M31.019 63.1016C27.4881 64.5722 19.9485 60.6418 16.4991 56.9784C16.2661 56.7219 16.068 53.6498 15.6368 49.9288C15.363 47.6679 15.0017 45.1611 14.4715 42.8897C14.3666 42.4239 31.0947 43.4445 31.0947 43.4445C31.0947 43.4445 30.6228 48.4843 31.5492 52.4304C31.6235 52.7424 31.7308 53.0474 31.8696 53.3411C31.8696 53.3829 31.9104 53.4353 31.9279 53.4928C32.6388 55.199 34.4333 61.6728 31.019 63.1016Z" fill="#EB9481"/>
<path d="M15.4739 42.7641C17.0762 46.4642 21.8424 55.2461 30.3317 53.8644C30.8769 53.7807 31.413 53.6546 31.934 53.4876C31.9199 53.4355 31.9004 53.3847 31.8757 53.3358C31.7404 53.0428 31.6331 52.7399 31.5553 52.4304C30.6289 48.4739 31.1066 43.434 31.1066 43.434C31.1066 43.434 19.0398 42.6908 15.4739 42.7641Z" fill="#263238"/>
<path d="M9.46059 25.1535C8.48755 30.4655 13.679 44.842 18.2005 47.6576C24.767 51.7188 34.4275 51.0228 38.0108 44.1564C41.4718 37.4994 34.3284 18.8628 29.37 16.4187C22.0576 12.8076 10.8998 17.3084 9.46059 25.1535Z" fill="#EB9481"/>
<path d="M25.5128 31.5384C23.7648 31.978 24.8602 35.1076 26.4916 34.6785C28.1231 34.2493 26.9927 31.1772 25.5128 31.5384Z" fill="#263238"/>
<path d="M33.5359 29.2408C35.2314 28.6285 36.4492 31.7163 34.8993 32.2867C33.3494 32.8572 32.1142 29.759 33.5359 29.2408Z" fill="#263238"/>
<path d="M23.6776 30.8893C24.1358 30.7062 24.5831 30.5018 25.0177 30.277C25.5224 30.1191 25.956 29.8178 26.253 29.4187C26.317 29.2768 26.3271 29.1199 26.2818 28.9723C26.2365 28.8247 26.1383 28.6947 26.0024 28.6023C25.7036 28.4543 25.3662 28.3807 25.0252 28.3889C24.6841 28.3972 24.3516 28.4871 24.0622 28.6494C23.4194 28.8992 22.9025 29.3542 22.6113 29.9263C22.5535 30.0604 22.5402 30.2066 22.573 30.3473C22.6058 30.4879 22.6833 30.6171 22.7962 30.719C22.909 30.8209 23.0523 30.8912 23.2088 30.9215C23.3652 30.9517 23.5281 30.9405 23.6776 30.8893Z" fill="#263238"/>
<path d="M34.3227 26.4984C33.8253 26.5463 33.3255 26.5707 32.8253 26.5716C32.2996 26.6632 31.7551 26.597 31.2754 26.3832C31.1402 26.2891 31.0435 26.1575 31.0003 26.0089C30.9571 25.8603 30.9698 25.703 31.0365 25.5616C31.2135 25.2998 31.465 25.0852 31.7651 24.9399C32.0652 24.7945 32.403 24.7237 32.7437 24.7347C33.4404 24.6607 34.1428 24.823 34.7131 25.19C34.8387 25.2794 34.9325 25.3999 34.9828 25.5366C35.0332 25.6733 35.0379 25.8203 34.9964 25.9594C34.9549 26.0984 34.869 26.2236 34.7493 26.3194C34.6296 26.4151 34.4813 26.4774 34.3227 26.4984Z" fill="#263238"/>
<path d="M28.257 41.7595C28.5748 41.9748 28.9662 42.084 29.364 42.0682C29.7645 41.9468 30.1319 41.7506 30.4419 41.4925C30.4485 41.4882 30.4565 41.4857 30.4647 41.4855C30.4729 41.4853 30.481 41.4873 30.4879 41.4912C30.4948 41.4952 30.5002 41.5009 30.5035 41.5077C30.5067 41.5145 30.5076 41.5219 30.506 41.5292C30.4212 41.7623 30.2684 41.9707 30.0634 42.1327C29.8585 42.2947 29.6089 42.4044 29.3407 42.4503C29.1 42.4638 28.8603 42.4122 28.6525 42.3021C28.4448 42.192 28.2786 42.0285 28.1754 41.8327C28.1288 41.7804 28.2045 41.7385 28.257 41.7595Z" fill="#263238"/>
<path d="M28.3617 38.5303C28.7724 38.8356 29.2488 39.0615 29.7611 39.1939C30.2734 39.3263 30.8106 39.3623 31.3391 39.2996C31.8007 39.249 32.2519 39.1397 32.6792 38.9751C32.7641 38.9511 32.8461 38.9195 32.924 38.8809L33.1512 38.7763C33.2051 38.7502 33.248 38.7089 33.2732 38.6588C33.2985 38.6087 33.3047 38.5525 33.291 38.4989C33.2805 38.464 33.2648 38.4306 33.2444 38.3995L33.2153 38.3157C32.9706 37.5621 32.487 36.4474 32.487 36.4474C32.8424 36.4997 34.6137 36.6829 34.4505 36.2956C33.0929 33.1293 31.5838 29.6019 29.4863 26.7025C29.4802 26.6912 29.4716 26.6811 29.4611 26.6727C29.4506 26.6643 29.4384 26.6579 29.4252 26.6537C29.4119 26.6496 29.3979 26.6479 29.3839 26.6486C29.3699 26.6493 29.3562 26.6526 29.3435 26.6581C29.3309 26.6636 29.3196 26.6712 29.3103 26.6806C29.301 26.6901 29.2938 26.701 29.2892 26.713C29.2846 26.7249 29.2827 26.7375 29.2835 26.75C29.2843 26.7626 29.2879 26.7749 29.294 26.7863C30.4593 29.8793 32.2364 32.7682 33.4658 35.856C32.8338 35.7767 32.1926 35.7767 31.5605 35.856C31.4557 35.924 32.5394 37.9965 32.6151 38.3419C32.6171 38.354 32.6171 38.3664 32.6151 38.3785C31.275 38.9385 30.0864 38.86 28.4317 38.4047C28.3326 38.3838 28.2685 38.4727 28.3617 38.5303Z" fill="#263238"/>
<path d="M32.056 38.7397C31.7895 39.4029 31.3357 39.9926 30.7392 40.451C30.4092 40.6953 30.0009 40.8383 29.5739 40.8592C28.6416 40.9011 28.3678 40.1998 28.3095 39.5456C28.2834 39.1959 28.303 38.8446 28.3678 38.4989C29.5379 38.9276 30.8292 39.0119 32.056 38.7397Z" fill="#263238"/>
<path d="M30.7391 40.451C30.4091 40.6953 30.0008 40.8383 29.5738 40.8593C28.6416 40.9011 28.3677 40.1998 28.3094 39.5456C29.2592 39.3677 30.3721 39.666 30.7391 40.451Z" fill="#FF98B9"/>
<path d="M15.7883 32.9827C16.4874 29.8426 13.8713 25.0853 15.3396 23.5624C18.5209 20.2496 26.6723 24.9702 31.7239 24.4154C36.6241 23.8921 37.8593 20.8619 36.4668 17.3973C35.0742 13.9327 31.3569 11.9126 25.7575 11.8131C19.9659 11.7032 15.0774 14.3566 12.4962 16.2983C12.4962 16.2983 13.4751 14.3775 12.9332 13.8751C12.3914 13.3727 10.2414 15.3614 9.61209 16.1779C9.16315 16.8746 8.8591 17.639 8.7148 18.4335C7.96042 18.3529 7.19703 18.3705 6.44826 18.4859C5.2072 18.6533 3.76804 19.7105 3.7156 19.9827C3.66316 20.2548 5.46357 20.2548 6.72794 20.1711C6.72794 20.1711 4.79934 23.217 5.18389 25.5878C5.56845 27.9585 11.3018 38.7762 12.3098 38.7867C13.6033 38.7919 15.5028 34.2492 15.7883 32.9827Z" fill="#263238"/>
<path d="M7.17656 19.8203C7.21152 19.7942 7.28143 19.8203 7.24648 19.8779C6.15629 20.8934 5.40357 22.1622 5.07317 23.5414C4.79945 25.1986 5.02271 26.8913 5.71992 28.4452C6.93767 31.4806 9.04106 34.1131 10.9289 36.8188C10.9813 36.8973 10.8356 36.9811 10.7774 36.9078C8.56911 34.1497 6.30257 31.1509 5.15474 27.88C4.17587 25.1114 4.4439 21.7568 7.17656 19.8203Z" fill="#263238"/>
<path d="M14.9842 22.4215C16.4452 22.0872 17.963 22.002 19.459 22.1703C20.8865 22.3273 22.18 22.9658 23.5376 23.4263C26.5092 24.473 29.7138 25.1691 32.9009 24.6196C32.9071 24.622 32.9125 24.626 32.9162 24.6312C32.9199 24.6363 32.9219 24.6422 32.9219 24.6484C32.9219 24.6545 32.9199 24.6605 32.9162 24.6656C32.9125 24.6707 32.9071 24.6747 32.9009 24.6772C29.9876 25.347 27.0219 24.8917 24.2485 24.023C22.8501 23.5886 21.4867 22.8873 20.0358 22.6047C18.3927 22.2854 16.6972 22.5 15.0483 22.657C15.0135 22.6646 14.9768 22.6596 14.9462 22.6429C14.9156 22.6262 14.8936 22.5993 14.8851 22.568C14.8766 22.5368 14.8823 22.5038 14.9009 22.4763C14.9195 22.4489 14.9494 22.4291 14.9842 22.4215Z" fill="#263238"/>
<path d="M15.3336 14.6968C17.1911 13.5828 19.2158 12.7123 21.3466 12.1114C23.3729 11.4785 25.5058 11.1651 27.651 11.1851C31.3567 11.3002 34.9866 12.9907 36.3093 16.2407C37.0232 17.9028 37.0232 19.7441 36.3093 21.4062C36.2964 21.4251 36.2765 21.4394 36.2531 21.4465C36.2297 21.4535 36.2043 21.4529 36.1813 21.4448C36.1583 21.4367 36.1393 21.4215 36.1275 21.402C36.1157 21.3825 36.112 21.3599 36.117 21.3381C36.6824 19.8218 36.6867 18.1819 36.129 16.6633C35.5714 15.1447 34.4819 13.8288 33.0231 12.9122C29.7194 10.9391 25.5185 11.2374 21.8827 12.1952C19.6158 12.8302 17.4287 13.6756 15.3569 14.7177C15.3569 14.7177 15.322 14.7073 15.3336 14.6968Z" fill="#263238"/>
<path d="M26.2933 38.97C25.3708 39.1279 24.4173 39.05 23.5416 38.7452C22.6659 38.4404 21.903 37.9209 21.3398 37.2458C20.7765 36.5707 20.4356 35.7672 20.3558 34.9267C20.2759 34.0861 20.4603 33.2423 20.8881 32.4913C21.3158 31.7403 21.9697 31.1122 22.7752 30.6785C23.5808 30.2448 24.5057 30.023 25.4448 30.0382C26.3838 30.0534 27.2992 30.3051 28.0869 30.7646C28.8745 31.2241 29.5027 31.873 29.9 32.6374C30.4589 33.7205 30.5177 34.9583 30.0635 36.0802C29.6093 37.2021 28.679 38.1169 27.4761 38.6245C27.0997 38.7841 26.7023 38.9002 26.2933 38.97ZM24.5454 30.7115C24.1907 30.771 23.8461 30.8713 23.5199 31.0098C22.5195 31.4303 21.7352 32.1775 21.3267 33.0992C20.9182 34.021 20.9163 35.0479 21.3213 35.9709C21.7263 36.8939 22.5078 37.6435 23.5066 38.067C24.5054 38.4906 25.6464 38.5562 26.6971 38.2505C27.7479 37.9448 28.6295 37.2909 29.1622 36.4218C29.6949 35.5527 29.8388 34.534 29.5645 33.5729C29.2902 32.6119 28.6184 31.781 27.6859 31.2493C26.7534 30.7177 25.6303 30.5253 24.5454 30.7115Z" fill="#90CAF9"/>
<path d="M37.2532 35.814C35.3654 36.1385 33.2911 34.6941 32.5045 32.4541C32.1072 31.3878 32.0929 30.2362 32.4637 29.1622C32.5905 28.6929 32.85 28.261 33.2171 27.9082C33.5842 27.5553 34.0465 27.2936 34.5593 27.1484C35.072 27.0031 35.6178 26.9792 36.1439 27.0789C36.6699 27.1787 37.1584 27.3987 37.562 27.7178C38.5495 28.4088 39.2709 29.3606 39.6246 30.4392C40.4578 32.8048 39.5372 35.186 37.5737 35.7408C37.4683 35.7701 37.3613 35.7946 37.2532 35.814ZM35.01 27.6654C34.925 27.6791 34.8412 27.6983 34.7594 27.723C34.3579 27.8553 33.9976 28.0721 33.7086 28.3553C33.4197 28.6385 33.2106 28.9799 33.0988 29.3506C32.7739 30.3045 32.7902 31.3259 33.1455 32.271C33.8621 34.3225 35.7558 35.6256 37.3697 35.1651C38.9837 34.7045 39.7003 32.6687 38.9895 30.6172C38.6771 29.6616 38.0393 28.8179 37.1658 28.2045C36.8684 27.9842 36.5229 27.8224 36.1515 27.7296C35.7802 27.6367 35.3913 27.6149 35.01 27.6654Z" fill="#90CAF9"/>
<path d="M29.9118 33.1764L29.3291 32.8571C29.8593 32.1035 31.281 30.8893 32.825 31.6848L32.4988 32.2082C31.1353 31.4964 29.9584 33.1083 29.9118 33.1764Z" fill="#90CAF9"/>
<path d="M8.98287 40.3097L8.32446 40.2102C8.3769 39.9329 8.90712 37.4888 10.2414 36.8765C11.5058 36.306 20.333 34.6051 20.7292 34.5319L20.8749 35.1233C18.3403 35.6047 11.5524 36.9707 10.5619 37.4155C9.6471 37.8185 9.11105 39.645 8.98287 40.3097Z" fill="#90CAF9"/>
<path d="M14.757 36.7456C14.757 36.7456 10.2415 32.5065 8.04484 34.0242C5.84822 35.5419 9.79281 42.0472 12.7935 42.5967C13.1701 42.6891 13.5635 42.7126 13.9503 42.6657C14.3372 42.6188 14.7096 42.5026 15.0455 42.3239C15.3814 42.1453 15.6739 41.9078 15.9056 41.6256C16.1373 41.3434 16.3035 41.0223 16.3943 40.6813L14.757 36.7456Z" fill="#EB9481"/>
<path d="M9.23354 35.8873C9.22596 35.89 9.21947 35.8947 9.2149 35.9007C9.21033 35.9068 9.20789 35.914 9.20789 35.9213C9.20789 35.9286 9.21033 35.9358 9.2149 35.9418C9.21947 35.9479 9.22596 35.9526 9.23354 35.9553C11.3311 36.4001 12.6596 37.9074 13.6792 39.5089C12.98 38.9332 12.1177 38.6872 11.2437 39.4513C11.1971 39.4879 11.2437 39.556 11.3136 39.535C11.6441 39.3883 12.0171 39.3372 12.3813 39.3887C12.7454 39.4403 13.0829 39.5919 13.3471 39.8229C13.7882 40.2094 14.1791 40.6395 14.5124 41.1051C14.6348 41.2464 14.9377 41.1051 14.8387 40.9481C14.8408 40.9342 14.8408 40.9201 14.8387 40.9062C14.4774 38.6087 11.9779 35.7146 9.23354 35.8873Z" fill="#263238"/>
<path d="M30.4769 63.7977C30.4769 63.7977 18.6548 52.2578 7.46191 53.0428L10.1247 60.1918C10.1247 60.1918 16.6038 58.9619 30.2147 66.0586L30.4769 63.7977Z" fill="#90CAF9"/>
<path d="M42.1699 21.6559C42.7204 21.0079 43.2043 20.3062 43.6144 19.5614C44.3366 17.8137 43.116 15.6325 44.1199 14.0509C44.4738 13.4948 45.0588 13.112 45.4055 12.5487C45.7231 11.8864 45.9024 11.1664 45.9327 10.4326C46.1895 8.7051 46.8169 7.05361 47.7718 5.59134C48.7267 4.12907 49.9865 2.89061 51.4649 1.96088L52.1294 7.61588C53.3745 13.7266 53.8236 19.9727 53.4655 26.1987L43.6938 24.7542C43.0563 24.7307 42.4497 24.4737 41.9894 24.032C41.4477 23.3459 41.6933 22.3781 42.1699 21.6559Z" fill="#263238"/>
<path opacity="0.4" d="M71 49.5879C70.6765 48.3101 70.5828 47.018 70.7205 45.7302C70.9713 40.3915 71 34.7307 70.7205 32.8922C70.613 32.1655 70.1472 30.1423 66.743 29.5766C63.3388 29.011 58.3435 28.9874 49.3564 29.0031C47.4277 30.9033 45.765 32.881 44.3827 34.9193C44.3827 34.9193 43.3937 39.0126 42.7272 41.6525L41 47.6433C42.8562 49.3168 53.3483 50.7271 71 49.5879Z" fill="#90CAF9"/>
<path d="M61.9806 20.4065C61.3017 22.2482 61.5328 22.0604 61.5978 24.0176C61.67 26.1409 61.7639 29.0009 61.7639 29.0009C61.475 29.5426 59.3806 30.9437 57.1561 31.6587C53.7834 32.7421 52.5845 31.8682 53.0178 29.0515C53.2076 28.1664 53.1234 27.2445 52.7764 26.4085C52.4293 25.5724 51.8359 24.8619 51.075 24.3715C47.4711 21.8293 61.9806 20.4065 61.9806 20.4065Z" fill="#EBB373"/>
<path opacity="0.2" d="M61.9806 20.4065C61.4027 21.7123 61.002 23.0895 60.7889 24.5015C59.0339 27.477 55.9789 28.257 53.0683 28.5748C53.1478 27.3832 52.8156 25.267 51.0822 24.3426C47.4711 21.8293 61.9806 20.4065 61.9806 20.4065Z" fill="black"/>
<path d="M50.7932 2.7337C50.7932 2.7337 46.7705 5.32648 47.7455 10.0426C48.7205 14.7587 56.0221 6.23647 56.0221 6.23647L50.7932 2.7337Z" fill="#263238"/>
<path d="M67.4188 14.3181C64.8188 20.1609 63.6416 23.707 59.1205 25.5415C52.3172 28.2931 45.0011 22.5226 45.5788 15.9576C46.0627 10.0426 50.2444 1.51312 57.705 1.51312C65.1655 1.51312 70.0116 8.48979 67.4188 14.3181Z" fill="#EBB373"/>
<path d="M55.9212 9.37815C55.8876 9.30861 55.8751 9.23081 55.885 9.15426C55.9121 9.05829 55.9755 8.97667 56.0619 8.92676C56.1482 8.87685 56.2506 8.8626 56.3473 8.88704C56.9279 9.02466 57.4661 9.30181 57.9154 9.69446C58.3647 10.0871 58.7115 10.5834 58.9256 11.1404C58.9415 11.1864 58.9481 11.235 58.9451 11.2836C58.942 11.3321 58.9294 11.3796 58.9079 11.4233C58.8864 11.4669 58.8565 11.5059 58.8199 11.5379C58.7832 11.5699 58.7406 11.5944 58.6945 11.6098C58.5996 11.638 58.4976 11.629 58.4091 11.5848C58.3206 11.5405 58.2522 11.4643 58.2178 11.3715C58.0371 10.9324 57.7529 10.5436 57.3895 10.238C57.026 9.93243 56.5942 9.71921 56.1306 9.61648C56.0809 9.59365 56.0366 9.56064 56.0006 9.51958C55.9645 9.47852 55.9374 9.43033 55.9212 9.37815Z" fill="#263238"/>
<path d="M48.4028 6.95144C48.3328 6.91637 48.2749 6.861 48.2367 6.79255C48.2012 6.69863 48.204 6.59452 48.2445 6.50265C48.2851 6.41078 48.3601 6.33853 48.4534 6.30144C49.0053 6.07417 49.6039 5.98308 50.1985 6.03588C50.7931 6.08867 51.3662 6.28381 51.8695 6.60478C51.9094 6.63226 51.9434 6.66733 51.9697 6.70798C51.996 6.74863 52.014 6.79407 52.0228 6.8417C52.0315 6.88933 52.0307 6.9382 52.0205 6.98554C52.0104 7.03287 51.9909 7.07773 51.9634 7.11755C51.902 7.19497 51.814 7.24675 51.7165 7.26277C51.6191 7.2788 51.5191 7.25792 51.4362 7.20422C51.0302 6.95447 50.5698 6.80692 50.0943 6.77421C49.6188 6.74151 49.1425 6.82462 48.7062 7.01644C48.654 7.0299 48.5995 7.03105 48.5468 7.01977C48.4942 7.00848 48.4449 6.98509 48.4028 6.95144Z" fill="#263238"/>
<path d="M51.0316 13.502L48.8649 14.3831C48.8649 14.3831 49.1249 15.2498 50.7788 15.9215L51.0316 13.502Z" fill="#E4873E"/>
<path d="M55.6684 3.44872C55.6684 3.44872 59.5034 0.177058 60.9117 0.487613C62.6007 0.915645 64.1825 1.68923 65.5574 2.75953C66.9322 3.82984 68.0702 5.1736 68.8995 6.70595C71.1239 11.0393 71.0662 19.3737 71.0084 20.7026C70.8928 23.8443 70.9361 27.9971 70.9361 27.9971L61.0851 27.6865C59.8067 24.8698 62.255 17.4165 61.2295 16.3476C58.4706 13.4587 57.4451 10.4471 56.6434 8.80039C55.7767 7.00928 55.5962 3.78816 55.5962 3.78816L50.8078 4.43094L48.4534 6.3015C49.0973 5.05251 49.821 3.84631 50.62 2.69039C51.9634 0.740393 57.1201 -0.342949 59.1495 0.0976069C61.1789 0.538162 60.8106 1.18817 60.8106 1.18817L55.6684 3.44872Z" fill="#263238"/>
<path d="M61.0489 16.6437C61.0489 16.6437 63.4106 13.5887 64.9056 15.127C66.4006 16.6654 64.5733 22.3131 61.9372 21.627C59.3011 20.9409 59.3805 18.182 61.0489 16.6437Z" fill="#EBB373"/>
<path d="M49.6377 17.8064C49.6085 18.7049 49.7735 19.5992 50.1216 20.4281H50.5982C52.7216 20.5147 53.7471 19.8503 54.2094 19.0775C54.5609 18.4764 54.6888 17.7704 54.5705 17.0842C53.4077 17.7125 51.4288 17.8064 50.3383 17.8064C50.1049 17.8193 49.871 17.8193 49.6377 17.8064Z" fill="#263238"/>
<path d="M50.36 17.8209L50.5261 18.6009C52.5411 18.6732 53.9711 18.4565 54.6283 17.8787C54.6474 17.6371 54.6328 17.3941 54.585 17.1565C53.4511 17.7487 51.4722 17.8282 50.36 17.8209Z" fill="white"/>
<path d="M50.6056 20.4642C52.7289 20.5581 53.7545 19.8865 54.2167 19.1209C53.4014 19.1014 52.5892 19.2286 51.8189 19.4965C51.3263 19.6896 50.9034 20.0269 50.6056 20.4642Z" fill="#A24E3F"/>
<path opacity="0.2" d="M62.3706 20.1609C62.3418 20.1607 62.3135 20.1533 62.2883 20.1394C62.2631 20.1256 62.2417 20.1056 62.2261 20.0814C62.2123 20.062 62.2024 20.0401 62.1971 20.0168C62.1917 19.9936 62.1911 19.9695 62.1951 19.946C62.1991 19.9225 62.2078 19.9001 62.2205 19.8799C62.2333 19.8598 62.2499 19.8423 62.2694 19.8287C63.165 19.1859 63.7717 17.8642 63.2444 16.9398C63.2205 16.8976 63.2143 16.8477 63.2271 16.801C63.24 16.7543 63.2709 16.7146 63.3131 16.6906C63.3552 16.6667 63.4051 16.6604 63.4518 16.6733C63.4986 16.6862 63.5383 16.7171 63.5622 16.7592C64.205 17.9148 63.4972 19.417 62.4789 20.1464C62.4446 20.1604 62.4073 20.1654 62.3706 20.1609Z" fill="black"/>
<path d="M54.9822 13.3648C54.8522 13.9859 54.4044 14.4265 53.9927 14.3326C53.5811 14.2387 53.3861 13.6609 53.5016 13.0398C53.6172 12.4187 54.0866 11.9781 54.4983 12.072C54.91 12.1659 55.0977 12.7437 54.9822 13.3648Z" fill="#263238"/>
<path d="M49.1901 10.9886C49.0528 11.6098 48.6123 12.0503 48.2078 11.9564C47.8034 11.8625 47.5939 11.2775 47.7167 10.6564C47.8395 10.0353 48.2945 9.60198 48.6989 9.68865C49.1034 9.77531 49.3201 10.3675 49.1901 10.9886Z" fill="#263238"/>
<path d="M59.6478 0.783693C61.3017 -0.0901961 63.389 0.516469 64.949 1.54925C66.509 2.58202 67.7873 4.01925 69.3906 5.00147C70.5895 5.72369 72.0701 6.33036 72.5684 7.65202C73.0162 8.82924 72.4962 10.1726 72.7923 11.4004C73.3412 13.7259 76.5117 14.737 76.9306 17.0915C77.2845 19.0342 75.5367 20.9409 76.0062 22.8692C76.3167 24.1187 77.5373 25.1515 77.3495 26.4226C77.2508 26.8408 77.0389 27.2238 76.737 27.5295C76.4351 27.8353 76.0548 28.052 75.6378 28.1559C74.7994 28.3498 73.9316 28.3817 73.0812 28.2498L63.909 27.4337C63.909 27.4337 66.3356 19.1209 66.5812 19.2437C66.8267 19.3665 64.0173 10.2665 64.0173 10.2665L59.6478 0.783693Z" fill="#263238"/>
</svg>
