<svg width="48" height="48" viewBox="0 0 48 48" fill="none" xmlns="http://www.w3.org/2000/svg">
<path d="M40.319 40.0803C40.319 41.6638 39.0225 42.9598 37.439 42.9598H15.839C14.2555 42.9598 12.959 41.6638 12.959 40.0803V13.2003C12.959 11.6158 14.2555 10.3203 15.839 10.3203H37.4399C39.0239 10.3203 40.3199 11.6163 40.3199 13.2003L40.319 40.0803Z" fill="#DADEE0"/>
<path d="M12.9597 13.1991C12.9597 11.6146 14.2562 10.3191 15.8397 10.3191H35.0406V7.91906C35.0406 6.33506 33.7446 5.03906 32.1606 5.03906H10.5597C8.97617 5.03906 7.67969 6.33506 7.67969 7.91906V34.7991C7.67969 36.3826 8.97617 37.6786 10.5597 37.6786H12.9597V13.1991Z" fill="#1BB7EA"/>
<path d="M19.6809 22.0759H34.08C34.4774 22.0759 34.8 21.7534 34.8 21.3559C34.8 20.958 34.4774 20.6359 34.08 20.6359H19.6809C19.2835 20.6359 18.9609 20.958 18.9609 21.3559C18.9609 21.7534 19.2835 22.0759 19.6809 22.0759ZM19.6809 17.2759H34.08C34.4774 17.2759 34.8 16.9534 34.8 16.5559C34.8 16.158 34.4774 15.8359 34.08 15.8359H19.6809C19.2835 15.8359 18.9609 16.158 18.9609 16.5559C18.9609 16.9534 19.2835 17.2759 19.6809 17.2759ZM19.6809 26.8759H34.08C34.4774 26.8759 34.8 26.5534 34.8 26.1559C34.8 25.758 34.4774 25.4359 34.08 25.4359H19.6809C19.2835 25.4359 18.9609 25.758 18.9609 26.1559C18.9609 26.5534 19.2835 26.8759 19.6809 26.8759Z" fill="#A4ABB1"/>
<path d="M25.8084 34.9487C25.878 34.6689 25.9188 34.378 25.9188 34.0766C25.9188 32.0879 24.3069 30.4766 22.3188 30.4766C20.3306 30.4766 18.7188 32.0879 18.7188 34.0766C18.7188 36.0652 20.3306 37.6766 22.3188 37.6766C22.6202 37.6766 22.9111 37.6358 23.1904 37.5657L22.3188 34.0766L25.8084 34.9487Z" fill="#1BB7EA"/>
<path d="M25.8099 34.9503L22.3203 34.0781L23.192 37.5672C24.4784 37.2461 25.4888 36.2362 25.8099 34.9503Z" fill="#1F4254"/>
<path d="M35.074 32.3748C35.2008 32.5044 35.2795 32.681 35.2795 32.8763V37.1963C35.2795 37.5938 34.9569 37.9163 34.5595 37.9163C34.162 37.9163 33.8395 37.5938 33.8395 37.1963V34.4997L30.2856 30.9453V30.9472C30.4051 31.0759 30.4795 31.2468 30.4795 31.4364V37.1963C30.4795 37.5938 30.1569 37.9163 29.7595 37.9163C29.362 37.9163 29.0395 37.5938 29.0395 37.1963V35.7376L25.1246 31.8228C25.6209 32.4396 25.9195 33.2229 25.9195 34.0763C25.9195 34.3778 25.8782 34.6687 25.8091 34.9485C25.488 36.2349 24.478 37.2448 23.1916 37.5655C22.9123 37.6356 22.6214 37.6763 22.32 37.6763C21.4526 37.6763 20.6568 37.3692 20.0352 36.8584L26.136 42.9602H37.4395C39.023 42.9602 40.3195 41.6642 40.3195 40.0807V37.6202L35.074 32.3748Z" fill="#C7CED2"/>
<path d="M31.4391 34.3148V37.1948C31.4391 37.5923 31.7616 37.9148 32.1591 37.9148C32.5565 37.9148 32.8791 37.5923 32.8791 37.1948V34.3148C32.8791 33.9169 32.5565 33.5948 32.1591 33.5948C31.7616 33.5948 31.4391 33.9169 31.4391 34.3148ZM29.0391 31.4348V37.1948C29.0391 37.5923 29.3616 37.9148 29.7591 37.9148C30.1565 37.9148 30.4791 37.5923 30.4791 37.1948V31.4348C30.4791 31.0369 30.1565 30.7148 29.7591 30.7148C29.3616 30.7148 29.0391 31.0369 29.0391 31.4348ZM33.8391 32.8748V37.1948C33.8391 37.5923 34.1616 37.9148 34.5591 37.9148C34.9565 37.9148 35.2791 37.5923 35.2791 37.1948V32.8748C35.2791 32.4769 34.9565 32.1548 34.5591 32.1548C34.1616 32.1548 33.8391 32.4769 33.8391 32.8748Z" fill="#1F4254"/>
</svg>
