<svg width="139" height="101" viewBox="0 0 139 101" fill="none" xmlns="http://www.w3.org/2000/svg">
<path d="M138.405 80.1661C138.405 76.7809 136.679 73.7251 133.893 71.53C133.983 71.0854 134.029 70.6324 134.028 70.1782C134.028 65.6667 129.556 62.0043 123.995 61.9003C122.303 57.5447 117.266 54.3906 111.305 54.3906C106.55 54.3906 102.383 56.4067 100.025 59.4279C99.4307 59.3443 98.8315 59.3019 98.2316 59.3008C92.5522 59.3008 87.95 63.0036 87.95 67.5787C87.9509 68.3557 88.0865 69.1263 88.3505 69.8547C84.7296 71.8015 82.3496 75.1173 82.3496 78.8779C82.3496 82.5056 84.5604 85.7174 87.9557 87.6873C87.9557 87.7219 87.9557 87.7624 87.9557 87.8028C87.9557 92.2393 92.2928 95.8901 97.7353 96.0692C100.741 99.073 105.344 100.997 110.498 100.997C113.895 101.027 117.241 100.142 120.199 98.4318C120.663 98.4852 121.13 98.5122 121.598 98.5127C127.271 98.5127 131.874 94.8041 131.874 90.2348V90.1481C135.816 87.9703 138.405 84.3079 138.405 80.1661Z" fill="#407BFF"/>
<path d="M64.4054 74.4316C64.4054 75.1883 63.5481 75.8006 62.4935 75.8006C61.4388 75.8006 60.5815 75.1883 60.5815 74.4316C60.5815 73.6748 61.4332 73.0625 62.4935 73.0625C63.5538 73.0625 64.4054 73.6748 64.4054 74.4316Z" fill="#407BFF"/>
<path d="M79.3401 73.4901C79.3401 75.6795 76.8529 77.4529 73.7848 77.4529C70.7167 77.4529 68.2295 75.6795 68.2295 73.4901C68.2295 71.3008 70.7167 69.5273 73.7848 69.5273C76.8529 69.5273 79.3401 71.3008 79.3401 73.4901Z" fill="#407BFF"/>
<path opacity="0.7" d="M138.405 80.1661C138.405 76.7809 136.679 73.7251 133.893 71.53C133.983 71.0854 134.029 70.6324 134.028 70.1782C134.028 65.6667 129.556 62.0043 123.995 61.9003C122.303 57.5447 117.266 54.3906 111.305 54.3906C106.55 54.3906 102.383 56.4067 100.025 59.4279C99.4307 59.3443 98.8315 59.3019 98.2316 59.3008C92.5522 59.3008 87.95 63.0036 87.95 67.5787C87.9509 68.3557 88.0865 69.1263 88.3505 69.8547C84.7296 71.8015 82.3496 75.1173 82.3496 78.8779C82.3496 82.5056 84.5604 85.7174 87.9557 87.6873C87.9557 87.7219 87.9557 87.7624 87.9557 87.8028C87.9557 92.2393 92.2928 95.8901 97.7353 96.0692C100.741 99.073 105.344 100.997 110.498 100.997C113.895 101.027 117.241 100.142 120.199 98.4318C120.663 98.4852 121.13 98.5122 121.598 98.5127C127.271 98.5127 131.874 94.8041 131.874 90.2348V90.1481C135.816 87.9703 138.405 84.3079 138.405 80.1661Z" fill="white"/>
<path opacity="0.7" d="M64.4054 74.4316C64.4054 75.1883 63.5481 75.8006 62.4935 75.8006C61.4388 75.8006 60.5815 75.1883 60.5815 74.4316C60.5815 73.6748 61.4332 73.0625 62.4935 73.0625C63.5538 73.0625 64.4054 73.6748 64.4054 74.4316Z" fill="white"/>
<path opacity="0.7" d="M79.3401 73.4901C79.3401 75.6795 76.8529 77.4529 73.7848 77.4529C70.7167 77.4529 68.2295 75.6795 68.2295 73.4901C68.2295 71.3008 70.7167 69.5273 73.7848 69.5273C76.8529 69.5273 79.3401 71.3008 79.3401 73.4901Z" fill="white"/>
<path d="M103.85 29.6689C103.85 25.5213 100.985 21.9628 96.8731 20.3743C97.0133 19.7489 97.0852 19.1096 97.0875 18.468C97.0875 13.5116 92.9872 9.38706 87.5616 8.47435C83.8562 3.37934 77.4098 0 70.0779 0C62.746 0 56.3955 3.3158 52.6732 8.33571C46.7005 8.83251 42.0363 13.1766 42.0363 18.468C42.0366 19.4255 42.1929 20.3763 42.4988 21.2812C39.4194 23.1182 37.4229 26.1914 37.4229 29.6689C37.4229 34.5502 41.3708 38.6227 46.6892 39.6163C47.5014 44.5611 52.3912 48.3622 58.33 48.3679C62.2843 51.2065 67.0013 52.7182 71.83 52.6944C76.6588 52.6706 81.3613 51.1125 85.2888 48.2351C90.438 47.5534 94.4818 43.9892 95.153 39.5008C100.144 38.3454 103.85 34.3884 103.85 29.6689Z" fill="#407BFF"/>
<path d="M62.4457 63.0908C65.6073 63.0908 68.1702 61.151 68.1702 58.7583C68.1702 56.3655 65.6073 54.4258 62.4457 54.4258C59.2841 54.4258 56.7212 56.3655 56.7212 58.7583C56.7212 61.151 59.2841 63.0908 62.4457 63.0908Z" fill="#407BFF"/>
<path d="M58.07 66.6308C58.07 67.3817 57.2127 67.9998 56.158 67.9998C55.1034 67.9998 54.2461 67.3817 54.2461 66.6308C54.2461 65.8798 55.1034 65.2617 56.158 65.2617C57.2127 65.2617 58.07 65.874 58.07 66.6308Z" fill="#407BFF"/>
<path opacity="0.7" d="M103.85 29.6689C103.85 25.5213 100.985 21.9628 96.8731 20.3743C97.0133 19.7489 97.0852 19.1096 97.0875 18.468C97.0875 13.5116 92.9872 9.38706 87.5616 8.47435C83.8562 3.37934 77.4098 0 70.0779 0C62.746 0 56.3955 3.3158 52.6732 8.33571C46.7005 8.83251 42.0363 13.1766 42.0363 18.468C42.0366 19.4255 42.1929 20.3763 42.4988 21.2812C39.4194 23.1182 37.4229 26.1914 37.4229 29.6689C37.4229 34.5502 41.3708 38.6227 46.6892 39.6163C47.5014 44.5611 52.3912 48.3622 58.33 48.3679C62.2843 51.2065 67.0013 52.7182 71.83 52.6944C76.6588 52.6706 81.3613 51.1125 85.2888 48.2351C90.438 47.5534 94.4818 43.9892 95.153 39.5008C100.144 38.3454 103.85 34.3884 103.85 29.6689Z" fill="white"/>
<path opacity="0.7" d="M62.4457 63.0908C65.6073 63.0908 68.1702 61.151 68.1702 58.7583C68.1702 56.3655 65.6073 54.4258 62.4457 54.4258C59.2841 54.4258 56.7212 56.3655 56.7212 58.7583C56.7212 61.151 59.2841 63.0908 62.4457 63.0908Z" fill="white"/>
<path opacity="0.7" d="M58.07 66.6308C58.07 67.3817 57.2127 67.9998 56.158 67.9998C55.1034 67.9998 54.2461 67.3817 54.2461 66.6308C54.2461 65.8798 55.1034 65.2617 56.158 65.2617C57.2127 65.2617 58.07 65.874 58.07 66.6308Z" fill="white"/>
<path d="M38.5014 60.1422C38.5014 61.725 36.8095 63.0306 34.7114 63.0306C32.6134 63.0306 30.9214 61.7481 30.9214 60.1422C30.9214 58.5363 32.6134 57.2539 34.7114 57.2539C36.8095 57.2539 38.5014 58.5594 38.5014 60.1422Z" fill="#407BFF"/>
<path d="M43.5675 65.3925C43.5675 66.1492 42.7159 66.7616 41.6556 66.7616C40.5953 66.7616 39.7437 66.1492 39.7437 65.3925C39.7437 64.6358 40.6009 64.0234 41.6556 64.0234C42.7102 64.0234 43.5675 64.63 43.5675 65.3925Z" fill="#407BFF"/>
<path opacity="0.7" d="M38.5014 60.1422C38.5014 61.725 36.8095 63.0306 34.7114 63.0306C32.6134 63.0306 30.9214 61.7481 30.9214 60.1422C30.9214 58.5363 32.6134 57.2539 34.7114 57.2539C36.8095 57.2539 38.5014 58.5594 38.5014 60.1422Z" fill="white"/>
<path opacity="0.7" d="M43.5675 65.3925C43.5675 66.1492 42.7159 66.7616 41.6556 66.7616C40.5953 66.7616 39.7437 66.1492 39.7437 65.3925C39.7437 64.6358 40.6009 64.0234 41.6556 64.0234C42.7102 64.0234 43.5675 64.63 43.5675 65.3925Z" fill="white"/>
<path d="M31.5142 49.3659C31.391 48.4162 31.0544 47.5087 30.5309 46.7149C30.0073 45.921 29.311 45.2624 28.4968 44.7908C28.5222 44.5354 28.5222 44.2779 28.4968 44.0225C28.2374 41.4923 25.519 39.7073 22.3945 39.9788C21.2044 37.6335 18.1927 36.1605 14.8483 36.5128C13.6525 36.6016 12.491 36.9611 11.4474 37.5655C10.4038 38.1699 9.50419 39.004 8.81355 40.0077C8.47478 39.9964 8.13565 40.008 7.79837 40.0424C4.61182 40.3832 2.24306 42.7343 2.5025 45.2991C2.54814 45.7344 2.66642 46.1584 2.85217 46.5527C0.934602 47.864 -0.2103 49.8627 0.0322161 51.977C0.274732 54.0912 1.66215 55.6798 3.6756 56.5983C3.67251 56.6193 3.67251 56.6408 3.6756 56.6618C3.92939 59.1516 6.56323 60.925 9.63134 60.7055C11.767 62.3284 14.4319 63.0444 17.0704 62.7042C18.9753 62.5204 20.7996 61.8272 22.3606 60.6939C22.6224 60.6994 22.8842 60.6879 23.1446 60.6593C26.3311 60.3184 28.6999 57.9673 28.4404 55.3967C28.4404 55.3967 28.4404 55.3967 28.4404 55.3505C30.5272 53.9006 31.7511 51.6939 31.5142 49.3659Z" fill="#407BFF"/>
<path opacity="0.7" d="M31.5142 49.3659C31.391 48.4162 31.0544 47.5087 30.5309 46.7149C30.0073 45.921 29.311 45.2624 28.4968 44.7908C28.5222 44.5354 28.5222 44.2779 28.4968 44.0225C28.2374 41.4923 25.519 39.7073 22.3945 39.9788C21.2044 37.6335 18.1927 36.1605 14.8483 36.5128C13.6525 36.6016 12.491 36.9611 11.4474 37.5655C10.4038 38.1699 9.50419 39.004 8.81355 40.0077C8.47478 39.9964 8.13565 40.008 7.79837 40.0424C4.61182 40.3832 2.24306 42.7343 2.5025 45.2991C2.54814 45.7344 2.66642 46.1584 2.85217 46.5527C0.934602 47.864 -0.2103 49.8627 0.0322161 51.977C0.274732 54.0912 1.66215 55.6798 3.6756 56.5983C3.67251 56.6193 3.67251 56.6408 3.6756 56.6618C3.92939 59.1516 6.56323 60.925 9.63134 60.7055C11.767 62.3284 14.4319 63.0444 17.0704 62.7042C18.9753 62.5204 20.7996 61.8272 22.3606 60.6939C22.6224 60.6994 22.8842 60.6879 23.1446 60.6593C26.3311 60.3184 28.6999 57.9673 28.4404 55.3967C28.4404 55.3967 28.4404 55.3967 28.4404 55.3505C30.5272 53.9006 31.7511 51.6939 31.5142 49.3659Z" fill="white"/>
<path d="M114.034 75.7273C114.141 74.185 112.906 73.0412 110.848 72.891C110.009 72.7819 109.157 72.8891 108.369 73.2029C107.581 73.5166 106.882 74.0269 106.336 74.6875L103.849 72.7581C105.501 70.7767 108.017 69.6849 111.378 69.9333C115.326 70.2222 117.841 72.244 117.621 75.4327C117.305 79.9269 112.675 80.002 112.444 83.2543L109.026 83.0059C109.291 78.9276 113.837 78.4828 114.034 75.7273ZM108.265 87.4077C108.333 86.8479 108.608 86.3363 109.034 85.9784C109.459 85.6204 110.003 85.4436 110.552 85.4844C111.102 85.5252 111.615 85.7804 111.986 86.1974C112.356 86.6145 112.557 87.1614 112.545 87.7254C112.477 88.2852 112.202 88.7969 111.776 89.1548C111.351 89.5127 110.807 89.6895 110.258 89.6487C109.708 89.608 109.195 89.3527 108.824 88.9357C108.454 88.5187 108.253 87.9717 108.265 87.4077Z" fill="#407BFF"/>
<path d="M74.8849 41.0526C74.8059 42.6296 72.6289 43.8023 70.0176 43.6637C67.4064 43.525 65.3534 42.1386 65.4324 40.5558C65.5113 38.973 67.6883 37.8061 70.2996 37.9448C72.9109 38.0834 74.9638 39.4698 74.8849 41.0526Z" fill="#263238"/>
<path d="M77.1849 35.9295C77.4538 35.696 77.6237 35.3646 77.6586 35.0052C77.7376 33.4571 74.5792 32.0302 70.6087 31.8223C66.6382 31.6143 63.3558 32.7061 63.2769 34.2543C63.2771 34.6136 63.4124 34.9591 63.6547 35.219C63.568 35.3682 63.5177 35.5366 63.5081 35.71C63.5092 36.0669 63.6469 36.4091 63.8916 36.6631C63.8008 36.8129 63.7484 36.9838 63.7393 37.1599C63.7397 37.3374 63.7754 37.513 63.8442 37.6759C63.9131 37.8387 64.0136 37.9855 64.1398 38.1073C64.0396 38.258 63.9812 38.4336 63.9706 38.6156C63.9728 38.793 64.0105 38.9681 64.0813 39.1301C64.1521 39.292 64.2545 39.4374 64.3823 39.5572C64.278 39.7088 64.2156 39.8864 64.2018 40.0713C64.1341 41.3595 66.7623 42.5438 70.0617 42.7171C73.361 42.8904 76.0964 41.9892 76.1584 40.6952C76.1645 40.511 76.1195 40.3287 76.0287 40.1695C76.1691 40.0648 76.2864 39.931 76.3729 39.7767C76.4594 39.6224 76.5131 39.4512 76.5306 39.2742C76.5399 39.0936 76.5009 38.9138 76.4178 38.7543C76.5544 38.6454 76.6682 38.5095 76.7525 38.3547C76.8368 38.1999 76.8898 38.0293 76.9085 37.8531C76.9144 37.6753 76.8776 37.4988 76.8014 37.339C76.9362 37.2282 77.0481 37.0909 77.1305 36.9351C77.2128 36.7794 77.2639 36.6083 77.2807 36.432C77.2884 36.2591 77.2555 36.0868 77.1849 35.9295Z" fill="#263238"/>
<path opacity="0.3" d="M77.1849 35.9295C77.4538 35.696 77.6237 35.3646 77.6586 35.0052C77.7376 33.4571 74.5792 32.0302 70.6087 31.8223C66.6382 31.6143 63.3558 32.7061 63.2769 34.2543C63.2771 34.6136 63.4124 34.9591 63.6547 35.219C63.568 35.3682 63.5177 35.5366 63.5081 35.71C63.5092 36.0669 63.6469 36.4091 63.8916 36.6631C63.8008 36.8129 63.7484 36.9838 63.7393 37.1599C63.7397 37.3374 63.7754 37.513 63.8442 37.6759C63.9131 37.8387 64.0136 37.9855 64.1398 38.1073C64.0396 38.258 63.9812 38.4336 63.9706 38.6156C63.9728 38.793 64.0105 38.9681 64.0813 39.1301C64.1521 39.292 64.2545 39.4374 64.3823 39.5572C64.278 39.7088 64.2156 39.8864 64.2018 40.0713C64.1341 41.3595 66.7623 42.5438 70.0617 42.7171C73.361 42.8904 76.0964 41.9892 76.1584 40.6952C76.1645 40.511 76.1195 40.3287 76.0287 40.1695C76.1691 40.0648 76.2864 39.931 76.3729 39.7767C76.4594 39.6224 76.5131 39.4512 76.5306 39.2742C76.5399 39.0936 76.5009 38.9138 76.4178 38.7543C76.5544 38.6454 76.6682 38.5095 76.7525 38.3547C76.8368 38.1999 76.8898 38.0293 76.9085 37.8531C76.9144 37.6753 76.8776 37.4988 76.8014 37.339C76.9362 37.2282 77.0481 37.0909 77.1305 36.9351C77.2128 36.7794 77.2639 36.6083 77.2807 36.432C77.2884 36.2591 77.2555 36.0868 77.1849 35.9295Z" fill="white"/>
<path d="M83.8347 22.4649C83.9442 20.2674 83.5095 18.0773 82.5709 16.0981C81.6323 14.1189 80.2204 12.4149 78.4663 11.1445C76.7123 9.8742 74.6731 9.07877 72.5384 8.8322C70.4037 8.58563 68.2428 8.89592 66.2566 9.73424C64.2704 10.5726 62.5234 11.9117 61.178 13.6271C59.8326 15.3424 58.9326 17.3784 58.5616 19.5457C58.1906 21.7129 58.3606 23.9411 59.0559 26.023C59.7512 28.1049 60.9491 29.9729 62.5384 31.4533C62.7935 31.6874 62.9886 31.9821 63.1066 32.3114C63.2247 32.6408 63.2619 32.9948 63.2152 33.3423C63.2124 33.3769 63.2124 33.4117 63.2152 33.4463C63.1362 35.0233 66.3453 36.4675 70.3778 36.6812C74.4104 36.8949 77.7436 35.7858 77.8225 34.2146V34.1106C77.8104 33.7556 77.8845 33.403 78.038 33.0844C78.1915 32.7658 78.4198 32.4912 78.7023 32.2852C80.2132 31.1385 81.457 29.663 82.3445 27.9649C83.2319 26.2669 83.7408 24.3885 83.8347 22.4649Z" fill="#407BFF"/>
<path opacity="0.3" d="M83.8347 22.4649C83.9442 20.2674 83.5095 18.0773 82.5709 16.0981C81.6323 14.1189 80.2204 12.4149 78.4663 11.1445C76.7123 9.8742 74.6731 9.07877 72.5384 8.8322C70.4037 8.58563 68.2428 8.89592 66.2566 9.73424C64.2704 10.5726 62.5234 11.9117 61.178 13.6271C59.8326 15.3424 58.9326 17.3784 58.5616 19.5457C58.1906 21.7129 58.3606 23.9411 59.0559 26.023C59.7512 28.1049 60.9491 29.9729 62.5384 31.4533C62.7935 31.6874 62.9886 31.9821 63.1066 32.3114C63.2247 32.6408 63.2619 32.9948 63.2152 33.3423C63.2124 33.3769 63.2124 33.4117 63.2152 33.4463C63.1362 35.0233 66.3453 36.4675 70.3778 36.6812C74.4104 36.8949 77.7436 35.7858 77.8225 34.2146V34.1106C77.8104 33.7556 77.8845 33.403 78.038 33.0844C78.1915 32.7658 78.4198 32.4912 78.7023 32.2852C80.2132 31.1385 81.457 29.663 82.3445 27.9649C83.2319 26.2669 83.7408 24.3885 83.8347 22.4649Z" fill="white"/>
<path d="M72.6945 34.6663H72.6607C72.641 34.6622 72.6224 34.6541 72.6058 34.6426C72.5892 34.631 72.5749 34.6162 72.5639 34.5991C72.5529 34.5819 72.5454 34.5627 72.5416 34.5425C72.5379 34.5223 72.5381 34.5015 72.5422 34.4814C72.5873 34.233 73.6702 28.5835 76.6988 26.5328L74.8151 26.4346C74.785 26.4329 74.7561 26.4221 74.732 26.4036C74.7079 26.3851 74.6897 26.3597 74.6798 26.3306L74.1158 24.7709L72.5253 27.7632C72.5117 27.7885 72.4916 27.8095 72.4673 27.8242C72.443 27.8389 72.4153 27.8466 72.3871 27.8466C72.3589 27.8466 72.3312 27.8389 72.3069 27.8242C72.2826 27.8095 72.2626 27.7885 72.249 27.7632L70.9518 24.5803L69.3782 27.2144C69.3665 27.2401 69.347 27.2612 69.3226 27.2747C69.2983 27.2883 69.2703 27.2934 69.2429 27.2895C69.2154 27.2896 69.1884 27.2814 69.1654 27.266C69.1423 27.2507 69.1242 27.2287 69.1132 27.2028L67.816 24.4301L67.0997 25.9435C67.087 25.9717 67.0661 25.9952 67.0398 26.0107C67.0136 26.0262 66.9833 26.033 66.9531 26.0302L64.9227 25.9262C65.7236 26.8967 68.2108 30.2529 68.0077 34.2793C68.0077 34.3206 67.9917 34.3603 67.9631 34.3895C67.9346 34.4188 67.8959 34.4352 67.8555 34.4352C67.8151 34.4352 67.7763 34.4188 67.7478 34.3895C67.7192 34.3603 67.7032 34.3206 67.7032 34.2793C67.9344 29.6579 64.4884 25.9147 64.4546 25.8742C64.4371 25.8489 64.4277 25.8186 64.4277 25.7876C64.4277 25.7565 64.4371 25.7263 64.4546 25.7009C64.4671 25.6722 64.4878 25.6479 64.5139 25.6314C64.5401 25.6149 64.5705 25.6069 64.6012 25.6085L66.8967 25.7298L67.7088 23.9968C67.7218 23.9713 67.7412 23.9499 67.765 23.9347C67.7888 23.9194 67.8161 23.911 67.8442 23.9102C67.8731 23.9106 67.9013 23.9188 67.9261 23.934C67.9509 23.9492 67.9712 23.9709 67.9852 23.9968L69.2936 26.8043L70.8785 24.147C70.8932 24.123 70.9142 24.1037 70.9392 24.0915C70.9641 24.0792 70.992 24.0744 71.0195 24.0777C71.0474 24.0788 71.0745 24.0881 71.0975 24.1045C71.1205 24.1208 71.1384 24.1436 71.1492 24.1701L72.4351 27.3357L74.0368 24.3203C74.0505 24.2946 74.071 24.2734 74.096 24.2591C74.1209 24.2448 74.1493 24.238 74.1778 24.2394C74.2077 24.2418 74.2363 24.2529 74.2602 24.2713C74.2842 24.2897 74.3026 24.3147 74.3132 24.3434L74.9505 26.1284L77.2459 26.2497C77.2791 26.2514 77.3109 26.2641 77.3363 26.2861C77.3618 26.308 77.3796 26.3378 77.3869 26.371C77.3955 26.4048 77.3923 26.4406 77.3778 26.4722C77.3634 26.5038 77.3387 26.5293 77.308 26.5443C74.0932 28.2484 72.875 34.4872 72.8637 34.545C72.8556 34.5833 72.8336 34.617 72.8023 34.6395C72.7709 34.662 72.7324 34.6715 72.6945 34.6663Z" fill="#263238"/>
<path opacity="0.4" d="M75.1774 12.6885C76.3054 15.3227 74.2074 18.7771 70.5245 20.4119C66.8417 22.0467 62.9501 21.2322 61.8391 18.6038C60.728 15.9755 62.8091 12.5095 66.492 10.8747C70.1748 9.23987 74.0607 10.0544 75.1774 12.6885Z" fill="white"/>
<path opacity="0.4" d="M73.9529 22.1221C74.3985 23.1793 73.5581 24.5657 72.0805 25.2242C70.6028 25.8827 69.0405 25.5535 68.595 24.4963C68.1494 23.4392 68.9841 22.0528 70.4618 21.3943C71.9395 20.7357 73.513 21.065 73.9529 22.1221Z" fill="white"/>
<path d="M18.4993 54.757L19.3115 55.4444L20.7497 53.9714L20.0785 53.1395C20.4569 52.5552 20.723 51.9024 20.8625 51.2159L21.9058 51.1119V49.0323L20.8625 48.9283C20.723 48.2419 20.4569 47.589 20.0785 47.0047L20.7497 46.1729L19.3115 44.6998L18.4993 45.3873C17.9279 45.0028 17.2907 44.7324 16.6212 44.5901L16.5254 43.5156H14.4894L14.3935 44.5901C13.724 44.7324 13.0869 45.0028 12.5154 45.3873L11.7032 44.6998L10.2651 46.1729L10.9362 47.0047C10.5578 47.589 10.2917 48.2419 10.1523 48.9283L9.10889 49.0323V51.1119L10.1523 51.2159C10.2917 51.9024 10.5578 52.5552 10.9362 53.1395L10.2651 53.9714L11.7032 55.4444L12.5154 54.757C13.0869 55.1414 13.724 55.4119 14.3935 55.5542L14.4894 56.6286H16.5254L16.6212 55.5542C17.2907 55.4119 17.9279 55.1414 18.4993 54.757ZM12.7523 50.0721C12.7511 49.5132 12.912 48.9665 13.2143 48.5012C13.5167 48.0359 13.947 47.6729 14.4509 47.4583C14.9547 47.2436 15.5094 47.1868 16.0448 47.2951C16.5801 47.4035 17.0721 47.6721 17.4583 48.0669C17.8446 48.4617 18.1078 48.965 18.2147 49.5131C18.3216 50.0612 18.2673 50.6295 18.0587 51.146C17.8501 51.6625 17.4966 52.104 17.043 52.4147C16.5893 52.7253 16.0559 52.8911 15.5102 52.8911C15.1483 52.8919 14.7898 52.8195 14.4552 52.6782C14.1206 52.5369 13.8166 52.3294 13.5604 52.0675C13.3042 51.8057 13.101 51.4946 12.9623 51.1522C12.8236 50.8099 12.7523 50.4428 12.7523 50.0721Z" fill="#407BFF"/>
</svg>
