<svg width="20" height="20" viewBox="0 0 20 20" fill="none" xmlns="http://www.w3.org/2000/svg">
<path d="M10 20C15.5228 20 20 15.5228 20 10C20 4.47715 15.5228 0 10 0C4.47715 0 0 4.47715 0 10C0 15.5228 4.47715 20 10 20Z" fill="white"/>
<path d="M10.0001 17.9386C14.3841 17.9386 17.9381 14.3846 17.9381 10.0006C17.9381 5.61649 14.3841 2.0625 10.0001 2.0625C5.616 2.0625 2.06201 5.61649 2.06201 10.0006C2.06201 14.3846 5.616 17.9386 10.0001 17.9386Z" fill="#263238"/>
<path d="M8.85638 11.5058V11.3173C8.84725 10.9685 8.88218 10.6199 8.96034 10.2798C9.01249 10.0528 9.11625 9.84084 9.26357 9.6604C9.40603 9.49336 9.57158 9.3475 9.75523 9.22722C9.92417 9.11675 10.0736 9.01063 10.2079 8.90883C10.3288 8.81662 10.4347 8.70631 10.522 8.58178C10.6 8.46529 10.6408 8.3278 10.6389 8.18758C10.6412 8.0653 10.6081 7.94495 10.5436 7.84104C10.4812 7.74137 10.3928 7.66052 10.288 7.60712C10.1097 7.51859 9.90497 7.49903 9.7131 7.55219C9.52123 7.60536 9.35575 7.7275 9.24841 7.89518C9.17502 8.01656 9.13747 8.15623 9.14011 8.29804H7.12365C7.10555 7.79852 7.24332 7.30575 7.51785 6.88803C7.77339 6.52775 8.12985 6.25117 8.54232 6.09315C8.99003 5.92193 9.4666 5.83882 9.94583 5.8484C10.4583 5.84023 10.9681 5.92385 11.4511 6.09531C11.8622 6.23847 12.2242 6.49533 12.4951 6.83605C12.7593 7.19286 12.8938 7.62916 12.8763 8.07279C12.8822 8.35984 12.8268 8.64485 12.7139 8.90883C12.6063 9.14813 12.4524 9.36381 12.2612 9.54344C12.0551 9.734 11.8284 9.90108 11.5854 10.0416C11.4145 10.1388 11.254 10.2535 11.1068 10.3838C10.9834 10.4942 10.8845 10.6292 10.8165 10.7802C10.7456 10.9509 10.7117 11.1347 10.7169 11.3195V11.5079L8.85638 11.5058ZM9.81804 14.1547C9.67288 14.1564 9.52886 14.1289 9.39454 14.0738C9.26022 14.0187 9.13834 13.9372 9.03615 13.8341C8.93122 13.7328 8.84853 13.6108 8.79334 13.4758C8.73815 13.3408 8.71167 13.1958 8.71559 13.05C8.71236 12.9069 8.73923 12.7647 8.79445 12.6326C8.84967 12.5006 8.93201 12.3815 9.03615 12.2833C9.24163 12.0782 9.52011 11.963 9.81046 11.963C10.1008 11.963 10.3793 12.0782 10.5848 12.2833C10.6916 12.3803 10.7769 12.4987 10.8351 12.6308C10.8933 12.7629 10.9231 12.9057 10.9227 13.05C10.9225 13.2476 10.867 13.4412 10.7624 13.6089C10.6618 13.7719 10.5236 13.9085 10.3595 14.0074C10.1956 14.1045 10.0085 14.1554 9.81804 14.1547Z" fill="white"/>
</svg>
