<svg width="20" height="20" viewBox="0 0 20 20" fill="none" xmlns="http://www.w3.org/2000/svg">
<g id="Connection" clip-path="url(#clip0_1296_166)">
<path id="Vector" d="M8.70196 10.6516C7.93716 9.88867 6.90099 9.46022 5.82071 9.46022C4.74044 9.46022 3.70426 9.88867 2.93946 10.6516L1.18946 12.4016C0.427669 13.167 0 14.203 0 15.2829C0 16.3628 0.427669 17.3987 1.18946 18.1641L1.83478 18.8094C2.60018 19.5712 3.63613 19.9989 4.71603 19.9989C5.79592 19.9989 6.83187 19.5712 7.59728 18.8094L9.34728 17.0594C10.1102 16.2946 10.5387 15.2584 10.5387 14.1782C10.5387 13.0979 10.1102 12.0617 9.34728 11.2969L8.70196 10.6516ZM4.71603 18.125C4.42612 18.1271 4.1387 18.0716 3.87046 17.9616C3.60223 17.8516 3.35852 17.6894 3.15353 17.4844L2.50821 16.8391C2.09802 16.4253 1.86787 15.8663 1.86787 15.2836C1.86787 14.701 2.09802 14.1419 2.50821 13.7282L4.25821 11.9782C4.67118 11.5665 5.23054 11.3353 5.81368 11.3353C6.39682 11.3353 6.95618 11.5665 7.36915 11.9782L8.01446 12.6235C8.42618 13.0365 8.65737 13.5958 8.65737 14.179C8.65737 14.7621 8.42618 15.3214 8.01446 15.7344L6.26446 17.4844C6.06113 17.6877 5.81972 17.849 5.55402 17.9589C5.28832 18.0688 5.00356 18.1253 4.71603 18.125ZM18.8051 1.82973L18.1692 1.1938C17.4032 0.429524 16.3653 0.000305176 15.2832 0.000305176C14.2011 0.000305176 13.1633 0.429524 12.3973 1.1938L10.6567 2.93442C9.89352 3.70102 9.46509 4.73867 9.46509 5.82036C9.46509 6.90204 9.89352 7.9397 10.6567 8.7063L11.2926 9.34223C12.0586 10.1065 13.0965 10.5357 14.1785 10.5357C15.2606 10.5357 16.2985 10.1065 17.0645 9.34223L18.8051 7.60161C19.5694 6.83561 19.9986 5.79773 19.9986 4.71567C19.9986 3.63361 19.5694 2.59573 18.8051 1.82973ZM17.4801 6.27661L15.7395 8.01723C15.5343 8.22246 15.2907 8.38526 15.0226 8.49634C14.7545 8.60741 14.4672 8.66458 14.177 8.66458C13.8868 8.66458 13.5994 8.60741 13.3313 8.49634C13.0632 8.38526 12.8196 8.22246 12.6145 8.01723L11.9785 7.3813C11.5656 6.96613 11.3338 6.40437 11.3338 5.8188C11.3338 5.23322 11.5656 4.67146 11.9785 4.2563L13.7223 2.52036C13.9274 2.31513 14.171 2.15233 14.4391 2.04125C14.7072 1.93018 14.9946 1.87301 15.2848 1.87301C15.575 1.87301 15.8623 1.93018 16.1304 2.04125C16.3985 2.15233 16.6421 2.31513 16.8473 2.52036L17.4832 3.1563C17.8958 3.57087 18.1272 4.13217 18.1267 4.7171C18.1261 5.30203 17.8936 5.86286 17.4801 6.27661Z" fill="#263238"/>
<path id="Vector_2" d="M14.6374 5.36249C14.4616 5.18693 14.2234 5.08832 13.9749 5.08832C13.7265 5.08832 13.4882 5.18693 13.3124 5.36249L5.36242 13.3125C5.27415 13.3992 5.20393 13.5026 5.15581 13.6166C5.10769 13.7306 5.08262 13.853 5.08204 13.9768C5.08147 14.1005 5.1054 14.2232 5.15246 14.3377C5.19952 14.4521 5.26877 14.5561 5.35623 14.6437C5.44368 14.7312 5.54761 14.8006 5.66201 14.8478C5.77642 14.895 5.89903 14.9191 6.02279 14.9186C6.14654 14.9182 6.26899 14.8933 6.38306 14.8453C6.49713 14.7973 6.60057 14.7272 6.68742 14.6391L14.6374 6.68749C14.7246 6.60042 14.7937 6.49703 14.8409 6.38322C14.8881 6.26941 14.9124 6.14741 14.9124 6.02421C14.9124 5.90101 14.8881 5.77902 14.8409 5.66521C14.7937 5.55139 14.7246 5.448 14.6374 5.36093V5.36249Z" fill="black"/>
</g>
<defs>
<clipPath id="clip0_1296_166">
<rect width="20" height="20" fill="white"/>
</clipPath>
</defs>
</svg>
