<svg width="18" height="18" viewBox="0 0 18 18" fill="none" xmlns="http://www.w3.org/2000/svg">
<path d="M14.5 6.25H11.75V3.1975C11.7476 2.54913 11.4889 1.928 11.0305 1.46952C10.572 1.01105 9.95087 0.752415 9.3025 0.75H3.1975C2.54913 0.752415 1.928 1.01105 1.46952 1.46952C1.01105 1.928 0.752415 2.54913 0.75 3.1975V9.3025C0.752415 9.95087 1.01105 10.572 1.46952 11.0305C1.928 11.4889 2.54913 11.7476 3.1975 11.75H6.25V14.5C6.25 15.2293 6.53973 15.9288 7.05546 16.4445C7.57118 16.9603 8.27065 17.25 9 17.25H14.5C15.2293 17.25 15.9288 16.9603 16.4445 16.4445C16.9603 15.9288 17.25 15.2293 17.25 14.5V9C17.25 8.27065 16.9603 7.57118 16.4445 7.05546C15.9288 6.53973 15.2293 6.25 14.5 6.25ZM6.25 9V9.91667H3.1975C3.03461 9.91667 2.8784 9.85196 2.76322 9.73678C2.64804 9.6216 2.58333 9.46539 2.58333 9.3025V3.1975C2.58333 3.03461 2.64804 2.8784 2.76322 2.76322C2.8784 2.64804 3.03461 2.58333 3.1975 2.58333H9.3025C9.46539 2.58333 9.6216 2.64804 9.73678 2.76322C9.85196 2.8784 9.91667 3.03461 9.91667 3.1975V6.25H9C8.27065 6.25 7.57118 6.53973 7.05546 7.05546C6.53973 7.57118 6.25 8.27065 6.25 9Z" fill="#1B3D6F"/>
</svg>
