<svg width="20" height="20" viewBox="0 0 20 20" fill="none" xmlns="http://www.w3.org/2000/svg">
<path d="M16.8832 10.3237C16.8396 10.2209 16.8172 10.1104 16.8172 9.9987C16.8172 9.88704 16.8396 9.77652 16.8832 9.6737L18.0998 6.81536C18.2615 6.43759 18.3275 6.0258 18.2921 5.61643C18.2567 5.20705 18.121 4.81271 17.8969 4.4683C17.6727 4.12389 17.3672 3.84004 17.0072 3.64185C16.6473 3.44366 16.244 3.33725 15.8332 3.33203H4.16651C3.75563 3.33725 3.35238 3.44366 2.99243 3.64185C2.63248 3.84004 2.32693 4.12389 2.10282 4.4683C1.87871 4.81271 1.74294 5.20705 1.70754 5.61643C1.67214 6.0258 1.73818 6.43759 1.89984 6.81536L3.11651 9.6737C3.16005 9.77652 3.18249 9.88704 3.18249 9.9987C3.18249 10.1104 3.16005 10.2209 3.11651 10.3237L1.89984 13.182C1.73818 13.5598 1.67214 13.9716 1.70754 14.381C1.74294 14.7903 1.87871 15.1847 2.10282 15.5291C2.32693 15.8735 2.63248 16.1574 2.99243 16.3555C3.35238 16.5537 3.75563 16.6601 4.16651 16.6654H15.8332C16.2462 16.6642 16.6524 16.5608 17.0157 16.3643C17.379 16.1679 17.6879 15.8844 17.9149 15.5394C18.1419 15.1944 18.2799 14.7985 18.3165 14.3871C18.3531 13.9758 18.2873 13.5617 18.1248 13.182L16.8832 10.3237ZM7.49984 6.66536C7.66466 6.66536 7.82577 6.71424 7.96281 6.80581C8.09986 6.89737 8.20667 7.02752 8.26974 7.17979C8.33281 7.33207 8.34931 7.49962 8.31716 7.66127C8.28501 7.82292 8.20564 7.97141 8.08909 8.08795C7.97255 8.2045 7.82407 8.28386 7.66241 8.31602C7.50076 8.34817 7.33321 8.33167 7.18094 8.2686C7.02866 8.20552 6.89852 8.09871 6.80695 7.96167C6.71538 7.82463 6.66651 7.66352 6.66651 7.4987C6.66651 7.27768 6.7543 7.06572 6.91058 6.90944C7.06686 6.75316 7.27883 6.66536 7.49984 6.66536ZM12.4998 13.332C12.335 13.332 12.1739 13.2832 12.0369 13.1916C11.8998 13.1 11.793 12.9699 11.7299 12.8176C11.6669 12.6653 11.6504 12.4978 11.6825 12.3361C11.7147 12.1745 11.794 12.026 11.9106 11.9094C12.0271 11.7929 12.1756 11.7135 12.3373 11.6814C12.4989 11.6492 12.6665 11.6657 12.8187 11.7288C12.971 11.7919 13.1012 11.8987 13.1927 12.0357C13.2843 12.1728 13.3332 12.3339 13.3332 12.4987C13.3332 12.7197 13.2454 12.9317 13.0891 13.088C12.9328 13.2442 12.7209 13.332 12.4998 13.332ZM13.0915 8.09036L8.09151 13.0904C8.01404 13.1685 7.92187 13.2305 7.82032 13.2728C7.71877 13.3151 7.60985 13.3369 7.49984 13.3369C7.38983 13.3369 7.28091 13.3151 7.17936 13.2728C7.07781 13.2305 6.98564 13.1685 6.90817 13.0904C6.83007 13.0129 6.76807 12.9207 6.72576 12.8192C6.68346 12.7176 6.66167 12.6087 6.66167 12.4987C6.66167 12.3887 6.68346 12.2798 6.72576 12.1782C6.76807 12.0767 6.83007 11.9845 6.90817 11.907L11.9082 6.90703C12.0651 6.75011 12.2779 6.66195 12.4998 6.66195C12.7218 6.66195 12.9346 6.75011 13.0915 6.90703C13.2484 7.06395 13.3366 7.27678 13.3366 7.4987C13.3366 7.72062 13.2484 7.93344 13.0915 8.09036Z" fill="black"/>
</svg>
