<svg width="48" height="48" viewBox="0 0 48 48" fill="none" xmlns="http://www.w3.org/2000/svg">
<g clip-path="url(#clip0_262_543)">
<path d="M46.5 16.5V13.5C46.5 11.9087 45.8679 10.3826 44.7426 9.25736C43.6174 8.13214 42.0913 7.5 40.5 7.5H7.5C5.9087 7.5 4.38258 8.13214 3.25736 9.25736C2.13214 10.3826 1.5 11.9087 1.5 13.5V16.5C3.48912 16.5 5.39678 17.2902 6.8033 18.6967C8.20982 20.1032 9 22.0109 9 24C9 25.9891 8.20982 27.8968 6.8033 29.3033C5.39678 30.7098 3.48912 31.5 1.5 31.5V34.5C1.5 36.0913 2.13214 37.6174 3.25736 38.7426C4.38258 39.8679 5.9087 40.5 7.5 40.5H40.5C42.0913 40.5 43.6174 39.8679 44.7426 38.7426C45.8679 37.6174 46.5 36.0913 46.5 34.5V31.5C44.5109 31.5 42.6032 30.7098 41.1967 29.3033C39.7902 27.8968 39 25.9891 39 24C39 22.0109 39.7902 20.1032 41.1967 18.6967C42.6032 17.2902 44.5109 16.5 46.5 16.5ZM24 21C23.7033 21 23.4133 20.912 23.1666 20.7472C22.92 20.5824 22.7277 20.3481 22.6142 20.074C22.5006 19.7999 22.4709 19.4983 22.5288 19.2074C22.5867 18.9164 22.7296 18.6491 22.9393 18.4393C23.1491 18.2296 23.4164 18.0867 23.7074 18.0288C23.9983 17.9709 24.2999 18.0006 24.574 18.1142C24.8481 18.2277 25.0824 18.42 25.2472 18.6666C25.412 18.9133 25.5 19.2033 25.5 19.5C25.5 19.8978 25.342 20.2794 25.0607 20.5607C24.7794 20.842 24.3978 21 24 21ZM31.5 31.5C31.2033 31.5 30.9133 31.412 30.6666 31.2472C30.42 31.0824 30.2277 30.8481 30.1142 30.574C30.0006 30.2999 29.9709 29.9983 30.0288 29.7074C30.0867 29.4164 30.2296 29.1491 30.4393 28.9393C30.6491 28.7296 30.9164 28.5867 31.2074 28.5288C31.4983 28.4709 31.7999 28.5006 32.074 28.6142C32.3481 28.7277 32.5824 28.92 32.7472 29.1666C32.912 29.4133 33 29.7033 33 30C33 30.3978 32.842 30.7794 32.5607 31.0607C32.2794 31.342 31.8978 31.5 31.5 31.5Z" fill="#EBEAF2"/>
<path d="M31.5 31.5C32.3284 31.5 33 30.8284 33 30C33 29.1716 32.3284 28.5 31.5 28.5C30.6716 28.5 30 29.1716 30 30C30 30.8284 30.6716 31.5 31.5 31.5Z" fill="black"/>
<path d="M24 21C24.8284 21 25.5 20.3284 25.5 19.5C25.5 18.6716 24.8284 18 24 18C23.1716 18 22.5 18.6716 22.5 19.5C22.5 20.3284 23.1716 21 24 21Z" fill="black"/>
<path d="M15 7.5V40.5H7.5C5.9087 40.5 4.38258 39.8679 3.25736 38.7426C2.13214 37.6174 1.5 36.0913 1.5 34.5V31.5C3.48912 31.5 5.39678 30.7098 6.8033 29.3033C8.20982 27.8968 9 25.9891 9 24C9 22.0109 8.20982 20.1032 6.8033 18.6967C5.39678 17.2902 3.48912 16.5 1.5 16.5V13.5C1.5 11.9087 2.13214 10.3826 3.25736 9.25736C4.38258 8.13214 5.9087 7.5 7.5 7.5H15Z" fill="#D8D0EF"/>
<path d="M7.5 42H15C15.3978 42 15.7794 41.842 16.0607 41.5607C16.342 41.2794 16.5 40.8978 16.5 40.5V36C16.5 35.6022 16.342 35.2206 16.0607 34.9393C15.7794 34.658 15.3978 34.5 15 34.5C14.6022 34.5 14.2206 34.658 13.9393 34.9393C13.658 35.2206 13.5 35.6022 13.5 36V39H7.5C6.30653 39 5.16193 38.5259 4.31802 37.682C3.47411 36.8381 3 35.6935 3 34.5V32.865C5.09398 32.5106 6.99483 31.4262 8.36555 29.8041C9.73627 28.1819 10.4883 26.1268 10.4883 24.003C10.4883 21.8793 9.73627 19.8241 8.36555 18.2019C6.99483 16.5798 5.09398 15.4954 3 15.141V13.5C3 12.3065 3.47411 11.1619 4.31802 10.318C5.16193 9.47411 6.30653 9 7.5 9H13.5V12C13.5 12.3978 13.658 12.7794 13.9393 13.0607C14.2206 13.342 14.6022 13.5 15 13.5C15.3978 13.5 15.7794 13.342 16.0607 13.0607C16.342 12.7794 16.5 12.3978 16.5 12V7.5C16.5 7.10218 16.342 6.72064 16.0607 6.43934C15.7794 6.15804 15.3978 6 15 6H7.5C5.51161 6.00238 3.60534 6.79332 2.19933 8.19933C0.793323 9.60534 0.00238179 11.5116 0 13.5L0 16.5C0 16.8978 0.158035 17.2794 0.43934 17.5607C0.720644 17.842 1.10218 18 1.5 18C3.0913 18 4.61742 18.6321 5.74264 19.7574C6.86786 20.8826 7.5 22.4087 7.5 24C7.5 25.5913 6.86786 27.1174 5.74264 28.2426C4.61742 29.3679 3.0913 30 1.5 30C1.10218 30 0.720644 30.158 0.43934 30.4393C0.158035 30.7206 0 31.1022 0 31.5L0 34.5C0.00238179 36.4884 0.793323 38.3947 2.19933 39.8007C3.60534 41.2067 5.51161 41.9976 7.5 42ZM40.5 6H21C20.6022 6 20.2206 6.15804 19.9393 6.43934C19.658 6.72064 19.5 7.10218 19.5 7.5C19.5 7.89782 19.658 8.27936 19.9393 8.56066C20.2206 8.84196 20.6022 9 21 9H40.5C41.6935 9 42.8381 9.47411 43.682 10.318C44.5259 11.1619 45 12.3065 45 13.5V15.1365C42.9032 15.4881 40.9989 16.5716 39.6255 18.1945C38.252 19.8174 37.4983 21.8747 37.4983 24.0007C37.4983 26.1268 38.252 28.1841 39.6255 29.807C40.9989 31.4299 42.9032 32.5134 45 32.865V34.5C45 35.6935 44.5259 36.8381 43.682 37.682C42.8381 38.5259 41.6935 39 40.5 39H21C20.6022 39 20.2206 39.158 19.9393 39.4393C19.658 39.7206 19.5 40.1022 19.5 40.5C19.5 40.8978 19.658 41.2794 19.9393 41.5607C20.2206 41.842 20.6022 42 21 42H40.5C42.4884 41.9976 44.3947 41.2067 45.8007 39.8007C47.2067 38.3947 47.9976 36.4884 48 34.5V31.5C48 31.1022 47.842 30.7206 47.5607 30.4393C47.2794 30.158 46.8978 30 46.5 30C44.9087 30 43.3826 29.3679 42.2574 28.2426C41.1321 27.1174 40.5 25.5913 40.5 24C40.5 22.4087 41.1321 20.8826 42.2574 19.7574C43.3826 18.6321 44.9087 18 46.5 18C46.8978 18 47.2794 17.842 47.5607 17.5607C47.842 17.2794 48 16.8978 48 16.5V13.5C47.9976 11.5116 47.2067 9.60534 45.8007 8.19933C44.3947 6.79332 42.4884 6.00238 40.5 6Z" fill="black"/>
<path d="M16.5 18C16.5 17.6022 16.342 17.2206 16.0607 16.9393C15.7794 16.658 15.3978 16.5 15 16.5C14.6022 16.5 14.2206 16.658 13.9393 16.9393C13.658 17.2206 13.5 17.6022 13.5 18V21C13.5 21.3978 13.658 21.7794 13.9393 22.0607C14.2206 22.342 14.6022 22.5 15 22.5C15.3978 22.5 15.7794 22.342 16.0607 22.0607C16.342 21.7794 16.5 21.3978 16.5 21V18ZM15 25.5C14.6022 25.5 14.2206 25.658 13.9393 25.9393C13.658 26.2206 13.5 26.6022 13.5 27V30C13.5 30.3978 13.658 30.7794 13.9393 31.0607C14.2206 31.342 14.6022 31.5 15 31.5C15.3978 31.5 15.7794 31.342 16.0607 31.0607C16.342 30.7794 16.5 30.3978 16.5 30V27C16.5 26.6022 16.342 26.2206 16.0607 25.9393C15.7794 25.658 15.3978 25.5 15 25.5Z" fill="black"/>
<path d="M24 21.0039C24.8284 21.0039 25.5 20.3323 25.5 19.5039C25.5 18.6755 24.8284 18.0039 24 18.0039C23.1716 18.0039 22.5 18.6755 22.5 19.5039C22.5 20.3323 23.1716 21.0039 24 21.0039Z" fill="black"/>
<path d="M31.5 31.5039C32.3284 31.5039 33 30.8323 33 30.0039C33 29.1755 32.3284 28.5039 31.5 28.5039C30.6716 28.5039 30 29.1755 30 30.0039C30 30.8323 30.6716 31.5039 31.5 31.5039Z" fill="black"/>
<path d="M21.4391 31.0645C21.7227 31.3414 22.1033 31.4964 22.4996 31.4964C22.8959 31.4964 23.2765 31.3414 23.5601 31.0645L34.0601 20.5645C34.3152 20.2784 34.451 19.9055 34.4398 19.5223C34.4285 19.1392 34.271 18.7749 33.9996 18.5042C33.7281 18.2336 33.3634 18.0771 32.9802 18.0669C32.5971 18.0568 32.2245 18.1937 31.9391 18.4495L21.4391 28.9495C21.1597 29.2306 21.0029 29.6107 21.0029 30.007C21.0029 30.4033 21.1597 30.7835 21.4391 31.0645Z" fill="black"/>
</g>
<defs>
<clipPath id="clip0_262_543">
<rect width="48" height="48" fill="white"/>
</clipPath>
</defs>
</svg>
