<svg width="22" height="22" viewBox="0 0 22 22" fill="none" xmlns="http://www.w3.org/2000/svg">
<g clip-path="url(#clip0_16_966)">
<path d="M11 22.0002C17.0751 22.0002 22 17.0753 22 11.0002C22 4.92505 17.0751 0.000183105 11 0.000183105C4.92487 0.000183105 0 4.92505 0 11.0002C0 17.0753 4.92487 22.0002 11 22.0002Z" fill="url(#paint0_linear_16_966)"/>
<path opacity="0.2" d="M10.9999 21.6346C4.98592 21.6346 0.100031 16.8082 0.00232031 10.8174C0.00128906 10.8782 0 10.939 0 11.0001C0 17.0752 4.92482 22 10.9999 22C17.0752 22 22 17.0752 22 11.0001C22 10.939 21.9986 10.8782 21.9978 10.8174C21.9001 16.8082 17.0141 21.6346 10.9999 21.6346Z" fill="#D8D8D8"/>
<path opacity="0.1" d="M13.7251 11.1808L16.8809 8.02494C17.3768 7.52899 17.3771 6.71749 16.8809 6.22171L15.889 5.22974C15.3935 4.73379 14.5814 4.73379 14.0855 5.22982L10.9298 8.38553L7.7739 5.22982C7.27796 4.73388 6.46636 4.73388 5.97042 5.22974L4.97879 6.22171C4.48284 6.71757 4.48284 7.52908 4.97879 8.02494L8.13458 11.1808L4.97879 14.3366C4.48284 14.8328 4.48284 15.6444 4.97879 16.1401L5.97042 17.132C6.46636 17.6285 7.27796 17.6282 7.7739 17.132L10.9297 13.9762L14.0854 17.132C14.5814 17.6282 15.3935 17.6285 15.8889 17.132L16.8808 16.1401C17.377 15.6443 17.3767 14.8328 16.8808 14.3366L13.7251 11.1808Z" fill="#2C2C2C"/>
<path d="M13.7251 10.9374L16.8809 7.78142C17.3768 7.28556 17.3771 6.47396 16.8809 5.97819L15.889 4.98621C15.3935 4.49035 14.5814 4.49035 14.0855 4.98639L10.9298 8.1421L7.7739 4.9863C7.27796 4.49035 6.46636 4.49035 5.97042 4.98613L4.97879 5.9781C4.48284 6.47396 4.48284 7.28556 4.97879 7.78133L8.13458 10.9373L4.97879 14.0931C4.48284 14.5892 4.48284 15.4009 4.97879 15.8966L5.97042 16.8885C6.46636 17.3848 7.27796 17.3846 7.7739 16.8885L10.9297 13.7327L14.0854 16.8885C14.5814 17.3846 15.3935 17.3848 15.8889 16.8885L16.8808 15.8966C17.377 15.4008 17.3767 14.5892 16.8808 14.0931L13.7251 10.9374Z" fill="#FAFAFA"/>
<path opacity="0.2" d="M8.01272 10.8156L8.1345 10.6937L4.97879 7.53787C4.76946 7.32864 4.63991 7.05277 4.61261 6.75807C4.57789 7.12416 4.70001 7.50272 4.97879 7.78141L8.01272 10.8156ZM16.8809 7.78141C17.1598 7.50263 17.2819 7.12399 17.2472 6.75781C17.2199 7.05263 17.0903 7.3286 16.8809 7.53787L13.7251 10.6937L13.8469 10.8156L16.8809 7.78141ZM16.8809 15.653L15.889 16.645C15.3935 17.1414 14.5814 17.1411 14.0855 16.645L10.9298 13.4892L7.7739 16.645C7.27796 17.1411 6.46636 17.1414 5.97042 16.645L4.97879 15.653C4.76946 15.4439 4.63992 15.1681 4.61261 14.8734C4.57789 15.2395 4.70001 15.618 4.97879 15.8967L5.97042 16.8886C6.46636 17.3849 7.27796 17.3847 7.7739 16.8886L10.9297 13.7328L14.0854 16.8886C14.5814 17.3847 15.3935 17.3849 15.8889 16.8886L16.8808 15.8967C17.1597 15.618 17.2818 15.2396 17.2471 14.8735C17.2198 15.1681 17.0902 15.4439 16.8809 15.653Z" fill="#2C2C2C"/>
</g>
<defs>
<linearGradient id="paint0_linear_16_966" x1="10.9999" y1="0.0853472" x2="10.9999" y2="21.713" gradientUnits="userSpaceOnUse">
<stop stop-color="#F15454"/>
<stop offset="1" stop-color="#D93B3B"/>
</linearGradient>
<clipPath id="clip0_16_966">
<rect width="22" height="22" fill="white"/>
</clipPath>
</defs>
</svg>
