<svg width="21" height="21" viewBox="0 0 21 21" fill="none" xmlns="http://www.w3.org/2000/svg">
<path d="M15.8756 3.96875H14.5316C14.4896 3.96875 14.4686 3.96875 14.4266 3.96875H6.48857C5.62757 3.96875 4.93457 4.66175 4.93457 5.52275V15.7078C4.93457 16.5688 5.62757 17.2617 6.48857 17.2617H14.3426C15.2036 17.2617 15.8966 16.5688 15.8966 15.7078V6.04775C15.8966 6.00575 15.8546 5.98475 15.8336 5.98475H9.51257C9.47057 5.98475 9.44957 6.02675 9.44957 6.04775V6.55175V9.02975C9.44957 9.05075 9.44957 9.05075 9.44957 9.07175C9.42857 9.11375 9.36557 9.11375 9.32357 9.07175L8.33657 7.76975C8.31557 7.72775 8.25257 7.72775 8.21057 7.76975L7.24457 9.07175C7.20257 9.13475 7.11857 9.09275 7.11857 9.02975V6.88775V6.02675C7.11857 6.00575 7.11857 6.00575 7.09757 5.98475C7.07657 5.96375 7.05557 5.94275 7.03457 5.94275H6.44657C6.06857 5.94275 5.77457 5.62775 5.77457 5.27075C5.77457 4.89275 6.08957 4.59875 6.44657 4.59875H13.2506H15.8546C15.8966 4.59875 15.9176 4.55675 15.9176 4.53575V4.03175C15.9386 3.98975 15.9176 3.96875 15.8756 3.96875Z" fill="#382673"/>
</svg>
