<svg width="22" height="22" viewBox="0 0 22 22" fill="none" xmlns="http://www.w3.org/2000/svg">
<path d="M17.7876 3.26221L16.8708 1.67443C16.7897 1.53411 16.6563 1.43171 16.4998 1.38975C16.3433 1.34779 16.1765 1.36969 16.0361 1.45065L1.7468 9.70065C1.67732 9.74077 1.61642 9.79418 1.56758 9.85785C1.51875 9.92151 1.48293 9.99417 1.46218 10.0717C1.44144 10.1492 1.43616 10.23 1.44666 10.3096C1.45715 10.3891 1.48322 10.4658 1.52337 10.5353L2.44015 12.1231C2.70091 11.9695 2.98951 11.869 3.2893 11.8276C3.58908 11.7861 3.89411 11.8044 4.18678 11.8815C4.47944 11.9585 4.75395 12.0928 4.99446 12.2765C5.23496 12.4602 5.4367 12.6897 5.58802 12.9518C5.73935 13.2139 5.83726 13.5033 5.87612 13.8035C5.91497 14.1036 5.894 14.4085 5.81441 14.7005C5.73481 14.9924 5.59818 15.2658 5.41239 15.5047C5.22659 15.7436 4.99532 15.9433 4.73193 16.0923L5.49574 17.4154C5.61732 17.626 5.81756 17.7796 6.0524 17.8425C6.28725 17.9054 6.53747 17.8725 6.74802 17.7509L20.5076 9.80652C20.7182 9.68494 20.8718 9.4847 20.9347 9.24986C20.9976 9.01501 20.9647 8.7648 20.8431 8.55424L20.079 7.23149C19.5526 7.53535 18.9271 7.61768 18.3401 7.46035C17.753 7.30302 17.2525 6.91893 16.9486 6.39257C16.6448 5.86621 16.5624 5.2407 16.7198 4.65364C16.8771 4.06659 17.2612 3.56607 17.7876 3.26221Z" fill="#FAA307"/>
<path d="M20.9688 12.375V10.3125C20.9688 10.1302 20.8963 9.9553 20.7674 9.82636C20.6385 9.69743 20.4636 9.625 20.2812 9.625H1.71875C1.53641 9.625 1.36155 9.69743 1.23261 9.82636C1.10368 9.9553 1.03125 10.1302 1.03125 10.3125V12.375C1.71501 12.375 2.37077 12.6466 2.85426 13.1301C3.33775 13.6136 3.60938 14.2694 3.60938 14.9531C3.60938 15.6369 3.33775 16.2926 2.85426 16.7761C2.37077 17.2596 1.71501 17.5312 1.03125 17.5312V19.25C1.03125 19.5235 1.1399 19.7858 1.3333 19.9792C1.52669 20.1726 1.789 20.2812 2.0625 20.2812H19.9375C20.211 20.2812 20.4733 20.1726 20.6667 19.9792C20.8601 19.7858 20.9688 19.5235 20.9688 19.25V17.5312C20.285 17.5312 19.6292 17.2596 19.1457 16.7761C18.6622 16.2926 18.3906 15.6369 18.3906 14.9531C18.3906 14.2694 18.6622 13.6136 19.1457 13.1301C19.6292 12.6466 20.285 12.375 20.9688 12.375Z" fill="#FFD100"/>
<path d="M11.6875 14.0938C12.257 14.0938 12.7188 13.632 12.7188 13.0625C12.7188 12.493 12.257 12.0312 11.6875 12.0312C11.118 12.0312 10.6562 12.493 10.6562 13.0625C10.6562 13.632 11.118 14.0938 11.6875 14.0938Z" fill="white"/>
<path d="M15.8125 18.2188C16.382 18.2188 16.8438 17.757 16.8438 17.1875C16.8438 16.618 16.382 16.1562 15.8125 16.1562C15.243 16.1562 14.7812 16.618 14.7812 17.1875C14.7812 17.757 15.243 18.2188 15.8125 18.2188Z" fill="white"/>
<path d="M11.1719 17.7031C11.1043 17.6355 11.0508 17.5553 11.0144 17.467C10.9779 17.3786 10.9593 17.284 10.9596 17.1884C10.9599 17.0929 10.9791 16.9983 11.016 16.9102C11.053 16.8221 11.107 16.7421 11.175 16.675L15.3264 12.5764C15.4561 12.4512 15.6298 12.3819 15.81 12.3835C15.9903 12.385 16.1627 12.4573 16.2902 12.5848C16.4177 12.7123 16.49 12.8847 16.4915 13.065C16.4931 13.2452 16.4238 13.4189 16.2986 13.5486L12.2 17.7C12.1329 17.768 12.0529 17.822 11.9648 17.859C11.8767 17.8959 11.7821 17.9151 11.6866 17.9154C11.591 17.9157 11.4964 17.8971 11.408 17.8606C11.3197 17.8242 11.2395 17.7707 11.1719 17.7031ZM7.90625 11C7.99742 11 8.08485 10.9638 8.14932 10.8993C8.21378 10.8349 8.25 10.7474 8.25 10.6562V9.625H7.5625V10.6562C7.5625 10.7474 7.59872 10.8349 7.66318 10.8993C7.72765 10.9638 7.81508 11 7.90625 11ZM7.90625 14.4375C7.99742 14.4375 8.08485 14.4013 8.14932 14.3368C8.21378 14.2724 8.25 14.1849 8.25 14.0938V12.375C8.25 12.2838 8.21378 12.1964 8.14932 12.1319C8.08485 12.0675 7.99742 12.0312 7.90625 12.0312C7.81508 12.0312 7.72765 12.0675 7.66318 12.1319C7.59872 12.1964 7.5625 12.2838 7.5625 12.375V14.0938C7.5625 14.1849 7.59872 14.2724 7.66318 14.3368C7.72765 14.4013 7.81508 14.4375 7.90625 14.4375ZM7.90625 17.875C7.99742 17.875 8.08485 17.8388 8.14932 17.7743C8.21378 17.7099 8.25 17.6224 8.25 17.5312V15.8125C8.25 15.7213 8.21378 15.6339 8.14932 15.5694C8.08485 15.505 7.99742 15.4688 7.90625 15.4688C7.81508 15.4688 7.72765 15.505 7.66318 15.5694C7.59872 15.6339 7.5625 15.7213 7.5625 15.8125V17.5312C7.5625 17.6224 7.59872 17.7099 7.66318 17.7743C7.72765 17.8388 7.81508 17.875 7.90625 17.875ZM7.90625 18.9062C7.81508 18.9062 7.72765 18.9425 7.66318 19.0069C7.59872 19.0714 7.5625 19.1588 7.5625 19.25V20.2812H8.25V19.25C8.25 19.1588 8.21378 19.0714 8.14932 19.0069C8.08485 18.9425 7.99742 18.9062 7.90625 18.9062Z" fill="white"/>
</svg>
