<svg width="23" height="23" viewBox="0 0 23 23" fill="none" xmlns="http://www.w3.org/2000/svg">
<circle cx="11.5" cy="11.5" r="11.5" fill="#D9D9D9"/>
<path d="M11.4769 12.2928L7.78095 8.32587C7.58533 8.11715 7.32072 8 7.04489 8C6.76907 8 6.50445 8.11715 6.30883 8.32587C6.21097 8.43004 6.1333 8.55398 6.0803 8.69054C6.02729 8.8271 6 8.97357 6 9.1215C6 9.26943 6.02729 9.4159 6.0803 9.55246C6.1333 9.68902 6.21097 9.81296 6.30883 9.91713L10.7356 14.6685C10.8327 14.7736 10.9482 14.8569 11.0754 14.9138C11.2026 14.9707 11.3391 15 11.4769 15C11.6147 15 11.7512 14.9707 11.8784 14.9138C12.0057 14.8569 12.1211 14.7736 12.2182 14.6685L16.6972 9.91713C16.794 9.81242 16.8705 9.68824 16.9225 9.55171C16.9744 9.41518 17.0008 9.26898 17 9.1215C17.0008 8.97402 16.9744 8.82782 16.9225 8.69129C16.8705 8.55476 16.794 8.43058 16.6972 8.32587C16.5016 8.11715 16.237 8 15.9611 8C15.6853 8 15.4207 8.11715 15.2251 8.32587L11.4769 12.2928Z" fill="black"/>
</svg>
