<svg width="20" height="20" viewBox="0 0 20 20" fill="none" xmlns="http://www.w3.org/2000/svg">
<circle cx="10" cy="10" r="10" fill="#1B3D6F"/>
<path d="M9.98435 10.1282L7.34437 7.69944C7.20465 7.57166 7.01563 7.49993 6.81862 7.49993C6.6216 7.49993 6.43259 7.57166 6.29286 7.69944C6.22296 7.76322 6.16748 7.8391 6.12962 7.92271C6.09176 8.00632 6.07227 8.09599 6.07227 8.18656C6.07227 8.27713 6.09176 8.36681 6.12962 8.45042C6.16748 8.53402 6.22296 8.6099 6.29286 8.67369L9.45486 11.5827C9.52419 11.647 9.60667 11.698 9.69755 11.7329C9.78842 11.7677 9.8859 11.7856 9.98435 11.7856C10.0828 11.7856 10.1803 11.7677 10.2711 11.7329C10.362 11.698 10.4445 11.647 10.5138 11.5827L13.7131 8.67369C13.7822 8.60958 13.8369 8.53355 13.874 8.44996C13.9111 8.36637 13.93 8.27686 13.9294 8.18656C13.93 8.09627 13.9111 8.00676 13.874 7.92317C13.8369 7.83958 13.7822 7.76355 13.7131 7.69944C13.5734 7.57166 13.3844 7.49993 13.1874 7.49993C12.9903 7.49993 12.8013 7.57166 12.6616 7.69944L9.98435 10.1282Z" fill="white"/>
</svg>
