<svg width="18" height="18" viewBox="0 0 18 18" fill="none" xmlns="http://www.w3.org/2000/svg">
<path d="M15.75 11.25H2.25C1.8 11.25 1.5 11.55 1.5 12C1.5 12.45 1.8 12.75 2.25 12.75H15.75C16.2 12.75 16.5 12.45 16.5 12C16.5 11.55 16.2 11.25 15.75 11.25ZM11.25 14.25H2.25C1.8 14.25 1.5 14.55 1.5 15C1.5 15.45 1.8 15.75 2.25 15.75H11.25C11.7 15.75 12 15.45 12 15C12 14.55 11.7 14.25 11.25 14.25ZM2.25 3.75H15.75C16.2 3.75 16.5 3.45 16.5 3C16.5 2.55 16.2 2.25 15.75 2.25H2.25C1.8 2.25 1.5 2.55 1.5 3C1.5 3.45 1.8 3.75 2.25 3.75ZM15.75 5.25H2.25C1.8 5.25 1.5 5.55 1.5 6C1.5 6.45 1.8 6.75 2.25 6.75H15.75C16.2 6.75 16.5 6.45 16.5 6C16.5 5.55 16.2 5.25 15.75 5.25ZM15.75 8.25H2.25C1.8 8.25 1.5 8.55 1.5 9C1.5 9.45 1.8 9.75 2.25 9.75H15.75C16.2 9.75 16.5 9.45 16.5 9C16.5 8.55 16.2 8.25 15.75 8.25Z" fill="white"/>
</svg>
