<svg width="59" height="49" viewBox="0 0 59 49" fill="none" xmlns="http://www.w3.org/2000/svg">
<path d="M39.5 27.0625C41.0668 27.0625 42.5984 26.5979 43.9012 25.7274C45.2039 24.857 46.2193 23.6197 46.8189 22.1722C47.4184 20.7247 47.5753 19.1318 47.2697 17.5951C46.964 16.0585 46.2095 14.6469 45.1016 13.539C43.9937 12.4311 42.5822 11.6766 41.0455 11.371C39.5088 11.0653 37.916 11.2222 36.4684 11.8218C35.0209 12.4214 33.7837 13.4367 32.9132 14.7395C32.0427 16.0422 31.5781 17.5738 31.5781 19.1406C31.5781 21.2416 32.4127 23.2566 33.8984 24.7422C35.384 26.2279 37.399 27.0625 39.5 27.0625ZM44.375 28.8906H34.625C31.8775 28.8906 29.2426 29.9821 27.2998 31.9248C25.3571 33.8676 24.2656 36.5025 24.2656 39.25V47.1719C24.2656 47.3335 24.3298 47.4885 24.4441 47.6028C24.5584 47.7171 24.7134 47.7813 24.875 47.7813H54.125C54.2866 47.7813 54.4416 47.7171 54.5559 47.6028C54.6702 47.4885 54.7344 47.3335 54.7344 47.1719V39.25C54.7344 36.5025 53.6429 33.8676 51.7002 31.9248C49.7574 29.9821 47.1225 28.8906 44.375 28.8906ZM32.1875 42.2969H29.75C29.5884 42.2969 29.4334 42.2327 29.3191 42.1184C29.2048 42.0041 29.1406 41.8491 29.1406 41.6875C29.1406 41.5259 29.2048 41.3709 29.3191 41.2566C29.4334 41.1423 29.5884 41.0781 29.75 41.0781H32.1875C32.3491 41.0781 32.5041 41.1423 32.6184 41.2566C32.7327 41.3709 32.7969 41.5259 32.7969 41.6875C32.7969 41.8491 32.7327 42.0041 32.6184 42.1184C32.5041 42.2327 32.3491 42.2969 32.1875 42.2969ZM34.625 39.8594H29.75C29.5884 39.8594 29.4334 39.7952 29.3191 39.6809C29.2048 39.5666 29.1406 39.4116 29.1406 39.25C29.1406 39.0884 29.2048 38.9334 29.3191 38.8191C29.4334 38.7048 29.5884 38.6406 29.75 38.6406H34.625C34.7866 38.6406 34.9416 38.7048 35.0559 38.8191C35.1702 38.9334 35.2344 39.0884 35.2344 39.25C35.2344 39.4116 35.1702 39.5666 35.0559 39.6809C34.9416 39.7952 34.7866 39.8594 34.625 39.8594Z" fill="#263238"/>
<g clip-path="url(#clip0_92_7)">
<path d="M9.37495 12.4311L4.76245 17.0498C4.34212 17.3814 3.81479 17.5473 3.28034 17.5161C2.7459 17.4849 2.24143 17.2589 1.8625 16.8807C1.48356 16.5025 1.25645 15.9985 1.22419 15.4641C1.19193 14.9297 1.35676 14.4021 1.68745 13.9811L6.31245 9.35608L9.37495 12.4311ZM18.75 3.98421C18.7614 5.01358 18.3799 6.00858 17.6831 6.76635C16.9863 7.52412 16.0267 7.98761 15 8.06233C14.6661 8.08713 14.3304 8.07244 14 8.01858H13.9843C13.9341 8.00588 13.8815 8.00588 13.8312 8.01858L13.7687 8.04358C13.7519 8.05215 13.7362 8.06264 13.7218 8.07483L13.7 8.09358L13.6843 8.11545L11.25 10.553L8.17808 7.47796L10.625 5.0467C10.6426 5.03298 10.6574 5.01601 10.6687 4.99671C10.6857 4.98137 10.6986 4.96203 10.7062 4.94046C10.7157 4.92293 10.722 4.9039 10.725 4.88421C10.7356 4.83794 10.7356 4.78985 10.725 4.74358C10.667 4.41463 10.6513 4.07964 10.6781 3.74671C10.7506 2.72053 11.2126 1.7609 11.9696 1.06431C12.7266 0.367729 13.7213 -0.0130939 14.75 -0.000169775L12.6125 2.14358C12.5945 2.15786 12.5787 2.17471 12.5656 2.19358L12.5406 2.22483C12.5097 2.27669 12.4945 2.33639 12.4968 2.39671C12.4953 2.41229 12.4953 2.42799 12.4968 2.44358L12.9687 5.4842C12.9771 5.55288 13.008 5.61683 13.0567 5.66603C13.1053 5.71523 13.1689 5.7469 13.2375 5.75608L16.2875 6.24983H16.35C16.3972 6.25046 16.4439 6.24038 16.4867 6.22036C16.5294 6.20033 16.5671 6.17088 16.5968 6.1342L18.75 3.98421Z" fill="#37474F"/>
<path d="M11.8748 12.0687L10.9123 13.0343L10.0811 12.2062L6.5498 8.67495L5.04043 7.18745C5.01149 7.15792 4.97697 7.13443 4.93889 7.11834C4.9008 7.10225 4.8599 7.09387 4.81855 7.0937L3.35605 7.07495L1.9248 4.09058L2.92168 3.09058L5.89043 4.52495L5.9123 5.98745C5.91288 6.02902 5.92175 6.07005 5.93838 6.10815C5.95502 6.14625 5.97909 6.18065 6.00918 6.20933L7.51855 7.72183L11.0279 11.25L11.8748 12.0687ZM18.3998 16.2125L13.5186 11.3312L12.5529 12.2937L11.1279 13.7187L10.2779 14.5687L15.1623 19.4562C15.5136 19.8054 15.9888 20.0014 16.4842 20.0014C16.9795 20.0014 17.4547 19.8054 17.8061 19.4562L18.3998 18.8593C18.75 18.5079 18.9466 18.032 18.9466 17.5359C18.9466 17.0398 18.75 16.5639 18.3998 16.2125ZM16.6279 19.0437C16.5987 19.0749 16.5634 19.0998 16.5241 19.1168C16.4849 19.1338 16.4426 19.1426 16.3998 19.1426C16.357 19.1426 16.3147 19.1338 16.2755 19.1168C16.2362 19.0998 16.2009 19.0749 16.1717 19.0437L12.0092 14.8843C11.9491 14.823 11.9154 14.7405 11.9154 14.6546C11.9154 14.5688 11.9491 14.4863 12.0092 14.425C12.0384 14.3942 12.0735 14.3698 12.1125 14.353C12.1514 14.3363 12.1934 14.3277 12.2357 14.3277C12.2781 14.3277 12.3201 14.3363 12.359 14.353C12.398 14.3698 12.4331 14.3942 12.4623 14.425L16.6279 18.5906C16.6587 18.6198 16.6831 18.6549 16.6999 18.6939C16.7166 18.7328 16.7252 18.7748 16.7252 18.8171C16.7252 18.8595 16.7166 18.9015 16.6999 18.9404C16.6831 18.9794 16.6587 19.0145 16.6279 19.0437ZM17.9936 17.6812C17.9639 17.7115 17.9284 17.7354 17.8891 17.7515C17.8499 17.7677 17.8078 17.7756 17.7654 17.775C17.6792 17.7744 17.5965 17.7408 17.5342 17.6812L13.3748 13.5156C13.3143 13.4555 13.2801 13.3738 13.2799 13.2886C13.2796 13.2033 13.3132 13.1214 13.3732 13.0609C13.4333 13.0004 13.515 12.9662 13.6003 12.9659C13.6855 12.9656 13.7674 12.9992 13.8279 13.0593L17.9936 17.225C18.0248 17.2542 18.0497 17.2895 18.0667 17.3288C18.0837 17.368 18.0925 17.4103 18.0925 17.4531C18.0925 17.4958 18.0837 17.5382 18.0667 17.5774C18.0497 17.6166 18.0248 17.652 17.9936 17.6812Z" fill="#37474F"/>
</g>
<defs>
<clipPath id="clip0_92_7">
<rect width="20" height="20" fill="white"/>
</clipPath>
</defs>
</svg>
