<svg width="28" height="29" viewBox="0 0 28 29" fill="none" xmlns="http://www.w3.org/2000/svg">
<path d="M21.4375 24.7812H6.5625C6.44647 24.7812 6.33519 24.7352 6.25314 24.6531C6.17109 24.5711 6.125 24.4598 6.125 24.3438V4.65625C6.125 4.54022 6.17109 4.42894 6.25314 4.34689C6.33519 4.26484 6.44647 4.21875 6.5625 4.21875H21.4375C21.5535 4.21875 21.6648 4.26484 21.7469 4.34689C21.8289 4.42894 21.875 4.54022 21.875 4.65625V24.3438C21.875 24.4598 21.8289 24.5711 21.7469 24.6531C21.6648 24.7352 21.5535 24.7812 21.4375 24.7812ZM7 23.9062H21V5.09375H7V23.9062Z" fill="white"/>
<path d="M19.6875 8.59375H8.75C8.63397 8.59375 8.52269 8.54766 8.44064 8.46561C8.35859 8.38356 8.3125 8.27228 8.3125 8.15625C8.3125 8.04022 8.35859 7.92894 8.44064 7.84689C8.52269 7.76484 8.63397 7.71875 8.75 7.71875H19.6875C19.8035 7.71875 19.9148 7.76484 19.9969 7.84689C20.0789 7.92894 20.125 8.04022 20.125 8.15625C20.125 8.27228 20.0789 8.38356 19.9969 8.46561C19.9148 8.54766 19.8035 8.59375 19.6875 8.59375ZM19.6875 11.2188H8.75C8.63397 11.2188 8.52269 11.1727 8.44064 11.0906C8.35859 11.0086 8.3125 10.8973 8.3125 10.7812C8.3125 10.6652 8.35859 10.5539 8.44064 10.4719C8.52269 10.3898 8.63397 10.3438 8.75 10.3438H19.6875C19.8035 10.3438 19.9148 10.3898 19.9969 10.4719C20.0789 10.5539 20.125 10.6652 20.125 10.7812C20.125 10.8973 20.0789 11.0086 19.9969 11.0906C19.9148 11.1727 19.8035 11.2188 19.6875 11.2188ZM17.5 13.8438H8.75C8.63397 13.8438 8.52269 13.7977 8.44064 13.7156C8.35859 13.6336 8.3125 13.5223 8.3125 13.4062C8.3125 13.2902 8.35859 13.1789 8.44064 13.0969C8.52269 13.0148 8.63397 12.9688 8.75 12.9688H17.5C17.616 12.9688 17.7273 13.0148 17.8094 13.0969C17.8914 13.1789 17.9375 13.2902 17.9375 13.4062C17.9375 13.5223 17.8914 13.6336 17.8094 13.7156C17.7273 13.7977 17.616 13.8438 17.5 13.8438ZM17.5 16.4688H8.75C8.63397 16.4688 8.52269 16.4227 8.44064 16.3406C8.35859 16.2586 8.3125 16.1473 8.3125 16.0312C8.3125 15.9152 8.35859 15.8039 8.44064 15.7219C8.52269 15.6398 8.63397 15.5938 8.75 15.5938H17.5C17.616 15.5938 17.7273 15.6398 17.8094 15.7219C17.8914 15.8039 17.9375 15.9152 17.9375 16.0312C17.9375 16.1473 17.8914 16.2586 17.8094 16.3406C17.7273 16.4227 17.616 16.4688 17.5 16.4688ZM15.3125 19.0938H8.75C8.63397 19.0938 8.52269 19.0477 8.44064 18.9656C8.35859 18.8836 8.3125 18.7723 8.3125 18.6562C8.3125 18.5402 8.35859 18.4289 8.44064 18.3469C8.52269 18.2648 8.63397 18.2188 8.75 18.2188H15.3125C15.4285 18.2188 15.5398 18.2648 15.6219 18.3469C15.7039 18.4289 15.75 18.5402 15.75 18.6562C15.75 18.7723 15.7039 18.8836 15.6219 18.9656C15.5398 19.0477 15.4285 19.0938 15.3125 19.0938ZM15.3125 21.7188H8.75C8.63397 21.7188 8.52269 21.6727 8.44064 21.5906C8.35859 21.5086 8.3125 21.3973 8.3125 21.2812C8.3125 21.1652 8.35859 21.0539 8.44064 20.9719C8.52269 20.8898 8.63397 20.8438 8.75 20.8438H15.3125C15.4285 20.8438 15.5398 20.8898 15.6219 20.9719C15.7039 21.0539 15.75 21.1652 15.75 21.2812C15.75 21.3973 15.7039 21.5086 15.6219 21.5906C15.5398 21.6727 15.4285 21.7188 15.3125 21.7188Z" fill="white"/>
</svg>
