<svg width="22" height="22" viewBox="0 0 22 22" fill="none" xmlns="http://www.w3.org/2000/svg">
<path d="M13.3567 15.3215V18.0715C13.3567 18.2843 13.2789 18.4685 13.1234 18.624C12.9679 18.7795 12.7837 18.8572 12.5709 18.8572H9.42808C9.21529 18.8572 9.03114 18.7795 8.87563 18.624C8.72012 18.4685 8.64237 18.2843 8.64237 18.0715V15.3215C8.64237 15.1087 8.72012 14.9246 8.87563 14.7691C9.03114 14.6136 9.21529 14.5358 9.42808 14.5358H12.5709C12.7837 14.5358 12.9679 14.6136 13.1234 14.7691C13.2789 14.9246 13.3567 15.1087 13.3567 15.3215ZM13.725 2.35725L13.3812 11.7858C13.373 11.9986 13.2891 12.1828 13.1295 12.3383C12.9699 12.4938 12.7837 12.5715 12.5709 12.5715H9.42808C9.21529 12.5715 9.02909 12.4938 8.86949 12.3383C8.70989 12.1828 8.626 11.9986 8.61782 11.7858L8.27407 2.35725C8.26588 2.14445 8.3375 1.9603 8.48891 1.80479C8.64032 1.64929 8.82243 1.57153 9.03523 1.57153H12.9638C13.1766 1.57153 13.3587 1.64929 13.5101 1.80479C13.6615 1.9603 13.7331 2.14445 13.725 2.35725Z" fill="#F9A74E"/>
</svg>
