<svg width="31" height="35" viewBox="0 0 31 35" fill="none" xmlns="http://www.w3.org/2000/svg">
<path d="M15.4688 12.1875C14.7 12.1875 14.0625 11.55 14.0625 10.7813V1.40625C14.0625 0.6375 14.7 0 15.4688 0C16.2375 0 16.875 0.6375 16.875 1.40625V10.7813C16.875 11.55 16.2375 12.1875 15.4688 12.1875Z" fill="#AD4453"/>
<path d="M15.4688 34.6875C6.9375 34.6875 0 27.75 0 19.2187C0 12.675 4.14375 6.82499 10.3125 4.64999C11.0437 4.38749 11.85 4.78124 12.1125 5.51249C12.375 6.24374 11.9812 7.04999 11.25 7.31249C6.20625 9.07499 2.8125 13.875 2.8125 19.2187C2.8125 26.1937 8.49375 31.875 15.4688 31.875C22.4438 31.875 28.125 26.1937 28.125 19.2187C28.125 13.8562 24.7313 9.07499 19.6875 7.31249C18.9562 7.04999 18.5625 6.24374 18.825 5.51249C19.0875 4.78124 19.875 4.38749 20.625 4.64999C26.7938 6.80624 30.9375 12.675 30.9375 19.2187C30.9375 27.75 24 34.6875 15.4688 34.6875Z" fill="#AD4453"/>
</svg>
