<svg width="22" height="22" viewBox="0 0 22 22" fill="none" xmlns="http://www.w3.org/2000/svg">
<g clip-path="url(#clip0_88_12062)">
<path d="M5.88232 17.1188C5.31514 17.1188 4.85107 16.6548 4.85107 16.0876H5.28076C5.28076 16.4184 5.55146 16.6891 5.88232 16.6891C6.14014 16.6891 6.35928 16.5302 6.44521 16.3024H6.29053C5.94678 16.3024 5.66748 16.0231 5.66748 15.6794C5.66748 15.3356 5.94678 15.0563 6.29053 15.0563C6.63428 15.0563 6.91357 15.3356 6.91357 15.6794V15.8341C7.14131 15.7481 7.30029 15.529 7.30029 15.2712V14.4548H7.72998V15.2712C7.72998 15.7739 7.36904 16.1907 6.89639 16.2852C6.80615 16.7622 6.38506 17.1188 5.88232 17.1188ZM6.29053 15.486C6.18311 15.486 6.09717 15.572 6.09717 15.6794C6.09717 15.7868 6.18311 15.8727 6.29053 15.8727H6.48389V15.6794C6.48389 15.5763 6.39795 15.486 6.29053 15.486ZM15.5632 8.3661C15.1593 7.96219 15.1593 7.30906 15.5632 6.90946C15.9198 6.55281 16.4698 6.51414 16.8694 6.78485C17.037 6.66883 17.239 6.60867 17.4452 6.60867C17.7202 6.60867 17.978 6.7161 18.1757 6.90946L18.7515 7.48524L18.4464 7.79032L17.8749 7.21024C17.6944 7.02977 17.4237 6.9868 17.2046 7.08563L17.312 7.19305C17.5569 7.43797 17.5569 7.83328 17.312 8.07391C17.196 8.18992 17.037 8.25438 16.8694 8.25438C16.7019 8.25438 16.5472 8.18992 16.4269 8.07391C16.3065 7.95789 16.2464 7.79891 16.2464 7.63133C16.2464 7.46375 16.3108 7.30906 16.4269 7.18875L16.5343 7.08133C16.3151 6.9825 16.0444 7.02547 15.864 7.20594C15.6276 7.44227 15.6276 7.82039 15.864 8.05672L15.5632 8.3661ZM16.8694 7.36063L16.7319 7.49813C16.6933 7.5325 16.6761 7.58406 16.6761 7.63563C16.6761 7.68719 16.6976 7.73446 16.7319 7.77313C16.7663 7.8118 16.8179 7.82899 16.8694 7.82899C16.921 7.82899 16.9683 7.8075 17.0069 7.77313C17.0456 7.73875 17.0628 7.68719 17.0628 7.63563C17.0628 7.58406 17.0413 7.5368 17.0069 7.49813L16.8694 7.36063Z" fill="#DB332A"/>
<path d="M11.2148 13.75H10.7852V22H11.2148V13.75Z" fill="#488C3D"/>
<path d="M10.7981 8.32305L9.92588 5.9125C9.204 3.91445 7.67432 2.27305 5.73213 1.40937C4.97588 1.07422 4.17666 0.902344 3.35166 0.902344V0.472656C4.23682 0.472656 5.09619 0.657422 5.904 1.01406C7.95361 1.925 9.56494 3.65664 10.3255 5.76641L11.1978 8.17695L10.7981 8.32305ZM12.8091 9.01055L12.4353 8.8L13.329 7.22305C13.9563 6.11445 14.8888 5.21641 16.0146 4.62773L16.3282 4.46445C17.8235 3.68242 19.5466 3.49766 21.1751 3.94883L21.0591 4.36133C19.538 3.94023 17.9267 4.10781 16.5259 4.84258L16.2122 5.00586C15.1552 5.56016 14.2872 6.39805 13.6985 7.43359L12.8091 9.01055ZM8.72705 9.41016L7.94932 8.63242C7.18018 7.86328 6.15752 7.38633 5.07041 7.2918C3.81572 7.18437 2.55674 7.60117 1.61572 8.43047L1.49541 8.53789L1.21182 8.21562L1.33213 8.1082C2.36338 7.20156 3.73838 6.74609 5.10908 6.86211C6.29502 6.96523 7.41221 7.48516 8.25439 8.32305L9.03213 9.10078L8.72705 9.41016ZM20.3114 10.7164L19.9548 10.5316C18.67 9.86133 17.1962 9.71094 15.7997 10.102L13.7544 10.6777L13.6384 10.2652L15.6837 9.68945C17.1833 9.26836 18.7688 9.43164 20.1524 10.1535L20.5091 10.3383L20.3114 10.7164ZM1.19893 17.0801L0.777832 16.9984C1.06572 15.5117 1.84775 14.1367 2.97354 13.1227C3.79854 12.3793 4.86846 11.9539 5.97705 11.9195L8.45205 11.8465L8.46494 12.2762L5.98994 12.3492C4.98018 12.3793 4.00908 12.766 3.25713 13.4449C2.20439 14.3902 1.46963 15.6836 1.19893 17.0801ZM17.4884 20.3672H17.0587C17.0587 19.1941 16.8524 18.0469 16.4399 16.9469C15.9974 15.7609 15.2153 14.7426 14.1841 14.0078L12.9079 13.1012L13.1571 12.7531L14.4333 13.6598C15.5333 14.4461 16.3669 15.5289 16.8396 16.7965C17.2692 17.9438 17.4884 19.1426 17.4884 20.3672Z" fill="#488C3D"/>
<path d="M13.6561 2.45865L13.2402 2.35059L11.7219 8.19365L12.1378 8.30172L13.6561 2.45865Z" fill="#BEBF25"/>
<path d="M8.28695 10.3158L5.5376 9.80029L5.45841 10.2226L8.20776 10.7381L8.28695 10.3158Z" fill="#BEBF25"/>
<path d="M18.0784 13.1902L13.7241 11.5361L13.5715 11.9378L17.9258 13.5918L18.0784 13.1902Z" fill="#BEBF25"/>
<path d="M9.96875 12.9336H9.53906V18.0469H9.96875V12.9336Z" fill="#488C3D"/>
<path d="M12.4609 12.9336H12.0312V15.5117H12.4609V12.9336Z" fill="#488C3D"/>
<path d="M2.19141 1.16016C2.45245 1.16016 2.66406 0.948541 2.66406 0.6875C2.66406 0.426459 2.45245 0.214844 2.19141 0.214844C1.93037 0.214844 1.71875 0.426459 1.71875 0.6875C1.71875 0.948541 1.93037 1.16016 2.19141 1.16016Z" fill="#DB332A"/>
<path d="M13.75 1.80469C14.011 1.80469 14.2227 1.59307 14.2227 1.33203C14.2227 1.07099 14.011 0.859375 13.75 0.859375C13.489 0.859375 13.2773 1.07099 13.2773 1.33203C13.2773 1.59307 13.489 1.80469 13.75 1.80469Z" fill="#DB332A"/>
<path d="M21.3125 11.4727C21.5735 11.4727 21.7852 11.261 21.7852 11C21.7852 10.739 21.5735 10.5273 21.3125 10.5273C21.0515 10.5273 20.8398 10.739 20.8398 11C20.8398 11.261 21.0515 11.4727 21.3125 11.4727Z" fill="#DB332A"/>
<path d="M0.6875 18.5195C0.948541 18.5195 1.16016 18.3079 1.16016 18.0469C1.16016 17.7858 0.948541 17.5742 0.6875 17.5742C0.426459 17.5742 0.214844 17.7858 0.214844 18.0469C0.214844 18.3079 0.426459 18.5195 0.6875 18.5195Z" fill="#DB332A"/>
<path d="M10.9999 12.2676L9.73662 12.9336L9.97725 11.5285L8.95459 10.5316L10.3683 10.3254L10.9999 9.04492L11.6315 10.3254L13.0452 10.5316L12.0226 11.5285L12.2632 12.9336L10.9999 12.2676Z" fill="#488C3D"/>
<path d="M12.2632 13.1485C12.2288 13.1485 12.1945 13.1399 12.1644 13.1228L10.9999 12.5126L9.83548 13.1228C9.76244 13.1614 9.6765 13.1528 9.60775 13.1056C9.5433 13.0583 9.50892 12.9767 9.52181 12.895L9.74525 11.6017L8.80853 10.6864C8.74837 10.6306 8.72689 10.5446 8.75267 10.4673C8.77845 10.3899 8.8472 10.3341 8.92455 10.3212L10.2265 10.1321L10.8066 8.95478C10.841 8.88174 10.9183 8.83447 10.9999 8.83447C11.0816 8.83447 11.1546 8.88174 11.1933 8.95478L11.7734 10.1321L13.0753 10.3212C13.157 10.3341 13.2214 10.3899 13.2472 10.4673C13.273 10.5446 13.2515 10.6306 13.1913 10.6864L12.2503 11.6017L12.4738 12.895C12.4867 12.9767 12.4566 13.0583 12.3878 13.1056C12.3535 13.1356 12.3062 13.1485 12.2632 13.1485ZM10.9999 12.0528C11.0343 12.0528 11.0687 12.0614 11.0988 12.0786L11.9753 12.5384L11.8077 11.563C11.7949 11.4942 11.8206 11.4212 11.8679 11.3739L12.5769 10.6821L11.5972 10.5403C11.5285 10.5317 11.4683 10.4845 11.4339 10.4243L10.9999 9.53057L10.5617 10.42C10.5316 10.4845 10.4714 10.5274 10.3984 10.536L9.41869 10.6778L10.1277 11.3696C10.1792 11.4169 10.2007 11.4899 10.1878 11.5587L10.0202 12.5341L10.8968 12.0743C10.9312 12.0614 10.9656 12.0528 10.9999 12.0528Z" fill="#488C3D"/>
</g>
<defs>
<clipPath id="clip0_88_12062">
<rect width="22" height="22" fill="white"/>
</clipPath>
</defs>
</svg>
