<svg width="20" height="20" viewBox="0 0 20 20" fill="none" xmlns="http://www.w3.org/2000/svg">
<path d="M14.0909 11.4395H13.4091C12.5053 11.4405 11.6388 11.8 10.9997 12.4391C10.3606 13.0782 10.0011 13.9447 10 14.8485C10.0006 15.3909 10.2163 15.9108 10.5998 16.2942C10.9832 16.6777 11.5032 16.8934 12.0455 16.894H15.4545C15.9968 16.8934 16.5168 16.6777 16.9002 16.2942C17.2837 15.9108 17.4994 15.3909 17.5 14.8485C17.4989 13.9447 17.1394 13.0782 16.5003 12.4391C15.8612 11.8 14.9947 11.4405 14.0909 11.4395Z" fill="white"/>
<path d="M6.99074 10.8335H6.34259C5.39748 10.8346 4.49141 11.2106 3.82312 11.8788C3.15483 12.5471 2.77889 13.4532 2.77777 14.3983V14.7224C2.77834 15.2379 2.98338 15.7322 3.34791 16.0967C3.71244 16.4612 4.20669 16.6663 4.72222 16.6668H8.6111C9.12663 16.6663 9.62088 16.4612 9.98541 16.0967C10.3499 15.7322 10.555 15.2379 10.5556 14.7224V14.3983C10.5544 13.4532 10.1785 12.5471 9.51021 11.8788C8.84192 11.2106 7.93584 10.8346 6.99074 10.8335Z" fill="#8DD1FF"/>
<path d="M6.66669 8.3335C8.0474 8.3335 9.16669 7.21421 9.16669 5.8335C9.16669 4.45278 8.0474 3.3335 6.66669 3.3335C5.28598 3.3335 4.16669 4.45278 4.16669 5.8335C4.16669 7.21421 5.28598 8.3335 6.66669 8.3335Z" fill="#8DD1FF"/>
<path d="M13.75 9.16667C14.9006 9.16667 15.8334 8.23393 15.8334 7.08333C15.8334 5.93274 14.9006 5 13.75 5C12.5994 5 11.6667 5.93274 11.6667 7.08333C11.6667 8.23393 12.5994 9.16667 13.75 9.16667Z" fill="#3E96ED"/>
<path d="M13.75 9.99984C13.1732 9.99984 12.6093 9.82878 12.1296 9.50829C11.65 9.1878 11.2761 8.73228 11.0554 8.19933C10.8346 7.66638 10.7769 7.07994 10.8894 6.51416C11.0019 5.94838 11.2797 5.42868 11.6876 5.02078C12.0955 4.61287 12.6152 4.33509 13.181 4.22255C13.7468 4.11001 14.3332 4.16777 14.8662 4.38852C15.3991 4.60928 15.8547 4.98312 16.1751 5.46276C16.4956 5.9424 16.6667 6.50631 16.6667 7.08317C16.6658 7.85643 16.3582 8.59776 15.8114 9.14453C15.2646 9.69131 14.5233 9.9989 13.75 9.99984ZM13.75 5.83317C13.5028 5.83317 13.2611 5.90648 13.0556 6.04383C12.85 6.18119 12.6898 6.37641 12.5952 6.60482C12.5006 6.83323 12.4758 7.08456 12.524 7.32703C12.5723 7.56951 12.6913 7.79224 12.8661 7.96706C13.041 8.14187 13.2637 8.26092 13.5062 8.30915C13.7486 8.35738 14 8.33263 14.2284 8.23802C14.4568 8.14341 14.652 7.9832 14.7894 7.77763C14.9267 7.57207 15 7.3304 15 7.08317C14.9997 6.75176 14.8678 6.43403 14.6335 6.19969C14.3992 5.96535 14.0814 5.83353 13.75 5.83317ZM9.16669 17.4998H4.16669C3.50387 17.4991 2.8684 17.2355 2.39972 16.7668C1.93104 16.2981 1.66741 15.6627 1.66669 14.9998C1.66669 13.6738 2.19347 12.402 3.13115 11.4643C4.06884 10.5266 5.3406 9.99984 6.66669 9.99984C7.99277 9.99984 9.26454 10.5266 10.2022 11.4643C11.1399 12.402 11.6667 13.6738 11.6667 14.9998C11.666 15.6627 11.4023 16.2981 10.9337 16.7668C10.465 17.2355 9.82951 17.4991 9.16669 17.4998ZM6.66669 11.6665C5.7829 11.6674 4.93557 12.0189 4.31064 12.6438C3.68571 13.2687 3.33424 14.1161 3.33335 14.9998C3.3335 15.2208 3.42135 15.4327 3.57759 15.5889C3.73384 15.7452 3.94572 15.833 4.16669 15.8332H9.16669C9.38766 15.833 9.59953 15.7452 9.75578 15.5889C9.91203 15.4327 9.99987 15.2208 10 14.9998C9.99914 14.1161 9.64766 13.2687 9.02273 12.6438C8.3978 12.0189 7.55047 11.6674 6.66669 11.6665Z" fill="#004FAC"/>
<path d="M15.8334 17.5H11.6667C11.3088 17.5002 10.9552 17.4228 10.6301 17.2732C10.305 17.1236 10.0162 16.9053 9.78357 16.6333C9.71219 16.5502 9.6579 16.4538 9.62381 16.3497C9.58972 16.2456 9.57648 16.1358 9.58487 16.0266C9.59326 15.9173 9.6231 15.8108 9.67269 15.7131C9.72228 15.6154 9.79065 15.5285 9.87388 15.4572C9.9571 15.386 10.0536 15.3318 10.1577 15.2979C10.2619 15.264 10.3717 15.2509 10.481 15.2595C10.5902 15.268 10.6967 15.298 10.7943 15.3478C10.8919 15.3975 10.9787 15.466 11.0499 15.5494C11.126 15.6385 11.2206 15.71 11.3271 15.7591C11.4336 15.8081 11.5495 15.8334 11.6667 15.8333H15.8334C15.9408 15.8343 16.0474 15.8137 16.1466 15.7725C16.2459 15.7314 16.3359 15.6707 16.4112 15.5941C16.4921 15.5177 16.5565 15.4257 16.6004 15.3235C16.6444 15.2213 16.6669 15.1112 16.6667 15C16.7071 14.3821 16.5023 13.7732 16.0968 13.3053C15.6913 12.8373 15.1177 12.548 14.5004 12.5H12.9997C12.7134 12.5036 12.431 12.568 12.1714 12.6887C11.9117 12.8095 11.6806 12.984 11.4934 13.2007C11.3725 13.3348 11.2689 13.4836 11.1849 13.6434C11.1333 13.7399 11.0632 13.8253 10.9786 13.8947C10.894 13.9641 10.7965 14.0162 10.6918 14.0479C10.587 14.0796 10.4771 14.0904 10.3682 14.0797C10.2592 14.0689 10.1535 14.0368 10.057 13.9852C9.96051 13.9336 9.87511 13.8635 9.80571 13.7788C9.7363 13.6942 9.68425 13.5968 9.65251 13.492C9.62077 13.3873 9.60997 13.2773 9.62073 13.1684C9.63149 13.0595 9.66359 12.9538 9.71521 12.8573C9.86376 12.5768 10.0463 12.3158 10.2588 12.0801C10.6015 11.6902 11.023 11.3775 11.4955 11.1626C11.968 10.9477 12.4807 10.8355 12.9997 10.8333H14.5004C15.5601 10.8806 16.5581 11.3454 17.2763 12.1261C17.9945 12.9068 18.3745 13.94 18.3334 15C18.3303 15.6621 18.0659 16.2962 17.5977 16.7643C17.1295 17.2325 16.4955 17.4969 15.8334 17.5ZM6.66671 9.16667C6.00744 9.16667 5.36297 8.97117 4.81481 8.6049C4.26664 8.23863 3.8394 7.71803 3.58711 7.10895C3.33482 6.49986 3.26881 5.82964 3.39742 5.18303C3.52604 4.53643 3.84351 3.94249 4.30969 3.47631C4.77586 3.01014 5.3698 2.69267 6.01641 2.56405C6.66301 2.43543 7.33323 2.50144 7.94232 2.75374C8.55141 3.00603 9.072 3.43327 9.43827 3.98143C9.80455 4.5296 10 5.17406 10 5.83334C9.99916 6.71712 9.64769 7.56445 9.02276 8.18938C8.39783 8.81431 7.55049 9.16579 6.66671 9.16667ZM6.66671 4.16667C6.33707 4.16667 6.01484 4.26442 5.74076 4.44755C5.46668 4.63069 5.25306 4.89099 5.12691 5.19553C5.00076 5.50007 4.96776 5.83518 5.03207 6.15849C5.09638 6.48179 5.25511 6.77876 5.4882 7.01185C5.72128 7.24493 6.01826 7.40367 6.34156 7.46798C6.66486 7.53229 6.99997 7.49928 7.30451 7.37313C7.60906 7.24699 7.86936 7.03337 8.05249 6.75929C8.23563 6.4852 8.33338 6.16297 8.33338 5.83334C8.3328 5.39148 8.15702 4.96789 7.84459 4.65546C7.53215 4.34302 7.10856 4.16724 6.66671 4.16667Z" fill="#004FAC"/>
</svg>
