<svg width="223" height="133" viewBox="0 0 223 133" fill="none" xmlns="http://www.w3.org/2000/svg">
<path d="M54.8767 49.7433L34.9705 49.7079C32.8925 48.6955 30.2458 48.1935 27.5691 48.3039C24.8923 48.4143 22.3867 49.1289 20.5622 50.3022C18.7377 51.4755 17.7314 53.0194 17.7481 54.6197C17.7649 56.2199 18.8034 57.7562 20.6523 58.9158L20.4389 60.2095C18.9158 60.3113 17.4648 60.6511 16.2324 61.1945C15.8755 61.1882 15.5187 61.1815 15.1618 61.1745C12.7109 61.1221 10.3212 61.6379 8.49429 62.6138C6.66736 63.5896 5.54519 64.9495 5.36329 66.4082C5.18139 67.8669 5.9539 69.3109 7.5187 70.4371C9.08349 71.5634 11.3189 72.2844 13.7559 72.4489C14.1319 73.6539 14.6072 74.8471 15.1801 76.0243C13.0226 75.977 10.9026 76.3704 9.17083 77.1394C7.43907 77.9083 6.19925 79.0068 5.6564 80.2531C5.11356 81.4994 5.30022 82.8189 6.18551 83.9933C7.0708 85.1677 8.60168 86.1268 10.525 86.7118C12.9863 87.4607 15.4627 88.1919 17.9537 88.905C17.3784 92.948 17.926 97.0199 19.5743 100.957L19.8466 101.602L18.3243 115.027C17.0991 115.438 16.0587 116.019 15.2919 116.722C14.5251 117.424 14.0548 118.227 13.921 119.062C13.7872 119.896 13.994 120.737 14.5237 121.514C15.0534 122.29 15.8902 122.979 16.9628 123.521C17.1611 123.621 17.3071 123.753 17.3831 123.901C17.8426 124.792 18.6956 125.593 19.8527 126.219C21.0098 126.846 22.4284 127.276 23.9596 127.463C25.4909 127.65 27.0784 127.588 28.5557 127.284C30.033 126.979 31.3456 126.443 32.3559 125.731C32.5238 125.613 32.7453 125.526 32.994 125.481C34.7982 125.15 36.3734 124.478 37.4823 123.567C38.4469 122.799 39.7539 122.208 41.2541 121.862L46.6867 120.555C47.5212 120.354 48.4213 120.27 49.3188 120.308C50.2164 120.345 51.0877 120.505 51.8667 120.773L68.8952 126.641C70.7802 127.291 73.005 127.496 75.131 127.216L96.2994 124.428L132.231 124.437C133.034 125.102 134.09 125.643 135.311 126.018C136.532 126.393 137.885 126.59 139.259 126.593C140.632 126.597 141.988 126.406 143.214 126.037C144.44 125.668 145.503 125.131 146.315 124.47L146.352 124.44L161.315 124.444L162.394 125.116C163.825 126.008 165.74 126.567 167.798 126.692C169.857 126.818 171.923 126.503 173.627 125.803L176.928 124.447L190.793 124.451L190.927 124.599L192.777 126.637C193.524 127.46 194.63 128.148 195.978 128.627C197.327 129.106 198.867 129.359 200.437 129.359C200.463 129.359 200.488 129.359 200.514 129.359C202.096 129.351 203.645 129.085 204.994 128.592C206.343 128.098 207.441 127.394 208.17 126.556L209.894 124.574C212.786 121.259 214.831 117.704 215.961 114.028C217.858 113.634 219.497 112.893 220.643 111.909C221.789 110.925 222.383 109.75 222.34 108.553C222.274 107.15 221.341 105.811 219.72 104.793C218.1 103.775 215.906 103.15 213.56 103.038C212.044 102.351 210.193 101.979 208.289 101.979H208.28L203.659 101.981L201.85 98.4462C203.276 97.3904 203.954 96.0439 203.738 94.6943C203.522 93.3447 202.431 92.0988 200.696 91.2226C200.507 91.1331 200.367 91.0122 200.293 90.8753C200.029 90.4118 199.598 89.9885 199.03 89.6352C197.597 88.6958 196.632 87.537 196.242 86.2888C195.852 85.0405 196.052 83.7521 196.821 82.568L197.842 81.0253C198.868 79.4555 200.851 78.175 203.393 77.4402C204.652 77.0824 205.776 76.5749 206.695 75.949C207.615 75.323 208.31 74.5918 208.739 73.7999C209.167 73.0081 209.32 72.1724 209.189 71.3441C209.057 70.5157 208.643 69.7122 207.972 68.9825C207.777 68.7694 207.56 68.5633 207.324 68.3653L207.394 64.035C208.257 63.4325 208.878 62.72 209.208 61.9522L210.173 59.7079C211.854 55.7757 212.435 51.705 211.893 47.6599C213.652 47.1633 215.373 46.6667 217.057 46.1702C218.871 45.6347 220.351 44.767 221.279 43.6939C222.207 42.6209 222.535 41.3989 222.215 40.2067C221.895 39.0145 220.943 37.9147 219.499 37.0683C218.056 36.2218 216.196 35.6731 214.192 35.5024C214.805 34.0085 215.262 32.4934 215.56 30.9658C217.69 30.6011 219.538 29.8036 220.785 28.7117C222.032 27.6197 222.599 26.302 222.388 24.9868C222.268 24.2385 221.899 23.512 221.302 22.8497C220.706 22.1875 219.894 21.6027 218.914 21.1297C217.935 20.6567 216.807 20.3049 215.596 20.0949C214.386 19.8848 213.118 19.8207 211.866 19.9063L211.86 19.9055C210.278 19.2978 208.409 19.012 206.532 19.0912L201.747 19.2917C202.651 18.0864 202.927 16.7471 202.541 15.447C202.155 14.1469 201.124 12.9458 199.582 11.9988C198.495 11.3189 197.171 10.79 195.703 10.4493C193.813 10.0015 191.752 9.87128 189.746 10.0728C187.74 10.2743 185.865 10.7998 184.325 11.5922C182.784 12.3847 181.637 13.4138 181.008 14.5676C180.38 15.7215 180.293 16.9561 180.758 18.1373C180.855 18.3626 180.863 18.5981 180.782 18.8256C180.7 19.053 180.532 19.2661 180.289 19.4481C180.046 19.63 179.736 19.7759 179.383 19.8743C179.029 19.9727 178.643 20.0209 178.253 20.0152L178.207 20.0141C177.811 20.0073 177.424 19.9444 177.077 19.8306C176.729 19.7169 176.433 19.5555 176.211 19.3599C175.989 19.1642 175.848 18.9399 175.8 18.7054C175.752 18.4709 175.799 18.233 175.935 18.0113C176.267 17.4825 176.471 16.9279 176.539 16.3647C176.638 15.5742 176.453 14.7803 175.998 14.0356C175.566 13.3136 174.897 12.6501 174.03 12.084C173.163 11.5179 172.116 11.0604 170.95 10.7384C169.783 10.4163 168.521 10.2361 167.236 10.2082C165.951 10.1803 164.67 10.3054 163.467 10.576C162.265 10.8467 161.164 11.2575 160.231 11.7846C159.297 12.3116 158.549 12.9443 158.03 13.6457C157.511 14.3471 157.232 15.1032 157.208 15.8697C157.184 16.6363 157.417 17.3979 157.892 18.1103C158.006 18.2744 158.05 18.4529 158.019 18.6296C157.988 18.8063 157.883 18.9755 157.714 19.1219C157.545 19.2682 157.318 19.3871 157.052 19.4676C156.786 19.548 156.491 19.5876 156.194 19.5827C155.108 19.559 154.024 19.6586 153.001 19.8762C152.522 19.7971 152.032 19.7424 151.538 19.7128L150.315 19.6393C149.865 19.6096 149.452 19.479 149.159 19.274C148.865 19.069 148.714 18.805 148.735 18.5358C148.806 16.9393 147.864 15.3855 146.098 14.1852C145.296 13.6313 144.328 13.1712 143.244 12.8282C141.367 12.2198 139.225 11.9645 137.099 12.0957C134.974 12.2269 132.965 12.7385 131.336 13.5634C130.433 14.0117 129.67 14.5521 129.084 15.1594C128.72 15.5368 128.419 15.9348 128.186 16.3475C127.875 16.9277 127.228 17.4229 126.361 17.7443C125.494 18.0658 124.463 18.1925 123.454 18.1017L123.126 18.0706C122.498 18.0068 121.901 17.8618 121.377 17.6457C120.852 17.4297 120.414 17.1479 120.092 16.82C119.769 16.4922 119.571 16.1263 119.511 15.7479C119.451 15.3696 119.531 14.988 119.744 14.63C120.294 13.6468 120.338 12.5881 119.871 11.5899C119.404 10.5917 118.447 9.69966 117.123 9.02837C116.943 8.93729 116.811 8.81728 116.742 8.68263C116.285 7.7912 115.435 6.98953 114.279 6.36167C113.124 5.73381 111.707 5.30289 110.176 5.11409C108.646 4.9253 107.058 4.98558 105.58 5.28862C104.102 5.59166 102.788 6.1263 101.776 6.83647C101.623 6.94377 101.422 7.02266 101.196 7.06377C99.9059 7.29873 98.7247 7.70936 97.7459 8.26324C96.7672 8.81712 96.0178 9.4991 95.5567 10.2553C95.0956 11.0116 94.9356 11.8214 95.0892 12.6208C95.2428 13.4203 95.7059 14.1875 96.4418 14.8619L80.6376 13.5595C79.7332 13.4846 78.8147 13.4953 77.9158 13.5912C77.2786 13.3632 76.595 13.1849 75.8818 13.0605L48.5469 8.2935C48.4544 8.27732 48.3615 8.26208 48.2682 8.24778C47.6627 7.52822 46.7848 6.90257 45.7038 6.42034C44.6229 5.9381 43.3686 5.61251 42.0403 5.46933L26.2417 3.75877C25.2553 3.6514 24.2452 3.64657 23.256 3.74448C21.5835 3.35397 19.9441 2.96215 18.3378 2.56904C16.5575 2.13643 14.5988 2.03666 12.7212 2.28293C10.8437 2.5292 9.13591 3.1099 7.82419 3.94809C6.51247 4.78628 5.65872 5.84238 5.37605 6.97648C5.09339 8.11057 5.39516 9.26913 6.24138 10.2986C7.31782 11.5727 9.14109 12.5668 11.3652 13.0921C12.5978 13.3931 13.8565 13.6951 15.1413 13.9982C15.0543 18.0251 16.0744 22.0334 18.161 25.8635L19.2969 27.9398C19.7189 28.7436 20.4541 29.4763 21.4424 30.078C22.4306 30.6796 23.6438 31.1331 24.9825 31.4012C26.416 31.6755 27.9441 31.7238 29.4181 31.5415L31.2805 33.7918C29.9093 34.8488 29.2738 36.1802 29.506 37.5094C29.7383 38.8386 30.8204 40.0633 32.5275 40.9289C33.356 41.3487 33.9652 41.9014 34.2828 42.5215C34.74 43.4136 35.5914 44.2157 36.7477 44.8438C37.904 45.4719 39.3226 45.9028 40.8544 46.0911C42.3862 46.2795 43.9747 46.2184 45.4533 45.9143C46.9318 45.6101 48.2458 45.0742 49.2573 44.3627C49.976 43.8674 50.9148 43.5034 51.9655 43.3128L52.0979 43.2878C52.9738 43.1234 53.9192 43.1509 54.7641 43.3652C55.6091 43.5795 56.298 43.9667 56.7069 44.457L58.3424 46.4183C58.6352 46.7695 58.7726 47.1597 58.7414 47.5515C58.7102 47.9434 58.5116 48.324 58.1643 48.6572C57.817 48.9904 57.3327 49.2651 56.7573 49.4551C56.1819 49.6452 55.5345 49.7444 54.8767 49.7433ZM21.7081 53.4369C21.7037 53.4447 21.702 53.453 21.6981 53.461C21.7016 53.4532 21.7033 53.4454 21.7068 53.4382L21.7081 53.4369Z" fill="white"/>
<path d="M68.5477 55.894C69.878 55.894 70.9563 55.2509 70.9563 54.4575C70.9563 53.6641 69.878 53.021 68.5477 53.021C67.2175 53.021 66.1392 53.6641 66.1392 54.4575C66.1392 55.2509 67.2175 55.894 68.5477 55.894Z" fill="#E76F4B"/>
<path d="M28.3022 55.4538C29.3185 55.4538 30.1424 54.9624 30.1424 54.3563C30.1424 53.7502 29.3185 53.2588 28.3022 53.2588C27.2859 53.2588 26.462 53.7502 26.462 54.3563C26.462 54.9624 27.2859 55.4538 28.3022 55.4538Z" fill="#FAB431"/>
<path d="M86.7722 41.7215C87.2259 41.7215 87.5937 41.5022 87.5937 41.2316C87.5937 40.961 87.2259 40.7417 86.7722 40.7417C86.3186 40.7417 85.9508 40.961 85.9508 41.2316C85.9508 41.5022 86.3186 41.7215 86.7722 41.7215Z" fill="#D34142"/>
<path d="M42.6134 40.7723C41.8091 39.2025 40.2668 37.8032 38.1696 36.7402C40.8016 36.2605 43.1479 35.3407 44.9301 34.0898C45.7345 35.6597 47.2767 37.059 49.374 38.1219C46.7419 38.6017 44.3957 39.5215 42.6134 40.7723Z" fill="#E76F4B"/>
<path d="M191.584 17.8193C192.915 17.8193 193.993 17.1762 193.993 16.3828C193.993 15.5894 192.915 14.9463 191.584 14.9463C190.254 14.9463 189.176 15.5894 189.176 16.3828C189.176 17.1762 190.254 17.8193 191.584 17.8193Z" fill="#D34142"/>
<path d="M138.184 19.2248C139.2 19.2248 140.024 18.7334 140.024 18.1273C140.024 17.5212 139.2 17.0298 138.184 17.0298C137.168 17.0298 136.344 17.5212 136.344 18.1273C136.344 18.7334 137.168 19.2248 138.184 19.2248Z" fill="#FAB431"/>
<path d="M166.878 16.3228C167.412 16.3228 167.845 16.0646 167.845 15.7461C167.845 15.4276 167.412 15.1694 166.878 15.1694C166.344 15.1694 165.912 15.4276 165.912 15.7461C165.912 16.0646 166.344 16.3228 166.878 16.3228Z" fill="#DF6811"/>
<path d="M106.812 14.5862C106.256 13.502 105.191 12.5356 103.742 11.8015C105.56 11.4702 107.181 10.835 108.412 9.97119C108.967 11.0554 110.032 12.0218 111.481 12.7559C109.663 13.0872 108.043 13.7224 106.812 14.5862Z" fill="#E76F4B"/>
<path d="M125.708 47.6159C127.548 47.2786 129.187 46.6335 130.431 45.7573C130.997 46.8549 132.079 47.8327 133.548 48.5747C131.708 48.9121 130.069 49.5572 128.824 50.4334C128.258 49.3358 127.177 48.358 125.708 47.6159Z" fill="#FAB431"/>
<path d="M161.469 97.6169C162.485 97.6169 163.309 97.1255 163.309 96.5194C163.309 95.9132 162.485 95.4219 161.469 95.4219C160.453 95.4219 159.629 95.9132 159.629 96.5194C159.629 97.1255 160.453 97.6169 161.469 97.6169Z" fill="#E76F4B"/>
<path d="M129.186 80.0259C129.934 80.0259 130.54 79.6643 130.54 79.2183C130.54 78.7722 129.934 78.4106 129.186 78.4106C128.438 78.4106 127.832 78.7722 127.832 79.2183C127.832 79.6643 128.438 80.0259 129.186 80.0259Z" fill="#FAB431"/>
<path d="M71.7054 121.104C72.5598 121.104 73.2525 120.691 73.2525 120.181C73.2525 119.672 72.5598 119.259 71.7054 119.259C70.851 119.259 70.1583 119.672 70.1583 120.181C70.1583 120.691 70.851 121.104 71.7054 121.104Z" fill="#E76F4B"/>
<path d="M80.604 86.606C81.138 86.606 81.5709 86.3478 81.5709 86.0293C81.5709 85.7108 81.138 85.4526 80.604 85.4526C80.07 85.4526 79.6371 85.7108 79.6371 86.0293C79.6371 86.3478 80.07 86.606 80.604 86.606Z" fill="#D34142"/>
<path d="M198.975 72.6139C199.83 72.6139 200.522 72.2008 200.522 71.6912C200.522 71.1816 199.83 70.7686 198.975 70.7686C198.121 70.7686 197.428 71.1816 197.428 71.6912C197.428 72.2008 198.121 72.6139 198.975 72.6139Z" fill="#E76F4B"/>
<path d="M107.385 93.3897C106.691 92.0345 105.36 90.8265 103.549 89.9089C105.821 89.4947 107.847 88.7005 109.385 87.6206C110.08 88.9758 111.411 90.1838 113.222 91.1015C110.949 91.5157 108.924 92.3098 107.385 93.3897Z" fill="#E76F4B"/>
<path d="M187.226 93.9981C189.066 93.6607 190.706 93.0157 191.95 92.1395C192.516 93.2371 193.597 94.2148 195.066 94.9569C193.226 95.2943 191.587 95.9393 190.342 96.8155C189.777 95.718 188.695 94.7402 187.226 93.9981ZM155.887 77.3835C157.727 77.0461 159.366 76.4011 160.611 75.5249C161.176 76.6224 162.258 77.6002 163.727 78.3423C161.887 78.6797 160.247 79.3247 159.003 80.2009C158.437 79.1034 157.356 78.1256 155.887 77.3835Z" fill="#FAB431"/>
<path d="M93.4523 115.352C94.8144 115.102 96.0278 114.625 96.9488 113.976C97.3676 114.788 98.1681 115.512 99.2555 116.061C97.8933 116.311 96.6799 116.789 95.7589 117.437C95.3403 116.625 94.5397 115.901 93.4523 115.352Z" fill="#E76F4B"/>
<path d="M50.5626 113.959C51.5789 113.959 52.4028 113.467 52.4028 112.861C52.4028 112.255 51.5789 111.764 50.5626 111.764C49.5463 111.764 48.7224 112.255 48.7224 112.861C48.7224 113.467 49.5463 113.959 50.5626 113.959Z" fill="#FAB431"/>
<path d="M28.9769 109.276C29.5109 109.276 29.9438 109.018 29.9438 108.699C29.9438 108.381 29.5109 108.123 28.9769 108.123C28.4429 108.123 28.01 108.381 28.01 108.699C28.01 109.018 28.4429 109.276 28.9769 109.276Z" fill="#D34142"/>
<path d="M30.4329 120.284C28.5927 120.621 26.9532 121.266 25.709 122.142C25.1433 121.045 24.0618 120.067 22.5927 119.325C24.4329 118.988 26.0723 118.343 27.3166 117.466C27.8823 118.564 28.9638 119.542 30.4329 120.284Z" fill="#FAB431"/>
<path d="M175.94 26.8542C100.387 26.8542 39.4104 14.1709 14.427 8.05812C14.2132 8.00583 14.0429 7.90502 13.9537 7.77788C13.8646 7.65073 13.8637 7.50766 13.9514 7.38013C14.0391 7.25261 14.2081 7.15108 14.4213 7.09789C14.6344 7.04469 14.8743 7.04418 15.0882 7.09647C43.9266 14.1527 120.928 30.0005 212.864 24.7787C213.093 24.7667 213.321 24.8092 213.497 24.897C213.674 24.9847 213.786 25.1106 213.807 25.2472C213.829 25.3837 213.759 25.5198 213.613 25.6259C213.468 25.7319 213.257 25.7992 213.029 25.8131C200.356 26.5327 187.962 26.8542 175.94 26.8542Z" fill="#3D3351"/>
<path d="M183.934 33.0489L169.304 39.9942L155.469 32.4912L155.907 24.5449L184.371 25.1026L183.934 33.0489Z" fill="#D34142"/>
<path d="M178.679 29.9153L169.622 34.2147L161.058 29.5701L161.329 24.6509L178.95 24.9961L178.679 29.9153Z" fill="#FAB431"/>
<path d="M127.504 31.5733L111.523 37.3638L99.384 28.8809L101.497 21.0308L129.617 23.723L127.504 31.5733Z" fill="#D34142"/>
<path d="M122.953 28.0698L113.06 31.6543L105.545 26.4032L106.853 21.5435L124.261 23.2101L122.953 28.0698Z" fill="#FAB431"/>
<path d="M29.9399 24.4588L27.6472 26.2239L26.4416 24.0211C23.726 19.0604 23.1224 13.7747 24.685 8.64014L40.4845 10.3504C38.9203 15.49 35.3034 20.3293 29.9399 24.4588Z" fill="#26A227"/>
<path d="M69.6953 25.4472L52.6263 30.0009L42.36 20.68L46.1018 13.0488L73.4367 17.816L69.6953 25.4472Z" fill="#D34142"/>
<path d="M65.9139 21.6323L55.3476 24.4513L48.9921 18.6811L51.3083 13.957L68.2302 16.9082L65.9139 21.6323Z" fill="#FAB431"/>
<path d="M85.8158 34.1473L83.6503 35.9685L82.2896 33.7982C79.2249 28.9103 78.2472 23.6445 79.4446 18.4751L95.3512 19.7859C94.1526 24.9602 90.8818 29.8863 85.8158 34.1473ZM142.016 39.2114L139.964 41.0791L138.471 38.9397C135.108 34.1221 133.807 28.8812 134.686 23.6891L150.662 24.651C149.782 29.8482 146.817 34.8425 142.016 39.2114ZM202.774 39.268L201.284 41.3163L199.202 39.3595C194.515 34.9531 191.739 29.9204 191.125 24.7149L207.143 24.0429C207.758 29.2535 206.259 34.4757 202.774 39.2678V39.268Z" fill="#26A227"/>
<path d="M27.4713 67.2408C23.2825 67.2408 19.0577 67.1993 14.7969 67.1161C14.5659 67.1116 14.3475 67.0525 14.1896 66.9519C14.0317 66.8513 13.9473 66.7174 13.9549 66.5797C13.9626 66.442 14.0616 66.3117 14.2303 66.2176C14.3989 66.1234 14.6234 66.073 14.8543 66.0776C108.378 67.9237 184.205 48.7372 212.463 40.4039C212.566 40.3737 212.677 40.3558 212.792 40.3512C212.906 40.3467 213.02 40.3556 213.129 40.3775C213.237 40.3994 213.337 40.4338 213.423 40.4787C213.509 40.5236 213.58 40.5782 213.63 40.6394C213.681 40.7006 213.711 40.7671 213.719 40.8352C213.726 40.9032 213.711 40.9716 213.675 41.0362C213.638 41.1008 213.58 41.1605 213.505 41.2119C213.43 41.2632 213.338 41.3052 213.235 41.3354C186.148 49.3232 115.528 67.2408 27.4713 67.2408Z" fill="#3D3351"/>
<path d="M45.5429 73.2382L60.892 79.6077L73.8883 71.5895L72.5943 63.6763L44.2489 65.325L45.5429 73.2382Z" fill="#D34142"/>
<path d="M50.4494 69.9095L59.9508 73.8525L67.9962 68.8889L67.1953 63.9902L49.6479 65.0109L50.4494 69.9095Z" fill="#FAB431"/>
<path d="M101.697 69.6006L118.269 74.7657L129.468 65.8347L126.512 58.082L98.7415 61.8479L101.697 69.6006Z" fill="#D34142"/>
<path d="M105.861 65.9299L116.12 69.1273L123.052 63.5987L121.223 58.7993L104.031 61.1305L105.861 65.9299Z" fill="#FAB431"/>
<path d="M198.291 58.7571L200.77 60.4307L201.735 58.1861C203.91 53.1314 203.942 47.8335 201.828 42.7695L186.246 45.0827C188.362 50.1516 192.494 54.842 198.291 58.7571Z" fill="#26A227"/>
<path d="M158.725 61.2689L176.25 65.1584L185.489 55.4626L180.932 47.9907L154.168 53.7973L158.725 61.2689Z" fill="#D34142"/>
<path d="M162.087 57.3169L172.936 59.7247L178.655 53.7226L175.834 49.0972L159.266 52.6915L162.087 57.3169Z" fill="#FAB431"/>
<path d="M143.576 70.5697L145.934 72.3041L147.057 70.0858C149.588 65.0905 149.996 59.7982 148.243 54.6855L132.511 56.6039C134.266 61.7216 138.061 66.5119 143.576 70.5697ZM88.0389 77.78L90.2881 79.5646L91.5477 77.3724C94.384 72.4358 95.1165 67.1559 93.6792 62.0083L77.8397 63.5815C79.2783 68.7341 82.7767 73.6043 88.0389 77.78ZM27.4129 80.1678L29.1207 82.1547L30.987 80.1221C35.1894 75.5449 37.4164 70.4161 37.4675 65.1977L21.4102 65.1419C21.3589 70.3653 23.4179 75.5193 27.4129 80.1678Z" fill="#26A227"/>
<path d="M204.024 109.028C113.521 109.028 41.6901 90.2037 14.4414 81.9057C14.2356 81.843 14.08 81.7342 14.0087 81.6031C13.9375 81.472 13.9565 81.3294 14.0616 81.2067C14.1666 81.0839 14.3491 80.9911 14.5689 80.9486C14.7888 80.9062 15.0278 80.9175 15.2336 80.9802C43.2467 89.5111 118.583 109.214 212.837 107.929C213.065 107.929 213.284 107.982 213.447 108.077C213.61 108.172 213.704 108.301 213.709 108.437C213.715 108.572 213.63 108.704 213.475 108.803C213.319 108.903 213.105 108.961 212.877 108.968C209.908 109.008 206.957 109.028 204.024 109.028Z" fill="#3D3351"/>
<path d="M184.089 114.969L168.687 121.294L155.757 113.237L157.117 105.328L185.448 107.06L184.089 114.969Z" fill="#D34142"/>
<path d="M179.21 111.626L169.676 115.541L161.672 110.554L162.513 105.658L180.051 106.73L179.21 111.626Z" fill="#FAB431"/>
<path d="M127.965 111.166L111.351 116.283L100.226 107.319L103.245 99.5752L130.985 103.422L127.965 111.166Z" fill="#D34142"/>
<path d="M123.832 107.484L113.547 110.651L106.66 105.102L108.529 100.308L125.701 102.69L123.832 107.484Z" fill="#FAB431"/>
<path d="M31.4617 100.04L28.9699 101.707L28.0226 99.459C25.8895 94.3981 25.9011 89.1001 28.0561 84.0425L43.6191 86.4011C41.4619 91.4639 37.2919 96.1422 31.4617 100.04Z" fill="#26A227"/>
<path d="M71.0068 102.668L53.4503 106.506L44.2908 96.7836L48.9097 89.3252L75.6253 95.2099L71.0068 102.668Z" fill="#D34142"/>
<path d="M67.6774 98.7058L56.8092 101.082L51.1393 95.0629L53.9982 90.4458L70.5368 94.0888L67.6774 98.7058Z" fill="#FAB431"/>
<path d="M86.0788 112.013L83.7069 113.74L82.6014 111.519C80.1116 106.516 79.7478 101.223 81.5426 96.1152L97.2589 98.0798C95.4622 103.192 91.6272 107.971 86.0784 112.013H86.0788ZM141.556 119.386L139.292 121.164L138.051 118.968C135.255 114.023 134.566 108.741 136.046 103.598L151.872 105.218C150.391 110.366 146.853 115.226 141.556 119.386ZM202.161 121.952L200.437 123.934L198.588 121.895C194.423 117.306 192.239 112.171 192.23 106.952L208.288 106.943C208.296 112.167 206.195 117.315 202.161 121.952Z" fill="#26A227"/>
</svg>
