<svg width="238" height="238" viewBox="0 0 238 238" fill="none" xmlns="http://www.w3.org/2000/svg">
<path d="M123.316 142.107L28.9345 82.0438C24.0551 78.817 20.6381 73.8029 19.4194 68.0814C18.2006 62.3599 19.2776 56.3886 22.4184 51.4534C25.5592 46.5182 30.5126 43.0138 36.2118 41.6949C41.9111 40.376 47.9004 41.3481 52.8899 44.4019L122.133 88.4639L184.304 44.9434C189.154 41.6564 195.103 40.4094 200.865 41.4716C206.628 42.5338 211.741 45.82 215.101 50.6204C218.46 55.4209 219.797 61.3502 218.822 67.1278C217.847 72.9055 214.638 78.0677 209.889 81.4994L123.316 142.107Z" fill="#EA4435"/>
<path d="M204.531 197.094H174.781V63.2188C174.781 57.3011 177.132 51.6258 181.316 47.4414C185.501 43.257 191.176 40.9062 197.094 40.9062C203.011 40.9062 208.687 43.257 212.871 47.4414C217.055 51.6258 219.406 57.3011 219.406 63.2188L219.406 182.219C219.406 186.164 217.839 189.947 215.049 192.737C212.26 195.527 208.476 197.094 204.531 197.094Z" fill="#00AC47"/>
<path d="M219.084 59.9879C219.018 59.5417 219.023 59.0858 218.93 58.6403C218.788 57.9575 218.522 57.3268 218.318 56.6678C218.121 55.9136 217.883 55.1705 217.606 54.4418C217.457 54.0885 217.228 53.7784 217.059 53.4348C216.596 52.4433 216.061 51.4875 215.457 50.575C215.16 50.1429 214.788 49.7748 214.459 49.3657C213.895 48.6222 213.285 47.9146 212.633 47.2468C212.138 46.7656 211.575 46.3632 211.037 45.9296C210.465 45.4396 209.87 44.9786 209.252 44.5484C208.662 44.1632 208.017 43.8664 207.393 43.5377C206.735 43.1948 206.091 42.8214 205.407 42.5477C204.746 42.2815 204.04 42.1119 203.35 41.9089C202.659 41.7058 201.971 41.4626 201.262 41.331C200.383 41.1898 199.496 41.1004 198.607 41.0632C198.042 41.0238 197.483 40.9249 196.916 40.9293C195.864 40.96 194.815 41.0656 193.778 41.2454C193.359 41.3079 192.938 41.3027 192.522 41.389C191.119 41.8178 189.719 42.2591 188.324 42.7129C187.94 42.8765 187.605 43.1197 187.234 43.3041C183.457 45.0665 180.271 47.8851 178.062 51.4191C175.853 54.9532 174.714 59.0515 174.784 63.2188V106.074L209.889 81.4979C213.337 79.1843 216.04 75.9212 217.671 72.1034C219.302 68.2856 219.794 64.0784 219.084 59.9879Z" fill="#FFBA00"/>
<path d="M40.9062 40.9062C46.8239 40.9062 52.4992 43.257 56.6836 47.4414C60.868 51.6258 63.2188 57.3011 63.2188 63.2188V197.094H33.4688C29.5237 197.094 25.7401 195.527 22.9505 192.737C20.1609 189.947 18.5938 186.164 18.5938 182.219V63.2188C18.5938 57.3011 20.9445 51.6258 25.1289 47.4414C29.3133 43.257 34.9886 40.9063 40.9062 40.9062Z" fill="#4285F4"/>
<path d="M18.9177 59.9879C18.9831 59.5416 18.9779 59.0857 19.0709 58.6402C19.2137 57.9575 19.4792 57.3268 19.683 56.6678C19.8805 55.9138 20.1184 55.171 20.3955 54.4425C20.5442 54.0892 20.7733 53.7791 20.9429 53.4355C21.4054 52.4436 21.9408 51.4875 22.5449 50.575C22.8424 50.1429 23.2143 49.7747 23.543 49.3657C24.1069 48.6222 24.7165 47.9145 25.3682 47.2467C25.8628 46.7655 26.4266 46.3631 26.965 45.9295C27.5364 45.4393 28.1321 44.9784 28.75 44.5484C29.3398 44.1631 29.9854 43.8664 30.6094 43.5376C31.2543 43.1729 31.917 42.8407 32.5952 42.5425C33.2572 42.2762 33.9622 42.1067 34.6524 41.9036C35.3426 41.7006 36.0306 41.4574 36.7401 41.3257C37.6192 41.1846 38.5058 41.0952 39.3953 41.058C39.9606 41.0186 40.5191 40.9196 41.0859 40.9241C42.138 40.9547 43.1866 41.0604 44.2238 41.2402C44.6425 41.3027 45.0642 41.2975 45.4807 41.3837C46.2006 41.5672 46.9106 41.7876 47.6078 42.0442C48.3089 42.2305 49.0002 42.452 49.6792 42.7076C50.0614 42.8712 50.3969 43.1144 50.7687 43.2989C51.7328 43.7518 52.663 44.2738 53.5519 44.8608C56.5316 46.9067 58.9685 49.6472 60.6523 52.8456C62.336 56.0441 63.216 59.6042 63.2161 63.2187V106.074L28.1111 81.4994C24.6644 79.1851 21.9619 75.9219 20.3304 72.1044C18.6989 68.2868 18.2082 64.0784 18.9177 59.9879Z" fill="#C52528"/>
</svg>
