<svg width="48" height="48" viewBox="0 0 48 48" fill="none" xmlns="http://www.w3.org/2000/svg">
<g filter="url(#filter0_d_67_2)">
<path d="M43.9789 20.3742C43.9789 18.7354 43.8428 17.5395 43.5483 16.2994H24.3984V23.696H35.6389C35.4124 25.5342 34.1886 28.3024 31.4691 30.1626L31.4309 30.4102L37.4858 34.9939L37.9053 35.0348C41.7578 31.5578 43.9789 26.4421 43.9789 20.3742Z" fill="#4285F4"/>
<path d="M24.3984 39.8626C29.9053 39.8626 34.5284 38.0908 37.9053 35.0348L31.4691 30.1626C29.7467 31.3363 27.4351 32.1557 24.3984 32.1557C19.0047 32.1557 14.4269 28.6789 12.7951 23.8733L12.5559 23.8931L6.25995 28.6545L6.17761 28.8782C9.53164 35.389 16.4211 39.8626 24.3984 39.8626Z" fill="#34A853"/>
<path d="M12.795 23.8733C12.3644 22.6331 12.1152 21.3043 12.1152 19.9313C12.1152 18.5582 12.3644 17.2295 12.7723 15.9893L12.7609 15.7252L6.38608 10.8873L6.17751 10.9843C4.79515 13.6861 4.00195 16.7202 4.00195 19.9313C4.00195 23.1424 4.79515 26.1763 6.17751 28.8782L12.795 23.8733Z" fill="#FBBC05"/>
<path d="M24.3984 7.70672C28.2283 7.70672 30.8118 9.32336 32.2849 10.6744L38.0412 5.18214C34.5059 1.97099 29.9053 0 24.3984 0C16.4211 0 9.53164 4.47343 6.17761 10.9843L12.7724 15.9893C14.4269 11.1837 19.0047 7.70672 24.3984 7.70672Z" fill="#EB4335"/>
</g>
<defs>
<filter id="filter0_d_67_2" x="0" y="0" width="48" height="48" filterUnits="userSpaceOnUse" color-interpolation-filters="sRGB">
<feFlood flood-opacity="0" result="BackgroundImageFix"/>
<feColorMatrix in="SourceAlpha" type="matrix" values="0 0 0 0 0 0 0 0 0 0 0 0 0 0 0 0 0 0 127 0" result="hardAlpha"/>
<feOffset dy="4"/>
<feGaussianBlur stdDeviation="2"/>
<feComposite in2="hardAlpha" operator="out"/>
<feColorMatrix type="matrix" values="0 0 0 0 0 0 0 0 0 0 0 0 0 0 0 0 0 0 0.25 0"/>
<feBlend mode="normal" in2="BackgroundImageFix" result="effect1_dropShadow_67_2"/>
<feBlend mode="normal" in="SourceGraphic" in2="effect1_dropShadow_67_2" result="shape"/>
</filter>
</defs>
</svg>
