<svg width="38" height="38" viewBox="0 0 38 38" fill="none" xmlns="http://www.w3.org/2000/svg">
<path d="M33.9922 16.6867C32.9515 14.147 32.0427 11.5552 31.2692 8.92168C31.1288 8.39915 31.0119 7.87058 30.9189 7.33756C30.5092 5.21193 29.8917 1.99856 26.8209 1.96412C25.4434 1.96412 24.2713 2.85118 23.6776 4.31181L23.4781 3.87718C23.2109 3.29412 22.9366 2.69206 22.5886 2.11256C22.2253 1.50822 21.7414 0.985154 21.1672 0.575931C20.2219 -0.0938192 19.0368 -0.180507 18.2103 0.377618C17.6926 0.725556 17.3019 1.29081 17.1107 1.97006C16.8732 2.81793 16.8957 3.69906 16.9812 4.47212C16.9064 4.34149 16.8304 4.20493 16.7532 4.06599C16.1179 2.91887 15.2463 1.34899 13.4176 1.13049C12.2063 0.989181 10.9689 1.55443 10.3348 2.54956C9.81586 3.36537 9.80636 4.22987 9.95836 5.00174C9.77166 4.88635 9.57297 4.79159 9.3658 4.71912C9.07595 4.61625 8.77086 4.56286 8.4633 4.56118C6.45286 4.56118 5.36393 6.84356 5.23211 8.46449C5.07893 10.3657 5.78668 12.1196 6.52411 13.7536C6.8673 14.516 7.22711 15.2701 7.58693 16.0265C7.84224 16.5632 8.09755 17.0988 8.34811 17.6403C8.51318 17.993 8.67349 18.3469 8.83143 18.7031C8.10902 18.4087 7.36554 18.169 6.60724 17.9859C5.03143 17.6296 3.12311 18.2234 2.07218 19.3907C1.41668 20.1151 1.10911 21.0187 1.2053 21.9331C1.3763 23.5659 2.7158 24.6786 3.51736 25.3424L11.932 32.3214C14.2369 34.2321 16.8506 36.3992 20.0604 37.4062C21.3168 37.8005 22.6397 38 23.9934 38C26.4682 38 28.9524 37.3077 30.9866 36.0501C34.0456 34.1596 36.1819 30.8774 36.702 27.2697L36.7424 26.9456C37.1141 23.6918 35.9444 21.0864 34.8139 18.5666C34.5292 17.9447 34.2553 17.318 33.9922 16.6867ZM34.3805 26.6843L34.3484 26.9337C33.9292 29.8514 32.205 32.5042 29.7374 34.0302C28.0725 35.0586 26.0324 35.625 23.9922 35.625C22.9003 35.6283 21.8143 35.4649 20.7717 35.1405C18.0061 34.2724 15.6892 32.3511 13.4484 30.4926L5.0338 23.5149C4.32605 22.9282 3.63018 22.3036 3.56605 21.6861C3.55655 21.5959 3.52924 21.3204 3.83561 20.9796C4.22868 20.5437 4.94593 20.2516 5.62043 20.2516C5.78193 20.2516 5.93868 20.2682 6.05624 20.2956C7.22949 20.5889 8.11774 20.9273 8.84805 21.356L9.00836 21.4641C9.62705 21.8916 10.1876 22.2442 10.7861 22.2442C11.2278 22.2442 11.6292 22.0483 11.8881 21.7063C12.1861 21.3109 12.2502 20.7991 12.0745 20.1827C11.9606 19.8139 11.809 19.4577 11.6221 19.1199C11.5472 18.9751 11.4712 18.8302 11.4083 18.6817C11.1201 17.9945 10.8181 17.3131 10.5022 16.6381C10.2493 16.0918 9.99043 15.5479 9.73155 15.0029C9.37886 14.2619 9.02618 13.5221 8.68893 12.7739C8.07855 11.4237 7.49193 9.99281 7.59999 8.65449C7.67005 7.78524 8.19611 6.93618 8.4633 6.93618C8.50512 6.9381 8.54638 6.94652 8.58561 6.96112C8.88605 7.06562 9.2043 7.50143 9.51186 7.92299C9.63299 8.08924 9.75174 8.25193 9.87286 8.40274C11.4261 10.3431 12.7181 12.5127 13.87 14.4982C14.0754 14.9162 14.2654 15.2451 14.4744 15.5456C14.6454 15.8017 14.9093 15.9812 15.2103 16.0462C15.5113 16.1111 15.8257 16.0564 16.0871 15.8935C16.6309 15.5551 16.8079 14.8437 16.4884 14.2892L16.0016 13.4508C15.9183 13.2794 15.8368 13.1072 15.7569 12.9342L15.5824 12.559C15.0895 11.5206 14.6172 10.4727 14.1657 9.41568L13.8391 8.65568C13.4342 7.71993 13.0518 6.83524 12.7336 5.92087L12.6041 5.55987C12.3144 4.75831 12.1244 4.16456 12.3393 3.82731C12.4723 3.61593 12.7431 3.46274 13.1373 3.49124C13.7132 3.56012 14.1396 4.25124 14.6763 5.22024C14.7867 5.41856 14.8936 5.61212 15.0005 5.79143C15.6429 6.87206 16.2569 8.00849 16.8506 9.10693L17.2769 9.89662C17.4824 10.2754 17.6807 10.6685 17.879 11.0627C18.3944 12.0816 18.9264 13.1361 19.6306 14.0802C19.795 14.2977 20.0292 14.4521 20.2939 14.5175C20.5586 14.583 20.8377 14.5556 21.0846 14.4398C21.3315 14.3241 21.5311 14.1271 21.6502 13.8818C21.7692 13.6365 21.8003 13.3577 21.7384 13.0922C21.6865 12.8734 21.6235 12.6574 21.5496 12.445L21.3144 11.7919C21.1766 11.3995 21.0421 11.006 20.9107 10.6115C20.6734 9.90252 20.4509 9.18868 20.2433 8.47043C19.8502 7.10006 19.6068 6.04199 19.4524 5.03974C19.3372 4.27856 19.1924 3.33212 19.3954 2.61487C19.4358 2.46762 19.4928 2.38924 19.4809 2.37499C19.5937 2.39755 19.7 2.44502 19.7921 2.51393C20.0913 2.72649 20.3609 3.01624 20.5497 3.33331C20.8299 3.79999 21.0662 4.31774 21.3168 4.86399C21.4866 5.23449 21.6552 5.60262 21.8369 5.96006C22.0709 6.41606 22.5649 7.82443 22.9615 8.95612C23.3593 10.0902 23.7037 11.0699 23.9317 11.5662C24.0566 11.8552 24.2911 12.0827 24.5837 12.1988C24.8764 12.3148 25.2031 12.3098 25.4921 12.1849C25.781 12.0601 26.0085 11.8255 26.1246 11.5329C26.2406 11.2403 26.2356 10.9135 26.1107 10.6246C25.9659 10.1472 25.5122 7.33756 25.5016 6.91362C25.5419 6.43862 25.6357 5.96006 25.7889 5.45062C25.8234 5.33662 26.1452 4.33912 26.8292 4.33912C27.7649 4.34981 28.1271 5.41143 28.5855 7.78643C28.709 8.42768 28.8242 9.03212 28.9881 9.59024C29.7853 12.3023 30.7219 14.9713 31.7941 17.5869C32.0672 18.2566 32.3594 18.9026 32.6444 19.5391C33.7369 21.9711 34.6797 24.0706 34.3805 26.6843Z" fill="#1B3D6F"/>
<path d="M29.9773 22.5233C29.8446 22.6079 29.7509 22.7417 29.7168 22.8954C29.6828 23.049 29.7111 23.2099 29.7956 23.3427C30.8311 24.9707 30.6826 27.0797 29.4251 28.5902C29.3327 28.7119 29.2908 28.8644 29.308 29.0162C29.3252 29.168 29.4003 29.3073 29.5176 29.4052C29.6348 29.503 29.7853 29.5519 29.9377 29.5417C30.0901 29.5315 30.2327 29.4629 30.3359 29.3502C31.9259 27.4419 32.11 24.7712 30.7966 22.705C30.7118 22.5725 30.578 22.4791 30.4244 22.445C30.2709 22.411 30.1101 22.4391 29.9773 22.5233Z" fill="#1B3D6F"/>
</svg>
