<svg width="20" height="20" viewBox="0 0 20 20" fill="none" xmlns="http://www.w3.org/2000/svg">
<g clip-path="url(#clip0_1154_355)">
<path d="M10 2.98623e-06C4.47692 2.98623e-06 0 4.47693 0 10C0 15.5231 4.47692 20 10 20C15.5231 20 20 15.5231 20 10L19.6631 7.40385C19.092 5.27817 17.8355 3.40034 16.0883 2.06167C14.3411 0.722997 12.201 -0.00169762 10 2.98623e-06ZM7.69231 5.40846C8.47692 5.40846 9.18846 5.74077 9.73538 6.25L10 6.49077L10.2646 6.25C10.8115 5.74077 11.5231 5.40846 12.3077 5.40846C14.0008 5.40846 15.3808 6.84539 15.3846 8.63C15.3515 9.70231 14.7338 10.8208 13.7262 11.8754C12.7585 12.8869 11.4369 13.8238 10 14.5908C8.56154 13.8231 7.22615 12.8685 6.25 11.8508C5.23231 10.7892 4.61538 9.67154 4.61538 8.63077C4.61538 6.84154 5.99692 5.40846 7.69231 5.40846Z" fill="black"/>
</g>
<defs>
<clipPath id="clip0_1154_355">
<rect width="20" height="20" fill="white"/>
</clipPath>
</defs>
</svg>
