<svg width="67" height="67" viewBox="0 0 67 67" fill="none" xmlns="http://www.w3.org/2000/svg">
<g clip-path="url(#clip0_26_3573)">
<path d="M33.5 67C52.0015 67 67 52.0015 67 33.5C67 14.9985 52.0015 0 33.5 0C14.9985 0 0 14.9985 0 33.5C0 52.0015 14.9985 67 33.5 67Z" fill="#FFA40B"/>
<path d="M65.982 41.527C66.1076 41.0717 66.2236 40.6138 66.3299 40.1535C66.428 39.6008 66.5122 39.0458 66.5824 38.4889L47.1653 19.064H47.1576L45.3408 17.2473L43.519 19.064L45.3408 20.8859L65.982 41.527ZM40.5168 66.214C41.1687 66.0872 41.8167 65.9411 42.4598 65.7759C43.5367 65.4787 44.598 65.1278 45.6398 64.7245C46.6798 64.3195 47.699 63.8629 48.6934 63.3562C49.6887 62.8492 50.658 62.2927 51.5976 61.6889C52.5374 61.0862 53.4465 60.4368 54.3214 59.7433C55.197 59.0488 56.0373 58.3108 56.8391 57.5323C57.6405 56.754 58.4025 55.9361 59.1222 55.0817C59.8414 54.2269 60.5174 53.3368 61.1477 52.4145C61.7791 51.4926 62.3639 50.5397 62.9 49.5593C63.4361 48.5793 63.9229 47.573 64.3585 46.5443C64.7929 45.5161 65.1756 44.4669 65.5053 43.4005C65.5831 43.1094 65.657 42.8173 65.7269 42.5243L51.5383 28.3358H50.2499L34.7883 12.8742H32.2114V15.4512L34.8476 18.0899C31.8921 17.7991 28.9236 18.4979 26.4082 20.0767C26.0217 20.3215 25.6841 20.6308 25.3259 20.9117L23.4782 19.064H23.4757L21.6589 17.2473L19.837 19.064L21.6589 20.8859L23.4757 22.7052C21.7723 24.7461 20.708 27.2818 20.708 30.0881C20.708 30.4231 20.7415 30.7375 20.7647 31.0596L18.0383 28.3358H15.4614V30.9127L25.5217 40.973C26.2381 41.795 26.9777 42.6119 27.4596 43.2845C28.1064 44.1864 28.4208 44.908 28.4208 45.6398V54.1205L40.5168 66.214Z" fill="#FF7712"/>
<path d="M32.2114 12.8767V15.4537H34.7884V12.8767H32.2114ZM21.6563 17.2446L19.8345 19.0665L21.6563 20.8884L23.4782 19.0665L21.6563 17.2446ZM45.3434 17.2446L43.5215 19.0665L45.3434 20.8884L47.1653 19.0665L45.3434 17.2446ZM33.5695 18.0306C26.5293 18.0306 20.7055 23.3932 20.7055 30.0906C20.7055 34.693 22.8804 37.8368 24.8672 40.1921C25.8619 41.3672 26.8128 42.3825 27.4596 43.2819C28.1064 44.1838 28.4208 44.9105 28.4208 45.6423V54.123H38.7182V45.6423C38.7182 44.9105 39.0377 44.1735 39.6845 43.2664C40.3339 42.3593 41.2796 41.3414 42.2717 40.1612C44.2611 37.7982 46.436 34.6595 46.436 30.0906C46.436 23.3932 40.6122 18.0306 33.5695 18.0306ZM33.5695 20.6075C39.316 20.6075 43.8591 24.8904 43.8591 30.0906C43.8591 33.8632 42.1712 36.2804 40.3004 38.5042C39.365 39.6175 38.3857 40.6508 37.5869 41.7718C36.788 42.8927 36.1438 44.1606 36.1438 45.6423V46.8148C36.0656 46.8006 35.9862 46.7937 35.9067 46.7942H34.7884V36.069H36.0768V33.4921H30.923V36.069H32.2114V46.7942H31.093C31.0613 46.793 31.0295 46.793 30.9977 46.7942V45.6423C30.9977 44.1606 30.3535 42.8927 29.5546 41.7769C28.7558 40.6611 27.7714 39.6381 26.836 38.53C24.9677 36.3164 23.2824 33.9044 23.2824 30.0906C23.2824 24.8904 27.8255 20.6075 33.5695 20.6075ZM15.4614 28.3383V30.9152H18.0383V28.3383H15.4614ZM48.9614 28.3383V30.9152H51.5384V28.3383H48.9614ZM36.1412 49.3505V51.546H31.0003V49.366C31.002 49.366 31.0037 49.366 31.0054 49.366C31.0354 49.3687 31.0655 49.3705 31.0956 49.3711H35.9093C35.9879 49.3714 36.0664 49.3645 36.1438 49.3505H36.1412Z" fill="white"/>
</g>
<defs>
<clipPath id="clip0_26_3573">
<rect width="67" height="67" fill="white"/>
</clipPath>
</defs>
</svg>
