<svg width="38" height="60" viewBox="0 0 38 60" fill="none" xmlns="http://www.w3.org/2000/svg">
<path d="M32.1992 6.18541C30.3816 4.41025 28.2238 3.02101 25.8555 2.10125C23.4871 1.18149 20.9573 0.750205 18.418 0.83333C13.5014 1.0138 8.84467 3.08698 5.42055 6.6198C1.99644 10.1526 0.0697573 14.8718 0.0429774 19.7917C0.0404906 22.3837 0.57577 24.9481 1.61498 27.3227C2.65419 29.6973 4.17473 31.8305 6.08048 33.5875C8.07799 35.4763 9.35221 38.0041 9.68256 40.7333C9.71208 40.9916 9.81012 41.2374 9.96653 41.4451C10.1229 41.6528 10.332 41.8149 10.5721 41.9146C10.8115 42.013 11.0727 42.046 11.329 42.0101C11.5853 41.9742 11.8274 41.8708 12.0305 41.7104C12.1233 41.6421 12.2361 41.6062 12.3513 41.6083H25.6513C25.7842 41.6093 25.9129 41.6556 26.0159 41.7396C26.2683 41.9289 26.5754 42.0312 26.8909 42.0312C27.086 42.0276 27.2788 41.9881 27.4596 41.9146C27.6931 41.8153 27.8966 41.6567 28.0501 41.4547C28.2035 41.2526 28.3016 41.0141 28.3346 40.7625C28.7643 37.9019 30.1403 35.2678 32.243 33.2812C34.0554 31.5149 35.4958 29.4036 36.4793 27.0718C37.4628 24.74 37.9695 22.2349 37.9695 19.7042C37.9695 17.1734 37.4628 14.6683 36.4793 12.3365C35.4958 10.0047 34.0554 7.89339 32.243 6.12708L32.1992 6.18541ZM30.2013 31.2542C28.0948 33.3134 26.5833 35.9031 25.8263 38.75H12.2638C11.6107 35.9596 10.1499 33.4234 8.06381 31.4583C6.45408 29.9711 5.1696 28.1668 4.29117 26.159C3.41274 24.1512 2.95939 21.9832 2.95964 19.7917C2.97951 15.6283 4.60855 11.6338 7.50598 8.64398C10.4034 5.65414 14.3448 3.90053 18.5055 3.75C21.7275 3.66255 24.9012 4.54774 27.6128 6.29021C30.3244 8.03268 32.4483 10.5516 33.7075 13.5187C34.9668 16.4857 35.303 19.7633 34.6724 22.9243C34.0417 26.0852 32.4735 28.9829 30.1721 31.2396L30.2013 31.2542Z" fill="#407BFF"/>
<path opacity="0.5" d="M35.0404 19.7915C35.0448 21.9294 34.6184 24.0463 33.7866 26.0157C32.9547 27.9851 31.7344 29.7667 30.1987 31.254C28.0922 33.3133 26.5807 35.903 25.8237 38.7499H19.9904C20.7474 35.903 22.2589 33.3133 24.3654 31.254C26.4657 29.2005 27.9618 26.6096 28.6906 23.7641C29.4194 20.9185 29.353 17.9275 28.4984 15.1171C27.6439 12.3067 26.0341 9.78496 23.8446 7.82676C21.6551 5.86857 18.97 4.54913 16.082 4.01235C16.8822 3.87087 17.691 3.78317 18.5029 3.74985C20.6508 3.68343 22.7903 4.04926 24.7941 4.82564C26.798 5.60202 28.6254 6.77311 30.1679 8.26938C31.7105 9.76565 32.9366 11.5566 33.7736 13.5359C34.6106 15.5152 35.0414 17.6425 35.0404 19.7915Z" fill="#407BFF"/>
<path d="M25.6513 50.4167H12.3513C11.4076 50.4167 10.5025 50.0418 9.83518 49.3745C9.16786 48.7071 8.79297 47.8021 8.79297 46.8583V46.6833C8.79297 46.216 8.88501 45.7533 9.06383 45.3216C9.24265 44.8899 9.50476 44.4976 9.83518 44.1672C10.1656 43.8368 10.5579 43.5747 10.9896 43.3959C11.4213 43.217 11.884 43.125 12.3513 43.125H25.6513C26.595 43.125 27.5001 43.4999 28.1674 44.1672C28.8347 44.8345 29.2096 45.7396 29.2096 46.6833V46.8583C29.2096 47.8021 28.8347 48.7071 28.1674 49.3745C27.5001 50.0418 26.595 50.4167 25.6513 50.4167ZM12.3513 46.0417C12.1811 46.0417 12.0179 46.1093 11.8976 46.2296C11.7772 46.3499 11.7096 46.5132 11.7096 46.6833V46.8583C11.7096 47.0285 11.7772 47.1917 11.8976 47.3121C12.0179 47.4324 12.1811 47.5 12.3513 47.5H25.6513C25.8215 47.5 25.9847 47.4324 26.105 47.3121C26.2254 47.1917 26.293 47.0285 26.293 46.8583V46.6833C26.293 46.5132 26.2254 46.3499 26.105 46.2296C25.9847 46.1093 25.8215 46.0417 25.6513 46.0417H12.3513Z" fill="#407BFF"/>
<path d="M25.6514 46.0418H12.3514C11.4077 46.0418 10.5026 45.6669 9.8353 44.9996C9.16798 44.3323 8.79309 43.4272 8.79309 42.4835V42.3085C8.78847 41.7417 8.91822 41.1818 9.17171 40.6749C9.4252 40.1679 9.79521 39.7282 10.2514 39.3918C10.8616 38.9524 11.5998 38.7268 12.3514 38.7501H25.6514C26.5916 38.7615 27.4901 39.14 28.155 39.8049C28.8199 40.4698 29.1984 41.3683 29.2098 42.3085V42.4835C29.2098 42.9508 29.1177 43.4135 28.9389 43.8452C28.7601 44.2769 28.498 44.6692 28.1675 44.9996C27.8371 45.33 27.4449 45.5921 27.0131 45.7709C26.5814 45.9498 26.1187 46.0418 25.6514 46.0418ZM12.3514 41.6668C12.2362 41.6647 12.1234 41.7006 12.0306 41.7689C11.9363 41.8249 11.8575 41.9036 11.8015 41.9978C11.7454 42.0921 11.7139 42.1989 11.7098 42.3085V42.4835C11.7098 42.6537 11.7774 42.8169 11.8977 42.9372C12.018 43.0575 12.1812 43.1251 12.3514 43.1251H25.6514C25.8216 43.1251 25.9848 43.0575 26.1051 42.9372C26.2255 42.8169 26.2931 42.6537 26.2931 42.4835V42.3085C26.2959 42.2102 26.2732 42.1128 26.2272 42.0259C26.1812 41.939 26.1135 41.8655 26.0306 41.8126C25.9251 41.7213 25.791 41.6697 25.6514 41.6668H12.3514ZM24.2952 54.7918H13.7077C12.791 54.7918 11.9119 54.4277 11.2637 53.7795C10.6156 53.1313 10.2514 52.2522 10.2514 51.3356V50.9564C10.2514 50.0397 10.6156 49.1606 11.2637 48.5124C11.9119 47.8643 12.791 47.5001 13.7077 47.5001H24.2952C25.2118 47.5001 26.0909 47.8643 26.7391 48.5124C27.3873 49.1606 27.7514 50.0397 27.7514 50.9564V51.3356C27.7514 52.2522 27.3873 53.1313 26.7391 53.7795C26.0909 54.4277 25.2118 54.7918 24.2952 54.7918ZM13.7077 50.4168C13.5657 50.4205 13.4306 50.4785 13.3302 50.5789C13.2298 50.6793 13.1718 50.8144 13.1681 50.9564V51.3356C13.1718 51.4775 13.2298 51.6126 13.3302 51.713C13.4306 51.8134 13.5657 51.8714 13.7077 51.8751H24.2952C24.4371 51.8714 24.5722 51.8134 24.6726 51.713C24.773 51.6126 24.8311 51.4775 24.8348 51.3356V50.9564C24.8311 50.8144 24.773 50.6793 24.6726 50.5789C24.5722 50.4785 24.4371 50.4205 24.2952 50.4168H13.7077ZM14.6264 27.0835C14.375 27.0828 14.128 27.0171 13.9095 26.8929C13.6909 26.7686 13.5082 26.5899 13.379 26.3742C13.2499 26.1585 13.1787 25.913 13.1724 25.6617C13.1661 25.4103 13.2249 25.1616 13.3431 24.9397L19.1764 14.0022C19.2583 13.8198 19.3768 13.6562 19.5246 13.5215C19.6724 13.3869 19.8463 13.284 20.0355 13.2194C20.2247 13.1548 20.4251 13.1297 20.6244 13.1459C20.8237 13.162 21.0175 13.2189 21.1939 13.3131C21.3702 13.4073 21.5254 13.5367 21.6496 13.6934C21.7738 13.8501 21.8645 14.0306 21.916 14.2238C21.9675 14.417 21.9787 14.6187 21.949 14.8164C21.9192 15.0141 21.8491 15.2036 21.7431 15.3731L15.9098 26.3105C15.7858 26.5434 15.6009 26.7383 15.3749 26.8744C15.1489 27.0105 14.8902 27.0828 14.6264 27.0835ZM17.5431 38.021C17.2854 38.0246 17.0313 37.9598 16.8068 37.8333C16.5822 37.7068 16.3952 37.523 16.2648 37.3007C16.1344 37.0784 16.0652 36.8255 16.0643 36.5678C16.0634 36.31 16.1309 36.0567 16.2598 35.8335L22.0931 24.896C22.175 24.7136 22.2935 24.55 22.4413 24.4153C22.589 24.2806 22.7629 24.1778 22.9521 24.1132C23.1413 24.0485 23.3418 24.0235 23.5411 24.0396C23.7404 24.0557 23.9342 24.1126 24.1106 24.2068C24.2869 24.301 24.442 24.4305 24.5662 24.5871C24.6905 24.7438 24.7811 24.9243 24.8326 25.1175C24.8841 25.3107 24.8954 25.5124 24.8656 25.7101C24.8359 25.9078 24.7658 26.0973 24.6598 26.2668L18.8264 37.2043C18.7084 37.4453 18.5261 37.6491 18.2997 37.7932C18.0732 37.9373 17.8114 38.0161 17.5431 38.021Z" fill="#407BFF"/>
<path d="M23.3763 27.0832H14.6263C14.2395 27.0832 13.8686 26.9295 13.5951 26.656C13.3216 26.3825 13.168 26.0116 13.168 25.6248C13.168 25.2381 13.3216 24.8671 13.5951 24.5936C13.8686 24.3201 14.2395 24.1665 14.6263 24.1665H23.3763C23.7631 24.1665 24.134 24.3201 24.4075 24.5936C24.681 24.8671 24.8346 25.2381 24.8346 25.6248C24.8346 26.0116 24.681 26.3825 24.4075 26.656C24.134 26.9295 23.7631 27.0832 23.3763 27.0832ZM19.0013 59.1665C17.841 59.1665 16.7282 58.7056 15.9077 57.8851C15.0872 57.0646 14.6263 55.9518 14.6263 54.7915V53.3332C14.6263 52.9464 14.7799 52.5755 15.0534 52.302C15.3269 52.0285 15.6979 51.8748 16.0846 51.8748H21.918C22.3047 51.8748 22.6757 52.0285 22.9492 52.302C23.2227 52.5755 23.3763 52.9464 23.3763 53.3332V54.7915C23.3763 55.9518 22.9154 57.0646 22.0949 57.8851C21.2744 58.7056 20.1616 59.1665 19.0013 59.1665ZM17.543 54.7915C17.543 55.1783 17.6966 55.5492 17.9701 55.8227C18.2436 56.0962 18.6145 56.2498 19.0013 56.2498C19.3881 56.2498 19.759 56.0962 20.0325 55.8227C20.306 55.5492 20.4596 55.1783 20.4596 54.7915H17.543Z" fill="#407BFF"/>
<path d="M13.1654 11.0417C13.9708 11.0417 14.6237 10.3887 14.6237 9.58333C14.6237 8.77792 13.9708 8.125 13.1654 8.125C12.3599 8.125 11.707 8.77792 11.707 9.58333C11.707 10.3887 12.3599 11.0417 13.1654 11.0417Z" fill="#407BFF"/>
<path d="M19.0013 11.0417C19.8067 11.0417 20.4596 10.3887 20.4596 9.58333C20.4596 8.77792 19.8067 8.125 19.0013 8.125C18.1959 8.125 17.543 8.77792 17.543 9.58333C17.543 10.3887 18.1959 11.0417 19.0013 11.0417Z" fill="#407BFF"/>
<path d="M24.8333 11.0417C25.6387 11.0417 26.2917 10.3887 26.2917 9.58333C26.2917 8.77792 25.6387 8.125 24.8333 8.125C24.0279 8.125 23.375 8.77792 23.375 9.58333C23.375 10.3887 24.0279 11.0417 24.8333 11.0417Z" fill="#407BFF"/>
<path opacity="0.5" d="M26.293 43.1248H17.543C17.9297 43.1248 18.3007 42.9712 18.5742 42.6977C18.8477 42.4242 19.0013 42.0533 19.0013 41.6665H26.293V43.1248ZM26.293 47.4998H17.543C17.9297 47.4998 18.3007 47.3462 18.5742 47.0727C18.8477 46.7992 19.0013 46.4283 19.0013 46.0415H26.293V47.4998ZM26.293 51.8748H17.543C17.9297 51.8748 18.3007 51.7212 18.5742 51.4477C18.8477 51.1742 19.0013 50.8033 19.0013 50.4165H26.293V51.8748ZM21.918 56.2498H17.543C17.9297 56.2498 18.3007 56.0962 18.5742 55.8227C18.8477 55.5492 19.0013 55.1783 19.0013 54.7915H21.918V56.2498Z" fill="#407BFF"/>
</svg>
