<svg width="168" height="168" viewBox="0 0 168 168" fill="none" xmlns="http://www.w3.org/2000/svg">
<g clip-path="url(#clip0_1906_46)">
<mask id="mask0_1906_46" style="mask-type:luminance" maskUnits="userSpaceOnUse" x="0" y="0" width="168" height="168">
<path d="M84 168C130.392 168 168 130.392 168 84C168 37.6081 130.392 0 84 0C37.6081 0 0 37.6081 0 84C0 130.392 37.6081 168 84 168Z" fill="white"/>
</mask>
<g mask="url(#mask0_1906_46)">
<path d="M36.0938 339.938C135.764 339.938 216.562 259.139 216.562 159.469C216.562 59.7986 135.764 -21 36.0938 -21C-63.5764 -21 -144.375 59.7986 -144.375 159.469C-144.375 259.139 -63.5764 339.938 36.0938 339.938Z" fill="url(#paint0_radial_1906_46)"/>
</g>
<path d="M107.625 66.9375C111.249 66.9375 114.188 63.9994 114.188 60.375C114.188 56.7506 111.249 53.8125 107.625 53.8125C104.001 53.8125 101.062 56.7506 101.062 60.375C101.062 63.9994 104.001 66.9375 107.625 66.9375Z" fill="white"/>
<path d="M84 63C79.8466 63 75.7865 64.2316 72.333 66.5391C68.8796 68.8466 66.188 72.1264 64.5985 75.9636C63.0091 79.8009 62.5932 84.0233 63.4035 88.0969C64.2138 92.1705 66.2139 95.9123 69.1508 98.8492C72.0877 101.786 75.8295 103.786 79.9031 104.596C83.9767 105.407 88.1991 104.991 92.0364 103.401C95.8736 101.812 99.1534 99.1204 101.461 95.667C103.768 92.2135 105 88.1534 105 84C105 78.4305 102.788 73.089 98.8492 69.1508C94.911 65.2125 89.5696 63 84 63ZM84 94.5C81.9233 94.5 79.8932 93.8842 78.1665 92.7304C76.4398 91.5767 75.094 89.9368 74.2993 88.0182C73.5046 86.0996 73.2966 83.9883 73.7018 81.9515C74.1069 79.9147 75.1069 78.0438 76.5754 76.5754C78.0438 75.1069 79.9148 74.1069 81.9516 73.7018C83.9884 73.2966 86.0996 73.5045 88.0182 74.2993C89.9368 75.094 91.5767 76.4398 92.7304 78.1665C93.8842 79.8932 94.5 81.9233 94.5 84C94.5 86.7848 93.3938 89.4555 91.4246 91.4246C89.4555 93.3937 86.7848 94.5 84 94.5Z" fill="white"/>
<path d="M110.25 42H57.75C49.0515 42 42 49.0515 42 57.75V110.25C42 118.948 49.0515 126 57.75 126H110.25C118.948 126 126 118.948 126 110.25V57.75C126 49.0515 118.948 42 110.25 42Z" stroke="white" stroke-width="8" stroke-miterlimit="10"/>
</g>
<defs>
<radialGradient id="paint0_radial_1906_46" cx="0" cy="0" r="1" gradientUnits="userSpaceOnUse" gradientTransform="translate(36.0938 159.469) scale(180.469)">
<stop stop-color="#FFD676"/>
<stop offset="0.25" stop-color="#F2A454"/>
<stop offset="0.38" stop-color="#F05C3C"/>
<stop offset="0.7" stop-color="#C22F86"/>
<stop offset="0.96" stop-color="#6666AD"/>
<stop offset="0.99" stop-color="#5C6CB2"/>
</radialGradient>
<clipPath id="clip0_1906_46">
<rect width="168" height="168" fill="white"/>
</clipPath>
</defs>
</svg>
