<svg width="50" height="59" viewBox="0 0 50 59" fill="none" xmlns="http://www.w3.org/2000/svg">
<path d="M50 22.8376C50 44.5785 25 58.71 25 58.71C20.1992 55.8126 15.833 52.3556 12.0119 48.4266C5.95238 42.2087 0 33.4254 0 22.8376C0 16.7833 2.63392 10.9769 7.32233 6.69589C12.0107 2.41484 18.3696 0.00976563 25 0.00976562C31.6304 0.00976563 37.9893 2.41484 42.6777 6.69589C47.3661 10.9769 50 16.7833 50 22.8376Z" fill="#5D8977"/>
<path d="M44.6384 17.946C44.6384 31.7188 34.6146 42.437 27.2575 48.4375C25.1924 50.15 22.508 51.1069 19.7184 51.1249C16.9288 51.143 14.23 50.2209 12.1384 48.5353L12.0075 48.4266C6.63844 42.9914 1.38844 35.4582 0.233677 26.4901C-1.52823 12.9021 9.37654 0.357628 24.3646 0.00977441C29.9184 -0.139025 35.3669 1.41472 39.8408 4.42316C42.9822 8.3465 44.6636 13.0859 44.6384 17.946Z" fill="#6F9A8A"/>
<path d="M35.7128 27.9796L40.1533 23.9249L35.7128 19.8703V14.1416H29.439L24.9985 10.0869L20.558 14.1416H14.2842V19.8703L9.84375 23.9249L14.2842 27.9796V33.7083H20.558L24.9985 37.763L29.439 33.7083H35.7128V27.9796Z" fill="#E5A430"/>
<path d="M16.616 21.96C16.888 21.96 17.128 21.9947 17.336 22.064C17.5493 22.128 17.7147 22.2267 17.832 22.36C17.9493 22.488 18.008 22.6507 18.008 22.848C18.008 22.9493 17.9867 23.056 17.944 23.168C17.9013 23.2747 17.848 23.3733 17.784 23.464C17.672 23.3893 17.5387 23.3333 17.384 23.296C17.2347 23.2587 17.0827 23.24 16.928 23.24C16.64 23.24 16.424 23.2987 16.28 23.416C16.1413 23.5333 16.072 23.6933 16.072 23.896C16.072 23.976 16.0907 24.056 16.128 24.136C16.1707 24.2107 16.2347 24.2773 16.32 24.336C16.4053 24.3893 16.52 24.4293 16.664 24.456L15.44 24.792C15.184 24.6907 14.9813 24.5333 14.832 24.32C14.688 24.1067 14.616 23.8453 14.616 23.536C14.616 23.2267 14.6987 22.9547 14.864 22.72C15.0347 22.48 15.2693 22.2933 15.568 22.16C15.872 22.0267 16.2213 21.96 16.616 21.96ZM18.184 24.112C18.2587 24.2133 18.3173 24.3307 18.36 24.464C18.4027 24.592 18.424 24.712 18.424 24.824C18.424 25.0267 18.3707 25.1867 18.264 25.304C18.1573 25.4213 17.9627 25.5093 17.68 25.568C17.4347 25.6213 17.1787 25.6773 16.912 25.736C16.6453 25.7893 16.3733 25.848 16.096 25.912C15.824 25.976 15.5547 26.04 15.288 26.104C15.0213 26.168 14.7653 26.2347 14.52 26.304C14.4347 26.208 14.36 26.0933 14.296 25.96C14.2373 25.8213 14.208 25.6933 14.208 25.576C14.208 25.3733 14.2667 25.216 14.384 25.104C14.5067 24.9867 14.696 24.896 14.952 24.832C15.1227 24.7893 15.3093 24.744 15.512 24.696C15.72 24.648 15.936 24.6 16.16 24.552C16.3893 24.4987 16.6187 24.448 16.848 24.4C17.0827 24.3467 17.312 24.296 17.536 24.248C17.7653 24.2 17.9813 24.1547 18.184 24.112ZM19.7783 26.08C19.5383 26.08 19.357 26.04 19.2343 25.96C19.1116 25.8747 19.0503 25.7067 19.0503 25.456L19.0263 20.64C19.0903 20.6293 19.181 20.616 19.2983 20.6C19.4156 20.584 19.5383 20.576 19.6663 20.576C20.1463 20.576 20.3863 20.7653 20.3863 21.144L20.3623 26C20.3036 26.016 20.2236 26.032 20.1223 26.048C20.021 26.0693 19.9063 26.08 19.7783 26.08ZM22.4354 25.536C22.4248 25.3707 22.3901 25.1733 22.3314 24.944C22.2728 24.7147 22.2008 24.472 22.1154 24.216C22.0301 23.9547 21.9368 23.7013 21.8354 23.456C21.9101 23.376 22.0088 23.3067 22.1314 23.248C22.2541 23.184 22.3981 23.152 22.5634 23.152C22.7981 23.152 22.9794 23.216 23.1074 23.344C23.2408 23.472 23.3474 23.6987 23.4274 24.024C23.4861 24.264 23.5341 24.504 23.5714 24.744C23.6088 24.9787 23.6328 25.256 23.6434 25.576C23.6008 26.088 23.4781 26.5253 23.2754 26.888C23.0781 27.256 22.8194 27.536 22.4994 27.728C22.1848 27.9253 21.8301 28.024 21.4354 28.024C21.0568 28.024 20.7528 27.9493 20.5234 27.8C20.2941 27.656 20.1794 27.4053 20.1794 27.048C20.1794 26.9253 20.2061 26.8053 20.2594 26.688C20.3074 26.5707 20.3661 26.4773 20.4354 26.408C20.5634 26.4827 20.6914 26.5413 20.8194 26.584C20.9474 26.632 21.0781 26.656 21.2114 26.656C21.5741 26.656 21.8568 26.5627 22.0594 26.376C22.2674 26.1893 22.3928 25.9093 22.4354 25.536ZM24.0914 26C23.8088 26 23.5821 25.9013 23.4114 25.704C23.2408 25.5013 23.0674 25.1707 22.8914 24.712L23.4434 24.136C23.5021 24.36 23.5954 24.4987 23.7234 24.552C23.8514 24.6053 24.0008 24.632 24.1714 24.632H24.2194V26H24.0914ZM24.2194 26V24.632C24.2728 24.7173 24.3128 24.816 24.3394 24.928C24.3661 25.04 24.3794 25.168 24.3794 25.312C24.3794 25.456 24.3661 25.5867 24.3394 25.704C24.3128 25.8213 24.2728 25.92 24.2194 26ZM22.3874 22.592C22.1901 22.592 22.0328 22.5333 21.9154 22.416C21.7981 22.2987 21.7394 22.1413 21.7394 21.944C21.7394 21.7467 21.7981 21.5893 21.9154 21.472C22.0328 21.3547 22.1901 21.296 22.3874 21.296C22.5848 21.296 22.7394 21.3547 22.8514 21.472C22.9688 21.5893 23.0274 21.7467 23.0274 21.944C23.0274 22.1413 22.9688 22.2987 22.8514 22.416C22.7394 22.5333 22.5848 22.592 22.3874 22.592ZM28.2283 23.856L28.4203 24.24C28.1163 24.128 27.8496 24.0293 27.6203 23.944C27.3963 23.8533 27.1749 23.7813 26.9563 23.728C26.7376 23.6747 26.4923 23.648 26.2203 23.648C25.9749 23.648 25.7483 23.6827 25.5403 23.752C25.3376 23.8213 25.1616 23.9147 25.0123 24.032C24.9003 23.9733 24.7909 23.8773 24.6842 23.744C24.5829 23.6053 24.5323 23.4373 24.5323 23.24C24.5323 23.0267 24.5989 22.8533 24.7323 22.72C24.8656 22.5867 25.0469 22.488 25.2763 22.424C25.5109 22.36 25.7696 22.328 26.0523 22.328C26.3616 22.328 26.6683 22.368 26.9723 22.448C27.2763 22.5227 27.5616 22.616 27.8283 22.728C28.0949 22.84 28.3323 22.9547 28.5403 23.072C28.7536 23.184 28.9189 23.2773 29.0363 23.352C29.0789 23.4533 29.1136 23.5627 29.1403 23.68C29.1723 23.792 29.1856 23.9333 29.1803 24.104C29.1749 24.2373 29.1616 24.352 29.1403 24.448C29.1243 24.5387 29.0976 24.6187 29.0603 24.688C28.8416 24.8053 28.5829 24.9387 28.2843 25.088C27.9856 25.2373 27.6549 25.3813 27.2923 25.52C26.9296 25.6587 26.5429 25.7733 26.1323 25.864C25.7216 25.9547 25.2949 26 24.8523 26H24.0922V24.632H24.8523C25.2789 24.632 25.6816 24.5973 26.0603 24.528C26.4443 24.4587 26.8149 24.3653 27.1723 24.248C27.5349 24.1307 27.8869 24 28.2283 23.856ZM26.4923 27.752C26.2949 27.752 26.1376 27.6933 26.0203 27.576C25.9029 27.4587 25.8443 27.3013 25.8443 27.104C25.8443 26.9067 25.9029 26.7493 26.0203 26.632C26.1376 26.5147 26.2949 26.456 26.4923 26.456C26.6896 26.456 26.8443 26.5147 26.9563 26.632C27.0736 26.7493 27.1323 26.9067 27.1323 27.104C27.1323 27.3013 27.0736 27.4587 26.9563 27.576C26.8443 27.6933 26.6896 27.752 26.4923 27.752ZM31.8766 26.12C31.5886 26.12 31.2792 26.096 30.9486 26.048C30.6179 26 30.2979 25.9093 29.9886 25.776C29.9406 25.6213 29.9059 25.48 29.8846 25.352C29.8632 25.2187 29.8526 25.0507 29.8526 24.848C29.8526 24.7413 29.8579 24.6293 29.8686 24.512C29.8846 24.3893 29.9059 24.28 29.9326 24.184C30.1246 24.0773 30.3566 23.944 30.6286 23.784C30.9059 23.624 31.1966 23.4107 31.5006 23.144L31.6366 23.032C31.7539 22.9253 31.8552 22.808 31.9406 22.68C32.0259 22.552 32.0926 22.392 32.1406 22.2C32.1886 22.0027 32.2126 21.7573 32.2126 21.464V20.64C32.2712 20.6293 32.3566 20.616 32.4686 20.6C32.5806 20.584 32.6952 20.576 32.8126 20.576C33.0472 20.576 33.2232 20.6267 33.3406 20.728C33.4632 20.824 33.5246 21.0053 33.5246 21.272V21.624C33.5246 21.9707 33.4846 22.272 33.4046 22.528C33.3299 22.7787 33.2339 22.992 33.1166 23.168C33.0046 23.3387 32.8899 23.48 32.7726 23.592C32.6606 23.6987 32.5726 23.7813 32.5086 23.84L32.4606 24.008C32.2206 24.1947 31.9939 24.3467 31.7806 24.464C31.5672 24.576 31.3352 24.6773 31.0846 24.768C31.2072 24.8053 31.3299 24.8293 31.4526 24.84C31.5752 24.8507 31.6926 24.856 31.8046 24.856C31.9379 24.856 32.0446 24.848 32.1246 24.832C32.2046 24.8107 32.2632 24.7813 32.3006 24.744C32.3432 24.7067 32.3646 24.664 32.3646 24.616C32.3646 24.5093 32.3246 24.4053 32.2446 24.304C32.1646 24.1973 32.0366 24.072 31.8606 23.928L31.5566 23.704C31.4499 23.6293 31.3246 23.544 31.1806 23.448C31.0419 23.352 30.8979 23.256 30.7486 23.16C30.6046 23.0587 30.4686 22.9653 30.3406 22.88C30.2179 22.7947 30.1192 22.728 30.0446 22.68C29.9112 22.5893 29.8179 22.4987 29.7646 22.408C29.7166 22.3173 29.6926 22.2267 29.6926 22.136C29.6926 21.9493 29.7459 21.7893 29.8526 21.656C29.9592 21.5227 30.0926 21.4027 30.2526 21.296C30.5406 21.4987 30.8739 21.7387 31.2526 22.016C31.6312 22.288 31.9939 22.5733 32.3406 22.872L32.6206 23.112C32.9886 23.3893 33.2472 23.6747 33.3966 23.968C33.5512 24.256 33.6286 24.552 33.6286 24.856C33.6286 25.288 33.4766 25.608 33.1726 25.816C32.8739 26.0187 32.4419 26.12 31.8766 26.12ZM35.1689 26.08C34.9289 26.08 34.7476 26.04 34.6249 25.96C34.5023 25.8747 34.4409 25.7067 34.4409 25.456L34.4169 20.64C34.4809 20.6293 34.5716 20.616 34.6889 20.6C34.8063 20.584 34.9289 20.576 35.0569 20.576C35.5369 20.576 35.7769 20.7653 35.7769 21.144L35.7529 26C35.6943 26.016 35.6143 26.032 35.5129 26.048C35.4116 26.0693 35.2969 26.08 35.1689 26.08Z" fill="#824301"/>
</svg>
