<svg width="82" height="82" viewBox="0 0 82 82" fill="none" xmlns="http://www.w3.org/2000/svg">
<path d="M69.1856 64.2855C69.1856 66.8762 54.8607 68.9757 37.1916 68.9757C19.521 68.9757 5.19604 66.8762 5.19604 64.2855C5.19604 61.695 19.521 59.5941 37.1916 59.5941C54.8606 59.5941 69.1856 61.695 69.1856 64.2855Z" fill="#F9DDC5"/>
<path d="M50.0287 30.8376C62.7821 56.6596 50.7162 64.0821 41.3168 64.9998C31.9158 65.9163 20.4525 62.9363 17.2428 52.6188C14.0318 42.3012 22.7587 36.0707 25.2674 30.8376C26.103 29.0909 25.8976 25.535 23.4901 23.2995C21.0826 21.0639 20.9107 15.7343 23.4901 15.5623C26.0696 15.3894 27.6163 18.9147 29.7665 18.9147C31.9157 18.9147 30.2958 14.5783 33.3775 13.4121C36.5588 12.2077 36.6441 15.2174 38.6227 16.0779C40.6 16.9374 41.3976 14.4254 44.3825 13.3255C47.6505 12.1223 50.5736 14.7018 49.4558 17.8832C48.5851 20.3594 48.8762 20.8795 49.7144 21.4941C51.0028 22.4399 53.5957 21.7928 54.4427 23.1274C56.6783 26.6527 49.0459 28.8459 50.0287 30.8375L50.0287 30.8376Z" fill="#8A1C13"/>
<path d="M38.1228 65.1549C33.4651 65.1549 28.6007 64.1652 24.6528 61.8287C26.6763 62.0408 28.5274 62.1421 30.2238 62.1408C44.6746 62.1408 47.7079 54.8441 47.5763 47.5474C47.4438 40.251 44.1478 32.9543 45.9487 32.9543C45.971 32.9543 45.9936 32.9552 46.0159 32.9575C46.4194 32.9948 46.8025 33.0116 47.1665 33.0116C48.6852 33.0116 49.8727 32.7183 50.7589 32.3757C62.2541 56.8991 50.5714 64.0732 41.3707 64.9944C41.3694 64.9944 41.3684 64.9944 41.3672 64.9944C41.3503 64.9967 41.3334 64.9976 41.3168 64.9999C40.272 65.1011 39.2036 65.1549 38.1228 65.1549Z" fill="#771710"/>
<path d="M24.9482 29.9456C24.5932 29.6806 24.5482 27.8065 26.7211 29.4873C29.6757 31.7735 44.9002 33.7485 50.2174 31.8184C50.2174 31.8184 50.9894 31.4532 51.3276 31.6815C51.6654 31.9105 51.1578 32.9442 49.1322 33.4495C46.2305 34.1731 30.6036 34.1629 24.9482 29.9456V29.9456Z" fill="#FFC91D"/>
<path d="M54.4427 23.1275C53.5956 21.7928 51.0028 22.44 49.713 21.4941C48.8762 20.8795 48.5851 20.3595 49.4557 17.8832C50.5735 14.7019 47.6504 12.1224 44.3825 13.3255C41.3976 14.4254 40.5999 16.9374 38.6226 16.0779C36.6441 15.2174 36.5587 12.2078 33.3774 13.4121C30.2958 14.5783 31.9157 18.9147 29.7665 18.9147C27.6176 18.9147 26.0695 15.3894 23.4901 15.5624C21.2466 15.7108 21.0858 19.7628 22.6666 22.2862C22.6768 22.2964 23.1025 22.7097 23.4541 23.2623L23.4901 23.2995C24.8314 24.5453 25.4718 26.1968 25.646 27.7212C27.1794 26.7204 28.8219 25.5497 29.4229 25.9653C30.5397 26.7382 29.5948 28.4582 30.8845 28.974C32.1739 29.4905 32.6898 26.3946 34.6671 26.5665C36.644 26.7382 35.8712 33.3598 39.3101 32.9295C42.7488 32.4993 41.2021 27.083 42.1469 26.8248C43.0927 26.5665 42.5771 29.4042 45.1563 29.9198C47.7357 30.4354 46.2349 33.1193 48.5953 32.9495C50.3579 32.8228 50.0805 31.5588 49.9952 30.6949C49.9557 30.5602 49.9513 30.4242 49.9805 30.2873L50.0242 30.0927L50.0423 30.0535L50.0624 30.0118L50.0784 29.9949C50.9802 28.2132 56.3684 26.1652 54.4427 23.1275H54.4427Z" fill="#660F0D"/>
<path d="M26.5929 35.2764C26.5929 35.2764 28.2265 33.4326 31.7518 35.1449C35.2761 36.856 37.5935 50.237 32.4438 54.8218C27.2941 59.4065 20.2703 54.4893 19.5423 51.1965C18.8134 47.9047 21.6511 38.4983 26.5929 35.2764Z" fill="#A0251F"/>
<path d="M36.4277 20.683C36.4095 22.4715 34.9456 23.9039 33.1584 23.8848C31.3732 23.8666 29.9398 22.404 29.9577 20.6178C29.9758 18.8303 31.4394 17.3969 33.2269 17.416C35.0144 17.4351 36.4468 18.8978 36.4277 20.683V20.683Z" fill="#FFB025"/>
<path d="M36.2644 20.6831C36.2466 22.3795 34.8578 23.7386 33.1614 23.7218C31.465 23.7027 30.1046 22.3164 30.1227 20.62C30.1419 18.9227 31.5303 17.5632 33.2254 17.5801C34.9219 17.598 36.2813 18.9867 36.2644 20.6831V20.6831Z" fill="#E79E30"/>
<path d="M35.6129 20.6764C35.5995 22.0132 34.5053 23.0848 33.1672 23.0702C31.8325 23.0568 30.7584 21.9613 30.7743 20.6258C30.7877 19.2889 31.8819 18.217 33.2188 18.2294C34.5556 18.245 35.6263 19.3392 35.6129 20.6764H35.6129Z" fill="#FFB025"/>
<path d="M35.5107 20.776C35.4961 22.0581 34.449 23.0839 33.1672 23.0702C31.8887 23.0568 30.862 22.0075 30.8744 20.728C30.8878 19.4484 31.9361 18.4214 33.2179 18.4338C34.4961 18.4485 35.5231 19.4965 35.5107 20.776Z" fill="#D3841C"/>
<path d="M32.9828 22.148L32.9876 21.7996C32.7401 21.7862 32.5032 21.7165 32.364 21.6356L32.4784 21.2066C32.6312 21.292 32.8481 21.3716 33.0863 21.3738C33.2965 21.3751 33.4401 21.2964 33.4423 21.1493C33.4423 21.0098 33.3277 20.9213 33.056 20.8258C32.664 20.6885 32.3965 20.5032 32.401 20.1459C32.4045 19.8223 32.6347 19.572 33.029 19.4978L33.0324 19.1494L33.3929 19.1516L33.3897 19.4764C33.6356 19.4898 33.8018 19.5439 33.9209 19.6032L33.8098 20.0169C33.7155 19.9751 33.5467 19.8898 33.2818 19.8863C33.0436 19.8853 32.9662 19.9863 32.9637 20.0898C32.9627 20.2111 33.0898 20.2885 33.4018 20.4098C33.8378 20.5707 34.012 20.7738 34.0085 21.1031C34.0053 21.4302 33.7702 21.7088 33.3467 21.7773L33.3435 22.1512L32.9828 22.148H32.9828Z" fill="#FFC91D"/>
<path d="M49.0246 22.2008C49.0099 23.724 47.7616 24.9443 46.2394 24.9284C44.7185 24.9128 43.496 23.6667 43.5129 22.1445C43.5275 20.6223 44.7746 19.401 46.298 19.417C47.8202 19.4338 49.0415 20.6796 49.0246 22.2009V22.2008Z" fill="#FFB025"/>
<path d="M48.8851 22.2008C48.8704 23.6466 47.6877 24.8048 46.2429 24.7902C44.7971 24.7733 43.6376 23.5915 43.6532 22.1467C43.6692 20.7009 44.8532 19.5427 46.2967 19.5561C47.7415 19.573 48.8997 20.7547 48.8851 22.2008Z" fill="#E79E30"/>
<path d="M48.3314 22.1942C48.3202 23.3333 47.3866 24.2475 46.2474 24.2354C45.1106 24.223 44.196 23.2906 44.2084 22.1512C44.2195 21.012 45.1519 20.1 46.2914 20.1102C47.4305 20.1236 48.3425 21.056 48.3314 22.1942Z" fill="#FFB025"/>
<path d="M48.2439 22.2804C48.2315 23.3724 47.3395 24.2453 46.2475 24.2354C45.1578 24.223 44.2826 23.3297 44.2938 22.239C44.305 21.1493 45.1982 20.2742 46.2902 20.2853C47.38 20.2965 48.255 21.1907 48.2439 22.2804Z" fill="#D3841C"/>
<path d="M46.09 23.4488L46.0935 23.1523C45.8833 23.1409 45.6811 23.0813 45.5632 23.0119L45.6607 22.6466C45.7913 22.7199 45.9753 22.787 46.1788 22.7893C46.3575 22.7906 46.4798 22.7243 46.4811 22.5985C46.4811 22.4794 46.3842 22.404 46.1518 22.3221C45.818 22.2052 45.5913 22.0466 45.5935 21.7434C45.5967 21.467 45.7935 21.2537 46.1295 21.1906L46.1317 20.8941L46.4393 20.8964L46.4371 21.1715C46.646 21.1839 46.7877 21.2301 46.8887 21.2804L46.7944 21.6323C46.7135 21.5973 46.5708 21.5244 46.3451 21.5221C46.1416 21.5209 46.0754 21.6075 46.0744 21.6951C46.0731 21.7986 46.1811 21.8635 46.4473 21.968C46.818 22.104 46.9664 22.2781 46.9642 22.559C46.9619 22.8364 46.7619 23.0737 46.4002 23.1332L46.398 23.4523L46.09 23.4488L46.09 23.4488Z" fill="#FFC91D"/>
<path d="M20.0601 61.0457C20.0334 63.7035 17.8561 65.8349 15.198 65.8078C12.5411 65.7795 10.4088 63.6047 10.4368 60.9466C10.4629 58.2898 12.6412 56.1565 15.2992 56.1845C17.957 56.2138 20.0894 58.3885 20.0601 61.0457H20.0601Z" fill="#FFB025"/>
<path d="M19.8174 61.0444C19.7906 63.5687 17.7258 65.5909 15.2023 65.5651C12.6792 65.5361 10.6558 63.4732 10.6829 60.9511C10.7099 58.4258 12.777 56.4046 15.2979 56.4294C17.82 56.4574 19.8422 58.5212 19.8174 61.0444Z" fill="#E79E30"/>
<path d="M18.8481 61.0342C18.829 63.0229 17.2001 64.6181 15.2117 64.5954C13.2252 64.5754 11.6287 62.9465 11.6514 60.959C11.6717 58.9706 13.2984 57.3764 15.2868 57.3955C17.2765 57.4178 18.8694 59.0457 18.848 61.0341L18.8481 61.0342Z" fill="#FFB025"/>
<path d="M18.6974 61.1839C18.6751 63.0901 17.1179 64.6158 15.2117 64.5955C13.3083 64.5754 11.7806 63.015 11.7997 61.1119C11.8198 59.2089 13.3802 57.6822 15.2868 57.7C17.1876 57.7201 18.7156 59.2808 18.6974 61.1839Z" fill="#D3841C"/>
<path d="M14.9374 63.2239L14.9428 62.7048C14.5756 62.6857 14.2228 62.5825 14.0161 62.4612L14.1859 61.823C14.4138 61.95 14.7362 62.0688 15.0902 62.0723C15.4036 62.0746 15.616 61.9577 15.6205 61.7386C15.6205 61.531 15.4495 61.3995 15.045 61.2568C14.4623 61.0533 14.0645 60.7772 14.0699 60.2467C14.0757 59.7649 14.4193 59.3907 15.0046 59.2818L15.0094 58.7627L15.5463 58.7672L15.5418 59.2493C15.908 59.2694 16.1539 59.3503 16.3316 59.4391L16.1663 60.0538C16.0259 59.992 15.7765 59.8649 15.381 59.8604C15.0259 59.857 14.9116 60.0088 14.9094 60.1614C14.9072 60.3423 15.0947 60.4569 15.5597 60.6391C16.208 60.8773 16.4663 61.1805 16.4628 61.6702C16.4583 62.1555 16.109 62.5702 15.4778 62.6724L15.4733 63.2297L14.9373 63.2239L14.9374 63.2239Z" fill="#FFC91D"/>
<path d="M60.6217 60.8937C60.5959 63.5531 58.4173 65.683 55.7595 65.6562C53.1037 65.6282 50.9703 63.4531 50.9993 60.795C51.0254 58.1382 53.2023 56.0049 55.8618 56.0329C58.5195 56.0619 60.651 58.2369 60.6217 60.8938V60.8937Z" fill="#FFB025"/>
<path d="M60.379 60.8928C60.3532 63.4172 58.2871 65.439 55.764 65.4136C53.2418 65.3843 51.2174 63.3217 51.2442 60.7995C51.2725 58.2742 53.3383 56.253 55.8604 56.2766C58.3826 56.3058 60.4048 58.3697 60.379 60.8929V60.8928Z" fill="#E79E30"/>
<path d="M59.4106 60.8826C59.3902 62.871 57.7626 64.4665 55.7729 64.4438C53.7877 64.4238 52.1903 62.7945 52.2126 60.8074C52.233 58.819 53.8609 57.2248 55.8493 57.2439C57.839 57.2662 59.4307 58.8942 59.4106 60.8826H59.4106Z" fill="#FFB025"/>
<path d="M59.2589 61.032C59.2376 62.9385 57.6794 64.4643 55.7729 64.4439C53.8708 64.4238 52.3431 62.8634 52.3622 60.9603C52.3813 59.0573 53.9418 57.5303 55.848 57.5484C57.7489 57.5685 59.2768 59.1289 59.2589 61.032Z" fill="#D3841C"/>
<path d="M55.4987 63.0722L55.5044 62.5532C55.1382 62.534 54.7854 62.4306 54.5774 62.3093L54.7484 61.6714C54.9764 61.7981 55.2987 61.9172 55.6525 61.9207C55.9649 61.9229 56.1783 61.8061 56.1818 61.587C56.1818 61.3803 56.012 61.2479 55.6067 61.1052C55.0235 60.9017 54.6271 60.6243 54.6325 60.0941C54.637 59.6132 54.9809 59.2391 55.5662 59.1301L55.5707 58.6111L56.1089 58.6156L56.1044 59.0977C56.4707 59.119 56.7165 59.1986 56.8942 59.2875L56.7289 59.9017C56.5875 59.84 56.3379 59.7133 55.9426 59.7088C55.5885 59.7053 55.4729 59.8568 55.4707 60.0097C55.4685 60.1906 55.6573 60.3053 56.1213 60.4871C56.7706 60.7253 57.0289 61.0288 57.0244 61.5186C57.0199 62.0039 56.6706 62.4185 56.0404 62.5207L56.0356 63.0777L55.4987 63.0722H55.4987Z" fill="#FFC91D"/>
<path d="M37.1082 21.3782V22.4794H37.1241C37.2992 22.7714 38.9339 23.003 40.9245 23.003C42.9155 23.003 44.5498 22.7714 44.7252 22.4794H44.7421V21.3782H37.1082Z" fill="#F4A517"/>
<path d="M38.4968 21.4133V22.8702C38.8831 22.9186 39.3324 22.9555 39.8248 22.9769V21.4133H38.4968Z" fill="#FFC91D"/>
<path d="M40.0742 21.675V22.9871C40.1818 22.9906 40.2911 22.995 40.4022 22.996V21.675H40.0742Z" fill="#FFC91D"/>
<path d="M44.7421 21.3783C44.7421 21.6524 43.0333 21.875 40.9245 21.875C38.817 21.875 37.1082 21.6524 37.1082 21.3783C37.1082 21.1044 38.817 20.8831 40.9245 20.8831C43.0333 20.8831 44.7421 21.1044 44.7421 21.3783Z" fill="#FFC91D"/>
<path d="M43.8164 21.4088C43.8164 21.6177 42.5209 21.7839 40.9245 21.7839C39.3281 21.7839 38.0339 21.6177 38.0339 21.4088C38.0339 21.2009 39.3281 21.0333 40.9245 21.0333C42.5209 21.0333 43.8164 21.2009 43.8164 21.4088Z" fill="#F4A517"/>
<path d="M43.5265 21.4457C43.5265 21.6333 42.3613 21.7839 40.9245 21.7839C39.4876 21.7839 38.3228 21.6333 38.3228 21.4457C38.3228 21.2604 39.4877 21.1075 40.9245 21.1075C42.3613 21.1075 43.5265 21.2604 43.5265 21.4457Z" fill="#FFC91D"/>
<path d="M38.2845 19.9449V21.0448H38.3013C38.4765 21.3378 40.1101 21.5671 42.1008 21.5671C44.0927 21.5671 45.726 21.3378 45.9025 21.0448H45.9181V19.9449H38.2844H38.2845Z" fill="#F4A517"/>
<path d="M39.6729 19.9786V21.4368C40.0594 21.484 40.5088 21.5209 41.0008 21.5435V19.9786H39.6729Z" fill="#FFC91D"/>
<path d="M41.2502 20.2414V21.5538C41.3582 21.557 41.4671 21.5604 41.5783 21.5614V20.2414H41.2502Z" fill="#FFC91D"/>
<path d="M45.9181 19.9449C45.9181 20.2178 44.2083 20.4404 42.1008 20.4404C39.9933 20.4404 38.2844 20.2178 38.2844 19.9449C38.2844 19.6697 39.9932 19.4484 42.1008 19.4484C44.2083 19.4484 45.9181 19.6697 45.9181 19.9449Z" fill="#FFC91D"/>
<path d="M44.9924 19.9751C44.9924 20.1818 43.6972 20.3503 42.1008 20.3503C40.5044 20.3503 39.2102 20.1818 39.2102 19.9751C39.2102 19.7675 40.5044 19.5988 42.1008 19.5988C43.6972 19.5988 44.9924 19.7675 44.9924 19.9751Z" fill="#F4A517"/>
<path d="M44.7038 20.0124C44.7038 20.1987 43.5386 20.3502 42.1008 20.3502C40.6639 20.3502 39.499 20.1987 39.499 20.0124C39.499 19.8258 40.6639 19.6729 42.1008 19.6729C43.5386 19.6729 44.7038 19.8258 44.7038 20.0124Z" fill="#FFC91D"/>
<path d="M37.1836 18.3228V19.4227H37.2005C37.3756 19.7157 39.009 19.9449 40.9999 19.9449C42.9916 19.9449 44.6262 19.7156 44.8016 19.4227H44.8185V18.3228H37.1836Z" fill="#F4A517"/>
<path d="M38.572 18.3565V19.8134C38.9586 19.8618 39.408 19.8988 39.9 19.9201V18.3565H38.572Z" fill="#FFC91D"/>
<path d="M40.1494 18.6191V19.9315C40.2574 19.9347 40.3662 19.9382 40.4774 19.9392V18.6192H40.1494V18.6191Z" fill="#FFC91D"/>
<path d="M44.8185 18.3227C44.8185 18.5956 43.1084 18.8182 40.9999 18.8182C38.8924 18.8182 37.1836 18.5956 37.1836 18.3227C37.1836 18.0475 38.8924 17.8262 40.9999 17.8262C43.1084 17.8262 44.8185 18.0475 44.8185 18.3227Z" fill="#FFC91D"/>
<path d="M43.8928 18.352C43.8928 18.5596 42.5973 18.7281 41 18.7281C39.4036 18.7281 38.1094 18.5596 38.1094 18.352C38.1094 18.1441 39.4036 17.9766 41 17.9766C42.5974 17.9766 43.8928 18.1441 43.8928 18.352Z" fill="#F4A517"/>
<path d="M43.6031 18.3899C43.6031 18.5765 42.4379 18.7281 41 18.7281C39.5632 18.7281 38.3979 18.5765 38.3979 18.3899C38.3979 18.2023 39.5632 18.0508 41 18.0508C42.4379 18.0508 43.6031 18.2024 43.6031 18.3899Z" fill="#FFC91D"/>
<path d="M31.2979 21.6964V22.796H31.3147C31.4899 23.0893 33.1232 23.3195 35.1151 23.3195C37.1058 23.3195 38.7404 23.0893 38.9159 22.796H38.9328V21.6964H31.2979Z" fill="#F4A517"/>
<path d="M32.6865 21.7302V23.1884C33.0731 23.2355 33.5225 23.2724 34.0145 23.2951V21.7302H32.6865V21.7302Z" fill="#FFC91D"/>
<path d="M34.2637 21.9929V23.3052C34.3716 23.3084 34.4805 23.3129 34.5917 23.3141V21.9929H34.2637Z" fill="#FFC91D"/>
<path d="M38.9328 21.6964C38.9328 21.9706 37.2227 22.1928 35.1151 22.1928C33.0067 22.1928 31.2979 21.9706 31.2979 21.6964C31.2979 21.4222 33.0067 21.1996 35.1151 21.1996C37.2227 21.1996 38.9328 21.4222 38.9328 21.6964Z" fill="#FFC91D"/>
<path d="M38.007 21.7267C38.007 21.9333 36.7116 22.103 35.1152 22.103C33.5178 22.103 32.2236 21.9333 32.2236 21.7267C32.2236 21.5187 33.5178 21.3515 35.1152 21.3515C36.7116 21.3515 38.007 21.5187 38.007 21.7267Z" fill="#F4A517"/>
<path d="M37.7173 21.7636C37.7173 21.9515 36.5521 22.1031 35.1152 22.1031C33.6774 22.1031 32.5122 21.9515 32.5122 21.7636C32.5122 21.5773 33.6774 21.4257 35.1152 21.4257C36.5521 21.4257 37.7173 21.5773 37.7173 21.7636Z" fill="#FFC91D"/>
<path d="M42.5706 23.1848C42.5524 24.9274 41.1258 26.3238 39.3845 26.3057C37.6431 26.2865 36.2455 24.8621 36.2646 23.1208C36.2815 21.3795 37.7081 19.9818 39.4507 20C41.192 20.0191 42.5894 21.4448 42.5706 23.1848Z" fill="#FFB025"/>
<path d="M42.4111 23.1839C42.3942 24.8386 41.0405 26.163 39.3868 26.1461C37.734 26.127 36.4073 24.7755 36.4255 23.1231C36.4433 21.4684 37.7971 20.1436 39.4495 20.1596C41.1023 20.1787 42.4277 21.5312 42.4111 23.1839Z" fill="#E79E30"/>
<path d="M41.7759 23.1768C41.7626 24.4803 40.6964 25.5248 39.3933 25.5114C38.0911 25.498 37.0454 24.4306 37.06 23.1288C37.0733 21.8253 38.1395 20.7808 39.4426 20.7929C40.7457 20.8076 41.7896 21.875 41.7759 23.1768Z" fill="#FFB025"/>
<path d="M41.6773 23.2747C41.6627 24.5252 40.6414 25.5239 39.3934 25.5114C38.1463 25.4981 37.1454 24.4755 37.1578 23.2275C37.1699 21.9817 38.1934 20.9808 39.4418 20.9929C40.6876 21.0066 41.6885 22.0289 41.6773 23.2746V23.2747Z" fill="#D3841C"/>
<path d="M39.2138 24.6128L39.217 24.2724C38.9766 24.2599 38.745 24.1915 38.6094 24.1128L38.7215 23.6937C38.8711 23.7781 39.0822 23.8555 39.3134 23.8577C39.5191 23.859 39.6587 23.7825 39.6609 23.6386C39.6609 23.5039 39.5494 23.4163 39.2844 23.323C38.9013 23.1905 38.6418 23.0084 38.645 22.6613C38.6485 22.3457 38.8743 22.1008 39.2574 22.0298L39.2609 21.6897L39.6125 21.6929L39.6103 22.0075C39.8494 22.0222 40.0112 22.0738 40.1271 22.1323L40.0192 22.5343C39.9271 22.4951 39.7631 22.4107 39.5036 22.4085C39.2721 22.4062 39.1969 22.5062 39.1947 22.6062C39.1934 22.7244 39.317 22.7995 39.6214 22.9186C40.0463 23.0747 40.2157 23.2737 40.2125 23.5937C40.2102 23.9128 39.9809 24.1835 39.5676 24.251L39.5641 24.616L39.2138 24.6128Z" fill="#FFC91D"/>
<path d="M33.1111 23.0275C33.0975 24.3666 32.0001 25.4408 30.661 25.4271C29.3216 25.4127 28.2477 24.3163 28.2611 22.9769C28.2748 21.6378 29.3722 20.564 30.7113 20.5786C32.0516 20.593 33.1255 21.6884 33.1111 23.0275Z" fill="#FFB025"/>
<path d="M32.9885 23.0266C32.9751 24.2982 31.9338 25.3172 30.6632 25.3048C29.3913 25.2902 28.3713 24.2511 28.3859 22.9792C28.3993 21.7076 29.4406 20.6886 30.7112 20.701C31.9819 20.7156 33.0009 21.756 32.9885 23.0267V23.0266Z" fill="#E79E30"/>
<path d="M32.5002 23.0221C32.49 24.0231 31.6697 24.8274 30.6678 24.816C29.6666 24.8061 28.8625 23.9848 28.8736 22.9839C28.8838 21.9818 29.7039 21.1783 30.706 21.1885C31.7079 21.1996 32.51 22.0199 32.5002 23.0221V23.0221Z" fill="#FFB025"/>
<path d="M32.4238 23.0973C32.4123 24.0578 31.6283 24.8262 30.6678 24.816C29.7083 24.8061 28.9386 24.0195 28.9488 23.06C28.959 22.1018 29.7443 21.3324 30.7048 21.3413C31.663 21.3515 32.4327 22.1378 32.4238 23.0973Z" fill="#D3841C"/>
<path d="M30.5296 24.1252L30.5328 23.8635C30.3475 23.8533 30.1701 23.8017 30.0657 23.7409L30.151 23.4186C30.2657 23.4826 30.4284 23.5431 30.6061 23.5444C30.7644 23.5454 30.8711 23.4871 30.8733 23.376C30.8733 23.2724 30.7879 23.2053 30.5835 23.1333C30.2902 23.0311 30.0902 22.8916 30.0924 22.6244C30.095 22.3818 30.2689 22.1942 30.5634 22.1391L30.5656 21.8774L30.8363 21.8796L30.8341 22.1222C31.0182 22.1324 31.143 22.1729 31.2319 22.2178L31.1488 22.5277C31.0778 22.4965 30.952 22.4321 30.7532 22.4299C30.5746 22.429 30.516 22.5054 30.5151 22.5818C30.5138 22.6726 30.6093 22.7311 30.8431 22.8222C31.1702 22.9423 31.3004 23.0951 31.2982 23.3423C31.296 23.5872 31.1195 23.7951 30.8017 23.8467L30.7991 24.1276L30.5297 24.1254L30.5296 24.1252Z" fill="#FFC91D"/>
<path d="M27.9038 24.523C27.9038 24.523 28.8241 22.2862 30.9371 22.7693C33.0503 23.2524 33.4255 22.9693 34.8387 22.2053C36.2533 21.4413 36.1578 20.4627 37.2463 21.3796C38.336 22.2964 37.3857 24.6466 40.0964 23.959C42.8061 23.2715 43.4523 21.6875 44.5341 22.7658C45.6149 23.8444 46.3034 25.1306 47.5638 25.1755C48.8245 25.2204 50.1219 25.1755 50.1219 25.1755C50.1219 25.1755 50.6591 28.4874 48.8828 28.0865C47.1055 27.6852 47.1055 27.7989 46.8192 27.6269C46.5326 27.455 43.1509 25.2981 41.5456 26.1181C37.6283 28.1202 36.6857 24.6542 35.6759 25.3386C34.667 26.0226 33.0538 25.927 32.4268 26.1181C31.801 26.3092 28.1904 25.0879 27.9038 24.523V24.523Z" fill="#660F0D"/>
<path d="M51.5536 63.5012H39.9889C39.808 63.5012 39.6619 63.3541 39.6619 63.1732V61.7994C39.6619 61.6185 39.808 61.4714 39.9889 61.4714H51.5536C51.7344 61.4714 51.8803 61.6185 51.8803 61.7994V63.1732C51.8803 63.3541 51.7344 63.5012 51.5536 63.5012Z" fill="#F4A517"/>
<path d="M40.7529 63.5012H42.5063V61.4717H40.7529V63.5012Z" fill="#FFC91D"/>
<path d="M43.532 63.5012H44.0782V61.4717H43.532V63.5012Z" fill="#FFC91D"/>
<path d="M53.4721 61.4714H42.0075C41.7986 61.4714 41.6301 61.303 41.6301 61.0938V59.8199C41.6301 59.611 41.7986 59.4426 42.0075 59.4426H53.4721C53.68 59.4426 53.8485 59.611 53.8485 59.8199V61.0938C53.8485 61.303 53.68 61.4714 53.4721 61.4714Z" fill="#FFC91D"/>
<path d="M49.074 61.4715H50.8274V59.4423H49.074V61.4715Z" fill="#FFD150"/>
<path d="M51.8535 61.4715H52.3993V59.4423H51.8535V61.4715Z" fill="#FFD150"/>
<path d="M53.7405 65.5012H42.5737C42.2839 65.5012 42.0479 65.2652 42.0479 64.9741V63.999C42.0479 63.7083 42.2838 63.4723 42.5737 63.4723H53.7405C54.0315 63.4723 54.2675 63.7083 54.2675 63.999V64.9741C54.2675 65.2652 54.0315 65.5012 53.7405 65.5012Z" fill="#E59515"/>
<path d="M43.1399 65.5012H44.8926V63.4723H43.1399V65.5012Z" fill="#FFC91D"/>
<path d="M45.9194 65.5012H46.464V63.4723H45.9194V65.5012Z" fill="#FFC91D"/>
<path d="M28.7994 63.4127H17.2361C17.0552 63.4127 16.9077 63.2665 16.9077 63.0857V61.7119C16.9077 61.531 17.0552 61.3839 17.2361 61.3839H28.7994C28.9803 61.3839 29.1274 61.531 29.1274 61.7119V63.0857C29.1274 63.2665 28.9803 63.4127 28.7994 63.4127Z" fill="#F4A517"/>
<path d="M17.9998 63.4127H19.7534V61.3839H17.9998V63.4127Z" fill="#FFC91D"/>
<path d="M20.7791 63.4127H21.3249V61.3839H20.7791V63.4127Z" fill="#FFC91D"/>
<path d="M30.7182 61.3839H19.2548C19.0459 61.3839 18.8774 61.2151 18.8774 61.0062V59.7324C18.8774 59.5235 19.0459 59.3547 19.2548 59.3547H30.7182C30.9274 59.3547 31.0958 59.5235 31.0958 59.7324V61.0062C31.0958 61.2151 30.9274 61.3839 30.7182 61.3839Z" fill="#FFC91D"/>
<path d="M26.3213 61.3838H28.0741V59.355H26.3213V61.3838Z" fill="#FFD150"/>
<path d="M29.0994 61.3838H29.6458V59.355H29.0994V61.3838Z" fill="#FFD150"/>
<path d="M30.9878 65.4136H19.821C19.5299 65.4136 19.2952 65.1776 19.2952 64.8865V63.9104C19.2952 63.6194 19.5298 63.3846 19.821 63.3846H30.9878C31.2776 63.3846 31.5135 63.6193 31.5135 63.9104V64.8865C31.5135 65.1776 31.2776 65.4136 30.9878 65.4136Z" fill="#E59515"/>
<path d="M20.386 65.4136H22.1397V63.3844H20.386V65.4136Z" fill="#FFC91D"/>
<path d="M23.1653 65.4136H23.7117V63.3844H23.1653V65.4136Z" fill="#FFC91D"/>
<path d="M52.9824 31.7801C53.1576 31.37 52.3882 31.6531 52.2735 31.7174C52.1633 31.7779 52.0051 31.8668 51.9566 31.9903C51.8948 32.1441 52.0567 32.3015 52.2006 32.2094L52.2579 32.3014C52.0971 32.4024 51.9073 32.3272 51.8477 32.1476C51.7792 31.941 51.9722 31.7792 52.1286 31.6779C52.3264 31.5499 52.6171 31.4104 52.861 31.4464C53.0642 31.4756 53.1566 31.6441 53.0766 31.8317L52.9824 31.7801L52.9824 31.7801Z" fill="#FEC44F"/>
<path d="M52.8589 31.4691C53.034 31.0589 52.2646 31.342 52.15 31.4061C52.0398 31.4669 51.8825 31.5557 51.8331 31.6793C51.7726 31.8331 51.9331 31.9905 52.0771 31.8981L52.1341 31.9904C51.9736 32.0914 51.7848 32.0162 51.7252 31.8363C51.6567 31.6296 51.8487 31.4678 52.0051 31.3669C52.2029 31.2388 52.4936 31.0994 52.7375 31.1353C52.9407 31.1647 53.0331 31.3331 52.9531 31.5207L52.8589 31.4691Z" fill="#FEC44F"/>
</svg>
