<svg width="215" height="215" viewBox="0 0 215 215" fill="none" xmlns="http://www.w3.org/2000/svg">
<g clip-path="url(#clip0_1907_95)">
<path d="M107.5 0.000244141C48.1289 0.000244141 0 48.1291 0 107.5C0 166.871 48.1289 215 107.5 215C166.871 215 215 166.871 215 107.5C215 48.1291 166.87 0.000244141 107.5 0.000244141ZM78.8186 159.471H55.216V83.2178H78.8186V159.471ZM66.9048 73.2318C59.1964 73.2318 52.9474 66.9318 52.9474 59.1617C52.9474 51.3907 59.1973 45.0912 66.9048 45.0912C74.6123 45.0912 80.8613 51.3907 80.8613 59.1617C80.8618 66.9323 74.6128 73.2318 66.9048 73.2318ZM167.27 159.471H143.781V119.444C143.781 108.466 139.611 102.338 130.931 102.338C121.483 102.338 116.548 108.721 116.548 119.444V159.471H93.9098V83.2178H116.548V93.4878C116.548 93.4878 123.357 80.8918 139.526 80.8918C155.695 80.8918 167.27 90.7646 167.27 111.189L167.27 159.471Z" fill="url(#paint0_linear_1907_95)"/>
</g>
<defs>
<linearGradient id="paint0_linear_1907_95" x1="31.4859" y1="31.4862" x2="183.514" y2="183.514" gradientUnits="userSpaceOnUse">
<stop stop-color="#2489BE"/>
<stop offset="1" stop-color="#0575B3"/>
</linearGradient>
<clipPath id="clip0_1907_95">
<rect width="215" height="215" fill="white"/>
</clipPath>
</defs>
</svg>
