<svg width="20" height="20" viewBox="0 0 20 20" fill="none" xmlns="http://www.w3.org/2000/svg">
<path d="M17.3176 10.098L17.3178 10.0982C17.3499 10.1301 17.374 10.1664 17.3902 10.2055L17.8521 10.014L17.3902 10.2055C17.407 10.246 17.4156 10.2894 17.4156 10.3332C17.4156 10.377 17.407 10.4203 17.3902 10.4608C17.3734 10.5013 17.3488 10.538 17.3178 10.569L17.3176 10.5692L14.8176 13.0692L14.8176 13.0691L14.8116 13.0754C14.7808 13.1072 14.744 13.1326 14.7034 13.1501C14.6627 13.1676 14.6189 13.1768 14.5747 13.1771C14.5304 13.1775 14.4865 13.1691 14.4456 13.1523C14.4046 13.1356 14.3674 13.1108 14.3361 13.0795C14.3048 13.0482 14.28 13.011 14.2633 12.97C14.2465 12.9291 14.2381 12.8852 14.2385 12.8409C14.2389 12.7967 14.248 12.7529 14.2655 12.7122C14.283 12.6716 14.3084 12.6348 14.3402 12.6041L14.3403 12.6041L14.3464 12.598L15.4239 11.5205L16.2775 10.6669H15.0704H10.4154C10.327 10.6669 10.2422 10.6318 10.1797 10.5693L9.82611 10.9228L10.1797 10.5693C10.1172 10.5068 10.082 10.422 10.082 10.3336C10.082 10.2452 10.1172 10.1604 10.1797 10.0979C10.2422 10.0354 10.327 10.0002 10.4154 10.0002H15.0704H16.2781L15.4238 9.14655L14.3463 8.0699C14.3463 8.06989 14.3463 8.06989 14.3463 8.06988C14.3153 8.03893 14.2907 8.00218 14.274 7.96173C14.2572 7.92127 14.2485 7.87791 14.2485 7.83411C14.2485 7.79031 14.2571 7.74694 14.2739 7.70647C14.2906 7.666 14.3152 7.62923 14.3461 7.59825C14.3771 7.56727 14.4138 7.54269 14.4543 7.52592C14.4948 7.50915 14.5381 7.5005 14.5819 7.50049C14.6257 7.50047 14.6691 7.50908 14.7095 7.52583C14.75 7.54257 14.7868 7.56713 14.8178 7.59809L17.3176 10.098Z" fill="white" stroke="#263238"/>
<path d="M10.4154 11.1667C10.1944 11.1667 9.98239 11.0789 9.82611 10.9226C9.66983 10.7663 9.58203 10.5543 9.58203 10.3333C9.58203 10.1123 9.66983 9.90036 9.82611 9.74408C9.98239 9.5878 10.1944 9.5 10.4154 9.5H13.7487V4.5C13.748 3.83716 13.4844 3.20166 13.0157 2.73296C12.547 2.26427 11.9115 2.00066 11.2487 2H4.58203C3.91919 2.00066 3.28369 2.26427 2.815 2.73296C2.3463 3.20166 2.08269 3.83716 2.08203 4.5V16.1667C2.08269 16.8295 2.3463 17.465 2.815 17.9337C3.28369 18.4024 3.91919 18.666 4.58203 18.6667H11.2487C11.9115 18.666 12.547 18.4024 13.0157 17.9337C13.4844 17.465 13.748 16.8295 13.7487 16.1667V11.1667H10.4154Z" fill="white"/>
</svg>
