<svg width="90" height="90" viewBox="0 0 90 90" fill="none" xmlns="http://www.w3.org/2000/svg">
<path d="M78.6399 72.6173L75.556 63.3661C75.3802 62.8384 75.4375 62.271 75.6922 61.7765C78.0097 57.2739 78.9668 51.9578 77.9642 46.3542C76.4268 37.7641 70.1366 30.6262 61.9781 27.8887C64.0832 32.973 64.7252 38.6262 63.6735 44.2336C61.5369 55.6307 52.4105 64.6674 40.9641 66.7202C39.4825 66.986 37.9855 67.1154 36.5 67.1532C39.9762 70.9036 44.6163 73.5697 49.7924 74.498C55.3615 75.4968 60.6529 74.5671 65.142 72.2842C65.6345 72.0337 66.1979 71.978 66.7222 72.1527L76.0088 75.2482C77.6349 75.7904 79.182 74.2435 78.6399 72.6173Z" fill="#1B3D6F"/>
<path d="M31.1415 15.0722C21.495 16.8646 13.7646 24.7019 12.036 34.36C11.0334 39.9635 11.9905 45.2797 14.308 49.7823C14.5627 50.2768 14.62 50.8442 14.4444 51.3719L11.3603 60.6231C10.8184 62.2493 12.3653 63.7961 13.9914 63.2542L23.2779 60.1587C23.8025 59.984 24.366 60.0397 24.8584 60.2902C29.3473 62.573 34.6385 63.5028 40.2078 62.504C49.8422 60.7762 57.6595 53.0649 59.463 43.4444C62.6408 26.4966 48.0842 11.924 31.1415 15.0722ZM37.2829 46.2797H25.2887C24.1057 46.2797 23.1468 45.321 23.1468 44.1378C23.1468 42.9548 24.1057 41.9959 25.2887 41.9959H37.2829C38.4661 41.9959 39.4248 42.9548 39.4248 44.1378C39.4248 45.321 38.4661 46.2797 37.2829 46.2797ZM45.8504 37.7123H25.2885C24.1055 37.7123 23.1466 36.7536 23.1466 35.5704C23.1466 34.3874 24.1055 33.4285 25.2885 33.4285H45.8502C47.0334 33.4285 47.9921 34.3874 47.9921 35.5704C47.9922 36.7536 47.0335 37.7123 45.8504 37.7123Z" fill="#1B3D6F"/>
</svg>
