<svg width="100" height="101" viewBox="0 0 100 101" fill="none" xmlns="http://www.w3.org/2000/svg">
<path d="M63.7184 98.3225C63.7445 93.3609 63.6378 88.3964 63.4012 83.4406C63.0501 76.0592 62.2432 68.2391 57.7512 62.3732C55.4233 59.3333 52.2482 57.0399 48.9319 55.1265C48.3384 54.7838 47.6554 54.3201 47.6637 53.6341C47.6696 53.2766 47.8688 52.957 48.0675 52.6605C51.5971 47.3935 56.809 43.2615 59.4974 37.5195C61.5371 33.1656 61.9491 28.2473 62.1365 23.4445C62.315 18.9004 62.3238 14.351 62.315 9.80438L62.5053 8.94577C53.006 5.58338 42.8147 4.46257 32.742 4.74492C22.6688 5.02727 12.6827 6.67538 2.81405 8.71819C3.2812 13.3599 3.28956 17.9096 3.46855 22.4532C3.65836 27.256 4.07043 32.1743 6.10769 36.5281C8.79601 42.2706 14.0079 46.4022 17.5376 51.6691C17.7362 51.9657 17.9349 52.2858 17.9408 52.6428C17.9497 53.3288 17.2696 53.7925 16.6731 54.1357C13.3569 56.0515 10.1817 58.342 7.85384 61.3819C3.36184 67.2483 2.5549 75.0708 2.20331 82.4498C1.96728 87.4055 1.86353 92.3696 1.88074 97.2274C22.2686 100.049 42.9647 100.593 63.7184 98.3225Z" fill="#FFC5A6"/>
<path d="M10.0393 92.911C9.58448 89.6867 9.70545 86.2809 11.1143 83.3453C12.5231 80.4091 15.4047 78.0463 18.6604 77.917C20.6112 77.8388 22.6337 78.5307 24.4747 77.885C27.2869 76.8967 28.9264 73.0474 31.894 73.3183C33.0894 73.428 34.1127 74.2374 35.2909 74.4763C37.9532 75.0182 40.7423 72.5807 43.2546 73.6178C44.2144 74.0126 44.9171 74.857 45.819 75.3728C48.1355 76.698 51.38 75.6924 53.4719 77.3461C55.578 79.0116 55.2495 82.2615 56.3298 84.7192C57.0792 86.4221 58.5716 87.8717 58.6606 89.73C58.7359 91.2971 57.7332 92.7669 56.4277 93.6398C55.1226 94.5126 53.5554 94.8873 52.0109 95.1725C43.0185 96.8237 33.7523 95.8845 24.7427 94.337C19.5795 93.4524 14.2579 92.3721 10.0393 92.911Z" fill="#FF9F6B"/>
<path d="M0 4.04521C0.115066 6.24361 0.233573 8.44202 0.348639 10.6404C0.38306 11.306 0.440594 12.0263 0.878731 12.5305C1.50668 13.2508 2.61603 13.2192 3.56705 13.1327C23.4189 11.3146 43.4148 11.3118 63.307 12.6141C64.0102 12.6602 64.8427 12.6516 65.2547 12.0782C65.5399 11.6806 65.5114 11.1446 65.4681 10.6548C65.2287 7.9666 64.9292 5.28129 64.5747 2.60458C64.5171 2.17239 64.4537 1.7258 64.2231 1.357C63.6959 0.509933 62.5379 0.371607 61.5407 0.325532C42.3487 -0.530235 23.0816 0.302469 4.03371 2.80919C2.63914 2.99359 1.11476 3.25288 0 4.04521Z" fill="#1B81A6"/>
<path d="M66.9995 96.5619C66.8839 94.3634 66.7659 92.1648 66.6508 89.9667C66.6159 89.3009 66.5584 88.5805 66.1202 88.0765C65.4923 87.3561 64.3829 87.3876 63.4324 87.4741C43.5806 89.2926 23.5842 89.298 3.692 87.9929C2.98931 87.9467 2.15631 87.9555 1.74424 88.5289C1.45903 88.9262 1.48805 89.4622 1.53132 89.952C1.7703 92.6403 2.07026 95.3257 2.4243 98.0022C2.48184 98.4344 2.54527 98.8814 2.7759 99.2502C3.30304 100.097 4.46157 100.235 5.45831 100.281C24.6502 101.137 43.9174 100.304 62.9653 97.7976C64.3598 97.6132 65.8813 97.3541 66.9995 96.5619Z" fill="#1B81A6"/>
<path d="M34.9439 70.7443C34.7364 70.586 34.5259 70.4188 34.284 70.3293C33.8232 70.1592 33.2872 70.3411 33.0655 70.7414C32.8058 71.208 32.9848 71.865 33.3708 72.3031C33.6733 72.6459 34.1055 72.8908 34.5407 72.9026C34.9754 72.9139 35.3963 72.6601 35.5232 72.2569C35.6726 71.7642 35.3732 71.1938 34.9439 70.7443Z" fill="#FF9F6B"/>
<path d="M8.08492 29.1097C7.96986 28.018 8.30129 26.9289 8.99562 26.0757C12.1619 22.192 17.1319 19.8036 22.1515 19.8523C23.5372 19.867 24.9347 20.0569 26.2309 20.5525C27.6717 21.1028 28.9424 22.0105 30.2361 22.8519C33.0828 24.7072 36.2407 26.3294 39.6347 26.4445C42.4095 26.5399 45.1091 25.6238 47.8437 25.1453C50.5777 24.6669 53.6432 24.7072 55.8216 26.4302C56.0434 26.6063 56.2597 26.8049 56.3777 27.0641C56.5159 27.3753 56.4958 27.7328 56.4702 28.0726C56.3374 29.9107 56.2022 31.7665 55.6834 33.5353C54.8278 36.4602 52.9518 39.0098 50.7134 41.0785C48.4746 43.1473 45.8728 44.7783 43.2538 46.3426C41.5219 47.3742 39.7414 48.4142 38.4506 49.9647C35.0709 54.0215 36.0592 60.092 34.3303 65.0708C34.2324 65.356 33.9758 65.5778 33.6733 65.5984C33.1029 65.6387 32.9185 64.999 32.858 64.492C32.5325 61.7776 32.204 59.0633 31.8785 56.3494C31.7315 55.1392 31.5786 53.9 31.0485 52.8025C29.9421 50.509 27.4613 49.2787 25.188 48.1261C20.9585 45.9856 16.8152 43.5131 13.5451 40.0818C10.6754 37.062 8.51716 33.2014 8.08492 29.1097Z" fill="#FF9F6B"/>
<path d="M51.0797 90.1385C51.8975 88.0733 51.6909 86.0547 50.618 85.6298C49.5455 85.205 48.0133 86.5351 47.1955 88.6009C46.3777 90.6662 46.5843 92.6847 47.6572 93.1096C48.7297 93.5345 50.262 92.2043 51.0797 90.1385Z" fill="#1B81A6"/>
<path d="M7.24223 21.5781C7.33467 27.0177 7.91639 32.7228 10.9593 37.3933C11.717 38.5602 12.6189 39.6292 13.653 40.5566C13.9269 40.802 14.336 40.3954 14.0567 40.1475C10.1641 36.6641 8.5704 31.4551 8.06932 26.407C7.91098 24.8019 7.8446 23.1915 7.81854 21.5811C7.81264 21.2093 7.23682 21.2064 7.24223 21.5781Z" fill="#203752"/>
<path d="M16.171 42.7802C17.8626 44.215 19.6805 45.4975 21.6111 46.5891C23.403 47.6036 25.541 48.3092 26.9297 49.8941C27.1746 50.1734 27.5783 49.7613 27.3329 49.485C25.959 47.9173 23.8957 47.2058 22.1181 46.2149C20.1472 45.1169 18.2919 43.829 16.5718 42.3681C16.2949 42.1321 15.8858 42.5382 16.171 42.7802Z" fill="#203752"/>
<path d="M41.5795 47.4939C45.2184 45.6095 48.7535 43.3535 51.5859 40.3598C52.9573 38.9136 54.1561 37.2884 55.0491 35.5019C56.066 33.4681 56.6222 31.2666 56.9251 29.0223C57.2939 26.2878 57.3342 23.5247 57.6135 20.7848C57.6509 20.416 57.0746 20.416 57.0372 20.7818C56.5676 25.4002 56.7982 30.2468 54.8559 34.5716C53.214 38.2276 50.3241 41.1549 47.1086 43.4744C45.2675 44.7997 43.305 45.9523 41.2914 46.9923C40.9629 47.1654 41.251 47.664 41.5795 47.4939Z" fill="#203752"/>
<path d="M8.29315 79.4159C8.37675 73.7079 10.6068 68.0923 14.3867 63.8255C15.4558 62.6183 16.6458 61.5173 17.9425 60.5579C18.2365 60.3391 17.9513 59.8375 17.6543 60.0593C12.9464 63.5545 9.59822 68.7551 8.30742 74.4715C7.94157 76.0938 7.7429 77.7534 7.71684 79.4159C7.71094 79.7847 8.28725 79.7877 8.29315 79.4159Z" fill="#203752"/>
<path d="M47.752 61.0894C51.7626 62.8961 54.9899 66.2989 56.6264 70.3817C57.0871 71.5344 57.4186 72.7327 57.6148 73.9572C57.6753 74.323 58.2314 74.1765 58.1734 73.8131C57.4535 69.353 54.9147 65.2559 51.3191 62.5391C50.2992 61.7695 49.2012 61.1155 48.0372 60.5913C47.7029 60.4384 47.4152 60.937 47.752 61.0894Z" fill="#203752"/>
<g clip-path="url(#clip0_1413_1139)">
<path fill-rule="evenodd" clip-rule="evenodd" d="M81.4577 85.687H48.5445C43.732 85.687 41.7633 82.2767 44.1695 78.1095L60.6261 49.6064C61.8292 47.5217 63.4152 46.4805 65.0011 46.4805C66.587 46.4805 68.173 47.5217 69.3761 49.6064L85.8327 78.1095C88.2389 82.2767 86.2702 85.687 81.4577 85.687Z" fill="#974D4C"/>
<path fill-rule="evenodd" clip-rule="evenodd" d="M48.5445 83.4998C43.732 83.4998 41.7633 80.0895 44.1695 75.9223L60.6261 47.4192C63.0324 43.2509 66.9699 43.2509 69.3761 47.4192L85.8327 75.9223C88.2389 80.0895 86.2702 83.4998 81.4577 83.4998H48.5445Z" fill="#B3261E"/>
<path fill-rule="evenodd" clip-rule="evenodd" d="M67.1875 66C67.1875 66.5802 66.957 67.1366 66.5468 67.5468C66.1366 67.957 65.5802 68.1875 65 68.1875C64.4198 68.1875 63.8634 67.957 63.4532 67.5468C63.043 67.1366 62.8125 66.5802 62.8125 66V57.25C62.8125 56.6698 63.043 56.1134 63.4532 55.7032C63.8634 55.293 64.4198 55.0625 65 55.0625C65.5802 55.0625 66.1366 55.293 66.5468 55.7032C66.957 56.1134 67.1875 56.6698 67.1875 57.25V66Z" fill="white"/>
<path fill-rule="evenodd" clip-rule="evenodd" d="M67.1889 74.7474C67.1955 75.0387 67.1438 75.3284 67.0369 75.5995C66.93 75.8705 66.77 76.1175 66.5663 76.3259C66.3627 76.5343 66.1194 76.6999 65.8509 76.8129C65.5823 76.926 65.2939 76.9843 65.0025 76.9844C64.7111 76.9844 64.4227 76.9263 64.1541 76.8134C63.8855 76.7004 63.6421 76.535 63.4383 76.3267C63.2346 76.1184 63.0745 75.8715 62.9674 75.6005C62.8604 75.3295 62.8085 75.0398 62.815 74.7485C62.8276 74.177 63.0635 73.6331 63.4722 73.2333C63.8808 72.8335 64.4297 72.6095 65.0014 72.6094C65.5731 72.6092 66.1221 72.8329 66.531 73.2325C66.9398 73.6321 67.176 74.1759 67.1889 74.7474Z" fill="white"/>
</g>
<defs>
<clipPath id="clip0_1413_1139">
<rect width="70" height="70" fill="white" transform="translate(30 31)"/>
</clipPath>
</defs>
</svg>
