<svg width="110" height="108" viewBox="0 0 110 108" fill="none" xmlns="http://www.w3.org/2000/svg">
<path d="M56.4376 13.6641C55.9722 13.6641 55.5094 13.6748 55.0477 13.6904C54.586 13.6748 54.123 13.6641 53.6575 13.6641C31.2688 13.6641 13.1172 31.8157 13.1172 54.2046C13.1172 76.5935 31.2688 94.7451 53.6575 94.7451C54.123 94.7451 54.586 94.7344 55.0477 94.7188C55.5094 94.7344 55.9722 94.7451 56.4376 94.7451C78.8253 94.7451 96.9758 76.5935 96.9758 54.2046C96.9758 31.8157 78.8253 13.6641 56.4376 13.6641Z" fill="url(#paint0_linear_1313_1860)"/>
<path d="M94.1956 54.2046C94.1956 31.8157 76.0451 13.6641 53.6575 13.6641C31.2687 13.6641 13.1172 31.8157 13.1172 54.2046C13.1172 76.5935 31.2687 94.7451 53.6575 94.7451C76.0451 94.7451 94.1956 76.5935 94.1956 54.2046Z" fill="#22295F"/>
<path d="M89.1466 54.2077C89.1466 34.6049 73.257 18.7148 53.6587 18.7148C34.0553 18.7148 18.166 34.6049 18.166 54.2077C18.166 73.8106 34.0553 89.6998 53.6587 89.6998C73.257 89.6998 89.1466 73.8106 89.1466 54.2077Z" fill="#E293AE"/>
<path d="M53.6542 20.1367C53.2345 20.1367 52.8945 20.4772 52.8945 20.8963V23.2826C52.8945 23.7017 53.2349 24.0422 53.6544 24.0422C54.074 24.0422 54.414 23.7017 54.414 23.2826V20.8963C54.414 20.4772 54.0736 20.1367 53.6542 20.1367Z" fill="#22295F"/>
<path d="M53.6542 84.3672C53.2345 84.3672 52.8945 84.7077 52.8945 85.1268V87.513C52.8945 87.9321 53.2349 88.2726 53.6544 88.2726C54.074 88.2726 54.414 87.9321 54.414 87.513V85.1268C54.414 84.7077 54.0736 84.3672 53.6542 84.3672Z" fill="#22295F"/>
<g opacity="0.5">
<path d="M44.8367 21.2995C44.4313 21.4081 44.191 21.825 44.2995 22.2298L44.5596 23.2007C44.6681 23.6055 45.085 23.8463 45.4902 23.7377C45.8955 23.6291 46.1358 23.2122 46.0273 22.8074L45.7672 21.8365C45.6587 21.4317 45.2418 21.1909 44.8367 21.2995Z" fill="white"/>
<path d="M61.8171 84.6745C61.4118 84.7831 61.1715 85.2 61.2799 85.6048L61.5401 86.5757C61.6485 86.9805 62.0655 87.2213 62.4706 87.1127C62.876 87.0041 63.1163 86.5872 63.0078 86.1824L62.7477 85.2115C62.6392 84.8067 62.2223 84.5659 61.8171 84.6745Z" fill="white"/>
</g>
<path d="M36.6221 24.7034C36.2587 24.9132 36.1345 25.3781 36.344 25.7411L37.5371 27.8076C37.7466 28.1706 38.2117 28.2953 38.5749 28.0855C38.9383 27.8757 39.0626 27.4108 38.853 27.0479L37.6599 24.9813C37.4504 24.6184 36.9854 24.4937 36.6221 24.7034Z" fill="#22295F"/>
<path d="M68.7334 80.3245C68.37 80.5343 68.2458 80.9992 68.4553 81.3621L69.6484 83.4287C69.8579 83.7917 70.323 83.9163 70.6862 83.7066C71.0497 83.4968 71.1739 83.0319 70.9643 82.6689L69.7712 80.6024C69.5617 80.2394 69.0967 80.1148 68.7334 80.3245Z" fill="#22295F"/>
<g opacity="0.5">
<path d="M29.5662 30.117C29.2694 30.4137 29.2698 30.8949 29.5661 31.1913L30.2768 31.902C30.5732 32.1983 31.0546 32.1984 31.3512 31.9018C31.6479 31.605 31.6476 31.1239 31.3513 30.8275L30.6406 30.1168C30.3442 29.8204 29.8628 29.8204 29.5662 30.117Z" fill="white"/>
<path d="M75.9588 76.5076C75.662 76.8044 75.6624 77.2856 75.9587 77.5819L76.6694 78.2926C76.9657 78.589 77.4472 78.589 77.7438 78.2924C78.0405 77.9957 78.0402 77.5145 77.7439 77.2182L77.0331 76.5074C76.7368 76.2111 76.2554 76.211 75.9588 76.5076Z" fill="white"/>
</g>
<path d="M24.1526 37.173C23.9428 37.5364 24.0677 38.0011 24.4306 38.2107L26.4971 39.4038C26.86 39.6133 27.3251 39.4888 27.5348 39.1255C27.7447 38.7621 27.6198 38.2974 27.2569 38.0878L25.1903 36.8947C24.8274 36.6852 24.3624 36.8097 24.1526 37.173Z" fill="#22295F"/>
<g opacity="0.5">
<path d="M20.7487 45.3876C20.6401 45.793 20.881 46.2095 21.2858 46.318L22.2566 46.5782C22.6614 46.6866 23.0784 46.4459 23.187 46.0408C23.2956 45.6354 23.0547 45.2188 22.6499 45.1104L21.679 44.8502C21.2743 44.7418 20.8573 44.9824 20.7487 45.3876Z" fill="white"/>
<path d="M84.1198 62.3681C84.0112 62.7735 84.2521 63.19 84.6569 63.2985L85.6277 63.5586C86.0325 63.6671 86.4495 63.4264 86.5581 63.0212C86.6667 62.6159 86.4258 62.1993 86.021 62.0909L85.0501 61.8307C84.6454 61.7222 84.2284 61.9629 84.1198 62.3681Z" fill="white"/>
</g>
<path d="M19.5898 54.2052C19.5898 54.6248 19.9303 54.9649 20.3494 54.9649H22.7356C23.1547 54.9649 23.4952 54.6245 23.4952 54.205C23.4952 53.7853 23.1547 53.4453 22.7356 53.4453H20.3494C19.9303 53.4453 19.5898 53.7857 19.5898 54.2052Z" fill="#22295F"/>
<path d="M83.8145 54.2052C83.8145 54.6248 84.155 54.9649 84.574 54.9649H86.9602C87.3793 54.9649 87.7198 54.6245 87.7198 54.205C87.7198 53.7853 87.3793 53.4453 86.9602 53.4453H84.574C84.155 53.4453 83.8145 53.7857 83.8145 54.2052Z" fill="#22295F"/>
<g opacity="0.5">
<path d="M20.7487 63.0214C20.8573 63.4268 21.2742 63.6671 21.679 63.5586L22.6499 63.2985C23.0546 63.19 23.2954 62.7731 23.1869 62.3679C23.0782 61.9626 22.6614 61.7223 22.2566 61.8307L21.2857 62.0909C20.8809 62.1993 20.6401 62.6163 20.7487 63.0214Z" fill="white"/>
<path d="M84.1198 46.041C84.2284 46.4463 84.6453 46.6866 85.0501 46.5782L86.0209 46.318C86.4257 46.2096 86.6665 45.7926 86.5579 45.3875C86.4493 44.9821 86.0324 44.7418 85.6277 44.8503L84.6568 45.1104C84.252 45.2189 84.0112 45.6358 84.1198 46.041Z" fill="white"/>
</g>
<path d="M24.1526 71.239C24.3624 71.6025 24.8273 71.7267 25.1902 71.5172L27.2568 70.324C27.6197 70.1145 27.7444 69.6494 27.5346 69.2862C27.3248 68.9227 26.8599 68.7985 26.497 69.0081L24.4305 70.2012C24.0676 70.4107 23.9429 70.8758 24.1526 71.239Z" fill="#22295F"/>
<path d="M79.7757 39.1258C79.9855 39.4892 80.4504 39.6134 80.8133 39.4039L82.8798 38.2107C83.2427 38.0012 83.3674 37.5362 83.1577 37.1729C82.9478 36.8094 82.483 36.6852 82.12 36.8948L80.0535 38.0879C79.6906 38.2975 79.5659 38.7625 79.7757 39.1258Z" fill="#22295F"/>
<g opacity="0.5">
<path d="M29.5662 78.2927C29.8629 78.5894 30.3441 78.5891 30.6404 78.2928L31.3512 77.582C31.6475 77.2857 31.6476 76.8042 31.3509 76.5076C31.0542 76.2108 30.573 76.2112 30.2767 76.5075L29.566 77.2183C29.2697 77.5146 29.2696 77.9961 29.5662 78.2927Z" fill="white"/>
<path d="M75.9588 31.9021C76.2555 32.1988 76.7367 32.1985 77.033 31.9021L77.7437 31.1914C78.0401 30.895 78.0401 30.4136 77.7435 30.117C77.4468 29.8202 76.9656 29.8206 76.6693 30.1169L75.9586 30.8277C75.6622 31.124 75.6622 31.6054 75.9588 31.9021Z" fill="white"/>
</g>
<path d="M36.6222 83.7068C36.9856 83.9167 37.4503 83.7918 37.6598 83.4288L38.8529 81.3623C39.0625 80.9993 38.9379 80.5342 38.5747 80.3245C38.2112 80.1147 37.7465 80.2396 37.537 80.6025L36.3439 82.6691C36.1344 83.032 36.2589 83.4971 36.6222 83.7068Z" fill="#22295F"/>
<path d="M68.7355 28.0857C69.0989 28.2956 69.5636 28.1707 69.7731 27.8078L70.9662 25.7412C71.1757 25.3782 71.0512 24.9132 70.688 24.7034C70.3245 24.4936 69.8598 24.6185 69.6503 24.9814L68.4572 27.048C68.2477 27.4109 68.3722 27.876 68.7355 28.0857Z" fill="#22295F"/>
<g opacity="0.5">
<path d="M44.8368 87.1128C45.2422 87.2215 45.6587 86.9806 45.7672 86.5758L46.0273 85.6049C46.1358 85.2001 45.8951 84.7831 45.4899 84.6745C45.0846 84.5659 44.6681 84.8068 44.5596 85.2116L44.2994 86.1825C44.191 86.5873 44.4317 87.0043 44.8368 87.1128Z" fill="white"/>
<path d="M61.8173 23.7378C62.2226 23.8465 62.6392 23.6056 62.7476 23.2008L63.0078 22.2299C63.1162 21.8251 62.8756 21.4081 62.4704 21.2995C62.0651 21.1909 61.6485 21.4318 61.5401 21.8366L61.2799 22.8075C61.1715 23.2123 61.4121 23.6293 61.8173 23.7378Z" fill="white"/>
</g>
<path d="M63.8715 54.2106C63.8715 48.5555 59.3034 43.9922 53.6603 43.9922C48.0192 43.9922 43.4395 48.5555 43.4395 54.2106C43.4395 59.8446 48.0192 64.4237 53.6603 64.4237C59.3034 64.4237 63.8715 59.8446 63.8715 54.2106Z" fill="#DE83A2"/>
<path opacity="0.5" d="M53.657 80.2525C53.9367 80.2525 54.1634 80.0255 54.1634 79.7462V58.375H53.1504V79.7462C53.1504 80.0255 53.3773 80.2525 53.657 80.2525Z" fill="white"/>
<path d="M58.9659 54.2058C58.9659 51.2664 56.5915 48.8945 53.6583 48.8945C50.7261 48.8945 48.3457 51.2664 48.3457 54.2058C48.3457 57.1343 50.7261 59.5144 53.6583 59.5144C56.5915 59.5144 58.9659 57.1343 58.9659 54.2058Z" fill="#22295F"/>
<path d="M56.6797 54.2063C56.6797 52.532 55.3275 51.1797 53.657 51.1797C51.9852 51.1797 50.6289 52.532 50.6289 54.2063C50.6289 55.8752 51.9852 57.2301 53.657 57.2301C55.3275 57.2301 56.6797 55.8752 56.6797 54.2063Z" fill="#F4B8C9"/>
<path d="M35.279 35.8279C34.8833 36.2235 34.8838 36.8651 35.2789 37.2602L50.3485 52.3303L51.7811 50.8977L36.7115 35.8276C36.3164 35.4325 35.6745 35.4324 35.279 35.8279Z" fill="#22295F"/>
<path d="M36.6953 54.2047C36.6953 54.764 37.1489 55.2179 37.7082 55.2179H50.0989V53.1914H37.7082C37.1489 53.1914 36.6953 53.6449 36.6953 54.2047Z" fill="#22295F"/>
<path d="M54.3949 107.663C24.9194 107.663 0.939453 83.6828 0.939453 54.2068C0.939453 45.9187 2.89966 37.6308 6.60831 30.2392L7.05759 29.3435L2.90986 30.825C2.81739 30.8582 2.72177 30.8748 2.62513 30.8748C2.26675 30.8748 1.94487 30.6482 1.82428 30.3107C1.66706 29.8698 1.89765 29.3828 2.33842 29.2255L7.99328 27.2056C8.0851 27.1729 8.18111 27.1562 8.27789 27.1562C8.63653 27.1562 8.95853 27.3828 9.07926 27.72L11.0987 33.3744C11.2561 33.8153 11.0255 34.3024 10.5844 34.46C10.4922 34.493 10.3961 34.5097 10.2988 34.5097C9.94093 34.5098 9.61957 34.2832 9.49911 33.9458L8.31033 30.6189L7.89165 31.4752C4.45466 38.5068 2.63795 46.3673 2.63795 54.2068C2.63795 82.7463 25.856 105.965 54.3949 105.965C54.863 105.965 55.2439 106.346 55.2439 106.814C55.2439 107.282 54.863 107.663 54.3949 107.663Z" fill="url(#paint1_linear_1313_1860)"/>
<path d="M105.804 43.0566C105.681 43.0566 105.562 43.0307 105.45 42.9794L99.9917 40.4788C99.7854 40.3844 99.6283 40.2152 99.5493 40.0026C99.4705 39.79 99.479 39.5593 99.5735 39.3531C99.7114 39.0518 100.015 38.8573 100.346 38.8573C100.468 38.8573 100.587 38.8833 100.699 38.9349L104.346 40.605L104.102 39.7629C97.7416 17.7928 77.3019 2.44853 54.396 2.44853C43.3107 2.44853 32.7404 5.90226 23.8281 12.4363C23.6811 12.5438 23.5075 12.6007 23.3264 12.6007C23.0524 12.6007 22.8024 12.4742 22.6405 12.2534C22.3637 11.8759 22.4457 11.3436 22.8235 11.0666C32.0299 4.31739 42.9476 0.75 54.396 0.75C60.2294 0.75 65.9745 1.68717 71.4715 3.53547C76.8318 5.33786 81.8514 7.96899 86.3907 11.3556C90.923 14.7371 94.8687 18.7913 98.1184 23.4056C101.442 28.1244 103.965 33.3309 105.619 38.8806L105.925 39.905L107.533 36.394C107.671 36.0928 107.974 35.8981 108.306 35.8981C108.428 35.8981 108.546 35.9242 108.658 35.9754C109.084 36.1706 109.271 36.6756 109.076 37.1013L106.576 42.5611C106.483 42.7642 106.31 42.9254 106.1 43.0035C106.005 43.0386 105.905 43.0566 105.804 43.0566Z" fill="url(#paint2_linear_1313_1860)"/>
<defs>
<linearGradient id="paint0_linear_1313_1860" x1="55.0465" y1="67.7639" x2="55.0465" y2="-1.48446" gradientUnits="userSpaceOnUse">
<stop stop-color="#000343"/>
<stop offset="1" stop-color="#22295F"/>
</linearGradient>
<linearGradient id="paint1_linear_1313_1860" x1="43.2166" y1="109.176" x2="0.333366" y2="41.2621" gradientUnits="userSpaceOnUse">
<stop stop-color="#CE6885" stop-opacity="0"/>
<stop offset="0.164" stop-color="#CE6885" stop-opacity="0.252"/>
<stop offset="0.5" stop-color="#CE6885" stop-opacity="0.75"/>
<stop offset="1" stop-color="#C24367"/>
</linearGradient>
<linearGradient id="paint2_linear_1313_1860" x1="30.0281" y1="2.94024" x2="101.429" y2="27.7655" gradientUnits="userSpaceOnUse">
<stop stop-color="#CE6885" stop-opacity="0"/>
<stop offset="0.164" stop-color="#CE6885" stop-opacity="0.252"/>
<stop offset="0.5" stop-color="#CE6885" stop-opacity="0.75"/>
<stop offset="1" stop-color="#C24367"/>
</linearGradient>
</defs>
</svg>
