<svg width="25" height="25" viewBox="0 0 25 25" fill="none" xmlns="http://www.w3.org/2000/svg">
<g clip-path="url(#clip0_1380_4316)">
<path d="M12.5 0.78125C6.03125 0.78125 0.78125 6.03125 0.78125 12.5C0.78125 18.9688 6.03125 24.2188 12.5 24.2188C18.9688 24.2188 24.2188 18.9688 24.2188 12.5C24.2188 6.03125 18.9688 0.78125 12.5 0.78125ZM11.7188 15.625C11.7188 16.0625 11.375 16.4062 10.9375 16.4062H7.8125C7.375 16.4062 7.03125 16.0625 7.03125 15.625V12.5C7.03125 12.4688 7.04688 12.4219 7.04688 12.3906C7.0625 12.3594 7.04688 12.3281 7.0625 12.2969C7.0625 12.2656 7.07812 12.25 7.09375 12.2188C7.09375 12.2031 7.09375 12.1875 7.10938 12.1875C7.34375 11.3594 7.71875 10.6094 8.23438 9.9375C8.57812 9.5 8.96875 9.10938 9.42188 8.76562C9.75 8.5 10.25 8.54688 10.5156 8.89062C10.7812 9.23438 10.7188 9.71875 10.375 9.98438C10.0312 10.25 9.73438 10.5625 9.46875 10.8906C9.26562 11.1562 9.09375 11.4219 8.95312 11.7188H10.9375C11.375 11.7188 11.7188 12.0625 11.7188 12.5V15.625ZM17.9688 15.625C17.9688 16.0625 17.625 16.4062 17.1875 16.4062H14.0625C13.625 16.4062 13.2812 16.0625 13.2812 15.625V12.5C13.2812 12.4688 13.2969 12.4219 13.2969 12.3906C13.3125 12.3594 13.2969 12.3281 13.3125 12.2969C13.3125 12.2656 13.3281 12.25 13.3438 12.2188C13.3438 12.2031 13.3438 12.1875 13.3594 12.1875C13.5938 11.3594 13.9688 10.6094 14.4844 9.9375C14.8281 9.5 15.2188 9.10938 15.6719 8.76562C16 8.5 16.5 8.54688 16.7656 8.89062C17.0312 9.23438 16.9688 9.71875 16.625 9.98438C16.2813 10.25 15.9844 10.5625 15.7188 10.8906C15.5156 11.1562 15.3437 11.4219 15.2031 11.7188H17.1875C17.625 11.7188 17.9688 12.0625 17.9688 12.5V15.625ZM16.4062 13.2812V14.8438H14.8438V13.2812H16.4062ZM10.1562 13.2812V14.8438H8.59375V13.2812H10.1562Z" fill="url(#paint0_linear_1380_4316)"/>
</g>
<defs>
<linearGradient id="paint0_linear_1380_4316" x1="0.78125" y1="12.5" x2="24.2188" y2="12.5" gradientUnits="userSpaceOnUse">
<stop stop-color="#FF992E"/>
<stop offset="0.217" stop-color="#F88038"/>
<stop offset="0.673" stop-color="#E74352"/>
<stop offset="1" stop-color="#DA1467"/>
</linearGradient>
<clipPath id="clip0_1380_4316">
<rect width="25" height="25" fill="white"/>
</clipPath>
</defs>
</svg>
