<svg width="36" height="36" viewBox="0 0 36 36" fill="none" xmlns="http://www.w3.org/2000/svg">
<path d="M30.375 34.125H5.625C5.42609 34.125 5.23532 34.046 5.09467 33.9053C4.95402 33.7647 4.875 33.5739 4.875 33.375V4.875C4.875 4.67609 4.95402 4.48532 5.09467 4.34467C5.23532 4.20402 5.42609 4.125 5.625 4.125H30.375C30.5739 4.125 30.7647 4.20402 30.9053 4.34467C31.046 4.48532 31.125 4.67609 31.125 4.875V33.375C31.125 33.5739 31.046 33.7647 30.9053 33.9053C30.7647 34.046 30.5739 34.125 30.375 34.125Z" fill="#8C9EFF"/>
<path d="M30.375 34.5H5.625C5.00475 34.5 4.5 33.9953 4.5 33.375V4.875C4.5 4.25475 5.00475 3.75 5.625 3.75H10.9065C11.006 3.75 11.1013 3.78951 11.1717 3.85984C11.242 3.93016 11.2815 4.02554 11.2815 4.125C11.2815 4.22446 11.242 4.31984 11.1717 4.39017C11.1013 4.46049 11.006 4.5 10.9065 4.5H5.625C5.52554 4.5 5.43016 4.53951 5.35984 4.60984C5.28951 4.68016 5.25 4.77554 5.25 4.875V33.375C5.25 33.4745 5.28951 33.5698 5.35984 33.6402C5.43016 33.7105 5.52554 33.75 5.625 33.75H30.375C30.4745 33.75 30.5698 33.7105 30.6402 33.6402C30.7105 33.5698 30.75 33.4745 30.75 33.375V4.875C30.75 4.77554 30.7105 4.68016 30.6402 4.60984C30.5698 4.53951 30.4745 4.5 30.375 4.5H25.1572C25.0578 4.5 24.9624 4.46049 24.8921 4.39017C24.8218 4.31984 24.7822 4.22446 24.7822 4.125C24.7822 4.02554 24.8218 3.93016 24.8921 3.85984C24.9624 3.78951 25.0578 3.75 25.1572 3.75H30.375C30.9953 3.75 31.5 4.25475 31.5 4.875V33.375C31.5 33.9953 30.9953 34.5 30.375 34.5Z" fill="#0277BD"/>
<path d="M24.2393 31.875H7.5C7.40054 31.875 7.30516 31.8355 7.23483 31.7652C7.16451 31.6948 7.125 31.5995 7.125 31.5V6C7.125 5.90054 7.16451 5.80516 7.23483 5.73484C7.30516 5.66451 7.40054 5.625 7.5 5.625H28.5C28.5995 5.625 28.6948 5.66451 28.7652 5.73484C28.8355 5.80516 28.875 5.90054 28.875 6V27.9495C28.875 28.0045 28.8629 28.0588 28.8395 28.1085C28.8162 28.1583 28.7822 28.2023 28.74 28.2375L24.4793 31.788C24.4121 31.8445 24.327 31.8753 24.2393 31.875Z" fill="#F5F5F5"/>
<path d="M24.5062 31.5H7.5V6H10.875C10.9745 6 11.0698 6.03951 11.1402 6.10983C11.2105 6.18016 11.25 6.27554 11.25 6.375C11.25 6.47446 11.2105 6.56984 11.1402 6.64017C11.0698 6.71049 10.9745 6.75 10.875 6.75H8.25V30.75H24.2437L27.75 27.945V6.75H25.125C25.0255 6.75 24.9302 6.71049 24.8598 6.64017C24.7895 6.56984 24.75 6.47446 24.75 6.375C24.75 6.27554 24.7895 6.18016 24.8598 6.10983C24.9302 6.03951 25.0255 6 25.125 6H28.5V28.3057L24.5062 31.5Z" fill="white"/>
<path d="M24.2393 32.25H7.5C7.08675 32.25 6.75 31.9132 6.75 31.5V6C6.75 5.58675 7.08675 5.25 7.5 5.25H10.875C10.9745 5.25 11.0698 5.28951 11.1402 5.35984C11.2105 5.43016 11.25 5.52554 11.25 5.625C11.25 5.72446 11.2105 5.81984 11.1402 5.89016C11.0698 5.96049 10.9745 6 10.875 6H7.5V31.5H24.2393L28.5 27.9495V6H25.125C25.0255 6 24.9302 5.96049 24.8598 5.89016C24.7895 5.81984 24.75 5.72446 24.75 5.625C24.75 5.52554 24.7895 5.43016 24.8598 5.35984C24.9302 5.28951 25.0255 5.25 25.125 5.25H28.5C28.9132 5.25 29.25 5.58675 29.25 6V27.9495C29.25 28.1715 29.1525 28.3815 28.9815 28.5247L24.72 32.076C24.585 32.1885 24.4148 32.25 24.2393 32.25Z" fill="#0277BD"/>
<path d="M5.625 32.25C5.52554 32.25 5.43016 32.2105 5.35984 32.1402C5.28951 32.0698 5.25 31.9745 5.25 31.875V6.375C5.25 6.27554 5.28951 6.18016 5.35984 6.10983C5.43016 6.03951 5.52554 6 5.625 6C5.72446 6 5.81984 6.03951 5.89017 6.10983C5.96049 6.18016 6 6.27554 6 6.375V31.875C6 31.9745 5.96049 32.0698 5.89017 32.1402C5.81984 32.2105 5.72446 32.25 5.625 32.25Z" fill="#E8EAF6"/>
<path d="M24.375 31.5548V28.5C24.375 28.4005 24.4145 28.3052 24.4848 28.2348C24.5552 28.1645 24.6505 28.125 24.75 28.125H28.4602C28.4911 28.1249 28.5213 28.1344 28.5466 28.1521C28.5719 28.1699 28.5911 28.1949 28.6016 28.224C28.6121 28.253 28.6134 28.2846 28.6053 28.3144C28.5972 28.3442 28.58 28.3708 28.5563 28.3905L24.621 31.6703C24.5991 31.6885 24.5724 31.7001 24.5441 31.7038C24.5158 31.7074 24.4871 31.7029 24.4613 31.6908C24.4354 31.6786 24.4136 31.6594 24.3983 31.6353C24.383 31.6112 24.375 31.5833 24.375 31.5548Z" fill="#EEEEEE"/>
<path d="M24.5265 32.0805C24.3871 32.0801 24.2535 32.0246 24.1549 31.9261C24.0563 31.8276 24.0006 31.6941 24 31.5548V28.5C24 28.0867 24.3367 27.75 24.75 27.75H28.4602C28.6845 27.75 28.8787 27.8865 28.9545 28.0973C28.9918 28.1987 28.9966 28.3094 28.9681 28.4137C28.9396 28.518 28.8793 28.6108 28.7955 28.6792L24.861 31.9582C24.7672 32.0369 24.6489 32.0802 24.5265 32.0805ZM24.75 28.5V31.0747L27.8392 28.5H24.75Z" fill="#0277BD"/>
<path d="M20.1237 3.375C19.9701 2.93721 19.6845 2.55785 19.3062 2.2892C18.928 2.02054 18.4757 1.87583 18.0117 1.875C17.5479 1.87588 17.0957 2.02062 16.7176 2.28928C16.3394 2.55793 16.0539 2.93727 15.9005 3.375H12.7617C12.6623 3.375 12.5669 3.41451 12.4966 3.48483C12.4262 3.55516 12.3867 3.65054 12.3867 3.75V6.75C12.3867 6.84946 12.4262 6.94484 12.4966 7.01516C12.5669 7.08549 12.6623 7.125 12.7617 7.125H23.2617C23.3612 7.125 23.4566 7.08549 23.5269 7.01516C23.5972 6.94484 23.6367 6.84946 23.6367 6.75V3.75C23.6367 3.65054 23.5972 3.55516 23.5269 3.48483C23.4566 3.41451 23.3612 3.375 23.2617 3.375H20.1237Z" fill="#EEEEEE"/>
<path d="M23.2617 7.5H12.7617C12.3485 7.5 12.0117 7.16325 12.0117 6.75V3.75C12.0117 3.33675 12.3485 3 12.7617 3H15.65C15.8621 2.55271 16.1965 2.17454 16.6143 1.90912C17.0322 1.64371 17.5167 1.50188 18.0117 1.5C18.5069 1.50174 18.9915 1.6435 19.4095 1.90893C19.8276 2.17435 20.162 2.5526 20.3742 3H23.2617C23.675 3 24.0117 3.33675 24.0117 3.75V6.75C24.0117 7.16325 23.675 7.5 23.2617 7.5ZM12.7617 3.75V6.75H23.2617V3.75H20.1237C20.0463 3.74996 19.9707 3.72592 19.9074 3.6812C19.8442 3.63648 19.7963 3.57327 19.7705 3.50025C19.6418 3.13609 19.4038 2.82055 19.089 2.59677C18.7742 2.37298 18.3979 2.25188 18.0117 2.25C17.2257 2.25 16.5192 2.7525 16.2537 3.50025C16.2278 3.57339 16.1798 3.63669 16.1164 3.68142C16.053 3.72615 15.9773 3.75011 15.8997 3.75H12.7617Z" fill="#0277BD"/>
<path d="M13.1367 6C13.0373 6 12.9419 5.96049 12.8716 5.89016C12.8012 5.81984 12.7617 5.72446 12.7617 5.625V3.75H15.8997C15.9772 3.74996 16.0527 3.72592 16.116 3.6812C16.1792 3.63648 16.2271 3.57327 16.253 3.50025C16.3817 3.13609 16.6197 2.82055 16.9345 2.59677C17.2493 2.37298 17.6255 2.25188 18.0117 2.25C18.1112 2.25 18.2066 2.28951 18.2769 2.35984C18.3472 2.43016 18.3867 2.52554 18.3867 2.625C18.3867 2.72446 18.3472 2.81984 18.2769 2.89016C18.2066 2.96049 18.1112 3 18.0117 3C17.7803 3.00184 17.5551 3.07499 17.3668 3.20947C17.1785 3.34395 17.0363 3.53323 16.9595 3.7515C16.8005 4.19925 16.3745 4.5 15.899 4.5H13.511V5.625C13.5111 5.67421 13.5015 5.72296 13.4827 5.76845C13.4639 5.81394 13.4364 5.85529 13.4016 5.89012C13.3669 5.92495 13.3256 5.95259 13.2801 5.97144C13.2347 5.99029 13.1859 6 13.1367 6Z" fill="white"/>
<path d="M13.875 26.25H10.875C10.7755 26.25 10.6802 26.2105 10.6098 26.1402C10.5395 26.0698 10.5 25.9745 10.5 25.875V22.875C10.5 22.7755 10.5395 22.6802 10.6098 22.6098C10.6802 22.5395 10.7755 22.5 10.875 22.5H13.875C13.9745 22.5 14.0698 22.5395 14.1402 22.6098C14.2105 22.6802 14.25 22.7755 14.25 22.875V25.875C14.25 25.9745 14.2105 26.0698 14.1402 26.1402C14.0698 26.2105 13.9745 26.25 13.875 26.25ZM11.25 25.5H13.5V23.25H11.25V25.5ZM13.875 20.25H10.875C10.7755 20.25 10.6802 20.2105 10.6098 20.1402C10.5395 20.0698 10.5 19.9745 10.5 19.875V16.875C10.5 16.7755 10.5395 16.6802 10.6098 16.6098C10.6802 16.5395 10.7755 16.5 10.875 16.5H13.875C13.9745 16.5 14.0698 16.5395 14.1402 16.6098C14.2105 16.6802 14.25 16.7755 14.25 16.875V19.875C14.25 19.9745 14.2105 20.0698 14.1402 20.1402C14.0698 20.2105 13.9745 20.25 13.875 20.25ZM11.25 19.5H13.5V17.25H11.25V19.5ZM13.875 14.25H10.875C10.7755 14.25 10.6802 14.2105 10.6098 14.1402C10.5395 14.0698 10.5 13.9745 10.5 13.875V10.875C10.5 10.7755 10.5395 10.6802 10.6098 10.6098C10.6802 10.5395 10.7755 10.5 10.875 10.5H13.875C13.9745 10.5 14.0698 10.5395 14.1402 10.6098C14.2105 10.6802 14.25 10.7755 14.25 10.875V13.875C14.25 13.9745 14.2105 14.0698 14.1402 14.1402C14.0698 14.2105 13.9745 14.25 13.875 14.25ZM11.25 13.5H13.5V11.25H11.25V13.5ZM25.125 25.5H16.125C16.0255 25.5 15.9302 25.4605 15.8598 25.3902C15.7895 25.3198 15.75 25.2245 15.75 25.125C15.75 25.0255 15.7895 24.9302 15.8598 24.8598C15.9302 24.7895 16.0255 24.75 16.125 24.75H25.125C25.2245 24.75 25.3198 24.7895 25.3902 24.8598C25.4605 24.9302 25.5 25.0255 25.5 25.125C25.5 25.2245 25.4605 25.3198 25.3902 25.3902C25.3198 25.4605 25.2245 25.5 25.125 25.5ZM25.125 24H16.125C16.0255 24 15.9302 23.9605 15.8598 23.8902C15.7895 23.8198 15.75 23.7245 15.75 23.625C15.75 23.5255 15.7895 23.4302 15.8598 23.3598C15.9302 23.2895 16.0255 23.25 16.125 23.25H25.125C25.2245 23.25 25.3198 23.2895 25.3902 23.3598C25.4605 23.4302 25.5 23.5255 25.5 23.625C25.5 23.7245 25.4605 23.8198 25.3902 23.8902C25.3198 23.9605 25.2245 24 25.125 24ZM25.125 19.5H16.125C16.0255 19.5 15.9302 19.4605 15.8598 19.3902C15.7895 19.3198 15.75 19.2245 15.75 19.125C15.75 19.0255 15.7895 18.9302 15.8598 18.8598C15.9302 18.7895 16.0255 18.75 16.125 18.75H25.125C25.2245 18.75 25.3198 18.7895 25.3902 18.8598C25.4605 18.9302 25.5 19.0255 25.5 19.125C25.5 19.2245 25.4605 19.3198 25.3902 19.3902C25.3198 19.4605 25.2245 19.5 25.125 19.5ZM25.125 18H16.125C16.0255 18 15.9302 17.9605 15.8598 17.8902C15.7895 17.8198 15.75 17.7245 15.75 17.625C15.75 17.5255 15.7895 17.4302 15.8598 17.3598C15.9302 17.2895 16.0255 17.25 16.125 17.25H25.125C25.2245 17.25 25.3198 17.2895 25.3902 17.3598C25.4605 17.4302 25.5 17.5255 25.5 17.625C25.5 17.7245 25.4605 17.8198 25.3902 17.8902C25.3198 17.9605 25.2245 18 25.125 18ZM25.125 13.5H16.125C16.0255 13.5 15.9302 13.4605 15.8598 13.3902C15.7895 13.3198 15.75 13.2245 15.75 13.125C15.75 13.0255 15.7895 12.9302 15.8598 12.8598C15.9302 12.7895 16.0255 12.75 16.125 12.75H25.125C25.2245 12.75 25.3198 12.7895 25.3902 12.8598C25.4605 12.9302 25.5 13.0255 25.5 13.125C25.5 13.2245 25.4605 13.3198 25.3902 13.3902C25.3198 13.4605 25.2245 13.5 25.125 13.5ZM25.125 12H16.125C16.0255 12 15.9302 11.9605 15.8598 11.8902C15.7895 11.8198 15.75 11.7245 15.75 11.625C15.75 11.5255 15.7895 11.4302 15.8598 11.3598C15.9302 11.2895 16.0255 11.25 16.125 11.25H25.125C25.2245 11.25 25.3198 11.2895 25.3902 11.3598C25.4605 11.4302 25.5 11.5255 25.5 11.625C25.5 11.7245 25.4605 11.8198 25.3902 11.8902C25.3198 11.9605 25.2245 12 25.125 12Z" fill="#0277BD"/>
</svg>
