<svg width="21" height="21" viewBox="0 0 21 21" fill="none" xmlns="http://www.w3.org/2000/svg">
<path d="M6.93 11.786C8.16375 11.786 9.1525 12.7844 9.1525 14.0269V17.0097C9.1525 18.2435 8.16375 19.2497 6.93 19.2497H3.9725C2.7475 19.2497 1.75 18.2435 1.75 17.0097V14.0269C1.75 12.7844 2.7475 11.786 3.9725 11.786H6.93ZM17.0276 11.786C18.2526 11.786 19.2501 12.7844 19.2501 14.0269V17.0097C19.2501 18.2435 18.2526 19.2497 17.0276 19.2497H14.0701C12.8363 19.2497 11.8476 18.2435 11.8476 17.0097V14.0269C11.8476 12.7844 12.8363 11.786 14.0701 11.786H17.0276ZM6.93 1.75C8.16375 1.75 9.1525 2.75625 9.1525 3.99088V6.97375C9.1525 8.21625 8.16375 9.21375 6.93 9.21375H3.9725C2.7475 9.21375 1.75 8.21625 1.75 6.97375V3.99088C1.75 2.75625 2.7475 1.75 3.9725 1.75H6.93ZM17.0276 1.75C18.2526 1.75 19.2501 2.75625 19.2501 3.99088V6.97375C19.2501 8.21625 18.2526 9.21375 17.0276 9.21375H14.0701C12.8363 9.21375 11.8476 8.21625 11.8476 6.97375V3.99088C11.8476 2.75625 12.8363 1.75 14.0701 1.75H17.0276Z" fill="#F9A144"/>
</svg>
