<svg width="27" height="27" viewBox="0 0 27 27" fill="none" xmlns="http://www.w3.org/2000/svg">
<path d="M13.5 27C20.9558 27 27 20.9558 27 13.5C27 6.04416 20.9558 0 13.5 0C6.04416 0 0 6.04416 0 13.5C0 20.9558 6.04416 27 13.5 27Z" fill="#FAFAFA"/>
<mask id="mask0_1017_10360" style="mask-type:luminance" maskUnits="userSpaceOnUse" x="0" y="0" width="27" height="27">
<path d="M13.5 27C20.9558 27 27 20.9558 27 13.5C27 6.04416 20.9558 0 13.5 0C6.04416 0 0 6.04416 0 13.5C0 20.9558 6.04416 27 13.5 27Z" fill="white"/>
</mask>
<g mask="url(#mask0_1017_10360)">
<path fill-rule="evenodd" clip-rule="evenodd" d="M23.7301 7.59238C23.9165 7.91523 23.8059 8.32805 23.483 8.51445L15.2138 13.2887C15.0777 13.3673 14.9251 13.4131 14.7682 13.4225L13.5002 13.4986L14.2001 12.4385C14.2867 12.3074 14.4027 12.1981 14.5388 12.1196L22.808 7.34531C23.1309 7.15892 23.5437 7.26953 23.7301 7.59238Z" fill="black"/>
</g>
<mask id="mask1_1017_10360" style="mask-type:luminance" maskUnits="userSpaceOnUse" x="0" y="0" width="27" height="27">
<path d="M13.5 27C20.9558 27 27 20.9558 27 13.5C27 6.04416 20.9558 0 13.5 0C6.04416 0 0 6.04416 0 13.5C0 20.9558 6.04416 27 13.5 27Z" fill="white"/>
</mask>
<g mask="url(#mask1_1017_10360)">
<path fill-rule="evenodd" clip-rule="evenodd" d="M6.77695 9.61856C6.96335 9.29571 7.37617 9.18509 7.69902 9.37149L12.4608 12.1207C12.597 12.1993 12.7129 12.3085 12.7995 12.4397L13.4995 13.4998L12.2314 13.4237C12.0745 13.4143 11.922 13.3685 11.7858 13.2899L7.02402 10.5406C6.70117 10.3542 6.59056 9.94141 6.77695 9.61856Z" fill="black"/>
</g>
<mask id="mask2_1017_10360" style="mask-type:luminance" maskUnits="userSpaceOnUse" x="0" y="0" width="27" height="27">
<path d="M13.5 27C20.9558 27 27 20.9558 27 13.5C27 6.04416 20.9558 0 13.5 0C6.04416 0 0 6.04416 0 13.5C0 20.9558 6.04416 27 13.5 27Z" fill="white"/>
</mask>
<g mask="url(#mask2_1017_10360)">
<path d="M13.8371 11.4766H13.1621V24.9766H13.8371V11.4766Z" fill="#ED9702"/>
</g>
<mask id="mask3_1017_10360" style="mask-type:luminance" maskUnits="userSpaceOnUse" x="0" y="0" width="27" height="27">
<path d="M13.5 27C20.9558 27 27 20.9558 27 13.5C27 6.04416 20.9558 0 13.5 0C6.04416 0 0 6.04416 0 13.5C0 20.9558 6.04416 27 13.5 27Z" fill="white"/>
</mask>
<g mask="url(#mask3_1017_10360)">
<path d="M13.4992 14.1742C13.872 14.1742 14.1742 13.872 14.1742 13.4992C14.1742 13.1264 13.872 12.8242 13.4992 12.8242C13.1264 12.8242 12.8242 13.1264 12.8242 13.4992C12.8242 13.872 13.1264 14.1742 13.4992 14.1742Z" fill="#ED9702"/>
</g>
</svg>
