<svg width="14" height="24" viewBox="0 0 14 24" fill="none" xmlns="http://www.w3.org/2000/svg">
<g id="Layer 2">
<path id="Vector" d="M6.35547 0.525357V2.54331C6.35547 2.83356 6.58042 3.06885 6.8579 3.06885H7.13738C7.41486 3.06885 7.63981 2.83356 7.63981 2.54331V0.525357C7.63981 0.235109 7.41486 -0.000185966 7.13738 -0.000185966H6.8579C6.58042 -0.000185966 6.35547 0.235109 6.35547 0.525357Z" fill="#1B3D6F"/>
<path id="Vector_2" d="M6.93986 24.0003C6.48434 24.0003 6.03905 23.859 5.6603 23.5943C5.28155 23.3296 4.98636 22.9533 4.81204 22.5131C4.63772 22.0729 4.59211 21.5885 4.68097 21.1212C4.76984 20.6539 4.98919 20.2246 5.31129 19.8877C5.63339 19.5508 6.04377 19.3214 6.49054 19.2284C6.93731 19.1355 7.40039 19.1832 7.82123 19.3655C8.24208 19.5478 8.60178 19.8566 8.85485 20.2528C9.10792 20.649 9.243 21.1147 9.243 21.5912C9.24239 22.2299 8.99954 22.8423 8.56775 23.294C8.13596 23.7456 7.5505 23.9996 6.93986 24.0003ZM6.93986 20.417C6.71762 20.4169 6.50034 20.4857 6.31549 20.6147C6.13064 20.7438 5.98655 20.9273 5.90143 21.142C5.81631 21.3567 5.794 21.593 5.83732 21.821C5.88064 22.049 5.98764 22.2585 6.14478 22.4228C6.30193 22.5872 6.50216 22.6991 6.72013 22.7444C6.9381 22.7898 7.16403 22.7664 7.36932 22.6774C7.57461 22.5884 7.75004 22.4376 7.87341 22.2443C7.99678 22.0509 8.06255 21.8237 8.0624 21.5912C8.06199 21.2799 7.94359 20.9815 7.73316 20.7614C7.52273 20.5413 7.23745 20.4175 6.93986 20.417Z" fill="#1B3D6F"/>
<path id="Vector_3" d="M14 16.7941H0V9.3725C0 7.50435 0.733909 5.74472 2.06625 4.4175C3.40214 3.10404 5.16658 2.3728 7 2.3728C8.83342 2.3728 10.5979 3.10404 11.9338 4.4175C13.2661 5.74472 14 7.50435 14 9.3725V16.7941ZM1.17983 15.5632H12.8202V9.3725C12.8202 6.19333 10.2097 3.60692 7 3.60692C3.79031 3.60692 1.17983 6.19333 1.17983 9.3725V15.5632Z" fill="#1B3D6F"/>
</g>
</svg>
