<svg width="18" height="18" viewBox="0 0 18 18" fill="none" xmlns="http://www.w3.org/2000/svg">
<path d="M11.3513 3.12203C11.3508 2.99111 11.3584 2.86029 11.3741 2.73031H1.94649C1.53113 2.73158 1.13315 2.89715 0.839448 3.19085C0.545744 3.48455 0.38018 3.88253 0.378906 4.29789V16.0531C0.38018 16.4684 0.545744 16.8664 0.839448 17.1601C1.13315 17.4538 1.53113 17.6194 1.94649 17.6207H13.7017C14.117 17.6194 14.515 17.4538 14.8087 17.1601C15.1024 16.8664 15.268 16.4684 15.2693 16.0531V6.62548C15.1393 6.64134 15.0085 6.64917 14.8775 6.64893C13.9425 6.64765 13.0462 6.27566 12.385 5.61451C11.7239 4.95337 11.3526 4.05703 11.3513 3.12203ZM14.8768 0.379272C14.2178 0.380427 13.5812 0.618663 13.0833 1.05045C12.5854 1.48224 12.2595 2.07875 12.1651 2.731C12.1426 2.8601 12.132 2.99099 12.1334 3.12203C12.1341 3.84941 12.4234 4.5468 12.9377 5.06113C13.4521 5.57547 14.1495 5.86475 14.8768 5.86548C15.0081 5.86693 15.1392 5.85631 15.2686 5.83376C15.9543 5.7345 16.5769 5.3793 17.0114 4.83959C17.4458 4.29987 17.6597 3.61568 17.6102 2.92462C17.5607 2.23356 17.2513 1.58689 16.7443 1.11467C16.2373 0.642444 15.5704 0.379698 14.8775 0.379272H14.8768Z" fill="black"/>
</svg>
