<svg width="28" height="28" viewBox="0 0 28 28" fill="none" xmlns="http://www.w3.org/2000/svg">
<path d="M4.08311 16.2313V15.9927C4.12384 15.2288 4.36494 14.4886 4.78248 13.8458C5.4787 13.0658 5.95733 12.1182 6.17078 11.0974C6.22297 10.3195 6.17078 9.52093 6.22297 8.7327C6.59875 4.94711 10.3461 2.3335 13.9369 2.3335H14.0413C17.6947 2.3335 21.3481 4.94711 21.7448 8.7327C21.8179 9.51056 21.7448 10.3195 21.8074 11.0974C22.0157 12.12 22.495 13.0688 23.1957 13.8458C23.6314 14.4813 23.8808 15.2246 23.9161 15.9927V16.2313C23.9224 17.266 23.5516 18.2681 22.8721 19.0523C22.0005 19.9821 20.8155 20.5615 19.5423 20.6806C15.8243 21.1577 12.06 21.1577 8.34196 20.6806C7.08353 20.5518 5.91506 19.9731 5.05387 19.0523C4.39571 18.2606 4.05058 17.2576 4.08311 16.2313Z" fill="#1B3D6F"/>
<path opacity="0.4" d="M15.3565 22.2779C14.6154 22.2261 14.01 22.2779 13.4046 22.2779C12.8041 22.2676 12.2047 22.3303 11.6196 22.4646C11.1186 22.5787 10.5758 22.8484 10.5758 23.4188C10.6283 23.9701 10.9272 24.4688 11.39 24.7775C12.2813 25.4582 13.4047 25.767 14.5215 25.6383C15.607 25.5582 16.5992 24.9987 17.225 24.1137C17.5709 23.6653 17.492 23.0244 17.0475 22.672C16.5213 22.4148 15.943 22.28 15.3565 22.2779Z" fill="#EFB814"/>
</svg>
