<svg width="8" height="16" viewBox="0 0 8 16" fill="none" xmlns="http://www.w3.org/2000/svg">
<path d="M3.09391 7.96642L7.62758 2.59048C7.86611 2.30594 8 1.92104 8 1.51984C8 1.11864 7.86611 0.733742 7.62758 0.449208C7.50852 0.306869 7.36688 0.193892 7.21081 0.116793C7.05475 0.0396939 6.88735 0 6.71829 0C6.54922 0 6.38182 0.0396939 6.22576 0.116793C6.06969 0.193892 5.92805 0.306869 5.80899 0.449208L0.378828 6.8882C0.258791 7.02937 0.163514 7.19733 0.0984949 7.38239C0.0334755 7.56745 0 7.76595 0 7.96642C0 8.1669 0.0334755 8.36539 0.0984949 8.55045C0.163514 8.73551 0.258791 8.90347 0.378828 9.04465L5.80899 15.5596C5.92866 15.7003 6.07058 15.8117 6.22662 15.8872C6.38266 15.9628 6.54974 16.0011 6.71829 16C6.88684 16.0011 7.05392 15.9628 7.20995 15.8872C7.36599 15.8117 7.50791 15.7003 7.62758 15.5596C7.86611 15.275 8 14.8901 8 14.4889C8 14.0877 7.86611 13.7028 7.62758 13.4183L3.09391 7.96642Z" fill="#DFBA41"/>
</svg>
