<svg width="39" height="39" viewBox="0 0 39 39" fill="none" xmlns="http://www.w3.org/2000/svg">
<g clip-path="url(#clip0_502_740)">
<path d="M28.44 6.69H19.65V15H28.44V6.69Z" fill="#BF1F2B"/>
<path d="M28.47 5.37H19.62V5.88H28.47V5.37Z" fill="#E8E8E8"/>
<path d="M19.11 25.68C19.11 26.79 19.23 27.72 18.6 27.72C17.97 27.72 16.8 26.82 16.8 25.68C16.8 24.57 17.31 23.67 17.97 23.67C18.57 23.67 19.11 24.57 19.11 25.68Z" fill="#ED9F74"/>
<path d="M25.11 36.54V37.95C25.11 38.1 25.23 38.22 25.38 38.22H28.23C28.38 38.22 28.5 38.1 28.5 37.95V36.54H25.11ZM22.98 36.54V37.95C22.98 38.1 22.86 38.22 22.71 38.22H19.86C19.71 38.22 19.59 38.1 19.59 37.95V36.54H22.98Z" fill="#602C22"/>
<path d="M29.31 20.46L29.4 37.08C25.92 38.16 22.35 38.13 18.72 37.08L19.02 24.87L16.17 24.51L17.13 16.89C17.28 15.69 18.03 14.61 19.14 14.1C19.62 13.86 20.16 13.74 20.7 13.74H27.39C27.93 13.74 28.47 13.86 28.95 14.1C30.06 14.64 30.81 15.69 30.96 16.89L31.14 18.33L29.31 20.46Z" fill="#E8E8E8"/>
<path d="M26.22 9.84003V12.39C26.22 13.59 25.26 14.55 24.06 14.55C22.86 14.55 21.9 13.59 21.9 12.39V9.84003H26.22Z" fill="#ED9F74"/>
<path d="M18.54 24.81L19.02 17.94V24.87L18.54 24.81Z" fill="#D3D1CD"/>
<path d="M23.82 14.64C23.82 14.64 24.18 13.47 23.82 13.11C23.4 12.69 21.42 12.66 21.42 12.66L21.06 13.74L23.82 14.64ZM24.3 14.64C24.3 14.64 23.94 13.47 24.3 13.11C24.72 12.69 26.7 12.66 26.7 12.66L27.06 13.74L24.3 14.64Z" fill="#E8E8E8"/>
<path d="M24.3 14.46H23.79V23.43H24.3V14.46Z" fill="#D3D1CD"/>
<path d="M29.31 20.46C29.49 21.33 29.67 22.2 30.15 22.95C30.6 23.7 31.41 24.3 32.31 24.24L32.7 22.17C32.31 21.81 31.98 21.39 31.74 20.91C31.38 20.1 31.26 19.23 31.2 18.33L29.31 20.46Z" fill="#E8E8E8"/>
<path d="M32.7147 23.9362C33.46 23.5744 33.8705 22.8824 33.6318 22.3905C33.393 21.8986 32.5953 21.7932 31.85 22.1549C31.1048 22.5167 30.6942 23.2087 30.933 23.7006C31.1717 24.1925 31.9694 24.2979 32.7147 23.9362Z" fill="#D3D1CD"/>
<path d="M32.7118 23.9269C33.2931 23.6447 33.6119 23.1018 33.4237 22.7143C33.2356 22.3267 32.6119 22.2413 32.0306 22.5235C31.4493 22.8057 31.1305 23.3486 31.3187 23.7362C31.5068 24.1237 32.1305 24.2091 32.7118 23.9269Z" fill="#C1BFBD"/>
<path d="M35.178 18.0675L31.7857 23.5887L32.0669 23.7614L35.4591 18.2403L35.178 18.0675Z" fill="#CC9933"/>
<path d="M36.3 20.34C36.27 20.37 36.24 20.4 36.21 20.37C36.18 20.34 36.15 20.31 36.18 20.28C36.21 20.25 36.24 20.22 36.27 20.25C36.3 20.28 36.33 20.31 36.3 20.34ZM36.33 19.98C36.33 20.01 36.3 20.01 36.3 20.01C36.27 20.01 36.27 19.98 36.27 19.98C36.27 19.95 36.3 19.95 36.3 19.95C36.33 19.92 36.36 19.95 36.33 19.98ZM36.21 20.64C36.21 20.67 36.18 20.67 36.18 20.67C36.15 20.67 36.15 20.64 36.15 20.64C36.15 20.61 36.18 20.61 36.18 20.61C36.21 20.61 36.21 20.61 36.21 20.64Z" fill="#4C5AA5"/>
<path d="M36.24 20.19V20.25L36.18 20.19V20.01L36.24 20.19Z" fill="#4C5AA5"/>
<path d="M36.24 20.4V20.34L36.3 20.4V20.58L36.24 20.4Z" fill="#4C5AA5"/>
<path d="M37.32 22.5C36.75 22.14 36.15 21.78 35.55 21.42C34.95 21.06 34.38 20.7 33.78 20.34L35.16 18.09L38.67 20.25C38.25 21 37.77 21.75 37.32 22.5Z" fill="#006C35"/>
<path d="M36.03 19.92L36 19.95C36.03 19.95 36.06 19.95 36.09 19.95C36.12 19.95 36.15 19.92 36.12 19.89V19.86C36.12 19.83 36.12 19.8 36.15 19.8H36.18C36.18 19.83 36.18 19.86 36.18 19.86C36.18 19.89 36.18 19.89 36.18 19.92C36.18 19.95 36.15 19.95 36.15 19.98C36.12 20.01 36.06 20.01 36.03 20.01H36V20.04C36 20.04 36.03 20.07 36.06 20.07C36.09 20.07 36.15 20.07 36.18 20.04C36.21 20.04 36.21 20.01 36.24 19.98C36.24 19.95 36.27 19.92 36.27 19.89C36.27 19.86 36.27 19.86 36.27 19.83C36.27 19.8 36.3 19.8 36.3 19.8V19.83C36.3 19.89 36.3 19.92 36.27 19.98H36.3C36.33 19.98 36.39 19.98 36.42 20.01C36.42 20.01 36.42 20.01 36.45 20.01C36.45 20.01 36.45 19.98 36.48 19.98C36.51 19.95 36.54 19.95 36.57 19.98C36.6 20.01 36.6 20.04 36.57 20.07C36.54 20.1 36.51 20.1 36.51 20.1C36.48 20.1 36.45 20.1 36.45 20.07C36.45 20.07 36.45 20.07 36.42 20.07C36.48 20.1 36.51 20.13 36.57 20.16C36.54 20.16 36.54 20.19 36.51 20.19C36.51 20.19 36.51 20.19 36.48 20.19C36.42 20.19 36.39 20.16 36.33 20.13H36.3C36.27 20.13 36.27 20.16 36.27 20.16C36.27 20.16 36.27 20.19 36.3 20.19C36.3 20.19 36.3 20.19 36.3 20.22C36.3 20.22 36.3 20.22 36.27 20.25C36.24 20.22 36.21 20.19 36.18 20.16C36.18 20.13 36.15 20.13 36.15 20.1H36.12C36.06 20.1 36.03 20.13 35.97 20.1C35.94 20.1 35.91 20.07 35.91 20.04C35.91 20.01 35.91 20.01 35.91 19.98C35.88 19.98 35.82 19.95 35.79 19.95H35.76C35.79 19.95 35.82 19.95 35.82 19.95C35.85 19.95 35.91 19.95 35.94 19.95C35.94 19.95 35.94 19.95 35.97 19.95C35.97 19.92 35.97 19.92 36.03 19.92C36 19.92 36 19.92 36.03 19.92ZM36.24 20.04H36.21C36.21 20.07 36.21 20.1 36.21 20.13V20.16C36.21 20.16 36.21 20.16 36.21 20.13L36.24 20.1H36.27C36.27 20.1 36.27 20.1 36.3 20.1C36.3 20.1 36.27 20.07 36.24 20.04ZM36.48 20.04C36.48 20.01 36.48 20.01 36.48 20.04C36.45 20.01 36.45 20.01 36.48 20.04C36.45 20.04 36.45 20.04 36.48 20.04Z" fill="#FCFDFC"/>
<path d="M37.14 20.37C37.14 20.37 37.14 20.34 37.17 20.34C37.2 20.28 37.2 20.25 37.23 20.19C37.23 20.16 37.26 20.16 37.26 20.16C37.26 20.16 37.29 20.16 37.29 20.19C37.29 20.22 37.29 20.25 37.29 20.28C37.29 20.28 37.29 20.28 37.26 20.28V20.31C37.23 20.37 37.23 20.4 37.2 20.46C37.2 20.46 37.2 20.46 37.2 20.49C37.2 20.52 37.2 20.55 37.2 20.61V20.64C37.2 20.67 37.17 20.67 37.17 20.67C37.17 20.64 37.17 20.61 37.17 20.58L37.14 20.61L37.11 20.64H37.08C37.11 20.61 37.14 20.55 37.17 20.49C37.17 20.46 37.17 20.46 37.17 20.43C37.17 20.4 37.17 20.4 37.17 20.37V20.4C37.14 20.46 37.11 20.49 37.08 20.55C37.08 20.58 37.05 20.58 37.05 20.58C37.02 20.58 37.02 20.58 36.99 20.58C36.99 20.58 36.99 20.58 36.96 20.58C36.96 20.55 36.93 20.55 36.93 20.52C36.93 20.49 36.9 20.49 36.9 20.49L36.87 20.52L36.84 20.55C36.81 20.58 36.78 20.55 36.78 20.52C36.75 20.46 36.78 20.4 36.81 20.37C36.81 20.37 36.81 20.37 36.84 20.37L36.81 20.4C36.81 20.43 36.81 20.43 36.81 20.46C36.81 20.49 36.84 20.49 36.84 20.49C36.87 20.49 36.87 20.46 36.9 20.46L36.93 20.43C36.96 20.43 36.96 20.43 36.96 20.46C36.96 20.49 36.96 20.49 36.96 20.52C36.96 20.55 36.99 20.55 36.99 20.55C37.02 20.52 37.02 20.52 37.05 20.49C37.08 20.43 37.11 20.37 37.14 20.31C37.14 20.28 37.14 20.22 37.11 20.19C37.11 20.16 37.11 20.13 37.14 20.13C37.14 20.13 37.14 20.1 37.17 20.1C37.17 20.13 37.2 20.16 37.2 20.19C37.2 20.19 37.2 20.19 37.2 20.16C37.2 20.16 37.2 20.13 37.23 20.13H37.26C37.26 20.16 37.26 20.16 37.26 20.19V20.22C37.26 20.25 37.23 20.25 37.23 20.28C37.23 20.28 37.23 20.28 37.23 20.31C37.14 20.31 37.14 20.34 37.14 20.37ZM37.14 20.16C37.11 20.16 37.11 20.16 37.14 20.16C37.11 20.16 37.11 20.19 37.14 20.19C37.11 20.16 37.14 20.16 37.14 20.16Z" fill="#FBFDFC"/>
<path d="M36.33 21.06C36.27 21.03 36.21 21 36.15 20.94C36.06 20.88 35.94 20.82 35.85 20.76C35.73 20.67 35.58 20.61 35.46 20.52C35.43 20.49 35.4 20.49 35.37 20.43C35.34 20.4 35.34 20.37 35.34 20.34C35.67 20.55 36.03 20.79 36.39 21V20.97H36.42C36.42 20.97 36.42 20.97 36.42 21C36.42 21 36.42 21 36.45 21C36.48 21.03 36.51 21.03 36.54 21.06C36.54 21.06 36.57 21.06 36.57 21.09C36.6 21.09 36.6 21.12 36.6 21.15C36.6 21.18 36.6 21.18 36.57 21.18H36.54C36.51 21.18 36.51 21.18 36.51 21.15C36.48 21.12 36.42 21.09 36.39 21.09C36.39 21.09 36.36 21.09 36.36 21.06C36.33 21.09 36.33 21.06 36.33 21.06ZM36.42 21.12C36.39 21.09 36.39 21.09 36.36 21.09C36.39 21.12 36.39 21.12 36.42 21.12V21.15C36.42 21.15 36.45 21.15 36.45 21.18C36.45 21.18 36.45 21.18 36.48 21.18C36.48 21.15 36.45 21.12 36.42 21.12ZM36.12 19.77C36.12 19.8 36.09 19.8 36.06 19.83H36.03C36.03 19.83 36 19.83 36 19.8C36 19.8 36 19.8 35.97 19.8C35.94 19.8 35.94 19.8 35.91 19.8C35.91 19.8 35.91 19.8 35.88 19.77V19.8C35.88 19.83 35.85 19.83 35.85 19.86C35.82 19.89 35.79 19.92 35.73 19.92C35.67 19.92 35.61 19.92 35.55 19.86C35.52 19.86 35.52 19.83 35.52 19.83C35.49 19.8 35.49 19.77 35.52 19.74C35.52 19.71 35.55 19.71 35.55 19.68C35.55 19.68 35.55 19.68 35.58 19.68V19.71C35.58 19.71 35.58 19.74 35.55 19.74C35.55 19.77 35.55 19.77 35.55 19.8C35.58 19.83 35.61 19.86 35.64 19.86C35.7 19.89 35.79 19.86 35.82 19.8C35.82 19.8 35.82 19.77 35.85 19.77C35.85 19.77 35.85 19.77 35.82 19.8C35.79 19.83 35.73 19.86 35.7 19.86C35.67 19.86 35.61 19.86 35.61 19.8C35.58 19.77 35.58 19.74 35.61 19.71C35.61 19.68 35.64 19.68 35.67 19.65V19.68V19.71C35.67 19.74 35.67 19.77 35.7 19.77C35.73 19.8 35.79 19.8 35.82 19.77C35.82 19.77 35.85 19.77 35.85 19.74C35.85 19.74 35.85 19.74 35.82 19.74C35.79 19.74 35.79 19.74 35.76 19.71V19.68C35.76 19.65 35.79 19.65 35.79 19.65C35.82 19.62 35.85 19.62 35.88 19.65C35.88 19.65 35.88 19.65 35.88 19.68V19.71C35.88 19.71 35.88 19.71 35.91 19.71C35.94 19.65 35.97 19.56 36 19.5C36 19.47 36.03 19.47 36.03 19.47C36.03 19.47 36.06 19.47 36.06 19.5V19.53C36.06 19.56 36.06 19.56 36.06 19.59C36.03 19.65 36.03 19.68 36 19.74C36.03 19.74 36.03 19.74 36 19.77C36 19.77 36 19.77 36 19.8H36.03C36.03 19.8 36.03 19.8 36.06 19.8C36.09 19.8 36.09 19.8 36.09 19.83C36.09 19.77 36.12 19.77 36.12 19.77ZM35.82 19.68C35.82 19.71 35.85 19.71 35.82 19.68C35.85 19.68 35.85 19.68 35.82 19.68Z" fill="#FCFDFC"/>
<path d="M35.97 19.5C35.97 19.53 35.97 19.56 35.94 19.56C35.94 19.56 35.94 19.56 35.94 19.59C35.94 19.59 35.94 19.59 35.91 19.62C35.88 19.62 35.85 19.62 35.82 19.62C35.82 19.62 35.82 19.62 35.82 19.59V19.56C35.82 19.56 35.82 19.56 35.79 19.56L35.76 19.59C35.73 19.62 35.73 19.65 35.7 19.68C35.7 19.68 35.7 19.68 35.67 19.68C35.67 19.68 35.67 19.68 35.64 19.68C35.67 19.65 35.67 19.59 35.7 19.56V19.53V19.5C35.7 19.47 35.73 19.44 35.73 19.44C35.73 19.44 35.73 19.44 35.7 19.44C35.7 19.44 35.67 19.47 35.67 19.5C35.64 19.53 35.61 19.5 35.61 19.47C35.61 19.44 35.61 19.44 35.61 19.41C35.61 19.38 35.64 19.35 35.67 19.32V19.35C35.67 19.38 35.67 19.38 35.64 19.41V19.44H35.67L35.7 19.41C35.7 19.41 35.73 19.38 35.76 19.38H35.79V19.41C35.79 19.44 35.76 19.47 35.76 19.47V19.5C35.76 19.5 35.76 19.47 35.79 19.47C35.79 19.44 35.82 19.41 35.82 19.38C35.82 19.35 35.85 19.35 35.85 19.32C35.85 19.32 35.85 19.32 35.88 19.32C35.88 19.35 35.88 19.35 35.88 19.38C35.88 19.41 35.85 19.44 35.85 19.47C35.85 19.44 35.85 19.44 35.88 19.41C35.88 19.41 35.88 19.41 35.91 19.41C35.91 19.41 35.91 19.41 35.91 19.44C35.91 19.47 35.91 19.5 35.88 19.53C35.88 19.53 35.88 19.53 35.88 19.56V19.59H35.91V19.56C35.91 19.53 35.91 19.5 35.91 19.5C35.91 19.5 35.91 19.5 35.94 19.47H35.97C36 19.47 36 19.47 35.97 19.5C36 19.5 36 19.5 35.97 19.5Z" fill="#FBFCFC"/>
<path d="M36.63 20.13C36.63 20.16 36.6 20.19 36.6 20.19C36.57 20.22 36.57 20.25 36.54 20.28C36.51 20.31 36.51 20.31 36.48 20.31C36.54 20.22 36.57 20.16 36.63 20.07C36.63 20.04 36.66 20.04 36.66 20.01C36.66 19.95 36.66 19.89 36.63 19.83C36.63 19.8 36.63 19.77 36.66 19.77C36.66 19.77 36.66 19.77 36.69 19.77C36.69 19.77 36.69 19.77 36.69 19.8C36.69 19.83 36.72 19.86 36.72 19.89C36.72 19.89 36.72 19.86 36.75 19.86C36.75 19.86 36.75 19.86 36.78 19.86C36.78 19.89 36.78 19.92 36.78 19.95V19.98C36.78 20.01 36.75 20.01 36.75 20.04C36.75 20.04 36.75 20.04 36.75 20.07C36.75 20.13 36.75 20.22 36.75 20.28C36.75 20.31 36.75 20.31 36.72 20.34C36.72 20.34 36.72 20.37 36.69 20.37C36.63 20.28 36.63 20.22 36.63 20.13ZM36.66 19.92C36.66 19.89 36.66 19.89 36.66 19.89C36.66 19.92 36.66 19.92 36.66 19.92Z" fill="#FCFDFC"/>
<path d="M36.36 19.74C36.36 19.74 36.36 19.77 36.33 19.77C36.33 19.8 36.33 19.8 36.33 19.83C36.33 19.83 36.36 19.86 36.36 19.83C36.36 19.83 36.39 19.83 36.39 19.8C36.39 19.77 36.42 19.77 36.42 19.74C36.42 19.71 36.45 19.68 36.48 19.68C36.48 19.71 36.48 19.71 36.45 19.74C36.45 19.77 36.42 19.8 36.42 19.83V19.86C36.42 19.86 36.42 19.89 36.45 19.89H36.48C36.48 19.89 36.48 19.86 36.51 19.83V19.8C36.51 19.77 36.51 19.77 36.54 19.74C36.57 19.74 36.57 19.74 36.57 19.77C36.57 19.8 36.57 19.8 36.57 19.83C36.57 19.86 36.57 19.86 36.54 19.83C36.54 19.86 36.54 19.86 36.51 19.89C36.51 19.92 36.51 19.92 36.54 19.92L36.48 19.95C36.48 19.95 36.48 19.95 36.45 19.95C36.42 19.95 36.42 19.95 36.39 19.95C36.36 19.95 36.36 19.92 36.36 19.92C36.36 19.89 36.36 19.89 36.33 19.89H36.3C36.27 19.89 36.24 19.89 36.24 19.86C36.21 19.83 36.24 19.83 36.24 19.8C36.24 19.8 36.24 19.77 36.27 19.77C36.27 19.77 36.27 19.77 36.24 19.77L36.21 19.8C36.18 19.83 36.15 19.8 36.15 19.77C36.15 19.74 36.15 19.71 36.15 19.68C36.15 19.65 36.18 19.62 36.21 19.62C36.21 19.65 36.21 19.65 36.18 19.68V19.71C36.18 19.71 36.18 19.71 36.21 19.71L36.24 19.68C36.27 19.65 36.3 19.65 36.3 19.65C36.3 19.65 36.3 19.65 36.33 19.65C36.36 19.65 36.36 19.65 36.36 19.68C36.39 19.71 36.39 19.71 36.36 19.74ZM37.23 20.61C37.2 20.64 37.2 20.67 37.17 20.7C37.14 20.76 37.08 20.76 37.02 20.73C37.02 20.73 36.99 20.73 36.99 20.7H37.02H37.05C37.08 20.7 37.11 20.7 37.14 20.67L37.17 20.64C37.23 20.55 37.29 20.43 37.32 20.34C37.32 20.31 37.35 20.28 37.35 20.28C37.35 20.25 37.38 20.25 37.38 20.25C37.38 20.28 37.38 20.31 37.38 20.31C37.38 20.31 37.38 20.31 37.38 20.34C37.38 20.34 37.38 20.34 37.35 20.34C37.32 20.43 37.26 20.52 37.23 20.61ZM36.48 20.43L36.45 20.4C36.51 20.4 36.57 20.4 36.63 20.4L36.66 20.37C36.69 20.28 36.75 20.19 36.78 20.1C36.78 20.07 36.81 20.04 36.81 20.01C36.81 19.98 36.84 19.95 36.87 19.95C36.87 19.98 36.87 20.01 36.87 20.04C36.87 20.07 36.87 20.07 36.84 20.04C36.84 20.04 36.84 20.04 36.84 20.07C36.81 20.16 36.75 20.25 36.72 20.34C36.69 20.4 36.63 20.43 36.6 20.43C36.54 20.46 36.51 20.46 36.48 20.43ZM36.75 20.43C36.78 20.37 36.84 20.28 36.84 20.19C36.87 20.13 36.87 20.1 36.9 20.04C36.9 20.01 36.93 19.98 36.96 19.98C36.96 20.01 36.96 20.04 36.96 20.07H36.93C36.9 20.13 36.9 20.16 36.87 20.22C36.84 20.28 36.81 20.34 36.78 20.37C36.78 20.4 36.75 20.4 36.72 20.43C36.72 20.46 36.72 20.46 36.75 20.43C36.72 20.46 36.72 20.43 36.75 20.43Z" fill="#FBFCFC"/>
<path d="M36.06 19.62C36.09 19.59 36.15 19.59 36.18 19.59C36.18 19.59 36.21 19.59 36.18 19.56V19.53C36.18 19.53 36.21 19.5 36.21 19.53C36.24 19.53 36.24 19.56 36.24 19.56C36.24 19.56 36.24 19.56 36.21 19.56C36.18 19.56 36.15 19.56 36.12 19.59C36.12 19.65 36.09 19.65 36.06 19.62ZM36.21 19.56C36.21 19.59 36.24 19.59 36.21 19.56C36.24 19.56 36.24 19.59 36.21 19.56ZM37.05 20.25C37.02 20.28 37.02 20.28 37.05 20.25C37.02 20.25 37.02 20.25 37.02 20.25L36.99 20.28C36.96 20.25 36.96 20.22 36.96 20.19C36.96 20.16 36.99 20.16 36.99 20.16C36.99 20.16 37.02 20.16 36.99 20.19C36.99 20.19 36.99 20.16 37.02 20.16C37.05 20.22 37.05 20.22 37.05 20.25Z" fill="#FAFCFB"/>
<path d="M35.55 19.59C35.55 19.56 35.55 19.56 35.55 19.59C35.61 19.56 35.67 19.56 35.7 19.56C35.7 19.56 35.7 19.56 35.73 19.56V19.59C35.67 19.59 35.61 19.59 35.55 19.59Z" fill="#FAFBFB"/>
<path d="M35.52 19.65L35.49 19.68L35.46 19.71C35.46 19.71 35.46 19.71 35.49 19.71C35.49 19.71 35.49 19.71 35.49 19.74C35.49 19.74 35.49 19.77 35.46 19.77H35.43L35.4 19.74V19.71C35.43 19.68 35.46 19.65 35.52 19.65Z" fill="#F9FBFA"/>
<path d="M37.02 20.37C36.96 20.4 36.93 20.4 36.9 20.4C36.9 20.4 36.9 20.37 36.93 20.37C36.93 20.34 36.96 20.34 37.02 20.37C37.02 20.34 37.02 20.34 37.02 20.37Z" fill="#FAFBFB"/>
<path d="M36.36 20.31C36.36 20.28 36.36 20.28 36.36 20.31C36.36 20.28 36.36 20.28 36.36 20.28H36.39H36.42C36.42 20.28 36.42 20.28 36.42 20.31C36.42 20.34 36.39 20.31 36.36 20.31Z" fill="#F9FBFA"/>
<path d="M36.96 20.67C36.96 20.7 36.99 20.7 36.96 20.67C36.93 20.7 36.93 20.7 36.9 20.67C36.9 20.67 36.9 20.67 36.93 20.67C36.93 20.67 36.93 20.67 36.93 20.64C36.93 20.64 36.93 20.64 36.93 20.61C36.93 20.61 36.93 20.61 36.96 20.61C36.96 20.61 36.96 20.61 36.99 20.61C36.99 20.64 36.99 20.64 36.96 20.67ZM36.36 19.95C36.33 19.92 36.33 19.89 36.36 19.89C36.39 19.92 36.39 19.95 36.36 19.95C36.39 19.92 36.39 19.92 36.39 19.92C36.39 19.92 36.39 19.92 36.39 19.95C36.39 19.98 36.39 19.98 36.36 19.95C36.39 19.98 36.36 19.98 36.36 19.95Z" fill="#F8FBF9"/>
<path d="M36.93 20.46V20.43V20.4C36.93 20.4 36.93 20.4 36.96 20.4C36.99 20.43 36.96 20.46 36.93 20.46C36.93 20.49 36.9 20.49 36.93 20.46Z" fill="#FAFBFB"/>
<path d="M36.72 20.07C36.69 20.07 36.69 20.04 36.72 20.01C36.75 20.04 36.75 20.04 36.72 20.07C36.75 20.04 36.75 20.04 36.75 20.04C36.78 20.07 36.75 20.1 36.72 20.07ZM36 19.41L35.97 19.44C35.97 19.44 35.94 19.44 35.94 19.41V19.38C35.97 19.38 35.97 19.38 36 19.41C36 19.38 35.97 19.38 36 19.41C36 19.38 36 19.38 36 19.41Z" fill="#F8FBF9"/>
<path d="M36.81 19.95L36.78 19.98C36.81 19.98 36.81 19.95 36.81 19.92C36.81 19.92 36.81 19.92 36.81 19.89V19.86H36.84C36.84 19.92 36.84 19.95 36.81 19.95Z" fill="#F9FBFA"/>
<path d="M37.23 20.34C37.26 20.34 37.26 20.31 37.23 20.28V20.25C37.29 20.31 37.29 20.34 37.23 20.34C37.26 20.34 37.23 20.37 37.23 20.34ZM36.12 19.71C36.09 19.71 36.09 19.68 36.12 19.68L36.15 19.65C36.15 19.68 36.15 19.68 36.12 19.71C36.15 19.71 36.15 19.68 36.15 19.71C36.15 19.71 36.12 19.74 36.12 19.71Z" fill="#F8FBF9"/>
<path d="M35.76 19.32C35.76 19.29 35.76 19.29 35.76 19.26C35.76 19.26 35.76 19.26 35.79 19.26V19.29C35.79 19.32 35.79 19.32 35.76 19.32C35.76 19.35 35.76 19.35 35.76 19.32Z" fill="#F9FBFA"/>
<path d="M36.42 19.71L36.45 19.68C36.45 19.68 36.45 19.68 36.48 19.68C36.48 19.68 36.48 19.68 36.48 19.71C36.45 19.71 36.45 19.71 36.42 19.71Z" fill="#FAFBFB"/>
<path d="M35.97 19.89C35.94 19.92 35.94 19.92 35.94 19.92C35.94 19.92 35.97 19.89 35.94 19.86V19.83H35.97C36 19.86 35.97 19.89 35.97 19.89Z" fill="#F9FBFA"/>
<path d="M36.3 19.62C36.3 19.59 36.33 19.59 36.36 19.59C36.36 19.59 36.36 19.59 36.33 19.59C36.33 19.62 36.33 19.62 36.3 19.62C36.33 19.62 36.33 19.62 36.33 19.65C36.33 19.65 36.33 19.65 36.3 19.62Z" fill="#F8FBF9"/>
<path d="M36.24 20.04C36.27 20.07 36.3 20.07 36.3 20.1C36.3 20.1 36.3 20.1 36.27 20.1H36.24C36.24 20.1 36.21 20.1 36.21 20.13V20.16C36.21 20.16 36.21 20.16 36.21 20.13C36.21 20.1 36.18 20.07 36.21 20.04H36.24Z" fill="#036D37"/>
<path d="M36.48 20.04C36.45 20.04 36.45 20.04 36.48 20.04C36.45 20.01 36.45 20.01 36.48 20.04C36.48 20.01 36.48 20.01 36.48 20.04Z" fill="#066F3A"/>
<path d="M37.14 20.16V20.19C37.11 20.16 37.11 20.16 37.14 20.16C37.11 20.16 37.11 20.16 37.14 20.16Z" fill="#006C35"/>
<path d="M35.82 19.68C35.85 19.68 35.85 19.68 35.82 19.68C35.82 19.71 35.85 19.71 35.82 19.68Z" fill="#0A713D"/>
<path d="M36.66 19.92V19.89C36.69 19.89 36.69 19.89 36.66 19.92ZM36.21 19.56C36.24 19.56 36.24 19.59 36.21 19.56C36.21 19.59 36.24 19.59 36.21 19.56Z" fill="#0A713D"/>
<path d="M33.66 22.44C33.96 22.86 33.69 23.55 33.06 23.97C32.43 24.39 31.71 24.39 31.41 23.97C31.11 23.55 31.38 22.86 32.01 22.44C32.61 22.02 33.36 22.02 33.66 22.44Z" fill="#ED9F74"/>
<path d="M32.7599 22.08C32.9699 22.38 32.8199 22.83 32.4599 23.1C32.0699 23.37 31.5899 23.31 31.4099 23.01C31.1999 22.71 31.3499 22.23 31.7099 21.99C32.0699 21.72 32.5499 21.78 32.7599 22.08Z" fill="#ED9F74"/>
<path d="M24.06 15.33C24.1428 15.33 24.21 15.2629 24.21 15.18C24.21 15.0972 24.1428 15.03 24.06 15.03C23.9771 15.03 23.91 15.0972 23.91 15.18C23.91 15.2629 23.9771 15.33 24.06 15.33Z" fill="#646C79"/>
<path d="M24.06 16.77C24.1428 16.77 24.21 16.7029 24.21 16.62C24.21 16.5372 24.1428 16.47 24.06 16.47C23.9771 16.47 23.91 16.5372 23.91 16.62C23.91 16.7029 23.9771 16.77 24.06 16.77Z" fill="#646C79"/>
<path d="M24.06 18.21C24.1428 18.21 24.21 18.1429 24.21 18.06C24.21 17.9772 24.1428 17.91 24.06 17.91C23.9771 17.91 23.91 17.9772 23.91 18.06C23.91 18.1429 23.9771 18.21 24.06 18.21Z" fill="#646C79"/>
<path d="M24.06 19.65C24.1428 19.65 24.21 19.5829 24.21 19.5C24.21 19.4172 24.1428 19.35 24.06 19.35C23.9771 19.35 23.91 19.4172 23.91 19.5C23.91 19.5829 23.9771 19.65 24.06 19.65Z" fill="#646C79"/>
<path d="M24.06 21.09C24.1428 21.09 24.21 21.0229 24.21 20.94C24.21 20.8572 24.1428 20.79 24.06 20.79C23.9771 20.79 23.91 20.8572 23.91 20.94C23.91 21.0229 23.9771 21.09 24.06 21.09Z" fill="#646C79"/>
<path d="M24.06 22.53C24.1428 22.53 24.21 22.4629 24.21 22.38C24.21 22.2972 24.1428 22.23 24.06 22.23C23.9771 22.23 23.91 22.2972 23.91 22.38C23.91 22.4629 23.9771 22.53 24.06 22.53Z" fill="#646C79"/>
<path d="M28.65 8.93995C28.41 9.74995 27.96 10.32 27.69 10.23C27.42 10.14 27.39 9.41995 27.66 8.63995C27.93 7.85995 28.35 7.25995 28.62 7.34995C28.89 7.43995 28.92 8.12995 28.65 8.93995ZM19.47 8.93995C19.71 9.74995 20.16 10.32 20.43 10.23C20.7 10.14 20.73 9.41995 20.46 8.63995C20.19 7.85995 19.77 7.25995 19.5 7.34995C19.2 7.43995 19.2 8.12995 19.47 8.93995Z" fill="#ED9F74"/>
<path d="M20.04 5.90997V8.57997C20.04 10.8 21.84 12.6 24.06 12.6C26.28 12.6 28.08 10.8 28.08 8.57997V5.90997H20.04Z" fill="#FFB381"/>
<path d="M25.2 10.08C25.05 10.56 24.6 10.92 24.06 10.92C23.52 10.92 23.07 10.56 22.92 10.08C23.19 10.41 23.61 10.62 24.06 10.62C24.51 10.62 24.93 10.41 25.2 10.08Z" fill="#DB8E67"/>
<path d="M19.44 5.90997C19.47 7.49997 20.04 8.78997 20.04 8.78997C20.04 8.27997 20.13 6.92997 20.94 5.90997H19.44ZM27.15 5.90997C27.96 6.95997 28.05 8.30997 28.05 8.78997C28.05 8.78997 28.59 7.49997 28.65 5.90997H27.15Z" fill="#161616"/>
<path d="M25.14 6.98998C25.44 6.86998 25.77 6.80998 26.1 6.83998C26.43 6.86998 26.73 6.98998 27 7.13998C26.73 6.98998 26.4 6.92998 26.1 6.95998C25.8 6.95998 25.5 7.04998 25.26 7.19998C25.2 7.22998 25.11 7.19998 25.08 7.13998C25.02 7.10998 25.05 7.01998 25.14 6.98998ZM25.47 7.64998C25.89 7.40998 26.4 7.43998 26.76 7.67998C26.37 7.49998 25.89 7.58998 25.62 7.85998C25.56 7.91998 25.5 7.88998 25.44 7.85998C25.41 7.79998 25.41 7.70998 25.47 7.64998Z" fill="#161616"/>
<path d="M22.86 7.23001C22.59 7.08001 22.32 6.99001 22.02 6.99001C21.72 6.99001 21.42 7.05001 21.12 7.17001C21.39 6.99001 21.69 6.90001 22.02 6.87001C22.35 6.84001 22.68 6.90001 22.98 7.02001C23.04 7.05001 23.07 7.11001 23.04 7.17001C23.01 7.23001 22.95 7.26001 22.86 7.23001C22.89 7.23001 22.89 7.23001 22.86 7.23001ZM22.5 7.86001C22.23 7.59001 21.75 7.50001 21.36 7.68001C21.72 7.44001 22.23 7.41001 22.65 7.65001C22.71 7.68001 22.74 7.77001 22.68 7.83001C22.65 7.89001 22.56 7.92001 22.5 7.86001Z" fill="#161616"/>
<path d="M28.98 5.37C28.53 2.76 26.52 0.75 24.06 0.75C21.6 0.75 19.59 2.76 19.14 5.37H28.98Z" fill="#D42E32"/>
<path d="M19.02 23.58C19.02 23.58 20.34 22.2 19.65 19.08C19.53 18.54 19.62 18 19.89 17.52C20.67 16.2 22.05 13.38 20.82 11.7C19.74 10.23 19.95 7.13998 20.22 5.12998C20.37 4.01998 20.73 2.96998 21.3 1.97998C21.3 1.97998 20.31 2.24998 19.38 4.37998C18.6 6.20998 16.23 11.73 15.6 13.2C15.48 13.47 15.51 13.74 15.66 14.01C15.93 14.46 16.32 14.7 16.77 14.73C14.73 19.32 18.39 18.87 19.02 23.58ZM29.1 23.58C29.1 23.58 27.78 22.2 28.47 19.08C28.59 18.54 28.5 18 28.23 17.52C27.45 16.2 26.07 13.38 27.3 11.7C28.38 10.23 28.17 7.13998 27.9 5.12998C27.75 4.01998 27.39 2.96998 26.82 1.97998C26.82 1.97998 27.81 2.24998 28.74 4.37998C29.55 6.20998 31.92 11.76 32.55 13.23C32.67 13.5 32.64 13.77 32.49 14.04C32.22 14.49 31.83 14.73 31.38 14.76C33.39 19.32 29.73 18.87 29.1 23.58Z" fill="#D42E32"/>
<path opacity="0.1" d="M31.35 14.73C31.35 14.76 31.38 14.79 31.38 14.82C30.93 14.37 30.63 13.8 30.42 13.2C30.21 12.57 30.12 11.91 30.12 11.25C30.21 11.91 30.39 12.54 30.66 13.11C30.93 13.68 31.32 14.19 31.83 14.55L31.86 14.58C31.68 14.67 31.53 14.7 31.35 14.73ZM16.77 14.73C16.77 14.76 16.74 14.79 16.74 14.82C17.19 14.37 17.49 13.8 17.7 13.2C17.91 12.57 18 11.91 18 11.25C17.91 11.91 17.73 12.54 17.46 13.11C17.19 13.68 16.8 14.19 16.29 14.55L16.26 14.58C16.41 14.67 16.59 14.7 16.77 14.73Z" fill="black"/>
<path d="M24.06 3.51C22.86 3.51 21.63 3.24 20.43 2.67C20.16 2.55 20.04 2.22 20.16 1.95C20.28 1.68 20.61 1.56 20.88 1.68C23.01 2.7 25.08 2.7 27.24 1.71C27.51 1.59 27.81 1.71 27.96 1.98C28.08 2.25 27.96 2.55 27.69 2.7C26.49 3.21 25.26 3.51 24.06 3.51Z" fill="#212121"/>
<path d="M24.06 4.49999C22.68 4.49999 21.3 4.16999 19.95 3.53999C19.68 3.41999 19.56 3.08999 19.68 2.81999C19.8 2.54999 20.13 2.42999 20.4 2.54999C22.86 3.71999 25.26 3.71999 27.75 2.54999C28.02 2.42999 28.32 2.54999 28.47 2.81999C28.59 3.08999 28.47 3.38999 28.2 3.53999C26.82 4.16999 25.44 4.49999 24.06 4.49999Z" fill="#424242"/>
<path d="M8.96997 36.72V38.01C8.96997 38.16 9.08997 38.25 9.20997 38.25H11.79C11.94 38.25 12.03 38.13 12.03 38.01V36.72H8.96997ZM7.07997 36.72V38.01C7.07997 38.16 6.95997 38.25 6.83997 38.25H4.25997C4.10997 38.25 4.01997 38.13 4.01997 38.01V36.72H7.07997ZM1.40997 16.62C1.40997 6.62999 4.37997 1.79999 8.00997 1.79999C11.67 1.79999 14.61 6.62999 14.61 16.62H1.40997Z" fill="#212121"/>
<path d="M3.23999 25.47C3.23999 26.58 3.35999 27.51 2.72999 27.51C2.09999 27.51 0.929993 26.61 0.929993 25.47C0.929993 24.36 1.43999 23.46 2.09999 23.46C2.69999 23.43 3.23999 24.33 3.23999 25.47ZM12.81 25.47C12.81 26.58 12.69 27.51 13.32 27.51C13.95 27.51 15.12 26.61 15.12 25.47C15.12 24.36 14.61 23.46 13.95 23.46C13.32 23.43 12.81 24.33 12.81 25.47Z" fill="#ED9F74"/>
<path d="M12.9 24.66L13.2 36.87C11.46 37.38 9.74999 37.65 8.03999 37.68C6.32999 37.65 4.61999 37.38 2.87999 36.87L3.17999 24.66L0.299988 24.3L1.25999 16.68C1.40999 15.48 2.15999 14.4 3.26999 13.89C3.74999 13.65 4.28999 13.53 4.82999 13.53H11.19C11.73 13.53 12.27 13.65 12.75 13.89C13.86 14.43 14.61 15.48 14.76 16.68L15.75 24.3L12.9 24.66Z" fill="#333333"/>
<path d="M2.66998 24.6L3.14998 17.73V24.66L2.66998 24.6Z" fill="#212121"/>
<path d="M13.38 24.6L12.9 17.73V24.66L13.38 24.6Z" fill="#212121"/>
<path d="M11.43 15.06C10.29 16.47 9.15001 16.98 8.01001 16.98C6.87001 16.98 5.73001 16.47 4.59001 15.06C2.67001 14.07 1.59001 12.9 2.94001 11.22C2.82001 10.05 3.03001 9.05999 3.45001 8.24999C3.57001 8.00999 3.63001 7.76999 3.60001 7.49999C3.60001 7.31999 3.57001 7.16999 3.57001 6.98999C3.60001 4.10999 5.58001 1.79999 8.01001 1.79999C10.44 1.79999 12.42 4.10999 12.42 6.98999C12.42 7.13999 12.42 7.31999 12.39 7.49999C12.36 7.76999 12.42 8.00999 12.54 8.24999C12.99 9.08999 13.2 10.05 13.05 11.22C14.43 12.9 13.38 14.07 11.43 15.06Z" fill="#282828"/>
<path d="M11.52 7.85998V8.72998C11.52 10.59 10.11 12.21 8.27997 12.33C7.22997 12.39 6.23997 12 5.54997 11.31C4.91997 10.68 4.52997 9.80998 4.52997 8.81998V7.85998C4.52997 5.93998 6.08997 4.34998 8.03997 4.34998C9.95997 4.34998 11.52 5.90998 11.52 7.85998Z" fill="#FFB381"/>
<path d="M8.96996 7.43996C9.23996 7.31996 9.50996 7.28996 9.80996 7.31996C10.08 7.34996 10.35 7.43996 10.59 7.58996C10.35 7.46996 10.08 7.40996 9.80996 7.43996C9.53996 7.43996 9.29996 7.52996 9.05996 7.64996C8.99996 7.67996 8.93996 7.64996 8.90996 7.61996C8.87996 7.52996 8.90996 7.46996 8.96996 7.43996ZM9.26996 8.00996C9.62996 7.79996 10.08 7.82996 10.41 8.03996C10.05 7.88996 9.65996 7.94996 9.41996 8.18996C9.38996 8.21996 9.29996 8.21996 9.26996 8.18996C9.17996 8.15996 9.20996 8.06996 9.26996 8.00996C9.23996 8.03996 9.23996 8.03996 9.26996 8.00996Z" fill="#161616"/>
<path d="M6.98996 7.65C6.77996 7.53 6.50996 7.44 6.23996 7.44C5.96996 7.44 5.69996 7.47 5.45996 7.59C5.69996 7.44 5.93996 7.35 6.23996 7.32C6.50996 7.29 6.80996 7.35 7.07996 7.44C7.13996 7.47 7.16996 7.53 7.13996 7.59C7.10996 7.65 7.04996 7.68 6.98996 7.65ZM6.65996 8.19C6.41996 7.95 5.99996 7.89 5.66996 8.04C5.96996 7.83 6.44996 7.8 6.80996 8.01C6.86996 8.04 6.86996 8.1 6.83996 8.16C6.77996 8.22 6.71996 8.25 6.65996 8.19Z" fill="#161616"/>
<path d="M9.02999 10.14C8.90999 10.56 8.48999 10.86 8.03999 10.86C7.55999 10.86 7.16999 10.56 7.04999 10.14C7.28999 10.44 7.64999 10.59 8.03999 10.59C8.42999 10.59 8.78999 10.41 9.02999 10.14Z" fill="#DB8E67"/>
<path d="M4.53001 7.85996C4.35001 6.92996 4.68001 5.90996 5.34001 5.15996C5.67001 4.76996 6.09001 4.49996 6.54001 4.28996C6.99001 4.07996 7.50001 3.98996 8.01001 3.95996C8.52001 3.95996 9.03001 4.07996 9.48001 4.25996C9.93001 4.46996 10.35 4.76996 10.68 5.12996C11.34 5.87996 11.67 6.89996 11.49 7.82996C11.34 6.89996 10.89 6.11996 10.26 5.57996C9.63001 5.03996 8.82001 4.70996 8.01001 4.73996C7.20001 4.73996 6.39001 5.03996 5.76001 5.57996C5.13001 6.14996 4.68001 6.92996 4.53001 7.85996Z" fill="#353535"/>
<path d="M3.47998 11.16C4.13998 11.58 4.82998 11.94 5.51998 12.24C6.23998 12.51 6.95998 12.69 7.73998 12.75C8.48998 12.81 9.23998 12.75 10.02 12.6C10.77 12.45 11.52 12.24 12.27 11.97C11.61 12.39 10.89 12.72 10.11 12.93C9.32998 13.14 8.54998 13.23 7.73998 13.17C6.92998 13.11 6.14998 12.9 5.42998 12.54C4.67998 12.18 4.04998 11.7 3.47998 11.16ZM4.31998 13.56C4.85998 13.89 5.42998 14.19 5.99998 14.4C6.56998 14.61 7.16998 14.76 7.76998 14.79C8.36998 14.85 8.96998 14.79 9.59998 14.7C10.2 14.58 10.8 14.43 11.43 14.22C10.89 14.58 10.32 14.85 9.68998 15.03C9.05998 15.21 8.39998 15.27 7.76998 15.24C7.10998 15.18 6.47998 15 5.87998 14.73C5.27998 14.4 4.76998 14.01 4.31998 13.56Z" fill="#212121"/>
</g>
<defs>
<clipPath id="clip0_502_740">
<rect width="39" height="39" fill="white"/>
</clipPath>
</defs>
</svg>
