<svg width="25" height="25" viewBox="0 0 25 25" fill="none" xmlns="http://www.w3.org/2000/svg">
<path d="M6.87919 16.8193C6.78152 16.7216 6.64906 16.6668 6.51096 16.6668C6.37285 16.6668 6.2404 16.7216 6.14273 16.8193L5.46929 17.4927L4.79585 16.8193C4.74781 16.7695 4.69034 16.7298 4.62679 16.7026C4.56325 16.6753 4.49491 16.6609 4.42575 16.6603C4.35659 16.6597 4.28801 16.6729 4.224 16.6991C4.15999 16.7252 4.10184 16.7639 4.05294 16.8128C4.00404 16.8617 3.96536 16.9199 3.93918 16.9839C3.91299 17.0479 3.89981 17.1165 3.90041 17.1856C3.90101 17.2548 3.91538 17.3231 3.94268 17.3867C3.96997 17.4502 4.00965 17.5077 4.0594 17.5557L4.73283 18.2292L4.0594 18.9026C4.00965 18.9507 3.96997 19.0081 3.94268 19.0717C3.91538 19.1352 3.90101 19.2036 3.90041 19.2727C3.89981 19.3419 3.91299 19.4104 3.93918 19.4745C3.96536 19.5385 4.00404 19.5966 4.05294 19.6455C4.10184 19.6944 4.15999 19.7331 4.224 19.7593C4.28801 19.7855 4.35659 19.7986 4.42575 19.798C4.49491 19.7974 4.56325 19.7831 4.62679 19.7558C4.69034 19.7285 4.74781 19.6888 4.79585 19.6391L5.46929 18.9656L6.14273 19.6391C6.24096 19.7339 6.37252 19.7864 6.50908 19.7852C6.64564 19.7841 6.77628 19.7293 6.87284 19.6327C6.96941 19.5362 7.02418 19.4055 7.02537 19.269C7.02656 19.1324 6.97406 19.0008 6.87919 18.9026L6.20575 18.2292L6.87919 17.5557C6.97683 17.4581 7.03168 17.3256 7.03168 17.1875C7.03168 17.0494 6.97683 16.9169 6.87919 16.8193ZM11.5667 16.8193C11.469 16.7216 11.3366 16.6668 11.1985 16.6668C11.0604 16.6668 10.9279 16.7216 10.8302 16.8193L10.1568 17.4927L9.48335 16.8193C9.38512 16.7244 9.25356 16.6719 9.117 16.6731C8.98044 16.6743 8.84981 16.729 8.75324 16.8256C8.65667 16.9222 8.6019 17.0528 8.60071 17.1894C8.59952 17.3259 8.65202 17.4575 8.74689 17.5557L9.42033 18.2292L8.74689 18.9026C8.69715 18.9507 8.65747 19.0081 8.63018 19.0717C8.60288 19.1352 8.58851 19.2036 8.58791 19.2727C8.58731 19.3419 8.60049 19.4104 8.62668 19.4745C8.65286 19.5385 8.69154 19.5966 8.74044 19.6455C8.78934 19.6944 8.84749 19.7331 8.9115 19.7593C8.97551 19.7855 9.04409 19.7986 9.11325 19.798C9.18241 19.7974 9.25075 19.7831 9.31429 19.7558C9.37784 19.7285 9.43531 19.6888 9.48335 19.6391L10.1568 18.9656L10.8302 19.6391C10.9285 19.7339 11.06 19.7864 11.1966 19.7852C11.3331 19.7841 11.4638 19.7293 11.5603 19.6327C11.6569 19.5362 11.7117 19.4055 11.7129 19.269C11.7141 19.1324 11.6616 19.0008 11.5667 18.9026L10.8932 18.2292L11.5667 17.5557C11.6643 17.4581 11.7192 17.3256 11.7192 17.1875C11.7192 17.0494 11.6643 16.9169 11.5667 16.8193ZM16.2542 16.8193C16.1565 16.7216 16.0241 16.6668 15.886 16.6668C15.7479 16.6668 15.6154 16.7216 15.5177 16.8193L14.8443 17.4927L14.1709 16.8193C14.0726 16.7244 13.9411 16.6719 13.8045 16.6731C13.6679 16.6743 13.5373 16.729 13.4407 16.8256C13.3442 16.9222 13.2894 17.0528 13.2882 17.1894C13.287 17.3259 13.3395 17.4575 13.4344 17.5557L14.1078 18.2292L13.4344 18.9026C13.3847 18.9507 13.345 19.0081 13.3177 19.0717C13.2904 19.1352 13.276 19.2036 13.2754 19.2727C13.2748 19.3419 13.288 19.4104 13.3142 19.4745C13.3404 19.5385 13.379 19.5966 13.4279 19.6455C13.4768 19.6944 13.535 19.7331 13.599 19.7593C13.663 19.7855 13.7316 19.7986 13.8008 19.798C13.8699 19.7974 13.9383 19.7831 14.0018 19.7558C14.0653 19.7285 14.1228 19.6888 14.1709 19.6391L14.8443 18.9656L15.5177 19.6391C15.616 19.7339 15.7475 19.7864 15.8841 19.7852C16.0206 19.7841 16.1513 19.7293 16.2478 19.6327C16.3444 19.5362 16.3992 19.4055 16.4004 19.269C16.4016 19.1324 16.3491 19.0008 16.2542 18.9026L15.5808 18.2292L16.2542 17.5557C16.3518 17.4581 16.4067 17.3256 16.4067 17.1875C16.4067 17.0494 16.3518 16.9169 16.2542 16.8193ZM20.2683 18.2292L20.9417 17.5557C21.0366 17.4575 21.0891 17.3259 21.0879 17.1894C21.0867 17.0528 21.0319 16.9222 20.9353 16.8256C20.8388 16.729 20.7081 16.6743 20.5716 16.6731C20.435 16.6719 20.3035 16.7244 20.2052 16.8193L19.5318 17.4927L18.8584 16.8193C18.7601 16.7244 18.6286 16.6719 18.492 16.6731C18.3554 16.6743 18.2248 16.729 18.1282 16.8256C18.0317 16.9222 17.9769 17.0528 17.9757 17.1894C17.9745 17.3259 18.027 17.4575 18.1219 17.5557L18.7953 18.2292L18.1219 18.9026C18.0722 18.9507 18.0325 19.0081 18.0052 19.0717C17.9779 19.1352 17.9635 19.2036 17.9629 19.2727C17.9623 19.3419 17.9755 19.4104 18.0017 19.4745C18.0279 19.5385 18.0665 19.5966 18.1154 19.6455C18.1643 19.6944 18.2225 19.7331 18.2865 19.7593C18.3505 19.7855 18.4191 19.7986 18.4883 19.798C18.5574 19.7974 18.6258 19.7831 18.6893 19.7558C18.7528 19.7285 18.8103 19.6888 18.8584 19.6391L19.5318 18.9656L20.2052 19.6391C20.3035 19.7339 20.435 19.7864 20.5716 19.7852C20.7081 19.7841 20.8388 19.7293 20.9353 19.6327C21.0319 19.5362 21.0867 19.4055 21.0879 19.269C21.0891 19.1324 21.0366 19.0008 20.9417 18.9026L20.2683 18.2292ZM6.51096 20.8333H4.42762C4.28949 20.8333 4.15701 20.8882 4.05934 20.9859C3.96166 21.0836 3.90679 21.216 3.90679 21.3542C3.90679 21.4923 3.96166 21.6248 4.05934 21.7225C4.15701 21.8201 4.28949 21.875 4.42762 21.875H6.51096C6.64909 21.875 6.78157 21.8201 6.87924 21.7225C6.97692 21.6248 7.03179 21.4923 7.03179 21.3542C7.03179 21.216 6.97692 21.0836 6.87924 20.9859C6.78157 20.8882 6.64909 20.8333 6.51096 20.8333ZM11.1985 20.8333H9.11512C8.97699 20.8333 8.84451 20.8882 8.74684 20.9859C8.64916 21.0836 8.59429 21.216 8.59429 21.3542C8.59429 21.4923 8.64916 21.6248 8.74684 21.7225C8.84451 21.8201 8.97699 21.875 9.11512 21.875H11.1985C11.3366 21.875 11.4691 21.8201 11.5667 21.7225C11.6644 21.6248 11.7193 21.4923 11.7193 21.3542C11.7193 21.216 11.6644 21.0836 11.5667 20.9859C11.4691 20.8882 11.3366 20.8333 11.1985 20.8333ZM15.886 20.8333H13.8026C13.6645 20.8333 13.532 20.8882 13.4343 20.9859C13.3367 21.0836 13.2818 21.216 13.2818 21.3542C13.2818 21.4923 13.3367 21.6248 13.4343 21.7225C13.532 21.8201 13.6645 21.875 13.8026 21.875H15.886C16.0241 21.875 16.1566 21.8201 16.2542 21.7225C16.3519 21.6248 16.4068 21.4923 16.4068 21.3542C16.4068 21.216 16.3519 21.0836 16.2542 20.9859C16.1566 20.8882 16.0241 20.8333 15.886 20.8333ZM20.5735 20.8333H18.4901C18.352 20.8333 18.2195 20.8882 18.1218 20.9859C18.0242 21.0836 17.9693 21.216 17.9693 21.3542C17.9693 21.4923 18.0242 21.6248 18.1218 21.7225C18.2195 21.8201 18.352 21.875 18.4901 21.875H20.5735C20.7116 21.875 20.8441 21.8201 20.9417 21.7225C21.0394 21.6248 21.0943 21.4923 21.0943 21.3542C21.0943 21.216 21.0394 21.0836 20.9417 20.9859C20.8441 20.8882 20.7116 20.8333 20.5735 20.8333ZM16.9537 8.125H15.9901V7.08333C15.9901 6.15784 15.6225 5.27025 14.9681 4.61583C14.3136 3.9614 13.426 3.59375 12.5005 3.59375C11.575 3.59375 10.6875 3.9614 10.033 4.61583C9.37861 5.27025 9.01096 6.15784 9.01096 7.08333V8.125H8.04742C7.97883 8.1243 7.91079 8.1373 7.84728 8.16323C7.78378 8.18916 7.72608 8.22749 7.67758 8.276C7.62908 8.3245 7.59074 8.38219 7.56481 8.4457C7.53888 8.5092 7.52589 8.57724 7.52658 8.64583V13.5417C7.52686 13.956 7.69157 14.3533 7.98453 14.6462C8.2775 14.9392 8.67477 15.1039 9.08908 15.1042H15.912C16.3263 15.1039 16.7236 14.9392 17.0166 14.6462C17.3095 14.3533 17.4742 13.956 17.4745 13.5417V8.64583C17.4752 8.57724 17.4622 8.5092 17.4363 8.4457C17.4103 8.38219 17.372 8.3245 17.3235 8.276C17.275 8.22749 17.2173 8.18916 17.1538 8.16323C17.0903 8.1373 17.0223 8.1243 16.9537 8.125ZM10.0526 7.08333C10.0526 6.43411 10.3105 5.81147 10.7696 5.35239C11.2287 4.89332 11.8513 4.63542 12.5005 4.63542C13.1498 4.63542 13.7724 4.89332 14.2315 5.35239C14.6906 5.81147 14.9485 6.43411 14.9485 7.08333V8.125H10.0526V7.08333Z" fill="#404A6B"/>
</svg>
