<svg width="42" height="44" viewBox="0 0 42 44" fill="none" xmlns="http://www.w3.org/2000/svg">
<path d="M21.0709 43.9261C9.51183 43.9669 0.109818 34.1833 0.0708812 22.0739C0.0319446 9.96439 9.37083 0.114649 20.9299 0.0738582C32.4889 0.0330674 41.8909 9.81667 41.9299 21.9261C41.9688 34.0356 32.6299 43.8854 21.0709 43.9261Z" fill="#386C9D"/>
<path d="M1.59192 22.8789C2.72561 11.4636 14.1322 1.78587 22.109 1.60223C10.5498 1.64335 1.55355 10.7692 1.59192 22.8789Z" fill="#5D93C6"/>
<path d="M16.5503 11.7669C16.1281 11.7686 15.7236 11.9451 15.4252 12.2579C15.1267 12.5708 14.9584 12.9946 14.957 13.437V30.5651C14.9597 31.0073 15.1278 31.4307 15.4253 31.7444L26.3488 43.1881C29.9212 42.1948 33.1787 40.2281 35.7902 37.4881C38.4017 34.7481 40.274 31.3325 41.2167 27.5885L26.5817 12.2584C26.284 11.9449 25.8797 11.7681 25.4576 11.7669H24.0309C23.6091 11.7698 23.2054 11.9467 22.9073 12.2593C22.6092 12.572 22.4408 12.9951 22.4385 13.437V15.7529L19.1011 12.2575C18.954 12.1016 18.7788 11.978 18.5857 11.8938C18.3925 11.8095 18.1853 11.7664 17.9761 11.7669H16.5503Z" fill="#273B7A"/>
<path d="M16.5503 11.7669H17.977C18.8526 11.7669 19.5694 12.5206 19.5694 13.437V30.5651C19.568 31.0072 19.3999 31.4308 19.1016 31.7436C18.8033 32.0565 18.3991 32.2331 17.977 32.235H16.5503C16.1281 32.2333 15.7236 32.0568 15.4252 31.744C15.1267 31.4311 14.9584 31.0074 14.957 30.5651V13.437C14.957 12.5206 15.6747 11.7669 16.5503 11.7669ZM24.0309 11.7669H25.4576C26.3332 11.7669 27.0509 12.5206 27.0509 13.437V30.5651C27.0495 31.0074 26.8812 31.4311 26.5827 31.744C26.2843 32.0568 25.8798 32.2333 25.4576 32.235H24.0309C23.6088 32.2331 23.2046 32.0565 22.9063 31.7436C22.608 31.4308 22.4399 31.0072 22.4385 30.5651V13.437C22.4385 12.5206 23.1553 11.7669 24.0309 11.7669Z" fill="#FFC91B"/>
<path d="M16.5503 11.7669C16.1281 11.7686 15.7236 11.9451 15.4252 12.2579C15.1267 12.5708 14.9584 12.9946 14.957 13.437V22.0001H19.5703V13.437C19.5689 12.9946 19.4006 12.5708 19.1021 12.2579C18.8037 11.9451 18.3992 11.7686 17.977 11.7669H16.5503ZM24.0309 11.7669C23.6088 11.7688 23.2046 11.9454 22.9063 12.2583C22.608 12.5711 22.4399 12.9948 22.4385 13.437V22.0001H27.0509V13.437C27.0495 12.9946 26.8812 12.5708 26.5827 12.2579C26.2843 11.9451 25.8798 11.7686 25.4576 11.7669H24.0309Z" fill="#FDE085"/>
</svg>
