<svg width="42" height="44" viewBox="0 0 42 44" fill="none" xmlns="http://www.w3.org/2000/svg">
<path d="M21.0709 43.9261C9.51183 43.9669 0.109818 34.1833 0.0708812 22.0739C0.0319446 9.96439 9.37083 0.114649 20.9299 0.0738582C32.4889 0.0330674 41.8909 9.81667 41.9299 21.9261C41.9688 34.0356 32.6299 43.8854 21.0709 43.9261Z" fill="#386C9D"/>
<path d="M1.59192 22.8789C2.72561 11.4636 14.1322 1.78585 22.109 1.60222C10.5498 1.64333 1.55355 10.7692 1.59192 22.8789Z" fill="#5D93C6"/>
<path d="M16.5503 11.7669C16.1281 11.7686 15.7236 11.9451 15.4252 12.258C15.1267 12.5708 14.9584 12.9947 14.957 13.437V30.5651C14.9597 31.0073 15.1278 31.4307 15.4253 31.7444L26.3488 43.1881C29.9212 42.1948 33.1787 40.2281 35.7902 37.4881C38.4017 34.7481 40.274 31.3325 41.2167 27.5885L26.5817 12.2584C26.284 11.9449 25.8797 11.7681 25.4576 11.7669H24.0309C23.6091 11.7698 23.2054 11.9467 22.9073 12.2594C22.6092 12.572 22.4408 12.9951 22.4385 13.437V15.7529L19.1011 12.2575C18.954 12.1016 18.7788 11.978 18.5857 11.8938C18.3925 11.8096 18.1853 11.7664 17.9761 11.7669H16.5503Z" fill="#273B7A"/>
<path d="M31.145 18.0658L18.9294 10.9019C18.3678 10.573 17.731 10.4001 17.0829 10.4004C16.4348 10.4007 15.7982 10.5743 15.2369 10.9037C14.6756 11.2331 14.2094 11.7068 13.885 12.2773C13.5606 12.8477 13.3894 13.4948 13.3887 14.1538V28.4913C13.3894 29.1503 13.5606 29.7974 13.885 30.3678C14.2094 30.9383 14.6756 31.412 15.2369 31.7414C15.7982 32.0708 16.4348 32.2444 17.0829 32.2447C17.731 32.245 18.3678 32.0721 18.9294 31.7432L31.145 24.576C31.7072 24.2463 32.1742 23.7719 32.4989 23.2005C32.8235 22.6291 32.9945 21.9808 32.9945 21.3209C32.9945 20.661 32.8235 20.0127 32.4989 19.4413C32.1742 18.8699 31.7072 18.3955 31.145 18.0658Z" fill="#FFC91B"/>
</svg>
