<svg width="28" height="28" viewBox="0 0 28 28" fill="none" xmlns="http://www.w3.org/2000/svg">
<path d="M15.3584 23.1967C14.6837 22.1621 14.3119 20.9595 14.2849 19.7246C13.7856 19.8034 13.2513 19.8613 12.694 19.8969V19.9948C12.694 20.0008 12.694 20.0073 12.694 20.0134L12.6902 20.0784H12.6946V23.5839C13.5921 23.5331 14.4835 23.4035 15.3584 23.1967Z" fill="#FFDD46"/>
<path d="M14.2865 19.7788C14.2865 19.7093 14.2827 19.6393 14.2827 19.5693C14.2808 18.2497 14.6731 16.9595 15.4092 15.8643C14.6272 16.0639 13.6975 16.2006 12.694 16.2651V16.363C12.694 16.369 12.694 16.3756 12.694 16.3816L12.6902 16.4467H12.6946V19.9521C13.2578 19.9155 13.7921 19.8564 14.2865 19.7788Z" fill="#FFDD46"/>
<path d="M15.3673 15.9311C15.9198 15.0869 16.6563 14.3787 17.5214 13.8595V10.9688H17.4667C17.4394 11.4062 16.7995 11.835 15.7003 12.1538C14.8592 12.3983 13.8158 12.5623 12.6799 12.6345C12.6912 12.6755 12.6969 12.7178 12.6969 12.7603V16.3205C13.5967 16.2693 14.4903 16.139 15.3673 15.9311Z" fill="#FFDD46"/>
<path d="M17.4638 7.33691C17.4364 7.77441 16.7966 8.20316 15.6974 8.52199C14.5369 8.85887 12.9931 9.0448 11.3503 9.0448C9.70746 9.0448 8.16363 8.85887 7.00316 8.52199C5.90613 8.20316 5.2641 7.77277 5.2373 7.33691H5.18262V10.9403C5.18293 10.9838 5.18844 11.0271 5.19902 11.0693C5.64691 11.0393 6.10957 11.0234 6.58098 11.0234C8.2216 11.0234 9.76762 11.2093 10.9281 11.5462C11.9912 11.8546 12.6234 12.2675 12.6896 12.6886C15.4535 12.5114 17.5212 11.7956 17.5212 10.9386V7.33691H17.4638Z" fill="#FFDD46"/>
<path d="M17.4651 3.70508C17.4651 4.15078 16.8208 4.59375 15.6954 4.92188C14.5349 5.25875 12.9911 5.44414 11.3483 5.44414C9.70545 5.44414 8.16381 5.25602 7.00334 4.92188C5.88006 4.59375 5.23584 4.15625 5.23584 3.70781H5.18115V7.31062C5.18115 8.29992 7.94342 9.10219 11.3504 9.10219C14.7575 9.10219 17.5197 8.29992 17.5197 7.31062V3.70508H17.4651Z" fill="#FFDD46"/>
<path d="M11.3504 5.49609C14.7577 5.49609 17.5197 4.69423 17.5197 3.70508C17.5197 2.71593 14.7577 1.91406 11.3504 1.91406C7.94324 1.91406 5.18115 2.71593 5.18115 3.70508C5.18115 4.69423 7.94324 5.49609 11.3504 5.49609Z" fill="#FFDD46"/>
<path d="M12.6929 20.0239C12.6655 20.4614 12.0257 20.8896 10.9264 21.209C9.76598 21.5459 8.22215 21.7313 6.57934 21.7313C4.93652 21.7313 3.39051 21.547 2.23223 21.209C1.13301 20.8907 0.49207 20.4592 0.46582 20.0239H0.411133V23.6251C0.411133 24.6144 3.1734 25.4161 6.58043 25.4161C9.98746 25.4161 12.7486 24.616 12.7486 23.6251V20.0239H12.6929Z" fill="#FFDD46"/>
<path d="M12.6929 16.3921C12.6655 16.8296 12.0257 17.2578 10.9264 17.5772C9.76598 17.914 8.22215 18.0994 6.57934 18.0994C4.93652 18.0994 3.39051 17.914 2.23223 17.5772C1.13301 17.2578 0.49207 16.8274 0.46582 16.3921H0.411133V19.9949C0.411133 20.9842 3.1734 21.7859 6.58043 21.7859C9.98746 21.7859 12.7497 20.9842 12.7497 19.9949V16.3921H12.6929Z" fill="#FFDD46"/>
<path d="M12.6941 12.7603C12.6941 13.2054 12.0498 13.6478 10.9266 13.9738C9.76609 14.3106 8.22227 14.4966 6.57945 14.4966C4.93664 14.4966 3.39281 14.3106 2.23234 13.9738C1.10906 13.6456 0.464844 13.2054 0.464844 12.7603H0.410156V16.3631C0.410156 17.3524 3.17187 18.1563 6.57945 18.1563C9.98703 18.1563 12.7487 17.3546 12.7487 16.3653V12.7603H12.6941Z" fill="#FFDD46"/>
<path d="M6.57945 14.5513C9.98666 14.5513 12.7487 13.7494 12.7487 12.7603C12.7487 11.7711 9.98666 10.9692 6.57945 10.9692C3.17224 10.9692 0.410156 11.7711 0.410156 12.7603C0.410156 13.7494 3.17224 14.5513 6.57945 14.5513Z" fill="#FFDD46"/>
<path d="M20.9365 26.2226C24.611 26.2226 27.5898 23.2438 27.5898 19.5693C27.5898 15.8948 24.611 12.916 20.9365 12.916C17.262 12.916 14.2832 15.8948 14.2832 19.5693C14.2832 23.2438 17.262 26.2226 20.9365 26.2226Z" fill="#FFDD46"/>
<path d="M24.966 8.44047L25.2832 9.02016C25.3338 9.1124 25.4097 9.18829 25.5019 9.23891L26.0816 9.55609C26.1676 9.60322 26.2394 9.6726 26.2894 9.75698C26.3393 9.84136 26.3657 9.93763 26.3657 10.0357C26.3657 10.1338 26.3393 10.23 26.2894 10.3144C26.2394 10.3988 26.1676 10.4682 26.0816 10.5153L25.5019 10.8325C25.4095 10.8828 25.3335 10.9588 25.2832 11.0513L24.966 11.6309C24.9189 11.7169 24.8495 11.7887 24.7651 11.8387C24.6807 11.8887 24.5844 11.915 24.4864 11.915C24.3883 11.915 24.292 11.8887 24.2076 11.8387C24.1233 11.7887 24.0539 11.7169 24.0068 11.6309L23.6896 11.0513C23.6396 10.9585 23.5636 10.8825 23.4708 10.8325L22.8911 10.5153C22.8051 10.4682 22.7334 10.3988 22.6834 10.3144C22.6334 10.23 22.607 10.1338 22.607 10.0357C22.607 9.93763 22.6334 9.84136 22.6834 9.75698C22.7334 9.6726 22.8051 9.60322 22.8911 9.55609L23.4708 9.23891C23.5633 9.18856 23.6392 9.11261 23.6896 9.02016L24.0068 8.44047C24.0539 8.35446 24.1233 8.2827 24.2076 8.23272C24.292 8.18274 24.3883 8.15636 24.4864 8.15636C24.5844 8.15636 24.6807 8.18274 24.7651 8.23272C24.8495 8.2827 24.9189 8.35446 24.966 8.44047ZM21.9445 6.12937H21.3468V5.53219C21.3468 5.42341 21.3035 5.31908 21.2266 5.24216C21.1497 5.16524 21.0454 5.12203 20.9366 5.12203C20.8278 5.12203 20.7235 5.16524 20.6466 5.24216C20.5697 5.31908 20.5264 5.42341 20.5264 5.53219V6.12937H19.9287C19.8199 6.12937 19.7156 6.17259 19.6387 6.24951C19.5618 6.32643 19.5186 6.43075 19.5186 6.53953C19.5186 6.64831 19.5618 6.75264 19.6387 6.82956C19.7156 6.90647 19.8199 6.94969 19.9287 6.94969H20.5264V7.54688C20.5264 7.65566 20.5697 7.75998 20.6466 7.8369C20.7235 7.91382 20.8278 7.95703 20.9366 7.95703C21.0454 7.95703 21.1497 7.91382 21.2266 7.8369C21.3035 7.75998 21.3468 7.65566 21.3468 7.54688V6.94969H21.9445C22.0533 6.94969 22.1576 6.90647 22.2345 6.82956C22.3114 6.75264 22.3546 6.64831 22.3546 6.53953C22.3546 6.43075 22.3114 6.32643 22.2345 6.24951C22.1576 6.17259 22.0533 6.12937 21.9445 6.12937ZM25.2596 2.5118H24.6641V1.91406C24.6641 1.80528 24.6209 1.70096 24.544 1.62404C24.4671 1.54712 24.3627 1.50391 24.2539 1.50391C24.1452 1.50391 24.0408 1.54712 23.9639 1.62404C23.887 1.70096 23.8438 1.80528 23.8438 1.91406V2.5118H23.2422C23.1334 2.5118 23.0291 2.55501 22.9522 2.63193C22.8753 2.70885 22.8321 2.81317 22.8321 2.92195C22.8321 3.03073 22.8753 3.13506 22.9522 3.21198C23.0291 3.2889 23.1334 3.33211 23.2422 3.33211H23.8438V3.9293C23.8438 4.03808 23.887 4.1424 23.9639 4.21932C24.0408 4.29624 24.1452 4.33945 24.2539 4.33945C24.3627 4.33945 24.4671 4.29624 24.544 4.21932C24.6209 4.1424 24.6641 4.03808 24.6641 3.9293V3.33211H25.2618C25.3706 3.33211 25.4749 3.2889 25.5519 3.21198C25.6288 3.13506 25.672 3.03073 25.672 2.92195C25.672 2.81317 25.6288 2.70885 25.5519 2.63193C25.4749 2.55501 25.3706 2.5118 25.2618 2.5118H25.2596Z" fill="#FFDD46"/>
<path d="M20.9366 12.6427C19.8436 12.6418 18.7662 12.9008 17.7931 13.3985V10.9687C17.7931 10.9594 17.7931 10.9496 17.7931 10.9403V7.33692C17.7931 7.32762 17.7931 7.31778 17.7931 7.30793V3.70512C17.7931 3.06254 17.0527 2.52059 15.6516 2.13723C15.5816 2.11808 15.5069 2.12752 15.4438 2.16347C15.3808 2.19942 15.3347 2.25893 15.3155 2.32891C15.2964 2.39889 15.3058 2.47361 15.3417 2.53663C15.3777 2.59966 15.4372 2.64582 15.5072 2.66496C16.7907 3.01606 17.2463 3.44481 17.2463 3.70403C17.2463 4.33785 15.0041 5.2216 11.3504 5.2216C7.69672 5.2216 5.45453 4.33895 5.45453 3.70512C5.45453 3.07129 7.69781 2.18754 11.3504 2.18754C12.1133 2.18603 12.8757 2.22894 13.6336 2.31606C13.6696 2.32089 13.7061 2.31851 13.7411 2.30907C13.7762 2.29963 13.809 2.28331 13.8376 2.26106C13.8663 2.23882 13.8902 2.21109 13.9081 2.1795C13.9259 2.14791 13.9373 2.11308 13.9415 2.07705C13.9458 2.04102 13.9428 2.0045 13.9328 1.96963C13.9228 1.93475 13.906 1.90222 13.8832 1.87392C13.8605 1.84563 13.8324 1.82213 13.8006 1.80481C13.7687 1.78748 13.7337 1.77667 13.6976 1.77301C12.9184 1.68325 12.1347 1.63906 11.3504 1.64067C9.6775 1.64067 8.10141 1.83098 6.91195 2.17606C5.59945 2.55887 4.90766 3.08551 4.90766 3.70731V7.31012C4.90766 7.31996 4.90766 7.32981 4.90766 7.3391V10.7636C3.87352 10.8468 2.92305 11.0059 2.14102 11.2329C0.828516 11.6157 0.136719 12.1423 0.136719 12.7641V16.3669C0.136719 16.374 0.136719 16.3811 0.136719 16.3882C0.136719 16.3954 0.136719 16.3932 0.136719 16.3959V19.9987C0.136719 20.0058 0.136719 20.0129 0.136719 20.02C0.136719 20.0272 0.136719 20.025 0.136719 20.0277V23.625C0.136719 24.2447 0.82961 24.7735 2.14102 25.1563C3.32992 25.5019 4.90656 25.6917 6.57945 25.6917C8.25234 25.6917 9.82898 25.5019 11.0179 25.1563C12.1784 24.8194 12.8543 24.3666 12.9943 23.8372C13.7499 23.7821 14.5005 23.6724 15.2403 23.5091C15.9184 24.4891 16.8379 25.2775 17.9098 25.7981C18.9817 26.3187 20.1699 26.5539 21.3593 26.481C22.5487 26.408 23.6992 26.0294 24.6995 25.3817C25.6998 24.7341 26.5161 23.8392 27.0694 22.7838C27.6227 21.7283 27.8942 20.548 27.8578 19.3568C27.8215 18.1657 27.4783 17.0042 26.8617 15.9844C26.245 14.9647 25.3756 14.1214 24.3377 13.536C23.2997 12.9506 22.1282 12.6429 20.9366 12.6427ZM15.2031 15.6899C14.4854 15.8551 13.7564 15.9666 13.0222 16.0235V12.9386C14.6382 12.8073 16.3838 12.4524 17.2463 11.8235V13.7097C16.4367 14.2227 15.7412 14.8967 15.2031 15.6899ZM14.0126 19.5432C13.6936 19.588 13.3643 19.6245 13.0249 19.6525V16.5704C13.6262 16.5236 14.2244 16.4442 14.817 16.3325C14.2906 17.321 14.0135 18.4232 14.0098 19.5432H14.0126ZM0.686328 17.2463C1.62258 17.931 3.62414 18.3176 5.61258 18.4073H5.62516C5.69768 18.409 5.76789 18.3818 5.82035 18.3317C5.87281 18.2816 5.90321 18.2127 5.90488 18.1402C5.90655 18.0676 5.87934 17.9974 5.82924 17.945C5.77914 17.8925 5.71025 17.8621 5.63773 17.8604C2.40625 17.7133 0.683594 16.8985 0.683594 16.3631V13.6413C1.01992 13.8874 1.50828 14.1056 2.14102 14.2893C3.32992 14.6344 4.90656 14.8247 6.57945 14.8247C8.25234 14.8247 9.82898 14.6344 11.0179 14.2893C11.6506 14.1056 12.139 13.8874 12.4753 13.6413V16.3631C12.4753 16.8963 10.7548 17.7133 7.52391 17.8593C7.45139 17.861 7.3825 17.8914 7.3324 17.9439C7.2823 17.9963 7.25509 18.0665 7.25676 18.1391C7.25843 18.2116 7.28883 18.2805 7.34129 18.3306C7.39375 18.3807 7.46396 18.4079 7.53648 18.4062H7.54688C9.53531 18.3165 11.5391 17.9299 12.4731 17.2452V19.9954C12.4731 20.6293 10.2309 21.513 6.57727 21.513C2.92359 21.513 0.683594 20.6287 0.683594 19.9949L0.686328 17.2463ZM6.91195 5.23418C8.10141 5.57926 9.6775 5.76957 11.3504 5.76957C13.0233 5.76957 14.6016 5.57817 15.7888 5.23418C16.4216 5.05043 16.9099 4.83223 17.2463 4.58614V7.30793C17.2463 7.94176 15.0041 8.82606 11.3504 8.82606C7.69672 8.82606 5.45453 7.94176 5.45453 7.30793V4.58614C5.79086 4.83223 6.27922 5.05043 6.91195 5.23418ZM5.45453 8.18731C5.79086 8.43395 6.27922 8.65215 6.91195 8.83535C8.10141 9.18098 9.6775 9.37129 11.3504 9.37129C13.0233 9.37129 14.5999 9.18098 15.7888 8.83535C16.4216 8.65215 16.9099 8.43395 17.2463 8.18731V10.9386C17.2463 11.2624 16.6359 11.5982 16.065 11.8038C15.2688 12.0909 14.1646 12.2993 12.938 12.395C12.7192 11.9318 12.063 11.5331 11.0179 11.229C9.82898 10.8839 8.25234 10.6936 6.57945 10.6936C6.19664 10.6936 5.82258 10.704 5.45453 10.7237V8.18731ZM6.57945 11.2405C10.2326 11.2405 12.4753 12.1248 12.4753 12.7586C12.4753 13.3925 10.2331 14.2762 6.57945 14.2762C2.92578 14.2762 0.683594 13.3936 0.683594 12.7603C0.683594 12.127 2.92633 11.2422 6.57945 11.2422V11.2405ZM6.57945 25.1426C2.92633 25.1443 0.683594 24.2605 0.683594 23.625V20.8743C1.01992 21.1204 1.50828 21.3386 2.14102 21.5223C3.33047 21.8674 4.90656 22.0577 6.57945 22.0577C8.25234 22.0577 9.82898 21.8674 11.0179 21.5223C11.6506 21.3386 12.139 21.1204 12.4753 20.8743V23.625C12.4753 24.2605 10.2326 25.1443 6.57945 25.1443V25.1426ZM13.0222 23.2832V20.2016C13.3667 20.1737 13.7036 20.1376 14.029 20.0922C14.1062 21.1218 14.4141 22.1208 14.9297 23.0153C14.3001 23.1447 13.663 23.235 13.0222 23.2854V23.2832ZM20.9366 25.9493C19.6747 25.9493 18.4413 25.5751 17.3921 24.8741C16.343 24.173 15.5252 23.1766 15.0424 22.0109C14.5595 20.8451 14.4331 19.5623 14.6793 18.3248C14.9255 17.0872 15.5331 15.9504 16.4253 15.0582C17.3176 14.166 18.4543 13.5583 19.6919 13.3122C20.9295 13.066 22.2123 13.1923 23.378 13.6752C24.5438 14.1581 25.5402 14.9758 26.2412 16.025C26.9422 17.0741 27.3164 18.3076 27.3164 19.5694C27.3144 21.2608 26.6416 22.8824 25.4456 24.0784C24.2495 25.2744 22.628 25.9472 20.9366 25.9493Z" fill="black"/>
<path d="M21.5617 19.296H21.2883C21.2158 19.296 21.1462 19.3248 21.095 19.3761C21.0437 19.4274 21.0149 19.497 21.0149 19.5695C21.0149 19.642 21.0437 19.7115 21.095 19.7628C21.1462 19.8141 21.2158 19.8429 21.2883 19.8429H21.5617C21.9275 19.8429 22.2783 19.6976 22.537 19.4389C22.7957 19.1803 22.941 18.8295 22.941 18.4637C22.941 18.0979 22.7957 17.7471 22.537 17.4884C22.2783 17.2298 21.9275 17.0845 21.5617 17.0845H19.9031C19.8306 17.0845 19.761 17.1133 19.7097 17.1646C19.6584 17.2158 19.6296 17.2854 19.6296 17.3579V21.781C19.6296 21.8536 19.6584 21.9231 19.7097 21.9744C19.761 22.0257 19.8306 22.0545 19.9031 22.0545C19.9756 22.0545 20.0451 22.0257 20.0964 21.9744C20.1477 21.9231 20.1765 21.8536 20.1765 21.781V17.6313H21.5617C21.7825 17.6313 21.9942 17.719 22.1503 17.8751C22.3064 18.0312 22.3941 18.2429 22.3941 18.4637C22.3941 18.6844 22.3064 18.8962 22.1503 19.0522C21.9942 19.2083 21.7825 19.296 21.5617 19.296Z" fill="black"/>
<path d="M25.5986 20.2585C25.5634 20.2512 25.5272 20.2509 25.4919 20.2577C25.4566 20.2644 25.4229 20.2781 25.3929 20.2978C25.3629 20.3176 25.3371 20.3431 25.3169 20.3728C25.2968 20.4026 25.2827 20.436 25.2754 20.4712C25.0521 21.5445 24.4387 22.4969 23.5539 23.1441C22.669 23.7914 21.5756 24.0875 20.4851 23.9753C19.3945 23.863 18.3843 23.3504 17.6499 22.5364C16.9155 21.7225 16.5089 20.6652 16.5089 19.5689C16.5089 18.4726 16.9155 17.4152 17.6499 16.6013C18.3843 15.7874 19.3945 15.2747 20.4851 15.1625C21.5756 15.0502 22.669 15.3463 23.5539 15.9936C24.4387 16.6408 25.0521 17.5932 25.2754 18.6665C25.2826 18.7017 25.2966 18.7351 25.3167 18.7649C25.3368 18.7947 25.3626 18.8202 25.3926 18.84C25.4225 18.8598 25.4561 18.8735 25.4914 18.8803C25.5266 18.8872 25.5629 18.887 25.5981 18.8798C25.6333 18.8726 25.6667 18.8586 25.6965 18.8385C25.7262 18.8184 25.7517 18.7926 25.7715 18.7626C25.7913 18.7327 25.8051 18.6991 25.8119 18.6639C25.8187 18.6286 25.8185 18.5923 25.8114 18.5571C25.5609 17.351 24.8721 16.2807 23.8781 15.5531C22.8841 14.8255 21.6556 14.4925 20.4302 14.6183C19.2048 14.7442 18.0697 15.3201 17.2443 16.2345C16.419 17.149 15.9622 18.337 15.9622 19.5689C15.9622 20.8007 16.419 21.9887 17.2443 22.9032C18.0697 23.8176 19.2048 24.3935 20.4302 24.5194C21.6556 24.6452 22.8841 24.3122 23.8781 23.5846C24.8721 22.857 25.5609 21.7867 25.8114 20.5806C25.8257 20.5097 25.8114 20.4359 25.7715 20.3756C25.7317 20.3152 25.6695 20.2731 25.5986 20.2585Z" fill="black"/>
</svg>
