<svg width="17" height="17" viewBox="0 0 17 17" fill="none" xmlns="http://www.w3.org/2000/svg">
<g clip-path="url(#clip0_1017_11784)">
<path fill-rule="evenodd" clip-rule="evenodd" d="M2.39328 3.3838C2.39063 2.60366 2.39062 1.85938 2.39062 1.85938C2.39062 1.56613 2.15156 1.32812 1.85938 1.32812C1.56719 1.32812 1.32812 1.56613 1.32812 1.85938C1.32812 1.85938 1.32813 3.21566 1.33344 4.18731C1.33344 4.53714 1.56451 4.84712 1.90185 4.94567C2.24185 5.04422 2.60313 4.90822 2.79172 4.61151C4.02953 2.79411 6.12531 1.59375 8.5 1.59375C12.3117 1.59375 15.4062 4.68828 15.4062 8.5C15.4062 12.3117 12.3117 15.4062 8.5 15.4062C4.68828 15.4062 1.59375 12.3117 1.59375 8.5C1.59375 8.20675 1.35469 7.96875 1.0625 7.96875C0.770312 7.96875 0.53125 8.20675 0.53125 8.5C0.53125 12.898 4.10125 16.4688 8.5 16.4688C12.8988 16.4688 16.4688 12.898 16.4688 8.5C16.4688 4.10205 12.8988 0.53125 8.5 0.53125C6.04828 0.53125 3.85422 1.64024 2.39328 3.3838ZM8.5 2.65625C5.27531 2.65625 2.65625 5.27478 2.65625 8.5C2.65625 11.7252 5.27531 14.3438 8.5 14.3438C11.7247 14.3438 14.3438 11.7252 14.3438 8.5C14.3438 5.27478 11.7247 2.65625 8.5 2.65625ZM7.96875 5.3125V8.5C7.96875 8.64078 8.02455 8.77598 8.12549 8.87559L9.45362 10.2037C9.6608 10.4112 9.99545 10.4112 10.2026 10.2037C10.4125 9.99653 10.4125 9.65972 10.2026 9.45253L9.03125 8.28006V5.3125C9.03125 5.01925 8.79219 4.78125 8.5 4.78125C8.20781 4.78125 7.96875 5.01925 7.96875 5.3125Z" fill="#E44700"/>
</g>
<defs>
<clipPath id="clip0_1017_11784">
<rect width="17" height="17" fill="white"/>
</clipPath>
</defs>
</svg>
