<svg width="75" height="75" viewBox="0 0 75 75" fill="none" xmlns="http://www.w3.org/2000/svg">
<path d="M54.4913 67.6289H20.5089C17.7306 67.6289 15.4786 65.3767 15.4786 62.5986V39.9707C15.4786 37.1925 17.7306 34.9404 20.5089 34.9404H54.4913C57.2694 34.9404 59.5215 37.1926 59.5215 39.9707V62.5986C59.5215 65.3767 57.2694 67.6289 54.4913 67.6289Z" fill="url(#paint0_linear_144_7566)"/>
<path d="M55.3009 32.856H49.4416V25.0753C49.4416 18.544 44.128 13.2305 37.5968 13.2305C31.0655 13.2305 25.752 18.544 25.752 25.0753V32.856H19.8926V25.0753C19.8926 15.3132 27.8347 7.37109 37.5968 7.37109C47.359 7.37109 55.3009 15.3132 55.3009 25.0753V32.856ZM42.627 48.024C42.627 45.1925 40.3315 42.8971 37.5 42.8971C34.6685 42.8971 32.373 45.1925 32.373 48.024C32.373 49.6061 33.0901 51.0201 34.2161 51.9605L32.4976 58.1108H42.46L40.7495 51.9895C41.8956 51.0492 42.627 49.6222 42.627 48.024Z" fill="#3F5EAB"/>
<defs>
<linearGradient id="paint0_linear_144_7566" x1="19.7905" y1="68.9941" x2="55.2095" y2="33.575" gradientUnits="userSpaceOnUse">
<stop stop-color="#FF7BAC"/>
<stop offset="1" stop-color="#00FFFF"/>
</linearGradient>
</defs>
</svg>
