<svg width="21" height="18" viewBox="0 0 21 18" fill="none" xmlns="http://www.w3.org/2000/svg">
<path fill-rule="evenodd" clip-rule="evenodd" d="M10.5509 10.4608L10.7372 10.4414V10.4608C10.983 10.4685 11.2257 10.517 11.4555 10.6045L11.8593 10.7675L10.5548 11.2723L9.3667 10.8103L9.73943 10.6394C9.9944 10.5278 10.2726 10.4672 10.5509 10.4608Z" fill="white"/>
<path fill-rule="evenodd" clip-rule="evenodd" d="M19.5893 13.7549V13.7937L19.566 14.741L12.7754 12.1242L16.3279 10.7109L16.4056 10.8119C16.6696 11.1574 16.9686 11.4836 17.2986 11.7592C17.7917 12.1708 18.3779 12.4581 18.9991 12.6017C19.1539 12.6454 19.2919 12.7347 19.3952 12.858C19.6048 13.1065 19.6398 13.4326 19.5932 13.7432V13.7549H19.5893Z" fill="white"/>
<path fill-rule="evenodd" clip-rule="evenodd" d="M8.80352 12.3125L10.0925 12.825L2.35458 15.9039H2.3274C2.2172 15.9178 2.10529 15.9076 1.99939 15.8741C1.89349 15.8406 1.79611 15.7845 1.71396 15.7097C1.6026 15.5927 1.53182 15.443 1.51207 15.2827L1.48877 15.1507L1.61689 15.1002C3.98914 14.1723 6.36527 13.2521 8.7414 12.3358L8.80352 12.3125Z" fill="white"/>
<path fill-rule="evenodd" clip-rule="evenodd" d="M1.5198 13.7548V13.7393C1.47321 13.4287 1.50427 13.1026 1.71393 12.8541C1.81717 12.7308 1.95518 12.6415 2.10995 12.5978C2.73504 12.4542 3.32131 12.1708 3.81439 11.7553C4.14441 11.4797 4.44337 11.1535 4.7035 10.808L4.78115 10.707L8.33758 12.1203L7.92603 12.2756C5.87215 13.0676 3.82216 13.8674 1.77217 14.6634L1.54698 14.7527L1.5198 13.7898V13.7548Z" fill="white"/>
<path fill-rule="evenodd" clip-rule="evenodd" d="M8.70662 11.9029L4.78523 10.346L4.77747 10.3382L2.81677 9.56169C2.5237 9.46432 2.24835 9.32009 2.00143 9.13461C1.77625 8.95989 1.57823 8.72306 1.54717 8.42798L1.51611 8.14844L9.07158 11.0604L9.09876 11.072L10.4693 11.6L10.5198 11.6194L12.2436 12.2873L12.2708 12.295L19.6205 15.1293L19.605 15.2613C19.5879 15.4231 19.52 15.5754 19.4109 15.6961C19.2439 15.8709 19.0148 15.9174 18.7819 15.9019H18.7547L10.6479 12.6755L10.5897 12.6522L8.70662 11.9029Z" fill="white"/>
<path fill-rule="evenodd" clip-rule="evenodd" d="M18.6498 8.5134L18.6692 8.50563L19.5972 8.14844L19.5661 8.42798C19.5594 8.48489 19.5463 8.54089 19.5273 8.59493C19.4421 8.8124 19.295 9.00006 19.1041 9.13461C18.9472 9.25231 18.778 9.35255 18.5993 9.43357C18.5023 9.48016 18.4052 9.5151 18.3043 9.55781L16.3397 10.3382L16.3203 10.346L12.3057 11.9417L11.0322 11.4486L12.1388 11.0215C12.1504 11.0215 12.1659 11.0138 12.1776 11.006L18.6498 8.5134Z" fill="white"/>
<path fill-rule="evenodd" clip-rule="evenodd" d="M10.8109 9.91306C10.9267 9.50963 11.137 9.13962 11.4244 8.83371C11.9951 8.22415 12.8221 7.8786 13.6141 7.66506C14.0335 7.54858 14.4605 7.46317 14.8915 7.39328L16.0174 7.21856C16.262 7.17974 16.5299 7.14091 16.7629 7.06326C16.8017 7.04773 16.9842 6.98173 16.9958 6.93125L16.9997 6.92737V0.144531L18.4945 1.20447L18.4285 8.23191L12.1543 10.6508L12.0766 10.5809C11.9274 10.4522 11.7565 10.351 11.5719 10.2819C11.3734 10.2063 11.1659 10.1567 10.9546 10.1344L10.7527 10.1111L10.8109 9.91306Z" fill="white"/>
<path fill-rule="evenodd" clip-rule="evenodd" d="M10.1586 10.1577C9.98963 10.1862 9.82429 10.233 9.66551 10.2974C9.47808 10.3731 9.30679 10.4838 9.16077 10.6236L9.08312 10.7012L2.62254 8.2125L2.61865 1.20447L4.11344 0.144531V6.93125C4.11344 7.0322 4.20274 7.10209 4.2998 7.10209C4.7233 7.11886 5.14571 7.15644 5.56552 7.21468C6.32262 7.31951 7.09137 7.48646 7.80576 7.75048C8.85405 8.13873 9.95282 8.79877 10.2906 9.93636L10.3488 10.1227L10.1586 10.1577Z" fill="white"/>
<path fill-rule="evenodd" clip-rule="evenodd" d="M10.3877 3.46713V9.21333L10.0771 8.84448C8.90452 7.43123 6.36144 6.9032 4.61429 6.77508L4.45898 6.76343V0L4.64535 0.0155301C6.25661 0.16695 8.39979 0.578502 9.60726 1.77045C9.89457 2.05388 10.1392 2.39166 10.2751 2.77603C10.3333 2.93134 10.3838 3.12546 10.3838 3.29241L10.3877 3.46713Z" fill="white"/>
<path fill-rule="evenodd" clip-rule="evenodd" d="M10.7256 3.32736V3.2963C10.7256 3.13323 10.7799 2.93522 10.8343 2.7838C10.9771 2.40271 11.2025 2.05798 11.4943 1.77433C12.7018 0.582385 14.8528 0.16695 16.4679 0.0155301L16.6543 0V6.76343L16.499 6.77508C14.7518 6.9032 12.2126 7.43511 11.0284 8.84448L10.7256 9.20556V3.32736Z" fill="white"/>
<path fill-rule="evenodd" clip-rule="evenodd" d="M1.31026 16.2734H19.799C19.9813 16.2734 20.1561 16.3458 20.285 16.4747C20.4138 16.6036 20.4862 16.7784 20.4862 16.9607C20.4862 17.1429 20.4138 17.3177 20.285 17.4466C20.1561 17.5755 19.9813 17.6479 19.799 17.6479H1.31026C1.128 17.6479 0.953205 17.5755 0.824327 17.4466C0.69545 17.3177 0.623047 17.1429 0.623047 16.9607C0.623047 16.7784 0.69545 16.6036 0.824327 16.4747C0.953205 16.3458 1.128 16.2734 1.31026 16.2734Z" fill="white"/>
</svg>
