<svg width="32" height="32" viewBox="0 0 32 32" fill="none" xmlns="http://www.w3.org/2000/svg">
<path d="M9 25.3333C9 25.68 9.06667 26.0266 9.17333 26.3333H5.33333C4.05333 26.3333 3 25.28 3 24V18.6666C3 17.3866 4.05333 16.3333 5.33333 16.3333H9V25.3333ZM26.6667 12.3333H23V25.3333C23 25.68 22.9333 26.0266 22.8267 26.3333H26.6667C27.9467 26.3333 29 25.28 29 24V14.6666C29 13.3866 27.9467 12.3333 26.6667 12.3333ZM18.6667 5.66663H13.3333C12.0467 5.66663 11 6.71329 11 7.99996V25.3333C11 25.8853 11.448 26.3333 12 26.3333H20C20.552 26.3333 21 25.8853 21 25.3333V7.99996C21 6.71329 19.9533 5.66663 18.6667 5.66663Z" fill="url(#paint0_linear_1461_606)"/>
<defs>
<linearGradient id="paint0_linear_1461_606" x1="7.01867" y1="28.9786" x2="25.6453" y2="10.352" gradientUnits="userSpaceOnUse">
<stop stop-color="#5433FF"/>
<stop offset="1" stop-color="#20BDFF"/>
</linearGradient>
</defs>
</svg>
