<svg width="28" height="28" viewBox="0 0 28 28" fill="none" xmlns="http://www.w3.org/2000/svg">
<path d="M10.1875 0.875C9.69022 0.875 9.21331 1.07254 8.86168 1.42417C8.51004 1.77581 8.3125 2.25272 8.3125 2.75V25.25C8.3125 25.7473 8.51004 26.2242 8.86168 26.5758C9.21331 26.9275 9.69022 27.125 10.1875 27.125C10.6848 27.125 11.1617 26.9275 11.5133 26.5758C11.865 26.2242 12.0625 25.7473 12.0625 25.25V2.75C12.0625 2.25272 11.865 1.77581 11.5133 1.42417C11.1617 1.07254 10.6848 0.875 10.1875 0.875ZM2.6875 12.125C2.19022 12.125 1.71331 12.3225 1.36167 12.6742C1.01004 13.0258 0.8125 13.5027 0.8125 14V25.25C0.8125 25.7473 1.01004 26.2242 1.36167 26.5758C1.71331 26.9275 2.19022 27.125 2.6875 27.125C3.18478 27.125 3.66169 26.9275 4.01333 26.5758C4.36496 26.2242 4.5625 25.7473 4.5625 25.25V14C4.5625 13.5027 4.36496 13.0258 4.01333 12.6742C3.66169 12.3225 3.18478 12.125 2.6875 12.125ZM17.6875 6.5C17.1902 6.5 16.7133 6.69754 16.3617 7.04918C16.01 7.40081 15.8125 7.87772 15.8125 8.375V25.25C15.8125 25.7473 16.01 26.2242 16.3617 26.5758C16.7133 26.9275 17.1902 27.125 17.6875 27.125C18.1848 27.125 18.6617 26.9275 19.0133 26.5758C19.365 26.2242 19.5625 25.7473 19.5625 25.25V8.375C19.5625 7.87772 19.365 7.40081 19.0133 7.04918C18.6617 6.69754 18.1848 6.5 17.6875 6.5ZM25.1875 18.6875C24.6902 18.6875 24.2133 18.885 23.8617 19.2367C23.51 19.5883 23.3125 20.0652 23.3125 20.5625V25.25C23.3125 25.7473 23.51 26.2242 23.8617 26.5758C24.2133 26.9275 24.6902 27.125 25.1875 27.125C25.6848 27.125 26.1617 26.9275 26.5133 26.5758C26.865 26.2242 27.0625 25.7473 27.0625 25.25V20.5625C27.0625 20.0652 26.865 19.5883 26.5133 19.2367C26.1617 18.885 25.6848 18.6875 25.1875 18.6875Z" fill="#BA63C6"/>
</svg>
