<svg width="23" height="24" viewBox="0 0 23 24" fill="none" xmlns="http://www.w3.org/2000/svg">
<path d="M22.6255 10.4555L17.9624 15.4155L19.0632 22.418C19.1024 22.6669 19.0769 22.9227 18.9898 23.1566C18.9026 23.3906 18.7571 23.5932 18.5699 23.7416C18.3826 23.89 18.161 23.9782 17.9302 23.9963C17.6994 24.0144 17.4685 23.9616 17.2637 23.844L11.5001 20.538L5.73615 23.844C5.53144 23.9618 5.30057 24.0146 5.06973 23.9965C4.83889 23.9784 4.61732 23.89 4.43019 23.7414C4.24294 23.5931 4.09748 23.3905 4.01026 23.1566C3.92305 22.9227 3.89756 22.6669 3.93669 22.418L5.0375 15.4155L0.374462 10.4555C0.208806 10.2793 0.0916286 10.056 0.0361668 9.81085C-0.019295 9.56575 -0.0108302 9.30861 0.0606052 9.06848C0.132191 8.82835 0.263877 8.61485 0.440794 8.45207C0.617712 8.28929 0.832814 8.18372 1.06181 8.14728L7.50597 7.12575L10.3878 0.754613C10.5969 0.292754 11.028 0 11.5001 0C11.9722 0 12.4029 0.292754 12.6121 0.754613L15.4939 7.12575L21.9385 8.14728C22.1675 8.18373 22.3825 8.28932 22.5593 8.4521C22.7361 8.61489 22.8677 8.82839 22.9391 9.06848C23.0108 9.30857 23.0194 9.56574 22.9639 9.81088C22.9085 10.056 22.7913 10.2793 22.6255 10.4555Z" fill="#D9D9D9"/>
</svg>
