<svg width="24" height="24" viewBox="0 0 24 24" fill="none" xmlns="http://www.w3.org/2000/svg">
<path d="M23.6093 10.4555L18.7433 15.4155L19.892 22.418C19.9329 22.6669 19.9064 22.9227 19.8154 23.1566C19.7244 23.3906 19.5726 23.5932 19.3773 23.7416C19.1819 23.89 18.9506 23.9782 18.7098 23.9963C18.4689 24.0144 18.228 23.9616 18.0143 23.844L12.0001 20.538L5.98555 23.844C5.77194 23.9618 5.53103 24.0146 5.29015 23.9965C5.04927 23.9784 4.81808 23.89 4.62281 23.7414C4.42741 23.5931 4.27563 23.3905 4.18462 23.1566C4.09362 22.9227 4.06702 22.6669 4.10785 22.418L5.25652 15.4155L0.390743 10.4555C0.217885 10.2793 0.0956125 10.056 0.0377393 9.81085C-0.0201339 9.56575 -0.0113011 9.30861 0.0632402 9.06848C0.137938 8.82835 0.27535 8.61485 0.459959 8.45207C0.644569 8.28929 0.869023 8.18372 1.10798 8.14728L7.83231 7.12575L10.8394 0.754613C11.0577 0.292754 11.5075 0 12.0001 0C12.4928 0 12.9422 0.292754 13.1605 0.754613L16.1675 7.12575L22.8924 8.14728C23.1313 8.18373 23.3556 8.28932 23.5401 8.4521C23.7247 8.61489 23.8619 8.82839 23.9365 9.06848C24.0112 9.30857 24.0202 9.56574 23.9624 9.81088C23.9045 10.056 23.7822 10.2793 23.6093 10.4555Z" fill="#FFBE55"/>
</svg>
