<svg width="16" height="16" viewBox="0 0 16 16" fill="none" xmlns="http://www.w3.org/2000/svg">
<g clip-path="url(#clip0_108_5615)">
<path d="M8 16C12.4183 16 16 12.4183 16 8C16 3.58172 12.4183 0 8 0C3.58172 0 0 3.58172 0 8C0 12.4183 3.58172 16 8 16Z" fill="#3A6C87"/>
<path d="M9.38322 15.8781C9.63797 15.8338 9.89043 15.7772 10.1397 15.7085C10.3966 15.6369 10.6497 15.5526 10.8981 15.4557C11.1466 15.3591 11.3901 15.2502 11.6277 15.1293C11.8657 15.0083 12.0974 14.8754 12.3221 14.7312C12.5465 14.5871 12.7635 14.4318 12.9723 14.266C13.1813 14.1003 13.3819 13.9243 13.5733 13.7386C13.7647 13.5528 13.9467 13.3576 14.1186 13.1536C14.2901 12.9498 14.4514 12.7374 14.6018 12.5175C14.7528 12.297 14.8927 12.0691 15.021 11.8346C15.1487 11.6005 15.2647 11.3602 15.3685 11.1146C15.4721 10.8689 15.5633 10.6181 15.6418 10.3632C15.7137 10.1283 15.7748 9.89019 15.8248 9.64963L11.3256 5.15043C11.3096 5.13507 11.2911 5.12163 11.2744 5.10563C11.2219 5.05443 11.165 5.00835 11.1093 4.95971C10.9387 4.80952 10.7568 4.67259 10.5653 4.55011C10.4289 4.46313 10.2879 4.38366 10.1429 4.31203C10.0853 4.28323 10.0277 4.25251 9.96818 4.22627C9.75822 4.13158 9.54125 4.05327 9.31922 3.99203L9.15474 4.61091L11.8523 7.30851C11.8818 7.41731 11.9157 7.52611 11.9355 7.63875C11.9419 7.67395 11.9464 7.70979 11.9522 7.74627C11.9803 7.93443 12.0008 8.12579 12.0008 8.32099C12.0008 8.61347 11.956 8.89507 11.8933 9.17091L6.60178 3.87939L3.95922 4.25315L4.93074 5.22467C4.26963 5.91132 3.84516 6.79121 3.71922 7.73603C3.59002 8.71347 3.78758 9.70621 4.28114 10.5597C4.39698 10.76 4.5301 10.945 4.67154 11.121C4.71378 11.1741 4.76114 11.2215 4.8053 11.272C4.86802 11.3437 4.92562 11.4205 4.99282 11.4871L9.38386 15.8788L9.38322 15.8781Z" fill="#2F4B6C"/>
<path d="M6.60223 3.87939L3.96031 4.25315L4.93119 5.22467C4.27032 5.91141 3.84608 6.79129 3.72031 7.73603C3.59092 8.7134 3.78825 9.70613 4.28159 10.5597C4.77492 11.4133 5.53591 12.0803 6.4467 12.4576C7.35749 12.8349 8.36728 12.9014 9.31967 12.6468C10.272 12.3913 11.1136 11.8289 11.7141 11.0468C12.3146 10.2647 12.6405 9.3064 12.6413 8.32035C12.6406 7.33411 12.3148 6.3756 11.7144 5.59324C11.1139 4.81087 10.2722 4.24831 9.31967 3.99267L9.15519 4.61155C9.9718 4.83004 10.6934 5.31201 11.2081 5.98263C11.7227 6.65326 12.0015 7.47502 12.0013 8.32035C12.0017 9.16557 11.7229 9.98726 11.2082 10.6577C10.6935 11.3282 9.97181 11.8098 9.15519 12.0279C8.33864 12.2472 7.47253 12.1907 6.69136 11.8672C5.91019 11.5438 5.25769 10.9714 4.83519 10.2391C4.42161 9.52144 4.25171 8.68911 4.35093 7.86679C4.45016 7.04448 4.81318 6.27645 5.38559 5.67779L6.22527 6.51747L6.31615 5.88387L6.60223 3.87939Z" fill="white"/>
</g>
<defs>
<clipPath id="clip0_108_5615">
<rect width="16" height="16" fill="white"/>
</clipPath>
</defs>
</svg>
