<svg width="20" height="20" viewBox="0 0 20 20" fill="none" xmlns="http://www.w3.org/2000/svg">
<g clip-path="url(#clip0_1154_348)">
<path d="M1.35108 8.86249C1.26672 8.85126 1.18555 8.82291 1.11254 8.7792C1.03952 8.73548 0.976206 8.67732 0.926466 8.60827C0.876727 8.53922 0.841612 8.46074 0.823275 8.37763C0.804938 8.29453 0.803765 8.20856 0.819828 8.12499C0.844828 8.01249 0.869828 7.89999 0.894828 7.78749C0.913967 7.70235 0.950724 7.62216 1.00273 7.55208C1.05474 7.482 1.12085 7.4236 1.1968 7.38062C1.27275 7.33764 1.35686 7.31104 1.44371 7.30253C1.53056 7.29403 1.61823 7.30381 1.70108 7.33124C1.84835 7.38017 1.97215 7.48213 2.04839 7.61729C2.12464 7.75245 2.14787 7.91115 2.11358 8.06249C2.08441 8.17499 2.05941 8.28749 2.03858 8.39999C2.00023 8.54774 1.90914 8.67634 1.78249 8.76154C1.65584 8.84675 1.50238 8.88265 1.35108 8.86249Z" fill="black"/>
<path d="M10.237 19.3751C8.09285 19.4365 5.99252 18.7608 4.2864 17.4607C2.58029 16.1607 1.37158 14.3149 0.861956 12.2313C0.83891 12.147 0.833808 12.0588 0.84698 11.9724C0.860151 11.8859 0.891304 11.8032 0.938424 11.7296C0.985545 11.656 1.04759 11.5931 1.12054 11.5449C1.19349 11.4968 1.27574 11.4644 1.36196 11.4501C1.51584 11.4146 1.67742 11.4388 1.81424 11.5176C1.95105 11.5964 2.05295 11.7241 2.09946 11.8751C2.52042 13.6576 3.53132 15.2457 4.96816 16.3815C6.40501 17.5174 8.18349 18.1345 10.0151 18.1327C11.8467 18.1308 13.6239 17.5102 15.0585 16.3714C16.4931 15.2327 17.5008 13.6426 17.9182 11.8592C18.3356 10.0758 18.1381 8.2037 17.3579 6.5466C16.5777 4.88949 15.2605 3.54461 13.6199 2.73015C11.9794 1.91569 10.1118 1.67943 8.32008 2.05969C6.5284 2.43996 4.91776 3.41444 3.74946 4.82505C3.64698 4.94064 3.50533 5.01418 3.35183 5.0315C3.19833 5.04881 3.04385 5.00866 2.91821 4.9188C2.84609 4.86948 2.78511 4.80558 2.73922 4.73124C2.69332 4.65689 2.66352 4.57375 2.65174 4.48718C2.63996 4.4006 2.64647 4.31252 2.67083 4.22862C2.6952 4.14471 2.73689 4.06685 2.79321 4.00005C4.05074 2.48217 5.75471 1.39928 7.66293 0.905275C9.57116 0.411274 11.5865 0.531303 13.4226 1.2483C15.2587 1.9653 16.8221 3.24279 17.8906 4.8992C18.9591 6.55561 19.4783 8.50666 19.3745 10.4751C19.2382 12.8318 18.2249 15.0522 16.5338 16.6993C14.8427 18.3464 12.5964 19.3009 10.237 19.3751Z" fill="black"/>
<path d="M14.4242 9.375H5.57422C5.22904 9.375 4.94922 9.65482 4.94922 10C4.94922 10.3452 5.22904 10.625 5.57422 10.625H14.4242C14.7694 10.625 15.0492 10.3452 15.0492 10C15.0492 9.65482 14.7694 9.375 14.4242 9.375Z" fill="black"/>
</g>
<defs>
<clipPath id="clip0_1154_348">
<rect width="20" height="20" fill="white"/>
</clipPath>
</defs>
</svg>
