<svg width="18" height="14" viewBox="0 0 18 14" fill="none" xmlns="http://www.w3.org/2000/svg">
<path d="M15.366 0.4375H2.63477C2.17893 0.4375 1.74176 0.618582 1.41943 0.94091C1.09711 1.26324 0.916024 1.70041 0.916024 2.15625V13.0938C0.915459 13.1914 0.945216 13.2869 1.00119 13.3669C1.05716 13.4469 1.13659 13.5076 1.22852 13.5406C1.27789 13.5568 1.32972 13.5642 1.38165 13.5625C1.45244 13.5637 1.52256 13.5486 1.58653 13.5182C1.65049 13.4878 1.70658 13.4431 1.7504 13.3875L3.9379 10.5969H15.366C15.8219 10.5969 16.259 10.4158 16.5814 10.0935C16.9037 9.77114 17.0848 9.33397 17.0848 8.87812V2.1625C17.0856 1.93627 17.0417 1.71209 16.9557 1.50284C16.8697 1.29359 16.7433 1.10338 16.5836 0.943118C16.4239 0.782855 16.2341 0.655693 16.0252 0.568927C15.8163 0.482162 15.5923 0.437499 15.366 0.4375ZM13.8035 8.35625H4.18477C4.06045 8.35625 3.94122 8.30686 3.85332 8.21896C3.76541 8.13105 3.71602 8.01182 3.71602 7.8875C3.71602 7.76318 3.76541 7.64395 3.85332 7.55604C3.94122 7.46814 4.06045 7.41875 4.18477 7.41875H13.816C13.9403 7.41875 14.0596 7.46814 14.1475 7.55604C14.2354 7.64395 14.2848 7.76318 14.2848 7.8875C14.2848 8.01182 14.2354 8.13105 14.1475 8.21896C14.0596 8.30686 13.9403 8.35625 13.816 8.35625H13.8035ZM13.8035 5.98125H4.18477C4.06045 5.98125 3.94122 5.93186 3.85332 5.84396C3.76541 5.75605 3.71602 5.63682 3.71602 5.5125C3.71602 5.38818 3.76541 5.26895 3.85332 5.18104C3.94122 5.09314 4.06045 5.04375 4.18477 5.04375H13.816C13.9403 5.04375 14.0596 5.09314 14.1475 5.18104C14.2354 5.26895 14.2848 5.38818 14.2848 5.5125C14.2848 5.63682 14.2354 5.75605 14.1475 5.84396C14.0596 5.93186 13.9403 5.98125 13.816 5.98125H13.8035ZM13.8035 3.60312H7.93477C7.81045 3.60312 7.69123 3.55374 7.60332 3.46583C7.51541 3.37792 7.46602 3.25869 7.46602 3.13437C7.46602 3.01005 7.51541 2.89083 7.60332 2.80292C7.69123 2.71501 7.81045 2.66562 7.93477 2.66562H13.816C13.9403 2.66562 14.0596 2.71501 14.1475 2.80292C14.2354 2.89083 14.2848 3.01005 14.2848 3.13437C14.2848 3.25869 14.2354 3.37792 14.1475 3.46583C14.0596 3.55374 13.9403 3.60312 13.816 3.60312H13.8035Z" fill="#222222"/>
</svg>
