<svg width="215" height="196" viewBox="0 0 215 196" fill="none" xmlns="http://www.w3.org/2000/svg">
<path d="M71.2669 17.0459C94.8242 1.56257 127.929 4.71858 148.754 27.7008C160.141 40.2709 164.766 57.5616 176.585 69.862C189.892 83.6999 205.795 97.1601 211.826 116.042C218.236 136.111 212.611 159.121 198.276 174.469C180.831 193.135 155.191 187.525 130.958 187.228C31.7252 185.987 -42.0299 119.927 51.8206 38.4906C59.664 31.6391 63.4775 22.1441 71.2669 17.0459Z" fill="#CCE9FF"/>
<path d="M159.221 74.7983H127.577C125.792 74.7983 124.332 73.3417 124.332 71.5614V51.0608C124.332 49.2805 125.792 47.8239 127.577 47.8239H159.221C161.006 47.8239 162.467 49.2805 162.467 51.0608V71.5614C162.467 73.3417 161.006 74.7983 159.221 74.7983Z" fill="white"/>
<path d="M122.601 51.6272V71.8851C122.601 74.6904 124.872 76.9563 127.685 76.9563H158.139C160.952 76.9563 163.224 74.6904 163.224 71.8851V51.6272C163.224 48.8219 160.952 46.556 158.139 46.556H127.685C124.872 46.556 122.601 48.8219 122.601 51.6272ZM125.251 72.3976C125.224 72.2357 125.143 72.0739 125.143 71.912V51.6542C125.143 51.3845 125.224 51.1417 125.305 50.9259L136.043 60.1242L125.251 72.3976ZM158.139 49.0916C158.302 49.0916 158.464 49.1456 158.626 49.1995L142.912 62.6328L127.198 49.1995C127.361 49.1726 127.496 49.0916 127.685 49.0916H158.139ZM149.782 60.0702L160.519 50.8719C160.601 51.1147 160.682 51.3575 160.682 51.6003V71.8581C160.682 72.0469 160.628 72.1818 160.574 72.3436L149.782 60.0702ZM127.685 74.4207C127.415 74.4207 127.198 74.3397 126.955 74.2858L137.963 61.7427L142.074 65.2763C142.317 65.4921 142.615 65.573 142.912 65.573C143.21 65.573 143.507 65.4651 143.751 65.2763L147.862 61.7427L158.87 74.2858C158.626 74.3667 158.41 74.4207 158.139 74.4207H127.685Z" fill="#FFBE55"/>
<path d="M174.638 132.793H150.837C149.052 132.793 147.591 131.337 147.591 129.557V114.613C147.591 112.832 149.052 111.376 150.837 111.376H174.638C176.423 111.376 177.883 112.832 177.883 114.613V129.557C177.883 131.337 176.423 132.793 174.638 132.793Z" fill="white"/>
<path d="M146.726 114.262V130.285C146.726 132.497 148.511 134.304 150.755 134.304H174.854C177.071 134.304 178.884 132.524 178.884 130.285V114.262C178.884 112.05 177.099 110.243 174.854 110.243H150.755C148.538 110.27 146.726 112.05 146.726 114.262ZM148.808 130.689C148.781 130.555 148.727 130.447 148.727 130.285V114.262C148.727 114.046 148.781 113.857 148.835 113.669L157.328 120.925L148.808 130.689ZM174.854 112.266C174.989 112.266 175.097 112.32 175.232 112.347L162.818 122.975L150.404 112.347C150.539 112.32 150.647 112.266 150.783 112.266H174.854ZM168.227 120.952L176.72 113.696C176.774 113.884 176.828 114.073 176.828 114.289V130.312C176.828 130.447 176.774 130.582 176.747 130.716L168.227 120.952ZM150.755 132.281C150.539 132.281 150.377 132.227 150.188 132.173L158.896 122.246L162.169 125.025C162.358 125.187 162.602 125.268 162.818 125.268C163.062 125.268 163.278 125.187 163.467 125.025L166.74 122.246L175.449 132.173C175.259 132.227 175.07 132.281 174.881 132.281H150.755Z" fill="#EB2938"/>
<path d="M186.375 48.2015V59.0452C186.375 60.5558 187.593 61.7696 189.107 61.7696H205.416C206.931 61.7696 208.148 60.5558 208.148 59.0452V48.2015C208.148 46.6909 206.931 45.4771 205.416 45.4771H189.107C187.593 45.4771 186.375 46.6909 186.375 48.2015ZM187.809 59.315C187.782 59.234 187.755 59.1531 187.755 59.0452V48.2015C187.755 48.0666 187.782 47.9317 187.836 47.7969L193.597 52.7062L187.809 59.315ZM205.416 46.8527C205.497 46.8527 205.578 46.8797 205.659 46.9067L197.248 54.1089L188.837 46.9067C188.918 46.8797 188.999 46.8527 189.08 46.8527H205.416ZM200.953 52.7332L206.714 47.8238C206.741 47.9587 206.795 48.0666 206.795 48.2284V59.0722C206.795 59.1531 206.768 59.261 206.741 59.3419L200.953 52.7332ZM189.107 60.3939C188.972 60.3939 188.837 60.367 188.728 60.313L194.625 53.5964L196.842 55.4846C196.978 55.5925 197.14 55.6464 197.275 55.6464C197.437 55.6464 197.6 55.5925 197.708 55.4846L199.926 53.5964L205.822 60.313C205.687 60.34 205.578 60.3939 205.443 60.3939H189.107Z" fill="#CCE9FF"/>
<path d="M190.866 104.201H181.129C179.344 104.201 177.883 102.744 177.883 100.964V95.191C177.883 93.4107 179.344 91.9541 181.129 91.9541H190.866C192.651 91.9541 194.111 93.4107 194.111 95.191V100.964C194.111 102.744 192.651 104.201 190.866 104.201Z" fill="white"/>
<path d="M177.478 93.8423V102.258C177.478 103.418 178.424 104.362 179.587 104.362H192.245C193.408 104.362 194.354 103.418 194.354 102.258V93.8423C194.354 92.6824 193.408 91.7383 192.245 91.7383H179.587C178.424 91.7653 177.478 92.6824 177.478 93.8423ZM178.586 102.474C178.559 102.393 178.532 102.339 178.532 102.258V93.8423C178.532 93.7344 178.559 93.6265 178.586 93.5456L183.049 97.349L178.586 102.474ZM192.245 92.8173C192.326 92.8173 192.38 92.8442 192.434 92.8442L185.916 98.428L179.398 92.8442C179.452 92.8442 179.533 92.8173 179.587 92.8173H192.245ZM188.756 97.349L193.218 93.5456C193.246 93.6535 193.273 93.7344 193.273 93.8423V102.258C193.273 102.339 193.246 102.393 193.218 102.474L188.756 97.349ZM179.587 103.31C179.479 103.31 179.371 103.283 179.29 103.256L183.86 98.0503L185.564 99.5069C185.673 99.5879 185.781 99.6418 185.916 99.6418C186.051 99.6418 186.159 99.5879 186.268 99.5069L187.971 98.0503L192.542 103.256C192.434 103.283 192.353 103.31 192.245 103.31H179.587Z" fill="#FFBE55"/>
<path d="M158.248 24.5178V33.2576C158.248 34.4714 159.221 35.4425 160.438 35.4425H173.556C174.773 35.4425 175.746 34.4714 175.746 33.2576V24.5178C175.746 23.304 174.773 22.3329 173.556 22.3329H160.438C159.248 22.3329 158.248 23.304 158.248 24.5178ZM159.411 33.4733C159.383 33.3924 159.356 33.3385 159.356 33.2576V24.5178C159.356 24.4099 159.383 24.302 159.411 24.1941L164.035 28.1594L159.411 33.4733ZM173.583 23.4388C173.664 23.4388 173.718 23.4658 173.799 23.4928L167.038 29.2923L160.276 23.4928C160.357 23.4658 160.411 23.4388 160.492 23.4388H173.583ZM169.986 28.1594L174.611 24.1941C174.638 24.302 174.665 24.4099 174.665 24.5178V33.2576C174.665 33.3385 174.638 33.3924 174.611 33.4733L169.986 28.1594ZM160.438 34.3365C160.33 34.3365 160.222 34.3096 160.114 34.2826L164.847 28.8877L166.632 30.3983C166.74 30.4792 166.848 30.5331 166.983 30.5331C167.119 30.5331 167.227 30.4792 167.335 30.3983L169.12 28.8877L173.853 34.2826C173.745 34.3096 173.664 34.3365 173.529 34.3365H160.438Z" fill="#EB2938"/>
<path d="M94.9618 177.066L94.5554 187.272C94.5554 187.272 104.885 191.11 105 193L85 192.929V177L94.9618 177.066Z" fill="#90CAF9"/>
<path d="M88.377 187.004C88.2523 187.042 88.1459 187.126 88.078 187.239C88.0101 187.352 87.9853 187.486 88.0084 187.616C88.0414 187.743 88.1215 187.853 88.2322 187.923C88.3428 187.992 88.4756 188.016 88.6031 187.989C88.735 187.949 88.8476 187.861 88.9191 187.741C88.9906 187.622 89.0159 187.48 88.9902 187.343C88.942 187.214 88.8462 187.109 88.7231 187.05C88.6 186.992 88.4592 186.984 88.3305 187.029" fill="#E0E0E0"/>
<path d="M85 192.966L85.0621 192L104.204 192.396C104.204 192.396 105.092 192.627 104.992 193L85 192.966Z" fill="#263238"/>
<path d="M94.9995 187.126C94.9995 187.283 94.4707 187.354 93.942 187.872C93.4133 188.391 93.1277 189.059 93.0273 188.996C92.9268 188.933 93.0907 187.998 93.7411 187.424C94.3914 186.851 95.0206 186.977 94.9995 187.126Z" fill="#263238"/>
<path d="M96.9993 188.051C97.0172 188.174 96.698 188.383 96.4469 188.912C96.1958 189.441 96.124 190.006 96.0523 190C95.9805 189.994 95.9339 189.281 96.2531 188.635C96.5724 187.99 96.9993 187.929 96.9993 188.051Z" fill="#263238"/>
<path d="M98.1255 191C98.0301 191 97.8816 190.433 98.1627 189.808C98.4437 189.184 98.9475 188.923 98.9952 189.02C99.0429 189.116 98.7248 189.456 98.502 189.984C98.2793 190.512 98.2369 190.989 98.1255 191Z" fill="#263238"/>
<path d="M114.979 177.033L114.573 187.262C114.573 187.262 124.89 191.101 125 193L105.029 192.934L105 177L114.979 177.033Z" fill="#90CAF9"/>
<path d="M108.377 186.012C108.252 186.089 108.146 186.256 108.078 186.481C108.01 186.706 107.985 186.974 108.008 187.233C108.041 187.488 108.122 187.707 108.232 187.846C108.343 187.985 108.476 188.032 108.603 187.979C108.735 187.897 108.848 187.72 108.919 187.48C108.991 187.241 109.016 186.957 108.99 186.682C108.941 186.426 108.844 186.217 108.721 186.101C108.597 185.984 108.456 185.968 108.327 186.056" fill="#E0E0E0"/>
<path d="M105 192.96L105.062 192L124.208 192.397C124.208 192.397 125.097 192.629 124.991 193L105 192.96Z" fill="#263238"/>
<path d="M114.999 187.066C114.999 187.145 114.471 187.18 113.942 187.436C113.413 187.691 113.128 188.029 113.027 187.998C112.927 187.966 113.091 187.502 113.741 187.211C114.391 186.92 115.021 186.991 114.999 187.066Z" fill="#263238"/>
<path d="M116.999 188.062C117.017 188.178 116.698 188.392 116.447 188.918C116.196 189.444 116.124 190.006 116.052 190C115.981 189.994 115.934 189.285 116.253 188.643C116.572 188.001 116.999 187.915 116.999 188.062Z" fill="#263238"/>
<path d="M118.126 191C118.03 191 117.882 190.433 118.163 189.808C118.444 189.184 118.947 188.923 118.995 189.02C119.043 189.116 118.725 189.456 118.502 189.979C118.279 190.501 118.237 190.989 118.126 191Z" fill="#263238"/>
<path d="M83.8557 97.5214C83.8557 97.5214 83.2397 108.573 83.0214 111.336C82.8031 114.098 84.3261 186 84.3261 186H96.0737C96.0737 186 100.361 144.626 100.575 138.067C100.788 131.509 103 113.002 103 113.002V97L84.4668 97.6237" fill="#263238"/>
<path d="M100 112.808C103.186 113.536 103.713 151.966 103.713 151.966L103.793 186.898L116.127 187C116.127 187 117.929 171.693 118.616 156.609C119.059 146.862 119.676 138.502 119.676 138.502C119.676 138.502 120.905 125.888 120.995 115.355C121.085 104.822 119.935 90 119.935 90L101.608 94.1773L100 112.808Z" fill="#263238"/>
<path d="M103.874 103C103.973 103.485 104.014 103.977 103.996 104.469C103.996 105.38 103.996 106.637 103.879 108.024C103.762 109.411 103.562 110.659 103.378 111.555C103.31 112.047 103.183 112.531 103 113C103.02 112.515 103.08 112.032 103.178 111.555C103.306 110.654 103.473 109.411 103.59 108.029C103.707 106.646 103.768 105.399 103.79 104.493C103.777 103.994 103.805 103.495 103.874 103Z" fill="#455A64"/>
<path d="M90 102C89.8978 102.338 89.7225 102.654 89.4841 102.931C88.9798 103.633 88.3403 104.247 87.5959 104.746C86.8525 105.244 86.0153 105.616 85.1247 105.844C84.7639 105.959 84.3823 106.011 84 105.998C85.2272 105.693 86.3887 105.203 87.4359 104.551C88.4423 103.835 89.3089 102.973 90 102Z" fill="#455A64"/>
<path d="M119 108C118.598 107.981 118.202 107.896 117.828 107.748C115.968 107.114 114.412 105.816 113.462 104.106C113.247 103.765 113.091 103.391 113 103C113.037 103 113.212 103.404 113.595 104.018C114.094 104.82 114.717 105.539 115.441 106.147C116.17 106.751 116.989 107.239 117.869 107.592C118.561 107.858 119.009 107.959 119 108Z" fill="#455A64"/>
<path d="M100.515 102.185C100.515 102.185 100.56 102.107 100.703 102.056C100.905 101.981 101.127 101.981 101.329 102.056C101.483 102.111 101.622 102.202 101.735 102.321C101.848 102.439 101.932 102.583 101.981 102.74C102.02 102.942 101.999 103.152 101.922 103.342C101.844 103.533 101.714 103.697 101.546 103.813C101.378 103.93 101.18 103.995 100.976 104C100.772 104.005 100.571 103.949 100.398 103.84C100.27 103.738 100.167 103.607 100.099 103.458C100.03 103.309 99.996 103.146 100 102.982C99.9999 102.765 100.072 102.555 100.204 102.385C100.301 102.272 100.382 102.246 100.392 102.257C100.251 102.469 100.179 102.721 100.189 102.977C100.195 103.107 100.229 103.234 100.29 103.348C100.351 103.463 100.436 103.563 100.54 103.64C100.673 103.712 100.824 103.745 100.975 103.737C101.126 103.728 101.271 103.678 101.396 103.591C101.52 103.505 101.619 103.385 101.681 103.246C101.743 103.107 101.766 102.953 101.747 102.802C101.709 102.675 101.643 102.558 101.555 102.459C101.467 102.36 101.359 102.282 101.238 102.231C101.006 102.144 100.755 102.128 100.515 102.185Z" fill="#455A64"/>
<path d="M97 147C96.7003 147.388 96.3644 147.748 95.9964 148.075C95.1418 148.894 94.2364 149.66 93.2854 150.369C92.3372 151.083 91.3461 151.74 90.3175 152.336C89.9011 152.599 89.4599 152.821 89 153C89.3885 152.7 89.7986 152.428 90.2271 152.187C90.9881 151.72 92.0297 151 93.1379 150.173C94.2461 149.346 95.1974 148.537 95.8775 147.944C96.2272 147.602 96.6024 147.287 97 147Z" fill="#455A64"/>
<path d="M115 143C114.738 143.414 114.439 143.801 114.106 144.157C113.521 144.844 112.703 145.764 111.72 146.732C110.737 147.701 109.848 148.538 109.146 149.114C108.793 149.447 108.409 149.744 108 150C108.321 149.635 108.667 149.294 109.034 148.979C109.689 148.369 110.583 147.526 111.551 146.558C112.52 145.59 113.367 144.694 113.98 144.041C114.294 143.667 114.635 143.319 115 143Z" fill="#455A64"/>
<path d="M76 105.011V110.223L77.1429 112.887C77.1429 112.887 82.8387 116 83.4839 116C84.129 116 84.3733 115.949 84.2765 115.408C84.1797 114.866 82.1935 111.656 82.1935 111.656L81.9954 108.442C81.9954 108.442 82.4931 107.064 83.0876 107.206C83.682 107.349 84.7189 109.282 84.871 109.53C85.023 109.778 86.0599 110.907 87 110.687L86.4562 108.442L84.2765 104.837L81.9309 103L76 105.011Z" fill="#DB8A76"/>
<path d="M83 116C82.7326 115.82 82.4925 115.595 82.2886 115.333C81.7667 114.733 81.3188 114.06 80.9566 113.331C80.5923 112.602 80.3159 111.824 80.1345 111.016C80.0422 110.687 79.9969 110.344 80.0002 110C80.2818 111.112 80.6618 112.192 81.1345 113.222C81.6719 114.214 82.2967 115.144 83 116Z" fill="#A45B4A"/>
<path d="M79.999 115C79.999 115 79.7638 114.898 79.484 114.605C79.1219 114.204 78.8268 113.737 78.6123 113.224C78.3988 112.725 78.2291 112.205 78.1055 111.67C78.0343 111.456 77.9986 111.229 78 111C78.1124 111.191 78.1959 111.401 78.2474 111.622C78.3812 112.012 78.5555 112.558 78.8029 113.122C79.0114 113.601 79.2758 114.049 79.5895 114.454C79.8368 114.796 80.0152 114.96 79.999 115Z" fill="#A45B4A"/>
<path d="M81 108.061C81 108.127 80.6972 108.168 80.4343 108.426C80.1714 108.684 80.0877 109.009 80.0359 109C79.9841 108.991 79.9921 108.897 80.0359 108.751C80.084 108.557 80.1823 108.383 80.3184 108.252C80.4545 108.121 80.6223 108.037 80.8008 108.012C80.9084 107.981 81 108.016 81 108.061Z" fill="#A45B4A"/>
<path d="M77.9963 108.018C78.0415 108.07 77.6578 108.21 77.4697 108.477C77.2816 108.744 77.3568 108.975 77.2515 108.999C77.1462 109.022 76.8377 108.744 77.1086 108.397C77.3794 108.05 77.9963 107.955 77.9963 108.018Z" fill="#A45B4A"/>
<path d="M132.426 100V102.028C132.426 102.028 130.692 103.671 130.496 104.084C130.299 104.498 130 107.911 130 107.911C130 107.911 130.991 110.464 131.211 110.517C131.431 110.571 132.057 110.619 131.945 109.744C131.833 108.869 131.477 107.43 131.477 107.43L132.412 105.733L133.301 107.478V110.542C133.301 110.542 131.519 111.699 131.646 112.166C131.66 112.274 131.697 112.378 131.754 112.471C131.811 112.563 131.886 112.642 131.975 112.7C132.064 112.759 132.165 112.797 132.269 112.811C132.374 112.826 132.48 112.816 132.581 112.783C133.087 112.632 133.583 112.442 134.063 112.214C134.063 112.214 134.558 113.391 135.498 112.803L136.433 112.214C136.433 112.214 137.125 113.187 137.77 112.968C137.967 112.897 138.145 112.779 138.29 112.623C138.435 112.468 138.544 112.28 138.607 112.073L139.659 108.3C139.931 107.332 140.041 106.322 139.986 105.315L139.701 100.122L132.426 100Z" fill="#DB8A76"/>
<path d="M132.303 106.455C132.462 106.018 132.736 105.624 133.1 105.307C133.374 105.071 133.808 104.879 134.106 105.093C134.188 105.158 134.249 105.243 134.283 105.338C134.317 105.433 134.321 105.535 134.297 105.632C134.248 105.827 134.144 106.006 133.994 106.151C134.13 106.09 134.28 106.062 134.431 106.07C134.582 106.077 134.728 106.12 134.856 106.194C134.942 106.285 134.992 106.401 134.999 106.522C135.006 106.643 134.969 106.762 134.893 106.862C134.738 107.059 134.536 107.22 134.301 107.333C134.497 107.2 134.795 107.389 134.832 107.607C134.841 107.835 134.756 108.059 134.595 108.232C134.415 108.51 134.162 108.741 133.859 108.905C133.704 108.982 133.526 109.014 133.351 108.995C133.176 108.975 133.012 108.907 132.881 108.798C132.824 108.739 132.782 108.668 132.761 108.592C132.739 108.516 132.738 108.436 132.756 108.359C132.775 108.282 132.813 108.21 132.868 108.149C132.923 108.088 132.993 108.041 133.072 108.01C132.943 108.069 132.796 108.083 132.657 108.051C132.517 108.019 132.395 107.942 132.312 107.834C132.21 107.737 132.129 107.621 132.076 107.495C132.022 107.368 131.996 107.233 132 107.097C132.062 106.875 132.163 106.664 132.299 106.472" fill="#FFBE9D"/>
<path d="M84.9624 36C84.9624 36 79.3626 38.4328 77.0382 45.8627C74.7138 53.2926 68.6914 81.4794 70.2561 90.5587C70.2561 90.5587 73.8584 104.518 74.432 105L82.5625 102.236L87 51.2149L84.9624 36Z" fill="#90CAF9"/>
<path d="M113.555 35.1679L100.417 32C100.417 32 86.1601 35.1825 85.1821 36.408C84.204 37.6335 83.6542 84.6102 83.2357 87.1C82.7053 90.2195 83.2357 100.426 83.2357 100.426L121.146 102L123 95.8482L121.146 39.45L113.555 35.1679Z" fill="#90CAF9"/>
<path d="M129.476 100.867C129.476 100.867 119.612 73.5608 120.012 69.7813C120.412 66.0018 120.888 48.4167 120.888 48.4167L121.364 39C122.817 39.5837 124.099 40.5476 125.083 41.7969C126.067 43.0463 126.719 44.5382 126.976 46.1264C127.862 51.6261 131.565 68.5919 131.565 68.5919C131.565 68.5919 140.562 97.4859 139.972 101L129.476 100.867Z" fill="#90CAF9"/>
<path d="M88.4999 44C88.5167 44.0461 88.5299 44.0934 88.5393 44.1416C88.5393 44.249 88.5934 44.3906 88.6278 44.5615L88.7656 45.245L88.8836 46.1921C89.0836 48.2109 89.0257 50.2467 88.7114 52.2511C88.2238 55.2201 87.5469 58.1554 86.6846 61.0392C85.6547 64.5612 84.8739 68.1503 84.3479 71.7803C83.7969 75.6422 83.5116 79.3527 83.364 82.7313C83.2165 86.1099 83.1525 89.1564 83.1131 91.7147C83.0738 94.2731 83.0541 96.3285 83.0344 97.7786C83.0344 98.4816 83.0049 99.0333 83 99.4239C83 99.6045 83 99.7461 83 99.8535C83.0064 99.9022 83.0064 99.9514 83 100C83 100 83 99.9512 83 99.8535C83 99.7559 83 99.6045 83 99.4239C83 99.0333 83 98.4767 83 97.7786V91.6952C83 89.1369 83.0492 86.0854 83.1968 82.702C83.3444 79.3186 83.6198 75.5983 84.1807 71.7266C84.7055 68.0863 85.4947 64.4885 86.542 60.9611C87.4095 58.0938 88.1012 55.177 88.6131 52.2267C88.9167 50.2328 88.9745 48.2097 88.7852 46.2019C88.7508 45.8504 88.7164 45.533 88.6918 45.2596C88.6672 44.9862 88.6081 44.7714 88.5786 44.5712C88.5491 44.3711 88.5294 44.2588 88.5147 44.1465C88.5032 44.0985 88.4983 44.0493 88.4999 44Z" fill="#263238"/>
<path d="M121.958 48C121.973 48.1247 121.973 48.2501 121.958 48.3749C121.958 48.6475 121.906 49.0078 121.866 49.4557C121.775 50.3904 121.663 51.7438 121.558 53.4186C121.335 56.7632 121.23 61.3979 121.479 66.5097C121.729 71.6216 122.201 76.2466 122.523 79.5863C122.681 81.2367 122.805 82.5853 122.897 83.5443C122.937 83.9971 122.963 84.3525 122.989 84.6251C123.004 84.7499 123.004 84.8753 122.989 85C122.947 84.8789 122.92 84.755 122.91 84.63C122.871 84.3574 122.825 84.002 122.759 83.5541C122.641 82.5804 122.477 81.2464 122.274 79.6009C121.893 76.2563 121.387 71.6362 121.131 66.5146C120.875 61.393 121.026 56.7778 121.308 53.4088C121.446 51.7341 121.591 50.3807 121.729 49.4459C121.788 48.998 121.84 48.6426 121.88 48.3749C121.889 48.2483 121.916 48.1228 121.958 48Z" fill="#263238"/>
<path d="M113 80C112.965 80.0688 112.922 80.1329 112.872 80.1908C112.762 80.3338 112.629 80.5007 112.472 80.7106C112.125 81.1588 111.588 81.7883 110.899 82.5371C110.21 83.2858 109.35 84.1489 108.351 85.055C106.182 87.0214 103.802 88.7407 101.255 90.1816C100.081 90.8445 98.9974 91.3929 98.0705 91.8078C97.1436 92.2227 96.3784 92.5374 95.8413 92.7234L95.2234 92.9428C95.1529 92.975 95.0773 92.9944 95 93C95.0651 92.9594 95.1335 92.9244 95.2044 92.8951L95.808 92.6328C96.3309 92.4182 97.0819 92.0844 97.9945 91.6456C98.9071 91.2069 99.9813 90.6537 101.146 89.9861C102.31 89.3184 103.522 88.5125 104.801 87.6016C106.079 86.6908 107.177 85.7608 108.199 84.8786C109.221 83.9963 110.072 83.1427 110.771 82.4083C111.469 81.6739 112.026 81.0682 112.396 80.639L112.834 80.1621C112.882 80.1012 112.938 80.0467 113 80Z" fill="#263238"/>
<path d="M114 62C113.994 62.0836 113.975 62.166 113.945 62.2445C113.889 62.4315 113.824 62.6616 113.739 62.9397C113.558 63.539 113.236 64.3781 112.859 65.4473C112.482 66.5164 111.92 67.7247 111.271 69.0671C110.623 70.4096 109.834 71.8671 108.93 73.3055C108.025 74.7438 107.065 76.1247 106.161 77.3233C105.256 78.5219 104.372 79.5575 103.603 80.4014C102.834 81.2452 102.196 81.9116 101.734 82.3527L101.196 82.8322C101.137 82.8941 101.071 82.9503 101 83C101 83 101.045 82.9233 101.161 82.7986L101.663 82.2616C102.106 81.7822 102.724 81.1205 103.467 80.2623C104.211 79.4041 105.065 78.3445 105.98 77.1651C106.894 75.9856 107.809 74.6192 108.719 73.1569C109.628 71.6945 110.402 70.2562 111.07 68.9329C111.739 67.6096 112.276 66.3822 112.698 65.3418C113.121 64.3014 113.447 63.4575 113.658 62.8678C113.759 62.5993 113.844 62.3884 113.91 62.1918C113.931 62.1244 113.961 62.06 114 62Z" fill="#263238"/>
<g opacity="0.3">
<path d="M88.6879 54.572C83.7344 68.3841 82.4132 83.2347 83.0909 97.8903C84.9289 96.1107 85.5286 93.3951 85.5286 90.8404C85.5286 88.2857 84.9533 85.7602 84.846 83.2055C84.4365 73.5131 90.5113 64.0986 88.6879 54.572Z" fill="black"/>
</g>
<g opacity="0.3">
<path d="M112.904 64.3082C113.06 63.8597 111.817 71.4069 110.101 74.2444C108.369 77.0877 105.973 79.4684 103.119 81.1821C103.119 81.1821 109.608 73.7324 112.904 64.3082Z" fill="black"/>
</g>
<g opacity="0.3">
<path d="M121.188 50.9009C121.188 50.9009 121.275 79.2662 122.387 80.8068C122.387 80.8068 122.694 73.5619 122.874 69.9346C123.211 63.4307 122.27 56.9318 121.324 50.4913" fill="black"/>
</g>
<path d="M88 51.9857C87.8322 52.0048 87.6623 52.0048 87.4945 51.9857C87.1761 51.9857 86.7211 51.9273 86.155 51.86C84.69 51.6844 83.2408 51.4173 81.818 51.0608C80.3919 50.7055 78.9951 50.263 77.6377 49.7363C77.1323 49.5343 76.7077 49.3547 76.4246 49.2245C76.2733 49.1654 76.1307 49.09 76 49C76.5833 49.1652 77.1555 49.3601 77.7136 49.5837C80.4449 50.5415 83.2806 51.2457 86.1752 51.6849C86.789 51.7568 87.3981 51.8572 88 51.9857Z" fill="white"/>
<path d="M121 49.9741C121 50.0625 113.832 49.9173 104.995 49.6522C96.1582 49.3872 88.9951 49.0969 89 49.0211C89.0049 48.9454 96.163 49.0779 105.005 49.343C113.847 49.6081 121 49.8921 121 49.9741Z" fill="white"/>
<path d="M128 53C127.041 53.6521 126.05 54.2055 125.037 54.6563C124.049 55.211 123.034 55.6601 122 56C122.96 55.3504 123.95 54.799 124.963 54.35C125.952 53.7985 126.967 53.3474 128 53Z" fill="white"/>
<path d="M84 68.9602C83.8492 68.9983 83.6943 69.0092 83.5407 68.9923C83.1237 68.9972 82.7067 68.9775 82.2914 68.9334C79.5273 68.6527 76.8465 67.687 74.4284 66.1008C74.0635 65.8654 73.7094 65.6081 73.3674 65.3297C73.2351 65.2368 73.1119 65.1273 73 65.0031C73.023 64.9603 73.5787 65.3672 74.5111 65.9294C75.7274 66.6593 76.9951 67.2666 78.3002 67.7447C79.6079 68.2101 80.948 68.5416 82.3052 68.7353C83.3478 68.8852 84.0046 68.912 84 68.9602Z" fill="white"/>
<path d="M111 67.7533C110.917 67.7787 110.831 67.793 110.745 67.7959L110.007 67.8651C109.366 67.9237 108.435 67.9663 107.288 67.9929C101.286 68.0898 95.3045 67.1925 89.5432 65.331C88.4441 64.9689 87.5571 64.6495 86.9545 64.4046L86.2362 64.1171C86.1533 64.0892 86.0739 64.0499 86 64C86.0877 64.0063 86.1739 64.0279 86.2555 64.0639L86.9593 64.2981C87.5715 64.5111 88.4634 64.8039 89.5673 65.1393C92.4487 66.0078 95.3777 66.6711 98.3361 67.1251C101.294 67.5624 104.275 67.7883 107.259 67.8013C108.406 67.8013 109.337 67.8012 109.978 67.7587H110.716C110.81 67.7406 110.906 67.7388 111 67.7533Z" fill="white"/>
<path d="M121 64C120.634 64.1524 120.25 64.2606 119.857 64.322C117.994 64.722 116.095 64.9441 114.188 64.9851C113.791 65.0155 113.392 64.9993 113 64.9371C113.387 64.8561 113.782 64.8126 114.178 64.8073C114.903 64.7545 115.907 64.668 117.01 64.5382C118.113 64.4085 119.107 64.2595 119.822 64.149C120.209 64.0627 120.603 64.0128 121 64Z" fill="white"/>
<path d="M131 68C130.606 68.1743 130.186 68.3166 129.747 68.4241C128.957 68.6545 127.848 68.947 126.6 69.2249C125.353 69.5027 124.203 69.7112 123.366 69.8391C122.92 69.9293 122.462 69.9833 122 70C122.428 69.8763 122.869 69.7784 123.319 69.7075C124.146 69.5466 125.276 69.3199 126.518 69.042C127.76 68.7642 128.874 68.4973 129.681 68.3108C130.108 68.1816 130.549 68.0776 131 68Z" fill="white"/>
<path d="M83 85.9794C82.8181 86.0069 82.6337 86.0069 82.4519 85.9794C82.0981 85.9794 81.5899 85.9242 80.957 85.8359C77.6764 85.3752 74.5175 84.1672 71.6792 82.2879C71.1361 81.9292 70.7125 81.6147 70.4285 81.3829C70.2717 81.2766 70.1278 81.1486 70 81.0022C70.0249 80.9636 70.6727 81.4381 71.7689 82.1058C73.2038 82.9825 74.7042 83.7209 76.2533 84.313C77.7931 84.9023 79.3749 85.3471 80.982 85.6428C82.2276 85.8635 83.005 85.9297 83 85.9794Z" fill="white"/>
<path d="M108 84.9923C107.914 85.0026 107.828 85.0026 107.742 84.9923H107.007C106.367 84.9923 105.443 84.9923 104.302 84.9923C102.013 84.9387 98.8409 84.7584 95.3958 84.3492C91.9506 83.9399 88.8181 83.3747 86.5892 82.8874C85.4722 82.6438 84.5737 82.4343 83.9531 82.2735L83.2432 82.0835C83.1602 82.0619 83.0789 82.0342 83 82.0007C83.0871 81.9972 83.1742 82.0071 83.2581 82.0299L83.978 82.1761C84.6035 82.3076 85.5069 82.4928 86.6239 82.712C88.8628 83.1506 91.9704 83.6865 95.4255 84.0958C98.8807 84.5051 102.028 84.7146 104.307 84.8169C105.443 84.8656 106.367 84.8997 107.007 84.9144L107.742 84.9436C107.83 84.9473 107.917 84.9637 108 84.9923Z" fill="white"/>
<path d="M122 83C121.856 83.074 121.703 83.1248 121.545 83.1508C121.249 83.234 120.814 83.3328 120.275 83.442C118.873 83.7162 117.454 83.8899 116.03 83.9621C114.603 84.0345 113.173 84.0032 111.75 83.8685C111.206 83.8165 110.761 83.7593 110.465 83.7073C110.306 83.6928 110.15 83.6579 110 83.6033C110.589 83.5969 111.178 83.623 111.764 83.6813C112.852 83.7385 114.359 83.7749 116.015 83.6813C117.671 83.5877 119.168 83.416 120.245 83.2496C120.826 83.1336 121.411 83.0502 122 83Z" fill="white"/>
<path d="M137 86C136.885 86.1137 136.758 86.2112 136.621 86.2903C136.37 86.4623 135.996 86.6934 135.528 86.9622C134.302 87.6556 133.028 88.245 131.719 88.7253C130.408 89.1976 129.065 89.557 127.703 89.8004C127.181 89.8972 126.758 89.9563 126.463 89.9832C126.309 90.0056 126.154 90.0056 126 89.9832C126.549 89.8186 127.106 89.6858 127.668 89.5854C130.356 88.9753 132.968 88.019 135.45 86.7364C135.955 86.4623 136.472 86.2165 137 86Z" fill="white"/>
<path d="M83 98C82.5638 98.2381 82.1029 98.4346 81.6243 98.5865C80.4853 98.9883 79.3146 99.3074 78.1226 99.5407C76.9297 99.7748 75.7185 99.9196 74.5008 99.9736C74.001 100.015 73.4979 100.008 73 99.9503C73.4965 99.8723 73.9977 99.8226 74.5008 99.8014C75.7038 99.6981 76.8996 99.5319 78.0825 99.3033C79.2663 99.0703 80.4353 98.7766 81.5843 98.4236C82.0458 98.2539 82.5187 98.1124 83 98Z" fill="white"/>
<path d="M122 98.1168C121.872 98.1381 121.741 98.1542 121.61 98.1649L120.48 98.2714C119.493 98.3607 118.077 98.4706 116.315 98.584C112.792 98.8107 107.926 99.0099 102.498 98.9996C97.0692 98.9893 92.2084 98.7557 88.68 98.5084C86.9183 98.3882 85.497 98.2714 84.5199 98.1649L83.3899 98.0515C83.2579 98.0428 83.1274 98.0256 83 98C83.1336 97.9996 83.2672 98.0053 83.3997 98.0172L84.5298 98.0962C85.5168 98.1718 86.938 98.268 88.6997 98.3744C92.2183 98.5874 97.089 98.7935 102.488 98.8072C107.886 98.821 112.757 98.6424 116.281 98.4466C118.042 98.3504 119.468 98.2611 120.45 98.1924L121.585 98.1168C121.723 98.1067 121.862 98.1067 122 98.1168Z" fill="white"/>
<path d="M121 38.9688C121 39.0652 113.386 38.9303 104 38.6734C94.6137 38.4165 86.9951 38.1274 87 38.0311C87.0049 37.9348 94.6137 38.0696 104.005 38.333C113.396 38.5963 121.005 38.8789 121 38.9688Z" fill="white"/>
<path d="M132 100C131.608 99.5889 131.34 99.0983 131.221 98.5731C131.014 98.0697 130.951 97.5296 131.038 97C131.23 97.492 131.384 97.9948 131.499 98.5049C131.704 98.9929 131.872 99.4924 132 100Z" fill="#263238"/>
<path d="M77 105C76.7349 104.377 76.5328 103.716 76.3984 103.032C76.2014 102.376 76.0677 101.694 76 101C76.2675 101.622 76.471 102.283 76.6056 102.968C76.8025 103.623 76.935 104.306 77 105Z" fill="#263238"/>
<path d="M80 103C79.7382 102.54 79.5376 102.047 79.4032 101.535C79.2049 101.042 79.0694 100.527 79 100C79.2638 100.459 79.4645 100.952 79.5968 101.465C79.8006 101.956 79.9363 102.472 80 103Z" fill="#263238"/>
<path d="M99.3088 35.9594C99.0758 35.4426 98.972 34.8756 99.0065 34.3085L100.469 12.8762C100.469 6.8904 103.883 1.88821 109.764 2.0019L110.305 2.04639C112.95 2.26626 115.416 3.48739 117.212 5.46672C119.009 7.44606 120.004 10.0385 120 12.7279C120 17.913 119.922 23.6418 119.664 26.4049C119.132 32.1238 113.412 32.5439 113.412 32.5439L113.139 34.7682C113.139 34.7682 113.436 38.6632 108.955 39.805C105.507 40.6848 101.854 38.3666 100.352 37.2446C99.9043 36.9111 99.5456 36.4693 99.3088 35.9594Z" fill="#DB8A76"/>
<path d="M114 32.6633C111.095 32.4585 108.318 31.5341 106 30C106 30 107.556 34.0419 113.843 33.9997L114 32.6633Z" fill="#A45B4A"/>
<path d="M118 18.0282C117.991 18.3007 117.932 18.5553 117.834 18.7369C117.736 18.9185 117.608 19.0125 117.477 18.9987C117.413 18.9987 117.35 18.972 117.291 18.92C117.232 18.868 117.179 18.7918 117.135 18.696C117.09 18.6002 117.055 18.4867 117.032 18.3622C117.009 18.2377 116.998 18.1049 117 17.9715C117.01 17.6996 117.069 17.446 117.167 17.2647C117.265 17.0835 117.392 16.9889 117.523 17.001C117.587 17.0018 117.65 17.0292 117.708 17.0815C117.767 17.1338 117.82 17.21 117.865 17.3056C117.909 17.4013 117.944 17.5144 117.967 17.6385C117.99 17.7626 118.001 17.8951 118 18.0282Z" fill="#263238"/>
<path d="M118.985 15.9876C118.884 16.084 118.347 15.5879 117.537 15.506C116.726 15.4241 116.098 15.8143 116.021 15.7035C115.943 15.5927 116.089 15.4723 116.367 15.2941C116.737 15.066 117.165 14.9666 117.591 15.0099C118.009 15.0404 118.407 15.2088 118.73 15.4916C118.966 15.7516 119.035 15.9443 118.985 15.9876Z" fill="#263238"/>
<path d="M110 17.5144C109.99 17.6495 109.93 17.7754 109.833 17.8658C109.736 17.9562 109.609 18.0042 109.479 17.9997C109.415 17.9993 109.351 17.9856 109.293 17.9595C109.234 17.9333 109.18 17.8952 109.136 17.8474C109.091 17.7996 109.056 17.743 109.033 17.6809C109.01 17.6189 108.999 17.5526 109 17.486C109.009 17.3497 109.069 17.2224 109.167 17.1316C109.265 17.0408 109.393 16.9938 109.524 17.0007C109.588 17.0011 109.651 17.0147 109.71 17.0409C109.769 17.0671 109.822 17.1053 109.866 17.1532C109.91 17.201 109.945 17.2577 109.968 17.3197C109.991 17.3817 110.002 17.4479 110 17.5144Z" fill="#263238"/>
<path d="M109.985 14.9876C109.884 15.0844 109.347 14.5859 108.538 14.5036C107.728 14.4213 107.104 14.8182 107.022 14.702C106.94 14.5859 107.091 14.4746 107.368 14.2955C107.738 14.0663 108.166 13.9664 108.592 14.01C109.011 14.0396 109.411 14.2089 109.734 14.4939C109.966 14.7456 110.035 14.944 109.985 14.9876Z" fill="#263238"/>
<path d="M113 21.8976C113.417 21.7985 113.844 21.755 114.272 21.7679C114.471 21.7679 114.662 21.7355 114.706 21.5965C114.737 21.3809 114.709 21.1602 114.623 20.9619L114.163 19.3082C113.525 16.9551 113.087 15.0281 113.174 15.0003C113.26 14.9725 113.851 16.8532 114.476 19.211L114.91 20.8739C115.015 21.1382 115.029 21.4336 114.949 21.7077C114.915 21.7796 114.866 21.8423 114.805 21.8912C114.745 21.9402 114.676 21.974 114.602 21.9903C114.489 22.0032 114.376 22.0032 114.263 21.9903C113.84 22.0164 113.416 21.9853 113 21.8976Z" fill="#263238"/>
<path d="M110.193 22.0003C110.347 22.0003 110.267 23.0613 111.086 23.8871C111.905 24.7129 113.005 24.6856 113 24.8332C112.995 24.9809 112.739 25.0192 112.277 24.9918C111.679 24.9478 111.115 24.6906 110.682 24.2645C110.266 23.8495 110.022 23.2851 110.001 22.6894C109.985 22.241 110.124 21.9894 110.193 22.0003Z" fill="#263238"/>
<path d="M110.992 11.7982C110.89 12.0198 110.016 11.8406 109.001 11.8831C107.986 11.9255 107.127 12.1235 107.01 11.8831C106.956 11.7793 107.117 11.5766 107.469 11.3833C107.935 11.1467 108.45 11.0161 108.976 11.0014C109.502 10.9867 110.025 11.0883 110.504 11.2984C110.865 11.5012 111.041 11.6756 110.992 11.7982Z" fill="#263238"/>
<path d="M118.968 12.9432C118.795 13.1042 118.209 12.878 117.49 12.817C116.771 12.7561 116.136 12.817 116.013 12.6474C115.959 12.5516 116.072 12.382 116.358 12.2123C116.737 12.0392 117.166 11.9696 117.591 12.0122C118.015 12.0548 118.415 12.2077 118.741 12.4516C118.997 12.6735 119.042 12.8606 118.968 12.9432Z" fill="#263238"/>
<path d="M100.998 18.6264C101.009 18.4171 100.976 18.2077 100.903 18.0111C100.83 17.8145 100.717 17.6346 100.571 17.4826C100.425 17.3305 100.25 17.2093 100.055 17.1263C99.8606 17.0434 99.6511 17.0004 99.4394 17C98.3573 17 97.1164 17.5209 97.0072 19.7173C96.8086 23.6187 100.804 23.0094 100.814 22.9013C100.824 22.7932 100.933 20.2578 100.998 18.6264Z" fill="#DB8A76"/>
<path d="M99.9991 21.6526C99.9991 21.6526 99.9546 21.7043 99.8835 21.7618C99.788 21.8321 99.6825 21.8321 99.587 21.7618C99.3439 21.5606 99.1542 20.7729 99.1631 19.9508C99.1658 19.5511 99.2155 19.1579 99.3083 18.8009C99.3337 18.661 99.3764 18.5353 99.4328 18.435C99.4892 18.3347 99.5574 18.263 99.6315 18.226C99.6793 18.2066 99.7292 18.2201 99.7724 18.2641C99.8157 18.3082 99.8497 18.3801 99.8687 18.4675C99.8953 18.5997 99.8687 18.6859 99.8894 18.6974C99.9102 18.7089 99.9428 18.6227 99.928 18.433C99.9197 18.3188 99.8902 18.2145 99.8449 18.1397C99.7818 18.0392 99.7011 17.9898 99.6196 18.0018C99.5223 18.0298 99.4303 18.1059 99.3524 18.2227C99.2745 18.3395 99.2134 18.493 99.1749 18.6687C99.0626 19.0529 99.0024 19.4862 99 19.9278C99 20.8477 99.2105 21.7331 99.5455 21.9516C99.6078 21.994 99.6743 22.0089 99.74 21.9949C99.8056 21.981 99.8689 21.9387 99.925 21.8711C99.9813 21.7618 100.005 21.6641 99.9991 21.6526Z" fill="#A45B4A"/>
<path d="M120.531 12.9362C120.561 13.696 121.69 11.1602 121.3 10.4859C121.583 10.5679 121.88 10.5922 122.173 10.557C122.466 10.5219 122.747 10.4281 122.999 10.282C123.251 10.1358 123.468 9.9406 123.635 9.70916C123.801 9.47772 123.915 9.21532 123.967 8.93925C124.019 8.66319 124.009 8.37973 123.938 8.10756C123.867 7.8354 123.735 7.58071 123.553 7.36028C123.37 7.13985 123.14 6.95868 122.879 6.82873C122.617 6.69877 122.33 6.62298 122.035 6.60635C122.251 6.26856 122.343 5.87193 122.296 5.479C122.249 5.08606 122.066 4.7192 121.775 4.43625C121.433 4.19633 121.039 4.0339 120.621 3.96139C120.654 3.49478 120.557 3.02814 120.341 2.60804C120.117 2.14456 119.784 1.7362 119.368 1.41459C118.951 1.09297 118.462 0.866717 117.939 0.753327C117.416 0.639937 116.872 0.642455 116.35 0.760685C115.828 0.878915 115.342 1.10969 114.929 1.43515C114.607 0.992434 114.177 0.630549 113.675 0.380573C113.174 0.130596 112.616 0 112.05 0C111.484 0 110.926 0.130596 110.425 0.380573C109.923 0.630549 109.493 0.992434 109.171 1.43515C108.765 1.17756 108.305 1.00828 107.822 0.93938C107.339 0.870478 106.846 0.903651 106.378 1.03653C105.911 1.16942 105.48 1.39874 105.116 1.70814C104.752 2.01754 104.465 2.3994 104.274 2.82648C103.789 2.55427 103.224 2.43989 102.665 2.50075C102.106 2.5616 101.583 2.79437 101.176 3.16363C100.893 3.51658 100.584 3.84983 100.251 4.16083C99.7828 4.41268 99.2909 4.62252 98.7817 4.78764C98.4318 4.97959 98.1294 5.24092 97.8953 5.55384C97.6611 5.86676 97.5007 6.22394 97.4248 6.60107C97.3489 6.97819 97.3594 7.36643 97.4556 7.73935C97.5518 8.11227 97.7314 8.46114 97.9821 8.7622C97.3952 9.13871 96.8769 9.60387 96.4479 10.1393C96.2363 10.4073 96.0943 10.7191 96.0335 11.0492C95.9727 11.3793 95.9949 11.7183 96.0981 12.0387C96.4029 12.789 97.2775 13.2354 97.5973 13.9904C97.7323 14.3418 97.7323 14.7264 97.8622 15.0778C97.9814 15.3618 98.163 15.6184 98.3948 15.8305C98.6266 16.0426 98.9033 16.2053 99.2065 16.3077C99.5214 17.8415 100.616 18.2926 100.631 18.739C100.771 23.4401 102.915 20.7951 104.329 10.9465C104.664 8.63399 103.829 7.41835 105.828 6.06026C106.07 6.36485 106.293 6.68191 106.498 7.00998C106.781 7.35307 107.137 7.63624 107.541 7.84136C107.946 8.04649 108.392 8.16905 108.85 8.20123C109.307 8.23341 109.767 8.17449 110.199 8.02824C110.632 7.88199 111.027 7.65162 111.36 7.35187C111.57 7.72154 111.869 8.03908 112.232 8.27886C112.595 8.51864 113.012 8.67392 113.45 8.73216C113.888 8.7904 114.334 8.74997 114.752 8.61413C115.171 8.47829 115.549 8.25086 115.858 7.9502C116.548 8.57701 118.167 9.65969 119.466 8.615C120.153 9.96287 120.517 11.4387 120.531 12.9362Z" fill="#263238"/>
<path d="M114.745 34.2257C114.069 33.1739 112.373 33.3738 111.041 33.5263C107.381 33.9365 103.363 33.1056 100.541 30.9809C100.205 30.6975 99.8474 30.4442 99.4726 30.2236C98.282 29.6136 97.7431 30.3709 97.6255 31.0703C97.5079 31.7698 97.3511 32.4797 97.1355 33.6157C96.5035 35.8771 98.1497 37.8229 100.673 39.2954C103.196 40.768 106.362 41.0467 109.38 40.9941C110.629 40.9941 111.952 40.8732 112.956 40.2105C114.382 39.2744 114.711 37.5232 114.916 35.956C115.071 35.3772 115.01 34.7566 114.745 34.2257Z" fill="#90CAF9"/>
<path d="M114.961 35.562C114.984 35.6485 114.997 35.7381 114.999 35.8285C115.006 36.09 114.984 36.3514 114.932 36.6066C114.716 37.5551 114.195 38.3806 113.47 38.9249C112.972 39.294 112.416 39.5544 111.832 39.6923C111.169 39.8463 110.496 39.9319 109.819 39.9481C108.28 40.0442 106.738 40.0068 105.204 39.8362C103.65 39.6766 102.155 39.085 100.856 38.1148C99.8174 37.278 98.9978 36.1444 98.4817 34.8319C98.126 33.9535 97.9632 32.9922 98.007 32.0286C98.007 31.8687 98.0354 31.7195 98.0449 31.5809C98.0544 31.4423 98.0877 31.3571 98.1067 31.2611C98.1178 31.171 98.1402 31.0831 98.1731 31C98.1835 31.0902 98.1835 31.1816 98.1731 31.2718L98.1351 31.5916C98.1351 31.7248 98.1351 31.874 98.1351 32.0339C98.1281 32.9733 98.3098 33.9023 98.6669 34.7519C99.2 36.0176 100.018 37.1052 101.041 37.907C102.324 38.8412 103.79 39.4101 105.314 39.5644C106.835 39.7269 108.364 39.7697 109.89 39.6923C111.291 39.6657 112.573 39.4259 113.446 38.7597C114.151 38.2528 114.672 37.4797 114.913 36.5799C114.958 36.2431 114.973 35.9022 114.961 35.562Z" fill="#263238"/>
<g opacity="0.3">
<path d="M106.43 39.19C104.967 39.0827 102.788 38.8536 101.447 38.2149C99.0435 37.1033 97.9855 34.6704 97.732 32.028V32.5691C97.6081 33.5404 97.705 34.5272 98.0157 35.4558C98.3264 36.3844 98.8427 37.2309 99.5262 37.9321C100.909 39.3269 102.707 40.2354 104.65 40.521C106.585 40.7995 108.555 40.7002 110.452 40.2284C111.661 39.9554 112.963 39.4971 113.572 38.4197C111.272 39.173 108.838 39.4354 106.43 39.19Z" fill="black"/>
</g>
<path d="M100.258 38C100.147 37.6908 100.085 37.3657 100.072 37.0365C99.9634 36.2418 99.9777 35.4342 100.115 34.6442C100.252 33.8401 100.621 33.0977 101.174 32.5146C101.391 32.2587 101.68 32.0789 102 32C102 32.0438 101.693 32.2135 101.317 32.6515C100.836 33.2375 100.511 33.9433 100.374 34.6989C100.247 35.4652 100.208 36.2443 100.258 37.0201C100.302 37.3451 100.302 37.675 100.258 38Z" fill="#263238"/>
<path d="M107 39.9901C107.305 39.0142 107.526 38.0226 107.66 37.0223C107.689 36.0126 107.627 35.0026 107.475 34C108.313 35.9715 108.143 38.1294 107 40V39.9901Z" fill="#263238"/>
<path d="M113.074 34C113.074 34 113.177 34 113.324 34.0871C113.517 34.2238 113.664 34.4045 113.751 34.6098C114.025 35.2707 114.074 35.9886 113.893 36.6742C113.72 37.3618 113.337 37.9935 112.785 38.4991C112.575 38.7216 112.306 38.8938 112.001 39C111.977 38.9695 112.281 38.7822 112.653 38.3902C113.13 37.8863 113.465 37.2893 113.633 36.6481C113.799 36.0005 113.777 35.3261 113.569 34.6882C113.485 34.4202 113.313 34.1807 113.074 34Z" fill="#263238"/>
<path d="M136.286 79.4649C136.734 79.4649 137.097 79.1026 137.097 78.6557C137.097 78.2087 136.734 77.8464 136.286 77.8464C135.838 77.8464 135.475 78.2087 135.475 78.6557C135.475 79.1026 135.838 79.4649 136.286 79.4649Z" fill="#6B6B6B"/>
<path d="M133.717 80.8406C134.165 80.8406 134.528 80.4783 134.528 80.0314C134.528 79.5845 134.165 79.2222 133.717 79.2222C133.269 79.2222 132.905 79.5845 132.905 80.0314C132.905 80.4783 133.269 80.8406 133.717 80.8406Z" fill="#6B6B6B"/>
<path d="M131.201 82.2972C131.649 82.2972 132.012 81.9349 132.012 81.4879C132.012 81.041 131.649 80.6787 131.201 80.6787C130.753 80.6787 130.39 81.041 130.39 81.4879C130.39 81.9349 130.753 82.2972 131.201 82.2972Z" fill="#6B6B6B"/>
<path d="M129.173 84.3742C129.621 84.3742 129.984 84.0119 129.984 83.565C129.984 83.118 129.621 82.7557 129.173 82.7557C128.725 82.7557 128.361 83.118 128.361 83.565C128.361 84.0119 128.725 84.3742 129.173 84.3742Z" fill="#6B6B6B"/>
<path d="M127.442 86.694C127.89 86.694 128.253 86.3317 128.253 85.8848C128.253 85.4379 127.89 85.0756 127.442 85.0756C126.994 85.0756 126.63 85.4379 126.63 85.8848C126.63 86.3317 126.994 86.694 127.442 86.694Z" fill="#6B6B6B"/>
<path d="M126.117 89.2836C126.565 89.2836 126.928 88.9213 126.928 88.4744C126.928 88.0275 126.565 87.6652 126.117 87.6652C125.668 87.6652 125.305 88.0275 125.305 88.4744C125.305 88.9213 125.668 89.2836 126.117 89.2836Z" fill="#6B6B6B"/>
<path d="M125.278 92.062C125.726 92.062 126.09 91.6996 126.09 91.2527C126.09 90.8058 125.726 90.4435 125.278 90.4435C124.83 90.4435 124.467 90.8058 124.467 91.2527C124.467 91.6996 124.83 92.062 125.278 92.062Z" fill="#6B6B6B"/>
<path d="M140.748 103.526C141.197 103.526 141.56 103.164 141.56 102.717C141.56 102.27 141.197 101.908 140.748 101.908C140.3 101.908 139.937 102.27 139.937 102.717C139.937 103.164 140.3 103.526 140.748 103.526Z" fill="#6B6B6B"/>
<path d="M137.828 103.526C138.276 103.526 138.639 103.164 138.639 102.717C138.639 102.27 138.276 101.908 137.828 101.908C137.379 101.908 137.016 102.27 137.016 102.717C137.016 103.164 137.379 103.526 137.828 103.526Z" fill="#6B6B6B"/>
<path d="M134.907 103.526C135.355 103.526 135.718 103.164 135.718 102.717C135.718 102.27 135.355 101.908 134.907 101.908C134.458 101.908 134.095 102.27 134.095 102.717C134.095 103.164 134.458 103.526 134.907 103.526Z" fill="#6B6B6B"/>
<path d="M131.986 103.526C132.434 103.526 132.797 103.164 132.797 102.717C132.797 102.27 132.434 101.908 131.986 101.908C131.538 101.908 131.174 102.27 131.174 102.717C131.174 103.164 131.538 103.526 131.986 103.526Z" fill="#6B6B6B"/>
<path d="M129.065 103.526C129.513 103.526 129.876 103.164 129.876 102.717C129.876 102.27 129.513 101.908 129.065 101.908C128.617 101.908 128.253 102.27 128.253 102.717C128.253 103.164 128.617 103.526 129.065 103.526Z" fill="#6B6B6B"/>
<path d="M174.557 98.8326C175.005 98.8326 175.368 98.4703 175.368 98.0233C175.368 97.5764 175.005 97.2141 174.557 97.2141C174.108 97.2141 173.745 97.5764 173.745 98.0233C173.745 98.4703 174.108 98.8326 174.557 98.8326Z" fill="#6B6B6B"/>
<path d="M171.636 98.7516C172.084 98.7516 172.447 98.3893 172.447 97.9424C172.447 97.4955 172.084 97.1332 171.636 97.1332C171.187 97.1332 170.824 97.4955 170.824 97.9424C170.824 98.3893 171.187 98.7516 171.636 98.7516Z" fill="#6B6B6B"/>
<path d="M168.714 98.6707C169.162 98.6707 169.526 98.3084 169.526 97.8615C169.526 97.4146 169.162 97.0522 168.714 97.0522C168.266 97.0522 167.903 97.4146 167.903 97.8615C167.903 98.3084 168.266 98.6707 168.714 98.6707Z" fill="#6B6B6B"/>
<path d="M165.874 99.372C166.322 99.372 166.686 99.0097 166.686 98.5628C166.686 98.1158 166.322 97.7535 165.874 97.7535C165.426 97.7535 165.063 98.1158 165.063 98.5628C165.063 99.0097 165.426 99.372 165.874 99.372Z" fill="#6B6B6B"/>
<path d="M163.062 100.154C163.51 100.154 163.873 99.7921 163.873 99.3451C163.873 98.8982 163.51 98.5359 163.062 98.5359C162.614 98.5359 162.25 98.8982 162.25 99.3451C162.25 99.7921 162.614 100.154 163.062 100.154Z" fill="#6B6B6B"/>
<path d="M160.655 101.773C161.103 101.773 161.466 101.41 161.466 100.964C161.466 100.517 161.103 100.154 160.655 100.154C160.207 100.154 159.843 100.517 159.843 100.964C159.843 101.41 160.207 101.773 160.655 101.773Z" fill="#6B6B6B"/>
<path d="M158.464 103.661C158.912 103.661 159.275 103.299 159.275 102.852C159.275 102.405 158.912 102.042 158.464 102.042C158.016 102.042 157.652 102.405 157.652 102.852C157.652 103.299 158.016 103.661 158.464 103.661Z" fill="#6B6B6B"/>
<path d="M156.706 105.981C157.154 105.981 157.517 105.618 157.517 105.172C157.517 104.725 157.154 104.362 156.706 104.362C156.258 104.362 155.895 104.725 155.895 105.172C155.895 105.618 156.258 105.981 156.706 105.981Z" fill="#6B6B6B"/>
<path d="M155.462 108.597C155.91 108.597 156.273 108.235 156.273 107.788C156.273 107.341 155.91 106.979 155.462 106.979C155.014 106.979 154.65 107.341 154.65 107.788C154.65 108.235 155.014 108.597 155.462 108.597Z" fill="#6B6B6B"/>
<path d="M188.161 65.1144C188.609 65.1144 188.972 64.7521 188.972 64.3052C188.972 63.8583 188.609 63.496 188.161 63.496C187.712 63.496 187.349 63.8583 187.349 64.3052C187.349 64.7521 187.712 65.1144 188.161 65.1144Z" fill="#6B6B6B"/>
<path d="M185.754 66.7869C186.202 66.7869 186.565 66.4246 186.565 65.9777C186.565 65.5308 186.202 65.1685 185.754 65.1685C185.306 65.1685 184.942 65.5308 184.942 65.9777C184.942 66.4246 185.306 66.7869 185.754 66.7869Z" fill="#6B6B6B"/>
<path d="M183.076 67.8929C183.524 67.8929 183.887 67.5306 183.887 67.0836C183.887 66.6367 183.524 66.2744 183.076 66.2744C182.628 66.2744 182.265 66.6367 182.265 67.0836C182.265 67.5306 182.628 67.8929 183.076 67.8929Z" fill="#6B6B6B"/>
<path d="M180.344 68.9449C180.792 68.9449 181.155 68.5826 181.155 68.1356C181.155 67.6887 180.792 67.3264 180.344 67.3264C179.896 67.3264 179.533 67.6887 179.533 68.1356C179.533 68.5826 179.896 68.9449 180.344 68.9449Z" fill="#6B6B6B"/>
<path d="M177.504 69.5652C177.952 69.5652 178.316 69.2029 178.316 68.756C178.316 68.3091 177.952 67.9468 177.504 67.9468C177.056 67.9468 176.693 68.3091 176.693 68.756C176.693 69.2029 177.056 69.5652 177.504 69.5652Z" fill="#6B6B6B"/>
<path d="M174.638 70.1318C175.086 70.1318 175.449 69.7695 175.449 69.3225C175.449 68.8756 175.086 68.5133 174.638 68.5133C174.189 68.5133 173.826 68.8756 173.826 69.3225C173.826 69.7695 174.189 70.1318 174.638 70.1318Z" fill="#6B6B6B"/>
<path d="M171.717 70.3745C172.165 70.3745 172.528 70.0121 172.528 69.5652C172.528 69.1183 172.165 68.756 171.717 68.756C171.269 68.756 170.905 69.1183 170.905 69.5652C170.905 70.0121 171.269 70.3745 171.717 70.3745Z" fill="#6B6B6B"/>
<path d="M168.796 70.4824C169.244 70.4824 169.607 70.1201 169.607 69.6731C169.607 69.2262 169.244 68.8639 168.796 68.8639C168.348 68.8639 167.984 69.2262 167.984 69.6731C167.984 70.1201 168.348 70.4824 168.796 70.4824Z" fill="#6B6B6B"/>
<path d="M165.874 70.4014C166.322 70.4014 166.686 70.0391 166.686 69.5922C166.686 69.1453 166.322 68.783 165.874 68.783C165.426 68.783 165.063 69.1453 165.063 69.5922C165.063 70.0391 165.426 70.4014 165.874 70.4014Z" fill="#6B6B6B"/>
<path d="M154.84 30.9648C155.288 30.9648 155.651 30.6025 155.651 30.1555C155.651 29.7086 155.288 29.3463 154.84 29.3463C154.392 29.3463 154.028 29.7086 154.028 30.1555C154.028 30.6025 154.392 30.9648 154.84 30.9648Z" fill="#6B6B6B"/>
<path d="M152.027 31.72C152.475 31.72 152.838 31.3577 152.838 30.9108C152.838 30.4639 152.475 30.1016 152.027 30.1016C151.579 30.1016 151.215 30.4639 151.215 30.9108C151.215 31.3577 151.579 31.72 152.027 31.72Z" fill="#6B6B6B"/>
<path d="M149.701 33.4195C150.149 33.4195 150.512 33.0572 150.512 32.6103C150.512 32.1633 150.149 31.801 149.701 31.801C149.253 31.801 148.89 32.1633 148.89 32.6103C148.89 33.0572 149.253 33.4195 149.701 33.4195Z" fill="#6B6B6B"/>
<path d="M147.97 35.6583C148.418 35.6583 148.781 35.296 148.781 34.849C148.781 34.4021 148.418 34.0398 147.97 34.0398C147.522 34.0398 147.159 34.4021 147.159 34.849C147.159 35.296 147.522 35.6583 147.97 35.6583Z" fill="#6B6B6B"/>
<path d="M146.942 38.3828C147.39 38.3828 147.754 38.0204 147.754 37.5735C147.754 37.1266 147.39 36.7643 146.942 36.7643C146.494 36.7643 146.131 37.1266 146.131 37.5735C146.131 38.0204 146.494 38.3828 146.942 38.3828Z" fill="#6B6B6B"/>
<path d="M146.618 41.269C147.066 41.269 147.429 40.9067 147.429 40.4597C147.429 40.0128 147.066 39.6505 146.618 39.6505C146.169 39.6505 145.806 40.0128 145.806 40.4597C145.806 40.9067 146.169 41.269 146.618 41.269Z" fill="#6B6B6B"/>
<path d="M146.834 44.1823C147.282 44.1823 147.645 43.82 147.645 43.3731C147.645 42.9261 147.282 42.5638 146.834 42.5638C146.386 42.5638 146.022 42.9261 146.022 43.3731C146.022 43.82 146.386 44.1823 146.834 44.1823Z" fill="#6B6B6B"/>
<path d="M99.6655 188.361C99.8819 188.28 100.071 188.226 100.288 188.145C100.288 188.145 100.206 187.983 100.071 187.66C97.8534 183.074 79.4078 146.82 43.842 139.861C43.5715 139.807 43.274 139.753 43.0036 139.699C38.4868 138.89 33.7267 138.539 28.6961 138.782C28.6961 138.782 21.637 138.917 12.9552 145.013C12.7658 145.148 12.5765 145.283 12.3601 145.417C8.46548 148.25 4.27331 152.323 0.243417 158.095L0 158.419C0 158.419 0.0540927 158.581 0.189324 158.878C1.43345 161.737 8.68185 176.978 25.8292 186.985C26.0456 187.12 26.289 187.255 26.5053 187.363C42.0569 196.237 65.506 200.715 99.6655 188.361Z" fill="#0B4870"/>
<path d="M100.206 188.523L100.288 188.145L100.369 187.767L100.071 187.686L0.243417 158.149L0 158.473C0 158.473 0.0540927 158.635 0.189324 158.932L99.6655 188.361L100.206 188.523Z" fill="white"/>
<path d="M26.5323 187.444L41.4348 170.773L40.948 170.18L25.8561 187.066C26.0725 187.201 26.2889 187.309 26.5323 187.444ZM59.664 176.141L60.5024 176.249L43.8419 139.888C43.5714 139.834 43.2739 139.78 43.0035 139.726L59.664 176.141ZM22.286 165.352L22.8811 164.974L12.928 145.04C12.7387 145.175 12.5494 145.31 12.333 145.444L22.286 165.352Z" fill="white"/>
<path d="M98.259 186.769L98.5835 187.012C98.5835 187.012 98.6376 186.904 98.7728 186.742C100.504 184.018 113.756 161.845 105.453 140.454C105.399 140.292 105.318 140.104 105.264 139.942C104.182 137.244 102.749 134.574 100.909 131.957C100.909 131.957 98.4483 128.235 92.2276 125.645C92.0924 125.591 91.9572 125.537 91.7949 125.483C88.955 124.35 85.3308 123.487 80.8682 123.298H80.5977C80.5977 123.298 80.5437 123.379 80.4084 123.568C79.2995 125.187 73.5387 134.223 73.9714 146.82C73.9714 146.982 73.9714 147.144 73.9985 147.306C74.5123 158.608 80.0568 172.662 98.259 186.769Z" fill="#EB2938"/>
<path d="M98.3669 187.12L98.6103 187.039L98.8537 186.958L98.7997 186.769L80.868 123.352H80.5975C80.5975 123.352 80.5434 123.433 80.4082 123.622L98.2587 186.823L98.3669 187.12Z" fill="white"/>
<path d="M73.9984 147.306L88.0084 149.653L88.1436 149.194L73.9443 146.82C73.9714 146.982 73.9714 147.144 73.9984 147.306ZM91.308 161.225L91.5244 161.71L105.453 140.481C105.399 140.319 105.318 140.131 105.264 139.969L91.308 161.225ZM84.4383 137.568L84.844 137.757L92.2006 125.672C92.0653 125.618 91.9301 125.564 91.7678 125.51L84.4383 137.568Z" fill="white"/>
<path d="M98.4751 188.226C98.6644 188.253 98.8538 188.253 99.016 188.28V187.875C99.016 183.883 98.1776 152.026 73.6196 134.978C73.4303 134.844 73.2409 134.709 73.0246 134.574C69.8872 132.47 66.3712 130.582 62.4495 129.044C62.4495 129.044 57.0132 126.724 48.1961 128.073C48.0068 128.1 47.7904 128.127 47.6011 128.154C43.5982 128.828 38.9192 130.258 33.7534 132.955C33.6452 133.009 33.5641 133.063 33.4559 133.117C33.4559 133.117 33.4559 133.252 33.4288 133.522C33.3207 135.949 33.2936 149.167 42.7328 162.088C42.868 162.25 42.9762 162.411 43.1114 162.6C51.7121 174.091 67.9669 185.259 98.4751 188.226Z" fill="#FFBE55"/>
<path d="M98.8271 188.523L99.0164 188.28L99.2057 188.037L99.0164 187.875L33.7538 132.955C33.6456 133.009 33.5644 133.063 33.4562 133.117C33.4562 133.117 33.4562 133.252 33.4292 133.522L98.4484 188.226L98.8271 188.523Z" fill="white"/>
<path d="M43.1116 162.573L60.5294 155.911L60.3671 155.317L42.7329 162.061C42.8681 162.25 42.9763 162.411 43.1116 162.573ZM72.4838 165.918L73.0788 166.296L73.6468 134.951C73.4575 134.816 73.2681 134.682 73.0518 134.547L72.4838 165.918ZM47.9258 145.552L48.5208 145.498L48.1963 128.046C48.0069 128.073 47.7906 128.1 47.6012 128.127L47.9258 145.552Z" fill="white"/>
<path d="M94.5806 72.1008C94.5806 64.9526 86.7101 59.1531 77.0005 59.1531C67.2909 59.1531 59.4204 64.9526 59.4204 72.1008C59.4204 79.2491 67.2909 85.0486 77.0005 85.0486C78.8396 85.0486 80.6247 84.8328 82.2745 84.4551L88.6304 89.6342V81.8116C92.2816 79.4379 94.5806 75.9582 94.5806 72.1008Z" fill="#FFBE55"/>
<path d="M84.4383 59.5578C84.4383 53.7583 78.0554 49.0377 70.1579 49.0377C62.2604 49.0377 55.8774 53.7313 55.8774 59.5578C55.8774 65.3573 62.2604 70.0778 70.1579 70.0778C71.6454 70.0778 73.1059 69.916 74.4582 69.5923L79.597 73.8003V67.4613C82.5721 65.4922 84.4383 62.6868 84.4383 59.5578Z" fill="white"/>
<path d="M77.5413 55.7813H62.1249C61.9086 55.7813 61.7192 55.5925 61.7192 55.3767C61.7192 55.1609 61.9086 54.972 62.1249 54.972H77.5413C77.7577 54.972 77.947 55.1609 77.947 55.3767C77.947 55.5925 77.7577 55.7813 77.5413 55.7813ZM77.5413 58.6945H62.1249C61.9086 58.6945 61.7192 58.5057 61.7192 58.2899C61.7192 58.0741 61.9086 57.8853 62.1249 57.8853H77.5413C77.7577 57.8853 77.947 58.0741 77.947 58.2899C77.947 58.5057 77.7577 58.6945 77.5413 58.6945ZM77.5413 61.6347H62.1249C61.9086 61.6347 61.7192 61.4459 61.7192 61.2301C61.7192 61.0143 61.9086 60.8255 62.1249 60.8255H77.5413C77.7577 60.8255 77.947 61.0143 77.947 61.2301C77.947 61.4459 77.7577 61.6347 77.5413 61.6347ZM77.5413 64.548H62.1249C61.9086 64.548 61.7192 64.3592 61.7192 64.1434C61.7192 63.9276 61.9086 63.7388 62.1249 63.7388H77.5413C77.7577 63.7388 77.947 63.9276 77.947 64.1434C77.947 64.3592 77.7577 64.548 77.5413 64.548Z" fill="#FFBE55"/>
</svg>
