<svg width="21" height="20" viewBox="0 0 21 20" fill="none" xmlns="http://www.w3.org/2000/svg">
<path d="M17.5001 13.2487C16.649 13.2494 15.8322 13.5839 15.2251 14.1804L6.66674 10.3671V9.99873V9.64123L15.2251 5.81706C15.7611 6.3425 16.4625 6.66618 17.2102 6.73314C17.9578 6.8001 18.7056 6.6062 19.3264 6.18439C19.9473 5.76257 20.4031 5.13883 20.6162 4.41912C20.8294 3.69941 20.7869 2.92809 20.4959 2.23617C20.2049 1.54424 19.6834 0.97438 19.0199 0.623359C18.3564 0.272339 17.5919 0.161806 16.8561 0.310532C16.1204 0.459259 15.4588 0.858075 14.9838 1.43925C14.5087 2.02042 14.2495 2.74811 14.2501 3.49873V3.86706L5.69174 7.6804C5.23497 7.23163 4.6558 6.9278 4.02695 6.80704C3.3981 6.68629 2.74758 6.75399 2.15707 7.00165C1.56657 7.24931 1.06238 7.6659 0.7078 8.19911C0.353224 8.73232 0.164063 9.35839 0.164062 9.99873C0.164062 10.6391 0.353224 11.2651 0.7078 11.7984C1.06238 12.3316 1.56657 12.7481 2.15707 12.9958C2.74758 13.2435 3.3981 13.3112 4.02695 13.1904C4.6558 13.0697 5.23497 12.7658 5.69174 12.3171L14.2501 16.1412V16.4987C14.2501 17.1415 14.4407 17.7699 14.7978 18.3043C15.1549 18.8388 15.6625 19.2554 16.2564 19.5013C16.8502 19.7473 17.5037 19.8117 18.1341 19.6863C18.7646 19.5609 19.3437 19.2513 19.7982 18.7968C20.2527 18.3423 20.5622 17.7632 20.6876 17.1328C20.813 16.5023 20.7487 15.8489 20.5027 15.255C20.2567 14.6611 19.8401 14.1536 19.3057 13.7965C18.7712 13.4393 18.1429 13.2487 17.5001 13.2487Z" fill="black"/>
</svg>
