<svg width="22" height="22" viewBox="0 0 22 22" fill="none" xmlns="http://www.w3.org/2000/svg">
<path d="M11 19.9375C14.0376 19.9375 16.5 17.4751 16.5 14.4375C16.5 11.3999 14.0376 8.9375 11 8.9375C7.96243 8.9375 5.5 11.3999 5.5 14.4375C5.5 17.4751 7.96243 19.9375 11 19.9375Z" fill="#74C0EB"/>
<path d="M19.25 2.0625H13.4073C13.0276 2.0625 12.7198 2.37029 12.7198 2.75V4.125C12.7198 4.50471 13.0276 4.8125 13.4073 4.8125H13.7081V5.72918L15.324 4.8125H19.25C19.6297 4.8125 19.9375 4.50471 19.9375 4.125V2.75C19.9375 2.37029 19.6297 2.0625 19.25 2.0625Z" fill="#74C0EB"/>
<path d="M11 8.59375C7.77769 8.59375 5.15625 11.2152 5.15625 14.4375C5.15625 17.6598 7.77769 20.2812 11 20.2812C14.2223 20.2812 16.8438 17.6598 16.8438 14.4375C16.8438 11.2152 14.2223 8.59375 11 8.59375ZM9.25454 9.59186C8.79244 10.1794 8.42239 10.996 8.18806 11.9653C7.66342 11.8999 7.14409 11.8153 6.63039 11.7131C7.23876 10.7408 8.16021 9.98738 9.25454 9.59186ZM5.84375 14.4375C5.84375 13.6932 6.00552 12.9871 6.29052 12.3475C6.87029 12.4688 7.45779 12.5657 8.05087 12.6414C7.9574 13.2053 7.90625 13.8077 7.90625 14.4375C7.90625 15.0677 7.95747 15.6706 8.05111 16.2348C7.45776 16.31 6.87002 16.4065 6.29059 16.5276C6.00552 15.8879 5.84375 15.1818 5.84375 14.4375ZM6.63035 17.1619C7.14409 17.0597 7.66339 16.9751 8.18806 16.9097C8.42242 17.879 8.79244 18.6956 9.25454 19.2832C8.16021 18.8876 7.23876 18.1342 6.63035 17.1619ZM10.6562 19.5322C9.8956 19.2865 9.23777 18.2496 8.88044 16.8338C9.46976 16.779 10.0623 16.7473 10.6562 16.7384V19.5322ZM10.6562 16.051C10.0152 16.0603 9.37551 16.0944 8.73978 16.1557C8.64713 15.6148 8.59375 15.0374 8.59375 14.4375C8.59375 13.8382 8.64703 13.2613 8.7395 12.7209C9.37403 12.7825 10.0136 12.817 10.6562 12.8263V16.051ZM10.6562 12.1365C10.0623 12.1277 9.46976 12.096 8.88044 12.0412C9.23773 10.6254 9.89557 9.58846 10.6562 9.34285V12.1365ZM11.3438 9.34285C12.1044 9.58846 12.7622 10.6254 13.1196 12.0412C12.5302 12.096 11.9377 12.1277 11.3438 12.1365V9.34285ZM11.3438 12.8263C11.9864 12.817 12.626 12.7825 13.2605 12.7209C13.353 13.2613 13.4062 13.8382 13.4062 14.4375C13.4062 15.0374 13.3529 15.6148 13.2602 16.1557C12.6245 16.0945 11.9848 16.0603 11.3438 16.051V12.8263ZM11.3438 19.5322V16.7384C11.9377 16.7473 12.5302 16.779 13.1196 16.8338C12.7622 18.2496 12.1044 19.2865 11.3438 19.5322ZM12.7455 19.2831C13.2076 18.6956 13.5776 17.879 13.8119 16.9097C14.3366 16.9751 14.8559 17.0597 15.3696 17.1619C14.7612 18.1342 13.8398 18.8876 12.7455 19.2831ZM16.1562 14.4375C16.1562 15.1818 15.9945 15.888 15.7094 16.5276C15.13 16.4065 14.5422 16.31 13.9489 16.2348C14.0425 15.6706 14.0938 15.0677 14.0938 14.4375C14.0938 13.8077 14.0426 13.2053 13.9491 12.6414C14.5422 12.5657 15.1297 12.4688 15.7095 12.3475C15.9945 12.9871 16.1562 13.6932 16.1562 14.4375ZM13.8119 11.9653C13.5776 10.996 13.2076 10.1794 12.7455 9.59183C13.8398 9.98735 14.7612 10.7408 15.3696 11.713C14.8559 11.8153 14.3366 11.8999 13.8119 11.9653ZM19.25 1.71875H13.4072C12.8386 1.71875 12.376 2.18133 12.376 2.75V4.125C12.376 4.67923 12.8154 5.13274 13.3643 5.15542V6.31926L15.4147 5.15625H19.25C19.8187 5.15625 20.2812 4.69367 20.2812 4.125V2.75C20.2812 2.18133 19.8187 1.71875 19.25 1.71875ZM19.5938 4.125C19.5938 4.31451 19.4397 4.46875 19.25 4.46875H15.2334L14.0518 5.13896V4.46875H13.4072C13.2176 4.46875 13.0635 4.31451 13.0635 4.125V2.75C13.0635 2.56049 13.2176 2.40625 13.4072 2.40625H19.25C19.4397 2.40625 19.5938 2.56049 19.5938 2.75V4.125Z" fill="#003462"/>
<path d="M18.735 3.09375H18.0475V3.78125H18.735V3.09375Z" fill="#003462"/>
<path d="M17.36 3.09375H16.6725V3.78125H17.36V3.09375Z" fill="#003462"/>
<path d="M15.985 3.09375H15.2975V3.78125H15.985V3.09375Z" fill="#003462"/>
<path d="M14.61 3.09375H13.9225V3.78125H14.61V3.09375Z" fill="#003462"/>
<path d="M8.63572 8.03801V6.87418C9.18459 6.85152 9.624 6.39798 9.624 5.84375V4.46875C9.624 3.90008 9.16142 3.4375 8.59275 3.4375H2.75C2.18133 3.4375 1.71875 3.90008 1.71875 4.46875V5.84375C1.71875 6.41242 2.18133 6.875 2.75 6.875H6.58529L8.63572 8.03801ZM2.40625 5.84375V4.46875C2.40625 4.27924 2.56032 4.125 2.75 4.125H8.59275C8.78243 4.125 8.9365 4.27924 8.9365 4.46875V5.84375C8.9365 6.03326 8.78243 6.1875 8.59275 6.1875H7.94822V6.85771L6.76658 6.1875H2.75C2.56032 6.1875 2.40625 6.03326 2.40625 5.84375Z" fill="#003462"/>
<path d="M8.07745 4.8125H7.38995V5.5H8.07745V4.8125Z" fill="#003462"/>
<path d="M6.70245 4.8125H6.01495V5.5H6.70245V4.8125Z" fill="#003462"/>
<path d="M5.32745 4.8125H4.63995V5.5H5.32745V4.8125Z" fill="#003462"/>
<path d="M3.95245 4.8125H3.26495V5.5H3.95245V4.8125Z" fill="#003462"/>
</svg>
