<svg width="201" height="142" viewBox="0 0 201 142" fill="none" xmlns="http://www.w3.org/2000/svg">
<path opacity="0.5" d="M14.0869 133.265H186.913C187.692 133.265 188.325 133.897 188.325 134.675V134.766C188.325 135.545 187.692 136.176 186.913 136.176H14.0869C13.3081 136.176 12.6758 135.545 12.6758 134.766V134.675C12.6758 133.896 13.3081 133.265 14.0869 133.265Z" fill="#C1C1C1"/>
<path d="M146.171 67.2044C146.171 67.2044 149.046 66.4182 149.255 66.3483C149.486 66.2712 149.851 66.1324 149.919 66.922C149.985 67.7115 150.021 67.9588 150.021 67.9588C150.021 67.9588 146.665 67.9875 146.303 67.9477C145.941 67.9072 145.648 67.6294 146.171 67.2044Z" fill="#0F1B29"/>
<path d="M148.049 50.9466C147.848 49.1911 147.1 47.9479 145.167 48.275C143.234 48.6032 142.515 49.7088 142.857 50.7365C143.637 53.0814 143.798 53.0437 144.822 55.8533C145.326 57.2349 146.285 59.8976 147.129 62.2475L148.972 61.9215C148.802 59.0916 148.22 52.4428 148.049 50.9466Z" fill="url(#paint0_linear_88_21964)"/>
<path d="M149.019 63.0055C149.018 62.7917 149.001 62.4139 148.972 61.9214L147.129 62.2474C148.002 64.6761 148.753 66.7708 148.753 66.7708C148.753 66.7708 149.006 66.9331 149.233 66.8469C149.575 66.7177 149.564 66.5031 149.564 66.5031C149.564 66.5031 149.022 64.4478 149.019 63.0055Z" fill="#F4AA74"/>
<path d="M134.107 29.3903C134.074 29.0903 133.895 28.1729 133.653 28.209C133.08 28.2934 133.461 28.7554 133.137 29.4132C132.928 29.8378 133.902 30.6233 133.902 30.6233C133.902 30.6233 134.178 30.0156 134.107 29.3903Z" fill="#E59661"/>
<path d="M142.196 34.2076C140.39 32.678 134.779 31.0241 134.038 30.1944C133.557 29.6556 133.972 29.0184 132.75 28.3663C132.158 28.0503 130.648 29.2285 130.885 29.8548C131.428 31.2877 132.348 31.4509 133.399 31.0967C134.035 31.2181 138.737 34.6242 140.132 35.4725C140.761 35.8559 141.746 36.3625 142.144 35.9848C142.777 35.3835 142.866 34.7754 142.196 34.2076Z" fill="#E59661"/>
<path d="M142.539 32.5424C142.539 32.5424 141.15 34.5714 140.844 35.2437C140.625 35.7253 141.299 35.9555 141.71 36.103C142.121 36.2506 143.516 35.3118 144.397 34.1887C145.072 33.3288 142.733 32.4572 142.539 32.5424Z" fill="#E59661"/>
<path d="M147.757 26.3443C145.87 27.7948 141.43 33.3714 141.43 33.3714C141.43 33.3714 141.565 34.0203 142.494 34.897C143.888 36.2135 144.727 36.2411 144.727 36.2411C144.727 36.2411 148.015 33.3741 149.769 31.7005C150.627 30.8823 150.632 29.0976 150.307 27.5371C149.996 26.0404 148.659 25.65 147.757 26.3443Z" fill="url(#paint1_linear_88_21964)"/>
<path d="M147.505 38.5534C147.505 38.5534 143.587 47.742 142.875 49.6154C142.164 51.489 145.39 53.5267 147.379 51.6243C149.368 49.723 152.073 47.0453 153.155 44.6499C154.235 42.2538 154.495 40.1499 153.452 37.9121C152.409 35.6744 148.558 36.0769 147.505 38.5534Z" fill="url(#paint2_linear_88_21964)"/>
<path d="M164.247 64.455C164.247 64.455 165.559 61.7805 165.645 61.5775C165.74 61.3532 165.877 60.9879 166.514 61.4597C167.151 61.9321 167.36 62.0693 167.36 62.0693C167.36 62.0693 165.162 64.6024 164.892 64.8476C164.622 65.0922 164.22 65.128 164.247 64.455Z" fill="#0F1B29"/>
<path d="M152.731 38.1993C152.731 38.1993 150.936 49.2175 150.658 51.1776C150.38 53.1371 153.886 54.2692 155.375 51.9631C156.864 49.6563 159.137 47.4167 159.734 41.8242C160.072 38.6513 153.207 35.5802 152.731 38.1993Z" fill="#1A1A2E"/>
<path d="M148.821 25.8938C145.906 26.8551 146.397 29.6466 146.595 32.0043C147.038 37.2643 145.515 42.7423 145.515 42.7423C145.515 42.7423 150.897 45.5033 156.997 43.9024C159.767 43.1754 160.059 42.1635 160.059 42.1635C160.059 42.1635 158.992 33.0472 155.218 27.0963C154.374 25.7651 153.265 24.9939 150.79 25.3832C150.084 25.4949 149.539 25.6561 148.821 25.8938Z" fill="url(#paint3_linear_88_21964)"/>
<path d="M146.541 23.1862C144.219 21.8498 144.811 18.2238 147.485 18.4581C148.285 18.5282 148.046 19.7193 148.752 19.5001C150.825 18.8565 151.718 20.3905 151.77 22.1816C151.801 23.2911 150.884 24.3494 150.06 24.9964C149.728 24.6944 149.625 23.5353 148.443 23.1876C147.262 22.8394 146.541 23.1862 146.541 23.1862Z" fill="#1A1A2E"/>
<path d="M147.758 26.5068C147.807 27.4575 147.665 29.6196 149.724 28.9817C152.143 28.2326 152.05 25.4691 151.844 25.2061C151.374 24.6077 150.487 25.2242 149.879 25.4218C149.271 25.62 147.716 25.7008 147.758 26.5068Z" fill="#1A1A2E"/>
<path d="M151.188 25.3174C151.068 25.3376 150.946 25.3603 150.82 25.3874C150.121 25.5417 149.587 25.736 148.883 26.0167C148.661 26.1048 148.461 26.2032 148.28 26.311C148.343 26.9212 148.164 28.6994 149.725 28.2647C151.327 27.818 151.357 25.8749 151.188 25.3174Z" fill="#F4AA74"/>
<path d="M150.945 25.461C150.18 24.0203 149.694 23.2146 148.945 21.9386C148.936 21.8877 146.996 22.6082 146.299 21.6494C146.299 21.6494 146.391 23.0459 146.768 24.1495C147.124 25.1908 147.53 25.7168 148.455 25.0191C148.542 25.5441 148.874 26.1235 148.88 26.5902C148.894 27.5318 149.529 27.7205 149.953 27.6499C150.378 27.5785 151.756 26.9911 150.945 25.461Z" fill="#F4AA74"/>
<path d="M150.091 22.1508C150.285 22.3801 150.178 22.8068 149.852 23.1049C149.526 23.402 149.105 23.4579 148.911 23.2295C148.717 22.9999 148.824 22.5737 149.151 22.2754C149.476 21.9771 149.898 21.9221 150.091 22.1508Z" fill="#F4AA74"/>
<path d="M155.722 49.8838C154.531 48.5782 153.196 48.0081 151.821 49.4045C150.447 50.8017 150.512 52.1187 151.391 52.7517C153.397 54.1962 153.506 54.0713 155.983 55.749C157.072 56.4861 159.054 57.8398 160.934 59.1259L162.342 57.5616C160.326 55.1434 156.644 50.8932 155.722 49.8838Z" fill="#1A1A2E"/>
<path d="M166.069 61.6062C166.069 61.6062 164.424 60.258 163.577 59.0906C163.384 58.8253 162.935 58.2723 162.343 57.5615L160.935 59.1258C163.334 60.7669 165.568 62.2981 165.568 62.2981C165.568 62.2981 165.868 62.2814 166.002 62.0787C166.203 61.7741 166.069 61.6062 166.069 61.6062Z" fill="#F4AA74"/>
<path d="M161.15 59.4426L160.489 59.0436L162.265 57.0938L162.676 57.7474L161.15 59.4426Z" fill="url(#paint4_linear_88_21964)"/>
<path d="M147.154 62.7038L146.866 61.9881L149.121 61.5674L149.057 62.3367L147.154 62.7038Z" fill="url(#paint5_linear_88_21964)"/>
<path d="M162.373 129.681C164.398 130.284 164.089 132.193 164.089 132.193C164.089 132.193 165.647 131.192 167.131 132.214C168.263 132.993 168.033 134.584 166.189 134.72H153.305C155.015 131.871 158.57 128.549 162.373 129.681Z" fill="url(#paint6_linear_88_21964)"/>
<path d="M160.703 129.456C157.556 129.524 154.762 132.293 153.305 134.72H157.388C159.873 133.896 161.139 131.603 160.703 129.456Z" fill="url(#paint7_linear_88_21964)"/>
<path d="M145.863 119.645C152.131 121.373 148.487 129.521 148.487 129.521C148.487 129.521 152.091 123.555 157.225 126.15C160.62 127.866 160.56 132.768 156.388 134.72H135.663C134.705 125.374 139.43 117.871 145.863 119.645Z" fill="url(#paint8_linear_88_21964)"/>
<path d="M149.48 123.749C149.25 121.98 148.315 120.321 145.863 119.645C139.43 117.871 134.705 125.374 135.663 134.72H143.366C146.494 131.275 148.438 127.325 149.48 123.749Z" fill="url(#paint9_linear_88_21964)"/>
<path d="M142.77 134.72C145.56 130.341 146.779 125.589 147.038 121.54C147.376 116.595 146.311 112.676 145.56 110.463C143.444 111.473 139.927 113.165 136.178 115.052C132.41 116.981 128.411 119.104 124.911 121.931C121.265 124.881 119.006 128.944 116.938 133.068C116.67 133.619 116.405 134.171 116.145 134.72H142.77Z" fill="url(#paint10_linear_88_21964)"/>
<path opacity="0.5" d="M143.186 122.886C143.156 122.722 143 122.619 142.838 122.655C141.396 122.975 139.961 123.237 138.536 123.444C139.671 121.906 140.737 120.313 141.729 118.669C141.813 118.53 141.766 118.349 141.626 118.266C141.485 118.182 141.305 118.226 141.222 118.364C140.24 119.992 139.185 121.57 138.06 123.093C137.831 121.68 137.553 120.291 137.228 118.931C137.192 118.778 137.035 118.675 136.88 118.7C136.725 118.725 136.629 118.868 136.665 119.021C137.028 120.562 137.331 122.139 137.57 123.747C136.138 125.634 134.6 127.434 132.963 129.139C132.873 126.405 132.593 123.74 132.135 121.168C132.108 121.017 131.961 120.901 131.808 120.909C131.655 120.916 131.553 121.044 131.579 121.195C132.059 123.942 132.337 126.794 132.394 129.723C130.734 131.406 128.978 132.992 127.133 134.474C127.441 131.307 127.478 128.203 127.263 125.198C127.252 125.046 127.119 124.914 126.968 124.903C126.816 124.892 126.702 125.005 126.713 125.156C126.925 128.252 126.868 131.454 126.52 134.72H127.766C129.532 133.285 131.219 131.756 132.815 130.138C135.761 130.138 138.781 129.914 141.846 129.453C142.015 129.427 142.143 129.268 142.13 129.098C142.118 128.928 141.971 128.812 141.803 128.838C138.952 129.278 136.139 129.511 133.389 129.548C135.042 127.826 136.595 126.009 138.041 124.104C139.662 123.892 141.298 123.608 142.942 123.249C143.106 123.214 143.215 123.05 143.186 122.886ZM121.535 131.99C121.384 131.957 121.249 132.054 121.232 132.208C121.141 133.041 121.029 133.879 120.896 134.72H121.471C121.593 133.92 121.696 133.122 121.78 132.329C121.797 132.174 121.687 132.023 121.535 131.99Z" fill="#C40000"/>
<path d="M136.178 115.052C132.41 116.98 128.411 119.104 124.911 121.931C121.265 124.88 119.006 128.944 116.938 133.068C116.67 133.619 116.405 134.171 116.145 134.72H130.39C131.817 133.282 133.108 131.641 134.19 129.783C137.319 124.484 138.498 118.835 138.555 113.866C137.781 114.249 136.985 114.646 136.178 115.052Z" fill="url(#paint11_linear_88_21964)"/>
<path d="M129.46 134.72C130.873 132.941 132.088 130.93 133.001 128.683C135.928 121.611 135.792 114.425 134.446 108.866C133.113 103.242 130.571 99.2456 128.969 97.0405C126.963 98.8967 123.631 101.996 120.108 105.392C116.58 108.841 112.86 112.587 109.941 116.945C106.9 121.489 105.79 126.794 104.914 132.101C104.78 132.978 104.652 133.854 104.531 134.72H129.46Z" fill="url(#paint12_linear_88_21964)"/>
<path opacity="0.3" d="M131.596 118.978C131.523 118.793 131.319 118.715 131.141 118.802C128.119 120.277 125.067 121.507 122.017 122.498C123.262 120.011 124.363 117.45 125.315 114.83C127.047 114.033 128.77 113.151 130.477 112.184C130.647 112.088 130.712 111.869 130.622 111.696C130.533 111.523 130.323 111.462 130.155 111.559C128.659 112.413 127.152 113.201 125.637 113.923C126.369 111.818 127.005 109.676 127.541 107.502C127.586 107.319 127.472 107.134 127.287 107.089C127.102 107.045 126.916 107.156 126.872 107.338C126.341 109.49 125.711 111.612 124.986 113.697C124.242 112.202 123.452 110.752 122.62 109.349C122.526 109.191 122.316 109.131 122.152 109.212C121.988 109.294 121.931 109.486 122.024 109.644C122.962 111.235 123.844 112.886 124.667 114.595C123.724 117.19 122.634 119.726 121.4 122.19C120.355 119.176 119.121 116.306 117.722 113.6C117.639 113.44 117.436 113.362 117.267 113.424C117.099 113.485 117.03 113.662 117.111 113.821C118.597 116.715 119.893 119.795 120.969 123.038C119.703 125.485 118.296 127.858 116.753 130.146C116.001 126.512 114.969 123.042 113.69 119.771C113.625 119.605 113.431 119.504 113.259 119.544C113.086 119.584 112.998 119.749 113.062 119.914C114.405 123.379 115.47 127.065 116.215 130.932C115.319 132.224 114.377 133.487 113.394 134.72H114.275C115.144 133.612 115.98 132.479 116.782 131.324C120.682 130.644 124.634 129.608 128.582 128.2C128.771 128.133 128.883 127.92 128.833 127.726C128.783 127.533 128.589 127.432 128.402 127.5C124.699 128.836 120.991 129.842 117.325 130.531C118.882 128.221 120.303 125.825 121.581 123.354C124.862 122.336 128.148 121.044 131.402 119.471C131.581 119.385 131.668 119.164 131.596 118.978ZM109.661 129.313C109.481 129.329 109.364 129.483 109.399 129.66C109.72 131.313 109.977 133.001 110.169 134.72H110.845C110.646 132.982 110.381 131.276 110.051 129.605C110.016 129.428 109.841 129.298 109.661 129.313Z" fill="#C40000"/>
<path d="M39.6525 129.681C37.6276 130.284 37.9368 132.193 37.9368 132.193C37.9368 132.193 36.3783 131.192 34.8946 132.214C33.7626 132.993 33.9925 134.584 35.8369 134.72H48.721C47.0105 131.871 43.4561 128.549 39.6525 129.681Z" fill="url(#paint13_linear_88_21964)"/>
<path d="M41.3226 129.456C44.4695 129.524 47.2642 132.293 48.7212 134.72H44.6381C42.1531 133.896 40.8865 131.603 41.3226 129.456Z" fill="url(#paint14_linear_88_21964)"/>
<path d="M56.1629 119.645C49.8952 121.373 53.5384 129.521 53.5384 129.521C53.5384 129.521 49.9351 123.555 44.801 126.15C41.4059 127.866 41.4654 132.768 45.6376 134.72H66.3632C67.321 125.374 62.596 117.871 56.1629 119.645Z" fill="url(#paint15_linear_88_21964)"/>
<path d="M52.5459 123.749C52.7756 121.98 53.7107 120.321 56.1629 119.645C62.596 117.871 67.3211 125.374 66.3633 134.72H58.6601C55.532 131.275 53.5877 127.325 52.5459 123.749Z" fill="url(#paint16_linear_88_21964)"/>
<path d="M59.256 134.72C56.466 130.341 55.2465 125.589 54.988 121.54C54.6493 116.595 55.7147 112.676 56.4659 110.463C58.5812 111.473 62.0986 113.165 65.8478 115.052C69.6154 116.981 73.6149 119.104 77.1143 121.931C80.7607 124.881 83.0196 128.944 85.0875 133.068C85.3558 133.619 85.6208 134.171 85.8806 134.72H59.256Z" fill="url(#paint17_linear_88_21964)"/>
<path opacity="0.5" d="M59.0835 123.249C60.7281 123.608 62.3635 123.892 63.9847 124.104C65.4306 126.009 66.984 127.826 68.6368 129.548C65.8866 129.511 63.0741 129.278 60.2231 128.838C60.0551 128.812 59.9081 128.928 59.8958 129.098C59.8834 129.268 60.0109 129.427 60.1795 129.453C63.2448 129.914 66.2652 130.138 69.2112 130.138C70.8074 131.756 72.4936 133.285 74.2604 134.72H75.5064C75.1582 131.454 75.101 128.252 75.3134 125.156C75.3238 125.005 75.2102 124.892 75.0584 124.903C74.9067 124.914 74.7737 125.046 74.7628 125.198C74.5479 128.203 74.5845 131.307 74.8934 134.474C73.0482 132.992 71.2916 131.406 69.6322 129.723C69.6888 126.794 69.9666 123.942 70.447 121.195C70.4733 121.044 70.3713 120.916 70.2181 120.909C70.0645 120.901 69.9176 121.017 69.8907 121.168C69.4333 123.74 69.1527 126.405 69.0634 129.139C67.4263 127.434 65.8877 125.634 64.4557 123.747C64.6946 122.139 64.9975 120.562 65.3608 119.021C65.3968 118.868 65.301 118.725 65.1458 118.7C64.9906 118.675 64.8343 118.778 64.7977 118.931C64.4728 120.291 64.1948 121.68 63.9657 123.093C62.8413 121.57 61.7859 119.992 60.8035 118.364C60.7206 118.226 60.5405 118.182 60.4001 118.266C60.2599 118.349 60.2134 118.53 60.2972 118.669C61.289 120.313 62.3549 121.906 63.49 123.444C62.0654 123.237 60.6302 122.975 59.1884 122.655C59.026 122.619 58.8695 122.722 58.8403 122.886C58.8107 123.05 58.9203 123.214 59.0835 123.249ZM80.2455 132.329C80.3299 133.122 80.4332 133.92 80.5548 134.72H81.1299C80.9973 133.879 80.8851 133.041 80.7936 132.208C80.7767 132.054 80.6417 131.957 80.4905 131.99C80.3393 132.023 80.2288 132.174 80.2455 132.329Z" fill="#C40000"/>
<path d="M65.8478 115.052C69.6154 116.98 73.6149 119.104 77.1143 121.931C80.7607 124.88 83.0195 128.944 85.0874 133.068C85.3557 133.619 85.6208 134.171 85.8806 134.72H71.6359C70.2082 133.282 68.9176 131.641 67.8354 129.783C64.7064 124.484 63.5272 118.835 63.4707 113.866C64.2446 114.249 65.0407 114.646 65.8478 115.052Z" fill="url(#paint18_linear_88_21964)"/>
<path d="M72.5658 134.72C71.1529 132.941 69.9382 130.93 69.0244 128.683C66.098 121.611 66.2342 114.425 67.5796 108.866C68.9127 103.242 71.4548 99.2456 73.0569 97.0405C75.0631 98.8967 78.3948 101.996 81.9175 105.392C85.4463 108.841 89.1659 112.587 92.0848 116.945C95.1255 121.489 96.2356 126.794 97.1117 132.101C97.2462 132.978 97.374 133.854 97.4951 134.72H72.5658Z" fill="url(#paint19_linear_88_21964)"/>
<path opacity="0.3" d="M70.6237 119.471C73.8778 121.044 77.1642 122.336 80.4449 123.354C81.7231 125.825 83.1442 128.221 84.7014 130.531C81.035 129.842 77.3272 128.836 73.6243 127.5C73.4368 127.432 73.2429 127.533 73.193 127.726C73.1427 127.92 73.2556 128.133 73.4443 128.2C77.3918 129.608 81.3439 130.644 85.2444 131.324C86.0458 132.479 86.882 133.612 87.7514 134.72H88.6319C87.6492 133.487 86.7075 132.224 85.8108 130.932C86.5562 127.065 87.6214 123.379 88.9637 119.914C89.0279 119.749 88.9404 119.584 88.7674 119.544C88.5947 119.504 88.401 119.605 88.3361 119.771C87.0576 123.042 86.0247 126.512 85.273 130.146C83.7306 127.858 82.3233 125.485 81.0572 123.038C82.1336 119.795 83.4294 116.715 84.9149 113.821C84.9963 113.662 84.9268 113.485 84.7588 113.424C84.5906 113.362 84.3869 113.44 84.3043 113.6C82.9052 116.306 81.6711 119.176 80.6259 122.19C79.3926 119.726 78.3017 117.19 77.3595 114.595C78.182 112.886 79.0646 111.235 80.0023 109.644C80.0953 109.486 80.0381 109.294 79.8741 109.212C79.7098 109.131 79.5 109.191 79.4064 109.349C78.5739 110.752 77.7842 112.202 77.0402 113.697C76.3149 111.612 75.6853 109.49 75.1545 107.338C75.1096 107.156 74.9242 107.045 74.7392 107.089C74.5542 107.134 74.44 107.319 74.4853 107.502C75.0212 109.676 75.657 111.818 76.3892 113.923C74.874 113.201 73.3667 112.413 71.8716 111.559C71.7032 111.462 71.4934 111.523 71.4039 111.696C71.3141 111.869 71.3796 112.088 71.549 112.184C73.2566 113.151 74.9795 114.033 76.7115 114.83C77.6627 117.45 78.7643 120.011 80.0095 122.498C76.9595 121.507 73.9074 120.277 70.8848 118.802C70.7066 118.715 70.503 118.793 70.4305 118.978C70.3578 119.164 70.4447 119.385 70.6237 119.471ZM91.9754 129.605C91.6453 131.276 91.38 132.982 91.1815 134.72H91.8574C92.0488 133.001 92.3065 131.313 92.6276 129.66C92.6619 129.483 92.545 129.329 92.3654 129.313C92.1855 129.298 92.0104 129.428 91.9754 129.605Z" fill="#C40000"/>
<path d="M108.869 33.4609C109.07 33.4609 109.258 33.3828 109.401 33.2409C110.178 32.4713 111.207 32.048 112.3 32.048C114.571 32.048 116.419 33.8943 116.419 36.1637C116.419 38.4331 114.571 40.2793 112.3 40.2793C111.207 40.2793 110.178 39.8561 109.401 39.0876C109.258 38.9447 109.07 38.8665 108.869 38.8665C108.454 38.8665 108.117 39.2035 108.117 39.6178V52.7424H121.126C121.859 52.7424 122.456 53.3383 122.456 54.0708C122.456 54.4256 122.317 54.7593 122.066 55.0102C121.406 55.6761 121.042 56.5605 121.042 57.4995C121.042 59.4506 122.63 61.0378 124.583 61.0378C126.535 61.0378 128.124 59.4506 128.124 57.4995C128.124 56.5605 127.76 55.6761 127.098 55.0092C126.848 54.7593 126.71 54.4256 126.71 54.0708C126.71 53.3383 127.306 52.7424 128.039 52.7424L141.46 52.7425C141.303 34.3762 126.478 19.5211 108.117 19.2993V32.7096C108.117 33.1239 108.454 33.4609 108.869 33.4609Z" fill="#FCB63A"/>
<path d="M120.361 23.3098C124.196 24.9424 127.639 27.2731 130.594 30.2371C133.55 33.2017 135.871 36.6512 137.491 40.4899C139.13 44.3735 139.979 48.4942 140.016 52.7425H141.46C141.303 34.3762 126.478 19.5211 108.117 19.2993V20.7424C112.365 20.7956 116.483 21.6585 120.361 23.3098Z" fill="url(#paint20_linear_88_21964)"/>
<path d="M108.869 33.4606C109.07 33.4606 109.258 33.3825 109.401 33.2406C110.178 32.4711 111.207 32.0478 112.3 32.0478C114.571 32.0478 116.419 33.8941 116.419 36.1635C116.419 38.4329 114.571 40.2791 112.3 40.2791C111.207 40.2791 110.178 39.8559 109.401 39.0873C109.258 38.9445 109.07 38.8663 108.869 38.8663C108.454 38.8663 108.117 39.2033 108.117 39.6175V52.7421H121.126C121.859 52.7421 122.456 53.3381 122.456 54.0706C122.456 54.4254 122.317 54.759 122.066 55.01C121.406 55.6759 121.042 56.5603 121.042 57.4993C121.042 59.4504 122.63 61.0376 124.583 61.0376C126.535 61.0376 128.124 59.4504 128.124 57.4993C128.124 56.5603 127.76 55.6759 127.098 55.009C126.848 54.759 126.71 54.4254 126.71 54.0706C126.71 53.3381 127.306 52.7421 128.039 52.7421L140.016 52.7422C139.979 48.4939 139.13 44.3732 137.491 40.4897C135.871 36.651 133.55 33.2014 130.594 30.2369C127.639 27.2729 124.196 24.9422 120.361 23.3096C116.483 21.6582 112.365 20.7954 108.117 20.7422V32.7094C108.117 33.1237 108.454 33.4606 108.869 33.4606Z" fill="url(#paint21_linear_88_21964)"/>
<path d="M136.1 46.7314C135.464 46.7314 134.882 46.3091 134.707 45.6669C134.634 45.3989 134.556 45.1283 134.475 44.8626C134.242 44.1003 134.671 43.2936 135.434 43.061C136.197 42.8284 137.004 43.2576 137.237 44.02C137.327 44.3135 137.413 44.6126 137.494 44.9089C137.704 45.678 137.249 46.4711 136.48 46.6804C136.353 46.715 136.225 46.7314 136.1 46.7314ZM134.166 41.5922C133.631 41.5922 133.117 41.2938 132.867 40.7809C131.864 38.7259 130.608 36.7962 129.133 35.0453C128.619 34.4357 128.697 33.5252 129.307 33.0118C129.917 32.4984 130.828 32.5764 131.342 33.1861C132.97 35.1185 134.357 37.2483 135.463 39.5165C135.813 40.233 135.514 41.0969 134.798 41.446C134.594 41.5451 134.378 41.5922 134.166 41.5922ZM126.999 32.2701C126.663 32.2701 126.325 32.1534 126.051 31.9154C123.845 29.9957 121.359 28.4405 118.663 27.2927C117.558 26.8222 116.415 26.4206 115.265 26.0988C114.497 25.8839 114.049 25.0874 114.264 24.3199C114.479 23.5524 115.276 23.1045 116.044 23.3195C117.314 23.6748 118.576 24.1182 119.795 24.6373C122.77 25.9038 125.513 27.6201 127.948 29.7385C128.549 30.2619 128.612 31.1734 128.089 31.7746C127.803 32.1024 127.402 32.2701 126.999 32.2701Z" fill="url(#paint22_linear_88_21964)"/>
<path opacity="0.3" d="M121.223 58.1103C121.181 58.1103 121.139 58.1117 121.096 58.1135C121.388 59.7729 122.84 61.038 124.583 61.038C126.327 61.038 127.779 59.7712 128.07 58.1103L121.223 58.1103ZM109.401 39.0878C109.258 38.9449 109.07 38.8667 108.869 38.8667C108.454 38.8667 108.117 39.2037 108.117 39.6179V47.8703C109.86 46.9306 111.047 45.0886 111.047 42.9748C111.047 41.598 110.543 40.3368 109.711 39.3649C109.604 39.2781 109.501 39.1858 109.401 39.0878Z" fill="#FA7000"/>
<path d="M134.645 59.5534H121.223C120.491 59.5534 119.894 60.1493 119.894 60.8818C119.894 61.2367 120.032 61.5703 120.283 61.8202C120.944 62.4872 121.308 63.3715 121.308 64.3105C121.308 66.2615 119.719 67.8489 117.767 67.8489C115.815 67.8489 114.226 66.2615 114.226 64.3105C114.226 63.3715 114.59 62.4872 115.25 61.8212C115.502 61.5703 115.64 61.2367 115.64 60.8818C115.64 60.1493 115.043 59.5534 114.31 59.5534H101.301V46.4288C101.301 46.0145 101.639 45.6776 102.053 45.6776C102.254 45.6776 102.443 45.7557 102.586 45.8986C103.362 46.6671 104.391 47.0904 105.484 47.0904C107.755 47.0904 109.603 45.2441 109.603 42.9747C109.603 40.7053 107.755 38.8591 105.484 38.8591C104.391 38.8591 103.362 39.2823 102.585 40.0518C102.443 40.1937 102.254 40.2719 102.053 40.2719C101.639 40.2719 101.301 39.9349 101.301 39.5207V26.1103C101.205 26.1092 101.109 26.1078 101.013 26.1074C100.916 26.1078 100.82 26.1092 100.724 26.1103C82.2649 26.3334 67.3789 41.3468 67.3789 59.8488C67.3789 81.4875 85.8246 90.9462 85.8246 99.5416V106.028H116.201V99.5416C116.201 90.9837 134.485 81.5695 134.645 60.1307C134.645 60.0367 134.646 59.9431 134.646 59.8488C134.646 59.7502 134.645 59.6518 134.645 59.5534Z" fill="#FCB63A"/>
<path d="M100.724 26.1103C82.2649 26.3334 67.3789 41.3468 67.3789 59.8488C67.3789 81.4875 85.8246 90.9462 85.8246 99.5416V106.028H87.2687V99.5416C87.2687 95.7134 84.4205 92.1469 80.8144 87.6315C75.4719 80.942 68.8231 72.6167 68.8231 59.8488C68.8231 55.4962 69.6734 51.2745 71.3504 47.301C72.9704 43.4623 75.2907 40.0127 78.2467 37.0481C81.2023 34.0841 84.6452 31.7535 88.4799 30.1208C92.3583 28.4696 96.4763 27.6067 100.724 27.5534C100.82 27.5523 100.916 27.5509 101.013 27.5505C101.109 27.5509 101.205 27.5523 101.301 27.5534V26.1103C101.205 26.1092 101.109 26.1078 101.013 26.1074C100.916 26.1078 100.82 26.1092 100.724 26.1103Z" fill="url(#paint23_linear_88_21964)"/>
<path d="M134.645 59.5532H133.201C133.201 59.6517 133.202 59.7501 133.202 59.8486C133.202 59.9431 133.201 60.0365 133.2 60.1305C133.103 72.7388 126.514 80.9913 121.211 87.6313C117.605 92.1467 114.757 95.7132 114.757 99.5415V106.028H116.201V99.5415C116.201 90.9835 134.485 81.5693 134.645 60.1305C134.645 60.0366 134.647 59.9429 134.647 59.8486C134.647 59.75 134.646 59.6517 134.645 59.5532Z" fill="url(#paint24_linear_88_21964)"/>
<path d="M133.2 59.5532H121.224C120.491 59.5532 119.894 60.1491 119.894 60.8815C119.894 61.2364 120.032 61.57 120.283 61.82C120.944 62.4869 121.308 63.3713 121.308 64.3102C121.308 66.2613 119.72 67.8487 117.767 67.8487C115.815 67.8487 114.226 66.2613 114.226 64.3102C114.226 63.3713 114.59 62.4869 115.251 61.8209C115.502 61.57 115.64 61.2364 115.64 60.8815C115.64 60.1491 115.044 59.5532 114.311 59.5532H101.302V46.4285C101.302 46.0143 101.639 45.6773 102.053 45.6773C102.254 45.6773 102.443 45.7555 102.586 45.8984C103.362 46.6668 104.391 47.0902 105.484 47.0902C107.755 47.0902 109.603 45.2439 109.603 42.9745C109.603 40.7051 107.755 38.8588 105.484 38.8588C104.391 38.8588 103.362 39.2821 102.585 40.0516C102.443 40.1935 102.254 40.2717 102.053 40.2717C101.639 40.2717 101.302 39.9346 101.302 39.5205V27.5532C101.205 27.552 101.109 27.5507 101.013 27.5503C100.916 27.5507 100.82 27.552 100.724 27.5532C96.4764 27.6064 92.3584 28.4694 88.48 30.1206C84.6453 31.7532 81.2024 34.0839 78.2468 37.0479C75.2908 40.0125 72.9705 43.462 71.3505 47.3007C69.6735 51.2742 68.8232 55.496 68.8232 59.8485C68.8232 72.6165 75.472 80.9417 80.8145 87.6312C84.4206 92.1466 87.2688 95.7131 87.2688 99.5414V106.028H114.757V99.5414C114.757 95.7131 117.605 92.1466 121.211 87.6312C126.514 80.9912 133.103 72.7388 133.2 60.1305C133.201 60.0365 133.202 59.943 133.202 59.8485C133.202 59.75 133.201 59.6516 133.2 59.5532Z" fill="url(#paint25_linear_88_21964)"/>
<path d="M101.013 130.8H91.3584L91.6447 132.5C91.8516 133.746 93.0532 134.72 94.3189 134.72H107.707C108.973 134.72 110.174 133.746 110.381 132.5L110.667 130.8H101.013Z" fill="url(#paint26_linear_88_21964)"/>
<path d="M85.0852 106.028H116.941C117.758 106.028 118.422 106.691 118.422 107.508V107.906C118.422 108.723 117.758 109.386 116.941 109.386H85.0852C84.2677 109.386 83.604 108.723 83.604 107.906V107.508C83.604 106.692 84.2677 106.028 85.0852 106.028Z" fill="url(#paint27_linear_88_21964)"/>
<path d="M85.2642 109.386L88.1008 128.73C88.271 129.884 89.4157 130.8 90.6507 130.8H111.374C112.604 130.8 113.756 129.884 113.924 128.73L116.762 109.386H85.2642Z" fill="url(#paint28_linear_88_21964)"/>
<path d="M114.779 122.902L116.762 109.386H85.2642L87.2461 122.902H114.779Z" fill="url(#paint29_linear_88_21964)"/>
<path d="M86.4654 117.578L99.6975 130.8H102.792L85.934 113.954L86.4654 117.578ZM92.2453 109.386L113.061 130.187C113.516 129.814 113.841 129.301 113.924 128.73L114.023 128.056L95.3397 109.386H92.2453ZM87.6653 125.76L92.7091 130.8H95.8034L87.1339 122.137L87.6653 125.76ZM85.2642 109.386L85.2654 109.395L106.686 130.8H109.78L88.3512 109.386H85.2642ZM99.2339 109.386L114.521 124.662L114.916 121.965L102.328 109.386H99.2339ZM116.306 109.386H113.211L116.308 112.481L116.703 109.784L116.306 109.386ZM106.222 109.386L115.414 118.571L115.81 115.875L109.317 109.386H106.222Z" fill="url(#paint30_linear_88_21964)"/>
<path d="M91.3584 130.8L91.6447 132.5C91.8516 133.746 93.0532 134.72 94.3189 134.72H98.1843C97.6495 134.72 97.1418 133.746 97.0542 132.5L96.9333 130.8H91.3584Z" fill="#02101C"/>
<path d="M108.656 72.6431C105.456 72.6431 102.853 75.2445 102.853 78.4422V82.8624H99.1728V78.4422C99.1728 75.2445 96.5695 72.6431 93.3696 72.6431C90.1697 72.6431 87.5664 75.2445 87.5664 78.4422C87.5664 81.6397 90.1697 84.2411 93.3696 84.2411H97.7932V106.028H99.1728V84.2411H102.853V106.028H104.232V84.2411H108.656C111.856 84.2411 114.459 81.6397 114.459 78.4422C114.459 75.2445 111.856 72.6431 108.656 72.6431ZM95.9049 82.8624H93.3696C90.9304 82.8624 88.9462 80.8794 88.9462 78.4422C88.9462 76.0048 90.9304 74.0218 93.3696 74.0218C95.8086 74.0218 97.7932 76.0048 97.7932 78.4422V82.8624H95.9049ZM108.656 82.8624H104.232V78.4422C104.232 76.0048 106.217 74.0218 108.656 74.0218C111.095 74.0218 113.079 76.0048 113.079 78.4422C113.079 80.8794 111.095 82.8624 108.656 82.8624Z" fill="url(#paint31_linear_88_21964)"/>
<path d="M101.013 26.1074C100.917 26.1078 100.82 26.1092 100.724 26.1103V39.5207C100.724 40.2532 101.32 40.8492 102.054 40.8492C102.409 40.8492 102.742 40.711 102.992 40.461C103.66 39.8002 104.545 39.4363 105.485 39.4363C107.437 39.4363 109.026 41.0237 109.026 42.9747C109.026 44.9258 107.437 46.5131 105.485 46.5131C104.545 46.5131 103.66 46.1492 102.993 45.4894C102.742 45.2385 102.409 45.1003 102.054 45.1003C101.32 45.1003 100.724 45.6962 100.724 46.4288V59.842H101.302V46.4288C101.302 46.0145 101.639 45.6776 102.054 45.6776C102.254 45.6776 102.443 45.7557 102.586 45.8986C103.362 46.6671 104.392 47.0904 105.485 47.0904C107.756 47.0904 109.603 45.2441 109.603 42.9747C109.603 40.7053 107.756 38.8591 105.485 38.8591C104.392 38.8591 103.362 39.2823 102.585 40.0518C102.443 40.1937 102.254 40.2719 102.054 40.2719C101.639 40.2719 101.302 39.9349 101.302 39.5207V26.1103C101.206 26.1092 101.109 26.1078 101.013 26.1074Z" fill="url(#paint32_linear_88_21964)"/>
<path d="M86.9631 58.8022C86.9631 58.6016 87.0413 58.4129 87.1843 58.27C87.9533 57.4942 88.3768 56.4655 88.3768 55.3735C88.3768 53.1041 86.5293 51.2578 84.2583 51.2578C81.9873 51.2578 80.1397 53.1041 80.1397 55.3735C80.1397 56.4656 80.5632 57.4943 81.3334 58.271C81.4754 58.4128 81.5535 58.6015 81.5535 58.8022C81.5535 59.2163 81.2163 59.5533 80.8017 59.5533H67.3808C67.38 59.6517 67.3789 59.75 67.3789 59.8486C67.3789 59.943 67.3802 60.0366 67.3808 60.1305H80.8017C81.5348 60.1305 82.1312 59.5347 82.1312 58.8022C82.1312 58.4473 81.9929 58.1137 81.7428 57.8637C81.0814 57.1968 80.7174 56.3124 80.7174 55.3735C80.7174 53.4224 82.3059 51.8351 84.2583 51.8351C86.2108 51.8351 87.7992 53.4224 87.7992 55.3735C87.7992 56.3124 87.4352 57.1968 86.7748 57.8628C86.5237 58.1138 86.3854 58.4474 86.3854 58.8022C86.3854 59.5347 86.9818 60.1305 87.7149 60.1305H101.138V59.5533H87.7149C87.3003 59.5533 86.9631 59.2163 86.9631 58.8022Z" fill="url(#paint33_linear_88_21964)"/>
<path d="M119.894 60.8816C119.894 61.2365 120.033 61.5701 120.283 61.82C120.944 62.487 121.308 63.3714 121.308 64.3103C121.308 66.2613 119.72 67.8487 117.767 67.8487C115.815 67.8487 114.226 66.2613 114.226 64.3103C114.226 63.3714 114.59 62.487 115.251 61.821C115.502 61.5701 115.64 61.2365 115.64 60.8816C115.64 60.1491 115.044 59.5532 114.311 59.5532H100.888V60.1305H114.311C114.725 60.1305 115.062 60.4674 115.062 60.8816C115.062 61.0823 114.984 61.2709 114.841 61.4137C114.072 62.1896 113.648 63.2183 113.648 64.3103C113.648 66.5797 115.496 68.426 117.767 68.426C120.038 68.426 121.886 66.5797 121.886 64.3103C121.886 63.2183 121.462 62.1896 120.692 61.4128C120.55 61.2709 120.472 61.0823 120.472 60.8816C120.472 60.4674 120.809 60.1305 121.224 60.1305L134.645 60.1305C134.645 60.0366 134.647 59.943 134.647 59.8486C134.647 59.75 134.646 59.6517 134.645 59.5532H121.224C120.491 59.5532 119.894 60.1491 119.894 60.8816Z" fill="url(#paint34_linear_88_21964)"/>
<path d="M101.302 59.7686H100.724V80.5125H101.302V59.7686Z" fill="url(#paint35_linear_88_21964)"/>
<path d="M78.2468 37.0479C75.2908 40.0125 72.9705 43.462 71.3505 47.3007C69.6735 51.2742 68.8232 55.496 68.8232 59.8485C68.8232 72.6165 75.472 80.9417 80.8145 87.6312C84.4206 92.1466 87.2688 95.7131 87.2688 99.5414V106.028H94.7207V99.5414C94.7207 95.7131 93.4167 92.1466 91.7658 87.6312C89.32 80.9417 86.2762 72.6165 86.2762 59.8485C86.2762 55.496 86.6654 51.2742 87.4331 47.3007C88.1749 43.462 89.237 40.0125 90.5904 37.0479C91.9434 34.0839 93.5196 31.7532 95.2751 30.1206C97.0911 28.432 99.0215 27.5672 101.013 27.5503C96.6632 27.5672 92.4464 28.432 88.48 30.1206C84.6453 31.7532 81.2024 34.0839 78.2468 37.0479Z" fill="url(#paint36_linear_88_21964)"/>
<path d="M95.5566 128.729L95.27 124.1L95.1483 122.136L94.8657 117.577L94.6412 113.954L94.6413 113.954L94.3587 109.394L94.3581 109.386H85.2642L85.2654 109.394L85.9341 113.954L85.934 113.954L86.4654 117.577L87.1339 122.136L87.4219 124.1L88.1008 128.729C88.271 129.883 89.4157 130.8 90.6507 130.8H96.6342C96.1125 130.8 95.6287 129.883 95.5566 128.729Z" fill="url(#paint37_linear_88_21964)"/>
<path d="M46.2517 98.0164C46.3408 97.7145 46.6929 96.803 46.9328 96.8746C47.5012 97.0438 47.0274 97.461 47.2359 98.1802C47.3705 98.6447 46.2325 99.3063 46.2325 99.3063C46.2325 99.3063 46.0642 98.6452 46.2517 98.0164Z" fill="#F4AA74"/>
<path d="M37.1243 101.769C39.2459 100.468 45.2651 99.5893 46.1731 98.8485C46.7631 98.3675 46.458 97.6562 47.8231 97.1666C48.4846 96.9293 49.8039 98.3523 49.4463 98.9579C48.6292 100.344 47.6622 100.378 46.657 99.8634C45.9874 99.8953 40.5697 102.696 38.9926 103.362C38.2805 103.662 37.184 104.037 36.849 103.594C36.3152 102.887 36.3368 102.253 37.1243 101.769Z" fill="#F4AA74"/>
<path d="M32.2021 133.777C32.2021 133.777 29.1613 132.996 28.9398 132.926C28.6948 132.849 28.3077 132.71 28.261 133.514C28.2149 134.317 28.1855 134.569 28.1855 134.569C28.1855 134.569 31.7069 134.577 32.0859 134.534C32.4643 134.491 32.7637 134.206 32.2021 133.777Z" fill="#0F1B29"/>
<path d="M34.0601 105.286C34.0601 105.286 33.9416 114.26 33.8052 116.304C33.6688 118.348 29.7286 118.74 28.6668 116.085C27.6036 113.431 26.1974 109.737 26.2086 107.046C26.2212 104.353 26.8854 102.305 28.8427 100.73C30.8001 99.1548 34.1337 102.533 34.0601 105.286Z" fill="url(#paint38_linear_88_21964)"/>
<path d="M28.6011 124.337C28.6845 126.678 28.7806 128.818 28.8569 129.467C29.0283 130.935 28.7123 133.073 28.7123 133.073C28.7123 133.073 28.728 133.293 29.0979 133.394C29.3441 133.463 29.5878 133.275 29.5878 133.275C29.5878 133.275 30.7738 128.332 31.6588 124.678L28.6011 124.337Z" fill="#F4AA74"/>
<path d="M32.3527 121.826C33.0781 118.879 33.2501 118.903 33.7771 116.45C34.0075 115.374 33.1272 114.312 31.0789 114.146C29.0311 113.981 28.4046 115.31 28.4081 117.114C28.4099 118.12 28.2927 121.569 28.3979 124.519L31.7583 124.892C32.0341 123.754 32.1805 122.526 32.3527 121.826Z" fill="url(#paint39_linear_88_21964)"/>
<path d="M31.9213 125.224C31.9122 125.275 31.8629 125.316 31.8114 125.316L28.4363 125.318C28.3848 125.318 28.331 125.277 28.3167 125.228L28.1363 124.606C28.1221 124.557 28.1526 124.516 28.2039 124.516L31.9533 124.514C32.0046 124.514 32.0395 124.556 32.0305 124.606L31.9213 125.224Z" fill="url(#paint40_linear_88_21964)"/>
<path d="M20.5777 124.615C20.4331 126.768 20.3091 128.953 20.3288 129.717C20.3657 131.163 19.9014 133.078 19.9014 133.078C19.9014 133.078 19.9068 133.307 20.2461 133.442C20.5939 133.58 20.6831 133.469 20.6831 133.469C20.6831 133.469 22.4232 128.96 24.0559 124.615H20.5777Z" fill="#F4AA74"/>
<path d="M21.2849 133.528C21.28 133.449 21.2707 133.382 21.2595 133.322C21.1589 132.77 20.8315 132.888 20.6159 132.957C20.5761 132.97 20.4437 133.008 20.2542 133.059C20.0641 133.009 19.9315 132.973 19.8914 132.96C19.6755 132.892 19.347 132.778 19.251 133.33C19.2402 133.391 19.2313 133.457 19.2267 133.536C19.1822 134.323 19.1533 134.57 19.1533 134.57C19.1533 134.57 19.6361 134.57 20.2602 134.569C20.8841 134.566 21.3675 134.561 21.3675 134.561C21.3675 134.561 21.3364 134.314 21.2849 133.528Z" fill="#101B29"/>
<path d="M28.9043 104.487C28.9043 104.487 26.9662 115.632 26.5806 117.601C26.1946 119.569 22.319 119.464 21.6146 116.754C21.0641 114.632 19.7143 109.257 20.2115 106.306C20.4118 105.118 20.5446 104.041 20.874 102.784C21.6944 99.6551 29.3166 101.821 28.9043 104.487Z" fill="#1A1A2E"/>
<path d="M26.4891 117.9C26.595 117.558 25.8405 115.312 23.8579 114.969C21.8751 114.626 21.0848 118.195 20.9274 119.955C20.8533 120.786 20.6148 122.781 20.4854 124.708L24.1314 124.817C25.2502 121.84 26.066 119.265 26.4891 117.9Z" fill="#1A1A2E"/>
<path d="M24.1468 125.329C24.1298 125.377 24.0739 125.417 24.0224 125.417H20.4153C20.3639 125.417 20.3218 125.375 20.3218 125.324V124.709C20.3218 124.657 20.3639 124.615 20.4153 124.615H24.3031C24.3544 124.615 24.3827 124.655 24.3657 124.703L24.1468 125.329Z" fill="url(#paint41_linear_88_21964)"/>
<path d="M35.061 100.888C35.061 100.888 36.3474 103.022 36.8433 103.584C37.1985 103.988 37.7189 103.45 38.0426 103.125C38.3656 102.8 38.1091 101.107 37.4479 99.8203C36.9412 98.835 35.0678 100.671 35.061 100.888Z" fill="#F4AA74"/>
<path d="M30.0169 94.6004C30.6425 96.5744 33.9292 102.769 33.9292 102.769C33.9292 102.769 34.6012 102.906 35.8433 102.391C37.7082 101.617 38.109 100.841 38.109 100.841C38.109 100.841 36.8482 96.323 35.7084 93.3741C34.8068 91.0409 32.6132 89.9881 30.9049 90.9347C29.5055 91.7105 29.6671 93.4973 30.0169 94.6004Z" fill="url(#paint42_linear_88_21964)"/>
<path d="M32.4735 90.416C35.5518 91.3656 35.2966 94.0646 35.1837 95.716C34.5344 105.232 34.1292 108.19 34.1292 108.19C34.1292 108.19 31.8941 110.02 26.9082 108.915C20.4334 107.479 20.3545 103.723 20.3545 103.723C20.3545 103.723 23.5924 96.6216 25.4602 91.9454C26.0582 90.4474 27.7844 89.5421 30.3941 89.9156C31.1391 90.0226 31.7142 90.1814 32.4735 90.416Z" fill="url(#paint43_linear_88_21964)"/>
<path d="M34.2635 87.3528C35.2287 86.4305 35.4542 83.5125 33.9898 83.0002C32.1802 82.3671 32.1156 84.2563 31.0681 84.3249C28.7886 84.4752 28.2699 85.9825 28.6746 87.7524C28.9253 88.8483 29.8836 89.3939 30.9311 89.6004C31.3948 89.692 31.2074 88.5113 32.3237 87.8576C33.4403 87.2038 34.2635 87.3528 34.2635 87.3528Z" fill="#1A1A2E"/>
<path d="M33.6019 91.0049C33.5577 91.9687 33.7244 94.1588 31.5506 93.5295C28.9965 92.7911 29.0713 89.9897 29.287 89.7214C29.7767 89.1111 30.7162 89.7282 31.3585 89.9233C32.0005 90.1192 33.6391 90.1878 33.6019 91.0049Z" fill="#1A1A2E"/>
<path d="M29.9779 89.8286C30.1053 89.8478 30.2337 89.8698 30.3668 89.8964C31.1039 90.0467 31.6687 90.2391 32.412 90.5176C32.6469 90.605 32.8585 90.703 33.0497 90.8108C32.9885 91.4295 33.1917 93.2299 31.544 92.8029C29.8521 92.3638 29.8046 90.3949 29.9779 89.8286Z" fill="#F4AA74"/>
<path d="M30.45 90.4153C30.7524 88.5263 31.0507 88.2405 31.4895 86.7908C31.4856 86.7383 33.6483 86.9318 34.1143 85.8076C34.1143 85.8076 34.3761 87.2016 34.2725 88.3839C34.1753 89.4996 33.8958 90.1226 32.7745 89.6829C32.8187 90.2207 32.6913 90.8478 32.7359 91.3188C32.8248 92.2689 32.1798 92.5311 31.7276 92.5083C31.2751 92.4845 30.1703 92.1634 30.45 90.4153Z" fill="#F4AA74"/>
<path d="M26.9124 107.302C26.851 107.555 27.0135 107.761 27.2732 107.761H36.5999C36.8594 107.761 37.122 107.555 37.1831 107.302L38.7938 100.656C38.8548 100.404 38.6925 100.198 38.4328 100.198H29.1062C28.8466 100.198 28.584 100.404 28.523 100.656L26.9124 107.302Z" fill="#1A1A2E"/>
<path d="M26.9124 107.302L28.523 100.656C28.584 100.404 28.8466 100.198 29.1062 100.198H29.5545C29.2949 100.198 29.0325 100.404 28.9715 100.656L27.3608 107.302C27.2995 107.555 27.462 107.761 27.7216 107.761H27.2732C27.0135 107.761 26.851 107.555 26.9124 107.302Z" fill="url(#paint44_linear_88_21964)"/>
<path d="M34.1892 104.073C34.3586 103.311 33.9753 102.692 33.3328 102.692C32.6906 102.692 32.0324 103.311 31.8629 104.073C31.6933 104.835 32.0767 105.453 32.7191 105.453C33.3613 105.453 34.0193 104.835 34.1892 104.073Z" fill="url(#paint45_linear_88_21964)"/>
<path d="M32.4293 104.073C32.5728 103.427 33.0679 102.886 33.6063 102.735C33.5216 102.709 33.4307 102.692 33.3328 102.692C32.6906 102.692 32.0324 103.311 31.8629 104.073C31.6933 104.835 32.0767 105.453 32.7191 105.453C32.817 105.453 32.915 105.438 33.0118 105.41C32.54 105.26 32.2854 104.719 32.4293 104.073Z" fill="url(#paint46_linear_88_21964)"/>
<path d="M18.9757 96.7073C18.9757 96.7073 17.2299 98.4867 16.8097 99.107C16.5081 99.5517 17.1594 99.9197 17.5556 100.152C17.9513 100.383 19.5267 99.7108 20.6079 98.7485C21.4352 98.0117 19.1871 96.6597 18.9757 96.7073Z" fill="#F4AA74"/>
<path d="M26.7636 90.4466C24.6063 91.5463 17.7124 97.3411 17.7124 97.3411C17.7124 97.3411 17.7482 98.0259 18.5582 99.0984C19.775 100.708 20.6277 100.902 20.6277 100.902C20.6277 100.902 22.6257 99.8036 24.6822 98.4516C25.6876 97.7907 25.9651 97.1694 26.7813 94.6918C27.2816 93.1724 27.7951 89.9207 26.7636 90.4466Z" fill="url(#paint47_linear_88_21964)"/>
<path d="M26.66 103.907C26.9573 103.803 27.9035 103.556 27.9853 103.793C28.1795 104.353 27.5638 104.212 27.1013 104.801C26.8024 105.181 25.6006 104.644 25.6006 104.644C25.6006 104.644 26.0395 104.121 26.66 103.907Z" fill="#F4AA74"/>
<path d="M18.2831 98.6909C20.5792 99.6525 24.8061 104.024 25.938 104.329C26.6733 104.526 27.0732 103.864 28.2677 104.686C28.8467 105.084 28.4602 106.985 27.7595 107.048C26.1564 107.194 25.5648 106.429 25.3957 105.314C24.979 104.789 19.541 102.027 18.0797 101.136C17.4198 100.734 16.4752 100.063 16.6401 99.5323C16.9025 98.6869 17.4307 98.3342 18.2831 98.6909Z" fill="#F4AA74"/>
<path d="M30.3974 87.4868C30.2584 87.7626 30.4762 88.1527 30.885 88.3587C31.293 88.5637 31.545 88.4397 31.684 88.1642C31.8233 87.8881 31.7981 87.5659 31.3888 87.3601C30.9802 87.154 30.5366 87.2114 30.3974 87.4868Z" fill="#F4AA74"/>
<path d="M55.7058 110.986H42.8048C42.5955 110.986 42.4243 111.157 42.4243 111.366V120.28C42.4243 120.489 42.5955 120.66 42.8048 120.66H55.7058C55.9152 120.66 56.0864 120.489 56.0864 120.28V111.366C56.0864 111.157 55.9152 110.986 55.7058 110.986Z" fill="#FB8B2D"/>
<path d="M55.7058 110.986H42.8048C42.5955 110.986 42.4243 111.157 42.4243 111.366V114.786H56.0864V111.366C56.0864 111.157 55.9152 110.986 55.7058 110.986Z" fill="#FA5600"/>
<path d="M44.2748 111.366C44.2748 111.157 44.3995 110.986 44.5521 110.986H42.8048C42.5955 110.986 42.4243 111.157 42.4243 111.366V114.786H44.2748V111.366Z" fill="url(#paint48_linear_88_21964)"/>
<path d="M42.4243 114.786V120.28C42.4243 120.489 42.5955 120.66 42.8048 120.66H44.5521C44.3995 120.66 44.2748 120.489 44.2748 120.28V114.786H42.4243Z" fill="url(#paint49_linear_88_21964)"/>
<path d="M47.3963 109.971C47.3963 109.874 47.4781 109.793 47.575 109.793H50.6777C50.7747 109.793 50.8566 109.874 50.8566 109.971V110.986H51.572V109.971C51.572 109.479 51.1708 109.078 50.6777 109.078H47.575C47.0818 109.078 46.6807 109.479 46.6807 109.971V110.986H47.3963V109.971Z" fill="url(#paint50_linear_88_21964)"/>
<path d="M44.2614 110.768H45.3339C45.4267 110.768 45.5021 110.843 45.5021 110.936V111.369C45.5021 111.462 45.4267 111.538 45.3339 111.538H44.2615C44.1687 111.538 44.0933 111.462 44.0933 111.369V110.936C44.0933 110.843 44.1686 110.768 44.2614 110.768Z" fill="#082947"/>
<path d="M54.2489 110.768H53.1765C53.0836 110.768 53.0083 110.843 53.0083 110.936V111.369C53.0083 111.462 53.0836 111.538 53.1765 111.538H54.2489C54.3418 111.538 54.4171 111.462 54.4171 111.369V110.936C54.4171 110.843 54.3418 110.768 54.2489 110.768Z" fill="#082947"/>
<path d="M52.8543 133.645C52.8499 133.575 52.8419 133.516 52.8322 133.462C52.7444 132.97 52.4527 133.073 52.2602 133.135C52.2248 133.146 52.1065 133.179 51.9376 133.224C51.7685 133.179 51.6501 133.146 51.6149 133.135C51.4227 133.073 51.1305 132.97 51.0428 133.462C51.0332 133.516 51.0249 133.575 51.0206 133.645C50.9779 134.347 50.9512 134.566 50.9512 134.566C50.9512 134.566 51.3816 134.568 51.9376 134.57C52.4934 134.568 52.9241 134.566 52.9241 134.566C52.9241 134.566 52.897 134.347 52.8543 133.645Z" fill="#0F1B29"/>
<path d="M55.9276 109.182C55.9276 109.182 54.3194 117.956 53.9253 119.7C53.531 121.442 50.0822 121.249 49.525 118.817C48.9683 116.385 48.1965 112.73 49.0067 109.081C49.5157 106.788 49.855 106.698 51.7548 105.605C53.6554 104.511 56.3636 106.818 55.9276 109.182Z" fill="#F4AA74"/>
<path d="M54.2287 118.221C54.0295 120.959 52.2537 133.51 52.2537 133.51C52.2537 133.51 52.1989 133.624 51.8692 133.574C51.5476 133.525 51.4968 133.328 51.4968 133.328C51.4968 133.328 51.5144 131.572 51.1913 130.325C50.8682 129.076 49.9647 123.291 49.7466 121.732C49.5289 120.173 49.4969 116.918 51.2867 116.817C53.0766 116.716 54.2521 117.903 54.2287 118.221Z" fill="#F4AA74"/>
<path d="M64.6887 133.934C64.6887 133.934 62.1909 132.811 62.0107 132.719C61.8117 132.616 61.4996 132.439 61.34 133.123C61.1808 133.807 61.1177 134.019 61.1177 134.019C61.1177 134.019 64.1438 134.549 64.4763 134.568C64.8086 134.588 65.1077 134.387 64.6887 133.934Z" fill="#0F1B29"/>
<path d="M59.7376 108.64C59.7376 108.64 62.2022 116.046 62.6792 117.768C63.1559 119.49 60.9099 121.847 59.2688 119.967C57.6285 118.087 54.52 114.552 53.7532 112.331C52.9862 110.111 52.943 108.232 54.1009 106.372C55.2589 104.511 59.2381 107.07 59.7376 108.64Z" fill="#F4AA74"/>
<path d="M62.8002 118.44C62.8163 121.185 62.857 121.319 62.8325 123.014C62.7939 125.662 62.625 133.069 62.625 133.069C62.625 133.069 62.5967 133.247 62.2329 133.367C62.0256 133.435 61.8522 133.282 61.8522 133.282C61.8522 133.282 61.7176 131.4 61.2948 130.182C60.8715 128.964 59.2065 122.838 58.8633 121.302C58.5204 119.766 58.5232 116.956 60.299 116.711C62.0752 116.466 62.794 117.36 62.8002 118.44Z" fill="#F4AA74"/>
<path d="M59.9079 108.527C60.8706 111.407 62.6448 116.679 62.7439 117.099C62.8431 117.52 63.0361 119.264 57.9723 120.356C53.0305 121.423 49.3244 120.448 49.3244 120.448C49.3244 120.448 48.2896 117.098 48.2896 113.088C48.2896 109.078 48.2896 110.257 48.2896 110.257C48.2896 110.257 49.0714 106.811 53.2004 106.531C57.3294 106.251 59.4023 107.016 59.9079 108.527Z" fill="#1A1A2E"/>
<path d="M50.0394 108.81C50.2753 109.108 50.4821 109.444 50.3455 109.62C50.1305 109.898 49.8531 109.397 49.2391 109.167C48.8367 109.016 48.931 108.206 48.931 108.206C48.931 108.206 49.6782 108.351 50.0394 108.81Z" fill="#F4AA74"/>
<path d="M46.7814 101.627C47.7442 103.831 48.4923 106.639 49.0808 108.223C49.3387 108.917 50.2201 109.829 49.9425 110.131C49.596 110.483 48.5005 110.801 48.2414 110.334C48.0377 109.967 47.8384 109.097 48.211 108.514C48.2476 107.919 45.6602 104.495 45.2262 103.039C45.0295 102.381 44.8377 101.464 45.2626 101.209C45.9395 100.804 46.4311 100.885 46.7814 101.627Z" fill="#F4AA74"/>
<path d="M46.0579 99.4545C46.0579 99.4545 45.2622 100.876 45.0776 101.503C44.945 101.953 45.4016 102.607 45.7921 102.694C46.1822 102.782 47.314 101.805 47.9561 100.718C48.4481 99.8862 46.2208 99.3588 46.0579 99.4545Z" fill="#F4AA74"/>
<path d="M49.2953 95.254C46.345 97.1418 44.8193 100.064 44.8193 100.064C44.8193 100.064 45.0958 100.918 46.1131 101.501C47.0418 102.032 47.6114 101.965 47.6114 101.965C47.6114 101.965 49.7586 99.6278 51.6895 98.2917C52.2359 97.9143 53.8493 96.6464 53.2832 95.7789C52.6032 94.7355 51.2463 94.0052 49.2953 95.254Z" fill="#EA5B34"/>
<path d="M67.0992 100.126C67.4366 99.9498 67.8053 99.8091 67.9534 99.9762C68.1862 100.239 67.6427 100.418 67.3022 100.978C67.079 101.345 66.2993 101.102 66.2993 101.102C66.2993 101.102 66.5814 100.395 67.0992 100.126Z" fill="#F4AA74"/>
<path d="M59.431 101.989C61.7777 101.454 64.6773 101.241 66.3444 100.958C67.0748 100.834 68.1356 100.138 68.3812 100.467C68.6626 100.872 68.772 102.007 68.2643 102.175C67.8652 102.306 66.9731 102.34 66.4688 101.866C65.8908 101.72 62.0429 103.623 60.5302 103.779C59.847 103.849 58.9094 103.867 58.7378 103.403C58.4655 102.663 58.6369 102.195 59.431 101.989Z" fill="#F4AA74"/>
<path d="M51.7124 94.6276C51.7269 93.8966 51.6713 93.5187 51.7237 92.8526C53.8177 92.261 53.9858 90.7062 53.9398 89.8042C53.9398 89.8042 54.3841 90.8828 54.5427 91.9747C54.6619 92.9446 54.6734 93.2992 53.6595 93.3758C53.7512 94.064 53.8053 94.1578 53.8638 94.6578C53.9604 95.4846 53.6137 95.8213 53.2339 95.9309C52.8546 96.0407 51.6818 96.1719 51.7124 94.6276Z" fill="#F4AA74"/>
<path d="M56.6845 96.2901C56.1969 94.9446 55.7883 94.0605 53.453 94.2215C52.761 94.2691 52.2544 94.3868 51.6032 94.4676C49.3523 94.7461 48.6404 96.0923 48.3245 98.5522C47.5281 104.755 48.1165 110.699 48.1165 110.699C48.1165 110.699 49.3332 111.411 54.73 110.412C59.1111 109.601 59.9879 108.443 59.9879 108.443C59.9879 108.443 57.6834 99.0464 56.6845 96.2901Z" fill="url(#paint51_linear_88_21964)"/>
<path d="M57.1608 102.296C57.1608 102.296 58.4102 103.341 58.9931 103.639C59.4109 103.853 60.1389 103.527 60.2969 103.159C60.4555 102.792 59.7053 101.5 58.7564 100.667C58.0297 100.029 57.0969 102.118 57.1608 102.296Z" fill="#F4AA74"/>
<path d="M53.6322 98.3364C54.94 101.584 57.5293 103.625 57.5293 103.625C57.5293 103.625 58.421 103.513 59.1831 102.622C59.8774 101.809 59.9174 101.237 59.9174 101.237C59.9174 101.237 58.019 98.6946 57.0641 96.5504C56.7947 95.9439 55.8482 94.124 54.8899 94.5183C53.7374 94.992 52.767 96.1885 53.6322 98.3364Z" fill="url(#paint52_linear_88_21964)"/>
<path d="M53.618 94.2638C52.8042 92.246 53.7654 91.5488 53.87 91.3432C54.0661 90.958 54.4786 90.4314 54.1503 89.7553C53.7162 88.8625 53.1341 87.7544 51.07 88.0399C49.3504 88.2777 48.3203 90.324 47.9488 93.767C47.7817 95.3151 44.9982 95.2289 43.7796 98.5753C43.031 100.631 43.9895 103.93 47.7046 105.03C49.7762 105.643 56.2956 104.896 55.7134 99.0852C55.5672 97.626 53.8679 94.8831 53.618 94.2638Z" fill="#1A1A2E"/>
<path d="M53.0185 91.0524C52.8591 91.27 52.9903 91.6373 53.3115 91.873C53.6337 92.1089 54.024 92.1238 54.1833 91.9065C54.3431 91.6888 54.2119 91.3214 53.8897 91.0857C53.5685 90.8502 53.1778 90.8356 53.0185 91.0524Z" fill="#F4AA74"/>
<path d="M118.587 134.721H120.362L123.159 124.915H140.705L137.908 134.721H139.683L158.723 67.9785H137.627L118.587 134.721ZM153.009 81.7861H135.463L138.916 69.6843H156.462L153.009 81.7861ZM149.07 95.5937H131.524L134.977 83.492H152.523L149.07 95.5937ZM145.131 109.401H127.585L131.038 97.2996H148.583L145.131 109.401ZM123.646 123.209L127.099 111.107H144.644L141.192 123.209H123.646Z" fill="#D81703"/>
<path d="M159.494 67.9785H138.398L157.439 134.721H159.214L156.416 124.915H173.962L176.759 134.721H178.534L159.494 67.9785ZM140.66 69.6843H158.206L161.658 81.7861H144.112L140.66 69.6843ZM144.599 83.492H162.145L165.597 95.5937H148.051L144.599 83.492ZM148.538 97.2996H166.084L169.536 109.401H151.99L148.538 97.2996ZM155.93 123.209L152.477 111.107H170.023L173.475 123.209H155.93Z" fill="#FD5313"/>
<path d="M166.721 97.0947C166.721 97.0947 164.304 96.9359 163.597 96.7582C163.091 96.6317 163.323 95.9431 163.46 95.5188C163.597 95.0952 165.174 94.5627 166.58 94.5601C167.657 94.558 166.906 96.9923 166.721 97.0947Z" fill="#EE9255"/>
<path d="M172.463 97.3211C170.45 97.3585 165.395 97.4527 165.395 97.4527C165.395 97.4527 164.978 96.9339 164.869 95.6327C164.707 93.679 165.199 92.987 165.199 92.987C165.199 92.987 169.665 92.0623 172.721 91.7316C175.139 91.4699 175.76 92.2139 175.379 94.7596C175.148 96.2965 173.924 97.2939 172.463 97.3211Z" fill="url(#paint53_linear_88_21964)"/>
<path d="M167.849 87.254C168.1 87.2299 168.858 87.2301 168.858 87.4023C168.857 87.8934 167.716 88.4003 166.991 88.2498C166.612 88.171 166.958 87.8623 166.958 87.8623C166.958 87.8623 167.325 87.3029 167.849 87.254Z" fill="#EE9255"/>
<path d="M162.679 95.494C162.946 93.0911 165.573 88.8456 166.131 87.6041C166.1 86.8974 166.242 86.5481 166.421 85.6465C166.48 85.3529 168.408 85.7612 168.479 86.1476C168.538 86.4652 168.505 87.8643 167.096 88.1182C166.591 88.5293 165.446 93.406 165.016 95.0118C164.822 95.737 164.456 96.8007 163.915 96.7929C163.054 96.781 162.581 96.3856 162.679 95.494Z" fill="#EE9255"/>
<path d="M170.881 101.596C170.966 101.596 171.062 101.567 171.062 101.483V101.375C171.062 101.29 170.966 101.223 170.881 101.223H166.41C166.325 101.223 166.294 101.29 166.294 101.375V101.483C166.294 101.567 166.325 101.596 166.41 101.596H170.881Z" fill="url(#paint54_linear_88_21964)"/>
<path d="M166.711 101.205C166.766 101.431 166.62 101.596 166.387 101.596H158.008C157.775 101.596 157.539 101.431 157.484 101.205L156.037 95.2578C155.983 95.0314 156.129 94.8701 156.362 94.8701H164.74C164.974 94.8701 165.209 95.0314 165.264 95.2578L166.711 101.205Z" fill="url(#paint55_linear_88_21964)"/>
<path d="M166.711 101.205L165.264 95.2578C165.209 95.0314 164.974 94.8701 164.74 94.8701H164.337C164.571 94.8701 164.806 95.0414 164.861 95.2681L166.308 101.212C166.363 101.438 166.217 101.596 165.984 101.596H166.387C166.62 101.596 166.766 101.431 166.711 101.205Z" fill="url(#paint56_linear_88_21964)"/>
<path d="M160.174 98.3232C160.021 97.6382 160.366 97.083 160.943 97.083C161.52 97.083 162.111 97.6382 162.264 98.3232C162.416 99.008 162.071 99.5632 161.494 99.5632C160.917 99.5632 160.326 99.008 160.174 98.3232Z" fill="url(#paint57_linear_88_21964)"/>
<path d="M161.755 98.3232C161.626 97.7428 161.181 97.2567 160.697 97.1217C160.773 97.0976 160.855 97.083 160.943 97.083C161.52 97.083 162.111 97.6382 162.264 98.3232C162.416 99.008 162.071 99.5632 161.494 99.5632C161.407 99.5632 161.318 99.5492 161.231 99.5247C161.655 99.3895 161.884 98.9038 161.755 98.3232Z" fill="url(#paint58_linear_88_21964)"/>
<path d="M171.564 105.274C171.564 105.274 167.474 114.328 166.729 116.174C165.985 118.021 169.267 120.027 171.318 118.152C173.37 116.278 176.162 113.639 177.29 111.278C178.416 108.917 178.701 106.844 177.653 104.64C176.606 102.436 172.663 102.834 171.564 105.274Z" fill="url(#paint59_linear_88_21964)"/>
<path d="M167.723 133.961C167.723 133.961 170.674 133.19 170.889 133.121C171.127 133.045 171.502 132.909 171.551 133.689C171.599 134.47 171.628 134.714 171.628 134.714C171.628 134.714 168.207 134.736 167.838 134.696C167.471 134.656 167.178 134.38 167.723 133.961Z" fill="#0F1B29"/>
<path d="M171.848 117.834C171.894 116.082 171.317 114.775 169.324 114.887C167.331 115 166.45 116.011 166.649 117.061C167.102 119.456 167.269 119.437 167.904 122.317C168.161 123.484 168.605 125.54 169.043 127.574H171.312C171.535 124.41 171.813 119.145 171.848 117.834Z" fill="url(#paint60_linear_88_21964)"/>
<path d="M171.117 129.823C171.168 129.465 171.237 128.638 171.312 127.574H169.043C169.687 130.563 170.317 133.505 170.317 133.505C170.317 133.505 170.549 133.692 170.79 133.632C171.152 133.542 171.172 133.329 171.172 133.329C171.172 133.329 170.916 131.245 171.117 129.823Z" fill="#F4AA74"/>
<path d="M175.003 106.209C175.003 106.209 177.874 116.82 178.423 118.691C178.972 120.561 182.712 120.113 183.152 117.428C183.59 114.743 184.605 109.308 182.621 103.846C181.548 100.892 174.366 103.666 175.003 106.209Z" fill="#1A1A2E"/>
<path d="M180.574 133.714C180.578 133.638 180.587 133.573 180.598 133.514C180.692 132.978 181.011 133.09 181.221 133.156C181.259 133.169 181.388 133.204 181.573 133.253C181.757 133.203 181.886 133.167 181.925 133.155C182.134 133.087 182.452 132.974 182.549 133.51C182.56 133.569 182.569 133.634 182.574 133.71C182.622 134.475 182.652 134.714 182.652 134.714C182.652 134.714 182.182 134.718 181.576 134.72C180.97 134.72 180.5 134.719 180.5 134.719C180.5 134.719 180.529 134.479 180.574 133.714Z" fill="#101B29"/>
<path d="M183.111 120.753C183.241 119.041 183.052 115.495 181.097 115.508C179.142 115.521 177.943 116.895 177.991 117.238C178.213 118.869 179.158 123.695 179.964 127.71H182.452C182.72 125.271 183.022 121.924 183.111 120.753Z" fill="#1A1A2E"/>
<path d="M182.452 127.71H179.964C180.624 130.999 181.191 133.745 181.191 133.745C181.191 133.745 181.259 133.866 181.614 133.789C181.961 133.713 182.002 133.495 182.002 133.495C182.002 133.495 181.863 131.586 182.129 130.205C182.213 129.769 182.329 128.836 182.452 127.71Z" fill="#F4AA74"/>
<path d="M168.932 128.129C168.881 128.129 168.831 128.087 168.822 128.036L168.658 127.159C168.648 127.108 168.683 127.068 168.734 127.068L171.685 127.109C171.736 127.11 171.767 127.151 171.752 127.2L171.504 128.058C171.49 128.107 171.436 128.148 171.385 128.147L168.932 128.129Z" fill="url(#paint61_linear_88_21964)"/>
<path d="M179.934 128.129C179.883 128.129 179.833 128.087 179.824 128.036L179.66 127.159C179.65 127.108 179.685 127.068 179.736 127.068L182.812 127.109C182.864 127.11 182.894 127.151 182.88 127.2L182.631 128.058C182.617 128.107 182.563 128.148 182.512 128.147L179.934 128.129Z" fill="url(#paint62_linear_88_21964)"/>
<path d="M174.158 91.2191C171.065 91.6976 170.921 94.4828 170.985 96.8158C171.191 104.401 170.032 107.813 170.032 107.813C170.032 107.813 171.21 109.304 176.2 109.529C182.638 109.821 183.846 107.451 183.846 107.451C183.846 107.451 182.52 98.5668 180.921 94.3667C180.363 92.902 178.79 91.0404 176.228 91.0313C175.497 91.0291 174.921 91.1004 174.158 91.2191Z" fill="url(#paint63_linear_88_21964)"/>
<path d="M173.332 87.4675C172.413 86.5518 172.253 83.7109 173.686 83.2424C175.456 82.6636 175.481 84.5013 176.496 84.5893C178.707 84.7818 179.18 86.2574 178.751 87.9692C178.485 89.0292 177.316 90.0047 176.182 90.2339C175.732 90.3249 176.276 88.6559 175.205 87.998C174.134 87.3393 173.332 87.4675 173.332 87.4675Z" fill="#1A1A2E"/>
<path d="M172.949 91.6261C172.856 92.5589 172.386 94.6406 174.565 94.3425C177.124 93.9931 177.448 91.2893 177.279 91.0012C176.894 90.3452 175.904 90.8059 175.259 90.903C174.614 91.0005 173.029 90.8353 172.949 91.6261Z" fill="#1A1A2E"/>
<path d="M176.6 91.0063C176.474 91.0069 176.348 91.0099 176.216 91.0167C175.486 91.0572 174.916 91.1624 174.162 91.3252C173.924 91.3761 173.707 91.4406 173.507 91.5173C173.479 92.1207 173.029 93.8228 174.674 93.6448C176.362 93.4615 176.686 91.5751 176.6 91.0063Z" fill="#F4AA74"/>
<path d="M176.322 91.2226C176.11 89.6166 176.202 88.7087 175.914 87.2655C175.922 87.2151 173.813 87.1994 173.468 86.0679C173.468 86.0679 173.084 87.3916 173.073 88.5449C173.062 89.6328 173.274 90.2617 174.399 89.9417C174.306 90.4578 174.11 91.0588 173.949 91.4894C173.624 92.3577 174.162 92.7675 174.592 92.8609C175.022 92.9537 176.547 92.9282 176.322 91.2226Z" fill="#F4AA74"/>
<path d="M176.944 87.8651C177.053 88.145 176.806 88.502 176.392 88.663C175.978 88.8233 175.553 88.727 175.445 88.4475C175.336 88.1672 175.583 87.8105 175.998 87.6497C176.412 87.4884 176.836 87.5857 176.944 87.8651Z" fill="#F4AA74"/>
<path d="M173.748 94.2731L174.077 95.193L174.807 95.2144L175.378 94.0005C175.378 94.0005 174.214 93.5977 173.748 94.2731Z" fill="#1A1A2E"/>
<path d="M174.077 95.1932L172.973 104.972L174.601 108.942L176.182 105.066L174.807 95.2146C174.807 95.2146 174.55 94.7486 174.077 95.1932Z" fill="#1A1A2E"/>
<path d="M162.694 100.689C162.53 100.431 161.96 99.6715 161.754 99.8021C161.268 100.11 161.822 100.375 161.817 101.103C161.814 101.573 163.053 101.891 163.053 101.891C163.053 101.891 163.035 101.228 162.694 100.689Z" fill="#F4AA74"/>
<path d="M172.22 101.786C169.892 101.129 164.032 101.899 162.987 101.447C162.308 101.153 162.405 100.407 160.999 100.31C160.317 100.263 159.257 100.897 159.752 101.369C160.883 102.448 161.999 103.27 162.803 102.523C163.438 102.376 169.244 103.563 170.895 103.768C171.64 103.861 172.765 103.922 172.961 103.419C173.273 102.617 173.085 102.03 172.22 101.786Z" fill="#F4AA74"/>
<path d="M173.131 100.196C173.131 100.196 171.734 102.174 171.428 102.834C171.208 103.307 171.89 103.559 172.306 103.72C172.722 103.881 174.128 102.99 175.015 101.899C175.693 101.063 173.326 100.117 173.131 100.196Z" fill="#F4AA74"/>
<path d="M178.534 94.0821C176.648 95.4873 172.018 101 172.018 101C172.018 101 172.159 101.651 173.103 102.554C174.521 103.909 175.369 103.962 175.369 103.962C175.369 103.962 177.455 102.312 179.216 100.695C180.078 99.9046 181.725 98.8621 181.117 96.4799C180.464 93.9172 179.621 93.2724 178.534 94.0821Z" fill="url(#paint64_linear_88_21964)"/>
<path d="M172.013 87.1718L164.527 83.3506L163.688 85.3248L171.641 88.0497L172.013 87.1718Z" fill="url(#paint65_linear_88_21964)"/>
<path d="M158.974 80.0374C158.884 79.9916 158.778 80.03 158.739 80.1228L157.344 83.4082C157.304 83.5011 157.35 83.6038 157.446 83.6365L163.673 85.7705C163.768 85.8032 163.879 85.754 163.918 85.6612L164.928 83.2819C164.968 83.1891 164.927 83.0757 164.837 83.0299L158.974 80.0374Z" fill="#D13B49"/>
<path d="M157.496 83.8978C157.463 83.975 157.373 84.0114 157.295 83.9785L156.968 83.8396C156.89 83.8067 156.853 83.7166 156.886 83.6393L158.587 79.6336C158.62 79.5567 158.71 79.5203 158.788 79.5531L159.115 79.6921C159.193 79.725 159.229 79.815 159.197 79.8922L157.496 83.8978Z" fill="#082947"/>
<path d="M171.79 88.2356C171.757 88.3126 171.667 88.3491 171.59 88.3164L171.262 88.1772C171.185 88.1444 171.148 88.0544 171.181 87.9772L171.642 86.8924C171.674 86.8152 171.764 86.7786 171.842 86.8113L172.17 86.9505C172.247 86.9831 172.284 87.0734 172.251 87.1508L171.79 88.2356Z" fill="#082947"/>
<path d="M163.918 85.6615L163.918 85.6606L163.918 85.6615Z" fill="url(#paint66_linear_88_21964)"/>
<path d="M171.319 87.6514L171.332 87.6217L164.259 84.8574L164.221 84.9475L164.221 84.9478L164.014 85.4362L171.212 87.9029L171.181 87.9768L171.319 87.6518L171.319 87.6514Z" fill="url(#paint67_linear_88_21964)"/>
<path d="M164.022 84.9483L158.042 82.6108L157.496 83.8976L157.586 83.6847L163.673 85.7704C163.768 85.8032 163.879 85.754 163.918 85.6611L163.918 85.6606L164.014 85.4361L164.221 84.9478C164.205 84.9845 164.116 84.985 164.022 84.9483Z" fill="url(#paint68_linear_88_21964)"/>
<path d="M171.764 87.9064L171.436 87.7671C171.359 87.7346 171.307 87.6828 171.319 87.6519L171.181 87.9769C171.148 88.0541 171.185 88.1441 171.262 88.1769L171.59 88.3161C171.667 88.3487 171.757 88.3122 171.79 88.2353L171.928 87.9097C171.915 87.9405 171.841 87.9389 171.764 87.9064Z" fill="#000001"/>
<path d="M140.403 37.4143C140.197 37.1823 139.503 36.5125 139.323 36.6689C138.898 37.0379 139.489 37.2234 139.611 37.9393C139.69 38.4015 140.965 38.5468 140.965 38.5468C140.965 38.5468 140.833 37.8977 140.403 37.4143Z" fill="#F4AA74"/>
<path d="M149.98 37.2054C147.572 36.8742 141.932 38.4228 140.824 38.1192C140.104 37.9219 140.069 37.1759 138.667 37.2706C137.988 37.3163 137.436 39.0826 138.005 39.48C139.307 40.3886 140.168 40.0449 140.83 39.2025C141.43 38.9724 147.357 39.3541 149.019 39.3329C149.77 39.3234 150.888 39.2318 150.993 38.7102C151.161 37.8803 150.874 37.3282 149.98 37.2054Z" fill="#F4AA74"/>
<path d="M149.756 35.5986C149.756 35.5986 149.324 37.9394 149.325 38.6594C149.326 39.1754 150.053 39.1425 150.499 39.1292C150.946 39.1155 151.847 37.7631 152.191 36.4273C152.455 35.4044 149.901 35.4518 149.756 35.5986Z" fill="#F4AA74"/>
<path d="M151.983 28.0999C150.841 30.0937 149.074 36.7491 149.074 36.7491C149.074 36.7491 149.477 37.2898 150.717 37.7526C152.578 38.448 153.373 38.1728 153.373 38.1728C153.373 38.1728 155.123 34.3409 156.046 32.1925C156.498 31.1421 156.499 30.0581 155.346 28.1741C154.256 26.3942 152.53 27.1463 151.983 28.0999Z" fill="url(#paint69_linear_88_21964)"/>
<defs>
<linearGradient id="paint0_linear_88_21964" x1="148.14" y1="34.4363" x2="144.779" y2="66.5253" gradientUnits="userSpaceOnUse">
<stop stop-color="#060607"/>
<stop offset="1" stop-color="#1A1A2E"/>
</linearGradient>
<linearGradient id="paint1_linear_88_21964" x1="149.671" y1="27.5741" x2="143.319" y2="35.3326" gradientUnits="userSpaceOnUse">
<stop stop-color="#F7830F"/>
<stop offset="0.571" stop-color="#FB620A"/>
<stop offset="1" stop-color="#FF4E08"/>
</linearGradient>
<linearGradient id="paint2_linear_88_21964" x1="149.6" y1="34.5893" x2="146.24" y2="66.6782" gradientUnits="userSpaceOnUse">
<stop stop-color="#060607"/>
<stop offset="1" stop-color="#1A1A2E"/>
</linearGradient>
<linearGradient id="paint3_linear_88_21964" x1="152.05" y1="24.2304" x2="153.17" y2="51.9766" gradientUnits="userSpaceOnUse">
<stop stop-color="#E74D58"/>
<stop offset="0.645" stop-color="#B9253A"/>
<stop offset="1" stop-color="#A5142D"/>
</linearGradient>
<linearGradient id="paint4_linear_88_21964" x1="159.908" y1="56.9177" x2="166.417" y2="62.025" gradientUnits="userSpaceOnUse">
<stop stop-color="#E74D58"/>
<stop offset="0.645" stop-color="#B9253A"/>
<stop offset="1" stop-color="#A5142D"/>
</linearGradient>
<linearGradient id="paint5_linear_88_21964" x1="147.523" y1="60.0143" x2="149.612" y2="67.8405" gradientUnits="userSpaceOnUse">
<stop stop-color="#E74D58"/>
<stop offset="0.645" stop-color="#B9253A"/>
<stop offset="1" stop-color="#A5142D"/>
</linearGradient>
<linearGradient id="paint6_linear_88_21964" x1="158.374" y1="132.087" x2="167.064" y2="132.087" gradientUnits="userSpaceOnUse">
<stop stop-color="#FFC124"/>
<stop offset="1" stop-color="#FFD97B"/>
</linearGradient>
<linearGradient id="paint7_linear_88_21964" x1="159.975" y1="129.659" x2="156.171" y2="134.241" gradientUnits="userSpaceOnUse">
<stop stop-color="#FF9700" stop-opacity="0"/>
<stop offset="1" stop-color="#FF9700" stop-opacity="0.75"/>
</linearGradient>
<linearGradient id="paint8_linear_88_21964" x1="157.547" y1="126.794" x2="143.69" y2="127.277" gradientUnits="userSpaceOnUse">
<stop stop-color="#F97C15"/>
<stop offset="1" stop-color="#F96E00"/>
</linearGradient>
<linearGradient id="paint9_linear_88_21964" x1="144.508" y1="122.025" x2="140.354" y2="130.802" gradientUnits="userSpaceOnUse">
<stop stop-color="#F63500" stop-opacity="0"/>
<stop offset="1" stop-color="#F63500" stop-opacity="0.75"/>
</linearGradient>
<linearGradient id="paint10_linear_88_21964" x1="142.074" y1="112.725" x2="129.61" y2="134.206" gradientUnits="userSpaceOnUse">
<stop stop-color="#FBB53D"/>
<stop offset="1" stop-color="#FF3803"/>
</linearGradient>
<linearGradient id="paint11_linear_88_21964" x1="132.927" y1="113.722" x2="125.685" y2="131.436" gradientUnits="userSpaceOnUse">
<stop stop-color="#FF0A00" stop-opacity="0"/>
<stop offset="1" stop-color="#FF0A00" stop-opacity="0.75"/>
</linearGradient>
<linearGradient id="paint12_linear_88_21964" x1="127.997" y1="104.252" x2="110.343" y2="152.057" gradientUnits="userSpaceOnUse">
<stop stop-color="#FBB53D"/>
<stop offset="1" stop-color="#FF3803"/>
</linearGradient>
<linearGradient id="paint13_linear_88_21964" x1="43.6518" y1="-0.000163153" x2="34.9618" y2="-0.000163153" gradientUnits="userSpaceOnUse">
<stop stop-color="#FFC124"/>
<stop offset="1" stop-color="#FFD97B"/>
</linearGradient>
<linearGradient id="paint14_linear_88_21964" x1="42.0507" y1="129.659" x2="45.8546" y2="134.241" gradientUnits="userSpaceOnUse">
<stop stop-color="#FF9700" stop-opacity="0"/>
<stop offset="1" stop-color="#FF9700" stop-opacity="0.75"/>
</linearGradient>
<linearGradient id="paint15_linear_88_21964" x1="44.4793" y1="126.794" x2="58.3355" y2="127.277" gradientUnits="userSpaceOnUse">
<stop stop-color="#F97C15"/>
<stop offset="1" stop-color="#F96E00"/>
</linearGradient>
<linearGradient id="paint16_linear_88_21964" x1="57.5175" y1="122.025" x2="61.6719" y2="130.802" gradientUnits="userSpaceOnUse">
<stop stop-color="#F63500" stop-opacity="0"/>
<stop offset="1" stop-color="#F63500" stop-opacity="0.75"/>
</linearGradient>
<linearGradient id="paint17_linear_88_21964" x1="59.9515" y1="112.725" x2="72.4153" y2="134.206" gradientUnits="userSpaceOnUse">
<stop stop-color="#FBB53D"/>
<stop offset="1" stop-color="#FF3803"/>
</linearGradient>
<linearGradient id="paint18_linear_88_21964" x1="69.099" y1="113.722" x2="76.3403" y2="131.436" gradientUnits="userSpaceOnUse">
<stop stop-color="#FF0A00" stop-opacity="0"/>
<stop offset="1" stop-color="#FF0A00" stop-opacity="0.75"/>
</linearGradient>
<linearGradient id="paint19_linear_88_21964" x1="74.0285" y1="104.252" x2="91.6831" y2="152.057" gradientUnits="userSpaceOnUse">
<stop stop-color="#FBB53D"/>
<stop offset="1" stop-color="#FF3803"/>
</linearGradient>
<linearGradient id="paint20_linear_88_21964" x1="124.789" y1="127.634" x2="124.789" y2="-11.5195" gradientUnits="userSpaceOnUse">
<stop stop-color="#FCA815"/>
<stop offset="1" stop-color="#FCA000"/>
</linearGradient>
<linearGradient id="paint21_linear_88_21964" x1="124.067" y1="21.2934" x2="124.067" y2="56.7789" gradientUnits="userSpaceOnUse">
<stop stop-color="#FCB63A"/>
<stop offset="1" stop-color="#FB9C00"/>
</linearGradient>
<linearGradient id="paint22_linear_88_21964" x1="96.0622" y1="2.46038" x2="156.79" y2="63.4632" gradientUnits="userSpaceOnUse">
<stop stop-color="white"/>
<stop offset="1" stop-color="white" stop-opacity="0"/>
</linearGradient>
<linearGradient id="paint23_linear_88_21964" x1="84.3402" y1="134.445" x2="84.3402" y2="-4.70841" gradientUnits="userSpaceOnUse">
<stop stop-color="#FCB22D"/>
<stop offset="1" stop-color="#FCA000"/>
</linearGradient>
<linearGradient id="paint24_linear_88_21964" x1="124.702" y1="134.445" x2="124.702" y2="-4.70847" gradientUnits="userSpaceOnUse">
<stop stop-color="#FCB22D"/>
<stop offset="1" stop-color="#FCA000"/>
</linearGradient>
<linearGradient id="paint25_linear_88_21964" x1="101.013" y1="37.5217" x2="101.013" y2="87.946" gradientUnits="userSpaceOnUse">
<stop stop-color="#FCB63A"/>
<stop offset="1" stop-color="#F96E00"/>
</linearGradient>
<linearGradient id="paint26_linear_88_21964" x1="91.3584" y1="132.76" x2="110.667" y2="132.76" gradientUnits="userSpaceOnUse">
<stop stop-color="#0F1E2D"/>
<stop offset="1" stop-color="#082947"/>
</linearGradient>
<linearGradient id="paint27_linear_88_21964" x1="101.013" y1="110.383" x2="101.013" y2="108.225" gradientUnits="userSpaceOnUse">
<stop stop-color="#0F1E2D"/>
<stop offset="1" stop-color="#082947"/>
</linearGradient>
<linearGradient id="paint28_linear_88_21964" x1="101.013" y1="109.971" x2="101.013" y2="131.957" gradientUnits="userSpaceOnUse">
<stop stop-color="#E94560"/>
<stop offset="0.958" stop-color="#AD1035"/>
</linearGradient>
<linearGradient id="paint29_linear_88_21964" x1="101.013" y1="111.402" x2="101.013" y2="121.462" gradientUnits="userSpaceOnUse">
<stop stop-color="#AC1039"/>
<stop offset="1" stop-color="#AC1039" stop-opacity="0"/>
</linearGradient>
<linearGradient id="paint30_linear_88_21964" x1="100.984" y1="110.489" x2="100.984" y2="129.695" gradientUnits="userSpaceOnUse">
<stop stop-color="#9E000F" stop-opacity="0"/>
<stop offset="1" stop-color="#9E000F" stop-opacity="0.8"/>
</linearGradient>
<linearGradient id="paint31_linear_88_21964" x1="101.013" y1="73.0686" x2="101.013" y2="108.766" gradientUnits="userSpaceOnUse">
<stop stop-color="white"/>
<stop offset="1" stop-color="white" stop-opacity="0"/>
</linearGradient>
<linearGradient id="paint32_linear_88_21964" x1="105.164" y1="58.4566" x2="105.164" y2="27.5107" gradientUnits="userSpaceOnUse">
<stop stop-color="#FC2E06"/>
<stop offset="1" stop-color="#FC6A06" stop-opacity="0.25"/>
</linearGradient>
<linearGradient id="paint33_linear_88_21964" x1="98.8057" y1="55.6942" x2="69.0986" y2="55.6942" gradientUnits="userSpaceOnUse">
<stop stop-color="#FC2E06"/>
<stop offset="1" stop-color="#FC6A06" stop-opacity="0.25"/>
</linearGradient>
<linearGradient id="paint34_linear_88_21964" x1="102.965" y1="63.9896" x2="133.534" y2="63.9896" gradientUnits="userSpaceOnUse">
<stop stop-color="#FC2E06"/>
<stop offset="1" stop-color="#FC6A06" stop-opacity="0.25"/>
</linearGradient>
<linearGradient id="paint35_linear_88_21964" x1="101.013" y1="60.6203" x2="101.013" y2="79.6496" gradientUnits="userSpaceOnUse">
<stop stop-color="#FC2E06"/>
<stop offset="1" stop-color="#FC6A06" stop-opacity="0"/>
</linearGradient>
<linearGradient id="paint36_linear_88_21964" x1="84.918" y1="32.7783" x2="84.918" y2="103.087" gradientUnits="userSpaceOnUse">
<stop stop-color="#9B1A00" stop-opacity="0.05"/>
<stop offset="1" stop-color="#9B1A00" stop-opacity="0.45"/>
</linearGradient>
<linearGradient id="paint37_linear_88_21964" x1="90.9492" y1="129.541" x2="90.9492" y2="109.572" gradientUnits="userSpaceOnUse">
<stop stop-color="#610000" stop-opacity="0.5"/>
<stop offset="1" stop-color="#610000" stop-opacity="0"/>
</linearGradient>
<linearGradient id="paint38_linear_88_21964" x1="30.1349" y1="108.158" x2="30.1349" y2="123.358" gradientUnits="userSpaceOnUse">
<stop stop-color="#060607"/>
<stop offset="1" stop-color="#1A1A2E"/>
</linearGradient>
<linearGradient id="paint39_linear_88_21964" x1="31.0834" y1="108.158" x2="31.0834" y2="123.357" gradientUnits="userSpaceOnUse">
<stop stop-color="#060607"/>
<stop offset="1" stop-color="#1A1A2E"/>
</linearGradient>
<linearGradient id="paint40_linear_88_21964" x1="30.0824" y1="122.799" x2="30.0824" y2="127.076" gradientUnits="userSpaceOnUse">
<stop stop-color="#F7830F"/>
<stop offset="0.571" stop-color="#FB620A"/>
<stop offset="1" stop-color="#FF4E08"/>
</linearGradient>
<linearGradient id="paint41_linear_88_21964" x1="22.3462" y1="122.8" x2="22.3462" y2="127.076" gradientUnits="userSpaceOnUse">
<stop stop-color="#F7830F"/>
<stop offset="0.571" stop-color="#FB620A"/>
<stop offset="1" stop-color="#FF4E08"/>
</linearGradient>
<linearGradient id="paint42_linear_88_21964" x1="32.4284" y1="92.8507" x2="35.743" y2="101.634" gradientUnits="userSpaceOnUse">
<stop stop-color="#E74D58"/>
<stop offset="0.645" stop-color="#B9253A"/>
<stop offset="1" stop-color="#A5142D"/>
</linearGradient>
<linearGradient id="paint43_linear_88_21964" x1="31.165" y1="92.837" x2="26.4967" y2="108.471" gradientUnits="userSpaceOnUse">
<stop stop-color="#F7830F"/>
<stop offset="0.571" stop-color="#FB620A"/>
<stop offset="1" stop-color="#FF4E08"/>
</linearGradient>
<linearGradient id="paint44_linear_88_21964" x1="29.4585" y1="99.801" x2="25.6871" y2="112.256" gradientUnits="userSpaceOnUse">
<stop stop-color="#1A1A2E"/>
<stop offset="0.988"/>
</linearGradient>
<linearGradient id="paint45_linear_88_21964" x1="33.5249" y1="102.119" x2="32.3579" y2="106.697" gradientUnits="userSpaceOnUse">
<stop stop-color="#F7830F"/>
<stop offset="0.571" stop-color="#FB620A"/>
<stop offset="1" stop-color="#FF4E08"/>
</linearGradient>
<linearGradient id="paint46_linear_88_21964" x1="32.6238" y1="105.284" x2="32.749" y2="102.905" gradientUnits="userSpaceOnUse">
<stop stop-color="#FD4A00"/>
<stop offset="1" stop-color="#F9760C"/>
</linearGradient>
<linearGradient id="paint47_linear_88_21964" x1="26.3373" y1="94.0453" x2="18.2539" y2="99.1888" gradientUnits="userSpaceOnUse">
<stop stop-color="#E74D58"/>
<stop offset="0.645" stop-color="#B9253A"/>
<stop offset="1" stop-color="#A5142D"/>
</linearGradient>
<linearGradient id="paint48_linear_88_21964" x1="43.4882" y1="114.345" x2="43.4882" y2="111.674" gradientUnits="userSpaceOnUse">
<stop stop-color="#FA5200"/>
<stop offset="1" stop-color="#FA5600"/>
</linearGradient>
<linearGradient id="paint49_linear_88_21964" x1="43.4882" y1="120.475" x2="43.4882" y2="115.321" gradientUnits="userSpaceOnUse">
<stop stop-color="#FB7A0D"/>
<stop offset="0.194" stop-color="#F97E17"/>
<stop offset="0.683" stop-color="#F6882D"/>
<stop offset="1" stop-color="#F58C35"/>
</linearGradient>
<linearGradient id="paint50_linear_88_21964" x1="49.1264" y1="111.477" x2="49.1264" y2="109.318" gradientUnits="userSpaceOnUse">
<stop stop-color="#FA5600"/>
<stop offset="0.231" stop-color="#FA650D"/>
<stop offset="0.716" stop-color="#FA8024"/>
<stop offset="1" stop-color="#FB8B2D"/>
</linearGradient>
<linearGradient id="paint51_linear_88_21964" x1="52.0765" y1="96.0516" x2="54.9669" y2="115.858" gradientUnits="userSpaceOnUse">
<stop stop-color="#E74D58"/>
<stop offset="0.645" stop-color="#B9253A"/>
<stop offset="1" stop-color="#A5142D"/>
</linearGradient>
<linearGradient id="paint52_linear_88_21964" x1="54.496" y1="96.6873" x2="62.0404" y2="105.794" gradientUnits="userSpaceOnUse">
<stop stop-color="#F7830F"/>
<stop offset="0.571" stop-color="#FB620A"/>
<stop offset="1" stop-color="#FF4E08"/>
</linearGradient>
<linearGradient id="paint53_linear_88_21964" x1="174.524" y1="94.4061" x2="161.472" y2="95.1914" gradientUnits="userSpaceOnUse">
<stop stop-color="#E74D58"/>
<stop offset="0.645" stop-color="#B9253A"/>
<stop offset="1" stop-color="#A5142D"/>
</linearGradient>
<linearGradient id="paint54_linear_88_21964" x1="168.678" y1="107.193" x2="168.678" y2="96.7321" gradientUnits="userSpaceOnUse">
<stop stop-color="#0F1E2D"/>
<stop offset="1" stop-color="#082947"/>
</linearGradient>
<linearGradient id="paint55_linear_88_21964" x1="161.374" y1="107.193" x2="161.374" y2="96.7322" gradientUnits="userSpaceOnUse">
<stop stop-color="#0F1E2D"/>
<stop offset="1" stop-color="#082947"/>
</linearGradient>
<linearGradient id="paint56_linear_88_21964" x1="165.53" y1="94.9281" x2="165.53" y2="101.134" gradientUnits="userSpaceOnUse">
<stop stop-color="#00001B"/>
<stop offset="1" stop-color="#0C2846"/>
</linearGradient>
<linearGradient id="paint57_linear_88_21964" x1="160.92" y1="97.1653" x2="161.729" y2="100.311" gradientUnits="userSpaceOnUse">
<stop stop-color="#F7830F"/>
<stop offset="0.571" stop-color="#FB620A"/>
<stop offset="1" stop-color="#FF4E08"/>
</linearGradient>
<linearGradient id="paint58_linear_88_21964" x1="161.498" y1="97.012" x2="161.498" y2="99.5249" gradientUnits="userSpaceOnUse">
<stop stop-color="#F9740D"/>
<stop offset="1" stop-color="#FD4200"/>
</linearGradient>
<linearGradient id="paint59_linear_88_21964" x1="177.284" y1="102.512" x2="167.199" y2="122.884" gradientUnits="userSpaceOnUse">
<stop stop-color="#060607"/>
<stop offset="1" stop-color="#1A1A2E"/>
</linearGradient>
<linearGradient id="paint60_linear_88_21964" x1="178.365" y1="103.047" x2="168.28" y2="123.419" gradientUnits="userSpaceOnUse">
<stop stop-color="#060607"/>
<stop offset="1" stop-color="#1A1A2E"/>
</linearGradient>
<linearGradient id="paint61_linear_88_21964" x1="170.044" y1="124.589" x2="170.748" y2="135.742" gradientUnits="userSpaceOnUse">
<stop stop-color="#E74D58"/>
<stop offset="0.645" stop-color="#B9253A"/>
<stop offset="1" stop-color="#A5142D"/>
</linearGradient>
<linearGradient id="paint62_linear_88_21964" x1="181.107" y1="124.57" x2="181.816" y2="135.794" gradientUnits="userSpaceOnUse">
<stop stop-color="#E74D58"/>
<stop offset="0.645" stop-color="#B9253A"/>
<stop offset="1" stop-color="#A5142D"/>
</linearGradient>
<linearGradient id="paint63_linear_88_21964" x1="176.9" y1="91.7192" x2="176.962" y2="117.005" gradientUnits="userSpaceOnUse">
<stop stop-color="#F7830F"/>
<stop offset="0.571" stop-color="#FB620A"/>
<stop offset="1" stop-color="#FF4E08"/>
</linearGradient>
<linearGradient id="paint64_linear_88_21964" x1="180.592" y1="95.4815" x2="173.959" y2="102.617" gradientUnits="userSpaceOnUse">
<stop stop-color="#E74D58"/>
<stop offset="0.645" stop-color="#B9253A"/>
<stop offset="1" stop-color="#A5142D"/>
</linearGradient>
<linearGradient id="paint65_linear_88_21964" x1="164.676" y1="84.5854" x2="171.024" y2="87.3556" gradientUnits="userSpaceOnUse">
<stop stop-color="#BB0000"/>
<stop offset="0.208" stop-color="#BD0607"/>
<stop offset="0.529" stop-color="#C3171D"/>
<stop offset="0.921" stop-color="#CE3441"/>
<stop offset="1" stop-color="#D13B49"/>
</linearGradient>
<linearGradient id="paint66_linear_88_21964" x1="163.984" y1="85.6822" x2="163.918" y2="85.6549" gradientUnits="userSpaceOnUse">
<stop stop-color="#9A9A9A"/>
<stop offset="0.156" stop-color="#A1A1A1"/>
<stop offset="0.398" stop-color="#B7B7B7"/>
<stop offset="0.694" stop-color="#DBDBDB"/>
<stop offset="0.948" stop-color="white"/>
</linearGradient>
<linearGradient id="paint67_linear_88_21964" x1="164.276" y1="85.1916" x2="171.09" y2="87.8784" gradientUnits="userSpaceOnUse">
<stop stop-color="#AC0000"/>
<stop offset="0.704" stop-color="#B30000"/>
<stop offset="1" stop-color="#B90000"/>
</linearGradient>
<linearGradient id="paint68_linear_88_21964" x1="163.986" y1="85.6979" x2="158.02" y2="83.2619" gradientUnits="userSpaceOnUse">
<stop stop-color="#C81526"/>
<stop offset="0.329" stop-color="#C91C2D"/>
<stop offset="0.838" stop-color="#CF3241"/>
<stop offset="1" stop-color="#D13B49"/>
</linearGradient>
<linearGradient id="paint69_linear_88_21964" x1="154.184" y1="29.274" x2="151.695" y2="36.9356" gradientUnits="userSpaceOnUse">
<stop stop-color="#F7830F"/>
<stop offset="0.571" stop-color="#FB620A"/>
<stop offset="1" stop-color="#FF4E08"/>
</linearGradient>
</defs>
</svg>
