<svg width="26" height="26" viewBox="0 0 26 26" fill="none" xmlns="http://www.w3.org/2000/svg">
<g clip-path="url(#clip0_22_1203)">
<path d="M13 26C20.1797 26 26 20.1797 26 13C26 5.8203 20.1797 0 13 0C5.8203 0 0 5.8203 0 13C0 20.1797 5.8203 26 13 26Z" fill="#77B13A"/>
<path d="M15.043 25.8299C15.0984 25.8236 15.1538 25.817 15.209 25.8099C15.6362 25.7361 16.0594 25.641 16.477 25.5249C16.8949 25.4096 17.3068 25.2734 17.711 25.1169C18.1146 24.9598 18.5101 24.7826 18.896 24.5859C19.2823 24.3892 19.6584 24.1733 20.023 23.9389C20.3877 23.705 20.7405 23.4531 21.08 23.1839C21.4198 22.9144 21.7459 22.6281 22.057 22.3259C22.3681 22.0239 22.6638 21.7065 22.943 21.3749C23.2221 21.0433 23.4845 20.6978 23.729 20.3399C23.9741 19.9822 24.201 19.6124 24.409 19.2319C24.6171 18.8516 24.806 18.4611 24.975 18.0619C25.1214 17.7099 25.2522 17.3515 25.367 16.9879L19.877 11.4979C19.792 11.4679 19.72 11.4379 19.59 11.4059C19.198 11.3099 18.65 11.2239 18.086 11.1449L17.666 11.0849L13.041 6.46094C12.986 6.53094 12.934 6.59194 12.863 6.70494C12.65 7.04694 12.399 7.54094 12.15 8.05094C11.902 8.56094 11.654 9.08794 11.43 9.52294C11.33 9.72047 11.2216 9.91365 11.105 10.1019C11.001 10.2669 10.927 10.3999 10.736 10.5349C10.546 10.6709 10.394 10.6989 10.203 10.7449C10.013 10.7879 9.79305 10.8259 9.55105 10.8609C9.06505 10.9319 8.48405 10.9949 7.92005 11.0639C7.35505 11.1339 6.80505 11.2109 6.41205 11.3009C6.28205 11.3309 6.20905 11.3599 6.12305 11.3889C6.17305 11.4639 6.21505 11.5309 6.30105 11.6329C6.46105 11.8219 6.67105 12.0429 6.90405 12.2749L9.07605 14.4469C9.16405 14.5559 9.24305 14.6629 9.29605 14.8339C9.36705 15.0559 9.34805 15.2079 9.33205 15.4019C9.31139 15.6215 9.28136 15.84 9.24205 16.0569C9.15905 16.5389 9.03805 17.1089 8.93005 17.6659C8.8265 18.1632 8.74641 18.6651 8.69005 19.1699C8.67805 19.3029 8.68205 19.3799 8.68405 19.4699L15.043 25.8299Z" fill="#638E36"/>
<path d="M13.0392 6.45728C13.0926 6.52914 13.1438 6.59033 13.2122 6.70493C13.4204 7.04969 13.6639 7.54794 13.9042 8.06169C14.1445 8.57641 14.3827 9.10761 14.6005 9.54755C14.7095 9.76606 14.812 9.96223 14.9145 10.1293C15.016 10.2963 15.0896 10.4303 15.2776 10.5692C15.4656 10.7081 15.6161 10.7382 15.8062 10.7868C15.9963 10.8343 16.2142 10.8741 16.4566 10.914C16.9415 10.9926 17.5214 11.0645 18.0842 11.1422C18.6481 11.2209 19.1959 11.3073 19.5879 11.4025C19.7181 11.4346 19.7908 11.4646 19.8762 11.4947C19.8239 11.5686 19.7811 11.6356 19.6946 11.7356C19.4287 12.0396 19.0293 12.4251 18.6128 12.8107C18.1963 13.1982 17.7638 13.5886 17.4124 13.9304C17.2362 14.1014 17.0814 14.2606 16.9532 14.4083C16.8261 14.5559 16.7204 14.6676 16.6467 14.889C16.572 15.1094 16.5901 15.2619 16.6029 15.4571C16.6157 15.6513 16.6446 15.8708 16.682 16.1136C16.7567 16.5973 16.8678 17.1693 16.9671 17.7277C17.0664 18.2861 17.154 18.8329 17.1839 19.2349C17.1935 19.367 17.1871 19.4457 17.1839 19.5361C17.0985 19.5098 17.0205 19.4894 16.8977 19.4379C16.5271 19.2806 16.0358 19.0203 15.5393 18.7454C15.0416 18.4696 14.5354 18.1803 14.0997 17.9521C13.9055 17.8482 13.7063 17.7523 13.5027 17.6646C13.3222 17.5898 13.1834 17.5238 12.9495 17.5219C12.7156 17.5219 12.5757 17.584 12.3941 17.6558C12.2126 17.7287 12.0118 17.8239 11.7929 17.9336C11.355 18.1541 10.8424 18.4366 10.3405 18.7037C9.83853 18.9708 9.34514 19.2224 8.97136 19.3739C8.84748 19.4244 8.77059 19.4428 8.68302 19.468C8.68195 19.3777 8.67661 19.2991 8.68835 19.167C8.72466 18.7659 8.82078 18.2201 8.92971 17.6637C9.03757 17.1072 9.15825 16.537 9.24048 16.0543C9.27975 15.837 9.30967 15.6184 9.33019 15.3989C9.34621 15.2046 9.3665 15.0521 9.29602 14.8297C9.22553 14.6073 9.12194 14.4947 8.99699 14.3442C8.85399 14.1769 8.70327 14.0152 8.54525 13.8595C8.2003 13.5119 7.77312 13.1147 7.36303 12.7213C6.99038 12.3723 6.63579 12.0078 6.30042 11.6288C6.21391 11.5268 6.17226 11.4598 6.12207 11.385C6.20751 11.3559 6.28119 11.3268 6.41041 11.2966C6.80449 11.2063 7.35448 11.1296 7.91943 11.0606C8.48331 10.9917 9.06427 10.9296 9.55019 10.8587C9.79368 10.8237 10.0126 10.7858 10.2027 10.7411C10.3928 10.6964 10.5445 10.6683 10.7345 10.5323C10.9246 10.3964 11.0015 10.2633 11.1051 10.0982C11.2098 9.93312 11.3155 9.73889 11.4276 9.52135C11.6519 9.08529 11.8997 8.55794 12.1485 8.0471C12.3643 7.58937 12.6023 7.14057 12.8619 6.70202C12.9324 6.5884 12.9836 6.52817 13.0392 6.45728Z" fill="white"/>
</g>
<defs>
<clipPath id="clip0_22_1203">
<rect width="26" height="26" fill="white"/>
</clipPath>
</defs>
</svg>
