<svg width="20" height="16" viewBox="0 0 20 16" fill="none" xmlns="http://www.w3.org/2000/svg">
<path d="M4.61539 14.9148C4.61539 15.1664 4.66667 15.418 4.74872 15.6406H1.79487C0.810256 15.6406 0 14.8761 0 13.9471V10.0761C0 9.14708 0.810256 8.38256 1.79487 8.38256H4.61539V14.9148ZM18.2051 5.47933H15.3846V14.9148C15.3846 15.1664 15.3333 15.418 15.2513 15.6406H18.2051C19.1897 15.6406 20 14.8761 20 13.9471V7.17288C20 6.24385 19.1897 5.47933 18.2051 5.47933ZM12.0513 0.640625H7.94872C6.95897 0.640625 6.15385 1.4003 6.15385 2.33417V14.9148C6.15385 15.3155 6.49846 15.6406 6.92308 15.6406H13.0769C13.5015 15.6406 13.8462 15.3155 13.8462 14.9148V2.33417C13.8462 1.4003 13.041 0.640625 12.0513 0.640625Z" fill="white"/>
</svg>
