<svg width="19" height="19" viewBox="0 0 19 19" fill="none" xmlns="http://www.w3.org/2000/svg">
<g clip-path="url(#clip0_109_21471)">
<path d="M4.75 8.90625H2.96875C2.33886 8.90625 1.73477 9.15647 1.28937 9.60187C0.843973 10.0473 0.59375 10.6514 0.59375 11.2812V17.8125C0.59375 17.97 0.656306 18.121 0.767655 18.2323C0.879005 18.3437 1.03003 18.4062 1.1875 18.4062H4.75C4.90747 18.4062 5.0585 18.3437 5.16984 18.2323C5.28119 18.121 5.34375 17.97 5.34375 17.8125V9.5C5.34375 9.34253 5.28119 9.19151 5.16984 9.08016C5.0585 8.96881 4.90747 8.90625 4.75 8.90625ZM11.2812 4.75H9.5C8.87011 4.75 8.26602 5.00022 7.82062 5.44562C7.37522 5.89102 7.125 6.49511 7.125 7.125V17.8125C7.125 17.97 7.18756 18.121 7.29891 18.2323C7.41025 18.3437 7.56128 18.4062 7.71875 18.4062H11.2812C11.4387 18.4062 11.5897 18.3437 11.7011 18.2323C11.8124 18.121 11.875 17.97 11.875 17.8125V5.34375C11.875 5.18628 11.8124 5.03525 11.7011 4.92391C11.5897 4.81256 11.4387 4.75 11.2812 4.75ZM17.8125 0.59375H16.0312C15.4014 0.59375 14.7973 0.843973 14.3519 1.28937C13.9065 1.73477 13.6562 2.33886 13.6562 2.96875V17.8125C13.6562 17.97 13.7188 18.121 13.8302 18.2323C13.9415 18.3437 14.0925 18.4062 14.25 18.4062H17.8125C17.97 18.4062 18.121 18.3437 18.2323 18.2323C18.3437 18.121 18.4062 17.97 18.4062 17.8125V1.1875C18.4062 1.03003 18.3437 0.879005 18.2323 0.767655C18.121 0.656306 17.97 0.59375 17.8125 0.59375Z" fill="white"/>
</g>
<defs>
<clipPath id="clip0_109_21471">
<rect width="19" height="19" fill="white"/>
</clipPath>
</defs>
</svg>
