<svg width="18" height="18" viewBox="0 0 18 18" fill="none" xmlns="http://www.w3.org/2000/svg">
<path fill-rule="evenodd" clip-rule="evenodd" d="M0.75 6.75C0.75 5.92157 1.42157 5.25 2.25 5.25H15.75C16.5785 5.25 17.25 5.92157 17.25 6.75V15C17.25 15.8284 16.5785 16.5 15.75 16.5H2.25C1.42157 16.5 0.75 15.8284 0.75 15V6.75ZM7.15364 7.58475C7.40169 7.45562 7.701 7.4752 7.93012 7.6356L11.6801 10.2606C11.8806 10.4009 12 10.6303 12 10.875C12 11.1197 11.8806 11.3491 11.6801 11.4894L7.93012 14.1144C7.701 14.2748 7.40169 14.2944 7.15364 14.1652C6.90559 14.0361 6.75 13.7797 6.75 13.5V8.25C6.75 7.97032 6.90559 7.7139 7.15364 7.58475ZM15 4.875H3V3.375H15V4.875ZM13.5 3H4.5V1.5H13.5V3Z" fill="white"/>
</svg>
