<svg width="51" height="64" viewBox="0 0 51 64" fill="none" xmlns="http://www.w3.org/2000/svg">
<path d="M50.3226 23.1598C50.3226 45.2075 25.1613 59.5385 25.1613 59.5385C20.3296 56.6002 15.9352 53.0944 12.0894 49.1099C5.99078 42.8043 0 33.897 0 23.1598C0 17.02 2.65091 11.1317 7.36957 6.79026C12.0882 2.44878 18.4881 0.00976563 25.1613 0.00976562C31.8345 0.00976563 38.2344 2.44878 42.953 6.79026C47.6717 11.1317 50.3226 17.02 50.3226 23.1598Z" fill="#5D8977"/>
<path d="M44.9281 18.1992C44.9281 32.1664 34.8396 43.0359 27.435 49.1211C25.3565 50.8578 22.6549 51.8282 19.8473 51.8465C17.0397 51.8648 14.3234 50.9297 12.2184 49.2203L12.0866 49.1101C6.68292 43.5982 1.39905 35.9586 0.236836 26.864C-1.53644 13.0842 9.43868 0.362675 24.5235 0.00991236C30.1131 -0.140987 35.5967 1.43468 40.0995 4.48559C43.2611 8.4643 44.9534 13.2706 44.9281 18.1992Z" fill="#6F9A8A"/>
<path d="M35.9461 28.3737L40.4152 24.2619L35.9461 20.15V14.3404H29.6318L25.1627 10.2285L20.6936 14.3404H14.3793V20.15L9.91016 24.2619L14.3793 28.3737V34.1833H20.6936L25.1627 38.2952L29.6318 34.1833H35.9461V28.3737Z" fill="#E5A430"/>
<path d="M18.192 25.576C18.1493 26.088 18.0213 26.5253 17.808 26.888C17.6 27.256 17.3307 27.536 17 27.728C16.6693 27.9253 16.3067 28.024 15.912 28.024C15.5333 28.024 15.2293 27.9493 15 27.8C14.7707 27.656 14.656 27.4053 14.656 27.048C14.656 26.9253 14.6827 26.8053 14.736 26.688C14.784 26.5707 14.8427 26.4773 14.912 26.408C15.04 26.4827 15.168 26.5413 15.296 26.584C15.424 26.632 15.5547 26.656 15.688 26.656C16.088 26.656 16.392 26.5413 16.6 26.312C16.808 26.088 16.9173 25.7493 16.928 25.296C16.9173 25.1093 16.88 24.8907 16.816 24.64C16.752 24.3893 16.6773 24.1307 16.592 23.864C16.512 23.592 16.4347 23.336 16.36 23.096C16.4347 23.016 16.536 22.9413 16.664 22.872C16.7973 22.7973 16.944 22.76 17.104 22.76C17.3173 22.76 17.4907 22.8213 17.624 22.944C17.7627 23.0667 17.872 23.2773 17.952 23.576C18.0053 23.7627 18.048 23.9627 18.08 24.176C18.1173 24.384 18.144 24.6053 18.16 24.84C18.1813 25.0693 18.192 25.3147 18.192 25.576ZM21.7473 26V24.632H22.7713V26H21.7473ZM20.4833 22.52C20.8193 22.52 21.1286 22.608 21.4113 22.784C21.6939 22.96 21.9206 23.2373 22.0913 23.616C22.2619 23.9947 22.3473 24.4853 22.3473 25.088L21.2513 25.952C21.1979 25.952 21.1233 25.952 21.0273 25.952C20.9313 25.952 20.8406 25.952 20.7553 25.952C20.1366 25.952 19.6539 25.8053 19.3073 25.512C18.9659 25.2133 18.7952 24.7947 18.7952 24.256C18.7952 23.8827 18.8726 23.568 19.0273 23.312C19.1819 23.056 19.3873 22.8613 19.6433 22.728C19.9046 22.5893 20.1846 22.52 20.4833 22.52ZM20.4593 23.704C20.3206 23.704 20.2059 23.7467 20.1153 23.832C20.0299 23.9173 19.9873 24.0293 19.9873 24.168C19.9873 24.3493 20.0513 24.4853 20.1793 24.576C20.3073 24.6613 20.4859 24.704 20.7153 24.704C20.7793 24.704 20.8433 24.704 20.9073 24.704C20.9713 24.704 21.0326 24.704 21.0913 24.704C21.0913 24.3253 21.0246 24.064 20.8913 23.92C20.7633 23.776 20.6193 23.704 20.4593 23.704ZM19.9473 28.024C19.5739 28.024 19.2646 27.9467 19.0193 27.792C18.7739 27.6373 18.6513 27.3787 18.6513 27.016C18.6513 26.9093 18.6753 26.7973 18.7233 26.68C18.7766 26.568 18.8379 26.4773 18.9073 26.408C19.0353 26.4827 19.1713 26.5413 19.3153 26.584C19.4646 26.632 19.6139 26.656 19.7633 26.656C20.1899 26.656 20.5233 26.5413 20.7633 26.312C21.0086 26.088 21.1366 25.7493 21.1473 25.296L22.3473 25.088C22.3473 25.7067 22.2406 26.2347 22.0273 26.672C21.8193 27.1093 21.5339 27.4427 21.1713 27.672C20.8139 27.9067 20.4059 28.024 19.9473 28.024ZM22.7713 26V24.632C22.8246 24.7173 22.8646 24.816 22.8913 24.928C22.9179 25.04 22.9313 25.168 22.9313 25.312C22.9313 25.456 22.9179 25.5867 22.8913 25.704C22.8646 25.8213 22.8246 25.92 22.7713 26ZM25.9589 24.952L26.1669 24.928C26.1669 25.104 26.1296 25.2747 26.0549 25.44C25.9803 25.6 25.8576 25.7333 25.6869 25.84C25.5163 25.9467 25.2896 26 25.0069 26C24.6283 26 24.3376 25.8933 24.1349 25.68C23.9376 25.4667 23.8336 25.2133 23.8229 24.92L23.9669 24.928C23.9776 25.216 23.8816 25.4667 23.6789 25.68C23.4763 25.8933 23.1696 26 22.7589 26H22.6469V24.632H22.7349C22.8683 24.632 22.9936 24.5973 23.1109 24.528C23.2283 24.4587 23.2896 24.3013 23.2949 24.056L23.3269 23.072C23.4069 23.0453 23.4896 23.024 23.5749 23.008C23.6603 22.9867 23.7616 22.976 23.8789 22.976C24.0336 22.976 24.1723 23.016 24.2949 23.096C24.4176 23.176 24.4843 23.3227 24.4949 23.536L24.5269 24.128C24.5376 24.3093 24.5803 24.44 24.6549 24.52C24.7349 24.5947 24.8416 24.632 24.9749 24.632C25.1083 24.632 25.2123 24.592 25.2869 24.512C25.3616 24.432 25.4016 24.2907 25.4069 24.088L25.4389 23.264C25.5189 23.248 25.6043 23.2347 25.6949 23.224C25.7856 23.208 25.8896 23.2 26.0069 23.2C26.1616 23.2 26.2949 23.2267 26.4069 23.28C26.5243 23.3333 26.5856 23.456 26.5909 23.648L26.6069 24.096C26.6176 24.272 26.6576 24.408 26.7269 24.504C26.7963 24.5947 26.9056 24.64 27.0549 24.64C27.1936 24.64 27.2976 24.6 27.3669 24.52C27.4363 24.44 27.4736 24.3093 27.4789 24.128L27.5109 23.072C27.5909 23.0453 27.6736 23.024 27.7589 23.008C27.8443 22.9867 27.9456 22.976 28.0629 22.976C28.2176 22.976 28.3563 23.016 28.4789 23.096C28.6016 23.176 28.6683 23.3227 28.6789 23.536L28.7109 24.088C28.7216 24.312 28.7856 24.4587 28.9029 24.528C29.0256 24.5973 29.1616 24.632 29.3109 24.632H29.4069V26H29.2709C28.8603 26 28.5483 25.8987 28.3349 25.696C28.1269 25.488 28.0176 25.2373 28.0069 24.944L28.1269 24.928C28.1269 25.2533 28.0389 25.5147 27.8629 25.712C27.6923 25.9093 27.4283 26.008 27.0709 26.008C26.7029 26.008 26.4309 25.9173 26.2549 25.736C26.0789 25.5493 25.9803 25.288 25.9589 24.952ZM29.4069 26V24.632C29.4603 24.7173 29.5003 24.816 29.5269 24.928C29.5536 25.04 29.5669 25.168 29.5669 25.312C29.5669 25.456 29.5536 25.5867 29.5269 25.704C29.5003 25.8213 29.4603 25.92 29.4069 26ZM29.2797 26V24.632H29.3918C29.5944 24.632 29.7331 24.576 29.8078 24.464C29.8824 24.352 29.9198 24.1813 29.9198 23.952L29.9038 20.64C29.9678 20.6293 30.0584 20.616 30.1758 20.6C30.2931 20.584 30.4158 20.576 30.5438 20.576C31.0238 20.576 31.2638 20.7653 31.2638 21.144L31.2398 24.36C31.2398 24.7387 31.1651 25.0507 31.0158 25.296C30.8664 25.536 30.6558 25.7147 30.3838 25.832C30.1171 25.944 29.7971 26 29.4238 26H29.2797ZM32.9268 26.08C32.6868 26.08 32.5054 26.04 32.3828 25.96C32.2601 25.8747 32.1988 25.7067 32.1988 25.456L32.1748 20.64C32.2388 20.6293 32.3294 20.616 32.4468 20.6C32.5641 20.584 32.6868 20.576 32.8148 20.576C33.2948 20.576 33.5348 20.7653 33.5348 21.144L33.5108 26C33.4521 26.016 33.3721 26.032 33.2708 26.048C33.1694 26.0693 33.0548 26.08 32.9268 26.08Z" fill="#824301"/>
</svg>
