<svg width="213" height="213" viewBox="0 0 213 213" fill="none" xmlns="http://www.w3.org/2000/svg">
<g clip-path="url(#clip0_1907_90)">
<path d="M213 106.5C213 127.564 206.754 148.154 195.052 165.668C183.349 183.182 166.716 196.832 147.256 204.893C127.796 212.954 106.382 215.063 85.7229 210.954C65.064 206.844 46.0875 196.701 31.1932 181.807C16.2989 166.913 6.15574 147.936 2.04642 127.277C-2.06291 106.618 0.0461449 85.2046 8.10688 65.7442C16.1676 46.2839 29.818 29.6509 47.3318 17.9485C64.8456 6.24612 85.4363 4.212e-06 106.5 4.212e-06C120.487 -0.0039299 134.338 2.74809 147.26 8.09882C160.183 13.4496 171.925 21.2941 181.816 31.1844C191.706 41.0746 199.551 52.8166 204.901 65.7396C210.252 78.6625 213.004 92.5131 213 106.5Z" fill="url(#paint0_linear_1907_90)"/>
<path d="M86.9727 155.309C83.5122 155.309 84.1324 153.978 82.8898 150.693L72.7734 117.326L135.608 78.0992L142.974 80.0519L136.851 96.7343L86.9727 155.309Z" fill="#C8DAEA"/>
<path d="M86.9766 155.311C88.0063 155.291 89.0185 155.041 89.9397 154.58C90.8609 154.12 91.6679 153.46 92.3021 152.648C94.6098 150.43 124.251 121.587 124.251 121.587L106.059 117.149L89.1966 127.798L86.9766 154.423V155.311Z" fill="#A9C9DD"/>
<path d="M88.7496 128.155L131.696 159.839C136.577 162.502 140.127 161.169 141.37 155.313L158.858 72.9535C160.634 65.7651 156.108 62.5697 151.403 64.6999L48.8124 104.282C41.8015 107.122 41.8892 111.028 47.5697 112.713L73.9279 120.967L134.904 82.5373C137.744 80.7621 140.407 81.7395 138.277 83.6901L88.7496 128.155Z" fill="url(#paint1_linear_1907_90)"/>
</g>
<defs>
<linearGradient id="paint0_linear_1907_90" x1="-606.411" y1="474.777" x2="-615.357" y2="453.903" gradientUnits="userSpaceOnUse">
<stop stop-color="#37AEE2"/>
<stop offset="1" stop-color="#1E96C8"/>
</linearGradient>
<linearGradient id="paint1_linear_1907_90" x1="114.426" y1="104.929" x2="131.131" y2="67.0469" gradientUnits="userSpaceOnUse">
<stop stop-color="#EFF7FC"/>
<stop offset="1" stop-color="white"/>
</linearGradient>
<clipPath id="clip0_1907_90">
<rect width="213" height="213" fill="white"/>
</clipPath>
</defs>
</svg>
