<svg width="18" height="22" viewBox="0 0 18 22" fill="none" xmlns="http://www.w3.org/2000/svg">
<path d="M16.4348 0.758621H13.6957C13.6957 0.341379 13.3435 0 12.913 0H5.08696C4.65652 0 4.30435 0.341379 4.30435 0.758621H1.56522C0.704348 0.758621 0 1.44138 0 2.27586V20.4828C0 21.3172 0.704348 22 1.56522 22H16.4348C17.2957 22 18 21.3172 18 20.4828V2.27586C18 1.44138 17.2957 0.758621 16.4348 0.758621ZM15.6522 18.2069H13.6957C13.4609 18.2069 13.3043 18.3586 13.3043 18.5862V20.1034H3.13043C2.7 20.1034 2.34783 19.7621 2.34783 19.3448V3.41379C2.34783 2.99655 2.7 2.65517 3.13043 2.65517H4.69565H13.3043H14.8696C15.3 2.65517 15.6522 2.99655 15.6522 3.41379V18.2069ZM14.087 19.6483V18.9655H14.9478L14.087 19.6483ZM5.08696 0.758621H12.913V1.13793V1.89655H5.08696V1.13793V0.758621ZM17.2174 20.4828C17.2174 20.9 16.8652 21.2414 16.4348 21.2414H1.56522C1.13478 21.2414 0.782609 20.9 0.782609 20.4828V2.27586C0.782609 1.85862 1.13478 1.51724 1.56522 1.51724H4.30435V1.89655H3.13043C2.26957 1.89655 1.56522 2.57931 1.56522 3.41379V19.3448C1.56522 20.1793 2.26957 20.8621 3.13043 20.8621H13.6957C13.7739 20.8621 13.8913 20.8241 13.9304 20.7862L16.2783 18.8897C16.3957 18.8138 16.4348 18.7 16.4348 18.5862V3.41379C16.4348 2.57931 15.7304 1.89655 14.8696 1.89655H13.6957V1.51724H16.4348C16.8652 1.51724 17.2174 1.85862 17.2174 2.27586V20.4828Z" fill="black"/>
<path d="M3.5163 7.20636H5.86413C6.09891 7.20636 6.25543 7.05463 6.25543 6.82705V5.38567L6.88152 4.89256C7.07717 4.77877 7.07717 4.51325 6.95978 4.36153C6.84239 4.17188 6.56848 4.17188 6.41196 4.28567L6.2163 4.43739C6.17717 4.28567 6.05978 4.17188 5.86413 4.17188H3.5163C3.28152 4.17188 3.125 4.3236 3.125 4.55119V6.82705C3.125 7.05463 3.28152 7.20636 3.5163 7.20636ZM3.90761 5.68912V4.9305H5.47283V5.00636L4.72935 5.57532L4.57283 5.4236C4.4163 5.27187 4.18152 5.27187 4.025 5.4236C3.94674 5.49946 3.90761 5.61325 3.90761 5.68912C3.90761 5.76498 3.94674 5.87877 4.025 5.95463L4.4163 6.33394C4.49456 6.40981 4.57283 6.44774 4.69022 6.44774C4.76848 6.44774 4.84674 6.40981 4.925 6.40981L5.47283 5.99256V6.44774H4.69022H3.90761V5.68912ZM5.86413 11.7581H3.5163C3.28152 11.7581 3.125 11.9098 3.125 12.1374V14.4133C3.125 14.6408 3.28152 14.7926 3.5163 14.7926H5.86413C6.09891 14.7926 6.25543 14.6408 6.25543 14.4133V12.1374C6.25543 11.9098 6.09891 11.7581 5.86413 11.7581ZM5.47283 14.0339H3.90761V12.5167H5.47283V14.0339Z" fill="black"/>
<path d="M14.0832 5.30957H7.03974C6.80496 5.30957 6.64844 5.46129 6.64844 5.68888C6.64844 5.91647 6.80496 6.06819 7.03974 6.06819H14.0832C14.318 6.06819 14.4745 5.91647 14.4745 5.68888C14.4745 5.46129 14.318 5.30957 14.0832 5.30957ZM14.0832 9.10267H7.03974C6.80496 9.10267 6.64844 9.2544 6.64844 9.48198C6.64844 9.70957 6.80496 9.86129 7.03974 9.86129H14.0832C14.318 9.86129 14.4745 9.70957 14.4745 9.48198C14.4745 9.2544 14.318 9.10267 14.0832 9.10267ZM14.0832 12.8958H7.03974C6.80496 12.8958 6.64844 13.0475 6.64844 13.2751C6.64844 13.5027 6.80496 13.6544 7.03974 13.6544H14.0832C14.318 13.6544 14.4745 13.5027 14.4745 13.2751C14.4745 13.0475 14.318 12.8958 14.0832 12.8958Z" fill="black"/>
<path d="M6.88152 8.68553C7.07717 8.57174 7.07717 8.30622 6.95978 8.1545C6.84239 7.96484 6.56848 7.96484 6.41196 8.07864L6.2163 8.23036C6.17717 8.07864 6.05978 7.96484 5.86413 7.96484H3.5163C3.28152 7.96484 3.125 8.11657 3.125 8.34415V10.62C3.125 10.8476 3.28152 10.9993 3.5163 10.9993H5.86413C6.09891 10.9993 6.25543 10.8476 6.25543 10.62V9.17864L6.88152 8.68553ZM5.47283 10.2407H4.69022H3.90761V9.48209V8.72346H5.47283V8.79933L4.72935 9.36829L4.57283 9.21657C4.4163 9.06484 4.18152 9.06484 4.025 9.21657C3.94674 9.29243 3.90761 9.40622 3.90761 9.48209C3.90761 9.55795 3.94674 9.67174 4.025 9.7476L4.4163 10.1269C4.49456 10.2028 4.57283 10.2407 4.69022 10.2407C4.76848 10.2407 4.84674 10.2028 4.925 10.2028L5.47283 9.78553V10.2407Z" fill="black"/>
</svg>
