<svg width="179" height="179" viewBox="0 0 179 179" fill="none" xmlns="http://www.w3.org/2000/svg">
<path d="M131.951 82.9631C131.18 82.5935 130.397 82.2378 129.604 81.8973C128.222 56.4393 114.311 41.8646 90.9535 41.7154C90.8477 41.7147 90.7425 41.7147 90.6367 41.7147C76.6657 41.7147 65.0463 47.6782 57.8946 58.5299L70.7406 67.342C76.0832 59.2362 84.4679 57.5082 90.6428 57.5082C90.7141 57.5082 90.7857 57.5082 90.8563 57.5089C98.5472 57.5579 104.351 59.794 108.107 64.1547C110.84 67.3295 112.669 71.7165 113.574 77.2532C106.755 76.0943 99.3806 75.738 91.4972 76.1899C69.2897 77.4691 55.013 90.421 55.9718 108.418C56.4584 117.547 61.0063 125.401 68.7772 130.531C75.3475 134.868 83.8095 136.989 92.6041 136.509C104.218 135.872 113.33 131.441 119.686 123.338C124.513 117.185 127.567 109.211 128.915 99.1641C134.45 102.505 138.552 106.9 140.817 112.185C144.669 121.167 144.894 135.928 132.85 147.962C122.297 158.505 109.613 163.065 90.4423 163.206C69.1774 163.048 53.0949 156.229 42.6386 142.936C32.8472 130.489 27.7869 112.511 27.5981 89.5C27.7869 66.489 32.8472 48.5105 42.6386 36.0636C53.0949 22.7711 69.1771 15.9515 90.442 15.7935C111.861 15.9527 128.224 22.8052 139.08 36.1617C144.404 42.7116 148.417 50.9486 151.063 60.5526L166.117 56.5362C162.91 44.7148 157.863 34.5281 150.996 26.0799C137.078 8.95623 116.722 0.181935 90.4945 0H90.3895C64.2151 0.181303 44.0874 8.98897 30.5657 26.1781C18.5331 41.4743 12.3264 62.7579 12.1178 89.4371L12.1172 89.5L12.1178 89.5629C12.3264 116.242 18.5331 137.526 30.5657 152.822C44.0874 170.011 64.2151 178.819 90.3895 179H90.4945C113.765 178.839 130.168 172.746 143.68 159.246C161.359 141.583 160.827 119.444 155 105.853C150.82 96.1072 142.85 88.1912 131.951 82.9631ZM91.7727 120.738C82.0395 121.286 71.9278 116.918 71.4292 107.56C71.0597 100.622 76.3668 92.8805 92.37 91.9583C94.2027 91.8525 96.0011 91.8009 97.7678 91.8009C103.581 91.8009 109.019 92.3656 113.963 93.4464C112.119 116.476 101.302 120.215 91.7727 120.738Z" fill="black"/>
</svg>
