<svg width="33" height="40" viewBox="0 0 33 40" fill="none" xmlns="http://www.w3.org/2000/svg">
<path d="M32.3123 19.8281C32.3123 12.9977 28.0897 6.99548 21.726 4.66148C21.3356 4.51828 20.9003 4.74462 20.7753 5.14103L20.3329 6.54369C20.2144 6.91969 20.4204 7.30905 20.7897 7.44712C25.9532 9.37764 29.3748 14.2673 29.3748 19.8281C29.3748 25.6236 25.621 30.5479 20.4209 32.3276L21.0814 31.6671C21.3682 31.3803 21.3682 30.9154 21.0814 30.6285L20.0431 29.5901C19.7563 29.3033 19.2914 29.3033 19.0044 29.5901L15.1177 33.4772C14.5441 34.0506 14.5441 34.9806 15.1177 35.5541L19.0046 39.441C19.2914 39.7279 19.7563 39.7279 20.0433 39.441L21.0815 38.4026C21.3684 38.1158 21.3684 37.6509 21.0815 37.3641L19.3776 35.6602C26.7478 34.1627 32.3123 27.6338 32.3123 19.8281Z" fill="#A9D2ED"/>
<path d="M17.1947 4.10218L13.3078 0.215135C13.0209 -0.0717117 12.556 -0.0717117 12.2691 0.215135L11.2308 1.25354C10.9439 1.54039 10.9439 2.00525 11.2308 2.29209L12.9347 3.99614C5.56451 5.49353 0 12.0224 0 19.8281C0 26.6585 4.22251 32.6598 10.5862 34.9951C10.9766 35.1383 11.412 34.9121 11.5372 34.5156L11.9797 33.1116C12.0982 32.7358 11.8922 32.3464 11.5229 32.2085C6.35925 30.2779 2.9375 25.3889 2.9375 19.8281C2.9375 14.0331 6.69118 9.10871 11.8911 7.32888L11.2309 7.98908C10.9441 8.27593 10.9441 8.74079 11.2309 9.02763L12.2692 10.066C12.556 10.3529 13.0209 10.3529 13.3079 10.066L17.1947 6.17899C17.7682 5.60545 17.7682 4.67558 17.1947 4.10218Z" fill="#36A0E8"/>
</svg>
