<svg width="204" height="205" viewBox="0 0 204 205" fill="none" xmlns="http://www.w3.org/2000/svg">
<g clip-path="url(#clip0_1906_35)">
<path d="M174.274 29.7907C155.096 10.5911 129.596 0.0117141 102.428 0C46.4433 0 0.88294 45.5676 0.860526 101.577C0.854003 119.48 5.52971 136.957 14.417 152.362L0.0078125 205L53.8499 190.875C68.6844 198.969 85.3871 203.234 102.384 203.241H102.427H102.428C158.404 203.241 203.971 157.666 203.995 101.659C204.004 74.5144 193.448 48.9917 174.274 29.7907ZM102.428 186.085H102.395C87.2446 186.076 72.3875 182.007 59.4285 174.314L56.3445 172.485L24.3935 180.866L32.9239 149.71L30.9146 146.516C22.4636 133.072 18.0021 117.536 18.0085 101.583C18.027 55.0303 55.895 17.1574 102.46 17.1574C125.009 17.1667 146.203 25.9604 162.142 41.9185C178.081 57.8765 186.852 79.0905 186.845 101.652C186.825 148.206 148.956 186.085 102.428 186.085Z" fill="#E0E0E0"/>
<path d="M4.67188 199.159L18.4228 148.926C9.93936 134.224 5.47809 117.545 5.48344 100.462C5.50569 47.0128 48.9852 3.52795 102.408 3.52795C128.337 3.53967 152.672 13.6352 170.969 31.9583C189.27 50.2812 199.343 74.6364 199.332 100.538C199.31 153.989 155.828 197.478 102.412 197.478C102.408 197.478 102.414 197.478 102.412 197.478H102.369C86.1479 197.473 70.2094 193.399 56.0535 185.68L4.67188 199.159Z" fill="url(#paint0_linear_1906_35)"/>
<path fill-rule="evenodd" clip-rule="evenodd" d="M77.3296 58.4525C75.4505 54.2728 73.4721 54.1891 71.6844 54.116C70.2222 54.0532 68.5482 54.0571 66.8769 54.0571C65.2042 54.0571 62.4862 54.6859 60.1876 57.1974C57.8877 59.709 51.4062 65.7804 51.4062 78.1286C51.4062 90.4781 60.3967 102.411 61.6499 104.087C62.9043 105.76 79.0049 131.91 104.503 141.971C125.695 150.331 130.007 148.668 134.607 148.25C139.207 147.832 149.449 142.18 151.54 136.319C153.631 130.459 153.631 125.436 153.004 124.386C152.376 123.34 150.704 122.713 148.195 121.458C145.686 120.203 133.353 114.13 131.053 113.293C128.753 112.456 127.08 112.038 125.408 114.551C123.735 117.061 118.93 122.713 117.466 124.386C116.003 126.063 114.539 126.273 112.03 125.018C109.521 123.759 101.442 121.111 91.8568 112.561C84.3992 105.909 79.3642 97.6932 77.9006 95.1805C76.437 92.6703 77.7437 91.3107 79.0022 90.0594C80.1286 88.935 81.5112 87.1296 82.7656 85.664C84.0175 84.1983 84.4356 83.1524 85.2719 81.479C86.1083 79.8029 85.6901 78.3374 85.0629 77.0823C84.4356 75.8273 79.5602 63.4153 77.3296 58.4525Z" fill="white"/>
<path d="M173.445 29.4679C154.488 10.4886 129.281 0.0309244 102.424 0.019043C47.0821 0.019043 2.04478 45.0636 2.02253 100.43C2.01601 118.128 6.63803 135.404 15.4233 150.632L1.17969 202.666L54.4037 188.703C69.0681 196.704 85.579 200.92 102.381 200.927H102.424H102.424C157.757 200.927 202.801 155.874 202.825 100.511C202.834 73.6782 192.4 48.4485 173.445 29.4679ZM102.424 183.968H102.392C87.415 183.96 72.7284 179.937 59.9183 172.332L56.8695 170.524L25.2853 178.809L33.7178 148.011L31.7315 144.853C23.3775 131.564 18.9673 116.206 18.9738 100.436C18.992 54.418 56.4253 16.9798 102.456 16.9798C124.746 16.989 145.696 25.6817 161.453 41.4566C177.209 57.2315 185.879 78.2018 185.872 100.505C185.853 146.524 148.418 183.968 102.424 183.968Z" fill="white"/>
</g>
<defs>
<linearGradient id="paint0_linear_1906_35" x1="102.002" y1="199.159" x2="102.002" y2="3.52828" gradientUnits="userSpaceOnUse">
<stop stop-color="#20B038"/>
<stop offset="1" stop-color="#60D66A"/>
</linearGradient>
<clipPath id="clip0_1906_35">
<rect width="204" height="205" fill="white"/>
</clipPath>
</defs>
</svg>
