<svg width="289" height="289" viewBox="0 0 289 289" fill="none" xmlns="http://www.w3.org/2000/svg">
<g clip-path="url(#clip0_1907_85)">
<path d="M224.133 0H64.8673C29.0421 0 0 29.0421 0 64.8673V224.133C0 259.958 29.0421 289 64.8673 289H224.133C259.958 289 289 259.958 289 224.133V64.8673C289 29.0421 259.958 0 224.133 0Z" fill="#FD3832"/>
<path fill-rule="evenodd" clip-rule="evenodd" d="M80.0836 197.905C77.1948 197.03 74.5591 195.472 72.3987 193.364C70.2383 191.256 68.6167 188.659 67.6707 185.793C62.2651 170.977 60.6634 109.113 71.0742 96.9006C74.5391 92.9277 79.4311 90.4817 84.6884 90.0935C112.617 87.0904 198.907 87.4908 208.817 91.0946C211.605 91.9989 214.151 93.5222 216.266 95.5506C218.381 97.5789 220.01 100.06 221.03 102.807C226.936 118.123 227.136 173.78 220.229 188.496C218.397 192.326 215.329 195.429 211.52 197.305C201.109 202.51 93.8979 202.41 80.0836 197.905ZM124.43 168.875L174.482 142.848L124.43 116.621V168.875Z" fill="white"/>
</g>
<defs>
<clipPath id="clip0_1907_85">
<rect width="289" height="289" fill="white"/>
</clipPath>
</defs>
</svg>
